ply
format ascii 1.0
element vertex 695
property float x
property float y
property float z
element face 832
property list uchar int vertex_index
end_header
-23.364277 -83.397156 23.408726
8.292495 -95.001648 -18.426027
-19.253696 -99.389374 3.303454
-10.129201 -85.383118 22.528307
-1.581392 -95.756882 0.864174
-21.346092 -91.557503 14.151481
-24.680716 -94.317986 3.511598
-21.210505 -79.171959 33.463261
-14.572083 -79.125267 33.509022
-17.518099 -86.510826 23.807789
-14.265622 -93.330376 13.217782
7.131131 -89.426086 1.209792
2.171983 -86.858414 11.187823
-15.463054 -105.253357 -7.340064
-22.689062 -102.222488 -7.022058
-6.116774 -91.205261 11.610236
-10.867319 -99.412415 2.218378
-6.291302 -103.33226 -8.486573
12.144599 -88.329781 -8.333129
3.267058 -97.277924 -8.975891
-22.324291 -87.500748 18.938763
-23.708393 -89.00341 13.810966
-24.340614 -84.614464 18.264668
-22.267767 -81.665016 28.337236
-19.213346 -82.871529 28.87532
-20.752586 -85.490341 23.987207
-19.327646 -89.343277 19.099689
6.206706 -84.256226 11.456789
12.886164 -89.596436 -17.975365
-17.526117 -102.651947 -2.017383
-19.3589 -104.416779 -7.049994
-21.205214 -101.265007 -1.768029
-25.771439 -94.566742 -2.009389
-12.325427 -82.169365 28.294405
-8.725245 -80.77961 27.671162
-6.321572 -83.753929 21.935787
-4.124206 -86.63089 16.419106
-8.075419 -88.333252 17.021263
-16.802374 -96.689102 8.392347
-12.845732 -96.710205 7.519037
-15.257839 -99.994003 2.843173
-13.256799 -102.783119 -2.590271
13.489575 -84.932106 -2.903185
2.868836 -92.875671 0.793316
5.314561 -93.41188 -3.950365
0.770129 -97.083694 -4.3232
-1.37715 -100.678131 -8.907367
-3.908505 -99.850021 -3.992502
-20.405722 -95.464699 9.049294
-22.380814 -97.361916 3.798123
-23.228161 -93.151299 8.950747
-25.014954 -89.957352 8.294302
-18.067144 -79.544472 33.856762
-15.77446 -82.959206 28.738903
-13.922832 -86.296234 23.380836
-12.029211 -89.638779 17.688686
-15.866362 -89.941818 18.648777
-18.209824 -93.119141 13.787756
11.225373 -85.514168 1.785833
4.663432 -88.502029 6.213496
0.323408 -91.455803 5.94943
-24.516602 -79.347961 27.132442
-25.068895 -80.453682 22.136833
-24.010569 -98.46051 -1.662234
-25.044569 -98.726006 -7.184369
-0.339501 -84.666565 16.190458
-1.902687 -89.26403 11.116406
-3.996443 -93.810524 6.179995
-10.416962 -92.73909 12.295582
-8.451479 -95.627571 6.768939
-6.112347 -97.951721 1.358117
-8.719423 -101.740929 -3.17672
-10.917928 -104.792297 -7.721639
10.462972 -91.773712 -13.742796
9.702575 -89.333221 -3.701941
7.775513 -93.183891 -8.855747
5.772447 -96.685654 -13.911062
-22.856333 -85.395645 21.266615
-23.372515 -86.259796 18.719637
-23.845657 -84.136276 20.833061
-22.851852 -82.626038 25.790277
-21.531878 -83.642433 26.101786
-22.214428 -84.615379 23.654123
-21.578793 -86.507874 21.553467
10.646975 -92.361099 -18.324572
-18.421757 -101.107574 0.619922
-19.554323 -102.063538 -1.80112
-20.243376 -100.420372 0.829783
-11.232192 -83.730957 25.513807
-10.492888 -81.550278 27.938648
-9.351431 -83.122681 25.052341
-7.468681 -82.233231 24.825682
-8.167554 -84.598885 22.202744
-7.101701 -86.105583 19.370054
-9.094199 -86.877052 19.754707
-18.068645 -98.076263 5.959574
-16.107285 -98.432518 5.547693
-17.366598 -99.895325 3.032289
-16.463102 -101.422974 0.432492
14.162504 -83.092628 -0.039081
0.672978 -94.439499 0.683679
1.904275 -94.990768 -1.831446
-0.435586 -96.52034 -1.715357
-1.482029 -98.484116 -4.131856
-2.739499 -97.902901 -1.651915
-20.887318 -93.562309 11.596823
-21.951147 -94.626381 8.784482
-22.23 -92.626457 11.420653
-24.591566 -87.331856 13.33229
-24.439075 -89.399445 11.133822
-19.252731 -77.791847 36.286945
-19.80546 -79.419273 33.80827
-18.352308 -84.652069 26.439749
-17.552744 -82.983521 28.955221
-16.683348 -84.660881 26.488136
-14.915095 -84.586838 26.189226
-15.85409 -86.445709 23.777771
-14.90249 -88.09285 21.144352
-16.635166 -88.180496 21.341049
-20.326599 -90.515213 16.693224
-18.721285 -91.181709 16.585331
-19.834019 -92.440857 14.131624
-19.333769 -94.340057 11.485061
4.194274 -85.504692 11.42566
5.545912 -86.328865 8.834258
3.519807 -87.755188 8.623722
2.514675 -90.099663 5.913596
1.405023 -89.073021 8.591994
-21.186342 -103.427094 -6.931154
-19.993996 -104.929665 -9.650033
-21.68548 -103.803703 -9.610712
-23.696394 -96.031784 3.512689
-23.276196 -98.011917 1.052763
-24.452297 -96.329994 0.952235
-26.073423 -94.594521 -4.773139
-25.471464 -96.840736 -4.737193
-25.333969 -80.730583 19.544703
0.343334 -82.351128 18.774612
-1.435432 -83.385933 18.702372
-5.147994 -89.00647 13.965924
-3.149048 -88.120735 13.669392
-3.952642 -90.351257 11.19644
-2.932927 -91.685745 8.474055
-5.095767 -92.606201 8.841105
-13.292128 -91.482697 15.610081
-11.266647 -91.163475 15.076377
-12.319373 -93.101738 12.786457
-11.87146 -98.086983 4.893762
-10.654531 -96.356224 7.003964
-9.472711 -97.581863 4.381485
-7.274163 -96.853302 4.039747
-8.460331 -98.782593 1.766624
-7.394283 -99.845047 -0.815919
-9.812329 -100.638283 -0.472933
-14.474858 -104.165871 -4.983667
-12.266256 -103.99295 -5.330165
-13.146132 -105.186577 -7.548164
14.049194 -85.901939 -8.005527
13.372685 -87.54776 -10.795903
12.434216 -89.34037 -13.309693
11.238386 -90.161766 -10.948423
9.264301 -87.495499 1.454726
10.442208 -87.430748 -0.870598
8.435354 -89.46888 -1.217242
4.467087 -95.32592 -6.654036
6.599729 -93.380867 -6.45061
5.656413 -95.26152 -9.079709
6.910342 -94.897903 -11.462662
4.559561 -97.074951 -11.46461
-3.753938 -102.087128 -8.748746
-21.814177 -89.513878 16.649969
-22.618916 -90.475227 13.984048
-23.03071 -88.330879 16.352739
-24.054724 -86.691742 16.124928
-21.727722 -80.47393 30.934984
-20.170624 -81.06424 31.199398
-20.794811 -82.484001 28.622799
-20.050329 -84.311981 26.311066
-19.136368 -86.099342 24.056784
-18.481009 -87.922211 21.549595
-20.093378 -87.389656 21.599236
-20.944273 -88.604927 19.034683
4.981998 -83.316437 13.969349
2.953136 -84.568016 13.823001
-16.549519 -104.078293 -4.751107
-17.518013 -105.001137 -7.204816
-18.676989 -103.572578 -4.404124
-20.44521 -102.925484 -4.472763
-22.00038 -101.789894 -4.157516
-25.465246 -92.385941 3.151803
-25.296185 -94.518723 0.762825
-13.327129 -80.679749 30.842916
-11.544154 -79.984764 30.693941
-4.40045 -82.852165 21.64559
-3.31744 -84.29068 18.924057
-5.291974 -85.114723 19.336012
-6.054072 -87.451057 16.761475
-7.087618 -89.763687 14.332277
-15.542757 -95.071686 10.860429
-13.513172 -95.046448 10.359493
-14.845695 -96.744392 8.110745
-14.101925 -98.349197 5.331278
-13.101516 -99.784233 2.631133
-12.150612 -101.201057 -0.17686
-14.404581 -101.38829 0.272241
-15.442706 -102.791069 -2.124578
14.702277 -84.21656 -5.227304
12.828459 -86.64225 -5.609871
5.09041 -91.228706 0.823478
6.372155 -91.411316 -1.56282
4.142495 -93.225838 -1.630421
3.110531 -95.333687 -4.273074
2.128168 -97.168877 -6.583265
0.967411 -99.038475 -8.906091
-0.193065 -98.847855 -6.584625
-2.720372 -100.418465 -6.468906
-5.136182 -101.659645 -6.212933
5.774169 -97.567749 -18.554779
-19.781507 -97.453331 6.274178
-20.929909 -98.534119 3.567842
-21.338173 -96.639465 6.319758
-22.835262 -95.351334 6.332359
-23.95619 -93.965683 6.137563
-23.47768 -91.119072 11.349792
-24.260681 -91.683212 8.598739
-24.896593 -92.200165 5.820482
-25.56616 -90.132874 5.465075
-16.317732 -79.253639 33.979866
-18.567173 -81.198189 31.479797
-16.902758 -81.284607 31.317228
-15.201579 -81.054123 31.184784
-14.075393 -82.622734 28.596853
-13.074278 -84.244827 25.875313
-11.989325 -85.890694 22.988901
-10.996767 -87.541306 20.080627
-12.950107 -87.945442 20.581238
-13.962584 -89.732574 18.43482
-15.146972 -91.68557 15.919973
-17.628981 -89.738739 19.007435
-17.020414 -91.70591 16.100983
-16.302433 -93.374771 13.547482
-17.518616 -94.960518 11.064866
-18.745066 -96.209717 8.792126
12.994175 -83.520676 2.220807
9.95638 -85.57914 4.178981
8.003308 -87.409637 3.783667
7.44738 -84.869041 9.133288
6.777683 -86.971725 6.314181
6.009265 -89.001572 3.679561
3.934412 -90.640434 3.416719
1.644017 -92.241867 3.328893
-0.610599 -93.619659 3.416801
-23.955839 -81.392097 25.225233
-24.291473 -82.111519 22.778238
-24.826302 -79.959457 24.540514
-23.528969 -80.608307 27.781389
-18.136919 -105.722435 -9.793922
-21.893049 -99.42054 0.882389
-22.765472 -99.998917 -1.706917
-23.446198 -100.485535 -4.494142
-25.002867 -96.721954 -1.862615
-24.646084 -98.668343 -4.506105
-24.680872 -82.531319 20.302347
1.674891 -83.472359 16.309813
0.945323 -85.707954 13.803818
-2.218762 -85.676018 16.252939
-1.047873 -86.846687 13.787071
0.089496 -88.047165 11.221143
-0.704974 -90.324348 8.599986
-1.724772 -92.642212 6.009581
-2.82992 -94.906624 3.459706
-10.080403 -89.078415 17.339134
-9.288564 -90.609871 14.658748
-8.217362 -92.011131 11.943481
-11.496668 -94.854721 9.753918
-9.409108 -94.215248 9.506427
-7.189454 -93.464218 9.126081
-6.289961 -94.828957 6.445815
-4.997177 -95.910843 3.746554
-3.929815 -97.061111 0.947416
-4.987892 -98.976883 -1.352737
-6.378362 -100.828903 -3.414489
-7.395277 -102.61895 -5.918517
-10.999816 -102.451408 -2.995399
-9.843297 -103.422607 -5.57332
-8.711285 -104.226517 -8.096743
11.737912 -90.721001 -15.921367
9.45041 -93.414322 -16.171442
12.357418 -85.356544 -0.623937
11.619289 -87.201653 -3.338999
10.812886 -89.053009 -6.00852
7.606184 -91.434532 -3.979192
8.706798 -91.373131 -6.409156
9.941121 -90.888733 -8.619164
9.139917 -92.579643 -11.287433
8.192605 -94.243851 -13.736418
7.059344 -95.934555 -16.166784
8.910754 -94.412052 -19.528382
10.087993 -93.091778 -19.477654
9.469735 -93.681374 -18.3753
14.421726 -82.245369 1.377498
15.011963 -81.932254 0.251327
15.271185 -81.084995 1.667906
-24.858536 -87.464909 12.018576
-24.922364 -86.325276 13.039349
-20.507983 -79.295616 33.635766
-20.304532 -78.560802 34.886311
-21.007055 -78.437145 34.713807
-15.832866 -105.676319 -8.540425
-14.804267 -105.694069 -8.500982
-22.914475 -102.306907 -8.422902
-22.412683 -103.097515 -9.717229
-22.187271 -103.013095 -8.316385
-25.927954 -95.611988 -6.008203
-26.168602 -94.461895 -6.160045
-14.381144 -78.054112 34.814356
-15.185333 -78.306663 34.842361
-2.001626 -82.691395 20.034977
-1.147671 -82.2453 19.987731
-14.804267 -105.694069 -8.500982
-13.645805 -105.660679 -8.605032
-14.304593 -105.219967 -7.444114
2.757119 -98.141144 -10.209231
3.403371 -98.039658 -11.45359
3.91331 -97.176437 -10.220251
-5.708074 -103.509079 -9.605031
-4.439392 -102.886513 -9.736118
-5.02262 -102.709694 -8.61766
-6.916978 -104.044495 -9.463107
-5.708074 -103.509079 -9.605031
-24.583802 -84.831395 16.855361
-24.440857 -85.870034 15.785491
-24.197669 -85.653103 17.194798
4.330122 -82.821884 15.185312
5.212611 -82.226628 15.349996
4.560735 -81.732075 16.56596
3.315691 -83.447674 15.112139
3.967567 -83.942227 13.896175
4.330122 -82.821884 15.185312
13.456246 -88.948678 -19.088099
13.961018 -88.172165 -17.901205
-25.682504 -92.404965 1.858764
-25.722112 -91.276497 2.962875
-9.2846 -80.017834 29.06553
-10.168422 -80.403168 29.199273
-9.609067 -81.164944 27.804905
-8.388971 -79.726696 28.766196
-9.2846 -80.017834 29.06553
-7.775679 -80.390137 27.446713
-8.388971 -79.726696 28.766196
-5.981685 -82.57283 23.222879
-6.555239 -81.812481 24.667826
-6.895126 -82.99358 23.380735
-5.361011 -83.303047 21.790689
-5.021124 -82.121948 23.07778
-5.981685 -82.57283 23.222879
14.095926 -84.574333 -4.065245
15.01951 -83.358257 -3.850619
14.413159 -83.71603 -2.68856
5.197805 -98.198494 -19.621744
4.575628 -98.649174 -18.452127
-17.797382 -78.639676 35.084641
-18.390175 -77.763363 36.299732
-18.659937 -78.66816 35.071854
-17.192438 -79.399056 33.918314
-16.922676 -78.494259 35.146192
-17.797382 -78.639676 35.084641
9.357743 -85.415069 5.461968
10.2428 -84.596287 5.659995
8.381207 -86.330318 5.264311
8.979844 -86.494388 3.981324
9.357743 -85.415069 5.461968
6.827043 -84.562634 10.295039
7.776557 -83.837596 10.472995
7.15622 -83.531189 11.634746
-24.022785 -79.978134 27.456916
-23.873832 -79.553451 28.807527
-24.367649 -78.923279 28.483053
-19.341971 -105.511398 -10.991318
-20.272161 -104.999203 -10.887326
-24.529333 -99.661786 -7.131112
-24.33009 -99.632954 -5.79198
-24.845326 -98.697174 -5.845237
-24.697818 -99.667843 -8.511222
-24.529333 -99.661786 -7.131112
-25.200004 -81.759727 18.574295
-25.450267 -80.81345 18.152808
-10.34535 -105.137089 -8.926157
-9.242028 -104.854198 -9.113709
-9.814607 -104.509407 -7.909191
5.19078 -97.489682 -15.083196
5.834229 -97.114132 -16.211058
6.415895 -96.310104 -15.038923
-0.833692 -100.784577 -10.132212
0.338589 -99.964749 -10.131574
-0.20487 -99.858303 -8.906729
11.265059 -91.703655 -19.408993
12.384654 -90.321324 -19.234389
11.766569 -90.978768 -18.149968
11.265059 -91.703655 -19.408993
10.087993 -93.091778 -19.477654
14.749624 -82.796291 -1.256507
15.011963 -81.932254 0.251327
13.82604 -84.012367 -1.471133
14.413159 -83.71603 -2.68856
14.749624 -82.796291 -1.256507
-24.782291 -88.498703 10.919342
-24.515321 -88.365651 12.233056
-24.858536 -87.464909 12.018576
-25.070231 -88.777657 9.499582
-24.727014 -89.678399 9.714062
-24.782291 -88.498703 10.919342
-25.297111 -88.879112 8.131372
-25.070231 -88.777657 9.499582
-20.028168 -77.74709 36.125648
-19.903045 -76.943516 37.359504
-19.529096 -78.60556 35.047607
-20.028168 -77.74709 36.125648
-20.304532 -78.560802 34.886311
-24.946804 -78.555214 26.710912
-24.840459 -78.295345 27.973343
-24.840459 -78.295345 27.973343
-24.367649 -78.923279 28.483053
-21.117903 -104.436222 -10.867665
-20.272161 -104.999203 -10.887326
-20.839738 -104.366684 -9.630373
-21.859367 -103.849216 -11.039411
-21.291791 -104.481735 -12.296365
-21.117903 -104.436222 -10.867665
-21.859367 -103.849216 -11.039411
-22.412683 -103.097515 -9.717229
-25.626974 -96.735096 -5.990231
-25.772444 -95.717629 -4.755166
-25.927954 -95.611988 -6.008203
-25.413526 -97.677731 -7.213819
-25.258017 -97.783371 -5.960781
-25.626974 -96.735096 -5.990231
-25.164098 -98.642041 -8.531285
-25.413526 -97.677731 -7.213819
-25.520891 -79.612965 20.382392
-25.201432 -80.592132 20.840768
-25.388354 -79.474514 21.678457
-25.575269 -79.744377 19.064941
-25.520891 -79.612965 20.382392
-25.762192 -78.626758 19.902631
-25.450267 -80.81345 18.152808
-25.575269 -79.744377 19.064941
-0.258288 -81.727898 20.023851
0.64284 -81.265793 19.993873
-0.546049 -82.86853 18.738492
-0.258288 -81.727898 20.023851
-1.147671 -82.2453 19.987731
-12.598395 -105.563591 -8.679365
-11.484293 -105.366451 -8.766103
-12.03203 -104.989437 -7.634901
-12.598395 -105.563591 -8.679365
-13.645805 -105.660679 -8.605032
14.656565 -85.409046 -9.106452
14.945038 -84.662307 -7.82431
14.31831 -86.231956 -10.501639
14.656565 -85.409046 -9.106452
13.71094 -86.72485 -9.400715
13.938134 -87.073799 -11.852415
14.31831 -86.231956 -10.501639
12.90345 -88.444065 -12.052798
13.468899 -87.970104 -13.10931
13.938134 -87.073799 -11.852415
4.047064 -97.903107 -12.75869
4.653507 -97.708458 -13.981916
5.166004 -96.880302 -12.687836
4.047064 -97.903107 -12.75869
3.403371 -98.039658 -11.45359
-3.243312 -102.290062 -10.002779
-2.054918 -101.585564 -10.08209
-2.565544 -101.38263 -8.828057
-3.243312 -102.290062 -10.002779
-4.439392 -102.886513 -9.736118
-24.709278 -86.19009 14.389172
-24.323145 -87.011799 14.728609
-24.440857 -85.870034 15.785491
-24.922364 -86.325276 13.039349
-24.709278 -86.19009 14.389172
6.496462 -83.183365 12.824449
7.15622 -83.531189 11.634746
5.884108 -82.71347 14.080729
5.212611 -82.226628 15.349996
5.594352 -83.786331 12.713069
6.496462 -83.183365 12.824449
5.884108 -82.71347 14.080729
12.954736 -89.673565 -20.347124
13.456246 -88.948678 -19.088099
12.384654 -90.321324 -19.234389
-25.597973 -93.471355 0.664274
-25.380716 -93.452332 1.957314
-25.682504 -92.404965 1.858764
-25.8356 -93.495365 -0.721833
-25.533812 -94.542732 -0.623282
-25.597973 -93.471355 0.664274
-25.995971 -93.524449 -2.144892
-25.8356 -93.495365 -0.721833
-26.146963 -93.538338 -3.526767
-25.922431 -94.580632 -3.391264
-25.995971 -93.524449 -2.144892
-26.254116 -93.380616 -4.918681
-26.146963 -93.538338 -3.526767
-26.168602 -94.461895 -6.160045
-26.254116 -93.380616 -4.918681
-13.104809 -79.61694 32.107693
-13.727286 -78.839699 33.440747
-13.949606 -79.902508 32.175969
-12.213321 -79.269447 32.033206
-13.104809 -79.61694 32.107693
-12.435641 -80.332256 30.768428
-11.335289 -78.887276 31.964751
-12.213321 -79.269447 32.033206
-10.694055 -79.620411 30.576919
-11.018521 -80.767521 29.316294
-10.168422 -80.403168 29.199273
-11.335289 -78.887276 31.964751
-10.694055 -79.620411 30.576919
-7.147398 -81.116948 26.023972
-7.775679 -80.390137 27.446713
-8.096963 -81.506421 26.248422
-7.147398 -81.116948 26.023972
-6.555239 -81.812481 24.667826
-4.101069 -81.702973 22.909198
-5.021124 -82.121948 23.07778
-3.484135 -82.424511 21.506586
-4.101069 -81.702973 22.909198
-3.858945 -83.571422 20.284824
-2.942629 -83.143768 20.14582
-3.484135 -82.424511 21.506586
15.580129 -82.970741 -5.020405
15.01951 -83.358257 -3.850619
15.27158 -83.819618 -6.435199
15.580129 -82.970741 -5.020405
14.375736 -85.059249 -6.616416
14.945038 -84.662307 -7.82431
15.27158 -83.819618 -6.435199
6.430923 -97.007084 -19.675022
7.690086 -95.724034 -19.610646
7.033332 -96.284699 -18.490403
6.430923 -97.007084 -19.675022
5.197805 -98.198494 -19.621744
-25.772568 -90.149963 4.119511
-25.722112 -91.276497 2.962875
-25.515703 -91.259408 4.308439
-25.572715 -88.966873 6.716758
-25.290557 -90.045113 6.879689
-25.297111 -88.879112 8.131372
-25.763722 -89.046123 5.271689
-25.572715 -88.966873 6.716758
-25.772568 -90.149963 4.119511
-25.763722 -89.046123 5.271689
-19.037621 -76.967125 37.44754
-19.903045 -76.943516 37.359504
-18.175065 -76.938641 37.460327
-19.037621 -76.967125 37.44754
-18.390175 -77.763363 36.299732
-16.058158 -78.37085 35.077783
-16.922676 -78.494259 35.146192
-15.444907 -79.189453 33.744444
-15.185333 -78.306663 34.842361
-16.058158 -78.37085 35.077783
13.295324 -82.577068 3.70456
13.837561 -82.459393 2.507442
12.420147 -83.542721 3.504964
13.295324 -82.577068 3.70456
11.535746 -84.539467 3.287478
12.109774 -84.517422 2.00332
12.420147 -83.542721 3.504964
10.901249 -84.571953 4.484051
10.2428 -84.596287 5.659995
10.590877 -85.546654 2.982407
11.535746 -84.539467 3.287478
10.901249 -84.571953 4.484051
8.385651 -84.032192 9.416042
7.776557 -83.837596 10.472995
8.103243 -85.06002 7.939122
8.385651 -84.032192 9.416042
7.768394 -86.111362 6.529568
8.103243 -85.06002 7.939122
7.112531 -85.920383 7.723734
7.390496 -87.190681 5.048924
8.381207 -86.330318 5.264311
7.768394 -86.111362 6.529568
-25.101654 -78.860962 25.414949
-24.671452 -79.653709 25.836478
-24.946804 -78.555214 26.710912
-25.187113 -79.114624 24.08495
-25.101654 -78.860962 25.414949
-25.308409 -79.361737 22.883109
-24.947598 -80.20657 23.338673
-25.187113 -79.114624 24.08495
-25.388354 -79.474514 21.678457
-25.308409 -79.361737 22.883109
-21.737667 -78.277698 34.425177
-21.007055 -78.437145 34.713807
-21.957068 -78.84275 33.214568
-21.737667 -78.277698 34.425177
-22.215676 -79.493736 31.950429
-21.469113 -79.822945 32.199123
-21.957068 -78.84275 33.214568
-22.429038 -80.036652 30.66907
-22.215676 -79.493736 31.950429
-22.699061 -80.632194 29.370196
-21.997744 -81.069473 29.63611
-22.429038 -80.036652 30.66907
-23.329662 -80.10384 29.092272
-23.873832 -79.553451 28.807527
-22.898368 -81.136662 28.059313
-22.699061 -80.632194 29.370196
-23.329662 -80.10384 29.092272
8.910754 -94.412052 -19.528382
7.690086 -95.724034 -19.610646
-16.860346 -105.550209 -8.472801
-15.832866 -105.676319 -8.540425
-16.490533 -105.127247 -7.27244
-17.169799 -105.910858 -9.767354
-16.860346 -105.550209 -8.472801
-17.827466 -105.361786 -8.499369
-17.468778 -106.200538 -11.023881
-17.169799 -105.910858 -9.767354
-18.413433 -105.907783 -11.063262
-19.065458 -105.32605 -9.721978
-19.341971 -105.511398 -10.991318
-17.468778 -106.200538 -11.023881
-18.413433 -105.907783 -11.063262
-23.730148 -100.54155 -5.785998
-24.046141 -99.576939 -4.500123
-24.33009 -99.632954 -5.79198
-23.351579 -101.410027 -7.049956
-23.06763 -101.354011 -5.7581
-23.730148 -100.54155 -5.785998
-22.914475 -102.306907 -8.422902
-23.351579 -101.410027 -7.049956
-24.697818 -99.667843 -8.511222
-25.164098 -98.642041 -8.531285
-24.873456 -82.660095 18.953118
-25.007421 -81.630951 19.923525
-25.200004 -81.759727 18.574295
-24.703327 -83.701668 17.934278
-24.510743 -83.572891 19.283507
-24.873456 -82.660095 18.953118
-24.583802 -84.831395 16.855361
-24.703327 -83.701668 17.934278
-14.381144 -78.054112 34.814356
-13.727286 -78.839699 33.440747
1.331966 -81.793595 18.819705
0.64284 -81.265793 19.993873
1.997745 -82.35421 17.587305
1.331966 -81.793595 18.819705
1.009112 -82.911744 17.542212
2.676569 -82.899845 16.355545
1.997745 -82.35421 17.587305
2.314014 -84.020187 15.066407
3.315691 -83.447674 15.112139
2.676569 -82.899845 16.355545
-2.376436 -83.838306 18.813215
-2.001626 -82.691395 20.034977
-2.942629 -83.143768 20.14582
-8.12697 -104.491623 -9.268192
-6.916978 -104.044495 -9.463107
-7.501294 -103.779389 -8.291658
-8.12697 -104.491623 -9.268192
-9.242028 -104.854198 -9.113709
-10.34535 -105.137089 -8.926157
-11.484293 -105.366451 -8.766103
13.339988 -88.830781 -16.743486
13.961018 -88.172165 -17.901205
13.114014 -88.702747 -14.41065
13.468899 -87.970104 -13.10931
12.765862 -89.393063 -15.716487
13.114014 -88.702747 -14.41065
12.086064 -90.030686 -14.61553
12.312038 -90.158718 -16.948366
13.339988 -88.830781 -16.743486
12.765862 -89.393063 -15.716487
13.57834 -83.306652 1.090863
14.421726 -82.245369 1.377498
13.837561 -82.459393 2.507442
5.191641 -97.930729 -17.405055
6.416756 -96.751152 -17.360782
5.834229 -97.114132 -16.211058
4.575628 -98.649174 -18.452127
5.191641 -97.930729 -17.405055
5.19078 -97.489682 -15.083196
4.653507 -97.708458 -13.981916
1.607296 -99.02142 -10.17433
2.757119 -98.141144 -10.209231
2.117234 -98.158199 -8.940991
1.607296 -99.02142 -10.17433
0.338589 -99.964749 -10.131574
-0.833692 -100.784577 -10.132212
-2.054918 -101.585564 -10.08209
3 0 79 77
3 0 82 80
3 0 77 82
3 1 297 299
3 299 298 84
3 297 298 299
3 2 87 85
3 3 90 88
3 3 92 90
3 3 94 92
3 2 97 95
3 2 85 97
3 300 99 301
3 300 301 302
3 4 102 100
3 4 104 102
3 5 107 105
3 304 303 108
3 7 305 307
3 305 111 306
3 305 306 307
3 9 114 112
3 9 116 114
3 9 118 116
3 5 121 119
3 5 105 121
3 12 125 123
3 12 127 125
3 13 308 309
3 14 130 128
3 14 310 312
3 312 311 130
3 310 311 312
3 6 133 131
3 314 313 134
3 8 315 316
3 317 138 318
3 15 141 139
3 15 143 141
3 10 146 144
3 16 149 147
3 16 151 149
3 16 153 151
3 13 156 154
3 13 319 321
3 321 320 156
3 319 320 321
3 18 158 157
3 18 160 158
3 11 163 161
3 19 166 164
3 19 168 166
3 19 322 324
3 324 323 168
3 322 323 324
3 17 325 327
3 327 326 169
3 325 326 327
3 17 328 329
3 20 172 170
3 22 173 78
3 22 330 332
3 332 331 173
3 330 331 332
3 23 176 174
3 25 177 81
3 25 178 177
3 25 180 178
3 20 181 83
3 20 170 181
3 333 182 334
3 333 334 335
3 336 183 337
3 338 337 182
3 336 337 338
3 28 339 340
3 29 186 184
3 31 187 86
3 31 188 187
3 342 341 189
3 33 192 191
3 34 343 345
3 345 344 89
3 343 344 345
3 34 346 347
3 34 348 349
3 35 350 352
3 352 351 91
3 350 351 352
3 35 353 355
3 353 193 354
3 353 354 355
3 35 195 193
3 37 196 93
3 37 197 196
3 38 200 198
3 40 201 96
3 40 202 201
3 40 204 202
3 29 205 98
3 29 184 205
3 42 356 358
3 356 206 357
3 356 357 358
3 42 207 206
3 43 210 208
3 45 211 101
3 45 212 211
3 45 214 212
3 47 215 103
3 47 216 215
3 360 359 217
3 48 220 218
3 50 221 106
3 50 222 221
3 21 223 171
3 51 224 109
3 51 225 224
3 51 226 225
3 52 361 363
3 363 362 110
3 361 362 363
3 52 364 366
3 364 227 365
3 364 365 366
3 24 228 175
3 53 229 113
3 53 230 229
3 53 231 230
3 54 232 115
3 54 233 232
3 54 235 233
3 56 236 117
3 56 237 236
3 26 238 179
3 57 239 120
3 57 240 239
3 57 241 240
3 48 242 122
3 48 218 242
3 367 244 368
3 369 245 370
3 371 370 244
3 369 370 371
3 27 372 374
3 372 246 373
3 372 373 374
3 59 247 124
3 59 248 247
3 59 249 248
3 60 250 126
3 60 251 250
3 61 254 252
3 61 375 377
3 375 255 376
3 375 376 377
3 61 252 255
3 30 256 185
3 379 378 129
3 49 257 219
3 63 258 132
3 63 259 258
3 32 260 190
3 64 261 135
3 64 380 382
3 382 381 261
3 380 381 382
3 64 383 384
3 62 262 253
3 386 385 136
3 65 263 137
3 65 264 263
3 36 265 194
3 66 266 140
3 66 267 266
3 66 268 267
3 67 269 142
3 67 270 269
3 55 271 234
3 68 272 145
3 68 273 272
3 39 274 199
3 69 275 148
3 69 276 275
3 69 277 276
3 70 278 150
3 70 279 278
3 70 280 279
3 71 281 152
3 71 282 281
3 41 283 203
3 72 284 155
3 72 285 284
3 72 387 389
3 389 388 285
3 387 388 389
3 73 286 159
3 73 287 286
3 58 288 243
3 74 289 162
3 74 290 289
3 44 291 209
3 75 292 165
3 75 293 292
3 75 294 293
3 76 295 167
3 76 296 295
3 76 390 392
3 392 391 296
3 390 391 392
3 46 393 395
3 395 394 213
3 393 394 395
3 77 78 20
3 79 78 77
3 79 22 78
3 80 81 23
3 82 81 80
3 82 25 81
3 82 83 25
3 77 83 82
3 77 20 83
3 84 396 398
3 398 397 28
3 396 397 398
3 400 399 84
3 85 86 29
3 87 86 85
3 87 31 86
3 88 89 33
3 90 89 88
3 90 34 89
3 90 91 34
3 92 91 90
3 92 35 91
3 92 93 35
3 94 93 92
3 94 37 93
3 95 96 38
3 97 96 95
3 97 40 96
3 97 98 40
3 85 98 97
3 85 29 98
3 99 401 402
3 99 403 405
3 403 42 404
3 403 404 405
3 100 101 43
3 102 101 100
3 102 45 101
3 102 103 45
3 104 103 102
3 104 47 103
3 105 106 48
3 107 106 105
3 107 50 106
3 108 109 21
3 406 109 407
3 408 407 108
3 406 407 408
3 409 51 410
3 411 410 109
3 409 410 411
3 413 412 51
3 414 110 415
3 111 416 418
3 416 110 417
3 416 417 418
3 111 52 110
3 112 113 24
3 114 113 112
3 114 53 113
3 114 115 53
3 116 115 114
3 116 54 115
3 116 117 54
3 118 117 116
3 118 56 117
3 119 120 26
3 121 120 119
3 121 57 120
3 121 122 57
3 105 122 121
3 105 48 122
3 123 124 27
3 125 124 123
3 125 59 124
3 125 126 59
3 127 126 125
3 127 60 126
3 420 419 61
3 421 61 422
3 128 129 30
3 130 129 128
3 130 423 425
3 425 424 129
3 423 424 425
3 130 426 428
3 426 427 428
3 430 429 130
3 131 132 49
3 133 132 131
3 133 63 132
3 134 135 32
3 431 135 432
3 433 432 134
3 431 432 433
3 434 64 435
3 436 435 135
3 434 435 436
3 438 437 64
3 439 136 440
3 441 440 62
3 439 440 441
3 442 136 443
3 442 443 444
3 446 445 136
3 447 137 448
3 138 449 451
3 449 137 450
3 449 450 451
3 138 65 137
3 139 140 36
3 141 140 139
3 141 66 140
3 141 142 66
3 143 142 141
3 143 67 142
3 144 145 55
3 146 145 144
3 146 68 145
3 147 148 39
3 149 148 147
3 149 69 148
3 149 150 69
3 151 150 149
3 151 70 150
3 151 152 70
3 153 152 151
3 153 71 152
3 154 155 41
3 156 155 154
3 156 72 155
3 156 452 454
3 454 453 72
3 452 453 454
3 456 455 156
3 157 457 458
3 158 459 461
3 461 460 157
3 459 460 461
3 158 462 463
3 158 464 466
3 464 159 465
3 464 465 466
3 160 159 158
3 160 73 159
3 161 162 58
3 163 162 161
3 163 74 162
3 164 165 44
3 166 165 164
3 166 75 165
3 166 167 75
3 168 167 166
3 168 76 167
3 168 467 469
3 469 468 76
3 467 468 469
3 471 470 168
3 169 472 474
3 474 473 46
3 472 473 474
3 476 475 169
3 170 171 5
3 172 171 170
3 172 21 171
3 78 172 20
3 173 172 78
3 173 21 172
3 173 108 21
3 477 108 478
3 479 478 173
3 477 478 479
3 481 480 108
3 174 175 7
3 176 175 174
3 176 24 175
3 81 176 23
3 177 176 81
3 177 24 176
3 177 112 24
3 178 112 177
3 178 9 112
3 178 179 9
3 180 179 178
3 180 26 179
3 83 180 25
3 181 180 83
3 181 26 180
3 181 119 26
3 170 119 181
3 170 5 119
3 482 27 483
3 182 484 485
3 182 486 488
3 486 27 487
3 486 487 488
3 182 123 27
3 183 123 182
3 183 12 123
3 491 490 28
3 489 490 491
3 184 185 13
3 186 185 184
3 186 30 185
3 86 186 29
3 187 186 86
3 187 30 186
3 187 128 30
3 188 128 187
3 188 14 128
3 189 190 6
3 492 190 493
3 494 493 189
3 492 493 494
3 495 32 496
3 497 496 190
3 495 496 497
3 498 32 499
3 500 134 501
3 502 501 32
3 500 501 502
3 503 134 504
3 506 505 134
3 191 507 509
3 509 508 8
3 507 508 509
3 192 510 512
3 512 511 191
3 510 511 512
3 192 513 514
3 89 192 33
3 515 192 516
3 517 516 89
3 515 516 517
3 519 518 192
3 91 520 522
3 522 521 34
3 520 521 522
3 524 523 91
3 193 525 526
3 193 527 528
3 193 529 531
3 529 194 530
3 529 530 531
3 195 194 193
3 195 36 194
3 93 195 35
3 196 195 93
3 196 36 195
3 196 139 36
3 197 139 196
3 197 15 139
3 198 199 10
3 200 199 198
3 200 39 199
3 96 200 38
3 201 200 96
3 201 39 200
3 201 147 39
3 202 147 201
3 202 16 147
3 202 203 16
3 204 203 202
3 204 41 203
3 98 204 40
3 205 204 98
3 205 41 204
3 205 154 41
3 184 154 205
3 184 13 154
3 206 532 533
3 206 534 535
3 206 536 538
3 536 157 537
3 536 537 538
3 207 157 206
3 207 18 157
3 208 209 11
3 210 209 208
3 210 44 209
3 101 210 43
3 211 210 101
3 211 44 210
3 211 164 44
3 212 164 211
3 212 19 164
3 212 213 19
3 214 213 212
3 214 46 213
3 103 214 45
3 215 214 103
3 215 46 214
3 215 169 46
3 216 169 215
3 216 17 169
3 217 539 541
3 541 540 1
3 539 540 541
3 543 542 217
3 218 219 2
3 220 219 218
3 220 49 219
3 106 220 48
3 221 220 106
3 221 49 220
3 221 131 49
3 222 131 221
3 222 6 131
3 171 107 5
3 223 107 171
3 223 50 107
3 109 223 21
3 224 223 109
3 224 50 223
3 224 222 50
3 225 222 224
3 225 6 222
3 225 189 6
3 226 189 225
3 226 544 546
3 546 545 189
3 544 545 546
3 547 226 548
3 549 548 51
3 547 548 549
3 550 226 551
3 553 552 226
3 110 554 555
3 558 557 110
3 556 557 558
3 227 559 560
3 227 561 563
3 561 8 562
3 561 562 563
3 175 111 7
3 228 111 175
3 228 52 111
3 113 228 24
3 229 228 113
3 229 52 228
3 229 227 52
3 230 227 229
3 230 8 227
3 230 191 8
3 231 191 230
3 231 33 191
3 115 231 53
3 232 231 115
3 232 33 231
3 232 88 33
3 233 88 232
3 233 3 88
3 233 234 3
3 235 234 233
3 235 55 234
3 117 235 54
3 236 235 117
3 236 55 235
3 236 144 55
3 237 144 236
3 237 10 144
3 179 118 9
3 238 118 179
3 238 56 118
3 120 238 26
3 239 238 120
3 239 56 238
3 239 237 56
3 240 237 239
3 240 10 237
3 240 198 10
3 241 198 240
3 241 38 198
3 122 241 57
3 242 241 122
3 242 38 241
3 242 95 38
3 218 95 242
3 218 2 95
3 564 243 565
3 566 243 567
3 568 58 569
3 570 569 243
3 568 569 570
3 244 571 572
3 244 573 575
3 573 58 574
3 573 574 575
3 244 161 58
3 245 161 244
3 245 11 161
3 246 576 577
3 246 578 579
3 124 246 27
3 247 246 124
3 247 580 582
3 582 581 246
3 580 581 582
3 247 583 585
3 583 245 584
3 583 584 585
3 248 245 247
3 248 11 245
3 248 208 11
3 249 208 248
3 249 43 208
3 126 249 59
3 250 249 126
3 250 43 249
3 250 100 43
3 251 100 250
3 251 4 100
3 252 253 0
3 254 253 252
3 254 62 253
3 586 254 587
3 588 587 61
3 586 587 588
3 589 254 590
3 591 62 592
3 593 592 254
3 591 592 593
3 595 594 62
3 596 7 597
3 598 7 599
3 600 174 601
3 602 601 7
3 600 601 602
3 603 174 604
3 605 23 606
3 607 606 174
3 605 606 607
3 255 608 609
3 255 610 612
3 610 23 611
3 610 611 612
3 255 80 23
3 252 80 255
3 252 0 80
3 614 613 1
3 185 615 617
3 617 616 13
3 615 616 617
3 256 618 620
3 620 619 185
3 618 619 620
3 256 621 622
3 129 256 30
3 623 256 624
3 625 624 129
3 623 624 625
3 627 626 256
3 219 87 2
3 257 87 219
3 257 31 87
3 132 257 49
3 258 257 132
3 258 31 257
3 258 188 31
3 259 188 258
3 259 14 188
3 190 133 6
3 260 133 190
3 260 63 133
3 135 260 32
3 261 260 135
3 261 63 260
3 261 259 63
3 628 259 629
3 630 629 261
3 628 629 630
3 631 14 632
3 633 632 259
3 631 632 633
3 635 634 14
3 637 636 64
3 253 79 0
3 262 79 253
3 262 22 79
3 136 262 62
3 638 262 639
3 640 639 136
3 638 639 640
3 641 22 642
3 643 642 262
3 641 642 643
3 645 644 22
3 647 646 8
3 137 648 649
3 263 650 652
3 652 651 137
3 650 651 652
3 263 653 654
3 263 655 657
3 655 183 656
3 655 656 657
3 264 183 263
3 264 12 183
3 194 658 660
3 658 138 659
3 658 659 660
3 265 138 194
3 265 65 138
3 140 265 36
3 266 265 140
3 266 65 265
3 266 264 65
3 267 264 266
3 267 12 264
3 267 127 12
3 268 127 267
3 268 60 127
3 142 268 66
3 269 268 142
3 269 60 268
3 269 251 60
3 270 251 269
3 270 4 251
3 234 94 3
3 271 94 234
3 271 37 94
3 145 271 55
3 272 271 145
3 272 37 271
3 272 197 37
3 273 197 272
3 273 15 197
3 199 146 10
3 274 146 199
3 274 68 146
3 148 274 39
3 275 274 148
3 275 68 274
3 275 273 68
3 276 273 275
3 276 15 273
3 276 143 15
3 277 143 276
3 277 67 143
3 150 277 69
3 278 277 150
3 278 67 277
3 278 270 67
3 279 270 278
3 279 4 270
3 279 104 4
3 280 104 279
3 280 47 104
3 152 280 70
3 281 280 152
3 281 47 280
3 281 216 47
3 282 216 281
3 282 17 216
3 203 153 16
3 283 153 203
3 283 71 153
3 155 283 41
3 284 283 155
3 284 71 283
3 284 282 71
3 285 282 284
3 285 17 282
3 285 661 663
3 663 662 17
3 661 662 663
3 665 664 285
3 667 666 72
3 668 28 669
3 159 670 671
3 286 672 674
3 674 673 159
3 672 673 674
3 286 675 677
3 675 28 676
3 675 676 677
3 286 84 28
3 287 84 286
3 287 1 84
3 243 678 680
3 678 99 679
3 678 679 680
3 288 99 243
3 288 42 99
3 162 288 58
3 289 288 162
3 289 42 288
3 289 207 42
3 290 207 289
3 290 18 207
3 209 163 11
3 291 163 209
3 291 74 163
3 165 291 44
3 292 291 165
3 292 74 291
3 292 290 74
3 293 290 292
3 293 18 290
3 293 160 18
3 294 160 293
3 294 73 160
3 167 294 75
3 295 294 167
3 295 73 294
3 295 287 73
3 296 287 295
3 296 1 287
3 296 217 1
3 681 217 682
3 683 682 296
3 681 682 683
3 685 684 217
3 687 686 76
3 213 688 690
3 690 689 19
3 688 689 690
3 692 691 213
3 694 693 46
