ply
format ascii 1.0
element vertex 704
property float x
property float y
property float z
element face 896
property list uchar int vertex_index
end_header
10.774954 83.594551 6.69945
-4.812918 100.537796 -34.648285
5.583107 97.017273 -12.214788
14.725031 85.765404 -26.740921
-3.452244 93.456955 9.530544
6.620765 72.068352 24.347418
15.242155 81.890648 0.482383
14.445807 75.427315 9.96898
8.907242 90.159058 -1.360725
14.124074 88.363304 -10.148912
4.764969 88.263931 8.058882
0.553652 97.086395 -1.984386
-0.616333 75.333694 28.217207
-10.101385 106.223206 -25.129707
1.058252 101.061424 -23.831718
5.960558 94.517586 -31.466719
11.057216 93.048004 -21.014462
18.394268 83.40435 -17.151745
-4.306807 103.732971 -13.232364
1.826442 82.94294 18.219578
8.847392 78.932617 14.890977
12.715467 68.488533 19.161516
12.764057 83.148087 3.800973
15.053135 78.613724 5.340942
12.542088 80.05941 8.303547
10.078156 86.597771 3.15851
12.335803 86.393028 -0.782051
8.259385 85.666 7.341908
6.732028 89.677719 3.153274
-7.368177 103.862915 -30.361727
3.64982 99.410561 -17.989058
6.241457 97.362473 -22.545189
8.46483 95.451172 -16.885666
17.386803 83.456345 -8.476902
16.614473 86.074013 -13.649548
19.514141 81.003487 -11.951266
-7.915334 95.599503 10.620188
-6.204497 98.078629 4.732738
2.998762 97.405975 -7.049831
-1.788754 100.818565 -7.56439
0.762241 100.637291 -12.829229
-1.705058 102.951408 -18.854324
3.064672 73.832497 26.388384
0.557608 79.485023 23.221088
4.373772 77.626297 21.426958
5.526759 81.022331 16.526861
7.73339 75.665054 19.652119
10.884827 73.916153 17.168015
9.907735 70.402336 21.76927
10.708899 90.363007 -29.35708
17.677105 80.41156 -3.304675
7.419984 93.753105 -6.580012
10.009239 93.006241 -11.346598
11.511187 89.686516 -5.955264
14.872993 85.304581 -4.703724
0.839647 91.035126 8.539913
-1.572343 95.620453 3.829599
2.676294 92.911423 3.20684
4.842122 93.831238 -1.818658
1.943679 69.417961 31.088472
5.615512 68.122589 28.789047
8.972822 66.391785 26.423014
-1.953897 101.583389 -29.390995
0.901946 97.88591 -33.10598
3.790611 98.149498 -28.013096
8.694981 94.322609 -26.375917
13.150491 89.86441 -24.330549
12.87429 90.963318 -15.439209
15.25014 88.220139 -19.0187
16.809195 85.016365 -21.952478
-4.045904 99.911873 -1.638051
-6.788849 103.487556 -7.16234
-9.507905 106.035065 -13.050268
-7.143116 105.672546 -19.207327
-4.509726 104.152023 -24.537779
-5.011624 90.478188 15.327094
-3.541291 81.029999 25.091055
-2.212769 85.006035 19.639391
-0.868327 88.412331 14.104456
3.28132 85.930092 13.025321
6.779299 83.847816 11.695386
10.006962 81.570091 10.373031
11.846977 77.165237 12.562086
13.65187 72.085953 14.476553
11.901978 64.852631 23.516342
11.66708 83.432129 5.424038
12.719615 81.597313 6.071642
11.595548 82.09893 7.371646
10.472222 84.971916 5.134821
11.485166 84.947578 3.410675
9.708656 84.534256 6.950962
9.100993 86.337059 5.135484
-3.585411 98.538216 -36.441719
-6.073048 102.305885 -32.635136
4.674606 98.309418 -15.122577
5.993382 97.584122 -17.507332
7.044124 96.33815 -14.565714
18.779652 80.781525 -7.515907
18.524494 82.273994 -10.189472
19.854074 79.58316 -9.387639
-5.669964 94.525024 10.135188
-7.145299 96.924911 7.738959
-4.841628 95.8041 7.243711
4.290121 97.328453 -9.70747
1.853644 99.145378 -9.879713
3.203295 98.869141 -12.464159
2.130537 100.195976 -15.44931
4.916491 72.769989 25.533154
3.683187 75.801208 23.946602
5.414763 74.938408 22.991135
6.131071 76.687645 20.484112
7.174154 73.817123 22.100567
8.816171 73.157921 20.712919
8.319313 71.170967 23.1637
12.768995 88.188301 -28.109486
11.501772 88.02034 -30.528599
13.499846 85.768913 -29.078981
16.450239 81.228111 -1.382841
17.776312 78.573555 -0.780977
16.464342 79.485222 1.147216
14.783605 77.063133 7.648014
16.081053 76.159126 6.034906
15.777946 74.526688 8.334404
15.43375 72.796593 10.627869
8.244745 91.97261 -3.980394
9.603419 91.773331 -6.496806
10.079292 90.134987 -3.670692
13.80195 84.293747 -0.177402
13.663912 85.767113 -2.57143
15.147151 83.55069 -2.024206
16.382196 82.944954 -4.158832
2.812233 89.783691 8.143847
1.727223 92.034599 5.919994
3.753846 90.633141 5.652465
7.781494 90.131279 0.691451
5.857683 91.675751 0.86914
6.866902 92.090187 -1.626743
6.161147 93.852974 -4.227333
3.79015 68.804443 29.983435
5.047449 65.884651 31.082947
6.808168 65.169563 29.882969
-10.98574 106.855499 -22.183645
-0.388195 101.460205 -26.676207
0.957488 99.945847 -28.814053
2.376076 99.737564 -26.163784
8.662881 95.326889 -21.735262
7.672751 95.841316 -24.42885
10.02915 93.727325 -23.644947
10.963634 92.18306 -25.486574
12.155835 91.574554 -22.807577
12.114954 90.777603 -10.816217
11.431129 92.135765 -13.470309
13.392971 89.909065 -12.775327
17.540815 84.905869 -15.497406
15.890975 87.378578 -16.28112
16.880049 85.89962 -18.150202
16.148685 86.643433 -20.610697
17.799801 84.035652 -19.556948
-0.590106 96.495262 0.902868
-2.892811 97.868103 1.206901
-1.822066 98.554924 -1.704334
-3.145847 102.407333 -10.181986
-4.344572 102.232368 -7.27825
-5.602423 103.766838 -10.294111
-8.078795 104.918137 -10.231667
-6.967606 105.026344 -13.177876
-8.282625 105.960846 -16.110426
-5.700906 104.841408 -16.019863
-0.450736 102.217918 -21.361708
-3.158997 103.746643 -21.718027
-1.71022 102.688194 -24.39225
-3.296084 103.022484 -27.115334
-7.991077 89.623886 19.016716
-7.190258 91.349472 16.105892
-5.7109 88.724495 18.225868
-2.033124 78.178596 26.713396
1.185716 81.208328 20.802431
-0.906036 82.196053 21.642979
-0.089078 83.929642 18.93688
-1.541867 86.746109 16.915091
0.568092 85.716293 16.140884
1.19695 87.316444 13.436546
2.423549 84.701073 15.502277
7.292968 79.932961 15.719049
6.202913 82.426689 14.128376
7.859835 81.453804 13.300328
8.467397 82.725288 11.003293
9.362027 80.452522 12.543518
10.880933 79.491272 11.526097
10.321774 78.124031 13.78713
11.809834 71.334511 18.1448
12.247072 73.091507 15.875098
13.202243 70.38752 16.723618
9.984353 63.749069 27.213377
10.465732 65.714195 24.971588
11.448722 62.919182 25.77997
3.556507 96.217896 -32.334934
1.989529 95.768272 -34.76622
14.00708 82.600883 2.116235
15.185398 80.307213 2.894299
13.996528 80.979149 4.451349
13.783451 79.510582 6.740267
13.508827 77.908142 9.069861
9.603834 88.326874 0.925572
10.752177 88.251823 -1.107297
11.190515 86.568924 1.202226
12.709728 84.629532 1.568487
6.636407 87.004822 7.544157
5.626786 89.166649 5.558418
7.483928 87.704926 5.326361
8.512897 88.229614 2.929996
-8.767202 105.202621 -27.80497
2.260232 100.470398 -20.985882
3.755376 99.230537 -23.340868
4.843101 98.598312 -20.452192
7.438644 96.493607 -19.556255
9.819503 94.340294 -18.988575
15.862462 85.96534 -9.413059
15.400556 87.336281 -11.998566
17.125265 84.764091 -11.147341
18.161793 83.596481 -12.926545
19.04764 82.251282 -14.56973
-10.102638 96.276627 11.507116
-7.459674 100.318283 1.737917
1.631386 97.475784 -4.653481
-0.740985 99.055695 -4.556604
0.597768 99.166367 -7.246492
-0.602256 100.871452 -10.199875
-1.821407 102.277092 -12.926523
-3.173112 103.554344 -16.07494
-0.593562 102.015839 -15.770028
1.018442 101.249886 -18.343803
1.183114 74.64106 27.347393
-0.082894 77.570435 25.693584
1.773126 76.689972 24.912241
2.469775 78.578369 22.367807
3.126667 80.353386 19.824308
3.708586 82.054733 17.312267
4.911148 79.415123 18.97781
6.64254 78.380112 18.158232
8.270149 77.310715 17.329321
9.907187 76.377686 16.145573
9.397507 74.762405 18.423923
10.43482 72.136993 19.465961
11.334292 69.536621 20.459448
8.363728 92.535751 -30.516201
9.35943 90.146751 -31.782835
6.555377 95.426476 -9.302908
7.926784 94.961082 -11.666227
8.661835 93.535225 -9.004654
10.816807 91.432388 -8.744668
12.816434 89.150276 -8.132473
11.950336 88.029213 -3.223473
13.23511 87.538971 -5.267873
14.606377 86.805374 -7.383995
16.25338 84.375313 -6.726715
17.613081 81.936333 -5.864286
-1.187114 92.143326 9.117673
-2.573023 94.672615 6.639364
-0.347087 93.30706 6.333482
0.484347 94.228683 3.744597
1.566431 95.04332 0.765487
4.818071 91.204506 3.264663
3.812587 93.374107 0.737813
2.736655 95.539291 -2.028476
3.865214 95.765678 -4.47852
5.189482 95.708412 -6.94359
0.66948 72.349106 29.762285
2.545964 71.634216 28.779043
4.365752 70.956322 27.675219
6.149832 70.0569 26.629183
7.798764 69.170364 25.543804
7.42448 67.164009 27.641493
8.536771 64.179085 28.712107
16.326876 83.333038 -25.507378
15.198135 83.342979 -27.740131
-3.134941 101.092484 -32.098366
-1.876697 99.262398 -33.985088
-0.550598 99.847427 -31.438551
2.370756 98.145378 -30.665726
4.901969 96.481682 -29.808603
5.013209 97.894302 -25.462906
6.293938 96.310768 -27.2458
7.395557 94.527428 -28.984001
9.836378 92.323616 -28.08036
11.947427 90.3181 -26.836617
14.026654 87.91375 -25.63689
9.251848 94.342728 -14.107973
10.812897 93.189552 -16.179844
11.96735 92.162842 -18.216333
14.799804 88.590851 -14.470092
14.078777 89.745872 -17.321611
13.202599 90.739044 -20.097635
14.358573 89.04184 -21.645426
15.10928 87.46077 -23.144848
15.807346 85.5411 -24.39579
17.391016 82.957039 -23.186785
-3.920547 97.023315 4.089413
-5.188413 99.148323 1.485453
-6.406403 101.156212 -1.393279
-3.010367 100.507744 -4.596641
-5.324234 101.723465 -4.269065
-7.752947 102.951042 -4.164104
-9.601955 106.580948 -19.296072
-8.488485 106.081032 -22.373625
-4.453127 104.439682 -18.943151
-5.787967 105.022491 -21.987133
-7.260579 105.316849 -24.831129
-5.951679 104.226471 -27.417257
-4.642682 102.817795 -29.964161
-8.565787 93.905495 13.750864
-6.460823 93.025856 13.12436
-4.266675 92.051147 12.436203
-1.462436 80.204498 24.231943
-2.933303 83.07666 22.434431
-4.263173 85.97094 20.308167
-3.640879 87.88858 17.438261
-3.028234 89.527245 14.736745
-2.147366 90.899696 11.963951
-0.092427 89.817741 11.361245
1.95076 88.599976 10.860655
3.883756 87.339317 10.444316
4.316193 83.61731 14.811766
5.075334 84.939316 12.300048
5.847999 86.037994 9.919147
7.506027 84.886627 9.425334
9.105663 83.693428 8.932027
10.38411 82.79409 8.336391
11.282804 80.910957 9.319105
12.180635 78.736786 10.388757
13.191929 76.185516 11.402054
11.346951 75.661568 14.814235
12.743223 74.689827 13.593894
14.140377 73.564171 12.293097
9.329759 68.565308 24.153357
10.826189 67.695328 22.803965
12.305777 66.623505 21.403866
-0.736078 97.288574 -35.605427
13.91608 83.272888 -29.924295
-4.199165 99.538006 -35.545002
-5.075518 99.064999 -36.803223
-5.689272 100.064789 -35.906506
-6.283931 101.043285 -34.921526
-6.913996 101.92733 -33.914952
-5.442983 101.421841 -33.641711
-5.689272 100.064789 -35.906506
-6.283931 101.043285 -34.921526
19.925204 78.845425 -8.055055
19.316863 80.182343 -8.451773
19.387993 79.444607 -7.119189
20.406167 78.273739 -9.016835
19.925204 78.845425 -8.055055
4.843554 64.679147 32.142464
4.151982 66.212952 31.63024
5.735505 64.366652 31.545388
4.843554 64.679147 32.142464
-11.364375 106.488705 -25.219038
-11.806552 106.804851 -23.746007
-10.543563 106.539353 -23.656676
18.769868 82.477314 -17.790819
18.472634 82.792965 -18.99342
18.097034 83.720001 -18.354346
-7.148444 88.206703 20.039825
-8.213758 88.549965 20.489928
-6.008356 87.757008 19.6444
-6.850988 89.174191 18.621292
-7.148444 88.206703 20.039825
-1.324728 76.756145 27.465301
-2.289219 77.058643 27.951226
-1.580823 75.636192 28.703131
13.379995 68.09277 18.345198
13.623383 69.042263 17.12625
12.958855 69.438027 17.942567
11.293641 61.856645 26.854102
10.716538 63.334125 26.496673
10.561457 62.271589 27.570805
5.302102 94.26474 -32.656995
4.100076 95.114895 -33.091102
4.758532 95.367741 -31.900827
-8.785585 104.25439 -30.555977
-9.485098 104.924243 -29.277598
-8.06769 104.532768 -29.083348
19.936332 80.243943 -12.696817
19.703081 80.86784 -14.006049
19.28089 81.627385 -13.260498
-8.622679 96.753773 9.391196
-9.716331 97.092335 9.83466
-9.008986 95.938065 11.063652
-7.26633 98.620632 4.847224
-7.736731 98.043774 6.350334
-6.674898 97.50177 6.235849
-6.832085 99.198456 3.235328
-7.893918 99.74046 3.349813
-7.26633 98.620632 4.847224
10.818554 87.878056 -31.635313
11.850749 86.727768 -30.94732
18.30275 79.031917 -2.925769
18.265702 79.894486 -4.177616
18.279791 77.288021 -0.37503
17.661735 77.823788 0.473567
15.659662 78.262295 4.481611
15.725794 79.109039 3.25829
15.119266 79.460469 4.117621
16.709139 75.771641 5.101886
16.616293 74.847873 6.260803
18.265702 79.894486 -4.177616
18.233691 80.656872 -5.457422
17.645093 81.173946 -4.58448
1.056202 69.677509 31.591105
1.737948 68.217968 32.155181
1.30658 70.883533 30.425379
0.419102 71.143081 30.928012
1.056202 69.677509 31.591105
8.253277 63.205717 29.779749
7.67247 64.674324 29.297538
7.388975 63.700956 30.36518
9.064311 62.841048 29.090958
8.253277 63.205717 29.779749
16.483611 82.11911 -25.929823
17.04215 82.029377 -24.823584
-7.954767 103.997951 -7.082849
-8.436816 103.729694 -5.58373
-7.270898 103.219299 -5.663222
-10.009039 105.910713 -11.469255
-9.294484 105.352249 -10.059955
-8.79335 105.476601 -11.640968
-10.700237 106.398098 -12.985848
-10.009039 105.910713 -11.469255
-10.203512 106.444996 -14.661456
-11.395844 106.808029 -14.597036
-10.700237 106.398098 -12.985848
-9.020452 93.058773 15.312175
-9.652947 94.258873 14.148983
-4.55375 81.42979 25.484493
-3.833171 79.937104 26.40468
-4.228872 82.482941 24.117348
-4.55375 81.42979 25.484493
14.36105 71.52528 13.702587
14.605303 72.264389 12.61086
13.896124 72.825062 13.384825
1.193752 95.357975 -35.940371
2.573085 94.526561 -35.460127
14.674867 82.091209 -29.192623
14.557108 83.307933 -28.832213
15.315894 82.126255 -28.100541
-4.393315 97.961986 -37.613709
-5.075518 99.064999 -36.803223
-2.991467 97.402146 -37.239961
-4.393315 97.961986 -37.613709
-7.507333 102.737198 -32.895457
-8.154898 103.515713 -31.758752
-6.720612 103.0844 -31.498432
-7.507333 102.737198 -32.895457
-6.913996 101.92733 -33.914952
20.322485 78.863854 -10.227507
20.152519 79.574017 -11.509321
19.684107 80.293324 -10.669453
20.322485 78.863854 -10.227507
20.406167 78.273739 -9.016835
12.849785 85.602055 -30.222511
11.850749 86.727768 -30.94732
12.500809 86.894627 -29.80379
17.00575 78.279621 1.437663
17.661735 77.823788 0.473567
17.120327 79.029388 0.183119
16.46474 74.031655 7.410552
16.616293 74.847873 6.260803
15.9295 75.342907 7.184655
16.248931 73.223965 8.612687
16.46474 74.031655 7.410552
16.076833 72.358918 9.75942
16.248931 73.223965 8.612687
15.605848 73.661641 9.481136
15.902443 71.429294 10.912634
16.076833 72.358918 9.75942
2.600097 67.979607 31.633002
1.737948 68.217968 32.155181
3.523333 67.672848 31.080483
2.866915 69.111202 30.535953
2.600097 67.979607 31.633002
4.4188 67.344547 30.533191
3.523333 67.672848 31.080483
4.151982 66.212952 31.63024
6.615865 64.009107 30.945399
5.927809 65.527107 30.482958
5.735505 64.366652 31.545388
7.388975 63.700956 30.36518
6.615865 64.009107 30.945399
-12.301717 107.098774 -22.236251
-11.616294 107.069889 -20.739479
-12.301717 107.098774 -22.236251
-11.806552 106.804851 -23.746007
18.043135 83.195766 -20.27606
17.547832 83.686123 -21.473826
17.304498 84.526008 -20.754713
18.043135 83.195766 -20.27606
18.472634 82.792965 -18.99342
-9.014042 89.860325 19.531313
-8.213758 88.549965 20.489928
-8.733097 90.917969 17.945101
-9.014042 89.860325 19.531313
-7.590668 90.486679 17.561304
-8.332687 91.780762 16.489689
-8.733097 90.917969 17.945101
-3.079087 78.511402 27.215851
-2.289219 77.058643 27.951226
-2.787208 79.604298 25.902226
-3.833171 79.937104 26.40468
-3.079087 78.511402 27.215851
13.885488 69.880875 15.957883
14.110302 70.730091 14.834351
13.427056 71.236737 15.600085
13.885488 69.880875 15.957883
13.623383 69.042263 17.12625
3.316587 94.890083 -34.306745
2.773018 95.993084 -33.550577
4.100076 95.114895 -33.091102
2.573085 94.526561 -35.460127
3.316587 94.890083 -34.306745
-10.097953 105.515297 -27.995203
-10.765045 106.025589 -26.657571
-9.434293 105.712913 -26.467339
-10.097953 105.515297 -27.995203
-9.485098 104.924243 -29.277598
-8.785585 104.25439 -30.555977
-8.154898 103.515713 -31.758752
19.431824 81.432377 -15.277314
19.105138 82.008911 -16.568321
18.720954 82.827816 -15.860737
19.431824 81.432377 -15.277314
19.703081 80.86784 -14.006049
19.936332 80.243943 -12.696817
20.152519 79.574017 -11.509321
-10.797799 97.495342 10.074611
-11.134204 96.629898 11.77835
-10.797799 97.495342 10.074611
-9.716331 97.092335 9.83466
-8.237661 97.416477 7.950582
-8.622679 96.753773 9.391196
-7.530316 96.262207 9.179574
-8.237661 97.416477 7.950582
-7.736731 98.043774 6.350334
-8.637601 100.756798 2.082981
-7.893918 99.74046 3.349813
-8.178311 101.290928 0.379301
-8.637601 100.756798 2.082981
7.686254 92.370663 -31.706755
6.484669 93.36158 -32.182014
7.162143 93.526668 -30.99146
8.184105 91.176163 -32.340072
7.686254 92.370663 -31.706755
8.861579 91.341251 -31.149518
8.597807 90.018662 -32.898871
8.184105 91.176163 -32.340072
9.747383 88.941261 -32.262431
10.430601 89.083545 -31.155717
10.818554 87.878056 -31.635313
8.98576 88.813172 -33.378467
8.597807 90.018662 -32.898871
9.747383 88.941261 -32.262431
18.352353 78.112915 -1.66392
18.30275 79.031917 -2.925769
17.726709 79.492558 -2.042826
18.352353 78.112915 -1.66392
18.279791 77.288021 -0.37503
16.365266 78.698044 2.384748
15.82487 79.896218 2.020758
15.725794 79.109039 3.25829
17.00575 78.279621 1.437663
16.365266 78.698044 2.384748
16.173622 77.034996 4.828593
15.659662 78.262295 4.481611
15.567094 77.386425 5.687924
16.173622 77.034996 4.828593
16.709139 75.771641 5.101886
18.816976 80.079468 -6.283232
18.196366 81.358929 -6.690097
18.233691 80.656872 -5.457422
19.387993 79.444607 -7.119189
18.816976 80.079468 -6.283232
-0.934817 74.174224 29.468787
-1.580823 75.636192 28.703131
-0.29191 72.68193 30.241325
0.419102 71.143081 30.928012
0.026573 73.8414 28.989746
-0.934817 74.174224 29.468787
-0.29191 72.68193 30.241325
9.788101 62.62604 28.341593
9.260562 63.964077 27.962742
9.064311 62.841048 29.090958
10.561457 62.271589 27.570805
9.788101 62.62604 28.341593
15.919241 82.12408 -27.0462
15.762505 83.338009 -26.623755
16.483611 82.11911 -25.929823
15.315894 82.126255 -28.100541
15.919241 82.12408 -27.0462
-11.364375 106.488705 -25.219038
-10.765045 106.025589 -26.657571
17.574221 81.841377 -23.663288
17.04215 82.029377 -24.823584
16.858946 83.145038 -24.347082
17.838743 82.65646 -22.090979
17.100105 83.986702 -22.569631
17.547832 83.686123 -21.473826
18.067995 81.587295 -22.585997
17.838743 82.65646 -22.090979
17.574221 81.841377 -23.663288
18.067995 81.587295 -22.585997
18.769868 82.477314 -17.790819
19.105138 82.008911 -16.568321
-7.651675 101.709892 -1.186297
-8.178311 101.290928 0.379301
-6.933039 100.737247 0.172319
-8.324947 102.607307 -2.571709
-7.651675 101.709892 -1.186297
-7.079675 102.053627 -2.778691
-8.965027 103.446563 -4.025915
-8.324947 102.607307 -2.571709
-8.965027 103.446563 -4.025915
-8.436816 103.729694 -5.58373
-8.59974 104.713242 -8.617512
-7.954767 103.997951 -7.082849
-7.433822 104.202846 -8.697004
-8.59974 104.713242 -8.617512
-9.294484 105.352249 -10.059955
-9.590872 106.407887 -16.191535
-10.203512 106.444996 -14.661456
-8.895265 105.997956 -14.580347
-10.250538 106.717938 -17.784358
-9.590872 106.407887 -16.191535
-8.94229 106.270897 -17.703249
-10.924402 106.932614 -19.295693
-10.250538 106.717938 -17.784358
-10.293848 106.718223 -20.739858
-11.616294 107.069889 -20.739479
-10.924402 106.932614 -19.295693
-10.421373 95.444439 13.027109
-11.134204 96.629898 11.77835
-9.334212 95.091061 12.62899
-10.421373 95.444439 13.027109
-9.652947 94.258873 14.148983
-7.878023 92.627484 14.928378
-9.020452 93.058773 15.312175
-8.332687 91.780762 16.489689
-3.924878 83.506271 22.789037
-4.228872 82.482941 24.117348
-3.237297 82.05333 23.762743
-4.589812 84.953412 21.725904
-3.924878 83.506271 22.789037
-3.598238 84.5238 21.371299
-5.284492 86.38023 20.68555
-4.589812 84.953412 21.725904
-4.987037 87.347718 19.267018
-6.008356 87.757008 19.6444
-5.284492 86.38023 20.68555
15.25199 71.8806 11.778246
14.787064 73.180382 11.460483
14.605303 72.264389 12.61086
15.902443 71.429294 10.912634
15.25199 71.8806 11.778246
14.36105 71.52528 13.702587
14.110302 70.730091 14.834351
11.97252 61.412676 26.173299
11.293641 61.856645 26.854102
11.817439 60.350139 27.247431
12.149864 62.397143 25.083355
11.97252 61.412676 26.173299
12.376492 63.363867 23.951541
11.67535 63.885907 24.648156
12.149864 62.397143 25.083355
12.589699 64.301899 22.821297
12.376492 63.363867 23.951541
13.064213 62.813135 23.256495
12.791598 65.187336 21.765059
12.103877 65.738068 22.460104
12.589699 64.301899 22.821297
13.016293 66.108555 20.615685
12.791598 65.187336 21.765059
13.502115 64.672386 20.976877
13.221139 67.041069 19.494509
12.510622 67.556019 20.282691
13.016293 66.108555 20.615685
13.379995 68.09277 18.345198
13.221139 67.041069 19.494509
-1.5668 96.777324 -36.821815
-2.991467 97.402146 -37.239961
-2.160744 97.913395 -36.023573
-0.169052 96.118126 -36.359974
0.626726 96.528423 -35.185823
1.193752 95.357975 -35.940371
-1.5668 96.777324 -36.821815
-0.169052 96.118126 -36.359974
5.302102 94.26474 -32.656995
6.484669 93.36158 -32.182014
13.057903 84.354042 -30.645168
12.849785 85.602055 -30.222511
13.707963 84.5209 -29.501638
13.980296 82.060787 -30.272745
14.674867 82.091209 -29.192623
13.219974 83.098827 -31.016044
13.980296 82.060787 -30.272745
13.057903 84.354042 -30.645168
13.219974 83.098827 -31.016044
3 0 87 85
3 0 85 88
3 0 88 90
3 1 339 341
3 339 92 340
3 339 340 341
3 1 342 344
3 344 343 93
3 342 343 344
3 1 345 346
3 2 96 94
3 347 99 348
3 349 348 97
3 347 348 349
3 351 350 99
3 4 102 100
3 2 105 103
3 2 94 105
3 5 109 107
3 5 111 109
3 5 113 111
3 3 116 114
3 6 119 117
3 7 122 120
3 7 123 122
3 8 126 124
3 6 129 127
3 6 117 129
3 10 133 131
3 8 136 134
3 8 124 136
3 352 139 353
3 355 354 139
3 13 356 358
3 358 357 141
3 356 357 358
3 14 144 142
3 16 147 145
3 16 149 147
3 9 152 150
3 17 155 153
3 17 157 155
3 17 359 361
3 361 360 157
3 359 360 361
3 11 160 158
3 18 163 161
3 18 165 163
3 18 167 165
3 14 170 168
3 14 142 170
3 362 172 363
3 364 174 365
3 366 365 172
3 364 365 366
3 12 367 369
3 367 175 368
3 367 368 369
3 19 178 176
3 19 180 178
3 19 182 180
3 20 185 183
3 20 187 185
3 20 189 187
3 21 192 190
3 21 370 372
3 372 371 192
3 370 371 372
3 373 195 374
3 375 374 193
3 373 374 375
3 15 376 378
3 378 377 196
3 376 377 378
3 22 200 198
3 24 201 86
3 24 202 201
3 25 205 203
3 22 206 89
3 22 198 206
3 27 209 207
3 25 210 91
3 25 203 210
3 29 379 381
3 381 380 211
3 379 380 381
3 30 214 212
3 32 215 95
3 32 216 215
3 33 219 217
3 35 220 98
3 35 221 220
3 35 382 384
3 384 383 221
3 382 383 384
3 36 385 387
3 387 386 222
3 385 386 387
3 37 388 390
3 390 389 101
3 388 389 390
3 37 391 393
3 391 223 392
3 391 392 393
3 38 226 224
3 40 227 104
3 40 228 227
3 40 230 228
3 30 231 106
3 30 212 231
3 42 234 232
3 44 235 108
3 44 236 235
3 44 238 236
3 46 239 110
3 46 240 239
3 46 242 240
3 48 243 112
3 48 244 243
3 49 246 245
3 395 394 115
3 50 396 397
3 399 398 118
3 23 400 402
3 402 401 199
3 400 401 402
3 404 403 121
3 51 249 247
3 53 250 125
3 53 251 250
3 26 252 204
3 54 253 128
3 54 254 253
3 54 255 254
3 50 256 130
3 50 405 407
3 407 406 256
3 405 406 407
3 55 259 257
3 57 260 132
3 57 261 260
3 28 262 208
3 58 263 135
3 58 264 263
3 58 265 264
3 51 266 137
3 51 247 266
3 59 408 409
3 59 410 412
3 410 267 411
3 410 411 412
3 59 268 267
3 60 269 138
3 60 270 269
3 60 272 270
3 413 273 414
3 415 414 140
3 413 414 415
3 417 416 273
3 419 418 274
3 62 278 276
3 64 279 143
3 64 280 279
3 31 281 213
3 65 282 146
3 65 283 282
3 65 284 283
3 66 285 148
3 66 286 285
3 52 287 248
3 67 288 151
3 67 289 288
3 34 290 218
3 68 291 154
3 68 292 291
3 68 293 292
3 69 294 156
3 69 295 294
3 69 296 295
3 56 297 258
3 70 298 159
3 70 299 298
3 39 300 225
3 71 301 162
3 71 302 301
3 71 420 422
3 422 421 302
3 420 421 422
3 72 423 425
3 425 424 164
3 423 424 425
3 72 426 427
3 72 428 430
3 428 429 430
3 73 303 166
3 73 304 303
3 41 305 229
3 74 306 169
3 74 307 306
3 74 308 307
3 62 309 171
3 62 276 309
3 431 310 432
3 75 311 173
3 75 312 311
3 76 433 434
3 76 435 436
3 43 313 233
3 77 314 177
3 77 315 314
3 77 316 315
3 78 317 179
3 78 318 317
3 78 319 318
3 79 320 181
3 79 321 320
3 45 322 237
3 80 323 184
3 80 324 323
3 80 325 324
3 81 326 186
3 81 327 326
3 81 328 327
3 82 329 188
3 82 330 329
3 47 331 241
3 83 332 191
3 83 333 332
3 83 437 439
3 439 438 333
3 437 438 439
3 61 334 271
3 84 335 194
3 84 336 335
3 63 337 277
3 441 440 197
3 442 338 443
3 444 443 275
3 442 443 444
3 85 86 22
3 87 86 85
3 87 24 86
3 88 89 25
3 85 89 88
3 85 22 89
3 90 91 27
3 88 91 90
3 88 25 91
3 92 445 446
3 92 447 448
3 93 449 451
3 451 450 29
3 449 450 451
3 453 452 93
3 94 95 30
3 96 95 94
3 96 32 95
3 97 98 33
3 99 98 97
3 99 35 98
3 99 454 456
3 456 455 35
3 454 455 456
3 458 457 99
3 100 101 36
3 102 101 100
3 102 37 101
3 103 104 38
3 105 104 103
3 105 40 104
3 105 106 40
3 94 106 105
3 94 30 106
3 107 108 42
3 109 108 107
3 109 44 108
3 109 110 44
3 111 110 109
3 111 46 110
3 111 112 46
3 113 112 111
3 113 48 112
3 114 115 49
3 116 115 114
3 116 459 461
3 461 460 115
3 459 460 461
3 117 118 50
3 119 118 117
3 119 462 464
3 464 463 118
3 462 463 464
3 120 121 23
3 122 121 120
3 122 465 467
3 467 466 121
3 465 466 467
3 122 468 469
3 123 470 472
3 472 471 122
3 470 471 472
3 123 473 474
3 124 125 51
3 126 125 124
3 126 53 125
3 127 128 26
3 129 128 127
3 129 54 128
3 129 130 54
3 117 130 129
3 117 50 130
3 131 132 55
3 133 132 131
3 133 57 132
3 134 135 28
3 136 135 134
3 136 58 135
3 136 137 58
3 124 137 136
3 124 51 137
3 475 59 476
3 477 138 478
3 479 478 59
3 477 478 479
3 139 480 482
3 480 138 481
3 480 481 482
3 139 60 138
3 139 140 60
3 483 140 484
3 485 484 139
3 483 484 485
3 487 486 140
3 141 488 489
3 491 490 141
3 142 143 62
3 144 143 142
3 144 64 143
3 145 146 31
3 147 146 145
3 147 65 146
3 147 148 65
3 149 148 147
3 149 66 148
3 150 151 52
3 152 151 150
3 152 67 151
3 153 154 34
3 155 154 153
3 155 68 154
3 155 156 68
3 157 156 155
3 157 69 156
3 157 492 494
3 494 493 69
3 492 493 494
3 496 495 157
3 158 159 56
3 160 159 158
3 160 70 159
3 161 162 39
3 163 162 161
3 163 71 162
3 163 164 71
3 165 164 163
3 165 72 164
3 165 166 72
3 167 166 165
3 167 73 166
3 168 169 41
3 170 169 168
3 170 74 169
3 170 171 74
3 142 171 170
3 142 62 171
3 172 497 498
3 172 499 500
3 172 501 503
3 501 173 502
3 501 502 503
3 174 173 172
3 174 75 173
3 175 504 505
3 175 506 508
3 506 76 507
3 506 507 508
3 176 177 43
3 178 177 176
3 178 77 177
3 178 179 77
3 180 179 178
3 180 78 179
3 180 181 78
3 182 181 180
3 182 79 181
3 183 184 45
3 185 184 183
3 185 80 184
3 185 186 80
3 187 186 185
3 187 81 186
3 187 188 81
3 189 188 187
3 189 82 188
3 190 191 47
3 192 191 190
3 192 83 191
3 192 509 511
3 511 510 83
3 509 510 511
3 513 512 192
3 193 194 61
3 195 194 193
3 195 84 194
3 196 197 63
3 514 197 515
3 516 515 196
3 514 515 516
3 518 517 197
3 198 199 6
3 200 199 198
3 200 23 199
3 86 200 22
3 201 200 86
3 201 23 200
3 201 120 23
3 202 120 201
3 202 7 120
3 203 204 8
3 205 204 203
3 205 26 204
3 89 205 25
3 206 205 89
3 206 26 205
3 206 127 26
3 198 127 206
3 198 6 127
3 207 208 10
3 209 208 207
3 209 28 208
3 91 209 27
3 210 209 91
3 210 28 209
3 210 134 28
3 203 134 210
3 203 8 134
3 211 519 521
3 521 520 13
3 519 520 521
3 523 522 211
3 525 524 29
3 212 213 14
3 214 213 212
3 214 31 213
3 95 214 30
3 215 214 95
3 215 31 214
3 215 145 31
3 216 145 215
3 216 16 145
3 217 218 9
3 219 218 217
3 219 34 218
3 98 219 33
3 220 219 98
3 220 34 219
3 220 153 34
3 221 153 220
3 221 17 153
3 221 526 528
3 528 527 17
3 526 527 528
3 530 529 221
3 532 531 35
3 222 533 534
3 536 535 222
3 101 537 539
3 539 538 36
3 537 538 539
3 541 540 101
3 223 542 543
3 223 544 545
3 224 225 11
3 226 225 224
3 226 39 225
3 104 226 38
3 227 226 104
3 227 39 226
3 227 161 39
3 228 161 227
3 228 18 161
3 228 229 18
3 230 229 228
3 230 41 229
3 106 230 40
3 231 230 106
3 231 41 230
3 231 168 41
3 212 168 231
3 212 14 168
3 232 233 12
3 234 233 232
3 234 43 233
3 108 234 42
3 235 234 108
3 235 43 234
3 235 176 43
3 236 176 235
3 236 19 176
3 236 237 19
3 238 237 236
3 238 45 237
3 110 238 44
3 239 238 110
3 239 45 238
3 239 183 45
3 240 183 239
3 240 20 183
3 240 241 20
3 242 241 240
3 242 47 241
3 112 242 46
3 243 242 112
3 243 47 242
3 243 190 47
3 244 190 243
3 244 21 190
3 245 546 548
3 548 547 15
3 546 547 548
3 246 549 551
3 551 550 245
3 549 550 551
3 246 552 553
3 115 246 49
3 554 246 555
3 556 555 115
3 554 555 556
3 559 558 246
3 557 558 559
3 118 560 562
3 562 561 50
3 560 561 562
3 564 563 118
3 199 119 6
3 565 119 566
3 567 566 199
3 565 566 567
3 569 568 119
3 121 570 572
3 572 571 23
3 570 571 572
3 574 573 121
3 247 248 2
3 249 248 247
3 249 52 248
3 125 249 51
3 250 249 125
3 250 52 249
3 250 150 52
3 251 150 250
3 251 9 150
3 204 126 8
3 252 126 204
3 252 53 126
3 128 252 26
3 253 252 128
3 253 53 252
3 253 251 53
3 254 251 253
3 254 9 251
3 254 217 9
3 255 217 254
3 255 33 217
3 130 255 54
3 256 255 130
3 256 33 255
3 256 97 33
3 575 97 576
3 577 576 256
3 575 576 577
3 579 578 97
3 257 258 4
3 259 258 257
3 259 56 258
3 132 259 55
3 260 259 132
3 260 56 259
3 260 158 56
3 261 158 260
3 261 11 158
3 208 133 10
3 262 133 208
3 262 57 133
3 135 262 28
3 263 262 135
3 263 57 262
3 263 261 57
3 264 261 263
3 264 11 261
3 264 224 11
3 265 224 264
3 265 38 224
3 137 265 58
3 266 265 137
3 266 38 265
3 266 103 38
3 247 103 266
3 247 2 103
3 580 12 581
3 267 582 583
3 267 584 586
3 584 12 585
3 584 585 586
3 267 232 12
3 268 232 267
3 268 42 232
3 138 268 59
3 269 268 138
3 269 42 268
3 269 107 42
3 270 107 269
3 270 5 107
3 270 271 5
3 272 271 270
3 272 61 271
3 140 272 60
3 273 272 140
3 273 61 272
3 273 193 61
3 587 193 588
3 589 588 273
3 587 588 589
3 591 590 193
3 274 275 3
3 592 275 593
3 594 593 274
3 592 593 594
3 596 595 275
3 598 597 13
3 276 277 1
3 278 277 276
3 278 63 277
3 143 278 62
3 279 278 143
3 279 63 278
3 279 196 63
3 280 196 279
3 280 15 196
3 213 144 14
3 281 144 213
3 281 64 144
3 146 281 31
3 282 281 146
3 282 64 281
3 282 280 64
3 283 280 282
3 283 15 280
3 283 245 15
3 284 245 283
3 284 49 245
3 148 284 65
3 285 284 148
3 285 49 284
3 285 114 49
3 286 114 285
3 286 3 114
3 248 96 2
3 287 96 248
3 287 32 96
3 151 287 52
3 288 287 151
3 288 32 287
3 288 216 32
3 289 216 288
3 289 16 216
3 218 152 9
3 290 152 218
3 290 67 152
3 154 290 34
3 291 290 154
3 291 67 290
3 291 289 67
3 292 289 291
3 292 16 289
3 292 149 16
3 293 149 292
3 293 66 149
3 156 293 68
3 294 293 156
3 294 66 293
3 294 286 66
3 295 286 294
3 295 3 286
3 295 274 3
3 296 274 295
3 296 599 601
3 601 600 274
3 599 600 601
3 602 296 603
3 604 603 69
3 602 603 604
3 605 296 606
3 608 607 296
3 610 609 17
3 258 102 4
3 297 102 258
3 297 37 102
3 159 297 56
3 298 297 159
3 298 37 297
3 298 223 37
3 299 223 298
3 299 611 613
3 613 612 223
3 611 612 613
3 225 160 11
3 300 160 225
3 300 70 160
3 162 300 39
3 301 300 162
3 301 70 300
3 301 299 70
3 302 299 301
3 302 614 616
3 616 615 299
3 614 615 616
3 302 617 618
3 620 619 302
3 164 621 623
3 623 622 71
3 621 622 623
3 625 624 164
3 166 626 628
3 628 627 72
3 626 627 628
3 303 629 631
3 631 630 166
3 629 630 631
3 303 632 633
3 303 634 636
3 634 141 635
3 634 635 636
3 304 141 303
3 304 13 141
3 229 167 18
3 305 167 229
3 305 73 167
3 169 305 41
3 306 305 169
3 306 73 305
3 306 304 73
3 307 304 306
3 307 13 304
3 307 211 13
3 308 211 307
3 308 29 211
3 171 308 74
3 309 308 171
3 309 29 308
3 309 93 29
3 276 93 309
3 276 1 93
3 637 222 638
3 310 639 641
3 639 222 640
3 639 640 641
3 310 36 222
3 173 642 644
3 642 310 643
3 642 643 644
3 311 310 173
3 311 36 310
3 311 100 36
3 312 100 311
3 312 4 100
3 233 175 12
3 313 175 233
3 313 76 175
3 177 313 43
3 314 313 177
3 314 76 313
3 314 645 647
3 647 646 76
3 645 646 647
3 315 648 650
3 650 649 314
3 648 649 650
3 315 651 652
3 315 653 655
3 653 174 654
3 653 654 655
3 316 174 315
3 316 75 174
3 179 316 77
3 317 316 179
3 317 75 316
3 317 312 75
3 318 312 317
3 318 4 312
3 318 257 4
3 319 257 318
3 319 55 257
3 181 319 78
3 320 319 181
3 320 55 319
3 320 131 55
3 321 131 320
3 321 10 131
3 237 182 19
3 322 182 237
3 322 79 182
3 184 322 45
3 323 322 184
3 323 79 322
3 323 321 79
3 324 321 323
3 324 10 321
3 324 207 10
3 325 207 324
3 325 27 207
3 186 325 80
3 326 325 186
3 326 27 325
3 326 90 27
3 327 90 326
3 327 0 90
3 327 87 0
3 328 87 327
3 328 24 87
3 188 328 81
3 329 328 188
3 329 24 328
3 329 202 24
3 330 202 329
3 330 7 202
3 241 189 20
3 331 189 241
3 331 82 189
3 191 331 47
3 332 331 191
3 332 82 331
3 332 330 82
3 333 330 332
3 333 7 330
3 333 123 7
3 656 123 657
3 658 657 333
3 656 657 658
3 660 659 123
3 662 661 83
3 271 113 5
3 334 113 271
3 334 48 113
3 194 334 61
3 335 334 194
3 335 48 334
3 335 244 48
3 336 244 335
3 336 21 244
3 663 195 664
3 663 664 665
3 666 195 667
3 668 84 669
3 670 669 195
3 668 669 670
3 671 84 672
3 671 672 673
3 674 336 675
3 676 675 84
3 674 675 676
3 677 336 678
3 677 678 679
3 680 21 681
3 682 681 336
3 680 681 682
3 684 683 21
3 277 92 1
3 337 92 277
3 337 685 687
3 687 686 92
3 685 686 687
3 197 337 63
3 688 337 689
3 690 689 197
3 688 689 690
3 692 691 337
3 694 693 15
3 275 116 3
3 338 116 275
3 338 695 697
3 697 696 116
3 695 696 697
3 698 338 699
3 700 338 701
3 703 702 338
