ply
format ascii 1.0
element vertex 778
property float x
property float y
property float z
element face 955
property list uchar int vertex_index
end_header
23.715256 -72.367905 -15.474648
6.100946 -75.283157 -43.880764
18.294693 -79.099602 -34.138062
16.068132 -40.252865 -53.615582
33.814747 -53.44556 -31.289806
27.748724 -50.834244 -46.198147
28.533028 -61.504387 -13.996135
28.818604 -64.21405 -23.774693
12.78373 -78.711784 -40.601032
23.351063 -66.266602 -40.207859
17.538254 -63.814774 -45.53101
21.987591 -46.646782 -50.853413
11.57533 -58.518627 -48.21051
16.919661 -84.011948 -17.351959
22.104193 -76.273903 -25.493099
19.044851 -78.307976 -6.666881
0.713821 -67.793343 -44.556896
6.784005 -49.827591 -49.415119
27.310711 -65.971901 -32.64283
32.113583 -52.85273 -39.548855
26.428782 -66.695969 -14.689404
28.79034 -63.010532 -18.92079
26.161314 -68.709404 -19.651012
9.357569 -77.631927 -42.586498
15.070443 -71.774887 -43.054119
12.07366 -69.544136 -44.953602
14.557706 -61.259823 -47.250092
8.918941 -67.015022 -46.026371
15.469126 -86.381912 -22.243086
16.935904 -80.127853 -1.898264
15.840882 -83.422676 -7.643093
3.956108 -58.907135 -46.86668
1.827839 -54.057178 -46.934647
33.652588 -53.451992 -26.78924
20.525904 -77.855659 -29.94315
24.612293 -71.583359 -29.260714
23.051771 -72.491745 -33.439953
25.664482 -58.671597 -43.276459
28.083681 -59.535767 -39.85675
30.091444 -52.281441 -43.113457
31.950472 -44.540043 -46.210323
29.502285 -42.636364 -49.250134
19.035744 -43.696529 -52.434822
23.585749 -37.930248 -53.811813
30.231304 -56.442131 -13.543339
30.919535 -57.397522 -18.386124
31.341959 -58.419144 -23.069662
31.486425 -58.970665 -27.654343
15.724746 -79.268028 -37.808018
20.89072 -72.819649 -37.405621
18.223669 -72.564224 -40.608006
20.662912 -65.208527 -43.268372
22.88903 -57.499294 -45.882118
24.780582 -49.137985 -48.799194
19.818455 -55.50359 -48.069241
16.792009 -52.575684 -49.724289
13.970145 -49.30135 -50.766426
20.627153 -78.05249 -16.474716
22.983088 -74.669159 -20.450842
19.525682 -80.417 -21.332428
17.835657 -82.692017 -26.305971
15.772902 -84.417488 -30.613451
13.322678 -85.230133 -34.579205
10.132023 -85.451828 -37.821529
6.89822 -84.636185 -40.117569
3.606487 -82.558197 -41.735592
28.262833 -59.882462 -9.312933
26.314438 -64.999603 -9.599839
23.986267 -70.274147 -10.204516
21.837481 -73.062729 -5.538847
21.261639 -75.69706 -11.045291
18.128838 -81.177673 -12.073897
14.503583 -86.599838 -12.908927
0.3017 -79.968269 -42.357159
3.291743 -71.915138 -44.489082
6.355738 -63.151051 -46.654583
9.086836 -54.36895 -48.939476
11.473126 -45.518597 -51.529053
9.055471 -40.765041 -52.2798
25.678474 -70.236252 -24.562843
28.381254 -65.161041 -28.466724
30.914145 -59.605049 -32.101913
25.675638 -66.314034 -36.640617
29.768562 -59.855511 -36.145889
33.204552 -53.543365 -35.559166
26.598454 -40.485027 -51.795784
25.118294 -69.510941 -14.986058
26.361528 -67.674324 -17.223398
25.020105 -70.415031 -17.520441
7.825049 -76.527367 -43.333401
10.56821 -73.654907 -43.818645
9.038397 -72.532494 -44.469589
10.450859 -68.557266 -45.524544
7.514924 -71.139153 -44.974503
17.418453 -78.508064 0.948471
15.861422 -80.771881 0.541736
15.336744 -82.499954 -2.473934
33.875134 -53.294289 -29.137644
19.440319 -78.63829 -32.049412
21.697147 -75.344818 -31.857836
20.720789 -75.858078 -33.741543
26.647997 -54.892033 -44.751038
27.936766 -55.461929 -43.235565
28.972239 -51.470539 -44.816891
31.052164 -48.578938 -44.585232
30.044765 -47.461239 -46.259705
30.759689 -43.622879 -47.815693
28.563442 -47.008072 -47.655571
17.474382 -42.163548 -53.025089
19.749537 -39.361832 -53.879433
18.372089 -37.687775 -54.528343
29.460131 -58.944942 -13.856179
30.585606 -56.897415 -15.929866
29.718985 -59.498585 -16.146528
28.915182 -63.507545 -21.381483
30.085854 -60.717442 -20.909515
30.20652 -61.174026 -23.327293
31.472141 -58.726345 -25.380272
30.090298 -61.829971 -25.682331
14.104653 -79.459236 -39.193298
16.965193 -76.102577 -39.1703
15.561638 -75.856743 -40.522499
16.277065 -67.905556 -44.289001
17.833305 -68.504852 -43.249786
19.188473 -64.567314 -44.462936
21.752913 -61.467236 -44.564247
20.308739 -60.582439 -45.759605
21.207172 -56.640972 -47.092377
18.651875 -59.67635 -46.809402
13.107967 -59.764748 -47.85656
15.721155 -56.883976 -48.479774
14.286835 -55.33313 -49.066299
15.452662 -50.875393 -50.33342
12.794396 -53.827404 -49.474178
18.801405 -81.066231 -16.817284
20.007652 -79.436417 -18.852571
18.137707 -82.432999 -19.538263
14.483176 -87.60083 -24.546782
16.667393 -84.593636 -24.408291
15.558591 -85.850563 -26.61834
16.838875 -83.615372 -28.649744
14.468409 -86.810509 -28.714935
12.129522 -87.799576 -32.93549
10.453364 -88.401299 -34.656628
11.803939 -85.410103 -36.327053
9.039617 -88.33802 -36.24369
5.579441 -87.873817 -38.782013
5.044264 -83.893776 -41.000378
2.222043 -86.176353 -40.477154
29.069157 -57.390244 -9.083043
28.190847 -58.96751 -6.92787
26.341249 -63.922256 -6.998149
25.26054 -66.537827 -7.203038
25.197897 -67.621689 -9.871778
24.231867 -68.898323 -7.550781
19.409288 -76.884033 -3.807233
20.849422 -74.229485 -3.268512
20.471882 -75.726028 -6.122604
21.600725 -74.320671 -8.326447
20.175508 -76.991539 -8.780652
19.745361 -78.415703 -11.43501
18.726351 -79.548973 -9.32486
15.263936 -84.916153 -10.207376
-1.296234 -83.68222 -41.225262
-2.658607 -81.706894 -41.42662
0.462739 -74.060356 -43.546906
1.858765 -69.923691 -44.553291
4.643038 -67.717415 -45.502201
3.480265 -65.586159 -45.637703
5.346334 -54.23542 -48.111568
6.537027 -56.510445 -47.976276
7.823985 -52.256229 -49.153854
10.131048 -50.053638 -50.128834
9.148494 -47.508476 -50.554096
22.632225 -75.46788 -23.09421
24.386555 -72.422211 -22.435818
23.962822 -73.224174 -24.981594
26.019854 -68.759766 -30.991749
26.555178 -68.389397 -28.781849
27.933546 -65.568123 -30.609177
29.669582 -62.488285 -30.12262
29.211119 -62.755955 -32.295559
22.131191 -69.608421 -38.824654
23.457764 -69.416603 -37.023201
24.700874 -66.093849 -38.592308
30.093027 -56.348267 -39.716576
28.983376 -59.813484 -38.020496
30.925734 -56.414246 -38.01152
31.53533 -56.73315 -35.927208
32.668713 -53.413391 -37.57449
33.75457 -49.838402 -39.248631
23.248127 -48.191212 -49.844685
25.695551 -44.89365 -50.263573
24.275347 -43.633789 -51.353214
27.59812 -63.993546 -14.462627
28.760384 -62.161102 -16.622694
27.584227 -64.969154 -16.877981
27.585575 -65.736107 -19.255476
27.512278 -66.462296 -21.622158
11.077769 -78.214661 -41.728046
13.952519 -75.369492 -41.808002
12.319004 -74.536743 -42.935032
13.432566 -70.904671 -44.077538
14.756147 -67.011429 -45.197376
16.07761 -62.680134 -46.445267
13.234561 -65.571053 -46.069195
11.658593 -64.270844 -46.667229
10.219929 -62.859901 -47.082733
15.035872 -86.747894 -17.827045
16.166517 -85.351723 -19.893585
14.026328 -88.300919 -20.200834
13.125701 -89.50116 -22.596809
18.524021 -77.574448 -1.316472
18.020544 -79.243896 -4.245612
17.474966 -80.917999 -7.157985
16.457981 -81.724922 -4.813506
-0.212936 -65.21833 -44.587593
2.329852 -63.322826 -45.686634
1.329421 -60.747746 -45.742386
2.913883 -56.455856 -46.951649
4.288744 -51.982033 -48.205414
33.493698 -53.11409 -24.656767
21.216982 -77.353386 -27.787317
23.293398 -74.115013 -27.414692
22.627337 -74.680618 -29.676561
23.922586 -72.077438 -31.328295
25.260424 -69.219391 -33.002384
24.478964 -62.512089 -41.82674
25.753479 -62.717823 -40.240311
26.857952 -59.341408 -41.616245
29.065042 -56.003696 -41.545025
31.159212 -52.723843 -41.343784
33.086769 -49.243927 -41.248978
32.193409 -48.775024 -43.048676
32.99527 -45.163841 -44.604057
32.765583 -40.539299 -47.751808
30.186077 -38.551544 -50.804634
20.384369 -45.476707 -51.637829
22.72595 -42.260281 -52.346973
21.284252 -40.844341 -53.166439
21.971169 -36.479103 -54.676167
32.004864 -55.325661 -20.322222
29.892931 -60.219364 -18.530512
31.104031 -58.034031 -20.593882
32.338737 -55.610462 -22.689949
32.556084 -55.923359 -24.979122
32.703835 -56.079403 -27.243996
32.717377 -56.196228 -29.55125
17.074371 -79.283714 -36.062885
19.596809 -76.135895 -35.698902
18.401325 -76.066238 -37.588867
19.596748 -72.76506 -39.125645
20.896448 -69.208794 -40.546619
16.507362 -72.452957 -41.924126
19.383648 -68.94989 -42.006378
22.121918 -65.613342 -41.906467
23.15094 -61.921021 -43.360939
24.296722 -58.050072 -44.721325
25.414186 -53.960155 -46.145168
26.203585 -50.21788 -47.537449
23.775311 -53.606384 -47.255119
22.342728 -52.340801 -48.458328
20.789097 -51.141479 -49.461407
17.203476 -58.245487 -47.758862
18.349556 -54.115433 -48.961815
19.311781 -49.985107 -50.228905
17.920269 -48.198322 -51.028065
16.504154 -46.522827 -51.641525
15.112739 -44.835297 -52.132511
22.145823 -75.288582 -15.709308
23.433336 -73.456734 -17.896551
21.846567 -76.330986 -18.426727
21.317543 -77.527519 -20.962931
20.743635 -78.544395 -23.349962
17.518753 -83.462769 -21.999548
18.837978 -81.465019 -23.847012
20.022552 -79.515762 -25.745384
19.11277 -80.487709 -28.066036
18.222921 -81.14093 -30.273985
17.057547 -81.844757 -32.392143
13.408051 -87.339493 -30.926413
14.644856 -84.907761 -32.638752
15.774158 -82.30912 -34.406845
14.483971 -82.356888 -36.290154
12.903685 -82.582596 -37.805027
11.377005 -82.268143 -39.248398
7.327876 -88.186249 -37.662674
8.536249 -85.162987 -39.0653
9.775888 -81.722946 -40.488293
8.013296 -81.259827 -41.411434
6.502487 -80.271851 -42.19986
4.861599 -78.962578 -42.846264
29.238674 -58.226471 -11.493718
28.374723 -60.745411 -11.652536
27.326298 -61.372906 -6.927444
27.316889 -62.388599 -9.248597
27.436592 -63.248268 -11.855387
26.393763 -65.804207 -12.106509
25.204535 -68.525826 -12.498131
23.880695 -71.270729 -12.723876
23.128531 -70.454185 -5.245671
22.969828 -71.560829 -7.829396
22.646027 -72.97731 -10.445544
22.515951 -74.00415 -13.229556
20.881016 -77.025154 -13.659873
19.332655 -79.730499 -14.191824
17.603743 -82.57151 -14.824482
17.074009 -82.233978 -9.813203
16.406734 -83.83918 -12.380869
15.737069 -85.343613 -15.03654
13.793812 -88.065125 -15.511607
0.460217 -85.037506 -40.968174
1.809579 -81.559692 -42.088547
3.09022 -77.789627 -43.170517
1.907869 -75.723915 -43.51627
4.644066 -73.825943 -44.235687
6.029855 -69.629295 -45.288635
7.349791 -65.45446 -46.315037
8.904506 -60.930973 -47.459866
5.006652 -61.259529 -46.732525
7.638885 -58.757885 -47.749413
10.28518 -56.344437 -48.65358
11.563787 -51.821327 -49.894703
12.638331 -47.501801 -51.156498
13.798998 -42.640766 -52.68235
3.364985 -49.24321 -48.377678
5.690564 -47.264706 -49.631397
8.008877 -45.365128 -50.787418
10.374434 -42.868744 -52.036835
12.544366 -40.742317 -53.073925
24.622719 -71.674568 -19.925697
25.909058 -69.628242 -22.112616
27.329134 -67.171562 -24.081055
25.2113 -70.961082 -26.980335
26.960142 -67.912994 -26.504644
28.639805 -64.779701 -26.185272
29.96419 -62.160965 -27.965006
31.237741 -59.410698 -29.917873
32.465481 -56.49876 -31.785063
21.942652 -72.878937 -35.506855
24.333321 -69.57679 -35.00774
26.51232 -66.303528 -34.662838
26.8741 -62.993263 -38.320953
27.773767 -63.133369 -36.35577
28.490009 -63.139786 -34.360302
30.408901 -59.820995 -34.103825
32.181725 -56.450386 -33.902142
33.646889 -53.437988 -33.377525
27.282223 -46.018707 -48.951443
27.968506 -41.832039 -50.542313
25.120913 -39.449203 -52.779079
15.271185 -81.084995 1.667906
16.049513 -80.007358 1.99645
15.011963 -81.932254 0.251327
15.271185 -81.084995 1.667906
34.376251 -51.952404 -31.10284
34.406445 -51.876768 -30.026759
33.84494 -53.369924 -30.213725
34.341013 -51.957223 -32.195717
34.376251 -51.952404 -31.10284
16.478797 -38.049848 -54.372881
17.630776 -36.767303 -54.829262
17.22011 -38.97032 -54.071962
14.373423 -87.394936 -26.738579
15.020884 -86.725696 -25.582561
13.835715 -88.270069 -25.7028
13.828332 -87.874909 -27.786876
15.0135 -86.330536 -27.666638
14.373423 -87.394936 -26.738579
9.06919 -89.827305 -34.603096
9.876748 -89.657135 -33.796358
8.362317 -89.795665 -35.396627
9.746491 -88.369659 -35.450159
9.06919 -89.827305 -34.603096
1.5143 -87.858719 -39.810439
3.056937 -86.696144 -40.089889
28.146699 -58.59951 -5.706948
28.554808 -57.81961 -6.805
24.778852 -67.228424 -6.073685
25.335006 -65.972172 -6.043116
24.264515 -68.408672 -6.247557
24.746204 -67.718075 -7.37691
24.778852 -67.228424 -6.073685
-4.078981 -82.680203 -40.850015
-3.406431 -83.59129 -40.838577
-0.006335 -69.893745 -44.048409
-0.526632 -68.662091 -44.028801
1.286293 -68.858517 -44.555093
0.566137 -70.95892 -44.046606
-0.006335 -69.893745 -44.048409
13.456246 -88.948678 -19.088099
14.5311 -87.524406 -19.013939
13.961018 -88.172165 -17.901205
11.945805 -90.954662 -22.682127
12.504423 -90.273685 -21.545112
12.569624 -90.122795 -23.72343
11.945805 -90.954662 -22.682127
15.01951 -83.358257 -3.850619
14.413159 -83.71603 -2.68856
-0.715267 -64.005859 -44.545227
-1.475923 -66.122058 -43.992857
0.055912 -61.770567 -45.122624
0.558242 -62.983038 -45.16499
-0.715267 -64.005859 -44.545227
2.370861 -55.256517 -46.943148
1.597525 -57.45343 -46.309233
1.054504 -56.254091 -46.300732
34.1399 -51.915079 -26.708799
34.060456 -51.746128 -25.642562
33.573143 -53.283041 -25.723003
32.91019 -42.851446 -46.185339
33.432588 -43.163345 -45.382206
32.472871 -44.851942 -45.40719
32.358027 -42.539671 -46.981065
33.317745 -40.851074 -46.956081
32.91019 -42.851446 -46.185339
30.559092 -41.040388 -49.300375
31.187794 -41.533645 -48.583155
30.130987 -43.129621 -48.532914
29.844181 -40.593954 -50.027384
30.900987 -38.997978 -50.077625
30.559092 -41.040388 -49.300375
21.320957 -35.679369 -55.050427
20.860353 -37.920468 -54.2778
20.210141 -37.120734 -54.65206
22.3797 -34.258024 -55.460346
21.320957 -35.679369 -55.050427
30.765594 -55.444054 -14.638007
30.601141 -55.193962 -13.552107
31.321407 -56.073637 -18.234451
31.154443 -55.823583 -17.006321
30.75257 -57.147469 -17.157995
31.462199 -56.361592 -19.354173
31.864072 -55.037706 -19.2025
31.321407 -56.073637 -18.234451
12.139944 -88.799179 -31.030945
12.749723 -88.519749 -29.999203
5.920431 -89.467133 -37.499836
6.736973 -89.639012 -36.86888
26.850639 -62.180088 -5.79026
27.320712 -60.942015 -5.779964
21.968055 -72.432663 -4.219791
21.474025 -73.016041 -3.084623
21.343452 -73.646107 -4.403679
22.483006 -71.758457 -5.392259
22.61358 -71.128391 -4.073202
21.968055 -72.432663 -4.219791
-1.116483 -86.056816 -40.521633
-0.199644 -86.75737 -40.340471
4.059038 -46.991415 -49.108869
2.966812 -47.861774 -48.476908
5.221827 -46.002163 -49.735729
4.527774 -48.253958 -49.004537
4.059038 -46.991415 -49.108869
8.00161 -41.704115 -51.704847
8.563493 -39.543409 -52.465023
8.532174 -43.065084 -51.533609
7.478313 -44.004158 -50.958656
8.00161 -41.704115 -51.704847
12.954622 -38.547081 -53.825369
11.877112 -39.616495 -53.279627
13.660098 -39.423483 -53.638859
12.954622 -38.547081 -53.825369
33.948477 -51.880933 -35.444248
34.169646 -51.828245 -34.353427
33.42572 -53.490676 -34.468345
33.87696 -47.73062 -41.116444
33.529598 -47.437086 -42.042977
27.685313 -38.986477 -51.950599
28.37034 -39.659982 -51.323864
27.28348 -41.158533 -51.169049
16.828029 -78.87545 2.199817
17.64529 -77.730144 2.329765
16.639937 -79.639972 0.745103
16.828029 -78.87545 2.199817
16.049513 -80.007358 1.99645
14.749624 -82.796291 -1.256507
15.599083 -81.635918 -0.966099
15.011963 -81.932254 0.251327
14.413159 -83.71603 -2.68856
14.749624 -82.796291 -1.256507
0.642178 -54.785257 -46.317759
1.054504 -56.254091 -46.300732
34.318942 -51.980125 -28.905801
34.207668 -52.058977 -27.731599
33.763861 -53.37314 -27.963442
34.318942 -51.980125 -28.905801
34.406445 -51.876768 -30.026759
19.521417 -36.283705 -54.976515
20.210141 -37.120734 -54.65206
19.060813 -38.524804 -54.203888
18.741932 -35.609412 -55.260994
19.521417 -36.283705 -54.976515
18.741932 -35.609412 -55.260994
17.630776 -36.767303 -54.829262
10.714827 -89.356274 -32.935789
11.500679 -89.029221 -32.035483
11.291443 -88.100437 -33.796059
10.714827 -89.356274 -32.935789
9.876748 -89.657135 -33.796358
4.153442 -89.090309 -38.552964
5.046214 -89.310917 -38.059506
4.735636 -87.544876 -39.242319
4.153442 -89.090309 -38.552964
5.395026 -85.92606 -39.910097
6.238831 -86.255001 -39.449791
4.735636 -87.544876 -39.242319
4.468047 -85.554856 -40.351501
5.971242 -84.264981 -40.558974
5.395026 -85.92606 -39.910097
3.633154 -85.035065 -40.738766
4.468047 -85.554856 -40.351501
3.056937 -86.696144 -40.089889
28.993963 -57.030978 -7.882586
29.446795 -56.178522 -9.101609
28.630002 -58.178877 -8.005457
28.993963 -57.030978 -7.882586
28.554808 -57.81961 -6.805
25.875361 -64.664386 -5.940671
26.358114 -63.454763 -5.825612
25.800894 -65.230041 -7.100594
25.875361 -64.664386 -5.940671
25.335006 -65.972172 -6.043116
20.129355 -75.556759 -3.537872
20.361742 -74.766366 -2.170272
19.641675 -76.093639 -2.439633
14.656565 -85.409046 -9.106452
15.552409 -84.169414 -8.925235
14.945038 -84.662307 -7.82431
14.31831 -86.231956 -10.501639
14.656565 -85.409046 -9.106452
13.938134 -87.073799 -11.852415
14.88376 -85.757995 -11.558152
14.31831 -86.231956 -10.501639
13.468899 -87.970104 -13.10931
13.938134 -87.073799 -11.852415
-2.725245 -84.578952 -40.737898
-1.994708 -85.379173 -40.650177
-1.977421 -82.694557 -41.325941
-2.725245 -84.578952 -40.737898
-3.406431 -83.59129 -40.838577
-0.131876 -73.027252 -43.543413
-1.009725 -75.112034 -42.980462
1.160752 -71.992024 -44.050099
-0.131876 -73.027252 -43.543413
0.566137 -70.95892 -44.046606
9.547391 -38.445787 -53.089822
8.563493 -39.543409 -52.465023
10.132665 -39.627857 -52.882565
9.547391 -38.445787 -53.089822
33.473022 -51.751329 -37.484374
33.740942 -51.816316 -36.476712
32.936633 -53.478378 -36.566828
34.015951 -49.963835 -38.321444
33.473022 -51.751329 -37.484374
33.211641 -51.625896 -38.411561
34.512552 -48.175885 -39.16811
34.015951 -49.963835 -38.321444
24.724792 -36.441114 -54.094801
23.909599 -35.776032 -54.580118
12.954736 -89.673565 -20.347124
13.456246 -88.948678 -19.088099
13.576014 -88.901039 -21.398822
12.954736 -89.673565 -20.347124
12.504423 -90.273685 -21.545112
13.248362 -89.17263 -24.698417
13.804438 -88.550995 -23.571796
12.569624 -90.122795 -23.72343
13.835715 -88.270069 -25.7028
13.248362 -89.17263 -24.698417
18.18461 -77.276093 1.228028
17.64529 -77.730144 2.329765
18.737395 -76.809285 0.095556
18.18461 -77.276093 1.228028
17.971237 -78.041256 -0.184001
19.199042 -76.438847 -1.194253
18.737395 -76.809285 0.095556
18.966655 -77.229241 -2.561853
19.641675 -76.093639 -2.439633
19.199042 -76.438847 -1.194253
15.580129 -82.970741 -5.020405
15.897362 -82.112438 -3.64372
15.01951 -83.358257 -3.850619
15.27158 -83.819618 -6.435199
16.149431 -82.573799 -6.2283
15.580129 -82.970741 -5.020405
14.945038 -84.662307 -7.82431
15.27158 -83.819618 -6.435199
-0.99001 -67.374584 -44.04415
-1.475923 -66.122058 -43.992857
0.250443 -66.505836 -44.572244
-0.526632 -68.662091 -44.028801
-0.99001 -67.374584 -44.04415
0.805295 -59.599375 -45.704602
0.055912 -61.770567 -45.122624
2.121652 -58.601801 -46.347018
0.805295 -59.599375 -45.704602
1.597525 -57.45343 -46.309233
33.875307 -51.75 -24.500962
33.338752 -52.959696 -23.489756
33.875307 -51.75 -24.500962
34.060456 -51.746128 -25.642562
34.1399 -51.915079 -26.708799
34.207668 -52.058977 -27.731599
33.082918 -47.202635 -42.942825
33.529598 -47.437086 -42.042977
32.640089 -49.009476 -42.148827
33.483849 -45.397043 -43.720516
33.082918 -47.202635 -42.942825
32.59434 -46.969432 -43.826366
33.847071 -43.608141 -44.506342
33.483849 -45.397043 -43.720516
33.847071 -43.608141 -44.506342
33.432588 -43.163345 -45.382206
33.645497 -38.83963 -47.783184
33.317745 -40.851074 -46.956081
33.100943 -38.494623 -48.550344
33.645497 -38.83963 -47.783184
32.190741 -39.991855 -48.551212
31.762636 -42.081089 -47.78375
31.187794 -41.533645 -48.583155
33.100943 -38.494623 -48.550344
32.190741 -39.991855 -48.551212
31.209573 -36.900875 -50.894062
30.900987 -38.997978 -50.077625
30.539067 -36.387396 -51.602108
31.209573 -36.900875 -50.894062
23.10231 -35.050459 -55.012295
23.909599 -35.776032 -54.580118
22.778459 -37.204676 -54.24399
23.10231 -35.050459 -55.012295
22.3797 -34.258024 -55.460346
30.942744 -55.671695 -15.831271
30.765594 -55.444054 -14.638007
30.408455 -56.669773 -14.736603
30.942744 -55.671695 -15.831271
31.154443 -55.823583 -17.006321
32.378069 -54.010286 -20.195488
31.864072 -55.037706 -19.2025
32.594335 -54.065481 -21.322484
32.378069 -54.010286 -20.195488
32.761272 -54.207882 -22.506347
32.594335 -54.065481 -21.322484
32.171801 -55.468061 -21.506085
32.916218 -54.362276 -23.673358
33.338752 -52.959696 -23.489756
32.761272 -54.207882 -22.506347
13.279902 -88.255257 -28.893464
13.828332 -87.874909 -27.786876
13.93823 -87.075001 -29.820674
13.279902 -88.255257 -28.893464
12.749723 -88.519749 -29.999203
12.768787 -87.569535 -31.930951
12.139944 -88.799179 -31.030945
11.500679 -89.029221 -32.035483
7.592843 -89.714897 -36.159388
8.362317 -89.795665 -35.396627
8.183746 -88.262135 -36.953182
7.592843 -89.714897 -36.159388
6.736973 -89.639012 -36.86888
6.453658 -88.030033 -38.222344
5.920431 -89.467133 -37.499836
5.046214 -89.310917 -38.059506
30.136794 -56.034942 -12.463784
30.601141 -55.193962 -13.552107
29.55572 -56.508999 -10.233636
29.446795 -56.178522 -9.101609
29.640479 -56.927112 -11.438974
29.55572 -56.508999 -10.233636
29.153916 -57.808357 -10.28838
29.734989 -57.334301 -12.518528
30.136794 -56.034942 -12.463784
29.640479 -56.927112 -11.438974
27.752986 -59.739317 -5.780177
28.146699 -58.59951 -5.706948
27.758572 -60.170208 -6.927657
27.752986 -59.739317 -5.780177
27.320712 -60.942015 -5.779964
26.833773 -62.647581 -6.962796
26.850639 -62.180088 -5.79026
26.358114 -63.454763 -5.825612
20.991754 -73.583378 -1.8939
20.361742 -74.766366 -2.170272
20.991754 -73.583378 -1.8939
21.474025 -73.016041 -3.084623
23.22943 -69.880294 -3.990963
22.61358 -71.128391 -4.073202
23.712847 -69.186603 -5.095002
23.22943 -69.880294 -3.990963
23.680199 -69.676254 -6.398226
24.264515 -68.408672 -6.247557
23.712847 -69.186603 -5.095002
13.339988 -88.830781 -16.743486
13.961018 -88.172165 -17.901205
14.414842 -87.406509 -16.669326
13.114014 -88.702747 -14.41065
14.148698 -87.332482 -14.210267
13.468899 -87.970104 -13.10931
12.765862 -89.393063 -15.716487
13.114014 -88.702747 -14.41065
13.339988 -88.830781 -16.743486
12.765862 -89.393063 -15.716487
0.68127 -87.326794 -40.094961
1.5143 -87.858719 -39.810439
1.34113 -85.60693 -40.722664
0.68127 -87.326794 -40.094961
-0.199644 -86.75737 -40.340471
-0.418009 -84.359863 -41.096718
-1.116483 -86.056816 -40.521633
-1.994708 -85.379173 -40.650177
-3.352887 -80.867745 -41.387521
-4.078981 -82.680203 -40.850015
-1.858138 -79.868527 -41.961678
-3.352887 -80.867745 -41.387521
-0.377984 -78.999214 -42.426947
-1.178454 -80.837581 -41.89189
-1.858138 -79.868527 -41.961678
-0.297465 -76.045257 -43.021821
-1.009725 -75.112034 -42.980462
0.4251 -76.877037 -43.006502
-0.297465 -76.045257 -43.021821
1.185304 -74.892135 -43.531588
1.104785 -77.846092 -42.936715
-0.377984 -78.999214 -42.426947
0.4251 -76.877037 -43.006502
1.444636 -52.570925 -47.00812
0.642178 -54.785257 -46.317759
2.213209 -50.16394 -47.729636
2.966812 -47.861774 -48.476908
2.596412 -51.650194 -47.656163
1.444636 -52.570925 -47.00812
2.213209 -50.16394 -47.729636
6.319157 -44.953947 -50.380645
5.221827 -46.002163 -49.735729
6.849721 -46.314917 -50.209407
6.319157 -44.953947 -50.380645
7.478313 -44.004158 -50.958656
10.792147 -40.679709 -52.761082
9.714953 -41.816892 -52.158318
10.132665 -39.627857 -52.882565
11.4594 -41.805531 -52.55538
10.792147 -40.679709 -52.761082
11.877112 -39.616495 -53.279627
14.287414 -40.372708 -53.443072
13.171682 -41.691541 -52.878138
13.660098 -39.423483 -53.638859
15.421981 -39.178757 -53.909688
14.933565 -41.446815 -53.148966
14.287414 -40.372708 -53.443072
16.478797 -38.049848 -54.372881
15.421981 -39.178757 -53.909688
34.257084 -51.953437 -33.239576
34.341013 -51.957223 -32.195717
33.730818 -53.441774 -32.333665
34.257084 -51.953437 -33.239576
34.169646 -51.828245 -34.353427
33.948477 -51.880933 -35.444248
33.740942 -51.816316 -36.476712
34.210861 -48.027857 -40.11627
33.42067 -49.541165 -40.248805
33.87696 -47.73062 -41.116444
34.512552 -48.175885 -39.16811
34.210861 -48.027857 -40.11627
29.479125 -38.019735 -51.455025
29.077292 -40.191792 -50.673474
28.37034 -39.659982 -51.323864
30.539067 -36.387396 -51.602108
29.479125 -38.019735 -51.455025
25.492373 -37.200592 -53.578434
24.353331 -38.689725 -53.295446
24.724792 -36.441114 -54.094801
26.253201 -37.775175 -53.063574
25.492373 -37.200592 -53.578434
26.991971 -38.293087 -52.571926
25.859684 -39.967115 -52.287431
26.253201 -37.775175 -53.063574
27.685313 -38.986477 -51.950599
26.991971 -38.293087 -52.571926
3 0 88 86
3 1 91 89
3 1 93 91
3 351 95 352
3 354 353 95
3 4 355 357
3 357 356 97
3 355 356 357
3 4 358 359
3 2 100 98
3 5 103 101
3 5 105 103
3 5 107 105
3 3 110 108
3 3 360 362
3 362 361 110
3 360 361 362
3 6 113 111
3 7 116 114
3 7 118 116
3 8 121 119
3 10 124 122
3 10 126 124
3 10 128 126
3 12 131 129
3 12 133 131
3 13 136 134
3 363 139 364
3 365 364 137
3 363 364 365
3 366 141 367
3 368 367 139
3 366 367 368
3 369 143 370
3 371 145 372
3 373 372 143
3 371 372 373
3 374 148 375
3 376 150 377
3 378 152 379
3 380 154 381
3 382 381 152
3 380 381 382
3 15 157 155
3 15 159 157
3 15 161 159
3 383 164 384
3 16 385 386
3 16 387 389
3 387 166 388
3 387 388 389
3 16 168 166
3 17 171 169
3 17 173 171
3 14 176 174
3 18 179 177
3 18 181 179
3 9 184 182
3 19 187 185
3 19 189 187
3 19 190 189
3 11 193 191
3 20 196 194
3 22 197 87
3 22 198 197
3 23 201 199
3 25 202 90
3 25 203 202
3 25 205 203
3 27 206 92
3 27 207 206
3 390 210 391
3 392 391 208
3 390 391 392
3 393 211 394
3 396 395 211
3 29 212 94
3 29 213 212
3 29 215 213
3 398 397 96
3 399 216 400
3 401 218 402
3 403 402 216
3 401 402 403
3 32 404 406
3 404 219 405
3 404 405 406
3 32 220 219
3 33 407 409
3 409 408 221
3 407 408 409
3 34 224 222
3 36 225 99
3 36 226 225
3 37 229 227
3 39 230 102
3 39 231 230
3 39 233 231
3 40 234 104
3 40 410 412
3 412 411 234
3 410 411 412
3 40 413 415
3 413 235 414
3 413 414 415
3 41 416 418
3 418 417 106
3 416 417 418
3 41 419 421
3 419 236 420
3 419 420 421
3 42 239 237
3 422 240 423
3 424 423 109
3 422 423 424
3 426 425 240
3 44 427 428
3 45 429 431
3 431 430 112
3 429 430 431
3 45 432 434
3 432 241 433
3 432 433 434
3 21 242 195
3 46 243 115
3 46 244 243
3 46 245 244
3 47 246 117
3 47 247 246
3 48 250 248
3 50 251 120
3 50 252 251
3 24 253 200
3 51 254 123
3 51 255 254
3 51 256 255
3 52 257 125
3 52 258 257
3 52 260 258
3 54 261 127
3 54 262 261
3 26 263 204
3 55 264 130
3 55 265 264
3 55 266 265
3 56 267 132
3 56 268 267
3 57 271 269
3 59 272 135
3 59 273 272
3 28 274 209
3 60 275 138
3 60 276 275
3 60 277 276
3 61 278 140
3 61 279 278
3 435 280 436
3 62 281 142
3 62 282 281
3 62 283 282
3 63 284 144
3 63 285 284
3 437 286 438
3 64 287 146
3 64 288 287
3 64 289 288
3 65 290 147
3 65 291 290
3 66 292 149
3 66 293 292
3 439 294 440
3 67 295 151
3 67 296 295
3 67 297 296
3 68 298 153
3 68 299 298
3 69 441 443
3 443 442 156
3 441 442 443
3 69 444 446
3 444 300 445
3 444 445 446
3 69 301 300
3 70 302 158
3 70 303 302
3 70 304 303
3 71 305 160
3 71 306 305
3 30 307 214
3 72 308 162
3 72 309 308
3 72 310 309
3 447 311 448
3 73 312 163
3 73 313 312
3 74 314 165
3 74 315 314
3 74 316 315
3 75 317 167
3 75 318 317
3 31 319 217
3 76 320 170
3 76 321 320
3 76 322 321
3 77 323 172
3 77 324 323
3 449 325 450
3 451 326 452
3 453 452 325
3 451 452 453
3 78 454 455
3 78 456 458
3 456 327 457
3 456 457 458
3 78 328 327
3 459 329 460
3 462 461 329
3 58 330 270
3 79 331 175
3 79 332 331
3 35 333 223
3 80 334 178
3 80 335 334
3 80 336 335
3 81 337 180
3 81 338 337
3 49 339 249
3 82 340 183
3 82 341 340
3 38 342 228
3 83 343 186
3 83 344 343
3 83 345 344
3 84 346 188
3 84 347 346
3 84 463 465
3 465 464 347
3 463 464 465
3 467 466 232
3 53 348 259
3 85 349 192
3 85 468 470
3 470 469 349
3 468 469 470
3 43 350 238
3 86 87 20
3 88 87 86
3 88 22 87
3 89 90 23
3 91 90 89
3 91 25 90
3 91 92 25
3 93 92 91
3 93 27 92
3 471 94 472
3 95 473 475
3 473 94 474
3 473 474 475
3 95 29 94
3 95 96 29
3 476 96 477
3 478 477 95
3 476 477 478
3 480 479 96
3 481 32 482
3 97 483 485
3 485 484 33
3 483 484 485
3 487 486 97
3 98 99 34
3 100 99 98
3 100 36 99
3 101 102 37
3 103 102 101
3 103 39 102
3 103 104 39
3 105 104 103
3 105 40 104
3 105 106 40
3 107 106 105
3 107 41 106
3 108 109 42
3 110 109 108
3 110 488 490
3 490 489 109
3 488 489 490
3 110 491 492
3 494 493 110
3 111 112 44
3 113 112 111
3 113 45 112
3 114 115 21
3 116 115 114
3 116 46 115
3 116 117 46
3 118 117 116
3 118 47 117
3 119 120 48
3 121 120 119
3 121 50 120
3 122 123 24
3 124 123 122
3 124 51 123
3 124 125 51
3 126 125 124
3 126 52 125
3 126 127 52
3 128 127 126
3 128 54 127
3 129 130 26
3 131 130 129
3 131 55 130
3 131 132 55
3 133 132 131
3 133 56 132
3 134 135 57
3 136 135 134
3 136 59 135
3 137 138 28
3 139 138 137
3 139 60 138
3 139 140 60
3 141 140 139
3 141 61 140
3 495 142 496
3 143 497 499
3 497 142 498
3 497 498 499
3 143 62 142
3 143 144 62
3 145 144 143
3 145 63 144
3 500 146 501
3 502 146 503
3 504 64 505
3 506 505 146
3 504 505 506
3 507 147 508
3 509 508 64
3 507 508 509
3 148 510 512
3 510 147 511
3 510 511 512
3 148 65 147
3 513 149 514
3 150 515 517
3 515 149 516
3 515 516 517
3 150 66 149
3 518 151 519
3 152 520 522
3 520 151 521
3 520 521 522
3 152 67 151
3 152 153 67
3 154 153 152
3 154 68 153
3 155 523 525
3 523 156 524
3 523 524 525
3 157 156 155
3 157 69 156
3 157 158 69
3 159 158 157
3 159 70 158
3 159 160 70
3 161 160 159
3 161 71 160
3 526 162 527
3 528 527 30
3 526 527 528
3 529 162 530
3 531 72 532
3 533 532 162
3 531 532 533
3 535 534 72
3 536 163 537
3 164 538 540
3 538 163 539
3 538 539 540
3 164 73 163
3 541 165 542
3 166 543 545
3 543 165 544
3 543 544 545
3 166 74 165
3 166 167 74
3 168 167 166
3 168 75 167
3 169 170 31
3 171 170 169
3 171 76 170
3 171 172 76
3 173 172 171
3 173 77 172
3 546 78 547
3 549 548 78
3 174 175 58
3 176 175 174
3 176 79 175
3 177 178 35
3 179 178 177
3 179 80 178
3 179 180 80
3 181 180 179
3 181 81 180
3 182 183 49
3 184 183 182
3 184 82 183
3 185 186 38
3 187 186 185
3 187 83 186
3 187 188 83
3 189 188 187
3 189 84 188
3 189 550 552
3 552 551 84
3 550 551 552
3 190 553 555
3 555 554 189
3 553 554 555
3 190 556 557
3 191 192 53
3 193 192 191
3 193 85 192
3 559 558 43
3 194 195 6
3 196 195 194
3 196 21 195
3 87 196 20
3 197 196 87
3 197 21 196
3 197 114 21
3 198 114 197
3 198 7 114
3 199 200 8
3 201 200 199
3 201 24 200
3 90 201 23
3 202 201 90
3 202 24 201
3 202 122 24
3 203 122 202
3 203 10 122
3 203 204 10
3 205 204 203
3 205 26 204
3 92 205 25
3 206 205 92
3 206 26 205
3 206 129 26
3 207 129 206
3 207 12 129
3 208 209 13
3 210 209 208
3 210 28 209
3 560 210 561
3 211 562 564
3 562 210 563
3 562 563 564
3 211 28 210
3 211 137 28
3 565 137 566
3 567 566 211
3 565 566 567
3 569 568 137
3 94 570 571
3 212 572 574
3 574 573 94
3 572 573 574
3 212 575 576
3 212 577 579
3 577 155 578
3 577 578 579
3 213 155 212
3 213 15 155
3 213 214 15
3 215 214 213
3 215 30 214
3 96 215 29
3 580 215 581
3 582 581 96
3 580 581 582
3 583 30 584
3 585 584 215
3 583 584 585
3 587 586 30
3 216 588 589
3 216 590 592
3 590 16 591
3 590 591 592
3 216 217 16
3 218 217 216
3 218 31 217
3 593 218 594
3 219 595 597
3 595 218 596
3 595 596 597
3 219 31 218
3 219 169 31
3 220 169 219
3 220 17 169
3 221 598 599
3 601 600 221
3 603 602 33
3 222 223 14
3 224 223 222
3 224 35 223
3 99 224 34
3 225 224 99
3 225 35 224
3 225 177 35
3 226 177 225
3 226 18 177
3 227 228 9
3 229 228 227
3 229 38 228
3 102 229 37
3 230 229 102
3 230 38 229
3 230 185 38
3 231 185 230
3 231 19 185
3 231 232 19
3 233 232 231
3 233 604 606
3 606 605 232
3 604 605 606
3 104 233 39
3 234 233 104
3 234 607 609
3 609 608 233
3 607 608 609
3 234 610 611
3 613 612 234
3 235 614 615
3 235 616 617
3 106 235 40
3 618 235 619
3 620 619 106
3 618 619 620
3 622 621 235
3 236 623 624
3 236 625 626
3 237 238 11
3 239 238 237
3 239 43 238
3 109 239 42
3 240 239 109
3 240 43 239
3 240 627 629
3 629 628 43
3 627 628 629
3 631 630 240
3 112 632 634
3 634 633 44
3 632 633 634
3 636 635 112
3 241 637 638
3 241 639 640
3 195 113 6
3 242 113 195
3 242 45 113
3 115 242 21
3 243 242 115
3 243 45 242
3 243 241 45
3 244 241 243
3 244 641 643
3 643 642 241
3 641 642 643
3 244 644 646
3 644 221 645
3 644 645 646
3 245 221 244
3 245 33 221
3 117 245 46
3 246 245 117
3 246 33 245
3 246 97 33
3 247 97 246
3 247 4 97
3 248 249 2
3 250 249 248
3 250 49 249
3 120 250 48
3 251 250 120
3 251 49 250
3 251 182 49
3 252 182 251
3 252 9 182
3 200 121 8
3 253 121 200
3 253 50 121
3 123 253 24
3 254 253 123
3 254 50 253
3 254 252 50
3 255 252 254
3 255 9 252
3 255 227 9
3 256 227 255
3 256 37 227
3 125 256 51
3 257 256 125
3 257 37 256
3 257 101 37
3 258 101 257
3 258 5 101
3 258 259 5
3 260 259 258
3 260 53 259
3 127 260 52
3 261 260 127
3 261 53 260
3 261 191 53
3 262 191 261
3 262 11 191
3 204 128 10
3 263 128 204
3 263 54 128
3 130 263 26
3 264 263 130
3 264 54 263
3 264 262 54
3 265 262 264
3 265 11 262
3 265 237 11
3 266 237 265
3 266 42 237
3 132 266 55
3 267 266 132
3 267 42 266
3 267 108 42
3 268 108 267
3 268 3 108
3 269 270 0
3 271 270 269
3 271 58 270
3 135 271 57
3 272 271 135
3 272 58 271
3 272 174 58
3 273 174 272
3 273 14 174
3 209 136 13
3 274 136 209
3 274 59 136
3 138 274 28
3 275 274 138
3 275 59 274
3 275 273 59
3 276 273 275
3 276 14 273
3 276 222 14
3 277 222 276
3 277 34 222
3 140 277 60
3 278 277 140
3 278 34 277
3 278 98 34
3 279 98 278
3 279 2 98
3 647 141 648
3 280 649 651
3 649 141 650
3 649 650 651
3 280 61 141
3 142 652 654
3 652 280 653
3 652 653 654
3 281 280 142
3 281 61 280
3 281 279 61
3 282 279 281
3 282 2 279
3 282 248 2
3 283 248 282
3 283 48 248
3 144 283 62
3 284 283 144
3 284 48 283
3 284 119 48
3 285 119 284
3 285 8 119
3 655 145 656
3 286 657 659
3 657 145 658
3 657 658 659
3 286 63 145
3 146 660 662
3 660 286 661
3 660 661 662
3 287 286 146
3 287 63 286
3 287 285 63
3 288 285 287
3 288 8 285
3 288 199 8
3 289 199 288
3 289 23 199
3 147 289 64
3 290 289 147
3 290 23 289
3 290 89 23
3 291 89 290
3 291 1 89
3 663 44 664
3 149 665 666
3 292 667 669
3 669 668 149
3 667 668 669
3 292 670 672
3 670 44 671
3 670 671 672
3 292 111 44
3 293 111 292
3 293 6 111
3 673 150 674
3 294 675 677
3 675 150 676
3 675 676 677
3 294 66 150
3 151 678 680
3 678 294 679
3 678 679 680
3 295 294 151
3 295 66 294
3 295 293 66
3 296 293 295
3 296 6 293
3 296 194 6
3 297 194 296
3 297 20 194
3 153 297 67
3 298 297 153
3 298 20 297
3 298 86 20
3 299 86 298
3 299 0 86
3 156 681 682
3 684 683 156
3 300 685 686
3 300 687 688
3 300 689 691
3 689 154 690
3 689 690 691
3 301 154 300
3 301 68 154
3 158 301 69
3 302 301 158
3 302 68 301
3 302 299 68
3 303 299 302
3 303 0 299
3 303 269 0
3 304 269 303
3 304 57 269
3 160 304 70
3 305 304 160
3 305 57 304
3 305 134 57
3 306 134 305
3 306 13 134
3 214 161 15
3 307 161 214
3 307 71 161
3 162 307 30
3 308 307 162
3 308 71 307
3 308 306 71
3 309 306 308
3 309 13 306
3 309 208 13
3 310 208 309
3 310 692 694
3 694 693 208
3 692 693 694
3 695 310 696
3 697 696 72
3 695 696 697
3 698 310 699
3 701 700 310
3 702 148 703
3 311 704 706
3 704 148 705
3 704 705 706
3 311 65 148
3 163 707 709
3 707 311 708
3 707 708 709
3 312 311 163
3 312 65 311
3 312 291 65
3 313 291 312
3 313 1 291
3 710 164 711
3 712 164 713
3 714 73 715
3 716 715 164
3 714 715 716
3 165 717 718
3 314 719 721
3 721 720 165
3 719 720 721
3 314 722 724
3 722 73 723
3 722 723 724
3 314 313 73
3 315 313 314
3 315 1 313
3 315 93 1
3 316 93 315
3 316 27 93
3 167 316 74
3 317 316 167
3 317 27 316
3 317 207 27
3 318 207 317
3 318 12 207
3 217 168 16
3 319 168 217
3 319 75 168
3 170 319 31
3 320 319 170
3 320 75 319
3 320 318 75
3 321 318 320
3 321 12 318
3 321 133 12
3 322 133 321
3 322 56 133
3 172 322 76
3 323 322 172
3 323 56 322
3 323 268 56
3 324 268 323
3 324 3 268
3 725 32 726
3 325 727 728
3 325 729 731
3 729 32 730
3 729 730 731
3 325 220 32
3 326 220 325
3 326 17 220
3 732 326 733
3 327 734 736
3 734 326 735
3 734 735 736
3 327 17 326
3 327 173 17
3 328 173 327
3 328 77 173
3 737 328 738
3 739 738 78
3 737 738 739
3 329 740 742
3 740 328 741
3 740 741 742
3 329 77 328
3 329 324 77
3 743 324 744
3 745 744 329
3 743 744 745
3 746 3 747
3 748 747 324
3 746 747 748
3 750 749 3
3 270 88 0
3 330 88 270
3 330 22 88
3 175 330 58
3 331 330 175
3 331 22 330
3 331 198 22
3 332 198 331
3 332 7 198
3 223 176 14
3 333 176 223
3 333 79 176
3 178 333 35
3 334 333 178
3 334 79 333
3 334 332 79
3 335 332 334
3 335 7 332
3 335 118 7
3 336 118 335
3 336 47 118
3 180 336 80
3 337 336 180
3 337 47 336
3 337 247 47
3 338 247 337
3 338 4 247
3 249 100 2
3 339 100 249
3 339 36 100
3 183 339 49
3 340 339 183
3 340 36 339
3 340 226 36
3 341 226 340
3 341 18 226
3 228 184 9
3 342 184 228
3 342 82 184
3 186 342 38
3 343 342 186
3 343 82 342
3 343 341 82
3 344 341 343
3 344 18 341
3 344 181 18
3 345 181 344
3 345 81 181
3 188 345 83
3 346 345 188
3 346 81 345
3 346 338 81
3 347 338 346
3 347 4 338
3 347 751 753
3 753 752 4
3 751 752 753
3 755 754 347
3 757 756 84
3 232 190 19
3 758 190 759
3 760 759 232
3 758 759 760
3 762 761 190
3 259 107 5
3 348 107 259
3 348 41 107
3 192 348 53
3 349 348 192
3 349 41 348
3 349 236 41
3 763 236 764
3 765 764 349
3 763 764 765
3 767 766 236
3 238 193 11
3 350 193 238
3 350 85 193
3 768 350 769
3 770 769 43
3 768 769 770
3 771 350 772
3 773 85 774
3 775 774 350
3 773 774 775
3 777 776 85
