ply
format ascii 1.0
element vertex 1012
property float x
property float y
property float z
element face 1270
property list uchar int vertex_index
end_header
-20.235434 97.243408 14.974918
2.772925 53.295296 40.94252
-11.768287 53.419815 50.278751
-29.654617 83.020988 19.348715
-23.296074 74.984245 40.224277
-8.547819 77.601624 32.101593
-28.191431 98.320961 -8.323021
-28.181475 67.190765 41.694912
-24.137274 60.443935 50.229977
-4.593953 53.987244 45.228649
-10.292796 66.532463 41.814384
-2.797316 65.352928 37.504208
4.639659 63.473644 33.201981
11.13856 60.794109 27.928234
9.640492 51.981979 36.104591
-26.31517 92.600571 17.423901
-28.983591 92.385872 5.847461
-24.744482 100.748764 3.208625
-18.869564 50.915951 55.215115
8.013113 41.775982 43.099159
-12.165771 96.98317 12.049584
-17.570679 103.996239 0.985038
-8.896947 102.263573 -0.979315
-30.152206 71.033386 31.008354
-27.518299 81.100525 30.533821
-22.015411 87.391258 28.381477
-17.61607 65.154938 46.844757
-16.448349 78.157173 36.446053
-14.729835 88.71244 24.878431
-6.305811 86.78952 21.062933
-22.576712 105.612068 -11.253939
-26.681585 56.775021 50.605042
-24.561554 52.949036 54.198463
-0.995671 53.621956 43.1618
-3.645874 59.935993 41.414646
0.043891 59.379417 39.296467
0.977802 64.63871 35.303284
3.585368 58.496078 37.335484
7.248049 57.525135 34.905457
6.282763 52.775482 38.682827
-23.667976 95.50666 16.427826
-25.563309 97.100342 10.454553
-22.587797 99.792709 9.159239
-10.633781 100.062721 5.46731
-30.297991 64.307915 36.096447
-25.961615 71.790695 41.25528
-27.80814 74.561569 36.433292
-25.599848 78.741791 35.592503
-25.061377 84.866508 29.767
-22.789885 81.341934 34.6259
-15.249997 52.62014 52.779823
-18.125736 58.136578 51.231003
-14.528745 59.451942 48.798306
-9.453336 72.04657 37.310276
-13.404117 72.557343 39.447441
-12.570131 78.171402 34.268032
-15.539662 83.599342 30.855568
-11.745271 83.444313 28.71244
-10.559891 88.034248 22.910446
-7.552029 82.554306 26.657089
11.28931 41.332458 40.54697
-30.522261 77.347656 19.889576
-28.665834 95.588631 -1.127128
-30.087791 90.252747 0.399149
-16.114195 106.123756 -6.081548
-20.218864 105.556961 -5.037243
-18.753176 107.126221 -12.092445
-29.588106 62.100285 41.401508
-28.32865 60.008324 46.232841
-26.30019 64.249832 46.402775
-23.710749 67.853714 45.56765
-8.236716 54.0354 47.612827
-10.992153 59.93396 46.335087
-7.409298 60.105587 43.823128
-6.522352 65.967613 39.64109
-5.583081 71.399277 35.140461
-4.649387 76.607101 30.181841
-1.681242 70.492157 33.056473
7.969782 62.232349 30.847391
10.345449 56.417439 32.306252
-28.290628 88.385963 18.324577
-29.365961 87.95974 12.797784
-27.787085 93.076195 11.759596
-27.211994 97.097832 4.632442
-26.553703 100.285049 -2.684009
-22.14641 48.261322 57.012783
-5.480139 47.849987 48.742054
-1.924144 47.765381 46.568802
1.756518 47.752068 44.39233
5.356935 47.466351 42.240967
4.313901 41.889858 45.554981
-16.418911 97.611443 13.603462
-18.975212 101.100204 7.838598
-14.935163 101.072395 6.671046
-13.343428 103.618004 0.006995
-11.49277 105.328522 -6.764976
-29.930105 77.430077 25.290958
-29.377394 69.702316 36.439724
-29.146587 76.332321 30.960665
-28.76594 82.645599 24.937893
-26.954054 87.103912 24.362591
-24.36664 90.693718 23.159586
-21.170006 92.776619 21.707718
-21.428888 55.820866 53.225109
-20.939266 63.276302 48.893585
-20.464155 70.542465 43.878551
-14.050159 66.28183 44.345787
-17.009792 71.938385 41.805828
-19.964434 76.982536 38.650585
-19.323799 83.008385 32.937229
-18.506203 88.657944 26.643013
-17.487045 93.655273 19.957865
-13.675173 93.40937 18.352169
-9.475116 92.212051 16.873486
8.900389 47.05732 39.706284
12.049823 46.320259 37.007191
-21.498455 103.155251 1.836728
-23.72164 103.60833 -3.925313
-25.819763 102.556076 -9.871043
-25.868837 50.959438 54.410301
0.939901 53.449768 42.046135
-0.363103 56.355904 41.299503
1.328945 56.392353 40.174896
1.814823 59.050095 38.275482
3.173221 55.901985 39.194542
4.986129 55.704956 37.978622
4.620506 53.005905 39.817142
-22.037773 96.605072 15.634501
-23.160952 97.727402 12.869823
-21.508839 98.753998 11.987952
-24.743166 73.482681 40.828194
-25.807167 75.35833 38.453491
-24.5361 76.796822 38.145035
-24.29694 80.104942 35.238102
-23.065184 78.126999 37.567848
-13.552103 52.92437 51.647614
-14.894731 56.20808 50.757542
-13.095005 56.240635 49.687813
-9.051949 75.060852 34.632309
-10.916065 75.137802 35.816017
-10.585129 78.058876 33.086212
-12.050479 80.693756 31.619574
-10.127557 80.639618 30.387253
-9.688969 83.110153 27.640539
-8.094213 80.178925 29.401022
-30.147335 80.105476 19.728046
-30.450527 80.019089 16.851994
-30.018255 82.890335 16.563951
-28.383247 97.200294 -4.716271
-29.271254 94.541412 -3.85189
-29.122097 95.839363 -7.546119
-15.295194 106.829514 -9.582942
-17.462738 106.821983 -9.129094
-16.491907 107.391235 -12.767406
-28.484896 55.910938 48.323505
-25.530048 58.814377 50.44511
-26.498707 60.652107 48.512817
-25.25893 62.500114 48.385906
-25.102806 66.417961 45.898556
-23.909725 64.195724 47.973541
-6.451888 53.997833 46.436001
-7.794909 57.109619 45.730103
-6.044431 57.096241 44.564266
-3.251546 62.785667 39.454231
-4.952628 62.923038 40.511269
-4.710239 65.965141 38.408573
-6.074071 68.867561 37.349598
-4.074984 68.573799 36.176128
-3.595396 71.095634 33.974743
-2.197493 67.973274 35.288067
2.813831 64.114365 34.260818
1.532218 67.017975 33.221889
3.256516 66.541252 32.177532
6.423561 62.848652 32.007828
8.442872 54.737892 35.561707
8.884858 56.978691 33.606014
10.026667 54.071087 34.319233
-27.366564 90.585281 18.04302
-28.034393 90.820053 15.124949
-27.078051 93.029572 14.588721
-25.172318 99.071533 6.727467
-26.478279 97.246078 7.410267
-26.070211 99.01741 4.08745
-26.867069 98.80883 1.07082
-25.630264 100.750397 0.26828
-14.355649 46.1912 55.311798
-7.210299 47.610138 49.9818
-0.610096 44.798622 47.136482
-0.01707 47.741539 45.446941
1.285083 44.978718 45.954868
3.19169 44.839027 44.894741
2.587378 42.009319 46.532074
-14.322277 97.515305 12.667284
-15.70506 99.520065 10.000469
-13.582949 99.087555 9.543359
-9.815529 101.195312 2.428046
-12.07534 102.044968 2.697087
-11.144073 103.065781 -0.52765
-12.507321 104.629211 -3.458325
-10.177107 103.942085 -3.887727
-30.488886 68.100166 30.966827
-30.044832 74.349907 28.191622
-28.966743 64.852249 41.528049
-29.497246 66.017265 38.948128
-28.815687 68.789177 39.005859
-27.665737 77.875107 33.590511
-28.547823 75.454994 33.878208
-28.399479 78.790794 30.888126
-28.912161 79.552109 28.270863
-28.163227 82.127731 27.738882
-27.966297 84.950737 24.69676
-27.214102 84.344292 27.387957
-23.695665 86.30262 29.076244
-24.800077 87.903244 26.410519
-23.294846 89.113266 25.921328
-22.889809 91.870911 22.494766
-21.692793 90.246597 24.990175
-20.539108 49.708588 56.206921
-21.857044 52.162521 55.126434
-20.109102 53.393208 54.312084
-17.841499 61.596313 49.145638
-19.508785 60.849068 50.117191
-19.297243 64.517197 47.813572
-20.659349 66.891327 46.50338
-18.993568 68.01503 45.386768
-10.575524 63.119625 44.181252
-12.441387 63.193832 45.348873
-12.079507 66.101028 43.26437
-14.900427 75.470863 37.961525
-15.224311 72.406708 40.589893
-16.702999 75.210152 39.076805
-18.524864 74.630219 40.255806
-18.288635 77.781883 37.52512
-19.751055 80.272392 35.6675
-17.912783 80.627991 34.81078
-15.097003 86.22863 27.871681
-17.027351 86.192513 28.869354
-16.675968 88.847237 25.730331
-18.124521 91.31414 23.282986
-16.125046 91.195518 22.622313
-15.594622 93.578407 19.236519
-14.199644 91.252739 21.496441
-8.43644 87.476044 21.963139
-10.037007 90.096764 20.04591
-2.545314 75.93869 29.189056
-4.12505 78.844208 27.718306
6.761874 44.509434 42.714851
7.116526 47.248554 41.067535
8.363266 44.504532 41.498569
11.678641 43.82394 38.848984
-29.192106 90.32399 9.150364
-29.676168 89.560593 6.567805
-18.367243 102.693863 4.326438
-20.299438 102.287285 4.939687
-19.559341 103.755791 1.43191
-21.512331 105.723122 -8.086608
-22.036242 104.812248 -4.733977
-23.301147 104.657318 -7.729038
-24.792921 103.325935 -7.138597
-24.30595 104.279129 -10.759935
-27.758364 54.557911 50.413399
-26.911528 52.664066 52.56543
-25.671234 54.946949 52.510784
-24.306122 56.935173 52.185036
-2.771922 54.036572 44.049236
-4.09962 56.99638 43.343479
-2.22358 56.749752 42.273209
-1.826321 59.516697 40.461002
-1.349187 62.263542 38.491196
-0.817108 64.84304 36.464054
0.584199 61.955715 37.343876
2.404748 61.529709 36.296314
4.088666 61.086746 35.288773
5.864047 60.633701 34.092121
5.433973 58.130749 36.117096
6.821411 55.186333 36.79314
8.058584 52.14901 37.539295
-25.086512 94.086479 17.165766
-25.978609 94.895706 14.034029
-24.700102 96.467995 13.438677
-24.16227 98.619514 9.813209
-23.822733 100.360962 6.251238
-11.49296 98.714058 8.642106
-9.330024 97.908043 8.162204
-8.328163 99.162636 4.961709
-30.561512 64.629318 33.467709
-30.255447 67.681755 33.497597
-27.175282 69.635773 41.538788
-27.965183 71.041565 39.141525
-26.950857 73.247452 38.957947
-26.818163 76.527824 36.270924
-26.612913 79.967392 33.261311
-26.371767 83.160797 30.209171
-25.377523 81.795547 32.795319
-23.977732 83.224854 32.285099
-22.372152 84.56517 31.437065
-17.067295 51.852139 54.059898
-18.368988 54.672264 53.164406
-16.631323 55.374012 52.080235
-16.37664 58.775345 50.137188
-16.055504 62.454533 47.852776
-9.879162 69.334015 39.606548
-11.883154 69.384666 40.878864
-11.52317 72.375633 38.420044
-12.988625 75.507721 36.823341
-14.557363 78.311493 35.329044
-16.048288 80.891548 33.754333
-14.113903 81.026894 32.578323
-13.645615 83.516899 29.85779
-13.099634 86.123627 26.784496
-12.722132 88.663422 23.685801
-11.149156 85.929008 25.694098
-8.996323 85.16021 24.988531
-6.962847 84.820869 23.810541
9.20853 38.912663 43.482811
9.620565 41.62191 41.893131
10.87817 38.855186 42.114273
-28.798223 94.19091 2.299888
-29.549059 91.426003 3.078372
-29.440935 93.044365 -0.557809
-30.03511 91.660103 -3.095836
-16.923082 105.190201 -2.602957
-18.853281 105.013947 -2.126257
-18.355494 106.039505 -5.71835
-19.65238 106.4664 -8.773315
-20.825405 106.520271 -11.724869
-29.006102 60.957405 44.035786
-28.240124 63.607868 44.081821
-27.573107 58.551838 48.436993
-27.402557 62.095745 46.501163
-27.298424 65.800766 44.169151
-26.237862 68.006371 43.858063
-24.847868 69.922089 43.533478
-23.463524 71.57486 42.904747
-10.006254 53.573627 49.036484
-11.297684 56.662231 48.321838
-9.562052 56.820423 47.079552
-9.131958 59.90823 45.10136
-8.847326 63.13427 43.010849
-5.468929 59.917549 42.627712
-6.901134 62.945305 41.809464
-8.412909 66.058571 40.865868
-7.947443 68.956055 38.570827
-7.570186 71.859108 36.167286
-7.049263 74.516426 33.693909
-6.531219 77.131332 31.089067
-5.089988 73.981422 32.747696
-3.162588 73.528503 31.724024
-1.2533 73.014755 30.720366
-0.338419 67.566696 34.238331
0.168724 69.937057 32.093739
9.59185 61.50301 29.469809
7.558249 59.827915 33.026428
9.132602 59.296848 31.68132
10.640636 58.76812 30.187794
-29.030336 85.792618 18.947142
-29.51273 85.534668 16.233694
-28.875717 88.21048 15.654643
-28.664255 90.662743 12.148792
-28.441793 92.782196 8.863921
-26.807407 95.279335 10.893865
-27.568054 95.111412 8.155455
-28.192101 94.776459 5.390884
-27.930174 96.635345 1.574315
-27.660912 98.194458 -2.0661
-27.342848 99.606049 -5.737809
-19.043755 47.133724 57.057617
-17.400299 48.172291 55.966549
-15.66796 49.180595 54.661915
-13.864221 49.589928 53.44577
-8.533491 50.833069 49.369755
-6.7265 50.777786 48.188751
-4.995103 50.846535 47.028606
-3.679669 47.639046 47.699631
-3.289096 50.944664 45.905888
-1.401097 50.728672 44.858109
0.378345 50.818493 43.741356
2.277631 50.476902 42.741653
4.059948 50.45644 41.592628
3.619395 47.627762 43.309082
4.971613 44.664822 43.865101
6.219596 41.827263 44.356365
3.913468 39.004585 47.056412
7.510586 39.000839 44.722752
8.754783 36.131393 45.028294
-18.373484 97.788116 13.92769
-19.706621 99.275574 11.402131
-17.652416 99.6082 10.559989
-17.030973 101.31292 7.094512
-16.418213 102.716278 3.870809
-12.86962 100.778778 5.919423
-14.288987 102.496696 3.315806
-15.463747 103.950287 0.459207
-14.780407 105.031548 -2.94998
-13.90711 105.866531 -6.344568
-12.937025 106.465446 -9.790439
-9.120686 104.508347 -7.003357
-10.510173 105.786362 -9.888243
-11.892569 106.761131 -12.921429
-30.253529 77.323967 22.658699
-29.792645 80.25016 22.475266
-30.017426 63.077469 38.794369
-29.916014 66.905106 36.361675
-29.816671 70.296638 33.90057
-28.646626 72.171593 36.640785
-29.220272 73.108398 33.942715
-29.706722 73.688217 31.114573
-29.550526 77.176758 28.080429
-29.407526 80.050323 25.279652
-29.225323 83.141273 21.976236
-28.529142 85.615395 21.711691
-27.695444 87.869141 21.342249
-26.673208 89.971275 20.86282
-26.081665 86.312302 26.92815
-25.763727 89.162468 23.664051
-25.414967 91.644897 20.590456
-23.997705 93.188118 19.877331
-22.474669 94.266647 19.212809
-20.85491 95.085617 18.384274
-23.425442 50.634335 55.722607
-23.088711 54.640274 53.765522
-22.823305 58.439835 51.733299
-19.757664 57.125217 52.274174
-21.236351 59.692127 51.065117
-22.666054 62.202888 49.53442
-22.30706 65.764351 47.293362
-22.105631 69.233093 44.899452
-22.015076 72.912125 42.129246
-12.741884 59.713367 47.587685
-14.217159 62.818645 46.650364
-15.764565 65.856819 45.556953
-13.68336 69.375931 41.989094
-15.525652 69.228111 43.114204
-17.20179 68.389 44.491291
-18.695072 71.300255 42.914913
-20.28619 73.678719 41.439823
-21.637802 76.054886 39.58028
-21.370611 79.309593 36.713875
-21.097889 82.475502 33.692944
-20.662897 85.303596 30.766171
-17.484648 83.526451 31.832615
-18.880552 85.982002 29.746181
-20.351974 88.243042 27.470425
-19.80904 90.905495 24.178394
-19.411938 93.466484 20.711336
-18.961802 95.647209 17.464092
-17.056431 95.749474 16.779432
-14.965516 95.702293 15.867089
-12.820015 95.128838 15.355774
-12.226847 90.821434 20.749146
-11.508295 92.709183 17.791393
-10.740107 94.612251 14.547102
-6.12033 79.655815 28.458403
-5.566209 81.829582 25.87793
-4.916452 83.935883 23.143642
13.277419 63.751167 22.126251
5.78974 49.952286 40.635483
7.554616 49.82338 39.324047
9.30605 49.549759 37.92207
10.037165 44.112137 40.273758
10.529931 46.587906 38.451008
10.876238 49.154583 36.56461
-29.918934 85.23954 13.335111
-30.169155 88.488731 4.002756
-20.869001 100.709381 8.295305
-22.178196 101.534439 5.500395
-23.218731 102.102486 2.566984
-20.901596 104.462822 -1.666122
-22.624973 103.582008 -1.102595
-24.218943 102.284554 -0.269434
-25.269983 102.128258 -3.568093
-26.208048 101.564331 -6.552361
-27.112648 100.584839 -9.323615
-19.981339 107.070564 -15.239723
-23.823429 104.950417 -14.090109
-25.387838 103.392891 -13.572492
-26.758141 101.503143 -12.844742
-28.005812 99.184555 -11.978016
-28.570166 97.615978 -9.783761
-29.035498 96.375179 -9.39531
-28.656764 97.080162 -7.93457
-15.371355 107.30999 -12.796473
-15.89355 107.110375 -11.175174
-14.772999 107.02913 -11.204241
-28.554538 53.806614 49.297903
-28.850908 54.629452 48.097398
4.843554 64.679147 32.142464
4.151982 66.212952 31.63024
3.948087 65.007448 32.689757
5.53161 63.161148 32.604905
5.735505 64.366652 31.545388
4.843554 64.679147 32.142464
10.432662 51.742119 35.380806
10.625749 52.786672 34.488127
9.833579 53.026533 35.211912
0.074138 43.482174 47.326044
-0.827015 43.276871 47.933746
1.021727 43.572222 46.735237
0.337494 44.88867 46.545675
0.074138 43.482174 47.326044
1.672875 42.087522 47.02384
1.936231 43.494018 46.243471
1.021727 43.572222 46.735237
-30.282956 71.182648 29.692158
-30.451296 69.716037 29.671395
-30.320546 69.566776 30.98759
-30.098519 72.691646 29.599988
-30.229269 72.840908 28.283792
-30.282956 71.182648 29.692158
-7.148444 88.206703 20.039825
-8.213758 88.549965 20.489928
-7.371125 87.132782 21.513036
-6.008356 87.757008 19.6444
-7.148444 88.206703 20.039825
-2.289219 77.058643 27.951226
-1.580823 75.636192 28.703131
11.293641 61.856645 26.854102
10.561457 62.271589 27.570805
-27.006464 50.578083 53.479603
-27.394753 51.581796 52.445276
-8.622679 96.753773 9.391196
-9.716331 97.092335 9.83466
-7.26633 98.620632 4.847224
-7.736731 98.043774 6.350334
-7.893918 99.74046 3.349813
-7.26633 98.620632 4.847224
-30.429752 64.468616 34.782078
-30.593856 62.925636 34.560753
-30.462096 62.764934 35.875122
10.672679 37.544243 42.866867
10.04335 38.883925 42.798542
9.837859 37.572981 43.551136
-30.651082 77.195968 18.647765
-30.672052 75.821388 20.123387
-30.611769 79.64225 15.670704
-30.421561 81.118984 15.430336
-29.963168 92.442978 -4.918276
-29.653182 93.100758 -3.473863
-29.58124 93.883633 -5.296303
-30.310099 90.954647 -4.356234
-29.963168 92.442978 -4.918276
-28.667376 60.482865 45.134314
-29.053101 59.097313 45.038557
-28.714375 58.622772 46.137085
1.056202 69.677509 31.591105
0.850471 68.477516 32.657814
1.737948 68.217968 32.155181
0.419102 71.143081 30.928012
1.056202 69.677509 31.591105
8.253277 63.205717 29.779749
7.388975 63.700956 30.36518
8.780816 61.86768 30.1586
9.064311 62.841048 29.090958
8.253277 63.205717 29.779749
11.094303 56.10347 31.546404
11.241896 57.278811 30.487175
10.493043 57.59278 31.247023
-19.277984 45.26527 57.955097
-19.948139 46.557722 57.518622
-16.733415 46.904175 56.234794
-17.58039 46.317582 56.883528
-15.867246 47.408327 55.582477
-16.534129 48.676443 55.314232
-16.733415 46.904175 56.234794
-13.207531 48.124105 53.715407
-14.109935 47.890564 54.378784
-13.453245 46.424741 54.648421
-12.948285 49.833078 52.75606
-13.207531 48.124105 53.715407
-8.73536 49.071997 50.323311
-9.403869 50.621687 50.056158
-2.801907 47.702213 47.134216
-3.017638 46.155695 47.962982
-2.139876 46.218863 47.397568
3.609812 37.670569 47.789142
2.991952 39.029228 47.581648
7.210432 37.681272 45.491575
6.599499 39.076847 45.308803
7.83253 36.24655 45.644346
8.132684 37.566116 44.875523
7.210432 37.681272 45.491575
-7.954767 103.997951 -7.082849
-8.436816 103.729694 -5.58373
-10.009039 105.910713 -11.469255
-9.294484 105.352249 -10.059955
-10.700237 106.398098 -12.985848
-11.201371 106.273747 -11.404836
-10.009039 105.910713 -11.469255
-11.395844 106.808029 -14.597036
-10.700237 106.398098 -12.985848
-30.091817 77.377022 23.974829
-30.290812 75.913635 24.105993
-30.1291 75.96669 25.422123
-29.802766 62.588877 40.097938
-30.050893 61.21558 39.884113
-29.836233 60.726988 41.187683
-22.785926 49.447828 56.367695
-23.577419 48.748236 56.572035
-22.937903 47.561729 57.217123
-9.020452 93.058773 15.312175
-9.652947 94.258873 14.148983
-10.107612 93.412151 15.710294
-4.55375 81.42979 25.484493
-4.845629 80.336895 26.798118
-3.833171 79.937104 26.40468
-4.228872 82.482941 24.117348
-5.241331 82.882733 24.510786
-4.55375 81.42979 25.484493
13.95911 63.313055 21.237785
13.739223 62.434666 22.369297
13.502115 64.672386 20.976877
13.95911 63.313055 21.237785
12.239553 47.47879 36.051437
11.652761 48.895952 35.830147
11.463031 47.737421 36.7859
-20.688786 106.798782 -16.717999
-19.665796 107.168949 -17.020895
-21.025168 106.615711 -15.000092
-20.688786 106.798782 -16.717999
-24.410162 104.418766 -15.631347
-23.554965 105.176747 -15.89059
-25.192366 103.640003 -15.372539
-24.605633 104.171654 -13.831301
-24.410162 104.418766 -15.631347
-27.1965 100.817902 -14.230253
-26.607554 101.792209 -14.712027
-27.820335 99.658608 -13.79689
-27.381977 100.343849 -12.411379
-27.1965 100.817902 -14.230253
-28.395848 98.420257 -13.429049
-27.820335 99.658608 -13.79689
-26.000771 48.912211 55.274732
-26.485118 49.725769 54.402039
-25.377891 49.907677 55.230285
-26.000771 48.912211 55.274732
-24.72425 50.902476 55.124366
-25.215196 51.954237 54.304382
-25.377891 49.907677 55.230285
-30.347176 62.368195 37.192642
-30.462096 62.764934 35.875122
-30.205425 82.554608 15.286314
-30.421561 81.118984 15.430336
-30.234391 81.454712 16.707973
-29.506661 94.532608 -7.143417
-29.58124 93.883633 -5.296303
-29.196675 95.190387 -5.699005
-29.481621 95.000343 -8.941371
-29.506661 94.532608 -7.143417
-29.481621 95.000343 -8.941371
-29.035498 96.375179 -9.39531
-28.792499 56.574079 47.182417
-28.850908 54.629452 48.097398
-28.406773 57.959631 47.278173
-28.714375 58.622772 46.137085
-28.792499 56.574079 47.182417
2.600097 67.979607 31.633002
1.737948 68.217968 32.155181
2.394367 66.779614 32.69971
3.523333 67.672848 31.080483
2.600097 67.979607 31.633002
3.523333 67.672848 31.080483
4.151982 66.212952 31.63024
6.615865 64.009107 30.945399
5.735505 64.366652 31.545388
7.196672 62.540501 31.42761
7.388975 63.700956 30.36518
6.615865 64.009107 30.945399
10.73673 53.930622 33.55704
10.896121 55.103798 32.550549
10.186058 55.244263 33.312742
10.73673 53.930622 33.55704
10.625749 52.786672 34.488127
-14.551687 44.408836 56.211603
-15.21109 45.913629 55.907419
-13.639477 44.731821 55.520569
-14.551687 44.408836 56.211603
-13.453245 46.424741 54.648421
-13.639477 44.731821 55.520569
-7.395491 46.020128 50.818432
-8.073764 47.460532 50.629334
-6.524069 46.073526 50.221464
-7.395491 46.020128 50.818432
-5.658988 46.193451 49.601591
-6.345219 47.730063 49.361927
-6.524069 46.073526 50.221464
-1.482851 44.735483 47.681408
-0.827015 43.276871 47.933746
-1.26712 46.282001 46.852642
-2.139876 46.218863 47.397568
-1.482851 44.735483 47.681408
-30.578232 68.432163 29.604523
-30.613688 66.774822 30.793057
-30.578232 68.432163 29.604523
-30.451296 69.716037 29.671395
-30.186463 74.426605 26.872455
-30.229269 72.840908 28.283792
-29.987468 75.889992 26.74129
-30.1291 75.96669 25.422123
-30.186463 74.426605 26.872455
-9.014042 89.860325 19.531313
-9.236724 88.786404 21.004525
-8.213758 88.549965 20.489928
-8.733097 90.917969 17.945101
-9.756061 91.154407 18.459698
-9.014042 89.860325 19.531313
-8.332687 91.780762 16.489689
-8.733097 90.917969 17.945101
-3.079087 78.511402 27.215851
-3.335182 77.391449 28.453681
-2.289219 77.058643 27.951226
-3.833171 79.937104 26.40468
-3.079087 78.511402 27.215851
12.283248 42.542101 38.90517
11.483975 42.578199 39.697977
12.088582 41.29636 39.754164
12.476233 43.666219 38.058674
12.283248 42.542101 38.90517
12.661824 44.914379 37.137777
11.864232 45.0721 37.928088
12.476233 43.666219 38.058674
12.798437 46.121315 36.227663
12.661824 44.914379 37.137777
-29.477502 88.969105 9.606654
-29.56443 87.78698 11.430364
-29.279033 89.141865 10.974074
-29.719534 88.587407 8.315374
-29.477502 88.969105 9.606654
-29.434137 89.942291 7.859084
-29.941527 88.172466 6.967955
-29.719534 88.587407 8.315374
-30.372085 88.74646 0.945057
-30.384481 89.419789 -0.844994
-27.818171 52.528719 51.369261
-28.191272 53.1301 50.34285
-27.334946 53.610988 51.489414
-27.818171 52.528719 51.369261
-27.394753 51.581796 52.445276
-26.390183 51.811752 53.487865
-27.006464 50.578083 53.479603
-26.485118 49.725769 54.402039
-10.797799 97.495342 10.074611
-11.829365 97.848614 10.345845
-11.134204 96.629898 11.77835
-10.411492 98.31105 8.402155
-10.797799 97.495342 10.074611
-9.716331 97.092335 9.83466
-8.237661 97.416477 7.950582
-8.622679 96.753773 9.391196
-8.829093 98.53534 6.561956
-8.237661 97.416477 7.950582
-7.736731 98.043774 6.350334
-8.637601 100.756798 2.082981
-9.071846 100.178974 3.694878
-7.893918 99.74046 3.349813
-8.178311 101.290928 0.379301
-9.356238 101.729443 0.724365
-8.637601 100.756798 2.082981
-30.68106 63.305378 33.214621
-30.593856 62.925636 34.560753
-30.650001 65.039398 32.043498
-30.68106 63.305378 33.214621
-30.525199 66.364742 32.217268
-30.613688 66.774822 30.793057
-30.650001 65.039398 32.043498
11.817439 60.350139 27.247431
11.650156 59.335417 28.318112
11.543355 37.487114 42.113914
10.672679 37.544243 42.866867
11.718981 38.804377 41.342199
11.543355 37.487114 42.113914
11.924551 40.043013 40.558548
11.08374 40.093822 41.330621
11.718981 38.804377 41.342199
12.088582 41.29636 39.754164
11.924551 40.043013 40.558548
-30.615215 78.531685 17.128974
-30.651082 77.195968 18.647765
-30.486394 78.683372 18.370785
-30.615215 78.531685 17.128974
-30.611769 79.64225 15.670704
-30.35814 90.123467 -2.592486
-30.384481 89.419789 -0.844994
-30.06145 90.956425 -1.348343
-30.35814 90.123467 -2.592486
-30.310099 90.954647 -4.356234
-29.624049 60.257822 42.438413
-29.836233 60.726988 41.187683
-29.333047 59.686382 43.755553
-29.053101 59.097313 45.038557
-29.297104 61.528845 42.718647
-29.624049 60.257822 42.438413
-29.333047 59.686382 43.755553
-28.12163 55.234425 49.368452
-28.554538 53.806614 49.297903
-28.191272 53.1301 50.34285
-0.934817 74.174224 29.468787
-1.580823 75.636192 28.703131
-1.899307 74.476722 29.954711
-0.29191 72.68193 30.241325
-0.542288 71.475906 31.407052
0.419102 71.143081 30.928012
-0.934817 74.174224 29.468787
-0.29191 72.68193 30.241325
9.788101 62.62604 28.341593
9.064311 62.841048 29.090958
10.365205 61.14856 28.699022
10.561457 62.271589 27.570805
9.788101 62.62604 28.341593
11.401194 58.322422 29.447892
11.650156 59.335417 28.318112
10.889598 59.781115 29.058014
11.401194 58.322422 29.447892
11.241896 57.278811 30.487175
11.094303 56.10347 31.546404
10.896121 55.103798 32.550549
-22.374979 46.357498 57.855767
-22.937903 47.561729 57.217123
-21.499467 47.121521 57.496205
-22.374979 46.357498 57.855767
-20.695816 47.845154 57.093274
-21.342759 48.984955 56.609852
-21.499467 47.121521 57.496205
-19.791432 48.421156 56.632269
-20.695816 47.845154 57.093274
-19.948139 46.557722 57.518622
-18.402118 45.798298 57.429062
-19.277984 45.26527 57.955097
-18.222027 47.653008 56.512083
-18.402118 45.798298 57.429062
-17.58039 46.317582 56.883528
-15.011805 47.685897 54.986857
-15.867246 47.408327 55.582477
-15.21109 45.913629 55.907419
-12.792226 51.500299 51.856982
-13.708162 51.257149 52.546692
-12.948285 49.833078 52.75606
-11.900318 51.748022 51.17255
-12.660195 53.172093 50.963183
-12.792226 51.500299 51.856982
-11.021268 51.91506 50.510656
-11.900318 51.748022 51.17255
-10.140251 51.991966 49.889522
-10.88727 53.496721 49.657618
-11.021268 51.91506 50.510656
-9.269872 52.203348 49.203119
-10.140251 51.991966 49.889522
-9.403869 50.621687 50.056158
-7.871895 49.221604 49.675777
-8.73536 49.071997 50.323311
-8.073764 47.460532 50.629334
-4.821241 46.309763 49.017414
-5.658988 46.193451 49.601591
-3.921005 46.204293 48.496202
-3.017638 46.155695 47.962982
-4.579904 47.744517 48.220843
-4.821241 46.309763 49.017414
-3.921005 46.204293 48.496202
2.328907 40.531595 47.319479
1.672875 42.087522 47.02384
3.250423 40.506952 46.794243
2.328907 40.531595 47.319479
2.991952 39.029228 47.581648
4.526041 37.601469 47.26764
3.609812 37.670569 47.789142
4.80094 39.07872 46.475634
4.526041 37.601469 47.26764
5.001157 40.521356 45.724918
4.113684 40.447221 46.305696
4.80094 39.07872 46.475634
5.954004 40.490059 45.12561
5.266749 41.85856 44.955673
5.001157 40.521356 45.724918
6.865091 40.414051 44.539558
5.954004 40.490059 45.12561
6.599499 39.076847 45.308803
9.610985 36.182346 44.323878
9.837859 37.572981 43.551136
8.981656 37.522028 44.255553
8.449644 34.874323 45.755123
7.83253 36.24655 45.644346
9.380299 34.857594 45.049323
8.449644 34.874323 45.755123
9.610985 36.182346 44.323878
9.380299 34.857594 45.049323
-13.593915 106.847095 -11.30799
-14.772999 107.02913 -11.204241
-14.11611 106.64748 -9.68669
-7.651675 101.709892 -1.186297
-8.178311 101.290928 0.379301
-8.324947 102.607307 -2.571709
-7.651675 101.709892 -1.186297
-8.965027 103.446563 -4.025915
-9.537027 103.102829 -2.433521
-8.324947 102.607307 -2.571709
-9.648896 104.225216 -5.445542
-8.965027 103.446563 -4.025915
-8.436816 103.729694 -5.58373
-8.59974 104.713242 -8.617512
-7.954767 103.997951 -7.082849
-9.81543 105.147355 -8.4458
-8.59974 104.713242 -8.617512
-9.294484 105.352249 -10.059955
-13.071687 106.994938 -12.873485
-13.593915 106.847095 -11.30799
-12.414797 106.613289 -11.355934
-12.616691 107.08202 -14.496306
-13.071687 106.994938 -12.873485
-12.616691 107.08202 -14.496306
-11.395844 106.808029 -14.597036
-30.554848 75.931919 21.350724
-30.672052 75.821388 20.123387
-30.420482 75.920074 22.735285
-30.290812 75.913635 24.105993
-30.387895 77.335812 21.274138
-30.554848 75.931919 21.350724
-30.420482 75.920074 22.735285
-30.206894 61.752972 38.541603
-30.050893 61.21558 39.884113
-30.157708 63.692692 37.445408
-30.347176 62.368195 37.192642
-30.206894 61.752972 38.541603
-24.156194 49.745125 55.886438
-23.577419 48.748236 56.572035
-23.993498 51.791685 54.960535
-24.72425 50.902476 55.124366
-24.156194 49.745125 55.886438
-10.421373 95.444439 13.027109
-11.134204 96.629898 11.77835
-11.452939 95.79771 13.298343
-10.421373 95.444439 13.027109
-9.652947 94.258873 14.148983
-9.020452 93.058773 15.312175
-8.332687 91.780762 16.489689
-3.924878 83.506271 22.789037
-4.228872 82.482941 24.117348
-4.589812 84.953412 21.725904
-3.924878 83.506271 22.789037
-5.284492 86.38023 20.68555
-5.611131 85.362702 22.103288
-4.589812 84.953412 21.725904
-6.008356 87.757008 19.6444
-5.284492 86.38023 20.68555
11.293641 61.856645 26.854102
11.817439 60.350139 27.247431
13.064213 62.813135 23.256495
13.739223 62.434666 22.369297
12.589699 64.301899 22.821297
13.064213 62.813135 23.256495
12.791598 65.187336 21.765059
12.589699 64.301899 22.821297
12.791598 65.187336 21.765059
13.502115 64.672386 20.976877
11.050535 50.328421 35.610816
10.432662 51.742119 35.380806
10.258365 50.568281 36.334601
11.050535 50.328421 35.610816
11.652761 48.895952 35.830147
12.239553 47.47879 36.051437
12.798437 46.121315 36.227663
-30.155765 83.72921 13.671894
-30.205425 82.554608 15.286314
-29.968595 84.064937 14.949531
-29.840916 86.42688 11.699027
-29.642447 86.59964 13.066447
-29.56443 87.78698 11.430364
-30.110775 84.913735 12.028943
-29.840916 86.42688 11.699027
-30.155765 83.72921 13.671894
-30.110775 84.913735 12.028943
-30.188021 87.636536 5.68543
-29.941527 88.172466 6.967955
-29.922662 89.024662 5.28528
-30.412768 87.864452 2.74686
-30.128473 89.370739 2.200952
-30.372085 88.74646 0.945057
-30.417632 87.075848 4.395492
-30.412768 87.864452 2.74686
-30.188021 87.636536 5.68543
-30.417632 87.075848 4.395492
-16.020045 107.51651 -14.378597
-15.371355 107.30999 -12.796473
-17.205525 107.461822 -14.183469
-16.020045 107.51651 -14.378597
-18.336159 107.329316 -13.845989
-17.622542 107.258728 -12.429925
-17.205525 107.461822 -14.183469
-18.95024 107.301487 -15.419628
-19.665796 107.168949 -17.020895
-19.367258 107.098393 -13.666084
-18.336159 107.329316 -13.845989
-18.95024 107.301487 -15.419628
-21.447201 106.340564 -13.242665
-20.403372 106.795417 -13.482296
-21.025168 106.615711 -15.000092
-22.322855 105.886463 -13.0072
-21.701059 106.06617 -11.489404
-21.447201 106.340564 -13.242665
-22.946213 105.555638 -14.425285
-23.554965 105.176747 -15.89059
-23.200071 105.281242 -12.672024
-22.322855 105.886463 -13.0072
-22.946213 105.555638 -14.425285
-25.922402 102.737084 -15.075902
-25.192366 103.640003 -15.372539
-26.072989 102.448017 -13.208617
-25.922402 102.737084 -15.075902
-26.607554 101.792209 -14.712027
-28.477356 98.047775 -11.611258
-28.570166 97.615978 -9.783761
-28.098622 98.752758 -10.150519
-28.477356 98.047775 -11.611258
-28.395848 98.420257 -13.429049
3 1 122 120
3 1 124 122
3 1 126 124
3 0 129 127
3 4 132 130
3 4 134 132
3 2 137 135
3 5 140 138
3 5 142 140
3 5 144 142
3 3 147 145
3 6 150 148
3 6 478 480
3 480 479 150
3 478 479 480
3 481 153 482
3 483 482 151
3 481 482 483
3 484 154 485
3 8 157 155
3 8 159 157
3 9 162 160
3 11 165 163
3 11 167 165
3 11 169 167
3 12 172 170
3 12 486 488
3 488 487 172
3 486 487 488
3 12 489 491
3 489 173 490
3 489 490 491
3 14 176 174
3 14 492 494
3 494 493 176
3 492 493 494
3 15 179 177
3 17 182 180
3 17 184 182
3 495 187 496
3 497 189 498
3 499 498 187
3 497 498 499
3 500 191 501
3 502 501 189
3 500 501 502
3 20 194 192
3 22 197 195
3 22 199 197
3 23 503 505
3 505 504 200
3 503 504 505
3 23 506 508
3 506 201 507
3 506 507 508
3 7 204 202
3 24 207 205
3 24 209 207
3 24 211 209
3 25 214 212
3 25 216 214
3 18 219 217
3 26 222 220
3 26 224 222
3 10 227 225
3 27 230 228
3 27 232 230
3 27 234 232
3 28 237 235
3 28 239 237
3 28 241 239
3 29 509 511
3 511 510 242
3 509 510 511
3 29 512 513
3 515 514 244
3 13 516 517
3 19 248 246
3 16 251 250
3 21 254 252
3 30 257 255
3 30 259 257
3 518 261 519
3 32 262 119
3 32 263 262
3 33 266 264
3 35 267 121
3 35 268 267
3 35 270 268
3 37 271 123
3 37 272 271
3 37 274 272
3 39 275 125
3 39 276 275
3 40 279 277
3 42 280 128
3 42 281 280
3 520 283 521
3 522 284 523
3 525 524 284
3 44 526 528
3 526 285 527
3 526 527 528
3 44 286 285
3 45 289 287
3 47 290 131
3 47 291 290
3 47 293 291
3 49 294 133
3 49 295 294
3 50 298 296
3 52 299 136
3 52 300 299
3 53 303 301
3 55 304 139
3 55 305 304
3 55 307 305
3 57 308 141
3 57 309 308
3 57 311 309
3 59 312 143
3 59 313 312
3 529 316 530
3 531 530 314
3 529 530 531
3 61 532 533
3 535 534 146
3 62 319 317
3 536 320 537
3 538 537 149
3 536 537 538
3 540 539 320
3 64 323 321
3 66 324 152
3 66 325 324
3 68 541 543
3 541 326 542
3 541 542 543
3 68 327 326
3 31 328 260
3 69 329 156
3 69 330 329
3 69 331 330
3 70 332 158
3 70 333 332
3 71 336 334
3 73 337 161
3 73 338 337
3 34 339 265
3 74 340 164
3 74 341 340
3 74 342 341
3 75 343 166
3 75 344 343
3 75 346 344
3 77 347 168
3 77 348 347
3 36 349 269
3 544 350 545
3 546 545 171
3 544 545 546
3 548 547 350
3 78 549 550
3 78 551 553
3 551 351 552
3 551 552 553
3 38 352 273
3 79 353 175
3 79 354 353
3 79 554 556
3 556 555 354
3 554 555 556
3 80 357 355
3 82 358 178
3 82 359 358
3 41 360 278
3 83 361 181
3 83 362 361
3 83 363 362
3 84 364 183
3 84 365 364
3 557 366 558
3 559 367 560
3 561 368 562
3 563 562 367
3 561 562 563
3 564 369 565
3 566 565 185
3 564 565 566
3 568 567 369
3 569 370 570
3 86 371 186
3 86 372 371
3 87 571 573
3 571 373 572
3 571 572 573
3 87 374 373
3 87 375 374
3 88 376 188
3 88 377 376
3 88 379 377
3 90 380 190
3 90 381 380
3 574 382 575
3 576 383 577
3 578 384 579
3 580 579 383
3 578 579 580
3 91 387 385
3 93 388 193
3 93 389 388
3 43 390 282
3 94 391 196
3 94 392 391
3 94 393 392
3 95 394 198
3 95 395 394
3 581 396 582
3 583 397 584
3 585 398 586
3 587 586 397
3 585 586 587
3 589 588 398
3 96 590 592
3 590 399 591
3 590 591 592
3 96 400 399
3 67 593 595
3 593 401 594
3 593 594 595
3 97 402 203
3 97 403 402
3 46 404 288
3 98 405 206
3 98 406 405
3 98 407 406
3 99 408 208
3 99 409 408
3 99 410 409
3 100 411 210
3 100 412 411
3 48 413 292
3 101 414 213
3 101 415 414
3 101 416 415
3 102 417 215
3 102 418 417
3 85 596 598
3 596 419 597
3 596 597 598
3 103 420 218
3 103 421 420
3 51 422 297
3 104 423 221
3 104 424 423
3 104 425 424
3 105 426 223
3 105 427 426
3 72 428 335
3 106 429 226
3 106 430 429
3 54 431 302
3 107 432 229
3 107 433 432
3 107 434 433
3 108 435 231
3 108 436 435
3 108 437 436
3 109 438 233
3 109 439 438
3 56 440 306
3 110 441 236
3 110 442 441
3 110 443 442
3 111 444 238
3 111 445 444
3 111 446 445
3 112 447 240
3 112 448 447
3 58 449 310
3 113 450 243
3 113 451 450
3 113 599 601
3 601 600 451
3 599 600 601
3 76 452 345
3 602 453 603
3 604 603 245
3 602 603 604
3 605 454 606
3 607 606 453
3 605 606 607
3 608 455 609
3 611 610 455
3 89 456 378
3 114 457 247
3 114 458 457
3 60 459 315
3 115 460 249
3 115 461 460
3 115 612 614
3 614 613 461
3 612 613 614
3 81 462 356
3 63 463 318
3 92 464 386
3 116 465 253
3 116 466 465
3 65 467 322
3 117 468 256
3 117 469 468
3 117 470 469
3 118 471 258
3 118 472 471
3 615 473 616
3 618 617 473
3 619 474 620
3 621 475 622
3 623 622 474
3 621 622 623
3 624 476 625
3 626 477 627
3 628 627 476
3 626 627 628
3 630 629 477
3 631 119 632
3 633 119 634
3 635 32 636
3 637 636 119
3 635 636 637
3 120 121 33
3 122 121 120
3 122 35 121
3 122 123 35
3 124 123 122
3 124 37 123
3 124 125 37
3 126 125 124
3 126 39 125
3 127 128 40
3 129 128 127
3 129 42 128
3 638 44 639
3 130 131 45
3 132 131 130
3 132 47 131
3 132 133 47
3 134 133 132
3 134 49 133
3 135 136 50
3 137 136 135
3 137 52 136
3 138 139 53
3 140 139 138
3 140 55 139
3 140 141 55
3 142 141 140
3 142 57 141
3 142 143 57
3 144 143 142
3 144 59 143
3 145 146 61
3 147 146 145
3 147 640 642
3 642 641 146
3 640 641 642
3 148 149 62
3 150 149 148
3 150 643 645
3 645 644 149
3 643 644 645
3 150 646 647
3 649 648 150
3 151 152 64
3 153 152 151
3 153 66 152
3 154 650 651
3 154 652 654
3 652 68 653
3 652 653 654
3 155 156 31
3 157 156 155
3 157 69 156
3 157 158 69
3 159 158 157
3 159 70 158
3 160 161 71
3 162 161 160
3 162 73 161
3 163 164 34
3 165 164 163
3 165 74 164
3 165 166 74
3 167 166 165
3 167 75 166
3 167 168 75
3 169 168 167
3 169 77 168
3 170 171 36
3 172 171 170
3 172 655 657
3 657 656 171
3 655 656 657
3 172 658 659
3 661 660 172
3 173 662 663
3 173 664 666
3 664 78 665
3 664 665 666
3 174 175 38
3 176 175 174
3 176 79 175
3 176 667 669
3 669 668 79
3 667 668 669
3 671 670 176
3 177 178 80
3 179 178 177
3 179 82 178
3 180 181 41
3 182 181 180
3 182 83 181
3 182 183 83
3 184 183 182
3 184 84 183
3 672 185 673
3 674 185 675
3 677 676 185
3 678 186 679
3 680 186 681
3 682 86 683
3 684 683 186
3 682 683 684
3 187 685 686
3 187 687 689
3 687 87 688
3 687 688 689
3 187 188 87
3 189 188 187
3 189 88 188
3 189 190 88
3 191 190 189
3 191 90 190
3 192 193 91
3 194 193 192
3 194 93 193
3 195 196 43
3 197 196 195
3 197 94 196
3 197 198 94
3 199 198 197
3 199 95 198
3 200 690 691
3 693 692 200
3 201 694 695
3 201 696 698
3 696 96 697
3 696 697 698
3 202 203 67
3 204 203 202
3 204 97 203
3 205 206 46
3 207 206 205
3 207 98 206
3 207 208 98
3 209 208 207
3 209 99 208
3 209 210 99
3 211 210 209
3 211 100 210
3 212 213 48
3 214 213 212
3 214 101 213
3 214 215 101
3 216 215 214
3 216 102 215
3 217 218 85
3 219 218 217
3 219 103 218
3 220 221 51
3 222 221 220
3 222 104 221
3 222 223 104
3 224 223 222
3 224 105 223
3 225 226 72
3 227 226 225
3 227 106 226
3 228 229 54
3 230 229 228
3 230 107 229
3 230 231 107
3 232 231 230
3 232 108 231
3 232 233 108
3 234 233 232
3 234 109 233
3 235 236 56
3 237 236 235
3 237 110 236
3 237 238 110
3 239 238 237
3 239 111 238
3 239 240 111
3 241 240 239
3 241 112 240
3 242 243 58
3 699 243 700
3 701 700 242
3 699 700 701
3 702 113 703
3 704 703 243
3 702 703 704
3 706 705 113
3 244 245 76
3 707 245 708
3 709 708 244
3 707 708 709
3 711 710 245
3 246 247 89
3 248 247 246
3 248 114 247
3 712 249 713
3 714 713 60
3 712 713 714
3 715 249 716
3 717 115 718
3 719 718 249
3 717 718 719
3 721 720 115
3 250 722 724
3 724 723 81
3 722 723 724
3 251 725 727
3 727 726 250
3 725 726 727
3 251 728 729
3 731 730 63
3 252 253 92
3 254 253 252
3 254 116 253
3 255 256 65
3 257 256 255
3 257 117 256
3 257 258 117
3 259 258 257
3 259 118 258
3 732 260 733
3 261 734 736
3 734 260 735
3 734 735 736
3 261 31 260
3 119 737 739
3 737 261 738
3 737 738 739
3 262 261 119
3 262 31 261
3 262 155 31
3 263 155 262
3 263 8 155
3 264 265 9
3 266 265 264
3 266 34 265
3 121 266 33
3 267 266 121
3 267 34 266
3 267 163 34
3 268 163 267
3 268 11 163
3 268 269 11
3 270 269 268
3 270 36 269
3 123 270 35
3 271 270 123
3 271 36 270
3 271 170 36
3 272 170 271
3 272 12 170
3 272 273 12
3 274 273 272
3 274 38 273
3 125 274 37
3 275 274 125
3 275 38 274
3 275 174 38
3 276 174 275
3 276 14 174
3 277 278 15
3 279 278 277
3 279 41 278
3 128 279 40
3 280 279 128
3 280 41 279
3 280 180 41
3 281 180 280
3 281 17 180
3 740 282 741
3 742 741 20
3 740 741 742
3 283 743 745
3 743 282 744
3 743 744 745
3 283 43 282
3 746 283 747
3 284 748 750
3 748 283 749
3 748 749 750
3 284 43 283
3 284 195 43
3 751 195 752
3 753 752 284
3 751 752 753
3 754 22 755
3 756 755 195
3 754 755 756
3 285 757 758
3 285 759 760
3 285 761 763
3 761 200 762
3 761 762 763
3 286 200 285
3 286 23 200
3 287 288 7
3 289 288 287
3 289 46 288
3 131 289 45
3 290 289 131
3 290 46 289
3 290 205 46
3 291 205 290
3 291 24 205
3 291 292 24
3 293 292 291
3 293 48 292
3 133 293 47
3 294 293 133
3 294 48 293
3 294 212 48
3 295 212 294
3 295 25 212
3 296 297 18
3 298 297 296
3 298 51 297
3 136 298 50
3 299 298 136
3 299 51 298
3 299 220 51
3 300 220 299
3 300 26 220
3 301 302 10
3 303 302 301
3 303 54 302
3 139 303 53
3 304 303 139
3 304 54 303
3 304 228 54
3 305 228 304
3 305 27 228
3 305 306 27
3 307 306 305
3 307 56 306
3 141 307 55
3 308 307 141
3 308 56 307
3 308 235 56
3 309 235 308
3 309 28 235
3 309 310 28
3 311 310 309
3 311 58 310
3 143 311 57
3 312 311 143
3 312 58 311
3 312 242 58
3 313 242 312
3 313 29 242
3 765 764 13
3 314 315 19
3 316 315 314
3 316 60 315
3 766 316 767
3 768 316 769
3 770 60 771
3 772 771 316
3 770 771 772
3 774 773 60
3 146 775 777
3 777 776 61
3 775 776 777
3 779 778 146
3 317 318 16
3 319 318 317
3 319 63 318
3 149 319 62
3 320 319 149
3 320 63 319
3 320 780 782
3 782 781 63
3 780 781 782
3 784 783 320
3 321 322 21
3 323 322 321
3 323 65 322
3 152 323 64
3 324 323 152
3 324 65 323
3 324 255 65
3 325 255 324
3 325 30 255
3 785 67 786
3 326 787 788
3 326 789 791
3 789 67 790
3 789 790 791
3 326 202 67
3 327 202 326
3 327 7 202
3 260 792 794
3 792 154 793
3 792 793 794
3 328 154 260
3 328 68 154
3 156 328 31
3 329 328 156
3 329 68 328
3 329 327 68
3 330 327 329
3 330 7 327
3 330 287 7
3 331 287 330
3 331 45 287
3 158 331 69
3 332 331 158
3 332 45 331
3 332 130 45
3 333 130 332
3 333 4 130
3 334 335 2
3 336 335 334
3 336 72 335
3 161 336 71
3 337 336 161
3 337 72 336
3 337 225 72
3 338 225 337
3 338 10 225
3 265 162 9
3 339 162 265
3 339 73 162
3 164 339 34
3 340 339 164
3 340 73 339
3 340 338 73
3 341 338 340
3 341 10 338
3 341 301 10
3 342 301 341
3 342 53 301
3 166 342 74
3 343 342 166
3 343 53 342
3 343 138 53
3 344 138 343
3 344 5 138
3 344 345 5
3 346 345 344
3 346 76 345
3 168 346 75
3 347 346 168
3 347 76 346
3 347 244 76
3 348 244 347
3 348 795 797
3 797 796 244
3 795 796 797
3 269 169 11
3 349 169 269
3 349 77 169
3 171 349 36
3 350 349 171
3 350 77 349
3 350 348 77
3 798 348 799
3 800 799 350
3 798 799 800
3 802 801 348
3 351 803 804
3 351 805 807
3 805 13 806
3 805 806 807
3 273 173 12
3 352 173 273
3 352 78 173
3 175 352 38
3 353 352 175
3 353 78 352
3 353 351 78
3 354 351 353
3 354 13 351
3 354 808 810
3 810 809 13
3 808 809 810
3 812 811 354
3 814 813 79
3 355 356 3
3 357 356 355
3 357 81 356
3 178 357 80
3 358 357 178
3 358 81 357
3 358 250 81
3 359 250 358
3 359 16 250
3 278 179 15
3 360 179 278
3 360 82 179
3 181 360 41
3 361 360 181
3 361 82 360
3 361 359 82
3 362 359 361
3 362 16 359
3 362 317 16
3 363 317 362
3 363 62 317
3 183 363 83
3 364 363 183
3 364 62 363
3 364 148 62
3 365 148 364
3 365 6 148
3 815 85 816
3 817 85 818
3 819 217 820
3 821 820 85
3 819 820 821
3 366 822 824
3 822 217 823
3 822 823 824
3 366 18 217
3 825 366 826
3 367 827 829
3 827 366 828
3 827 828 829
3 367 18 366
3 367 296 18
3 368 296 367
3 368 50 296
3 185 830 832
3 830 368 831
3 830 831 832
3 369 368 185
3 369 50 368
3 369 135 50
3 833 135 834
3 835 834 369
3 833 834 835
3 836 2 837
3 838 837 135
3 836 837 838
3 839 2 840
3 841 334 842
3 843 842 2
3 841 842 843
3 370 844 846
3 844 334 845
3 844 845 846
3 370 71 334
3 186 847 849
3 847 370 848
3 847 848 849
3 371 370 186
3 371 71 370
3 371 160 71
3 372 160 371
3 372 9 160
3 850 86 851
3 373 852 853
3 373 854 856
3 854 86 855
3 854 855 856
3 373 372 86
3 374 372 373
3 374 9 372
3 374 264 9
3 375 264 374
3 375 33 264
3 188 375 87
3 376 375 188
3 376 33 375
3 376 120 33
3 377 120 376
3 377 1 120
3 377 378 1
3 379 378 377
3 379 89 378
3 190 379 88
3 380 379 190
3 380 89 379
3 380 246 89
3 381 246 380
3 381 19 246
3 857 191 858
3 382 859 861
3 859 191 860
3 859 860 861
3 382 90 191
3 862 382 863
3 864 382 865
3 866 90 867
3 868 867 382
3 866 867 868
3 869 381 870
3 871 870 90
3 869 870 871
3 383 872 874
3 872 381 873
3 872 873 874
3 383 19 381
3 383 314 19
3 384 314 383
3 384 875 877
3 877 876 314
3 875 876 877
3 878 384 879
3 880 384 881
3 883 882 384
3 385 386 0
3 387 386 385
3 387 92 386
3 193 387 91
3 388 387 193
3 388 92 387
3 388 252 92
3 389 252 388
3 389 21 252
3 282 194 20
3 390 194 282
3 390 93 194
3 196 390 43
3 391 390 196
3 391 93 390
3 391 389 93
3 392 389 391
3 392 21 389
3 392 321 21
3 393 321 392
3 393 64 321
3 198 393 94
3 394 393 198
3 394 64 393
3 394 151 64
3 395 151 394
3 395 884 886
3 886 885 151
3 884 885 886
3 887 22 888
3 889 22 890
3 891 199 892
3 893 892 22
3 891 892 893
3 396 894 896
3 894 199 895
3 894 895 896
3 396 95 199
3 897 396 898
3 397 899 901
3 899 396 900
3 899 900 901
3 397 95 396
3 397 395 95
3 398 395 397
3 398 902 904
3 904 903 395
3 902 903 904
3 398 905 906
3 908 907 398
3 909 61 910
3 399 911 912
3 399 913 915
3 913 61 914
3 913 914 915
3 399 145 61
3 400 145 399
3 400 3 145
3 401 916 917
3 401 918 920
3 918 44 919
3 918 919 920
3 203 401 67
3 402 401 203
3 402 44 401
3 402 286 44
3 403 286 402
3 403 23 286
3 288 204 7
3 404 204 288
3 404 97 204
3 206 404 46
3 405 404 206
3 405 97 404
3 405 403 97
3 406 403 405
3 406 23 403
3 406 201 23
3 407 201 406
3 407 96 201
3 208 407 98
3 408 407 208
3 408 96 407
3 408 400 96
3 409 400 408
3 409 3 400
3 409 355 3
3 410 355 409
3 410 80 355
3 210 410 99
3 411 410 210
3 411 80 410
3 411 177 80
3 412 177 411
3 412 15 177
3 292 211 24
3 413 211 292
3 413 100 211
3 213 413 48
3 414 413 213
3 414 100 413
3 414 412 100
3 415 412 414
3 415 15 412
3 415 277 15
3 416 277 415
3 416 40 277
3 215 416 101
3 417 416 215
3 417 40 416
3 417 127 40
3 418 127 417
3 418 0 127
3 419 921 922
3 419 923 925
3 923 32 924
3 923 924 925
3 218 419 85
3 420 419 218
3 420 32 419
3 420 263 32
3 421 263 420
3 421 8 263
3 297 219 18
3 422 219 297
3 422 103 219
3 221 422 51
3 423 422 221
3 423 103 422
3 423 421 103
3 424 421 423
3 424 8 421
3 424 159 8
3 425 159 424
3 425 70 159
3 223 425 104
3 426 425 223
3 426 70 425
3 426 333 70
3 427 333 426
3 427 4 333
3 335 137 2
3 428 137 335
3 428 52 137
3 226 428 72
3 429 428 226
3 429 52 428
3 429 300 52
3 430 300 429
3 430 26 300
3 302 227 10
3 431 227 302
3 431 106 227
3 229 431 54
3 432 431 229
3 432 106 431
3 432 430 106
3 433 430 432
3 433 26 430
3 433 224 26
3 434 224 433
3 434 105 224
3 231 434 107
3 435 434 231
3 435 105 434
3 435 427 105
3 436 427 435
3 436 4 427
3 436 134 4
3 437 134 436
3 437 49 134
3 233 437 108
3 438 437 233
3 438 49 437
3 438 295 49
3 439 295 438
3 439 25 295
3 306 234 27
3 440 234 306
3 440 109 234
3 236 440 56
3 441 440 236
3 441 109 440
3 441 439 109
3 442 439 441
3 442 25 439
3 442 216 25
3 443 216 442
3 443 102 216
3 238 443 110
3 444 443 238
3 444 102 443
3 444 418 102
3 445 418 444
3 445 0 418
3 445 385 0
3 446 385 445
3 446 91 385
3 240 446 111
3 447 446 240
3 447 91 446
3 447 192 91
3 448 192 447
3 448 20 192
3 310 241 28
3 449 241 310
3 449 112 241
3 243 449 58
3 450 449 243
3 450 112 449
3 450 448 112
3 451 448 450
3 451 20 448
3 451 926 928
3 928 927 20
3 926 927 928
3 930 929 451
3 932 931 113
3 345 144 5
3 452 144 345
3 452 59 144
3 245 452 76
3 453 452 245
3 453 59 452
3 453 313 59
3 454 313 453
3 454 29 313
3 933 454 934
3 935 454 936
3 937 29 938
3 939 938 454
3 937 938 939
3 941 940 29
3 943 942 13
3 455 944 945
3 455 946 947
3 455 948 949
3 951 950 455
3 378 126 1
3 456 126 378
3 456 39 126
3 247 456 89
3 457 456 247
3 457 39 456
3 457 276 39
3 458 276 457
3 458 14 276
3 315 248 19
3 459 248 315
3 459 114 248
3 249 459 60
3 460 459 249
3 460 114 459
3 460 458 114
3 461 458 460
3 461 14 458
3 461 952 954
3 954 953 14
3 952 953 954
3 956 955 461
3 958 957 115
3 356 147 3
3 462 147 356
3 462 959 961
3 961 960 147
3 959 960 961
3 962 462 963
3 964 963 81
3 962 963 964
3 965 462 966
3 968 967 462
3 318 251 16
3 463 251 318
3 463 969 971
3 971 970 251
3 969 970 971
3 972 463 973
3 974 973 63
3 972 973 974
3 975 463 976
3 978 977 463
3 386 129 0
3 464 129 386
3 464 42 129
3 253 464 92
3 465 464 253
3 465 42 464
3 465 281 42
3 466 281 465
3 466 17 281
3 322 254 21
3 467 254 322
3 467 116 254
3 256 467 65
3 468 467 256
3 468 116 467
3 468 466 116
3 469 466 468
3 469 17 466
3 469 184 17
3 470 184 469
3 470 84 184
3 258 470 117
3 471 470 258
3 471 84 470
3 471 365 84
3 472 365 471
3 472 6 365
3 979 153 980
3 981 153 982
3 983 66 984
3 985 984 153
3 983 984 985
3 473 986 987
3 473 988 990
3 988 66 989
3 988 989 990
3 473 325 66
3 991 325 992
3 993 992 473
3 991 992 993
3 994 30 995
3 996 995 325
3 994 995 996
3 474 997 998
3 474 999 1001
3 999 30 1000
3 999 1000 1001
3 474 259 30
3 475 259 474
3 475 118 259
3 1002 475 1003
3 476 1004 1006
3 1004 475 1005
3 1004 1005 1006
3 476 118 475
3 476 472 118
3 477 472 476
3 477 6 472
3 477 1007 1009
3 1009 1008 6
3 1007 1008 1009
3 1011 1010 477
