ply
format ascii 1.0
element vertex 559
property float x
property float y
property float z
element face 645
property list uchar int vertex_index
end_header
-27.354795 19.371479 30.305189
-25.656282 2.004882 38.759708
-39.500278 7.73863 5.445869
-35.11507 24.750526 11.964375
-36.950645 7.442912 22.150604
-38.160152 17.155731 0.390924
-31.695795 22.519112 21.35211
-27.077841 10.260905 34.352482
-31.463057 5.207117 30.751188
-32.443512 13.727259 25.753315
-37.022942 15.994127 16.656055
-22.534742 15.368912 38.482899
-21.563957 6.250315 42.286362
-35.30928 -0.987391 27.601145
-39.595013 -0.412017 19.403166
-40.260761 8.031934 13.436931
-39.273666 17.051561 7.945505
-29.615925 21.017859 25.903303
-27.533676 14.69838 32.098919
-29.86791 12.04845 30.073067
-29.934385 16.585411 27.892733
-32.247177 18.119759 23.528206
-22.140652 10.542712 40.37056
-34.360027 6.391604 26.527996
-33.544388 2.37894 29.041145
-36.324959 3.186116 24.871439
-37.792313 -0.420272 23.536222
-38.564373 3.653596 20.721638
-40.059856 3.765294 16.559357
-39.069538 7.928655 17.637556
-36.291824 20.258337 14.322376
-38.563087 16.538015 12.167053
-37.573227 20.98493 9.755327
-38.245049 21.330654 5.330906
-38.901203 12.48189 2.674172
-37.531322 7.520549 2.173289
-33.536545 23.87479 16.637783
-26.572418 6.22714 36.362522
-28.584064 3.661356 34.775482
-29.40975 7.919651 32.303429
-32.117416 9.519486 28.209078
-34.899437 10.576906 23.834059
-37.21637 11.622112 19.406425
-34.802116 14.974083 21.455824
-34.433891 19.35173 18.95965
-25.016638 17.375242 34.5126
-20.702673 2.173226 44.46603
-23.677544 4.321242 40.404427
-24.396023 8.44252 38.268478
-24.811153 12.837252 36.355034
-30.669878 1.110159 33.004108
-40.559887 3.487138 12.282909
-40.448719 7.925953 9.293069
-39.003777 12.218996 14.961895
-40.010681 12.427443 10.568467
-39.992809 12.504619 6.410278
-39.202812 17.072088 3.814914
-28.473806 20.285997 28.13121
-28.200516 22.737516 27.142439
-27.521336 17.01856 31.147547
-28.71196 15.854358 29.986496
-28.665688 18.06249 29.008204
-29.86351 18.805534 26.818344
-39.716896 5.294865 6.966039
-35.741772 6.907486 24.318581
-35.33334 4.860558 25.747387
-36.685547 5.393034 23.476173
-37.475151 3.524188 22.86363
-37.861019 5.579551 21.356747
-38.836124 5.846169 19.230194
-38.052956 7.688344 20.015047
-35.699425 22.558168 13.199208
-36.996037 20.73284 11.958625
-36.356812 23.015934 10.820831
-36.984333 23.141232 8.501763
-38.527824 14.794084 1.43483
-38.011017 12.46099 1.098098
-37.658947 14.89941 -0.074221
-32.634159 23.30471 18.969339
-26.844013 8.157309 35.380726
-27.982792 7.063594 34.368069
-28.166548 9.157743 33.390373
-31.193005 12.934252 27.895952
-31.016569 10.820271 29.088318
-32.452324 11.539155 26.835804
-33.507305 10.005276 26.114376
-33.71283 12.192002 24.733578
-35.003468 12.733096 22.495535
-33.688591 14.406609 23.548388
-32.068302 20.404274 22.292027
-33.3578 18.71953 21.32015
-33.136375 21.017075 19.974195
-34.036118 21.637335 17.769188
-23.791945 16.240606 36.569855
-23.830181 18.774618 35.644981
-22.664261 17.719925 37.583069
-20.125492 5.117217 44.244694
-21.175974 4.242414 43.324394
-22.175762 3.159391 42.499813
-22.574165 5.137431 41.448097
-23.98086 6.330701 39.426559
-22.971985 7.363726 40.308651
-22.43718 12.890892 39.336987
-23.556242 11.621928 38.322891
-23.700825 13.95233 37.424091
-25.092682 15.119 35.219749
-30.012764 4.606352 32.741772
-29.656277 2.487712 33.840786
-31.127628 3.257195 31.819195
-34.453754 0.779248 28.307436
-33.032337 0.256819 30.306257
-33.831886 -1.443014 29.697317
-34.691231 -3.071093 28.922657
-36.044888 -2.792028 26.971754
-38.833656 -0.404788 21.410622
-40.127403 -0.529962 17.354288
-40.226139 5.792852 14.957247
-40.459686 3.694628 14.41656
-40.533714 5.728069 12.798567
-40.541267 5.676572 10.704239
-40.501453 7.933075 11.312746
-37.183651 13.793988 18.015362
-38.166176 12.021818 17.209122
-38.072121 14.130337 15.83709
-39.015335 16.793406 10.054741
-39.407936 14.44904 11.401735
-39.721317 14.647369 9.195253
-40.138943 12.459561 8.403798
-39.780235 14.897417 7.036937
-39.625252 14.904774 5.041076
-39.358482 17.111519 5.803013
-30.608212 22.001535 23.618513
-27.333876 12.482167 33.216343
-28.483053 11.223175 32.20837
-28.720591 13.467319 31.00136
-29.968801 14.380502 28.904816
-31.191387 15.093775 26.836111
-32.376213 15.825304 24.706522
-31.126913 17.329247 25.727177
-30.978539 19.750612 24.513245
-21.245594 14.161083 40.44323
-19.136374 6.252377 45.0079
-21.145021 11.737624 41.229176
-32.919556 5.864341 28.660963
-32.556183 3.890173 29.830557
-33.992039 4.388854 27.78503
-35.04044 2.822871 26.880163
-35.855896 1.098556 26.244526
-36.642025 -0.636074 25.541149
-37.140583 1.450323 24.134541
-38.232361 1.669638 22.085072
-39.220974 1.63455 19.892757
-39.907169 1.550563 17.850325
-39.4422 3.815907 18.555605
-39.630329 5.893623 17.137054
-39.786152 7.918552 15.558431
-36.728836 18.124916 15.43076
-37.887241 16.205294 14.466961
-37.523308 18.409151 13.191963
-38.10984 18.807249 10.922084
-38.570965 18.997858 8.695462
-38.815605 19.189348 6.516719
-38.051048 21.039953 7.553891
-39.238781 10.217085 4.024858
-38.616364 7.611697 3.719054
-38.345833 10.064389 2.385626
-34.454178 24.247566 14.223005
-26.175886 4.152781 37.507023
-27.156082 3.018948 36.683731
-27.563742 4.951307 35.59177
-28.940929 5.816559 33.634178
-30.434164 6.643051 31.50738
-29.592663 9.924873 31.301065
-30.82773 8.646976 30.242521
-31.917423 7.327981 29.381264
-33.325916 7.919718 27.299414
-34.651749 8.489231 25.214701
-35.981308 9.071789 22.943132
-37.192055 9.434239 20.727543
-36.174667 11.155932 21.51952
-36.095161 13.349141 20.328325
-36.015778 15.415788 19.070599
-33.551029 16.580141 22.442768
-34.68103 17.125437 20.208319
-35.770233 17.683729 17.800982
-35.382935 19.939631 16.625891
-34.899094 22.133488 15.521119
-26.245367 18.281506 32.423199
-26.142828 20.874073 31.416809
-25.072014 19.744267 33.50782
-24.173019 1.025972 40.777699
-21.711861 1.136384 43.612709
-23.209318 2.153458 41.593987
-24.689402 3.246147 39.542625
-25.137314 5.264826 38.389256
-25.441988 7.193483 37.404289
-25.755404 9.327297 36.320053
-23.24588 9.552616 39.324818
-24.668123 10.538129 37.273495
-25.969995 11.529703 35.310841
-26.177513 13.720789 34.275909
-26.336752 16.001781 33.215839
-28.118328 1.682735 35.913975
-32.068516 1.82036 31.088835
-37.221226 -2.566384 25.070557
-40.344227 1.594564 15.761678
-40.273651 5.53391 8.800261
-40.106907 7.939588 7.254344
-38.195873 9.755908 18.600288
-39.044731 10.119216 16.379541
-39.722984 10.139318 14.286559
-38.818932 14.398826 13.597724
-39.598557 12.392291 12.831399
-40.167145 10.288179 12.067199
-40.364754 10.222721 10.014892
-40.285824 10.174545 7.977438
-39.891243 10.089865 5.914655
-39.60236 12.458812 4.554694
-39.216599 14.676932 3.179051
-38.806625 17.07897 2.045204
-38.865681 19.248068 4.476575
-38.697453 19.263426 2.630021
-27.297223 20.55959 29.787785
-27.856728 21.016848 28.700795
-27.9143 19.828738 29.218199
-39.209433 6.57935 5.285533
-39.317741 5.357468 6.045618
-39.608587 6.516747 6.205954
-34.789095 25.808625 11.384085
-35.428509 24.895246 10.853975
-26.133951 1.397155 38.352508
-25.407155 0.936348 39.330269
-35.428509 24.895246 10.853975
-36.04938 24.027951 10.282203
-35.735941 23.88323 11.392603
-31.442854 23.744179 20.789969
-31.912036 24.136978 19.598583
-32.164977 22.911911 20.160725
-39.413199 -1.500087 20.15753
-39.03252 -1.496472 21.161258
-39.214334 -0.408403 20.406894
-39.728556 -1.495262 19.122949
-39.413199 -1.500087 20.15753
-39.861208 -0.47099 18.378727
-39.994751 -1.554234 18.09851
-39.728556 -1.495262 19.122949
-29.456938 22.246521 25.356445
-29.953082 22.738359 24.21405
-30.112068 21.509697 24.760908
-28.029556 23.960107 26.635663
-27.540849 23.528813 27.76235
-20.636951 14.768843 41.013027
-20.594702 13.53727 41.38929
-19.309199 7.36654 44.512844
-18.551133 6.784241 45.491878
-19.824038 6.774974 44.096752
-19.309199 7.36654 44.512844
-20.544415 12.32554 41.782263
-20.444958 11.197148 42.189036
-20.594702 13.53727 41.38929
-21.195307 12.949354 40.836203
-20.544415 12.32554 41.782263
-37.189062 23.216511 7.404875
-36.651041 24.162017 7.978257
-37.614468 11.208755 0.991753
-37.439848 12.46414 0.370327
-33.258206 24.971195 16.06619
-33.717022 25.157583 14.858802
-33.995362 24.061178 15.430394
-23.137428 20.720351 35.882936
-23.780942 20.028644 35.239822
-23.186667 19.466324 36.288095
-23.43034 0.517903 41.779013
-23.924316 -0.001664 41.320801
-19.984092 1.647422 45.410692
-20.215908 2.654898 44.864948
-20.470674 1.153678 45.010151
-19.984092 1.647422 45.410692
-21.207267 1.654805 44.03937
-20.975268 0.635257 44.58349
-20.470674 1.153678 45.010151
-22.693266 10.047664 39.847689
-22.575883 9.000478 40.286774
-22.023269 9.495525 40.809645
-37.683725 6.238522 2.886478
-38.226246 6.284096 3.659361
-38.073843 7.566123 2.946172
-26.032709 22.073504 30.990499
-25.49038 21.557256 32.096851
-29.882607 0.714029 34.052354
-29.375807 1.402806 34.470693
-30.163077 1.798936 33.422447
-30.334546 0.052117 33.664782
-29.882607 0.714029 34.052354
-32.250331 -0.065831 31.359077
-32.708513 -0.791511 30.957757
-40.533222 2.431017 13.052764
-40.483121 2.534762 14.11959
-40.509787 3.590883 13.349735
-40.467274 2.246841 12.038168
-40.533222 2.431017 13.052764
-40.454317 3.352141 11.281621
-40.467274 2.246841 12.038168
-38.409075 20.320043 2.056575
-38.494025 20.321381 2.974946
-38.504807 19.271822 1.776644
-38.409075 20.320043 2.056575
-27.720084 22.242608 28.206409
-28.337161 21.511756 27.636824
-27.856728 21.016848 28.700795
-27.540849 23.528813 27.76235
-27.720084 22.242608 28.206409
-39.403185 4.078015 6.770684
-39.778738 4.181601 7.644429
-39.403185 4.078015 6.770684
-39.317741 5.357468 6.045618
-36.36314 24.090599 9.122669
-36.670572 23.078583 9.661297
-36.04938 24.027951 10.282203
-36.651041 24.162017 7.978257
-36.36314 24.090599 9.122669
-37.263813 13.68335 -0.215833
-37.439848 12.46414 0.370327
-37.834982 13.6802 0.511938
-32.348926 24.436006 18.461944
-32.800119 24.721046 17.296166
-33.085352 23.58975 17.803561
-32.348926 24.436006 18.461944
-31.912036 24.136978 19.598583
-22.603707 18.938978 37.25714
-23.186667 19.466324 36.288095
-23.247221 18.247272 36.614025
-19.927318 4.126894 44.75428
-19.394313 4.640211 45.178282
-20.452559 3.689493 44.29413
-19.927318 4.126894 44.75428
-20.650733 4.679816 43.784544
-20.939324 3.20782 43.895212
-20.215908 2.654898 44.864948
-20.452559 3.689493 44.29413
-37.039299 6.298409 2.08905
-36.838648 7.541964 1.403759
-33.108288 -1.641428 30.653287
-32.708513 -0.791511 30.957757
-33.432111 -0.593098 30.001787
-33.555561 -2.472645 30.260348
-33.108288 -1.641428 30.653287
-33.985233 -3.286684 29.873018
-33.555561 -2.472645 30.260348
-34.261558 -2.257054 29.309987
-34.343773 -4.108763 29.557158
-33.985233 -3.286684 29.873018
-35.029324 -4.00746 28.63879
-34.681866 -5.04513 29.273291
-34.343773 -4.108763 29.557158
-35.706152 -3.867928 27.663339
-35.029324 -4.00746 28.63879
-35.36806 -2.93156 27.947206
-36.333273 -3.779494 26.73059
-35.706152 -3.867928 27.663339
-38.566177 -1.448365 22.239582
-38.045506 -1.456107 23.302382
-38.312984 -0.41253 22.473422
-38.566177 -1.448365 22.239582
-39.03252 -1.496472 21.161258
-40.171104 -1.72502 17.102091
-39.994751 -1.554234 18.09851
-40.258373 -0.654637 16.357549
-40.171104 -1.72502 17.102091
-38.267823 21.354995 4.325388
-37.937905 22.346503 4.746698
-37.71883 17.189783 -0.354766
-37.918828 18.238149 -0.135112
-30.434274 23.18545 23.035232
-30.978065 23.444238 21.90203
-31.152003 22.260323 22.485312
-30.434274 23.18545 23.035232
-29.953082 22.738359 24.21405
-28.749234 23.106349 25.976013
-29.456938 22.246521 25.356445
-28.90822 21.877688 26.522871
-28.749234 23.106349 25.976013
-28.029556 23.960107 26.635663
-21.287706 15.381826 40.044634
-21.932281 15.98574 39.064469
-21.890168 14.764997 39.463065
-21.287706 15.381826 40.044634
-20.636951 14.768843 41.013027
-18.445101 5.769287 45.87857
-17.859859 6.301151 46.362549
-18.551133 6.784241 45.491878
-18.899754 5.207791 45.559885
-18.445101 5.769287 45.87857
-19.630933 5.684797 44.626297
-19.394313 4.640211 45.178282
-18.899754 5.207791 45.559885
-20.318597 6.207394 43.715149
-19.630933 5.684797 44.626297
-19.824038 6.774974 44.096752
-21.03783 6.773943 42.735983
-20.844724 5.683766 43.265528
-20.318597 6.207394 43.715149
-21.734921 7.349327 41.767546
-21.03783 6.773943 42.735983
-21.49677 9.988035 41.28589
-22.023269 9.495525 40.809645
-20.998954 10.585491 41.715198
-20.444958 11.197148 42.189036
-21.642837 11.140168 40.799868
-21.49677 9.988035 41.28589
-20.998954 10.585491 41.715198
-37.72242 22.165872 6.930939
-37.517691 22.090592 8.027827
-37.189062 23.216511 7.404875
-37.81942 22.311222 5.819446
-38.148049 21.185303 6.442398
-37.72242 22.165872 6.930939
-37.937905 22.346503 4.746698
-37.81942 22.311222 5.819446
-37.781875 10.010454 1.635517
-38.178425 11.26269 1.741862
-37.614468 11.208755 0.991753
-37.37462 8.738535 1.529348
-37.938578 8.792469 2.279457
-37.781875 10.010454 1.635517
-36.838648 7.541964 1.403759
-37.37462 8.738535 1.529348
-37.468227 16.061622 -0.587339
-37.909549 16.02757 0.158352
-37.71883 17.189783 -0.354766
-37.115286 14.938633 -0.748566
-37.468227 16.061622 -0.587339
-36.924566 16.100846 -1.261684
-37.263813 13.68335 -0.215833
-37.115286 14.938633 -0.748566
-34.122284 25.339765 13.696549
-34.45273 25.591245 12.567235
-34.784624 24.499046 13.09369
-34.122284 25.339765 13.696549
-33.717022 25.157583 14.858802
-33.258206 24.971195 16.06619
-32.800119 24.721046 17.296166
-31.442854 23.744179 20.789969
-30.978065 23.444238 21.90203
-24.954973 20.992353 33.142357
-25.49038 21.557256 32.096851
-25.607421 20.30917 32.462315
-24.401858 20.513469 34.171242
-24.451097 19.259442 34.576401
-23.780942 20.028644 35.239822
-24.954973 20.992353 33.142357
-24.401858 20.513469 34.171242
-21.99704 17.161247 38.614553
-22.599502 16.544418 38.032984
-21.932281 15.98574 39.064469
-22.001213 18.380387 38.242451
-21.99704 17.161247 38.614553
-22.603707 18.938978 37.25714
-22.001213 18.380387 38.242451
-24.665523 0.446894 40.339264
-23.924316 -0.001664 41.320801
-24.914651 1.515427 39.768704
-25.407155 0.936348 39.330269
-24.665523 0.446894 40.339264
-21.472613 0.200225 44.129801
-20.975268 0.635257 44.58349
-22.199761 0.573109 43.196518
-21.472613 0.200225 44.129801
-22.948489 1.081646 42.187157
-22.199761 0.573109 43.196518
-22.460589 1.644921 42.603348
-23.691168 1.589715 41.185843
-23.43034 0.517903 41.779013
-22.948489 1.081646 42.187157
-22.438935 7.906033 40.77869
-22.267971 6.807021 41.297506
-21.734921 7.349327 41.767546
-23.108933 8.458171 39.816734
-22.438935 7.906033 40.77869
-22.575883 9.000478 40.286774
-38.767476 6.515884 4.422126
-39.209433 6.57935 5.285533
-39.058321 7.675164 4.582461
-38.377358 5.188282 4.362433
-38.767476 6.515884 4.422126
-38.226246 6.284096 3.659361
-37.683725 6.238522 2.886478
-37.039299 6.298409 2.08905
-34.789095 25.808625 11.384085
-34.45273 25.591245 12.567235
-26.69124 21.310886 30.343595
-27.297223 20.55959 29.787785
-26.748812 20.122776 30.860999
-26.69124 21.310886 30.343595
-26.032709 22.073504 30.990499
-26.883851 1.904189 37.31452
-26.133951 1.397155 38.352508
-26.406182 2.511915 37.72172
-27.364974 1.236082 36.929642
-26.883851 1.904189 37.31452
-27.637205 2.350842 36.298853
-27.855673 0.698897 36.473616
-27.364974 1.236082 36.929642
-28.606833 1.000317 35.507288
-28.887303 2.085224 34.877381
-29.375807 1.402806 34.470693
-27.855673 0.698897 36.473616
-28.606833 1.000317 35.507288
-31.768421 0.715939 31.750366
-32.550427 1.03859 30.697546
-32.250331 -0.065831 31.359077
-31.069102 0.360838 32.708002
-31.369197 1.465259 32.046472
-31.768421 0.715939 31.750366
-30.334546 0.052117 33.664782
-31.069102 0.360838 32.708002
-36.921442 -3.666672 25.779992
-36.333273 -3.779494 26.73059
-36.633057 -2.679206 26.021155
-37.759962 -2.529164 24.06955
-37.50677 -1.493328 24.30339
-38.045506 -1.456107 23.302382
-37.485119 -3.602885 24.81747
-37.759962 -2.529164 24.06955
-36.921442 -3.666672 25.779992
-37.485119 -3.602885 24.81747
-40.366785 0.407626 15.561243
-40.258373 -0.654637 16.357549
-40.235815 0.532301 16.557983
-40.425392 1.48473 14.792148
-40.401956 2.644596 15.089119
-40.483121 2.534762 14.11959
-40.366785 0.407626 15.561243
-40.425392 1.48473 14.792148
-40.445007 4.446858 10.492286
-40.454317 3.352141 11.281621
-40.550577 4.581855 11.493574
-40.311199 4.375527 9.540298
-40.445007 4.446858 10.492286
-40.407459 5.605241 9.75225
-40.057116 4.301124 8.56154
-40.311199 4.375527 9.540298
-39.995273 5.414388 7.88315
-39.778738 4.181601 7.644429
-40.057116 4.301124 8.56154
-38.578139 20.313702 3.898223
-38.555365 20.289361 4.90374
-38.267823 21.354995 4.325388
-38.781567 19.255747 3.553298
-38.578139 20.313702 3.898223
-38.494025 20.321381 2.974946
-38.559393 18.179594 1.484235
-38.752039 18.171198 2.337613
-38.504807 19.271822 1.776644
-38.236156 18.217975 0.657095
-38.483388 17.117351 1.218064
-38.559393 18.179594 1.484235
-37.918828 18.238149 -0.135112
-38.236156 18.217975 0.657095
3 0 222 224
3 224 223 57
3 222 223 224
3 0 61 59
3 0 57 61
3 2 225 227
3 227 226 63
3 225 226 227
3 3 228 229
3 1 230 231
3 4 66 64
3 4 68 66
3 4 70 68
3 3 73 71
3 3 232 234
3 234 233 73
3 232 233 234
3 5 77 75
3 6 235 237
3 237 236 78
3 235 236 237
3 7 81 79
3 9 84 82
3 9 86 84
3 9 88 86
3 6 91 89
3 6 78 91
3 11 95 93
3 12 97 96
3 12 99 97
3 12 101 99
3 11 104 102
3 11 93 104
3 8 108 106
3 13 111 109
3 13 112 111
3 13 113 112
3 14 238 240
3 240 239 114
3 238 239 240
3 14 241 242
3 14 243 245
3 243 115 244
3 243 244 245
3 15 118 116
3 15 120 118
3 10 123 121
3 16 126 124
3 16 128 126
3 16 130 128
3 17 246 248
3 248 247 131
3 246 247 248
3 250 249 58
3 18 134 132
3 20 135 60
3 20 136 135
3 20 138 136
3 17 139 62
3 17 131 139
3 252 251 140
3 253 141 254
3 256 255 141
3 257 142 258
3 259 140 260
3 261 260 142
3 259 260 261
3 23 145 143
3 25 146 65
3 25 147 146
3 25 149 147
3 27 150 67
3 27 151 150
3 27 153 151
3 29 154 69
3 29 155 154
3 30 158 156
3 32 159 72
3 32 160 159
3 32 162 160
3 263 262 74
3 34 165 163
3 265 264 76
3 36 266 268
3 268 267 166
3 266 267 268
3 37 169 167
3 39 170 80
3 39 171 170
3 19 172 133
3 40 173 83
3 40 174 173
3 40 175 174
3 41 176 85
3 41 177 176
3 41 179 177
3 43 180 87
3 43 181 180
3 21 182 137
3 44 183 90
3 44 184 183
3 44 185 184
3 36 186 92
3 36 166 186
3 45 189 187
3 271 270 94
3 269 270 271
3 272 190 273
3 46 274 275
3 46 276 277
3 46 278 280
3 278 191 279
3 278 279 280
3 47 192 98
3 47 193 192
3 47 194 193
3 48 195 100
3 48 196 195
3 22 281 283
3 281 197 282
3 281 282 283
3 49 198 103
3 49 199 198
3 49 200 199
3 45 201 105
3 45 187 201
3 35 284 286
3 286 285 164
3 284 285 286
3 288 287 188
3 38 202 168
3 50 289 291
3 291 290 107
3 289 290 291
3 50 292 293
3 24 203 144
3 295 294 110
3 26 204 148
3 28 205 152
3 51 296 298
3 298 297 117
3 296 297 298
3 51 299 300
3 51 301 302
3 52 206 119
3 52 207 206
3 42 208 178
3 53 209 122
3 53 210 209
3 31 211 157
3 54 212 125
3 54 213 212
3 54 214 213
3 55 215 127
3 55 216 215
3 55 217 216
3 56 218 129
3 56 219 218
3 33 220 161
3 303 221 304
3 306 305 221
3 57 58 17
3 307 58 308
3 309 308 57
3 307 308 309
3 311 310 58
3 59 60 18
3 61 60 59
3 61 20 60
3 61 62 20
3 57 62 61
3 57 17 62
3 63 312 313
3 315 314 63
3 64 65 23
3 66 65 64
3 66 25 65
3 66 67 25
3 68 67 66
3 68 27 67
3 68 69 27
3 70 69 68
3 70 29 69
3 71 72 30
3 73 72 71
3 73 32 72
3 73 74 32
3 316 74 317
3 318 317 73
3 316 317 318
3 320 319 74
3 75 76 34
3 77 76 75
3 77 321 323
3 323 322 76
3 321 322 323
3 78 324 326
3 326 325 36
3 324 325 326
3 328 327 78
3 79 80 37
3 81 80 79
3 81 39 80
3 82 83 19
3 84 83 82
3 84 40 83
3 84 85 40
3 86 85 84
3 86 41 85
3 86 87 41
3 88 87 86
3 88 43 87
3 89 90 21
3 91 90 89
3 91 44 90
3 91 92 44
3 78 92 91
3 78 36 92
3 93 94 45
3 95 94 93
3 95 329 331
3 331 330 94
3 329 330 331
3 96 332 333
3 97 334 336
3 336 335 96
3 334 335 336
3 97 337 339
3 337 46 338
3 337 338 339
3 97 98 46
3 99 98 97
3 99 47 98
3 99 100 47
3 101 100 99
3 101 48 100
3 102 103 22
3 104 103 102
3 104 49 103
3 104 105 49
3 93 105 104
3 93 45 105
3 341 340 35
3 106 107 38
3 108 107 106
3 108 50 107
3 109 110 24
3 111 110 109
3 111 342 344
3 344 343 110
3 342 343 344
3 111 345 346
3 112 347 349
3 349 348 111
3 347 348 349
3 112 350 351
3 112 352 354
3 352 353 354
3 113 355 357
3 357 356 112
3 355 356 357
3 113 358 359
3 114 360 362
3 362 361 26
3 360 361 362
3 364 363 114
3 115 365 366
3 115 367 368
3 116 117 28
3 118 117 116
3 118 51 117
3 118 119 51
3 120 119 118
3 120 52 119
3 121 122 42
3 123 122 121
3 123 53 122
3 124 125 31
3 126 125 124
3 126 54 125
3 126 127 54
3 128 127 126
3 128 55 127
3 128 129 55
3 130 129 128
3 130 56 129
3 370 369 33
3 372 371 5
3 131 373 375
3 375 374 6
3 373 374 375
3 377 376 131
3 58 378 380
3 380 379 17
3 378 379 380
3 382 381 58
3 132 133 7
3 134 133 132
3 134 19 133
3 60 134 18
3 135 134 60
3 135 19 134
3 135 82 19
3 136 82 135
3 136 9 82
3 136 137 9
3 138 137 136
3 138 21 137
3 62 138 20
3 139 138 62
3 139 21 138
3 139 89 21
3 131 89 139
3 131 6 89
3 140 383 385
3 385 384 11
3 383 384 385
3 387 386 140
3 141 388 390
3 388 389 390
3 141 391 392
3 141 393 395
3 393 96 394
3 393 394 395
3 396 96 397
3 398 397 141
3 396 397 398
3 399 12 400
3 401 400 96
3 399 400 401
3 403 402 12
3 404 22 405
3 142 406 407
3 142 408 410
3 408 22 409
3 408 409 410
3 142 102 22
3 140 102 142
3 140 11 102
3 143 144 8
3 145 144 143
3 145 24 144
3 65 145 23
3 146 145 65
3 146 24 145
3 146 109 24
3 147 109 146
3 147 13 109
3 147 148 13
3 149 148 147
3 149 26 148
3 67 149 25
3 150 149 67
3 150 26 149
3 150 114 26
3 151 114 150
3 151 14 114
3 151 152 14
3 153 152 151
3 153 28 152
3 69 153 27
3 154 153 69
3 154 28 153
3 154 116 28
3 155 116 154
3 155 15 116
3 156 157 10
3 158 157 156
3 158 31 157
3 72 158 30
3 159 158 72
3 159 31 158
3 159 124 31
3 160 124 159
3 160 16 124
3 160 161 16
3 162 161 160
3 162 33 161
3 74 162 32
3 411 162 412
3 413 412 74
3 411 412 413
3 414 33 415
3 416 415 162
3 414 415 416
3 418 417 33
3 163 164 2
3 165 164 163
3 165 35 164
3 76 165 34
3 419 165 420
3 421 420 76
3 419 420 421
3 422 35 423
3 424 423 165
3 422 423 424
3 426 425 35
3 427 77 428
3 429 428 5
3 427 428 429
3 430 77 431
3 430 431 432
3 434 433 77
3 166 435 437
3 437 436 3
3 435 436 437
3 439 438 166
3 441 440 36
3 443 442 6
3 167 168 1
3 169 168 167
3 169 38 168
3 80 169 37
3 170 169 80
3 170 38 169
3 170 106 38
3 171 106 170
3 171 8 106
3 133 81 7
3 172 81 133
3 172 39 81
3 83 172 19
3 173 172 83
3 173 39 172
3 173 171 39
3 174 171 173
3 174 8 171
3 174 143 8
3 175 143 174
3 175 23 143
3 85 175 40
3 176 175 85
3 176 23 175
3 176 64 23
3 177 64 176
3 177 4 64
3 177 178 4
3 179 178 177
3 179 42 178
3 87 179 41
3 180 179 87
3 180 42 179
3 180 121 42
3 181 121 180
3 181 10 121
3 137 88 9
3 182 88 137
3 182 43 88
3 90 182 21
3 183 182 90
3 183 43 182
3 183 181 43
3 184 181 183
3 184 10 181
3 184 156 10
3 185 156 184
3 185 30 156
3 92 185 44
3 186 185 92
3 186 30 185
3 186 71 30
3 166 71 186
3 166 3 71
3 187 188 0
3 189 188 187
3 189 444 446
3 446 445 188
3 444 445 446
3 94 189 45
3 447 189 448
3 449 448 94
3 447 448 449
3 451 450 189
3 452 95 453
3 454 453 11
3 452 453 454
3 455 95 456
3 458 457 95
3 190 459 460
3 190 461 463
3 461 1 462
3 461 462 463
3 191 464 465
3 191 466 467
3 98 191 46
3 192 191 98
3 192 468 470
3 470 469 191
3 468 469 470
3 192 471 473
3 471 190 472
3 471 472 473
3 193 190 192
3 193 1 190
3 193 167 1
3 194 167 193
3 194 37 167
3 100 194 47
3 195 194 100
3 195 37 194
3 195 79 37
3 196 79 195
3 196 7 79
3 474 101 475
3 476 475 12
3 474 475 476
3 197 477 479
3 477 101 478
3 477 478 479
3 197 48 101
3 103 197 22
3 198 197 103
3 198 48 197
3 198 196 48
3 199 196 198
3 199 7 196
3 199 132 7
3 200 132 199
3 200 18 132
3 105 200 49
3 201 200 105
3 201 18 200
3 201 59 18
3 187 59 201
3 187 0 59
3 164 480 482
3 482 481 2
3 480 481 482
3 485 484 164
3 483 484 485
3 487 486 35
3 489 488 3
3 188 490 492
3 492 491 0
3 490 491 492
3 494 493 188
3 168 495 497
3 497 496 1
3 495 496 497
3 202 498 500
3 500 499 168
3 498 499 500
3 202 501 502
3 107 202 38
3 503 202 504
3 505 504 107
3 503 504 505
3 507 506 202
3 144 108 8
3 203 108 144
3 203 50 108
3 110 203 24
3 508 203 509
3 510 509 110
3 508 509 510
3 511 50 512
3 513 512 203
3 511 512 513
3 515 514 50
3 148 113 13
3 204 113 148
3 204 516 518
3 518 517 113
3 516 517 518
3 519 204 520
3 521 520 26
3 519 520 521
3 522 204 523
3 525 524 204
3 152 115 14
3 205 115 152
3 205 526 528
3 528 527 115
3 526 527 528
3 117 205 28
3 529 205 530
3 531 530 117
3 529 530 531
3 533 532 205
3 119 534 536
3 536 535 51
3 534 535 536
3 206 537 539
3 539 538 119
3 537 538 539
3 206 540 541
3 206 542 544
3 542 63 543
3 542 543 544
3 207 63 206
3 207 2 63
3 178 70 4
3 208 70 178
3 208 29 70
3 122 208 42
3 209 208 122
3 209 29 208
3 209 155 29
3 210 155 209
3 210 15 155
3 157 123 10
3 211 123 157
3 211 53 123
3 125 211 31
3 212 211 125
3 212 53 211
3 212 210 53
3 213 210 212
3 213 15 210
3 213 120 15
3 214 120 213
3 214 52 120
3 127 214 54
3 215 214 127
3 215 52 214
3 215 207 52
3 216 207 215
3 216 2 207
3 216 163 2
3 217 163 216
3 217 34 163
3 129 217 55
3 218 217 129
3 218 34 217
3 218 75 34
3 219 75 218
3 219 5 75
3 161 130 16
3 220 130 161
3 220 56 130
3 545 220 546
3 547 546 33
3 545 546 547
3 221 548 550
3 548 220 549
3 548 549 550
3 221 56 220
3 221 219 56
3 551 219 552
3 553 552 221
3 551 552 553
3 554 5 555
3 556 555 219
3 554 555 556
3 558 557 5
