ply
format ascii 1.0
element vertex 1031
property float x
property float y
property float z
element face 1342
property list uchar int vertex_index
end_header
-29.977304 -16.238115 68.86586
-1.705941 -19.812298 63.275246
-20.254278 0.383875 71.513542
-28.742483 12.808147 65.571426
-5.615634 -5.567433 65.239586
-18.701809 -20.501606 72.546547
-30.307217 -7.881915 52.732025
-10.171536 -36.561504 67.170715
-25.187193 -38.723969 69.342018
-12.832674 6.197351 67.809792
-18.272432 12.802372 68.54583
-13.35419 -3.729088 69.529205
-30.449402 -25.322344 62.964272
-29.98098 -22.005087 54.184189
-30.984755 -12.313551 61.334534
1.093861 -26.374512 59.709003
-6.65915 -27.719862 66.274071
-25.796379 -19.191626 72.919617
-22.731609 -29.296371 72.574257
-28.348089 -28.200466 69.758018
-29.182905 -37.098438 63.974663
-26.613886 -7.468162 72.21154
-29.994816 -2.343149 67.439377
-25.451172 6.259385 70.253448
-4.25333 -13.161744 64.99894
-10.288034 -20.637838 68.845894
-12.818124 -12.774395 69.919685
-20.539133 -10.894854 72.782089
2.369556 -5.473902 59.869808
-30.764687 2.853871 59.988243
-30.557987 7.815621 51.565033
-14.865417 -29.061817 70.875069
-9.282175 8.751303 65.339279
-9.672545 4.165447 66.46286
-30.483871 -20.748341 66.086426
-30.79384 -19.078377 62.207912
-30.817989 -14.405429 65.361061
-0.417335 -23.080317 61.876362
-2.644738 -27.127972 63.142376
-4.295952 -23.785295 64.929474
-28.318972 -17.809551 71.426529
-27.289171 -23.501492 71.804977
-29.345491 -22.568254 69.416832
-29.794418 -27.127285 66.778038
1.061275 -15.966891 61.372028
-23.708481 -3.221554 72.337784
-26.202827 -0.628982 71.379532
-23.09466 2.965858 71.344711
-5.016511 -9.383096 65.209488
-8.447008 -12.97634 67.537064
-9.356849 -9.193385 67.825562
-16.908451 -2.126976 70.889046
-17.122347 -7.184711 71.491486
-20.595495 -5.634793 72.360458
-23.80022 -9.166245 72.989555
-2.104294 -1.94912 62.497784
1.758745 -1.888355 59.817875
-1.658374 -5.845347 62.678066
-0.96522 -9.326559 62.582115
-30.132004 -15.096819 53.402176
-29.962809 -5.497807 48.470093
-29.540308 4.772064 66.538063
-30.642206 -0.017987 63.804749
-30.188602 8.044021 63.0742
-30.584015 13.539269 55.180496
-30.514677 10.474779 47.496365
-30.713326 18.484617 46.860271
-6.415071 -35.577431 64.614273
-14.607885 -20.80146 71.01075
-12.822462 -24.628128 70.17421
-16.967342 -24.756392 71.938988
-23.984638 -34.037586 71.387917
-20.525028 -33.956154 71.699799
-29.844246 -35.648846 60.223473
-16.327263 3.528251 69.838654
-19.378202 6.579187 70.217575
-15.570963 9.233311 68.427498
-6.078414 -1.480106 65.076447
-9.69792 -5.017983 67.686607
-9.716316 -0.519808 67.186699
-13.218491 1.24411 68.833885
-30.148619 -29.921597 59.612709
-29.903419 -28.067541 55.166107
-30.406401 -23.663631 58.73645
-30.603441 -17.024683 57.953533
-30.72257 -9.966674 56.945259
2.382372 -29.706482 57.06509
-1.073466 -30.399834 60.845951
-4.592476 -31.13199 64.067032
-8.53687 -31.923498 67.012871
-22.415789 -20.094465 73.264671
-20.846024 -24.764627 72.931
-24.442186 -24.392229 72.944099
-25.877222 -28.90975 71.817986
-26.935791 -33.577995 69.82058
-27.569595 -38.21994 67.246864
-28.834593 -32.671753 67.240555
-29.853804 -31.604109 63.752811
-28.748064 -11.63765 70.975121
-30.239086 -9.593084 68.06485
-28.67473 -5.118754 70.344856
-28.242741 1.94069 69.407486
-27.421881 9.267535 68.337631
-21.964573 9.78628 69.901924
-24.295086 13.452297 68.82756
-3.098703 -16.461046 64.361488
-6.062756 -20.232412 66.310081
-7.461201 -16.718571 67.13047
-11.731345 -16.872232 69.516716
-15.831589 -16.478472 71.445625
-13.25549 -8.441541 69.887672
-16.731224 -11.989992 71.661575
-19.90097 -15.875595 72.826012
-23.469574 -15.024569 73.288933
-26.442072 -13.401715 72.708839
3.145173 -8.887344 59.680485
-0.083357 -12.666403 62.207878
-30.875929 -7.237158 64.52639
-30.970697 -5.093388 60.700603
-30.752354 -2.386096 56.381393
-30.503336 10.697985 59.105877
-30.686689 5.247471 55.804146
-30.442089 -0.193945 52.068695
-30.243734 2.037575 47.994167
-8.460896 -24.316534 67.743202
-10.731577 -28.345467 68.85582
-12.601657 -32.701527 69.352112
-18.980417 -29.389965 72.200577
-16.716722 -33.618279 70.956581
-7.867726 9.952718 64.223663
-6.651435 9.162059 63.633179
-8.000343 7.80046 64.768661
-30.299994 -18.556608 67.572388
-30.686789 -17.704773 65.683151
-30.495081 -15.498885 67.195007
-1.072774 -21.441219 62.642334
-2.335075 -23.49773 63.431858
-3.130436 -21.840387 64.211891
-29.276737 -17.220751 70.222076
-28.947874 -20.173855 70.465843
-29.751282 -19.428024 69.077141
-30.005152 -21.77689 67.907188
-0.361705 -17.945011 62.363953
0.388691 -19.525158 61.652359
0.946215 -21.239485 60.971775
-22.024992 -1.565823 72.067078
-23.454111 -0.169577 71.88398
-21.68059 1.812563 71.497696
-5.404302 -7.565038 65.29319
-7.175261 -9.317345 66.538322
-7.45012 -7.424711 66.554337
-18.632299 -0.982736 71.311432
-18.857565 -3.74741 71.726082
-20.408094 -2.632603 71.973595
-22.170963 -4.603775 72.478485
-3.874174 -3.67579 63.901405
-1.932951 -3.871426 62.62785
-3.603167 -5.608146 63.940079
-3.275092 -7.603749 63.933304
-30.207518 -11.48798 52.935009
-29.899584 -13.926009 51.188213
-30.004793 -10.348992 50.886143
-30.101585 -6.707104 50.509731
-29.190456 8.657059 66.069366
-29.910372 6.446761 64.888496
-29.601357 10.292019 64.460266
-30.667479 17.356045 49.003239
-8.203259 -36.056297 65.921143
-16.706627 -20.554874 71.871635
-15.82087 -22.63381 71.540749
-17.8123 -22.617956 72.262871
-24.677746 -36.459999 70.416985
-23.066412 -36.271362 70.98864
-23.621059 -38.637447 70.080643
-29.829319 -37.682209 58.443874
-14.543592 4.994373 68.845284
-15.995553 6.249388 69.216446
-14.274709 7.674283 68.203552
-6.120203 0.700569 64.813156
-7.943519 -1.201937 66.213959
-7.914943 1.114292 65.885323
-11.33742 5.074866 67.239204
-11.461594 2.720446 67.70285
-13.069261 3.701244 68.376427
-14.796433 2.315839 69.408218
-4.584855 2.297548 63.570122
-4.266916 0.305844 63.652199
-30.306301 -27.740734 61.324902
-30.28437 -26.88648 59.197083
-30.479061 -24.697857 60.799358
-30.915827 -15.594134 61.785892
-30.745142 -18.092314 60.094513
-30.828707 -14.759251 59.60574
-30.652113 -13.635036 57.280323
-30.888855 -11.188744 59.134762
1.683231 -28.063255 58.531219
0.677542 -30.048798 59.009941
-0.06238 -28.436176 60.340675
-4.558112 -27.304966 64.726326
-3.651413 -29.106884 63.654873
-5.563407 -29.426306 65.20311
-6.481363 -31.608952 65.546738
-7.487998 -29.910954 66.586014
-24.185513 -19.676935 73.243446
-23.457142 -22.175219 73.206734
-25.072132 -21.914856 72.991821
-27.872368 -26.021009 70.874214
-26.6665 -26.359314 71.818321
-27.246344 -28.800772 70.883942
-26.402266 -31.296583 70.947701
-27.677036 -30.933332 69.84787
-27.975637 -33.387836 68.610741
-28.619127 -30.489262 68.57196
-30.207809 -26.466702 64.915527
-29.846704 -29.459387 65.286964
-30.175705 -28.542032 63.357944
-30.095839 -30.66877 61.746395
2.190876 -24.480795 59.098942
-27.795397 -9.315808 71.700623
-28.868404 -8.570821 70.582672
-27.752487 -6.152515 71.369774
-25.901596 2.626331 70.874596
-27.285275 0.53621 70.55735
-26.943022 4.150498 69.999748
-27.797525 5.644085 68.950455
-26.448183 8.035739 69.371681
-18.873619 9.558505 69.460632
-20.860344 7.878203 70.222679
-20.102203 11.354926 69.319153
-3.670027 -14.833074 64.704948
-5.188239 -16.590034 65.730194
-5.919257 -14.852036 66.122536
-10.590002 -13.053078 68.753838
-10.1878 -14.936815 68.61541
-12.191845 -14.771313 69.68045
-13.797919 -16.715097 70.540298
-14.254835 -14.639167 70.693459
-11.55217 -4.448145 68.669044
-11.333258 -6.65709 68.748619
-13.325813 -6.178246 69.746033
-18.881853 -9.128805 72.237694
-17.013784 -9.636195 71.633781
-18.644766 -11.547505 72.314728
-18.281857 -13.952864 72.301613
-20.235605 -13.442461 72.837196
-21.792028 -15.467786 73.183716
-22.085827 -12.826828 73.138145
-25.28739 -8.404092 72.73719
-25.216553 -11.296047 72.973114
-26.678257 -10.533859 72.46125
-27.731848 -12.629351 71.964668
2.014986 -3.763595 59.896053
2.852693 -7.068313 59.716164
-2.580448 -11.146122 63.796986
-0.432403 -10.93623 62.350887
-2.093553 -12.918709 63.586956
-1.437472 -14.574886 63.203979
-29.931562 -25.117548 54.638901
-29.69717 -24.079338 52.392994
-30.158173 -6.062567 67.785973
-30.645325 -8.586435 66.367363
-30.548565 -4.841237 66.07428
-30.743719 1.332445 61.968422
-30.883808 -2.426617 62.189461
-30.882349 -1.213463 60.217758
-30.881937 -3.691892 58.452522
-30.819487 0.208796 58.244423
-30.161367 13.441553 60.742447
-30.61846 10.733158 53.430485
-30.640377 9.344794 55.454479
-30.621729 6.380423 53.735905
-30.605974 2.437792 53.855106
-30.505501 3.769547 51.816792
-30.318335 0.861626 49.984028
-30.426872 4.992702 49.737621
-30.545084 11.627074 45.378468
-30.389311 7.443359 45.813484
-8.119344 -20.584009 67.593666
-7.205517 -22.244772 67.013901
-9.37696 -22.490088 68.334572
-13.946602 -26.688946 70.635139
-11.742883 -26.421598 69.55191
-12.857335 -28.560192 69.98645
-11.68952 -30.435606 69.180595
-13.74955 -30.886076 70.177635
-21.820204 -27.070957 72.851624
-19.905493 -27.037422 72.619209
-20.815746 -29.394135 72.510643
-19.339815 -36.2314 71.031792
-18.634686 -33.866791 71.433617
-17.453327 -35.988533 70.68763
-15.454394 -35.646347 70.102264
-28.502781 -37.749283 65.704666
-10.935844 7.469412 66.555473
-12.360149 8.860755 67.020226
-10.568279 10.117528 65.772034
-7.94772 3.430344 65.552719
-8.048292 5.588931 65.237656
-9.54677 6.383845 65.984489
-30.49312 -23.274977 64.654541
-30.631681 -22.456949 62.531239
-30.70742 -20.256645 64.160194
-30.873119 -16.68185 63.787403
-30.973764 -13.252916 63.386791
0.330327 -24.759407 60.878048
-0.756314 -26.773201 61.467625
-1.445637 -25.065933 62.450714
-3.394804 -25.392035 64.053101
-5.509945 -25.671385 65.655548
-27.157488 -18.559328 72.311043
-26.583904 -21.297421 72.470825
-27.910192 -20.816349 71.590996
-28.445555 -23.197994 70.723747
-28.852663 -25.577847 69.651245
-29.190262 -27.814709 68.316978
-29.630827 -24.858021 68.164406
-30.189201 -24.024054 66.408951
2.665261 -13.984228 60.199608
1.581754 -22.806707 60.110058
-25.234512 -5.304565 72.408241
-26.535414 -4.091358 71.806992
-25.122318 -2.031273 71.967461
-24.75285 1.340199 71.467415
-24.298286 4.658775 70.895866
-4.637064 -11.226827 65.117676
-6.386183 -13.004566 66.312386
-6.826108 -11.157506 66.462364
-8.915255 -11.121485 67.699539
-11.029106 -11.038509 68.886948
-15.104275 -2.951667 70.259659
-15.201597 -5.427401 70.557693
-17.004698 -4.591913 71.207878
-18.815989 -6.418759 71.994019
-20.55332 -8.151425 72.588707
-22.278719 -10.153928 73.011139
-22.28425 -7.491275 72.798172
-23.796322 -6.313081 72.717247
-0.522384 -0.100053 61.152451
-0.147586 -1.904294 61.150993
-0.001338 -3.784585 61.301163
0.402819 -5.581734 61.250282
0.78358 -7.409337 61.202068
-1.143618 -7.543667 62.522774
-2.994549 -9.36702 63.919621
-30.048706 -18.613539 53.778011
-29.754921 -20.887779 52.05928
-29.788908 1.297092 66.984909
-30.374077 -1.210835 65.807343
-30.200937 2.478431 65.261375
-30.416403 3.973809 63.574139
-30.572454 5.230577 61.670193
-30.601645 11.91503 51.289162
-30.521778 9.198762 49.482883
-30.602978 13.307295 49.202785
-30.624218 14.588508 47.201378
-30.681889 15.661364 45.000202
-30.798588 19.813662 44.770573
-12.499977 -20.718729 70.013
-11.658921 -22.64426 69.600212
-13.722088 -22.734989 70.626312
-14.856568 -24.608133 71.118637
-15.90883 -26.82935 71.460472
-23.323378 -31.70331 72.085327
-21.60508 -31.483295 72.239944
-22.263813 -33.976601 71.706818
-21.240946 -36.341579 71.147095
-29.597763 -36.527077 62.145729
-29.634338 -38.619595 60.455513
-18.294775 1.937708 70.774048
-19.786337 3.4392 70.908363
-17.893208 4.97487 70.124084
-17.367867 7.950979 69.366882
-16.964397 11.097604 68.531303
-13.698925 10.494053 67.31562
-15.029536 12.230172 67.506378
-5.7811 -3.569889 65.134926
-7.664982 -5.39681 66.508835
-7.819271 -3.429663 66.402176
-9.66907 -2.847745 67.443588
-11.576596 -2.281451 68.448723
-9.695211 1.864053 66.84269
-11.529915 0.169319 68.112526
-13.419651 -1.314047 69.281837
-15.022228 -0.33791 69.896439
-16.707941 0.600129 70.444672
-2.49681 -0.009341 62.499058
-4.107669 -1.743687 63.820053
-29.996084 -32.002209 57.734886
-29.892525 -31.133078 55.751354
-30.079815 -29.000597 57.508373
-30.152893 -25.993744 57.003616
-30.222595 -22.795403 56.471497
-30.63562 -21.288551 60.515797
-30.509684 -20.35857 58.328018
-30.293928 -19.415512 55.988068
-30.372757 -16.145521 55.623871
-30.430998 -12.668628 55.076115
-30.518412 -8.976631 54.831429
1.412795 -31.651796 57.522831
-0.228641 -32.009769 59.401234
-1.940645 -32.44981 61.173996
-1.775797 -28.72917 62.000099
-2.784225 -30.733299 62.491901
-3.726024 -32.906883 62.856895
-5.552522 -33.304035 64.428391
-7.444048 -33.7052 65.879959
-9.379332 -34.211117 67.169006
-20.664888 -20.229118 73.030006
-19.827812 -22.445436 72.82682
-21.685602 -22.570265 73.13578
-22.766026 -24.543596 73.086464
-23.640934 -26.815575 72.817802
-25.914734 -24.012203 72.534775
-25.183992 -26.683018 72.488815
-24.342794 -29.280848 72.335777
-24.960546 -31.447632 71.697639
-25.566799 -33.770176 70.796364
-26.045921 -36.234825 69.68293
-26.523405 -38.537075 68.3853
-27.250443 -35.883148 68.645561
-28.297064 -35.526741 67.181747
-29.028313 -34.876801 65.691887
-29.342772 -30.031147 67.029175
-29.465322 -32.07983 65.58094
-29.534822 -34.347233 63.930462
-29.867197 -33.479427 62.062744
-30.003075 -32.852692 59.922474
-29.499392 -13.795659 69.960129
-30.169333 -13.012815 68.457069
-29.640783 -10.652865 69.58593
-29.584934 -7.217052 69.315224
-29.443842 -3.743835 68.975616
-27.615763 -2.735574 70.939903
-28.529755 -1.545418 69.854729
-29.245134 -0.09015 68.515091
-28.937174 3.635497 68.05587
-28.614594 7.125714 67.561981
-28.148163 11.052539 67.04287
-21.178341 4.792308 70.896126
-22.614397 6.395602 70.668137
-23.771038 8.249271 70.192825
-23.230408 11.544149 69.46624
-24.933817 9.740392 69.598648
-25.950855 11.502385 68.742981
-26.870886 13.32305 67.660011
-2.419301 -18.0837 63.872707
-3.814223 -20.01438 64.799828
-4.622452 -18.421524 65.380966
-6.727767 -18.478716 66.727745
-8.964898 -18.710287 68.06665
-8.013052 -14.847589 67.37542
-9.573976 -16.709558 68.347855
-11.013186 -18.718441 69.20005
-13.086824 -18.720579 70.256584
-15.216393 -18.776155 71.238472
-17.250532 -18.503551 72.045532
-9.413119 -7.110298 67.702141
-11.268712 -8.844974 68.879082
-12.973375 -10.556783 69.885361
-15.248575 -7.936823 70.789124
-15.071064 -10.320995 70.871826
-14.74099 -12.421575 70.833366
-16.315214 -14.281453 71.586006
-17.984324 -16.382675 72.266594
-19.236782 -18.267111 72.687294
-21.213518 -17.920395 73.128067
-23.034773 -17.644781 73.312653
-24.668699 -16.970472 73.222946
-23.714252 -12.151304 73.187538
-24.997219 -14.150313 73.136108
-26.090786 -16.313276 72.876907
-27.492601 -15.664187 72.169792
-28.667587 -14.821326 71.138931
3.672295 -10.469137 59.394451
1.150546 -9.028178 61.110817
1.599317 -10.81458 60.928825
2.100901 -12.398242 60.627701
0.618883 -14.280984 61.738094
-0.93678 -16.224888 62.851269
-30.603506 -12.24248 66.85202
-30.887957 -11.026812 64.938782
-31.007948 -9.820261 62.943645
-30.769661 -3.537817 64.262367
-30.973486 -6.216063 62.627464
-31.003763 -8.766099 60.814934
-30.918531 -7.358486 58.864754
-30.763664 -6.216643 56.702068
-30.56625 -5.114008 54.482388
-29.919748 11.92074 62.672573
-30.399744 9.135552 61.150913
-30.647924 6.543307 59.563667
-30.54879 12.200262 57.242565
-30.659662 7.841657 57.595699
-30.744707 3.945707 57.897327
-30.723347 1.377725 56.087978
-30.603926 -1.22943 54.308372
-30.374523 -4.209893 52.414284
-30.22266 -2.848689 50.357525
-30.09725 -1.889356 48.226326
-30.031418 -0.78534 46.106148
-30.388876 6.247661 47.810772
-30.218981 3.294098 46.055698
-5.083067 -21.903862 65.614502
-6.415874 -23.961885 66.428825
-7.582821 -26.099566 67.074165
-10.583485 -24.4002 68.993935
-9.50428 -26.283833 68.283783
-8.68831 -28.222052 67.61264
-9.625246 -30.22863 67.984238
-10.585602 -32.388054 68.26844
-11.378515 -34.780609 68.306641
-18.929575 -24.7542 72.541245
-17.949684 -27.071138 72.142059
-16.927092 -28.987225 71.663658
-19.768932 -31.696321 72.036087
-17.845306 -31.452621 71.649979
-15.92987 -31.176094 71.064156
-14.765533 -33.191704 70.296471
-13.356182 -35.061356 69.307556
-7.720363 10.861504 63.918108
-7.299827 10.346578 63.779701
-7.299827 10.346578 63.779701
-7.259581 9.557389 63.928421
-6.691681 9.951248 63.484459
-6.691681 9.951248 63.484459
-6.145737 9.893961 63.140858
-9.602124 -37.493818 66.525264
-8.617985 -37.241214 65.900478
-9.187397 -36.308901 66.545929
-10.579116 -37.769596 67.097297
-9.602124 -37.493818 66.525264
-24.736971 -39.868191 69.12389
-23.953904 -39.82493 69.493202
-24.404126 -38.680708 69.711331
-25.447325 -39.84481 68.703957
-24.736971 -39.868191 69.12389
-7.136403 1.976669 65.26585
-7.017573 0.907431 65.34924
-6.239033 1.769808 64.729767
-5.471359 2.568297 64.10825
-4.6667 3.362417 63.447544
-6.239033 1.769808 64.729767
-5.352529 1.499058 64.191639
-5.471359 2.568297 64.10825
1.994576 -26.202191 58.782412
2.543084 -25.255333 58.477381
1.642368 -25.427653 59.403973
1.388546 -27.218884 59.120111
2.289261 -27.046563 58.19352
1.994576 -26.202191 58.782412
3.197521 -4.458512 59.144872
3.020236 -3.603358 59.157995
2.192271 -4.618748 59.882931
3.393055 -5.343894 59.119427
3.197521 -4.458512 59.144872
2.611124 -6.271107 59.792986
3.634623 -6.141099 59.042604
3.393055 -5.343894 59.119427
-30.500083 10.118641 44.537117
-30.58987 12.217568 44.418888
-17.851723 -37.156692 70.476993
-18.396571 -36.109966 70.859711
-18.794967 -37.278126 70.649074
-16.8654 -36.988283 70.255489
-17.851723 -37.156692 70.476993
-28.932653 -38.484079 64.071503
-28.592591 -38.809501 64.936504
-28.842843 -37.423861 64.839664
-7.313267 6.313737 64.632793
-7.238231 5.324706 64.775398
2.064045 -15.819314 60.58666
2.866038 -14.827983 60.00045
1.863268 -14.975559 60.785818
-29.977328 -16.326425 52.541475
-29.935679 -18.084784 52.729393
-30.090355 -16.855179 53.590093
-29.752965 -15.230768 50.337246
-29.790241 -13.530234 50.058242
-29.835197 -6.885025 47.585108
-29.893906 -7.429883 48.620138
-29.907511 -5.063607 47.370648
-29.835197 -6.885025 47.585108
-30.618319 13.984148 51.126465
-30.606228 13.367659 52.134766
-30.618986 14.680281 50.083276
-30.602311 12.611162 50.245973
-30.618319 13.984148 51.126465
-5.910618 -36.398428 63.93379
-5.439628 -35.307699 63.807794
-21.585412 -37.4708 70.788612
-22.153679 -36.306471 71.067868
-22.498145 -37.435692 70.709385
-20.700126 -37.465975 70.802605
-21.585412 -37.4708 70.788612
-29.75918 -39.12689 58.574036
-29.827724 -38.75543 57.643274
-12.797101 11.063191 66.726623
-13.029537 9.677404 67.167923
-12.127713 10.246542 66.578926
-14.738188 13.757464 66.988002
-14.108908 12.760958 66.945957
-15.715848 13.15142 67.556275
-14.738188 13.757464 66.988002
-2.58952 1.107214 62.39652
-1.680932 0.950727 61.792286
1.897584 -30.679139 57.29396
2.198654 -31.422075 56.573793
2.683443 -30.449418 56.344923
3.214958 -29.468186 56.078024
2.885283 -28.705326 56.847601
2.683443 -30.449418 56.344923
3.214958 -29.468186 56.078024
-23.762747 12.498223 69.1469
-22.911623 13.336601 69.034584
-23.443962 14.290675 68.715244
-26.568216 15.374682 67.277774
-26.116067 14.294965 67.829746
-27.240786 14.321177 67.01844
-26.568216 15.374682 67.277774
2.478576 -0.927176 59.162255
1.600866 -0.914404 59.785965
4.186795 -8.667938 58.88924
3.939971 -7.901169 59.004274
3.408734 -9.678241 59.537468
4.450356 -9.458835 58.746223
4.186795 -8.667938 58.88924
-29.800949 -29.225181 54.30534
-29.795502 -30.757949 54.597963
-29.897972 -29.60031 55.458731
-29.618538 -22.041638 51.185816
-29.642249 -20.398613 50.954803
-29.771895 13.87908 62.452561
-29.563224 13.293239 63.301019
-30.566403 12.869765 56.21153
-30.487375 14.274822 57.061287
-30.504988 14.944325 56.030253
-30.238846 3.940221 45.074913
-30.304146 5.368728 45.934591
-30.324011 6.014852 44.953806
-30.132928 1.885059 45.103382
-30.238846 3.940221 45.074913
-13.799904 -36.285149 69.233173
-14.405288 -35.353852 69.70491
-14.84901 -36.577644 69.630527
-12.770646 -36.093527 68.772628
-13.799904 -36.285149 69.233173
-27.212741 -39.551853 67.119339
-26.689646 -39.71042 67.688557
-27.0465 -38.378507 67.816082
-8.432916 10.524984 64.43034
-9.140141 9.924277 64.988147
-8.57495 9.352011 64.781471
-8.432916 10.524984 64.43034
-7.720363 10.861504 63.918108
-7.325889 8.48126 64.20092
-7.289292 7.419501 64.398296
-6.614838 8.100301 63.830555
-5.960545 8.962722 63.223022
-6.145737 9.893961 63.140858
-6.614838 8.100301 63.830555
-5.960545 8.962722 63.223022
0.620825 -17.723263 61.60655
1.332314 -16.734203 61.110588
0.349785 -16.955951 61.867991
0.996023 -18.513336 61.250754
0.620825 -17.723263 61.60655
0.013493 -18.735084 62.008156
1.322634 -19.408996 60.879928
0.996023 -18.513336 61.250754
0.667453 -20.382321 61.312067
1.601395 -20.266159 60.539637
1.322634 -19.408996 60.879928
-29.842845 -11.741726 49.907207
-29.790241 -13.530234 50.058242
-29.952188 -12.137501 51.037178
-29.914898 -9.855476 49.828164
-29.842845 -11.741726 49.907207
-29.963294 -8.034532 49.639958
-29.914898 -9.855476 49.828164
-30.053189 -8.528048 50.697937
-30.032197 -6.102455 49.489912
-29.893906 -7.429883 48.620138
-29.963294 -8.034532 49.639958
-30.6603 18.88975 49.804312
-30.651236 16.704656 49.983503
-30.693948 19.408559 48.727761
-30.6603 18.88975 49.804312
-30.716871 19.972845 47.656276
-30.690402 17.920331 47.931755
-30.693948 19.408559 48.727761
-30.754939 20.628017 46.619773
-30.716871 19.972845 47.656276
-7.693182 -36.978117 65.264538
-6.799088 -36.738684 64.611103
-7.309165 -35.816864 65.267708
-7.693182 -36.978117 65.264538
-8.617985 -37.241214 65.900478
-22.775468 -38.618734 70.255387
-22.498145 -37.435692 70.709385
-23.343736 -37.454405 70.534641
-23.095123 -39.817999 69.772182
-22.775468 -38.618734 70.255387
-23.095123 -39.817999 69.772182
-23.953904 -39.82493 69.493202
-29.87613 -36.261711 58.297779
-29.836782 -36.665527 59.333674
-29.883593 -35.24503 59.187579
-29.846658 -37.323667 57.420902
-29.87613 -36.261711 58.297779
-29.827724 -38.75543 57.643274
-29.846658 -37.323667 57.420902
-3.798902 3.250106 62.88134
-4.6667 3.362417 63.447544
-3.633542 2.260659 62.932052
-3.798902 3.250106 62.88134
-4.425885 1.301696 63.61116
-3.474573 1.264807 62.973091
-3.633542 2.260659 62.932052
3.070384 -24.243388 58.232851
2.857349 -23.448313 58.698984
3.070384 -24.243388 58.232851
2.543084 -25.255333 58.477381
2.535712 -27.883713 57.580665
2.289261 -27.046563 58.19352
2.032802 -28.884869 57.798154
2.885283 -28.705326 56.847601
2.535712 -27.883713 57.580665
-23.982962 15.333751 68.38723
-23.443962 14.290675 68.715244
-24.828167 14.359589 68.413521
-23.982962 15.333751 68.38723
2.825716 -2.713939 59.171323
2.697595 -1.776319 59.132234
1.886865 -2.825975 59.856964
2.825716 -2.713939 59.171323
3.020236 -3.603358 59.157995
3.793731 -6.991654 59.022114
3.634623 -6.141099 59.042604
2.998933 -7.977829 59.698324
3.939971 -7.901169 59.004274
3.793731 -6.991654 59.022114
-29.804274 -26.171886 53.758065
-29.790202 -27.646883 54.021667
-29.91749 -26.592544 54.902504
-29.687078 -25.652781 52.635111
-29.804274 -26.171886 53.758065
-29.814366 -24.598443 53.515947
-29.57364 -25.248782 51.529599
-29.687078 -25.652781 52.635111
-30.015164 15.557872 60.592444
-29.892705 14.639487 61.487498
-30.237367 14.212085 59.783829
-30.015164 15.557872 60.592444
-30.408352 12.840301 58.965544
-30.332352 12.069769 59.924162
-30.237367 14.212085 59.783829
-30.422196 8.026784 44.754625
-30.467197 9.535217 45.595976
-30.500083 10.118641 44.537117
-30.324011 6.014852 44.953806
-30.422196 8.026784 44.754625
-15.865934 -36.81719 69.962806
-16.453861 -35.81744 70.394947
-16.8654 -36.988283 70.255489
-14.84901 -36.577644 69.630527
-15.865934 -36.81719 69.962806
-28.19397 -39.056116 65.714451
-27.727377 -39.291444 66.48555
-28.036188 -37.984611 66.475765
-28.19397 -39.056116 65.714451
-28.592591 -38.809501 64.936504
-11.231778 10.874928 65.95483
-12.127713 10.246542 66.578926
-11.464214 9.489141 66.39613
-9.783193 10.607389 65.204525
-9.925227 9.434416 65.555656
-9.140141 9.924277 64.988147
-10.345385 11.387946 65.338394
-9.783193 10.607389 65.204525
-11.231778 10.874928 65.95483
-10.345385 11.387946 65.338394
-7.187945 4.245413 64.93293
-7.152792 3.134695 65.099548
-7.998006 4.509638 65.395187
-7.187945 4.245413 64.93293
-7.238231 5.324706 64.775398
-8.024318 6.694695 65.003158
-7.313267 6.313737 64.632793
-7.289292 7.419501 64.398296
3.575807 -13.892516 59.47781
3.400438 -13.057409 59.637934
3.575807 -13.892516 59.47781
2.866038 -14.827983 60.00045
2.064045 -15.819314 60.58666
1.332314 -16.734203 61.110588
1.950737 -21.046985 60.09541
1.601395 -20.266159 60.539637
2.268506 -21.830596 59.664551
1.950737 -21.046985 60.09541
1.263985 -22.023096 60.540917
2.552789 -22.611269 59.204542
2.268506 -21.830596 59.664551
1.886315 -23.643751 59.6045
2.857349 -23.448313 58.698984
2.552789 -22.611269 59.204542
-18.853099 13.82035 68.442612
-17.949563 14.454838 68.031903
0.460301 -0.020253 60.453253
0.246236 0.896169 60.461582
0.6477 -0.922373 60.452524
0.460301 -0.020253 60.453253
-0.334985 -1.002174 61.151722
0.80558 -1.896324 60.484434
1.600866 -0.914404 59.785965
0.6477 -0.922373 60.452524
-29.788787 -19.221905 51.870027
-29.901813 -19.750659 52.918645
-29.935679 -18.084784 52.729393
-29.642249 -20.398613 50.954803
-29.788787 -19.221905 51.870027
-29.861118 -15.74102 51.434494
-29.977328 -16.326425 52.541475
-30.015794 -14.511414 52.295194
-29.861118 -15.74102 51.434494
-29.752965 -15.230768 50.337246
-30.549772 15.55464 55.003811
-30.504988 14.944325 56.030253
-30.597413 14.179778 54.080433
-30.549772 15.55464 55.003811
-30.614635 12.776722 53.205427
-30.601237 12.136214 54.30549
-30.597413 14.179778 54.080433
-30.610053 11.324094 52.359823
-30.614635 12.776722 53.205427
-30.606228 13.367659 52.134766
-30.635229 15.33167 49.103012
-30.618986 14.680281 50.083276
-30.651236 16.704656 49.983503
-30.658273 14.234713 44.229755
-30.58987 12.217568 44.418888
-30.613487 13.644219 45.189335
-30.737884 16.191636 43.999223
-30.658273 14.234713 44.229755
-30.796233 18.267785 43.884409
-30.737884 16.191636 43.999223
-30.740239 17.737513 44.885388
-30.859158 20.329192 43.783026
-30.796233 18.267785 43.884409
-30.79757 21.292539 45.574924
-30.755957 19.14914 45.815422
-30.754939 20.628017 46.619773
-30.847983 21.823341 44.528545
-30.79757 21.292539 45.574924
-30.859158 20.329192 43.783026
-30.847983 21.823341 44.528545
-5.910618 -36.398428 63.93379
-6.799088 -36.738684 64.611103
-19.749561 -37.410885 70.744954
-20.290381 -36.28649 71.089443
-20.700126 -37.465975 70.802605
-18.794967 -37.278126 70.649074
-19.749561 -37.410885 70.744954
-29.423012 -37.975468 62.266417
-29.215583 -38.261149 63.180884
-29.390334 -36.812758 63.060196
-29.441299 -39.021727 61.421309
-29.423012 -37.975468 62.266417
-29.616051 -37.573336 61.300621
-29.505753 -40.008394 60.530617
-29.441299 -39.021727 61.421309
-29.66169 -39.595583 59.579855
-29.731828 -38.150902 59.449694
-29.75918 -39.12689 58.574036
-29.505753 -40.008394 60.530617
-29.66169 -39.595583 59.579855
-13.443603 11.892898 66.850578
-12.797101 11.063191 66.726623
-14.36423 11.362112 67.410999
-13.443603 11.892898 66.850578
-14.108908 12.760958 66.945957
-16.683279 12.585136 68.068737
-15.996967 11.663888 68.01884
-15.715848 13.15142 67.556275
-17.337297 13.43752 68.076
-17.618415 11.949988 68.538567
-16.683279 12.585136 68.068737
-17.949563 14.454838 68.031903
-17.337297 13.43752 68.076
-7.931332 2.272318 65.719021
-7.136403 1.976669 65.26585
-7.152792 3.134695 65.099548
-0.693719 0.905371 61.118983
0.246236 0.896169 60.461582
-1.509597 -0.054697 61.825755
-0.693719 0.905371 61.118983
-1.680932 0.950727 61.792286
-3.381863 0.148252 63.075629
-2.58952 1.107214 62.39652
-3.474573 1.264807 62.973091
-29.944305 -31.567644 56.74312
-29.884412 -32.63241 55.929905
-29.936191 -33.066975 56.921671
-28.974592 13.736942 64.750446
-28.520884 14.892975 65.248188
1.733131 -32.355865 56.801391
2.198654 -31.422075 56.573793
0.954114 -32.658074 57.71896
1.733131 -32.355865 56.801391
0.133396 -32.83706 58.658162
0.954114 -32.658074 57.71896
0.592077 -31.830782 58.462032
-0.678354 -33.076452 59.568798
0.133396 -32.83706 58.658162
-1.534356 -33.296473 60.455179
-0.678354 -33.076452 59.568798
-1.084643 -32.229789 60.287615
-2.326083 -33.52396 61.266758
-1.534356 -33.296473 60.455179
-3.218772 -33.752496 62.108208
-2.326083 -33.52396 61.266758
-2.833334 -32.678347 62.015445
-4.095105 -33.972425 62.929106
-3.218772 -33.752496 62.108208
-5.008354 -34.171002 63.714854
-4.095105 -33.972425 62.929106
-4.639273 -33.105459 63.642643
-5.983797 -34.440733 64.521332
-5.439628 -35.307699 63.807794
-5.008354 -34.171002 63.714854
-29.963008 -33.846953 59.037079
-29.883593 -35.24503 59.187579
-29.92366 -34.250769 60.072974
-29.959513 -33.421711 57.943285
-29.963008 -33.846953 59.037079
-29.999579 -32.42745 58.82868
-29.936191 -33.066975 56.921671
-29.959513 -33.421711 57.943285
-19.767984 13.096627 68.829273
-19.187317 12.078649 68.932491
-18.853099 13.82035 68.442612
-20.729881 12.297363 69.179299
-19.767984 13.096627 68.829273
-21.661066 11.513039 69.470684
-21.033388 10.570603 69.610538
-20.729881 12.297363 69.179299
-22.293983 12.391974 69.252842
-22.911623 13.336601 69.034584
-22.59749 10.665215 69.684082
-21.661066 11.513039 69.470684
-22.293983 12.391974 69.252842
-25.656052 13.384633 68.371231
-25.122971 12.477341 68.78527
-24.828167 14.359589 68.413521
-26.410871 12.412717 68.201496
-25.656052 13.384633 68.371231
-26.116067 14.294965 67.829746
-27.879424 13.185921 66.709869
-27.509524 12.187794 67.35144
-27.240786 14.321177 67.01844
-28.176584 14.063726 65.974148
-28.445323 11.930343 66.307148
-27.879424 13.185921 66.709869
-28.520884 14.892975 65.248188
-28.176584 14.063726 65.974148
2.478576 -0.927176 59.162255
2.697595 -1.776319 59.132234
4.628436 -10.31056 58.652042
4.450356 -9.458835 58.746223
3.903955 -11.299864 59.235355
4.628436 -10.31056 58.652042
3.118258 -12.264416 59.85198
3.903955 -11.299864 59.235355
2.886598 -11.433689 60.011076
2.383081 -13.191235 60.413654
3.400438 -13.057409 59.637934
3.118258 -12.264416 59.85198
-29.82066 -32.259383 54.885938
-29.884412 -32.63241 55.929905
-29.82066 -32.259383 54.885938
-29.795502 -30.757949 54.597963
-29.800949 -29.225181 54.30534
-29.790202 -27.646883 54.021667
-29.589662 -23.637417 51.352672
-29.726045 -22.483559 52.226137
-29.618538 -22.041638 51.185816
-29.57364 -25.248782 51.529599
-29.589662 -23.637417 51.352672
-29.404029 12.478879 64.194866
-29.17192 11.550083 65.015846
-28.974592 13.736942 64.750446
-29.760552 11.106379 63.56642
-29.404029 12.478879 64.194866
-29.563224 13.293239 63.301019
-30.040557 12.681147 61.70751
-29.771895 13.87908 62.452561
-29.892705 14.639487 61.487498
-30.431079 13.591439 58.033888
-30.487375 14.274822 57.061287
-30.526063 11.449123 58.174221
-30.408352 12.840301 58.965544
-30.431079 13.591439 58.033888
-29.974731 -3.259381 47.248764
-29.907511 -5.063607 47.370648
-30.030029 -3.693582 48.348209
-29.941815 -2.707373 46.188675
-29.974731 -3.259381 47.248764
-30.064334 -1.337348 47.166237
-29.934686 -2.133665 45.264149
-29.941815 -2.707373 46.188675
-30.039147 -0.15466 45.128607
-30.1252 1.254379 46.080923
-30.132928 1.885059 45.103382
-29.934686 -2.133665 45.264149
-30.039147 -0.15466 45.128607
-11.781813 -35.953153 68.272171
-12.367349 -34.920983 68.807098
-12.770646 -36.093527 68.772628
-11.178323 -36.843601 67.704208
-10.775025 -35.671056 67.738678
-11.781813 -35.953153 68.272171
-10.579116 -37.769596 67.097297
-11.178323 -36.843601 67.704208
-26.115431 -39.751363 68.225597
-25.447325 -39.84481 68.703957
-25.855299 -38.630522 68.863659
-26.115431 -39.751363 68.225597
-26.689646 -39.71042 67.688557
-27.212741 -39.551853 67.119339
-27.727377 -39.291444 66.48555
-28.932653 -38.484079 64.071503
-29.215583 -38.261149 63.180884
3 520 519 129
3 521 129 522
3 523 522 130
3 521 522 523
3 524 130 525
3 0 134 132
3 1 137 135
3 0 140 138
3 0 132 140
3 1 143 142
3 1 135 143
3 2 147 145
3 4 150 148
3 2 153 151
3 2 145 153
3 4 157 155
3 4 148 157
3 6 161 159
3 6 162 161
3 3 165 163
3 7 526 528
3 528 527 167
3 526 527 528
3 7 529 530
3 5 170 168
3 8 173 171
3 8 531 533
3 533 532 173
3 531 532 533
3 8 534 535
3 9 177 175
3 536 180 537
3 538 537 178
3 536 537 538
3 9 183 181
3 9 175 183
3 539 185 540
3 541 178 542
3 543 542 185
3 541 542 543
3 12 189 187
3 14 192 190
3 14 194 192
3 15 197 195
3 16 200 198
3 16 202 200
3 17 205 203
3 19 208 206
3 19 210 208
3 19 212 210
3 12 215 213
3 12 187 215
3 15 544 546
3 546 545 217
3 544 545 546
3 15 547 549
3 547 195 548
3 547 548 549
3 21 220 218
3 23 223 221
3 23 225 223
3 10 228 226
3 24 231 229
3 26 234 232
3 26 236 234
3 11 239 237
3 27 242 240
3 27 244 242
3 27 246 244
3 21 249 247
3 21 218 249
3 28 550 552
3 552 551 251
3 550 551 552
3 28 553 554
3 28 555 557
3 555 252 556
3 555 556 557
3 24 255 253
3 24 229 255
3 13 258 257
3 22 261 259
3 29 264 262
3 29 266 264
3 30 270 268
3 30 272 270
3 30 274 272
3 559 558 275
3 25 279 277
3 31 282 280
3 31 284 282
3 18 287 285
3 560 290 561
3 562 561 288
3 560 561 562
3 564 563 290
3 20 565 567
3 567 566 292
3 565 566 567
3 32 295 293
3 568 297 569
3 32 298 131
3 32 293 298
3 34 301 299
3 36 302 133
3 36 303 302
3 37 306 304
3 39 307 136
3 39 308 307
3 40 311 309
3 42 312 139
3 42 313 312
3 42 315 313
3 34 316 141
3 34 299 316
3 44 570 572
3 572 571 317
3 570 571 572
3 37 318 144
3 37 304 318
3 45 321 319
3 47 322 146
3 47 323 322
3 48 326 324
3 50 327 149
3 50 328 327
3 51 331 329
3 53 332 152
3 53 333 332
3 53 335 333
3 45 336 154
3 45 319 336
3 55 338 337
3 57 339 156
3 57 340 339
3 57 342 340
3 48 343 158
3 48 324 343
3 59 573 575
3 575 574 344
3 573 574 575
3 577 576 160
3 60 578 579
3 60 580 581
3 61 348 346
3 63 349 164
3 63 350 349
3 582 351 583
3 584 353 585
3 586 585 351
3 584 585 586
3 66 354 166
3 66 355 354
3 66 356 355
3 67 587 588
3 68 359 357
3 70 360 169
3 70 361 360
3 71 364 362
3 589 365 590
3 591 590 172
3 589 590 591
3 593 592 365
3 73 367 366
3 595 594 174
3 74 370 368
3 76 371 176
3 76 372 371
3 596 373 597
3 598 597 294
3 596 597 598
3 599 374 600
3 602 601 374
3 77 377 375
3 79 378 179
3 79 379 378
3 33 380 296
3 80 381 182
3 80 382 381
3 80 383 382
3 74 384 184
3 74 368 384
3 603 385 604
3 77 386 186
3 77 375 386
3 81 389 387
3 83 390 188
3 83 391 390
3 35 392 300
3 84 393 191
3 84 394 393
3 84 395 394
3 85 396 193
3 85 397 396
3 86 605 607
3 605 398 606
3 605 606 607
3 87 399 196
3 87 400 399
3 38 401 305
3 88 402 199
3 88 403 402
3 88 404 403
3 89 405 201
3 89 406 405
3 90 409 407
3 92 410 204
3 92 411 410
3 41 412 310
3 93 413 207
3 93 414 413
3 93 415 414
3 94 416 209
3 94 417 416
3 94 419 417
3 96 420 211
3 96 421 420
3 43 422 314
3 97 423 214
3 97 424 423
3 97 425 424
3 81 426 216
3 81 387 426
3 86 608 609
3 86 610 611
3 98 429 427
3 100 430 219
3 100 431 430
3 46 432 320
3 101 433 222
3 101 434 433
3 101 435 434
3 102 436 224
3 102 437 436
3 75 438 369
3 103 439 227
3 103 440 439
3 104 612 614
3 612 441 613
3 612 613 614
3 104 442 441
3 104 443 442
3 615 444 616
3 618 617 444
3 105 447 445
3 107 448 230
3 107 449 448
3 49 450 325
3 108 451 233
3 108 452 451
3 108 453 452
3 109 454 235
3 109 455 454
3 78 456 376
3 110 457 238
3 110 458 457
3 52 459 330
3 111 460 241
3 111 461 460
3 111 462 461
3 112 463 243
3 112 464 463
3 112 465 464
3 113 466 245
3 113 467 466
3 54 468 334
3 114 469 248
3 114 470 469
3 114 471 470
3 98 472 250
3 98 427 472
3 56 619 620
3 115 621 622
3 115 623 625
3 623 473 624
3 623 624 625
3 58 474 341
3 116 475 254
3 116 476 475
3 116 477 476
3 105 478 256
3 105 445 478
3 82 626 628
3 628 627 388
3 626 627 628
3 630 629 345
3 99 479 428
3 117 480 260
3 117 481 480
3 62 482 347
3 118 483 263
3 118 484 483
3 118 485 484
3 119 486 265
3 119 487 486
3 631 488 632
3 120 489 267
3 120 490 489
3 64 633 635
3 633 491 634
3 633 634 635
3 121 492 269
3 121 493 492
3 121 494 493
3 122 495 271
3 122 496 495
3 122 497 496
3 123 498 273
3 123 499 498
3 65 500 352
3 636 501 637
3 638 637 276
3 636 637 638
3 640 639 501
3 106 502 446
3 124 503 278
3 124 504 503
3 69 505 358
3 125 506 281
3 125 507 506
3 125 508 507
3 126 509 283
3 126 510 509
3 91 511 408
3 127 512 286
3 127 513 512
3 72 514 363
3 128 515 289
3 128 516 515
3 128 517 516
3 641 518 642
3 643 642 291
3 641 642 643
3 645 644 518
3 95 646 648
3 648 647 418
3 646 647 648
3 129 649 651
3 651 650 32
3 649 650 651
3 653 652 129
3 130 654 656
3 654 131 655
3 654 655 656
3 129 131 130
3 129 32 131
3 130 657 658
3 130 659 660
3 132 133 34
3 134 133 132
3 134 36 133
3 135 136 37
3 137 136 135
3 137 39 136
3 138 139 40
3 140 139 138
3 140 42 139
3 140 141 42
3 132 141 140
3 132 34 141
3 142 661 663
3 663 662 44
3 661 662 663
3 143 664 666
3 666 665 142
3 664 665 666
3 143 667 668
3 143 669 671
3 669 144 670
3 669 670 671
3 135 144 143
3 135 37 144
3 145 146 45
3 147 146 145
3 147 47 146
3 148 149 48
3 150 149 148
3 150 50 149
3 151 152 51
3 153 152 151
3 153 53 152
3 153 154 53
3 145 154 153
3 145 45 154
3 155 156 55
3 157 156 155
3 157 57 156
3 157 158 57
3 148 158 157
3 148 48 158
3 159 160 59
3 161 160 159
3 161 672 674
3 674 673 160
3 672 673 674
3 161 675 676
3 162 677 679
3 679 678 161
3 677 678 679
3 162 680 682
3 680 60 681
3 680 681 682
3 163 164 61
3 165 164 163
3 165 63 164
3 683 166 684
3 685 166 686
3 687 66 688
3 689 688 166
3 687 688 689
3 691 690 66
3 167 692 694
3 694 693 67
3 692 693 694
3 696 695 167
3 168 169 68
3 170 169 168
3 170 70 169
3 171 172 71
3 173 172 171
3 173 697 699
3 699 698 172
3 697 698 699
3 173 700 701
3 703 702 173
3 704 174 705
3 706 705 73
3 704 705 706
3 707 174 708
3 710 709 174
3 175 176 74
3 177 176 175
3 177 76 176
3 178 179 77
3 180 179 178
3 180 79 179
3 181 182 33
3 183 182 181
3 183 80 182
3 183 184 80
3 175 184 183
3 175 74 184
3 185 711 712
3 185 713 714
3 185 715 717
3 715 186 716
3 715 716 717
3 178 186 185
3 178 77 186
3 187 188 81
3 189 188 187
3 189 83 188
3 190 191 35
3 192 191 190
3 192 84 191
3 192 193 84
3 194 193 192
3 194 85 193
3 195 196 86
3 197 196 195
3 197 87 196
3 198 199 38
3 200 199 198
3 200 88 199
3 200 201 88
3 202 201 200
3 202 89 201
3 203 204 90
3 205 204 203
3 205 92 204
3 206 207 41
3 208 207 206
3 208 93 207
3 208 209 93
3 210 209 208
3 210 94 209
3 210 211 94
3 212 211 210
3 212 96 211
3 213 214 43
3 215 214 213
3 215 97 214
3 215 216 97
3 187 216 215
3 187 81 216
3 217 718 719
3 721 720 217
3 195 722 723
3 195 724 726
3 724 86 725
3 724 725 726
3 218 219 98
3 220 219 218
3 220 100 219
3 221 222 46
3 223 222 221
3 223 101 222
3 223 224 101
3 225 224 223
3 225 102 224
3 226 227 75
3 228 227 226
3 228 103 227
3 727 104 728
3 730 729 104
3 229 230 105
3 231 230 229
3 231 107 230
3 232 233 49
3 234 233 232
3 234 108 233
3 234 235 108
3 236 235 234
3 236 109 235
3 237 238 78
3 239 238 237
3 239 110 238
3 240 241 52
3 242 241 240
3 242 111 241
3 242 243 111
3 244 243 242
3 244 112 243
3 244 245 112
3 246 245 244
3 246 113 245
3 247 248 54
3 249 248 247
3 249 114 248
3 249 250 114
3 218 250 249
3 218 98 250
3 251 731 733
3 733 732 56
3 731 732 733
3 735 734 251
3 252 736 737
3 252 738 740
3 738 115 739
3 738 739 740
3 253 254 58
3 255 254 253
3 255 116 254
3 255 256 116
3 229 256 255
3 229 105 256
3 257 741 743
3 743 742 82
3 741 742 743
3 258 744 746
3 746 745 257
3 744 745 746
3 258 747 748
3 259 260 99
3 261 260 259
3 261 117 260
3 262 263 62
3 264 263 262
3 264 118 263
3 264 265 118
3 266 265 264
3 266 119 265
3 749 267 750
3 751 267 752
3 753 120 754
3 755 754 267
3 753 754 755
3 268 269 64
3 270 269 268
3 270 121 269
3 270 271 121
3 272 271 270
3 272 122 271
3 272 273 122
3 274 273 272
3 274 123 273
3 275 276 65
3 756 276 757
3 758 757 275
3 756 757 758
3 760 759 276
3 277 278 106
3 279 278 277
3 279 124 278
3 280 281 69
3 282 281 280
3 282 125 281
3 282 283 125
3 284 283 282
3 284 126 283
3 285 286 91
3 287 286 285
3 287 127 286
3 288 289 72
3 290 289 288
3 290 128 289
3 290 291 128
3 761 291 762
3 763 762 290
3 761 762 763
3 765 764 291
3 292 766 768
3 768 767 95
3 766 767 768
3 770 769 292
3 293 294 9
3 295 294 293
3 295 771 773
3 773 772 294
3 771 772 773
3 774 295 775
3 776 775 32
3 774 775 776
3 777 295 778
3 780 779 295
3 781 296 782
3 297 783 785
3 783 296 784
3 783 784 785
3 297 33 296
3 131 786 788
3 786 297 787
3 786 787 788
3 298 297 131
3 298 33 297
3 298 181 33
3 293 181 298
3 293 9 181
3 299 300 12
3 301 300 299
3 301 35 300
3 133 301 34
3 302 301 133
3 302 35 301
3 302 190 35
3 303 190 302
3 303 14 190
3 304 305 15
3 306 305 304
3 306 38 305
3 136 306 37
3 307 306 136
3 307 38 306
3 307 198 38
3 308 198 307
3 308 16 198
3 309 310 17
3 311 310 309
3 311 41 310
3 139 311 40
3 312 311 139
3 312 41 311
3 312 206 41
3 313 206 312
3 313 19 206
3 313 314 19
3 315 314 313
3 315 43 314
3 141 315 42
3 316 315 141
3 316 43 315
3 316 213 43
3 299 213 316
3 299 12 213
3 317 789 790
3 792 791 317
3 794 793 44
3 144 795 796
3 318 797 799
3 799 798 144
3 797 798 799
3 318 800 801
3 318 802 804
3 802 217 803
3 802 803 804
3 304 217 318
3 304 15 217
3 319 320 21
3 321 320 319
3 321 46 320
3 146 321 45
3 322 321 146
3 322 46 321
3 322 221 46
3 323 221 322
3 323 23 221
3 806 805 10
3 324 325 24
3 326 325 324
3 326 49 325
3 149 326 48
3 327 326 149
3 327 49 326
3 327 232 49
3 328 232 327
3 328 26 232
3 329 330 11
3 331 330 329
3 331 52 330
3 152 331 51
3 332 331 152
3 332 52 331
3 332 240 52
3 333 240 332
3 333 27 240
3 333 334 27
3 335 334 333
3 335 54 334
3 154 335 53
3 336 335 154
3 336 54 335
3 336 247 54
3 319 247 336
3 319 21 247
3 337 807 808
3 338 809 811
3 811 810 337
3 809 810 811
3 338 812 814
3 812 56 813
3 812 813 814
3 156 338 55
3 339 338 156
3 339 56 338
3 339 251 56
3 340 251 339
3 340 28 251
3 340 341 28
3 342 341 340
3 342 58 341
3 158 342 57
3 343 342 158
3 343 58 342
3 343 253 58
3 324 253 343
3 324 24 253
3 344 345 13
3 815 345 816
3 817 816 344
3 815 816 817
3 819 818 345
3 160 820 822
3 822 821 59
3 820 821 822
3 824 823 160
3 346 347 22
3 348 347 346
3 348 62 347
3 164 348 61
3 349 348 164
3 349 62 348
3 349 262 62
3 350 262 349
3 350 29 262
3 825 64 826
3 827 64 828
3 829 268 830
3 831 830 64
3 829 830 831
3 351 832 834
3 832 268 833
3 832 833 834
3 351 30 268
3 351 352 30
3 353 352 351
3 353 65 352
3 166 835 837
3 835 353 836
3 835 836 837
3 354 353 166
3 354 65 353
3 354 275 65
3 355 275 354
3 355 838 840
3 840 839 275
3 838 839 840
3 355 841 842
3 356 843 845
3 845 844 355
3 843 844 845
3 356 846 847
3 848 356 849
3 850 849 66
3 848 849 850
3 851 356 852
3 854 853 356
3 856 855 67
3 357 358 25
3 359 358 357
3 359 69 358
3 169 359 68
3 360 359 169
3 360 69 359
3 360 280 69
3 361 280 360
3 361 31 280
3 362 363 18
3 364 363 362
3 364 72 363
3 172 364 71
3 365 364 172
3 365 72 364
3 365 288 72
3 857 288 858
3 859 858 365
3 857 858 859
3 861 860 288
3 366 862 864
3 864 863 20
3 862 863 864
3 367 865 867
3 867 866 366
3 865 866 867
3 367 868 869
3 174 367 73
3 870 367 871
3 872 871 174
3 870 871 872
3 874 873 367
3 368 369 2
3 370 369 368
3 370 75 369
3 176 370 74
3 371 370 176
3 371 75 370
3 371 226 75
3 372 226 371
3 372 10 226
3 294 177 9
3 373 177 294
3 373 76 177
3 875 373 876
3 374 877 879
3 877 373 878
3 877 878 879
3 374 76 373
3 374 372 76
3 880 372 881
3 882 881 374
3 880 881 882
3 883 10 884
3 885 884 372
3 883 884 885
3 887 886 10
3 375 376 4
3 377 376 375
3 377 78 376
3 179 377 77
3 378 377 179
3 378 78 377
3 378 237 78
3 379 237 378
3 379 11 237
3 296 888 890
3 888 180 889
3 888 889 890
3 380 180 296
3 380 79 180
3 182 380 33
3 381 380 182
3 381 79 380
3 381 379 79
3 382 379 381
3 382 11 379
3 382 329 11
3 383 329 382
3 383 51 329
3 184 383 80
3 384 383 184
3 384 51 383
3 384 151 51
3 368 151 384
3 368 2 151
3 891 337 892
3 385 893 895
3 893 337 894
3 893 894 895
3 385 55 337
3 186 896 898
3 896 385 897
3 896 897 898
3 386 385 186
3 386 55 385
3 386 155 55
3 375 155 386
3 375 4 155
3 387 899 901
3 899 388 900
3 899 900 901
3 389 388 387
3 389 82 388
3 188 389 81
3 390 389 188
3 390 82 389
3 390 257 82
3 391 257 390
3 391 13 257
3 300 189 12
3 392 189 300
3 392 83 189
3 191 392 35
3 393 392 191
3 393 83 392
3 393 391 83
3 394 391 393
3 394 13 391
3 394 344 13
3 395 344 394
3 395 59 344
3 193 395 84
3 396 395 193
3 396 59 395
3 396 159 59
3 397 159 396
3 397 6 159
3 903 902 3
3 398 904 905
3 398 906 907
3 196 398 86
3 399 398 196
3 399 908 910
3 910 909 398
3 908 909 910
3 399 911 912
3 400 913 915
3 915 914 399
3 913 914 915
3 400 916 917
3 305 197 15
3 401 197 305
3 401 87 197
3 199 401 38
3 402 401 199
3 402 87 401
3 402 400 87
3 403 400 402
3 403 918 920
3 920 919 400
3 918 919 920
3 403 921 922
3 404 923 925
3 925 924 403
3 923 924 925
3 404 926 928
3 926 67 927
3 926 927 928
3 201 404 88
3 405 404 201
3 405 67 404
3 405 167 67
3 406 167 405
3 406 7 167
3 407 408 5
3 409 408 407
3 409 91 408
3 204 409 90
3 410 409 204
3 410 91 409
3 410 285 91
3 411 285 410
3 411 18 285
3 310 205 17
3 412 205 310
3 412 92 205
3 207 412 41
3 413 412 207
3 413 92 412
3 413 411 92
3 414 411 413
3 414 18 411
3 414 362 18
3 415 362 414
3 415 71 362
3 209 415 93
3 416 415 209
3 416 71 415
3 416 171 71
3 417 171 416
3 417 8 171
3 417 418 8
3 419 418 417
3 419 95 418
3 211 419 94
3 420 419 211
3 420 95 419
3 420 292 95
3 421 292 420
3 421 20 292
3 314 212 19
3 422 212 314
3 422 96 212
3 214 422 43
3 423 422 214
3 423 96 422
3 423 421 96
3 424 421 423
3 424 20 421
3 424 366 20
3 425 366 424
3 425 73 366
3 216 425 97
3 426 425 216
3 426 73 425
3 426 929 931
3 931 930 73
3 929 930 931
3 387 932 934
3 934 933 426
3 932 933 934
3 387 935 936
3 427 428 0
3 429 428 427
3 429 99 428
3 219 429 98
3 430 429 219
3 430 99 429
3 430 259 99
3 431 259 430
3 431 22 259
3 320 220 21
3 432 220 320
3 432 100 220
3 222 432 46
3 433 432 222
3 433 100 432
3 433 431 100
3 434 431 433
3 434 22 431
3 434 346 22
3 435 346 434
3 435 61 346
3 224 435 101
3 436 435 224
3 436 61 435
3 436 163 61
3 437 163 436
3 437 3 163
3 369 147 2
3 438 147 369
3 438 47 147
3 227 438 75
3 439 438 227
3 439 47 438
3 439 323 47
3 440 323 439
3 440 23 323
3 937 228 938
3 939 938 10
3 937 938 939
3 940 228 941
3 942 103 943
3 944 943 228
3 942 943 944
3 441 945 946
3 441 947 949
3 947 103 948
3 947 948 949
3 441 440 103
3 442 440 441
3 442 23 440
3 442 225 23
3 443 225 442
3 443 102 225
3 950 443 951
3 952 951 104
3 950 951 952
3 444 953 955
3 953 443 954
3 953 954 955
3 444 102 443
3 444 437 102
3 956 437 957
3 958 957 444
3 956 957 958
3 959 3 960
3 961 960 437
3 959 960 961
3 963 962 3
3 445 446 1
3 447 446 445
3 447 106 446
3 230 447 105
3 448 447 230
3 448 106 447
3 448 277 106
3 449 277 448
3 449 25 277
3 325 231 24
3 450 231 325
3 450 107 231
3 233 450 49
3 451 450 233
3 451 107 450
3 451 449 107
3 452 449 451
3 452 25 449
3 452 357 25
3 453 357 452
3 453 68 357
3 235 453 108
3 454 453 235
3 454 68 453
3 454 168 68
3 455 168 454
3 455 5 168
3 376 150 4
3 456 150 376
3 456 50 150
3 238 456 78
3 457 456 238
3 457 50 456
3 457 328 50
3 458 328 457
3 458 26 328
3 330 239 11
3 459 239 330
3 459 110 239
3 241 459 52
3 460 459 241
3 460 110 459
3 460 458 110
3 461 458 460
3 461 26 458
3 461 236 26
3 462 236 461
3 462 109 236
3 243 462 111
3 463 462 243
3 463 109 462
3 463 455 109
3 464 455 463
3 464 5 455
3 464 407 5
3 465 407 464
3 465 90 407
3 245 465 112
3 466 465 245
3 466 90 465
3 466 203 90
3 467 203 466
3 467 17 203
3 334 246 27
3 468 246 334
3 468 113 246
3 248 468 54
3 469 468 248
3 469 113 468
3 469 467 113
3 470 467 469
3 470 17 467
3 470 309 17
3 471 309 470
3 471 40 309
3 250 471 114
3 472 471 250
3 472 40 471
3 472 138 40
3 427 138 472
3 427 0 138
3 965 964 56
3 473 966 967
3 473 968 969
3 341 252 28
3 474 252 341
3 474 115 252
3 254 474 58
3 475 474 254
3 475 115 474
3 475 473 115
3 476 473 475
3 476 970 972
3 972 971 473
3 970 971 972
3 476 973 975
3 973 317 974
3 973 974 975
3 477 317 476
3 477 44 317
3 256 477 116
3 478 477 256
3 478 44 477
3 478 142 44
3 445 142 478
3 445 1 142
3 388 976 977
3 979 978 388
3 981 980 82
3 345 258 13
3 982 258 983
3 984 983 345
3 982 983 984
3 986 985 258
3 428 134 0
3 479 134 428
3 479 36 134
3 260 479 99
3 480 479 260
3 480 36 479
3 480 303 36
3 481 303 480
3 481 14 303
3 347 261 22
3 482 261 347
3 482 117 261
3 263 482 62
3 483 482 263
3 483 117 482
3 483 481 117
3 484 481 483
3 484 14 481
3 484 194 14
3 485 194 484
3 485 85 194
3 265 485 118
3 486 485 265
3 486 85 485
3 486 397 85
3 487 397 486
3 487 6 397
3 987 165 988
3 989 988 3
3 987 988 989
3 488 990 992
3 990 165 991
3 990 991 992
3 488 63 165
3 267 993 995
3 993 488 994
3 993 994 995
3 489 488 267
3 489 63 488
3 489 350 63
3 490 350 489
3 490 29 350
3 491 996 997
3 491 998 1000
3 998 120 999
3 998 999 1000
3 269 491 64
3 492 491 269
3 492 120 491
3 492 490 120
3 493 490 492
3 493 29 490
3 493 266 29
3 494 266 493
3 494 119 266
3 271 494 121
3 495 494 271
3 495 119 494
3 495 487 119
3 496 487 495
3 496 6 487
3 496 162 6
3 497 162 496
3 497 60 162
3 273 497 122
3 498 497 273
3 498 60 497
3 498 1001 1003
3 1003 1002 60
3 1001 1002 1003
3 499 1004 1006
3 1006 1005 498
3 1004 1005 1006
3 499 1007 1008
3 352 274 30
3 500 274 352
3 500 123 274
3 276 500 65
3 501 500 276
3 501 123 500
3 501 499 123
3 1009 499 1010
3 1011 1010 501
3 1009 1010 1011
3 1013 1012 499
3 446 137 1
3 502 137 446
3 502 39 137
3 278 502 106
3 503 502 278
3 503 39 502
3 503 308 39
3 504 308 503
3 504 16 308
3 358 279 25
3 505 279 358
3 505 124 279
3 281 505 69
3 506 505 281
3 506 124 505
3 506 504 124
3 507 504 506
3 507 16 504
3 507 202 16
3 508 202 507
3 508 89 202
3 283 508 125
3 509 508 283
3 509 89 508
3 509 406 89
3 510 406 509
3 510 7 406
3 408 170 5
3 511 170 408
3 511 70 170
3 286 511 91
3 512 511 286
3 512 70 511
3 512 361 70
3 513 361 512
3 513 31 361
3 363 287 18
3 514 287 363
3 514 127 287
3 289 514 72
3 515 514 289
3 515 127 514
3 515 513 127
3 516 513 515
3 516 31 513
3 516 284 31
3 517 284 516
3 517 126 284
3 291 517 128
3 518 517 291
3 518 126 517
3 518 510 126
3 1014 510 1015
3 1016 1015 518
3 1014 1015 1016
3 1017 7 1018
3 1019 1018 510
3 1017 1018 1019
3 1021 1020 7
3 418 1022 1024
3 1024 1023 8
3 1022 1023 1024
3 1026 1025 418
3 1028 1027 95
3 1030 1029 20
