ply
format ascii 1.0
element vertex 533
property float x
property float y
property float z
element face 565
property list uchar int vertex_index
end_header
-28.66691 -40.43227 32.491753
-6.165545 -51.718369 41.303448
-16.961929 -45.775288 35.702457
-23.17733 -42.731667 34.121193
-3.286701 -61.529068 37.423981
-11.319777 -48.851643 37.986652
-8.931402 -58.904259 35.456985
-26.020565 -34.168747 34.553848
-32.090153 -34.016129 31.186029
-14.094923 -38.822979 39.281193
-19.727766 -36.093372 36.652546
-26.182564 -41.504459 33.336746
-2.084158 -58.167946 41.223392
-4.728964 -56.80302 39.593399
-14.033059 -47.435257 36.708378
-12.924501 -52.296238 35.933598
-24.78944 -30.365482 35.645882
-28.037134 -30.010967 34.150043
-11.455201 -40.284847 41.230034
-22.835339 -35.064312 35.616741
-34.692616 -34.605007 28.39769
0.934862 -67.769302 35.197144
-20.038641 -44.424889 34.817749
-18.98872 -49.074036 34.110909
-22.141607 -47.530899 33.289116
-0.614758 -62.902882 38.594528
-1.921071 -66.432114 34.297108
-8.774441 -50.172424 39.51421
-7.373525 -55.312492 38.261101
-10.100848 -53.862808 37.012077
-11.831042 -57.370716 34.664604
-27.495718 -37.57476 33.50983
-30.182961 -37.583218 32.08012
-29.22224 -33.951698 33.104973
-31.221188 -29.853634 32.279186
-7.505561 -46.866123 42.517818
-10.000593 -45.29475 40.466114
-12.621981 -43.673046 38.724892
-15.321208 -42.306442 37.309299
-16.836489 -37.384098 37.80555
-18.198572 -40.980877 36.213779
-21.306719 -39.606831 35.335072
-24.446066 -38.443264 34.503426
-6.068408 -60.361588 36.291599
-28.512203 -41.965977 32.153328
-29.550619 -40.884499 31.817438
-27.623661 -40.877384 32.890831
-4.861064 -52.698792 42.146603
-4.090697 -55.110725 41.373875
-5.489491 -54.239494 40.50069
-15.449823 -46.550545 36.204365
-14.982301 -49.027317 35.820751
-16.434183 -48.188068 35.372478
0.23215 -69.493523 32.850807
-21.632652 -43.611324 34.446133
-20.992117 -46.030678 34.120323
-22.640551 -45.209213 33.729767
-2.765731 -59.795334 39.222961
-1.425658 -60.524986 39.922115
-1.929514 -62.220634 37.988316
-1.283086 -64.598 36.441463
-2.640275 -64.001007 35.918751
-10.058316 -49.36129 38.75687
-9.433372 -52.018085 38.19743
-10.736893 -51.304855 37.550655
-13.900056 -54.030087 34.897373
-12.461774 -54.866734 35.318794
-13.346302 -56.518372 34.270966
-26.75721 -36.038414 34.016193
-28.332888 -35.853252 33.34985
-27.614107 -34.06012 33.891571
-29.663582 -29.919924 33.270191
-30.667704 -27.752348 32.854675
-32.229877 -27.857357 31.71796
-8.271311 -44.424824 42.929062
-8.79329 -46.047085 41.420025
-9.518452 -43.50124 41.866871
-12.740063 -39.555275 40.216892
-11.97713 -42.105133 39.866787
-13.27046 -41.338299 39.022968
-13.974816 -42.969006 37.960171
-14.600561 -40.593525 38.26545
-18.252516 -36.656387 37.219662
-17.383148 -39.241764 36.990528
-18.911438 -38.548588 36.444855
-19.739916 -40.225376 35.765953
-20.494455 -37.785439 35.971275
-24.4846 -34.424358 35.107681
-23.610178 -36.724182 35.060337
-25.164507 -36.304935 34.58215
-26.000889 -38.008812 34.032017
-31.149107 -35.887165 31.659674
-8.224401 -57.047626 36.796413
-6.81746 -57.826206 37.312096
-7.499338 -59.601803 35.880905
-24.681227 -42.152477 33.737423
-3.402325 -57.54533 40.336868
-4.039645 -59.190372 38.556229
-12.635789 -48.052132 37.356018
-12.059283 -50.585541 36.946938
-13.457898 -49.834114 36.376038
-14.430919 -51.629784 35.380306
-25.36574 -32.241386 35.086811
-27.06559 -32.144924 34.363865
-26.419554 -30.169327 34.921722
-10.26314 -41.100212 42.221241
-12.246647 -37.901264 41.54248
-13.531774 -37.122864 40.540741
-20.62635 -33.796261 36.795315
-21.304905 -35.442501 36.132767
-22.2267 -33.062382 36.248302
-23.777397 -32.734161 35.661491
-33.14333 -32.20948 30.499617
-33.437035 -34.321434 29.906834
1.543501 -66.141716 37.482212
-8.267233 -61.299637 34.500771
-18.517654 -45.005085 35.248569
-17.882172 -47.51997 34.935513
-19.448923 -46.861607 34.48801
-20.555708 -48.316616 33.694904
-0.722458 -59.141491 41.924492
-0.057124 -61.35656 40.627605
0.738224 -63.701683 39.190033
0.124632 -65.366852 36.923115
-0.54111 -67.005966 34.757637
-1.224255 -68.902596 32.44083
-7.467286 -50.999237 40.348377
-6.775369 -53.57526 39.663754
-8.085009 -52.703808 38.962456
-8.725378 -54.59153 37.619583
-9.516199 -56.469402 36.280544
-11.540985 -53.232735 36.384037
-10.989176 -55.703587 35.775471
-10.375362 -58.038193 35.108257
-28.169903 -39.200916 32.969662
-29.382029 -39.189522 32.319241
-28.8575 -37.564793 32.86956
-29.781456 -35.768562 32.582504
-30.693499 -33.868919 32.232376
-28.634464 -32.000896 33.62368
-30.194443 -31.893974 32.753441
-31.691046 -31.904329 31.743084
-32.803215 -29.968494 31.053144
-6.92078 -49.26379 41.86216
-8.129706 -48.443729 40.952831
-9.354121 -47.705875 40.052124
-10.655499 -46.878078 39.202908
-10.755681 -42.838203 40.781944
-11.289554 -44.583286 39.519566
-11.97762 -46.30529 38.342945
-13.309558 -45.550293 37.64772
-14.639857 -44.846836 37.035221
-16.042904 -44.175747 36.471836
-14.846794 -36.367081 39.638412
-16.230978 -35.565605 38.835293
-15.423029 -38.035671 38.530487
-15.959911 -39.678596 37.657246
-16.721684 -41.537746 36.758842
-17.548172 -43.292835 35.993454
-19.144258 -42.618996 35.507027
-20.677168 -42.007469 35.090698
-22.165131 -41.186016 34.759903
-21.935019 -37.329586 35.535351
-22.883675 -38.89986 34.939964
-23.722992 -40.526821 34.380932
-25.277214 -39.965786 33.967037
-26.802185 -39.483566 33.498814
-30.574135 -39.51527 31.416849
-6.035155 -56.164131 38.85857
-5.412854 -58.546814 37.897911
-4.638093 -60.928101 36.862614
-6.811429 -62.11808 34.748039
-5.422227 -62.760532 35.083344
-3.939171 -63.379372 35.530163
-3.406176 -65.818741 33.895504
-2.639589 -68.219299 32.23457
-1.851084 -70.821693 30.220415
0.617684 -70.663841 31.907324
-0.099925 -70.389496 31.714205
-14.085908 -56.183508 34.046585
-13.623179 -55.27423 34.58417
-14.362785 -54.939366 34.359789
-13.830415 -57.432288 33.660923
-14.085908 -56.183508 34.046585
-30.405686 -26.694554 33.138052
-29.88926 -27.824047 33.331678
-31.214801 -26.739224 32.561477
-30.405686 -26.694554 33.138052
-8.619933 -43.154944 43.202547
-8.008347 -43.592797 43.800097
-9.243503 -42.693151 42.671452
-8.894882 -43.963032 42.397967
-8.619933 -43.154944 43.202547
-18.990141 -36.37488 36.936104
-18.676387 -35.436842 37.335507
-19.414012 -35.155335 37.051949
-32.270615 -35.065503 30.865613
-31.800092 -36.001021 31.102435
-31.61963 -34.951647 31.422852
-25.954389 -42.552314 33.163156
-25.203721 -42.876323 33.363495
-25.431895 -41.828468 33.537084
-15.185142 -51.198542 35.154823
-14.70661 -50.32855 35.600528
-15.460833 -49.897308 35.375045
-14.915636 -52.539271 34.881939
-15.185142 -51.198542 35.154823
-12.637788 -36.776069 41.705566
-12.045009 -37.086331 42.263252
-13.280352 -36.38687 41.204696
-12.889211 -37.512064 41.04161
-12.637788 -36.776069 41.705566
-21.040498 -32.59946 36.898848
-20.321309 -32.870379 37.209319
-21.840674 -32.23252 36.625341
-21.426525 -33.429322 36.521809
-21.040498 -32.59946 36.898848
-24.283418 -31.549822 35.653686
-23.479731 -31.792333 35.977342
-23.985752 -30.607993 35.969538
-33.786963 -32.306601 29.822073
-33.627659 -31.225426 30.145954
1.644775 -68.10897 35.47649
1.949095 -67.295177 36.619024
1.239181 -66.955509 36.339678
-21.878542 -48.688883 33.034699
-21.085592 -49.081742 33.237593
-21.348658 -47.923758 33.49201
-1.403308 -58.654719 41.573942
-1.116194 -57.838909 42.594324
-1.797044 -57.352137 42.243774
-11.539862 -58.606436 34.246936
-10.812023 -58.940174 34.468763
-11.103202 -57.704454 34.886431
-18.202295 -49.528284 34.310274
-17.649021 -48.751251 34.722577
-18.435446 -48.297003 34.523211
-32.988247 -27.862602 31.061054
-32.785858 -26.790097 31.340247
-6.877139 -47.334192 43.042421
-7.221347 -46.056986 43.380335
-7.213171 -48.064957 42.189989
-6.584748 -48.533026 42.714592
-6.877139 -47.334192 43.042421
-15.262126 -35.184399 39.797621
-14.6306 -35.509321 40.25385
-16.533734 -36.474851 38.320421
-16.891855 -35.240894 38.491715
-17.19461 -36.15014 37.976843
-34.192711 -35.50703 28.798347
-33.56492 -35.365244 29.55292
-34.064825 -34.463221 29.152262
-7.232344 -62.952074 34.000439
-7.539331 -61.708858 34.624405
-7.960245 -62.542852 33.876804
-5.08705 -63.917994 34.413342
-5.794493 -63.676294 34.238199
-4.345522 -64.227413 34.636752
-4.680699 -63.069952 35.306753
-5.08705 -63.917994 34.413342
-4.079025 -65.447098 33.819422
-3.672674 -64.599057 34.712834
-4.345522 -64.227413 34.636752
-3.022575 -69.093254 31.245326
-3.407576 -67.918533 32.102338
-2.628322 -70.394451 30.238249
-2.245337 -69.520496 31.227492
-3.022575 -69.093254 31.245326
-29.031783 -42.328789 31.67973
-28.360782 -42.922354 31.909055
-29.550991 -41.78805 31.511784
-29.031783 -42.328789 31.67973
-29.031411 -41.425238 31.985383
-30.128923 -41.158347 31.274286
-29.550991 -41.78805 31.511784
-27.442546 -41.787679 32.733816
-26.721998 -42.101217 32.956773
-26.903112 -41.190922 33.113788
-27.886817 -42.331976 32.365065
-27.442546 -41.787679 32.733816
-28.067932 -41.421681 32.52208
-28.360782 -42.922354 31.909055
-27.886817 -42.331976 32.365065
-4.47588 -53.904758 41.760239
-3.858064 -54.15583 42.326099
-4.243248 -52.949863 42.712463
-16.186774 -49.477684 35.150909
-15.460833 -49.897308 35.375045
-15.708242 -48.607692 35.596615
-25.316103 -29.32037 35.577921
-24.482066 -29.455606 35.98012
-24.482066 -29.455606 35.98012
-23.985752 -30.607993 35.969538
0.959037 -69.781956 33.114428
1.310393 -68.919846 34.287596
0.583506 -68.631412 34.023976
0.959037 -69.781956 33.114428
0.617684 -70.663841 31.907324
-13.066018 -57.849314 33.840132
-12.308388 -58.275486 34.036951
-12.588672 -56.944544 34.467785
-13.066018 -57.849314 33.840132
-13.830415 -57.432288 33.660923
-18.717156 -50.32219 33.863228
-19.556894 -49.851304 33.645859
-29.387199 -28.907835 33.539436
-28.850358 -29.965446 33.710117
-28.573974 -28.953356 33.979362
-30.165643 -28.836136 33.062433
-29.387199 -28.907835 33.539436
-29.88926 -27.824047 33.331678
-31.995888 -26.791729 31.99312
-31.448791 -27.804853 32.286318
-31.214801 -26.739224 32.561477
-32.785858 -26.790097 31.340247
-31.995888 -26.791729 31.99312
-7.604222 -44.836337 43.585957
-8.008347 -43.592797 43.800097
-7.888436 -45.645474 42.72344
-7.221347 -46.056986 43.380335
-7.604222 -44.836337 43.585957
-17.902624 -35.786285 37.683899
-18.676387 -35.436842 37.335507
-17.544503 -37.020243 37.512606
-17.19461 -36.15014 37.976843
-17.902624 -35.786285 37.683899
-31.321934 -36.88713 31.34796
-30.838861 -37.735157 31.558183
-30.666034 -36.735191 31.869897
-31.321934 -36.88713 31.34796
-31.800092 -36.001021 31.102435
-34.76659 -35.704245 27.98772
-35.235771 -34.762434 27.554316
-24.410013 -43.280471 33.563057
-23.658064 -43.570066 33.754942
-23.929279 -42.442072 33.929308
-24.410013 -43.280471 33.563057
-25.203721 -42.876323 33.363495
-25.954389 -42.552314 33.163156
-26.721998 -42.101217 32.956773
-2.463843 -56.978546 41.745634
-1.797044 -57.352137 42.243774
-3.467112 -55.449936 41.820875
-3.858064 -54.15583 42.326099
-3.122927 -56.667238 41.302372
-3.467112 -55.449936 41.820875
-3.746511 -56.328028 40.855372
-2.743241 -57.856638 40.78013
-2.463843 -56.978546 41.745634
-3.122927 -56.667238 41.302372
-14.650205 -53.739422 34.640473
-14.165487 -52.829936 35.13884
-14.915636 -52.539271 34.881939
-14.362785 -54.939366 34.359789
-14.650205 -53.739422 34.640473
-26.13116 -29.222293 35.215841
-25.604497 -30.267404 35.283802
-25.316103 -29.32037 35.577921
-26.990606 -29.017528 34.800444
-26.13116 -29.222293 35.215841
-27.799396 -28.938349 34.414604
-27.228344 -30.090147 34.535882
-26.990606 -29.017528 34.800444
-28.573974 -28.953356 33.979362
-27.799396 -28.938349 34.414604
-9.982702 -40.317623 43.052805
-9.615847 -41.492638 42.848636
-10.636247 -39.861208 42.440426
-9.982702 -40.317623 43.052805
-11.232278 -39.453525 41.944823
-10.859171 -40.692529 41.725638
-10.636247 -39.861208 42.440426
-11.628 -38.261734 42.101045
-12.045009 -37.086331 42.263252
-11.850924 -39.093055 41.386257
-11.232278 -39.453525 41.944823
-11.628 -38.261734 42.101045
-19.863304 -34.006779 37.123333
-20.321309 -32.870379 37.209319
-20.177058 -34.944817 36.723931
-19.414012 -35.155335 37.051949
-19.863304 -34.006779 37.123333
-22.704382 -31.956443 36.270748
-21.840674 -32.23252 36.625341
-23.002049 -32.898271 35.954897
-22.704382 -31.956443 36.270748
-23.479731 -31.792333 35.977342
-33.933815 -33.362578 29.525681
-33.290183 -33.265457 30.203226
-33.786963 -32.306601 29.822073
-34.561605 -33.504364 28.77111
-34.064825 -34.463221 29.152262
-33.933815 -33.362578 29.525681
-35.154303 -33.614339 27.978177
-34.561605 -33.504364 28.77111
-35.235771 -34.762434 27.554316
-35.154303 -33.614339 27.978177
2.272521 -66.510716 37.830208
1.827096 -65.319916 38.66789
2.272521 -66.510716 37.830208
1.949095 -67.295177 36.619024
1.644775 -68.10897 35.47649
1.310393 -68.919846 34.287596
-9.000575 -60.98452 34.315981
-8.599317 -60.101948 34.978878
-9.33266 -59.786831 34.794088
-8.735205 -62.280929 33.695436
-9.000575 -60.98452 34.315981
-7.960245 -62.542852 33.876804
-8.735205 -62.280929 33.695436
-20.340387 -49.472594 33.437857
-19.556894 -49.851304 33.645859
-19.772214 -48.695326 33.902907
-20.340387 -49.472594 33.437857
-21.085592 -49.081742 33.237593
-23.389674 -44.808839 33.559229
-22.90894 -43.97044 33.92548
-23.658064 -43.570066 33.754942
-23.195808 -45.90797 33.321341
-23.389674 -44.808839 33.559229
-22.946337 -47.068813 33.101015
-22.391079 -46.370056 33.509442
-23.195808 -45.90797 33.321341
-22.684354 -48.223809 32.827717
-22.946337 -47.068813 33.101015
-21.878542 -48.688883 33.034699
-22.684354 -48.223809 32.827717
-0.468088 -58.298209 43.015287
-1.116194 -57.838909 42.594324
-0.052017 -59.479605 42.421339
-0.468088 -58.298209 43.015287
0.280651 -60.587139 41.772896
-0.052017 -59.479605 42.421339
-0.389791 -60.249026 41.276049
0.62517 -61.68531 41.090134
0.280651 -60.587139 41.772896
1.022844 -62.857872 40.371347
0.62517 -61.68531 41.090134
0.34055 -62.529122 39.908819
1.424458 -64.099899 39.521801
1.022844 -62.857872 40.371347
1.140862 -64.9217 38.336123
1.827096 -65.319916 38.66789
1.424458 -64.099899 39.521801
-0.828127 -70.094032 31.509216
-0.099925 -70.389496 31.714205
-0.496053 -69.198059 32.645819
-10.05464 -59.353798 34.619724
-9.33266 -59.786831 34.794088
-9.653382 -58.471226 35.282621
-10.05464 -59.353798 34.619724
-10.812023 -58.940174 34.468763
-11.539862 -58.606436 34.246936
-12.308388 -58.275486 34.036951
-16.925027 -49.085301 34.941059
-17.158178 -47.854019 35.153996
-17.649021 -48.751251 34.722577
-16.186774 -49.477684 35.150909
-16.925027 -49.085301 34.941059
-18.202295 -49.528284 34.310274
-18.717156 -50.32219 33.863228
-33.457601 -30.104934 30.422717
-33.627659 -31.225426 30.145954
-32.973273 -31.088987 30.776381
-33.274916 -28.91817 30.728646
-32.516546 -28.912926 31.385552
-32.988247 -27.862602 31.061054
-33.457601 -30.104934 30.422717
-33.274916 -28.91817 30.728646
-4.605383 -51.794182 43.0824
-4.243248 -52.949863 42.712463
-5.228929 -51.429564 42.52723
-4.605383 -51.794182 43.0824
-5.88117 -50.939352 42.105652
-5.513305 -52.20858 41.725026
-5.228929 -51.429564 42.52723
-6.258788 -49.712063 42.385008
-6.584748 -48.533026 42.714592
-6.543162 -50.491079 41.582804
-5.88117 -50.939352 42.105652
-6.258788 -49.712063 42.385008
-9.890796 -42.300726 42.044056
-9.243503 -42.693151 42.671452
-9.615847 -41.492638 42.848636
-13.97309 -35.887213 40.705015
-13.280352 -36.38687 41.204696
-14.189284 -36.744973 40.089576
-13.97309 -35.887213 40.705015
-14.6306 -35.509321 40.25385
-16.635452 -34.396864 38.992044
-16.891855 -35.240894 38.491715
-15.954218 -34.783661 39.396061
-16.635452 -34.396864 38.992044
-15.538886 -35.966343 39.236852
-15.262126 -35.184399 39.797621
-15.954218 -34.783661 39.396061
-30.64068 -40.473732 31.073991
-30.128923 -41.158347 31.274286
-30.062377 -40.199884 31.617143
-31.034448 -38.701183 31.226547
-30.378548 -38.549244 31.748484
-30.838861 -37.735157 31.558183
-31.168884 -39.744934 30.831409
-31.034448 -38.701183 31.226547
-30.64068 -40.473732 31.073991
-31.168884 -39.744934 30.831409
-32.944056 -35.218155 30.226016
-32.270615 -35.065503 30.865613
-32.763594 -34.168782 30.546432
-32.944056 -35.218155 30.226016
-33.56492 -35.365244 29.55292
-34.192711 -35.50703 28.798347
-34.76659 -35.704245 27.98772
-6.489094 -63.355068 34.070547
-7.232344 -62.952074 34.000439
-6.116828 -62.439306 34.915691
-6.489094 -63.355068 34.070547
-5.794493 -63.676294 34.238199
-3.79087 -66.718254 32.932805
-4.079025 -65.447098 33.819422
-3.022882 -67.01902 33.065037
-3.79087 -66.718254 32.932805
-3.407576 -67.918533 32.102338
-1.141541 -71.053581 30.399009
-0.828127 -70.094032 31.509216
-1.53767 -69.862144 31.330622
-2.281541 -71.648331 29.210891
-2.628322 -70.394451 30.238249
-1.49011 -72.01075 29.23487
-2.281541 -71.648331 29.210891
-1.920567 -72.837387 28.225347
-1.141541 -71.053581 30.399009
-1.49011 -72.01075 29.23487
3 0 45 44
3 0 44 46
3 1 49 47
3 2 52 50
3 178 177 53
3 3 56 54
3 4 59 57
3 4 61 59
3 5 64 62
3 179 67 180
3 181 180 65
3 179 180 181
3 183 182 67
3 7 70 68
3 184 72 185
3 187 186 72
3 188 74 189
3 190 76 191
3 192 191 74
3 190 191 192
3 9 79 77
3 9 81 79
3 10 193 195
3 193 82 194
3 193 194 195
3 10 84 82
3 10 86 84
3 7 89 87
3 7 68 89
3 8 196 198
3 198 197 91
3 196 197 198
3 6 94 92
3 11 199 201
3 201 200 95
3 199 200 201
3 13 96 48
3 13 97 96
3 14 100 98
3 202 101 203
3 204 203 51
3 202 203 204
3 206 205 101
3 16 104 102
3 207 106 208
3 209 107 210
3 211 210 106
3 209 210 211
3 212 108 213
3 214 110 215
3 216 215 108
3 214 215 216
3 16 217 219
3 217 111 218
3 217 218 219
3 16 102 111
3 221 220 112
3 21 222 224
3 224 223 114
3 222 223 224
3 22 118 116
3 24 119 55
3 24 225 227
3 227 226 119
3 225 226 227
3 12 228 230
3 228 120 229
3 228 229 230
3 25 121 58
3 25 122 121
3 25 123 122
3 26 124 60
3 26 125 124
3 27 128 126
3 29 129 63
3 29 130 129
3 15 131 99
3 30 132 66
3 30 133 132
3 30 231 233
3 233 232 133
3 231 232 233
3 23 234 236
3 236 235 117
3 234 235 236
3 31 136 134
3 33 137 69
3 33 138 137
3 17 139 103
3 34 140 71
3 34 141 140
3 34 142 141
3 238 237 73
3 35 239 240
3 35 241 243
3 241 143 242
3 241 242 243
3 35 144 143
3 36 145 75
3 36 146 145
3 18 147 105
3 37 148 78
3 37 149 148
3 37 150 149
3 38 151 80
3 38 152 151
3 244 153 245
3 39 246 248
3 246 154 247
3 246 247 248
3 39 155 154
3 39 156 155
3 40 157 83
3 40 158 157
3 40 159 158
3 41 160 85
3 41 161 160
3 19 162 109
3 42 163 88
3 42 164 163
3 42 165 164
3 31 166 90
3 31 134 166
3 32 167 135
3 20 249 251
3 251 250 113
3 249 250 251
3 28 168 127
3 43 169 93
3 43 170 169
3 252 171 253
3 254 253 115
3 252 253 254
3 255 172 256
3 257 173 258
3 259 258 172
3 257 258 259
3 260 174 261
3 262 261 173
3 260 261 262
3 263 175 264
3 265 176 266
3 267 266 175
3 265 266 267
3 44 268 269
3 45 270 272
3 272 271 44
3 270 271 272
3 45 273 274
3 46 275 277
3 277 276 11
3 275 276 277
3 44 278 280
3 280 279 46
3 278 279 280
3 44 281 282
3 47 283 285
3 283 48 284
3 283 284 285
3 49 48 47
3 49 13 48
3 50 51 14
3 52 51 50
3 52 286 288
3 288 287 51
3 286 287 288
3 290 289 16
3 291 16 292
3 53 293 295
3 295 294 21
3 293 294 295
3 297 296 53
3 54 55 22
3 56 55 54
3 56 24 55
3 57 58 12
3 59 58 57
3 59 25 58
3 59 60 25
3 61 60 59
3 61 26 60
3 62 63 27
3 64 63 62
3 64 29 63
3 65 66 15
3 67 66 65
3 67 30 66
3 67 298 300
3 300 299 30
3 298 299 300
3 302 301 67
3 304 303 23
3 68 69 31
3 70 69 68
3 70 33 69
3 305 71 306
3 307 306 17
3 305 306 307
3 72 308 310
3 308 71 309
3 308 309 310
3 72 34 71
3 72 73 34
3 311 73 312
3 313 312 72
3 311 312 313
3 315 314 73
3 74 316 317
3 74 318 320
3 318 35 319
3 318 319 320
3 74 75 35
3 76 75 74
3 76 36 75
3 77 78 18
3 79 78 77
3 79 37 78
3 79 80 37
3 81 80 79
3 81 38 80
3 82 321 322
3 82 323 325
3 323 39 324
3 323 324 325
3 82 83 39
3 84 83 82
3 84 40 83
3 84 85 40
3 86 85 84
3 86 41 85
3 87 88 19
3 89 88 87
3 89 42 88
3 89 90 42
3 68 90 89
3 68 31 90
3 91 326 328
3 328 327 32
3 326 327 328
3 330 329 91
3 332 331 20
3 92 93 28
3 94 93 92
3 94 43 93
3 95 333 335
3 335 334 3
3 333 334 335
3 337 336 95
3 339 338 11
3 340 12 341
3 48 342 343
3 96 344 346
3 346 345 48
3 344 345 346
3 96 347 349
3 347 12 348
3 347 348 349
3 96 57 12
3 97 57 96
3 97 4 57
3 98 99 5
3 100 99 98
3 100 15 99
3 51 100 14
3 101 100 51
3 101 15 100
3 101 65 15
3 350 65 351
3 352 351 101
3 350 351 352
3 354 353 65
3 102 103 7
3 104 103 102
3 104 17 103
3 355 104 356
3 357 356 16
3 355 356 357
3 358 104 359
3 360 17 361
3 362 361 104
3 360 361 362
3 364 363 17
3 365 105 366
3 367 105 368
3 369 18 370
3 371 370 105
3 369 370 371
3 106 372 373
3 106 374 376
3 374 18 375
3 374 375 376
3 106 77 18
3 107 77 106
3 107 9 77
3 108 377 378
3 108 379 381
3 379 10 380
3 379 380 381
3 108 109 10
3 110 109 108
3 110 19 109
3 382 110 383
3 111 384 386
3 384 110 385
3 384 385 386
3 111 19 110
3 111 87 19
3 102 87 111
3 102 7 87
3 112 113 8
3 387 113 388
3 389 388 112
3 387 388 389
3 390 20 391
3 392 391 113
3 390 391 392
3 393 20 394
3 396 395 20
3 114 397 398
3 400 399 114
3 402 401 21
3 403 115 404
3 405 404 6
3 403 404 405
3 406 115 407
3 409 408 115
3 116 117 2
3 118 117 116
3 118 23 117
3 55 118 22
3 119 118 55
3 119 23 118
3 119 410 412
3 412 411 23
3 410 411 412
3 414 413 119
3 415 56 416
3 417 416 3
3 415 416 417
3 418 56 419
3 420 24 421
3 422 421 56
3 420 421 422
3 423 24 424
3 426 425 24
3 120 427 428
3 120 429 430
3 58 120 12
3 121 120 58
3 121 431 433
3 433 432 120
3 431 432 433
3 121 434 435
3 122 436 438
3 438 437 121
3 436 437 438
3 122 439 440
3 122 441 443
3 441 114 442
3 441 442 443
3 123 114 122
3 123 21 114
3 60 123 25
3 124 123 60
3 124 21 123
3 124 53 21
3 125 53 124
3 125 444 446
3 446 445 53
3 444 445 446
3 126 127 1
3 128 127 126
3 128 28 127
3 63 128 27
3 129 128 63
3 129 28 128
3 129 92 28
3 130 92 129
3 130 6 92
3 99 64 5
3 131 64 99
3 131 29 64
3 66 131 15
3 132 131 66
3 132 29 131
3 132 130 29
3 133 130 132
3 133 6 130
3 133 447 449
3 449 448 6
3 447 448 449
3 451 450 133
3 453 452 30
3 117 52 2
3 454 52 455
3 456 455 117
3 454 455 456
3 458 457 52
3 460 459 23
3 134 135 0
3 136 135 134
3 136 32 135
3 69 136 31
3 137 136 69
3 137 32 136
3 137 91 32
3 138 91 137
3 138 8 91
3 103 70 7
3 139 70 103
3 139 33 70
3 71 139 17
3 140 139 71
3 140 33 139
3 140 138 33
3 141 138 140
3 141 8 138
3 141 112 8
3 142 112 141
3 142 461 463
3 463 462 112
3 461 462 463
3 73 142 34
3 464 142 465
3 466 465 73
3 464 465 466
3 468 467 142
3 469 47 470
3 471 47 472
3 473 1 474
3 475 474 47
3 473 474 475
3 143 476 477
3 143 478 480
3 478 1 479
3 478 479 480
3 143 126 1
3 144 126 143
3 144 27 126
3 75 144 35
3 145 144 75
3 145 27 144
3 145 62 27
3 146 62 145
3 146 5 62
3 105 481 483
3 481 76 482
3 481 482 483
3 147 76 105
3 147 36 76
3 78 147 18
3 148 147 78
3 148 36 147
3 148 146 36
3 149 146 148
3 149 5 146
3 149 98 5
3 150 98 149
3 150 14 98
3 80 150 37
3 151 150 80
3 151 14 150
3 151 50 14
3 152 50 151
3 152 2 50
3 484 107 485
3 153 486 488
3 486 107 487
3 486 487 488
3 153 9 107
3 154 489 490
3 154 491 492
3 154 493 495
3 493 153 494
3 493 494 495
3 155 153 154
3 155 9 153
3 155 81 9
3 156 81 155
3 156 38 81
3 83 156 39
3 157 156 83
3 157 38 156
3 157 152 38
3 158 152 157
3 158 2 152
3 158 116 2
3 159 116 158
3 159 22 116
3 85 159 40
3 160 159 85
3 160 22 159
3 160 54 22
3 161 54 160
3 161 3 54
3 109 86 10
3 162 86 109
3 162 41 86
3 88 162 19
3 163 162 88
3 163 41 162
3 163 161 41
3 164 161 163
3 164 3 161
3 164 95 3
3 165 95 164
3 165 11 95
3 90 165 42
3 166 165 90
3 166 11 165
3 166 46 11
3 134 46 166
3 134 0 46
3 135 45 0
3 167 45 135
3 167 496 498
3 498 497 45
3 496 497 498
3 499 167 500
3 501 500 32
3 499 500 501
3 502 167 503
3 505 504 167
3 113 506 508
3 508 507 8
3 506 507 508
3 510 509 113
3 512 511 20
3 127 49 1
3 168 49 127
3 168 13 49
3 93 168 28
3 169 168 93
3 169 13 168
3 169 97 13
3 170 97 169
3 170 4 97
3 115 94 6
3 171 94 115
3 171 43 94
3 513 171 514
3 172 515 517
3 515 171 516
3 515 516 517
3 172 43 171
3 172 170 43
3 173 170 172
3 173 4 170
3 173 61 4
3 174 61 173
3 174 26 61
3 518 174 519
3 175 520 522
3 520 174 521
3 520 521 522
3 175 26 174
3 175 125 26
3 176 125 175
3 176 523 525
3 525 524 125
3 523 524 525
3 526 176 527
3 528 176 529
3 528 529 530
3 532 531 176
