ply
format ascii 1.0
element vertex 553
property float x
property float y
property float z
element face 657
property list uchar int vertex_index
end_header
20.730097 -88.66684 20.394104
-0.580238 -100.491051 -8.514034
26.94492 -89.023651 2.690539
18.45204 -103.946091 -3.958584
14.020739 -91.408318 16.246325
19.815891 -96.833145 8.564652
12.459198 -98.9534 4.453597
9.305859 -104.359985 -7.274822
3.561652 -97.12175 2.063452
25.425764 -82.031235 22.771566
26.934315 -95.853271 -8.393005
24.839863 -90.451897 12.027068
24.624594 -98.461449 0.070719
23.142195 -104.366394 -12.520055
10.502793 -91.340057 14.456697
13.335861 -95.291672 10.424591
9.303032 -95.111969 8.619412
8.10548 -98.537498 2.821009
5.405323 -94.311111 7.394632
26.898689 -83.860626 3.414801
27.026905 -87.196182 -1.725302
27.058867 -92.673782 -2.755681
23.441442 -85.830673 21.802263
25.001375 -86.432777 17.407383
23.043219 -90.02459 16.193739
19.342726 -100.674713 2.303876
22.517044 -98.1614 4.345421
22.052872 -101.780922 -1.9054
24.234276 -101.702904 -6.162905
21.167955 -104.700188 -8.145055
19.496836 -106.79863 -14.569916
17.028271 -106.424858 -10.203042
4.32352 -102.894623 -8.231812
7.036388 -105.585159 -12.707526
26.810709 -85.055527 8.100346
17.551046 -90.633789 18.288141
20.335443 -92.861717 14.416763
16.845915 -94.594048 12.416327
16.364214 -98.395279 6.49726
15.446519 -101.934677 0.28699
14.259993 -104.842834 -5.923816
11.157336 -102.05397 -1.446036
6.372864 -101.067184 -2.611961
1.492603 -99.223015 -3.295669
21.369745 -84.526756 26.041298
18.285086 -86.530235 24.153614
14.938189 -87.47007 22.107159
11.575616 -87.564949 20.126755
1.037653 -92.742287 6.815278
-3.098207 -96.638985 -3.307269
26.354601 -81.97644 18.018692
26.178581 -86.071556 12.771084
26.197439 -90.235931 7.300366
22.797338 -94.163254 10.352521
24.825815 -94.490349 6.169168
26.295786 -94.003693 1.615647
26.165855 -97.614792 -4.314251
25.665848 -100.558197 -10.154267
12.322142 -106.703316 -11.825753
8.66953 -91.213882 13.496856
9.893643 -93.225006 11.570768
7.944204 -92.98793 10.72721
7.350469 -94.749016 7.976014
5.909659 -92.497604 10.137292
26.979176 -86.425385 3.107061
26.948692 -85.56031 0.765136
27.064224 -88.328064 0.404296
27.139688 -90.079353 -2.124676
27.002197 -90.998825 0.08448
22.138176 -87.426117 21.125759
23.22953 -87.948669 18.992729
21.958254 -89.487228 18.262781
18.827227 -102.407028 -0.798046
20.710011 -101.384636 0.22722
20.254152 -102.991234 -2.767775
21.687775 -103.301338 -4.961048
19.922195 -104.413567 -5.92662
19.287006 -105.742355 -9.257984
17.887228 -105.275253 -7.047871
1.855682 -101.842369 -8.539674
3.180239 -103.412788 -10.950101
0.598941 -102.107178 -11.020877
26.788939 -83.231209 10.645012
15.788897 -91.180939 17.20532
17.26502 -92.692955 15.275525
15.469049 -93.161308 14.27794
12.78385 -97.083839 7.517138
14.764626 -97.017143 8.335466
14.368296 -98.790726 5.427238
15.853587 -100.280121 3.297647
13.798676 -100.61824 2.208992
13.249037 -102.133629 -0.679531
11.732999 -100.469986 1.623659
5.824014 -97.820618 2.511833
7.359897 -99.912979 0.113867
5.049132 -99.246834 -0.347741
3.927185 -100.312149 -3.14881
2.685828 -98.318146 -0.579802
22.788746 -83.359085 26.416742
21.925486 -82.474388 28.64262
18.871313 -84.427826 27.135191
17.104103 -85.146805 26.024597
16.608959 -87.188568 23.047678
15.498302 -85.456764 25.130835
9.744467 -87.412834 19.097404
-2.002091 -96.095352 -0.957714
26.155169 -79.989098 22.830153
26.57086 -79.612793 20.625048
25.956476 -82.085609 20.365084
24.932783 -88.393845 14.707877
25.661648 -86.31543 15.152015
25.619164 -88.504021 12.21826
26.165749 -88.18544 10.098989
25.588608 -90.421188 9.72554
20.037001 -94.765068 11.676256
21.557156 -93.67865 12.380935
21.35597 -95.621384 9.57072
23.675303 -98.375435 2.264613
23.783443 -96.4776 5.264622
24.786219 -96.543587 3.036191
25.623032 -94.418198 3.889304
25.571447 -96.328346 1.015232
26.247904 -95.871208 -1.175417
25.536695 -97.980087 -1.934592
23.734009 -103.188828 -9.287918
25.043999 -101.222252 -8.113061
24.541506 -102.64785 -11.375639
22.433266 -105.173286 -15.510783
17.310493 -107.468399 -15.398019
11.869246 -104.770767 -6.66754
13.304401 -105.862999 -8.799057
10.853 -105.660316 -9.516443
12.329015 -91.487717 15.307596
13.714231 -93.370056 13.356758
11.802374 -93.376045 12.429012
11.300409 -95.253326 9.518431
10.86274 -97.154915 6.490369
10.27626 -98.883331 3.504695
8.780804 -96.948059 5.652579
6.755521 -96.472122 5.145557
4.500126 -95.767937 4.75315
27.188408 -91.813026 -5.017727
27.027109 -94.42112 -5.610729
24.589737 -83.987709 22.270126
25.24782 -84.256119 19.934
24.337103 -86.171608 19.580456
24.122591 -88.330513 16.831755
23.928291 -90.397781 14.171774
19.646313 -98.727646 5.568547
21.269693 -97.695778 6.33554
20.993364 -99.488152 3.509475
22.242458 -100.095047 1.229018
23.508297 -100.172668 -0.812577
24.54723 -100.052689 -3.000256
23.286032 -101.731056 -3.791811
22.904221 -103.242096 -6.956967
22.284239 -104.642845 -10.274902
21.422829 -105.772491 -13.576972
20.497671 -105.875801 -11.390107
18.386219 -106.750832 -12.320333
16.066742 -107.24939 -13.173309
6.890789 -103.826508 -7.948816
8.372651 -105.205933 -10.174886
5.748119 -104.38279 -10.520716
26.856319 -87.173943 5.484096
19.142925 -89.808273 19.354237
20.493172 -90.766899 17.453379
18.923754 -91.913239 16.317648
18.655983 -93.871254 13.443774
18.349403 -95.834007 10.504658
15.14784 -95.112762 11.326884
16.585836 -96.535492 9.439753
18.157316 -97.927246 7.25674
17.814287 -99.692566 4.370816
17.464678 -101.389 1.416432
17.032303 -103.090042 -1.839478
16.42178 -104.575439 -5.03845
14.933629 -103.441696 -2.728243
12.660426 -103.613586 -3.779226
10.324411 -103.421059 -4.545989
9.558949 -100.350586 0.704423
8.831062 -101.762283 -2.215405
7.964358 -102.869278 -4.962388
5.553742 -102.197601 -5.49214
2.953958 -101.187462 -5.809784
0.473253 -99.960007 -5.892497
24.747965 -82.022179 24.863644
23.744249 -83.782669 24.360657
22.436079 -85.32003 23.907949
21.000208 -86.613426 23.226795
20.41423 -83.57946 27.973032
19.890059 -85.63665 25.168894
19.511461 -87.705956 22.293329
17.851374 -88.541901 21.28894
16.3111 -89.257378 20.066072
14.500979 -89.47213 19.143475
13.257843 -87.60775 21.092009
12.739014 -89.515724 18.208704
11.048181 -89.523201 17.198641
9.132096 -89.286247 16.278299
4.098916 -92.019875 9.66488
3.226453 -93.550575 7.086451
2.296817 -94.905441 4.55631
0.134193 -93.974648 4.415334
1.274169 -96.128723 1.941853
0.377515 -97.258011 -0.716323
-0.721685 -98.079109 -3.365513
-1.878417 -98.642159 -5.980685
26.81237 -79.472511 18.22459
25.774462 -84.296989 17.706568
26.22933 -84.13488 15.304484
26.599874 -83.53994 12.954305
26.560684 -85.734932 10.363034
26.580589 -87.690048 7.879776
26.67536 -89.537048 5.064516
21.736158 -91.56546 15.391705
22.80267 -92.207054 13.281756
23.926449 -92.357704 11.296082
22.647263 -96.104546 7.538077
23.858953 -94.444489 8.312241
24.884535 -92.426865 9.075903
25.621599 -92.342545 6.943536
26.251787 -92.114899 4.535643
26.720304 -91.531868 2.365491
26.74749 -93.399796 -0.384517
26.733213 -95.1558 -3.282437
26.637119 -96.874474 -6.46164
25.299795 -99.779839 -5.046141
25.965693 -99.175934 -7.179214
26.455929 -98.28186 -9.258206
20.569849 -106.426666 -16.545891
15.670832 -105.798248 -8.123006
14.698797 -106.734512 -11.087778
13.546637 -107.389473 -13.99631
7.329822 -91.8941 11.769035
8.306867 -92.100906 12.112033
7.692485 -91.007076 13.153858
6.31255 -91.648937 11.474076
6.926932 -92.742767 10.432251
7.329822 -91.8941 11.769035
-1.207998 -100.585388 -9.802429
-0.618409 -101.393452 -11.055851
0.009351 -101.299115 -9.767456
26.821732 -82.166581 11.908466
26.857544 -81.90028 10.779908
22.080075 -81.486007 29.978918
22.559434 -81.783856 28.966239
16.542821 -84.341972 27.003982
17.379534 -84.13932 27.499214
15.739921 -84.496952 26.557101
16.301202 -85.301784 25.577716
16.542821 -84.341972 27.003982
26.991428 -95.319221 -9.387428
27.048377 -94.58176 -8.091061
26.843181 -96.476749 -9.830185
26.991428 -95.319221 -9.387428
23.536724 -104.013664 -13.459671
24.236379 -103.154392 -12.887463
23.84185 -103.507122 -11.947847
22.787731 -104.76984 -14.015419
23.182259 -104.41711 -14.955036
23.536724 -104.013664 -13.459671
16.677617 -107.657192 -16.931182
16.126231 -107.626129 -15.771358
26.814397 -83.303383 2.283165
26.815635 -82.500667 3.459376
26.910497 -85.868424 -1.481515
26.87139 -85.050488 -0.236297
26.987799 -86.378246 -0.480083
26.961233 -86.796536 -2.7931
26.910497 -85.868424 -1.481515
27.076605 -88.15184 -3.015921
26.961233 -86.796536 -2.7931
3.81784 -104.077084 -12.110416
2.499884 -103.488472 -12.237993
26.862678 -84.772213 6.957961
26.851346 -83.759224 8.226513
26.833514 -86.114735 6.792221
26.885483 -85.831421 5.649837
26.862678 -84.772213 6.957961
24.372758 -81.843311 25.978777
24.897837 -80.953175 26.126093
23.8709 -82.723557 25.727283
24.246107 -82.902424 24.61215
24.372758 -81.843311 25.978777
19.889741 -82.992218 28.985176
20.617692 -82.599975 29.318804
12.416729 -87.586349 20.609382
12.655628 -86.665588 21.990768
11.814515 -86.644188 21.50814
8.512563 -88.14529 17.305043
9.438282 -88.349541 17.687852
8.818748 -87.208584 18.714596
8.305001 -89.156696 15.901364
8.512563 -88.14529 17.305043
3.470627 -90.883305 10.738567
4.421492 -91.137169 10.980206
2.132053 -93.146431 6.950864
2.599031 -92.404774 8.236221
1.50463 -92.00063 8.100634
-0.37157 -94.57433 3.071901
-0.988801 -93.47736 4.309411
0.198418 -95.651367 1.83516
0.704181 -95.051685 3.178593
-0.37157 -94.57433 3.071901
-0.249909 -96.216011 0.506072
0.825842 -96.693367 0.612765
0.198418 -95.651367 1.83516
26.50496 -81.812859 16.829701
26.733845 -80.560894 16.93265
26.583486 -80.724475 18.121641
25.906085 -100.032768 -11.159505
26.301126 -98.894599 -10.711474
26.060889 -99.420029 -9.706236
8.400033 -105.962162 -12.572449
9.068165 -105.772549 -11.306129
7.704519 -105.395546 -11.441206
1.209236 -102.835667 -12.273381
2.499884 -103.488472 -12.237993
1.88959 -102.759983 -10.985489
-0.001168 -102.154495 -12.252382
1.209236 -102.835667 -12.273381
-0.001168 -102.154495 -12.252382
-0.618409 -101.393452 -11.055851
26.840461 -82.847065 9.498845
26.857544 -81.90028 10.779908
26.799824 -84.143368 9.372679
26.851346 -83.759224 8.226513
26.840461 -82.847065 9.498845
22.991064 -82.226204 27.8533
23.393149 -82.511764 26.755326
22.357116 -82.916736 27.529681
22.991064 -82.226204 27.8533
22.559434 -81.783856 28.966239
18.263139 -83.779831 28.054511
19.118283 -83.416401 28.566255
17.987708 -84.787316 26.579894
18.263139 -83.779831 28.054511
17.379534 -84.13932 27.499214
10.958769 -86.561107 21.020135
11.814515 -86.644188 21.50814
10.043195 -86.48505 20.50546
10.660042 -87.488891 19.61208
10.958769 -86.561107 21.020135
9.168228 -86.287769 20.114741
10.043195 -86.48505 20.50546
8.818748 -87.208584 18.714596
9.168228 -86.287769 20.114741
0.548305 -91.63897 8.004872
1.50463 -92.00063 8.100634
-2.518403 -95.04488 0.381817
-1.439712 -95.634681 0.385377
-3.11562 -95.345451 -0.817009
-2.518403 -95.04488 0.381817
-3.663678 -95.617268 -1.991787
-2.550149 -96.367169 -2.132491
-3.11562 -95.345451 -0.817009
26.363014 -79.800945 21.727601
26.677574 -78.584801 21.781153
26.469729 -78.772953 22.883705
24.862297 -102.204968 -12.347777
25.424468 -101.160141 -11.737091
25.103677 -101.603024 -10.764953
24.862297 -102.204968 -12.347777
24.236379 -103.154392 -12.887463
22.719735 -104.830215 -16.479158
23.182259 -104.41711 -14.955036
21.833282 -105.5168 -17.086317
22.719735 -104.830215 -16.479158
17.862877 -107.398021 -16.417747
18.956049 -107.063137 -16.003695
18.403664 -107.133515 -14.983967
17.862877 -107.398021 -16.417747
16.677617 -107.657192 -16.931182
7.714044 -106.114532 -13.892684
6.447677 -105.737766 -14.111864
26.839399 -84.153225 0.958333
26.814397 -83.303383 2.283165
26.92369 -84.710468 2.089969
26.839399 -84.153225 0.958333
26.87139 -85.050488 -0.236297
27.132996 -89.593425 -3.215607
27.076605 -88.15184 -3.015921
27.083296 -88.637767 -1.924989
27.157356 -90.460262 -4.662133
27.132996 -89.593425 -3.215607
27.164048 -90.94619 -3.571201
27.176135 -91.257824 -6.036471
27.157356 -90.460262 -4.662133
27.175424 -92.561637 -6.403422
27.176135 -91.257824 -6.036471
27.094774 -93.865685 -6.699923
27.175424 -92.561637 -6.403422
27.107758 -93.117073 -5.314228
26.980712 -95.137196 -7.001867
27.048377 -94.58176 -8.091061
27.094774 -93.865685 -6.699923
15.504356 -107.516625 -14.659003
16.126231 -107.626129 -15.771358
16.688617 -107.358895 -14.285664
5.10178 -104.562084 -11.895724
4.464179 -103.897789 -10.735409
3.81784 -104.077084 -12.110416
5.745914 -105.163269 -12.989129
6.392253 -104.983975 -11.614121
5.10178 -104.562084 -11.895724
6.447677 -105.737766 -14.111864
5.745914 -105.163269 -12.989129
26.884451 -82.869118 4.618825
26.815635 -82.500667 3.459376
26.906668 -84.174762 4.615189
26.884451 -82.869118 4.618825
26.946911 -85.457142 4.461319
26.938932 -85.143006 3.260931
26.906668 -84.174762 4.615189
26.917747 -86.799664 4.295578
26.946911 -85.457142 4.461319
26.885483 -85.831421 5.649837
26.306234 -78.810318 24.079995
26.469729 -78.772953 22.883705
25.932398 -79.920285 24.003707
26.306234 -78.810318 24.079995
25.567695 -80.941353 23.974414
25.790467 -81.010166 22.80086
25.932398 -79.920285 24.003707
25.228796 -80.936825 25.020453
24.897837 -80.953175 26.126093
25.086865 -82.026707 23.817605
25.567695 -80.941353 23.974414
25.228796 -80.936825 25.020453
23.266497 -83.570877 25.3887
23.8709 -82.723557 25.727283
23.393149 -82.511764 26.755326
21.37332 -82.047439 29.653599
22.080075 -81.486007 29.978918
21.527909 -81.059059 30.989897
21.169858 -83.026924 28.307826
21.37332 -82.047439 29.653599
20.617692 -82.599975 29.318804
19.642772 -84.003643 27.554111
19.889741 -82.992218 28.985176
19.118283 -83.416401 28.566255
14.862203 -84.537861 26.102141
15.739921 -84.496952 26.557101
14.657207 -85.511017 24.658912
14.862203 -84.537861 26.102141
14.37715 -86.51767 23.147074
15.218246 -86.463417 23.618997
14.657207 -85.511017 24.658912
13.536977 -86.58651 22.639499
12.655628 -86.665588 21.990768
14.098016 -87.53891 21.599584
14.37715 -86.51767 23.147074
13.536977 -86.58651 22.639499
8.073718 -90.120514 14.510642
8.900813 -90.250065 14.887577
8.305001 -89.156696 15.901364
7.692485 -91.007076 13.153858
8.073718 -90.120514 14.510642
5.326863 -91.376034 11.216411
6.31255 -91.648937 11.474076
5.004288 -92.258739 9.901086
5.326863 -91.376034 11.216411
4.421492 -91.137169 10.980206
3.035262 -91.639423 9.525436
3.470627 -90.883305 10.738567
3.662685 -92.785225 8.375666
3.035262 -91.639423 9.525436
2.599031 -92.404774 8.236221
0.031111 -92.280037 6.795613
0.548305 -91.63897 8.004872
-0.420619 -92.896218 5.595641
-1.543613 -92.39893 5.489718
-0.988801 -93.47736 4.309411
0.585923 -93.358468 5.615306
0.031111 -92.280037 6.795613
-0.420619 -92.896218 5.595641
-0.812288 -96.676682 -0.837018
-0.249909 -96.216011 0.506072
-1.439712 -95.634681 0.385377
-4.25227 -95.826347 -3.219522
-3.663678 -95.617268 -1.991787
-3.595985 -96.881855 -4.550873
-4.25227 -95.826347 -3.219522
-2.98609 -97.883442 -5.887581
-2.488312 -97.640572 -4.643977
-3.595985 -96.881855 -4.550873
-2.446815 -98.812607 -7.266436
-2.98609 -97.883442 -5.887581
-1.797726 -99.737053 -8.533111
-1.229328 -99.566605 -7.247359
-2.446815 -98.812607 -7.266436
-1.207998 -100.585388 -9.802429
-1.797726 -99.737053 -8.533111
26.808391 -78.383682 20.651339
26.677574 -78.584801 21.781153
26.929147 -78.313541 19.45111
26.808391 -78.383682 20.651339
26.691615 -79.542652 19.424819
26.998131 -78.159886 18.191416
26.929147 -78.313541 19.45111
26.899041 -79.249066 16.939103
26.998131 -78.159886 18.191416
26.899041 -79.249066 16.939103
26.733845 -80.560894 16.93265
26.442324 -82.892078 15.472596
26.50496 -81.812859 16.829701
26.291965 -83.05566 16.661588
26.627596 -82.594608 14.297507
26.442324 -82.892078 15.472596
26.414602 -83.83741 14.129395
26.727199 -82.320946 13.063112
26.627596 -82.594608 14.297507
26.694406 -83.385575 11.799658
26.821732 -82.166581 11.908466
26.727199 -82.320946 13.063112
26.603988 -97.691044 -10.262785
26.843181 -96.476749 -9.830185
26.695122 -97.067566 -8.825605
26.603988 -97.691044 -10.262785
26.301126 -98.894599 -10.711474
25.906085 -100.032768 -11.159505
25.424468 -101.160141 -11.737091
20.901574 -106.14349 -17.60387
21.833282 -105.5168 -17.086317
21.501558 -105.799976 -16.028337
19.492556 -106.877155 -16.991683
20.033342 -106.612648 -15.557904
18.956049 -107.063137 -16.003695
19.919393 -106.655231 -18.005375
19.492556 -106.877155 -16.991683
20.901574 -106.14349 -17.60387
19.919393 -106.655231 -18.005375
14.244303 -107.586666 -15.070504
15.504356 -107.516625 -14.659003
14.80669 -107.319432 -13.584809
10.308339 -105.999741 -10.976907
9.612825 -105.433124 -9.845665
9.068165 -105.772549 -11.306129
11.04291 -106.521241 -12.131563
11.587571 -106.181816 -10.671098
10.308339 -105.999741 -10.976907
8.400033 -105.962162 -12.572449
7.714044 -106.114532 -13.892684
11.629723 -106.948067 -13.290007
11.04291 -106.521241 -12.131563
12.241971 -107.291145 -14.375286
12.934389 -107.046394 -12.911031
11.629723 -106.948067 -13.290007
12.876984 -107.565132 -15.413463
12.241971 -107.291145 -14.375286
14.244303 -107.586666 -15.070504
12.876984 -107.565132 -15.413463
3 234 61 235
3 236 235 59
3 234 235 236
3 237 63 238
3 239 238 61
3 237 238 239
3 2 66 64
3 2 68 66
3 0 71 69
3 3 74 72
3 3 76 74
3 3 78 76
3 1 81 79
3 1 240 242
3 242 241 81
3 240 241 242
3 243 82 244
3 4 85 83
3 6 88 86
3 6 90 88
3 6 92 90
3 8 95 93
3 8 97 95
3 245 99 246
3 247 101 248
3 249 103 250
3 251 250 101
3 249 250 251
3 10 252 253
3 10 254 255
3 9 108 106
3 11 111 109
3 11 113 111
3 5 116 114
3 12 119 117
3 12 121 119
3 12 123 121
3 13 126 124
3 13 256 258
3 258 257 126
3 256 257 258
3 13 259 261
3 259 127 260
3 259 260 261
3 263 262 128
3 7 131 129
3 14 134 132
3 16 135 60
3 16 136 135
3 16 138 136
3 18 139 62
3 18 140 139
3 19 264 265
3 20 266 268
3 268 267 65
3 266 267 268
3 20 269 270
3 20 271 272
3 21 141 67
3 21 142 141
3 22 145 143
3 24 146 70
3 24 147 146
3 25 150 148
3 27 151 73
3 27 152 151
3 27 154 152
3 29 155 75
3 29 156 155
3 29 158 156
3 31 159 77
3 31 160 159
3 32 163 161
3 274 273 80
3 34 275 276
3 34 277 279
3 277 164 278
3 277 278 279
3 35 167 165
3 37 168 84
3 37 169 168
3 15 170 133
3 38 171 87
3 38 172 171
3 38 173 172
3 39 174 89
3 39 175 174
3 39 177 175
3 41 178 91
3 41 179 178
3 17 180 137
3 42 181 94
3 42 182 181
3 42 183 182
3 43 184 96
3 43 185 184
3 280 186 281
3 282 187 283
3 284 283 186
3 282 283 284
3 44 188 98
3 44 189 188
3 285 190 286
3 45 191 100
3 45 192 191
3 45 193 192
3 46 194 102
3 46 195 194
3 47 287 289
3 287 196 288
3 287 288 289
3 47 197 196
3 47 198 197
3 290 199 291
3 292 291 104
3 290 291 292
3 294 293 199
3 295 200 296
3 48 297 299
3 297 201 298
3 297 298 299
3 48 202 201
3 300 203 301
3 302 204 303
3 304 303 203
3 302 303 304
3 305 205 306
3 307 306 204
3 305 306 307
3 49 206 105
3 49 207 206
3 50 208 107
3 50 308 310
3 310 309 208
3 308 309 310
3 23 209 144
3 51 210 110
3 51 211 210
3 51 212 211
3 52 213 112
3 52 214 213
3 36 215 166
3 53 216 115
3 53 217 216
3 26 218 149
3 54 219 118
3 54 220 219
3 54 221 220
3 55 222 120
3 55 223 222
3 55 224 223
3 56 225 122
3 56 226 225
3 28 227 153
3 57 228 125
3 57 229 228
3 57 311 313
3 313 312 229
3 311 312 313
3 30 230 157
3 40 231 176
3 58 232 130
3 58 233 232
3 33 314 316
3 316 315 162
3 314 315 316
3 59 60 14
3 61 60 59
3 61 16 60
3 61 62 16
3 63 62 61
3 63 18 62
3 64 65 19
3 66 65 64
3 66 20 65
3 66 67 20
3 68 67 66
3 68 21 67
3 69 70 22
3 71 70 69
3 71 24 70
3 72 73 25
3 74 73 72
3 74 27 73
3 74 75 27
3 76 75 74
3 76 29 75
3 76 77 29
3 78 77 76
3 78 31 77
3 79 80 32
3 81 80 79
3 81 317 319
3 319 318 80
3 317 318 319
3 81 320 321
3 323 322 81
3 82 324 325
3 82 326 328
3 326 34 327
3 326 327 328
3 83 84 35
3 85 84 83
3 85 37 84
3 86 87 15
3 88 87 86
3 88 38 87
3 88 89 38
3 90 89 88
3 90 39 89
3 90 91 39
3 92 91 90
3 92 41 91
3 93 94 17
3 95 94 93
3 95 42 94
3 95 96 42
3 97 96 95
3 97 43 96
3 329 98 330
3 99 331 333
3 331 98 332
3 331 332 333
3 99 44 98
3 334 100 335
3 101 336 338
3 336 100 337
3 336 337 338
3 101 45 100
3 101 102 45
3 103 102 101
3 103 46 102
3 339 47 340
3 341 104 342
3 343 342 47
3 341 342 343
3 344 104 345
3 347 346 104
3 348 48 349
3 350 105 351
3 352 105 353
3 354 49 355
3 356 355 105
3 354 355 356
3 106 357 359
3 357 107 358
3 357 358 359
3 108 107 106
3 108 50 107
3 109 110 23
3 111 110 109
3 111 51 110
3 111 112 51
3 113 112 111
3 113 52 112
3 114 115 36
3 116 115 114
3 116 53 115
3 117 118 26
3 119 118 117
3 119 54 118
3 119 120 54
3 121 120 119
3 121 55 120
3 121 122 55
3 123 122 121
3 123 56 122
3 124 125 28
3 126 125 124
3 126 57 125
3 126 360 362
3 362 361 57
3 360 361 362
3 364 363 126
3 127 365 366
3 127 367 368
3 128 369 371
3 371 370 30
3 369 370 371
3 373 372 128
3 129 130 40
3 131 130 129
3 131 58 130
3 375 374 33
3 132 133 4
3 134 133 132
3 134 15 133
3 60 134 14
3 135 134 60
3 135 15 134
3 135 86 15
3 136 86 135
3 136 6 86
3 136 137 6
3 138 137 136
3 138 17 137
3 62 138 16
3 139 138 62
3 139 17 138
3 139 93 17
3 140 93 139
3 140 8 93
3 65 376 378
3 378 377 19
3 376 377 378
3 380 379 65
3 67 381 383
3 383 382 20
3 381 382 383
3 141 384 386
3 386 385 67
3 384 385 386
3 141 387 388
3 141 389 390
3 142 391 393
3 393 392 141
3 391 392 393
3 142 394 396
3 394 10 395
3 394 395 396
3 143 144 9
3 145 144 143
3 145 23 144
3 70 145 22
3 146 145 70
3 146 23 145
3 146 109 23
3 147 109 146
3 147 11 109
3 148 149 5
3 150 149 148
3 150 26 149
3 73 150 25
3 151 150 73
3 151 26 150
3 151 117 26
3 152 117 151
3 152 12 117
3 152 153 12
3 154 153 152
3 154 28 153
3 75 154 27
3 155 154 75
3 155 28 154
3 155 124 28
3 156 124 155
3 156 13 124
3 156 157 13
3 158 157 156
3 158 30 157
3 77 158 29
3 159 158 77
3 159 30 158
3 159 128 30
3 160 128 159
3 160 397 399
3 399 398 128
3 397 398 399
3 161 162 7
3 163 162 161
3 163 33 162
3 80 163 32
3 400 163 401
3 402 401 80
3 400 401 402
3 403 33 404
3 405 404 163
3 403 404 405
3 407 406 33
3 408 19 409
3 410 19 411
3 412 64 413
3 414 413 19
3 412 413 414
3 164 415 417
3 415 64 416
3 415 416 417
3 164 2 64
3 165 166 0
3 167 166 165
3 167 36 166
3 84 167 35
3 168 167 84
3 168 36 167
3 168 114 36
3 169 114 168
3 169 5 114
3 133 85 4
3 170 85 133
3 170 37 85
3 87 170 15
3 171 170 87
3 171 37 170
3 171 169 37
3 172 169 171
3 172 5 169
3 172 148 5
3 173 148 172
3 173 25 148
3 89 173 38
3 174 173 89
3 174 25 173
3 174 72 25
3 175 72 174
3 175 3 72
3 175 176 3
3 177 176 175
3 177 40 176
3 91 177 39
3 178 177 91
3 178 40 177
3 178 129 40
3 179 129 178
3 179 7 129
3 137 92 6
3 180 92 137
3 180 41 92
3 94 180 17
3 181 180 94
3 181 41 180
3 181 179 41
3 182 179 181
3 182 7 179
3 182 161 7
3 183 161 182
3 183 32 161
3 96 183 42
3 184 183 96
3 184 32 183
3 184 79 32
3 185 79 184
3 185 1 79
3 418 106 419
3 420 106 421
3 422 9 423
3 424 423 106
3 422 423 424
3 186 425 426
3 186 427 429
3 427 9 428
3 427 428 429
3 186 143 9
3 187 143 186
3 187 22 143
3 98 430 432
3 430 187 431
3 430 431 432
3 188 187 98
3 188 22 187
3 188 69 22
3 189 69 188
3 189 0 69
3 433 99 434
3 433 434 435
3 190 436 438
3 436 99 437
3 436 437 438
3 190 44 99
3 100 439 441
3 439 190 440
3 439 440 441
3 191 190 100
3 191 44 190
3 191 189 44
3 192 189 191
3 192 0 189
3 192 165 0
3 193 165 192
3 193 35 165
3 102 193 45
3 194 193 102
3 194 35 193
3 194 83 35
3 195 83 194
3 195 4 83
3 442 103 443
3 444 103 445
3 446 46 447
3 448 447 103
3 446 447 448
3 196 449 450
3 196 451 453
3 451 46 452
3 451 452 453
3 196 195 46
3 197 195 196
3 197 4 195
3 197 132 4
3 198 132 197
3 198 14 132
3 104 198 47
3 199 198 104
3 199 14 198
3 199 59 14
3 454 59 455
3 456 455 199
3 454 455 456
3 458 457 59
3 459 63 460
3 200 461 463
3 461 63 462
3 461 462 463
3 200 18 63
3 464 200 465
3 201 466 468
3 466 200 467
3 466 467 468
3 201 18 200
3 201 140 18
3 202 140 201
3 202 8 140
3 469 48 470
3 203 471 473
3 471 472 473
3 203 474 476
3 474 48 475
3 474 475 476
3 203 202 48
3 204 202 203
3 204 8 202
3 204 97 8
3 205 97 204
3 205 43 97
3 105 477 479
3 477 205 478
3 477 478 479
3 206 205 105
3 206 43 205
3 206 185 43
3 207 185 206
3 207 1 185
3 480 49 481
3 482 49 483
3 484 207 485
3 486 485 49
3 484 485 486
3 487 207 488
3 489 1 490
3 491 490 207
3 489 490 491
3 493 492 1
3 107 494 495
3 208 496 498
3 498 497 107
3 496 497 498
3 208 499 500
3 208 501 502
3 504 503 208
3 144 108 9
3 209 108 144
3 209 50 108
3 110 209 23
3 210 209 110
3 210 50 209
3 210 505 507
3 507 506 50
3 505 506 507
3 211 508 510
3 510 509 210
3 508 509 510
3 211 511 512
3 211 513 515
3 513 82 514
3 513 514 515
3 212 82 211
3 212 34 82
3 112 212 51
3 213 212 112
3 213 34 212
3 213 164 34
3 214 164 213
3 214 2 164
3 166 71 0
3 215 71 166
3 215 24 71
3 115 215 36
3 216 215 115
3 216 24 215
3 216 147 24
3 217 147 216
3 217 11 147
3 149 116 5
3 218 116 149
3 218 53 116
3 118 218 26
3 219 218 118
3 219 53 218
3 219 217 53
3 220 217 219
3 220 11 217
3 220 113 11
3 221 113 220
3 221 52 113
3 120 221 54
3 222 221 120
3 222 52 221
3 222 214 52
3 223 214 222
3 223 2 214
3 223 68 2
3 224 68 223
3 224 21 68
3 122 224 55
3 225 224 122
3 225 21 224
3 225 142 21
3 226 142 225
3 226 10 142
3 153 123 12
3 227 123 153
3 227 56 123
3 125 227 28
3 228 227 125
3 228 56 227
3 228 226 56
3 229 226 228
3 229 10 226
3 229 516 518
3 518 517 10
3 516 517 518
3 520 519 229
3 522 521 57
3 157 127 13
3 230 127 157
3 230 523 525
3 525 524 127
3 523 524 525
3 526 230 527
3 528 527 30
3 526 527 528
3 529 230 530
3 532 531 230
3 176 78 3
3 231 78 176
3 231 31 78
3 130 231 40
3 232 231 130
3 232 31 231
3 232 160 31
3 233 160 232
3 233 533 535
3 535 534 160
3 533 534 535
3 162 131 7
3 536 131 537
3 538 537 162
3 536 537 538
3 539 58 540
3 541 540 131
3 539 540 541
3 543 542 33
3 544 58 545
3 546 233 547
3 548 547 58
3 546 547 548
3 549 233 550
3 552 551 233
