ply
format ascii 1.0
element vertex 818
property float x
property float y
property float z
element face 908
property list uchar int vertex_index
end_header
28.037899 -33.74474 54.355572
27.714834 -72.507332 22.778091
24.286526 -71.609108 42.028896
24.940538 -52.997837 59.136059
28.944464 -53.290249 40.558277
28.945545 -28.682827 36.169899
20.49147 -68.245033 49.833622
18.380379 -75.978767 39.37735
20.732758 -60.03981 58.181152
25.263338 -62.508976 51.216633
28.179535 -31.650135 44.656727
26.680336 -73.189728 32.563766
22.234663 -80.497627 31.315216
27.278999 -44.073769 57.52729
28.407644 -43.19997 47.939796
27.834448 -53.673588 50.338791
27.722185 -63.710159 41.981747
28.99247 -41.623077 38.32671
18.26668 -66.259018 52.76046
17.45923 -69.539162 48.370213
18.413855 -62.53651 56.683956
20.879425 -64.223534 54.285172
27.743368 -71.547562 17.988255
28.130913 -27.950592 52.507671
28.034277 -26.898037 47.699665
28.092503 -32.801418 49.310463
28.324148 -67.326286 22.463676
28.166286 -66.154556 17.680223
25.681789 -72.774918 37.222168
24.846321 -77.120102 32.403664
23.304192 -76.120277 36.762051
26.365782 -48.805286 58.547928
27.56798 -48.878056 54.170975
26.675606 -53.468975 55.069038
24.913929 -67.165825 46.775677
26.739248 -63.246151 46.769405
26.33005 -68.156731 42.116184
27.339298 -68.443413 37.334591
18.834322 -46.071259 67.136925
29.175957 -21.833649 35.176369
30.295212 -19.907303 31.567774
29.838181 -27.1752 32.175602
28.732792 -48.110203 44.358139
28.699644 -42.503819 42.979282
29.047289 -47.425385 39.422401
22.479637 -70.25695 46.032742
21.540104 -74.38279 40.961971
19.529839 -72.156036 44.837795
23.130701 -56.867283 58.88142
25.266077 -57.632584 55.438908
23.352598 -61.472198 54.973217
23.075033 -65.933945 50.74984
28.097252 -25.463209 43.260933
28.418884 -30.278038 40.344433
27.376463 -72.999916 27.772379
26.784288 -77.556808 22.937258
25.959841 -77.775291 27.685669
23.997551 -81.664444 27.09391
20.451853 -78.329552 35.679592
27.797752 -39.085506 56.101936
28.144033 -38.621532 51.016651
28.004032 -43.875046 52.833569
28.305798 -48.627792 49.285706
28.522139 -53.71851 45.426003
26.859201 -58.316387 51.048435
27.921341 -58.594204 46.291359
28.561804 -58.557541 41.407265
28.339329 -63.708008 37.095585
27.90407 -68.599739 32.416153
24.456972 -48.18605 62.523941
22.03373 -47.293816 65.329704
22.51951 -52.224876 62.370819
20.245985 -55.642456 61.58358
17.933725 -58.641098 59.942913
30.941992 -12.383764 30.981758
28.33551 -37.792732 46.222034
28.555483 -36.726521 41.650471
28.928911 -35.113022 37.12141
17.264593 -65.134422 54.037521
16.93854 -66.6231 52.15398
18.419367 -64.451363 54.798214
27.785528 -71.940094 20.470724
27.493624 -74.128632 18.1068
27.446394 -74.593628 20.561893
28.087137 -31.003412 53.330231
28.068043 -30.49844 51.027451
28.074928 -33.356361 51.771534
27.981812 -70.340004 25.131062
28.043243 -69.969566 22.731548
28.053967 -69.338737 20.323252
24.98608 -72.391205 39.579639
24.620121 -74.522942 37.075699
23.840202 -73.913193 39.363663
25.706936 -50.839294 59.001602
26.529091 -51.052658 56.913658
25.85898 -53.222546 57.293301
24.619848 -69.472687 44.394302
25.682417 -67.605728 44.621712
25.395712 -69.962967 42.175507
25.963625 -70.566513 39.805344
28.665306 -26.157694 37.681774
29.033983 -25.249914 35.646721
29.508404 -24.508762 33.657639
29.360149 -27.902363 34.086304
28.873472 -50.678719 42.333374
28.902555 -47.878902 41.814308
29.037552 -50.547516 39.801132
21.499338 -69.273994 48.020172
21.068401 -71.452019 45.356308
20.093483 -70.175491 47.450195
21.966784 -58.542141 58.626263
23.217649 -59.22274 57.023659
22.072147 -60.767433 56.760094
20.724804 -66.310394 52.079693
21.982157 -65.084045 52.669312
21.855293 -67.177055 50.388916
22.942799 -68.058113 48.398029
28.070095 -29.412012 46.156322
28.040157 -26.074076 45.302891
28.11759 -28.588432 44.046188
28.225679 -27.831861 41.840538
28.276085 -31.095049 42.476536
27.807405 -68.159996 15.377547
27.068974 -73.195366 30.126804
26.749966 -75.398102 27.850327
26.314598 -75.529846 30.098759
23.622629 -78.937874 31.950346
24.382702 -79.352196 29.897579
23.193382 -81.093323 29.289858
20.007986 -75.383087 40.143154
21.050337 -76.41555 38.251579
19.411304 -77.254799 37.500988
27.588268 -41.539787 56.797642
27.894182 -41.469139 54.342537
27.689384 -44.020058 55.251198
27.691601 -51.300526 52.415611
27.98625 -48.833172 51.765785
28.116327 -51.116455 49.950459
28.437021 -51.091862 47.335972
28.23024 -53.651379 47.885414
25.290047 -60.084316 53.397079
26.130737 -58.063416 53.280041
26.147215 -60.467514 51.206535
27.31741 -63.403099 44.397038
27.384182 -61.020126 46.663071
27.857027 -61.14856 44.174286
28.27607 -58.772209 43.767483
28.204493 -61.189163 41.786865
28.485855 -61.071999 39.345081
28.069023 -63.679211 39.660591
26.966612 -70.948082 35.125805
27.655256 -68.541573 34.95528
27.345997 -70.974586 32.607273
27.648724 -70.791229 30.143713
25.337517 -46.099186 62.174339
24.206772 -45.890739 63.994778
19.174068 -48.402393 65.984871
20.481045 -46.572083 66.467361
20.855101 -49.06245 65.106163
22.29538 -49.783604 63.889153
21.452549 -53.981216 62.059902
16.794348 -59.87973 58.900528
30.199993 -13.544256 32.781555
28.253233 -40.86224 49.579796
28.238934 -38.074478 48.606323
28.388472 -40.568913 47.068855
28.833456 -41.952778 40.636475
28.641617 -39.609077 42.155006
28.778389 -38.881779 39.863182
28.720123 -35.885578 39.26778
28.970884 -38.459545 37.556717
19.390842 -67.320381 51.327785
18.946566 -69.052246 49.145981
18.015371 -67.901855 50.668999
19.560932 -61.464592 57.424484
20.854696 -62.185196 56.274212
19.637228 -63.53833 55.484417
19.628933 -65.452568 53.474083
27.424364 -73.741058 15.487224
28.06838 -27.506666 50.058075
28.051928 -29.934273 48.483654
28.127825 -32.4561 46.974453
28.519361 -65.556999 29.764923
28.305191 -66.529747 20.197311
27.970797 -68.749069 17.833529
26.216026 -73.050072 34.946735
25.837784 -75.322212 32.457912
25.283312 -74.965332 34.796513
24.102518 -76.695366 34.647915
22.777054 -78.32428 34.038589
26.862595 -46.526176 58.146275
27.431614 -46.549454 55.797222
27.058731 -48.77354 56.397602
27.183386 -51.332848 54.635117
27.340254 -53.767235 52.594093
25.136112 -64.995247 48.858097
26.044601 -62.837547 49.178532
25.925777 -65.232697 46.876442
26.5767 -65.673866 44.510601
27.1105 -65.857735 42.277912
27.523054 -66.164787 39.803696
26.872868 -68.354156 39.825356
26.580921 -70.578445 37.601952
17.119181 -45.280342 67.600494
29.352062 -18.170671 34.835308
29.901691 -17.17955 33.12434
29.653927 -20.929121 33.465733
30.036818 -23.640734 31.863588
28.582672 -45.71854 46.125069
28.562073 -42.928059 45.414673
28.745733 -45.367607 43.573475
28.891092 -44.886707 41.109688
29.038988 -44.625591 38.742489
23.402464 -71.019966 44.078362
23.003269 -73.071487 41.651382
22.068514 -72.326141 43.549217
20.639816 -73.387001 42.828854
19.025797 -74.057648 42.17675
18.578142 -70.755157 46.833214
17.944468 -72.61573 44.157188
17.364433 -74.536026 41.278133
24.008158 -54.960102 59.213253
25.139433 -55.258514 57.361847
24.282928 -57.302963 57.233517
24.319942 -59.612141 55.377415
24.333054 -62.077751 53.175335
22.10701 -62.89838 54.802792
23.212736 -63.726753 52.963909
24.282867 -64.320137 51.003143
24.086519 -66.501152 48.881466
23.839714 -68.788689 46.452255
28.127657 -22.048231 42.47488
28.418005 -27.277382 39.639145
28.657692 -29.644958 38.124798
27.595676 -72.758392 25.239506
27.31609 -74.929398 23.018444
27.087708 -75.25589 25.297344
26.457298 -77.631538 25.329838
25.709627 -79.851471 25.177261
25.429712 -77.6147 29.949814
25.047709 -79.884171 27.388542
22.469343 -75.261581 38.976089
21.937334 -77.447205 36.16058
21.314936 -79.518303 33.498306
19.790344 -80.33165 32.937149
28.067507 -36.150009 52.657093
28.005136 -38.924206 53.557995
28.106815 -41.238316 51.903305
28.236185 -43.563126 50.362915
27.865543 -46.493271 53.336388
28.173002 -46.269787 50.949505
28.391289 -45.913567 48.664898
28.541145 -48.365376 46.850014
28.682125 -50.824818 44.815487
28.753481 -53.50156 43.062057
26.053839 -55.729103 55.20673
26.820015 -55.906693 53.004513
27.420404 -56.132057 50.681976
26.850355 -60.667114 49.017159
27.415514 -58.489223 48.866985
27.894262 -56.205181 48.361614
28.269634 -56.289055 45.915871
28.556826 -56.223564 43.506905
28.698582 -61.082005 36.640793
27.908291 -66.057983 37.328983
28.177523 -66.064812 34.689548
28.358829 -65.974945 32.282394
28.138306 -68.24939 29.836685
27.832354 -70.742462 27.602472
27.499271 -39.373589 58.365368
27.130022 -41.663975 59.265232
26.744635 -44.035862 59.687611
26.207603 -46.393402 60.156063
25.512445 -48.51173 60.636776
24.75124 -50.542702 60.851288
20.116426 -44.051941 67.702774
21.663071 -44.847187 66.688225
23.087214 -45.341419 65.447678
23.311247 -47.869057 64.018906
23.57365 -50.279591 62.48785
23.853519 -52.606361 60.855217
22.829082 -54.565102 60.703091
21.808355 -56.215614 60.403908
20.62011 -57.74712 59.989334
19.060244 -57.195728 60.870457
19.409729 -59.276123 59.261234
18.171904 -60.679729 58.321301
17.11524 -61.874371 57.26236
27.045923 -77.154572 20.677631
30.575157 -16.110685 31.345572
28.130665 -35.696266 50.26387
28.190214 -35.30175 47.788136
28.256226 -34.778309 45.473717
28.508135 -40.033371 44.608753
28.438694 -37.264427 43.833488
28.346588 -34.193577 43.210648
28.478846 -33.530991 40.944912
28.667789 -32.72438 38.732731
28.934444 -32.059151 36.561703
29.263309 -31.221903 34.547543
16.655866 -65.237751 53.744991
16.848498 -64.654831 54.487775
16.848498 -64.654831 54.487775
17.294369 -64.344856 54.880046
27.691289 -67.915088 14.189954
27.609706 -69.351559 14.219791
22.080075 -81.486007 29.978918
22.559434 -81.783856 28.966239
22.714022 -80.795475 30.302537
24.133419 -44.628158 64.674227
24.667776 -44.804625 63.839008
20.182774 -49.946381 64.884716
20.014584 -48.732422 65.545517
19.342257 -49.616352 65.32407
20.949441 -50.346363 64.379652
20.182774 -49.946381 64.884716
29.902203 -13.970836 33.624792
30.060308 -12.100456 33.432153
16.723584 -67.379791 51.083061
16.253373 -66.65905 51.838445
27.583866 -72.64431 16.737739
27.52921 -72.331695 15.538674
27.688712 -71.234948 16.789189
27.366698 -75.191742 16.872001
27.338757 -75.487946 18.132521
28.099646 -27.728629 51.282873
28.122803 -26.282122 50.844015
28.15407 -26.504086 52.068813
28.557623 -65.406154 28.440333
28.388189 -66.793937 28.564101
28.463987 -66.167111 23.554033
28.320425 -67.533592 23.669246
28.458852 -65.8536 22.346994
28.463987 -66.167111 23.554033
28.31467 -66.928016 21.330493
28.449374 -65.45533 21.213811
28.458852 -65.8536 22.346994
27.688712 -71.234948 16.789189
27.802427 -69.835701 16.711827
27.857083 -70.148315 17.910892
16.245586 -44.789932 67.71479
16.914895 -44.008543 68.096947
29.030222 -20.570462 35.913658
28.957912 -22.340502 36.179232
29.26401 -20.00216 35.005838
29.118274 -18.738972 35.743128
29.030222 -20.570462 35.913658
30.121595 -26.704363 31.229605
30.220913 -24.93713 31.073598
29.9375 -25.407967 32.019595
17.154935 -72.780735 43.684579
17.434539 -71.890934 45.053466
16.864917 -73.740883 42.245052
17.65445 -73.575878 42.71766
17.154935 -72.780735 43.684579
16.50401 -74.620686 40.814869
16.864917 -73.740883 42.245052
28.040621 -25.353843 47.229944
28.065158 -25.632479 48.464024
28.076613 -24.172926 43.93638
28.048065 -24.47836 44.95736
28.068705 -25.768642 44.281912
28.112454 -23.75572 42.867907
28.091815 -22.465437 43.543354
28.076613 -24.172926 43.93638
28.164867 -25.078993 42.169741
28.180069 -23.371504 41.776714
28.112454 -23.75572 42.867907
28.275352 -64.748487 17.542936
28.345081 -64.97685 18.759746
24.372758 -81.843311 25.978777
24.897837 -80.953175 26.126093
24.52263 -80.774307 27.241226
23.8709 -82.723557 25.727283
24.372758 -81.843311 25.978777
19.577799 -81.368313 31.467234
19.005795 -80.716057 32.439491
20.305749 -80.97607 31.800863
19.577799 -81.368313 31.467234
27.901444 -39.004856 54.829966
27.978107 -37.763544 54.355002
27.874415 -37.844194 55.626972
28.681371 -57.237948 41.18741
28.678882 -56.070959 42.237231
28.559315 -57.390552 42.457085
28.668444 -58.535612 40.161118
28.681371 -57.237948 41.18741
28.449628 -63.633091 35.769188
28.629254 -62.32009 35.541792
28.518955 -62.395007 36.868189
27.297573 -39.233376 59.520342
27.49477 -38.110508 59.070143
27.112949 -40.378569 59.970274
27.314647 -40.518782 58.8153
27.297573 -39.233376 59.520342
26.388884 -43.965302 60.731203
26.669273 -42.779793 60.520098
26.120368 -45.144072 60.965429
26.476119 -45.214632 59.921837
26.388884 -43.965302 60.731203
19.475374 -45.0616 67.419849
19.281861 -43.787377 67.980278
18.640809 -44.797035 67.697354
18.496984 -57.918413 60.406685
18.273986 -56.847063 61.180249
17.710726 -57.569748 60.716476
16.461761 -61.446667 57.483473
16.954794 -60.87705 58.081444
16.301315 -60.449347 58.302557
16.615226 -62.339889 56.726168
16.461761 -61.446667 57.483473
31.112653 -10.373152 30.890508
30.746998 -11.160358 31.691381
31.322717 -11.800506 30.148203
31.493378 -9.789894 30.056953
31.112653 -10.373152 30.890508
29.40826 -32.570025 33.739199
29.231116 -32.937211 34.813091
29.477691 -30.970903 33.50383
29.40826 -32.570025 33.739199
16.492839 -65.98209 52.80322
17.101567 -65.878761 53.09575
16.655866 -65.237751 53.744991
16.253373 -66.65905 51.838445
16.492839 -65.98209 52.80322
17.871755 -64.003327 55.260393
18.416611 -63.493937 55.741085
17.869 -63.0459 56.203264
17.84198 -64.792892 54.417867
17.871755 -64.003327 55.260393
17.294369 -64.344856 54.880046
27.315143 -75.720444 19.360068
27.338757 -75.487946 18.132521
27.470009 -74.36113 19.334347
28.149257 -69.040451 25.002938
28.119415 -69.18544 26.24717
28.179972 -68.855232 23.803182
28.149257 -69.040451 25.002938
28.012528 -70.154785 23.931305
28.183695 -68.647926 22.597612
28.320425 -67.533592 23.669246
28.179972 -68.855232 23.803182
28.702587 -24.502524 37.431934
28.554079 -24.897596 38.373354
28.886926 -24.048634 36.414408
28.702587 -24.502524 37.431934
28.849645 -25.703804 36.664248
29.10497 -23.541781 35.411545
28.957912 -22.340502 36.179232
28.886926 -24.048634 36.414408
17.19192 -70.35265 47.159979
16.713878 -69.588673 48.042395
27.898409 -66.824241 15.300579
28.077849 -65.821522 16.451918
27.986846 -67.157276 16.528885
27.898409 -66.824241 15.300579
27.691289 -67.915088 14.189954
22.991064 -82.226204 27.8533
23.393149 -82.511764 26.755326
23.595467 -81.378884 28.191884
22.991064 -82.226204 27.8533
22.559434 -81.783856 28.966239
25.233148 -44.908848 62.928789
25.685325 -44.996964 61.974568
24.772144 -45.994962 63.084558
25.233148 -44.908848 62.928789
24.667776 -44.804625 63.839008
21.669581 -50.70694 63.771147
21.57524 -49.423027 64.497658
20.949441 -50.346363 64.379652
21.781645 -51.927576 63.01198
22.407445 -51.00424 63.129986
21.669581 -50.70694 63.771147
21.248165 -52.805746 62.856521
21.98603 -53.103046 62.215361
21.781645 -51.927576 63.01198
20.679997 -53.674253 62.587589
21.248165 -52.805746 62.856521
20.076715 -54.504873 62.349428
20.849267 -54.811836 61.821741
20.679997 -53.674253 62.587589
17.100358 -58.214928 60.187578
17.710726 -57.569748 60.716476
16.53067 -58.834243 59.666386
17.364036 -59.260414 59.42172
17.100358 -58.214928 60.187578
15.992964 -59.468805 59.01942
16.53067 -58.834243 59.666386
16.301315 -60.449347 58.302557
15.992964 -59.468805 59.01942
26.677574 -78.584801 21.781153
26.469729 -78.772953 22.883705
30.375999 -11.740604 32.59128
30.060308 -12.100456 33.432153
30.570992 -12.96401 31.881656
30.746998 -11.160358 31.691381
30.375999 -11.740604 32.59128
30.642705 -19.370944 30.675829
30.493728 -21.2602 30.772526
17.261999 -68.019169 50.34057
17.476955 -67.262477 51.41149
16.723584 -67.379791 51.083061
16.983929 -68.837822 49.191177
17.7373 -68.720508 49.519606
17.261999 -68.019169 50.34057
16.713878 -69.588673 48.042395
16.983929 -68.837822 49.191177
27.361809 -73.41204 14.33429
27.52921 -72.331695 15.538674
27.296622 -74.77264 14.259853
27.361809 -73.41204 14.33429
27.332068 -74.997955 15.562213
27.458994 -73.934845 16.797012
27.366698 -75.191742 16.872001
27.296622 -74.77264 14.259853
27.332068 -74.997955 15.562213
28.08221 -25.936794 49.643229
28.122803 -26.282122 50.844015
28.051329 -27.202351 48.87887
28.065158 -25.632479 48.464024
28.08221 -25.936794 49.643229
28.670393 -64.188847 29.590198
28.621833 -64.353117 30.880522
28.670393 -64.188847 29.590198
28.557623 -65.406154 28.440333
28.414534 -65.164446 20.01829
28.449374 -65.45533 21.213811
28.235739 -66.342151 18.938767
28.345081 -64.97685 18.759746
28.414534 -65.164446 20.01829
27.720731 -69.541165 15.483835
27.889101 -68.454532 16.605538
27.802427 -69.835701 16.711827
27.609706 -69.351559 14.219791
27.720731 -69.541165 15.483835
18.002358 -76.874847 38.020155
17.502145 -76.134235 38.946041
17.783239 -44.401577 67.929138
16.914895 -44.008543 68.096947
17.976751 -45.6758 67.368709
18.640809 -44.797035 67.697354
17.783239 -44.401577 67.929138
16.372928 -46.084922 67.182636
16.245586 -44.789932 67.71479
17.257029 -46.506574 67.052875
16.372928 -46.084922 67.182636
18.114599 -46.902033 66.821091
17.976751 -45.6758 67.368709
17.257029 -46.506574 67.052875
18.284472 -48.0676 66.245064
19.004195 -47.236826 66.560898
18.114599 -46.902033 66.821091
18.517413 -49.318788 65.612915
18.284472 -48.0676 66.245064
19.342257 -49.616352 65.32407
18.517413 -49.318788 65.612915
29.231645 -16.865432 35.474619
29.118274 -18.738972 35.743128
29.478238 -16.284043 34.651668
29.231645 -16.865432 35.474619
29.626877 -17.67511 33.979824
29.753052 -15.788483 33.796184
29.478238 -16.284043 34.651668
30.364531 -23.126916 30.920433
30.493728 -21.2602 30.772526
30.166015 -21.774018 31.715681
30.364531 -23.126916 30.920433
30.220913 -24.93713 31.073598
17.751376 -70.960647 46.39148
18.018686 -70.14716 47.601714
17.19192 -70.35265 47.159979
18.261305 -71.685443 45.495201
17.751376 -70.960647 46.39148
17.434539 -71.890934 45.053466
16.994172 -75.412865 39.896433
17.502145 -76.134235 38.946041
17.872406 -75.257396 40.327742
16.994172 -75.412865 39.896433
16.50401 -74.620686 40.814869
28.043561 -24.941863 46.031557
28.040621 -25.353843 47.229944
28.037217 -26.486057 46.501278
28.043561 -24.941863 46.031557
28.048065 -24.47836 44.95736
28.119767 -20.900271 43.261392
28.091815 -22.465437 43.543354
28.16657 -20.414416 42.161392
28.119767 -20.900271 43.261392
28.20657 -21.683796 41.436132
28.16657 -20.414416 42.161392
28.20657 -21.683796 41.436132
28.180069 -23.371504 41.776714
28.22908 -26.263319 41.459543
28.164867 -25.078993 42.169741
28.161465 -26.647535 42.550736
28.325243 -25.986079 40.358846
28.22908 -26.263319 41.459543
28.321842 -27.554621 40.739841
28.430428 -25.45744 39.35204
28.325243 -25.986079 40.358846
28.541656 -26.717538 38.66046
28.554079 -24.897596 38.373354
28.430428 -25.45744 39.35204
29.022168 -53.230969 39.251173
28.961978 -54.540407 39.479192
28.275352 -64.748487 17.542936
28.077849 -65.821522 16.451918
26.306234 -78.810318 24.079995
26.469729 -78.772953 22.883705
26.620793 -77.594173 24.133548
25.932398 -79.920285 24.003707
26.306234 -78.810318 24.079995
26.083463 -78.741505 25.253549
25.567695 -80.941353 23.974414
25.932398 -79.920285 24.003707
25.228796 -80.936825 25.020453
25.378668 -79.867821 26.282902
24.897837 -80.953175 26.126093
25.567695 -80.941353 23.974414
25.228796 -80.936825 25.020453
23.8709 -82.723557 25.727283
23.393149 -82.511764 26.755326
18.517821 -77.512863 37.081974
18.895842 -76.616783 38.439169
18.002358 -76.874847 38.020155
19.107866 -78.145626 36.221081
18.517821 -77.512863 37.081974
19.628141 -78.683003 35.310383
19.931579 -77.792176 36.59029
19.107866 -78.145626 36.221081
19.297386 -79.684051 33.939161
19.005795 -80.716057 32.439491
20.121099 -79.330601 34.30837
19.628141 -78.683003 35.310383
19.297386 -79.684051 33.939161
21.068045 -80.569397 32.081441
20.55264 -79.924976 33.217727
20.305749 -80.97607 31.800863
21.527909 -81.059059 30.989897
21.7748 -80.007965 32.406761
21.068045 -80.569397 32.081441
22.080075 -81.486007 29.978918
21.527909 -81.059059 30.989897
28.009292 -36.376446 53.90455
28.052703 -34.947374 53.506332
27.994488 -35.173811 54.75379
28.036321 -37.537107 53.107544
28.009292 -36.376446 53.90455
27.978107 -37.763544 54.355002
28.777209 -54.709957 42.014807
28.655154 -54.862562 43.284481
28.678882 -56.070959 42.237231
28.872701 -54.604302 40.762917
28.848973 -53.395905 41.810167
28.777209 -54.709957 42.014807
28.961978 -54.540407 39.479192
28.872701 -54.604302 40.762917
28.63047 -59.792841 39.130026
28.668444 -58.535612 40.161118
28.523829 -59.81477 40.376173
28.736833 -59.797844 37.777881
28.63047 -59.792841 39.130026
28.592219 -61.077002 37.992937
28.821827 -59.697106 36.524074
28.736833 -59.797844 37.777881
28.7754 -60.988833 35.422457
28.821827 -59.697106 36.524074
28.7754 -60.988833 35.422457
28.629254 -62.32009 35.541792
28.368725 -64.811493 34.56617
28.449628 -63.633091 35.769188
28.258426 -64.88641 35.892567
28.459378 -64.766559 33.362592
28.368725 -64.811493 34.56617
28.268176 -66.019879 33.485971
28.541567 -64.56209 32.139258
28.459378 -64.766559 33.362592
28.439095 -65.765972 31.023658
28.621833 -64.353117 30.880522
28.541567 -64.56209 32.139258
28.197662 -68.140133 28.599982
28.388189 -66.793937 28.564101
28.328834 -66.903195 29.800804
28.044685 -69.386669 27.482875
28.197662 -68.140133 28.599982
27.98533 -69.495926 28.719578
27.907083 -70.541233 26.366767
28.119415 -69.18544 26.24717
28.044685 -69.386669 27.482875
28.201291 -26.745847 53.229622
28.15407 -26.504086 52.068813
28.155818 -28.24918 53.706978
28.201291 -26.745847 53.229622
28.13393 -29.77559 54.118257
28.109025 -29.477002 52.918951
28.155818 -28.24918 53.706978
28.08367 -31.182791 54.539
28.13393 -29.77559 54.118257
28.059051 -32.553455 55.05167
28.062518 -32.374076 53.842901
28.08367 -31.182791 54.539
27.990822 -33.962552 55.556193
28.059051 -32.553455 55.05167
27.994488 -35.173811 54.75379
27.990822 -33.962552 55.556193
27.779088 -37.917938 56.852909
27.874415 -37.844194 55.626972
27.629848 -38.061979 57.984625
27.49477 -38.110508 59.070143
27.648511 -39.229548 57.233652
27.779088 -37.917938 56.852909
27.629848 -38.061979 57.984625
26.861967 -41.59385 60.308909
27.112949 -40.378569 59.970274
26.937328 -42.849919 59.476422
26.861967 -41.59385 60.308909
26.669273 -42.779793 60.520098
25.77256 -46.246294 61.165201
26.120368 -45.144072 60.965429
25.685325 -44.996964 61.974568
19.97365 -42.786152 68.244831
19.281861 -43.787377 67.980278
20.732027 -43.147621 67.831928
19.97365 -42.786152 68.244831
21.50535 -43.545244 67.324654
20.732027 -43.147621 67.831928
20.889748 -44.449564 67.1955
22.231552 -43.800424 66.765777
21.50535 -43.545244 67.324654
22.943624 -44.04754 66.145504
22.231552 -43.800424 66.765777
22.375142 -45.094303 66.067951
23.57364 -44.353499 65.400677
22.943624 -44.04754 66.145504
23.646993 -45.616079 64.721228
24.133419 -44.628158 64.674227
23.57364 -44.353499 65.400677
19.444654 -55.305203 62.005529
20.076715 -54.504873 62.349428
18.851784 -56.081839 61.648968
18.273986 -56.847063 61.180249
19.653115 -56.419092 61.227018
19.444654 -55.305203 62.005529
18.851784 -56.081839 61.648968
17.219692 -62.71483 56.492466
17.869 -63.0459 56.203264
17.764547 -62.20544 56.973158
17.219692 -62.71483 56.492466
16.615226 -62.339889 56.726168
27.114907 -77.000916 19.417937
27.315143 -75.720444 19.360068
27.246158 -75.8741 20.619762
26.808391 -78.383682 20.651339
26.915105 -77.35569 21.807445
26.677574 -78.584801 21.781153
26.929147 -78.313541 19.45111
26.808391 -78.383682 20.651339
27.114907 -77.000916 19.417937
26.929147 -78.313541 19.45111
30.050842 -15.361903 32.952947
29.902203 -13.970836 33.624792
29.753052 -15.788483 33.796184
30.782677 -17.472635 30.564728
30.435184 -18.008994 31.456673
30.642705 -19.370944 30.675829
30.948749 -15.64996 30.452823
30.782677 -17.472635 30.564728
31.132167 -13.7865 30.270916
30.758575 -14.247224 31.163665
30.948749 -15.64996 30.452823
31.322717 -11.800506 30.148203
31.132167 -13.7865 30.270916
29.068713 -51.859602 38.872601
28.991008 -51.918883 40.179704
29.022168 -53.230969 39.251173
29.101194 -50.345202 38.678259
29.068713 -51.859602 38.872601
29.106063 -48.784136 38.488894
29.04242 -48.986451 39.611767
29.101194 -50.345202 38.678259
29.121488 -47.388786 38.173564
29.106063 -48.784136 38.488894
29.117338 -45.988889 37.833608
29.043138 -46.025488 39.082445
29.121488 -47.388786 38.173564
29.117359 -44.380586 37.565071
29.117338 -45.988889 37.833608
29.0941 -42.879329 37.357181
29.015729 -43.124334 38.534599
29.117359 -44.380586 37.565071
29.084676 -41.247025 37.164225
29.0941 -42.879329 37.357181
29.073883 -39.665259 36.779229
28.981677 -40.041311 37.941713
29.084676 -41.247025 37.164225
29.082429 -38.103521 36.475172
29.073883 -39.665259 36.779229
29.061442 -36.43026 36.257519
28.949897 -36.786283 37.339063
29.082429 -38.103521 36.475172
29.063917 -34.88277 36.100025
29.061442 -36.43026 36.257519
29.066683 -33.355835 35.820172
28.931677 -33.586087 36.841556
29.063917 -34.88277 36.100025
29.098876 -31.640527 35.554623
29.066683 -33.355835 35.820172
29.231116 -32.937211 34.813091
29.526111 -29.311132 33.27321
29.311729 -29.562133 34.316924
29.477691 -30.970903 33.50383
29.765127 -28.947551 32.317859
29.599165 -27.538781 33.130953
29.526111 -29.311132 33.27321
30.001579 -28.417825 31.390502
29.765127 -28.947551 32.317859
30.121595 -26.704363 31.229605
30.001579 -28.417825 31.390502
3 301 300 78
3 302 78 303
3 1 83 81
3 0 86 84
3 1 88 87
3 1 81 88
3 2 92 90
3 3 95 93
3 2 98 96
3 2 90 98
3 5 101 100
3 5 103 101
3 4 106 104
3 6 109 107
3 8 112 110
3 6 115 113
3 6 107 115
3 10 119 117
3 10 121 119
3 305 304 122
3 11 125 123
3 12 128 126
3 12 306 308
3 308 307 128
3 306 307 308
3 7 131 129
3 13 134 132
3 15 137 135
3 15 139 137
3 9 142 140
3 16 145 143
3 16 147 145
3 16 149 147
3 11 152 150
3 11 123 152
3 309 155 310
3 311 158 312
3 313 312 156
3 311 312 313
3 315 314 158
3 316 162 317
3 14 165 163
3 17 168 166
3 17 170 168
3 18 173 171
3 319 318 79
3 20 176 174
3 18 177 80
3 18 171 177
3 22 320 322
3 320 178 321
3 320 321 322
3 324 323 82
3 23 325 327
3 325 179 326
3 325 326 327
3 25 180 85
3 25 181 180
3 329 328 182
3 26 330 331
3 26 332 333
3 26 334 336
3 334 183 335
3 334 335 336
3 22 184 89
3 22 337 339
3 339 338 184
3 337 338 339
3 28 187 185
3 30 188 91
3 30 189 188
3 31 192 190
3 33 193 94
3 33 194 193
3 34 197 195
3 36 198 97
3 36 199 198
3 36 201 199
3 28 202 99
3 28 185 202
3 340 203 341
3 39 342 343
3 39 344 346
3 344 204 345
3 344 345 346
3 39 206 204
3 41 207 102
3 41 347 349
3 349 348 207
3 347 348 349
3 42 210 208
3 44 211 105
3 44 212 211
3 45 215 213
3 47 216 108
3 47 217 216
3 19 218 172
3 350 219 351
3 352 220 353
3 354 353 219
3 352 353 354
3 356 355 220
3 48 223 221
3 50 224 111
3 50 225 224
3 21 226 175
3 51 227 114
3 51 228 227
3 51 229 228
3 45 230 116
3 45 213 230
3 24 357 358
3 52 359 361
3 361 360 118
3 359 360 361
3 52 362 364
3 362 231 363
3 362 363 364
3 52 365 367
3 367 366 231
3 365 366 367
3 53 232 120
3 53 233 232
3 27 368 369
3 54 236 234
3 56 237 124
3 56 238 237
3 29 239 186
3 57 240 127
3 57 370 372
3 372 371 240
3 370 371 372
3 57 373 374
3 46 241 214
3 58 242 130
3 58 243 242
3 375 244 376
3 378 377 244
3 59 379 381
3 379 246 380
3 379 380 381
3 61 247 133
3 61 248 247
3 32 249 191
3 62 250 136
3 62 251 250
3 62 252 251
3 63 253 138
3 63 254 253
3 49 255 222
3 64 256 141
3 64 257 256
3 35 258 196
3 65 259 144
3 65 260 259
3 65 261 260
3 66 262 146
3 66 382 384
3 384 383 262
3 382 383 384
3 66 385 386
3 67 263 148
3 67 387 389
3 389 388 263
3 387 388 389
3 37 264 200
3 68 265 151
3 68 266 265
3 68 267 266
3 54 268 153
3 54 234 268
3 390 269 391
3 392 270 393
3 394 393 269
3 392 393 394
3 395 271 396
3 397 272 398
3 399 398 271
3 397 398 399
3 69 273 154
3 69 274 273
3 38 400 402
3 400 275 401
3 400 401 402
3 70 276 157
3 70 277 276
3 70 278 277
3 71 279 159
3 71 280 279
3 71 281 280
3 72 282 160
3 72 283 282
3 73 403 405
3 403 284 404
3 403 404 405
3 73 285 284
3 73 286 285
3 406 287 407
3 408 407 161
3 406 407 408
3 410 409 287
3 55 288 235
3 74 411 412
3 74 413 415
3 413 414 415
3 40 289 205
3 60 290 245
3 75 291 164
3 75 292 291
3 43 293 209
3 76 294 167
3 76 295 294
3 76 296 295
3 77 297 169
3 77 298 297
3 416 299 417
3 419 418 299
3 78 79 18
3 420 79 421
3 422 421 78
3 420 421 422
3 424 423 79
3 425 80 426
3 427 426 20
3 425 426 427
3 78 428 430
3 428 80 429
3 428 429 430
3 78 18 80
3 81 82 22
3 83 82 81
3 83 431 433
3 433 432 82
3 431 432 433
3 84 85 23
3 86 85 84
3 86 25 85
3 87 434 435
3 88 436 438
3 438 437 87
3 436 437 438
3 88 439 441
3 439 26 440
3 439 440 441
3 88 89 26
3 81 89 88
3 81 22 89
3 90 91 28
3 92 91 90
3 92 30 91
3 93 94 31
3 95 94 93
3 95 33 94
3 96 97 34
3 98 97 96
3 98 36 97
3 98 99 36
3 90 99 98
3 90 28 99
3 100 442 443
3 101 444 446
3 446 445 100
3 444 445 446
3 101 447 449
3 447 39 448
3 447 448 449
3 101 102 39
3 103 102 101
3 103 41 102
3 104 105 42
3 106 105 104
3 106 44 105
3 107 108 45
3 109 108 107
3 109 47 108
3 451 450 19
3 110 111 48
3 112 111 110
3 112 50 111
3 113 114 21
3 115 114 113
3 115 51 114
3 115 116 51
3 107 116 115
3 107 45 116
3 117 118 24
3 119 118 117
3 119 52 118
3 119 120 52
3 121 120 119
3 121 53 120
3 122 452 454
3 454 453 27
3 452 453 454
3 456 455 122
3 123 124 54
3 125 124 123
3 125 56 124
3 126 127 29
3 128 127 126
3 128 57 127
3 128 457 459
3 459 458 57
3 457 458 459
3 461 460 128
3 129 130 46
3 131 130 129
3 131 58 130
3 132 133 59
3 134 133 132
3 134 61 133
3 135 136 32
3 137 136 135
3 137 62 136
3 137 138 62
3 139 138 137
3 139 63 138
3 140 141 49
3 142 141 140
3 142 64 141
3 143 144 35
3 145 144 143
3 145 65 144
3 145 146 65
3 147 146 145
3 147 66 146
3 147 148 66
3 149 148 147
3 149 67 148
3 150 151 37
3 152 151 150
3 152 68 151
3 152 153 68
3 123 153 152
3 123 54 153
3 462 154 463
3 155 464 466
3 464 154 465
3 464 465 466
3 155 69 154
3 156 157 38
3 158 157 156
3 158 70 157
3 158 159 70
3 467 159 468
3 469 468 158
3 467 468 469
3 470 71 471
3 472 471 159
3 470 471 472
3 473 160 474
3 475 474 71
3 473 474 475
3 476 160 477
3 478 72 479
3 480 479 160
3 478 479 480
3 481 73 482
3 483 161 484
3 485 484 73
3 483 484 485
3 486 161 487
3 489 488 161
3 491 490 55
3 162 492 493
3 162 494 496
3 494 74 495
3 494 495 496
3 498 497 40
3 163 164 60
3 165 164 163
3 165 75 164
3 166 167 43
3 168 167 166
3 168 76 167
3 168 169 76
3 170 169 168
3 170 77 169
3 171 172 6
3 173 172 171
3 173 19 172
3 79 173 18
3 499 173 500
3 501 500 79
3 499 500 501
3 502 19 503
3 504 503 173
3 502 503 504
3 506 505 19
3 174 175 8
3 176 175 174
3 176 21 175
3 80 176 20
3 177 176 80
3 177 21 176
3 177 113 21
3 171 113 177
3 171 6 113
3 178 507 508
3 178 509 510
3 82 178 22
3 511 178 512
3 513 512 82
3 511 512 513
3 515 514 178
3 179 516 517
3 179 518 520
3 518 24 519
3 518 519 520
3 85 179 23
3 180 179 85
3 180 24 179
3 180 117 24
3 181 117 180
3 181 10 117
3 182 521 522
3 524 523 182
3 183 525 526
3 183 527 529
3 527 27 528
3 527 528 529
3 89 183 26
3 184 183 89
3 184 27 183
3 184 122 27
3 530 122 531
3 532 531 184
3 530 531 532
3 534 533 122
3 185 186 11
3 187 186 185
3 187 29 186
3 91 187 28
3 188 187 91
3 188 29 187
3 188 126 29
3 189 126 188
3 189 12 126
3 536 535 7
3 190 191 13
3 192 191 190
3 192 32 191
3 94 192 31
3 193 192 94
3 193 32 192
3 193 135 32
3 194 135 193
3 194 15 135
3 195 196 9
3 197 196 195
3 197 35 196
3 97 197 34
3 198 197 97
3 198 35 197
3 198 143 35
3 199 143 198
3 199 16 143
3 199 200 16
3 201 200 199
3 201 37 200
3 99 201 36
3 202 201 99
3 202 37 201
3 202 150 37
3 185 150 202
3 185 11 150
3 203 537 538
3 203 539 541
3 539 38 540
3 539 540 541
3 542 203 543
3 544 203 545
3 546 38 547
3 548 547 203
3 546 547 548
3 549 156 550
3 551 550 38
3 549 550 551
3 552 156 553
3 555 554 156
3 204 556 557
3 204 558 559
3 204 560 562
3 560 205 561
3 560 561 562
3 206 205 204
3 206 40 205
3 102 206 39
3 207 206 102
3 207 40 206
3 207 563 565
3 565 564 40
3 563 564 565
3 567 566 207
3 208 209 14
3 210 209 208
3 210 43 209
3 105 210 42
3 211 210 105
3 211 43 210
3 211 166 43
3 212 166 211
3 212 17 166
3 213 214 2
3 215 214 213
3 215 46 214
3 108 215 45
3 216 215 108
3 216 46 215
3 216 129 46
3 217 129 216
3 217 7 129
3 172 109 6
3 218 109 172
3 218 47 109
3 568 218 569
3 570 569 19
3 568 569 570
3 219 571 573
3 571 218 572
3 571 572 573
3 219 47 218
3 219 217 47
3 220 217 219
3 220 7 217
3 220 574 576
3 576 575 7
3 574 575 576
3 578 577 220
3 221 222 3
3 223 222 221
3 223 49 222
3 111 223 48
3 224 223 111
3 224 49 223
3 224 140 49
3 225 140 224
3 225 9 140
3 175 112 8
3 226 112 175
3 226 50 112
3 114 226 21
3 227 226 114
3 227 50 226
3 227 225 50
3 228 225 227
3 228 9 225
3 228 195 9
3 229 195 228
3 229 34 195
3 116 229 51
3 230 229 116
3 230 34 229
3 230 96 34
3 213 96 230
3 213 2 96
3 118 579 581
3 581 580 24
3 579 580 581
3 583 582 118
3 231 584 585
3 231 586 587
3 231 588 589
3 591 590 231
3 120 592 594
3 594 593 52
3 592 593 594
3 232 595 597
3 597 596 120
3 595 596 597
3 232 598 599
3 232 600 602
3 600 100 601
3 600 601 602
3 233 100 232
3 233 5 100
3 604 603 4
3 606 605 27
3 234 235 1
3 236 235 234
3 236 55 235
3 124 236 54
3 237 236 124
3 237 55 236
3 237 607 609
3 609 608 55
3 607 608 609
3 238 610 612
3 612 611 237
3 610 611 612
3 238 613 614
3 186 125 11
3 239 125 186
3 239 56 125
3 127 239 29
3 240 239 127
3 240 56 239
3 240 238 56
3 615 238 616
3 617 616 240
3 615 616 617
3 619 618 238
3 621 620 57
3 214 92 2
3 241 92 214
3 241 30 92
3 130 241 46
3 242 241 130
3 242 30 241
3 242 189 30
3 243 189 242
3 243 12 189
3 622 131 623
3 624 623 7
3 622 623 624
3 625 131 626
3 627 58 628
3 629 628 131
3 627 628 629
3 244 630 631
3 244 632 634
3 632 58 633
3 632 633 634
3 244 243 58
3 635 243 636
3 637 636 244
3 635 636 637
3 638 12 639
3 640 639 243
3 638 639 640
3 642 641 12
3 643 245 644
3 645 644 0
3 643 644 645
3 246 646 648
3 646 245 647
3 646 647 648
3 246 60 245
3 133 246 59
3 247 246 133
3 247 60 246
3 247 163 60
3 248 163 247
3 248 14 163
3 191 134 13
3 249 134 191
3 249 61 134
3 136 249 32
3 250 249 136
3 250 61 249
3 250 248 61
3 251 248 250
3 251 14 248
3 251 208 14
3 252 208 251
3 252 42 208
3 138 252 62
3 253 252 138
3 253 42 252
3 253 104 42
3 254 104 253
3 254 4 104
3 222 95 3
3 255 95 222
3 255 33 95
3 141 255 49
3 256 255 141
3 256 33 255
3 256 194 33
3 257 194 256
3 257 15 194
3 196 142 9
3 258 142 196
3 258 64 142
3 144 258 35
3 259 258 144
3 259 64 258
3 259 257 64
3 260 257 259
3 260 15 257
3 260 139 15
3 261 139 260
3 261 63 139
3 146 261 65
3 262 261 146
3 262 63 261
3 262 254 63
3 649 254 650
3 651 650 262
3 649 650 651
3 652 4 653
3 654 653 254
3 652 653 654
3 656 655 4
3 148 657 659
3 659 658 66
3 657 658 659
3 263 660 662
3 662 661 148
3 660 661 662
3 263 663 664
3 263 665 666
3 668 667 263
3 200 149 16
3 264 149 200
3 264 67 149
3 151 264 37
3 265 264 151
3 265 67 264
3 265 669 671
3 671 670 67
3 669 670 671
3 266 672 674
3 674 673 265
3 672 673 674
3 266 675 676
3 266 677 679
3 677 182 678
3 677 678 679
3 267 182 266
3 267 680 682
3 682 681 182
3 680 681 682
3 153 267 68
3 268 267 153
3 268 683 685
3 685 684 267
3 683 684 685
3 268 686 688
3 686 87 687
3 686 687 688
3 234 87 268
3 234 1 87
3 689 23 690
3 691 23 692
3 693 84 694
3 695 694 23
3 693 694 695
3 696 84 697
3 698 0 699
3 700 699 84
3 698 699 700
3 701 0 702
3 704 703 0
3 705 59 706
3 269 707 708
3 269 709 711
3 709 59 710
3 709 710 711
3 269 132 59
3 270 132 269
3 270 13 132
3 712 270 713
3 271 714 716
3 714 270 715
3 714 715 716
3 271 13 270
3 271 190 13
3 272 190 271
3 272 31 190
3 154 717 719
3 717 272 718
3 717 718 719
3 273 272 154
3 273 31 272
3 273 93 31
3 274 93 273
3 274 3 93
3 275 720 721
3 275 722 723
3 157 275 38
3 276 275 157
3 276 724 726
3 726 725 275
3 724 725 726
3 276 727 728
3 277 729 731
3 731 730 276
3 729 730 731
3 277 732 733
3 277 734 736
3 734 155 735
3 734 735 736
3 278 155 277
3 278 69 155
3 159 278 70
3 279 278 159
3 279 69 278
3 279 274 69
3 280 274 279
3 280 3 274
3 280 221 3
3 281 221 280
3 281 48 221
3 160 281 71
3 282 281 160
3 282 48 281
3 282 110 48
3 283 110 282
3 283 8 110
3 737 72 738
3 284 739 740
3 284 741 743
3 741 72 742
3 741 742 743
3 284 283 72
3 285 283 284
3 285 8 283
3 285 174 8
3 286 174 285
3 286 20 174
3 161 286 73
3 287 286 161
3 287 20 286
3 287 744 746
3 746 745 20
3 744 745 746
3 748 747 287
3 235 83 1
3 288 83 235
3 288 749 751
3 751 750 83
3 749 750 751
3 752 288 753
3 754 753 55
3 752 753 754
3 755 288 756
3 758 757 288
3 205 759 761
3 759 162 760
3 759 760 761
3 289 162 205
3 289 74 162
3 762 289 763
3 764 763 40
3 762 763 764
3 765 289 766
3 767 74 768
3 769 768 289
3 767 768 769
3 771 770 74
3 245 86 0
3 290 86 245
3 290 25 86
3 164 290 60
3 291 290 164
3 291 25 290
3 291 181 25
3 292 181 291
3 292 10 181
3 209 165 14
3 293 165 209
3 293 75 165
3 167 293 43
3 294 293 167
3 294 75 293
3 294 292 75
3 295 292 294
3 295 10 292
3 295 121 10
3 296 121 295
3 296 53 121
3 169 296 76
3 297 296 169
3 297 53 296
3 297 233 53
3 298 233 297
3 298 5 233
3 772 106 773
3 774 773 4
3 772 773 774
3 775 106 776
3 777 44 778
3 779 778 106
3 777 778 779
3 780 44 781
3 782 212 783
3 784 783 44
3 782 783 784
3 785 212 786
3 787 17 788
3 789 788 212
3 787 788 789
3 790 17 791
3 792 170 793
3 794 793 17
3 792 793 794
3 795 170 796
3 797 77 798
3 799 798 170
3 797 798 799
3 800 77 801
3 802 298 803
3 804 803 77
3 802 803 804
3 299 805 807
3 805 298 806
3 805 806 807
3 299 5 298
3 299 103 5
3 808 103 809
3 810 809 299
3 808 809 810
3 811 41 812
3 813 812 103
3 811 812 813
3 814 41 815
3 817 816 41
