ply
format ascii 1.0
element vertex 926
property float x
property float y
property float z
element face 1082
property list uchar int vertex_index
end_header
25.05158 -16.965988 38.801243
6.13366 10.670652 54.367931
10.124616 -4.246849 53.798054
35.163773 -2.41998 29.430571
23.421862 -1.185511 40.966125
12.817087 -17.343248 49.885548
-6.357863 2.839046 64.646378
-0.85126 10.39757 59.432438
1.014855 1.89239 59.770714
4.135614 -12.13059 59.07626
11.61523 -10.653358 52.686611
6.016594 -18.674139 56.747341
7.704626 -25.194916 52.28648
30.56296 -9.387258 35.340546
13.381823 11.506841 48.180542
15.411247 4.006504 47.748859
8.3695 2.706044 54.154182
29.656876 -0.929178 34.987762
24.604139 -8.572971 40.395767
16.950853 -2.571486 47.445637
18.242695 -9.286576 46.274136
18.944235 -16.679714 43.733902
13.417678 -24.490799 45.472515
-6.578241 7.038543 64.027931
-4.238898 10.518209 61.733982
-3.294834 6.382066 61.975327
5.097715 -15.398157 58.124195
2.256576 -19.292833 60.107498
3.523823 -22.415831 58.299026
27.917074 -13.068299 37.377407
9.84403 11.034431 51.377651
11.004788 6.98488 51.178875
7.417706 6.46936 54.219276
28.808155 2.772061 34.730026
26.498531 -0.97583 38.003254
27.09737 -4.609523 38.043121
24.121769 -4.716884 40.773125
12.860421 -0.151283 50.881336
16.335743 0.84257 47.485794
13.646678 -3.237981 50.611561
12.167231 -14.02774 51.61377
14.950627 -9.988445 49.49762
15.447083 -13.401865 48.328075
18.605309 -12.844027 45.25375
15.942482 -16.997883 46.597435
16.118858 -20.568651 44.772312
13.12428 -21.019276 47.817677
5.485166 -28.925217 53.255791
8.269996 -28.527481 49.513977
6.260242 -32.209545 50.236755
37.123421 0.806706 25.730013
38.888012 -0.616054 22.629601
37.320824 -3.675751 26.452229
2.532931 10.450878 57.039978
3.750777 6.151599 57.051296
0.175642 6.075081 59.633076
-2.68223 2.22377 62.293983
7.123706 -8.213927 56.601154
10.890697 -7.344146 53.399223
7.846816 -11.386353 56.044418
8.684786 -14.698462 54.959774
9.41444 -18.056213 53.402626
10.140843 -21.436495 51.188656
6.881826 -21.822416 54.86808
4.457571 -25.731386 56.14056
33.062653 -5.829531 32.589104
35.4506 -6.958923 29.90601
14.366384 7.548608 48.029163
11.982138 3.259226 51.03326
9.367294 -0.768292 53.942329
4.618875 2.093827 57.139339
5.51197 -1.499527 57.049797
6.367429 -4.95191 56.877922
15.161995 16.227093 45.473431
22.113489 -20.801624 39.684662
34.764698 1.760077 28.689371
32.472393 -1.566561 32.328152
30.130564 -5.0619 35.355946
27.6784 -8.759763 37.789162
24.917807 -12.789892 39.725697
18.686041 4.940249 44.289268
20.350273 -1.620867 44.016579
14.402196 -6.554708 50.175835
17.735773 -5.781455 46.948166
20.982195 -5.099513 43.768402
21.426613 -8.705928 43.251301
21.674429 -12.653236 42.439213
21.953358 -16.726311 41.140633
19.138426 -20.460039 42.04015
16.315239 -24.378296 42.603252
13.603564 -28.04302 43.193928
10.536965 -24.717312 48.843819
11.026199 -28.105347 46.067226
-5.640039 10.625863 62.648537
-5.269654 8.763385 62.812866
1.603354 -17.501514 60.849148
26.532625 -15.117205 38.124084
28.013004 -15.349942 37.016785
26.697477 -17.263609 37.601738
8.054029 10.842321 52.859711
8.620498 8.774754 52.822678
6.865528 8.596045 54.237732
5.513698 12.827404 54.359257
4.027141 -34.206413 52.614204
24.602613 0.885098 39.363281
26.225416 0.931722 37.791096
24.95903 -0.886121 39.440849
25.344179 -2.804711 39.423771
23.773121 -2.87259 40.909908
11.413383 -2.111134 52.440365
13.334541 -1.646889 50.687092
11.938288 -3.600567 52.174644
12.507751 -15.643501 50.816948
13.783772 -13.714239 49.996635
14.079217 -15.368703 49.201466
15.678853 -15.20767 47.540936
14.390539 -17.094971 48.233528
14.516489 -18.939236 47.286674
13.026464 -19.088751 48.902084
4.433603 -30.78726 53.773319
5.790276 -30.647091 51.853794
4.912695 -32.409683 52.193497
5.342753 -34.058594 50.624363
36.160046 -0.735868 27.629631
37.207008 -1.539673 26.213024
36.291164 -3.063656 28.020199
0.825066 10.403061 58.259499
1.457876 8.215829 58.290325
-0.256318 8.218159 59.498985
-4.748544 4.427287 63.324966
-3.012949 4.202665 62.192558
-1.503992 12.539631 59.378033
5.584577 -10.151983 57.909634
7.45627 -9.840132 56.390644
5.957028 -11.809107 57.619179
5.59165 -17.028368 57.469913
6.952125 -14.966324 56.533539
7.369805 -16.710365 55.852295
9.137611 -16.337784 54.179726
7.798002 -18.361347 55.026661
8.078602 -20.017088 54.195469
6.491523 -20.130072 55.87598
3.949891 -24.005981 57.36676
2.895292 -26.029871 57.85582
3.388194 -27.70417 56.630112
31.874191 -7.457372 34.003571
33.250893 -7.997907 32.660397
32.02327 -9.824326 34.018089
15.070654 11.775023 46.512337
15.587392 9.754637 46.408546
13.890604 9.507561 48.096378
9.762389 4.79783 52.638477
11.591844 5.123685 51.020962
10.204387 2.961864 52.609566
10.709494 1.228855 52.499306
8.915031 0.82031 54.048023
2.428572 4.132977 58.38736
4.377028 4.126841 56.966095
2.88646 2.08488 58.406651
3.636446 -1.664283 58.446594
4.025486 -3.443121 58.419937
5.963316 -3.162093 56.95343
4.416553 -5.213886 58.369045
4.734769 -6.914995 58.328064
12.609189 13.524481 48.478184
14.29453 13.810588 46.846004
15.996037 14.121001 45.09412
20.7355 -22.647638 39.939823
29.288834 1.052956 34.80233
30.367296 2.731998 33.187084
30.717278 0.768998 33.471348
32.269241 0.552687 31.93359
31.156809 -1.140516 33.567726
31.30061 -3.248356 33.918514
29.879456 -3.058725 35.246525
25.90757 -6.548185 39.253113
27.40403 -6.747977 37.954063
26.101082 -8.683758 39.112484
26.292017 -10.760223 38.859554
24.743242 -10.59639 40.140842
16.543566 6.086507 46.210934
18.18248 6.602326 44.434826
17.135336 4.547993 45.947712
16.638811 -0.926565 47.503597
17.842653 1.11609 45.967667
18.226143 -0.52492 45.902729
19.886358 0.08545 44.162067
18.663265 -2.049339 45.723667
11.155531 -9.037118 53.188721
12.734161 -6.961051 51.736774
12.96825 -8.621107 51.525822
16.734982 -9.57352 47.75272
16.370804 -7.967737 48.258156
17.984774 -7.521451 46.684151
19.308538 -5.454839 45.405373
19.58527 -7.2228 45.120049
21.115177 -7.048378 43.646324
19.777769 -9.095914 44.784321
18.76911 -14.711129 44.573662
20.169907 -12.686754 43.79409
20.267649 -14.672518 43.185776
21.846851 -14.57246 41.838947
20.507509 -16.581854 42.3741
20.599754 -18.699467 41.553097
19.076857 -18.615683 42.861488
14.706029 -22.550602 45.185814
16.195604 -22.433672 43.731701
14.837501 -24.431904 43.987091
14.96814 -26.227703 42.863197
13.445151 -26.340841 44.337921
8.848519 -23.202618 51.885086
10.372181 -23.020149 50.062641
9.129229 -24.862999 50.598522
8.521742 -30.061325 48.18729
9.641844 -28.178741 47.827469
9.892335 -29.859024 46.426373
39.413269 -1.276467 21.135727
36.559643 -7.509757 28.308546
-6.42817 5.060481 64.313141
-2.58254 10.435379 60.622036
-2.055151 8.350881 60.719402
-3.722089 8.58452 61.810207
-4.948528 6.677112 63.031452
4.486352 -13.800805 58.756012
3.066815 -15.671737 59.801292
3.606582 -17.300421 59.195953
4.235347 -18.813049 58.412254
4.739806 -20.551138 57.556961
2.955258 -20.854485 59.219044
29.220163 -11.233628 36.473385
30.73094 -11.555617 35.202072
29.424324 -13.47924 36.167625
11.60829 11.253731 49.831478
12.212879 9.286004 49.681377
10.497473 9.091067 51.212978
9.246928 6.829669 52.685032
7.977189 4.640095 54.11639
1.442986 0.059547 59.754055
27.726336 0.981255 36.338299
28.114815 -0.928543 36.462654
28.403278 -2.775601 36.576351
26.839256 -2.772601 38.027786
25.622061 -4.644882 39.385014
24.362707 -6.629763 40.631691
14.220551 1.932722 49.278587
15.972477 2.488223 47.516602
14.656358 0.412232 49.152447
15.097411 -1.145405 48.996284
15.260917 -2.888072 49.083221
11.820767 -12.459173 52.271614
13.244447 -10.302265 51.152344
13.559484 -11.997168 50.601757
15.318024 -11.698295 48.853817
16.840464 -11.47457 47.334427
18.368309 -11.089802 45.868732
17.007971 -13.247571 46.749985
17.328856 -14.860579 45.94701
17.465202 -16.7826 45.120213
17.572969 -18.722448 44.205048
16.079395 -18.774784 45.682911
14.639814 -20.624765 46.307877
13.300106 -22.661705 46.690659
6.48509 -27.159231 52.837105
7.941648 -26.893776 50.986008
6.891244 -28.759459 51.346085
7.140573 -30.384066 49.99921
7.500475 -31.986782 48.489174
38.012604 2.312611 23.784576
38.840622 1.613489 22.335985
38.070541 -0.017912 24.297375
4.320924 10.540874 55.734314
5.05117 8.449192 55.637547
3.286236 8.337515 56.953312
1.906838 6.149865 58.388405
0.549561 3.981029 59.753132
-1.555814 6.218708 60.814003
-1.232384 4.102648 60.981361
-0.865054 1.910796 61.085514
3.771334 12.723847 55.642471
2.984514 -31.192354 55.624756
23.106689 0.621101 40.879665
8.568425 -6.207008 55.28236
10.462182 -5.732622 53.662075
9.06043 -7.812957 54.989262
9.346004 -9.491169 54.787807
9.662457 -11.125377 54.458328
6.39167 -13.362322 57.187271
8.259077 -13.003939 55.575012
10.088446 -12.649834 53.923477
10.407265 -14.369671 53.33453
10.904031 -16.00721 52.428459
11.205385 -17.62607 51.583641
11.425893 -19.328333 50.649647
9.880536 -19.641945 52.303875
8.529753 -21.548481 53.068584
7.211898 -23.582157 53.730923
5.291692 -22.106331 56.533367
5.61021 -23.764694 55.571468
6.110287 -25.424841 54.228432
5.064185 -27.211212 54.713566
4.047543 -29.229889 55.090958
34.100128 -4.084949 31.117119
35.333397 -4.560281 29.682201
34.364891 -6.276489 31.193306
34.444695 -8.590429 31.368855
16.083881 7.911573 46.288261
14.888692 5.695516 47.903931
12.705714 7.218869 49.630825
13.169128 5.373999 49.566891
13.750614 3.710717 49.365673
12.474393 1.621573 50.909618
11.176085 -0.37392 52.3792
9.764546 -2.429164 53.866596
5.608573 6.408314 55.62077
6.115299 4.290843 55.629211
6.55992 2.323413 55.636925
3.198408 0.034002 58.506634
5.066117 0.233964 57.111488
7.051937 0.558679 55.558289
7.398347 -1.140699 55.564396
7.856734 -2.826051 55.450848
8.344755 -4.411748 55.271309
6.794105 -6.559666 56.727772
5.228418 -8.448533 58.097996
23.596451 -19.013237 39.257484
36.963448 2.874968 25.316425
36.009033 1.398601 27.194443
34.990105 -0.211322 29.044464
33.628654 0.260908 30.530287
33.910904 -1.803721 30.801851
32.759815 -3.619425 32.507366
31.623959 -5.318494 33.976234
30.402126 -7.201839 35.3549
28.576099 -4.774766 36.731319
28.957863 -6.799733 36.607555
29.041607 -9.04407 36.645645
27.768097 -10.954189 37.660599
26.353823 -12.941419 38.58707
24.990801 -14.895675 39.295021
19.871277 6.960163 42.579494
17.59123 2.956328 45.833019
19.118042 3.285 44.227787
21.479025 0.375277 42.533253
21.922323 -1.253218 42.423927
12.221488 -5.373197 52.101547
13.946991 -4.888692 50.50531
15.66044 -4.516881 48.877644
14.735226 -8.217075 49.848652
16.107288 -6.207187 48.541145
17.273109 -4.182552 47.311039
18.978844 -3.624066 45.609512
20.54752 -3.412352 44.064255
22.123407 -3.138497 42.514027
22.52187 -4.988805 42.289982
22.765509 -6.732368 42.096581
23.038406 -8.627262 41.775726
19.985865 -10.807499 44.34193
21.587494 -10.588039 42.884071
23.115662 -10.695435 41.509689
23.319275 -12.641059 41.038868
23.442429 -14.689781 40.516872
23.452465 -16.897465 39.95771
22.02989 -18.78973 40.428463
20.571239 -20.785604 40.782227
19.069258 -22.557795 41.182671
17.603418 -20.636032 43.299927
17.665379 -22.427464 42.388508
17.78454 -24.446293 41.327068
16.403301 -26.348709 41.526703
15.038507 -28.108387 41.811348
11.703352 -21.090332 49.470505
11.755582 -22.890448 48.40868
11.998279 -24.497948 47.136421
9.374726 -26.523771 49.250393
10.772861 -26.452747 47.442978
12.188868 -26.283529 45.792767
12.289086 -28.109129 44.559792
36.412807 -5.318897 28.25939
-6.145737 9.893961 63.140858
-6.185983 10.68315 62.992138
-6.185983 10.68315 62.992138
-5.900709 11.461676 62.61684
6.720041 11.8227 53.677548
6.41006 12.901076 53.67321
5.823679 11.749028 54.363594
7.093844 10.756487 53.613821
7.680226 11.908535 52.923437
6.720041 11.8227 53.677548
3.332497 -34.488995 53.536413
3.760853 -33.489908 53.379943
4.20363 -32.591543 53.16959
4.673149 -31.598472 52.983408
3.964084 -31.780332 53.959501
3.760853 -33.489908 53.379943
4.469918 -33.308048 52.403851
4.20363 -32.591543 53.16959
-7.136403 1.976669 65.26585
-6.239033 1.769808 64.729767
-5.471359 2.568297 64.10825
-4.6667 3.362417 63.447544
-5.553204 3.633166 63.985672
-6.239033 1.769808 64.729767
-5.471359 2.568297 64.10825
-0.282892 11.520922 58.772472
-0.609258 12.591952 58.74527
-1.177626 11.468601 59.405236
-0.013097 10.400315 58.845968
0.555271 11.523667 58.186003
-0.282892 11.520922 58.772472
1.994576 -26.202191 58.782412
2.543084 -25.255333 58.477381
2.289261 -27.046563 58.19352
1.994576 -26.202191 58.782412
3.197521 -4.458512 59.144872
3.020236 -3.603358 59.157995
3.393055 -5.343894 59.119427
4.22102 -4.328504 58.394491
3.197521 -4.458512 59.144872
3.634623 -6.141099 59.042604
3.393055 -5.343894 59.119427
20.734619 -23.710052 39.528341
19.987519 -23.611777 40.062811
9.322132 -30.783281 46.637535
9.207038 -29.960175 47.306832
8.636836 -30.884431 47.517994
9.938413 -30.790005 45.810261
9.322132 -30.783281 46.637535
-7.313267 6.313737 64.632793
-7.238231 5.324706 64.775398
-6.503205 6.049512 64.170536
-3.7101 11.469587 61.147161
-4.479807 11.479805 61.665621
-3.410719 10.476794 61.178009
-2.88192 11.428172 60.591189
-3.7101 11.469587 61.147161
2.064045 -15.819314 60.58666
2.866038 -14.827983 60.00045
28.811303 -15.556545 36.395288
28.149139 -16.457172 36.733635
10.366912 12.144035 50.710608
9.443676 12.088151 51.48513
10.72616 11.144081 50.604564
11.249042 12.253685 49.937521
10.366912 12.144035 50.710608
6.46105 -32.967522 49.491585
7.081167 -32.85614 48.617794
6.880358 -32.098163 49.362965
5.58199 -34.772204 49.864933
4.94221 -34.911848 50.813263
37.723683 -2.894285 25.532631
37.666775 -1.826246 25.413029
37.263916 -2.607712 26.332626
37.74403 -4.002262 25.637765
37.723683 -2.894285 25.532631
-2.58952 1.107214 62.39652
-1.680932 0.950727 61.792286
-1.773642 2.067283 61.689749
3.152133 11.587362 56.341224
2.874616 12.713675 56.279425
2.255415 11.577191 56.978178
2.198654 -31.422075 56.573793
2.683443 -30.449418 56.344923
22.853672 1.404792 40.933638
23.686548 1.626973 40.047361
3.214958 -29.468186 56.078024
3.717868 -28.46703 55.860535
2.885283 -28.705326 56.847601
2.683443 -30.449418 56.344923
3.516029 -30.211122 55.357857
3.214958 -29.468186 56.078024
33.887003 -9.41347 32.05007
33.847794 -8.294168 32.014626
33.290102 -9.117209 32.695841
34.477863 -9.724948 31.399013
33.887003 -9.41347 32.05007
31.461957 -11.864418 34.540531
30.809902 -12.729847 35.076616
2.478576 -0.927176 59.162255
2.320697 0.046774 59.130344
1.600866 -0.914404 59.785965
4.186795 -8.667938 58.88924
4.981593 -7.681764 58.21303
3.939971 -7.901169 59.004274
4.450356 -9.458835 58.746223
4.186795 -8.667938 58.88924
14.75546 17.348847 45.618563
14.342921 16.140335 46.285756
15.601043 17.460572 44.737068
14.75546 17.348847 45.618563
16.009268 16.327064 44.575981
15.601043 17.460572 44.737068
16.817597 14.212409 44.21084
16.328579 13.085839 44.972065
22.920977 -20.948599 39.108238
23.662458 -20.054405 38.894649
22.85497 -19.907431 39.471073
36.841048 3.952259 25.091496
37.350323 3.620445 24.441686
35.386865 1.579339 27.941907
35.892775 2.382236 27.004156
35.270607 2.562974 27.75162
29.398167 3.70331 33.807596
28.627826 3.718015 34.579329
30.916276 3.583761 32.308235
31.138709 2.62918 32.423597
19.477516 5.130884 43.424452
20.070134 6.140841 42.569564
19.278659 5.950206 43.434381
19.299384 2.454419 44.234186
18.480348 2.200545 45.097727
18.66169 1.369963 45.104126
19.887086 3.465693 43.403343
19.299384 2.454419 44.234186
13.718502 -28.943208 42.607695
14.435973 -28.975892 41.916404
14.321036 -28.075703 42.502638
39.193835 0.230414 21.695846
39.17014 1.345185 21.549038
38.864317 0.498717 22.482793
39.66404 -0.463763 20.187672
39.581716 -1.629501 20.291328
36.968128 -6.660249 27.484068
36.989618 -7.845457 27.549658
-7.289292 7.419501 64.398296
-6.614838 8.100301 63.830555
-5.960545 8.962722 63.223022
-5.454847 9.694624 62.730701
-6.145737 9.893961 63.140858
-6.614838 8.100301 63.830555
-5.923948 7.900964 63.420398
-5.960545 8.962722 63.223022
-5.180378 11.533632 62.122898
-5.900709 11.461676 62.61684
-4.939469 10.572036 62.19126
-4.479807 11.479805 61.665621
-5.180378 11.533632 62.122898
0.620825 -17.723263 61.60655
1.332314 -16.734203 61.110588
0.996023 -18.513336 61.250754
0.620825 -17.723263 61.60655
1.322634 -19.408996 60.879928
1.929965 -18.397174 60.478323
0.996023 -18.513336 61.250754
1.601395 -20.266159 60.539637
1.322634 -19.408996 60.879928
27.491376 -17.414006 37.026111
28.149139 -16.457172 36.733635
27.355241 -16.306776 37.309261
6.010819 14.011304 53.725047
5.1175 14.019737 54.371218
6.010819 14.011304 53.725047
6.41006 12.901076 53.67321
8.548675 11.992096 52.22616
7.680226 11.908535 52.923437
8.949029 10.938376 52.118681
9.443676 12.088151 51.48513
8.548675 11.992096 52.22616
3.682107 -35.226166 52.645718
4.284404 -34.985757 51.808183
3.682107 -35.226166 52.645718
3.332497 -34.488995 53.536413
25.414015 0.90841 38.577189
26.029784 1.849901 37.714133
25.218383 1.826589 38.500225
4.284404 -34.985757 51.808183
4.94221 -34.911848 50.813263
4.684947 -34.132503 51.619284
-3.798902 3.250106 62.88134
-3.880746 4.314976 62.758762
-4.6667 3.362417 63.447544
-3.633542 2.260659 62.932052
-2.847589 3.213217 62.24327
-3.798902 3.250106 62.88134
-3.474573 1.264807 62.973091
-3.633542 2.260659 62.932052
-0.984134 13.693524 58.726921
-1.8322 13.650543 59.318157
-0.984134 13.693524 58.726921
-0.609258 12.591952 58.74527
1.401482 11.553282 57.587938
0.555271 11.523667 58.186003
1.678999 10.426969 57.649738
2.255415 11.577191 56.978178
1.401482 11.553282 57.587938
3.070384 -24.243388 58.232851
3.736857 -23.210906 57.832893
2.857349 -23.448313 58.698984
3.422592 -25.017926 57.61129
3.070384 -24.243388 58.232851
2.543084 -25.255333 58.477381
2.535712 -27.883713 57.580665
3.141743 -26.867021 57.242966
2.289261 -27.046563 58.19352
2.885283 -28.705326 56.847601
2.535712 -27.883713 57.580665
32.67629 -10.030418 33.374687
33.290102 -9.117209 32.695841
32.637081 -8.911116 33.339243
15.329023 10.76483 46.460442
16.124257 10.902658 45.629278
15.865887 11.91285 45.681173
2.825716 -2.713939 59.171323
2.697595 -1.776319 59.132234
3.830966 -2.553702 58.433265
2.825716 -2.713939 59.171323
3.020236 -3.603358 59.157995
3.793731 -6.991654 59.022114
4.575661 -6.06444 58.348554
3.634623 -6.141099 59.042604
3.939971 -7.901169 59.004274
3.793731 -6.991654 59.022114
13.066518 14.789029 47.788132
12.219279 14.663324 48.583855
13.909188 14.932082 46.972042
13.066518 14.789029 47.788132
13.45186 13.667534 47.662094
14.728262 15.01884 46.159717
14.342921 16.140335 46.285756
13.909188 14.932082 46.972042
15.865887 11.91285 45.681173
16.328579 13.085839 44.972065
15.533345 12.948012 45.803229
21.517391 -22.786651 39.378217
22.206386 -21.863644 39.250637
21.424495 -21.724631 39.812242
21.517391 -22.786651 39.378217
20.734619 -23.710052 39.528341
34.618749 2.794223 28.488323
35.270607 2.562974 27.75162
31.3137 1.64768 32.565728
31.138709 2.62918 32.423597
30.542287 1.750498 33.329216
31.49326 0.660842 32.702469
32.089681 1.539525 31.79685
31.3137 1.64768 32.565728
17.363023 6.344416 45.32288
17.952367 7.495462 44.4784
17.13291 7.237552 45.366454
18.853434 0.549458 45.071657
18.66169 1.369963 45.104126
18.034398 0.295585 45.935198
19.056251 -0.219735 45.032398
19.683542 0.854644 44.201326
18.853434 0.549458 45.071657
10.530396 -29.874163 45.614695
11.097328 -28.997324 45.435121
10.459267 -28.982185 46.246799
10.530396 -29.874163 45.614695
9.938413 -30.790005 45.810261
39.097963 -2.100446 22.140095
39.150641 -0.94626 21.882664
38.835335 -1.770239 22.887032
39.360304 -2.420338 21.237526
39.097963 -2.100446 22.140095
39.581716 -1.629501 20.291328
39.360304 -2.420338 21.237526
36.098379 -8.402797 29.094378
36.005122 -7.23434 29.107278
35.543858 -8.12738 29.89311
36.601353 -8.701173 28.333098
36.098379 -8.402797 29.094378
36.989618 -7.845457 27.549658
36.601353 -8.701173 28.333098
-7.187945 4.245413 64.93293
-7.152792 3.134695 65.099548
-6.393016 3.949764 64.47976
-7.187945 4.245413 64.93293
-7.238231 5.324706 64.775398
-7.313267 6.313737 64.632793
-7.289292 7.419501 64.398296
-2.342646 12.480298 59.969187
-1.8322 13.650543 59.318157
-2.043266 11.487505 60.000034
-2.342646 12.480298 59.969187
-2.88192 11.428172 60.591189
3.575807 -13.892516 59.47781
4.310983 -12.965698 58.916136
3.400438 -13.057409 59.637934
3.776584 -14.736271 59.278652
3.575807 -13.892516 59.47781
2.866038 -14.827983 60.00045
2.335084 -16.586626 60.32522
2.064045 -15.819314 60.58666
1.332314 -16.734203 61.110588
1.950737 -21.046985 60.09541
2.605917 -20.073659 59.663271
1.601395 -20.266159 60.539637
2.268506 -21.830596 59.664551
1.950737 -21.046985 60.09541
2.552789 -22.611269 59.204542
3.239541 -21.635158 58.759035
2.268506 -21.830596 59.664551
2.857349 -23.448313 58.698984
2.552789 -22.611269 59.204542
30.156593 -13.691658 35.559393
30.809902 -12.729847 35.076616
30.077632 -12.517429 35.684849
29.516963 -14.621194 35.970709
28.718664 -14.414591 36.592205
28.811303 -15.556545 36.395288
30.156593 -13.691658 35.559393
29.516963 -14.621194 35.970709
0.460301 -0.020253 60.453253
1.228921 0.975969 59.762384
0.246236 0.896169 60.461582
0.6477 -0.922373 60.452524
0.460301 -0.020253 60.453253
1.600866 -0.914404 59.785965
0.6477 -0.922373 60.452524
11.749491 13.38906 49.260874
12.219279 14.663324 48.583855
12.10874 12.389106 49.154831
11.749491 13.38906 49.260874
11.249042 12.253685 49.937521
28.073489 2.822678 35.433916
28.627826 3.718015 34.579329
26.78212 1.902509 36.964451
26.029784 1.849901 37.714133
27.53258 1.927275 36.238052
26.78212 1.902509 36.964451
26.975876 0.956489 37.064698
28.267246 1.876658 35.534163
28.073489 2.822678 35.433916
27.53258 1.927275 36.238052
8.126202 -31.84716 47.668936
8.636836 -30.884431 47.517994
8.011108 -31.024054 48.338232
7.659781 -32.789282 47.787578
8.126202 -31.84716 47.668936
7.659781 -32.789282 47.787578
7.081167 -32.85614 48.617794
6.002306 -33.892046 49.685389
6.46105 -32.967522 49.491585
5.801497 -33.134069 50.430559
6.002306 -33.892046 49.685389
5.58199 -34.772204 49.864933
38.426613 1.96305 23.060281
38.788227 2.72253 22.152656
38.374218 3.07209 22.876952
38.098541 -1.065365 24.455204
37.638774 -0.778792 25.255199
37.666775 -1.826246 25.413029
38.507277 -1.364437 23.621317
38.479276 -0.316983 23.463488
38.098541 -1.065365 24.455204
38.835335 -1.770239 22.887032
38.507277 -1.364437 23.621317
-7.136403 1.976669 65.26585
-7.152792 3.134695 65.099548
-0.693719 0.905371 61.118983
0.246236 0.896169 60.461582
0.074901 1.901593 60.428114
-0.693719 0.905371 61.118983
-1.680932 0.950727 61.792286
-2.58952 1.107214 62.39652
-3.474573 1.264807 62.973091
3.339341 13.873024 55.6746
2.874616 12.713675 56.279425
4.246317 13.967958 55.012825
3.339341 13.873024 55.6746
4.642516 12.775626 55.000864
5.1175 14.019737 54.371218
4.246317 13.967958 55.012825
2.518991 -32.126143 55.852354
3.23954 -31.982879 54.885219
1.733131 -32.355865 56.801391
2.518991 -32.126143 55.852354
2.198654 -31.422075 56.573793
24.43451 1.758972 39.289169
25.218383 1.826589 38.500225
23.854651 0.7531 40.121473
24.43451 1.758972 39.289169
23.686548 1.626973 40.047361
3.23954 -31.982879 54.885219
3.964084 -31.780332 53.959501
3.709058 -30.989807 54.699038
35.040905 -8.943133 30.624532
35.543858 -8.12738 29.89311
34.947648 -7.774676 30.637432
35.040905 -8.943133 30.624532
34.477863 -9.724948 31.399013
32.108122 -10.998772 33.94854
31.377105 -10.689971 34.610081
31.461957 -11.864418 34.540531
32.67629 -10.030418 33.374687
32.108122 -10.998772 33.94854
16.420555 9.952296 45.520748
16.124257 10.902658 45.629278
16.6688 9.030765 45.460605
16.420555 9.952296 45.520748
15.835636 8.833105 46.348404
16.903067 8.150085 45.405117
16.6688 9.030765 45.460605
16.313724 6.99904 46.249598
17.13291 7.237552 45.366454
16.903067 8.150085 45.405117
3.417427 -0.81514 58.476614
2.478576 -0.927176 59.162255
2.697595 -1.776319 59.132234
4.628436 -10.31056 58.652042
5.406498 -9.300258 58.003815
4.450356 -9.458835 58.746223
3.903955 -11.299864 59.235355
4.860095 -11.141286 58.492947
4.628436 -10.31056 58.652042
3.118258 -12.264416 59.85198
3.903955 -11.299864 59.235355
3.400438 -13.057409 59.637934
3.118258 -12.264416 59.85198
16.426289 15.274017 44.386326
16.009268 16.327064 44.575981
15.579016 15.174047 45.283775
16.426289 15.274017 44.386326
16.817597 14.212409 44.21084
24.422874 -19.084526 38.68964
25.150439 -18.060901 38.46152
24.324016 -17.989612 39.029364
24.422874 -19.084526 38.68964
23.662458 -20.054405 38.894649
22.920977 -20.948599 39.108238
22.206386 -21.863644 39.250637
37.874901 3.339266 23.675762
38.374218 3.07209 22.876952
37.488026 2.593789 24.5505
37.874901 3.339266 23.675762
37.350323 3.620445 24.441686
36.369982 3.120419 26.065147
36.841048 3.952259 25.091496
36.486241 2.136785 26.255434
36.369982 3.120419 26.065147
35.892775 2.382236 27.004156
30.177737 3.683279 33.036125
29.398167 3.70331 33.807596
29.587725 2.752029 33.958555
30.177737 3.683279 33.036125
30.916276 3.583761 32.308235
34.088989 2.06388 29.380141
34.618749 2.794223 28.488323
32.841261 1.460185 31.00225
32.089681 1.539525 31.79685
33.520967 1.314296 30.300598
32.841261 1.460185 31.00225
32.948948 0.406798 31.231938
34.196676 1.010493 29.609829
34.088989 2.06388 29.380141
33.520967 1.314296 30.300598
18.738484 7.621377 43.619324
17.952367 7.495462 44.4784
19.582882 7.800296 42.691658
18.738484 7.621377 43.619324
19.026879 6.781244 43.50716
20.401771 8.014395 41.74842
19.582882 7.800296 42.691658
20.651896 7.138606 41.699922
20.401771 8.014395 41.74842
20.651896 7.138606 41.699922
20.070134 6.140841 42.569564
19.693517 4.30326 43.393711
19.477516 5.130884 43.424452
18.902041 4.112624 44.258527
19.693517 4.30326 43.393711
19.887086 3.465693 43.403343
20.491076 1.070335 43.344193
19.683542 0.854644 44.201326
21.28741 1.215248 42.529786
20.491076 1.070335 43.344193
20.682692 0.230363 43.34766
22.03984 1.28188 41.760431
21.28741 1.215248 42.529786
22.292857 0.498189 41.706459
22.853672 1.404792 40.933638
22.03984 1.28188 41.760431
19.154398 -23.566855 40.684235
19.987519 -23.611777 40.062811
19.902379 -22.602716 40.561247
18.512039 -24.511105 40.756433
19.154398 -23.566855 40.684235
18.426899 -23.502044 41.254869
17.782139 -25.465342 40.861358
18.512039 -24.511105 40.756433
17.091519 -26.41655 40.961176
17.782139 -25.465342 40.861358
17.09392 -25.397501 41.426885
16.441903 -27.326403 41.035536
17.091519 -26.41655 40.961176
15.759506 -28.206243 41.177858
16.441903 -27.326403 41.035536
15.720904 -27.228548 41.669026
15.112413 -29.040562 41.306679
15.759506 -28.206243 41.177858
15.112413 -29.040562 41.306679
14.435973 -28.975892 41.916404
11.728771 -28.999215 44.681404
11.657642 -28.107238 45.313509
11.097328 -28.997324 45.435121
12.369174 -29.00192 43.959824
11.728771 -28.999215 44.681404
13.026413 -28.968866 43.276892
12.946325 -28.076074 43.87686
12.369174 -29.00192 43.959824
13.718502 -28.943208 42.607695
13.026413 -28.968866 43.276892
39.161857 2.428298 21.403904
38.788227 2.72253 22.152656
39.161857 2.428298 21.403904
39.17014 1.345185 21.549038
39.456463 -0.099793 20.948909
39.193835 0.230414 21.695846
39.150641 -0.94626 21.882664
39.456463 -0.099793 20.948909
39.66404 -0.463763 20.187672
36.894711 -5.564819 27.45949
36.486225 -6.414327 28.283968
36.968128 -6.660249 27.484068
37.348719 -4.743246 26.555909
36.866816 -4.497324 27.355809
36.894711 -5.564819 27.45949
37.74403 -4.002262 25.637765
37.348719 -4.743246 26.555909
25.973388 -18.209712 37.861767
25.874529 -17.114798 38.20149
25.150439 -18.060901 38.46152
26.750526 -18.342886 37.325115
25.973388 -18.209712 37.861767
27.491376 -17.414006 37.026111
26.750526 -18.342886 37.325115
3 379 378 93
3 380 93 381
3 0 98 96
3 1 101 99
3 1 382 384
3 384 383 102
3 382 383 384
3 1 385 387
3 385 99 386
3 385 386 387
3 389 388 103
3 4 106 104
3 4 108 106
3 2 111 109
3 5 114 112
3 5 116 114
3 5 118 116
3 390 121 391
3 392 391 119
3 390 391 392
3 393 103 394
3 395 394 121
3 393 394 395
3 3 125 123
3 6 396 397
3 7 128 126
3 6 398 400
3 400 399 129
3 398 399 400
3 6 401 402
3 7 403 405
3 405 404 131
3 403 404 405
3 7 406 408
3 406 126 407
3 406 407 408
3 9 134 132
3 11 137 135
3 11 139 137
3 11 141 139
3 409 143 410
3 412 411 143
3 13 147 145
3 14 150 148
3 16 153 151
3 16 155 153
3 8 158 156
3 413 160 414
3 415 162 416
3 417 416 160
3 415 416 417
3 419 418 162
3 14 165 164
3 14 148 165
3 421 420 167
3 17 170 168
3 17 172 170
3 17 174 172
3 18 177 175
3 18 179 177
3 15 182 180
3 19 185 183
3 19 187 185
3 10 190 188
3 20 193 191
3 20 195 193
3 20 197 195
3 21 200 198
3 21 202 200
3 21 204 202
3 22 207 205
3 22 209 207
3 12 212 210
3 422 215 423
3 424 423 213
3 422 423 424
3 426 425 215
3 23 427 429
3 429 428 218
3 427 428 429
3 24 221 219
3 23 222 94
3 23 218 222
3 24 430 431
3 24 432 434
3 432 219 433
3 432 433 434
3 435 224 436
3 27 225 95
3 27 226 225
3 27 228 226
3 29 231 229
3 438 437 97
3 30 234 232
3 32 235 100
3 32 236 235
3 30 439 440
3 30 441 443
3 441 232 442
3 441 442 443
3 34 238 105
3 34 239 238
3 34 241 239
3 36 242 107
3 36 243 242
3 37 246 244
3 39 247 110
3 39 248 247
3 40 251 249
3 42 252 113
3 42 253 252
3 42 255 253
3 44 256 115
3 44 257 256
3 44 259 257
3 46 260 117
3 46 261 260
3 47 264 262
3 49 265 120
3 49 266 265
3 49 444 446
3 446 445 266
3 444 445 446
3 448 447 122
3 50 269 267
3 52 449 451
3 451 450 124
3 449 450 451
3 52 452 453
3 53 272 270
3 55 273 127
3 55 274 273
3 25 275 220
3 56 276 130
3 56 277 276
3 56 454 456
3 456 455 277
3 454 455 456
3 53 457 459
3 457 278 458
3 457 458 459
3 53 270 278
3 461 460 279
3 462 280 463
3 57 283 281
3 59 284 133
3 59 285 284
3 26 286 223
3 60 287 136
3 60 288 287
3 60 289 288
3 61 290 138
3 61 291 290
3 61 293 291
3 63 294 140
3 63 295 294
3 28 296 227
3 64 297 142
3 64 298 297
3 64 299 298
3 464 300 465
3 466 465 144
3 464 465 466
3 467 279 468
3 469 468 300
3 467 468 469
3 65 303 301
3 470 304 471
3 472 471 146
3 470 471 472
3 474 473 304
3 476 475 230
3 67 305 149
3 67 306 305
3 31 307 233
3 68 308 152
3 68 309 308
3 68 310 309
3 69 311 154
3 69 312 311
3 54 313 271
3 70 314 157
3 70 315 314
3 477 316 478
3 479 478 237
3 477 478 479
3 71 317 159
3 71 318 317
3 71 319 318
3 72 320 161
3 72 321 320
3 72 322 321
3 480 323 481
3 482 481 163
3 480 481 482
3 484 483 323
3 73 485 486
3 73 487 488
3 73 489 490
3 492 491 166
3 74 493 495
3 495 494 324
3 493 494 495
3 496 325 497
3 75 498 500
3 498 326 499
3 498 499 500
3 75 327 326
3 33 501 502
3 504 503 169
3 76 328 171
3 76 329 328
3 76 330 329
3 77 331 173
3 77 332 331
3 35 333 240
3 78 334 176
3 78 335 334
3 78 336 335
3 79 337 178
3 79 338 337
3 80 339 181
3 80 505 507
3 507 506 339
3 505 506 507
3 38 340 245
3 508 341 509
3 510 509 184
3 508 509 510
3 512 511 341
3 81 342 186
3 81 343 342
3 58 344 282
3 82 345 189
3 82 346 345
3 41 347 250
3 83 348 192
3 83 349 348
3 83 350 349
3 84 351 194
3 84 352 351
3 84 353 352
3 85 354 196
3 85 355 354
3 43 356 254
3 86 357 199
3 86 358 357
3 86 359 358
3 87 360 201
3 87 361 360
3 87 362 361
3 88 363 203
3 88 364 363
3 45 365 258
3 89 366 206
3 89 367 366
3 89 368 367
3 90 369 208
3 90 513 515
3 515 514 369
3 513 514 515
3 62 370 292
3 91 371 211
3 91 372 371
3 48 373 263
3 92 374 214
3 92 375 374
3 92 376 375
3 51 516 518
3 518 517 268
3 516 517 518
3 520 519 216
3 66 377 302
3 522 521 217
3 524 523 23
3 93 94 24
3 525 94 526
3 527 526 93
3 525 526 527
3 528 23 529
3 530 529 94
3 528 529 530
3 93 531 532
3 93 533 535
3 533 24 534
3 533 534 535
3 536 95 537
3 538 95 539
3 540 27 541
3 542 541 95
3 540 541 542
3 544 543 27
3 96 97 29
3 98 97 96
3 98 545 547
3 547 546 97
3 545 546 547
3 99 100 30
3 101 100 99
3 101 32 100
3 102 548 549
3 551 550 102
3 99 552 553
3 99 554 556
3 554 30 555
3 554 555 556
3 103 557 558
3 560 559 103
3 104 561 563
3 561 105 562
3 561 562 563
3 106 105 104
3 106 34 105
3 106 107 34
3 108 107 106
3 108 36 107
3 109 110 37
3 111 110 109
3 111 39 110
3 112 113 40
3 114 113 112
3 114 42 113
3 114 115 42
3 116 115 114
3 116 44 115
3 116 117 44
3 118 117 116
3 118 46 117
3 119 120 47
3 121 120 119
3 121 49 120
3 121 122 49
3 103 122 121
3 103 564 566
3 566 565 122
3 564 565 566
3 123 124 50
3 125 124 123
3 125 52 124
3 126 127 53
3 128 127 126
3 128 55 127
3 129 130 25
3 567 130 568
3 569 568 129
3 567 568 569
3 570 56 571
3 572 571 130
3 570 571 572
3 574 573 56
3 131 575 576
3 578 577 131
3 126 579 580
3 126 581 583
3 581 53 582
3 581 582 583
3 132 133 57
3 134 133 132
3 134 59 133
3 135 136 26
3 137 136 135
3 137 60 136
3 137 138 60
3 139 138 137
3 139 61 138
3 139 140 61
3 141 140 139
3 141 63 140
3 584 142 585
3 586 585 28
3 584 585 586
3 143 587 589
3 587 142 588
3 587 588 589
3 143 64 142
3 143 144 64
3 590 144 591
3 592 591 143
3 590 591 592
3 594 593 144
3 145 146 65
3 147 146 145
3 147 595 597
3 597 596 146
3 595 596 597
3 148 598 600
3 598 149 599
3 598 599 600
3 150 149 148
3 150 67 149
3 151 152 31
3 153 152 151
3 153 68 152
3 153 154 68
3 155 154 153
3 155 69 154
3 156 157 54
3 158 157 156
3 158 70 157
3 601 159 602
3 160 603 605
3 603 159 604
3 603 604 605
3 160 71 159
3 160 161 71
3 162 161 160
3 162 72 161
3 162 163 72
3 606 163 607
3 608 607 162
3 606 607 608
3 610 609 163
3 164 611 612
3 165 613 615
3 615 614 164
3 613 614 615
3 165 616 618
3 616 73 617
3 616 617 618
3 165 166 73
3 148 166 165
3 148 619 621
3 621 620 166
3 619 620 621
3 167 622 624
3 624 623 74
3 622 623 624
3 626 625 167
3 627 75 628
3 168 169 33
3 170 169 168
3 170 629 631
3 631 630 169
3 629 630 631
3 170 632 634
3 632 171 633
3 632 633 634
3 172 171 170
3 172 76 171
3 172 173 76
3 174 173 172
3 174 77 173
3 175 176 35
3 177 176 175
3 177 78 176
3 177 178 78
3 179 178 177
3 179 79 178
3 180 635 637
3 635 181 636
3 635 636 637
3 182 181 180
3 182 80 181
3 183 184 38
3 185 184 183
3 185 638 640
3 640 639 184
3 638 639 640
3 185 641 643
3 641 186 642
3 641 642 643
3 187 186 185
3 187 81 186
3 188 189 58
3 190 189 188
3 190 82 189
3 191 192 41
3 193 192 191
3 193 83 192
3 193 194 83
3 195 194 193
3 195 84 194
3 195 196 84
3 197 196 195
3 197 85 196
3 198 199 43
3 200 199 198
3 200 86 199
3 200 201 86
3 202 201 200
3 202 87 201
3 202 203 87
3 204 203 202
3 204 88 203
3 205 206 45
3 207 206 205
3 207 89 206
3 207 208 89
3 209 208 207
3 209 90 208
3 210 211 62
3 212 211 210
3 212 91 211
3 213 214 48
3 215 214 213
3 215 92 214
3 215 644 646
3 646 645 92
3 644 645 646
3 648 647 215
3 649 216 650
3 651 650 51
3 649 650 651
3 652 216 653
3 655 654 216
3 656 217 657
3 658 657 66
3 656 657 658
3 659 217 660
3 662 661 217
3 218 663 665
3 665 664 6
3 663 664 665
3 667 666 218
3 669 668 23
3 219 220 7
3 221 220 219
3 221 25 220
3 94 221 24
3 222 221 94
3 222 25 221
3 222 129 25
3 218 129 222
3 218 6 129
3 670 131 671
3 219 672 674
3 672 131 673
3 672 673 674
3 219 7 131
3 675 223 676
3 677 676 9
3 675 676 677
3 224 678 680
3 678 223 679
3 678 679 680
3 224 26 223
3 95 681 683
3 681 224 682
3 681 682 683
3 225 224 95
3 225 26 224
3 225 135 26
3 226 135 225
3 226 11 135
3 226 227 11
3 228 227 226
3 228 28 227
3 684 228 685
3 686 685 27
3 684 685 686
3 687 228 688
3 689 28 690
3 691 690 228
3 689 690 691
3 693 692 28
3 229 230 13
3 231 230 229
3 231 694 696
3 696 695 230
3 694 695 696
3 97 231 29
3 697 231 698
3 699 698 97
3 697 698 699
3 701 700 231
3 232 233 14
3 234 233 232
3 234 31 233
3 100 234 30
3 235 234 100
3 235 31 234
3 235 151 31
3 236 151 235
3 236 16 151
3 702 237 703
3 704 703 8
3 702 703 704
3 705 237 706
3 708 707 237
3 709 164 710
3 232 711 713
3 711 164 712
3 711 712 713
3 232 14 164
3 714 33 715
3 105 716 717
3 238 718 720
3 720 719 105
3 718 719 720
3 238 721 723
3 721 33 722
3 721 722 723
3 238 168 33
3 239 168 238
3 239 17 168
3 239 240 17
3 241 240 239
3 241 35 240
3 107 241 34
3 242 241 107
3 242 35 241
3 242 175 35
3 243 175 242
3 243 18 175
3 244 245 15
3 246 245 244
3 246 38 245
3 110 246 37
3 247 246 110
3 247 38 246
3 247 183 38
3 248 183 247
3 248 19 183
3 249 250 10
3 251 250 249
3 251 41 250
3 113 251 40
3 252 251 113
3 252 41 251
3 252 191 41
3 253 191 252
3 253 20 191
3 253 254 20
3 255 254 253
3 255 43 254
3 115 255 42
3 256 255 115
3 256 43 255
3 256 198 43
3 257 198 256
3 257 21 198
3 257 258 21
3 259 258 257
3 259 45 258
3 117 259 44
3 260 259 117
3 260 45 259
3 260 205 45
3 261 205 260
3 261 22 205
3 262 263 12
3 264 263 262
3 264 48 263
3 120 264 47
3 265 264 120
3 265 48 264
3 265 213 48
3 266 213 265
3 266 724 726
3 726 725 213
3 724 725 726
3 266 727 728
3 730 729 266
3 122 731 733
3 733 732 49
3 731 732 733
3 735 734 122
3 267 736 738
3 736 268 737
3 736 737 738
3 269 268 267
3 269 51 268
3 124 269 50
3 739 269 740
3 741 740 124
3 739 740 741
3 742 51 743
3 744 743 269
3 742 743 744
3 746 745 51
3 748 747 6
3 270 271 1
3 272 271 270
3 272 54 271
3 127 272 53
3 273 272 127
3 273 54 272
3 273 156 54
3 274 156 273
3 274 8 156
3 220 128 7
3 275 128 220
3 275 55 128
3 130 275 25
3 276 275 130
3 276 55 275
3 276 274 55
3 277 274 276
3 277 8 274
3 277 749 751
3 751 750 8
3 749 750 751
3 753 752 277
3 755 754 56
3 278 756 757
3 278 758 759
3 278 760 762
3 760 102 761
3 760 761 762
3 270 102 278
3 270 1 102
3 279 763 764
3 767 766 279
3 765 766 767
3 768 104 769
3 280 770 772
3 770 104 771
3 770 771 772
3 280 4 104
3 281 282 2
3 283 282 281
3 283 58 282
3 133 283 57
3 284 283 133
3 284 58 283
3 284 188 58
3 285 188 284
3 285 10 188
3 223 134 9
3 286 134 223
3 286 59 134
3 136 286 26
3 287 286 136
3 287 59 286
3 287 285 59
3 288 285 287
3 288 10 285
3 288 249 10
3 289 249 288
3 289 40 249
3 138 289 60
3 290 289 138
3 290 40 289
3 290 112 40
3 291 112 290
3 291 5 112
3 291 292 5
3 293 292 291
3 293 62 292
3 140 293 61
3 294 293 140
3 294 62 293
3 294 210 62
3 295 210 294
3 295 12 210
3 227 141 11
3 296 141 227
3 296 63 141
3 142 296 28
3 297 296 142
3 297 63 296
3 297 295 63
3 298 295 297
3 298 12 295
3 298 262 12
3 299 262 298
3 299 47 262
3 144 299 64
3 300 299 144
3 300 47 299
3 300 119 47
3 279 119 300
3 279 773 775
3 775 774 119
3 773 774 775
3 301 302 3
3 303 302 301
3 303 66 302
3 146 303 65
3 304 303 146
3 304 66 303
3 304 776 778
3 778 777 66
3 776 777 778
3 780 779 304
3 230 147 13
3 781 147 782
3 783 782 230
3 781 782 783
3 785 784 147
3 149 786 787
3 305 788 790
3 790 789 149
3 788 789 790
3 305 791 792
3 305 793 795
3 793 180 794
3 793 794 795
3 306 180 305
3 306 15 180
3 233 150 14
3 307 150 233
3 307 67 150
3 152 307 31
3 308 307 152
3 308 67 307
3 308 306 67
3 309 306 308
3 309 15 306
3 309 244 15
3 310 244 309
3 310 37 244
3 154 310 68
3 311 310 154
3 311 37 310
3 311 109 37
3 312 109 311
3 312 2 109
3 271 101 1
3 313 101 271
3 313 32 101
3 157 313 54
3 314 313 157
3 314 32 313
3 314 236 32
3 315 236 314
3 315 16 236
3 237 158 8
3 316 158 237
3 316 70 158
3 159 796 798
3 796 316 797
3 796 797 798
3 317 316 159
3 317 70 316
3 317 315 70
3 318 315 317
3 318 16 315
3 318 155 16
3 319 155 318
3 319 69 155
3 161 319 71
3 320 319 161
3 320 69 319
3 320 312 69
3 321 312 320
3 321 2 312
3 321 281 2
3 322 281 321
3 322 57 281
3 163 322 72
3 323 322 163
3 323 57 322
3 323 132 57
3 799 132 800
3 801 800 323
3 799 800 801
3 802 9 803
3 804 803 132
3 802 803 804
3 805 9 806
3 808 807 9
3 166 809 811
3 811 810 73
3 809 810 811
3 813 812 166
3 324 814 816
3 816 815 0
3 814 815 816
3 818 817 324
3 820 819 74
3 821 267 822
3 325 823 825
3 823 267 824
3 823 824 825
3 325 50 267
3 826 325 827
3 326 828 830
3 828 325 829
3 828 829 830
3 326 50 325
3 326 123 50
3 327 123 326
3 327 3 123
3 169 831 833
3 833 832 33
3 831 832 833
3 835 834 169
3 836 75 837
3 171 838 839
3 328 840 842
3 842 841 171
3 840 841 842
3 328 843 845
3 843 75 844
3 843 844 845
3 328 327 75
3 329 327 328
3 329 3 327
3 329 301 3
3 330 301 329
3 330 65 301
3 173 330 76
3 331 330 173
3 331 65 330
3 331 145 65
3 332 145 331
3 332 13 145
3 240 174 17
3 333 174 240
3 333 77 174
3 176 333 35
3 334 333 176
3 334 77 333
3 334 332 77
3 335 332 334
3 335 13 332
3 335 229 13
3 336 229 335
3 336 29 229
3 178 336 78
3 337 336 178
3 337 29 336
3 337 96 29
3 338 96 337
3 338 0 96
3 181 846 847
3 339 848 850
3 850 849 181
3 848 849 850
3 339 851 852
3 339 853 854
3 856 855 339
3 245 182 15
3 340 182 245
3 340 80 182
3 184 340 38
3 341 340 184
3 341 80 340
3 341 857 859
3 859 858 80
3 857 858 859
3 861 860 341
3 186 862 863
3 342 864 866
3 866 865 186
3 864 865 866
3 342 867 868
3 342 869 871
3 869 280 870
3 869 870 871
3 343 280 342
3 343 4 280
3 282 111 2
3 344 111 282
3 344 39 111
3 189 344 58
3 345 344 189
3 345 39 344
3 345 248 39
3 346 248 345
3 346 19 248
3 250 190 10
3 347 190 250
3 347 82 190
3 192 347 41
3 348 347 192
3 348 82 347
3 348 346 82
3 349 346 348
3 349 19 346
3 349 187 19
3 350 187 349
3 350 81 187
3 194 350 83
3 351 350 194
3 351 81 350
3 351 343 81
3 352 343 351
3 352 4 343
3 352 108 4
3 353 108 352
3 353 36 108
3 196 353 84
3 354 353 196
3 354 36 353
3 354 243 36
3 355 243 354
3 355 18 243
3 254 197 20
3 356 197 254
3 356 85 197
3 199 356 43
3 357 356 199
3 357 85 356
3 357 355 85
3 358 355 357
3 358 18 355
3 358 179 18
3 359 179 358
3 359 79 179
3 201 359 86
3 360 359 201
3 360 79 359
3 360 338 79
3 361 338 360
3 361 0 338
3 361 324 0
3 362 324 361
3 362 74 324
3 203 362 87
3 363 362 203
3 363 74 362
3 363 167 74
3 364 167 363
3 364 872 874
3 874 873 167
3 872 873 874
3 258 204 21
3 365 204 258
3 365 88 204
3 206 365 45
3 366 365 206
3 366 88 365
3 366 364 88
3 367 364 366
3 367 875 877
3 877 876 364
3 875 876 877
3 367 878 879
3 368 880 882
3 882 881 367
3 880 881 882
3 368 883 884
3 208 368 89
3 369 368 208
3 369 885 887
3 887 886 368
3 885 886 887
3 369 888 889
3 891 890 369
3 292 118 5
3 370 118 292
3 370 46 118
3 211 370 62
3 371 370 211
3 371 46 370
3 371 261 46
3 372 261 371
3 372 22 261
3 263 212 12
3 373 212 263
3 373 91 212
3 214 373 48
3 374 373 214
3 374 91 373
3 374 372 91
3 375 372 374
3 375 22 372
3 375 209 22
3 376 209 375
3 376 90 209
3 892 376 893
3 894 893 92
3 892 893 894
3 895 376 896
3 897 90 898
3 899 898 376
3 897 898 899
3 901 900 90
3 268 902 903
3 905 904 268
3 216 906 908
3 908 907 51
3 906 907 908
3 910 909 216
3 302 125 3
3 377 125 302
3 377 52 125
3 217 377 66
3 911 377 912
3 913 912 217
3 911 912 913
3 914 52 915
3 916 915 377
3 914 915 916
3 918 917 52
3 919 98 920
3 921 920 0
3 919 920 921
3 922 98 923
3 925 924 98
