ply
format ascii 1.0
element vertex 880
property float x
property float y
property float z
element face 1061
property list uchar int vertex_index
end_header
25.29129 43.441563 12.326591
21.813738 63.687004 -16.440695
19.996334 78.107689 -6.722471
25.823698 54.93568 -2.441801
17.895477 64.619911 12.352779
15.545517 49.600792 29.705029
19.50194 71.641045 3.019268
25.648823 49.074089 4.82505
19.866184 75.464775 -21.408499
15.361182 75.839066 -29.286892
22.767174 72.122856 -12.965534
24.743767 59.897377 -9.635037
23.501099 66.900566 -4.069428
22.540522 60.269863 4.676126
21.163944 53.710583 13.145351
16.405222 57.49765 21.21616
20.437086 46.882549 21.449648
14.580656 40.85466 37.192436
20.079683 39.249615 29.300928
25.3361 36.978184 19.961866
25.855656 47.091255 -7.729711
20.23797 58.714775 -17.024744
22.100956 57.598915 -14.359391
25.490911 46.317787 8.302843
27.613411 43.819984 4.249182
27.817257 41.100574 7.766978
27.853693 38.504406 11.617403
21.144222 69.751343 -18.868103
19.181787 70.756538 -22.565262
21.816061 75.393173 -10.253403
23.462406 69.560326 -8.521947
22.004171 72.667267 -5.432322
18.781248 68.008705 7.847273
21.126913 65.941177 4.043978
20.272306 62.539875 8.603341
21.75561 57.058952 8.982013
19.483099 59.180523 12.902103
21.016438 77.757286 -14.842744
13.288664 55.283989 28.989338
13.818754 59.17453 24.915638
15.866565 53.824894 25.49358
18.331011 52.021599 21.678217
18.074366 48.392963 25.652281
13.842508 35.881111 40.566532
19.754797 34.95771 32.890675
22.479275 34.198952 28.454584
22.667292 38.101746 24.796415
25.505648 57.589821 -6.076673
25.29887 53.709343 -8.520334
26.376532 51.378014 -5.463036
12.199725 85.435196 -31.366041
14.57956 70.055809 -29.649315
19.914114 75.065247 -1.804685
17.547157 77.07402 1.72811
17.151533 73.536621 6.486701
16.371136 70.061996 11.197398
12.647458 50.984779 33.203598
25.842941 51.926197 1.16939
27.085135 48.761185 -2.233202
27.439148 46.279339 0.972162
17.757425 80.725716 -24.139791
15.433653 80.909531 -28.460951
17.68951 76.154121 -25.568964
16.974373 70.715004 -26.082842
22.793184 68.1567 -15.019608
23.444799 62.07901 -13.172264
23.931454 66.326996 -11.21015
24.578157 63.837189 -7.104511
24.718067 60.80286 -3.03244
21.730453 69.415443 -0.605554
23.175997 63.549538 0.362579
24.440023 57.893322 0.902806
23.973482 54.639217 4.943289
23.447901 51.613113 8.915195
23.050562 48.48608 12.924674
19.576817 79.729866 -19.680582
21.511778 74.213257 -17.329617
15.388117 66.703796 15.835566
14.640801 62.874943 20.349319
17.030182 61.089516 16.930931
18.847372 55.616779 17.283394
20.730972 50.227123 17.38242
22.819685 45.32803 16.880299
15.046732 45.4566 33.668957
16.927521 35.536198 36.942368
17.397396 40.208748 33.512035
17.741404 44.423916 29.831848
20.230137 43.173023 25.597252
22.66007 41.914227 20.999083
25.324266 40.386204 16.007477
23.84799 55.637146 -11.456809
24.129107 49.017929 -10.119138
27.329922 45.01899 -5.0907
12.784333 80.159531 -32.535862
21.125063 61.201984 -16.737223
21.220482 58.145012 -15.628071
22.015499 60.7728 -15.353154
25.414719 44.83984 10.268475
26.59181 43.675014 8.145424
26.590441 42.342163 9.947253
27.756599 39.944672 9.751551
26.55802 41.011013 11.849094
21.599535 66.680138 -17.512644
20.690273 67.344292 -19.248234
20.946884 64.289825 -17.968859
20.151924 61.73027 -18.236612
20.95826 76.964317 -8.646031
21.898401 74.283691 -7.804821
21.065035 75.401711 -6.029001
18.347153 66.261116 10.149544
19.57539 65.349121 8.140592
19.048513 63.597431 10.608687
19.851826 60.799343 10.831869
18.662889 61.807434 12.78803
20.790897 78.144547 -11.067376
14.377128 52.338749 29.535007
14.651973 54.405891 27.349312
15.72296 51.636135 27.663019
16.948404 50.991817 25.735163
16.830929 48.95187 27.795416
25.733603 56.20327 -4.331831
25.933788 54.456272 -5.802798
26.215628 53.331757 -4.092022
14.164993 66.81144 -29.455788
16.719917 71.921242 8.890971
11.446793 53.790157 32.794846
11.224832 51.502258 34.657021
25.75794 50.542355 2.933995
26.635607 49.058334 1.014436
26.615812 47.76823 2.809225
28.701376 41.131886 4.055698
18.953854 77.947845 -22.767788
17.859184 78.347237 -24.930269
18.811132 75.711929 -23.561499
18.599554 68.173264 -22.812336
18.055317 70.837929 -24.415762
17.493259 67.87059 -24.411831
16.360886 67.88929 -26.195862
22.897411 70.22448 -14.117613
23.431639 67.295532 -13.10251
23.405365 69.321976 -12.02045
23.500755 68.439308 -6.245171
24.067451 66.672348 -7.703443
24.133745 65.414291 -5.550584
24.706625 62.312469 -5.007114
24.121096 63.888676 -3.470352
19.78438 73.452812 0.442926
20.887943 72.195625 -1.133323
20.612034 70.552322 1.319461
21.855841 63.160736 4.335423
22.130219 64.867813 2.309407
22.860447 62.008644 2.52011
23.782919 60.824291 0.675362
23.560894 59.037178 2.768548
24.256138 56.173096 2.895938
23.213331 57.409275 4.956363
21.464985 55.419216 10.970531
22.652393 54.298683 8.803704
22.295998 52.706249 11.056684
23.304626 49.985744 10.775428
22.119396 50.978294 13.045856
18.28647 82.355881 -20.995173
19.145468 81.550278 -18.429893
21.960911 74.993492 -13.96917
21.353374 76.092941 -16.272144
22.197481 73.247131 -15.193591
22.255438 71.197891 -16.089308
14.568734 69.374229 15.192149
14.044523 67.697006 17.528881
15.14249 58.24839 23.187777
14.201027 61.118164 22.612343
15.511042 60.143635 20.872066
15.845042 62.066593 18.630064
16.654057 59.436184 19.072697
17.960876 58.314373 17.111954
17.623932 56.614166 19.284441
19.404268 49.486614 21.46723
19.531454 51.296856 19.429926
20.588539 48.612297 19.327236
21.789268 47.80331 16.99942
21.669914 46.01717 19.170876
12.887854 41.260262 38.961357
13.273825 43.508499 37.268364
13.547051 45.922371 35.448135
14.763262 43.361774 35.457031
17.973392 32.961952 36.775166
19.924852 37.143898 31.152813
18.593918 37.665192 33.163345
18.862528 39.684113 31.326647
17.675871 42.362255 31.547384
18.898741 41.967701 29.531708
18.975166 43.989799 27.671665
20.112038 41.31028 27.54147
24.003695 37.589409 22.330412
22.68862 39.974968 22.935505
23.932426 39.516399 20.476406
24.000549 41.1427 18.502024
25.306509 38.686592 18.093269
26.628702 37.96558 15.689597
24.170631 61.02132 -11.371693
23.6609 58.803326 -12.277047
24.405993 57.766575 -10.653813
25.624657 50.511749 -7.989911
24.853962 51.222992 -9.371945
25.034159 48.063473 -8.920063
25.20896 44.752117 -8.517473
27.732899 45.849308 -2.318344
27.299459 47.206047 -3.806404
8.629421 87.242928 -34.897785
15.433165 78.592323 -29.005274
14.044511 80.848686 -30.621195
14.215122 78.030449 -30.870472
21.28142 54.877392 -14.525978
22.164471 54.113285 -13.334833
25.541544 47.688591 6.624672
26.595728 46.453068 4.529945
26.637396 44.989647 6.256862
27.712917 42.465958 5.992639
29.095125 37.476833 9.361247
29.154686 36.203232 11.302219
20.551809 72.71859 -20.215549
19.607714 73.128105 -22.103445
20.25951 70.234413 -20.601553
19.679983 67.94249 -21.056145
22.395309 73.851212 -11.662332
23.129881 71.150581 -10.704344
22.681805 72.537659 -9.158208
22.812881 71.22551 -6.984861
22.793062 69.727173 -4.551284
19.152702 69.861504 5.469797
20.359238 68.779228 3.578084
19.981186 67.04184 5.912124
20.758131 64.206848 6.254777
21.477766 61.522377 6.466255
22.08581 58.759026 6.923631
21.001347 59.891155 8.77708
20.665169 58.013386 10.960145
20.264006 56.498508 13.118517
19.816008 80.613472 -15.984898
20.358522 79.484398 -13.442369
21.498108 76.600899 -12.574204
12.161753 57.876724 28.707989
12.496318 59.90617 26.566629
13.55574 57.181293 27.015272
14.791891 56.509033 25.329725
16.125931 55.577118 23.445669
17.316078 54.764942 21.565342
17.116594 52.772636 23.771135
18.212313 50.214405 23.635725
19.276936 47.618073 23.593773
12.559792 38.753567 40.570126
14.151381 38.459232 38.991692
19.367809 32.825218 34.766609
21.068817 34.634079 30.777164
21.237959 36.729221 28.937635
21.314346 38.843121 27.069035
22.500948 36.378273 26.674791
23.899567 35.754566 24.326385
25.170849 58.918949 -7.917707
25.017904 56.92128 -9.05599
25.541145 55.70171 -7.372662
25.88072 52.512695 -7.047668
26.251516 49.322342 -6.706703
10.135335 87.735771 -32.742027
10.786044 85.190384 -33.413513
15.04605 73.028862 -29.51067
14.100317 75.130081 -31.093521
13.834109 72.373344 -31.215866
18.8543 79.377411 -5.050557
19.994852 76.69014 -4.305908
18.928394 77.652275 -2.546864
18.78327 76.002487 0.030918
18.623436 74.32959 2.350075
16.26619 77.910866 3.62228
17.337225 75.384155 4.168866
18.312618 72.694412 4.758883
17.939169 70.848732 7.292594
17.605488 69.042786 9.527115
17.063116 67.4188 11.946223
11.843157 55.789501 30.786556
13.041798 53.041462 31.122534
14.193273 50.222996 31.49765
25.907213 53.351974 -0.747345
26.445721 51.878365 -2.456095
26.563311 50.461506 -0.655454
27.328457 47.39851 -0.724955
28.073044 44.601231 -0.691259
27.569986 44.956432 2.591153
16.640347 80.905182 -26.352268
16.664976 78.542076 -27.035723
16.57415 75.973747 -27.417395
18.521557 73.429497 -24.080204
17.441647 73.490364 -25.884125
16.178301 73.261719 -27.834562
15.794732 70.544006 -27.878056
15.292986 67.633896 -27.826452
22.408735 65.903801 -15.823695
22.671997 63.033802 -14.824418
23.14957 65.354378 -14.131769
23.832544 64.105309 -12.270168
24.377455 63.223869 -10.375321
23.816147 68.023674 -9.889353
24.358086 64.941948 -9.179673
24.786156 61.96793 -8.530132
25.068977 60.671001 -6.629877
25.217356 59.31554 -4.6238
25.280773 57.793556 -2.707179
21.004425 73.870972 -3.523258
21.9235 71.047134 -2.971161
22.726398 68.061905 -2.34466
21.465738 67.59285 1.819304
22.449692 66.577461 -0.03487
23.383797 65.244812 -1.840881
24.019148 62.354603 -1.482679
24.580065 59.489479 -1.038467
25.201517 56.475124 -0.761632
25.178875 54.721115 1.029742
24.961784 53.310257 3.044455
24.77495 51.813755 4.952556
22.878527 55.92963 6.947329
23.761009 53.094528 6.795432
24.591503 50.364723 6.814883
24.462074 48.882603 8.607644
24.283264 47.46138 10.569777
24.138914 46.024681 12.534514
18.744974 80.217552 -21.98521
19.806021 77.70739 -20.722746
20.365807 78.875801 -17.189846
20.617676 77.024498 -18.556898
20.763542 74.760895 -19.377085
21.473686 71.918747 -18.142233
22.012341 68.92379 -16.965525
15.070229 70.964607 12.928622
15.865228 68.421341 13.538893
16.697044 65.572571 14.126828
12.851006 61.875103 24.38674
13.72681 65.593605 19.827503
15.017192 64.788162 18.085503
16.246204 63.865547 16.379568
17.491898 62.754623 14.634254
18.279747 60.105305 14.956531
19.165285 57.413158 15.049315
20.02894 54.66489 15.205
18.544113 53.824547 19.552589
19.72547 52.919746 17.466169
20.838013 52.100079 15.378165
21.866518 49.571938 15.036122
22.913879 46.960453 14.870406
24.015907 44.518509 14.575269
12.429284 48.637321 35.095684
13.955415 48.126827 33.401493
15.308945 47.526524 31.754154
15.475688 35.763268 38.734589
15.724091 38.184692 37.181252
18.385803 35.337345 34.903198
17.228119 37.864231 35.227669
15.969618 40.533665 35.502396
16.2272 42.787987 33.67741
16.390676 44.97414 31.861778
16.600927 46.984833 29.912432
17.882854 46.48671 27.79553
19.183483 45.675755 25.674051
20.307207 45.041752 23.612707
21.397306 40.660374 25.257153
21.460382 42.527191 23.30278
21.48505 44.399174 21.335657
22.745335 43.555611 19.014759
24.035954 42.777607 16.53027
25.297949 41.962509 14.13533
26.53105 39.580761 13.838868
27.904617 37.132904 13.463628
22.84177 59.913532 -13.880247
22.976723 56.695415 -12.957232
23.104712 53.379608 -12.06764
24.643721 54.490063 -9.946038
24.046196 52.396137 -10.687588
23.201443 50.218281 -11.319223
26.766167 50.195015 -3.817081
26.838831 48.254715 -5.250027
26.653486 46.243656 -6.372164
26.161036 43.87616 -7.373199
12.523868 82.924767 -32.107792
11.123285 82.461555 -34.070824
19.925204 78.845425 -8.055055
19.387993 79.444607 -7.119189
20.477297 77.536003 -7.684251
20.406167 78.273739 -9.016835
19.925204 78.845425 -8.055055
13.615884 66.506703 -30.329138
13.890883 65.266284 -29.467343
10.432662 51.742119 35.380806
10.625749 52.786672 34.488127
29.11836 40.392077 3.14178
29.286397 39.775979 3.921479
17.670902 66.620979 -23.670807
18.046406 68.021927 -23.612083
18.224049 66.772316 -22.87106
17.137336 66.587723 -24.48111
17.670902 66.620979 -23.670807
18.769868 82.477314 -17.790819
18.472634 82.792965 -18.99342
13.379995 68.09277 18.345198
13.623383 69.042263 17.12625
18.510125 31.77824 36.579943
17.757579 31.775802 37.617136
25.982287 36.682949 18.797417
25.967492 37.537153 17.863118
25.321304 37.832388 19.027567
27.827089 44.89674 -3.032943
28.075872 44.414842 -2.287455
7.849614 86.720978 -35.98785
8.934249 85.858128 -35.223726
20.244304 57.060562 -16.421122
19.756098 57.336252 -17.064588
28.330332 40.54159 6.738967
28.278162 41.224282 5.851797
27.765087 41.783266 6.879808
28.413902 39.897097 7.621815
28.330332 40.54159 6.738967
19.821305 66.397877 -20.340332
20.185128 67.643391 -20.152189
20.32645 66.098778 -19.436377
19.295827 66.551465 -21.164595
19.821305 66.397877 -20.340332
19.706713 58.890471 -17.745092
19.663691 60.398218 -18.351025
20.194947 60.222522 -17.630678
19.756098 57.336252 -17.064588
19.706713 58.890471 -17.745092
19.936332 80.243943 -12.696817
19.703081 80.86784 -14.006049
13.20115 37.317339 40.568329
12.384166 37.436304 41.341841
13.025524 36.000076 41.340044
21.774046 34.416516 29.615874
21.617483 33.427847 30.605579
22.322712 33.210284 29.444289
24.547327 34.577896 24.079015
23.845756 34.853436 25.222921
24.587536 35.497112 23.12005
24.547327 34.577896 24.079015
11.16753 86.585484 -32.054034
10.818554 87.878056 -31.635313
11.850749 86.727768 -30.94732
18.30275 79.031917 -2.925769
18.891347 78.514843 -3.798711
18.265702 79.894486 -4.177616
18.165214 76.538253 0.879514
18.279791 77.288021 -0.37503
17.661735 77.823788 0.473567
15.659662 78.262295 4.481611
15.725794 79.109039 3.25829
17.244379 74.460388 5.327784
16.709139 75.771641 5.101886
16.616293 74.847873 6.260803
18.265702 79.894486 -4.177616
18.233691 80.656872 -5.457422
11.094303 56.10347 31.546404
11.241896 57.278811 30.487175
17.198886 80.815449 -25.246029
16.483611 82.11911 -25.929823
17.04215 82.029377 -24.823584
15.518363 66.247268 -26.945894
15.826936 67.761593 -27.011157
16.052313 66.374966 -26.130599
14.981269 66.104466 -27.823889
15.518363 66.247268 -26.945894
14.36105 71.52528 13.702587
14.605303 72.264389 12.61086
13.95911 63.313055 21.237785
13.739223 62.434666 22.369297
14.420914 61.996554 21.480831
14.183806 64.234274 20.088411
13.502115 64.672386 20.976877
13.95911 63.313055 21.237785
12.239553 47.47879 36.051437
11.652761 48.895952 35.830147
16.201604 35.649733 37.838479
15.970396 34.417662 38.743099
16.696313 34.304127 37.846989
27.964403 36.344042 14.383419
27.266659 37.549242 14.576612
27.326445 36.76038 15.496403
28.564645 35.983784 13.334274
27.964403 36.344042 14.383419
23.713227 47.898825 -10.361626
23.249395 48.499 -10.961669
23.665275 49.618105 -10.719181
26.31501 42.217626 -7.225713
26.593888 43.387054 -6.794062
25.81658 42.710037 -7.724113
26.31501 42.217626 -7.225713
14.674867 82.091209 -29.192623
15.315894 82.126255 -28.100541
13.46827 76.284249 -31.956426
13.424741 74.823162 -32.025469
20.454756 64.571544 -18.796689
20.32645 66.098778 -19.436377
20.818579 65.817059 -18.608546
20.549404 63.010047 -18.102736
20.057276 63.291767 -18.930566
20.454756 64.571544 -18.796689
20.322485 78.863854 -10.227507
20.152519 79.574017 -11.509321
20.874578 77.554432 -9.856704
20.322485 78.863854 -10.227507
20.406167 78.273739 -9.016835
13.590246 34.616171 41.367994
13.025524 36.000076 41.340044
23.006186 33.066315 28.319825
22.322712 33.210284 29.444289
23.13561 34.075629 27.287021
23.006186 33.066315 28.319825
12.849785 85.602055 -30.222511
11.850749 86.727768 -30.94732
13.791513 68.053895 -30.383598
13.998797 69.676079 -30.480362
14.372277 68.433625 -29.552551
13.791513 68.053895 -30.383598
13.615884 66.506703 -30.329138
17.00575 78.279621 1.437663
17.661735 77.823788 0.473567
16.46474 74.031655 7.410552
16.616293 74.847873 6.260803
16.248931 73.223965 8.612687
16.935725 72.728932 7.688836
16.46474 74.031655 7.410552
16.076833 72.358918 9.75942
16.248931 73.223965 8.612687
15.902443 71.429294 10.912634
16.545527 70.991619 10.044185
16.076833 72.358918 9.75942
10.73673 53.930622 33.55704
10.896121 55.103798 32.550549
11.335812 52.646208 33.725933
10.73673 53.930622 33.55704
10.625749 52.786672 34.488127
28.611525 41.741612 3.199349
28.067543 43.085661 3.296091
28.157393 42.475935 4.15244
28.611525 41.741612 3.199349
29.11836 40.392077 3.14178
16.57115 66.597072 -25.373126
16.927073 67.87994 -25.303846
17.137336 66.587723 -24.48111
16.052313 66.374966 -26.130599
16.57115 66.597072 -25.373126
18.043135 83.195766 -20.27606
17.547832 83.686123 -21.473826
18.715969 81.95308 -19.712533
18.043135 83.195766 -20.27606
18.472634 82.792965 -18.99342
13.885488 69.880875 15.957883
14.110302 70.730091 14.834351
14.306628 68.535618 16.360515
13.885488 69.880875 15.957883
13.623383 69.042263 17.12625
12.283248 42.542101 38.90517
12.088582 41.29636 39.754164
12.476233 43.666219 38.058674
12.283248 42.542101 38.90517
13.080839 42.38438 38.11486
12.661824 44.914379 37.137777
12.476233 43.666219 38.058674
13.410438 44.715435 36.358249
12.798437 46.121315 36.227663
12.661824 44.914379 37.137777
17.219248 33.017004 37.763388
17.757579 31.775802 37.617136
17.450457 34.249075 36.858767
16.696313 34.304127 37.846989
17.219248 33.017004 37.763388
26.628588 37.176647 16.661282
25.967605 38.326086 16.891433
25.967492 37.537153 17.863118
27.326445 36.76038 15.496403
26.628588 37.176647 16.661282
24.661443 46.894132 -9.230402
24.208917 47.371361 -9.82994
24.581633 48.540701 -9.5196
24.748843 45.238455 -9.029107
24.661443 46.894132 -9.230402
25.12156 46.407795 -8.718768
24.831853 43.511831 -8.762783
24.748843 45.238455 -9.029107
27.610369 45.575109 -3.776973
27.516179 46.527677 -3.062374
27.827089 44.89674 -3.032943
27.625601 44.481581 -4.419121
27.31469 46.112519 -4.448552
27.610369 45.575109 -3.776973
7.50308 88.180431 -35.535013
8.232803 88.56675 -34.456346
7.50308 88.180431 -35.535013
7.849614 86.720978 -35.98785
20.73556 56.77568 -15.722786
20.244304 57.060562 -16.421122
20.729226 58.429894 -16.326407
20.766029 55.14187 -15.17174
20.73556 56.77568 -15.722786
21.250951 56.511202 -15.077025
20.75153 53.599282 -14.659209
20.766029 55.14187 -15.17174
21.243145 53.181939 -14.058021
20.75153 53.599282 -14.659209
21.68467 52.799885 -13.462448
21.243145 53.181939 -14.058021
21.722946 54.495339 -13.930405
22.172449 52.433922 -12.896242
21.68467 52.799885 -13.462448
28.772391 40.557246 4.883327
28.207147 41.798922 5.024169
28.278162 41.224282 5.851797
29.286397 39.775979 3.921479
28.772391 40.557246 4.883327
28.383574 39.319145 8.614102
28.413902 39.897097 7.621815
27.786928 40.522623 8.759265
29.052836 38.085226 8.41895
28.383574 39.319145 8.614102
28.425862 38.710752 9.556399
29.67635 36.869346 8.307536
29.052836 38.085226 8.41895
29.763622 36.255226 9.247176
29.67635 36.869346 8.307536
29.793402 35.618426 10.217661
29.763622 36.255226 9.247176
29.124906 36.840032 10.331733
29.856288 35.014807 11.122836
29.793402 35.618426 10.217661
18.755612 66.666852 -22.04269
19.139769 68.057877 -21.934241
19.295827 66.551465 -21.164595
18.224049 66.772316 -22.87106
18.755612 66.666852 -22.04269
19.635248 61.87498 -18.990053
20.057276 63.291767 -18.930566
19.635248 61.87498 -18.990053
19.663691 60.398218 -18.351025
19.431824 81.432377 -15.277314
19.105138 82.008911 -16.568321
20.087265 80.048935 -14.713634
19.431824 81.432377 -15.277314
19.703081 80.86784 -14.006049
20.57471 78.814472 -12.254872
19.936332 80.243943 -12.696817
20.152519 79.574017 -11.509321
12.329035 58.891447 27.637309
11.817439 60.350139 27.247431
11.650156 59.335417 28.318112
11.718981 38.804377 41.342199
12.384166 37.436304 41.341841
11.924551 40.043013 40.558548
11.718981 38.804377 41.342199
12.723823 40.006914 39.765742
12.088582 41.29636 39.754164
11.924551 40.043013 40.558548
19.955807 31.550441 34.527348
19.207334 31.709873 35.575665
20.095934 32.585291 33.718458
19.955807 31.550441 34.527348
20.289428 33.651537 32.780491
19.561303 33.891464 33.828642
20.095934 32.585291 33.718458
20.946438 33.489722 31.723736
21.617483 33.427847 30.605579
20.411807 34.795895 31.83392
20.289428 33.651537 32.780491
20.946438 33.489722 31.723736
23.146446 35.165289 26.397124
22.490112 35.288612 27.564687
23.13561 34.075629 27.287021
23.200257 36.066419 25.500588
23.146446 35.165289 26.397124
23.845756 34.853436 25.222921
24.6396 36.414534 22.122063
23.951631 36.671988 23.328398
24.587536 35.497112 23.12005
25.305802 36.108921 20.93779
24.669897 37.283797 21.146139
24.6396 36.414534 22.122063
25.986907 35.796556 19.794668
25.305802 36.108921 20.93779
9.747383 88.941261 -32.262431
10.818554 87.878056 -31.635313
8.98576 88.813172 -33.378467
9.747383 88.941261 -32.262431
9.382378 87.48935 -33.819906
8.232803 88.56675 -34.456346
8.98576 88.813172 -33.378467
10.01256 84.831856 -34.48159
8.934249 85.858128 -35.223726
9.707733 86.216656 -34.155649
13.291636 73.444794 -32.086641
13.424741 74.823162 -32.025469
13.967213 73.751712 -31.154694
13.626071 70.834846 -31.263638
14.206834 71.214576 -30.43259
13.998797 69.676079 -30.480362
13.164929 71.942833 -32.145702
13.626071 70.834846 -31.263638
13.291636 73.444794 -32.086641
13.164929 71.942833 -32.145702
18.352353 78.112915 -1.66392
18.30275 79.031917 -2.925769
18.855832 76.827381 -1.257973
18.352353 78.112915 -1.66392
18.279791 77.288021 -0.37503
16.365266 78.698044 2.384748
15.725794 79.109039 3.25829
16.906674 77.492443 2.675195
17.00575 78.279621 1.437663
16.365266 78.698044 2.384748
16.173622 77.034996 4.828593
15.659662 78.262295 4.481611
16.801707 76.647511 3.895573
16.173622 77.034996 4.828593
16.709139 75.771641 5.101886
18.816976 80.079468 -6.283232
18.233691 80.656872 -5.457422
19.425317 78.74255 -5.886514
19.387993 79.444607 -7.119189
18.816976 80.079468 -6.283232
11.401194 58.322422 29.447892
11.650156 59.335417 28.318112
12.002455 56.833112 29.747273
11.401194 58.322422 29.447892
11.241896 57.278811 30.487175
11.644975 54.789829 31.790701
11.094303 56.10347 31.546404
10.896121 55.103798 32.550549
28.245945 43.790804 -1.473912
28.075872 44.414842 -2.287455
27.902971 45.225269 -1.504802
28.045831 43.653885 2.467077
27.591698 44.388208 3.420167
28.067543 43.085661 3.296091
27.954359 44.196634 1.655558
28.045831 43.653885 2.467077
27.88894 44.858087 0.846062
27.504567 45.617885 1.781657
27.954359 44.196634 1.655558
28.205888 44.019033 0.014352
27.756096 45.440285 0.140452
27.88894 44.858087 0.846062
28.498444 43.098072 -0.798921
28.205888 44.019033 0.014352
28.245945 43.790804 -1.473912
28.498444 43.098072 -0.798921
15.919241 82.12408 -27.0462
16.483611 82.11911 -25.929823
16.037 80.907356 -27.40661
15.315894 82.126255 -28.100541
15.919241 82.12408 -27.0462
14.417272 65.693238 -28.638556
14.72899 67.222668 -28.64112
14.981269 66.104466 -27.823889
13.890883 65.266284 -29.467343
14.417272 65.693238 -28.638556
17.574221 81.841377 -23.663288
17.04215 82.029377 -24.823584
17.838743 82.65646 -22.090979
17.547832 83.686123 -21.473826
18.067995 81.587295 -22.585997
17.838743 82.65646 -22.090979
18.515722 81.286716 -21.490192
18.251199 80.471634 -23.0625
17.574221 81.841377 -23.663288
18.067995 81.587295 -22.585997
19.480738 81.081875 -17.207396
18.769868 82.477314 -17.790819
19.105138 82.008911 -16.568321
15.25199 71.8806 11.778246
14.605303 72.264389 12.61086
15.720682 70.513301 12.06301
15.902443 71.429294 10.912634
15.25199 71.8806 11.778246
14.819481 70.169418 14.060386
14.36105 71.52528 13.702587
14.110302 70.730091 14.834351
11.97252 61.412676 26.173299
11.817439 60.350139 27.247431
12.149864 62.397143 25.083355
11.97252 61.412676 26.173299
12.673662 60.890636 25.476684
12.376492 63.363867 23.951541
12.149864 62.397143 25.083355
13.064213 62.813135 23.256495
13.526017 61.496634 23.499541
13.739223 62.434666 22.369297
12.376492 63.363867 23.951541
13.064213 62.813135 23.256495
13.016293 66.108555 20.615685
13.502115 64.672386 20.976877
13.221139 67.041069 19.494509
13.016293 66.108555 20.615685
13.885666 66.645306 18.678192
13.379995 68.09277 18.345198
13.221139 67.041069 19.494509
11.050535 50.328421 35.610816
10.432662 51.742119 35.380806
11.827058 50.069789 34.876352
11.050535 50.328421 35.610816
11.652761 48.895952 35.830147
12.988167 47.279846 35.271909
12.239553 47.47879 36.051437
12.798437 46.121315 36.227663
14.385874 34.596784 40.527353
13.590246 34.616171 41.367994
15.202464 34.537863 39.611382
15.970396 34.417662 38.743099
14.659098 35.822189 39.65056
14.385874 34.596784 40.527353
15.202464 34.537863 39.611382
18.6706 32.893585 35.770888
18.510125 31.77824 36.579943
19.207334 31.709873 35.575665
29.18968 35.518947 12.253569
28.529651 36.668068 12.382924
28.564645 35.983784 13.334274
29.856288 35.014807 11.122836
29.18968 35.518947 12.253569
25.982287 36.682949 18.797417
25.986907 35.796556 19.794668
22.642569 52.067083 -12.262646
22.172449 52.433922 -12.896242
22.634591 53.746446 -12.701237
22.690935 50.48642 -11.888437
22.642569 52.067083 -12.262646
23.153078 51.798944 -11.693431
22.729917 48.865471 -11.481017
22.690935 50.48642 -11.888437
22.729917 48.865471 -11.481017
23.249395 48.499 -10.961669
23.713227 47.898825 -10.361626
24.208917 47.371361 -9.82994
27.585612 43.484911 -5.016977
27.625601 44.481581 -4.419121
27.178331 43.958469 -5.652812
27.585612 43.484911 -5.016977
26.840114 44.570802 -6.293544
26.991704 45.631323 -5.731432
27.178331 43.958469 -5.652812
26.407261 45.059908 -6.872681
26.840114 44.570802 -6.293544
26.593888 43.387054 -6.794062
25.340542 43.148016 -8.29625
25.684998 44.314138 -7.945336
25.81658 42.710037 -7.724113
24.831853 43.511831 -8.762783
25.340542 43.148016 -8.29625
13.057903 84.354042 -30.645168
12.849785 85.602055 -30.222511
13.980296 82.060787 -30.272745
14.674867 82.091209 -29.192623
14.739082 80.879109 -29.541073
13.219974 83.098827 -31.016044
13.980296 82.060787 -30.272745
13.28419 81.886727 -31.364494
12.361797 84.179981 -31.736916
13.057903 84.354042 -30.645168
13.219974 83.098827 -31.016044
10.18118 83.467442 -34.810246
10.01256 84.831856 -34.48159
10.954664 83.825969 -33.742169
13.525672 77.734432 -31.844902
14.157719 76.580265 -30.981997
13.46827 76.284249 -31.956426
12.810278 78.798974 -32.677597
13.499727 79.09499 -31.703167
13.525672 77.734432 -31.844902
12.09267 79.870968 -33.471153
12.810278 78.798974 -32.677597
11.262146 81.02198 -34.238635
11.953809 81.310543 -33.303343
12.09267 79.870968 -33.471153
10.369688 81.941742 -35.085031
11.262146 81.02198 -34.238635
10.18118 83.467442 -34.810246
10.369688 81.941742 -35.085031
3 1 96 94
3 0 99 97
3 0 101 99
3 1 104 102
3 1 94 104
3 2 108 106
3 4 111 109
3 4 113 111
3 2 383 384
3 2 385 387
3 385 106 386
3 385 386 387
3 5 117 115
3 5 119 117
3 3 122 120
3 389 388 123
3 390 126 391
3 7 129 127
3 393 392 130
3 8 133 131
3 394 136 395
3 396 395 134
3 394 395 396
3 398 397 136
3 10 140 138
3 12 143 141
3 12 145 143
3 6 148 146
3 13 151 149
3 13 153 151
3 13 155 153
3 14 158 156
3 14 160 158
3 399 162 400
3 10 165 163
3 10 138 165
3 401 168 402
3 15 171 169
3 15 173 171
3 15 175 173
3 16 178 176
3 16 180 178
3 17 182 181
3 17 184 182
3 403 185 404
3 18 188 186
3 18 190 188
3 18 192 190
3 19 195 193
3 19 197 195
3 19 405 407
3 407 406 197
3 405 406 407
3 11 201 199
3 20 204 202
3 20 205 204
3 409 408 206
3 411 410 208
3 9 211 209
3 21 412 413
3 22 212 95
3 22 213 212
3 23 216 214
3 25 217 98
3 25 414 416
3 416 415 217
3 414 415 416
3 25 417 418
3 26 218 100
3 26 219 218
3 27 222 220
3 419 223 420
3 421 420 103
3 419 420 421
3 423 422 223
3 21 424 426
3 426 425 105
3 424 425 426
3 21 427 428
3 29 226 224
3 31 227 107
3 31 228 227
3 32 231 229
3 34 232 110
3 34 233 232
3 34 235 233
3 36 236 112
3 36 237 236
3 429 239 430
3 29 240 114
3 29 224 240
3 38 243 241
3 40 244 116
3 40 245 244
3 40 247 245
3 42 248 118
3 42 249 248
3 43 431 433
3 431 250 432
3 431 432 433
3 43 251 250
3 45 434 436
3 434 253 435
3 434 435 436
3 45 254 253
3 45 256 254
3 437 257 438
3 440 439 257
3 47 260 258
3 49 261 121
3 49 262 261
3 50 441 443
3 441 263 442
3 441 442 443
3 50 264 263
3 51 267 265
3 444 270 445
3 446 445 268
3 444 445 446
3 53 447 449
3 447 271 448
3 447 448 449
3 53 272 271
3 450 273 451
3 54 452 454
3 452 274 453
3 452 453 454
3 54 275 274
3 54 276 275
3 55 277 124
3 55 278 277
3 455 268 456
3 457 279 458
3 56 280 125
3 56 281 280
3 57 284 282
3 59 285 128
3 59 286 285
3 24 287 215
3 60 459 461
3 459 288 460
3 459 460 461
3 62 289 132
3 62 290 289
3 28 291 221
3 63 292 135
3 63 293 292
3 63 294 293
3 462 295 463
3 464 463 137
3 462 463 464
3 466 465 295
3 64 298 296
3 66 299 139
3 66 300 299
3 30 301 225
3 67 302 142
3 67 303 302
3 67 304 303
3 68 305 144
3 68 306 305
3 52 307 269
3 69 308 147
3 69 309 308
3 33 310 230
3 70 311 150
3 70 312 311
3 70 313 312
3 71 314 152
3 71 315 314
3 71 316 315
3 72 317 154
3 72 318 317
3 35 319 234
3 73 320 157
3 73 321 320
3 73 322 321
3 74 323 159
3 74 324 323
3 75 325 161
3 75 326 325
3 37 327 238
3 76 328 164
3 76 329 328
3 76 330 329
3 64 331 166
3 64 296 331
3 467 332 468
3 77 333 167
3 77 334 333
3 39 335 242
3 78 469 471
3 471 470 170
3 469 470 471
3 78 472 474
3 472 336 473
3 472 473 474
3 78 337 336
3 79 338 172
3 79 339 338
3 79 340 339
3 80 341 174
3 80 342 341
3 41 343 246
3 81 344 177
3 81 345 344
3 81 346 345
3 82 347 179
3 82 348 347
3 475 349 476
3 83 350 183
3 83 351 350
3 84 477 479
3 477 352 478
3 477 478 479
3 84 353 352
3 44 354 252
3 85 355 187
3 85 356 355
3 85 357 356
3 86 358 189
3 86 359 358
3 86 360 359
3 87 361 191
3 87 362 361
3 46 363 255
3 88 364 194
3 88 365 364
3 88 366 365
3 89 367 196
3 89 368 367
3 89 369 368
3 480 370 481
3 482 481 198
3 480 481 482
3 484 483 370
3 65 371 297
3 90 372 200
3 90 373 372
3 48 374 259
3 91 375 203
3 91 376 375
3 91 485 487
3 487 486 376
3 485 486 487
3 58 377 283
3 92 378 207
3 92 379 378
3 488 380 489
3 491 490 380
3 61 492 493
3 93 381 210
3 93 382 381
3 495 494 266
3 94 95 21
3 96 95 94
3 96 22 95
3 97 98 23
3 99 98 97
3 99 25 98
3 99 100 25
3 101 100 99
3 101 26 100
3 102 103 27
3 104 103 102
3 104 496 498
3 498 497 103
3 496 497 498
3 104 499 501
3 499 105 500
3 499 500 501
3 94 105 104
3 94 21 105
3 106 107 29
3 108 107 106
3 108 31 107
3 109 110 32
3 111 110 109
3 111 34 110
3 111 112 34
3 113 112 111
3 113 36 112
3 502 114 503
3 106 504 506
3 504 114 505
3 504 505 506
3 106 29 114
3 115 116 38
3 117 116 115
3 117 40 116
3 117 118 40
3 119 118 117
3 119 42 118
3 507 43 508
3 509 45 510
3 512 511 45
3 120 121 47
3 122 121 120
3 122 49 121
3 513 50 514
3 123 515 517
3 517 516 51
3 515 516 517
3 519 518 123
3 520 53 521
3 522 54 523
3 524 124 525
3 526 525 54
3 524 525 526
3 527 124 528
3 529 55 530
3 531 530 124
3 529 530 531
3 532 125 533
3 126 534 536
3 534 125 535
3 534 535 536
3 126 56 125
3 127 128 57
3 129 128 127
3 129 59 128
3 130 537 539
3 539 538 24
3 537 538 539
3 541 540 130
3 131 132 60
3 133 132 131
3 133 62 132
3 134 135 28
3 136 135 134
3 136 63 135
3 136 137 63
3 542 137 543
3 544 543 136
3 542 543 544
3 546 545 137
3 138 139 64
3 140 139 138
3 140 66 139
3 141 142 30
3 143 142 141
3 143 67 142
3 143 144 67
3 145 144 143
3 145 68 144
3 146 147 52
3 148 147 146
3 148 69 147
3 149 150 33
3 151 150 149
3 151 70 150
3 151 152 70
3 153 152 151
3 153 71 152
3 153 154 71
3 155 154 153
3 155 72 154
3 156 157 35
3 158 157 156
3 158 73 157
3 158 159 73
3 160 159 158
3 160 74 159
3 547 161 548
3 162 549 551
3 549 161 550
3 549 550 551
3 162 75 161
3 163 164 37
3 165 164 163
3 165 76 164
3 165 166 76
3 138 166 165
3 138 64 166
3 552 167 553
3 168 554 556
3 554 167 555
3 554 555 556
3 168 77 167
3 169 170 39
3 171 170 169
3 171 78 170
3 171 172 78
3 173 172 171
3 173 79 172
3 173 174 79
3 175 174 173
3 175 80 174
3 176 177 41
3 178 177 176
3 178 81 177
3 178 179 81
3 180 179 178
3 180 82 179
3 181 557 558
3 182 559 561
3 561 560 181
3 559 560 561
3 182 562 563
3 182 564 566
3 564 183 565
3 564 565 566
3 184 183 182
3 184 83 183
3 185 567 568
3 185 569 571
3 569 84 570
3 569 570 571
3 186 187 44
3 188 187 186
3 188 85 187
3 188 189 85
3 190 189 188
3 190 86 189
3 190 191 86
3 192 191 190
3 192 87 191
3 193 194 46
3 195 194 193
3 195 88 194
3 195 196 88
3 197 196 195
3 197 89 196
3 197 198 89
3 572 198 573
3 574 573 197
3 572 573 574
3 576 575 198
3 199 200 65
3 201 200 199
3 201 90 200
3 202 203 48
3 204 203 202
3 204 91 203
3 204 577 579
3 579 578 91
3 577 578 579
3 205 580 582
3 582 581 204
3 580 581 582
3 205 583 584
3 206 207 58
3 585 207 586
3 587 586 206
3 585 586 587
3 588 92 589
3 590 589 207
3 588 589 590
3 208 591 592
3 594 593 208
3 209 210 61
3 211 210 209
3 211 93 210
3 95 595 597
3 597 596 21
3 595 596 597
3 212 598 600
3 600 599 95
3 598 599 600
3 212 601 602
3 212 603 604
3 213 605 607
3 607 606 212
3 605 606 607
3 213 608 609
3 214 215 7
3 216 215 214
3 216 24 215
3 98 216 23
3 217 216 98
3 217 24 216
3 217 130 24
3 610 130 611
3 612 611 217
3 610 611 612
3 614 613 130
3 100 615 617
3 617 616 25
3 615 616 617
3 218 618 620
3 620 619 100
3 618 619 620
3 218 621 622
3 218 623 624
3 219 625 627
3 627 626 218
3 625 626 627
3 219 628 629
3 220 221 8
3 222 221 220
3 222 28 221
3 103 222 27
3 223 222 103
3 223 28 222
3 223 134 28
3 630 134 631
3 632 631 223
3 630 631 632
3 634 633 134
3 105 635 636
3 638 637 105
3 224 225 10
3 226 225 224
3 226 30 225
3 107 226 29
3 227 226 107
3 227 30 226
3 227 141 30
3 228 141 227
3 228 12 141
3 229 230 6
3 231 230 229
3 231 33 230
3 110 231 32
3 232 231 110
3 232 33 231
3 232 149 33
3 233 149 232
3 233 13 149
3 233 234 13
3 235 234 233
3 235 35 234
3 112 235 34
3 236 235 112
3 236 35 235
3 236 156 35
3 237 156 236
3 237 14 156
3 639 238 640
3 239 641 643
3 641 238 642
3 641 642 643
3 239 37 238
3 114 644 646
3 644 239 645
3 644 645 646
3 240 239 114
3 240 37 239
3 240 163 37
3 224 163 240
3 224 10 163
3 241 647 649
3 647 242 648
3 647 648 649
3 243 242 241
3 243 39 242
3 116 243 38
3 244 243 116
3 244 39 243
3 244 169 39
3 245 169 244
3 245 15 169
3 245 246 15
3 247 246 245
3 247 41 246
3 118 247 40
3 248 247 118
3 248 41 247
3 248 176 41
3 249 176 248
3 249 16 176
3 250 650 651
3 250 652 653
3 250 654 656
3 654 181 655
3 654 655 656
3 251 181 250
3 251 17 181
3 657 252 658
3 659 252 660
3 661 44 662
3 663 662 252
3 661 662 663
3 253 664 665
3 253 666 668
3 666 44 667
3 666 667 668
3 253 186 44
3 254 186 253
3 254 18 186
3 254 255 18
3 256 255 254
3 256 46 255
3 669 256 670
3 671 670 45
3 669 670 671
3 257 672 674
3 672 256 673
3 672 673 674
3 257 46 256
3 257 193 46
3 675 193 676
3 677 676 257
3 675 676 677
3 678 19 679
3 680 679 193
3 678 679 680
3 682 681 19
3 258 259 11
3 260 259 258
3 260 48 259
3 121 260 47
3 261 260 121
3 261 48 260
3 261 202 48
3 262 202 261
3 262 20 202
3 263 683 684
3 263 685 686
3 263 687 689
3 687 208 688
3 687 688 689
3 264 208 263
3 264 690 692
3 692 691 208
3 690 691 692
3 265 266 9
3 267 266 265
3 267 693 695
3 695 694 266
3 693 694 695
3 696 267 697
3 698 697 51
3 696 697 698
3 699 267 700
3 702 701 267
3 268 269 2
3 270 269 268
3 270 52 269
3 703 270 704
3 271 705 707
3 705 270 706
3 705 706 707
3 271 52 270
3 271 146 52
3 272 146 271
3 272 6 146
3 273 708 709
3 273 710 712
3 710 53 711
3 710 711 712
3 713 273 714
3 274 715 717
3 715 273 716
3 715 716 717
3 274 53 273
3 274 272 53
3 275 272 274
3 275 6 272
3 275 229 6
3 276 229 275
3 276 32 229
3 124 276 54
3 277 276 124
3 277 32 276
3 277 109 32
3 278 109 277
3 278 4 109
3 268 718 719
3 268 720 722
3 720 2 721
3 720 721 722
3 723 241 724
3 279 725 727
3 725 241 726
3 725 726 727
3 279 38 241
3 125 728 730
3 728 279 729
3 728 729 730
3 280 279 125
3 280 38 279
3 280 115 38
3 281 115 280
3 281 5 115
3 282 283 3
3 284 283 282
3 284 58 283
3 128 284 57
3 285 284 128
3 285 58 284
3 285 206 58
3 286 206 285
3 286 731 733
3 733 732 206
3 731 732 733
3 215 129 7
3 287 129 215
3 287 59 129
3 734 287 735
3 736 735 24
3 734 735 736
3 737 287 738
3 739 59 740
3 741 740 287
3 739 740 741
3 742 286 743
3 744 743 59
3 742 743 744
3 745 286 746
3 748 747 286
3 288 749 750
3 288 751 753
3 751 61 752
3 751 752 753
3 132 288 60
3 289 288 132
3 289 61 288
3 289 209 61
3 290 209 289
3 290 9 209
3 221 133 8
3 291 133 221
3 291 62 133
3 135 291 28
3 292 291 135
3 292 62 291
3 292 290 62
3 293 290 292
3 293 9 290
3 293 265 9
3 294 265 293
3 294 51 265
3 137 294 63
3 295 294 137
3 295 51 294
3 295 123 51
3 754 123 755
3 756 755 295
3 754 755 756
3 758 757 123
3 296 297 1
3 298 297 296
3 298 65 297
3 139 298 64
3 299 298 139
3 299 65 298
3 299 199 65
3 300 199 299
3 300 11 199
3 225 140 10
3 301 140 225
3 301 66 140
3 142 301 30
3 302 301 142
3 302 66 301
3 302 300 66
3 303 300 302
3 303 11 300
3 303 258 11
3 304 258 303
3 304 47 258
3 144 304 67
3 305 304 144
3 305 47 304
3 305 120 47
3 306 120 305
3 306 3 120
3 269 108 2
3 307 108 269
3 307 31 108
3 147 307 52
3 308 307 147
3 308 31 307
3 308 228 31
3 309 228 308
3 309 12 228
3 230 148 6
3 310 148 230
3 310 69 148
3 150 310 33
3 311 310 150
3 311 69 310
3 311 309 69
3 312 309 311
3 312 12 309
3 312 145 12
3 313 145 312
3 313 68 145
3 152 313 70
3 314 313 152
3 314 68 313
3 314 306 68
3 315 306 314
3 315 3 306
3 315 282 3
3 316 282 315
3 316 57 282
3 154 316 71
3 317 316 154
3 317 57 316
3 317 127 57
3 318 127 317
3 318 7 127
3 234 155 13
3 319 155 234
3 319 72 155
3 157 319 35
3 320 319 157
3 320 72 319
3 320 318 72
3 321 318 320
3 321 7 318
3 321 214 7
3 322 214 321
3 322 23 214
3 159 322 73
3 323 322 159
3 323 23 322
3 323 97 23
3 324 97 323
3 324 0 97
3 759 60 760
3 161 761 762
3 325 763 765
3 765 764 161
3 763 764 765
3 325 766 768
3 766 60 767
3 766 767 768
3 325 131 60
3 326 131 325
3 326 8 131
3 238 769 771
3 769 162 770
3 769 770 771
3 327 162 238
3 327 75 162
3 164 327 37
3 328 327 164
3 328 75 327
3 328 326 75
3 329 326 328
3 329 8 326
3 329 220 8
3 330 220 329
3 330 27 220
3 166 330 76
3 331 330 166
3 331 27 330
3 331 102 27
3 296 102 331
3 296 1 102
3 332 772 773
3 332 774 776
3 774 55 775
3 774 775 776
3 167 777 779
3 777 332 778
3 777 778 779
3 333 332 167
3 333 55 332
3 333 278 55
3 334 278 333
3 334 4 278
3 242 780 781
3 335 782 784
3 784 783 242
3 782 783 784
3 335 785 786
3 170 335 39
3 787 335 788
3 789 788 170
3 787 788 789
3 791 790 335
3 336 792 793
3 336 794 795
3 336 796 798
3 796 168 797
3 796 797 798
3 337 168 336
3 337 77 168
3 172 337 78
3 338 337 172
3 338 77 337
3 338 334 77
3 339 334 338
3 339 4 334
3 339 113 4
3 340 113 339
3 340 36 113
3 174 340 79
3 341 340 174
3 341 36 340
3 341 237 36
3 342 237 341
3 342 14 237
3 246 175 15
3 343 175 246
3 343 80 175
3 177 343 41
3 344 343 177
3 344 80 343
3 344 342 80
3 345 342 344
3 345 14 342
3 345 160 14
3 346 160 345
3 346 74 160
3 179 346 81
3 347 346 179
3 347 74 346
3 347 324 74
3 348 324 347
3 348 0 324
3 799 126 800
3 349 801 803
3 801 126 802
3 801 802 803
3 349 56 126
3 183 804 806
3 804 349 805
3 804 805 806
3 350 349 183
3 350 56 349
3 350 281 56
3 351 281 350
3 351 5 281
3 807 43 808
3 352 809 810
3 352 811 813
3 811 43 812
3 811 812 813
3 352 251 43
3 353 251 352
3 353 17 251
3 252 814 816
3 814 185 815
3 814 815 816
3 354 185 252
3 354 84 185
3 187 354 44
3 355 354 187
3 355 84 354
3 355 353 84
3 356 353 355
3 356 17 353
3 356 184 17
3 357 184 356
3 357 83 184
3 189 357 85
3 358 357 189
3 358 83 357
3 358 351 83
3 359 351 358
3 359 5 351
3 359 119 5
3 360 119 359
3 360 42 119
3 191 360 86
3 361 360 191
3 361 42 360
3 361 249 42
3 362 249 361
3 362 16 249
3 255 192 18
3 363 192 255
3 363 87 192
3 194 363 46
3 364 363 194
3 364 87 363
3 364 362 87
3 365 362 364
3 365 16 362
3 365 180 16
3 366 180 365
3 366 82 180
3 196 366 88
3 367 366 196
3 367 82 366
3 367 348 82
3 368 348 367
3 368 0 348
3 368 101 0
3 369 101 368
3 369 26 101
3 198 369 89
3 370 369 198
3 370 26 369
3 370 219 26
3 817 219 818
3 819 818 370
3 817 818 819
3 821 820 219
3 823 822 19
3 297 96 1
3 371 96 297
3 371 22 96
3 200 371 65
3 372 371 200
3 372 22 371
3 372 213 22
3 373 213 372
3 373 824 826
3 826 825 213
3 824 825 826
3 259 201 11
3 374 201 259
3 374 90 201
3 203 374 48
3 375 374 203
3 375 90 374
3 375 373 90
3 376 373 375
3 376 827 829
3 829 828 373
3 827 828 829
3 376 830 831
3 833 832 376
3 835 834 91
3 283 122 3
3 377 122 283
3 377 49 122
3 207 377 58
3 378 377 207
3 378 49 377
3 378 262 49
3 379 262 378
3 379 20 262
3 836 92 837
3 838 92 839
3 840 379 841
3 842 841 92
3 840 841 842
3 380 843 845
3 843 379 844
3 843 844 845
3 380 20 379
3 380 205 20
3 846 205 847
3 848 847 380
3 846 847 848
3 850 849 205
3 851 50 852
3 210 853 855
3 855 854 61
3 853 854 855
3 381 856 858
3 858 857 210
3 856 857 858
3 381 859 861
3 859 50 860
3 859 860 861
3 381 264 50
3 382 264 381
3 382 862 864
3 864 863 264
3 862 863 864
3 266 211 9
3 865 211 866
3 867 866 266
3 865 866 867
3 868 93 869
3 870 869 211
3 868 869 870
3 871 93 872
3 873 382 874
3 875 874 93
3 873 874 875
3 876 382 877
3 879 878 382
