ply
format ascii 1.0
element vertex 634
property float x
property float y
property float z
element face 704
property list uchar int vertex_index
end_header
16.432404 -64.17524 54.93803
12.478655 -47.428043 65.574913
4.670106 -58.680721 49.567585
-1.112371 -39.546459 57.26535
-12.283184 -32.457924 44.986874
5.400711 -43.54546 62.578861
-17.77718 -29.259663 40.406631
-0.944098 -54.960773 45.379211
14.69006 -56.870785 60.655956
10.890731 -62.018345 53.351788
7.936269 -53.129108 58.811436
1.63749 -49.222057 54.285027
-3.992875 -45.195202 48.778034
-6.957636 -35.886051 50.853699
-8.968554 -41.885063 43.476032
19.510447 -50.830311 64.663269
15.568207 -66.695 51.522911
-3.625432 -53.200935 43.278324
13.569278 -52.253834 63.359028
11.325616 -55.194225 60.070999
10.115498 -50.51738 62.524101
1.97026 -41.435383 60.071304
3.196808 -46.210274 58.6404
0.194792 -44.394115 55.920452
-1.258675 -47.142841 51.611137
-2.757479 -42.355247 52.930183
-9.615734 -34.046135 47.906368
-8.012403 -38.671959 47.052971
-10.593751 -37.019432 44.232479
-13.02893 -35.650875 41.868652
16.174751 -49.428185 65.606544
17.082218 -54.169426 62.998779
7.756983 -60.571022 51.49498
9.367559 -64.854622 48.350254
6.32924 -63.176182 46.669785
8.823862 -45.507172 64.422073
7.830026 -40.434162 65.875008
-14.865677 -30.900164 42.59684
-16.988697 -26.189781 43.176521
1.742105 -56.81662 47.408707
3.302722 -61.310558 44.841393
15.808282 -61.018963 57.704586
13.999671 -63.363956 54.51091
12.607941 -59.595135 57.257446
9.450603 -57.788517 56.233891
6.109036 -55.930386 54.278427
6.588973 -48.453671 60.881695
4.639749 -51.139187 56.734016
3.098417 -54.001369 52.121067
0.125352 -51.937462 49.657303
-2.530595 -50.206627 47.119007
-4.977512 -48.5695 44.791389
-4.133321 -37.649883 54.101578
-5.382715 -40.463757 50.060577
-6.480825 -43.553112 46.042763
12.589016 -66.023926 50.214123
16.047138 -65.34108 53.452461
17.324144 -63.55529 55.722572
13.014209 -49.771549 64.578651
11.881118 -51.488346 63.020416
11.154855 -48.973431 64.101776
0.459006 -40.514225 58.754276
1.003449 -42.938072 58.005428
-0.481119 -41.971989 56.615173
-1.318513 -43.380169 54.415657
-1.96563 -41.018845 55.104843
-10.93551 -33.186207 46.472603
-10.076522 -35.535282 46.051041
-11.441019 -34.650703 44.626755
-11.843371 -36.271397 42.984024
-12.715223 -33.904148 43.355076
13.88667 -45.809517 66.843369
15.626675 -46.889503 66.764778
14.352724 -48.390678 65.768257
14.818931 -50.962635 64.52636
6.249022 -59.585224 50.688816
7.020667 -61.802212 49.184559
5.474431 -60.95731 48.140423
0.332965 -55.727257 46.466721
1.117296 -58.229454 45.134766
-0.213718 -57.454926 44.106083
15.191581 -59.05788 59.138313
14.2494 -60.401413 57.55938
13.651821 -58.328087 59.024517
9.61756 -54.240788 59.47921
10.261029 -56.52042 58.141308
8.594851 -55.561333 57.419716
7.733644 -56.962761 55.202408
7.04935 -54.631176 56.600178
7.033007 -44.498394 63.545383
7.602786 -46.962971 62.711555
5.937502 -46.05513 61.729847
2.37036 -47.713863 56.502949
3.870318 -48.629726 57.742992
3.101084 -50.193905 55.519745
3.814339 -52.649036 54.36977
2.332708 -51.599873 53.243702
1.615778 -52.943901 50.96701
0.787399 -50.561691 51.8871
-2.650074 -46.300419 50.074501
-1.97675 -48.609913 49.277069
-3.227896 -47.811939 47.960419
-3.763589 -49.316944 45.985397
-4.504191 -46.76881 46.784359
-4.846627 -35.420143 54.48703
-5.575849 -36.784996 52.439472
-4.816068 -39.087818 52.009747
-6.195719 -38.108028 50.465336
-8.461299 -40.24622 45.248264
-7.18713 -41.17247 46.593422
-7.745382 -42.760769 44.671131
-6.937132 -45.247849 44.242851
-16.305944 -30.085209 41.438343
-15.260283 -32.394207 41.210606
21.043781 -51.630276 63.653141
19.907444 -53.36729 63.115276
15.891892 -55.509354 61.975769
17.487728 -56.498398 61.49004
16.266991 -57.788757 60.432243
12.518379 -62.868801 53.909702
13.263254 -64.692093 52.444378
11.656575 -64.066681 51.764019
8.645674 -66.158691 45.828033
10.281526 -66.836487 46.824024
2.771521 -63.023186 42.259857
4.172067 -63.763878 43.177143
16.508627 -68.136482 50.012142
15.032201 -68.12838 49.296638
-2.279285 -54.169495 44.255051
-1.50993 -56.536327 43.264156
-2.843528 -55.789146 42.267876
14.110575 -54.536942 62.097202
13.075321 -56.085518 60.495441
12.406111 -53.759129 61.815922
10.680036 -52.881096 61.336876
8.993317 -51.901966 60.715485
3.723953 -42.488808 61.451958
4.26261 -44.901299 60.695873
2.547905 -43.772907 59.421444
1.647028 -45.273315 57.306168
0.90385 -46.864883 55.109165
0.164634 -48.171822 52.973343
-0.550291 -45.646183 53.891907
-1.976454 -44.859509 52.281849
-3.301829 -43.831146 50.941986
-8.312304 -35.005802 49.293026
-7.518674 -37.232059 48.926334
-8.814516 -36.484165 47.358212
-9.269132 -37.94862 45.579201
-9.702264 -39.535034 43.884369
-11.009354 -38.622204 42.659611
17.394876 -47.732807 66.505257
17.860758 -50.235184 65.240959
18.283594 -52.65094 63.87455
16.677618 -51.822243 64.363167
15.398443 -53.265293 63.315422
9.293464 -61.419674 52.339397
10.12611 -63.479935 50.888546
8.551419 -62.700169 50.018517
7.75123 -63.836823 47.671803
12.067972 -44.955959 66.53109
10.685493 -46.332832 65.208481
10.184985 -44.042004 65.961716
8.358665 -42.969143 65.252151
6.556659 -41.971012 64.319305
1.451599 -38.939381 60.741089
-0.175736 -38.0494 59.287785
-13.182461 -30.182301 45.393478
-13.608582 -31.654308 43.703251
-14.53259 -29.322306 44.136986
-15.996977 -28.528891 42.800758
-17.372812 -27.671616 41.748249
-18.412785 -25.419588 41.988811
-18.763052 -27.009924 40.679867
-20.248966 -26.188465 39.719643
3.18239 -57.685677 48.557384
3.956151 -59.93346 47.234764
2.47939 -59.019939 46.189068
1.994005 -60.643177 43.838779
1.307463 -62.014061 41.552662
16.115211 -62.805408 56.189976
15.380139 -63.893032 54.7812
14.845807 -62.223171 56.192638
13.309369 -61.588451 55.857857
11.784833 -60.859032 55.394093
12.01999 -57.417652 58.75827
11.031136 -58.772213 56.772446
10.07387 -59.977947 54.697021
8.48388 -59.154308 53.855518
6.888089 -58.23254 52.933582
5.359908 -57.2393 52.008415
9.419018 -48.006496 63.530037
8.304234 -49.468136 61.788742
7.249779 -50.742352 59.950504
4.869884 -47.260258 59.878597
5.486351 -49.656712 58.884491
6.324593 -52.149757 57.898441
5.374015 -53.529408 55.601074
4.50279 -54.914963 53.184757
3.876505 -56.354721 50.897739
2.391811 -55.327087 49.8186
1.022139 -54.418518 48.699615
-0.368419 -53.430664 47.570625
-0.587072 -49.443096 50.750362
-1.19268 -50.926388 48.543446
-1.683976 -52.503578 46.462429
-3.001752 -51.821289 45.148075
-4.349702 -50.889572 44.018196
-5.596795 -50.160336 42.907856
-1.783721 -37.222965 57.701862
-4.126437 -33.829212 56.452816
-3.278007 -36.212097 56.260509
-2.647614 -38.659718 55.660984
-3.381091 -39.915966 53.706497
-4.088665 -41.331226 51.544388
-4.644349 -42.84853 49.495579
-6.70557 -39.624416 48.493446
-5.937184 -41.96339 48.03759
-5.256651 -44.388229 47.363216
-5.781308 -46.080559 45.354778
-6.248717 -47.802261 43.567024
-13.921065 -33.284317 42.215149
-14.414406 -34.651562 40.869289
18.643324 -54.967949 62.427479
14.734464 -65.157585 52.960621
14.129432 -66.584511 50.753635
13.439178 -67.919281 48.436275
11.020004 -65.436592 49.43721
11.862854 -67.322723 47.822891
4.778052 -62.343323 45.623634
5.631723 -64.57196 44.077896
16.239771 -64.75816 54.195245
16.655866 -65.237751 53.744991
16.848498 -64.654831 54.487775
16.848498 -64.654831 54.487775
17.294369 -64.344856 54.880046
16.878274 -63.865265 55.330301
-11.609347 -32.822066 45.729738
-11.410446 -32.107278 46.576718
-12.084283 -31.743136 45.833853
-6.629078 -35.207422 51.860823
-7.317667 -34.771682 51.089043
-6.266742 -36.335524 51.646586
-5.938185 -35.656894 52.65371
-6.629078 -35.207422 51.860823
-8.619933 -43.154944 43.202547
-8.008347 -43.592797 43.800097
-8.356968 -42.322916 44.073582
-9.243503 -42.693151 42.671452
-8.619933 -43.154944 43.202547
-17.203113 -30.453966 40.321458
-16.467495 -30.86674 40.837315
-17.041562 -29.672436 40.922487
20.182774 -49.946381 64.884716
19.342257 -49.616352 65.32407
20.277114 -51.230294 64.158205
20.949441 -50.346363 64.379652
20.182774 -49.946381 64.884716
9.101716 -67.244495 44.919792
8.350355 -66.913951 44.485599
3.20187 -64.196968 41.446321
2.441107 -63.760651 41.056713
16.038417 -67.415741 50.767527
16.723584 -67.379791 51.083061
16.253373 -66.65905 51.838445
-9.35754 -33.378135 48.836796
-10.072484 -32.874702 48.087728
-8.964019 -34.525969 48.599697
-8.705825 -33.857969 49.530124
-9.35754 -33.378135 48.836796
-12.637788 -36.776069 41.705566
-12.045009 -37.086331 42.263252
-12.436151 -35.961136 42.426338
-13.280352 -36.38687 41.204696
-12.637788 -36.776069 41.705566
6.74283 -64.304449 45.802811
7.453824 -64.63477 46.30382
7.040235 -63.506502 47.170794
10.896722 -43.296795 66.622631
11.126478 -44.498981 66.246403
11.838216 -43.753772 66.907318
8.094345 -41.701653 65.56358
9.024424 -42.227629 65.965874
8.760105 -40.960138 66.277302
1.169598 -37.739869 60.963972
2.049926 -38.286955 61.649065
0.35593 -37.294878 60.23732
0.637932 -38.49439 60.014437
1.169598 -37.739869 60.963972
-13.712914 -28.996855 45.538688
-12.990214 -29.403151 46.291752
-14.387978 -28.566858 44.910443
-13.857526 -29.752304 44.765232
-13.712914 -28.996855 45.538688
-16.492837 -27.359336 42.98864
-15.783841 -27.839126 43.565498
-16.2797 -26.669571 43.75338
-19.101484 -25.131903 41.419069
-18.936356 -24.394233 42.021313
-19.276618 -25.927072 40.764597
-18.587919 -26.214756 41.334339
-19.101484 -25.131903 41.419069
-20.019575 -25.516342 40.284485
-19.506009 -26.599195 40.199755
-19.276618 -25.927072 40.764597
11.838216 -43.753772 66.907318
12.835745 -44.191753 67.130139
1.306215 -60.230448 43.378483
1.555651 -59.436315 44.486773
0.867861 -59.023586 44.026476
0.962944 -60.91589 42.235424
1.650734 -61.328619 42.695721
1.306215 -60.230448 43.378483
-1.116194 -57.838909 42.594324
-1.797044 -57.352137 42.243774
-2.107744 -35.954706 57.946725
-1.30497 -36.433548 58.682816
-4.874061 -33.450699 55.639437
-4.479756 -32.67129 56.615782
-6.877139 -47.334192 43.042421
-6.592925 -46.525055 43.904938
-7.221347 -46.056986 43.380335
-6.584748 -48.533026 42.714592
-6.877139 -47.334192 43.042421
-15.045932 -34.326639 40.413059
-14.837345 -33.522885 41.039947
-15.46887 -33.197962 40.583717
-15.262126 -35.184399 39.797621
-14.6306 -35.509321 40.25385
-15.045932 -34.326639 40.413059
18.273986 -56.847063 61.180249
17.710726 -57.569748 60.716476
16.461761 -61.446667 57.483473
16.301315 -60.449347 58.302557
15.961747 -61.912185 56.947281
16.615226 -62.339889 56.726168
16.461761 -61.446667 57.483473
11.475807 -68.058929 46.431212
11.07219 -67.079605 47.323458
10.685143 -67.815811 45.931778
12.257779 -68.266266 46.90287
11.475807 -68.058929 46.431212
5.358433 -65.359203 42.769043
4.901895 -64.167919 43.62752
4.628605 -64.955162 42.318666
6.058652 -65.688118 43.218441
5.358433 -65.359203 42.769043
16.492839 -65.98209 52.80322
16.655866 -65.237751 53.744991
15.807672 -66.01804 52.487686
16.253373 -66.65905 51.838445
16.492839 -65.98209 52.80322
17.871755 -64.003327 55.260393
17.869 -63.0459 56.203264
17.871755 -64.003327 55.260393
17.294369 -64.344856 54.880046
-3.858064 -54.15583 42.326099
-4.243248 -52.949863 42.712463
-10.732372 -32.444738 47.370846
-11.410446 -32.107278 46.576718
-10.275622 -33.616171 47.189486
-10.072484 -32.874702 48.087728
-10.732372 -32.444738 47.370846
14.756673 -46.34951 66.804074
15.499333 -45.594513 67.296932
14.62933 -45.054519 67.336228
8.542033 -39.704128 66.57019
8.760105 -40.960138 66.277302
-16.81352 -25.484124 43.894632
-16.2797 -26.669571 43.75338
0.202354 -58.636322 43.512135
0.867861 -59.023586 44.026476
0.451789 -57.84219 44.620424
-5.573574 -34.974468 53.677488
-5.234156 -34.246165 54.656543
-5.211238 -36.10257 53.463251
-5.573574 -34.974468 53.677488
-5.938185 -35.656894 52.65371
-7.604222 -44.836337 43.585957
-7.341257 -44.004309 44.456991
-8.008347 -43.592797 43.800097
-7.221347 -46.056986 43.380335
-7.604222 -44.836337 43.585957
-15.944664 -32.021239 40.723446
-15.783113 -31.239708 41.324475
-16.467495 -30.86674 40.837315
-15.46887 -33.197962 40.583717
-15.944664 -32.021239 40.723446
21.669581 -50.70694 63.771147
20.949441 -50.346363 64.379652
21.781645 -51.927576 63.01198
21.669581 -50.70694 63.771147
21.248165 -52.805746 62.856521
21.781645 -51.927576 63.01198
20.679997 -53.674253 62.587589
21.248165 -52.805746 62.856521
20.475613 -52.498783 63.384208
20.076715 -54.504873 62.349428
20.679997 -53.674253 62.587589
17.100358 -58.214928 60.187578
17.710726 -57.569748 60.716476
16.87736 -57.143577 60.961141
16.53067 -58.834243 59.666386
17.100358 -58.214928 60.187578
15.992964 -59.468805 59.01942
16.53067 -58.834243 59.666386
15.729286 -58.423318 59.785278
15.499931 -60.038421 58.421449
16.301315 -60.449347 58.302557
15.992964 -59.468805 59.01942
9.919642 -67.583393 45.417788
9.4636 -66.497589 46.326028
9.101716 -67.244495 44.919792
10.685143 -67.815811 45.931778
9.919642 -67.583393 45.417788
3.902143 -64.567314 41.904965
3.471794 -63.393532 42.7185
3.20187 -64.196968 41.446321
4.628605 -64.955162 42.318666
3.902143 -64.567314 41.904965
17.261999 -68.019169 50.34057
16.723584 -67.379791 51.083061
16.983929 -68.837822 49.191177
17.261999 -68.019169 50.34057
16.238577 -68.887333 48.86336
16.713878 -69.588673 48.042395
16.983929 -68.837822 49.191177
15.500364 -68.883282 48.505607
16.238577 -68.887333 48.86336
15.770414 -68.132431 49.65439
14.68572 -68.814251 48.115749
15.500364 -68.883282 48.505607
-2.463843 -56.978546 41.745634
-1.797044 -57.352137 42.243774
-2.176729 -56.162737 42.766016
-3.467112 -55.449936 41.820875
-3.23448 -54.495041 42.7731
-3.858064 -54.15583 42.326099
-3.122927 -56.667238 41.302372
-3.467112 -55.449936 41.820875
-2.463843 -56.978546 41.745634
-3.122927 -56.667238 41.302372
-7.995001 -34.331558 50.308706
-8.705825 -33.857969 49.530124
-7.63497 -35.445926 50.073363
-7.317667 -34.771682 51.089043
-7.995001 -34.331558 50.308706
-9.982702 -40.317623 43.052805
-9.615847 -41.492638 42.848636
-9.335409 -40.710048 43.6802
-10.636247 -39.861208 42.440426
-9.982702 -40.317623 43.052805
-10.355809 -39.078619 43.27199
-11.232278 -39.453525 41.944823
-10.636247 -39.861208 42.440426
-11.628 -38.261734 42.101045
-11.426362 -37.446801 42.821817
-12.045009 -37.086331 42.263252
-11.232278 -39.453525 41.944823
-11.628 -38.261734 42.101045
-17.896067 -30.160942 39.86
-18.476825 -28.945713 39.94066
16.372928 -46.084922 67.182636
16.245586 -44.789932 67.71479
15.499333 -45.594513 67.296932
17.257029 -46.506574 67.052875
16.372928 -46.084922 67.182636
16.510776 -47.311155 66.635018
18.114599 -46.902033 66.821091
17.257029 -46.506574 67.052875
18.284472 -48.0676 66.245064
18.114599 -46.902033 66.821091
18.517413 -49.318788 65.612915
18.284472 -48.0676 66.245064
17.627817 -48.983995 65.873108
18.685603 -50.532747 64.952114
19.342257 -49.616352 65.32407
18.517413 -49.318788 65.612915
7.901046 -65.795704 45.381935
8.198452 -64.997757 46.749918
7.453824 -64.63477 46.30382
8.350355 -66.913951 44.485599
7.901046 -65.795704 45.381935
9.937584 -42.76406 66.320656
10.896722 -43.296795 66.622631
9.271825 -43.505573 65.606933
9.937584 -42.76406 66.320656
9.024424 -42.227629 65.965874
7.666867 -39.218968 66.164288
8.542033 -39.704128 66.57019
6.970748 -39.939587 65.414883
7.666867 -39.218968 66.164288
6.334065 -40.708011 64.637032
7.193342 -41.202587 65.097156
6.970748 -39.939587 65.414883
5.674343 -41.47484 63.769611
6.334065 -40.708011 64.637032
5.096369 -42.262064 62.899389
5.978685 -42.758236 63.449083
5.674343 -41.47484 63.769611
4.257991 -41.733738 62.335938
4.562332 -43.017134 62.01541
5.096369 -42.262064 62.899389
3.414544 -41.21883 61.744889
4.257991 -41.733738 62.335938
2.537698 -40.692118 61.054561
2.847106 -41.962096 60.761631
3.414544 -41.21883 61.744889
2.278367 -39.444117 61.389454
2.049926 -38.286955 61.649065
1.710929 -40.187382 60.406197
2.537698 -40.692118 61.054561
2.278367 -39.444117 61.389454
-12.533922 -30.605325 46.037155
-12.990214 -29.403151 46.291752
-12.732823 -31.320113 45.190176
-12.084283 -31.743136 45.833853
-12.533922 -30.605325 46.037155
-15.051647 -28.235833 44.233612
-14.387978 -28.566858 44.910443
-15.264784 -28.925598 43.468872
-15.051647 -28.235833 44.233612
-15.783841 -27.839126 43.565498
-17.513016 -25.129064 43.237314
-16.81352 -25.484124 43.894632
-18.22506 -24.743967 42.643459
-18.936356 -24.394233 42.021313
-17.700741 -25.804685 42.582666
-17.513016 -25.129064 43.237314
-18.22506 -24.743967 42.643459
-18.969761 -27.820844 40.077278
-18.476825 -28.945713 39.94066
-18.270116 -28.134794 40.543249
-19.712718 -27.410114 39.597166
-18.969761 -27.820844 40.077278
-19.506009 -26.599195 40.199755
-20.463631 -27.026792 39.179541
-19.712718 -27.410114 39.597166
-20.800657 -25.101792 39.748108
-20.019575 -25.516342 40.284485
-21.010563 -25.923949 39.212032
-20.800657 -25.101792 39.748108
-21.562255 -24.837276 39.240498
-20.463631 -27.026792 39.179541
-21.010563 -25.923949 39.212032
13.745094 -44.618532 67.286278
14.62933 -45.054519 67.336228
12.977321 -45.382738 66.68723
13.745094 -44.618532 67.286278
12.835745 -44.191753 67.130139
1.709077 -63.256088 40.703115
2.441107 -63.760651 41.056713
2.039492 -62.518624 41.906259
-0.468088 -58.298209 43.015287
-0.861824 -56.995627 43.685119
-1.116194 -57.838909 42.594324
-0.052017 -59.479605 42.421339
0.202354 -58.636322 43.512135
-0.468088 -58.298209 43.015287
0.62517 -61.68531 41.090134
0.962944 -60.91589 42.235424
0.280651 -60.587139 41.772896
1.022844 -62.857872 40.371347
0.62517 -61.68531 41.090134
1.424458 -64.099899 39.521801
1.709077 -63.256088 40.703115
1.022844 -62.857872 40.371347
-4.605383 -51.794182 43.0824
-4.243248 -52.949863 42.712463
-3.987567 -52.045254 43.64826
-5.228929 -51.429564 42.52723
-4.605383 -51.794182 43.0824
-4.973249 -50.524954 43.463026
-5.88117 -50.939352 42.105652
-5.228929 -51.429564 42.52723
-0.500978 -36.846766 59.475777
0.35593 -37.294878 60.23732
-0.979729 -37.636183 58.494823
-0.500978 -36.846766 59.475777
-1.30497 -36.433548 58.682816
-3.609409 -33.144333 57.45239
-3.962728 -31.986412 57.615357
-4.479756 -32.67129 56.615782
-3.279103 -34.257829 57.322203
-3.609409 -33.144333 57.45239
-4.486532 -34.624678 55.469923
-4.874061 -33.450699 55.639437
-5.234156 -34.246165 54.656543
-2.854888 -35.449272 57.226049
-3.279103 -34.257829 57.322203
-3.702222 -35.020654 56.356662
-2.530864 -36.717531 56.981185
-2.107744 -35.954706 57.946725
-2.854888 -35.449272 57.226049
-6.258788 -49.712063 42.385008
-5.922756 -48.981299 43.23744
-6.584748 -48.533026 42.714592
-5.88117 -50.939352 42.105652
-6.258788 -49.712063 42.385008
-9.243503 -42.693151 42.671452
-9.615847 -41.492638 42.848636
-13.97309 -35.887213 40.705015
-13.280352 -36.38687 41.204696
-13.721668 -35.151218 41.368971
-13.97309 -35.887213 40.705015
-14.6306 -35.509321 40.25385
-17.203113 -30.453966 40.321458
-17.896067 -30.160942 39.86
19.444654 -55.305203 62.005529
20.076715 -54.504873 62.349428
19.275384 -54.16762 62.771377
18.851784 -56.081839 61.648968
18.065526 -55.733173 61.958759
18.273986 -56.847063 61.180249
19.444654 -55.305203 62.005529
18.851784 -56.081839 61.648968
17.219692 -62.71483 56.492466
17.869 -63.0459 56.203264
16.719677 -63.180349 55.956274
17.219692 -62.71483 56.492466
16.615226 -62.339889 56.726168
13.889208 -68.709701 47.685568
14.68572 -68.814251 48.115749
14.235689 -68.023831 48.866456
13.045941 -68.564544 47.209562
12.651016 -67.621002 48.129583
12.257779 -68.266266 46.90287
13.889208 -68.709701 47.685568
13.045941 -68.564544 47.209562
6.394071 -65.002338 44.506867
6.74283 -64.304449 45.802811
5.980481 -63.874071 45.373841
6.394071 -65.002338 44.506867
6.058652 -65.688118 43.218441
3 0 231 233
3 231 56 232
3 231 232 233
3 0 234 236
3 236 235 57
3 234 235 236
3 1 60 58
3 3 63 61
3 3 65 63
3 4 237 239
3 237 66 238
3 237 238 239
3 4 68 66
3 4 70 68
3 1 73 71
3 1 58 73
3 2 77 75
3 7 80 78
3 8 83 81
3 10 86 84
3 10 88 86
3 5 91 89
3 11 94 92
3 11 96 94
3 11 98 96
3 12 101 99
3 12 103 101
3 13 240 241
3 13 242 244
3 242 105 243
3 242 243 244
3 13 107 105
3 14 110 108
3 14 245 247
3 247 246 110
3 245 246 247
3 14 248 249
3 6 250 252
3 252 251 112
3 250 251 252
3 15 253 254
3 15 255 257
3 255 114 256
3 255 256 257
3 15 115 114
3 8 118 116
3 8 81 118
3 9 121 119
3 259 258 122
3 261 260 124
3 16 262 264
3 262 126 263
3 262 263 264
3 16 127 126
3 17 130 128
3 18 133 131
3 20 134 59
3 20 135 134
3 21 138 136
3 23 139 62
3 23 140 139
3 23 142 140
3 25 143 64
3 25 144 143
3 26 265 266
3 26 267 269
3 267 145 268
3 267 268 269
3 26 147 145
3 28 148 67
3 28 149 148
3 28 150 149
3 29 270 272
3 272 271 69
3 270 271 272
3 29 273 274
3 30 151 72
3 30 152 151
3 30 154 152
3 18 155 74
3 18 131 155
3 32 158 156
3 34 159 76
3 34 275 277
3 277 276 159
3 275 276 277
3 278 162 279
3 280 279 160
3 278 279 280
3 36 281 283
3 281 163 282
3 281 282 283
3 36 164 163
3 284 165 285
3 286 166 287
3 288 287 165
3 286 287 288
3 289 167 290
3 291 169 292
3 293 292 167
3 291 292 293
3 38 294 296
3 294 170 295
3 294 295 296
3 38 171 170
3 297 172 298
3 299 173 300
3 301 300 172
3 299 300 301
3 302 174 303
3 304 303 173
3 302 303 304
3 305 160 306
3 39 177 175
3 307 178 308
3 309 308 79
3 307 308 309
3 310 179 311
3 312 311 178
3 310 311 312
3 314 313 129
3 41 182 180
3 43 183 82
3 43 184 183
3 19 185 132
3 44 186 85
3 44 187 186
3 44 188 187
3 45 189 87
3 45 190 189
3 35 191 161
3 46 192 90
3 46 193 192
3 22 194 137
3 47 195 93
3 47 196 195
3 47 197 196
3 48 198 95
3 48 199 198
3 48 200 199
3 49 201 97
3 49 202 201
3 24 203 141
3 50 204 100
3 50 205 204
3 50 206 205
3 51 207 102
3 51 208 207
3 315 209 316
3 317 210 318
3 52 211 104
3 52 212 211
3 52 213 212
3 53 214 106
3 53 215 214
3 27 216 146
3 54 217 109
3 54 218 217
3 54 219 218
3 319 220 320
3 321 320 111
3 319 320 321
3 323 322 220
3 37 221 168
3 324 222 325
3 326 325 113
3 324 325 326
3 329 328 222
3 327 328 329
3 31 223 153
3 331 330 117
3 41 332 333
3 41 334 336
3 334 180 335
3 334 335 336
3 42 224 181
3 55 225 120
3 55 226 225
3 33 227 157
3 337 228 338
3 339 338 123
3 337 338 339
3 341 340 228
3 40 229 176
3 342 230 343
3 344 343 125
3 342 343 344
3 346 345 230
3 56 347 348
3 56 349 351
3 349 16 350
3 349 350 351
3 57 352 353
3 355 354 57
3 357 356 17
3 58 59 18
3 60 59 58
3 60 20 59
3 61 62 21
3 63 62 61
3 63 23 62
3 63 64 23
3 65 64 63
3 65 25 64
3 66 358 359
3 66 360 362
3 360 26 361
3 360 361 362
3 66 67 26
3 68 67 66
3 68 28 67
3 68 69 28
3 70 69 68
3 70 29 69
3 71 363 365
3 363 72 364
3 363 364 365
3 73 72 71
3 73 30 72
3 73 74 30
3 58 74 73
3 58 18 74
3 75 76 32
3 77 76 75
3 77 34 76
3 366 36 367
3 368 38 369
3 78 79 39
3 80 79 78
3 80 370 372
3 372 371 79
3 370 371 372
3 81 82 41
3 83 82 81
3 83 43 82
3 84 85 19
3 86 85 84
3 86 44 85
3 86 87 44
3 88 87 86
3 88 45 87
3 89 90 35
3 91 90 89
3 91 46 90
3 92 93 22
3 94 93 92
3 94 47 93
3 94 95 47
3 96 95 94
3 96 48 95
3 96 97 48
3 98 97 96
3 98 49 97
3 99 100 24
3 101 100 99
3 101 50 100
3 101 102 50
3 103 102 101
3 103 51 102
3 373 104 374
3 105 375 377
3 375 104 376
3 375 376 377
3 105 52 104
3 105 106 52
3 107 106 105
3 107 53 106
3 108 109 27
3 110 109 108
3 110 54 109
3 110 111 54
3 378 111 379
3 380 379 110
3 378 379 380
3 382 381 111
3 112 113 37
3 383 113 384
3 385 384 112
3 383 384 385
3 387 386 113
3 114 388 389
3 114 390 391
3 114 392 393
3 115 394 396
3 396 395 114
3 394 395 396
3 115 397 398
3 116 117 31
3 118 117 116
3 118 399 401
3 401 400 117
3 399 400 401
3 118 402 403
3 81 404 406
3 406 405 118
3 404 405 406
3 81 407 409
3 407 41 408
3 407 408 409
3 119 120 42
3 121 120 119
3 121 55 120
3 122 123 33
3 410 123 411
3 412 411 122
3 410 411 412
3 414 413 123
3 124 125 40
3 415 125 416
3 417 416 124
3 415 416 417
3 419 418 125
3 126 420 421
3 126 422 423
3 126 424 426
3 424 425 426
3 127 427 429
3 429 428 126
3 427 428 429
3 127 430 431
3 128 129 7
3 130 129 128
3 130 432 434
3 434 433 129
3 432 433 434
3 435 130 436
3 437 436 17
3 435 436 437
3 438 130 439
3 441 440 130
3 131 132 8
3 133 132 131
3 133 19 132
3 59 133 18
3 134 133 59
3 134 19 133
3 134 84 19
3 135 84 134
3 135 10 84
3 136 137 5
3 138 137 136
3 138 22 137
3 62 138 21
3 139 138 62
3 139 22 138
3 139 92 22
3 140 92 139
3 140 11 92
3 140 141 11
3 142 141 140
3 142 24 141
3 64 142 23
3 143 142 64
3 143 24 142
3 143 99 24
3 144 99 143
3 144 12 99
3 145 442 443
3 145 444 446
3 444 13 445
3 444 445 446
3 145 146 13
3 147 146 145
3 147 27 146
3 67 147 26
3 148 147 67
3 148 27 147
3 148 108 27
3 149 108 148
3 149 14 108
3 149 447 449
3 449 448 14
3 447 448 449
3 150 450 452
3 452 451 149
3 450 451 452
3 150 453 454
3 69 150 28
3 455 150 456
3 457 456 69
3 455 456 457
3 459 458 150
3 461 460 6
3 72 462 464
3 462 463 464
3 151 465 467
3 467 466 72
3 465 466 467
3 151 468 469
3 151 470 471
3 152 472 474
3 474 473 151
3 472 473 474
3 152 475 477
3 475 15 476
3 475 476 477
3 152 153 15
3 154 153 152
3 154 31 153
3 74 154 30
3 155 154 74
3 155 31 154
3 155 116 31
3 131 116 155
3 131 8 116
3 156 157 9
3 158 157 156
3 158 33 157
3 76 158 32
3 159 158 76
3 159 33 158
3 159 122 33
3 478 122 479
3 480 479 159
3 478 479 480
3 482 481 122
3 160 161 1
3 162 161 160
3 162 35 161
3 483 162 484
3 163 485 487
3 485 162 486
3 485 486 487
3 163 35 162
3 163 89 35
3 164 89 163
3 164 5 89
3 488 36 489
3 490 36 491
3 492 164 493
3 494 493 36
3 492 493 494
3 495 164 496
3 497 5 498
3 499 498 164
3 497 498 499
3 500 136 501
3 502 501 5
3 500 501 502
3 503 136 504
3 505 21 506
3 507 506 136
3 505 506 507
3 165 508 509
3 165 510 512
3 510 21 511
3 510 511 512
3 165 61 21
3 166 61 165
3 166 3 61
3 167 513 514
3 167 515 517
3 515 4 516
3 515 516 517
3 167 168 4
3 169 168 167
3 169 37 168
3 518 169 519
3 170 520 522
3 520 169 521
3 520 521 522
3 170 37 169
3 170 112 37
3 171 112 170
3 171 6 112
3 523 38 524
3 172 525 526
3 172 527 529
3 527 38 528
3 527 528 529
3 172 171 38
3 173 171 172
3 173 6 171
3 173 530 532
3 532 531 6
3 530 531 532
3 174 533 535
3 535 534 173
3 533 534 535
3 174 536 537
3 538 174 539
3 540 174 541
3 540 541 542
3 544 543 174
3 545 71 546
3 160 547 549
3 547 71 548
3 547 548 549
3 160 1 71
3 175 176 2
3 177 176 175
3 177 40 176
3 79 177 39
3 178 177 79
3 178 40 177
3 178 124 40
3 179 124 178
3 179 550 552
3 552 551 124
3 550 551 552
3 129 80 7
3 553 80 554
3 555 554 129
3 553 554 555
3 558 557 80
3 556 557 558
3 559 179 560
3 559 560 561
3 562 179 563
3 566 565 179
3 564 565 566
3 180 181 0
3 182 181 180
3 182 42 181
3 82 182 41
3 183 182 82
3 183 42 182
3 183 119 42
3 184 119 183
3 184 9 119
3 132 83 8
3 185 83 132
3 185 43 83
3 85 185 19
3 186 185 85
3 186 43 185
3 186 184 43
3 187 184 186
3 187 9 184
3 187 156 9
3 188 156 187
3 188 32 156
3 87 188 44
3 189 188 87
3 189 32 188
3 189 75 32
3 190 75 189
3 190 2 75
3 161 60 1
3 191 60 161
3 191 20 60
3 90 191 35
3 192 191 90
3 192 20 191
3 192 135 20
3 193 135 192
3 193 10 135
3 137 91 5
3 194 91 137
3 194 46 91
3 93 194 22
3 195 194 93
3 195 46 194
3 195 193 46
3 196 193 195
3 196 10 193
3 196 88 10
3 197 88 196
3 197 45 88
3 95 197 47
3 198 197 95
3 198 45 197
3 198 190 45
3 199 190 198
3 199 2 190
3 199 175 2
3 200 175 199
3 200 39 175
3 97 200 48
3 201 200 97
3 201 39 200
3 201 78 39
3 202 78 201
3 202 7 78
3 141 98 11
3 203 98 141
3 203 49 98
3 100 203 24
3 204 203 100
3 204 49 203
3 204 202 49
3 205 202 204
3 205 7 202
3 205 128 7
3 206 128 205
3 206 17 128
3 102 206 50
3 207 206 102
3 207 17 206
3 207 567 569
3 569 568 17
3 567 568 569
3 208 570 572
3 572 571 207
3 570 571 572
3 208 573 574
3 575 166 576
3 209 577 579
3 577 166 578
3 577 578 579
3 209 3 166
3 210 580 582
3 580 581 582
3 210 583 584
3 104 585 587
3 585 210 586
3 585 586 587
3 211 210 104
3 211 588 590
3 590 589 210
3 588 589 590
3 211 591 593
3 591 209 592
3 591 592 593
3 212 209 211
3 212 3 209
3 212 65 3
3 213 65 212
3 213 25 65
3 106 213 52
3 214 213 106
3 214 25 213
3 214 144 25
3 215 144 214
3 215 12 144
3 146 107 13
3 216 107 146
3 216 53 107
3 109 216 27
3 217 216 109
3 217 53 216
3 217 215 53
3 218 215 217
3 218 12 215
3 218 103 12
3 219 103 218
3 219 51 103
3 111 219 54
3 220 219 111
3 220 51 219
3 220 208 51
3 594 208 595
3 596 595 220
3 594 595 596
3 598 597 208
3 600 599 14
3 168 70 4
3 221 70 168
3 221 29 70
3 113 221 37
3 222 221 113
3 222 29 221
3 222 601 603
3 603 602 29
3 601 602 603
3 605 604 222
3 607 606 6
3 153 115 15
3 223 115 153
3 223 608 610
3 610 609 115
3 608 609 610
3 117 223 31
3 611 223 612
3 613 612 117
3 611 612 613
3 615 614 223
3 616 57 617
3 180 618 620
3 618 57 619
3 618 619 620
3 180 0 57
3 181 56 0
3 224 56 181
3 224 16 56
3 120 224 42
3 225 224 120
3 225 16 224
3 225 127 16
3 226 127 225
3 226 621 623
3 623 622 127
3 621 622 623
3 157 121 9
3 227 121 157
3 227 55 121
3 123 227 33
3 228 227 123
3 228 55 227
3 228 226 55
3 624 226 625
3 626 625 228
3 624 625 626
3 628 627 226
3 176 77 2
3 229 77 176
3 229 34 77
3 125 229 40
3 230 229 125
3 230 34 229
3 230 629 631
3 631 630 34
3 629 630 631
3 633 632 230
