ply
format ascii 1.0
element vertex 407
property float x
property float y
property float z
element face 441
property list uchar int vertex_index
end_header
-28.602507 -65.920486 36.229939
-27.10483 -67.478142 16.068674
-19.871721 -72.490143 43.486786
-28.787457 -61.92807 45.882385
-25.805563 -75.150398 30.607677
-26.160282 -76.479179 20.275085
-28.03867 -67.500488 26.213343
-24.778221 -64.926498 50.720867
-25.530487 -71.182884 40.819328
-27.254704 -70.736298 33.502243
-27.186232 -71.533005 28.54269
-28.358358 -66.904778 31.189766
-28.794918 -64.116425 41.209087
-27.365702 -66.726562 43.638107
-27.450619 -68.836082 38.652119
-25.669622 -73.511909 35.689827
-26.733471 -72.109802 18.019768
-26.309904 -71.871307 12.713911
-29.717545 -59.292084 43.195126
-26.442709 -67.008507 10.765595
-20.553358 -76.095184 38.432064
-26.005247 -76.137749 25.402536
-27.011244 -72.024323 23.33754
-27.640337 -67.697929 21.258211
-21.784885 -65.093491 52.151749
-22.548067 -68.917809 47.400333
-27.156559 -63.751041 48.706894
-25.262922 -68.29998 45.836895
-22.883074 -72.427246 42.484241
-23.352295 -75.392448 37.391472
-23.961836 -77.504768 32.460396
-27.952379 -68.373123 35.005302
-27.867884 -68.901192 32.527355
-28.474863 -66.551651 33.750736
-28.709627 -65.111176 38.793655
-28.15036 -66.5504 40.027294
-28.10721 -67.402405 37.564877
-27.380623 -69.78875 36.160297
-26.940302 -69.719925 17.068439
-26.535654 -72.099159 15.409951
-26.642878 -69.809082 14.371812
-19.401293 -70.689301 45.778355
-18.133938 -72.344025 43.540707
-30.217972 -55.188141 42.665703
-30.037193 -56.653946 44.107307
-29.993259 -57.745651 41.890869
-29.687147 -60.161186 40.777538
-20.803604 -77.702332 35.964352
-25.164316 -77.242729 28.814245
-25.377007 -77.762466 26.289383
-25.961351 -75.578758 27.928917
-27.670776 -69.536629 27.495474
-27.127031 -71.757034 26.03393
-27.532621 -69.739754 24.867619
-27.337755 -69.985413 22.210352
-27.839197 -67.747047 23.763311
-24.567312 -62.997822 53.08112
-23.091639 -63.20327 53.75592
-23.404781 -65.031052 51.598312
-22.101427 -67.112885 49.768055
-23.633835 -67.010666 49.138748
-28.776846 -60.339012 48.348656
-27.970818 -61.348274 49.785313
-28.066473 -62.87923 47.437378
-26.537905 -68.934959 42.28474
-26.443089 -67.481247 44.938541
-25.48942 -69.767761 43.283867
-24.192715 -70.396027 44.19281
-24.291119 -71.900208 41.812126
-23.191874 -73.878952 40.033314
-24.493496 -73.293114 39.18861
-25.713755 -74.439308 33.170269
-24.766788 -75.597748 34.140316
-24.973513 -76.488029 31.461447
-24.218695 -78.498596 29.833664
-25.707813 -78.495346 21.220081
-26.534666 -72.959213 32.146915
-26.556456 -73.493111 29.477661
-27.213539 -71.239037 31.006371
-27.80196 -69.164452 29.982622
-28.209944 -67.223579 28.685516
-25.841846 -62.853233 51.9678
-28.821056 -63.13007 43.41647
-28.136206 -64.297234 44.93417
-28.156054 -65.537857 42.47316
-27.416162 -67.920746 41.093758
-26.552547 -70.223785 39.706352
-25.620424 -72.398727 38.279945
-26.570711 -71.24482 37.243465
-26.553862 -72.147499 34.811256
-26.4706 -74.491005 19.142654
-26.138523 -76.77713 17.61322
-26.372902 -74.545952 16.516396
-26.256893 -74.242142 13.830876
-18.69577 -66.618393 50.509529
-29.163788 -63.400738 37.445541
-29.046408 -63.994637 34.975864
-29.307812 -59.367317 46.984295
-29.736725 -58.10981 45.527504
-29.330214 -60.617458 44.633774
-29.326223 -61.637291 42.292782
-29.251083 -62.645981 39.910995
-26.78689 -67.312317 13.467674
-20.115114 -74.396591 40.921841
-18.581909 -74.215431 41.189804
-18.82251 -76.142403 38.608135
-25.547924 -78.269791 23.629385
-26.113455 -76.304993 22.822184
-26.572725 -73.854897 26.939716
-26.562105 -74.144814 24.441723
-26.547974 -74.27076 21.709572
-26.874857 -72.177559 20.597673
-27.165051 -69.917183 19.763887
-27.386251 -67.665489 18.70187
-28.877802 -64.615341 32.615101
-28.756262 -64.766357 30.11334
-28.547903 -65.205307 27.664165
-28.362129 -65.268654 25.071623
-28.150269 -65.235474 22.545858
-27.863617 -65.430779 20.047216
-27.609507 -65.189278 17.596529
-21.419052 -63.193371 54.246979
-20.135925 -64.838882 52.603619
-20.473244 -66.877083 50.339535
-20.800903 -68.962494 47.852615
-21.151836 -70.73114 45.584869
-26.976286 -62.121475 51.094059
-26.101 -64.454834 49.716686
-27.282763 -65.26255 46.273514
-26.320345 -66.004326 47.342014
-25.065826 -66.659531 48.287601
-23.944139 -68.828072 46.601543
-22.756718 -70.644844 45.044254
-21.45846 -72.572342 43.068378
-21.713186 -74.34481 40.461906
-22.043541 -75.89325 37.946022
-22.264828 -77.383438 35.387093
-24.613525 -74.575928 36.6008
-23.608389 -76.581779 34.919628
-22.70363 -78.513542 32.965874
-23.130354 -79.599373 30.403156
-26.366873 -69.476738 11.776113
-30.088224 -56.834173 41.205597
-30.105615 -56.466896 42.278286
-30.200581 -55.555418 41.593014
-29.972665 -58.065954 40.72488
-30.088224 -56.834173 41.205597
-20.304532 -78.560802 34.886311
-21.007055 -78.437145 34.713807
-25.988426 -77.618675 19.430132
-25.762192 -78.626758 19.902631
-25.934047 -77.487262 20.747583
-26.332772 -61.627077 52.62162
-25.713805 -61.889103 53.152132
-26.207468 -72.987297 12.030054
-26.180962 -74.172714 12.588536
-26.283399 -73.056725 13.272393
-18.020679 -67.486942 49.346991
-18.917544 -67.644936 49.359312
-29.334534 -62.459278 36.796602
-29.383147 -62.183728 37.930709
-29.508424 -58.121967 47.359019
-29.283493 -58.654871 48.117832
-29.426795 -61.806349 39.163437
-29.469115 -61.403583 40.344267
-29.644827 -60.563952 39.596708
-29.383147 -62.183728 37.930709
-29.207436 -63.023359 38.678268
-29.426795 -61.806349 39.163437
-29.108382 -63.405367 33.143656
-28.962105 -64.304989 33.795483
-29.192685 -63.095015 34.324038
-28.895269 -63.757362 29.491416
-28.970917 -63.671175 30.68521
-28.791089 -63.976837 28.266829
-28.652082 -64.985832 28.888753
-28.895269 -63.757362 29.491416
-28.492822 -64.145332 24.496645
-28.611184 -64.046524 25.765864
-28.386893 -64.128743 23.233762
-28.256199 -65.252064 23.80874
-28.492822 -64.145332 24.496645
-28.002417 -64.142735 19.565856
-28.123946 -64.219927 20.749001
-27.875363 -64.021985 18.340513
-27.736562 -65.310029 18.821872
-28.002417 -64.142735 19.565856
-27.730683 -63.922785 17.076454
-27.875363 -64.021985 18.340513
-23.873832 -79.553451 28.807527
-24.367649 -78.923279 28.483053
-26.022451 -77.815677 16.675738
-26.136311 -76.667244 16.270612
-17.661493 -74.03392 41.217687
-17.833642 -75.002415 40.010261
-18.563133 -70.550827 45.810181
-19.270305 -69.680389 46.993725
-17.929455 -71.378189 44.691357
-18.563133 -70.550827 45.810181
-18.767615 -71.516663 44.659531
-17.268547 -72.070358 43.623833
-17.929455 -71.378189 44.691357
-30.127582 -55.921043 43.386505
-30.131068 -55.443147 44.507126
-30.221457 -54.710245 43.786324
-29.819609 -59.273722 40.168215
-29.840203 -58.953418 41.334204
-29.972665 -58.065954 40.72488
-29.644827 -60.563952 39.596708
-29.819609 -59.273722 40.168215
-20.028168 -77.74709 36.125648
-19.903045 -76.943516 37.359504
-20.678481 -76.898758 37.198208
-20.028168 -77.74709 36.125648
-20.304532 -78.560802 34.886311
-25.270661 -77.502598 27.551814
-24.946804 -78.555214 26.710912
-24.840459 -78.295345 27.973343
-23.829476 -63.100546 53.41852
-23.634206 -62.133372 54.56315
-24.372042 -62.030648 54.22575
-28.373832 -60.843643 49.066985
-28.308764 -60.10079 50.258633
-28.711778 -59.596159 49.540304
-24.840459 -78.295345 27.973343
-24.367649 -78.923279 28.483053
-24.691505 -77.870663 29.323954
-25.520891 -79.612965 20.382392
-25.388354 -79.474514 21.678457
-25.520891 -79.612965 20.382392
-25.762192 -78.626758 19.902631
-26.088537 -68.090542 8.788612
-26.252237 -68.199128 9.995912
-26.279008 -66.899922 9.558295
-30.273951 -54.004975 43.085747
-30.221457 -54.710245 43.786324
-30.267402 -54.360582 42.002811
-30.273951 -54.004975 43.085747
-30.323381 -53.177416 42.422855
-30.200581 -55.555418 41.593014
-30.267402 -54.360582 42.002811
-25.076538 -61.961398 53.708792
-24.372042 -62.030648 54.22575
-25.204579 -62.925528 52.52446
-25.076538 -61.961398 53.708792
-25.713805 -61.889103 53.152132
-26.253501 -75.551655 15.7222
-26.136311 -76.667244 16.270612
-26.255713 -75.661541 17.064808
-26.195497 -75.39975 14.379441
-26.253501 -75.551655 15.7222
-26.314898 -74.394047 15.173636
-26.166012 -75.360897 13.032791
-26.195497 -75.39975 14.379441
-26.166012 -75.360897 13.032791
-26.180962 -74.172714 12.588536
-17.816935 -66.34938 50.572647
-18.51453 -65.604732 51.579361
-17.816935 -66.34938 50.572647
-18.020679 -67.486942 49.346991
-29.275844 -62.756227 35.561763
-29.105098 -63.697688 36.210702
-29.334534 -62.459278 36.796602
-29.192685 -63.095015 34.324038
-29.275844 -62.756227 35.561763
-29.01801 -59.140718 48.800012
-28.711778 -59.596159 49.540304
-29.042329 -59.853164 47.666476
-29.01801 -59.140718 48.800012
-29.283493 -58.654871 48.117832
-30.035739 -56.10811 45.179823
-30.131068 -55.443147 44.507126
-29.885505 -56.836043 45.889921
-30.035739 -56.10811 45.179823
-29.886959 -57.381878 44.817405
-29.722881 -57.493214 46.630623
-29.885505 -56.836043 45.889921
-29.522268 -58.738563 46.255899
-29.508424 -58.121967 47.359019
-29.722881 -57.493214 46.630623
-27.043816 -66.182804 14.291656
-26.94586 -67.395229 14.768174
-27.202787 -66.265716 15.592156
-26.852404 -66.111919 12.908759
-27.043816 -66.182804 14.291656
-26.680313 -65.960014 11.557719
-26.6148 -67.160412 12.116634
-26.852404 -66.111919 12.908759
-26.508607 -65.769321 10.287533
-26.680313 -65.960014 11.557719
-26.279008 -66.899922 9.558295
-26.508607 -65.769321 10.287533
-17.953943 -75.965901 38.719427
-17.833642 -75.002415 40.010261
-18.70221 -75.178917 39.898969
-19.037621 -76.967125 37.44754
-19.687934 -76.118794 38.5201
-19.903045 -76.943516 37.359504
-18.175065 -76.938641 37.460327
-19.037621 -76.967125 37.44754
-17.953943 -75.965901 38.719427
-18.175065 -76.938641 37.460327
-25.101654 -78.860962 25.414949
-24.946804 -78.555214 26.710912
-25.187113 -79.114624 24.08495
-25.101654 -78.860962 25.414949
-25.462466 -78.016129 24.959384
-25.308409 -79.361737 22.883109
-25.187113 -79.114624 24.08495
-25.627868 -78.382568 22.424733
-25.388354 -79.474514 21.678457
-25.308409 -79.361737 22.883109
-29.031687 -63.595667 31.93609
-29.108382 -63.405367 33.143656
-28.817032 -64.690849 31.364221
-29.031687 -63.595667 31.93609
-28.970917 -63.671175 30.68521
-28.704071 -64.01485 27.062136
-28.791089 -63.976837 28.266829
-28.455016 -65.236981 26.367894
-28.704071 -64.01485 27.062136
-28.611184 -64.046524 25.765864
-28.267271 -64.122275 21.998321
-28.386893 -64.128743 23.233762
-28.006943 -65.333126 21.296537
-28.267271 -64.122275 21.998321
-28.123946 -64.219927 20.749001
-27.455125 -65.121285 16.356083
-27.202787 -66.265716 15.592156
-27.357169 -66.33371 16.832602
-27.455125 -65.121285 16.356083
-27.730683 -63.922785 17.076454
-22.85528 -62.247221 54.817644
-23.634206 -62.133372 54.56315
-22.018987 -62.242272 55.063174
-22.85528 -62.247221 54.817644
-22.255346 -63.198321 54.00145
-21.168869 -62.103745 55.359814
-22.018987 -62.242272 55.063174
-20.522773 -63.06044 54.410727
-21.168869 -62.103745 55.359814
-19.88121 -63.883195 53.589047
-20.522773 -63.06044 54.410727
-20.777489 -64.016126 53.425299
-19.234608 -64.714977 52.626406
-18.979892 -63.75929 53.611834
-19.88121 -63.883195 53.589047
-19.415847 -65.728637 51.556574
-18.51453 -65.604732 51.579361
-19.234608 -64.714977 52.626406
-19.80628 -67.774281 49.274315
-18.917544 -67.644936 49.359312
-19.584507 -66.747738 50.424532
-19.97011 -68.816986 48.030855
-19.80628 -67.774281 49.274315
-20.637073 -67.919789 49.096075
-20.101098 -69.825897 46.815485
-19.270305 -69.680389 46.993725
-19.97011 -68.816986 48.030855
-27.888711 -60.558226 50.926426
-28.308764 -60.10079 50.258633
-27.391445 -60.944826 51.580799
-27.888711 -60.558226 50.926426
-27.473552 -61.734875 50.439686
-26.899992 -61.261198 52.18475
-27.391445 -60.944826 51.580799
-26.409066 -62.487354 51.530929
-26.332772 -61.627077 52.62162
-26.899992 -61.261198 52.18475
-21.737667 -78.277698 34.425177
-21.007055 -78.437145 34.713807
-21.534216 -77.542885 35.675722
-21.957068 -78.84275 33.214568
-21.737667 -78.277698 34.425177
-22.484229 -77.94849 34.176484
-22.215676 -79.493736 31.950429
-21.957068 -78.84275 33.214568
-22.429038 -80.036652 30.66907
-22.215676 -79.493736 31.950429
-22.916992 -79.056457 31.684515
-22.699061 -80.632194 29.370196
-22.429038 -80.036652 30.66907
-23.329662 -80.10384 29.092272
-23.674525 -79.048985 30.11841
-23.873832 -79.553451 28.807527
-22.699061 -80.632194 29.370196
-23.329662 -80.10384 29.092272
-25.977546 -77.767651 18.0992
-25.988426 -77.618675 19.430132
-26.149403 -76.628154 18.944153
-25.977546 -77.767651 18.0992
-26.022451 -77.815677 16.675738
-26.214319 -69.433243 10.501171
-26.404791 -68.242622 11.270854
-26.252237 -68.199128 9.995912
-26.219843 -70.65892 11.004405
-26.214319 -69.433243 10.501171
-26.191358 -71.856205 11.473304
-26.338389 -70.674023 12.245012
-26.219843 -70.65892 11.004405
-26.207468 -72.987297 12.030054
-26.191358 -71.856205 11.473304
-17.437508 -73.098217 42.393139
-18.357923 -73.279728 42.365256
-17.661493 -74.03392 41.217687
-17.268547 -72.070358 43.623833
-17.437508 -73.098217 42.393139
3 0 33 31
3 0 36 34
3 0 31 36
3 1 40 38
3 2 42 41
3 142 45 143
3 144 143 43
3 142 143 144
3 146 145 45
3 148 147 47
3 4 50 48
3 6 53 51
3 6 55 53
3 7 58 56
3 7 60 58
3 3 63 61
3 8 66 64
3 8 68 66
3 8 70 68
3 4 73 71
3 4 48 73
3 5 149 151
3 151 150 75
3 149 150 151
3 9 78 76
3 11 79 32
3 11 80 79
3 152 81 153
3 12 84 82
3 14 85 35
3 14 86 85
3 14 88 86
3 9 89 37
3 9 76 89
3 16 92 90
3 17 93 39
3 17 154 156
3 156 155 93
3 154 155 156
3 158 157 94
3 160 159 95
3 161 97 162
3 18 98 44
3 18 99 98
3 18 100 99
3 163 101 164
3 165 164 46
3 163 164 165
3 166 95 167
3 168 167 101
3 166 167 168
3 20 105 103
3 21 106 49
3 21 107 106
3 10 108 77
3 22 109 52
3 22 110 109
3 22 111 110
3 23 112 54
3 23 113 112
3 169 114 170
3 171 170 96
3 169 170 171
3 172 115 173
3 174 116 175
3 176 175 115
3 174 175 176
3 177 117 178
3 179 118 180
3 181 180 117
3 179 180 181
3 182 119 183
3 184 120 185
3 186 185 119
3 184 185 186
3 188 187 120
3 24 121 57
3 24 122 121
3 24 123 122
3 25 124 59
3 25 125 124
3 26 126 62
3 26 127 126
3 13 128 83
3 27 129 65
3 27 130 129
3 27 131 130
3 28 132 67
3 28 133 132
3 28 134 133
3 29 135 69
3 29 136 135
3 15 137 87
3 30 138 72
3 30 139 138
3 30 140 139
3 190 189 74
3 192 191 91
3 19 141 102
3 194 193 104
3 31 32 9
3 33 32 31
3 33 11 32
3 34 35 12
3 36 35 34
3 36 14 35
3 36 37 14
3 31 37 36
3 31 9 37
3 38 39 16
3 40 39 38
3 40 17 39
3 41 195 196
3 42 197 199
3 199 198 41
3 197 198 199
3 42 200 201
3 43 202 204
3 202 44 203
3 202 203 204
3 45 44 43
3 45 18 44
3 45 46 18
3 205 46 206
3 207 206 45
3 205 206 207
3 209 208 46
3 47 210 212
3 212 211 20
3 210 211 212
3 214 213 47
3 48 215 217
3 215 49 216
3 215 216 217
3 50 49 48
3 50 21 49
3 51 52 10
3 53 52 51
3 53 22 52
3 53 54 22
3 55 54 53
3 55 23 54
3 56 218 220
3 218 57 219
3 218 219 220
3 58 57 56
3 58 24 57
3 58 59 24
3 60 59 58
3 60 25 59
3 61 221 223
3 221 62 222
3 221 222 223
3 63 62 61
3 63 26 62
3 64 65 13
3 66 65 64
3 66 27 65
3 66 67 27
3 68 67 66
3 68 28 67
3 68 69 28
3 70 69 68
3 70 29 69
3 71 72 15
3 73 72 71
3 73 30 72
3 73 74 30
3 48 74 73
3 48 224 226
3 226 225 74
3 224 225 226
3 75 227 228
3 230 229 75
3 233 232 19
3 231 232 233
3 234 43 235
3 236 43 237
3 236 237 238
3 240 239 43
3 76 77 4
3 78 77 76
3 78 10 77
3 32 78 9
3 79 78 32
3 79 10 78
3 79 51 10
3 80 51 79
3 80 6 51
3 241 56 242
3 81 243 245
3 243 56 244
3 243 244 245
3 81 7 56
3 82 83 3
3 84 83 82
3 84 13 83
3 35 84 12
3 85 84 35
3 85 13 84
3 85 64 13
3 86 64 85
3 86 8 64
3 86 87 8
3 88 87 86
3 88 15 87
3 37 88 14
3 89 88 37
3 89 15 88
3 89 71 15
3 76 71 89
3 76 4 71
3 90 91 5
3 92 91 90
3 92 246 248
3 248 247 91
3 246 247 248
3 39 92 16
3 93 92 39
3 93 249 251
3 251 250 92
3 249 250 251
3 93 252 253
3 255 254 93
3 94 256 257
3 259 258 94
3 95 96 0
3 260 96 261
3 262 261 95
3 260 261 262
3 264 263 96
3 265 61 266
3 97 267 269
3 267 61 268
3 267 268 269
3 97 3 61
3 44 270 271
3 98 272 274
3 274 273 44
3 272 273 274
3 98 275 276
3 98 277 279
3 277 97 278
3 277 278 279
3 99 97 98
3 99 3 97
3 99 82 3
3 100 82 99
3 100 12 82
3 46 100 18
3 101 100 46
3 101 12 100
3 101 34 12
3 95 34 101
3 95 0 34
3 280 102 281
3 282 281 1
3 280 281 282
3 283 102 284
3 285 19 286
3 287 286 102
3 285 286 287
3 288 19 289
3 291 290 19
3 103 104 2
3 105 104 103
3 105 292 294
3 294 293 104
3 292 293 294
3 295 105 296
3 297 296 20
3 295 296 297
3 298 105 299
3 301 300 105
3 49 302 303
3 106 304 306
3 306 305 49
3 304 305 306
3 106 307 308
3 106 309 311
3 309 75 310
3 309 310 311
3 107 75 106
3 107 5 75
3 77 50 4
3 108 50 77
3 108 21 50
3 52 108 10
3 109 108 52
3 109 21 108
3 109 107 21
3 110 107 109
3 110 5 107
3 110 90 5
3 111 90 110
3 111 16 90
3 54 111 22
3 112 111 54
3 112 16 111
3 112 38 16
3 113 38 112
3 113 1 38
3 96 33 0
3 114 33 96
3 114 11 33
3 312 114 313
3 115 314 316
3 314 114 315
3 314 315 316
3 115 11 114
3 115 80 11
3 116 80 115
3 116 6 80
3 317 116 318
3 117 319 321
3 319 116 320
3 319 320 321
3 117 6 116
3 117 55 6
3 118 55 117
3 118 23 55
3 322 118 323
3 119 324 326
3 324 118 325
3 324 325 326
3 119 23 118
3 119 113 23
3 120 113 119
3 120 1 113
3 120 327 329
3 329 328 1
3 327 328 329
3 331 330 120
3 57 332 333
3 121 334 336
3 336 335 57
3 334 335 336
3 121 337 338
3 121 339 340
3 122 341 343
3 343 342 121
3 341 342 343
3 122 344 346
3 344 345 346
3 122 347 349
3 347 94 348
3 347 348 349
3 123 94 122
3 123 350 352
3 352 351 94
3 350 351 352
3 59 123 24
3 124 123 59
3 124 353 355
3 355 354 123
3 353 354 355
3 124 356 358
3 356 41 357
3 356 357 358
3 125 41 124
3 125 2 41
3 62 359 360
3 126 361 363
3 363 362 62
3 361 362 363
3 126 364 365
3 126 366 368
3 366 81 367
3 366 367 368
3 127 81 126
3 127 7 81
3 83 63 3
3 128 63 83
3 128 26 63
3 65 128 13
3 129 128 65
3 129 26 128
3 129 127 26
3 130 127 129
3 130 7 127
3 130 60 7
3 131 60 130
3 131 25 60
3 67 131 27
3 132 131 67
3 132 25 131
3 132 125 25
3 133 125 132
3 133 2 125
3 133 103 2
3 134 103 133
3 134 20 103
3 69 134 28
3 135 134 69
3 135 20 134
3 135 47 20
3 136 47 135
3 136 369 371
3 371 370 47
3 369 370 371
3 87 70 8
3 137 70 87
3 137 29 70
3 72 137 15
3 138 137 72
3 138 29 137
3 138 136 29
3 139 136 138
3 139 372 374
3 374 373 136
3 372 373 374
3 139 375 376
3 140 377 379
3 379 378 139
3 377 378 379
3 140 380 381
3 74 140 30
3 382 140 383
3 384 383 74
3 382 383 384
3 386 385 140
3 91 387 389
3 389 388 5
3 387 388 389
3 391 390 91
3 102 40 1
3 141 40 102
3 141 17 40
3 392 141 393
3 394 393 19
3 392 393 394
3 395 141 396
3 397 17 398
3 399 398 141
3 397 398 399
3 401 400 17
3 104 42 2
3 402 42 403
3 404 403 104
3 402 403 404
3 406 405 42
