ply
format ascii 1.0
element vertex 343
property float x
property float y
property float z
element face 358
property list uchar int vertex_index
end_header
-12.766424 -65.522766 29.761169
-18.85857 -77.224236 3.743697
-16.963409 -69.923317 22.262154
-10.727991 -74.966682 22.277903
-15.18876 -77.921196 13.478166
-6.386343 -68.748871 30.077887
-19.684063 -73.804207 8.439642
-16.038322 -74.007416 18.181486
-17.983549 -74.311752 13.506019
-17.042963 -78.0084 8.755372
-10.71738 -62.393917 32.723217
-7.653258 -63.786068 33.252838
-9.594017 -67.21064 30.020718
-9.736647 -79.295883 17.786531
-7.41392 -76.677887 22.109728
-14.971702 -68.144516 26.214178
-11.645136 -70.294083 26.473492
-13.953752 -72.548782 22.551977
-12.946303 -76.937111 18.122652
-12.020826 -81.035355 13.240738
-14.099521 -81.784157 8.573771
-15.850789 -63.71133 29.183262
-17.948921 -65.823151 25.600191
-4.751873 -65.075455 33.74334
-3.40556 -69.967209 30.256083
-8.504879 -72.072227 26.316921
-5.237975 -73.543556 26.158257
-2.075928 -74.902924 26.071005
-20.102331 -72.079643 10.752866
-18.479481 -72.497597 15.546447
-19.331064 -72.378777 13.139159
-18.882761 -74.074371 11.067651
-11.646009 -64.155281 31.235577
-10.160877 -64.987274 31.365606
-11.192869 -66.518967 29.828888
-7.978746 -80.417358 17.497725
-15.927352 -69.186211 24.31303
-14.39698 -70.350517 24.529099
-15.575109 -71.140953 22.522932
-15.627682 -75.938263 15.944575
-14.537652 -75.463501 18.286001
-14.135033 -77.391647 16.039101
-12.569847 -78.881439 15.816228
-13.721192 -79.384262 13.528535
-13.109643 -81.426582 11.065588
-14.620116 -79.85746 11.147508
-17.95426 -77.699455 6.309853
-16.592569 -79.762817 6.311508
-16.962069 -64.755112 27.540197
-20.362671 -65.021835 23.148285
-7.133131 -66.330872 31.687731
-6.166759 -64.592056 33.393055
-5.616109 -66.861443 31.929186
-4.175564 -67.617767 31.970106
-4.948628 -69.363945 30.124567
-11.19171 -72.672401 24.432011
-10.133987 -71.288925 26.330309
-9.661907 -73.500916 24.40712
-5.678368 -77.680054 21.745237
-6.320217 -75.286232 24.016361
-4.636004 -75.870644 24.054274
-3.655777 -74.368179 25.947613
-3.054983 -76.771194 23.737928
-19.263605 -75.504135 6.1908
-20.433777 -73.403183 5.845697
-17.982233 -70.384621 20.064583
-16.491257 -72.005241 20.271893
-17.492882 -72.436333 17.936544
-17.133175 -74.236816 15.774312
-16.5748 -76.180504 13.642829
-16.201828 -77.944153 11.229148
-17.580059 -76.067558 11.182757
-18.434731 -75.921783 8.597299
-20.065685 -62.312122 26.599506
-9.733917 -60.669403 34.131191
-9.203177 -63.262222 32.890102
-8.57452 -65.675545 31.565491
-7.973225 -68.108208 29.981533
-10.168532 -77.238441 20.022713
-9.114195 -75.872253 22.185541
-8.439875 -78.184906 19.921852
-6.783738 -79.041985 19.755249
-13.79548 -67.040131 28.015516
-12.313542 -67.893112 28.194624
-13.320715 -69.359253 26.311665
-12.786846 -71.564713 24.535429
-12.279982 -73.68187 22.656324
-14.973601 -73.364159 20.522171
-13.475327 -74.757904 20.394152
-11.902051 -75.972343 20.296206
-11.374712 -78.129875 18.026047
-10.896426 -80.257706 15.578413
-15.600857 -79.932877 8.789106
-11.248683 -59.842155 33.829269
-12.243814 -61.672867 32.417538
-13.249756 -63.14064 31.07889
-14.334961 -64.634422 29.501068
-15.417838 -65.998817 27.744415
-16.513659 -67.019897 25.917078
-17.46365 -67.948463 23.917458
-19.490694 -64.45887 25.144949
-18.916811 -66.480522 23.648117
-18.504299 -68.378616 21.90797
-10.613407 -68.851868 28.261885
-9.002326 -69.678246 28.269226
-7.417346 -70.35936 28.304815
-7.950288 -74.4189 24.251728
-6.849127 -72.811592 26.268206
-5.860899 -71.142303 28.189568
-4.203575 -71.850159 28.169161
-2.711999 -72.474968 28.201368
-20.642257 -71.141468 10.53868
-20.296906 -71.28104 11.826718
-19.911273 -71.430607 13.019865
-19.549239 -71.514572 14.195291
-20.296906 -71.28104 11.826718
-19.716698 -72.22921 11.946012
-19.911273 -71.430607 13.019865
-19.253622 -77.032464 2.383939
-18.649101 -78.08263 2.503674
-18.204114 -78.310166 3.778686
-17.751959 -78.547775 5.061764
-18.406415 -77.461846 5.026775
-18.649101 -78.08263 2.503674
-18.204114 -78.310166 3.778686
-4.313575 -77.172951 22.806014
-5.157186 -76.775349 22.899755
-4.834758 -78.077656 21.651496
-3.523065 -77.623226 22.647841
-3.845493 -76.320919 23.896101
-4.313575 -77.172951 22.806014
-2.668734 -77.903885 22.692786
-3.523065 -77.623226 22.647841
-18.197942 -71.550156 17.813206
-17.737558 -71.410477 19.000563
-18.442618 -70.5243 18.877225
-6.509814 -80.201149 18.525123
-7.381242 -79.729671 18.626487
-7.107318 -80.888835 17.396361
-5.940371 -79.578983 19.518883
-6.509814 -80.201149 18.525123
-11.142305 -81.775574 13.091171
-10.580106 -81.38675 14.260008
-11.458626 -80.64653 14.409575
-11.707342 -82.100018 11.935777
-11.142305 -81.775574 13.091171
-13.268313 -82.635822 8.535101
-12.773374 -82.457035 9.781009
-13.604582 -81.605369 9.819679
-13.828393 -82.733616 7.253905
-13.268313 -82.635822 8.535101
-15.879133 -80.789455 6.139674
-16.388455 -80.639705 4.950653
-11.539862 -58.606436 34.246936
-10.812023 -58.940174 34.468763
-13.077511 -61.178507 32.272987
-12.514774 -60.426561 32.913418
-13.580482 -61.912394 31.603663
-12.746785 -62.406753 31.748214
-13.077511 -61.178507 32.272987
-15.362403 -62.95047 29.980055
-16.182727 -62.493452 29.766205
-15.092875 -64.172876 29.342165
-14.604489 -63.412016 30.138958
-15.362403 -62.95047 29.980055
-20.226689 -63.762183 24.87464
-19.778189 -63.385496 25.872228
-20.514185 -62.688809 25.601919
-19.408125 -66.632915 22.614335
-19.639741 -65.751178 23.398201
-20.131055 -65.903572 22.364419
-19.201869 -67.581963 21.744262
-18.710555 -67.429569 22.778043
-19.408125 -66.632915 22.614335
-18.973379 -68.537525 20.780048
-19.201869 -67.581963 21.744262
-7.232344 -62.952074 34.000439
-7.960245 -62.542852 33.876804
-5.08705 -63.917994 34.413342
-5.794493 -63.676294 34.238199
-5.459316 -64.833755 33.568197
-4.345522 -64.227413 34.636752
-5.08705 -63.917994 34.413342
-4.079025 -65.447098 33.819422
-4.345522 -64.227413 34.636752
-3.022575 -69.093254 31.245326
-3.407576 -67.918533 32.102338
-3.790562 -68.792488 31.113095
-2.628322 -70.394451 30.238249
-3.022575 -69.093254 31.245326
-1.602532 -74.051365 27.160165
-1.920567 -72.837387 28.225347
-2.393963 -73.688946 27.136187
-1.307359 -75.29057 26.037813
-1.602532 -74.051365 27.160165
-20.422702 -71.975075 9.473841
-20.213568 -72.837356 8.317229
-19.893197 -72.941925 9.596254
-20.422702 -71.975075 9.473841
-20.642257 -71.141468 10.53868
-19.123447 -71.573982 15.398936
-18.691242 -71.580788 16.618157
-18.905273 -72.438187 14.342803
-19.123447 -71.573982 15.398936
-19.549239 -71.514572 14.195291
-8.574081 -80.971347 16.392467
-8.857696 -79.85662 17.642128
-9.453031 -80.41061 16.53687
-7.669116 -81.591033 16.198966
-8.574081 -80.971347 16.392467
-7.107318 -80.888835 17.396361
-7.669116 -81.591033 16.198966
-17.071114 -79.579456 5.062591
-17.273415 -78.731136 6.310681
-17.751959 -78.547775 5.061764
-16.388455 -80.639705 4.950653
-17.071114 -79.579456 5.062591
-16.647479 -63.129497 29.022786
-16.182727 -62.493452 29.766205
-17.203119 -63.651388 28.201253
-16.406429 -64.233221 28.361729
-16.647479 -63.129497 29.022786
-17.752329 -64.168331 27.309886
-17.203119 -63.651388 28.201253
-18.245755 -64.702351 26.339883
-17.455495 -65.289131 26.570194
-17.752329 -64.168331 27.309886
-21.059016 -64.305074 22.825115
-20.662678 -64.043665 23.876309
-20.813277 -65.181873 21.991887
-21.059016 -64.305074 22.825115
-20.131055 -65.903572 22.364419
-20.813277 -65.181873 21.991887
-2.20754 -77.095176 23.7578
-1.718013 -76.161041 24.924338
-2.565456 -75.837059 24.904466
-2.20754 -77.095176 23.7578
-2.668734 -77.903885 22.692786
-19.64848 -75.310577 4.855861
-19.445963 -76.170628 3.632309
-19.061087 -76.364186 4.967249
-20.233567 -74.260101 4.683309
-19.64848 -75.310577 4.855861
-19.848691 -74.453659 6.018249
-20.800772 -73.139412 4.578006
-20.233567 -74.260101 4.683309
-20.588425 -72.636844 7.020257
-20.05892 -73.603695 7.14267
-20.213568 -72.837356 8.317229
-21.006667 -72.263611 5.720849
-20.588425 -72.636844 7.020257
-20.800772 -73.139412 4.578006
-21.006667 -72.263611 5.720849
-17.986182 -72.466965 16.741495
-18.197942 -71.550156 17.813206
-18.691242 -71.580788 16.618157
-20.360389 -61.256758 27.208098
-19.571735 -61.851045 27.485425
-20.818343 -61.64678 26.319624
-20.360389 -61.256758 27.208098
-20.514185 -62.688809 25.601919
-20.818343 -61.64678 26.319624
-9.000575 -60.98452 34.315981
-9.33266 -59.786831 34.794088
-8.735205 -62.280929 33.695436
-9.000575 -60.98452 34.315981
-9.468547 -61.965812 33.510647
-8.428218 -63.524145 33.07147
-7.960245 -62.542852 33.876804
-8.735205 -62.280929 33.695436
-5.387687 -78.898018 20.513877
-6.231053 -78.361019 20.750243
-5.940371 -79.578983 19.518883
-4.834758 -78.077656 21.651496
-5.387687 -78.898018 20.513877
-19.253622 -77.032464 2.383939
-19.445963 -76.170628 3.632309
-10.032921 -80.891521 15.432811
-9.453031 -80.41061 16.53687
-10.316536 -79.776794 16.682472
-10.032921 -80.891521 15.432811
-10.580106 -81.38675 14.260008
-12.25175 -82.295631 10.848202
-11.707342 -82.100018 11.935777
-12.565234 -81.230968 12.153163
-12.25175 -82.295631 10.848202
-12.773374 -82.457035 9.781009
-15.383277 -80.874485 7.378474
-16.096713 -79.847847 7.550307
-15.879133 -80.789455 6.139674
-14.632609 -81.800125 7.270806
-14.850189 -80.858517 8.681439
-15.383277 -80.874485 7.378474
-13.828393 -82.733616 7.253905
-14.632609 -81.800125 7.270806
-10.05464 -59.353798 34.619724
-9.33266 -59.786831 34.794088
-10.4913 -60.255779 33.98023
-10.05464 -59.353798 34.619724
-10.812023 -58.940174 34.468763
-12.017208 -59.511206 33.619283
-11.539862 -58.606436 34.246936
-11.746249 -60.757511 33.123403
-12.017208 -59.511206 33.619283
-12.514774 -60.426561 32.913418
-14.061886 -62.665125 30.927869
-13.580482 -61.912394 31.603663
-13.792358 -63.887531 30.289979
-14.061886 -62.665125 30.927869
-14.604489 -63.412016 30.138958
-19.304137 -62.946837 26.83954
-19.571735 -61.851045 27.485425
-19.016641 -64.020211 26.112262
-19.304137 -62.946837 26.83954
-19.778189 -63.385496 25.872228
-18.719808 -65.14101 25.37257
-18.245755 -64.702351 26.339883
-19.016641 -64.020211 26.112262
-19.926682 -64.740353 24.146617
-20.226689 -63.762183 24.87464
-20.662678 -64.043665 23.876309
-18.712346 -69.540527 19.858354
-18.243266 -69.381619 20.986276
-18.973379 -68.537525 20.780048
-18.442618 -70.5243 18.877225
-18.712346 -69.540527 19.858354
-6.489094 -63.355068 34.070547
-7.232344 -62.952074 34.000439
-6.910008 -64.189062 33.322947
-6.489094 -63.355068 34.070547
-5.794493 -63.676294 34.238199
-3.79087 -66.718254 32.932805
-4.079025 -65.447098 33.819422
-4.463718 -66.346611 32.856723
-3.79087 -66.718254 32.932805
-3.407576 -67.918533 32.102338
-2.281541 -71.648331 29.210891
-2.628322 -70.394451 30.238249
-3.058779 -71.221089 29.228725
-2.281541 -71.648331 29.210891
-1.920567 -72.837387 28.225347
-1.307359 -75.29057 26.037813
-1.718013 -76.161041 24.924338
3 112 111 28
3 113 30 114
3 115 28 116
3 117 116 30
3 115 116 117
3 0 34 32
3 1 118 119
3 2 38 36
3 4 41 39
3 4 43 41
3 4 45 43
3 1 120 122
3 122 121 46
3 120 121 122
3 1 123 124
3 5 52 50
3 5 54 52
3 3 57 55
3 125 60 126
3 127 126 58
3 125 126 127
3 128 62 129
3 130 129 60
3 128 129 130
3 132 131 62
3 6 64 63
3 133 67 134
3 135 134 65
3 133 134 135
3 8 68 29
3 8 69 68
3 8 71 69
3 6 72 31
3 6 63 72
3 10 75 74
3 12 76 33
3 12 77 76
3 13 80 78
3 136 81 137
3 138 137 35
3 136 137 138
3 140 139 81
3 15 84 82
3 17 85 37
3 17 86 85
3 7 87 66
3 18 88 40
3 18 89 88
3 18 90 89
3 19 91 42
3 19 141 143
3 143 142 91
3 141 142 143
3 19 144 145
3 20 146 148
3 148 147 44
3 146 147 148
3 20 149 150
3 9 92 70
3 152 151 47
3 153 93 154
3 155 94 156
3 157 95 158
3 159 158 94
3 157 158 159
3 21 160 161
3 21 162 164
3 162 96 163
3 162 163 164
3 21 97 96
3 22 98 48
3 22 99 98
3 165 100 166
3 167 166 73
3 165 166 167
3 168 101 169
3 170 169 49
3 168 169 170
3 171 102 172
3 173 172 101
3 171 172 173
3 175 174 102
3 11 176 177
3 23 178 180
3 180 179 51
3 178 179 180
3 23 181 182
3 23 183 184
3 24 185 187
3 187 186 53
3 185 186 187
3 24 188 189
3 16 103 83
3 25 104 56
3 25 105 104
3 14 106 79
3 26 107 59
3 26 108 107
3 26 109 108
3 27 110 61
3 27 190 192
3 192 191 110
3 190 191 192
3 27 193 194
3 28 195 197
3 197 196 6
3 195 196 197
3 199 198 28
3 200 29 201
3 30 202 204
3 202 29 203
3 202 203 204
3 30 8 29
3 30 31 8
3 28 31 30
3 28 6 31
3 32 33 10
3 34 33 32
3 34 12 33
3 205 35 206
3 207 206 13
3 205 206 207
3 208 35 209
3 211 210 35
3 36 37 15
3 38 37 36
3 38 17 37
3 39 40 7
3 41 40 39
3 41 18 40
3 41 42 18
3 43 42 41
3 43 19 42
3 43 44 19
3 45 44 43
3 45 20 44
3 46 47 9
3 212 47 213
3 214 213 46
3 212 213 214
3 216 215 47
3 217 21 218
3 219 48 220
3 221 220 21
3 219 220 221
3 222 48 223
3 224 22 225
3 226 225 48
3 224 225 226
3 227 49 228
3 229 49 230
3 232 231 49
3 50 51 11
3 52 51 50
3 52 23 51
3 52 53 23
3 54 53 52
3 54 24 53
3 55 56 16
3 57 56 55
3 57 25 56
3 58 59 14
3 60 59 58
3 60 26 59
3 60 61 26
3 62 61 60
3 62 27 61
3 62 233 235
3 235 234 27
3 233 234 235
3 237 236 62
3 63 238 240
3 240 239 1
3 238 239 240
3 64 241 243
3 243 242 63
3 241 242 243
3 64 244 245
3 246 64 247
3 248 247 6
3 246 247 248
3 249 64 250
3 252 251 64
3 65 66 2
3 67 66 65
3 67 7 66
3 29 253 255
3 253 67 254
3 253 254 255
3 68 67 29
3 68 7 67
3 68 39 7
3 69 39 68
3 69 4 39
3 69 70 4
3 71 70 69
3 71 9 70
3 31 71 8
3 72 71 31
3 72 9 71
3 72 46 9
3 63 46 72
3 63 1 46
3 256 73 257
3 258 73 259
3 261 260 73
3 74 262 263
3 75 264 266
3 266 265 74
3 264 265 266
3 75 267 269
3 267 11 268
3 267 268 269
3 33 75 10
3 76 75 33
3 76 11 75
3 76 50 11
3 77 50 76
3 77 5 50
3 78 79 3
3 80 79 78
3 80 14 79
3 35 80 13
3 81 80 35
3 81 14 80
3 81 58 14
3 270 58 271
3 272 271 81
3 270 271 272
3 274 273 58
3 276 275 1
3 82 83 0
3 84 83 82
3 84 16 83
3 37 84 15
3 85 84 37
3 85 16 84
3 85 55 16
3 86 55 85
3 86 3 55
3 66 38 2
3 87 38 66
3 87 17 38
3 40 87 7
3 88 87 40
3 88 17 87
3 88 86 17
3 89 86 88
3 89 3 86
3 89 78 3
3 90 78 89
3 90 13 78
3 42 90 18
3 91 90 42
3 91 13 90
3 91 277 279
3 279 278 13
3 277 278 279
3 281 280 91
3 44 282 284
3 284 283 19
3 282 283 284
3 286 285 44
3 70 45 4
3 92 45 70
3 92 20 45
3 47 92 9
3 287 92 288
3 289 288 47
3 287 288 289
3 290 20 291
3 292 291 92
3 290 291 292
3 294 293 20
3 295 74 296
3 93 297 299
3 297 74 298
3 297 298 299
3 93 10 74
3 300 93 301
3 94 302 304
3 302 93 303
3 302 303 304
3 94 10 93
3 94 32 10
3 95 32 94
3 95 0 32
3 305 95 306
3 96 307 309
3 307 95 308
3 307 308 309
3 96 0 95
3 96 82 0
3 97 82 96
3 97 15 82
3 48 97 21
3 98 97 48
3 98 15 97
3 98 36 15
3 99 36 98
3 99 2 36
3 73 310 311
3 100 312 314
3 314 313 73
3 312 313 314
3 100 315 317
3 315 22 316
3 315 316 317
3 49 318 320
3 318 100 319
3 318 319 320
3 101 100 49
3 101 22 100
3 101 99 22
3 102 99 101
3 102 2 99
3 102 65 2
3 321 65 322
3 323 322 102
3 321 322 323
3 325 324 65
3 51 326 328
3 328 327 11
3 326 327 328
3 330 329 51
3 53 331 333
3 333 332 23
3 331 332 333
3 335 334 53
3 83 34 0
3 103 34 83
3 103 12 34
3 56 103 16
3 104 103 56
3 104 12 103
3 104 77 12
3 105 77 104
3 105 5 77
3 79 57 3
3 106 57 79
3 106 25 57
3 59 106 14
3 107 106 59
3 107 25 106
3 107 105 25
3 108 105 107
3 108 5 105
3 108 54 5
3 109 54 108
3 109 24 54
3 61 109 26
3 110 109 61
3 110 24 109
3 110 336 338
3 338 337 24
3 336 337 338
3 340 339 110
3 342 341 27
