ply
format ascii 1.0
element vertex 709
property float x
property float y
property float z
element face 848
property list uchar int vertex_index
end_header
5.290642 92.216187 13.272218
-1.238522 98.245697 -6.819683
12.588191 105.789536 -27.833925
-8.816068 78.96788 13.594213
-17.404055 80.443306 -5.76663
1.703861 71.965729 31.247068
2.545226 95.914993 4.384449
8.411523 103.935837 -5.295657
-1.356327 86.498276 13.510772
-5.845136 89.410683 3.454483
-5.795286 63.968281 31.46624
-1.485542 93.430611 -36.870361
-5.166464 97.577583 -17.938803
1.44423 100.907555 -28.542181
5.280593 104.559265 -17.699146
-13.478993 80.568687 3.90679
-10.268914 90.251869 -6.762197
-3.82166 75.830513 22.946648
3.70708 83.655731 21.84166
7.819668 92.088432 15.740464
4.156519 94.127647 9.295656
6.596077 98.236145 5.362895
2.372161 89.791832 13.402618
0.439478 91.46373 8.83088
-3.058753 98.472717 -12.488165
-0.068096 101.372604 -17.994732
1.902848 101.947395 -12.238676
11.842654 106.533417 -9.919051
-12.183507 74.567581 13.566277
-14.350509 75.378815 8.80468
-11.219787 79.803566 8.980708
-3.719533 93.989616 -1.438025
-8.092038 90.160362 -1.751182
-5.889757 94.488991 -6.922797
-7.972806 94.286812 -12.374844
-2.196039 67.883461 31.491142
-4.846037 70.106804 27.308802
-1.046348 74.216331 27.071938
-0.078989 79.894012 22.405714
2.732856 78.019577 26.680838
6.66969 82.372482 25.617872
7.092803 103.794754 -28.62331
5.247106 100.621185 -33.545586
11.170377 102.871704 -33.568802
-18.380177 75.601257 -0.814751
0.738994 97.389542 -1.089141
3.489361 101.404915 -6.326842
5.32098 100.30748 -0.426163
9.585421 102.109344 1.176534
-5.136065 83.063683 13.382799
-7.492592 84.265625 8.705955
-3.648046 88.138855 8.493389
-1.742771 92.876678 3.718219
-3.750025 97.448509 -27.959652
-1.883642 99.942245 -23.337965
3.362089 103.244049 -23.393318
8.792567 105.853737 -22.905666
6.984588 104.742287 -11.446501
10.54855 106.822289 -16.619987
13.905029 107.424782 -21.618961
-16.426048 75.67144 4.099341
-15.516346 80.815224 -0.942544
-9.794367 85.288223 3.641474
-12.149324 85.521606 -1.226156
-14.263101 85.347298 -6.130548
-12.406383 89.59362 -11.75801
-10.015993 93.122688 -17.214546
-9.818384 73.433289 18.320133
-8.427734 65.762634 27.330189
-7.43575 71.803856 22.992861
-6.451282 77.502815 18.296204
-2.625168 81.436203 18.206879
0.993602 85.150833 17.672796
4.716454 88.632858 17.153891
7.439555 87.762665 20.552694
-0.051842 97.705978 -33.101227
3.82324 96.562225 -37.766983
6.297473 93.782425 12.113779
7.773152 94.001816 13.195059
6.416703 92.254768 14.279999
4.779557 93.114494 11.496208
5.875546 95.027107 9.840781
4.022714 91.217377 13.288063
3.169619 92.048309 11.227593
-2.125009 98.48909 -9.705277
-0.712253 100.206894 -12.430669
0.29399 100.197754 -9.470554
-10.543666 76.75531 13.688595
-11.771672 77.12442 11.354138
-10.037725 79.383888 11.344782
-2.516292 96.220543 -4.153698
-4.859214 94.26622 -4.154461
-3.596316 96.393684 -6.823238
-4.594728 96.513161 -9.66145
-0.215423 69.762032 31.569969
-1.6572 71.049561 29.342392
0.206429 73.034096 29.166
0.872917 76.226959 26.836254
2.229273 74.938248 29.100628
4.197884 77.33223 28.48649
9.803625 104.900963 -28.323803
9.071972 103.503822 -31.185469
11.865109 104.496346 -30.763054
-17.989077 78.022072 -3.317284
-18.726467 77.9496 -5.747951
1.703526 96.785629 1.616633
3.112203 99.089844 -1.026867
3.752653 98.083168 2.011795
8.149196 100.191422 3.521379
10.180657 100.882446 4.408236
-3.295361 84.898491 13.294837
-4.426321 85.598259 11.003052
-2.486033 87.403915 10.982794
1.423168 93.829361 6.421281
-0.594569 92.165184 6.446232
0.336539 94.423859 3.98792
-0.496335 95.22821 1.330866
-15.059965 86.722534 -13.672577
-4.628001 97.885994 -23.178078
-3.622553 98.856285 -20.787525
2.521458 103.016357 -17.794071
1.767259 102.569687 -20.613472
4.430274 104.092789 -20.553782
6.050222 104.63369 -23.321138
6.996816 105.365433 -20.364178
5.932065 102.777 -5.918616
5.15592 103.178726 -8.888484
7.515206 104.336975 -8.348886
11.055572 106.749619 -13.203153
12.287004 107.315025 -19.20952
-13.960202 77.878494 6.553362
-15.464056 75.539444 6.372009
-15.016711 78.169014 4.021979
-16.053892 78.252274 1.573659
-14.510001 80.793091 1.438338
-6.75682 86.838791 6.096199
-8.727987 84.715866 6.234512
-7.93691 87.244423 3.651928
-9.292903 90.098412 -4.08612
-10.224376 87.786148 -1.392698
-11.291151 87.947632 -4.019037
-13.192331 85.623749 -3.823788
-12.376511 87.809937 -6.44909
-13.346812 87.592995 -8.863025
-11.366384 89.959152 -9.116126
-6.742817 95.921799 -15.074112
-9.080788 93.735703 -14.842319
-7.642972 95.438034 -17.782761
-11.911006 68.263542 20.379326
-11.419845 71.166847 18.298239
-10.261418 70.570984 20.567446
-7.539859 61.91748 31.387581
-8.899623 62.727253 29.317951
-7.117313 64.937714 29.438747
-4.334876 72.937836 25.236031
-6.242941 70.790642 25.282528
-5.595914 73.882156 23.035753
-6.943255 74.671799 20.71924
-5.091351 76.834778 20.57946
-4.610355 79.566841 18.137978
-3.359385 78.697838 20.451443
1.88303 81.841339 22.154863
0.507114 82.591637 20.08956
2.35418 84.507408 19.710264
2.893601 86.984566 17.382212
4.119692 86.23568 19.386654
5.976477 88.17852 18.823112
5.495142 85.66082 21.22859
8.127953 81.573311 27.538622
8.490949 84.411446 24.991545
-1.110627 99.300171 -28.346409
-2.042501 97.695381 -30.528759
0.726873 99.462341 -30.915972
4.478444 98.679283 -35.761742
9.318926 91.966774 17.172279
3.456579 95.14045 6.853616
4.661551 97.221985 4.814498
5.336663 96.201233 7.371848
0.588178 88.360733 13.307867
-0.591574 88.973686 11.127234
1.375891 90.628204 11.160867
2.357841 93.040573 8.819763
-4.247229 98.040581 -15.295433
-2.57043 99.612152 -18.156494
-1.724841 99.971481 -15.334179
0.942195 101.774918 -14.978737
3.573378 103.404945 -14.928534
10.091319 105.381149 -7.65489
-13.663547 72.093994 13.661237
-14.742029 72.673141 11.039263
-13.31117 74.947395 11.22308
-12.779871 77.798431 8.84324
-12.3066 80.43084 6.300754
-4.945193 91.700172 0.922323
-7.095622 89.640976 1.027769
-5.968351 92.065132 -1.545491
-7.100202 92.314774 -4.288916
-8.184419 92.319946 -6.741756
-9.305774 92.222504 -9.509598
-7.085246 94.338135 -9.583746
-5.553524 96.42305 -12.360616
-4.083085 65.854431 31.512266
-5.366555 67.100304 29.374292
-3.593812 68.959152 29.439651
-3.001915 72.11882 27.242079
-2.448711 75.123276 24.966482
-1.977335 77.93428 22.630943
-0.602549 77.086433 24.750261
1.305569 78.988403 24.551916
3.211356 80.824638 24.340796
5.212799 83.00473 23.796669
4.763595 80.24984 26.183411
6.277532 79.494972 28.100616
4.208638 102.413971 -28.699276
3.397239 100.948097 -31.1707
6.264174 102.328651 -31.298338
8.225972 101.878937 -33.646107
-0.224565 97.895088 -3.886913
1.19871 99.909302 -6.478389
2.015805 99.449287 -3.687173
4.433203 101.009186 -3.502922
6.815951 102.234093 -2.881204
5.970698 99.287056 2.614665
7.440195 101.253609 0.399438
9.09626 103.161514 -2.021607
-6.924756 81.056648 13.606935
-8.217258 81.646675 11.14152
-6.303894 83.655212 11.145347
-5.670479 86.013107 8.814453
-4.801167 88.712227 6.087492
-1.537338 89.840431 8.742799
-2.656881 90.571968 6.186952
-3.810238 91.255196 3.461417
-2.805229 93.472557 1.078287
-1.566891 95.746933 -1.405931
-2.629249 64.671745 33.58099
-0.71777 66.810661 33.472061
1.278279 68.835136 33.426952
15.130195 106.283897 -27.345306
-16.827204 82.567375 -8.34859
-18.161274 80.177429 -8.173092
-2.837345 98.796211 -25.805704
-0.290463 100.570267 -25.917879
-0.999856 100.756645 -20.881685
0.710434 101.670441 -23.426765
2.437822 102.215584 -26.092787
5.321473 103.714584 -26.216627
7.8895 104.960037 -25.757811
10.675424 106.015945 -25.392666
2.674007 101.760498 -9.2959
4.535974 103.495995 -11.90514
6.078831 104.741547 -14.575558
9.398023 105.727036 -10.643668
8.68903 105.919647 -14.049932
7.895255 105.799881 -17.292286
9.812066 106.532898 -19.799406
11.427188 106.798454 -22.332752
13.227603 106.752792 -24.801723
-15.79103 72.959892 8.619195
-17.461275 75.620483 1.661041
-17.055504 78.129333 -0.772265
-16.541508 80.628731 -3.382732
-9.450929 82.142036 8.704691
-10.582528 82.582207 6.307483
-11.649879 83.06958 3.745895
-9.048421 87.701782 1.001194
-10.918272 85.498833 1.289219
-12.778604 83.232353 1.328067
-13.879245 83.254913 -1.07785
-14.934045 83.131546 -3.455997
-15.906651 82.933846 -5.89324
-15.218306 85.109543 -8.712429
-14.229665 87.305679 -11.434115
-13.271132 89.146286 -14.324279
-10.285757 91.943306 -11.97864
-11.221808 91.511009 -14.537437
-12.496518 71.837471 15.927655
-11.002992 73.985092 16.039635
-9.346306 76.220726 16.000473
-10.048685 63.775871 27.065456
-9.554054 66.795502 25.055542
-6.664702 67.872574 27.444187
-7.968083 68.73494 25.243261
-9.093558 69.804001 22.868698
-8.673429 72.723282 20.567078
-8.260613 75.390625 18.344248
-7.632069 78.2118 16.042938
-5.867499 80.24575 15.890703
-4.005965 82.185776 15.79767
-2.140708 83.986473 15.747905
-1.485879 80.644913 20.265039
-0.825469 83.368141 17.889206
-0.129666 85.91201 15.602899
1.666878 87.585075 15.443388
3.480835 89.197807 15.294015
4.975977 90.632568 14.979084
6.242092 90.421425 16.404991
7.607267 90.028549 18.075323
7.032876 85.179665 23.029539
-0.983322 95.650551 -34.965904
2.598469 99.2202 -33.460999
1.757009 97.197594 -35.541496
1.0037 95.031097 -37.347298
-19.490252 77.321014 -7.840934
2.721506 73.046219 31.106192
2.984212 74.532478 30.032972
1.966567 73.451988 30.173848
10.390277 100.166011 5.931934
9.35822 99.906494 5.354607
11.148847 101.070892 4.969289
10.390277 100.166011 5.931934
-1.894051 92.219124 -37.531931
-2.782904 92.47411 -36.53667
-0.654705 92.915932 -37.953075
-1.894051 92.219124 -37.531931
-15.479799 86.256317 -14.830365
-14.644696 87.462574 -15.034804
-4.394509 98.216934 -19.363164
-4.919636 97.814274 -20.623414
-5.691591 97.174923 -19.199053
-5.691591 97.174923 -19.199053
-6.929845 96.105148 -19.121032
-6.404718 96.507809 -17.860782
-11.277603 68.002872 21.552467
-12.045559 66.884377 21.461782
-10.452808 69.156593 21.646527
-11.086212 69.417263 20.473386
-11.277603 68.002872 21.552467
9.106409 82.62724 27.240136
8.878545 81.020439 28.624963
8.590574 93.101024 15.093538
8.567316 94.057716 13.820836
7.79641 93.045124 14.467761
8.569297 92.027603 16.456371
9.340203 93.040196 15.809445
8.590574 93.101024 15.093538
6.570449 96.061973 8.950879
6.721148 95.350948 10.221837
6.013357 77.969433 29.2879
5.237708 78.413601 28.293553
4.973534 76.888061 29.480837
6.971666 79.009502 29.078871
6.013357 77.969433 29.2879
10.693661 101.993504 -34.687815
9.221459 101.49712 -34.726467
9.698175 102.37532 -33.607455
-19.019006 74.218937 -0.858639
-18.550343 74.344627 0.357825
10.464264 103.005584 0.015283
10.219683 103.531669 -1.583788
9.34084 102.635429 -0.422536
-2.896591 63.017397 34.536913
-3.568267 63.664997 33.560869
0.02723 66.249904 34.426519
-0.977696 65.145471 34.472571
1.025255 67.262142 34.403965
0.280254 67.822899 33.449506
0.02723 66.249904 34.426519
2.08416 68.302021 34.40617
1.025255 67.262142 34.403965
16.08922 105.834323 -28.548609
16.37113 106.383132 -26.960477
-17.221259 82.32386 -9.566695
-16.435018 83.634487 -9.706508
14.837639 107.293201 -22.902878
14.498926 106.957206 -24.494259
13.566316 107.088787 -23.210342
-16.631261 74.316364 5.221749
-16.150264 74.250366 6.358083
-15.945052 75.605442 5.235675
-17.068617 74.438831 4.052254
-16.631261 74.316364 5.221749
-16.943662 75.645961 2.880191
-17.58623 74.413353 2.833104
-17.068617 74.438831 4.052254
-11.095075 91.943691 -17.01106
-11.697982 91.137852 -15.672506
-10.6189 92.316848 -15.875991
-10.461951 92.703773 -18.383976
-11.095075 91.943691 -17.01106
-12.75233 70.320412 17.011228
-13.223408 70.649349 15.865461
8.333706 88.683723 20.241371
8.417562 89.816665 19.002685
7.523411 88.895607 19.314008
8.696052 85.776714 23.713241
9.466913 85.447086 24.665647
-4.204092 96.614857 -29.011934
-5.006383 96.424484 -27.811051
-1.450969 96.792072 -32.839274
-2.446298 96.786773 -31.55304
-1.047172 97.70068 -31.814993
-0.517582 96.678264 -34.033566
-1.916708 95.764358 -33.771612
-1.450969 96.792072 -32.839274
3.341929 95.269142 -38.654803
1.932159 94.503578 -38.44496
2.41347 95.796661 -37.557141
-19.218783 78.342236 -9.065295
-18.825763 78.749222 -8.007013
-18.554293 79.770443 -9.231374
7.035312 93.892121 12.654419
7.669951 94.838302 11.898976
6.932111 94.728607 11.358336
6.932111 94.728607 11.358336
6.721148 95.350948 10.221837
6.08651 94.404766 10.97728
3.968518 75.729469 29.725903
3.213579 76.135239 28.793559
2.984212 74.532478 30.032972
4.973534 76.888061 29.480837
3.968518 75.729469 29.725903
-18.613715 76.694172 -3.241367
-18.809264 75.483765 -1.990101
-18.184627 76.811665 -2.066018
-18.982409 76.657936 -4.456701
-18.613715 76.694172 -3.241367
-18.357772 77.985836 -4.532617
-19.351235 76.477615 -5.563773
-18.982409 76.657936 -4.456701
8.342489 99.560982 4.911179
7.372637 99.213784 4.442137
7.565929 98.583343 5.831936
9.164926 100.536934 3.964808
8.342489 99.560982 4.911179
9.35822 99.906494 5.354607
10.946328 101.818218 3.231421
10.64871 102.431667 1.61557
9.883039 101.495895 2.792385
10.946328 101.818218 3.231421
11.148847 101.070892 4.969289
-15.90877 85.41793 -13.491988
-15.551399 85.712066 -12.368502
-15.90877 85.41793 -13.491988
-15.479799 86.256317 -14.830365
-5.42236 97.329128 -21.81869
-5.950395 96.787846 -22.964446
-4.125277 98.371139 -21.982802
-5.42236 97.329128 -21.81869
-4.919636 97.814274 -20.623414
12.235252 107.05909 -12.894812
11.449113 106.641518 -11.561102
12.628792 106.950989 -11.252761
11.948798 107.113567 -14.625704
12.235252 107.05909 -12.894812
11.695287 107.149902 -16.33412
10.802061 106.785954 -14.91157
11.948798 107.113567 -14.625704
12.564514 107.39627 -17.628887
11.417777 107.068657 -17.914753
11.695287 107.149902 -16.33412
13.537342 107.566647 -18.866771
12.564514 107.39627 -17.628887
14.346354 107.621525 -20.071492
13.096017 107.369903 -20.41424
13.537342 107.566647 -18.866771
15.147219 107.559196 -21.393897
14.346354 107.621525 -20.071492
-8.197667 94.961388 -18.906908
-9.384177 93.803714 -18.6228
-8.829483 94.280361 -17.498653
-8.197667 94.961388 -18.906908
-6.929845 96.105148 -19.121032
-12.613042 67.092514 20.353381
-12.045559 66.884377 21.461782
-12.459574 68.533447 19.237063
-12.613042 67.092514 20.353381
-11.665426 69.715194 19.338783
-12.213993 69.9851 18.19652
-12.459574 68.533447 19.237063
-8.219741 62.322367 30.352766
-9.124405 61.254291 30.22111
-8.444522 60.849405 31.255924
9.287907 84.046307 25.966597
8.309451 82.992379 26.265083
9.106409 82.62724 27.240136
9.466913 85.447086 24.665647
9.287907 84.046307 25.966597
5.888668 99.317154 -35.83392
4.862775 99.650234 -34.653664
6.272998 100.288105 -34.725842
5.503494 98.149826 -36.990704
5.888668 99.317154 -35.83392
5.175892 97.091297 -37.993324
4.150842 97.620754 -36.764363
5.503494 98.149826 -36.990704
4.744866 95.942333 -38.857899
5.175892 97.091297 -37.993324
8.559624 95.003556 12.48897
7.669951 94.838302 11.898976
8.559624 95.003556 12.48897
8.567316 94.057716 13.820836
10.155895 92.910481 16.661361
9.340203 93.040196 15.809445
10.105083 91.763534 18.061778
10.155895 92.910481 16.661361
6.301007 96.649036 7.716413
5.606104 95.61417 8.606314
6.570449 96.061973 8.950879
6.930715 97.666493 6.711937
5.96637 97.218689 6.367371
6.301007 96.649036 7.716413
7.565929 98.583343 5.831936
6.930715 97.666493 6.711937
-2.474214 93.627736 -35.709474
-2.782904 92.47411 -36.53667
10.399653 105.074219 -6.068303
9.251421 104.658493 -6.475274
9.559755 104.351562 -4.888687
11.283468 105.721988 -7.190651
10.399653 105.074219 -6.068303
12.159135 106.298123 -8.322732
10.966987 105.957283 -8.78697
11.283468 105.721988 -7.190651
12.976706 106.788113 -9.557114
12.159135 106.298123 -8.322732
12.628792 106.950989 -11.252761
12.976706 106.788113 -9.557114
-14.202788 72.383567 12.35025
-14.871066 71.286041 12.21789
-14.331824 70.996467 13.528878
7.896876 80.048672 28.797874
7.202742 80.534142 27.819619
6.971666 79.009502 29.078871
8.878545 81.020439 28.624963
7.896876 80.048672 28.797874
7.762431 100.916981 -34.776102
6.272998 100.288105 -34.725842
6.736539 101.250061 -33.595847
7.762431 100.916981 -34.776102
9.221459 101.49712 -34.726467
-19.019006 74.218937 -0.858639
-18.809264 75.483765 -1.990101
9.902123 103.964401 -3.251661
9.559755 104.351562 -4.888687
8.753891 103.548676 -3.658632
9.902123 103.964401 -3.251661
10.219683 103.531669 -1.583788
10.464264 103.005584 0.015283
10.64871 102.431667 1.61557
-7.809871 60.281503 32.326277
-8.444522 60.849405 31.255924
-6.941219 61.293239 32.402834
-7.809871 60.281503 32.326277
-6.068932 62.31864 32.442163
-6.667573 62.942881 31.42691
-6.941219 61.293239 32.402834
-5.151286 63.313265 32.503495
-6.068932 62.31864 32.442163
-4.295185 64.25634 32.526508
-4.939185 64.911356 31.489253
-5.151286 63.313265 32.503495
-3.356167 65.263088 32.546628
-4.295185 64.25634 32.526508
-3.568267 63.664997 33.560869
-1.933436 64.076014 34.527035
-2.896591 63.017397 34.536913
-1.67351 65.741203 33.526525
-1.933436 64.076014 34.527035
-0.977696 65.145471 34.472571
2.256162 69.828648 33.368494
2.468952 71.393944 32.278552
1.49107 70.400432 32.33701
2.256162 69.828648 33.368494
2.08416 68.302021 34.40617
14.849333 105.68449 -28.866534
13.578331 105.437309 -29.110844
13.859193 106.036716 -27.589616
14.849333 105.68449 -28.866534
16.08922 105.834323 -28.548609
-17.888294 81.128887 -9.478946
-17.494239 81.372402 -8.260841
-17.221259 82.32386 -9.566695
-18.554293 79.770443 -9.231374
-17.888294 81.128887 -9.478946
-4.674433 97.059948 -26.703965
-5.006383 96.424484 -27.811051
-5.113421 97.27869 -24.313178
-5.950395 96.787846 -22.964446
-4.218093 97.733799 -25.626991
-5.113421 97.27869 -24.313178
-3.732673 98.341103 -24.491891
-3.293685 98.12236 -26.882678
-4.674433 97.059948 -26.703965
-4.218093 97.733799 -25.626991
15.450222 106.722759 -25.766051
14.178899 106.518344 -26.073515
14.498926 106.957206 -24.494259
16.37113 106.383132 -26.960477
15.450222 106.722759 -25.766051
14.837639 107.293201 -22.902878
15.147219 107.559196 -21.393897
-15.387795 71.406666 11.052738
-14.871066 71.286041 12.21789
-15.912295 71.550041 9.842704
-15.387795 71.406666 11.052738
-15.26653 72.816517 9.829229
-16.413628 71.708454 8.594741
-15.912295 71.550041 9.842704
-16.313752 72.96059 7.481675
-15.627543 74.249668 7.495602
-16.150264 74.250366 6.358083
-16.413628 71.708454 8.594741
-16.313752 72.96059 7.481675
-18.090892 74.35424 1.595721
-17.58623 74.413353 2.833104
-17.920726 75.61087 0.423145
-18.550343 74.344627 0.357825
-18.090892 74.35424 1.595721
-15.63057 84.905571 -9.888427
-16.435018 83.634487 -9.706508
-16.022755 83.838459 -8.53051
-15.136249 86.003639 -11.24927
-15.63057 84.905571 -9.888427
-14.723986 86.207611 -10.073272
-14.644815 87.014106 -12.553346
-15.551399 85.712066 -12.368502
-15.136249 86.003639 -11.24927
-13.750279 88.67445 -15.360656
-14.644696 87.462574 -15.034804
-14.165548 87.93441 -13.998428
-12.722644 89.95549 -15.565927
-12.24647 90.328648 -14.430858
-11.697982 91.137852 -15.672506
-13.750279 88.67445 -15.360656
-12.722644 89.95549 -15.565927
-10.461951 92.703773 -18.383976
-9.384177 93.803714 -18.6228
-13.806922 70.77761 14.732252
-14.331824 70.996467 13.528878
-13.080032 71.965733 14.794446
-13.806922 70.77761 14.732252
-13.223408 70.649349 15.865461
-11.958182 71.502159 17.112947
-12.75233 70.320412 17.011228
-12.213993 69.9851 18.19652
-9.703608 61.79907 29.113132
-9.124405 61.254291 30.22111
-10.278139 62.32338 27.986884
-9.703608 61.79907 29.113132
-9.474154 63.251562 28.191704
-10.80583 62.809649 26.886552
-10.278139 62.32338 27.986884
-10.576964 64.319763 25.884931
-10.80583 62.809649 26.886552
-10.329649 65.829578 24.879973
-10.576964 64.319763 25.884931
-9.801369 65.285686 26.060499
-10.099127 67.268853 23.890574
-10.329649 65.829578 24.879973
-9.868879 68.773102 22.797152
-10.099127 67.268853 23.890574
-9.323806 68.299751 23.96212
-9.677488 70.187492 21.718072
-10.452808 69.156593 21.646527
-9.868879 68.773102 22.797152
9.273392 90.785778 18.551164
8.463096 90.997661 17.623801
8.417562 89.816665 19.002685
10.105083 91.763534 18.061778
9.273392 90.785778 18.551164
7.967015 86.160824 22.732238
7.761913 84.795556 24.010542
8.696052 85.776714 23.713241
8.170355 87.452324 21.493816
7.236216 86.471165 21.791117
7.967015 86.160824 22.732238
8.333706 88.683723 20.241371
8.170355 87.452324 21.493816
2.721506 73.046219 31.106192
2.468952 71.393944 32.278552
-3.350329 96.738293 -30.296488
-4.204092 96.614857 -29.011934
-2.896263 97.571945 -29.244205
-3.350329 96.738293 -30.296488
-2.446298 96.786773 -31.55304
-2.223104 94.737706 -34.757246
-1.916708 95.764358 -33.771612
-1.234432 94.540581 -35.918132
-2.474214 93.627736 -35.709474
-2.223104 94.737706 -34.757246
0.589916 93.716175 -38.191544
-0.654705 92.915932 -37.953075
-0.240921 94.230854 -37.108829
0.589916 93.716175 -38.191544
1.932159 94.503578 -38.44496
3.341929 95.269142 -38.654803
4.744866 95.942333 -38.857899
13.21679 104.790715 -30.575408
12.22665 105.142941 -29.29849
13.578331 105.437309 -29.110844
12.832376 104.049095 -31.964331
13.21679 104.790715 -30.575408
12.48501 103.236774 -33.367204
11.517743 103.684025 -32.165928
12.832376 104.049095 -31.964331
12.077839 102.310676 -34.704085
12.48501 103.236774 -33.367204
10.693661 101.993504 -34.687815
12.077839 102.310676 -34.704085
-19.733127 76.163322 -6.610265
-19.351235 76.477615 -5.563773
-19.108359 77.635307 -6.794442
-19.793841 76.980431 -8.973629
-19.218783 78.342236 -9.065295
-20.023347 75.976249 -7.739382
-19.793841 76.980431 -8.973629
-19.733127 76.163322 -6.610265
-20.023347 75.976249 -7.739382
3 0 79 77
3 0 77 80
3 0 80 82
3 1 86 84
3 3 89 87
3 1 92 90
3 1 84 92
3 5 96 94
3 5 98 96
3 5 304 306
3 306 305 98
3 304 305 306
3 2 102 100
3 4 104 103
3 6 107 105
3 307 109 308
3 310 309 109
3 8 112 110
3 6 115 113
3 6 105 115
3 11 311 312
3 11 313 314
3 316 315 117
3 12 317 319
3 317 119 318
3 317 318 319
3 14 122 120
3 14 124 122
3 7 127 125
3 15 132 130
3 15 134 132
3 9 137 135
3 16 140 138
3 16 142 140
3 16 144 142
3 12 147 145
3 12 320 322
3 322 321 147
3 320 321 322
3 323 148 324
3 325 150 326
3 327 326 148
3 325 326 327
3 10 153 151
3 17 156 154
3 17 158 156
3 17 160 158
3 18 163 161
3 18 165 163
3 18 167 165
3 329 328 168
3 13 172 170
3 19 330 332
3 332 331 78
3 330 331 332
3 19 333 335
3 333 174 334
3 333 334 335
3 20 177 175
3 337 336 81
3 22 180 178
3 20 181 83
3 20 175 181
3 24 184 182
3 26 185 85
3 26 186 185
3 28 190 188
3 30 191 88
3 30 192 191
3 31 195 193
3 33 196 91
3 33 197 196
3 33 199 197
3 24 200 93
3 24 182 200
3 35 203 201
3 37 204 95
3 37 205 204
3 37 207 205
3 39 208 97
3 39 209 208
3 39 211 209
3 338 212 339
3 340 339 99
3 338 339 340
3 342 341 212
3 41 215 213
3 43 216 101
3 43 343 345
3 345 344 216
3 343 344 345
3 44 346 347
3 45 219 217
3 47 220 106
3 47 221 220
3 21 222 176
3 48 223 108
3 48 224 223
3 48 348 350
3 350 349 224
3 348 349 350
3 49 227 225
3 51 228 111
3 51 229 228
3 23 230 179
3 52 231 114
3 52 232 231
3 52 233 232
3 45 234 116
3 45 217 234
3 351 235 352
3 353 236 354
3 355 237 356
3 357 356 236
3 355 356 357
3 359 358 237
3 361 360 238
3 363 362 239
3 54 241 118
3 54 242 241
3 25 243 183
3 55 244 121
3 55 245 244
3 55 246 245
3 56 247 123
3 56 248 247
3 46 249 218
3 57 250 126
3 57 251 250
3 27 252 187
3 58 253 128
3 58 254 253
3 58 255 254
3 59 256 129
3 59 257 256
3 59 364 366
3 366 365 257
3 364 365 366
3 29 258 189
3 60 367 369
3 369 368 131
3 367 368 369
3 60 370 371
3 60 372 374
3 372 259 373
3 372 373 374
3 61 260 133
3 61 261 260
3 50 262 226
3 62 263 136
3 62 264 263
3 32 265 194
3 63 266 139
3 63 267 266
3 63 268 267
3 64 269 141
3 64 270 269
3 64 271 270
3 65 272 143
3 65 273 272
3 34 274 198
3 66 275 146
3 66 375 377
3 377 376 275
3 375 376 377
3 66 378 379
3 380 276 381
3 67 277 149
3 67 278 277
3 68 279 152
3 68 280 279
3 36 281 202
3 69 282 155
3 69 283 282
3 69 284 283
3 70 285 157
3 70 286 285
3 70 287 286
3 71 288 159
3 71 289 288
3 38 290 206
3 72 291 162
3 72 292 291
3 72 293 292
3 73 294 164
3 73 295 294
3 73 296 295
3 74 297 166
3 74 382 384
3 384 383 297
3 382 383 384
3 40 298 210
3 386 385 169
3 53 387 388
3 75 389 391
3 391 390 171
3 389 390 391
3 75 392 394
3 392 299 393
3 392 393 394
3 42 300 214
3 76 301 173
3 76 302 301
3 76 395 397
3 397 396 302
3 395 396 397
3 398 303 399
3 400 399 240
3 398 399 400
3 77 401 403
3 401 78 402
3 401 402 403
3 79 78 77
3 79 19 78
3 80 81 20
3 77 81 80
3 77 404 406
3 406 405 81
3 404 405 406
3 82 83 22
3 80 83 82
3 80 20 83
3 84 85 24
3 86 85 84
3 86 26 85
3 87 88 28
3 89 88 87
3 89 30 88
3 90 91 31
3 92 91 90
3 92 33 91
3 92 93 33
3 84 93 92
3 84 24 93
3 94 95 35
3 96 95 94
3 96 37 95
3 96 97 37
3 98 97 96
3 98 39 97
3 98 99 39
3 407 99 408
3 409 408 98
3 407 408 409
3 411 410 99
3 100 101 41
3 102 101 100
3 102 43 101
3 103 412 414
3 414 413 44
3 412 413 414
3 104 415 417
3 417 416 103
3 415 416 417
3 104 418 419
3 105 106 45
3 107 106 105
3 107 47 106
3 420 108 421
3 422 421 21
3 420 421 422
3 109 423 425
3 423 108 424
3 423 424 425
3 109 48 108
3 109 426 428
3 428 427 48
3 426 427 428
3 430 429 109
3 110 111 49
3 112 111 110
3 112 51 111
3 113 114 23
3 115 114 113
3 115 52 114
3 115 116 52
3 105 116 115
3 105 45 116
3 117 431 432
3 434 433 117
3 435 118 436
3 119 437 439
3 437 118 438
3 437 438 439
3 119 54 118
3 120 121 25
3 122 121 120
3 122 55 121
3 122 123 55
3 124 123 122
3 124 56 123
3 125 126 46
3 127 126 125
3 127 57 126
3 440 128 441
3 442 441 27
3 440 441 442
3 443 128 444
3 445 58 446
3 447 446 128
3 445 446 447
3 448 129 449
3 450 449 58
3 448 449 450
3 451 129 452
3 453 59 454
3 455 454 129
3 453 454 455
3 457 456 59
3 130 131 29
3 132 131 130
3 132 60 131
3 132 133 60
3 134 133 132
3 134 61 133
3 135 136 50
3 137 136 135
3 137 62 136
3 138 139 32
3 140 139 138
3 140 63 139
3 140 141 63
3 142 141 140
3 142 64 141
3 142 143 64
3 144 143 142
3 144 65 143
3 145 146 34
3 147 146 145
3 147 66 146
3 147 458 460
3 460 459 66
3 458 459 460
3 462 461 147
3 148 463 464
3 148 465 466
3 148 467 469
3 467 149 468
3 467 468 469
3 150 149 148
3 150 67 149
3 151 470 472
3 470 152 471
3 470 471 472
3 153 152 151
3 153 68 152
3 154 155 36
3 156 155 154
3 156 69 155
3 156 157 69
3 158 157 156
3 158 70 157
3 158 159 70
3 160 159 158
3 160 71 159
3 161 162 38
3 163 162 161
3 163 72 162
3 163 164 72
3 165 164 163
3 165 73 164
3 165 166 73
3 167 166 165
3 167 74 166
3 168 169 40
3 473 169 474
3 475 474 168
3 473 474 475
3 477 476 169
3 170 171 53
3 172 171 170
3 172 75 171
3 478 173 479
3 480 479 42
3 478 479 480
3 481 173 482
3 483 76 484
3 485 484 173
3 483 484 485
3 487 486 76
3 78 488 489
3 491 490 78
3 174 492 493
3 174 494 495
3 175 176 6
3 177 176 175
3 177 21 176
3 81 177 20
3 496 177 497
3 498 497 81
3 496 497 498
3 499 21 500
3 501 500 177
3 499 500 501
3 503 502 21
3 178 179 8
3 180 179 178
3 180 23 179
3 83 180 22
3 181 180 83
3 181 23 180
3 181 113 23
3 175 113 181
3 175 6 113
3 504 11 505
3 182 183 12
3 184 183 182
3 184 25 183
3 85 184 24
3 185 184 85
3 185 25 184
3 185 120 25
3 186 120 185
3 186 14 120
3 506 187 507
3 508 507 7
3 506 507 508
3 509 187 510
3 511 27 512
3 513 512 187
3 511 512 513
3 514 27 515
3 517 516 27
3 188 518 520
3 518 189 519
3 518 519 520
3 190 189 188
3 190 29 189
3 88 190 28
3 191 190 88
3 191 29 190
3 191 130 29
3 192 130 191
3 192 15 130
3 193 194 9
3 195 194 193
3 195 32 194
3 91 195 31
3 196 195 91
3 196 32 195
3 196 138 32
3 197 138 196
3 197 16 138
3 197 198 16
3 199 198 197
3 199 34 198
3 93 199 33
3 200 199 93
3 200 34 199
3 200 145 34
3 182 145 200
3 182 12 145
3 201 202 10
3 203 202 201
3 203 36 202
3 95 203 35
3 204 203 95
3 204 36 203
3 204 154 36
3 205 154 204
3 205 17 154
3 205 206 17
3 207 206 205
3 207 38 206
3 97 207 37
3 208 207 97
3 208 38 207
3 208 161 38
3 209 161 208
3 209 18 161
3 209 210 18
3 211 210 209
3 211 40 210
3 99 211 39
3 212 211 99
3 212 40 211
3 212 168 40
3 521 168 522
3 523 522 212
3 521 522 523
3 525 524 168
3 213 214 13
3 215 214 213
3 215 42 214
3 101 215 41
3 216 215 101
3 216 42 215
3 216 526 528
3 528 527 42
3 526 527 528
3 530 529 216
3 532 531 44
3 217 218 1
3 219 218 217
3 219 46 218
3 106 219 45
3 220 219 106
3 220 46 219
3 220 125 46
3 221 125 220
3 221 7 125
3 176 107 6
3 222 107 176
3 222 47 107
3 108 222 21
3 223 222 108
3 223 47 222
3 223 221 47
3 224 221 223
3 224 7 221
3 224 533 535
3 535 534 7
3 533 534 535
3 537 536 224
3 539 538 48
3 225 226 3
3 227 226 225
3 227 50 226
3 111 227 49
3 228 227 111
3 228 50 227
3 228 135 50
3 229 135 228
3 229 9 135
3 179 112 8
3 230 112 179
3 230 51 112
3 114 230 23
3 231 230 114
3 231 51 230
3 231 229 51
3 232 229 231
3 232 9 229
3 232 193 9
3 233 193 232
3 233 31 193
3 116 233 52
3 234 233 116
3 234 31 233
3 234 90 31
3 217 90 234
3 217 1 90
3 540 151 541
3 542 151 543
3 544 10 545
3 546 545 151
3 544 545 546
3 547 10 548
3 549 201 550
3 551 550 10
3 549 550 551
3 235 552 554
3 552 201 553
3 552 553 554
3 235 35 201
3 555 235 556
3 236 557 559
3 557 235 558
3 557 558 559
3 236 35 235
3 236 94 35
3 237 94 236
3 237 5 94
3 237 560 562
3 562 561 5
3 560 561 562
3 564 563 237
3 238 565 567
3 567 566 2
3 565 566 567
3 569 568 238
3 239 240 4
3 570 240 571
3 572 571 239
3 570 571 572
3 574 573 240
3 575 53 576
3 118 577 578
3 241 579 581
3 581 580 118
3 579 580 581
3 241 582 584
3 582 53 583
3 582 583 584
3 241 170 53
3 242 170 241
3 242 13 170
3 183 119 12
3 243 119 183
3 243 54 119
3 121 243 25
3 244 243 121
3 244 54 243
3 244 242 54
3 245 242 244
3 245 13 242
3 245 213 13
3 246 213 245
3 246 41 213
3 123 246 55
3 247 246 123
3 247 41 246
3 247 100 41
3 248 100 247
3 248 2 100
3 218 86 1
3 249 86 218
3 249 26 86
3 126 249 46
3 250 249 126
3 250 26 249
3 250 186 26
3 251 186 250
3 251 14 186
3 187 127 7
3 252 127 187
3 252 57 127
3 128 252 27
3 253 252 128
3 253 57 252
3 253 251 57
3 254 251 253
3 254 14 251
3 254 124 14
3 255 124 254
3 255 56 124
3 129 255 58
3 256 255 129
3 256 56 255
3 256 248 56
3 257 248 256
3 257 2 248
3 257 238 2
3 585 238 586
3 587 586 257
3 585 586 587
3 589 588 238
3 591 590 59
3 189 592 593
3 258 594 596
3 596 595 189
3 594 595 596
3 258 597 598
3 131 258 29
3 599 258 600
3 601 600 131
3 599 600 601
3 603 602 258
3 259 604 605
3 259 606 608
3 606 44 607
3 606 607 608
3 133 259 60
3 260 259 133
3 260 44 259
3 260 103 44
3 261 103 260
3 261 4 103
3 226 89 3
3 262 89 226
3 262 30 89
3 136 262 50
3 263 262 136
3 263 30 262
3 263 192 30
3 264 192 263
3 264 15 192
3 194 137 9
3 265 137 194
3 265 62 137
3 139 265 32
3 266 265 139
3 266 62 265
3 266 264 62
3 267 264 266
3 267 15 264
3 267 134 15
3 268 134 267
3 268 61 134
3 141 268 63
3 269 268 141
3 269 61 268
3 269 261 61
3 270 261 269
3 270 4 261
3 270 239 4
3 271 239 270
3 271 609 611
3 611 610 239
3 609 610 611
3 143 271 64
3 272 271 143
3 272 612 614
3 614 613 271
3 612 613 614
3 272 615 617
3 615 117 616
3 615 616 617
3 273 117 272
3 273 618 620
3 620 619 117
3 618 619 620
3 198 144 16
3 274 144 198
3 274 65 144
3 146 274 34
3 275 274 146
3 275 65 274
3 275 273 65
3 621 273 622
3 623 622 275
3 621 622 623
3 625 624 273
3 627 626 66
3 628 188 629
3 276 630 632
3 630 188 631
3 630 631 632
3 276 28 188
3 149 633 635
3 633 276 634
3 633 634 635
3 277 276 149
3 277 28 276
3 277 87 28
3 278 87 277
3 278 3 87
3 152 636 637
3 279 638 640
3 640 639 152
3 638 639 640
3 279 641 642
3 279 643 644
3 280 645 647
3 647 646 279
3 645 646 647
3 280 648 649
3 202 153 10
3 281 153 202
3 281 68 153
3 155 281 36
3 282 281 155
3 282 68 281
3 282 280 68
3 283 280 282
3 283 650 652
3 652 651 280
3 650 651 652
3 283 653 655
3 653 150 654
3 653 654 655
3 284 150 283
3 284 67 150
3 157 284 69
3 285 284 157
3 285 67 284
3 285 278 67
3 286 278 285
3 286 3 278
3 286 225 3
3 287 225 286
3 287 49 225
3 159 287 70
3 288 287 159
3 288 49 287
3 288 110 49
3 289 110 288
3 289 8 110
3 206 160 17
3 290 160 206
3 290 71 160
3 162 290 38
3 291 290 162
3 291 71 290
3 291 289 71
3 292 289 291
3 292 8 289
3 292 178 8
3 293 178 292
3 293 22 178
3 164 293 72
3 294 293 164
3 294 22 293
3 294 82 22
3 295 82 294
3 295 0 82
3 295 79 0
3 296 79 295
3 296 19 79
3 166 296 73
3 297 296 166
3 297 19 296
3 297 174 19
3 656 174 657
3 658 657 297
3 656 657 658
3 660 659 174
3 210 167 18
3 298 167 210
3 298 74 167
3 169 298 40
3 661 298 662
3 663 662 169
3 661 662 663
3 664 74 665
3 666 665 298
3 664 665 666
3 668 667 74
3 670 669 5
3 171 671 673
3 673 672 53
3 671 672 673
3 675 674 171
3 299 676 677
3 299 678 680
3 678 11 679
3 678 679 680
3 214 172 13
3 300 172 214
3 300 75 172
3 173 300 42
3 301 300 173
3 301 75 300
3 301 299 75
3 302 299 301
3 302 11 299
3 302 681 683
3 683 682 11
3 681 682 683
3 685 684 302
3 687 686 76
3 688 102 689
3 690 689 2
3 688 689 690
3 691 102 692
3 693 43 694
3 695 694 102
3 693 694 695
3 696 43 697
3 699 698 43
3 240 104 4
3 303 104 240
3 303 700 702
3 702 701 104
3 700 701 702
3 703 303 704
3 705 303 706
3 708 707 303
