ply
format ascii 1.0
element vertex 787
property float x
property float y
property float z
element face 976
property list uchar int vertex_index
end_header
-5.838037 2.50201 57.6474
-20.135435 -14.550175 45.74337
-13.444104 -5.583815 53.716228
-6.936424 -21.424625 58.772488
-32.352253 -9.349893 32.579956
-11.346878 6.223547 52.507805
-9.441671 -1.623627 56.104919
-15.77923 2.084874 49.641827
-5.975513 -8.720084 60.081825
0.254718 3.655817 61.344994
-22.202553 -20.127756 40.789192
-26.232994 -11.452222 39.16222
-13.965147 -18.084496 52.286285
-10.345112 -26.697042 52.281174
-16.290815 -23.332975 46.117466
-17.074604 -9.923631 50.445908
-23.304344 -6.056851 43.01664
-19.728189 -1.793596 46.5956
-10.279991 -13.33072 57.117859
-29.328829 -2.925539 35.483978
-8.266015 4.103002 55.479713
-8.602467 8.073249 54.21146
-5.767719 5.685984 56.865608
-7.387609 0.579945 57.044212
-10.53962 2.151714 54.241386
-4.275943 -0.250204 59.38644
-5.938326 -2.781484 58.900234
-3.323261 2.911839 59.229702
-0.740451 -0.224782 61.660587
-2.554592 6.901025 58.723709
-21.321077 -17.174797 43.16819
-24.277246 -15.778561 40.29792
-23.183386 -12.931174 42.41951
-17.120953 -16.25602 49.022991
-15.209303 -20.562616 49.456921
-18.237984 -19.014357 46.207684
-19.122652 -21.825588 43.383888
-15.32816 -7.635264 52.20636
-18.472258 -5.743446 48.670406
-16.645546 -3.842841 50.318901
-16.575878 6.095417 47.736008
-18.663134 4.163206 46.11187
-9.762907 -7.400892 57.115112
-8.182179 -11.029363 58.768543
-11.818105 -9.552151 55.685341
-13.818842 -11.541497 53.866314
-30.541582 -13.621858 34.4394
-24.591703 -2.16434 41.001171
-26.350458 -4.527247 39.222931
-27.593018 -0.284941 37.033257
-3.107689 -23.138647 61.768482
-5.287304 -25.640427 58.962349
-11.343328 -29.595076 48.65453
-8.528217 -31.285294 51.721313
-11.323769 -3.57171 55.115421
-14.752297 -1.705901 51.677036
-12.669014 0.138696 53.031136
-13.609387 4.104956 51.099285
-3.947049 -6.299707 60.995159
-7.866665 -5.064725 58.086605
3.923061 4.554486 63.356506
0.975239 8.256295 60.626999
-22.889263 -23.427874 38.7104
-25.24976 -18.900373 38.315159
-27.362991 -14.458148 37.444408
-29.404795 -10.144478 35.805279
-10.469744 -19.864166 55.663662
-8.733837 -24.05666 55.865208
-12.107523 -22.344778 52.59251
-13.302304 -24.991497 49.227772
-14.243367 -27.811409 45.683899
-19.790184 -24.844219 40.849327
-18.75754 -12.080532 48.184189
-21.93428 -10.285766 44.512207
-20.184536 -8.030369 46.84584
-21.572147 -3.962539 44.887562
-22.68766 0.009833 42.780327
-17.736687 0.138093 48.252892
-4.608126 -18.862267 61.311089
-4.096773 -12.471462 61.771294
-6.380361 -14.853403 60.241791
-8.608837 -17.311333 58.185379
-12.207928 -15.780277 54.97765
-15.574081 -13.885017 51.661964
-24.939297 -8.575743 40.991421
-27.827583 -7.241013 37.620865
-31.01263 -5.87365 33.872551
-32.384689 -1.839841 31.609257
-33.996315 -5.146432 30.191658
-7.174735 -28.511959 55.426567
-5.621685 -33.072186 54.826057
-6.938295 3.075036 56.722225
-7.101721 4.902055 56.125687
-5.806425 3.801071 57.33168
-6.586735 1.690947 57.328369
-7.962158 2.296625 56.180046
-5.1836 1.342727 58.383999
-5.896595 0.093263 58.210739
-4.752639 2.663644 58.343388
-3.697367 1.313473 59.381336
-4.451951 4.28799 58.128708
-20.723177 -15.876521 44.47974
-22.292967 -15.084857 42.830448
-21.639502 -13.81601 44.072639
-18.649834 -15.493184 47.327736
-17.766644 -17.59016 47.58717
-19.289145 -16.729658 45.971844
-19.716906 -18.143435 44.723309
-14.325812 -6.734282 53.080093
-16.005411 -5.740169 51.287971
-15.091003 -4.616881 52.005634
-11.630713 -6.550906 55.46246
-10.886035 -8.411018 56.358734
-12.593658 -7.5484 54.783222
-13.536139 -8.693867 54.050419
-31.562723 -11.458553 33.483688
-25.158028 -0.132185 39.900829
-26.073078 -1.186904 39.040951
-26.61162 0.789429 37.945309
-5.070773 -22.163057 60.299648
-4.219498 -24.296053 60.473698
-6.026599 -23.511532 58.991081
-11.885383 -31.028349 46.680832
-10.529234 -31.703268 48.269089
-12.744125 7.188514 51.069221
-11.514824 8.287932 51.850773
-7.049572 8.979533 55.123993
-8.592649 10.296899 53.661869
-10.405881 -2.540227 55.596947
-12.010093 -1.790518 54.109943
-11.135343 -0.755233 54.55159
-10.95718 4.158526 53.362934
-12.069392 3.037102 52.737122
-12.547916 5.135573 51.764603
-13.920815 6.247594 50.250744
-2.972429 -4.959032 61.342148
-7.760962 -2.276171 57.507877
-6.930441 -3.948346 58.497837
-8.701756 -3.34232 57.087959
-9.624403 -4.352509 56.632038
2.064818 4.08306 62.356388
3.60789 2.254243 63.72702
1.727927 1.908107 62.682312
-1.179806 5.27847 60.028885
-0.79709 7.535042 59.700031
0.696107 5.89219 61.061054
2.51081 6.44856 62.034359
-22.516296 -21.820456 39.7085
-24.061357 -21.191814 38.580063
-23.717253 -19.61318 39.485771
-25.307858 -13.50093 39.803886
-25.816967 -15.099557 38.868618
-26.839905 -12.968901 38.251904
-28.496601 -12.348016 36.606567
-27.823874 -10.783379 37.480274
-12.24739 -18.970848 53.989895
-11.297018 -21.073975 54.234142
-12.923844 -20.294035 52.609669
-15.750808 -22.055126 47.762581
-14.285034 -22.830765 49.321819
-14.812931 -24.281017 47.541996
-13.744876 -26.444229 47.478714
-15.254588 -25.566687 45.948128
-15.570704 -27.149361 44.330238
-16.638344 -24.778467 44.612743
-20.612961 -21.104475 42.03624
-19.459927 -23.368879 42.053814
-21.006809 -22.503839 40.86142
-21.352348 -24.015118 39.776573
-17.99966 -10.857734 49.30534
-19.608368 -10.109841 47.434814
-18.710043 -8.86497 48.588909
-19.10976 -3.848452 47.688995
-19.978714 -4.911425 46.868382
-20.642876 -2.869097 45.781349
-22.087601 -1.938328 43.926159
-21.233364 -0.735934 44.646893
-15.28154 0.109823 50.686665
-16.305601 -0.955155 49.995094
-16.738691 1.10573 48.987228
-19.729143 3.136571 45.263866
-3.986542 -9.373013 61.497089
-2.880992 -11.201332 62.43573
-4.990967 -10.626152 60.999325
-9.206841 -12.264906 58.029545
-7.306658 -12.920019 59.532433
-8.319482 -14.156042 58.74173
-7.414637 -16.145144 59.358921
-9.389677 -15.330118 57.757591
-10.492409 -16.529173 56.557407
-11.298416 -14.481406 56.098488
-15.46633 -10.773527 52.182983
-14.723811 -12.738173 52.822937
-16.432583 -11.908026 51.018505
-17.211483 -13.021854 49.894863
-22.620766 -8.189086 43.858841
-23.415688 -9.500823 42.768276
-24.129532 -7.325039 42.024906
-27.797604 -3.743091 37.413353
-27.20137 -5.781036 38.307129
-28.685287 -5.101746 36.512836
-29.496031 -6.492712 35.671638
-30.176403 -4.372593 34.68779
-33.279236 -3.502276 30.823378
-9.571186 -25.428659 54.118462
-7.899416 -26.230593 55.770378
-8.702581 -27.650364 53.925907
-7.677699 -33.657314 51.324387
-7.076205 -32.217087 53.257999
-6.30052 -34.528793 52.867947
-9.733996 5.170419 54.079327
-10.066601 7.165518 53.310478
-8.5078 6.080489 54.786671
-7.150337 6.882707 55.580757
-5.643045 7.590667 56.465744
-8.327848 -0.560074 56.658848
-10.002749 0.223299 55.186272
-8.958783 1.333968 55.690868
-9.407681 3.17032 54.857788
-3.305017 -1.750502 60.389381
-4.042875 -3.170764 60.251251
-5.05319 -1.55775 59.19416
-6.718472 -1.162092 57.96088
-1.591485 3.25322 60.271343
-0.250426 1.647125 61.519768
-2.075865 1.489516 60.394497
-2.542989 -0.26369 60.52042
-4.047033 8.555052 57.311462
-4.19167 6.265763 57.795666
-2.890023 4.699867 59.062664
-21.667383 -18.790911 42.005905
-23.247459 -18.086048 40.570915
-22.74757 -16.66605 41.688366
-23.79237 -14.274823 41.31324
-24.733992 -12.086556 40.767204
-15.563124 -17.178427 50.656006
-14.594712 -19.294655 50.958172
-16.229616 -18.452713 49.21793
-16.737518 -19.858608 47.767452
-17.200535 -21.286844 46.246162
-17.718899 -22.635286 44.655876
-18.708984 -20.397583 44.777847
-20.263969 -19.511007 43.309635
-16.198978 -8.767027 51.388569
-17.85651 -7.806304 49.537407
-16.996922 -6.727878 50.384911
-17.63125 -4.712039 49.441284
-18.20281 -2.777744 48.477234
-16.218414 4.120798 48.631912
-17.212681 3.177841 47.905334
-17.753828 5.286197 46.749241
-7.871964 -8.063481 58.645023
-7.026975 -9.891636 59.506657
-8.964153 -9.139044 57.982838
-9.976187 -10.288774 57.300949
-11.037487 -11.319578 56.466217
-12.117716 -12.490448 55.484058
-12.820098 -10.621434 54.838493
-14.546019 -9.623602 53.131271
-29.51733 -15.841782 35.185875
-23.990551 -4.035083 42.011433
-24.735605 -5.293153 41.230644
-25.494242 -3.275497 40.09745
-26.902946 -2.400342 38.275745
-28.397739 -1.689829 36.37101
-4.4732 -27.857178 58.931114
-10.821611 -28.204393 50.520363
-9.373002 -28.86763 52.180023
-9.906359 -30.409273 50.252003
-9.099346 -32.710136 49.767223
-10.139576 9.268133 52.727638
-12.357462 -4.62617 54.486282
-14.064338 -3.649436 52.774223
-13.070747 -2.670513 53.43079
-13.638837 -0.7873 52.441849
-14.305622 1.174721 51.288788
-11.615325 1.140019 53.640759
-13.181273 2.082622 52.040447
-14.749125 3.05037 50.34375
-15.022858 5.089121 49.525837
-4.921658 -7.667364 60.61483
-4.982302 -4.478613 59.93692
-5.926497 -5.809462 59.590603
-7.012122 -6.911443 59.06052
-8.805903 -6.194323 57.630947
-10.582122 -5.531173 56.133087
5.873321 5.083057 64.369102
1.157142 -0.072716 62.804546
4.467557 7.000303 63.067081
-26.843302 -18.407606 37.058517
-24.792809 -17.236115 39.286476
-26.35195 -16.64094 37.944447
-27.992413 -16.146627 36.527786
-28.970533 -14.044399 35.929958
-30.034906 -11.920468 35.058247
-30.881086 -9.731665 34.211803
-8.795353 -20.541851 57.200836
-7.874757 -22.612558 57.429996
-9.58779 -22.024218 55.80006
-10.499523 -23.123049 54.212601
-11.226239 -24.460234 52.51627
-13.630942 -21.482342 51.064339
-12.711273 -23.704336 50.960056
-11.795013 -25.95582 50.727642
-12.300597 -27.239498 49.028801
-12.797967 -28.624001 47.190025
-18.037336 -24.068346 43.298107
-19.551849 -13.194049 46.9161
-21.074545 -12.422565 45.176945
-20.415407 -11.163968 46.277882
-21.111113 -9.067391 45.674351
-21.775188 -7.021937 44.913425
-19.44536 -6.798332 47.673561
-20.954952 -5.927223 45.839794
-22.486408 -4.94255 43.92194
-23.111065 -2.897388 42.898781
-23.675613 -1.0293 41.863903
-15.615915 -2.798885 51.125626
-17.272726 -1.824614 49.241806
-18.785587 -0.732902 47.37748
-18.234335 2.128755 47.161575
-19.265511 1.121618 46.355354
-20.238674 0.13413 45.554272
-3.771062 -21.0903 61.640579
-5.731765 -20.202387 60.174934
-1.996694 -13.088625 63.169727
-3.126308 -14.31417 62.520771
-6.181719 -11.819803 60.295216
-5.245758 -13.76646 61.060059
-5.450345 -16.851803 60.853302
-6.69507 -18.20665 59.711975
-7.64158 -19.407505 58.645039
-9.562235 -18.559786 57.00861
-11.3589 -17.827854 55.359386
-13.08808 -16.858231 53.74276
-13.032259 -13.651428 54.489845
-13.906028 -14.769119 53.368004
-14.679273 -15.974896 52.166367
-16.379278 -15.103593 50.367199
-18.05205 -14.15883 48.552189
-22.486895 -11.735385 43.560268
-24.071335 -10.825632 41.78598
-25.620697 -9.99872 40.056946
-25.617426 -6.473927 40.217026
-26.385202 -7.906486 39.298328
-27.181 -9.335608 38.31152
-28.656925 -8.542049 36.670902
-30.205196 -7.985024 34.927872
-31.759548 -7.54753 33.145397
-29.095337 0.317899 35.100601
-29.999214 -1.005925 34.325455
-31.468325 -0.388482 32.411896
-30.860443 -2.400672 33.571327
-31.730082 -3.861214 32.774586
-32.48085 -5.420044 32.091526
-33.164402 -7.302898 31.485771
-7.023277 -24.825504 57.450401
-6.221461 -27.125782 57.310547
-5.467034 -29.180241 57.194839
-7.886205 -29.937111 53.59235
-6.352774 -30.727829 55.221138
-4.833075 -31.513369 56.778748
-32.678292 -10.230511 32.250687
-32.283527 -11.284841 32.702554
-31.957488 -10.404223 33.031822
-33.115341 -9.199674 31.685337
-32.678292 -10.230511 32.250687
-26.133951 1.397155 38.352508
-25.884824 0.328622 38.923069
-25.407155 0.936348 39.330269
-11.410446 -32.107278 46.576718
-12.084283 -31.743136 45.833853
-7.025659 10.182977 54.837895
-6.318395 9.424931 55.526415
-2.611589 -4.222003 61.406883
-1.995855 -5.08181 61.976389
-6.629078 -35.207422 51.860823
-6.989109 -34.093053 52.096167
-7.317667 -34.771682 51.089043
-5.938185 -35.656894 52.65371
-6.629078 -35.207422 51.860823
-30.784223 -14.538774 34.137964
-30.272098 -15.648736 34.511202
-30.029456 -14.73182 34.812638
-2.714644 -24.183084 61.844856
-2.126397 -23.497527 62.491777
-4.355868 -26.026553 59.753418
-3.821966 -25.354367 60.509092
-4.753401 -24.96824 59.718024
-4.880252 -26.748803 58.946731
-3.948817 -27.134929 59.7378
-4.355868 -26.026553 59.753418
-9.35754 -33.378135 48.836796
-9.81429 -32.206702 49.018156
-10.072484 -32.874702 48.087728
-8.705825 -33.857969 49.530124
-9.35754 -33.378135 48.836796
-9.372958 11.012291 52.882698
-8.584154 11.533399 53.357949
-14.659533 6.730195 49.430385
-14.037055 7.288535 49.881464
-3.405545 -7.228399 61.508642
-2.93938 -6.561603 61.681862
-4.434354 -6.983536 60.804994
-3.892849 -7.912228 61.318478
-3.405545 -7.228399 61.508642
4.758162 3.644645 64.062862
5.733292 3.90893 64.56916
4.898191 4.818772 63.862804
4.292839 1.331722 64.34026
3.351423 1.165511 63.830774
-2.454785 8.074953 58.489199
-3.201005 8.901967 57.783075
-3.300813 7.728039 58.017585
0.196185 9.09804 59.919796
-0.689979 8.737414 59.456312
0.089075 7.895668 60.163515
1.091615 9.513119 60.367789
0.196185 9.09804 59.919796
1.87609 8.546584 61.102466
1.091615 9.513119 60.367789
-23.666317 -23.116831 38.215479
-23.131479 -24.245456 38.231749
-25.444288 -19.766857 37.887333
-24.850086 -20.912578 38.019785
-24.655558 -20.046093 38.447611
-26.046531 -18.65399 37.686838
-26.241059 -19.520474 37.259012
-25.444288 -19.766857 37.887333
-13.712914 -28.996855 45.538688
-12.990214 -29.403151 46.291752
-13.520667 -28.217705 46.436962
-14.387978 -28.566858 44.910443
-13.712914 -28.996855 45.538688
-15.783841 -27.839126 43.565498
-16.2797 -26.669571 43.75338
-19.101484 -25.131903 41.419069
-18.936356 -24.394233 42.021313
-19.625056 -24.106549 41.451571
-19.276618 -25.927072 40.764597
-19.101484 -25.131903 41.419069
-20.019575 -25.516342 40.284485
-19.276618 -25.927072 40.764597
-22.330712 -24.543653 38.707411
-21.562255 -24.837276 39.240498
-22.120805 -23.721496 39.243487
-23.131479 -24.245456 38.231749
-22.330712 -24.543653 38.707411
-23.43034 0.517903 41.779013
-23.924316 -0.001664 41.320801
-23.181636 -0.509734 42.322115
-19.984092 1.647422 45.410692
-19.497327 2.129094 45.80961
-20.215908 2.654898 44.864948
-20.470674 1.153678 45.010151
-19.752092 0.627874 45.954813
-19.984092 1.647422 45.410692
-20.975268 0.635257 44.58349
-20.470674 1.153678 45.010151
-4.189594 -19.976284 61.475834
-3.187385 -20.368956 62.185761
-3.605918 -19.254939 62.021016
-5.360815 -15.225833 60.97855
-4.793514 -14.682361 61.387684
-5.813059 -14.309932 60.650925
-5.915353 -15.852603 60.547546
-4.895808 -16.225033 61.284306
-5.360815 -15.225833 60.97855
-29.882607 0.714029 34.052354
-29.375807 1.402806 34.470693
-30.334546 0.052117 33.664782
-29.547275 -0.344013 34.713028
-29.882607 0.714029 34.052354
-31.926507 -1.114162 32.010576
-32.250331 -0.065831 31.359077
-32.708513 -0.791511 30.957757
-34.29748 -6.022726 29.929741
-33.881523 -7.100959 30.576797
-33.580359 -6.224665 30.838715
-4.874061 -33.450699 55.639437
-4.479756 -32.67129 56.615782
-5.22738 -32.292777 55.802402
-17.270885 6.705761 46.855932
-16.716642 7.202523 47.306259
-31.839902 -12.346109 33.181534
-31.329331 -13.427761 33.65939
-31.052152 -12.540205 33.961544
-31.839902 -12.346109 33.181534
-32.283527 -11.284841 32.702554
-10.732372 -32.444738 47.370846
-11.207308 -31.365808 47.474961
-11.410446 -32.107278 46.576718
-10.072484 -32.874702 48.087728
-10.732372 -32.444738 47.370846
-12.828067 8.289741 50.72319
-13.44871 7.758995 50.290702
-12.213417 8.83945 51.113966
-12.828067 8.289741 50.72319
-12.129475 7.738223 51.459997
-11.556006 9.38099 51.546186
-12.213417 8.83945 51.113966
-7.797197 10.84166 54.106833
-7.82111 9.638216 54.392931
-7.025659 10.182977 54.837895
-8.584154 11.533399 53.357949
-7.797197 10.84166 54.106833
-13.44871 7.758995 50.290702
-14.037055 7.288535 49.881464
-13.33247 6.718054 50.659982
-2.452071 -5.891265 61.855356
-1.995855 -5.08181 61.976389
-3.459739 -5.629369 61.168654
-2.93938 -6.561603 61.681862
-2.452071 -5.891265 61.855356
2.411442 0.992443 63.30842
3.351423 1.165511 63.830774
2.667908 2.081175 63.204666
-0.113173 -1.117162 62.257694
-1.055194 -1.130624 61.675854
-16.81352 -25.484124 43.894632
-16.2797 -26.669571 43.75338
-16.104524 -25.963914 44.471491
-19.927318 4.126894 44.75428
-19.196138 3.649888 45.687868
-19.394313 4.640211 45.178282
-20.452559 3.689493 44.29413
-19.927318 4.126894 44.75428
-20.215908 2.654898 44.864948
-20.452559 3.689493 44.29413
-3.988051 -18.256172 61.824337
-3.605918 -19.254939 62.021016
-3.433767 -10.287173 61.966409
-2.413714 -10.579228 62.650242
-2.966489 -9.665069 62.180921
-33.108288 -1.641428 30.653287
-32.708513 -0.791511 30.957757
-33.555561 -2.472645 30.260348
-32.831963 -2.671059 31.216318
-33.108288 -1.641428 30.653287
-33.985233 -3.286684 29.873018
-33.555561 -2.472645 30.260348
-34.343773 -4.108763 29.557158
-33.637776 -4.324354 30.507518
-33.985233 -3.286684 29.873018
-34.681866 -5.04513 29.273291
-34.343773 -4.108763 29.557158
-5.573574 -34.974468 53.677488
-5.234156 -34.246165 54.656543
-5.961102 -33.800489 53.847002
-5.573574 -34.974468 53.677488
-5.938185 -35.656894 52.65371
-5.615132 8.730498 56.197291
-6.318395 9.424931 55.526415
-6.346309 8.2851 55.794868
-3.673946 -2.460633 60.320316
-3.146812 -3.32787 60.861435
-2.777883 -2.617738 60.9305
-1.956463 -1.150079 61.10577
-1.055194 -1.130624 61.675854
-1.64172 -0.244236 61.090503
-2.337477 -1.893485 61.04025
-1.956463 -1.150079 61.10577
-2.924003 -1.007096 60.454901
-2.777883 -2.617738 60.9305
-2.337477 -1.893485 61.04025
-4.845039 8.072859 56.888603
-4.817125 9.212691 56.620149
-5.615132 8.730498 56.197291
-17.859859 6.301151 46.362549
-17.164853 5.690807 47.242624
-17.270885 6.705761 46.855932
-18.445101 5.769287 45.87857
-17.859859 6.301151 46.362549
-18.899754 5.207791 45.559885
-18.208481 4.724702 46.430555
-18.445101 5.769287 45.87857
-19.394313 4.640211 45.178282
-18.899754 5.207791 45.559885
-29.758242 -16.724774 34.863858
-28.973006 -16.95967 35.488707
-29.758242 -16.724774 34.863858
-30.272098 -15.648736 34.511202
-30.784223 -14.538774 34.137964
-31.329331 -13.427761 33.65939
-3.270548 -24.761788 61.197464
-2.714644 -24.183084 61.844856
-3.663594 -23.71735 61.12109
-3.270548 -24.761788 61.197464
-3.821966 -25.354367 60.509092
-3.63277 -28.256799 59.651136
-3.948817 -27.134929 59.7378
-4.130951 -29.068025 58.785145
-3.63277 -28.256799 59.651136
-7.995001 -34.331558 50.308706
-8.388523 -33.183725 50.545805
-8.705825 -33.857969 49.530124
-7.317667 -34.771682 51.089043
-7.995001 -34.331558 50.308706
-10.868382 9.87109 51.984619
-11.556006 9.38099 51.546186
-10.8272 8.778033 52.289205
-10.146421 10.497909 52.415582
-9.366112 9.782516 53.194754
-9.372958 11.012291 52.882698
-10.868382 9.87109 51.984619
-10.146421 10.497909 52.415582
-15.210555 6.150958 49.067932
-14.471836 5.668357 49.88829
-14.659533 6.730195 49.430385
-15.987064 6.654107 48.173018
-15.799368 5.592269 48.630922
-15.210555 6.150958 49.067932
-16.716642 7.202523 47.306259
-15.987064 6.654107 48.173018
-3.425292 -8.765052 61.759607
-2.966489 -9.665069 62.180921
-4.4541 -8.520188 61.05596
-3.425292 -8.765052 61.759607
-3.892849 -7.912228 61.318478
-3.507652 -4.064898 60.7967
-2.611589 -4.222003 61.406883
-3.146812 -3.32787 60.861435
6.701225 4.135746 65.06195
6.862491 5.36882 64.861618
6.701225 4.135746 65.06195
5.733292 3.90893 64.56916
4.600576 2.494523 64.248119
4.758162 3.644645 64.062862
3.765475 3.404364 63.541763
4.600576 2.494523 64.248119
4.292839 1.331722 64.34026
2.126049 0.002031 63.369537
2.411442 0.992443 63.30842
1.442534 0.917695 62.743429
0.835624 -1.041129 62.829673
0.208345 -0.148749 62.232567
-0.113173 -1.117162 62.257694
1.803907 -0.9807 63.399744
0.835624 -1.041129 62.829673
2.126049 0.002031 63.369537
1.803907 -0.9807 63.399744
-3.983607 9.729143 57.054271
-4.817125 9.212691 56.620149
-3.983607 9.729143 57.054271
-3.201005 8.901967 57.783075
-1.576034 8.391962 58.97736
-2.454785 8.074953 58.489199
-1.675841 7.218033 59.21187
-1.576034 8.391962 58.97736
-0.689979 8.737414 59.456312
2.643876 7.642717 61.806146
1.87609 8.546584 61.102466
1.743025 7.352427 61.330679
3.622249 7.918589 62.322508
2.643876 7.642717 61.806146
3.489184 6.724431 62.55072
4.579232 8.323671 62.789434
3.622249 7.918589 62.322508
5.41048 7.309042 63.541131
4.579232 8.323671 62.789434
6.113362 6.350419 64.192142
5.41048 7.309042 63.541131
5.170439 6.04168 63.718091
6.862491 5.36882 64.861618
6.113362 6.350419 64.192142
-24.252364 -21.998801 38.150311
-23.666317 -23.116831 38.215479
-23.47531 -22.309844 38.645232
-24.252364 -21.998801 38.150311
-24.850086 -20.912578 38.019785
-27.077836 -19.306447 36.659078
-26.241059 -19.520474 37.259012
-27.635992 -18.242582 36.425027
-27.077836 -19.306447 36.659078
-28.210547 -17.112092 36.159662
-27.635992 -18.242582 36.425027
-27.417858 -17.277116 36.793152
-28.754872 -15.994204 35.856831
-28.973006 -16.95967 35.488707
-28.210547 -17.112092 36.159662
-12.533922 -30.605325 46.037155
-12.341675 -29.826175 46.935429
-12.990214 -29.403151 46.291752
-12.084283 -31.743136 45.833853
-12.533922 -30.605325 46.037155
-15.051647 -28.235833 44.233612
-14.387978 -28.566858 44.910443
-14.907035 -27.480385 45.007069
-15.051647 -28.235833 44.233612
-15.783841 -27.839126 43.565498
-17.513016 -25.129064 43.237314
-16.81352 -25.484124 43.894632
-17.33784 -24.423406 43.955425
-18.22506 -24.743967 42.643459
-18.748632 -23.718612 42.675961
-18.936356 -24.394233 42.021313
-17.513016 -25.129064 43.237314
-18.22506 -24.743967 42.643459
-20.800657 -25.101792 39.748108
-20.019575 -25.516342 40.284485
-20.571266 -24.429668 40.31295
-20.800657 -25.101792 39.748108
-21.562255 -24.837276 39.240498
-24.665523 0.446894 40.339264
-24.416821 -0.580743 40.882366
-23.924316 -0.001664 41.320801
-25.407155 0.936348 39.330269
-24.665523 0.446894 40.339264
-21.472613 0.200225 44.129801
-20.736019 -0.300902 45.100583
-20.975268 0.635257 44.58349
-22.199761 0.573109 43.196518
-21.960512 -0.36305 43.71361
-21.472613 0.200225 44.129801
-22.948489 1.081646 42.187157
-22.199761 0.573109 43.196518
-23.43034 0.517903 41.779013
-22.948489 1.081646 42.187157
-2.423354 -22.443985 62.440296
-2.126397 -23.497527 62.491777
-2.755041 -21.419812 62.376345
-3.187385 -20.368956 62.185761
-3.439376 -22.114473 61.704531
-2.423354 -22.443985 62.440296
-2.755041 -21.419812 62.376345
-1.836887 -11.499827 63.111688
-2.413714 -10.579228 62.650242
-1.394738 -12.443473 63.478687
-1.836887 -11.499827 63.111688
-2.438843 -12.144979 62.802729
-0.969067 -13.394286 63.817858
-1.394738 -12.443473 63.478687
-1.516179 -14.09505 63.52803
-0.969067 -13.394286 63.817858
-2.080986 -14.707823 63.203552
-1.516179 -14.09505 63.52803
-2.561501 -13.701398 62.845249
-2.740918 -15.312392 62.794474
-2.080986 -14.707823 63.203552
-3.733789 -14.956217 62.11804
-4.186033 -14.040315 61.790415
-4.793514 -14.682361 61.387684
-2.740918 -15.312392 62.794474
-3.733789 -14.956217 62.11804
-4.409161 -17.25094 61.595444
-4.895808 -16.225033 61.284306
-5.029236 -17.857035 61.082195
-3.988051 -18.256172 61.824337
-4.409161 -17.25094 61.595444
-26.883851 1.904189 37.31452
-26.133951 1.397155 38.352508
-27.364974 1.236082 36.929642
-26.883851 1.904189 37.31452
-27.855673 0.698897 36.473616
-27.102319 0.252244 37.489283
-27.364974 1.236082 36.929642
-28.606833 1.000317 35.507288
-29.375807 1.402806 34.470693
-28.344178 0.016479 36.066929
-27.855673 0.698897 36.473616
-28.606833 1.000317 35.507288
-31.768421 0.715939 31.750366
-32.250331 -0.065831 31.359077
-31.069102 0.360838 32.708002
-31.768421 0.715939 31.750366
-30.73377 -0.697203 33.368675
-30.334546 0.052117 33.664782
-31.069102 0.360838 32.708002
-33.521416 -8.176177 31.138244
-33.115341 -9.199674 31.685337
-32.758328 -8.326396 32.032864
-33.521416 -8.176177 31.138244
-33.881523 -7.100959 30.576797
-34.29748 -6.022726 29.929741
-34.681866 -5.04513 29.273291
-4.627868 -29.729557 57.917007
-4.130951 -29.068025 58.785145
-4.970117 -28.518709 58.062977
-4.310888 -30.896121 57.708962
-4.627868 -29.729557 57.917007
-5.150054 -30.346805 56.986794
-3.962728 -31.986412 57.615357
-4.310888 -30.896121 57.708962
-3.962728 -31.986412 57.615357
-4.479756 -32.67129 56.615782
-4.874061 -33.450699 55.639437
-5.234156 -34.246165 54.656543
3 0 93 91
3 0 91 94
3 0 94 96
3 0 96 98
3 0 98 93
3 1 103 101
3 1 106 104
3 1 101 106
3 2 110 108
3 2 113 111
3 2 108 113
3 4 362 364
3 364 363 115
3 362 363 364
3 4 365 366
3 367 118 368
3 369 368 116
3 367 368 369
3 3 121 119
3 371 370 122
3 5 125 124
3 373 372 126
3 6 130 128
3 5 133 131
3 5 124 133
3 374 135 375
3 6 138 136
3 6 128 138
3 9 142 140
3 9 145 143
3 9 140 145
3 10 149 147
3 11 152 150
3 11 154 152
3 12 157 155
3 14 160 158
3 14 162 160
3 14 164 162
3 10 167 165
3 10 147 167
3 15 171 169
3 17 174 172
3 17 176 174
3 7 179 177
3 8 183 181
3 18 186 184
3 18 188 186
3 18 190 188
3 15 193 191
3 15 169 193
3 16 197 195
3 19 200 198
3 19 202 200
3 13 206 204
3 376 209 377
3 378 377 207
3 376 377 378
3 380 379 209
3 20 212 210
3 22 213 92
3 22 214 213
3 23 217 215
3 20 218 95
3 20 210 218
3 25 221 219
3 23 222 97
3 23 215 222
3 27 225 223
3 25 226 99
3 25 219 226
3 22 228 214
3 27 229 100
3 27 223 229
3 30 232 230
3 32 233 102
3 32 234 233
3 33 237 235
3 35 238 105
3 35 239 238
3 35 241 239
3 30 242 107
3 30 230 242
3 37 245 243
3 39 246 109
3 39 247 246
3 40 250 248
3 42 253 251
3 44 254 112
3 44 255 254
3 44 257 255
3 37 258 114
3 37 243 258
3 46 381 383
3 383 382 259
3 381 382 383
3 47 262 260
3 49 263 117
3 49 264 263
3 50 384 385
3 51 386 388
3 388 387 120
3 386 387 388
3 51 389 391
3 389 265 390
3 389 390 391
3 52 268 266
3 392 269 393
3 394 393 123
3 392 393 394
3 396 395 269
3 21 270 211
3 398 397 127
3 54 273 271
3 56 274 129
3 56 275 274
3 24 276 216
3 57 277 132
3 57 278 277
3 57 279 278
3 400 399 134
3 58 401 402
3 58 403 405
3 403 280 404
3 403 404 405
3 26 281 220
3 59 282 137
3 59 283 282
3 59 284 283
3 54 285 139
3 54 271 285
3 60 406 408
3 408 407 286
3 406 407 408
3 410 409 141
3 28 287 224
3 29 411 413
3 413 412 227
3 411 412 413
3 61 414 416
3 416 415 144
3 414 415 416
3 61 417 418
3 61 419 420
3 60 288 146
3 60 286 288
3 62 421 422
3 63 423 425
3 425 424 148
3 423 424 425
3 63 426 428
3 426 289 427
3 426 427 428
3 31 290 231
3 64 291 151
3 64 292 291
3 64 293 292
3 65 294 153
3 65 295 294
3 66 298 296
3 68 299 156
3 68 300 299
3 34 301 236
3 69 302 159
3 69 303 302
3 69 304 303
3 70 305 161
3 70 429 431
3 431 430 305
3 429 430 431
3 70 432 433
3 435 434 163
3 36 306 240
3 71 436 438
3 438 437 166
3 436 437 438
3 71 439 440
3 71 441 442
3 62 443 445
3 445 444 168
3 443 444 445
3 62 446 447
3 72 309 307
3 74 310 170
3 74 311 310
3 38 312 244
3 75 313 173
3 75 314 313
3 75 315 314
3 76 316 175
3 76 448 450
3 450 449 316
3 448 449 450
3 55 317 272
3 77 318 178
3 77 319 318
3 41 320 249
3 451 321 452
3 453 452 180
3 451 452 453
3 454 322 455
3 456 455 321
3 454 455 456
3 458 457 322
3 78 459 461
3 459 323 460
3 459 460 461
3 78 324 323
3 79 325 182
3 79 326 325
3 43 327 252
3 80 328 185
3 80 462 464
3 464 463 328
3 462 463 464
3 80 465 467
3 465 329 466
3 465 466 467
3 81 330 187
3 81 331 330
3 81 332 331
3 82 333 189
3 82 334 333
3 45 335 256
3 83 336 192
3 83 337 336
3 83 338 337
3 72 339 194
3 72 307 339
3 73 340 308
3 84 341 196
3 84 342 341
3 48 343 261
3 85 344 199
3 85 345 344
3 85 346 345
3 86 347 201
3 86 348 347
3 468 349 469
3 470 350 471
3 472 471 349
3 470 471 472
3 87 473 475
3 473 351 474
3 473 474 475
3 87 352 351
3 87 353 352
3 88 354 203
3 88 355 354
3 88 476 478
3 478 477 355
3 476 477 478
3 67 356 297
3 89 357 205
3 89 358 357
3 53 359 267
3 90 360 208
3 90 361 360
3 90 479 481
3 481 480 361
3 479 480 481
3 91 92 20
3 93 92 91
3 93 22 92
3 94 95 23
3 91 95 94
3 91 20 95
3 96 97 25
3 94 97 96
3 94 23 97
3 98 99 27
3 96 99 98
3 96 25 99
3 93 100 22
3 98 100 93
3 98 27 100
3 101 102 30
3 103 102 101
3 103 32 102
3 104 105 33
3 106 105 104
3 106 35 105
3 106 107 35
3 101 107 106
3 101 30 107
3 108 109 37
3 110 109 108
3 110 39 109
3 483 482 40
3 111 112 42
3 113 112 111
3 113 44 112
3 113 114 44
3 108 114 113
3 108 37 114
3 115 484 486
3 486 485 46
3 484 485 486
3 488 487 115
3 116 117 47
3 118 117 116
3 118 49 117
3 119 120 50
3 121 120 119
3 121 51 120
3 122 123 52
3 489 123 490
3 491 490 122
3 489 490 491
3 493 492 123
3 124 494 495
3 125 496 498
3 498 497 124
3 496 497 498
3 125 499 500
3 126 127 21
3 501 127 502
3 503 502 126
3 501 502 503
3 505 504 127
3 128 129 54
3 130 129 128
3 130 56 129
3 131 132 24
3 133 132 131
3 133 57 132
3 133 134 57
3 124 134 133
3 124 506 508
3 508 507 134
3 506 507 508
3 135 509 510
3 135 511 513
3 511 58 512
3 511 512 513
3 136 137 26
3 138 137 136
3 138 59 137
3 138 139 59
3 128 139 138
3 128 54 139
3 140 141 60
3 142 141 140
3 142 514 516
3 516 515 141
3 514 515 516
3 518 517 28
3 143 144 29
3 145 144 143
3 145 61 144
3 145 146 61
3 140 146 145
3 140 60 146
3 147 148 62
3 149 148 147
3 149 63 148
3 150 151 31
3 152 151 150
3 152 64 151
3 152 153 64
3 154 153 152
3 154 65 153
3 155 156 66
3 157 156 155
3 157 68 156
3 158 159 34
3 160 159 158
3 160 69 159
3 160 161 69
3 162 161 160
3 162 70 161
3 162 163 70
3 164 163 162
3 164 519 521
3 521 520 163
3 519 520 521
3 165 166 36
3 167 166 165
3 167 71 166
3 167 168 71
3 147 168 167
3 147 62 168
3 169 170 72
3 171 170 169
3 171 74 170
3 172 173 38
3 174 173 172
3 174 75 173
3 174 175 75
3 176 175 174
3 176 76 175
3 177 178 55
3 179 178 177
3 179 77 178
3 522 180 523
3 524 523 41
3 522 523 524
3 525 180 526
3 528 527 180
3 529 78 530
3 181 531 533
3 531 182 532
3 531 532 533
3 183 182 181
3 183 79 182
3 184 185 43
3 186 185 184
3 186 80 185
3 186 187 80
3 188 187 186
3 188 81 187
3 188 189 81
3 190 189 188
3 190 82 189
3 191 192 45
3 193 192 191
3 193 83 192
3 193 194 83
3 169 194 193
3 169 72 194
3 195 196 73
3 197 196 195
3 197 84 196
3 198 199 48
3 200 199 198
3 200 85 199
3 200 201 85
3 202 201 200
3 202 86 201
3 534 87 535
3 536 203 537
3 538 537 87
3 536 537 538
3 539 203 540
3 541 88 542
3 543 542 203
3 541 542 543
3 545 544 88
3 204 205 67
3 206 205 204
3 206 89 205
3 207 208 53
3 209 208 207
3 209 90 208
3 209 546 548
3 548 547 90
3 546 547 548
3 550 549 209
3 210 211 5
3 212 211 210
3 212 21 211
3 92 212 20
3 213 212 92
3 213 21 212
3 213 126 21
3 214 126 213
3 214 551 553
3 553 552 126
3 551 552 553
3 215 216 6
3 217 216 215
3 217 24 216
3 95 217 23
3 218 217 95
3 218 24 217
3 218 131 24
3 210 131 218
3 210 5 131
3 219 554 556
3 554 220 555
3 554 555 556
3 221 220 219
3 221 26 220
3 97 221 25
3 222 221 97
3 222 26 221
3 222 136 26
3 215 136 222
3 215 6 136
3 223 224 9
3 225 224 223
3 225 28 224
3 99 225 27
3 226 225 99
3 226 28 225
3 226 557 559
3 559 558 28
3 557 558 559
3 219 560 562
3 562 561 226
3 560 561 562
3 219 563 564
3 214 565 567
3 565 227 566
3 565 566 567
3 228 227 214
3 228 29 227
3 100 228 22
3 229 228 100
3 229 29 228
3 229 143 29
3 223 143 229
3 223 9 143
3 230 231 10
3 232 231 230
3 232 31 231
3 102 232 30
3 233 232 102
3 233 31 232
3 233 150 31
3 234 150 233
3 234 11 150
3 235 236 12
3 237 236 235
3 237 34 236
3 105 237 33
3 238 237 105
3 238 34 237
3 238 158 34
3 239 158 238
3 239 14 158
3 239 240 14
3 241 240 239
3 241 36 240
3 107 241 35
3 242 241 107
3 242 36 241
3 242 165 36
3 230 165 242
3 230 10 165
3 243 244 15
3 245 244 243
3 245 38 244
3 109 245 37
3 246 245 109
3 246 38 245
3 246 172 38
3 247 172 246
3 247 17 172
3 248 249 7
3 250 249 248
3 250 41 249
3 568 250 569
3 570 569 40
3 568 569 570
3 571 250 572
3 573 41 574
3 575 574 250
3 573 574 575
3 577 576 41
3 251 252 8
3 253 252 251
3 253 43 252
3 112 253 42
3 254 253 112
3 254 43 253
3 254 184 43
3 255 184 254
3 255 18 184
3 255 256 18
3 257 256 255
3 257 45 256
3 114 257 44
3 258 257 114
3 258 45 257
3 258 191 45
3 243 191 258
3 243 15 191
3 259 578 579
3 581 580 259
3 583 582 46
3 260 261 16
3 262 261 260
3 262 48 261
3 117 262 47
3 263 262 117
3 263 48 262
3 263 198 48
3 264 198 263
3 264 19 198
3 120 584 586
3 586 585 50
3 584 585 586
3 588 587 120
3 265 589 590
3 265 591 592
3 266 267 13
3 268 267 266
3 268 53 267
3 123 268 52
3 269 268 123
3 269 53 268
3 269 207 53
3 593 207 594
3 595 594 269
3 593 594 595
3 597 596 207
3 211 125 5
3 270 125 211
3 270 598 600
3 600 599 125
3 598 599 600
3 127 270 21
3 601 270 602
3 603 602 127
3 601 602 603
3 605 604 270
3 271 272 2
3 273 272 271
3 273 55 272
3 129 273 54
3 274 273 129
3 274 55 273
3 274 177 55
3 275 177 274
3 275 7 177
3 216 130 6
3 276 130 216
3 276 56 130
3 132 276 24
3 277 276 132
3 277 56 276
3 277 275 56
3 278 275 277
3 278 7 275
3 278 248 7
3 279 248 278
3 279 40 248
3 134 279 57
3 606 279 607
3 608 607 134
3 606 607 608
3 609 40 610
3 611 610 279
3 609 610 611
3 613 612 40
3 614 181 615
3 280 616 618
3 616 181 617
3 616 617 618
3 280 8 181
3 220 619 621
3 619 135 620
3 619 620 621
3 281 135 220
3 281 58 135
3 137 281 26
3 282 281 137
3 282 58 281
3 282 280 58
3 283 280 282
3 283 8 280
3 283 251 8
3 284 251 283
3 284 42 251
3 139 284 59
3 285 284 139
3 285 42 284
3 285 111 42
3 271 111 285
3 271 2 111
3 286 622 623
3 625 624 286
3 141 626 628
3 628 627 60
3 626 627 628
3 630 629 141
3 224 142 9
3 287 142 224
3 287 631 633
3 633 632 142
3 631 632 633
3 634 287 635
3 636 635 28
3 634 635 636
3 637 287 638
3 640 639 287
3 227 641 642
3 644 643 227
3 144 645 647
3 647 646 29
3 645 646 647
3 649 648 144
3 146 650 652
3 652 651 61
3 650 651 652
3 288 653 655
3 655 654 146
3 653 654 655
3 288 656 657
3 288 658 659
3 286 660 662
3 662 661 288
3 660 661 662
3 286 663 664
3 148 665 667
3 667 666 62
3 665 666 667
3 669 668 148
3 289 670 671
3 289 672 673
3 231 149 10
3 290 149 231
3 290 63 149
3 151 290 31
3 291 290 151
3 291 63 290
3 291 289 63
3 292 289 291
3 292 674 676
3 676 675 289
3 674 675 676
3 292 677 679
3 677 259 678
3 677 678 679
3 293 259 292
3 293 46 259
3 153 293 64
3 294 293 153
3 294 46 293
3 294 115 46
3 295 115 294
3 295 4 115
3 296 297 3
3 298 297 296
3 298 67 297
3 156 298 66
3 299 298 156
3 299 67 298
3 299 204 67
3 300 204 299
3 300 13 204
3 236 157 12
3 301 157 236
3 301 68 157
3 159 301 34
3 302 301 159
3 302 68 301
3 302 300 68
3 303 300 302
3 303 13 300
3 303 266 13
3 304 266 303
3 304 52 266
3 161 304 69
3 305 304 161
3 305 52 304
3 305 122 52
3 680 122 681
3 682 681 305
3 680 681 682
3 684 683 122
3 163 685 687
3 687 686 70
3 685 686 687
3 689 688 163
3 240 164 14
3 306 164 240
3 306 690 692
3 692 691 164
3 690 691 692
3 166 306 36
3 693 306 694
3 695 694 166
3 693 694 695
3 697 696 306
3 168 698 700
3 700 699 71
3 698 699 700
3 702 701 168
3 307 308 1
3 309 308 307
3 309 73 308
3 170 309 72
3 310 309 170
3 310 73 309
3 310 195 73
3 311 195 310
3 311 16 195
3 244 171 15
3 312 171 244
3 312 74 171
3 173 312 38
3 313 312 173
3 313 74 312
3 313 311 74
3 314 311 313
3 314 16 311
3 314 260 16
3 315 260 314
3 315 47 260
3 175 315 75
3 316 315 175
3 316 47 315
3 316 116 47
3 703 116 704
3 705 704 316
3 703 704 705
3 707 706 116
3 272 110 2
3 317 110 272
3 317 39 110
3 178 317 55
3 318 317 178
3 318 39 317
3 318 247 39
3 319 247 318
3 319 17 247
3 249 179 7
3 320 179 249
3 320 77 179
3 180 320 41
3 321 320 180
3 321 77 320
3 321 319 77
3 322 319 321
3 322 17 319
3 322 176 17
3 708 176 709
3 710 709 322
3 708 709 710
3 711 76 712
3 713 712 176
3 711 712 713
3 714 76 715
3 717 716 76
3 718 50 719
3 323 720 721
3 323 722 724
3 722 50 723
3 722 723 724
3 323 119 50
3 324 119 323
3 324 3 119
3 182 725 726
3 325 727 729
3 729 728 182
3 727 728 729
3 325 730 731
3 325 732 733
3 326 734 736
3 736 735 325
3 734 735 736
3 326 737 738
3 252 183 8
3 327 183 252
3 327 79 183
3 185 327 43
3 328 327 185
3 328 79 327
3 328 326 79
3 739 326 740
3 741 740 328
3 739 740 741
3 743 742 326
3 329 744 745
3 329 746 748
3 746 78 747
3 746 747 748
3 187 329 80
3 330 329 187
3 330 78 329
3 330 324 78
3 331 324 330
3 331 3 324
3 331 296 3
3 332 296 331
3 332 66 296
3 189 332 81
3 333 332 189
3 333 66 332
3 333 155 66
3 334 155 333
3 334 12 155
3 256 190 18
3 335 190 256
3 335 82 190
3 192 335 45
3 336 335 192
3 336 82 335
3 336 334 82
3 337 334 336
3 337 12 334
3 337 235 12
3 338 235 337
3 338 33 235
3 194 338 83
3 339 338 194
3 339 33 338
3 339 104 33
3 307 104 339
3 307 1 104
3 308 103 1
3 340 103 308
3 340 32 103
3 196 340 73
3 341 340 196
3 341 32 340
3 341 234 32
3 342 234 341
3 342 11 234
3 261 197 16
3 343 197 261
3 343 84 197
3 199 343 48
3 344 343 199
3 344 84 343
3 344 342 84
3 345 342 344
3 345 11 342
3 345 154 11
3 346 154 345
3 346 65 154
3 201 346 85
3 347 346 201
3 347 65 346
3 347 295 65
3 348 295 347
3 348 4 295
3 749 118 750
3 751 118 752
3 753 49 754
3 755 754 118
3 753 754 755
3 349 756 757
3 349 758 760
3 758 49 759
3 758 759 760
3 349 264 49
3 350 264 349
3 350 19 264
3 351 761 762
3 351 763 764
3 351 765 767
3 765 350 766
3 765 766 767
3 352 350 351
3 352 19 350
3 352 202 19
3 353 202 352
3 353 86 202
3 203 353 87
3 354 353 203
3 354 86 353
3 354 348 86
3 355 348 354
3 355 4 348
3 355 768 770
3 770 769 4
3 768 769 770
3 772 771 355
3 774 773 88
3 297 121 3
3 356 121 297
3 356 51 121
3 205 356 67
3 357 356 205
3 357 51 356
3 357 265 51
3 358 265 357
3 358 775 777
3 777 776 265
3 775 776 777
3 267 206 13
3 359 206 267
3 359 89 206
3 208 359 53
3 360 359 208
3 360 89 359
3 360 358 89
3 361 358 360
3 361 778 780
3 780 779 358
3 778 779 780
3 361 781 782
3 784 783 361
3 786 785 90
