ply
format ascii 1.0
element vertex 923
property float x
property float y
property float z
element face 1171
property list uchar int vertex_index
end_header
-40.820976 -9.411622 -30.364738
-34.803654 -2.069832 -61.390511
-40.854156 -27.051092 -31.189356
-39.125629 -29.613762 -45.496834
-40.892967 -4.314759 -44.579628
-33.328671 18.055944 -54.324146
-41.312664 -16.522045 -31.491121
-41.5033 -16.346043 -38.409542
-41.078243 -6.745286 -36.599899
-39.099323 -34.481323 -16.320889
-35.62368 12.578288 -43.489056
-20.395658 28.423046 -65.288147
-38.119534 -16.369896 -53.823238
-38.858257 -38.903675 -29.740751
-40.751961 -28.090578 -38.244709
-40.938885 -15.782024 -46.216919
-39.190456 -2.62526 -53.58268
-39.240383 -2.015003 -32.002193
-40.527443 -16.775082 -24.837408
-38.937374 -36.599796 -22.968935
-40.655594 -25.933966 -24.456884
-39.374805 3.492263 -40.35334
-38.449287 7.455056 -49.990658
-35.007565 10.496861 -59.908096
-26.437347 25.807159 -56.593014
-28.242828 21.245871 -64.30249
-28.766459 11.198074 -67.609978
-41.174511 -12.364612 -31.03838
-41.320469 -11.756359 -34.176125
-40.998741 -8.168198 -33.044319
-36.782867 -9.115779 -57.746185
-40.085308 -32.84095 -30.470539
-40.005787 -33.775089 -34.083305
-40.886517 -27.711653 -34.663876
-41.366756 -10.273982 -41.831375
-41.407295 -16.073793 -42.180225
-41.099709 -9.827952 -45.705181
-40.303734 -9.312509 -50.098518
-40.325157 -3.343539 -49.076515
-37.413296 -42.127773 -21.932085
-37.543755 -40.719856 -18.61953
-39.779675 -29.787827 -17.048817
-39.980728 -30.398254 -20.523865
-40.396767 -25.486475 -21.122086
-40.813183 -21.144676 -24.750761
-40.201416 -20.77276 -21.400639
-39.435688 0.749735 -35.940037
-37.850533 5.252274 -37.116966
-34.718033 15.661375 -48.927128
-37.1945 10.985902 -47.233059
-36.215275 13.037577 -52.347351
-37.065346 9.107649 -55.223106
-34.368629 15.029756 -57.674561
-24.901787 26.412086 -51.858982
-22.619364 28.788076 -56.704132
-24.44957 25.215597 -65.214546
-24.86203 21.43977 -68.166527
-28.847717 16.65897 -66.45977
-24.942505 16.708841 -69.745407
-38.86335 -35.552761 -41.188725
-41.228054 -21.500549 -31.502493
-41.323757 -21.847139 -34.827824
-41.430607 -16.313349 -34.823971
-41.400963 -11.167083 -37.714474
-41.075302 -5.427233 -40.516647
-37.732578 -39.569622 -15.190671
-38.003696 -38.410576 -11.715071
-35.81068 9.522044 -38.487129
-32.952892 16.664684 -45.039085
-31.885509 19.619295 -50.279228
-19.703669 30.309891 -61.035988
-16.276468 30.807854 -64.501144
-38.867271 -23.187622 -49.788956
-37.388069 -30.105192 -48.902508
-38.657768 -40.019566 -33.223282
-39.665184 -34.542099 -37.800674
-40.180519 -29.017462 -41.89233
-41.32814 -22.037544 -38.532181
-41.022018 -22.40926 -42.357674
-40.299145 -22.53377 -46.101982
-39.831398 -15.828982 -50.347713
-38.905758 -9.105255 -54.087238
-37.309132 -2.181242 -57.827549
-40.015949 -8.907515 -27.957867
-40.271809 -6.003226 -31.156153
-39.7216 -12.54559 -24.757908
-40.730236 -12.592896 -27.970728
-37.349274 -43.529549 -25.258387
-38.935661 -37.631031 -26.384974
-40.041504 -32.103149 -27.180084
-39.037483 -35.415951 -19.683119
-40.044807 -31.139103 -23.938705
-40.770954 -26.527296 -27.83823
-41.081215 -21.365959 -28.067022
-41.08601 -16.555708 -28.264498
-40.433952 -3.765021 -34.538658
-40.461449 -1.583443 -38.477871
-40.36562 0.200357 -43.033047
-37.751331 8.238634 -42.008495
-39.123188 5.649806 -45.004761
-39.93689 1.782361 -47.414135
-38.994411 3.045355 -52.323814
-37.452198 3.990263 -56.891773
-35.185242 4.569337 -61.085182
-28.542383 23.231081 -51.411133
-30.134697 22.172674 -55.720894
-23.640783 27.622568 -61.34885
-27.601126 24.130507 -60.793674
-31.315235 19.804424 -59.483944
-31.949991 16.096741 -62.474487
-32.286018 10.947341 -64.116905
-32.095146 4.61782 -64.751823
-41.007378 -10.615383 -30.674248
-41.120228 -10.233159 -32.086143
-40.922916 -8.832008 -31.568371
-35.910645 -5.696893 -59.54026
-34.428814 -5.537462 -61.233139
-40.52602 -29.926132 -30.919689
-40.538624 -30.284712 -32.647312
-40.906567 -27.159702 -32.976913
-41.171169 -7.216521 -43.218262
-41.263306 -9.788437 -43.785225
-41.002464 -6.785673 -45.467327
-40.743034 -6.432964 -47.569061
-40.664776 -3.790097 -46.843323
-40.119289 -27.571556 -19.183876
-40.146278 -25.346004 -19.325855
-40.369179 -23.270765 -21.196177
-40.006676 -23.033178 -19.443058
-37.852345 3.643771 -34.963711
-36.9188 5.703595 -35.494644
-34.178158 16.815443 -51.749401
-35.544605 14.501575 -50.655506
-34.85762 15.583912 -53.507957
-35.458633 13.948095 -55.00703
-33.998215 16.588345 -56.015553
-22.989962 21.249847 -69.699112
-25.02536 19.170551 -69.048523
-39.054317 -32.550694 -43.420822
-38.183018 -36.250237 -42.858994
-38.287296 -33.080765 -45.197384
-41.294315 -18.936306 -31.471123
-41.356709 -19.011496 -33.149738
-41.376816 -16.582043 -33.172836
-41.231068 -9.21704 -35.415405
-41.359913 -11.29455 -35.95623
-41.264301 -8.744244 -37.253216
-41.280666 -8.330132 -39.068043
-41.091457 -6.063686 -38.526081
-31.474077 18.379986 -45.410995
-32.485943 18.194319 -47.61813
-30.929216 19.993189 -48.09679
-38.608288 -19.793247 -51.74696
-37.480316 -19.778179 -53.615128
-38.074177 -41.988083 -29.321905
-37.956863 -42.66539 -31.029388
-38.770679 -39.540642 -31.556719
-40.412197 -31.125914 -36.137508
-39.876816 -34.167648 -36.00177
-40.268471 -31.328106 -38.023739
-39.979607 -31.829456 -39.827049
-40.524799 -28.583057 -40.011906
-41.449753 -19.090704 -36.617668
-41.362423 -21.672283 -36.746967
-41.463329 -18.902107 -38.638161
-41.228443 -16.110413 -44.169899
-41.272774 -19.125179 -42.396996
-41.027367 -19.186617 -44.343678
-40.730644 -22.36227 -44.268723
-40.672714 -19.165483 -46.235291
-40.143288 -19.080093 -48.27169
-40.472122 -15.701791 -48.329456
-39.826672 -5.885133 -51.826439
-39.673531 -9.29282 -52.168461
-39.11235 -5.688902 -53.922504
-38.146416 -5.523959 -56.077244
-38.335632 -2.36342 -55.773006
-39.468349 -7.03804 -28.043955
-39.870163 -10.705076 -26.336912
-38.247631 -39.262615 -22.457726
-38.228558 -39.873413 -24.12993
-38.919601 -37.183895 -24.735695
-39.536625 -34.845051 -26.775591
-39.518406 -34.411671 -24.995193
-38.490231 -37.031258 -15.819268
-38.386166 -37.639942 -17.496233
-39.054104 -35.009518 -17.925163
-40.354725 -28.22187 -22.657505
-39.99921 -30.928967 -22.254335
-40.411339 -28.515963 -24.288286
-40.461281 -28.759459 -26.014383
-40.727318 -26.183292 -26.185152
-40.97039 -23.898647 -28.045895
-40.886749 -23.861727 -26.321857
-40.736206 -18.844652 -24.905783
-40.972786 -18.848156 -26.589046
-40.858849 -16.750599 -26.521662
-40.946201 -14.62976 -28.027925
-40.630192 -14.628054 -26.417492
-39.838665 -4.087892 -31.607931
-40.380497 -4.879296 -32.820217
-39.881004 -2.57876 -33.388493
-39.443592 2.127249 -38.120739
-40.041492 -0.385984 -37.239525
-40.003685 0.905235 -39.438499
-40.447578 -0.683244 -40.642769
-39.980598 1.806566 -41.617126
-35.817028 10.984971 -40.881687
-36.886391 8.948271 -40.239307
-36.708614 10.580544 -42.867329
-37.869534 9.457439 -48.770527
-38.249348 8.354552 -46.210255
-38.80175 6.758472 -47.526718
-39.592838 3.867786 -46.317577
-39.282852 4.575381 -48.739433
-39.569691 2.260707 -49.878342
-38.782154 5.435423 -51.215832
-36.129929 9.811992 -57.620647
-37.29528 6.738202 -56.199741
-36.29493 7.395437 -58.463852
-36.466637 4.315364 -58.953491
-35.197468 7.647876 -60.561531
-25.653883 26.275723 -54.36116
-26.700317 24.914463 -51.749317
-27.479725 24.688931 -54.027073
-29.257669 22.992296 -53.672691
-28.275146 24.120434 -56.292229
-19.95941 29.574038 -63.234303
-21.681076 29.032627 -61.324738
-22.030729 28.145332 -63.526058
-26.357977 23.291567 -64.944374
-26.09791 24.82729 -63.032444
-27.88802 22.89959 -62.784714
-29.464836 22.044754 -60.429657
-29.883581 20.593426 -62.003124
-31.691265 18.048475 -61.213924
-30.118694 18.852757 -63.483826
-28.968531 13.977408 -67.094627
-30.709639 13.811458 -65.313866
-30.690634 11.055087 -65.899429
-32.201202 7.952474 -64.613464
-30.433409 8.14599 -66.32444
-28.569187 8.017735 -67.764694
-41.272369 -14.235379 -31.342653
-41.348286 -14.32365 -32.912933
-41.263245 -12.023964 -32.598297
-41.183926 -9.684094 -33.676533
-41.046635 -7.487441 -34.674236
-37.559052 -12.741993 -55.765774
-36.949673 -16.283846 -55.577034
-39.568634 -35.675228 -30.206739
-39.482162 -36.383408 -31.879992
-40.089478 -33.210781 -32.327553
-40.512787 -30.665829 -34.463604
-40.869911 -27.780926 -36.414555
-41.476997 -13.180511 -40.05032
-41.48708 -16.059196 -40.299019
-41.42746 -13.134743 -42.031219
-41.303879 -12.966815 -43.979691
-41.067829 -12.640163 -46.069206
-40.6954 -12.627949 -48.128792
-40.762657 -9.305288 -47.98505
-40.349625 -6.01554 -49.734585
-39.829727 -2.947532 -51.387348
-38.239151 -38.813126 -20.709389
-39.52507 -32.032898 -16.673525
-39.543465 -32.590382 -18.405993
-39.910553 -30.05533 -18.836763
-40.271141 -27.850731 -20.950897
-40.550198 -25.701841 -22.750759
-40.783512 -23.534643 -24.587158
-40.627037 -23.288458 -22.973886
-40.565262 -21.026518 -23.064417
-40.360996 -18.766733 -23.10384
-38.528267 -0.05176 -32.306358
-39.32312 -0.430967 -33.991886
-38.638462 1.549098 -34.373512
-38.687191 3.059661 -36.505051
-38.701275 4.473219 -38.748886
-35.240433 14.158099 -46.117165
-36.531174 11.853601 -45.417568
-36.070374 13.296434 -48.050255
-36.80608 12.002115 -49.800495
-37.398792 10.353299 -51.237289
-37.865173 8.27117 -52.614086
-36.755062 11.147137 -53.875381
-35.856537 12.078882 -56.403164
-34.807022 12.891461 -58.80069
-23.757341 27.741024 -54.203449
-24.476732 27.408251 -56.623264
-20.49354 27.056665 -67.222649
-22.371431 26.940001 -65.427238
-22.725697 25.414749 -67.030914
-24.613796 23.479828 -66.959877
-26.572578 21.423712 -66.431396
-28.553568 19.203978 -65.52993
-26.98864 19.125154 -67.351669
-27.013178 16.689646 -68.205818
-26.968262 14.075221 -68.732025
-26.880306 10.843429 -68.953255
-24.968615 13.640576 -70.044861
-38.520393 -38.485439 -38.996761
-37.102375 -39.857059 -42.469372
-41.08989 -24.183409 -31.442499
-41.137657 -24.3561 -33.102261
-41.286873 -21.572193 -33.202034
-41.408836 -19.08741 -34.84177
-41.479248 -16.275242 -36.613041
-41.397449 -13.9559 -34.592697
-41.442017 -13.644893 -36.289902
-41.480186 -13.575704 -38.153076
-41.409321 -10.72381 -39.675499
-41.266014 -7.929244 -41.077808
-41.018883 -4.859139 -42.483898
-36.915844 -41.932598 -14.728037
-37.858475 -39.026073 -13.578707
-38.562504 -36.531918 -14.122203
-38.623959 -35.984604 -12.306733
-39.071243 -34.177593 -14.524824
-39.393406 -31.923349 -14.781062
-34.497395 13.118017 -41.56234
-34.330482 14.684947 -44.262466
-33.898998 16.290949 -46.987915
-33.368156 17.680769 -49.638908
-32.67646 18.983116 -52.449699
-19.390017 30.850161 -58.604221
-17.876892 31.420053 -60.425117
-17.992445 30.70216 -62.93919
-18.275803 29.677982 -65.117088
-16.411142 29.593161 -66.607941
-18.365227 28.499937 -67.005722
-39.112705 -26.265648 -47.646633
-38.3815 -29.636143 -47.324505
-37.767487 -43.348026 -32.746376
-39.416855 -36.745037 -33.723434
-39.193546 -37.479275 -35.427414
-38.949425 -37.83783 -37.285831
-39.325989 -35.078426 -39.470695
-39.595089 -32.222286 -41.57449
-39.747978 -29.050079 -43.860054
-41.170376 -24.547274 -34.912704
-41.161304 -24.819752 -36.598289
-41.085293 -25.13269 -38.48204
-41.404556 -19.191654 -40.472958
-41.228767 -22.176413 -40.46291
-40.954536 -25.132519 -40.352039
-40.680859 -25.567198 -42.15218
-40.315754 -25.811922 -43.958614
-39.775597 -25.903763 -45.971699
-39.697292 -22.633665 -48.022499
-39.451275 -19.414379 -50.077881
-39.058445 -16.023115 -52.157135
-40.115601 -12.561457 -50.335724
-39.429237 -12.543749 -52.248779
-38.583424 -12.80237 -54.007183
-37.988182 -9.08217 -55.884346
-37.152542 -5.579572 -57.810719
-36.105968 -2.086677 -59.729275
-40.539391 -9.257705 -29.304991
-40.622204 -7.94486 -30.70755
-40.158463 -7.430519 -29.498936
-39.697853 -5.507413 -29.868782
-39.09882 -3.548468 -30.177135
-39.844807 -18.693981 -21.255749
-40.047607 -16.603752 -23.15229
-39.584538 -14.53852 -23.124645
-40.177887 -14.54721 -24.79561
-40.305733 -12.633281 -26.354979
-40.407566 -10.783236 -27.830948
-40.786682 -10.746344 -29.303556
-38.168934 -41.205532 -27.585674
-37.415241 -42.688148 -23.517778
-38.158897 -40.657578 -25.682926
-38.8979 -38.280758 -27.959051
-39.560959 -35.232571 -28.421741
-40.089993 -32.327011 -28.829378
-40.512341 -29.488916 -29.293306
-37.607506 -40.201641 -16.986078
-38.343235 -38.079079 -19.145021
-38.946274 -36.135803 -21.254572
-39.583752 -32.870499 -20.252985
-39.569202 -33.356373 -21.870478
-39.54174 -33.871662 -23.398979
-40.057575 -31.522877 -25.54306
-40.456909 -29.321037 -27.540022
-40.804672 -26.87364 -29.494459
-41.018707 -24.231546 -29.650208
-41.15152 -21.627409 -29.722044
-41.221493 -18.997854 -29.815321
-40.980839 -21.265554 -26.499134
-41.128559 -18.813101 -28.263247
-41.226852 -16.525692 -29.894974
-41.153229 -14.373395 -29.746855
-41.000385 -12.49432 -29.465664
-40.710163 -6.985559 -32.162888
-40.787731 -6.120586 -33.806702
-40.819618 -5.156374 -35.631004
-39.988235 -1.46048 -35.287548
-40.489208 -2.762019 -36.488548
-40.83316 -4.230248 -37.573933
-40.820168 -3.380647 -39.501835
-40.766285 -2.514736 -41.642525
-40.686184 -2.01669 -43.85548
-36.960201 7.395923 -37.922604
-37.926498 6.641074 -39.562843
-38.691589 5.791342 -41.280792
-37.547523 9.646242 -44.612942
-38.471794 7.249239 -43.728577
-39.324638 4.502365 -42.638714
-39.814529 2.962544 -43.997623
-40.234257 0.804351 -45.17667
-40.473228 -1.316062 -46.238697
-40.172928 -0.740762 -48.457302
-39.760735 -0.331553 -50.710258
-39.173923 0.227505 -52.978043
-38.087631 6.17526 -53.867886
-38.265671 3.680221 -54.733665
-38.423107 0.614936 -55.221249
-37.424953 0.918329 -57.521038
-36.371826 1.224092 -59.428322
-35.064949 1.458679 -61.34222
-27.560192 23.405191 -49.079578
-29.276018 21.705935 -48.534332
-30.231335 21.523579 -50.92799
-31.021225 21.050186 -52.990505
-31.718367 20.261372 -55.257343
-21.199478 29.686329 -59.019997
-23.251936 28.283726 -58.932568
-25.237129 26.744162 -58.899155
-24.131124 26.555477 -63.361824
-25.564991 26.056959 -61.150555
-27.000448 25.178835 -58.909504
-28.899616 23.30147 -58.400822
-30.649509 21.293655 -57.88089
-32.482513 18.888277 -56.975891
-32.924576 17.417109 -58.719822
-33.335495 15.475577 -60.120365
-33.568474 13.294873 -61.28854
-30.362516 16.625256 -64.631783
-32.20118 13.669215 -63.407391
-33.764858 10.699701 -62.090122
-33.839809 7.909064 -62.617634
-33.669357 4.801821 -63.086945
-34.02789 -2.09884 -62.182862
-33.840469 -3.832655 -62.104175
-34.616234 -3.803647 -61.311825
-39.962665 -25.226359 -18.383444
-40.01115 -26.353805 -18.318952
-39.892865 -24.069946 -18.442046
-40.076477 -24.189591 -19.384456
-39.962665 -25.226359 -18.383444
-36.31567 5.82967 -34.583037
-36.85951 4.876615 -34.394245
-21.943832 21.232749 -70.30019
-21.910725 22.272312 -69.869701
-22.920246 20.07771 -70.125706
-21.943832 21.232749 -70.30019
-30.660001 19.2305 -45.592554
-30.827665 18.399409 -44.236221
-30.387571 20.037102 -46.935451
-31.201647 19.186588 -46.753892
-30.660001 19.2305 -45.592554
-36.542662 -10.986772 -57.589042
-36.930754 -12.799879 -56.598837
-37.17096 -10.928886 -56.755979
-37.487972 -41.111404 -19.406346
-37.055626 -42.141327 -18.256509
-37.891453 -39.766491 -19.664459
-37.83567 -40.15804 -20.451275
-37.487972 -41.111404 -19.406346
-38.177801 1.787663 -33.58417
-38.583365 0.748669 -33.339935
-38.122704 0.987234 -32.550593
-23.188353 28.26455 -55.45379
-22.86042 28.396543 -54.121977
-22.291432 28.92007 -55.372318
-21.751562 25.3647 -67.886246
-21.609618 26.235707 -67.126781
-20.635484 26.185657 -67.982113
-24.737913 22.459799 -67.563202
-23.677335 23.521289 -67.783897
-23.801452 22.50126 -68.387223
-38.39873 -37.305492 -40.995487
-38.227251 -38.771832 -39.899506
-38.691871 -37.0191 -40.092743
-37.244433 -38.200784 -43.544863
-37.642696 -38.053648 -42.664183
-37.784754 -36.397374 -43.739674
-36.637327 -40.072475 -43.288773
-37.244433 -38.200784 -43.544863
-37.931085 -38.718324 -12.646889
-37.534289 -39.937658 -12.348364
-37.606899 -39.629909 -11.416546
-38.826961 -34.832495 -12.466365
-38.62763 -35.747417 -11.370604
-39.050604 -33.92899 -13.575411
-38.847601 -35.081098 -13.415779
-38.826961 -34.832495 -12.466365
-39.211685 -32.801868 -13.70353
-39.232325 -33.050471 -14.652943
-39.050604 -33.92899 -13.575411
-33.914681 13.181611 -40.56431
-34.569908 12.28207 -40.337198
-33.083068 15.860439 -43.703642
-32.340154 16.700446 -43.840305
-33.641687 15.674816 -44.650776
-33.771864 14.87057 -43.315332
-33.083068 15.860439 -43.703642
-16.870252 31.964791 -60.145305
-17.721431 31.692201 -59.217041
-17.134456 30.755007 -63.720167
-17.08101 31.217758 -62.578568
-16.223022 31.270605 -63.359544
-16.462229 28.87258 -67.505443
-15.460201 29.415017 -67.192814
-17.439271 28.325969 -67.704334
-17.388185 29.046549 -66.806832
-16.462229 28.87258 -67.505443
-18.466308 27.729106 -67.827809
-17.439271 28.325969 -67.704334
-38.53274 -24.827135 -49.639155
-38.655456 -26.366148 -48.567993
-38.989988 -24.726635 -48.717794
-36.59489 -18.135585 -55.347948
-36.267429 -16.37415 -56.337581
-38.525337 -40.3862 -34.104781
-38.080196 -42.05043 -33.866327
-38.212627 -41.683796 -32.984829
-39.303368 -5.334042 -29.121335
-39.583101 -6.272726 -28.956368
-39.188615 -6.099355 -28.208922
-39.003851 -4.35457 -29.275512
-39.398336 -4.52794 -30.022959
-39.303368 -5.334042 -29.121335
-39.627772 -17.638447 -21.310714
-39.511042 -18.637048 -20.351184
-39.729171 -16.593332 -22.258985
-39.946207 -17.648867 -22.20402
-39.627772 -17.638447 -21.310714
-39.653069 -13.542055 -23.941277
-39.280886 -13.54602 -23.108071
-39.349417 -12.549555 -23.924703
-37.320609 -43.903134 -26.126629
-36.889155 -44.984976 -24.952639
-37.759104 -42.367541 -26.42203
-37.730439 -42.741125 -27.290273
-37.320609 -43.903134 -26.126629
-37.414269 -42.407961 -22.724932
-36.979343 -43.76226 -22.463161
-36.978371 -43.482073 -21.670314
-36.385441 8.458983 -38.204867
-36.42799 7.53217 -36.994933
-35.853229 8.595231 -37.277195
-25.332163 25.691145 -50.546244
-24.447291 26.423305 -50.562957
-32.845379 2.945365 -63.901712
-33.632485 3.037365 -63.069273
-32.882251 4.709821 -63.919384
-31.997186 2.962294 -64.698692
-32.845379 2.945365 -63.901712
-26.7245 9.254142 -68.947216
-25.831305 10.725415 -69.520966
-37.375065 -31.805894 -47.877764
-37.87178 -31.57137 -47.088763
-37.884785 -29.870667 -48.113506
-35.639887 -7.504205 -59.482428
-36.075998 -9.213648 -58.58539
-36.346756 -7.406336 -58.643223
-34.898972 -7.424489 -60.328867
-35.639887 -7.504205 -59.482428
-35.16973 -5.617178 -60.3867
-34.121054 -7.380944 -61.088083
-34.898972 -7.424489 -60.328867
-33.611778 -5.654034 -61.938284
-34.121054 -7.380944 -61.088083
-33.611778 -5.654034 -61.938284
-33.840469 -3.832655 -62.104175
-37.148018 -41.694586 -17.508601
-37.055626 -42.141327 -18.256509
-39.997656 -27.46658 -18.247962
-39.949482 -28.679692 -18.116346
-39.827849 -28.574716 -17.180433
-40.132784 -26.45878 -19.254866
-39.997656 -27.46658 -18.247962
-40.01115 -26.353805 -18.318952
-37.326283 3.846703 -34.128779
-37.784743 2.835 -33.879269
-37.385572 4.673683 -35.229178
-37.326283 3.846703 -34.128779
-36.85951 4.876615 -34.394245
-21.686203 29.429144 -56.601017
-22.291432 28.92007 -55.372318
-22.865418 22.406298 -69.153515
-21.910725 22.272312 -69.869701
-23.925996 21.344808 -68.932819
-23.801452 22.50126 -68.387223
-22.865418 22.406298 -69.153515
-23.937945 19.038062 -69.800411
-24.007661 20.210199 -69.373818
-22.920246 20.07771 -70.125706
-23.896517 17.807207 -70.148853
-24.983933 17.939696 -69.396965
-23.937945 19.038062 -69.800411
-23.992131 16.411113 -70.324421
-23.896517 17.807207 -70.148853
-37.836893 -34.812638 -44.908869
-37.784754 -36.397374 -43.739674
-38.235157 -34.665501 -44.028189
-37.724216 -39.26561 -10.514477
-37.606899 -39.629909 -11.416546
-31.600747 17.558097 -44.02626
-30.827665 18.399409 -44.236221
-32.213484 17.522335 -45.22504
-32.340154 16.700446 -43.840305
-31.600747 17.558097 -44.02626
-15.344152 31.295378 -64.069402
-16.223022 31.270605 -63.359544
-38.265749 -21.43806 -51.66889
-38.39524 -23.135247 -50.689888
-38.73778 -21.490434 -50.767958
-37.701763 -21.430526 -52.602974
-38.265749 -21.43806 -51.66889
-38.044302 -19.785713 -52.681044
-37.096449 -21.624869 -53.377099
-37.701763 -21.430526 -52.602974
-38.01552 -42.326737 -30.175646
-37.588867 -43.818476 -29.930264
-37.647524 -43.479822 -29.076523
-39.380308 -7.897413 -27.208852
-39.742149 -7.972777 -28.000911
-39.654108 -8.832151 -27.165808
-39.045172 -6.927843 -27.278153
-39.380308 -7.897413 -27.208852
-39.188615 -6.099355 -28.208922
-39.045172 -6.927843 -27.278153
-39.428532 -11.576838 -24.750982
-39.349417 -12.549555 -23.924703
-39.502814 -10.656581 -25.540485
-39.795882 -11.625333 -25.54741
-39.428532 -11.576838 -24.750982
-39.581215 -9.730931 -26.355331
-39.502814 -10.656581 -25.540485
-39.654108 -8.832151 -27.165808
-39.943056 -9.806296 -27.14739
-39.581215 -9.730931 -26.355331
-36.898539 -44.626223 -24.077963
-36.889155 -44.984976 -24.952639
-30.362999 6.432994 -66.30619
-31.193867 4.668909 -65.519882
-31.264277 6.381905 -65.538131
-29.430888 6.368867 -67.026318
-30.362999 6.432994 -66.30619
-29.501298 8.081862 -67.044567
-28.447189 6.268673 -67.674423
-29.430888 6.368867 -67.026318
-36.822841 -31.908912 -48.695539
-36.748738 -30.350085 -49.674692
-36.626064 -14.570806 -56.504467
-37.254362 -14.51292 -55.671404
-36.930754 -12.799879 -56.598837
-36.267429 -16.37415 -56.337581
-36.626064 -14.570806 -56.504467
-36.542662 -10.986772 -57.589042
-36.075998 -9.213648 -58.58539
-36.999808 -43.105047 -20.832911
-36.978371 -43.482073 -21.670314
-37.422743 -41.815363 -21.062623
-36.999808 -43.105047 -20.832911
-37.839911 -40.382784 -21.325443
-37.830464 -40.695194 -22.194906
-37.422743 -41.815363 -21.062623
-38.243391 -39.03787 -21.583558
-37.839911 -40.382784 -21.325443
-37.83567 -40.15804 -20.451275
-38.245403 2.596434 -34.668611
-38.177801 1.787663 -33.58417
-37.784743 2.835 -33.879269
-24.028654 27.073888 -51.741138
-24.447291 26.423305 -50.562957
-23.456431 27.738357 -52.913372
-22.86042 28.396543 -54.121977
-24.329564 27.076555 -53.031216
-24.028654 27.073888 -51.741138
-23.456431 27.738357 -52.913372
-22.733286 24.48875 -67.819416
-21.751562 25.3647 -67.886246
-23.669747 24.447288 -66.995396
-22.733286 24.48875 -67.819416
-23.677335 23.521289 -67.783897
-24.87546 12.123988 -70.066768
-25.831305 10.725415 -69.520966
-25.924461 12.242002 -69.499058
-24.005185 14.876981 -70.474148
-24.95556 15.174708 -69.895134
-23.992131 16.411113 -70.324421
-23.933093 13.433859 -70.551712
-24.005185 14.876981 -70.474148
-24.87546 12.123988 -70.066768
-23.933093 13.433859 -70.551712
-38.045019 -40.201749 -38.76979
-38.295913 -39.87784 -37.884899
-38.045019 -40.201749 -38.76979
-38.227251 -38.771832 -39.899506
-38.058563 -37.65423 -41.830622
-38.39873 -37.305492 -40.995487
-38.523184 -35.901499 -42.02386
-37.518242 -39.457642 -41.635811
-38.058563 -37.65423 -41.830622
-37.642696 -38.053648 -42.664183
-36.991523 -41.17172 -41.425648
-37.518242 -39.457642 -41.635811
-36.505703 -41.646292 -42.205201
-36.991523 -41.17172 -41.425648
-36.505703 -41.646292 -42.205201
-36.637327 -40.072475 -43.288773
-36.517071 -42.850378 -13.514509
-36.418825 -43.212217 -14.387401
-36.967808 -41.697717 -13.765331
-36.517071 -42.850378 -13.514509
-37.376175 -40.51623 -13.996647
-37.324211 -40.75111 -14.959354
-36.967808 -41.697717 -13.765331
-37.439124 -40.244455 -13.190665
-37.534289 -39.937658 -12.348364
-37.795526 -39.297848 -14.384689
-37.376175 -40.51623 -13.996647
-37.439124 -40.244455 -13.190665
-38.075687 -38.077353 -10.831906
-37.724216 -39.26561 -10.514477
-38.385818 -36.864367 -11.127737
-38.62763 -35.747417 -11.370604
-38.313828 -37.19759 -12.010902
-38.075687 -38.077353 -10.831906
-38.385818 -36.864367 -11.127737
-39.335275 -31.583554 -13.955615
-39.211685 -32.801868 -13.70353
-39.488173 -30.682474 -15.010729
-39.335275 -31.583554 -13.955615
-39.681307 -29.614713 -16.144607
-39.58654 -30.855588 -15.914939
-39.488173 -30.682474 -15.010729
-39.827849 -28.574716 -17.180433
-39.681307 -29.614713 -16.144607
-35.225941 9.567839 -37.504511
-35.853229 8.595231 -37.277195
-35.226551 10.484084 -38.799593
-35.225941 9.567839 -37.504511
-35.229725 11.215547 -39.996872
-35.813854 10.253507 -39.684408
-35.226551 10.484084 -38.799593
-35.157212 12.051494 -41.222014
-35.229725 11.215547 -39.996872
-34.569908 12.28207 -40.337198
-33.85532 14.087105 -41.965269
-33.914681 13.181611 -40.56431
-34.413939 13.901482 -42.912403
-33.85532 14.087105 -41.965269
-33.771864 14.87057 -43.315332
-18.477993 31.407255 -58.306593
-19.18446 31.042913 -57.284217
-18.633454 31.135107 -59.514669
-18.477993 31.407255 -58.306593
-17.721431 31.692201 -59.217041
-17.023233 31.576704 -61.321531
-16.870252 31.964791 -60.145305
-17.934669 31.061107 -61.682153
-17.023233 31.576704 -61.321531
-17.08101 31.217758 -62.578568
-15.415017 30.710997 -65.16204
-15.344152 31.295378 -64.069402
-15.482354 30.103651 -66.215439
-15.460201 29.415017 -67.192814
-16.343805 30.200508 -65.554542
-15.415017 30.710997 -65.16204
-15.482354 30.103651 -66.215439
-19.530465 27.00747 -67.936272
-19.429384 27.778301 -67.114186
-18.466308 27.729106 -67.827809
-20.635484 26.185657 -67.982113
-19.530465 27.00747 -67.936272
-38.289854 -28.051395 -48.406929
-38.747102 -27.950896 -47.485569
-38.655456 -26.366148 -48.567993
-37.793138 -28.28592 -49.195931
-37.884785 -29.870667 -48.113506
-38.289854 -28.051395 -48.406929
-38.53274 -24.827135 -49.639155
-38.39524 -23.135247 -50.689888
-37.242294 -28.386527 -50.032739
-37.793138 -28.28592 -49.195931
-36.748738 -30.350085 -49.674692
-37.242294 -28.386527 -50.032739
-36.860212 -19.882752 -54.366995
-37.214995 -18.031013 -54.596081
-36.59489 -18.135585 -55.347948
-37.096449 -21.624869 -53.377099
-36.860212 -19.882752 -54.366995
-37.480407 -44.29147 -30.773974
-37.588867 -43.818476 -29.930264
-37.38572 -44.632787 -31.632467
-37.480407 -44.29147 -30.773974
-37.862175 -43.006708 -31.887882
-37.269845 -45.002836 -32.463962
-37.38572 -44.632787 -31.632467
-37.62673 -43.664335 -33.669433
-37.269845 -45.002836 -32.463962
-37.62673 -43.664335 -33.669433
-38.080196 -42.05043 -33.866327
-38.793226 -39.116055 -35.206846
-38.525337 -40.3862 -34.104781
-38.925657 -38.74942 -34.325348
-38.671166 -39.295332 -36.136055
-38.793226 -39.116055 -35.206846
-39.071485 -37.658552 -36.356623
-38.51043 -39.554035 -37.029434
-38.671166 -39.295332 -36.136055
-38.734909 -38.161634 -38.141296
-38.295913 -39.87784 -37.884899
-38.51043 -39.554035 -37.029434
-38.634615 -3.431288 -29.354481
-39.003851 -4.35457 -29.275512
-38.710806 -2.576144 -30.260098
-38.634615 -3.431288 -29.354481
-38.781588 -1.809411 -31.172627
-39.169601 -2.781735 -31.089664
-38.710806 -2.576144 -30.260098
-38.425529 -0.82779 -31.32471
-38.884325 -1.033381 -32.154275
-38.781588 -1.809411 -31.172627
-37.983084 0.174192 -31.460355
-38.425529 -0.82779 -31.32471
-38.122704 0.987234 -32.550593
-37.983084 0.174192 -31.460355
-39.756046 -22.915954 -18.533147
-39.892865 -24.069946 -18.442046
-39.843386 -21.849604 -19.486251
-39.756046 -22.915954 -18.533147
-39.940756 -20.719394 -20.465042
-40.104046 -21.902969 -20.421849
-39.843386 -21.849604 -19.486251
-39.762451 -19.680005 -20.392597
-39.511042 -18.637048 -20.351184
-40.023111 -19.73337 -21.328194
-39.940756 -20.719394 -20.465042
-39.762451 -19.680005 -20.392597
-39.190911 -14.517882 -22.258766
-39.280886 -13.54602 -23.108071
-39.497637 -15.560716 -22.245162
-39.190911 -14.517882 -22.258766
-39.816073 -15.571136 -23.138468
-39.729171 -16.593332 -22.258985
-39.497637 -15.560716 -22.245162
-37.68306 -43.132401 -28.158388
-37.647524 -43.479822 -29.076523
-38.121555 -41.596807 -28.453789
-37.68306 -43.132401 -28.158388
-37.730439 -42.741125 -27.290273
-36.931522 -44.205523 -23.207659
-36.979343 -43.76226 -22.463161
-37.382258 -43.108849 -24.388082
-36.898539 -44.626223 -24.077963
-36.931522 -44.205523 -23.207659
-36.834063 -42.300956 -15.562854
-36.418825 -43.212217 -14.387401
-37.179894 -41.435478 -16.691874
-36.834063 -42.300956 -15.562854
-37.261675 -41.06712 -15.857057
-37.575631 -40.460749 -17.802804
-37.148018 -41.694586 -17.508601
-37.179894 -41.435478 -16.691874
-36.407289 6.686006 -35.780952
-36.31567 5.82967 -34.583037
-36.9395 6.549759 -36.708624
-36.407289 6.686006 -35.780952
-36.42799 7.53217 -36.994933
-26.231428 24.942334 -50.491411
-25.332163 25.691145 -50.546244
-25.801052 25.663274 -51.804149
-26.661366 24.187698 -49.156542
-26.231428 24.942334 -50.491411
-27.130254 24.159827 -50.414447
-26.974896 23.425679 -47.832622
-26.661366 24.187698 -49.156542
-27.81308 22.627531 -47.64739
-26.974896 23.425679 -47.832622
-28.670993 21.777903 -47.374767
-27.81308 22.627531 -47.64739
-28.418105 22.555563 -48.806955
-29.560972 20.893475 -47.154223
-28.670993 21.777903 -47.374767
-30.102617 20.849562 -48.315561
-30.387571 20.037102 -46.935451
-29.560972 20.893475 -47.154223
-20.07153 30.460186 -57.551062
-19.18446 31.042913 -57.284217
-20.97626 29.87827 -57.758949
-20.07153 30.460186 -57.551062
-20.294747 30.268245 -58.812109
-21.909421 29.237203 -57.862065
-21.686203 29.429144 -56.601017
-20.97626 29.87827 -57.758949
-34.330281 1.365795 -62.196911
-34.367153 3.13025 -62.214582
-33.632485 3.037365 -63.069273
-34.199633 -0.398461 -62.221056
-34.934302 -0.305576 -61.366366
-34.330281 1.365795 -62.196911
-34.02789 -2.09884 -62.182862
-34.199633 -0.398461 -62.221056
-31.997186 2.962294 -64.698692
-31.193867 4.668909 -65.519882
-27.56894 7.841295 -68.352936
-27.724747 9.430582 -68.358975
-26.7245 9.254142 -68.947216
-28.447189 6.268673 -67.674423
-27.56894 7.841295 -68.352936
-37.824678 -33.293681 -46.025202
-38.334398 -31.358454 -46.260945
-37.87178 -31.57137 -47.088763
-37.836893 -34.812638 -44.908869
-37.824678 -33.293681 -46.025202
-37.375065 -31.805894 -47.877764
-36.822841 -31.908912 -48.695539
3 0 114 112
3 1 116 115
3 1 443 445
3 445 444 116
3 443 444 445
3 2 119 117
3 4 122 120
3 4 124 122
3 446 126 447
3 448 128 449
3 450 449 126
3 448 449 450
3 451 130 452
3 5 133 131
3 5 135 133
3 453 136 454
3 456 455 136
3 3 140 138
3 6 143 141
3 8 146 144
3 8 148 146
3 457 149 458
3 459 151 460
3 461 460 149
3 459 460 461
3 12 153 152
3 13 156 154
3 14 159 157
3 14 161 159
3 7 164 162
3 15 167 165
3 15 169 167
3 15 171 169
3 16 174 172
3 16 176 174
3 19 181 179
3 19 183 181
3 9 186 184
3 20 189 187
3 20 191 189
3 20 193 191
3 18 196 194
3 18 198 196
3 17 201 199
3 21 204 202
3 21 206 204
3 10 209 207
3 22 212 210
3 22 214 212
3 22 216 214
3 23 219 217
3 23 221 219
3 24 224 222
3 24 226 224
3 11 229 227
3 25 232 230
3 25 234 232
3 25 236 234
3 26 239 237
3 26 241 239
3 26 242 241
3 27 245 243
3 29 246 113
3 29 247 246
3 30 462 464
3 464 463 248
3 462 463 464
3 31 252 250
3 33 253 118
3 33 254 253
3 34 257 255
3 36 258 121
3 36 259 258
3 36 261 259
3 38 262 123
3 38 263 262
3 40 465 466
3 40 467 469
3 467 264 468
3 467 468 469
3 41 267 265
3 43 268 125
3 43 269 268
3 43 271 269
3 45 272 127
3 45 273 272
3 470 276 471
3 472 471 274
3 470 471 472
3 47 277 129
3 47 278 277
3 48 281 279
3 50 282 132
3 50 283 282
3 50 285 283
3 52 286 134
3 52 287 286
3 54 473 475
3 473 288 474
3 473 474 475
3 54 289 288
3 476 292 477
3 478 477 290
3 476 477 478
3 56 479 481
3 479 293 480
3 479 480 481
3 56 294 293
3 56 296 294
3 58 297 137
3 58 298 297
3 58 300 298
3 59 482 484
3 484 483 301
3 482 483 484
3 485 302 486
3 487 486 139
3 485 486 487
3 489 488 302
3 60 305 303
3 62 306 142
3 62 307 306
3 28 308 244
3 63 309 145
3 63 310 309
3 63 311 310
3 64 312 147
3 64 313 312
3 66 490 492
3 490 315 491
3 490 491 492
3 66 316 315
3 493 317 494
3 495 318 496
3 497 496 317
3 495 496 497
3 498 319 499
3 500 499 318
3 498 499 500
3 501 320 502
3 68 503 504
3 68 505 507
3 505 321 506
3 505 506 507
3 68 322 321
3 69 323 150
3 69 324 323
3 508 326 509
3 71 510 512
3 510 327 511
3 510 511 512
3 71 328 327
3 513 329 514
3 515 330 516
3 517 516 329
3 515 516 517
3 519 518 330
3 72 520 522
3 522 521 331
3 520 521 522
3 524 523 249
3 74 333 155
3 74 525 527
3 527 526 333
3 525 526 527
3 32 334 251
3 75 335 158
3 75 336 335
3 75 337 336
3 76 338 160
3 76 339 338
3 61 340 304
3 77 341 163
3 77 342 341
3 35 343 256
3 78 344 166
3 78 345 344
3 78 346 345
3 79 347 168
3 79 348 347
3 79 349 348
3 80 350 170
3 80 351 350
3 37 352 260
3 81 353 173
3 81 354 353
3 81 355 354
3 82 356 175
3 82 357 356
3 83 360 358
3 528 361 529
3 530 529 177
3 528 529 530
3 531 362 532
3 533 532 361
3 531 532 533
3 534 363 535
3 536 364 537
3 538 537 363
3 536 537 538
3 85 539 541
3 539 365 540
3 539 540 541
3 85 366 365
3 85 367 366
3 83 368 178
3 83 358 368
3 87 542 543
3 87 544 546
3 544 370 545
3 544 545 546
3 39 547 549
3 547 371 548
3 547 548 549
3 88 372 180
3 88 373 372
3 88 374 373
3 89 375 182
3 89 376 375
3 65 377 314
3 90 378 185
3 90 379 378
3 42 380 266
3 91 381 188
3 91 382 381
3 91 383 382
3 92 384 190
3 92 385 384
3 92 386 385
3 93 387 192
3 93 388 387
3 44 389 270
3 94 390 195
3 94 391 390
3 94 392 391
3 86 393 197
3 86 369 393
3 84 394 359
3 95 395 200
3 95 396 395
3 46 397 275
3 96 398 203
3 96 399 398
3 96 400 399
3 97 401 205
3 97 402 401
3 67 550 552
3 550 403 551
3 550 551 552
3 98 404 208
3 98 405 404
3 49 406 280
3 99 407 211
3 99 408 407
3 99 409 408
3 100 410 213
3 100 411 410
3 100 412 411
3 101 413 215
3 101 414 413
3 51 415 284
3 102 416 218
3 102 417 416
3 102 418 417
3 103 419 220
3 103 420 419
3 53 553 554
3 104 421 223
3 104 422 421
3 104 423 422
3 105 424 225
3 105 425 424
3 70 426 325
3 106 427 228
3 106 428 427
3 55 429 291
3 107 430 231
3 107 431 430
3 107 432 431
3 108 433 233
3 108 434 433
3 108 435 434
3 109 436 235
3 109 437 436
3 57 438 295
3 110 439 238
3 110 440 439
3 110 441 440
3 111 442 240
3 111 555 557
3 557 556 442
3 555 556 557
3 111 558 559
3 561 560 299
3 73 562 564
3 564 563 332
3 562 563 564
3 112 113 27
3 114 113 112
3 114 29 113
3 115 565 567
3 567 566 30
3 565 566 567
3 116 568 570
3 570 569 115
3 568 569 570
3 116 571 572
3 116 573 574
3 576 575 116
3 117 118 31
3 119 118 117
3 119 33 118
3 120 121 34
3 122 121 120
3 122 36 121
3 122 123 36
3 124 123 122
3 124 38 123
3 577 40 578
3 579 125 580
3 581 580 41
3 579 580 581
3 126 582 584
3 582 125 583
3 582 583 584
3 126 43 125
3 126 127 43
3 128 127 126
3 128 45 127
3 585 129 586
3 130 587 589
3 587 129 588
3 587 588 589
3 130 47 129
3 131 132 48
3 133 132 131
3 133 50 132
3 133 134 50
3 135 134 133
3 135 52 134
3 590 54 591
3 136 592 593
3 136 594 596
3 594 56 595
3 594 595 596
3 136 137 56
3 597 137 598
3 599 598 136
3 597 598 599
3 600 58 601
3 602 601 137
3 600 601 602
3 604 603 58
3 138 139 59
3 140 139 138
3 140 605 607
3 607 606 139
3 605 606 607
3 141 142 60
3 143 142 141
3 143 62 142
3 144 145 28
3 146 145 144
3 146 63 145
3 146 147 63
3 148 147 146
3 148 64 147
3 608 66 609
3 149 610 611
3 149 612 614
3 612 68 613
3 612 613 614
3 149 150 68
3 151 150 149
3 151 69 150
3 615 71 616
3 152 617 619
3 619 618 72
3 617 618 619
3 153 620 622
3 622 621 152
3 620 621 622
3 153 623 624
3 154 625 627
3 625 155 626
3 625 626 627
3 156 155 154
3 156 74 155
3 157 158 32
3 159 158 157
3 159 75 158
3 159 160 75
3 161 160 159
3 161 76 160
3 162 163 61
3 164 163 162
3 164 77 163
3 165 166 35
3 167 166 165
3 167 78 166
3 167 168 78
3 169 168 167
3 169 79 168
3 169 170 79
3 171 170 169
3 171 80 170
3 172 173 37
3 174 173 172
3 174 81 173
3 174 175 81
3 176 175 174
3 176 82 175
3 628 177 629
3 630 629 83
3 628 629 630
3 631 177 632
3 634 633 177
3 635 85 636
3 637 178 638
3 639 638 85
3 637 638 639
3 640 178 641
3 642 83 643
3 644 643 178
3 642 643 644
3 645 87 646
3 179 180 39
3 181 180 179
3 181 88 180
3 181 182 88
3 183 182 181
3 183 89 182
3 184 185 65
3 186 185 184
3 186 90 185
3 187 188 42
3 189 188 187
3 189 91 188
3 189 190 91
3 191 190 189
3 191 92 190
3 191 192 92
3 193 192 191
3 193 93 192
3 194 195 44
3 196 195 194
3 196 94 195
3 196 197 94
3 198 197 196
3 198 86 197
3 199 200 84
3 201 200 199
3 201 95 200
3 202 203 46
3 204 203 202
3 204 96 203
3 204 205 96
3 206 205 204
3 206 97 205
3 207 208 67
3 209 208 207
3 209 98 208
3 210 211 49
3 212 211 210
3 212 99 211
3 212 213 99
3 214 213 212
3 214 100 213
3 214 215 100
3 216 215 214
3 216 101 215
3 217 218 51
3 219 218 217
3 219 102 218
3 219 220 102
3 221 220 219
3 221 103 220
3 222 223 53
3 224 223 222
3 224 104 223
3 224 225 104
3 226 225 224
3 226 105 225
3 227 228 70
3 229 228 227
3 229 106 228
3 230 231 55
3 232 231 230
3 232 107 231
3 232 233 107
3 234 233 232
3 234 108 233
3 234 235 108
3 236 235 234
3 236 109 235
3 237 238 57
3 239 238 237
3 239 110 238
3 239 240 110
3 241 240 239
3 241 111 240
3 241 647 649
3 649 648 111
3 647 648 649
3 242 650 652
3 652 651 241
3 650 651 652
3 242 653 654
3 656 655 73
3 243 244 6
3 245 244 243
3 245 28 244
3 113 245 27
3 246 245 113
3 246 28 245
3 246 144 28
3 247 144 246
3 247 8 144
3 248 249 12
3 657 249 658
3 659 658 248
3 657 658 659
3 661 660 249
3 663 662 30
3 250 251 13
3 252 251 250
3 252 32 251
3 118 252 31
3 253 252 118
3 253 32 252
3 253 157 32
3 254 157 253
3 254 14 157
3 255 256 7
3 257 256 255
3 257 35 256
3 121 257 34
3 258 257 121
3 258 35 257
3 258 165 35
3 259 165 258
3 259 15 165
3 259 260 15
3 261 260 259
3 261 37 260
3 123 261 36
3 262 261 123
3 262 37 261
3 262 172 37
3 263 172 262
3 263 16 172
3 664 39 665
3 666 39 667
3 668 179 669
3 670 669 39
3 668 669 670
3 264 671 673
3 671 179 672
3 671 672 673
3 264 19 179
3 265 266 9
3 267 266 265
3 267 42 266
3 125 267 41
3 268 267 125
3 268 42 267
3 268 187 42
3 269 187 268
3 269 20 187
3 269 270 20
3 271 270 269
3 271 44 270
3 127 271 43
3 272 271 127
3 272 44 271
3 272 194 44
3 273 194 272
3 273 18 194
3 274 275 17
3 276 275 274
3 276 46 275
3 129 674 676
3 674 276 675
3 674 675 676
3 277 276 129
3 277 46 276
3 277 202 46
3 278 202 277
3 278 21 202
3 279 280 10
3 281 280 279
3 281 49 280
3 132 281 48
3 282 281 132
3 282 49 281
3 282 210 49
3 283 210 282
3 283 22 210
3 283 284 22
3 285 284 283
3 285 51 284
3 134 285 50
3 286 285 134
3 286 51 285
3 286 217 51
3 287 217 286
3 287 23 217
3 677 53 678
3 288 679 680
3 288 681 683
3 681 53 682
3 681 682 683
3 288 222 53
3 289 222 288
3 289 24 222
3 290 291 11
3 292 291 290
3 292 55 291
3 684 292 685
3 293 686 688
3 686 292 687
3 686 687 688
3 293 55 292
3 293 230 55
3 294 230 293
3 294 25 230
3 294 295 25
3 296 295 294
3 296 57 295
3 137 296 56
3 297 296 137
3 297 57 296
3 297 237 57
3 298 237 297
3 298 26 237
3 298 299 26
3 300 299 298
3 300 689 691
3 691 690 299
3 689 690 691
3 692 300 693
3 694 693 58
3 692 693 694
3 695 300 696
3 698 697 300
3 301 699 700
3 702 701 301
3 139 703 705
3 705 704 59
3 703 704 705
3 302 706 708
3 708 707 139
3 706 707 708
3 302 709 710
3 302 711 712
3 714 713 302
3 303 304 2
3 305 304 303
3 305 61 304
3 142 305 60
3 306 305 142
3 306 61 305
3 306 162 61
3 307 162 306
3 307 7 162
3 244 143 6
3 308 143 244
3 308 62 143
3 145 308 28
3 309 308 145
3 309 62 308
3 309 307 62
3 310 307 309
3 310 7 307
3 310 255 7
3 311 255 310
3 311 34 255
3 147 311 63
3 312 311 147
3 312 34 311
3 312 120 34
3 313 120 312
3 313 4 120
3 715 314 716
3 717 314 718
3 719 65 720
3 721 720 314
3 719 720 721
3 315 722 723
3 315 724 726
3 724 65 725
3 724 725 726
3 315 184 65
3 316 184 315
3 316 9 184
3 727 66 728
3 317 729 730
3 317 731 733
3 731 66 732
3 731 732 733
3 317 316 66
3 318 316 317
3 318 9 316
3 318 265 9
3 319 265 318
3 319 41 265
3 734 319 735
3 736 319 737
3 738 41 739
3 740 739 319
3 738 739 740
3 742 741 41
3 743 67 744
3 745 67 746
3 747 207 748
3 749 748 67
3 747 748 749
3 320 750 752
3 750 207 751
3 750 751 752
3 320 10 207
3 753 320 754
3 321 755 757
3 755 320 756
3 755 756 757
3 321 10 320
3 321 279 10
3 322 279 321
3 322 48 279
3 150 322 68
3 323 322 150
3 323 48 322
3 323 131 48
3 324 131 323
3 324 5 131
3 758 325 759
3 326 760 762
3 760 325 761
3 760 761 762
3 326 70 325
3 763 326 764
3 327 765 767
3 765 326 766
3 765 766 767
3 327 70 326
3 327 227 70
3 328 227 327
3 328 11 227
3 768 71 769
3 329 770 771
3 329 772 774
3 772 71 773
3 772 773 774
3 329 328 71
3 330 328 329
3 330 11 328
3 330 290 11
3 775 290 776
3 777 776 330
3 775 776 777
3 779 778 290
3 331 332 3
3 780 332 781
3 782 781 331
3 780 781 782
3 783 73 784
3 785 784 332
3 783 784 785
3 787 786 72
3 788 73 789
3 791 790 73
3 249 153 12
3 792 153 793
3 794 793 249
3 792 793 794
3 796 795 153
3 155 797 798
3 333 799 801
3 801 800 155
3 799 800 801
3 333 802 803
3 333 804 805
3 807 806 333
3 251 156 13
3 334 156 251
3 334 74 156
3 158 334 32
3 335 334 158
3 335 74 334
3 335 808 810
3 810 809 74
3 808 809 810
3 336 811 813
3 813 812 335
3 811 812 813
3 336 814 815
3 336 816 818
3 816 301 817
3 816 817 818
3 337 301 336
3 337 59 301
3 160 337 75
3 338 337 160
3 338 59 337
3 338 138 59
3 339 138 338
3 339 3 138
3 304 119 2
3 340 119 304
3 340 33 119
3 163 340 61
3 341 340 163
3 341 33 340
3 341 254 33
3 342 254 341
3 342 14 254
3 256 164 7
3 343 164 256
3 343 77 164
3 166 343 35
3 344 343 166
3 344 77 343
3 344 342 77
3 345 342 344
3 345 14 342
3 345 161 14
3 346 161 345
3 346 76 161
3 168 346 78
3 347 346 168
3 347 76 346
3 347 339 76
3 348 339 347
3 348 3 339
3 348 331 3
3 349 331 348
3 349 72 331
3 170 349 79
3 350 349 170
3 350 72 349
3 350 152 72
3 351 152 350
3 351 12 152
3 260 171 15
3 352 171 260
3 352 80 171
3 173 352 37
3 353 352 173
3 353 80 352
3 353 351 80
3 354 351 353
3 354 12 351
3 354 248 12
3 355 248 354
3 355 30 248
3 175 355 81
3 356 355 175
3 356 30 355
3 356 115 30
3 357 115 356
3 357 1 115
3 358 359 0
3 360 359 358
3 360 84 359
3 177 360 83
3 361 360 177
3 361 84 360
3 361 199 84
3 362 199 361
3 362 17 199
3 819 362 820
3 821 362 822
3 823 17 824
3 825 824 362
3 823 824 825
3 826 274 827
3 828 827 17
3 826 827 828
3 829 274 830
3 832 831 274
3 833 128 834
3 835 128 836
3 837 45 838
3 839 838 128
3 837 838 839
3 363 840 841
3 363 842 844
3 842 45 843
3 842 843 844
3 363 273 45
3 364 273 363
3 364 18 273
3 365 845 846
3 365 847 848
3 365 849 851
3 849 364 850
3 849 850 851
3 366 364 365
3 366 18 364
3 366 198 18
3 367 198 366
3 367 86 198
3 178 367 85
3 368 367 178
3 368 86 367
3 368 369 86
3 358 369 368
3 358 0 369
3 852 154 853
3 370 854 856
3 854 154 855
3 854 855 856
3 370 13 154
3 371 857 858
3 371 859 861
3 859 87 860
3 859 860 861
3 180 371 39
3 372 371 180
3 372 87 371
3 372 370 87
3 373 370 372
3 373 13 370
3 373 250 13
3 374 250 373
3 374 31 250
3 182 374 88
3 375 374 182
3 375 31 374
3 375 117 31
3 376 117 375
3 376 2 117
3 314 862 863
3 377 864 866
3 866 865 314
3 864 865 866
3 377 867 869
3 867 40 868
3 867 868 869
3 185 377 65
3 378 377 185
3 378 40 377
3 378 264 40
3 379 264 378
3 379 19 264
3 266 186 9
3 380 186 266
3 380 90 186
3 188 380 42
3 381 380 188
3 381 90 380
3 381 379 90
3 382 379 381
3 382 19 379
3 382 183 19
3 383 183 382
3 383 89 183
3 190 383 91
3 384 383 190
3 384 89 383
3 384 376 89
3 385 376 384
3 385 2 376
3 385 303 2
3 386 303 385
3 386 60 303
3 192 386 92
3 387 386 192
3 387 60 386
3 387 141 60
3 388 141 387
3 388 6 141
3 270 193 20
3 389 193 270
3 389 93 193
3 195 389 44
3 390 389 195
3 390 93 389
3 390 388 93
3 391 388 390
3 391 6 388
3 391 243 6
3 392 243 391
3 392 27 243
3 197 392 94
3 393 392 197
3 393 27 392
3 393 112 27
3 369 112 393
3 369 0 112
3 359 114 0
3 394 114 359
3 394 29 114
3 200 394 84
3 395 394 200
3 395 29 394
3 395 247 29
3 396 247 395
3 396 8 247
3 275 201 17
3 397 201 275
3 397 95 201
3 203 397 46
3 398 397 203
3 398 95 397
3 398 396 95
3 399 396 398
3 399 8 396
3 399 148 8
3 400 148 399
3 400 64 148
3 205 400 96
3 401 400 205
3 401 64 400
3 401 313 64
3 402 313 401
3 402 4 313
3 870 130 871
3 403 872 874
3 872 130 873
3 872 873 874
3 403 47 130
3 208 403 67
3 404 403 208
3 404 47 403
3 404 278 47
3 405 278 404
3 405 21 278
3 280 209 10
3 406 209 280
3 406 98 209
3 211 406 49
3 407 406 211
3 407 98 406
3 407 405 98
3 408 405 407
3 408 21 405
3 408 206 21
3 409 206 408
3 409 97 206
3 213 409 99
3 410 409 213
3 410 97 409
3 410 402 97
3 411 402 410
3 411 4 402
3 411 124 4
3 412 124 411
3 412 38 124
3 215 412 100
3 413 412 215
3 413 38 412
3 413 263 38
3 414 263 413
3 414 16 263
3 284 216 22
3 415 216 284
3 415 101 216
3 218 415 51
3 416 415 218
3 416 101 415
3 416 414 101
3 417 414 416
3 417 16 414
3 417 176 16
3 418 176 417
3 418 82 176
3 220 418 102
3 419 418 220
3 419 82 418
3 419 357 82
3 420 357 419
3 420 1 357
3 223 875 877
3 877 876 53
3 875 876 877
3 421 878 880
3 880 879 223
3 878 879 880
3 421 881 882
3 421 883 884
3 422 885 887
3 887 886 421
3 885 886 887
3 422 888 889
3 422 890 892
3 890 151 891
3 890 891 892
3 423 151 422
3 423 69 151
3 225 423 104
3 424 423 225
3 424 69 423
3 424 324 69
3 425 324 424
3 425 5 324
3 325 893 894
3 426 895 897
3 897 896 325
3 895 896 897
3 426 898 900
3 898 54 899
3 898 899 900
3 228 426 70
3 427 426 228
3 427 54 426
3 427 289 54
3 428 289 427
3 428 24 289
3 291 229 11
3 429 229 291
3 429 106 229
3 231 429 55
3 430 429 231
3 430 106 429
3 430 428 106
3 431 428 430
3 431 24 428
3 431 226 24
3 432 226 431
3 432 105 226
3 233 432 107
3 433 432 233
3 433 105 432
3 433 425 105
3 434 425 433
3 434 5 425
3 434 135 5
3 435 135 434
3 435 52 135
3 235 435 108
3 436 435 235
3 436 52 435
3 436 287 52
3 437 287 436
3 437 23 287
3 295 236 25
3 438 236 295
3 438 109 236
3 238 438 57
3 439 438 238
3 439 109 438
3 439 437 109
3 440 437 439
3 440 23 437
3 440 221 23
3 441 221 440
3 441 103 221
3 240 441 110
3 442 441 240
3 442 103 441
3 442 420 103
3 901 420 902
3 903 902 442
3 901 902 903
3 904 1 905
3 906 905 420
3 904 905 906
3 908 907 1
3 910 909 111
3 299 242 26
3 911 242 912
3 913 912 299
3 911 912 913
3 915 914 242
3 332 140 3
3 916 140 917
3 918 917 332
3 916 917 918
3 920 919 140
3 922 921 73
