ply
format ascii 1.0
element vertex 440
property float x
property float y
property float z
element face 520
property list uchar int vertex_index
end_header
-10.263027 -107.35881 -15.650969
-3.994784 -100.154594 -32.628738
-1.601586 -103.52253 -18.072569
2.895946 -99.579781 -27.007856
-7.999218 -106.1147 -24.059803
13.188255 -88.939308 -26.858818
7.685016 -91.253311 -34.549564
0.806557 -89.541084 -39.143723
-17.109613 -106.913513 -17.189896
-15.242822 -103.856842 -26.901981
-11.188544 -96.053123 -34.735035
-6.48677 -106.161041 -16.973696
-4.52854 -105.352951 -21.354959
-9.56528 -107.296761 -19.466766
10.76591 -92.408165 -22.767445
-0.556996 -100.59864 -30.105888
5.265937 -95.991028 -30.92898
2.029612 -96.182678 -33.988892
4.512986 -90.748016 -37.336998
-1.716709 -95.515541 -36.084259
-20.702953 -104.746986 -17.388226
-16.596136 -105.98851 -22.054403
-19.825632 -103.442924 -22.569304
-16.227722 -97.03656 -31.5135
3.377088 -99.730598 -18.349476
5.921105 -97.601181 -22.914206
0.516593 -102.174438 -22.608046
-2.624996 -103.544037 -25.871708
-6.163639 -103.758568 -28.577759
-22.205433 -99.632301 -22.936457
8.306421 -94.541962 -27.213413
10.871836 -90.258865 -31.135477
-12.734025 -106.810249 -11.964457
-13.454274 -107.674767 -16.489532
-16.800638 -106.678642 -12.253839
-20.550327 -105.068741 -12.124619
-8.58135 -105.929985 -12.431474
1.010076 -100.666069 -13.64746
-4.006949 -103.959503 -13.26213
-13.02667 -107.273857 -20.950775
-11.748682 -105.712845 -25.693869
-9.976473 -102.927406 -30.092598
-18.510265 -100.780144 -27.213907
-13.471564 -100.640549 -31.046885
-7.836256 -98.723083 -34.104084
-5.168711 -93.353653 -37.443703
-2.693183 -87.076126 -40.075092
-8.635518 -106.941956 -16.234592
-7.939332 -106.874275 -18.320955
-9.903821 -107.422165 -17.374952
11.883144 -91.046211 -20.493414
9.529012 -93.822456 -20.630737
-2.098216 -100.443253 -31.494364
0.769692 -98.500671 -32.126293
-1.024418 -98.240608 -33.535889
0.151477 -95.997238 -35.158592
-2.934948 -97.952858 -34.454288
-20.344931 -104.257027 -20.039188
-21.740046 -102.567055 -20.231028
0.939102 -101.700386 -18.149654
2.154998 -100.947998 -20.540892
-0.391738 -102.86908 -20.286495
-6.284165 -105.927917 -22.733286
-3.691148 -104.629753 -23.665916
-5.435851 -105.055321 -25.057549
-4.364612 -103.812363 -27.320108
-7.093002 -105.059891 -26.420361
4.359415 -98.81958 -24.975027
7.089041 -96.220184 -25.136724
5.541693 -97.26049 -27.214584
6.521762 -93.746422 -32.741646
8.11679 -93.189224 -31.173687
9.300132 -90.912971 -32.936089
2.727443 -90.306801 -38.323914
3.891831 -87.215935 -39.702625
-14.145479 -106.134781 -9.6619
-14.842307 -106.869232 -11.964613
-16.202679 -106.099281 -9.740787
-12.050659 -105.940605 -9.810567
3.534567 -98.731262 -14.05277
2.24718 -99.004364 -11.44257
-2.732686 -102.492996 -11.256813
-5.124846 -103.685898 -10.723489
-6.364041 -105.037994 -12.671062
-7.542655 -104.756729 -10.43964
-15.264047 -107.450958 -16.779325
-13.257844 -107.615868 -18.689604
-15.225049 -107.237526 -19.235786
-16.029848 -105.122429 -24.420544
-14.173397 -106.05304 -24.002806
-13.527843 -105.004967 -26.296234
-10.993966 -104.483002 -27.927553
-12.667231 -103.631111 -28.562494
-20.501587 -100.424187 -25.090054
-19.678596 -98.833504 -27.3337
-13.739519 -96.609589 -33.298012
-14.909193 -98.852348 -31.448956
-12.269703 -98.48996 -33.029701
-10.705009 -99.925659 -32.658581
-9.45142 -97.592186 -34.514778
-6.650359 -96.111801 -35.8843
-8.219408 -94.853714 -36.219997
-4.159854 -105.022659 -17.437407
-3.117465 -104.619347 -19.760271
-5.523981 -105.886215 -19.109644
-7.121213 -106.52478 -20.450453
-8.711135 -106.826279 -21.724455
12.013547 -90.744431 -24.850052
1.196796 -100.261002 -28.593063
4.071251 -97.892723 -29.076189
2.433947 -98.389008 -30.634794
3.778657 -96.143097 -32.574429
4.991765 -93.745819 -34.360817
6.14607 -91.091774 -36.075085
3.181181 -93.634148 -35.740452
1.45285 -93.247208 -36.819839
-0.341046 -92.568459 -37.713924
-18.988314 -106.001976 -17.321175
-17.102037 -106.518867 -19.665842
-18.874922 -105.499969 -19.830399
-18.351736 -104.849388 -22.32411
-17.612696 -103.882027 -24.82375
-18.566141 -96.969032 -29.538586
-17.352131 -94.989922 -31.458075
-15.098165 -94.728622 -33.247536
-9.648604 -93.262138 -36.436401
7.087677 -96.446419 -20.795265
4.621442 -98.829239 -20.688709
3.297669 -99.982513 -22.728134
1.841033 -100.927475 -24.729956
-2.01924 -103.911514 -22.00956
-0.863168 -102.902557 -24.286896
0.146125 -101.725487 -26.477427
-1.566878 -102.197945 -28.03455
-3.445295 -102.405518 -29.3799
-5.112317 -102.052383 -30.738428
8.511967 -94.953316 -22.899157
9.622242 -93.551872 -24.947657
10.818671 -91.791481 -27.064262
6.980443 -95.209457 -29.249887
9.643164 -92.457283 -29.252613
12.091396 -89.700005 -29.071993
-11.415367 -107.23304 -14.056744
-11.701962 -107.611481 -15.990908
-13.240942 -107.420364 -14.217925
-15.140982 -107.328667 -14.343625
-17.056746 -106.950256 -14.702065
-18.689947 -106.093132 -12.332602
-18.928188 -106.19976 -14.818298
-20.645876 -105.116898 -14.834582
-9.772772 -105.48188 -10.130676
-10.686825 -106.50383 -12.158291
-9.515414 -106.814301 -14.224338
4.609113 -98.293709 -16.255331
2.190173 -100.341087 -16.080294
-0.219313 -102.160339 -15.879264
-0.290234 -100.891022 -11.357056
-1.577128 -102.527824 -13.608433
-2.615663 -103.763756 -15.685635
-5.199602 -105.168625 -15.191465
-7.478367 -106.143761 -14.640574
-11.54293 -107.660278 -18.011049
-11.19253 -107.419182 -20.299614
-10.467072 -106.877647 -22.657333
-14.798903 -106.793159 -21.595253
-12.402703 -106.657364 -23.318142
-9.912181 -106.062042 -25.004375
-9.086477 -104.9655 -27.226645
-8.035471 -103.541542 -29.374722
-7.0357 -101.695168 -31.538155
-21.190586 -101.658089 -22.716059
-19.275381 -102.24601 -24.923588
-17.04343 -102.426788 -27.111557
-17.428446 -99.120293 -29.425869
-16.050364 -100.797462 -29.362593
-14.420262 -102.347008 -29.082808
-11.603975 -101.896851 -30.764645
-8.757571 -100.961372 -32.225353
-5.897875 -99.527397 -33.542747
-4.955614 -97.321602 -35.205559
-3.487387 -94.58609 -36.87735
-2.341425 -91.684776 -38.349003
-6.770678 -91.832916 -37.78109
-3.845523 -90.157288 -38.8969
-0.859504 -88.477234 -39.712769
8.910754 -94.412052 -19.528382
10.087993 -93.091778 -19.477654
-22.47394 -102.021767 -19.027222
-21.850338 -102.95002 -19.012785
14.373423 -87.394936 -26.738579
13.835715 -88.270069 -25.7028
13.828332 -87.874909 -27.786876
14.373423 -87.394936 -26.738579
9.06919 -89.827305 -34.603096
9.876748 -89.657135 -33.796358
8.492574 -91.083141 -33.742826
8.362317 -89.795665 -35.396627
9.06919 -89.827305 -34.603096
1.5143 -87.858719 -39.810439
3.056937 -86.696144 -40.089889
2.349194 -88.37851 -39.423174
-15.832866 -105.676319 -8.540425
-15.174079 -106.117031 -9.701344
-14.804267 -105.694069 -8.500982
-14.804267 -105.694069 -8.500982
-13.645805 -105.660679 -8.605032
2.757119 -98.141144 -10.209231
3.403371 -98.039658 -11.45359
-5.708074 -103.509079 -9.605031
-4.439392 -102.886513 -9.736118
-6.916978 -104.044495 -9.463107
-6.33375 -104.221314 -10.581565
-5.708074 -103.509079 -9.605031
-20.166328 -97.770214 -27.313182
-20.570939 -98.619713 -26.262004
11.945805 -90.954662 -22.682127
12.504423 -90.273685 -21.545112
11.324527 -91.727188 -21.630429
11.389729 -91.576298 -23.808749
12.569624 -90.122795 -23.72343
11.945805 -90.954662 -22.682127
-17.887553 -93.852993 -31.311746
-18.465245 -94.868515 -30.413457
-14.489384 -93.512264 -34.001663
-15.691092 -93.625706 -33.156454
-13.789576 -94.40583 -34.104389
-14.489384 -93.512264 -34.001663
3.999265 -99.279919 -19.519092
5.197805 -98.198494 -19.621744
4.575628 -98.649174 -18.452127
12.139944 -88.799179 -31.030945
12.749723 -88.519749 -29.999203
11.481616 -89.979435 -30.103735
5.920431 -89.467133 -37.499836
6.736973 -89.639012 -36.86888
5.329528 -90.919895 -36.706041
-19.620137 -105.580937 -12.22861
-19.341971 -105.511398 -10.991318
-20.272161 -104.999203 -10.887326
-10.34535 -105.137089 -8.926157
-9.242028 -104.854198 -9.113709
5.19078 -97.489682 -15.083196
5.834229 -97.114132 -16.211058
-0.833692 -100.784577 -10.132212
0.338589 -99.964749 -10.131574
-21.698009 -100.645195 -22.826258
-22.024155 -101.132428 -21.556144
-22.531579 -100.119533 -21.666343
-7.561488 -90.989429 -37.826836
-8.209641 -92.547527 -37.108745
-9.000451 -91.70404 -37.154491
-3.269353 -88.616707 -39.485996
-4.751504 -89.482647 -38.957205
-4.175334 -87.942066 -39.546301
-1.116483 -86.056816 -40.521633
-0.199644 -86.75737 -40.340471
-1.776343 -87.77668 -39.89393
11.265059 -91.703655 -19.408993
12.384654 -90.321324 -19.234389
10.706078 -92.434334 -20.562075
11.265059 -91.703655 -19.408993
10.087993 -93.091778 -19.477654
-21.15278 -103.795006 -18.916865
-20.523942 -104.502006 -18.713707
-21.331792 -104.039986 -17.591384
-21.042488 -103.412041 -20.135108
-21.15278 -103.795006 -18.916865
-21.850338 -102.95002 -19.012785
10.714827 -89.356274 -32.935789
11.500679 -89.029221 -32.035483
10.085984 -90.585918 -32.035783
10.714827 -89.356274 -32.935789
9.876748 -89.657135 -33.796358
4.153442 -89.090309 -38.552964
5.046214 -89.310917 -38.059506
3.620214 -90.527409 -37.830456
4.735636 -87.544876 -39.242319
4.153442 -89.090309 -38.552964
3.309637 -88.761368 -39.013269
5.395026 -85.92606 -39.910097
4.735636 -87.544876 -39.242319
4.468047 -85.554856 -40.351501
5.395026 -85.92606 -39.910097
4.468047 -85.554856 -40.351501
3.056937 -86.696144 -40.089889
-21.117903 -104.436222 -10.867665
-20.272161 -104.999203 -10.887326
-21.291791 -104.481735 -12.296365
-21.117903 -104.436222 -10.867665
-12.598395 -105.563591 -8.679365
-11.484293 -105.366451 -8.766103
-13.098069 -106.037693 -9.736234
-12.598395 -105.563591 -8.679365
-13.645805 -105.660679 -8.605032
4.047064 -97.903107 -12.75869
4.653507 -97.708458 -13.981916
2.890874 -98.867813 -12.74767
4.047064 -97.903107 -12.75869
3.403371 -98.039658 -11.45359
-3.243312 -102.290062 -10.002779
-2.054918 -101.585564 -10.08209
-3.928766 -103.089447 -10.990151
-3.243312 -102.290062 -10.002779
-4.439392 -102.886513 -9.736118
-20.982435 -99.415054 -25.140181
-21.35351 -100.028244 -24.013255
-21.834357 -99.019112 -24.063383
-20.090091 -99.628846 -26.211877
-20.982435 -99.415054 -25.140181
-20.570939 -98.619713 -26.262004
-3.423719 -86.275905 -40.162813
-4.175334 -87.942066 -39.546301
-1.994708 -85.379173 -40.650177
-3.423719 -86.275905 -40.162813
12.954736 -89.673565 -20.347124
12.384654 -90.321324 -19.234389
12.954736 -89.673565 -20.347124
12.504423 -90.273685 -21.545112
13.248362 -89.17263 -24.698417
12.569624 -90.122795 -23.72343
12.600901 -89.84187 -25.854435
13.835715 -88.270069 -25.7028
13.248362 -89.17263 -24.698417
-19.072249 -95.85807 -29.453713
-19.610101 -96.837978 -28.415625
-17.959136 -95.979477 -30.498331
-19.072249 -95.85807 -29.453713
-18.465245 -94.868515 -30.413457
-16.818075 -93.756356 -32.261724
-17.887553 -93.852993 -31.311746
-16.225148 -94.859272 -32.352806
-16.818075 -93.756356 -32.261724
-15.691092 -93.625706 -33.156454
-13.110253 -95.346314 -34.129627
-14.418842 -95.669106 -33.272774
-13.789576 -94.40583 -34.104389
-11.834765 -95.068081 -34.848139
-12.464032 -96.331356 -34.016524
-13.110253 -95.346314 -34.129627
-11.064796 -93.672588 -35.698822
-10.418574 -94.65763 -35.585718
-11.834765 -95.068081 -34.848139
-10.393484 -92.273289 -36.446663
-11.064796 -93.672588 -35.698822
-9.000451 -91.70404 -37.154491
-10.393484 -92.273289 -36.446663
6.430923 -97.007084 -19.675022
7.690086 -95.724034 -19.610646
5.85456 -97.637829 -20.741987
6.430923 -97.007084 -19.675022
5.197805 -98.198494 -19.621744
-22.955135 -99.060665 -21.68404
-22.531579 -100.119533 -21.666343
-22.672117 -98.467697 -22.857866
-22.955135 -99.060665 -21.68404
-21.834357 -99.019112 -24.063383
-22.672117 -98.467697 -22.857866
8.308345 -95.134438 -20.713001
8.910754 -94.412052 -19.528382
7.690086 -95.724034 -19.610646
13.279902 -88.255257 -28.893464
13.828332 -87.874909 -27.786876
12.639826 -89.319657 -27.965405
13.279902 -88.255257 -28.893464
12.749723 -88.519749 -29.999203
12.139944 -88.799179 -31.030945
11.500679 -89.029221 -32.035483
7.592843 -89.714897 -36.159388
8.362317 -89.795665 -35.396627
6.915543 -91.172542 -35.312325
7.592843 -89.714897 -36.159388
6.736973 -89.639012 -36.86888
5.920431 -89.467133 -37.499836
5.046214 -89.310917 -38.059506
-16.860346 -105.550209 -8.472801
-15.832866 -105.676319 -8.540425
-17.169799 -105.910858 -9.767354
-16.860346 -105.550209 -8.472801
-17.468778 -106.200538 -11.023881
-16.501658 -106.388961 -10.997313
-17.169799 -105.910858 -9.767354
-18.413433 -105.907783 -11.063262
-19.341971 -105.511398 -10.991318
-17.745292 -106.385887 -12.293221
-17.468778 -106.200538 -11.023881
-18.413433 -105.907783 -11.063262
-21.339565 -104.505814 -13.651346
-20.598101 -105.09282 -13.479601
-21.291791 -104.481735 -12.296365
-21.425992 -104.378949 -14.910472
-21.339565 -104.505814 -13.651346
-21.454531 -104.193993 -16.187294
-20.674415 -104.931942 -16.111404
-21.425992 -104.378949 -14.910472
-21.331792 -104.039986 -17.591384
-21.454531 -104.193993 -16.187294
-8.12697 -104.491623 -9.268192
-6.916978 -104.044495 -9.463107
-8.657713 -105.119304 -10.285158
-8.12697 -104.491623 -9.268192
-9.242028 -104.854198 -9.113709
-10.911715 -105.711242 -9.970622
-10.34535 -105.137089 -8.926157
-11.484293 -105.366451 -8.766103
5.191641 -97.930729 -17.405055
5.834229 -97.114132 -16.211058
3.9931 -99.012154 -17.302404
4.575628 -98.649174 -18.452127
5.191641 -97.930729 -17.405055
4.07184 -98.512485 -15.154051
5.19078 -97.489682 -15.083196
4.653507 -97.708458 -13.981916
1.607296 -99.02142 -10.17433
2.757119 -98.141144 -10.209231
0.978473 -99.947693 -11.399813
1.607296 -99.02142 -10.17433
0.338589 -99.964749 -10.131574
-1.51146 -101.692009 -11.306935
-0.833692 -100.784577 -10.132212
-2.054918 -101.585564 -10.08209
-22.298885 -101.58691 -20.313629
-22.47394 -102.021767 -19.027222
-21.465316 -102.112572 -21.473543
-22.298885 -101.58691 -20.313629
-22.024155 -101.132428 -21.556144
-19.122369 -97.901268 -28.436143
-20.166328 -97.770214 -27.313182
-19.610101 -96.837978 -28.415625
-6.214082 -90.320461 -38.399299
-7.561488 -90.989429 -37.826836
-5.308101 -90.995102 -38.338995
-6.214082 -90.320461 -38.399299
-4.751504 -89.482647 -38.957205
0.68127 -87.326794 -40.094961
1.5143 -87.858719 -39.810439
-0.026474 -89.009159 -39.428246
0.68127 -87.326794 -40.094961
-0.199644 -86.75737 -40.340471
-1.116483 -86.056816 -40.521633
-1.994708 -85.379173 -40.650177
3 0 49 47
3 185 51 186
3 1 54 52
3 1 56 54
3 187 58 188
3 2 61 59
3 4 64 62
3 4 66 64
3 5 189 190
3 5 191 192
3 3 69 67
3 6 72 70
3 6 193 195
3 195 194 72
3 193 194 195
3 6 196 197
3 7 74 73
3 7 198 200
3 200 199 74
3 198 199 200
3 201 77 202
3 203 202 75
3 201 202 203
3 204 75 205
3 206 80 207
3 208 82 209
3 210 84 211
3 212 211 82
3 210 211 212
3 8 87 85
3 9 90 88
3 9 92 90
3 213 94 214
3 10 97 95
3 10 99 97
3 10 101 99
3 11 104 102
3 13 105 48
3 13 106 105
3 14 215 217
3 217 216 50
3 215 216 217
3 14 218 220
3 218 107 219
3 218 219 220
3 15 110 108
3 17 111 53
3 17 112 111
3 17 114 112
3 19 115 55
3 19 116 115
3 20 119 117
3 22 120 57
3 22 121 120
3 221 123 222
3 223 124 224
3 226 225 124
3 24 227 229
3 227 127 228
3 227 228 229
3 26 128 60
3 26 129 128
3 12 130 103
3 27 131 63
3 27 132 131
3 27 133 132
3 28 134 65
3 28 135 134
3 25 136 126
3 30 137 68
3 30 138 137
3 16 139 109
3 31 140 71
3 31 141 140
3 31 230 232
3 232 231 141
3 230 231 232
3 18 233 235
3 235 234 113
3 233 234 235
3 32 144 142
3 34 145 76
3 34 146 145
3 35 236 238
3 236 147 237
3 236 237 238
3 35 148 147
3 35 149 148
3 239 150 240
3 32 151 78
3 32 142 151
3 241 153 242
3 37 154 79
3 37 155 154
3 243 156 244
3 38 157 81
3 38 158 157
3 38 159 158
3 36 160 83
3 36 152 160
3 33 161 143
3 39 162 86
3 39 163 162
3 21 164 118
3 40 165 89
3 40 166 165
3 40 167 166
3 41 168 91
3 41 169 168
3 29 245 247
3 245 170 246
3 245 246 247
3 42 171 93
3 42 172 171
3 23 173 122
3 43 174 96
3 43 175 174
3 43 176 175
3 44 177 98
3 44 178 177
3 44 179 178
3 45 180 100
3 45 181 180
3 248 182 249
3 250 249 125
3 248 249 250
3 46 251 253
3 251 183 252
3 251 252 253
3 46 184 183
3 46 254 256
3 256 255 184
3 254 255 256
3 47 48 11
3 49 48 47
3 49 13 48
3 257 50 258
3 51 259 261
3 259 50 260
3 259 260 261
3 51 14 50
3 52 53 15
3 54 53 52
3 54 17 53
3 54 55 17
3 56 55 54
3 56 19 55
3 262 57 263
3 264 263 20
3 262 263 264
3 58 265 267
3 265 57 266
3 265 266 267
3 58 22 57
3 59 60 24
3 61 60 59
3 61 26 60
3 62 63 12
3 64 63 62
3 64 27 63
3 64 65 27
3 66 65 64
3 66 28 65
3 67 68 25
3 69 68 67
3 69 30 68
3 70 71 16
3 72 71 70
3 72 31 71
3 72 268 270
3 270 269 31
3 268 269 270
3 272 271 72
3 73 273 275
3 275 274 18
3 273 274 275
3 74 276 278
3 278 277 73
3 276 277 278
3 74 279 280
3 74 281 282
3 284 283 74
3 75 76 32
3 77 76 75
3 77 34 76
3 285 35 286
3 288 287 35
3 289 78 290
3 75 291 293
3 291 78 292
3 291 292 293
3 75 32 78
3 294 79 295
3 80 296 298
3 296 79 297
3 296 297 298
3 80 37 79
3 299 81 300
3 82 301 303
3 301 81 302
3 301 302 303
3 82 38 81
3 82 83 38
3 84 83 82
3 84 36 83
3 85 86 33
3 87 86 85
3 87 39 86
3 88 89 21
3 90 89 88
3 90 40 89
3 90 91 40
3 92 91 90
3 92 41 91
3 304 93 305
3 306 305 29
3 304 305 306
3 94 307 309
3 307 93 308
3 307 308 309
3 94 42 93
3 95 96 23
3 97 96 95
3 97 43 96
3 97 98 43
3 99 98 97
3 99 44 98
3 99 100 44
3 101 100 99
3 101 45 100
3 310 46 311
3 313 312 46
3 102 103 2
3 104 103 102
3 104 12 103
3 48 104 11
3 105 104 48
3 105 12 104
3 105 62 12
3 106 62 105
3 106 4 62
3 50 314 315
3 317 316 50
3 107 318 319
3 107 320 322
3 320 5 321
3 320 321 322
3 108 109 3
3 110 109 108
3 110 16 109
3 53 110 15
3 111 110 53
3 111 16 110
3 111 70 16
3 112 70 111
3 112 6 70
3 112 113 6
3 114 113 112
3 114 18 113
3 55 114 17
3 115 114 55
3 115 18 114
3 115 73 18
3 116 73 115
3 116 7 73
3 117 118 8
3 119 118 117
3 119 21 118
3 57 119 20
3 120 119 57
3 120 21 119
3 120 88 21
3 121 88 120
3 121 9 88
3 323 122 324
3 123 325 327
3 325 122 326
3 325 326 327
3 123 23 122
3 328 123 329
3 124 330 332
3 330 123 331
3 330 331 332
3 124 23 123
3 124 95 23
3 333 95 334
3 335 334 124
3 333 334 335
3 336 10 337
3 338 337 95
3 336 337 338
3 339 125 340
3 341 340 10
3 339 340 341
3 342 125 343
3 345 344 125
3 346 126 347
3 127 348 350
3 348 126 349
3 348 349 350
3 127 25 126
3 60 127 24
3 128 127 60
3 128 25 127
3 128 67 25
3 129 67 128
3 129 3 67
3 103 61 2
3 130 61 103
3 130 26 61
3 63 130 12
3 131 130 63
3 131 26 130
3 131 129 26
3 132 129 131
3 132 3 129
3 132 108 3
3 133 108 132
3 133 15 108
3 65 133 27
3 134 133 65
3 134 15 133
3 134 52 15
3 135 52 134
3 135 1 52
3 351 29 352
3 353 29 354
3 356 355 29
3 126 357 359
3 357 51 358
3 357 358 359
3 136 51 126
3 136 14 51
3 68 136 25
3 137 136 68
3 137 14 136
3 137 107 14
3 138 107 137
3 138 5 107
3 109 69 3
3 139 69 109
3 139 30 69
3 71 139 16
3 140 139 71
3 140 30 139
3 140 138 30
3 141 138 140
3 141 5 138
3 141 360 362
3 362 361 5
3 360 361 362
3 364 363 141
3 366 365 31
3 113 367 369
3 369 368 6
3 367 368 369
3 371 370 113
3 373 372 18
3 142 143 0
3 144 143 142
3 144 33 143
3 76 144 32
3 145 144 76
3 145 33 144
3 145 85 33
3 146 85 145
3 146 8 85
3 374 77 375
3 376 77 377
3 378 34 379
3 380 379 77
3 378 379 380
3 147 381 382
3 147 383 385
3 383 34 384
3 383 384 385
3 147 146 34
3 148 146 147
3 148 8 146
3 148 117 8
3 149 117 148
3 149 20 117
3 386 149 387
3 388 387 35
3 386 387 388
3 389 149 390
3 391 20 392
3 393 392 149
3 391 392 393
3 395 394 20
3 396 84 397
3 150 398 400
3 398 84 399
3 398 399 400
3 150 36 84
3 78 401 403
3 401 150 402
3 401 402 403
3 151 150 78
3 151 36 150
3 151 152 36
3 142 152 151
3 142 0 152
3 153 404 405
3 153 406 408
3 406 24 407
3 406 407 408
3 79 409 411
3 409 153 410
3 409 410 411
3 154 153 79
3 154 24 153
3 154 59 24
3 155 59 154
3 155 2 59
3 412 80 413
3 156 414 416
3 414 80 415
3 414 415 416
3 156 37 80
3 81 417 419
3 417 156 418
3 417 418 419
3 157 156 81
3 157 37 156
3 157 155 37
3 158 155 157
3 158 2 155
3 158 102 2
3 159 102 158
3 159 11 102
3 83 159 38
3 160 159 83
3 160 11 159
3 160 47 11
3 152 47 160
3 152 0 47
3 143 49 0
3 161 49 143
3 161 13 49
3 86 161 33
3 162 161 86
3 162 13 161
3 162 106 13
3 163 106 162
3 163 4 106
3 118 87 8
3 164 87 118
3 164 39 87
3 89 164 21
3 165 164 89
3 165 39 164
3 165 163 39
3 166 163 165
3 166 4 163
3 166 66 4
3 167 66 166
3 167 28 66
3 91 167 40
3 168 167 91
3 168 28 167
3 168 135 28
3 169 135 168
3 169 1 135
3 420 58 421
3 170 422 424
3 422 58 423
3 422 423 424
3 170 22 58
3 93 170 29
3 171 170 93
3 171 22 170
3 171 121 22
3 172 121 171
3 172 9 121
3 122 425 427
3 425 94 426
3 425 426 427
3 173 94 122
3 173 42 94
3 96 173 23
3 174 173 96
3 174 42 173
3 174 172 42
3 175 172 174
3 175 9 172
3 175 92 9
3 176 92 175
3 176 41 92
3 98 176 43
3 177 176 98
3 177 41 176
3 177 169 41
3 178 169 177
3 178 1 169
3 178 56 1
3 179 56 178
3 179 19 56
3 100 179 44
3 180 179 100
3 180 19 179
3 180 116 19
3 181 116 180
3 181 7 116
3 125 101 10
3 182 101 125
3 182 45 101
3 428 182 429
3 183 430 432
3 430 182 431
3 430 431 432
3 183 45 182
3 183 181 45
3 184 181 183
3 184 7 181
3 184 433 435
3 435 434 7
3 433 434 435
3 437 436 184
3 439 438 46
