ply
format ascii 1.0
element vertex 868
property float x
property float y
property float z
element face 1088
property list uchar int vertex_index
end_header
34.795044 -36.857624 -13.649459
39.5797 -25.612141 -44.669739
40.073246 -8.05216 -37.091099
37.902103 -32.411079 -27.921299
31.58814 -51.494995 -13.479476
36.822697 -30.017202 -17.420744
38.071762 -25.470959 -25.247976
35.876553 -35.113304 -20.041637
33.183807 -52.805302 -22.322746
40.57975 -15.331176 -41.602608
40.061512 -1.192198 -46.077862
39.358784 -14.646382 -28.838461
39.600952 -20.553537 -33.065708
39.614655 -29.006926 -36.329639
33.449738 -41.561481 -6.668163
33.373386 -42.90332 -13.601711
30.897354 -49.327156 -4.97667
35.36631 -38.881149 0.518288
36.060295 -34.462444 -9.149208
35.058037 -42.929989 -21.266586
37.111107 -41.840858 -29.812515
37.606419 -40.244068 -38.296574
39.056801 3.654367 -39.396439
35.709129 -33.89146 -15.439358
36.25494 -32.307251 -18.899992
35.18853 -36.0439 -16.566572
40.369629 -20.1752 -43.301807
40.489174 -12.539334 -45.982841
39.961639 -17.78157 -47.515701
38.677418 -23.707695 -48.72784
38.987022 -17.896172 -24.853689
37.984051 -28.551113 -26.680132
38.845093 -22.955181 -29.055315
38.937973 -26.42009 -30.739578
39.750416 -24.398846 -34.886631
38.877636 -30.865978 -32.059418
32.756821 -44.025486 -2.000645
32.130287 -45.416927 -5.6668
31.253023 -47.924278 -1.173066
28.278776 -56.313053 0.146767
34.970131 -40.642727 5.493009
33.730171 -42.524506 1.752104
34.241039 -40.388474 -3.139416
37.274574 -30.738085 -10.672098
37.067432 -33.044014 -6.070168
32.514034 -47.054504 -13.291624
34.040043 -43.068382 -17.2066
33.332237 -47.530376 -17.410475
35.262997 -47.817394 -26.242903
35.800137 -47.716244 -30.580038
37.616055 -41.245693 -34.191025
35.92836 -47.055702 -34.905865
33.972427 -45.630245 -42.836975
39.689362 -5.626554 -34.194141
39.166794 -0.439111 -35.024719
39.80204 -1.97151 -38.386097
37.868092 -25.734804 -19.164539
38.325089 -22.942066 -23.246016
37.375072 -27.781973 -21.241798
37.036289 -30.51329 -22.662651
36.87178 -33.734352 -23.932892
32.361008 -52.2812 -17.821411
40.392723 -11.104461 -39.528481
40.223408 -4.465482 -41.482506
40.513855 -8.388499 -43.983826
39.733501 -11.464527 -32.766491
38.862869 -20.04495 -27.236816
39.449059 -17.191706 -31.242443
39.998653 -14.239048 -35.312897
40.259399 -17.84259 -37.474403
40.273842 -22.326719 -39.102909
39.879856 -27.247772 -40.531132
34.140701 -39.095764 -10.584177
34.109482 -39.504513 -13.61298
33.100403 -42.560341 -10.006482
32.082386 -46.348438 -9.447665
31.072186 -50.452892 -9.29704
29.787685 -52.010712 -0.289427
29.590221 -53.695114 -4.74908
29.824432 -54.966801 -9.120174
38.035294 -33.262791 2.720938
36.623726 -37.019833 4.198556
36.895477 -35.157616 -0.931928
35.708157 -36.740723 -4.620338
34.745777 -38.045643 -7.748218
35.257767 -35.756935 -11.700275
36.390568 -32.237465 -13.449734
34.617058 -39.241421 -16.973299
35.477142 -38.756298 -20.649376
36.593346 -38.031059 -24.812756
34.372074 -47.62191 -21.768732
36.134693 -42.657005 -25.483181
37.698925 -36.770782 -28.98834
38.493286 -35.994282 -33.140953
38.932564 -34.645615 -37.337467
38.788998 -33.248566 -41.484043
35.270535 -46.513367 -39.087589
36.83567 -39.206902 -42.446362
38.031841 -31.474669 -45.590549
39.71801 1.69249 -42.938225
35.203365 -35.537598 -14.429897
35.418777 -34.93618 -16.034906
34.939312 -36.511223 -14.916026
40.053471 -22.965076 -43.953007
40.21862 -19.304037 -45.34705
39.832397 -21.720409 -46.074406
39.455429 -20.599991 -48.132099
39.242729 -24.457029 -46.750683
38.803974 -19.61915 -22.797113
37.933983 -30.532434 -27.30513
38.446148 -27.598207 -28.631744
38.465782 -29.497738 -29.425781
38.940868 -28.606226 -31.484118
38.413712 -31.516134 -29.943699
32.38982 -45.209572 0.301034
31.967396 -46.024849 -1.598413
31.575012 -47.200333 0.815197
33.208797 -43.266773 -0.28913
37.658791 -31.153475 -6.801412
37.609257 -32.251472 -4.298222
32.115883 -49.137062 -13.435522
32.928036 -47.180859 -15.389422
32.488434 -49.543736 -15.549121
34.762749 -50.665962 -28.673958
34.937756 -50.459248 -30.915874
35.920895 -47.460602 -32.799686
34.867279 -50.468887 -33.101627
39.889389 -6.72265 -35.639751
39.772346 -3.799506 -36.357098
39.992733 -5.073241 -37.786774
37.367466 -27.927017 -18.249331
37.624691 -26.599373 -20.255714
37.09026 -28.874237 -19.35195
36.037521 -33.661015 -19.474178
36.621544 -31.409046 -20.743166
36.46199 -32.839878 -21.309097
36.938889 -32.050423 -23.290968
36.360657 -34.443771 -21.985744
40.51992 -13.138939 -40.586903
40.498062 -9.59259 -41.80978
40.589794 -11.771838 -42.6842
40.231071 -11.348484 -48.219135
39.305946 -13.665163 -27.421621
39.628674 -10.184104 -31.598103
39.55019 -12.954573 -30.792892
38.155174 -24.218174 -24.248474
38.580772 -21.511299 -25.200821
38.502285 -22.720503 -26.261049
39.247101 -21.622242 -31.104263
39.188473 -20.093527 -30.249655
39.530563 -18.737577 -32.261539
39.737747 -15.768976 -33.293259
39.839252 -17.409052 -34.236614
40.132675 -15.986711 -36.373497
39.962532 -19.054478 -35.262077
39.703388 -26.732069 -35.494648
40.069687 -23.28297 -37.052227
39.96899 -25.846775 -37.607906
40.117626 -24.989264 -39.663979
39.77721 -28.442705 -38.358952
33.814663 -40.266315 -8.721615
33.61623 -40.784306 -10.296497
33.210838 -42.091011 -8.274493
31.513727 -47.3419 -5.386721
32.043388 -45.913734 -7.599627
31.478485 -47.914127 -7.34429
31.586897 -48.357826 -9.34177
30.960705 -49.824585 -7.218238
28.956207 -54.948971 -2.384809
28.899969 -55.843697 -4.553214
29.645582 -54.441776 -6.957314
28.918768 -56.671711 -6.682129
38.345345 -33.101994 7.169342
38.466488 -32.342644 4.589702
37.883221 -34.213375 5.345655
35.15126 -39.862427 3.016033
35.785599 -38.87582 4.696416
36.021534 -37.913765 2.276955
36.786949 -36.084011 1.570694
36.144768 -37.05088 -0.184023
36.289398 -35.996784 -2.770847
35.576752 -37.744205 -2.154844
33.835949 -40.902573 -4.96288
34.542767 -39.097637 -5.572425
34.130558 -39.699703 -7.176671
34.408234 -38.549168 -9.239786
36.676838 -32.62624 -9.966542
36.830078 -31.411486 -12.22933
36.250137 -33.266335 -11.327658
35.825935 -34.060223 -12.433542
35.58342 -35.239361 -10.440148
33.726524 -41.185062 -13.572376
34.323765 -39.399567 -15.319323
33.998981 -41.149937 -15.398705
34.549812 -42.952297 -19.265934
34.761391 -41.073116 -19.008463
35.319946 -40.655113 -21.045349
36.074314 -38.174141 -22.78797
35.828705 -40.487423 -22.969141
32.751274 -52.694912 -20.068754
33.420067 -50.082481 -20.037844
33.864891 -50.170601 -22.109339
36.210957 -45.016472 -28.075075
35.798466 -45.175678 -25.975214
36.607185 -42.489937 -27.573576
36.93922 -39.81842 -27.2253
37.434498 -39.341778 -29.334248
38.175816 -36.259151 -31.187645
37.848801 -38.958408 -31.544409
37.67157 -40.824638 -36.234497
38.313168 -38.066277 -35.727001
38.37151 -37.424889 -37.745716
38.936241 -33.967625 -39.420464
38.207458 -37.01524 -39.839569
34.277332 -50.089268 -37.394257
34.698872 -42.052441 -44.408627
35.478233 -42.485828 -42.677288
37.529099 -35.372566 -43.92709
37.362427 -30.781147 -47.445267
39.12801 1.654471 -37.156528
38.563271 4.292141 -37.520283
40.19698 -2.854779 -43.77578
40.021442 -1.352817 -42.249008
39.929806 0.289625 -44.534058
36.263973 -32.019909 -16.387096
36.526966 -31.061703 -18.298977
35.978252 -33.031269 -17.140909
35.707726 -34.251732 -17.685534
35.463791 -35.684399 -18.156181
40.540104 -17.531734 -42.545219
40.596703 -13.961702 -43.747444
40.481293 -16.499594 -44.599625
40.300732 -15.228508 -46.740479
39.487328 -16.716003 -49.703609
37.969826 -22.592335 -50.717686
39.168949 -16.248566 -26.807207
38.002483 -26.91572 -25.905462
38.461452 -24.186743 -27.163952
38.441395 -25.822847 -27.894987
38.892147 -24.56588 -29.917152
39.301636 -23.519949 -31.90489
39.701309 -22.337303 -34.031418
39.360001 -25.541264 -32.776188
39.354176 -27.71633 -33.492283
39.278648 -30.052481 -34.146748
33.09943 -42.809177 -4.449766
32.757164 -43.544811 -6.117002
32.402336 -44.699036 -3.842277
31.696793 -46.667633 -3.537965
31.036873 -48.583954 -2.968326
28.526299 -55.198452 2.386975
34.328918 -41.638985 3.654596
34.553768 -40.713512 1.192199
34.801083 -39.600906 -1.398527
33.979748 -41.521832 -0.649508
33.505157 -42.150826 -2.681058
37.185005 -31.836205 -8.473094
36.578617 -33.699203 -7.667722
32.945705 -44.910931 -13.389242
33.661594 -43.051765 -15.408386
33.280804 -45.080322 -15.270889
33.729881 -45.20015 -17.349735
34.201775 -45.326469 -19.358442
34.256916 -50.38591 -24.345158
34.627213 -50.378166 -26.628357
35.597969 -47.762669 -28.443401
36.555649 -44.727947 -30.179819
37.436039 -41.553074 -32.043888
36.800751 -44.383057 -32.327553
36.835262 -44.274315 -34.409672
36.815907 -43.716702 -36.627182
39.501888 -3.062325 -34.635574
39.526165 -1.126144 -36.718086
39.501915 0.905959 -38.929512
38.298359 -23.489765 -20.050932
38.508873 -21.873497 -22.107817
38.099689 -24.274487 -21.295282
37.860794 -25.488867 -22.2701
37.698925 -26.667019 -23.226835
36.836147 -30.063553 -20.116169
37.173988 -29.088446 -21.972216
37.564995 -28.056934 -23.910715
37.532295 -29.371637 -24.722137
37.433105 -31.251705 -25.265486
37.395191 -33.107697 -25.958776
30.970978 -53.945793 -13.560876
31.902992 -52.041344 -15.532432
31.299883 -54.445976 -15.732675
31.72328 -54.749752 -18.082777
40.236485 -9.514305 -38.339874
40.171494 -6.213918 -39.209961
40.349998 -7.781084 -40.587917
40.385704 -6.229977 -42.73452
40.333748 -4.749454 -44.96048
40.55249 -10.401594 -45.000294
40.408131 -6.702262 -46.120953
40.166454 -3.249129 -47.295124
39.769859 -8.52382 -33.60651
39.923439 -9.634252 -35.009007
38.720242 -20.289082 -24.252766
38.937119 -18.775337 -26.243244
39.158726 -17.341446 -28.185211
38.852261 -21.295588 -28.264751
39.1623 -18.597694 -29.313904
39.409534 -15.68781 -30.211329
39.639648 -14.311999 -32.155441
39.869686 -12.600834 -34.179588
40.065716 -11.054496 -36.186119
40.213413 -12.742361 -37.295944
40.356014 -14.475475 -38.415123
40.456757 -16.630407 -39.456928
40.05241 -21.096682 -36.228603
40.307892 -20.002537 -38.306389
40.480789 -18.697985 -40.466923
40.385612 -21.163685 -41.207535
40.170311 -23.771093 -41.873409
39.791176 -26.537354 -42.595753
34.514442 -37.803661 -12.320129
34.495388 -37.951038 -13.650172
34.087154 -39.26313 -12.117823
33.60141 -41.046379 -11.848516
33.135853 -42.89138 -11.677826
32.630596 -43.946789 -7.961556
32.605293 -44.3512 -9.710897
32.696949 -44.722195 -11.491427
32.227291 -46.811134 -11.371207
31.746944 -48.918152 -11.237309
31.255428 -51.096436 -11.331319
30.82107 -49.106674 1.261634
30.512604 -49.967323 -0.698046
30.328341 -50.742004 -2.762786
29.06691 -54.101727 -0.217705
29.628977 -52.905994 -2.571822
30.259054 -51.497097 -4.920266
30.32128 -52.11837 -7.050738
30.457748 -52.737713 -9.148277
30.719194 -53.261513 -11.41512
30.042284 -55.627754 -11.38423
38.53656 -31.486526 2.014888
38.088314 -32.346115 -0.037897
35.61541 -39.580559 7.360206
36.452591 -37.785301 6.745046
37.223217 -35.972878 6.04262
37.368633 -35.119251 3.241225
37.503803 -34.166 0.746045
37.562366 -33.219868 -1.877612
36.964138 -34.175575 -3.550979
36.419319 -34.951241 -5.137424
35.915268 -35.541737 -6.928796
34.978313 -38.559555 -3.922264
35.228966 -37.324131 -6.283697
35.391304 -36.291389 -8.468713
34.984364 -36.935394 -9.759226
34.705364 -37.381546 -11.111433
34.970646 -36.355473 -12.860964
37.689419 -27.004026 -17.164463
37.15218 -29.136955 -16.314533
36.975624 -30.286966 -14.315654
36.594162 -31.123703 -15.45218
36.026207 -33.028038 -14.495897
35.481094 -34.772797 -13.564829
34.648949 -37.799778 -15.182579
34.890781 -37.580521 -16.762087
35.247875 -37.25861 -18.556471
34.361252 -41.017754 -17.183666
35.026573 -38.991577 -18.824459
35.721539 -36.70295 -20.473467
36.185459 -36.318611 -22.300154
36.74234 -35.716465 -24.346094
37.287708 -35.142746 -26.383141
32.927887 -49.832092 -17.704081
33.811558 -47.757442 -19.560122
34.781052 -45.191364 -21.580708
34.887379 -47.66172 -24.0954
35.304779 -45.272381 -23.802423
35.648449 -42.693424 -23.475861
36.419437 -40.162556 -25.177
37.182198 -37.264591 -26.899345
37.842197 -34.421215 -28.495615
38.319302 -33.873909 -30.529297
38.765228 -33.238762 -32.703129
39.103188 -32.550079 -34.739811
38.166042 -38.452343 -33.748096
38.764126 -35.395012 -35.188435
39.323315 -31.934965 -36.733391
39.466656 -30.962809 -38.920517
39.411461 -30.325216 -41.036995
39.275185 -29.318251 -43.065926
34.692402 -50.218502 -35.32933
35.637718 -46.967823 -37.01186
36.566429 -43.428593 -38.566628
34.667152 -46.217312 -40.98391
36.129211 -42.935974 -40.690201
37.285656 -39.937473 -40.295113
37.939438 -36.257698 -41.918343
38.519993 -32.302982 -43.541977
38.928562 -28.601706 -45.063248
38.473301 -27.510746 -47.085163
37.737972 -26.781799 -49.036591
40.036255 -3.06129 -40.075802
39.796055 -0.178334 -40.525814
39.437416 2.803349 -41.245583
39.556938 3.39852 -45.274948
39.273781 4.742528 -43.526001
38.890358 5.802878 -41.797958
38.732183 -20.352661 -21.780584
38.851461 -19.122953 -22.103353
31.805666 -46.75714 1.831711
31.982416 -46.204953 0.558115
32.21307 -45.761759 1.574629
32.21307 -45.761759 1.574629
32.649025 -44.769314 1.250668
37.868296 -31.816534 -3.409776
37.865826 -31.342296 -4.643
34.376251 -51.952404 -31.10284
34.406445 -51.876768 -30.026759
34.341013 -51.957223 -32.195717
34.902518 -50.464067 -32.00875
34.376251 -51.952404 -31.10284
40.142484 -9.526215 -48.902698
40.019224 -10.69076 -49.356407
39.412852 -13.266676 -29.163145
39.386432 -12.776067 -28.454725
39.332365 -14.155772 -28.130041
39.454487 -13.800477 -29.815676
39.508555 -12.420772 -30.14036
39.412852 -13.266676 -29.163145
28.50126 -57.037604 -4.519619
28.532739 -56.548876 -3.353117
28.510659 -57.451611 -5.584077
28.909368 -56.257704 -5.617672
28.50126 -57.037604 -4.519619
28.146699 -58.59951 -5.706948
28.554808 -57.81961 -6.805
28.510659 -57.451611 -5.584077
38.060429 -33.956692 7.55459
38.264941 -33.392628 8.512176
37.829367 -34.512383 6.642746
38.114283 -33.657685 6.257499
38.060429 -33.956692 7.55459
35.467675 -40.320069 -44.353024
35.123306 -39.946123 -45.210042
38.756327 4.95475 -39.594433
38.509562 5.273637 -38.656355
38.810036 3.973254 -38.458361
39.949632 -15.878548 -48.270427
40.119179 -14.602017 -47.882817
40.131186 -16.505039 -47.12809
39.724483 -17.248787 -48.609655
39.712477 -15.345765 -49.364382
39.949632 -15.878548 -48.270427
38.785069 -21.755313 -49.402744
39.174074 -20.201461 -49.104873
39.066423 -22.153843 -48.429969
38.323622 -23.150015 -49.722763
38.431272 -21.197633 -50.397667
38.785069 -21.755313 -49.402744
39.06966 -16.674063 -25.123971
39.00123 -17.482636 -24.147762
39.077985 -17.072369 -25.830448
39.160623 -15.85026 -26.10073
39.06966 -16.674063 -25.123971
34.029545 -42.081745 2.70335
33.874292 -42.596697 3.905901
33.574918 -43.039457 2.954655
34.1399 -51.915079 -26.708799
34.060456 -51.746128 -25.642562
39.595625 -4.34444 -34.414857
39.459159 -4.03461 -33.507164
39.552897 -5.316724 -33.286448
30.765594 -55.444054 -14.638007
31.13543 -54.195885 -14.646776
30.601141 -55.193962 -13.552107
31.321407 -56.073637 -18.234451
31.154443 -55.823583 -17.006321
31.864072 -55.037706 -19.2025
31.321407 -56.073637 -18.234451
40.297398 -6.032495 -47.243491
40.390951 -7.78926 -46.727816
40.176559 -4.305929 -47.830576
40.287292 -4.975696 -46.708039
40.297398 -6.032495 -47.243491
40.007254 -2.457194 -48.487431
40.176559 -4.305929 -47.830576
30.635896 -49.591692 2.493009
31.025278 -48.647234 2.230748
30.150144 -50.989018 -0.493737
30.289832 -50.519397 0.555521
29.927373 -51.541092 0.759831
35.292771 -40.111643 6.426607
35.142891 -40.547438 7.709156
34.820251 -41.078522 6.775558
37.612296 -27.635 -16.113095
37.860297 -26.559799 -16.523658
37.343676 -28.701465 -15.68813
37.4208 -28.07049 -16.739498
37.612296 -27.635 -16.113095
37.334637 -30.130533 -11.783961
37.548223 -29.747996 -11.023881
33.948477 -51.880933 -35.444248
34.169646 -51.828245 -34.353427
34.319789 -45.923778 -41.910443
33.87696 -47.73062 -41.116444
33.529598 -47.437086 -42.042977
37.125631 -28.322242 -49.188591
37.550199 -28.781473 -48.240929
36.937858 -30.321916 -48.392929
37.330263 -26.315576 -49.929142
37.125631 -28.322242 -49.188591
38.915182 -0.15022 -34.136333
39.143563 -1.4571 -33.90505
39.399347 4.363512 -46.400992
39.642391 2.683375 -46.038605
38.973961 6.200811 -43.834661
39.138061 5.71133 -44.763567
38.782249 6.730986 -42.97064
39.08207 5.272703 -42.66198
38.973961 6.200811 -43.834661
38.558714 7.056631 -41.932153
38.782249 6.730986 -42.97064
38.909706 -18.344126 -23.119474
38.851461 -19.122953 -22.103353
38.895498 -18.757661 -23.825401
39.00123 -17.482636 -24.147762
38.909706 -18.344126 -23.119474
33.319201 -43.426781 1.976203
33.574918 -43.039457 2.954655
33.058514 -43.797915 0.955585
33.469484 -42.89564 0.731487
33.319201 -43.426781 1.976203
32.799308 -44.238173 0.005952
33.058514 -43.797915 0.955585
32.649025 -44.769314 1.250668
37.890593 -30.793298 -5.894595
37.900748 -30.242963 -7.111159
37.634024 -31.702473 -5.549817
37.890593 -30.793298 -5.894595
37.865826 -31.342296 -4.643
34.318942 -51.980125 -28.905801
34.207668 -52.058977 -27.731599
34.850252 -50.562605 -29.794916
34.318942 -51.980125 -28.905801
34.406445 -51.876768 -30.026759
40.302422 -10.112371 -47.776907
40.431473 -10.707797 -46.65876
40.360123 -11.943909 -47.100988
40.302422 -10.112371 -47.776907
40.142484 -9.526215 -48.902698
39.323633 -12.386124 -27.757143
39.253429 -13.301397 -26.69176
39.323633 -12.386124 -27.757143
39.386432 -12.776067 -28.454725
39.547796 -11.035538 -30.542966
39.551152 -9.715537 -30.880526
39.589432 -11.569339 -31.195497
39.547796 -11.035538 -30.542966
39.508555 -12.420772 -30.14036
29.544379 -52.564461 0.901214
29.927373 -51.541092 0.759831
29.684067 -52.094841 1.950471
28.560857 -56.101513 -2.268915
28.617491 -55.631012 -1.119021
28.222142 -56.783554 -1.003127
28.928088 -55.396334 -3.469011
28.560857 -56.101513 -2.268915
28.532739 -56.548876 -3.353117
28.993963 -57.030978 -7.882586
29.446795 -56.178522 -9.101609
29.3716 -55.819256 -7.901152
28.993963 -57.030978 -7.882586
28.554808 -57.81961 -6.805
38.522604 -32.515978 8.098702
38.4422 -32.806612 9.441536
38.264941 -33.392628 8.512176
38.580779 -32.206898 6.83196
38.522604 -32.515978 8.098702
38.405917 -32.722319 5.879522
38.64135 -31.827223 5.54214
38.580779 -32.206898 6.83196
33.473022 -51.751329 -37.484374
33.740942 -51.816316 -36.476712
34.015951 -49.963835 -38.321444
33.473022 -51.751329 -37.484374
34.512552 -48.175885 -39.16811
34.773933 -48.301317 -38.240923
34.015951 -49.963835 -38.321444
35.857355 -40.536762 -43.487354
35.088553 -42.269134 -43.542957
35.467675 -40.320069 -44.353024
36.536074 -38.897299 -43.371892
36.156952 -40.846365 -42.561825
35.857355 -40.536762 -43.487354
36.882788 -36.980131 -44.112256
37.182384 -37.289734 -43.186726
36.536074 -38.897299 -43.371892
37.218787 -35.000641 -44.881746
36.882788 -36.980131 -44.112256
37.470157 -33.051693 -45.713476
37.78047 -33.423617 -44.75882
37.218787 -35.000641 -44.881746
37.13545 -32.704932 -46.640835
37.697134 -31.127908 -46.517908
37.470157 -33.051693 -45.713476
36.67743 -32.395054 -47.594826
37.13545 -32.704932 -46.640835
36.937858 -30.321916 -48.392929
36.67743 -32.395054 -47.594826
38.89358 1.923763 -36.283504
38.912971 0.876972 -35.217599
39.147402 0.60768 -36.090623
38.61121 3.242598 -36.465381
38.89358 1.923763 -36.283504
38.845641 2.973306 -37.338406
38.262017 4.455287 -36.564686
38.61121 3.242598 -36.465381
38.206208 5.483469 -37.663452
38.262017 4.455287 -36.564686
38.152499 6.464965 -38.799525
38.206208 5.483469 -37.663452
38.509562 5.273637 -38.656355
40.084349 -12.662005 -48.622145
40.265901 -13.288496 -47.479807
40.119179 -14.602017 -47.882817
40.019224 -10.69076 -49.356407
40.084349 -12.662005 -48.622145
39.452028 -14.788398 -50.443136
39.712477 -15.345765 -49.364382
39.159489 -16.311441 -50.727005
39.452028 -14.788398 -50.443136
39.190023 -18.259467 -49.890629
39.471379 -18.657997 -48.917854
39.174074 -20.201461 -49.104873
39.159489 -16.311441 -50.727005
39.190023 -18.259467 -49.890629
38.025782 -20.618199 -51.47552
38.431272 -21.197633 -50.397667
37.517662 -22.271638 -51.577956
38.025782 -20.618199 -51.47552
39.229122 -14.558559 -26.407937
39.253429 -13.301397 -26.69176
39.237448 -14.956865 -27.114414
39.229122 -14.558559 -26.407937
39.160623 -15.85026 -26.10073
28.201588 -55.882485 3.625714
28.642694 -54.756399 3.50212
28.101091 -56.334078 2.510248
28.201588 -55.882485 3.625714
27.77638 -57.01811 3.748987
27.977329 -56.891379 1.390144
28.402538 -55.755752 1.266871
28.101091 -56.334078 2.510248
27.87378 -57.424734 0.267813
27.977329 -56.891379 1.390144
28.222142 -56.783554 -1.003127
27.87378 -57.424734 0.267813
34.535061 -41.537211 5.737051
34.820251 -41.078522 6.775558
34.214455 -42.035339 4.817844
33.874292 -42.596697 3.905901
34.649524 -41.140856 4.573803
34.535061 -41.537211 5.737051
34.214455 -42.035339 4.817844
37.519037 -30.291336 -9.95672
37.548223 -29.747996 -11.023881
37.711146 -30.499031 -8.021377
37.900748 -30.242963 -7.111159
37.474252 -30.840396 -8.857219
37.711146 -30.499031 -8.021377
37.421898 -31.49484 -7.637253
37.229789 -31.287145 -9.572596
37.519037 -30.291336 -9.95672
37.474252 -30.840396 -8.857219
33.875307 -51.75 -24.500962
33.720361 -51.595606 -23.333952
33.338752 -52.959696 -23.489756
34.442065 -50.382038 -25.486758
33.875307 -51.75 -24.500962
34.060456 -51.746128 -25.642562
34.694981 -50.522064 -27.651158
34.1399 -51.915079 -26.708799
34.207668 -52.058977 -27.731599
33.082918 -47.202635 -42.942825
33.529598 -47.437086 -42.042977
33.483849 -45.397043 -43.720516
33.082918 -47.202635 -42.942825
33.847071 -43.608141 -44.506342
34.33565 -43.841343 -43.622801
33.483849 -45.397043 -43.720516
34.28439 -41.607645 -45.284491
33.847071 -43.608141 -44.506342
33.432588 -43.163345 -45.382206
35.123306 -39.946123 -45.210042
34.28439 -41.607645 -45.284491
39.31111 -2.768707 -33.710477
39.459159 -4.03461 -33.507164
39.334341 -1.750718 -34.830146
39.143563 -1.4571 -33.90505
39.31111 -2.768707 -33.710477
39.894678 0.388016 -46.440061
39.944737 -0.481033 -47.217405
38.403616 -22.681631 -21.079375
38.584633 -21.479835 -21.435936
38.479376 -22.287968 -20.407494
30.942744 -55.671695 -15.831271
30.765594 -55.444054 -14.638007
31.511581 -54.597864 -16.907726
30.942744 -55.671695 -15.831271
31.154443 -55.823583 -17.006321
32.378069 -54.010286 -20.195488
32.237277 -53.722332 -19.075765
31.864072 -55.037706 -19.2025
32.594335 -54.065481 -21.322484
32.96754 -52.750107 -21.19575
32.378069 -54.010286 -20.195488
32.761272 -54.207882 -22.506347
32.594335 -54.065481 -21.322484
33.338752 -52.959696 -23.489756
32.761272 -54.207882 -22.506347
40.463131 -9.638927 -46.167486
40.520832 -11.470464 -45.491568
40.431473 -10.707797 -46.65876
40.480311 -8.551928 -45.560623
40.463131 -9.638927 -46.167486
40.390951 -7.78926 -46.727816
39.997208 -1.509498 -47.826037
39.944737 -0.481033 -47.217405
40.113983 -2.220664 -46.686493
39.997208 -1.509498 -47.826037
40.007254 -2.457194 -48.487431
39.640018 -6.590593 -33.153727
39.552897 -5.316724 -33.286448
39.609674 -8.869369 -31.855708
39.551152 -9.715537 -30.880526
39.680267 -8.039226 -32.859911
39.609674 -8.869369 -31.855708
39.699266 -9.353962 -32.602306
39.72961 -7.075187 -33.900326
39.640018 -6.590593 -33.153727
39.680267 -8.039226 -32.859911
38.656424 -20.746324 -22.452465
38.732183 -20.352661 -21.780584
38.584633 -21.479835 -21.435936
31.402248 -47.694063 2.00753
31.805666 -46.75714 1.831711
31.198041 -48.153503 1.038415
31.402248 -47.694063 2.00753
31.025278 -48.647234 2.230748
30.444065 -50.089073 1.535361
30.635896 -49.591692 2.493009
30.666837 -49.536998 0.281794
30.444065 -50.089073 1.535361
30.289832 -50.519397 0.555521
28.913686 -54.158331 2.239415
29.030081 -53.716278 3.35456
28.642694 -54.756399 3.50212
29.183991 -53.609968 0.937075
28.913686 -54.158331 2.239415
28.796605 -54.650089 1.084635
29.427298 -53.056219 -0.253566
29.544379 -52.564461 0.901214
29.183991 -53.609968 0.937075
30.136794 -56.034942 -12.463784
30.601141 -55.193962 -13.552107
30.506631 -54.786774 -12.472553
29.55572 -56.508999 -10.233636
29.933358 -55.297277 -10.252202
29.446795 -56.178522 -9.101609
29.640479 -56.927112 -11.438974
29.55572 -56.508999 -10.233636
30.136794 -56.034942 -12.463784
29.640479 -56.927112 -11.438974
38.679907 -31.418977 4.248526
38.64135 -31.827223 5.54214
38.714943 -30.990918 2.961119
38.679907 -31.418977 4.248526
38.501524 -31.914585 3.302295
38.725462 -30.556453 1.685976
38.903845 -30.060845 2.632207
38.714943 -30.990918 2.961119
38.554682 -30.998386 0.703758
38.725462 -30.556453 1.685976
38.330558 -31.42818 -0.322635
38.554682 -30.998386 0.703758
38.312437 -31.91632 0.988495
38.107824 -31.863855 -1.279614
38.330558 -31.42818 -0.322635
35.476591 -39.937084 8.702565
35.142891 -40.547438 7.709156
35.913908 -39.042587 8.409786
35.476591 -39.937084 8.702565
36.332498 -38.144959 8.102206
35.913908 -39.042587 8.409786
36.034 -38.68293 7.052626
36.739182 -37.24072 7.748187
36.332498 -38.144959 8.102206
37.124494 -36.334509 7.396973
36.739182 -37.24072 7.748187
36.837904 -36.879089 6.393833
37.499365 -35.392134 6.991229
37.124494 -36.334509 7.396973
37.553219 -35.093126 5.694138
37.829367 -34.512383 6.642746
37.499365 -35.392134 6.991229
37.84485 -32.300732 -2.199472
38.107824 -31.863855 -1.279614
37.82534 -32.782991 -0.957755
37.585811 -32.73567 -3.087917
37.868296 -31.816534 -3.409776
37.84485 -32.300732 -2.199472
38.41454 -23.034377 -19.361806
38.479376 -22.287968 -20.407494
38.225481 -24.153032 -19.021552
38.41454 -23.034377 -19.361806
38.010347 -25.275551 -18.578356
38.083225 -24.612285 -19.607736
38.225481 -24.153032 -19.021552
37.921011 -25.910162 -17.578318
37.860297 -26.559799 -16.523658
37.778756 -26.369415 -18.164501
38.010347 -25.275551 -18.578356
37.921011 -25.910162 -17.578318
37.112389 -30.467233 -12.562577
37.334637 -30.130533 -11.783961
37.052326 -31.074786 -11.450714
37.185162 -29.904973 -13.605739
37.112389 -30.467233 -12.562577
36.902851 -30.849226 -13.272492
37.255398 -29.27647 -14.68869
37.185162 -29.904973 -13.605739
37.063902 -29.71196 -15.315093
37.343676 -28.701465 -15.68813
37.255398 -29.27647 -14.68869
34.257084 -51.953437 -33.239576
34.341013 -51.957223 -32.195717
34.779841 -50.343694 -34.215479
34.257084 -51.953437 -33.239576
34.169646 -51.828245 -34.353427
34.484867 -50.153885 -36.361794
33.948477 -51.880933 -35.444248
33.740942 -51.816316 -36.476712
34.210861 -48.027857 -40.11627
33.87696 -47.73062 -41.116444
34.968844 -46.36534 -40.03575
34.512552 -48.175885 -39.16811
34.210861 -48.027857 -40.11627
37.44619 -24.220844 -50.769689
37.853899 -24.687067 -49.877139
37.330263 -26.315576 -49.929142
37.517662 -22.271638 -51.577956
37.44619 -24.220844 -50.769689
38.915182 -0.15022 -34.136333
38.912971 0.876972 -35.217599
39.828825 1.128928 -45.66816
39.995659 -0.451287 -45.30596
39.894678 0.388016 -46.440061
39.743372 1.844073 -44.904503
39.828825 1.128928 -45.66816
39.642391 2.683375 -46.038605
39.27964 5.039326 -45.638041
39.399347 4.363512 -46.400992
39.41536 4.070524 -44.400475
39.27964 5.039326 -45.638041
39.138061 5.71133 -44.763567
38.673105 6.029006 -40.795192
38.756327 4.95475 -39.594433
38.973579 4.728623 -40.597199
38.673105 6.029006 -40.795192
38.558714 7.056631 -41.932153
3 0 102 100
3 1 105 103
3 1 107 105
3 405 108 406
3 3 111 109
3 3 113 111
3 407 116 408
3 409 408 114
3 407 408 409
3 410 114 411
3 412 119 413
3 4 122 120
3 414 124 415
3 416 126 417
3 418 417 124
3 416 417 418
3 2 129 127
3 5 132 130
3 7 135 133
3 7 137 135
3 9 140 138
3 420 419 141
3 11 421 423
3 423 422 142
3 421 422 423
3 11 424 426
3 424 144 425
3 424 425 426
3 6 147 145
3 12 150 148
3 12 152 150
3 12 154 152
3 13 157 155
3 13 159 157
3 14 162 160
3 16 165 163
3 16 167 165
3 427 169 428
3 429 171 430
3 431 430 169
3 429 430 431
3 434 433 171
3 432 433 434
3 435 172 436
3 437 174 438
3 439 438 172
3 437 438 439
3 17 177 175
3 17 179 177
3 17 181 179
3 14 184 182
3 14 160 184
3 18 188 186
3 18 190 188
3 15 193 191
3 19 196 194
3 19 198 196
3 8 201 199
3 20 204 202
3 20 206 204
3 20 208 206
3 21 211 209
3 21 213 211
3 441 440 215
3 22 220 219
3 22 442 444
3 444 443 220
3 442 443 444
3 10 223 221
3 23 226 224
3 25 227 101
3 25 228 227
3 26 231 229
3 28 232 104
3 28 445 447
3 447 446 232
3 445 446 447
3 28 448 450
3 448 233 449
3 448 449 450
3 29 451 453
3 453 452 106
3 451 452 453
3 29 454 456
3 454 234 455
3 454 455 456
3 30 457 458
3 30 459 461
3 459 235 460
3 459 460 461
3 31 238 236
3 33 239 110
3 33 240 239
3 33 242 240
3 35 243 112
3 35 244 243
3 36 247 245
3 38 248 115
3 38 249 248
3 41 462 464
3 462 251 463
3 462 463 464
3 41 252 251
3 41 254 252
3 36 255 117
3 36 245 255
3 44 256 118
3 44 257 256
3 45 260 258
3 47 261 121
3 47 262 261
3 465 264 466
3 49 265 123
3 49 266 265
3 49 268 266
3 51 269 125
3 51 270 269
3 53 467 469
3 467 271 468
3 467 468 469
3 55 272 128
3 55 273 272
3 56 276 274
3 58 277 131
3 58 278 277
3 24 279 225
3 59 280 134
3 59 281 280
3 59 282 281
3 60 283 136
3 60 284 283
3 470 287 471
3 472 471 285
3 470 471 472
3 473 288 474
3 476 475 288
3 62 291 289
3 64 292 139
3 64 293 292
3 27 294 230
3 477 295 478
3 479 296 480
3 481 480 295
3 479 480 481
3 483 482 296
3 65 297 143
3 65 298 297
3 57 299 275
3 66 300 146
3 66 301 300
3 32 302 237
3 67 303 149
3 67 304 303
3 67 305 304
3 68 306 151
3 68 307 306
3 68 308 307
3 69 309 153
3 69 310 309
3 34 311 241
3 70 312 156
3 70 313 312
3 70 314 313
3 71 315 158
3 71 316 315
3 72 319 317
3 74 320 161
3 74 321 320
3 37 322 246
3 75 323 164
3 75 324 323
3 75 325 324
3 76 326 166
3 76 327 326
3 484 328 485
3 77 486 488
3 486 329 487
3 486 487 488
3 77 330 329
3 39 331 250
3 78 332 168
3 78 333 332
3 78 334 333
3 79 335 170
3 79 336 335
3 79 337 336
3 80 338 173
3 80 339 338
3 40 489 491
3 489 340 490
3 489 490 491
3 81 341 176
3 81 342 341
3 81 343 342
3 82 344 178
3 82 345 344
3 82 346 345
3 83 347 180
3 83 348 347
3 42 349 253
3 84 350 183
3 84 351 350
3 84 352 351
3 72 353 185
3 72 317 353
3 492 355 493
3 494 356 495
3 496 495 355
3 494 495 496
3 43 497 498
3 86 357 187
3 86 358 357
3 86 359 358
3 85 360 189
3 85 354 360
3 73 361 318
3 87 362 192
3 87 363 362
3 46 364 259
3 88 365 195
3 88 366 365
3 88 367 366
3 89 368 197
3 89 369 368
3 61 370 286
3 90 371 200
3 90 372 371
3 48 373 263
3 91 374 203
3 91 375 374
3 91 376 375
3 92 377 205
3 92 378 377
3 92 379 378
3 93 380 207
3 93 381 380
3 50 382 267
3 94 383 210
3 94 384 383
3 94 385 384
3 95 386 212
3 95 387 386
3 499 388 500
3 96 389 214
3 96 390 389
3 52 501 503
3 501 391 502
3 501 502 503
3 97 392 216
3 97 393 392
3 97 394 393
3 98 395 217
3 98 396 395
3 98 397 396
3 504 398 505
3 506 505 218
3 504 505 506
3 508 507 398
3 54 509 510
3 63 399 290
3 99 400 222
3 99 401 400
3 511 402 512
3 513 403 514
3 515 404 516
3 517 516 403
3 515 516 517
3 519 518 404
3 100 101 23
3 102 101 100
3 102 25 101
3 103 104 26
3 105 104 103
3 105 28 104
3 105 106 28
3 107 106 105
3 107 29 106
3 108 520 521
3 108 522 524
3 522 30 523
3 522 523 524
3 109 110 31
3 111 110 109
3 111 33 110
3 111 112 33
3 113 112 111
3 113 35 112
3 114 115 36
3 116 115 114
3 116 38 115
3 525 41 526
3 527 117 528
3 529 528 41
3 527 528 529
3 114 530 532
3 530 117 531
3 530 531 532
3 114 36 117
3 533 118 534
3 119 535 537
3 535 118 536
3 535 536 537
3 119 44 118
3 120 121 45
3 122 121 120
3 122 47 121
3 538 123 539
3 124 540 542
3 540 123 541
3 540 541 542
3 124 49 123
3 124 125 49
3 126 125 124
3 126 51 125
3 127 128 53
3 129 128 127
3 129 55 128
3 130 131 56
3 132 131 130
3 132 58 131
3 133 134 24
3 135 134 133
3 135 59 134
3 135 136 59
3 137 136 135
3 137 60 136
3 138 139 62
3 140 139 138
3 140 64 139
3 141 543 545
3 545 544 27
3 543 544 545
3 547 546 141
3 142 548 549
3 551 550 142
3 552 143 553
3 144 554 556
3 554 143 555
3 554 555 556
3 144 65 143
3 145 146 57
3 147 146 145
3 147 66 146
3 148 149 32
3 150 149 148
3 150 67 149
3 150 151 67
3 152 151 150
3 152 68 151
3 152 153 68
3 154 153 152
3 154 69 153
3 155 156 34
3 157 156 155
3 157 70 156
3 157 158 70
3 159 158 157
3 159 71 158
3 160 161 72
3 162 161 160
3 162 74 161
3 163 164 37
3 165 164 163
3 165 75 164
3 165 166 75
3 167 166 165
3 167 76 166
3 557 77 558
3 557 558 559
3 560 168 561
3 562 561 39
3 560 561 562
3 169 563 565
3 563 168 564
3 563 564 565
3 169 78 168
3 169 170 78
3 171 170 169
3 171 79 170
3 171 566 568
3 568 567 79
3 566 567 568
3 570 569 171
3 172 571 573
3 571 572 573
3 172 574 575
3 172 576 578
3 576 173 577
3 576 577 578
3 174 173 172
3 174 80 173
3 175 176 40
3 177 176 175
3 177 81 176
3 177 178 81
3 179 178 177
3 179 82 178
3 179 180 82
3 181 180 179
3 181 83 180
3 182 183 42
3 184 183 182
3 184 84 183
3 184 185 84
3 160 185 184
3 160 72 185
3 186 187 43
3 188 187 186
3 188 86 187
3 188 189 86
3 190 189 188
3 190 85 189
3 191 192 73
3 193 192 191
3 193 87 192
3 194 195 46
3 196 195 194
3 196 88 195
3 196 197 88
3 198 197 196
3 198 89 197
3 199 200 61
3 201 200 199
3 201 90 200
3 202 203 48
3 204 203 202
3 204 91 203
3 204 205 91
3 206 205 204
3 206 92 205
3 206 207 92
3 208 207 206
3 208 93 207
3 209 210 50
3 211 210 209
3 211 94 210
3 211 212 94
3 213 212 211
3 213 95 212
3 579 214 580
3 581 214 582
3 583 96 584
3 585 584 214
3 583 584 585
3 215 216 52
3 586 216 587
3 588 587 215
3 586 587 588
3 589 97 590
3 591 590 216
3 589 590 591
3 592 217 593
3 594 593 97
3 592 593 594
3 595 217 596
3 597 98 598
3 599 598 217
3 597 598 599
3 600 218 601
3 602 601 98
3 600 601 602
3 603 218 604
3 606 605 218
3 219 607 609
3 609 608 54
3 607 608 609
3 220 610 612
3 612 611 219
3 610 611 612
3 220 613 614
3 220 615 616
3 619 618 220
3 617 618 619
3 221 222 63
3 223 222 221
3 223 99 222
3 224 225 5
3 226 225 224
3 226 24 225
3 101 226 23
3 227 226 101
3 227 24 226
3 227 133 24
3 228 133 227
3 228 7 133
3 229 230 9
3 231 230 229
3 231 27 230
3 104 231 26
3 232 231 104
3 232 27 231
3 232 141 27
3 620 141 621
3 622 621 232
3 620 621 622
3 624 623 141
3 233 625 626
3 233 627 628
3 106 233 28
3 629 233 630
3 631 630 106
3 629 630 631
3 633 632 233
3 234 634 635
3 234 636 637
3 638 142 639
3 235 640 642
3 640 142 641
3 640 641 642
3 235 11 142
3 236 237 6
3 238 237 236
3 238 32 237
3 110 238 31
3 239 238 110
3 239 32 238
3 239 148 32
3 240 148 239
3 240 12 148
3 240 241 12
3 242 241 240
3 242 34 241
3 112 242 33
3 243 242 112
3 243 34 242
3 243 155 34
3 244 155 243
3 244 13 155
3 245 246 14
3 247 246 245
3 247 37 246
3 115 247 36
3 248 247 115
3 248 37 247
3 248 163 37
3 249 163 248
3 249 16 163
3 643 250 644
3 645 250 646
3 645 646 647
3 648 39 649
3 650 649 250
3 648 649 650
3 651 39 652
3 654 653 39
3 655 40 656
3 251 657 658
3 251 659 661
3 659 40 660
3 659 660 661
3 251 175 40
3 252 175 251
3 252 17 175
3 252 253 17
3 254 253 252
3 254 42 253
3 117 254 41
3 255 254 117
3 255 42 254
3 255 182 42
3 245 182 255
3 245 14 182
3 662 43 663
3 118 664 665
3 256 666 668
3 668 667 118
3 666 667 668
3 256 669 671
3 669 43 670
3 669 670 671
3 256 186 43
3 257 186 256
3 257 18 186
3 258 259 15
3 260 259 258
3 260 46 259
3 121 260 45
3 261 260 121
3 261 46 260
3 261 194 46
3 262 194 261
3 262 19 194
3 672 263 673
3 674 673 8
3 672 673 674
3 264 675 677
3 675 263 676
3 675 676 677
3 264 48 263
3 123 678 680
3 678 264 679
3 678 679 680
3 265 264 123
3 265 48 264
3 265 202 48
3 266 202 265
3 266 20 202
3 266 267 20
3 268 267 266
3 268 50 267
3 125 268 49
3 269 268 125
3 269 50 268
3 269 209 50
3 270 209 269
3 270 21 209
3 681 52 682
3 683 52 684
3 685 215 686
3 687 686 52
3 685 686 687
3 688 215 689
3 688 689 690
3 692 691 215
3 271 693 694
3 271 695 697
3 695 54 696
3 695 696 697
3 128 271 53
3 272 271 128
3 272 54 271
3 272 219 54
3 273 219 272
3 273 22 219
3 699 698 10
3 274 700 702
3 700 275 701
3 700 701 702
3 276 275 274
3 276 57 275
3 131 276 56
3 277 276 131
3 277 57 276
3 277 145 57
3 278 145 277
3 278 6 145
3 225 132 5
3 279 132 225
3 279 58 132
3 134 279 24
3 280 279 134
3 280 58 279
3 280 278 58
3 281 278 280
3 281 6 278
3 281 236 6
3 282 236 281
3 282 31 236
3 136 282 59
3 283 282 136
3 283 31 282
3 283 109 31
3 284 109 283
3 284 3 109
3 285 286 4
3 287 286 285
3 287 61 286
3 703 287 704
3 288 705 707
3 705 287 706
3 705 706 707
3 288 61 287
3 288 199 61
3 708 199 709
3 710 709 288
3 708 709 710
3 711 8 712
3 713 712 199
3 711 712 713
3 714 8 715
3 717 716 8
3 289 290 2
3 291 290 289
3 291 63 290
3 139 291 62
3 292 291 139
3 292 63 291
3 292 221 63
3 293 221 292
3 293 10 221
3 230 140 9
3 294 140 230
3 294 64 140
3 718 294 719
3 720 719 27
3 718 719 720
3 295 721 723
3 721 294 722
3 721 722 723
3 295 64 294
3 295 293 64
3 296 293 295
3 296 10 293
3 296 724 726
3 726 725 10
3 724 725 726
3 728 727 296
3 729 53 730
3 143 731 732
3 297 733 735
3 735 734 143
3 733 734 735
3 297 736 738
3 736 53 737
3 736 737 738
3 297 127 53
3 298 127 297
3 298 2 127
3 275 739 741
3 739 108 740
3 739 740 741
3 299 108 275
3 299 30 108
3 146 299 57
3 300 299 146
3 300 30 299
3 300 235 30
3 301 235 300
3 301 11 235
3 237 147 6
3 302 147 237
3 302 66 147
3 149 302 32
3 303 302 149
3 303 66 302
3 303 301 66
3 304 301 303
3 304 11 301
3 304 144 11
3 305 144 304
3 305 65 144
3 151 305 67
3 306 305 151
3 306 65 305
3 306 298 65
3 307 298 306
3 307 2 298
3 307 289 2
3 308 289 307
3 308 62 289
3 153 308 68
3 309 308 153
3 309 62 308
3 309 138 62
3 310 138 309
3 310 9 138
3 241 154 12
3 311 154 241
3 311 69 154
3 156 311 34
3 312 311 156
3 312 69 311
3 312 310 69
3 313 310 312
3 313 9 310
3 313 229 9
3 314 229 313
3 314 26 229
3 158 314 70
3 315 314 158
3 315 26 314
3 315 103 26
3 316 103 315
3 316 1 103
3 317 318 0
3 319 318 317
3 319 73 318
3 161 319 72
3 320 319 161
3 320 73 319
3 320 191 73
3 321 191 320
3 321 15 191
3 246 162 14
3 322 162 246
3 322 74 162
3 164 322 37
3 323 322 164
3 323 74 322
3 323 321 74
3 324 321 323
3 324 15 321
3 324 258 15
3 325 258 324
3 325 45 258
3 166 325 75
3 326 325 166
3 326 45 325
3 326 120 45
3 327 120 326
3 327 4 120
3 742 116 743
3 328 744 746
3 744 116 745
3 744 745 746
3 328 38 116
3 747 328 748
3 329 749 751
3 749 328 750
3 749 750 751
3 329 38 328
3 329 249 38
3 330 249 329
3 330 16 249
3 250 752 754
3 752 753 754
3 331 755 757
3 757 756 250
3 755 756 757
3 331 758 760
3 758 77 759
3 758 759 760
3 168 331 39
3 332 331 168
3 332 77 331
3 332 330 77
3 333 330 332
3 333 16 330
3 333 167 16
3 334 167 333
3 334 76 167
3 170 334 78
3 335 334 170
3 335 76 334
3 335 327 76
3 336 327 335
3 336 4 327
3 336 285 4
3 337 285 336
3 337 761 763
3 763 762 285
3 761 762 763
3 764 337 765
3 766 765 79
3 764 765 766
3 767 337 768
3 770 769 337
3 173 771 772
3 338 773 775
3 775 774 173
3 773 774 775
3 338 776 778
3 776 777 778
3 338 779 780
3 339 781 783
3 783 782 338
3 781 782 783
3 339 784 785
3 340 786 787
3 340 788 789
3 176 340 40
3 341 340 176
3 341 790 792
3 792 791 340
3 790 791 792
3 341 793 794
3 342 795 797
3 797 796 341
3 795 796 797
3 342 798 799
3 342 800 802
3 800 174 801
3 800 801 802
3 343 174 342
3 343 80 174
3 178 343 81
3 344 343 178
3 344 80 343
3 344 339 80
3 345 339 344
3 345 803 805
3 805 804 339
3 803 804 805
3 345 806 808
3 806 119 807
3 806 807 808
3 346 119 345
3 346 44 119
3 180 346 82
3 347 346 180
3 347 44 346
3 347 257 44
3 348 257 347
3 348 18 257
3 253 181 17
3 349 181 253
3 349 83 181
3 183 349 42
3 350 349 183
3 350 83 349
3 350 348 83
3 351 348 350
3 351 18 348
3 351 190 18
3 352 190 351
3 352 85 190
3 185 352 84
3 353 352 185
3 353 85 352
3 353 354 85
3 317 354 353
3 317 0 354
3 809 274 810
3 811 274 812
3 813 56 814
3 815 814 274
3 813 814 815
3 355 816 817
3 355 818 820
3 818 56 819
3 818 819 820
3 355 130 56
3 356 130 355
3 356 5 130
3 187 821 823
3 823 822 43
3 821 822 823
3 357 824 826
3 826 825 187
3 824 825 826
3 357 827 828
3 357 829 831
3 829 356 830
3 829 830 831
3 358 356 357
3 358 5 356
3 358 224 5
3 359 224 358
3 359 23 224
3 189 359 86
3 360 359 189
3 360 23 359
3 360 100 23
3 354 100 360
3 354 0 100
3 318 102 0
3 361 102 318
3 361 25 102
3 192 361 73
3 362 361 192
3 362 25 361
3 362 228 25
3 363 228 362
3 363 7 228
3 259 193 15
3 364 193 259
3 364 87 193
3 195 364 46
3 365 364 195
3 365 87 364
3 365 363 87
3 366 363 365
3 366 7 363
3 366 137 7
3 367 137 366
3 367 60 137
3 197 367 88
3 368 367 197
3 368 60 367
3 368 284 60
3 369 284 368
3 369 3 284
3 286 122 4
3 370 122 286
3 370 47 122
3 200 370 61
3 371 370 200
3 371 47 370
3 371 262 47
3 372 262 371
3 372 19 262
3 263 201 8
3 373 201 263
3 373 90 201
3 203 373 48
3 374 373 203
3 374 90 373
3 374 372 90
3 375 372 374
3 375 19 372
3 375 198 19
3 376 198 375
3 376 89 198
3 205 376 91
3 377 376 205
3 377 89 376
3 377 369 89
3 378 369 377
3 378 3 369
3 378 113 3
3 379 113 378
3 379 35 113
3 207 379 92
3 380 379 207
3 380 35 379
3 380 244 35
3 381 244 380
3 381 13 244
3 267 208 20
3 382 208 267
3 382 93 208
3 210 382 50
3 383 382 210
3 383 93 382
3 383 381 93
3 384 381 383
3 384 13 381
3 384 159 13
3 385 159 384
3 385 71 159
3 212 385 94
3 386 385 212
3 386 71 385
3 386 316 71
3 387 316 386
3 387 1 316
3 832 126 833
3 388 834 836
3 834 126 835
3 834 835 836
3 388 51 126
3 214 837 839
3 837 388 838
3 837 838 839
3 389 388 214
3 389 51 388
3 389 270 51
3 390 270 389
3 390 21 270
3 391 840 841
3 391 842 844
3 842 96 843
3 842 843 844
3 216 391 52
3 392 391 216
3 392 96 391
3 392 390 96
3 393 390 392
3 393 21 390
3 393 213 21
3 394 213 393
3 394 95 213
3 217 394 97
3 395 394 217
3 395 95 394
3 395 387 95
3 396 387 395
3 396 1 387
3 396 107 1
3 397 107 396
3 397 29 107
3 218 397 98
3 398 397 218
3 398 29 397
3 398 234 29
3 845 234 846
3 847 846 398
3 845 846 847
3 849 848 234
3 851 850 54
3 290 129 2
3 399 129 290
3 399 55 129
3 222 399 63
3 400 399 222
3 400 55 399
3 400 273 55
3 401 273 400
3 401 22 273
3 852 223 853
3 854 853 10
3 852 853 854
3 402 855 857
3 855 223 856
3 855 856 857
3 402 99 223
3 858 402 859
3 403 860 862
3 860 402 861
3 860 861 862
3 403 99 402
3 403 401 99
3 404 401 403
3 404 22 401
3 404 863 865
3 865 864 22
3 863 864 865
3 867 866 404
