ply
format ascii 1.0
element vertex 662
property float x
property float y
property float z
element face 764
property list uchar int vertex_index
end_header
-39.887543 -9.875766 17.442411
-23.703251 -26.826639 37.006119
-35.9617 -26.133116 28.038187
-38.436253 -27.689528 12.107186
-28.428682 -18.077557 35.791538
-38.687088 -17.925934 23.372663
-38.888065 -27.122202 20.65299
-39.089279 -19.2829 15.5522
-40.039631 -1.300337 11.390576
-37.724838 -11.030354 9.859914
-30.143667 -25.636759 33.421429
-34.568386 -17.171589 30.226391
-37.65041 -8.905974 25.392206
-38.52737 -35.706154 16.404354
-35.84803 -19.806217 7.61036
-39.469349 -13.722162 20.557068
-39.403805 -18.560732 19.41765
-39.522457 -14.608348 16.496391
-39.84058 3.068338 8.322819
-38.54417 -1.864094 7.710533
-38.120876 2.672256 4.97876
-26.96003 -26.02586 35.305977
-31.572929 -17.354996 33.193035
-33.611897 -13.209986 31.295082
-36.243324 -12.852661 28.019257
-35.253281 -8.810264 29.038868
-20.678295 -27.86512 38.639439
-18.500219 -32.657623 38.317638
-21.454647 -31.402658 37.00238
-34.111988 -30.241373 29.79229
-36.447426 -30.660276 26.655968
-39.033596 -27.726284 16.483807
-38.794327 -31.710592 18.778147
-38.859272 -31.604057 14.350604
-38.612087 -35.074757 11.718349
-38.361786 -31.118519 9.846937
-35.261257 -11.593972 6.446991
-36.566586 -15.621774 8.857738
-26.140039 -22.289799 36.6315
-37.534077 -22.070984 25.833212
-37.864346 -26.530298 24.575151
-38.844193 -22.633142 22.173441
-39.218647 -23.187757 18.161631
-38.668499 -23.611755 13.996209
-40.068359 -5.603367 14.570599
-39.317024 -10.597344 13.572127
-38.966648 -6.366356 10.667436
-36.876942 -6.859761 7.153438
-33.341839 -25.722837 30.962534
-29.382341 -21.723751 34.455044
-32.525536 -21.384548 32.033207
-35.329678 -21.521862 29.179651
-37.020378 -17.393944 26.95224
-38.327488 -13.280492 24.375765
-39.296646 -9.174217 21.479223
-36.621658 -4.766959 26.489426
-38.732121 -4.609647 22.535482
-39.967442 -5.024754 18.447161
-40.389343 -0.779312 15.360809
-15.677458 -34.001717 39.956829
-38.058491 -31.188473 22.824379
-37.967056 -35.534634 20.753374
-38.503643 -15.289291 12.627016
-37.837139 -19.796106 11.522815
-37.399246 -23.690491 9.939051
-37.295902 -27.15019 7.829859
-39.718502 -11.837421 19.031565
-39.637115 -14.215826 18.606501
-39.730106 -12.209197 16.986084
-39.089474 2.861164 6.575329
-38.918587 5.42007 5.125198
-24.174692 -28.545729 36.314358
-25.842766 -28.275259 35.50996
-25.236889 -26.457272 36.205227
-32.117081 -13.233665 32.879379
-33.00433 -11.111128 31.921419
-34.421471 -10.973768 30.275822
-33.878429 -9.049455 30.790718
-22.218273 -27.259981 37.798923
-21.124102 -29.539433 37.734768
-22.638382 -29.07135 37.003017
-23.182064 -30.850504 36.293194
-35.010761 -28.216078 29.0287
-35.34708 -30.422169 28.32653
-36.233891 -28.438181 27.369995
-38.810333 -27.611383 14.270337
-38.94865 -29.659445 15.461941
-38.737331 -29.554924 13.292209
-38.672501 -31.493637 12.127586
-38.381756 -29.494892 11.019722
-38.140842 -19.951672 24.687527
-38.308403 -22.235041 24.050444
-38.79776 -20.291265 22.749598
-39.35944 -19.052141 17.500528
-39.309227 -21.020544 18.939812
-39.209419 -21.198494 16.887642
-39.04834 -23.56502 16.091923
-38.856182 -21.53237 14.804499
-40.055904 -3.556097 12.898801
-39.651741 -6.033584 12.552891
-39.571888 -3.849008 11.093891
-37.488075 -2.099271 6.125241
-37.707359 -4.383235 7.405705
-35.469521 -7.07209 5.487972
-29.110815 -27.895746 33.808681
-31.761898 -25.726101 32.26828
-27.31237 -20.205288 36.25964
-27.784445 -21.946716 35.548939
-28.962578 -19.762041 35.073429
-33.113293 -17.069723 31.76046
-32.022503 -19.268055 32.642525
-33.522507 -19.216194 31.252176
-33.96682 -21.260942 30.69396
-35.010826 -19.320288 29.659266
-36.232296 -19.529894 28.097467
-35.916359 -17.240068 28.580067
-37.062805 -10.979344 26.626848
-37.384838 -13.214697 26.240795
-38.02216 -11.087657 24.898745
-38.85907 -11.292706 22.937923
-38.567795 -9.088853 23.520342
-35.367416 -4.943828 28.354923
-38.298698 -2.491943 23.068542
-39.231384 -2.588156 20.911894
-39.478806 -4.802936 20.522594
-39.862099 -2.578506 18.842733
-40.214806 -2.920077 16.849894
-16.629045 -31.64827 40.236286
-19.100258 -34.217297 37.451351
-17.552731 -34.916183 38.148136
-35.778927 -34.919861 26.710941
-38.480988 -27.037663 22.649084
-37.94487 -29.035078 23.840443
-38.526859 -29.260691 21.768925
-38.70549 -33.769276 17.503698
-38.464905 -33.507599 19.820192
-38.337036 -35.544151 18.654757
-38.641602 -10.721183 11.644296
-38.882057 -13.008667 13.056209
-38.102535 -13.186568 11.181181
-36.153458 -17.845276 8.291886
-37.217979 -17.757687 10.149066
-36.908157 -19.880304 9.522492
-37.534077 -21.865908 10.667974
-36.655296 -21.841465 8.699372
-39.141983 -15.910425 21.919804
-39.180862 -18.140242 21.420494
-39.463734 -16.183969 19.972607
-39.514156 -16.617331 18.027859
-39.313419 -17.033855 16.140057
-39.983829 0.912081 9.884554
-39.410198 -1.661795 9.493997
-39.287842 0.586465 8.081003
-38.280209 0.405898 6.229454
-27.561657 -27.86573 34.679165
-28.628397 -25.84354 34.354801
-29.999153 -17.607767 34.54184
-31.026865 -15.45569 33.836529
-32.567375 -15.22015 32.367931
-34.169044 -15.088203 30.692123
-35.506401 -15.01609 29.102032
-34.969368 -12.910287 29.710611
-35.768806 -10.885946 28.543406
-36.580315 -8.929661 27.174936
-19.17647 -28.631763 39.474689
-18.014954 -31.062222 39.31337
-19.545218 -30.296425 38.489536
-20.016268 -31.944496 37.623322
-34.430595 -32.403721 29.144529
-35.61599 -32.623672 27.558664
-36.57827 -33.064228 25.841284
-39.066467 -27.432222 18.478931
-38.871777 -29.433189 19.659883
-38.989391 -29.787264 17.620953
-38.907505 -31.771839 16.578114
-38.801495 -33.591404 15.32487
-38.64061 -35.377132 14.138489
-38.756294 -33.379597 13.151299
-38.589291 -33.173965 10.766335
-38.357819 -32.726086 8.554228
-36.551285 -11.358864 8.077324
-37.090702 -13.385955 9.361156
-35.813534 -13.70689 7.515121
-35.325741 -15.840899 7.049081
-34.9263 -17.827847 6.441706
-23.373695 -25.063038 37.753098
-24.852997 -24.534454 36.915642
-24.443371 -22.805788 37.720558
-25.638815 -20.633341 37.459507
-21.772161 -25.659433 38.704422
-36.817551 -23.971249 26.954861
-36.948658 -26.406559 26.478876
-37.720352 -24.333048 25.226372
-38.409298 -24.726877 23.396025
-38.876781 -24.81563 21.510685
-39.187435 -20.566414 20.809017
-39.155468 -22.962925 20.183773
-39.117088 -25.107819 19.48085
-39.121532 -25.490145 17.340338
-38.906857 -25.669554 15.152436
-38.501541 -25.622202 13.015118
-39.998508 -7.728629 15.984201
-39.747852 -10.168484 15.470473
-39.732769 -8.010128 14.031563
-39.156513 -8.434867 12.098418
-38.313 -8.690154 10.186785
-38.760002 -4.169766 9.199851
-38.021519 -6.464181 8.781143
-37.31469 -8.964628 8.52673
-35.96888 -9.220326 6.730783
-33.746616 -27.867846 30.404148
-34.757381 -25.83016 29.546099
-26.5033 -24.218689 35.934391
-28.146803 -23.90037 34.950565
-29.768038 -23.619913 33.916912
-30.468786 -19.505219 33.922337
-31.012962 -21.395304 33.275642
-31.415123 -23.504135 32.743565
-32.96217 -23.562462 31.473465
-34.35857 -23.44669 30.151482
-35.617489 -23.898157 28.677389
-36.521732 -21.721981 27.575733
-37.325432 -19.682699 26.3699
-38.00322 -17.641809 25.115156
-36.651661 -15.079846 27.516552
-37.706184 -15.333272 25.731506
-38.5467 -15.458604 23.86264
-39.01186 -13.617016 22.522699
-39.411591 -11.579511 21.058716
-39.745064 -9.537573 19.430042
-34.598644 -6.89902 29.667824
-35.949776 -6.849401 27.832695
-37.21331 -6.843717 25.875435
-37.749012 -4.639386 24.564383
-38.266823 -6.823177 23.907127
-39.061779 -6.885359 22.02527
-39.665997 -7.10958 19.97345
-39.98822 -7.414794 17.851547
-40.16692 -5.226734 16.38063
-40.289539 -3.10611 14.838898
-40.366585 -1.078226 13.453386
-40.506557 1.374895 13.822619
-40.37466 1.006544 11.793427
-40.348747 3.217144 10.280334
-17.039925 -33.228123 39.148796
-37.24128 -28.543011 25.601276
-37.308609 -30.953743 24.914085
-37.420135 -33.089157 23.956648
-38.525227 -31.410936 20.838598
-38.039783 -33.31868 21.942509
-39.441463 -12.649778 15.002096
-39.124599 -15.109071 14.545974
-38.833981 -17.368103 14.075858
-37.648308 -15.616595 10.76101
-38.122288 -17.571466 12.066286
-38.562859 -19.613943 13.510547
-38.26804 -21.847353 12.656407
-38.109238 -23.834982 11.932865
-37.966583 -25.831114 10.919712
-36.571487 -23.653303 7.89894
-37.255192 -25.428211 8.843122
-37.920906 -27.462191 10.000051
-37.89732 -29.053318 8.775524
-37.989586 -30.671623 7.689392
-39.209433 6.57935 5.285533
-39.317741 5.357468 6.045618
-32.678292 -10.230511 32.250687
-32.283527 -11.284841 32.702554
-33.115341 -9.199674 31.685337
-33.441379 -10.080292 31.356068
-32.678292 -10.230511 32.250687
-37.006567 -3.354089 5.993768
-36.803804 -2.239677 5.327894
-30.405686 -26.694554 33.138052
-29.88926 -27.824047 33.331678
-29.627241 -26.766253 33.615055
-30.952782 -25.68143 32.844854
-31.214801 -26.739224 32.561477
-30.405686 -26.694554 33.138052
-39.413199 -1.500087 20.15753
-39.03252 -1.496472 21.161258
-39.728556 -1.495262 19.122949
-39.546741 -2.583331 19.877313
-39.413199 -1.500087 20.15753
-39.994751 -1.554234 18.09851
-39.728556 -1.495262 19.122949
-17.203113 -30.453966 40.321458
-16.467495 -30.86674 40.837315
-18.676387 -35.436842 37.335507
-19.414012 -35.155335 37.051949
-35.820198 -35.991932 26.228825
-36.235972 -35.071184 25.774428
-38.308956 -36.631458 16.939841
-38.213789 -36.550457 18.065043
-38.432203 -35.625152 17.529556
-38.410196 -36.593868 15.745002
-38.308956 -36.631458 16.939841
-37.59815 1.435061 4.795
-37.677816 0.301882 5.420347
-38.200542 1.539077 5.604107
-30.784223 -14.538774 34.137964
-30.272098 -15.648736 34.511202
-21.040498 -32.59946 36.898848
-20.321309 -32.870379 37.209319
-20.735458 -31.673577 37.312851
-21.840674 -32.23252 36.625341
-21.040498 -32.59946 36.898848
-23.479731 -31.792333 35.977342
-23.985752 -30.607993 35.969538
-34.271291 -31.322547 29.468409
-33.786963 -32.306601 29.822073
-33.627659 -31.225426 30.145954
-34.718719 -15.806155 6.263659
-34.931602 -14.7796 6.476522
-34.518999 -16.799629 5.959971
-35.12602 -16.834373 6.745394
-34.718719 -15.806155 6.263659
-23.666317 -23.116831 38.215479
-23.908533 -23.934413 37.736828
-23.131479 -24.245456 38.231749
-25.444288 -19.766857 37.887333
-24.850086 -20.912578 38.019785
-26.241059 -19.520474 37.259012
-25.444288 -19.766857 37.887333
-22.330712 -24.543653 38.707411
-21.562255 -24.837276 39.240498
-23.131479 -24.245456 38.231749
-22.572928 -25.361235 38.22876
-22.330712 -24.543653 38.707411
-35.004427 -8.287222 5.3258
-34.706261 -7.095077 4.713333
-33.544228 -26.795341 30.683341
-32.988247 -27.862602 31.061054
-32.785858 -26.790097 31.340247
-34.29748 -6.022726 29.929741
-33.881523 -7.100959 30.576797
-40.533222 2.431017 13.052764
-40.483121 2.534762 14.11959
-40.467274 2.246841 12.038168
-40.440608 1.19072 12.808023
-40.533222 2.431017 13.052764
-40.454317 3.352141 11.281621
-40.361704 2.111844 11.03688
-40.467274 2.246841 12.038168
-15.045932 -34.326639 40.413059
-15.46887 -33.197962 40.583717
-15.262126 -35.184399 39.797621
-15.045932 -34.326639 40.413059
-16.891855 -35.240894 38.491715
-17.19461 -36.15014 37.976843
-37.68853 -35.44128 21.836717
-37.724894 -34.333303 22.431284
-38.003419 -34.426657 21.347942
-37.621943 -36.4956 21.306435
-37.68853 -35.44128 21.836717
-38.507979 -36.110884 12.229537
-38.52224 -36.262072 13.439608
-38.626349 -35.225944 12.928419
-36.105932 -23.474139 6.918755
-36.152901 -22.670852 7.405582
-37.275547 -26.2892 8.336491
-36.901013 -25.366111 7.847099
-36.921368 -26.2271 7.340468
-37.781092 -30.405127 6.556366
-37.689818 -29.683136 7.15488
-38.024908 -31.367272 7.007096
-37.781092 -30.405127 6.556366
-39.403185 4.078015 6.770684
-39.465027 2.964751 7.449074
-39.778738 4.181601 7.644429
-39.00403 4.140617 5.850264
-39.403185 4.078015 6.770684
-39.317741 5.357468 6.045618
-25.008729 -28.410494 35.912159
-25.316103 -29.32037 35.577921
-24.482066 -29.455606 35.98012
-31.839902 -12.346109 33.181534
-31.329331 -13.427761 33.65939
-32.560705 -12.172397 32.400399
-31.839902 -12.346109 33.181534
-32.283527 -11.284841 32.702554
-24.482066 -29.455606 35.98012
-23.985752 -30.607993 35.969538
-23.678378 -29.698117 36.303776
-34.899361 -12.656137 6.175477
-34.543986 -11.700216 5.659464
-37.116209 -4.496071 6.634
-37.597717 -3.241253 6.765473
-37.006567 -3.354089 5.993768
-36.701 -5.734334 6.507867
-37.29215 -5.621498 7.279572
-37.116209 -4.496071 6.634
-35.99729 -5.840499 5.675134
-36.173231 -6.965925 6.320705
-36.701 -5.734334 6.507867
-35.222506 -6.004739 4.874005
-35.99729 -5.840499 5.675134
-34.706261 -7.095077 4.713333
-35.222506 -6.004739 4.874005
-29.387199 -28.907835 33.539436
-28.573974 -28.953356 33.979362
-29.387199 -28.907835 33.539436
-29.88926 -27.824047 33.331678
-31.995888 -26.791729 31.99312
-31.214801 -26.739224 32.561477
-32.551868 -25.724469 31.615407
-32.785858 -26.790097 31.340247
-31.995888 -26.791729 31.99312
-35.029324 -4.00746 28.63879
-34.681866 -5.04513 29.273291
-35.706152 -3.867928 27.663339
-35.029324 -4.00746 28.63879
-36.333273 -3.779494 26.73059
-35.994537 -4.855393 27.422175
-35.706152 -3.867928 27.663339
-38.566177 -1.448365 22.239582
-38.045506 -1.456107 23.302382
-38.765041 -2.54005 21.990218
-38.566177 -1.448365 22.239582
-39.03252 -1.496472 21.161258
-40.171104 -1.72502 17.102091
-40.038453 -2.749291 17.846314
-39.994751 -1.554234 18.09851
-40.258373 -0.654637 16.357549
-40.302075 -1.849695 16.105351
-40.171104 -1.72502 17.102091
-15.944664 -32.021239 40.723446
-16.467495 -30.86674 40.837315
-16.153251 -32.824993 40.096558
-15.46887 -33.197962 40.583717
-15.944664 -32.021239 40.723446
-17.902624 -35.786285 37.683899
-18.326495 -34.56674 37.799744
-18.676387 -35.436842 37.335507
-17.19461 -36.15014 37.976843
-17.902624 -35.786285 37.683899
-35.309746 -35.861671 27.144345
-35.235771 -34.762434 27.554316
-35.309746 -35.861671 27.144345
-35.820198 -35.991932 26.228825
-38.049204 -36.552301 19.165038
-37.864214 -36.547543 20.214346
-38.152046 -35.539392 19.704065
-38.049204 -36.552301 19.165038
-38.213789 -36.550457 18.065043
-38.448929 -35.754805 9.766382
-38.512739 -35.915596 11.007597
-38.548277 -34.913966 10.477135
-36.94886 -26.907445 6.767772
-36.921368 -26.2271 7.340468
-37.342975 -27.922419 7.225113
-36.94886 -26.907445 6.767772
-37.28175 -0.950703 5.36824
-37.884142 -0.846686 6.177347
-37.677816 0.301882 5.420347
-36.803804 -2.239677 5.327894
-37.28175 -0.950703 5.36824
-26.13116 -29.222293 35.215841
-25.316103 -29.32037 35.577921
-26.990606 -29.017528 34.800444
-26.13116 -29.222293 35.215841
-26.702212 -28.070494 35.094562
-27.799396 -28.938349 34.414604
-26.990606 -29.017528 34.800444
-28.336236 -27.880738 34.243923
-28.573974 -28.953356 33.979362
-27.799396 -28.938349 34.414604
-29.758242 -16.724774 34.863858
-29.213918 -17.842662 35.166689
-28.973006 -16.95967 35.488707
-30.513009 -16.531728 34.189184
-29.758242 -16.724774 34.863858
-30.272098 -15.648736 34.511202
-31.571973 -14.344677 33.357954
-30.784223 -14.538774 34.137964
-31.329331 -13.427761 33.65939
-18.595712 -29.846992 39.39403
-17.896067 -30.160942 39.86
-18.476825 -28.945713 39.94066
-19.863304 -34.006779 37.123333
-19.558263 -33.080897 37.537337
-20.321309 -32.870379 37.209319
-19.414012 -35.155335 37.051949
-19.863304 -34.006779 37.123333
-22.704382 -31.956443 36.270748
-21.840674 -32.23252 36.625341
-22.318356 -31.126581 36.647787
-22.704382 -31.956443 36.270748
-23.479731 -31.792333 35.977342
-33.933815 -33.362578 29.525681
-33.786963 -32.306601 29.822073
-34.561605 -33.504364 28.77111
-33.933815 -33.362578 29.525681
-35.154303 -33.614339 27.978177
-34.561605 -33.504364 28.77111
-35.023292 -32.513696 28.351596
-35.697458 -33.771766 27.134802
-35.235771 -34.762434 27.554316
-35.154303 -33.614339 27.978177
-36.635643 -34.143367 25.339599
-36.235972 -35.071184 25.774428
-36.178599 -33.992044 26.276112
-38.536879 -33.96357 10.001127
-38.548277 -34.913966 10.477135
-38.600689 -34.124361 11.242342
-38.421143 -33.73963 8.895074
-38.536879 -33.96357 10.001127
-38.473555 -32.950026 9.660281
-38.335318 -33.377844 7.733094
-38.421143 -33.73963 8.895074
-35.175499 -13.712595 6.709542
-35.537396 -12.650431 6.981056
-34.899361 -12.656137 6.175477
-35.569637 -14.773895 7.282101
-35.175499 -13.712595 6.709542
-34.931602 -14.7796 6.476522
-24.252364 -21.998801 38.150311
-23.666317 -23.116831 38.215479
-25.041093 -21.719565 37.590032
-24.252364 -21.998801 38.150311
-24.850086 -20.912578 38.019785
-27.077836 -19.306447 36.659078
-26.475593 -20.419314 36.859573
-26.241059 -19.520474 37.259012
-27.635992 -18.242582 36.425027
-27.870526 -19.141422 36.025589
-27.077836 -19.306447 36.659078
-28.210547 -17.112092 36.159662
-27.635992 -18.242582 36.425027
-28.973006 -16.95967 35.488707
-28.210547 -17.112092 36.159662
-18.969761 -27.820844 40.077278
-18.476825 -28.945713 39.94066
-19.712718 -27.410114 39.597166
-18.969761 -27.820844 40.077278
-20.463631 -27.026792 39.179541
-19.927383 -28.248441 39.057064
-19.712718 -27.410114 39.597166
-21.010563 -25.923949 39.212032
-21.562255 -24.837276 39.240498
-21.225228 -26.762276 38.671931
-20.463631 -27.026792 39.179541
-21.010563 -25.923949 39.212032
-35.254106 -9.36134 5.947206
-35.7192 -8.146208 6.109377
-35.004427 -8.287222 5.3258
-34.900295 -10.548163 5.80531
-35.615068 -10.407149 6.588887
-35.254106 -9.36134 5.947206
-34.543986 -11.700216 5.659464
-34.900295 -10.548163 5.80531
-38.767476 6.515884 4.422126
-39.209433 6.57935 5.285533
-38.377358 5.188282 4.362433
-38.767476 6.515884 4.422126
-37.978502 3.814376 4.289214
-38.519732 4.046163 5.051979
-38.377358 5.188282 4.362433
-37.464859 2.66018 4.128125
-37.978502 3.814376 4.289214
-37.59815 1.435061 4.795
-37.464859 2.66018 4.128125
-33.457601 -30.104934 30.422717
-33.627659 -31.225426 30.145954
-33.274916 -28.91817 30.728646
-32.988247 -27.862602 31.061054
-33.929302 -29.054609 30.098219
-33.457601 -30.104934 30.422717
-33.274916 -28.91817 30.728646
-33.521416 -8.176177 31.138244
-33.115341 -9.199674 31.685337
-34.238536 -7.974238 30.229271
-33.521416 -8.176177 31.138244
-33.881523 -7.100959 30.576797
-34.98303 -5.921424 29.011373
-34.29748 -6.022726 29.929741
-34.681866 -5.04513 29.273291
-36.921442 -3.666672 25.779992
-36.333273 -3.779494 26.73059
-37.759962 -2.529164 24.06955
-38.045506 -1.456107 23.302382
-37.485119 -3.602885 24.81747
-37.759962 -2.529164 24.06955
-38.023855 -3.565665 23.816463
-37.185335 -4.703172 25.526905
-36.921442 -3.666672 25.779992
-37.485119 -3.602885 24.81747
-40.366785 0.407626 15.561243
-40.258373 -0.654637 16.357549
-40.425392 1.48473 14.792148
-40.483121 2.534762 14.11959
-40.44795 0.297791 14.591714
-40.366785 0.407626 15.561243
-40.425392 1.48473 14.792148
-40.445007 4.446858 10.492286
-40.454317 3.352141 11.281621
-40.311199 4.375527 9.540298
-40.445007 4.446858 10.492286
-40.057116 4.301124 8.56154
-40.094664 3.142741 9.301576
-40.311199 4.375527 9.540298
-39.778738 4.181601 7.644429
-40.057116 4.301124 8.56154
-17.322 -31.355246 39.774828
-17.203113 -30.453966 40.321458
-17.896067 -30.160942 39.86
-16.635452 -34.396864 38.992044
-17.296328 -34.072153 38.648466
-16.891855 -35.240894 38.491715
-15.954218 -34.783661 39.396061
-16.358691 -33.61492 39.552813
-16.635452 -34.396864 38.992044
-15.262126 -35.184399 39.797621
-15.954218 -34.783661 39.396061
-37.056576 -34.155832 24.397281
-36.635643 -34.143367 25.339599
-36.999203 -33.076693 24.898966
-37.41507 -34.218542 23.438353
-37.729959 -33.203919 22.949579
-37.724894 -34.333303 22.431284
-37.056576 -34.155832 24.397281
-37.41507 -34.218542 23.438353
-37.621943 -36.4956 21.306435
-37.864214 -36.547543 20.214346
-38.466816 -36.429358 14.61207
-38.410196 -36.593868 15.745002
-38.58399 -35.541643 15.271422
-38.466816 -36.429358 14.61207
-38.52224 -36.262072 13.439608
-38.507979 -36.110884 12.229537
-38.512739 -35.915596 11.007597
-34.307235 -17.727351 5.600194
-34.518999 -16.799629 5.959971
-34.827045 -18.720804 6.132893
-34.307235 -17.727351 5.600194
-35.287911 -19.709989 6.71722
-35.387165 -18.817032 7.026033
-34.827045 -18.720804 6.132893
-35.791172 -20.747309 7.261292
-35.287911 -19.709989 6.71722
-36.194805 -21.764933 7.805798
-36.251663 -20.823841 8.154866
-35.791172 -20.747309 7.261292
-36.613391 -22.747384 8.299156
-36.194805 -21.764933 7.805798
-36.152901 -22.670852 7.405582
-36.55916 -24.478656 7.375008
-36.105932 -23.474139 6.918755
-36.913339 -24.540757 8.371031
-36.55916 -24.478656 7.375008
-36.901013 -25.366111 7.847099
-37.643684 -28.873984 7.697946
-37.596611 -28.101754 8.302691
-37.342975 -27.922419 7.225113
-37.943453 -29.862471 8.232458
-37.643684 -28.873984 7.697946
-37.689818 -29.683136 7.15488
-38.209024 -32.394503 7.439514
-38.173703 -31.698855 8.12181
-38.024908 -31.367272 7.007096
-38.335318 -33.377844 7.733094
-38.209024 -32.394503 7.439514
3 0 68 66
3 264 70 265
3 1 73 71
3 266 75 267
3 268 77 269
3 270 269 75
3 268 269 270
3 1 80 78
3 1 71 80
3 2 84 82
3 3 87 85
3 3 89 87
3 5 92 90
3 7 95 93
3 7 97 95
3 8 100 98
3 272 271 101
3 10 273 275
3 275 274 104
3 273 274 275
3 10 276 278
3 276 105 277
3 276 277 278
3 4 108 106
3 11 111 109
3 11 113 111
3 11 115 113
3 12 118 116
3 12 120 118
3 279 123 280
3 281 125 282
3 283 282 123
3 281 282 283
3 285 284 125
3 286 127 287
3 289 288 128
3 291 290 130
3 6 133 131
3 13 136 134
3 13 292 294
3 294 293 136
3 292 293 294
3 13 295 296
3 9 139 137
3 14 142 140
3 14 144 142
3 15 147 145
3 17 148 67
3 17 149 148
3 18 152 150
3 20 153 69
3 20 297 299
3 299 298 153
3 297 298 299
3 21 154 72
3 21 155 154
3 300 157 301
3 23 158 74
3 23 159 158
3 23 161 159
3 25 162 76
3 25 163 162
3 26 166 164
3 28 167 79
3 28 302 304
3 304 303 167
3 302 303 304
3 28 305 306
3 308 307 81
3 29 309 311
3 309 168 310
3 309 310 311
3 30 169 83
3 30 170 169
3 31 173 171
3 33 174 86
3 33 175 174
3 33 177 175
3 35 178 88
3 35 179 178
3 36 182 180
3 312 183 313
3 314 184 315
3 316 315 183
3 314 315 316
3 317 187 318
3 319 318 185
3 317 318 319
3 320 188 321
3 323 322 188
3 324 189 325
3 326 185 327
3 328 327 189
3 326 327 328
3 39 192 190
3 41 193 91
3 41 194 193
3 16 195 146
3 42 196 94
3 42 197 196
3 42 198 197
3 43 199 96
3 43 200 199
3 44 203 201
3 46 204 99
3 46 205 204
3 19 206 151
3 47 207 102
3 47 208 207
3 47 209 208
3 330 329 103
3 48 331 333
3 331 210 332
3 331 332 333
3 48 211 210
3 38 212 186
3 49 213 107
3 49 214 213
3 22 215 156
3 50 216 110
3 50 217 216
3 50 218 217
3 51 219 112
3 51 220 219
3 51 221 220
3 52 222 114
3 52 223 222
3 24 224 160
3 53 225 117
3 53 226 225
3 53 227 226
3 54 228 119
3 54 229 228
3 334 230 335
3 55 231 121
3 55 232 231
3 56 233 122
3 56 234 233
3 56 235 234
3 57 236 124
3 57 237 236
3 57 238 237
3 58 239 126
3 58 240 239
3 336 241 337
3 338 242 339
3 340 339 241
3 338 339 340
3 341 243 342
3 343 342 242
3 341 342 343
3 59 344 345
3 59 346 347
3 27 244 165
3 349 348 129
3 40 245 191
3 60 246 132
3 60 247 246
3 32 248 172
3 61 249 135
3 61 350 352
3 352 351 249
3 350 351 352
3 61 353 354
3 34 355 357
3 357 356 176
3 355 356 357
3 45 250 202
3 62 251 138
3 62 252 251
3 37 253 181
3 63 254 141
3 63 255 254
3 63 256 255
3 64 257 143
3 64 258 257
3 358 259 359
3 65 360 362
3 360 260 361
3 360 361 362
3 65 261 260
3 65 262 261
3 363 263 364
3 366 365 263
3 66 67 15
3 68 67 66
3 68 17 67
3 367 69 368
3 369 368 18
3 367 368 369
3 70 370 372
3 370 69 371
3 370 371 372
3 70 20 69
3 71 373 375
3 373 72 374
3 373 374 375
3 73 72 71
3 73 21 72
3 376 74 377
3 75 378 380
3 378 74 379
3 378 379 380
3 75 23 74
3 75 76 23
3 77 76 75
3 77 25 76
3 78 79 26
3 80 79 78
3 80 28 79
3 80 81 28
3 71 81 80
3 71 381 383
3 383 382 81
3 381 382 383
3 82 83 29
3 84 83 82
3 84 30 83
3 85 86 31
3 87 86 85
3 87 33 86
3 87 88 33
3 89 88 87
3 89 35 88
3 385 384 36
3 90 91 39
3 92 91 90
3 92 41 91
3 93 94 16
3 95 94 93
3 95 42 94
3 95 96 42
3 97 96 95
3 97 43 96
3 98 99 44
3 100 99 98
3 100 46 99
3 101 102 19
3 386 102 387
3 388 387 101
3 386 387 388
3 389 47 390
3 391 390 102
3 389 390 391
3 392 103 393
3 394 393 47
3 392 393 394
3 395 103 396
3 398 397 103
3 104 399 400
3 402 401 104
3 105 403 404
3 105 405 407
3 405 48 406
3 405 406 407
3 106 107 38
3 108 107 106
3 108 49 107
3 109 110 22
3 111 110 109
3 111 50 110
3 111 112 50
3 113 112 111
3 113 51 112
3 113 114 51
3 115 114 113
3 115 52 114
3 116 117 24
3 118 117 116
3 118 53 117
3 118 119 53
3 120 119 118
3 120 54 119
3 408 121 409
3 410 121 411
3 412 55 413
3 414 413 121
3 412 413 414
3 415 122 416
3 123 417 419
3 417 122 418
3 417 418 419
3 123 56 122
3 123 124 56
3 125 124 123
3 125 57 124
3 125 126 57
3 420 126 421
3 422 421 125
3 420 421 422
3 423 58 424
3 425 424 126
3 423 424 425
3 127 426 427
3 127 428 430
3 428 59 429
3 428 429 430
3 128 129 27
3 431 129 432
3 433 432 128
3 431 432 433
3 435 434 129
3 130 436 437
3 439 438 130
3 131 132 40
3 133 132 131
3 133 60 132
3 134 135 32
3 136 135 134
3 136 61 135
3 136 440 442
3 442 441 61
3 440 441 442
3 444 443 136
3 447 446 34
3 445 446 447
3 137 138 45
3 139 138 137
3 139 62 138
3 140 141 37
3 142 141 140
3 142 63 141
3 142 143 63
3 144 143 142
3 144 64 143
3 448 65 449
3 451 450 65
3 145 146 5
3 147 146 145
3 147 16 146
3 67 147 15
3 148 147 67
3 148 16 147
3 148 93 16
3 149 93 148
3 149 7 93
3 150 151 8
3 152 151 150
3 152 19 151
3 69 152 18
3 153 152 69
3 153 19 152
3 153 101 19
3 452 101 453
3 454 453 153
3 452 453 454
3 456 455 101
3 72 457 458
3 154 459 461
3 461 460 72
3 459 460 461
3 154 462 463
3 154 464 466
3 464 104 465
3 464 465 466
3 155 104 154
3 155 10 104
3 467 156 468
3 469 468 4
3 467 468 469
3 157 470 472
3 470 156 471
3 470 471 472
3 157 22 156
3 74 473 475
3 473 157 474
3 473 474 475
3 158 157 74
3 158 22 157
3 158 109 22
3 159 109 158
3 159 11 109
3 159 160 11
3 161 160 159
3 161 24 160
3 76 161 23
3 162 161 76
3 162 24 161
3 162 116 24
3 163 116 162
3 163 12 116
3 164 476 478
3 476 165 477
3 476 477 478
3 166 165 164
3 166 27 165
3 79 166 26
3 167 166 79
3 167 27 166
3 167 128 27
3 479 128 480
3 481 480 167
3 479 480 481
3 483 482 128
3 81 484 486
3 486 485 28
3 484 485 486
3 488 487 81
3 168 489 490
3 168 491 492
3 83 168 29
3 169 168 83
3 169 493 495
3 495 494 168
3 493 494 495
3 169 496 498
3 496 130 497
3 496 497 498
3 170 130 169
3 170 499 501
3 501 500 130
3 499 500 501
3 171 172 6
3 173 172 171
3 173 32 172
3 86 173 31
3 174 173 86
3 174 32 173
3 174 134 32
3 175 134 174
3 175 13 134
3 175 176 13
3 177 176 175
3 177 34 176
3 88 177 33
3 178 177 88
3 178 34 177
3 178 502 504
3 504 503 34
3 502 503 504
3 179 505 507
3 507 506 178
3 505 506 507
3 179 508 509
3 180 181 9
3 182 181 180
3 182 37 181
3 510 182 511
3 512 511 36
3 510 511 512
3 183 513 515
3 513 182 514
3 513 514 515
3 183 37 182
3 183 140 37
3 184 140 183
3 184 14 140
3 185 186 1
3 187 186 185
3 187 38 186
3 516 187 517
3 188 518 520
3 518 187 519
3 518 519 520
3 188 38 187
3 188 106 38
3 521 106 522
3 523 522 188
3 521 522 523
3 524 4 525
3 526 525 106
3 524 525 526
3 527 4 528
3 530 529 4
3 531 164 532
3 533 164 534
3 535 26 536
3 537 536 164
3 535 536 537
3 189 538 539
3 189 540 542
3 540 26 541
3 540 541 542
3 189 78 26
3 185 78 189
3 185 1 78
3 190 191 2
3 192 191 190
3 192 40 191
3 91 192 39
3 193 192 91
3 193 40 192
3 193 131 40
3 194 131 193
3 194 6 131
3 146 92 5
3 195 92 146
3 195 41 92
3 94 195 16
3 196 195 94
3 196 41 195
3 196 194 41
3 197 194 196
3 197 6 194
3 197 171 6
3 198 171 197
3 198 31 171
3 96 198 42
3 199 198 96
3 199 31 198
3 199 85 31
3 200 85 199
3 200 3 85
3 201 202 0
3 203 202 201
3 203 45 202
3 99 203 44
3 204 203 99
3 204 45 203
3 204 137 45
3 205 137 204
3 205 9 137
3 151 100 8
3 206 100 151
3 206 46 100
3 102 206 19
3 207 206 102
3 207 46 206
3 207 205 46
3 208 205 207
3 208 9 205
3 208 180 9
3 209 180 208
3 209 36 180
3 103 209 47
3 543 209 544
3 545 544 103
3 543 544 545
3 546 36 547
3 548 547 209
3 546 547 548
3 550 549 36
3 551 70 552
3 553 70 554
3 555 20 556
3 557 556 70
3 555 556 557
3 558 20 559
3 561 560 20
3 562 29 563
3 210 564 565
3 210 566 568
3 566 29 567
3 566 567 568
3 210 82 29
3 211 82 210
3 211 2 82
3 186 73 1
3 212 73 186
3 212 21 73
3 107 212 38
3 213 212 107
3 213 21 212
3 213 155 21
3 214 155 213
3 214 10 155
3 156 108 4
3 215 108 156
3 215 49 108
3 110 215 22
3 216 215 110
3 216 49 215
3 216 214 49
3 217 214 216
3 217 10 214
3 217 105 10
3 218 105 217
3 218 48 105
3 112 218 50
3 219 218 112
3 219 48 218
3 219 211 48
3 220 211 219
3 220 2 211
3 220 190 2
3 221 190 220
3 221 39 190
3 114 221 51
3 222 221 114
3 222 39 221
3 222 90 39
3 223 90 222
3 223 5 90
3 160 115 11
3 224 115 160
3 224 52 115
3 117 224 24
3 225 224 117
3 225 52 224
3 225 223 52
3 226 223 225
3 226 5 223
3 226 145 5
3 227 145 226
3 227 15 145
3 119 227 53
3 228 227 119
3 228 15 227
3 228 66 15
3 229 66 228
3 229 0 66
3 569 77 570
3 230 571 573
3 571 77 572
3 571 572 573
3 230 25 77
3 121 574 576
3 574 230 575
3 574 575 576
3 231 230 121
3 231 25 230
3 231 163 25
3 232 163 231
3 232 12 163
3 577 55 578
3 122 579 580
3 233 581 583
3 583 582 122
3 581 582 583
3 233 584 586
3 584 55 585
3 584 585 586
3 233 232 55
3 234 232 233
3 234 12 232
3 234 120 12
3 235 120 234
3 235 54 120
3 124 235 56
3 236 235 124
3 236 54 235
3 236 229 54
3 237 229 236
3 237 0 229
3 237 201 0
3 238 201 237
3 238 44 201
3 126 238 57
3 239 238 126
3 239 44 238
3 239 98 44
3 240 98 239
3 240 8 98
3 587 58 588
3 241 589 590
3 241 591 593
3 591 58 592
3 591 592 593
3 241 240 58
3 242 240 241
3 242 8 240
3 242 150 8
3 243 150 242
3 243 18 150
3 594 243 595
3 596 243 597
3 598 18 599
3 600 599 243
3 598 599 600
3 602 601 18
3 165 603 605
3 603 127 604
3 603 604 605
3 244 127 165
3 244 59 127
3 129 244 27
3 606 244 607
3 608 607 129
3 606 607 608
3 609 59 610
3 611 610 244
3 609 610 611
3 613 612 59
3 191 84 2
3 245 84 191
3 245 30 84
3 132 245 40
3 246 245 132
3 246 30 245
3 246 170 30
3 247 170 246
3 247 614 616
3 616 615 170
3 614 615 616
3 172 133 6
3 248 133 172
3 248 60 133
3 135 248 32
3 249 248 135
3 249 60 248
3 249 247 60
3 617 247 618
3 619 618 249
3 617 618 619
3 621 620 247
3 623 622 61
3 176 624 626
3 626 625 13
3 624 625 626
3 628 627 176
3 630 629 34
3 202 68 0
3 250 68 202
3 250 17 68
3 138 250 45
3 251 250 138
3 251 17 250
3 251 149 17
3 252 149 251
3 252 7 149
3 181 139 9
3 253 139 181
3 253 62 139
3 141 253 37
3 254 253 141
3 254 62 253
3 254 252 62
3 255 252 254
3 255 7 252
3 255 97 7
3 256 97 255
3 256 43 97
3 143 256 63
3 257 256 143
3 257 43 256
3 257 200 43
3 258 200 257
3 258 3 200
3 631 184 632
3 633 184 634
3 635 14 636
3 637 636 184
3 635 636 637
3 638 14 639
3 640 144 641
3 642 641 14
3 640 641 642
3 259 643 645
3 643 144 644
3 643 644 645
3 259 64 144
3 646 259 647
3 260 648 650
3 648 259 649
3 648 649 650
3 260 64 259
3 260 258 64
3 261 258 260
3 261 3 258
3 261 89 3
3 262 89 261
3 262 35 89
3 651 262 652
3 653 652 65
3 651 652 653
3 263 654 656
3 654 262 655
3 654 655 656
3 263 35 262
3 263 179 35
3 657 179 658
3 659 658 263
3 657 658 659
3 661 660 179
