ply
format ascii 1.0
element vertex 833
property float x
property float y
property float z
element face 974
property list uchar int vertex_index
end_header
33.974335 -22.29842 20.886658
27.849581 -41.851936 -12.872649
26.031067 -67.790031 3.601604
29.962217 -49.84206 21.24852
30.450136 -45.620106 3.771632
24.975054 -53.520039 -11.647998
27.412006 -70.543121 13.062035
28.724304 -63.149235 31.996122
29.449387 -51.87326 30.476013
28.832853 -61.562199 21.985123
28.313868 -59.392132 12.52454
36.028435 -6.34866 20.218523
33.552994 -34.407307 12.772553
32.521763 -10.493269 27.550652
24.341116 -64.688133 -4.545337
31.026176 -25.521042 28.425035
30.024235 -39.170727 29.212198
31.740616 -36.802692 21.136841
30.491474 -47.552307 12.481263
27.342257 -57.203445 3.700397
26.188572 -55.039642 -4.454307
29.683142 -43.779404 -4.638562
23.932398 -58.214592 -10.887802
28.257017 -68.030876 27.363279
28.862461 -62.504292 26.923777
35.04092 -14.470881 20.673992
35.382965 -21.024178 16.931101
35.064598 -27.582048 12.72595
34.119644 -28.335255 16.925949
33.340748 -2.160655 27.106377
26.425766 -40.592293 -16.819839
25.191818 -66.193169 -0.598374
29.683399 -50.743874 25.948944
29.687832 -45.75098 29.853443
30.184023 -44.451435 25.467609
30.823721 -38.050327 25.044739
30.77067 -43.54174 21.153297
31.392347 -42.443401 16.873192
30.244839 -48.768814 16.806322
27.134567 -63.649147 8.03295
27.859364 -58.27747 7.960356
26.425909 -62.500351 3.625637
25.686102 -61.236702 -0.56544
32.34119 -39.297249 3.805891
30.064226 -44.973446 -0.532168
27.76811 -49.75716 -4.57391
28.261429 -50.699558 -0.606791
26.37813 -47.975124 -12.204312
25.373251 -46.833282 -15.951728
26.828699 -69.162819 8.32395
28.945072 -58.312206 36.407356
29.228529 -52.733189 35.461353
29.167225 -57.76825 31.349592
29.288984 -56.790134 26.33618
29.358988 -55.617332 21.688475
29.308638 -54.865383 16.917946
28.655369 -60.430527 17.230122
27.72868 -64.945511 12.662663
36.918377 1.750181 19.392809
34.03297 -33.631683 8.427565
32.309242 -40.169319 8.41226
35.152084 -0.16879 23.39883
34.314442 -8.517431 23.879028
33.358864 -16.176083 24.431366
23.713406 -63.121479 -7.709377
31.728838 -17.807615 28.056768
32.49411 -23.713829 24.614931
29.340067 -46.703018 34.52507
29.403755 -40.554119 33.732967
29.553211 -33.918148 32.930855
30.454733 -32.463753 28.858503
31.60264 -31.055868 24.87591
32.850925 -29.76342 20.983223
32.687004 -35.680317 17.051748
31.914778 -41.406208 12.596824
30.581156 -46.507332 8.186147
29.237944 -53.664684 12.520768
29.035364 -52.621403 8.068676
28.746891 -51.545658 3.780754
26.722076 -56.146263 -0.661412
24.999043 -59.96138 -4.416683
24.493254 -58.73534 -7.669718
28.899755 -42.872055 -8.89602
27.158449 -48.855785 -8.468848
25.574558 -54.265606 -8.171091
23.603323 -60.080891 -10.428148
28.316702 -67.740898 24.874815
34.538067 -18.34815 20.77087
35.274223 -17.809429 18.846045
34.692825 -21.749527 18.908791
34.73103 -24.898167 16.96513
34.103897 -25.384352 18.983583
27.163055 -41.378143 -14.843853
25.594769 -67.038483 1.366195
25.132839 -68.900864 -0.737081
29.815454 -50.317436 23.661207
29.916348 -47.647503 25.656612
30.120344 -47.270515 23.364979
30.460201 -44.021912 23.363882
30.342113 -46.81274 21.08836
30.591879 -46.086811 18.959633
30.107998 -49.306622 19.014256
26.546562 -65.843246 5.803885
26.747183 -63.26152 5.691831
26.146656 -65.071938 3.50967
25.740622 -64.392258 1.345937
31.32476 -42.702011 3.757414
31.226494 -42.228409 1.576911
30.261072 -45.361206 1.60872
29.149281 -47.832176 -0.594887
29.373827 -48.233788 1.57425
25.680393 -50.792095 -11.862713
25.330063 -50.200436 -13.644832
27.141903 -69.89386 10.633625
28.852219 -60.89566 34.204121
29.07366 -58.034328 33.895462
28.967436 -60.585323 31.697472
28.85973 -62.139477 24.461693
29.092655 -59.618111 26.779736
29.082445 -59.394901 24.278992
29.314262 -56.40403 24.082012
29.082375 -58.719154 21.919432
29.058037 -58.021564 19.590212
28.782576 -60.883495 19.707829
27.989412 -65.488487 15.223612
27.575174 -67.670181 13.002362
27.272427 -67.099434 10.530944
36.519794 -2.231184 19.773752
34.280399 -31.208855 12.734976
34.679066 -30.474985 10.570134
33.800491 -34.192635 10.489032
33.128117 -37.121815 8.262529
32.987156 -37.430534 10.656374
35.588245 4.089708 22.948879
34.652756 3.149009 24.949825
32.973209 -6.358077 27.248154
33.839569 -5.346993 25.509792
33.44577 -9.221714 25.702673
33.858635 -12.534002 24.092846
33.002247 -13.088028 25.962057
25.96694 -36.745113 -19.158575
24.777792 -46.160824 -17.745737
24.004902 -63.835236 -6.203253
30.692245 -22.613098 29.977278
30.990198 -18.834585 29.783884
31.398664 -21.631502 28.151449
32.131248 -20.807047 26.379284
31.735815 -24.706959 26.498917
29.341587 -52.340916 32.94817
29.296001 -49.803802 34.996758
29.417313 -49.369534 32.679291
29.840958 -42.367641 29.54076
29.580048 -43.225082 31.779861
29.672405 -39.848591 31.540054
29.478039 -37.107304 33.239643
29.820652 -36.62141 31.093845
29.985197 -33.06953 30.83511
30.199419 -35.701855 29.206976
31.254753 -37.393257 23.187166
31.179281 -34.562557 25.056236
31.714636 -34.118538 22.991096
32.232925 -30.473278 22.853346
32.275597 -33.529713 20.963116
32.842556 -32.652042 19.113817
32.211723 -36.336933 19.069344
31.010258 -45.047199 14.696083
31.678877 -41.923466 14.661827
31.161106 -44.619183 12.464441
31.305691 -44.040005 10.368873
30.49976 -47.250607 10.294646
28.835707 -57.267101 14.767632
29.31142 -54.090977 14.700191
28.730362 -56.546062 12.468076
27.590662 -57.832985 5.81152
28.344622 -55.617462 7.823912
28.218313 -54.871643 5.83185
28.916134 -52.018322 5.886649
27.98349 -54.450977 3.735199
27.736479 -53.918228 1.552442
27.058954 -56.542385 1.454059
24.979809 -62.885078 -2.601972
25.350544 -60.429611 -2.573598
24.622284 -62.189617 -4.440406
24.296209 -61.570026 -6.147343
30.910721 -41.131069 -2.717758
29.285952 -43.479084 -6.765782
28.032038 -45.88628 -8.684818
28.399048 -46.370453 -6.626885
26.912741 -52.49329 -4.570746
26.625528 -52.02039 -6.527701
25.935457 -54.489799 -6.29235
25.025408 -56.524788 -7.787255
25.243828 -57.125488 -6.136866
24.423147 -55.948299 -11.22771
24.121508 -55.730511 -12.917194
27.634056 -70.922333 15.590124
28.821426 -62.820694 29.415474
28.595884 -65.25531 27.115742
28.603825 -65.007935 24.64439
28.593557 -64.380913 22.230312
28.523876 -63.799145 19.839268
35.548183 -10.457225 20.473856
35.845146 -13.73609 18.682959
35.340073 -24.210604 14.869024
34.640163 -27.89234 14.850358
33.878143 -31.536198 14.973412
33.72131 1.933358 26.847893
25.590096 -39.868164 -18.698154
24.735079 -65.469055 -2.698227
24.701426 -67.904427 -2.619664
30.405008 -26.233526 30.283609
29.5599 -51.399227 28.079262
29.563501 -48.859108 30.185608
29.71636 -48.375553 27.945417
29.905098 -45.221386 27.682226
30.139849 -41.959583 27.326332
30.390656 -38.571842 27.18346
30.483013 -41.197845 25.30895
30.838423 -40.844505 23.204653
31.265781 -40.064766 21.098257
31.644657 -39.612106 19.0714
31.090235 -42.913628 19.085094
30.811588 -45.50053 17.003685
30.39233 -48.083988 14.668732
27.733589 -61.51704 10.275555
28.067129 -58.981613 10.159376
27.417326 -60.98748 7.843766
27.138014 -60.459095 5.814732
26.824003 -59.891079 3.686486
26.496077 -59.210457 1.488867
26.068192 -61.891445 1.553664
25.339413 -63.70892 -0.705453
31.095629 -41.676731 -0.613701
29.956615 -44.245342 -2.515646
28.705404 -46.837624 -4.592784
28.981041 -47.177509 -2.681294
28.045725 -50.135059 -2.648196
27.241957 -52.818691 -2.565288
27.063635 -45.088772 -12.591047
26.57453 -44.282005 -14.490727
25.905823 -47.36409 -14.14996
26.431377 -68.591309 5.857347
26.000454 -70.374054 3.491918
28.979492 -55.790565 38.400108
29.099873 -53.171688 37.944069
29.119602 -55.598518 35.837345
29.231237 -55.266502 33.355572
29.317602 -54.806835 31.127644
29.061798 -59.94986 29.170074
29.250128 -57.08886 28.844936
29.40514 -54.320019 28.469696
29.47994 -53.846409 26.137632
29.562246 -53.260372 23.832279
29.645702 -52.693203 21.378168
29.681498 -52.447624 19.096579
29.33515 -55.326206 19.211866
28.965548 -57.648907 17.173828
28.490421 -59.934696 14.78649
28.384418 -63.342419 17.405649
28.191509 -62.738834 14.842316
27.955404 -62.248291 12.460803
27.431355 -64.311081 10.212433
26.902924 -66.564674 8.035624
33.252544 -36.559887 6.121084
32.293114 -39.961349 6.009466
31.451294 -42.913303 6.083328
28.800938 -55.918354 40.967556
28.775084 -58.513683 38.91497
28.559927 -63.558174 34.442791
36.450951 5.077491 21.00316
36.096584 0.986935 21.357466
35.660236 -3.235806 21.731068
34.19627 -1.188519 25.379589
34.718185 -4.339013 23.723812
35.182095 -7.412165 22.083214
34.728619 -11.332889 22.303534
34.241215 -15.307996 22.489481
33.755188 -19.083277 22.637241
25.869738 -43.650383 -16.520096
25.108717 -43.010796 -18.400393
24.245596 -42.421883 -20.226137
23.278286 -41.553505 -22.078821
31.703442 -11.217248 29.314648
31.322342 -15.189236 29.560074
32.159264 -14.267788 27.696932
32.532017 -17.131203 26.213457
32.95369 -19.950277 24.468594
33.239925 -23.08238 22.716713
29.164837 -50.142887 37.555386
29.195688 -47.352188 36.924728
29.19573 -44.135582 36.387653
29.500828 -46.277542 32.140911
29.365328 -43.628437 34.156826
29.176882 -40.870972 36.00174
29.193974 -37.747498 35.393627
29.198923 -34.652519 35.07864
29.692074 -30.719902 32.460117
30.164976 -29.66045 30.605402
30.72146 -29.090542 28.640221
30.666105 -35.392059 27.020081
30.985546 -31.86331 26.898989
31.368286 -28.210587 26.665966
32.057606 -27.457605 24.686195
32.74107 -26.874805 22.750132
33.444683 -26.202557 20.78684
33.480991 -29.148462 18.969831
33.378864 -32.166977 16.990089
33.107018 -35.242306 14.893708
32.031998 -39.138458 16.896536
32.398544 -38.532246 14.856899
32.729095 -37.932598 12.786251
32.151215 -40.734661 10.512744
31.402889 -43.477345 8.262374
30.527617 -46.077114 5.87074
29.746674 -51.856323 16.983805
29.801046 -51.230824 14.74984
29.815514 -50.702152 12.511948
28.570705 -55.992332 10.138323
29.146685 -53.122272 10.211684
29.798143 -50.177437 10.245072
29.743553 -49.646545 7.915717
29.709173 -49.005531 5.876938
29.55352 -48.608948 3.650033
28.486759 -51.203629 1.529238
27.494003 -53.429256 -0.442847
26.490856 -55.464546 -2.560739
26.115044 -58.74572 -0.678356
25.837782 -58.008774 -2.618954
25.50663 -57.603027 -4.480554
24.717676 -59.390434 -6.085328
24.045977 -60.877499 -7.663431
23.808561 -60.367496 -9.106874
28.426571 -42.382648 -10.863597
27.581997 -45.493073 -10.652847
26.783024 -48.431049 -10.37763
25.988726 -51.282478 -10.148618
27.478479 -49.309689 -6.535113
26.30698 -51.670593 -8.372715
25.283615 -53.87989 -9.914827
24.695171 -56.258755 -9.587012
24.222437 -58.382217 -9.255693
23.390645 -60.930498 -10.832397
23.493453 -60.829037 -10.258375
27.506318 -41.61504 -13.858251
27.878197 -39.953485 -14.029474
28.22146 -40.190382 -13.043872
25.809146 -68.75188 2.483745
25.590997 -68.376106 1.366041
25.812918 -67.414257 2.4839
24.822195 -53.304003 -12.497733
25.174864 -51.940031 -12.605091
25.327723 -52.156067 -11.755356
27.241717 -71.578609 11.903111
27.106665 -71.253979 10.688906
27.276955 -70.218491 11.84783
27.49359 -69.106651 13.032198
27.691289 -67.915088 14.189954
27.609706 -69.351559 14.219791
36.439443 -6.067771 19.170829
36.685123 -4.009033 18.948444
36.274114 -4.289922 19.996138
34.405109 4.663747 25.650089
34.850701 5.299564 24.711131
25.392024 -36.40452 -20.156989
25.26466 -38.000616 -19.898953
24.099894 -65.446872 -5.423094
23.931787 -65.020424 -6.252052
24.173009 -64.261685 -5.374295
30.146468 -42.209423 -4.786471
30.760258 -40.885255 -3.826068
30.296931 -42.455236 -3.67816
29.484547 -43.629244 -5.702172
29.947874 -42.059263 -5.85008
30.146468 -42.209423 -4.786471
23.82805 -58.090426 -11.618339
24.073425 -56.957279 -11.788293
24.177772 -57.081446 -11.057756
27.52921 -72.331695 15.538674
27.688712 -71.234948 16.789189
28.426451 -66.643093 27.239511
28.557623 -65.406154 28.440333
28.388189 -66.793937 28.564101
28.463987 -66.167111 23.554033
28.460263 -66.374416 24.759602
28.320425 -67.533592 23.669246
28.458852 -65.8536 22.346994
28.598691 -64.694424 23.437351
28.463987 -66.167111 23.554033
28.449374 -65.45533 21.213811
28.458852 -65.8536 22.346994
27.688712 -71.234948 16.789189
27.802427 -69.835701 16.711827
35.698744 -19.025726 16.869562
35.644373 -17.418352 17.827034
35.328594 -19.416804 17.888573
35.704866 -20.666837 15.886768
35.698744 -19.025726 16.869562
35.361519 -22.617391 15.900063
35.68342 -22.26005 14.855729
35.704866 -20.666837 15.886768
26.689754 -39.029587 -16.993452
27.11493 -39.320488 -16.027669
26.007931 -40.230228 -17.758997
26.271918 -38.667523 -17.932609
26.689754 -39.029587 -16.993452
24.94825 -69.705342 -1.769401
25.186274 -70.143238 -0.753008
30.121595 -26.704363 31.229605
30.220913 -24.93713 31.073598
32.28752 -39.114664 2.690345
32.790512 -37.739384 3.770499
25.067039 -50.076149 -14.576967
24.825889 -51.446789 -14.336296
23.992124 -55.551026 -13.708687
23.789293 -56.832018 -13.415771
26.619309 -70.111592 7.0842
26.420648 -69.825837 5.850898
26.630038 -68.877064 7.090649
28.275352 -64.748487 17.542936
28.454147 -63.570782 18.622459
28.345081 -64.97685 18.759746
37.336906 2.186775 18.288101
37.111858 3.911596 19.144959
35.259426 -27.324921 11.599087
35.456804 -25.625613 12.725673
34.464834 -31.904567 8.325122
34.787882 -30.326217 9.396406
34.356018 -32.053334 9.498849
34.090179 -33.436615 7.242801
34.464834 -31.904567 8.325122
33.642757 -35.095785 7.274324
33.699966 -34.900717 6.08956
34.090179 -33.436615 7.242801
28.681371 -57.237948 41.18741
28.678882 -56.070959 42.237231
28.668444 -58.535612 40.161118
28.788011 -57.216019 39.941263
28.681371 -57.237948 41.18741
28.449628 -63.633091 35.769188
28.629254 -62.32009 35.541792
36.171093 6.690785 21.799284
36.597448 7.281244 20.794604
24.572986 -44.24046 -19.007511
24.943255 -44.58581 -18.073065
24.407524 -45.815473 -18.680183
24.141426 -43.946003 -19.920383
24.677156 -42.71634 -19.313265
24.572986 -44.24046 -19.007511
22.762287 -42.772299 -22.64777
23.215854 -43.16728 -21.793094
22.741613 -41.237219 -22.953881
22.762287 -42.772299 -22.64777
23.495382 -63.646849 -8.502948
23.613232 -62.661164 -8.380562
25.849738 -71.2994 2.431579
26.054455 -71.616066 3.545613
31.322717 -11.800506 30.148203
31.493378 -9.789894 30.056953
29.40826 -32.570025 33.739199
29.231116 -32.937211 34.813091
29.376067 -34.285334 34.004748
29.622643 -32.319025 32.695486
29.477691 -30.970903 33.50383
29.40826 -32.570025 33.739199
23.613232 -62.661164 -8.380562
23.779518 -61.539174 -8.357589
23.879691 -61.999489 -7.686404
29.356455 -41.217327 -9.01058
29.541272 -41.604405 -7.976825
28.663163 -42.627352 -9.879808
29.119864 -40.972623 -9.994369
29.356455 -41.217327 -9.01058
23.48514 -60.104563 -11.137547
23.649677 -59.171413 -11.367374
23.76786 -59.147742 -10.657975
23.48514 -60.104563 -11.137547
23.390645 -60.930498 -10.832397
28.149257 -69.040451 25.002938
28.286859 -67.885887 26.119047
28.119415 -69.18544 26.24717
28.179972 -68.855232 23.803182
28.149257 -69.040451 25.002938
28.320425 -67.533592 23.669246
28.179972 -68.855232 23.803182
27.483574 -39.713413 -15.039675
27.878197 -39.953485 -14.029474
26.79441 -40.985218 -15.831846
27.11493 -39.320488 -16.027669
27.483574 -39.713413 -15.039675
25.360032 -69.307297 0.314403
25.363804 -67.969673 0.314557
25.590997 -68.376106 1.366041
25.186274 -70.143238 -0.753008
25.360032 -69.307297 0.314403
24.999699 -51.644202 -13.49615
25.505228 -50.496266 -12.753773
25.174864 -51.940031 -12.605091
24.825889 -51.446789 -14.336296
24.999699 -51.644202 -13.49615
26.95196 -70.918637 9.415188
26.795358 -70.553116 8.260351
26.985301 -69.52834 9.478787
26.95196 -70.918637 9.415188
27.106665 -71.253979 10.688906
27.898409 -66.824241 15.300579
28.077849 -65.821522 16.451918
27.782293 -66.579334 14.112987
27.898409 -66.824241 15.300579
27.691289 -67.915088 14.189954
36.940261 -1.928766 18.675167
37.139553 0.061917 18.484696
36.719085 -0.240501 19.583281
36.940261 -1.928766 18.675167
36.685123 -4.009033 18.948444
35.318445 5.769913 23.710658
35.73974 6.196893 22.772143
35.1205 3.619358 23.949352
35.318445 5.769913 23.710658
34.850701 5.299564 24.711131
26.079645 -35.262308 -19.477071
26.674392 -35.537104 -18.41446
26.079645 -35.262308 -19.477071
25.392024 -36.40452 -20.156989
24.537748 -47.785705 -17.521135
25.075522 -46.497053 -16.848732
24.835478 -48.121934 -16.624131
24.266248 -47.352093 -18.41039
24.537748 -47.785705 -17.521135
24.407524 -45.815473 -18.680183
24.266248 -47.352093 -18.41039
23.758089 -64.601304 -7.067385
23.612341 -64.244425 -7.820447
23.859154 -63.478358 -6.956315
23.758089 -64.601304 -7.067385
23.931787 -65.020424 -6.252052
30.841221 -20.723841 29.880581
30.642705 -19.370944 30.675829
30.493728 -21.2602 30.772526
31.3938 -39.518074 -2.793764
31.529459 -39.722037 -1.615318
31.3938 -39.518074 -2.793764
30.760258 -40.885255 -3.826068
29.734371 -41.907919 -6.911706
29.947874 -42.059263 -5.85008
29.092854 -43.17557 -7.830901
29.541272 -41.604405 -7.976825
29.734371 -41.907919 -6.911706
23.922605 -56.848385 -12.633035
24.272327 -55.839405 -12.072452
24.073425 -56.957279 -11.788293
23.789293 -56.832018 -13.415771
23.922605 -56.848385 -12.633035
23.82805 -58.090426 -11.618339
23.649677 -59.171413 -11.367374
27.466656 -72.002678 14.385741
27.355631 -71.813072 13.121696
27.523031 -70.732727 14.326079
27.466656 -72.002678 14.385741
27.52921 -72.331695 15.538674
28.670393 -64.188847 29.590198
28.772865 -62.984965 30.705798
28.621833 -64.353117 30.880522
28.708655 -64.038002 28.265608
28.670393 -64.188847 29.590198
28.557623 -65.406154 28.440333
28.414534 -65.164446 20.01829
28.558717 -64.090029 21.03479
28.449374 -65.45533 21.213811
28.345081 -64.97685 18.759746
28.414534 -65.164446 20.01829
27.720731 -69.541165 15.483835
27.802427 -69.835701 16.711827
27.523031 -70.732727 14.326079
27.609706 -69.351559 14.219791
27.720731 -69.541165 15.483835
35.95836 -10.072994 19.466276
36.198487 -8.018712 19.33861
35.788309 -8.402942 20.34619
36.106842 -11.712426 18.570828
35.95836 -10.072994 19.466276
35.696664 -12.096657 19.578408
36.21887 -13.393681 17.650706
36.106842 -11.712426 18.570828
35.929834 -15.381683 17.745491
35.559685 -15.77276 18.764502
35.644373 -17.418352 17.827034
36.21887 -13.393681 17.650706
35.929834 -15.381683 17.745491
35.594541 -23.939891 13.79721
35.68342 -22.26005 14.855729
35.202335 -25.896326 13.797487
35.456804 -25.625613 12.725673
35.594541 -23.939891 13.79721
33.510762 3.470352 27.490345
33.939386 4.055921 26.599123
33.300059 1.332638 27.695474
33.510762 3.470352 27.490345
33.109777 -0.714369 27.824717
33.531029 -0.113649 26.977135
33.300059 1.332638 27.695474
32.928434 -2.770176 27.923798
33.109777 -0.714369 27.824717
32.744665 -4.868887 27.994687
33.156978 -4.259366 27.177265
32.928434 -2.770176 27.923798
32.546009 -6.811413 28.13057
32.744665 -4.868887 27.994687
32.320286 -8.879009 28.281819
32.747486 -8.425673 27.399403
32.546009 -6.811413 28.13057
26.460341 -37.105997 -18.16282
26.674392 -35.537104 -18.41446
25.778518 -38.306639 -18.928365
26.460341 -37.105997 -18.16282
26.271918 -38.667523 -17.932609
25.076238 -39.562141 -19.668743
25.26466 -38.000616 -19.898953
25.778518 -38.306639 -18.928365
24.492775 -66.359261 -3.631384
24.295794 -65.968799 -4.554939
24.538097 -65.078594 -3.621782
24.475949 -67.576946 -3.592103
24.492775 -66.359261 -3.631384
24.718252 -66.686741 -2.658946
24.512901 -68.767162 -3.60427
24.475949 -67.576946 -3.592103
24.732543 -69.207123 -2.710693
24.917133 -68.402646 -1.678373
24.94825 -69.705342 -1.769401
24.512901 -68.767162 -3.60427
24.732543 -69.207123 -2.710693
30.364531 -23.126916 30.920433
30.493728 -21.2602 30.772526
30.548626 -24.423312 30.130443
30.364531 -23.126916 30.920433
30.220913 -24.93713 31.073598
31.730171 -40.580244 1.575854
32.28752 -39.114664 2.690345
31.783842 -40.762829 2.691401
31.664739 -40.304405 0.480548
31.730171 -40.580244 1.575854
31.161061 -41.95257 0.481605
31.621913 -39.994867 -0.563289
31.664739 -40.304405 0.480548
31.003175 -41.4039 -1.665729
31.529459 -39.722037 -1.615318
31.621913 -39.994867 -0.563289
25.35492 -48.657976 -14.829531
25.617943 -48.782263 -13.897396
25.067039 -50.076149 -14.576967
25.088634 -48.392572 -15.730415
25.639537 -47.098686 -15.050844
25.35492 -48.657976 -14.829531
24.835478 -48.121934 -16.624131
25.088634 -48.392572 -15.730415
24.395422 -54.409239 -13.132331
24.822195 -53.304003 -12.497733
24.548281 -54.625275 -12.282596
24.395422 -54.409239 -13.132331
23.992124 -55.551026 -13.708687
26.205186 -70.717209 4.668183
26.215916 -69.482681 4.674632
26.420648 -69.825837 5.850898
26.054455 -71.616066 3.545613
26.205186 -70.717209 4.668183
26.619309 -70.111592 7.0842
26.795358 -70.553116 8.260351
27.241717 -71.578609 11.903111
27.355631 -71.813072 13.121696
29.039682 -54.481127 38.172089
29.022168 -53.230969 39.251173
28.961978 -54.540407 39.479192
28.186915 -64.415453 16.31463
28.275352 -64.748487 17.542936
28.077849 -65.821522 16.451918
37.336906 2.186775 18.288101
37.139553 0.061917 18.484696
36.439443 -6.067771 19.170829
36.198487 -8.018712 19.33861
35.06666 -28.771389 10.521179
35.259426 -27.324921 11.599087
34.871832 -29.028517 11.648042
35.06666 -28.771389 10.521179
34.787882 -30.326217 9.396406
33.246189 -36.370703 4.928096
33.699966 -34.900717 6.08956
32.796867 -37.928568 4.963487
32.790512 -37.739384 3.770499
33.246189 -36.370703 4.928096
28.777209 -54.709957 42.014807
28.678882 -56.070959 42.237231
28.872701 -54.604302 40.762917
28.777209 -54.709957 42.014807
28.890215 -55.85446 39.683832
28.961978 -54.540407 39.479192
28.872701 -54.604302 40.762917
28.63047 -59.792841 39.130026
28.668444 -58.535612 40.161118
28.736833 -59.797844 37.777881
28.63047 -59.792841 39.130026
28.821827 -59.697106 36.524074
28.860078 -58.412945 37.661163
28.736833 -59.797844 37.777881
28.7754 -60.988833 35.422457
28.898646 -59.603933 35.305739
28.821827 -59.697106 36.524074
28.706073 -62.226917 34.323456
28.7754 -60.988833 35.422457
28.629254 -62.32009 35.541792
28.368725 -64.811493 34.56617
28.449628 -63.633091 35.769188
28.459378 -64.766559 33.362592
28.368725 -64.811493 34.56617
28.541567 -64.56209 32.139258
28.642115 -63.353704 33.219456
28.459378 -64.766559 33.362592
28.621833 -64.353117 30.880522
28.541567 -64.56209 32.139258
28.197662 -68.140133 28.599982
28.388189 -66.793937 28.564101
28.044685 -69.386669 27.482875
28.197662 -68.140133 28.599982
28.119415 -69.18544 26.24717
28.044685 -69.386669 27.482875
36.878146 5.575251 19.950134
36.597448 7.281244 20.794604
36.684664 3.413836 20.197985
37.111858 3.911596 19.144959
36.878146 5.575251 19.950134
36.019598 4.5836 21.976019
36.171093 6.690785 21.799284
35.73974 6.196893 22.772143
34.187033 2.541183 25.898859
34.405109 4.663747 25.650089
33.939386 4.055921 26.599123
24.403988 -40.839001 -20.432735
25.076238 -39.562141 -19.668743
24.917846 -41.145024 -19.462145
23.699509 -43.601469 -20.866751
24.141426 -43.946003 -19.920383
23.761941 -41.987694 -21.152479
23.699509 -43.601469 -20.866751
23.215854 -43.16728 -21.793094
23.920333 -40.404812 -21.359077
24.403988 -40.839001 -20.432735
23.761941 -41.987694 -21.152479
23.393511 -39.991581 -22.267496
23.920333 -40.404812 -21.359077
23.393511 -39.991581 -22.267496
22.741613 -41.237219 -22.953881
23.495382 -63.646849 -8.502948
23.612341 -64.244425 -7.820447
24.099894 -65.446872 -5.423094
24.295794 -65.968799 -4.554939
25.79384 -70.043892 2.428902
25.809146 -68.75188 2.483745
26.01576 -69.082043 3.546761
25.79384 -70.043892 2.428902
25.849738 -71.2994 2.431579
31.911125 -9.240998 29.163818
31.493378 -9.789894 30.056953
32.112603 -10.855258 28.43265
32.320286 -8.879009 28.281819
31.911125 -9.240998 29.163818
30.782677 -17.472635 30.564728
30.642705 -19.370944 30.675829
30.948749 -15.64996 30.452823
30.782677 -17.472635 30.564728
31.15627 -17.01191 29.671979
31.132167 -13.7865 30.270916
30.948749 -15.64996 30.452823
31.512892 -13.203242 29.437361
31.322717 -11.800506 30.148203
31.132167 -13.7865 30.270916
29.068713 -51.859602 38.872601
29.022168 -53.230969 39.251173
29.101194 -50.345202 38.678259
29.068713 -51.859602 38.872601
29.132355 -51.657288 37.749727
29.106063 -48.784136 38.488894
29.101194 -50.345202 38.678259
29.121488 -47.388786 38.173564
29.106063 -48.784136 38.488894
29.180262 -48.747537 37.240057
29.117338 -45.988889 37.833608
29.121488 -47.388786 38.173564
29.117359 -44.380586 37.565071
29.117338 -45.988889 37.833608
29.195709 -45.743885 36.656191
29.0941 -42.879329 37.357181
29.117359 -44.380586 37.565071
29.084676 -41.247025 37.164225
29.0941 -42.879329 37.357181
29.186306 -42.503277 36.194696
29.073883 -39.665259 36.779229
29.084676 -41.247025 37.164225
29.082429 -38.103521 36.475172
29.073883 -39.665259 36.779229
29.185428 -39.309235 35.697683
29.061442 -36.43026 36.257519
29.082429 -38.103521 36.475172
29.063917 -34.88277 36.100025
29.061442 -36.43026 36.257519
29.196449 -36.200008 35.236134
29.066683 -33.355835 35.820172
29.063917 -34.88277 36.100025
29.066683 -33.355835 35.820172
29.231116 -32.937211 34.813091
29.526111 -29.311132 33.27321
29.477691 -30.970903 33.50383
29.765127 -28.947551 32.317859
29.526111 -29.311132 33.27321
30.001579 -28.417825 31.390502
29.765127 -28.947551 32.317859
29.928525 -30.190176 31.532759
30.284992 -27.946988 30.444505
30.121595 -26.704363 31.229605
30.001579 -28.417825 31.390502
23.660809 -61.284172 -9.079311
23.927269 -60.622498 -8.385153
23.779518 -61.539174 -8.357589
23.596072 -60.97234 -9.597738
23.660809 -61.284172 -9.079311
28.487877 -40.642955 -12.060381
28.22146 -40.190382 -13.043872
28.776372 -40.908311 -11.055855
29.119864 -40.972623 -9.994369
28.138076 -42.117292 -11.868123
28.487877 -40.642955 -12.060381
28.776372 -40.908311 -11.055855
23.596072 -60.97234 -9.597738
23.493453 -60.829037 -10.258375
23.705942 -60.224193 -9.767511
3 342 341 85
3 0 89 87
3 0 91 89
3 1 343 345
3 343 92 344
3 343 344 345
3 2 346 348
3 348 347 93
3 346 347 348
3 3 97 95
3 3 99 97
3 3 101 99
3 2 104 102
3 2 93 104
3 4 108 106
3 4 110 108
3 5 349 351
3 351 350 111
3 349 350 351
3 6 352 354
3 354 353 113
3 352 353 354
3 7 116 114
3 9 119 117
3 9 121 119
3 9 123 121
3 6 355 357
3 355 125 356
3 355 356 357
3 6 113 125
3 11 358 360
3 360 359 127
3 358 359 360
3 12 130 128
3 12 132 130
3 361 134 362
3 13 137 135
3 13 139 137
3 364 363 140
3 14 365 367
3 367 366 142
3 365 366 367
3 15 145 143
3 15 147 145
3 8 150 148
3 16 153 151
3 16 155 153
3 16 157 155
3 17 160 158
3 17 162 160
3 17 164 162
3 18 167 165
3 18 169 167
3 10 172 170
3 19 175 173
3 19 177 175
3 19 179 177
3 14 182 180
3 14 142 182
3 21 368 370
3 370 369 184
3 368 369 370
3 21 371 373
3 371 185 372
3 371 372 373
3 21 187 185
3 20 190 188
3 20 192 190
3 22 374 376
3 376 375 193
3 374 375 376
3 378 377 195
3 23 379 381
3 379 197 380
3 379 380 381
3 382 198 383
3 384 383 86
3 382 383 384
3 385 199 386
3 387 386 198
3 385 386 387
3 389 388 199
3 390 195 391
3 25 202 201
3 26 392 394
3 394 393 88
3 392 393 394
3 26 395 396
3 26 397 399
3 397 203 398
3 397 398 399
3 28 204 90
3 28 205 204
3 30 400 401
3 30 402 404
3 402 207 403
3 402 403 404
3 31 209 208
3 406 405 94
3 407 210 408
3 32 213 211
3 34 214 96
3 34 215 214
3 34 217 215
3 36 218 98
3 36 219 218
3 36 221 219
3 38 222 100
3 38 223 222
3 39 226 224
3 41 227 103
3 41 228 227
3 41 230 228
3 31 231 105
3 31 208 231
3 43 409 410
3 44 232 107
3 44 233 232
3 44 235 233
3 46 236 109
3 46 237 236
3 47 240 238
3 412 411 112
3 414 413 194
3 49 415 417
3 417 416 241
3 415 416 417
3 50 245 243
3 52 246 115
3 52 247 246
3 24 248 196
3 53 249 118
3 53 250 249
3 53 251 250
3 54 252 120
3 54 253 252
3 54 255 253
3 56 256 122
3 56 257 256
3 418 258 419
3 420 419 200
3 418 419 420
3 57 259 124
3 57 260 259
3 57 261 260
3 49 262 126
3 49 241 262
3 58 421 422
3 27 423 424
3 59 425 427
3 427 426 129
3 425 426 427
3 59 428 429
3 59 430 432
3 430 263 431
3 430 431 432
3 60 264 131
3 60 265 264
3 433 266 434
3 435 267 436
3 437 436 266
3 435 436 437
3 438 268 439
3 440 269 441
3 61 270 133
3 61 271 270
3 29 272 206
3 62 273 136
3 62 274 273
3 62 275 274
3 63 276 138
3 63 277 276
3 48 278 239
3 442 279 443
3 444 443 141
3 442 443 444
3 445 280 446
3 447 446 279
3 445 446 447
3 448 281 449
3 451 450 281
3 64 452 453
3 455 454 242
3 456 282 457
3 65 283 144
3 65 284 283
3 65 285 284
3 66 286 146
3 66 287 286
3 51 288 244
3 67 289 149
3 67 290 289
3 33 291 212
3 68 292 152
3 68 293 292
3 68 294 293
3 69 295 154
3 69 458 460
3 460 459 295
3 458 459 460
3 69 461 463
3 461 296 462
3 461 462 463
3 70 297 156
3 70 298 297
3 35 299 216
3 71 300 159
3 71 301 300
3 71 302 301
3 72 303 161
3 72 304 303
3 72 305 304
3 73 306 163
3 73 307 306
3 37 308 220
3 74 309 166
3 74 310 309
3 74 311 310
3 75 312 168
3 75 313 312
3 55 314 254
3 76 315 171
3 76 316 315
3 40 317 225
3 77 318 174
3 77 319 318
3 77 320 319
3 78 321 176
3 78 322 321
3 78 323 322
3 79 324 178
3 79 325 324
3 42 326 229
3 80 327 181
3 80 328 327
3 80 329 328
3 64 330 183
3 64 464 466
3 466 465 330
3 464 465 466
3 82 467 468
3 82 469 471
3 469 332 470
3 469 470 471
3 82 333 332
3 83 334 186
3 83 335 334
3 45 336 234
3 84 337 189
3 84 338 337
3 84 339 338
3 81 340 191
3 81 331 340
3 85 472 474
3 474 473 22
3 472 473 474
3 476 475 85
3 477 86 478
3 479 478 23
3 477 478 479
3 480 86 481
3 483 482 86
3 87 88 25
3 89 88 87
3 89 26 88
3 89 90 26
3 91 90 89
3 91 28 90
3 92 484 485
3 92 486 488
3 486 30 487
3 486 487 488
3 93 94 31
3 489 94 490
3 491 490 93
3 489 490 491
3 493 492 94
3 95 96 32
3 97 96 95
3 97 34 96
3 97 98 34
3 99 98 97
3 99 36 98
3 99 100 36
3 101 100 99
3 101 38 100
3 102 103 39
3 104 103 102
3 104 41 103
3 104 105 41
3 93 105 104
3 93 31 105
3 106 107 43
3 108 107 106
3 108 44 107
3 108 109 44
3 110 109 108
3 110 46 109
3 111 112 47
3 494 112 495
3 496 495 111
3 494 495 496
3 498 497 112
3 113 499 501
3 501 500 49
3 499 500 501
3 503 502 113
3 114 115 50
3 116 115 114
3 116 52 115
3 117 118 24
3 119 118 117
3 119 53 118
3 119 120 53
3 121 120 119
3 121 54 120
3 121 122 54
3 123 122 121
3 123 56 122
3 504 124 505
3 125 506 508
3 506 124 507
3 506 507 508
3 125 57 124
3 125 126 57
3 113 126 125
3 113 49 126
3 127 509 511
3 511 510 58
3 509 510 511
3 513 512 127
3 128 129 27
3 130 129 128
3 130 59 129
3 130 131 59
3 132 131 130
3 132 60 131
3 514 133 515
3 134 516 518
3 516 133 517
3 516 517 518
3 134 61 133
3 135 136 29
3 137 136 135
3 137 62 136
3 137 138 62
3 139 138 137
3 139 63 138
3 140 519 520
3 522 521 140
3 523 141 524
3 525 524 48
3 523 524 525
3 526 141 527
3 529 528 141
3 142 530 532
3 532 531 64
3 530 531 532
3 534 533 142
3 143 535 537
3 535 144 536
3 535 536 537
3 145 144 143
3 145 65 144
3 145 146 65
3 147 146 145
3 147 66 146
3 148 149 51
3 150 149 148
3 150 67 149
3 151 152 33
3 153 152 151
3 153 68 152
3 153 154 68
3 155 154 153
3 155 69 154
3 155 156 69
3 157 156 155
3 157 70 156
3 158 159 35
3 160 159 158
3 160 71 159
3 160 161 71
3 162 161 160
3 162 72 161
3 162 163 72
3 164 163 162
3 164 73 163
3 165 166 37
3 167 166 165
3 167 74 166
3 167 168 74
3 169 168 167
3 169 75 168
3 170 171 55
3 172 171 170
3 172 76 171
3 173 174 40
3 175 174 173
3 175 77 174
3 175 176 77
3 177 176 175
3 177 78 176
3 177 178 78
3 179 178 177
3 179 79 178
3 180 181 42
3 182 181 180
3 182 80 181
3 182 183 80
3 142 183 182
3 142 64 183
3 184 538 539
3 541 540 184
3 185 542 543
3 185 544 546
3 544 82 545
3 544 545 546
3 185 186 82
3 187 186 185
3 187 83 186
3 188 189 45
3 190 189 188
3 190 84 189
3 190 191 84
3 192 191 190
3 192 81 191
3 193 194 5
3 547 194 548
3 549 548 193
3 547 548 549
3 551 550 194
3 553 552 22
3 195 554 556
3 556 555 6
3 554 555 556
3 558 557 195
3 559 196 560
3 561 560 7
3 559 560 561
3 197 562 564
3 562 196 563
3 562 563 564
3 197 24 196
3 86 197 23
3 198 197 86
3 198 24 197
3 198 117 24
3 199 117 198
3 199 9 117
3 199 200 9
3 565 200 566
3 567 566 199
3 565 566 567
3 569 568 200
3 195 570 571
3 195 572 574
3 572 6 573
3 572 573 574
3 201 575 577
3 577 576 11
3 575 576 577
3 202 578 580
3 580 579 201
3 578 579 580
3 202 581 582
3 88 202 25
3 583 202 584
3 585 584 88
3 583 584 585
3 587 586 202
3 203 588 589
3 203 590 592
3 590 27 591
3 590 591 592
3 90 203 26
3 204 203 90
3 204 27 203
3 204 128 27
3 205 128 204
3 205 12 128
3 593 206 594
3 595 206 596
3 597 29 598
3 599 598 206
3 597 598 599
3 600 29 601
3 602 135 603
3 604 603 29
3 602 603 604
3 605 135 606
3 607 13 608
3 609 608 135
3 607 608 609
3 610 140 611
3 207 612 614
3 612 140 613
3 612 613 614
3 207 615 617
3 617 616 140
3 615 616 617
3 208 618 620
3 620 619 14
3 618 619 620
3 209 621 623
3 623 622 208
3 621 622 623
3 209 624 625
3 94 209 31
3 626 209 627
3 628 627 94
3 626 627 628
3 630 629 209
3 631 143 632
3 210 633 635
3 633 143 634
3 633 634 635
3 210 15 143
3 211 212 8
3 213 212 211
3 213 33 212
3 96 213 32
3 214 213 96
3 214 33 213
3 214 151 33
3 215 151 214
3 215 16 151
3 215 216 16
3 217 216 215
3 217 35 216
3 98 217 34
3 218 217 98
3 218 35 217
3 218 158 35
3 219 158 218
3 219 17 158
3 219 220 17
3 221 220 219
3 221 37 220
3 100 221 36
3 222 221 100
3 222 37 221
3 222 165 37
3 223 165 222
3 223 18 165
3 224 225 10
3 226 225 224
3 226 40 225
3 103 226 39
3 227 226 103
3 227 40 226
3 227 173 40
3 228 173 227
3 228 19 173
3 228 229 19
3 230 229 228
3 230 42 229
3 105 230 41
3 231 230 105
3 231 42 230
3 231 180 42
3 208 180 231
3 208 14 180
3 107 636 638
3 638 637 43
3 636 637 638
3 232 639 641
3 641 640 107
3 639 640 641
3 232 642 643
3 232 644 646
3 644 184 645
3 644 645 646
3 233 184 232
3 233 21 184
3 233 234 21
3 235 234 233
3 235 45 234
3 109 235 44
3 236 235 109
3 236 45 235
3 236 188 45
3 237 188 236
3 237 20 188
3 238 239 1
3 240 239 238
3 240 48 239
3 112 240 47
3 647 240 648
3 649 648 112
3 647 648 649
3 650 48 651
3 652 651 240
3 650 651 652
3 654 653 48
3 194 655 657
3 657 656 5
3 655 656 657
3 659 658 194
3 241 242 2
3 660 242 661
3 662 661 241
3 660 661 662
3 664 663 242
3 666 665 49
3 668 667 6
3 243 669 671
3 669 244 670
3 669 670 671
3 245 244 243
3 245 51 244
3 115 245 50
3 246 245 115
3 246 51 245
3 246 148 51
3 247 148 246
3 247 8 148
3 196 116 7
3 248 116 196
3 248 52 116
3 118 248 24
3 249 248 118
3 249 52 248
3 249 247 52
3 250 247 249
3 250 8 247
3 250 211 8
3 251 211 250
3 251 32 211
3 120 251 53
3 252 251 120
3 252 32 251
3 252 95 32
3 253 95 252
3 253 3 95
3 253 254 3
3 255 254 253
3 255 55 254
3 122 255 54
3 256 255 122
3 256 55 255
3 256 170 55
3 257 170 256
3 257 10 170
3 200 123 9
3 258 123 200
3 258 56 123
3 124 672 674
3 672 258 673
3 672 673 674
3 259 258 124
3 259 56 258
3 259 257 56
3 260 257 259
3 260 10 257
3 260 224 10
3 261 224 260
3 261 39 224
3 126 261 57
3 262 261 126
3 262 39 261
3 262 102 39
3 241 102 262
3 241 2 102
3 676 675 58
3 678 677 11
3 129 679 681
3 681 680 27
3 679 680 681
3 683 682 129
3 263 684 685
3 263 686 688
3 686 43 687
3 686 687 688
3 131 263 59
3 264 263 131
3 264 43 263
3 264 106 43
3 265 106 264
3 265 4 106
3 266 689 690
3 266 691 692
3 266 693 695
3 693 243 694
3 693 694 695
3 267 243 266
3 267 50 243
3 696 267 697
3 698 267 699
3 700 50 701
3 702 701 267
3 700 701 702
3 703 114 704
3 705 704 50
3 703 704 705
3 268 706 708
3 706 114 707
3 706 707 708
3 268 7 114
3 709 268 710
3 711 268 712
3 713 7 714
3 715 714 268
3 713 714 715
3 717 716 7
3 718 23 719
3 720 23 721
3 723 722 23
3 269 724 725
3 269 726 728
3 726 58 727
3 726 727 728
3 133 729 731
3 729 269 730
3 729 730 731
3 270 269 133
3 270 58 269
3 270 127 58
3 271 127 270
3 271 11 127
3 206 732 734
3 732 134 733
3 732 733 734
3 272 134 206
3 272 61 134
3 136 272 29
3 273 272 136
3 273 61 272
3 273 271 61
3 274 271 273
3 274 11 271
3 274 201 11
3 275 201 274
3 275 25 201
3 138 275 62
3 276 275 138
3 276 25 275
3 276 87 25
3 277 87 276
3 277 0 87
3 239 92 1
3 278 92 239
3 278 30 92
3 141 278 48
3 279 278 141
3 279 30 278
3 279 207 30
3 280 207 279
3 280 735 737
3 737 736 207
3 735 736 737
3 738 280 739
3 281 740 742
3 740 280 741
3 740 741 742
3 281 743 745
3 745 744 280
3 743 744 745
3 281 746 747
3 749 748 281
3 751 750 64
3 753 752 14
3 242 754 756
3 756 755 2
3 754 755 756
3 758 757 242
3 282 759 760
3 282 761 763
3 761 13 762
3 761 762 763
3 144 764 765
3 283 766 768
3 768 767 144
3 766 767 768
3 283 769 770
3 283 771 773
3 771 282 772
3 771 772 773
3 284 282 283
3 284 13 282
3 284 139 13
3 285 139 284
3 285 63 139
3 146 285 65
3 286 285 146
3 286 63 285
3 286 277 63
3 287 277 286
3 287 0 277
3 244 774 775
3 288 776 778
3 778 777 244
3 776 777 778
3 288 779 780
3 149 288 51
3 289 288 149
3 289 781 783
3 783 782 288
3 781 782 783
3 289 784 785
3 290 786 788
3 788 787 289
3 786 787 788
3 290 789 790
3 212 150 8
3 291 150 212
3 291 67 150
3 152 291 33
3 292 291 152
3 292 67 291
3 292 290 67
3 293 290 292
3 293 791 793
3 793 792 290
3 791 792 793
3 293 794 795
3 294 796 798
3 798 797 293
3 796 797 798
3 294 799 800
3 154 294 68
3 295 294 154
3 295 801 803
3 803 802 294
3 801 802 803
3 295 804 805
3 807 806 295
3 296 808 809
3 296 810 811
3 156 296 69
3 297 296 156
3 297 812 814
3 814 813 296
3 812 813 814
3 297 815 817
3 815 210 816
3 815 816 817
3 298 210 297
3 298 15 210
3 216 157 16
3 299 157 216
3 299 70 157
3 159 299 35
3 300 299 159
3 300 70 299
3 300 298 70
3 301 298 300
3 301 15 298
3 301 147 15
3 302 147 301
3 302 66 147
3 161 302 71
3 303 302 161
3 303 66 302
3 303 287 66
3 304 287 303
3 304 0 287
3 304 91 0
3 305 91 304
3 305 28 91
3 163 305 72
3 306 305 163
3 306 28 305
3 306 205 28
3 307 205 306
3 307 12 205
3 220 164 17
3 308 164 220
3 308 73 164
3 166 308 37
3 309 308 166
3 309 73 308
3 309 307 73
3 310 307 309
3 310 12 307
3 310 132 12
3 311 132 310
3 311 60 132
3 168 311 74
3 312 311 168
3 312 60 311
3 312 265 60
3 313 265 312
3 313 4 265
3 254 101 3
3 314 101 254
3 314 38 101
3 171 314 55
3 315 314 171
3 315 38 314
3 315 223 38
3 316 223 315
3 316 18 223
3 225 172 10
3 317 172 225
3 317 76 172
3 174 317 40
3 318 317 174
3 318 76 317
3 318 316 76
3 319 316 318
3 319 18 316
3 319 169 18
3 320 169 319
3 320 75 169
3 176 320 77
3 321 320 176
3 321 75 320
3 321 313 75
3 322 313 321
3 322 4 313
3 322 110 4
3 323 110 322
3 323 46 110
3 178 323 78
3 324 323 178
3 324 46 323
3 324 237 46
3 325 237 324
3 325 20 237
3 229 179 19
3 326 179 229
3 326 79 179
3 181 326 42
3 327 326 181
3 327 79 326
3 327 325 79
3 328 325 327
3 328 20 325
3 328 192 20
3 329 192 328
3 329 81 192
3 183 329 80
3 330 329 183
3 330 81 329
3 330 331 81
3 818 331 819
3 820 819 330
3 818 819 820
3 822 821 331
3 823 1 824
3 332 825 826
3 332 827 829
3 827 1 828
3 827 828 829
3 332 238 1
3 333 238 332
3 333 47 238
3 186 333 82
3 334 333 186
3 334 47 333
3 334 111 47
3 335 111 334
3 335 5 111
3 234 187 21
3 336 187 234
3 336 83 187
3 189 336 45
3 337 336 189
3 337 83 336
3 337 335 83
3 338 335 337
3 338 5 335
3 338 193 5
3 339 193 338
3 339 22 193
3 191 339 84
3 340 339 191
3 340 22 339
3 340 85 22
3 331 85 340
3 331 830 832
3 832 831 85
3 830 831 832
