ply
format ascii 1.0
element vertex 1039
property float x
property float y
property float z
element face 1356
property list uchar int vertex_index
end_header
9.250692 -27.66485 69.416451
22.690538 11.117397 69.314201
2.444294 -10.801052 65.552353
7.851661 5.654583 65.354134
19.292721 -12.605178 72.749481
28.680504 -8.791149 47.526157
28.89456 -12.63067 65.377419
23.470007 -33.060814 69.955742
-2.250749 -3.484975 61.471619
5.963232 -3.793854 66.388016
10.853793 -37.379246 68.559677
3.291438 -33.605999 64.46637
27.720547 13.365429 65.822296
29.563591 0.713356 62.044571
27.179058 -0.824224 69.090874
15.050969 -20.887747 71.988647
22.335506 -22.68425 72.505722
17.015711 -30.723555 71.735626
18.231579 -40.954174 69.235191
6.450805 -18.903114 68.273613
0.930298 -24.648548 64.645668
-2.355528 -16.310614 63.068176
15.751755 8.327668 68.620911
21.644323 -1.933055 71.769615
13.982953 -2.896601 70.126259
11.039583 -11.911294 70.043503
-3.788702 -30.278872 58.639175
30.107933 15.855638 49.973476
29.407101 5.062095 45.154213
29.650637 2.034346 53.338844
29.247784 -11.238466 56.518913
28.558199 -23.56164 60.023567
25.601391 -12.920989 71.48719
27.062794 -23.812483 68.241486
27.063559 -34.268852 63.492409
24.060066 -43.365578 65.353676
10.018279 -32.296524 69.203278
7.034648 -35.581226 66.798195
6.194461 -30.772802 67.259232
25.472921 12.315516 68.185219
27.50609 6.196564 67.570625
25.259048 5.363174 69.702103
12.201186 -24.379021 70.932053
16.271194 -25.750792 72.141357
13.210488 -29.227009 70.964294
14.061083 -34.075321 70.521507
4.622661 -14.690897 67.109901
2.100766 -17.52976 65.845985
0.05856 -13.699946 64.465988
11.885159 6.938694 67.198387
15.028174 2.394298 69.561989
11.07889 1.465786 67.996078
4.451861 -7.56348 66.209076
8.66221 -7.739705 68.445587
6.779056 -11.593415 67.961555
8.897513 -15.57841 69.33287
-1.636421 -27.32695 61.932156
30.105503 15.379445 54.222839
29.861057 8.973483 51.656353
29.927902 8.334947 56.221424
29.327812 -6.156971 63.735912
29.590677 -5.739565 59.543068
29.317705 -12.261396 61.173195
28.980986 -17.54443 58.447803
28.908365 -18.127968 62.787304
20.649199 -7.584202 72.4786
23.989748 -7.180076 72.036552
22.699854 -12.544783 72.713852
22.977661 -27.907335 71.531151
25.064476 -23.441971 71.003448
25.451115 -28.699968 69.379601
27.087461 -29.049854 66.117683
25.666807 -33.993824 67.149429
25.768969 -38.886993 64.759315
23.686153 -38.414261 67.880417
15.37199 -44.299522 67.829086
0.06027 -7.053939 63.617439
-1.946435 -9.957125 62.864754
7.045488 0.672947 66.055687
3.094956 0.076779 63.934528
1.789581 -3.692847 63.988213
11.60846 -42.551586 67.283546
4.380248 -38.507881 63.845657
0.887597 -36.540356 61.186855
29.729336 7.547205 60.296513
28.962538 6.934903 64.410622
28.715515 0.05369 66.111794
28.350782 -6.81755 67.606606
17.345022 -16.932823 72.562141
21.078878 -17.430391 72.953262
18.773352 -21.720186 72.768845
19.800669 -26.83787 72.406815
20.39797 -32.041473 71.476814
20.951933 -37.31424 69.914566
17.602711 -35.632572 70.825378
14.540233 -39.155506 69.433479
8.003241 -23.092482 69.060722
4.984214 -26.03278 67.187477
3.637497 -21.690853 66.697556
-0.566206 -20.422434 64.097946
19.344622 9.728672 69.395401
22.207634 4.489697 70.679359
18.732954 3.292785 70.557571
17.997944 -2.46346 71.380989
16.879362 -7.535251 71.792435
9.924055 -3.521494 68.40757
12.733931 -7.7398 70.332153
15.335628 -12.29125 71.765808
13.204536 -16.29668 71.239189
10.701446 -19.774296 70.336578
2.286068 -29.100935 64.79628
-0.290123 -31.842184 61.736652
-2.431768 -34.686447 58.191589
30.059568 16.263596 46.045815
29.763445 10.142307 47.58297
29.48103 3.535767 49.03693
29.166908 -3.526078 50.342873
29.763292 1.239056 57.687588
29.449636 -4.726768 54.908833
28.93461 -10.385562 52.00592
28.708546 -16.821257 53.641556
28.479013 -22.892418 55.316704
28.192005 -28.864904 57.145351
24.733124 -1.184563 71.029083
26.542534 -6.946466 70.432327
27.744286 -12.651102 68.893806
24.254061 -18.000568 72.156342
26.678368 -18.336227 70.078804
28.222563 -18.34071 66.850853
28.179289 -23.762646 64.520493
27.930573 -29.172211 62.021481
27.776018 -34.278877 59.093758
27.095875 -39.093163 60.675316
26.033133 -43.894741 61.774796
21.347628 -42.243301 67.961082
9.657459 -29.92576 69.368813
8.094339 -31.601 68.282234
7.615064 -29.239046 68.366302
25.431469 8.812898 68.948959
24.090677 8.181285 69.646309
10.730081 -26.122356 70.230598
12.711747 -26.589966 71.013191
11.338125 -28.445066 70.312271
11.663272 -30.88213 70.16745
3.523782 -12.778301 66.359291
2.348571 -14.202653 65.826057
1.336809 -12.335898 65.093689
9.940904 6.297771 66.342186
11.439661 4.186077 67.591026
9.519076 3.67914 66.719673
3.398854 -9.14174 65.864243
5.569568 -9.497456 67.087578
4.585014 -11.074521 66.756699
5.790091 -13.18231 67.604675
30.012539 11.683975 55.084682
29.128117 -9.319344 64.648232
29.384657 -9.236359 62.428921
29.189291 -12.237556 63.411983
29.13912 -15.206285 61.972683
28.955048 -15.328976 64.166733
19.867859 -10.009491 72.6408
21.801165 -10.000766 72.684227
21.033497 -12.381139 72.85743
23.253036 -30.446123 70.825569
24.282211 -28.334387 70.641205
24.480156 -30.88887 69.778831
25.551821 -31.390188 68.345825
24.666958 -33.496426 68.730278
24.733261 -36.133259 67.648193
23.60623 -35.646805 68.991928
28.846087 -5.268698 46.908699
-1.019281 -5.204589 62.61063
-1.931712 -6.823499 62.368565
-1.369937 -2.036467 61.69112
0.514106 -2.009542 62.854801
-0.222705 -3.776819 62.794804
1.058146 -5.466472 63.912025
11.137199 -39.919727 67.969154
9.690183 -41.486115 66.679596
9.25404 -38.974094 67.265373
5.238328 -34.498486 65.785706
5.663373 -37.05777 65.39817
3.888308 -36.074852 64.246826
2.648253 -37.634529 62.557041
2.140936 -35.298855 62.917759
29.052813 10.772587 63.455238
28.445461 10.266507 65.178604
27.377195 2.521766 68.359169
28.191889 3.063789 66.956108
28.036869 -0.337223 67.726364
28.586016 -3.383439 66.805649
27.889746 -3.810384 68.368645
16.193802 -18.911995 72.30677
18.104029 -19.351418 72.731529
16.896738 -21.336185 72.471558
16.71133 -28.233364 72.009361
18.11401 -26.207205 72.406105
18.480324 -28.869686 72.13443
20.2057 -29.4296 72.003906
18.808329 -31.434774 71.739502
18.972761 -33.936562 71.218048
17.365141 -33.023335 71.380501
12.344261 -35.812584 69.577049
14.252918 -36.47707 70.065048
12.797435 -38.319321 69.131393
13.061337 -40.877033 68.45385
7.302739 -20.975733 68.736748
5.903917 -22.398846 67.969055
5.011898 -20.2104 67.518341
-0.055641 -17.077515 64.544807
0.716143 -18.99696 65.007751
-1.310424 -18.294603 63.722385
-2.603709 -19.647612 62.730942
-3.367976 -17.650076 62.337585
17.608143 9.039458 69.108253
19.127926 6.401266 70.047722
17.248848 5.873239 69.660851
14.607818 -0.347624 69.919891
16.621016 0.056258 70.566963
16.029633 -2.686808 70.844856
17.484495 -5.072274 71.643311
15.558297 -5.334354 71.093712
6.470577 -1.487953 66.20491
8.674168 -1.340434 67.356796
7.960166 -3.548171 67.41227
9.859939 -9.862311 69.293701
10.668325 -7.681362 69.407204
11.976232 -9.830252 70.249451
14.064541 -9.886056 71.104706
13.228187 -12.080179 70.981064
14.276166 -14.31411 71.536514
12.237405 -13.94528 70.720543
7.730459 -17.177382 68.856735
9.945724 -17.594973 69.926376
8.642591 -19.339022 69.380676
9.565445 -21.539623 69.8433
2.987437 -25.49345 65.96386
3.705869 -27.607056 66.135704
1.659659 -26.852983 64.794403
-2.792339 -28.65642 60.371159
-0.881011 -29.491747 61.954826
-2.084599 -30.885267 60.255394
-1.396242 -33.231064 60.058582
-3.092381 -32.459454 58.451965
30.079294 16.078079 47.838787
29.920576 13.487783 46.824772
29.947088 13.002459 48.779922
29.757698 5.616694 52.517643
29.689447 6.365846 50.326302
29.563942 2.799961 51.177032
29.313229 -0.071336 49.649319
29.424845 -0.728488 51.802879
29.646048 4.201982 61.202694
29.798052 4.364909 59.050331
29.7173 0.744221 59.926006
29.46316 -8.36112 58.042297
29.557728 -5.234995 57.257992
29.354431 -8.143294 55.796753
29.207113 -7.484741 53.401691
29.102806 -10.725699 54.179855
28.826504 -13.601125 52.860889
28.978006 -14.216537 55.086922
28.791769 -20.559006 59.186226
28.715899 -20.393837 56.829147
28.552031 -23.376419 57.726551
28.344521 -25.936296 56.275505
28.364847 -26.179329 58.687729
21.951944 1.056237 71.289299
23.517439 1.627723 70.99469
23.305161 -1.462186 71.525894
24.883528 -10.14043 71.866119
25.328949 -7.25319 71.415863
26.132841 -10.09233 71.001572
27.198412 -9.6612 69.813477
26.788277 -12.762494 70.355034
21.690453 -20.069305 72.819778
22.806263 -17.77911 72.701088
23.315916 -20.401039 72.395508
26.250999 -23.646353 69.672768
25.954441 -21.089293 70.541962
26.926394 -21.087172 69.233719
27.534742 -18.413157 68.646828
27.685003 -21.17975 67.606438
28.215271 -21.298014 65.780441
27.696852 -24.006117 66.503654
27.066669 -31.635185 64.899933
27.603485 -29.129402 64.126724
27.525721 -31.762981 62.85297
27.845558 -31.619434 60.625179
27.508293 -34.212402 61.320164
27.490269 -36.847427 59.774918
27.070208 -36.774841 62.043396
24.938717 -41.156399 65.179604
25.869675 -41.365993 63.360565
25.12878 -43.71851 63.683239
19.568209 -38.964138 69.741058
21.157667 -39.718491 69.01757
19.830875 -41.520363 68.786888
30.207218 18.894213 46.851044
10.418554 -34.84922 68.932266
8.922039 -36.50087 67.755219
8.626163 -34.012512 68.142784
6.717171 -33.125309 67.146507
4.72236 -32.134762 65.965744
26.683306 12.863054 67.1604
27.626442 9.843101 66.704567
26.533527 9.376626 68.043251
26.533001 5.814049 68.726257
26.344486 2.308637 69.490952
13.746856 -22.61878 71.550163
15.600353 -23.281176 72.104431
14.227066 -25.01852 71.630379
14.720747 -27.437532 71.618263
15.227751 -29.797535 71.511787
15.549167 -32.424999 71.202896
13.713937 -31.657307 70.823273
12.035583 -33.260529 69.952545
5.598297 -16.709829 67.747467
4.220347 -18.107895 67.059425
3.302582 -16.104002 66.477386
1.139028 -15.60587 65.219322
-1.035664 -15.101476 63.886333
13.807569 7.611693 67.963074
15.374896 5.358217 69.103958
13.460829 4.859229 68.402924
13.0355 2.062542 68.790901
12.583067 -0.577007 69.111008
5.253482 -5.782151 66.357864
7.343419 -5.646967 67.455864
6.557571 -7.613643 67.348808
7.632972 -9.61123 68.172386
8.90892 -11.649939 69.02771
10.092 -13.81781 69.77079
8.051865 -13.535487 68.778725
6.750036 -15.118504 68.247559
12.195436 9.705887 66.702698
-1.145104 -23.856407 63.215073
-0.443895 -26.003723 63.318314
-2.321599 -25.227522 61.92123
-3.424433 -26.41268 60.544487
30.125439 15.624858 52.090679
29.987438 12.552746 50.861332
30.016075 12.131033 52.893967
29.91444 8.648474 53.857796
29.825687 5.368667 54.663078
29.460503 -2.825285 62.919521
29.631668 -2.613153 60.879715
29.529549 -5.875524 61.693462
29.474335 -8.938545 60.296429
29.327578 -11.828459 58.816914
29.123278 -14.480131 57.450783
29.182106 -14.939495 59.792332
28.997969 -17.910778 60.631767
28.75428 -20.894814 61.435261
21.251268 -4.818614 72.174545
22.95018 -4.437128 71.998787
22.40135 -7.293698 72.396965
23.46328 -9.89025 72.40773
24.180847 -12.698327 72.285309
22.641756 -25.429808 72.08638
23.736511 -23.038511 71.948196
24.083059 -25.698977 71.336075
25.374023 -26.14506 70.156586
26.310808 -26.494184 68.813118
27.067125 -26.493649 67.277817
26.354404 -29.123198 67.83474
26.458313 -31.493044 66.657822
26.466431 -34.14962 65.415817
26.490282 -36.749908 64.06797
25.728992 -36.468384 65.963333
24.831472 -38.508743 66.521278
23.871548 -40.786049 66.707535
16.710608 -42.736744 68.593399
18.447296 -43.522812 68.257782
1.352684 -8.923396 64.678543
0.253382 -10.444942 64.251869
-0.784424 -8.702324 63.388729
-2.864041 -8.157091 62.022125
7.529129 3.188434 65.754799
5.593263 2.734803 64.769218
4.977787 0.409201 64.953499
4.45184 -1.810203 65.141571
2.450673 -1.888685 63.994942
3.890369 -3.859704 65.242897
3.074936 -5.708171 65.127022
2.221993 -7.311495 64.920609
7.503707 -38.003773 66.453568
6.11147 -39.445011 64.954758
4.792028 -40.978668 63.219917
3.105136 -39.948853 62.037819
29.497263 10.995356 61.557568
29.422398 7.497044 62.458935
29.351303 3.75398 63.26564
28.314718 6.449021 66.163132
28.840614 3.388529 65.32119
29.234322 0.45608 64.168228
29.108418 -2.935666 64.983864
28.946142 -6.309189 65.747055
28.725403 -9.588573 66.489494
18.285881 -14.746471 72.691429
20.180859 -14.867573 72.928116
19.303663 -17.233482 72.894867
19.982029 -19.794977 72.91465
20.543642 -22.314423 72.797508
17.504419 -23.688576 72.504318
19.338915 -24.213633 72.664932
21.07308 -24.732113 72.543159
21.418846 -27.382944 72.137962
21.854265 -30.031796 71.542015
22.080082 -32.540104 70.871613
22.227577 -35.102646 70.078606
20.769035 -34.595531 70.771851
19.322493 -36.400261 70.556793
17.792866 -38.323841 70.099922
15.923082 -34.897648 70.801674
16.049955 -37.384018 70.225945
16.419531 -40.045631 69.49633
15.039695 -41.631454 68.756134
13.603518 -43.427547 67.729187
8.677804 -25.296757 69.306206
7.177042 -26.845795 68.394928
6.485673 -24.693045 68.181412
4.411833 -23.868971 67.033417
2.227671 -23.229713 65.71701
2.889791 -19.544424 66.314796
1.540835 -20.955282 65.447517
0.250177 -22.475195 64.457634
-1.739019 -21.749323 63.11211
-0.792782 -11.798322 63.787647
-4.34127 -15.598263 61.715309
21.074097 10.437686 69.480988
22.520782 7.805233 70.018372
20.876232 7.115876 70.158897
20.564245 3.816364 70.759102
20.237543 0.663752 71.281036
16.930061 2.791883 70.160561
18.372118 0.337176 71.005463
19.866243 -2.072937 71.678642
19.376467 -4.864902 72.012825
18.811094 -7.432539 72.236404
18.125608 -9.930059 72.350517
9.036022 1.18344 67.01606
10.588119 -1.057313 68.268478
12.051579 -3.288756 69.370598
9.326697 -5.74034 68.48381
11.356806 -5.638577 69.436996
13.497211 -5.431718 70.334038
14.748004 -7.616358 71.109283
16.101231 -9.920837 71.812164
17.35972 -12.198913 72.349869
16.444334 -14.551216 72.247086
15.347382 -16.483055 72.003456
14.220463 -18.51755 71.689583
11.076714 -15.82787 70.341362
12.08147 -18.151983 70.869781
12.953919 -20.326439 71.265518
11.657907 -22.054146 70.761589
10.182471 -23.75736 70.091553
27.951077 -36.602882 55.152008
5.747869 -28.289658 67.377586
4.204246 -29.79439 66.084068
2.791122 -31.383696 64.644318
0.36775 -28.146624 63.464005
1.07404 -30.515877 63.425255
1.451851 -32.892982 63.053734
0.309535 -34.266041 61.471462
-0.826219 -35.644131 59.663769
30.050653 16.427753 44.452549
29.906857 13.831663 45.082832
29.750071 10.796534 45.802387
29.575989 7.292041 46.446918
29.816006 9.727766 49.610416
29.622766 6.823244 48.360561
29.413696 4.010958 47.119305
29.239594 0.757574 47.589909
29.078587 -2.599353 48.289074
28.928448 -6.058114 48.972286
29.875792 8.219736 58.278362
29.842733 4.741008 56.919456
29.735855 1.775765 55.51091
29.686588 -2.232908 58.672916
29.646524 -1.918414 56.452766
29.564186 -1.121575 54.194733
29.324244 -3.881054 52.636532
29.063845 -6.797381 51.248474
28.799728 -9.398879 49.73867
28.661047 -12.935065 50.48502
28.873386 -17.243586 56.134007
28.604496 -19.769905 54.464725
28.271669 -25.541103 53.951572
28.180723 -28.547768 54.906284
28.080204 -31.362169 55.747768
23.801466 4.790642 70.377632
25.081947 1.945163 70.388321
26.044743 -0.898916 70.208473
24.435202 -4.155879 71.545784
25.742682 -4.048245 70.831879
26.871109 -3.849356 69.803017
27.56139 -6.690241 69.144234
28.066465 -9.647926 68.310364
28.425491 -12.476512 67.252274
21.903086 -15.133343 72.890579
23.476479 -15.211223 72.562271
24.946852 -15.442904 71.888962
24.765293 -20.693413 71.625076
25.596386 -18.287954 71.245384
26.16905 -15.637705 70.923485
27.215023 -15.430889 69.624748
27.999527 -15.608029 68.053963
28.570753 -15.547496 66.250969
28.649145 -18.444084 64.894516
28.584133 -21.046339 63.684456
28.446772 -23.755289 62.288174
27.66507 -26.511042 65.375282
28.06369 -26.417294 63.297501
28.264477 -26.55039 61.039917
28.128592 -29.0252 59.619366
28.015436 -31.537476 58.182598
27.943745 -34.180363 56.756813
27.760424 -36.75037 57.603882
26.519604 -39.244465 62.724415
26.593912 -41.523724 61.352585
22.449047 -37.767563 69.063545
22.512407 -40.350483 68.047554
22.800034 -42.753662 66.84333
23.390608 9.649341 69.480255
24.09936 9.952037 69.272942
23.399291 11.420093 69.106887
22.760032 12.93496 68.896289
21.975231 12.45369 69.027614
23.399291 11.420093 69.106887
22.760032 12.93496 68.896289
8.071825 6.979095 65.151364
7.102532 6.636182 64.684658
8.896282 5.976177 65.84816
9.116446 7.30069 65.645389
8.071825 6.979095 65.151364
28.653256 -8.404514 46.486797
28.736047 -6.643289 46.178068
28.763295 -7.029924 47.217428
-2.611589 -4.222003 61.406883
-1.995855 -5.08181 61.976389
-1.635015 -4.344782 62.041124
28.083004 11.815968 65.50045
28.484101 12.032733 64.717579
28.121644 13.582194 65.039425
27.767912 15.161098 65.316047
27.274889 14.911126 65.995777
28.121644 13.582194 65.039425
27.767912 15.161098 65.316047
15.804434 9.878142 68.287048
14.895499 9.442217 68.004387
16.679949 8.683563 68.864582
16.732628 10.234037 68.53072
15.804434 9.878142 68.287048
24.133419 -44.628158 64.674227
24.667776 -44.804625 63.839008
24.594423 -43.542044 64.518457
30.165793 17.414832 49.40582
30.167454 17.418596 50.454664
30.093614 15.966859 48.906132
30.151474 17.526052 48.338476
30.165793 17.414832 49.40582
29.430026 5.573873 44.265676
29.503693 6.750901 44.902293
25.524785 14.069484 67.749401
24.8945 13.828685 68.097874
26.078114 12.589285 67.672809
26.129978 14.343253 67.236991
25.524785 14.069484 67.749401
12.040298 8.322291 66.950542
11.181438 9.356993 66.255612
11.026299 7.973396 66.503456
-2.714644 -24.183084 61.844856
-1.733351 -24.541964 62.568151
-2.126397 -23.497527 62.491777
-4.355868 -26.026553 59.753418
-3.821966 -25.354367 60.509092
-3.948817 -27.134929 59.7378
-4.355868 -26.026553 59.753418
16.245586 -44.789932 67.71479
16.914895 -44.008543 68.096947
16.041299 -43.518133 68.211242
30.151734 17.166073 53.597904
30.10629 17.133257 54.689191
30.115471 15.502152 53.156759
30.161703 17.28878 52.531824
30.151734 17.166073 53.597904
-3.405545 -7.228399 61.508642
-2.397876 -7.490295 62.195345
-2.93938 -6.561603 61.681862
-3.892849 -7.912228 61.318478
-3.405545 -7.228399 61.508642
4.758162 3.644645 64.062862
5.733292 3.90893 64.56916
4.036371 0.24299 64.444013
4.292839 1.331722 64.34026
3.351423 1.165511 63.830774
10.896722 -43.296795 66.622631
11.838216 -43.753772 66.907318
9.024424 -42.227629 65.965874
8.760105 -40.960138 66.277302
1.169598 -37.739869 60.963972
2.049926 -38.286955 61.649065
1.767925 -37.087443 61.871948
0.35593 -37.294878 60.23732
1.169598 -37.739869 60.963972
29.326072 12.597364 61.984372
29.542105 12.769516 61.007751
11.838216 -43.753772 66.907318
12.835745 -44.191753 67.130139
12.605989 -42.989566 67.506366
-3.187385 -20.368956 62.185761
-3.605918 -19.254939 62.021016
-5.360815 -15.225833 60.97855
-4.793514 -14.682361 61.387684
-4.895808 -16.225033 61.284306
-5.360815 -15.225833 60.97855
19.434407 11.401649 69.035911
18.522445 11.039925 68.889522
20.209359 10.083179 69.438195
20.299145 11.756156 69.078705
19.434407 11.401649 69.035911
27.978107 -37.763544 54.355002
27.874415 -37.844194 55.626972
-2.107744 -35.954706 57.946725
-1.30497 -36.433548 58.682816
-1.628993 -35.165289 58.927679
29.802564 7.88347 59.287437
29.82895 9.770943 58.921554
29.755722 9.434677 59.93063
28.631115 -16.467623 52.455199
28.690094 -14.857557 52.064865
28.767525 -15.211191 53.251222
28.57842 -18.113438 52.862341
28.631115 -16.467623 52.455199
28.421878 -22.719693 54.216642
28.484619 -21.158436 53.790653
28.541754 -21.331162 54.890715
28.375341 -24.21676 54.634138
28.318205 -24.044035 53.534076
28.421878 -22.719693 54.216642
27.297573 -39.233376 59.520342
27.49477 -38.110508 59.070143
27.293072 -37.970295 60.225117
27.112949 -40.378569 59.970274
27.297573 -39.233376 59.520342
26.388884 -43.965302 60.731203
26.669273 -42.779793 60.520098
26.313522 -42.709232 61.56369
26.120368 -45.144072 60.965429
26.388884 -43.965302 60.731203
19.281861 -43.787377 67.980278
18.640809 -44.797035 67.697354
30.128281 17.587201 45.558651
30.202106 18.90251 45.961265
30.133393 17.578905 46.44843
30.05511 16.345675 45.249182
30.123824 17.66928 44.762018
30.128281 17.587201 45.558651
24.769756 10.267844 68.924267
25.452195 10.564207 68.567089
24.790482 12.019153 68.542396
24.761073 8.497091 69.297634
24.769756 10.267844 68.924267
24.09936 9.952037 69.272942
24.790482 12.019153 68.542396
24.8945 13.828685 68.097874
10.054171 7.652935 66.075356
9.116446 7.30069 65.645389
10.913031 6.618232 66.770286
11.026299 7.973396 66.503456
10.054171 7.652935 66.075356
30.022587 13.407989 55.669622
30.059021 13.53171 54.653761
30.069069 15.255724 55.238701
29.983069 11.677703 56.193439
30.022587 13.407989 55.669622
29.94075 10.003189 56.76181
29.97022 10.009461 55.653053
29.983069 11.677703 56.193439
15.499333 -45.594513 67.296932
14.62933 -45.054519 67.336228
30.069069 15.255724 55.238701
30.10629 17.133257 54.689191
28.825739 -4.938394 45.858305
28.933021 -3.528244 46.570227
28.825739 -4.938394 45.858305
28.736047 -6.643289 46.178068
-2.452071 -5.891265 61.855356
-1.475497 -6.014044 62.489598
-1.995855 -5.08181 61.976389
-2.93938 -6.561603 61.681862
-2.452071 -5.891265 61.855356
2.411442 0.992443 63.30842
3.351423 1.165511 63.830774
-0.427916 -2.023004 62.27296
-0.113173 -1.117162 62.257694
-1.055194 -1.130624 61.675854
8.542033 -39.704128 66.57019
8.760105 -40.960138 66.277302
9.472112 -40.230104 66.972485
28.787777 12.285773 63.855896
29.103847 12.485979 62.933206
28.749137 10.519547 64.316921
28.787777 12.285773 63.855896
28.484101 12.032733 64.717579
-3.988051 -18.256172 61.824337
-3.605918 -19.254939 62.021016
-2.985842 -18.648844 62.534263
-2.413714 -10.579228 62.650242
-2.966489 -9.665069 62.180921
17.654205 10.695318 68.745948
16.732628 10.234037 68.53072
18.476382 9.384065 69.251827
18.522445 11.039925 68.889522
17.654205 10.695318 68.745948
25.233148 -44.908848 62.928789
25.685325 -44.996964 61.974568
25.580956 -43.806626 62.729017
25.233148 -44.908848 62.928789
24.667776 -44.804625 63.839008
30.215436 18.93412 47.844605
30.277868 20.519386 47.242272
30.143256 17.486146 47.344915
30.215436 18.93412 47.844605
30.151474 17.526052 48.338476
-3.146812 -3.32787 60.861435
-2.777883 -2.617738 60.9305
-1.956463 -1.150079 61.10577
-1.055194 -1.130624 61.675854
-2.337477 -1.893485 61.04025
-1.956463 -1.150079 61.10577
-2.777883 -2.617738 60.9305
-1.810343 -2.760721 61.581369
-2.337477 -1.893485 61.04025
26.756269 14.659938 66.664829
26.129978 14.343253 67.236991
27.201926 13.114242 66.491348
27.274889 14.911126 65.995777
26.756269 14.659938 66.664829
11.336872 10.794476 65.977356
11.181438 9.356993 66.255612
12.26346 11.303808 66.339257
11.336872 10.794476 65.977356
13.11734 10.131327 67.04528
12.26346 11.303808 66.339257
13.923407 9.08423 67.675468
13.11734 10.131327 67.04528
13.001503 8.65879 67.332886
14.779662 7.96968 68.291993
14.895499 9.442217 68.004387
13.923407 9.08423 67.675468
-3.270548 -24.761788 61.197464
-2.714644 -24.183084 61.844856
-2.873016 -25.820101 61.232858
-3.270548 -24.761788 61.197464
-3.821966 -25.354367 60.509092
-3.63277 -28.256799 59.651136
-3.108386 -27.53455 60.457823
-3.948817 -27.134929 59.7378
-4.130951 -29.068025 58.785145
-3.29052 -29.467646 59.505167
-3.63277 -28.256799 59.651136
17.783239 -44.401577 67.929138
17.578952 -43.129778 68.42559
16.914895 -44.008543 68.096947
18.640809 -44.797035 67.697354
17.783239 -44.401577 67.929138
16.245586 -44.789932 67.71479
15.499333 -45.594513 67.296932
30.176206 17.303206 51.513266
30.161703 17.28878 52.531824
30.116686 15.740248 51.032077
30.167454 17.418596 50.454664
30.176206 17.303206 51.513266
29.318195 3.809622 44.437132
29.308785 3.381108 45.372961
-3.425292 -8.765052 61.759607
-2.966489 -9.665069 62.180921
-2.405238 -9.057108 62.443439
-3.425292 -8.765052 61.759607
-3.892849 -7.912228 61.318478
-2.611589 -4.222003 61.406883
-3.146812 -3.32787 60.861435
6.701225 4.135746 65.06195
7.690395 4.421508 65.554467
6.862491 5.36882 64.861618
6.561196 2.961619 65.262009
6.701225 4.135746 65.06195
5.733292 3.90893 64.56916
4.600576 2.494523 64.248119
4.758162 3.644645 64.062862
5.285525 1.572002 64.861358
4.600576 2.494523 64.248119
4.292839 1.331722 64.34026
2.126049 0.002031 63.369537
2.411442 0.992443 63.30842
0.835624 -1.041129 62.829673
-0.113173 -1.117162 62.257694
1.803907 -0.9807 63.399744
0.835624 -1.041129 62.829673
1.48239 -1.949114 63.424872
2.772814 -0.905953 63.964735
2.126049 0.002031 63.369537
1.803907 -0.9807 63.399744
6.862491 5.36882 64.861618
7.102532 6.636182 64.684658
6.113362 6.350419 64.192142
9.937584 -42.76406 66.320656
10.896722 -43.296795 66.622631
10.649321 -42.01885 66.981571
9.937584 -42.76406 66.320656
9.024424 -42.227629 65.965874
7.666867 -39.218968 66.164288
8.542033 -39.704128 66.57019
8.378874 -38.488934 66.859471
6.970748 -39.939587 65.414883
7.666867 -39.218968 66.164288
6.807588 -38.724392 65.704163
6.334065 -40.708011 64.637032
6.970748 -39.939587 65.414883
5.674343 -41.47484 63.769611
6.334065 -40.708011 64.637032
5.451749 -40.211839 64.087338
5.096369 -42.262064 62.899389
5.674343 -41.47484 63.769611
4.257991 -41.733738 62.335938
5.096369 -42.262064 62.899389
3.414544 -41.21883 61.744889
4.257991 -41.733738 62.335938
3.948582 -40.46376 62.628868
2.537698 -40.692118 61.054561
3.414544 -41.21883 61.744889
2.278367 -39.444117 61.389454
2.876695 -38.791691 62.29743
2.049926 -38.286955 61.649065
2.537698 -40.692118 61.054561
2.278367 -39.444117 61.389454
29.639685 11.158753 60.561158
29.542105 12.769516 61.007751
29.6133 9.27128 60.927041
29.755722 9.434677 59.93063
29.639685 11.158753 60.561158
29.275038 10.883971 62.506403
29.326072 12.597364 61.984372
29.103847 12.485979 62.933206
13.745094 -44.618532 67.286278
14.62933 -45.054519 67.336228
14.487754 -43.863535 67.779136
13.745094 -44.618532 67.286278
12.835745 -44.191753 67.130139
28.577909 -10.025934 46.826448
28.609122 -10.490045 47.88224
-2.423354 -22.443985 62.440296
-2.126397 -23.497527 62.491777
-1.442061 -22.802865 63.163591
-2.755041 -21.419812 62.376345
-2.171364 -20.698467 62.921526
-3.187385 -20.368956 62.185761
-2.423354 -22.443985 62.440296
-2.755041 -21.419812 62.376345
-1.836887 -11.499827 63.111688
-1.369609 -10.877724 63.3262
-2.413714 -10.579228 62.650242
-1.394738 -12.443473 63.478687
-1.836887 -11.499827 63.111688
-0.969067 -13.394286 63.817858
-0.367111 -12.749134 64.126818
-1.394738 -12.443473 63.478687
-1.516179 -14.09505 63.52803
-0.488552 -14.400711 64.17616
-0.969067 -13.394286 63.817858
-2.080986 -14.707823 63.203552
-1.516179 -14.09505 63.52803
-2.740918 -15.312392 62.794474
-1.695596 -15.706045 63.477255
-2.080986 -14.707823 63.203552
-3.733789 -14.956217 62.11804
-4.793514 -14.682361 61.387684
-3.348399 -15.954439 62.391742
-2.740918 -15.312392 62.794474
-3.733789 -14.956217 62.11804
-4.409161 -17.25094 61.595444
-3.854623 -16.62417 62.026447
-4.895808 -16.225033 61.284306
-3.988051 -18.256172 61.824337
-4.409161 -17.25094 61.595444
21.16701 12.113834 69.111008
20.299145 11.756156 69.078705
21.882317 10.777541 69.397594
21.975231 12.45369 69.027614
21.16701 12.113834 69.111008
28.009292 -36.376446 53.90455
27.994488 -35.173811 54.75379
28.009292 -36.376446 53.90455
27.978107 -37.763544 54.355002
-0.500978 -36.846766 59.475777
0.35593 -37.294878 60.23732
0.030689 -36.092244 60.425312
-0.500978 -36.846766 59.475777
-1.30497 -36.433548 58.682816
-4.627868 -29.729557 57.917007
-4.130951 -29.068025 58.785145
-4.310888 -30.896121 57.708962
-4.627868 -29.729557 57.917007
-3.962728 -31.986412 57.615357
-3.440542 -31.369163 58.54557
-4.310888 -30.896121 57.708962
-3.609409 -33.144333 57.45239
-3.962728 -31.986412 57.615357
-3.279103 -34.257829 57.322203
-2.762074 -33.572951 58.321777
-3.609409 -33.144333 57.45239
-2.854888 -35.449272 57.226049
-3.279103 -34.257829 57.322203
-2.107744 -35.954706 57.946725
-2.854888 -35.449272 57.226049
29.991525 15.402247 44.015451
30.056611 16.490519 43.823875
29.919626 14.104202 44.330593
29.991525 15.402247 44.015451
29.978755 15.129708 44.767691
29.836088 12.62449 44.594805
29.919626 14.104202 44.330593
29.757695 11.106925 44.954582
29.836088 12.62449 44.594805
29.828464 12.314099 45.44261
29.675178 9.618121 45.22638
29.757695 11.106925 44.954582
29.588137 7.865875 45.548645
29.675178 9.618121 45.22638
29.66303 9.044287 46.124652
29.491545 6.177068 45.800565
29.503693 6.750901 44.902293
29.588137 7.865875 45.548645
29.312083 2.85554 46.355507
29.308785 3.381108 45.372961
29.410398 4.536526 46.136759
29.225032 1.228848 46.590809
29.312083 2.85554 46.355507
29.326645 2.384266 47.354607
29.129774 -0.515108 46.910832
29.225032 1.228848 46.590809
29.049271 -2.193572 47.260414
29.129774 -0.515108 46.910832
29.15909 -0.920889 47.939492
28.962337 -3.934025 47.598886
28.933021 -3.528244 46.570227
29.049271 -2.193572 47.260414
29.914695 9.945584 57.790279
29.82895 9.770943 58.921554
29.901847 8.277341 57.249893
29.94075 10.003189 56.76181
29.914695 9.945584 57.790279
28.668734 -10.79391 48.988496
28.609122 -10.490045 47.88224
28.740116 -9.095014 48.632413
28.599394 -12.562003 49.361671
28.668734 -10.79391 48.988496
28.730387 -11.166972 50.111845
28.535826 -14.207418 49.671337
28.599394 -12.562003 49.361671
28.607366 -14.524527 50.876931
28.743775 -13.268095 51.672955
28.690094 -14.857557 52.064865
28.535826 -14.207418 49.671337
28.607366 -14.524527 50.876931
28.526395 -19.587762 53.273926
28.57842 -18.113438 52.862341
28.656521 -18.295581 54.05314
28.526395 -19.587762 53.273926
28.484619 -21.158436 53.790653
28.224448 -25.299341 52.790763
28.318205 -24.044035 53.534076
28.201291 -26.745847 53.229622
28.15407 -26.504086 52.068813
28.224448 -25.299341 52.790763
28.155818 -28.24918 53.706978
28.201291 -26.745847 53.229622
28.226196 -27.044435 54.428928
28.13393 -29.77559 54.118257
28.155818 -28.24918 53.706978
28.08367 -31.182791 54.539
28.13393 -29.77559 54.118257
28.130463 -29.954968 55.327026
28.059051 -32.553455 55.05167
28.08367 -31.182791 54.539
27.990822 -33.962552 55.556193
28.059051 -32.553455 55.05167
28.011975 -32.771266 56.252291
27.947411 -35.391622 55.954411
27.994488 -35.173811 54.75379
27.990822 -33.962552 55.556193
27.779088 -37.917938 56.852909
27.874415 -37.844194 55.626972
27.85575 -36.676626 56.377945
27.629848 -38.061979 57.984625
27.625346 -36.798898 58.6894
27.49477 -38.110508 59.070143
27.779088 -37.917938 56.852909
27.629848 -38.061979 57.984625
26.861967 -41.59385 60.308909
27.112949 -40.378569 59.970274
26.844893 -40.308443 61.01395
26.861967 -41.59385 60.308909
26.669273 -42.779793 60.520098
26.120368 -45.144072 60.965429
25.685325 -44.996964 61.974568
19.97365 -42.786152 68.244831
19.139086 -42.521588 68.522335
19.281861 -43.787377 67.980278
20.732027 -43.147621 67.831928
20.589251 -41.881832 68.373985
19.97365 -42.786152 68.244831
21.50535 -43.545244 67.324654
20.732027 -43.147621 67.831928
22.231552 -43.800424 66.765777
22.073831 -42.498481 67.402206
21.50535 -43.545244 67.324654
22.943624 -44.04754 66.145504
22.231552 -43.800424 66.765777
23.57364 -44.353499 65.400677
23.43005 -43.05962 66.098503
22.943624 -44.04754 66.145504
24.133419 -44.628158 64.674227
23.57364 -44.353499 65.400677
30.275863 20.372135 46.318959
30.277868 20.519386 47.242272
30.275863 20.372135 46.318959
30.202106 18.90251 45.961265
30.119205 17.546854 43.995203
30.123824 17.66928 44.762018
30.056611 16.490519 43.823875
30.119205 17.546854 43.995203
29.430026 5.573873 44.265676
29.318195 3.809622 44.437132
28.653256 -8.404514 46.486797
28.577909 -10.025934 46.826448
3 0 137 135
3 1 525 527
3 525 139 526
3 525 526 527
3 0 142 140
3 0 135 142
3 1 528 529
3 1 530 531
3 2 146 144
3 3 149 147
3 2 152 150
3 2 144 152
3 3 532 533
3 3 534 536
3 534 147 535
3 534 535 536
3 6 157 155
3 6 159 157
3 4 162 160
3 7 165 163
3 7 167 165
3 7 169 167
3 5 537 539
3 539 538 170
3 537 538 539
3 8 540 542
3 542 541 171
3 540 541 542
3 8 175 173
3 8 171 175
3 10 179 177
3 11 182 180
3 11 184 182
3 12 543 545
3 543 186 544
3 543 544 545
3 14 189 187
3 14 191 189
3 15 194 192
3 17 197 195
3 17 199 197
3 17 201 199
3 10 204 202
3 10 177 204
3 12 546 547
3 12 548 549
3 19 208 206
3 21 211 209
3 21 213 211
3 22 216 214
3 24 219 217
3 24 221 219
3 9 224 222
3 25 227 225
3 25 229 227
3 25 231 229
3 19 234 232
3 19 206 234
3 22 550 551
3 22 552 554
3 552 214 553
3 552 553 554
3 20 238 236
3 26 241 239
3 26 243 241
3 27 246 244
3 29 249 247
3 29 251 249
3 13 254 252
3 30 257 255
3 30 259 257
3 30 261 259
3 31 264 262
3 31 266 264
3 23 269 267
3 32 272 270
3 32 274 272
3 16 277 275
3 33 280 278
3 33 282 280
3 33 284 282
3 34 287 285
3 34 289 287
3 34 291 289
3 35 294 292
3 35 555 557
3 557 556 294
3 555 556 557
3 18 297 295
3 27 558 559
3 27 560 562
3 560 244 561
3 560 561 562
3 28 563 564
3 36 301 299
3 38 302 136
3 38 303 302
3 39 306 304
3 41 307 138
3 41 308 307
3 42 311 309
3 44 312 141
3 44 313 312
3 44 315 313
3 36 316 143
3 36 299 316
3 39 565 566
3 39 567 569
3 567 304 568
3 567 568 569
3 46 319 317
3 48 320 145
3 48 321 320
3 49 324 322
3 51 325 148
3 51 326 325
3 52 329 327
3 54 330 151
3 54 331 330
3 54 333 331
3 46 334 153
3 46 317 334
3 49 570 572
3 570 335 571
3 570 571 572
3 49 322 335
3 573 338 574
3 575 574 336
3 573 574 575
3 576 339 577
3 579 578 339
3 57 342 340
3 59 343 154
3 59 344 343
3 60 347 345
3 62 348 156
3 62 349 348
3 62 351 349
3 64 352 158
3 64 353 352
3 65 356 354
3 67 357 161
3 67 358 357
3 68 361 359
3 70 362 164
3 70 363 362
3 70 365 363
3 72 366 166
3 72 367 366
3 72 369 367
3 74 370 168
3 74 371 370
3 75 580 582
3 582 581 372
3 580 581 582
3 57 583 584
3 57 585 587
3 585 340 586
3 585 586 587
3 76 376 374
3 588 377 589
3 590 589 172
3 588 589 590
3 592 591 377
3 593 379 594
3 79 595 597
3 595 380 596
3 595 596 597
3 79 381 380
3 80 382 174
3 80 383 382
3 80 384 383
3 76 385 176
3 76 374 385
3 81 598 599
3 601 600 178
3 37 386 300
3 82 387 181
3 82 388 387
3 82 389 388
3 83 602 604
3 604 603 183
3 602 603 604
3 83 605 606
3 607 390 608
3 85 391 185
3 85 392 391
3 40 393 305
3 86 394 188
3 86 395 394
3 86 396 395
3 87 397 190
3 87 398 397
3 88 401 399
3 90 402 193
3 90 403 402
3 43 404 310
3 91 405 196
3 91 406 405
3 91 407 406
3 92 408 198
3 92 409 408
3 92 411 409
3 94 412 200
3 94 413 412
3 45 414 314
3 95 415 203
3 95 416 415
3 95 417 416
3 81 418 205
3 81 609 611
3 611 610 418
3 609 610 611
3 96 421 419
3 98 422 207
3 98 423 422
3 47 424 318
3 99 425 210
3 99 426 425
3 99 427 426
3 613 612 212
3 77 428 375
3 614 429 615
3 617 616 429
3 100 432 430
3 102 433 215
3 102 434 433
3 50 435 323
3 103 436 218
3 103 437 436
3 103 438 437
3 104 439 220
3 104 440 439
3 78 441 378
3 105 442 223
3 105 443 442
3 53 444 328
3 106 445 226
3 106 446 445
3 106 447 446
3 107 448 228
3 107 449 448
3 107 450 449
3 108 451 230
3 108 452 451
3 55 453 332
3 109 454 233
3 109 455 454
3 109 456 455
3 96 457 235
3 96 419 457
3 100 618 619
3 100 620 622
3 620 430 621
3 620 621 622
3 624 623 458
3 97 459 420
3 110 460 237
3 110 461 460
3 56 462 337
3 111 463 240
3 111 464 463
3 111 465 464
3 112 466 242
3 112 625 627
3 627 626 466
3 625 626 627
3 113 468 467
3 114 469 245
3 114 470 469
3 58 471 341
3 115 472 248
3 115 473 472
3 115 474 473
3 116 475 250
3 116 476 475
3 84 628 630
3 628 477 629
3 628 629 630
3 117 478 253
3 117 479 478
3 61 480 346
3 118 481 256
3 118 482 481
3 118 483 482
3 119 484 258
3 119 485 484
3 119 486 485
3 120 631 633
3 633 632 260
3 631 632 633
3 120 634 635
3 63 487 350
3 121 488 263
3 121 636 638
3 638 637 488
3 636 637 638
3 121 639 641
3 639 489 640
3 639 640 641
3 122 490 265
3 122 491 490
3 101 492 431
3 123 493 268
3 123 494 493
3 66 495 355
3 124 496 271
3 124 497 496
3 124 498 497
3 125 499 273
3 125 500 499
3 89 501 400
3 126 502 276
3 126 503 502
3 69 504 360
3 127 505 279
3 127 506 505
3 127 507 506
3 128 508 281
3 128 509 508
3 128 510 509
3 129 511 283
3 129 512 511
3 71 513 364
3 130 514 286
3 130 515 514
3 130 516 515
3 131 517 288
3 131 518 517
3 131 519 518
3 132 642 644
3 644 643 290
3 642 643 644
3 132 645 646
3 73 520 368
3 133 521 293
3 133 647 649
3 649 648 521
3 647 648 649
3 133 650 651
3 93 522 410
3 134 523 296
3 134 524 523
3 653 652 373
3 113 654 656
3 656 655 298
3 654 655 656
3 113 657 659
3 657 467 658
3 657 658 659
3 135 136 36
3 137 136 135
3 137 38 136
3 660 138 661
3 662 661 39
3 660 661 662
3 139 663 665
3 663 138 664
3 663 664 665
3 139 41 138
3 140 141 42
3 142 141 140
3 142 44 141
3 142 143 44
3 135 143 142
3 135 36 143
3 666 39 667
3 144 145 46
3 146 145 144
3 146 48 145
3 147 148 49
3 149 148 147
3 149 51 148
3 150 151 52
3 152 151 150
3 152 54 151
3 152 153 54
3 144 153 152
3 144 46 153
3 147 668 669
3 147 670 672
3 670 49 671
3 670 671 672
3 673 154 674
3 675 674 57
3 673 674 675
3 676 154 677
3 678 59 679
3 680 679 154
3 678 679 680
3 155 156 60
3 157 156 155
3 157 62 156
3 157 158 62
3 159 158 157
3 159 64 158
3 160 161 65
3 162 161 160
3 162 67 161
3 163 164 68
3 165 164 163
3 165 70 164
3 165 166 70
3 167 166 165
3 167 72 166
3 167 168 72
3 169 168 167
3 169 74 168
3 682 681 75
3 683 57 684
3 170 685 686
3 688 687 170
3 171 172 76
3 689 172 690
3 691 690 171
3 689 690 691
3 693 692 172
3 694 79 695
3 173 696 698
3 696 174 697
3 696 697 698
3 175 174 173
3 175 80 174
3 175 176 80
3 171 176 175
3 171 76 176
3 177 178 81
3 179 178 177
3 179 699 701
3 701 700 178
3 699 700 701
3 180 181 37
3 182 181 180
3 182 82 181
3 182 183 82
3 184 183 182
3 184 83 183
3 702 185 703
3 186 704 706
3 704 185 705
3 704 705 706
3 186 85 185
3 187 188 40
3 189 188 187
3 189 86 188
3 189 190 86
3 191 190 189
3 191 87 190
3 192 193 88
3 194 193 192
3 194 90 193
3 195 196 43
3 197 196 195
3 197 91 196
3 197 198 91
3 199 198 197
3 199 92 198
3 199 200 92
3 201 200 199
3 201 94 200
3 202 203 45
3 204 203 202
3 204 95 203
3 204 205 95
3 177 205 204
3 177 81 205
3 206 207 96
3 208 207 206
3 208 98 207
3 209 210 47
3 211 210 209
3 211 99 210
3 211 212 99
3 213 212 211
3 213 707 709
3 709 708 212
3 707 708 709
3 711 710 77
3 214 215 100
3 216 215 214
3 216 102 215
3 217 218 50
3 219 218 217
3 219 103 218
3 219 220 103
3 221 220 219
3 221 104 220
3 222 223 78
3 224 223 222
3 224 105 223
3 225 226 53
3 227 226 225
3 227 106 226
3 227 228 106
3 229 228 227
3 229 107 228
3 229 230 107
3 231 230 229
3 231 108 230
3 232 233 55
3 234 233 232
3 234 109 233
3 234 235 109
3 206 235 234
3 206 96 235
3 214 712 713
3 214 714 716
3 714 100 715
3 714 715 716
3 236 237 97
3 238 237 236
3 238 110 237
3 239 240 56
3 241 240 239
3 241 111 240
3 241 242 111
3 243 242 241
3 243 112 242
3 244 245 113
3 246 245 244
3 246 114 245
3 247 248 58
3 249 248 247
3 249 115 248
3 249 250 115
3 251 250 249
3 251 116 250
3 252 253 84
3 254 253 252
3 254 117 253
3 255 256 61
3 257 256 255
3 257 118 256
3 257 258 118
3 259 258 257
3 259 119 258
3 259 260 119
3 261 260 259
3 261 120 260
3 262 263 63
3 264 263 262
3 264 121 263
3 264 265 121
3 266 265 264
3 266 122 265
3 267 268 101
3 269 268 267
3 269 123 268
3 270 271 66
3 272 271 270
3 272 124 271
3 272 273 124
3 274 273 272
3 274 125 273
3 275 276 89
3 277 276 275
3 277 126 276
3 278 279 69
3 280 279 278
3 280 127 279
3 280 281 127
3 282 281 280
3 282 128 281
3 282 283 128
3 284 283 282
3 284 129 283
3 285 286 71
3 287 286 285
3 287 130 286
3 287 288 130
3 289 288 287
3 289 131 288
3 289 290 131
3 291 290 289
3 291 132 290
3 292 293 73
3 294 293 292
3 294 133 293
3 294 717 719
3 719 718 133
3 717 718 719
3 721 720 294
3 295 296 93
3 297 296 295
3 297 134 296
3 722 298 723
3 244 724 726
3 724 298 725
3 724 725 726
3 244 113 298
3 728 727 8
3 729 173 730
3 731 173 732
3 733 8 734
3 735 734 173
3 733 734 735
3 299 300 10
3 301 300 299
3 301 37 300
3 136 301 36
3 302 301 136
3 302 37 301
3 302 180 37
3 303 180 302
3 303 11 180
3 304 305 12
3 306 305 304
3 306 40 305
3 138 306 39
3 307 306 138
3 307 40 306
3 307 187 40
3 308 187 307
3 308 14 187
3 309 310 15
3 311 310 309
3 311 43 310
3 141 311 42
3 312 311 141
3 312 43 311
3 312 195 43
3 313 195 312
3 313 17 195
3 313 314 17
3 315 314 313
3 315 45 314
3 143 315 44
3 316 315 143
3 316 45 315
3 316 202 45
3 299 202 316
3 299 10 202
3 304 736 737
3 304 738 740
3 738 12 739
3 738 739 740
3 317 318 19
3 319 318 317
3 319 47 318
3 145 319 46
3 320 319 145
3 320 47 319
3 320 209 47
3 321 209 320
3 321 21 209
3 322 323 22
3 324 323 322
3 324 50 323
3 148 324 49
3 325 324 148
3 325 50 324
3 325 217 50
3 326 217 325
3 326 24 217
3 327 328 9
3 329 328 327
3 329 53 328
3 151 329 52
3 330 329 151
3 330 53 329
3 330 225 53
3 331 225 330
3 331 25 225
3 331 332 25
3 333 332 331
3 333 55 332
3 153 333 54
3 334 333 153
3 334 55 333
3 334 232 55
3 317 232 334
3 317 19 232
3 335 741 742
3 335 743 744
3 335 745 746
3 322 747 749
3 749 748 335
3 747 748 749
3 322 750 752
3 750 22 751
3 750 751 752
3 336 337 20
3 338 337 336
3 338 56 337
3 753 338 754
3 339 755 757
3 755 338 756
3 755 756 757
3 339 56 338
3 339 239 56
3 758 239 759
3 760 759 339
3 758 759 760
3 761 26 762
3 763 762 239
3 761 762 763
3 340 341 27
3 342 341 340
3 342 58 341
3 154 342 57
3 343 342 154
3 343 58 342
3 343 247 58
3 344 247 343
3 344 29 247
3 345 346 13
3 347 346 345
3 347 61 346
3 156 347 60
3 348 347 156
3 348 61 347
3 348 255 61
3 349 255 348
3 349 30 255
3 349 350 30
3 351 350 349
3 351 63 350
3 158 351 62
3 352 351 158
3 352 63 351
3 352 262 63
3 353 262 352
3 353 31 262
3 354 355 23
3 356 355 354
3 356 66 355
3 161 356 65
3 357 356 161
3 357 66 356
3 357 270 66
3 358 270 357
3 358 32 270
3 359 360 16
3 361 360 359
3 361 69 360
3 164 361 68
3 362 361 164
3 362 69 361
3 362 278 69
3 363 278 362
3 363 33 278
3 363 364 33
3 365 364 363
3 365 71 364
3 166 365 70
3 366 365 166
3 366 71 365
3 366 285 71
3 367 285 366
3 367 34 285
3 367 368 34
3 369 368 367
3 369 73 368
3 168 369 72
3 370 369 168
3 370 73 369
3 370 292 73
3 371 292 370
3 371 35 292
3 372 373 18
3 764 373 765
3 766 765 372
3 764 765 766
3 768 767 373
3 770 769 75
3 340 771 772
3 340 773 775
3 773 27 774
3 773 774 775
3 777 776 28
3 374 375 2
3 376 375 374
3 376 77 375
3 172 376 76
3 377 376 172
3 377 77 376
3 377 778 780
3 780 779 77
3 778 779 780
3 782 781 377
3 784 783 8
3 785 378 786
3 787 786 3
3 785 786 787
3 379 788 790
3 788 378 789
3 788 789 790
3 379 78 378
3 791 379 792
3 380 793 795
3 793 379 794
3 793 794 795
3 380 78 379
3 380 222 78
3 381 222 380
3 381 9 222
3 796 79 797
3 174 798 799
3 382 800 802
3 802 801 174
3 800 801 802
3 382 803 805
3 803 79 804
3 803 804 805
3 382 381 79
3 383 381 382
3 383 9 381
3 383 327 9
3 384 327 383
3 384 52 327
3 176 384 80
3 385 384 176
3 385 52 384
3 385 150 52
3 374 150 385
3 374 2 150
3 806 3 807
3 806 807 808
3 178 809 811
3 811 810 81
3 809 810 811
3 813 812 178
3 300 179 10
3 386 179 300
3 386 814 816
3 816 815 179
3 814 815 816
3 181 386 37
3 387 386 181
3 387 817 819
3 819 818 386
3 817 818 819
3 387 820 821
3 388 822 824
3 824 823 387
3 822 823 824
3 388 825 826
3 388 827 828
3 389 829 831
3 831 830 388
3 829 830 831
3 389 832 833
3 183 389 82
3 834 389 835
3 836 835 183
3 834 835 836
3 838 837 389
3 390 839 840
3 390 841 843
3 841 84 842
3 841 842 843
3 185 844 846
3 844 390 845
3 844 845 846
3 391 390 185
3 391 84 390
3 391 252 84
3 392 252 391
3 392 13 252
3 305 186 12
3 393 186 305
3 393 85 186
3 188 393 40
3 394 393 188
3 394 85 393
3 394 392 85
3 395 392 394
3 395 13 392
3 395 345 13
3 396 345 395
3 396 60 345
3 190 396 86
3 397 396 190
3 397 60 396
3 397 155 60
3 398 155 397
3 398 6 155
3 399 400 4
3 401 400 399
3 401 89 400
3 193 401 88
3 402 401 193
3 402 89 401
3 402 275 89
3 403 275 402
3 403 16 275
3 310 194 15
3 404 194 310
3 404 90 194
3 196 404 43
3 405 404 196
3 405 90 404
3 405 403 90
3 406 403 405
3 406 16 403
3 406 359 16
3 407 359 406
3 407 68 359
3 198 407 91
3 408 407 198
3 408 68 407
3 408 163 68
3 409 163 408
3 409 7 163
3 409 410 7
3 411 410 409
3 411 93 410
3 200 411 92
3 412 411 200
3 412 93 411
3 412 295 93
3 413 295 412
3 413 18 295
3 314 201 17
3 414 201 314
3 414 94 201
3 203 414 45
3 415 414 203
3 415 94 414
3 415 413 94
3 416 413 415
3 416 18 413
3 416 372 18
3 417 372 416
3 417 75 372
3 205 417 95
3 418 417 205
3 418 75 417
3 418 847 849
3 849 848 75
3 847 848 849
3 851 850 418
3 853 852 5
3 419 420 0
3 421 420 419
3 421 97 420
3 207 421 96
3 422 421 207
3 422 97 421
3 422 236 97
3 423 236 422
3 423 20 236
3 318 208 19
3 424 208 318
3 424 98 208
3 210 424 47
3 425 424 210
3 425 98 424
3 425 423 98
3 426 423 425
3 426 20 423
3 426 336 20
3 427 336 426
3 427 854 856
3 856 855 336
3 854 855 856
3 212 427 99
3 857 427 858
3 859 858 212
3 857 858 859
3 861 860 427
3 375 146 2
3 428 146 375
3 428 48 146
3 862 428 863
3 864 863 77
3 862 863 864
3 865 428 866
3 867 48 868
3 869 868 428
3 867 868 869
3 870 321 871
3 872 871 48
3 870 871 872
3 873 321 874
3 875 21 876
3 877 876 321
3 875 876 877
3 429 878 879
3 429 880 882
3 880 21 881
3 880 881 882
3 429 213 21
3 883 213 884
3 885 884 429
3 883 884 885
3 887 886 213
3 430 431 1
3 432 431 430
3 432 101 431
3 215 432 100
3 433 432 215
3 433 101 432
3 433 267 101
3 434 267 433
3 434 23 267
3 323 216 22
3 435 216 323
3 435 102 216
3 218 435 50
3 436 435 218
3 436 102 435
3 436 434 102
3 437 434 436
3 437 23 434
3 437 354 23
3 438 354 437
3 438 65 354
3 220 438 103
3 439 438 220
3 439 65 438
3 439 160 65
3 440 160 439
3 440 4 160
3 378 149 3
3 441 149 378
3 441 51 149
3 223 441 78
3 442 441 223
3 442 51 441
3 442 326 51
3 443 326 442
3 443 24 326
3 328 224 9
3 444 224 328
3 444 105 224
3 226 444 53
3 445 444 226
3 445 105 444
3 445 443 105
3 446 443 445
3 446 24 443
3 446 221 24
3 447 221 446
3 447 104 221
3 228 447 106
3 448 447 228
3 448 104 447
3 448 440 104
3 449 440 448
3 449 4 440
3 449 399 4
3 450 399 449
3 450 88 399
3 230 450 107
3 451 450 230
3 451 88 450
3 451 192 88
3 452 192 451
3 452 15 192
3 332 231 25
3 453 231 332
3 453 108 231
3 233 453 55
3 454 453 233
3 454 108 453
3 454 452 108
3 455 452 454
3 455 15 452
3 455 309 15
3 456 309 455
3 456 42 309
3 235 456 109
3 457 456 235
3 457 42 456
3 457 140 42
3 419 140 457
3 419 0 140
3 430 888 889
3 430 890 892
3 890 1 891
3 890 891 892
3 458 893 894
3 896 895 458
3 420 137 0
3 459 137 420
3 459 38 137
3 237 459 97
3 460 459 237
3 460 38 459
3 460 303 38
3 461 303 460
3 461 11 303
3 337 238 20
3 462 238 337
3 462 110 238
3 240 462 56
3 463 462 240
3 463 110 462
3 463 461 110
3 464 461 463
3 464 11 461
3 464 184 11
3 465 184 464
3 465 83 184
3 242 465 111
3 466 465 242
3 466 83 465
3 466 897 899
3 899 898 83
3 897 898 899
3 901 900 466
3 902 26 903
3 904 26 905
3 906 243 907
3 908 907 26
3 906 907 908
3 909 243 910
3 911 112 912
3 913 912 243
3 911 912 913
3 914 112 915
3 917 916 112
3 467 918 919
3 468 920 922
3 922 921 467
3 920 921 922
3 468 923 924
3 245 468 113
3 469 468 245
3 469 925 927
3 927 926 468
3 925 926 927
3 469 928 929
3 470 930 932
3 932 931 469
3 930 931 932
3 470 933 935
3 933 28 934
3 933 934 935
3 341 246 27
3 471 246 341
3 471 114 246
3 248 471 58
3 472 471 248
3 472 114 471
3 472 470 114
3 473 470 472
3 473 28 470
3 473 936 938
3 938 937 28
3 936 937 938
3 474 939 941
3 941 940 473
3 939 940 941
3 474 942 943
3 250 474 115
3 475 474 250
3 475 944 946
3 946 945 474
3 944 945 946
3 475 947 949
3 947 170 948
3 947 948 949
3 476 170 475
3 476 5 170
3 477 950 951
3 477 952 954
3 952 59 953
3 952 953 954
3 253 477 84
3 478 477 253
3 478 59 477
3 478 344 59
3 479 344 478
3 479 29 344
3 346 254 13
3 480 254 346
3 480 117 254
3 256 480 61
3 481 480 256
3 481 117 480
3 481 479 117
3 482 479 481
3 482 29 479
3 482 251 29
3 483 251 482
3 483 116 251
3 258 483 118
3 484 483 258
3 484 116 483
3 484 476 116
3 485 476 484
3 485 5 476
3 485 955 957
3 957 956 5
3 955 956 957
3 486 958 960
3 960 959 485
3 958 959 960
3 486 961 962
3 260 486 119
3 963 486 964
3 965 964 260
3 963 964 965
3 967 966 486
3 350 261 30
3 487 261 350
3 487 120 261
3 263 487 63
3 488 487 263
3 488 120 487
3 488 968 970
3 970 969 120
3 968 969 970
3 972 971 488
3 489 973 974
3 489 975 977
3 975 976 977
3 265 489 121
3 490 489 265
3 490 978 980
3 980 979 489
3 978 979 980
3 490 981 982
3 491 983 985
3 985 984 490
3 983 984 985
3 491 986 987
3 431 139 1
3 492 139 431
3 492 41 139
3 268 492 101
3 493 492 268
3 493 41 492
3 493 308 41
3 494 308 493
3 494 14 308
3 355 269 23
3 495 269 355
3 495 123 269
3 271 495 66
3 496 495 271
3 496 123 495
3 496 494 123
3 497 494 496
3 497 14 494
3 497 191 14
3 498 191 497
3 498 87 191
3 273 498 124
3 499 498 273
3 499 87 498
3 499 398 87
3 500 398 499
3 500 6 398
3 400 162 4
3 501 162 400
3 501 67 162
3 276 501 89
3 502 501 276
3 502 67 501
3 502 358 67
3 503 358 502
3 503 32 358
3 360 277 16
3 504 277 360
3 504 126 277
3 279 504 69
3 505 504 279
3 505 126 504
3 505 503 126
3 506 503 505
3 506 32 503
3 506 274 32
3 507 274 506
3 507 125 274
3 281 507 127
3 508 507 281
3 508 125 507
3 508 500 125
3 509 500 508
3 509 6 500
3 509 159 6
3 510 159 509
3 510 64 159
3 283 510 128
3 511 510 283
3 511 64 510
3 511 353 64
3 512 353 511
3 512 31 353
3 364 284 33
3 513 284 364
3 513 129 284
3 286 513 71
3 514 513 286
3 514 129 513
3 514 512 129
3 515 512 514
3 515 31 512
3 515 266 31
3 516 266 515
3 516 122 266
3 288 516 130
3 517 516 288
3 517 122 516
3 517 491 122
3 518 491 517
3 518 988 990
3 990 989 491
3 988 989 990
3 518 991 993
3 991 458 992
3 991 992 993
3 519 458 518
3 519 994 996
3 996 995 458
3 994 995 996
3 290 519 131
3 997 519 998
3 999 998 290
3 997 998 999
3 1001 1000 519
3 368 291 34
3 520 291 368
3 520 132 291
3 293 520 73
3 521 520 293
3 521 132 520
3 521 1002 1004
3 1004 1003 132
3 1002 1003 1004
3 1006 1005 521
3 1008 1007 133
3 410 169 7
3 522 169 410
3 522 74 169
3 296 522 93
3 523 522 296
3 523 74 522
3 523 371 74
3 524 371 523
3 524 35 371
3 373 297 18
3 1009 297 1010
3 1011 1010 373
3 1009 1010 1011
3 1012 134 1013
3 1014 1013 297
3 1012 1013 1014
3 1015 134 1016
3 1017 524 1018
3 1019 1018 134
3 1017 1018 1019
3 1020 524 1021
3 1022 35 1023
3 1024 1023 524
3 1022 1023 1024
3 1026 1025 35
3 298 1027 1028
3 1030 1029 298
3 467 1031 1032
3 467 1033 1034
3 1036 1035 28
3 1038 1037 5
