ply
format ascii 1.0
element vertex 426
property float x
property float y
property float z
element face 443
property list uchar int vertex_index
end_header
-35.786701 -43.277035 20.051643
-27.498064 -47.885513 30.29166
-30.96493 -50.367477 23.137405
-32.757977 -42.375534 28.029186
-21.196325 -52.287697 32.073872
-14.825514 -55.848644 33.822205
-19.077785 -61.389969 28.371344
-36.693016 -35.222507 24.837915
-28.20936 -43.878731 31.664782
-30.291883 -45.397324 29.220285
-30.707226 -41.432194 30.731134
-25.23004 -45.711269 32.558182
-33.551647 -46.972687 21.595568
-32.145267 -50.410793 18.576178
-15.939365 -50.7673 34.92934
-23.308544 -54.558453 29.548283
-20.126123 -56.923706 30.483059
-22.235357 -58.789383 27.332396
-26.513111 -52.16663 28.325857
-28.17454 -53.396786 24.637085
-29.420673 -49.510765 27.131546
-32.107094 -46.42466 25.912924
-34.482925 -43.067539 24.457907
-24.334984 -50.248634 31.220142
-13.911208 -60.684147 32.128437
-17.890717 -54.048119 33.031868
-16.974771 -58.923752 31.387299
-32.690239 -38.19949 29.835768
-34.890442 -38.908554 26.624008
-36.413857 -39.539013 22.797838
-37.494442 -39.451233 18.311321
-29.551363 -42.691601 31.206131
-27.261431 -42.697975 32.576801
-34.753021 -45.046638 20.928299
-34.173851 -46.818802 19.351665
-35.265038 -45.003941 18.606007
-36.244583 -43.209984 17.636999
-24.241158 -55.521526 27.958008
-22.725975 -56.73867 28.520321
-23.686008 -57.488506 26.804346
-27.03356 -49.989273 29.407742
-28.005367 -50.767578 27.816273
-28.591608 -48.704792 28.79409
-31.536337 -43.92926 28.693848
-31.307096 -45.878563 27.65309
-32.557396 -44.376144 26.975971
-33.340916 -44.921761 25.066978
-33.727291 -42.717842 26.29192
-26.411894 -46.923309 31.492367
-24.835108 -47.893116 31.958988
-25.871124 -49.148529 30.79014
-25.509115 -51.27594 29.864683
-29.586998 -51.942795 23.874224
-28.873425 -53.701134 22.493481
-30.222784 -52.156998 21.75004
-12.785734 -59.180256 33.409298
-14.314528 -58.346203 33.05088
-20.125067 -50.628571 33.180809
-18.445591 -51.570343 33.615547
-19.489279 -53.124996 32.602512
-19.6595 -59.106167 29.499714
-18.536673 -57.80389 31.037886
-18.136675 -60.184608 29.939917
-16.514666 -61.275574 30.349148
-17.44417 -62.547665 28.86231
-18.542589 -63.581551 27.079575
-31.494761 -37.887096 31.036245
-32.451077 -36.114876 30.545197
-34.840565 -36.803482 27.577749
-35.861469 -37.064003 25.74671
-35.790569 -39.068115 24.778715
-36.652409 -37.400921 23.788774
-37.761372 -37.560452 19.675318
-38.090542 -37.556763 17.475328
-37.771633 -39.441525 15.943411
-38.293022 -37.481583 15.08565
-27.931589 -45.814461 31.02319
-29.018129 -46.645287 29.724621
-29.307438 -44.638161 30.549328
-30.535831 -43.444454 30.03973
-31.688835 -42.029385 29.524349
-24.138798 -44.408466 33.388691
-25.726215 -43.60017 32.989567
-26.746969 -44.800026 32.143242
-32.275539 -48.731438 22.383272
-31.652178 -50.392567 20.923384
-32.923763 -48.687984 20.127474
-33.453213 -48.494339 17.914227
-15.400354 -53.448757 34.383572
-22.351713 -53.551758 30.825649
-20.622156 -54.558571 31.392689
-21.692345 -55.779167 30.035757
-21.216099 -58.013325 28.9611
-20.655094 -60.201393 27.816689
-21.571001 -60.981438 26.039742
-25.848656 -54.178249 27.318857
-26.739391 -54.741879 25.419029
-27.415785 -52.770145 26.675549
-28.824266 -51.546597 25.892311
-30.297014 -49.952011 25.234255
-30.001656 -47.347626 28.213957
-30.792917 -47.973888 26.582865
-31.658291 -48.338352 24.566601
-32.881954 -46.809315 23.819277
-34.057716 -45.097519 23.131559
-35.190575 -43.269474 22.313223
-21.615477 -49.846867 32.780281
-23.751066 -46.606728 32.912914
-23.2271 -48.916718 32.366318
-22.739782 -51.215931 31.699047
-23.853319 -52.34296 30.465805
-24.852428 -53.401371 29.010521
-27.394007 -55.235683 23.393894
-17.415871 -49.982533 34.50964
-16.82782 -52.448673 34.054981
-16.415596 -54.962234 33.398216
-18.974909 -55.524914 31.884245
-17.496641 -56.421791 32.283669
-15.913081 -57.434673 32.657425
-15.442316 -59.939644 31.717793
-14.874017 -62.18961 30.776848
-31.763634 -39.974598 30.245968
-32.874542 -40.253483 28.927032
-33.692806 -36.409054 29.199005
-33.852825 -38.48991 28.369801
-33.83519 -40.678631 27.419706
-34.778965 -40.954025 25.613325
-35.520947 -41.271748 23.662544
-36.143528 -41.502403 21.502798
-37.410004 -35.347927 22.920059
-37.276829 -37.456566 21.859495
-37.020397 -39.547985 20.63674
-36.665131 -41.47554 19.282349
-37.057003 -41.382206 16.926514
-38.40387 -37.147011 12.740726
-24.427364 -56.870802 26.439842
-23.963583 -56.505016 27.381177
-24.704939 -55.887312 27.016673
-24.068007 -57.876751 25.794003
-24.427364 -56.870802 26.439842
-14.085908 -56.183508 34.046585
-14.362785 -54.939366 34.359789
-14.570021 -57.097424 33.436543
-13.830415 -57.432288 33.660923
-14.085908 -56.183508 34.046585
-32.270615 -35.065503 30.865613
-31.800092 -36.001021 31.102435
-36.277242 -36.143255 25.292313
-35.820198 -35.991932 26.228825
-36.235972 -35.071184 25.774428
-38.308956 -36.631458 16.939841
-38.213789 -36.550457 18.065043
-38.410196 -36.593868 15.745002
-38.191782 -37.519173 16.280489
-38.308956 -36.631458 16.939841
-25.954389 -42.552314 33.163156
-25.203721 -42.876323 33.363495
-34.031954 -47.611565 17.40422
-33.813532 -47.656571 18.632946
-34.392273 -46.773796 18.122939
-33.630629 -48.447834 16.632431
-34.031954 -47.611565 17.40422
-15.185142 -51.198542 35.154823
-15.460833 -49.897308 35.375045
-15.66986 -52.108029 34.656456
-14.915636 -52.539271 34.881939
-15.185142 -51.198542 35.154823
-21.878542 -48.688883 33.034699
-21.085592 -49.081742 33.237593
-28.521155 -54.491936 21.817736
-29.191485 -53.728688 21.36946
-31.488025 -51.247377 19.081081
-31.241481 -51.238264 20.254684
-31.898722 -50.40168 19.749781
-13.077511 -61.178507 32.272987
-12.514774 -60.426561 32.913418
-13.348471 -59.932202 32.768867
-13.580482 -61.912394 31.603663
-13.077511 -61.178507 32.272987
-18.202295 -49.528284 34.310274
-17.649021 -48.751251 34.722577
-15.362403 -62.95047 29.980055
-15.694342 -61.732592 30.562998
-16.182727 -62.493452 29.766205
-14.604489 -63.412016 30.138958
-15.362403 -62.95047 29.980055
-34.192711 -35.50703 28.798347
-33.56492 -35.365244 29.55292
-37.68853 -35.44128 21.836717
-37.724894 -34.333303 22.431284
-37.621943 -36.4956 21.306435
-37.343417 -36.402247 22.389777
-37.68853 -35.44128 21.836717
-37.561374 -40.291422 15.223412
-37.868749 -39.329731 14.71585
-38.507979 -36.110884 12.229537
-38.52224 -36.262072 13.439608
-29.031783 -42.328789 31.67973
-28.880361 -43.285166 31.435457
-28.360782 -42.922354 31.909055
-29.550991 -41.78805 31.511784
-29.031783 -42.328789 31.67973
-30.128923 -41.158347 31.274286
-30.129295 -42.061898 30.968632
-29.550991 -41.78805 31.511784
-27.442546 -41.787679 32.733816
-26.721998 -42.101217 32.956773
-27.886817 -42.331976 32.365065
-27.442546 -41.787679 32.733816
-28.360782 -42.922354 31.909055
-27.735396 -43.288353 32.120792
-27.886817 -42.331976 32.365065
-34.937866 -45.866366 17.75011
-34.392273 -46.773796 18.122939
-34.719444 -45.911372 18.978836
-35.451601 -44.967867 17.345661
-34.937866 -45.866366 17.75011
-35.941374 -44.070888 16.861157
-35.451601 -44.967867 17.345661
-35.75481 -44.106962 18.121503
-36.415611 -43.123178 16.393785
-35.941374 -44.070888 16.861157
-16.186774 -49.477684 35.150909
-15.460833 -49.897308 35.375045
-23.384003 -58.512169 26.129988
-22.658678 -59.162607 26.394013
-22.960683 -58.138945 27.068371
-23.384003 -58.512169 26.129988
-24.068007 -57.876751 25.794003
-29.866164 -52.95662 20.99774
-29.191485 -53.728688 21.36946
-29.548105 -52.929066 22.121761
-31.753708 -51.178368 17.779261
-32.390533 -50.287183 17.363636
-13.066018 -57.849314 33.840132
-12.308388 -58.275486 34.036951
-13.550131 -58.76323 33.230089
-13.066018 -57.849314 33.840132
-13.830415 -57.432288 33.660923
-19.285329 -51.099457 33.398178
-18.717156 -50.32219 33.863228
-19.556894 -49.851304 33.645859
-16.647479 -63.129497 29.022786
-16.182727 -62.493452 29.766205
-16.979418 -61.91162 29.605729
-17.203119 -63.651388 28.201253
-16.647479 -63.129497 29.022786
-17.752329 -64.168331 27.309886
-17.203119 -63.651388 28.201253
-17.993379 -63.064608 27.970942
-18.245755 -64.702351 26.339883
-17.752329 -64.168331 27.309886
-31.321934 -36.88713 31.34796
-30.838861 -37.735157 31.558183
-31.972919 -37.000986 30.790721
-31.321934 -36.88713 31.34796
-31.800092 -36.001021 31.102435
-35.309746 -35.861671 27.144345
-34.76659 -35.704245 27.98772
-35.235771 -34.762434 27.554316
-35.351017 -36.933743 26.66223
-35.309746 -35.861671 27.144345
-35.820198 -35.991932 26.228825
-38.049204 -36.552301 19.165038
-37.864214 -36.547543 20.214346
-37.925957 -37.558607 18.575323
-38.049204 -36.552301 19.165038
-38.213789 -36.550457 18.065043
-38.129444 -38.34976 14.286969
-37.868749 -39.329731 14.71585
-38.032328 -38.461554 15.51453
-24.410013 -43.280471 33.563057
-23.658064 -43.570066 33.754942
-24.932507 -44.004318 33.189129
-24.410013 -43.280471 33.563057
-25.203721 -42.876323 33.363495
-26.493823 -43.149073 32.783184
-25.954389 -42.552314 33.163156
-26.721998 -42.101217 32.956773
-33.044506 -49.328956 17.03266
-32.390533 -50.287183 17.363636
-32.79924 -49.452566 18.245202
-33.044506 -49.328956 17.03266
-33.630629 -48.447834 16.632431
-14.650205 -53.739422 34.640473
-14.915636 -52.539271 34.881939
-15.112934 -54.648701 34.102888
-14.362785 -54.939366 34.359789
-14.650205 -53.739422 34.640473
-20.360389 -61.256758 27.208098
-19.571735 -61.851045 27.485425
-19.866439 -60.795681 28.094017
-20.818343 -61.64678 26.319624
-20.360389 -61.256758 27.208098
-21.113048 -60.591415 26.928216
-21.266843 -62.023466 25.322037
-20.514185 -62.688809 25.601919
-20.818343 -61.64678 26.319624
-22.3265 -60.258634 25.747687
-21.903179 -59.88541 26.686069
-22.658678 -59.162607 26.394013
-21.97006 -61.286545 25.073761
-22.3265 -60.258634 25.747687
-21.266843 -62.023466 25.322037
-21.97006 -61.286545 25.073761
-36.635643 -34.143367 25.339599
-36.235972 -35.071184 25.774428
-26.294024 -54.460064 26.368943
-25.954056 -55.497489 25.747183
-25.508688 -55.215674 26.697097
-20.340387 -49.472594 33.437857
-19.556894 -49.851304 33.645859
-20.870272 -50.237719 32.980545
-20.340387 -49.472594 33.437857
-21.085592 -49.081742 33.237593
-23.389674 -44.808839 33.559229
-23.658064 -43.570066 33.754942
-23.195808 -45.90797 33.321341
-23.389674 -44.808839 33.559229
-23.944932 -45.507597 33.150802
-22.946337 -47.068813 33.101015
-23.195808 -45.90797 33.321341
-22.684354 -48.223809 32.827717
-22.946337 -47.068813 33.101015
-23.489083 -47.761723 32.639616
-22.421288 -49.381793 32.5733
-21.878542 -48.688883 33.034699
-22.684354 -48.223809 32.827717
-25.508688 -55.215674 26.697097
-24.704939 -55.887312 27.016673
-25.044907 -54.849888 27.638433
-26.351079 -55.746981 24.735406
-25.954056 -55.497489 25.747183
-26.678387 -55.993883 23.722839
-26.351079 -55.746981 24.735406
-27.066699 -54.988781 24.406461
-27.074324 -56.090312 22.601664
-26.678387 -55.993883 23.722839
-27.781447 -55.259211 22.267943
-28.133716 -54.468409 22.943687
-28.521155 -54.491936 21.817736
-27.074324 -56.090312 22.601664
-27.781447 -55.259211 22.267943
-30.526784 -52.12048 20.668012
-30.937481 -51.274783 21.336712
-31.241481 -51.238264 20.254684
-29.866164 -52.95662 20.99774
-30.526784 -52.12048 20.668012
-31.488025 -51.247377 19.081081
-31.753708 -51.178368 17.779261
-12.017208 -59.511206 33.619283
-11.539862 -58.606436 34.246936
-12.308388 -58.275486 34.036951
-12.017208 -59.511206 33.619283
-12.514774 -60.426561 32.913418
-16.925027 -49.085301 34.941059
-17.649021 -48.751251 34.722577
-16.677618 -50.374916 34.71949
-16.186774 -49.477684 35.150909
-16.925027 -49.085301 34.941059
-17.930731 -50.776438 34.062593
-18.202295 -49.528284 34.310274
-18.717156 -50.32219 33.863228
-14.061886 -62.665125 30.927869
-13.580482 -61.912394 31.603663
-14.392613 -61.436879 31.452642
-14.061886 -62.665125 30.927869
-14.604489 -63.412016 30.138958
-19.304137 -62.946837 26.83954
-18.810187 -62.48576 27.725459
-19.571735 -61.851045 27.485425
-19.016641 -64.020211 26.112262
-19.304137 -62.946837 26.83954
-18.245755 -64.702351 26.339883
-19.016641 -64.020211 26.112262
-30.64068 -40.473732 31.073991
-30.128923 -41.158347 31.274286
-31.034448 -38.701183 31.226547
-30.838861 -37.735157 31.558183
-31.168884 -39.744934 30.831409
-31.034448 -38.701183 31.226547
-31.629198 -38.930847 30.641106
-31.23543 -40.703396 30.488551
-30.64068 -40.473732 31.073991
-31.168884 -39.744934 30.831409
-32.944056 -35.218155 30.226016
-32.270615 -35.065503 30.865613
-33.071941 -36.261965 29.872101
-32.944056 -35.218155 30.226016
-33.56492 -35.365244 29.55292
-34.266685 -36.606268 28.388377
-34.192711 -35.50703 28.798347
-34.76659 -35.704245 27.98772
-37.056576 -34.155832 24.397281
-36.635643 -34.143367 25.339599
-37.41507 -34.218542 23.438353
-37.724894 -34.333303 22.431284
-37.05151 -35.285217 23.878987
-37.056576 -34.155832 24.397281
-37.41507 -34.218542 23.438353
-37.519101 -37.508509 20.767406
-37.621943 -36.4956 21.306435
-37.864214 -36.547543 20.214346
-36.821821 -42.209289 16.038542
-36.415611 -43.123178 16.393785
-36.650793 -42.296095 17.281757
-37.204059 -41.261763 15.714963
-37.414318 -40.411865 16.434963
-37.561374 -40.291422 15.223412
-36.821821 -42.209289 16.038542
-37.204059 -41.261763 15.714963
-38.466816 -36.429358 14.61207
-38.410196 -36.593868 15.745002
-38.348446 -37.314297 13.913188
-38.466816 -36.429358 14.61207
-38.52224 -36.262072 13.439608
-38.184868 -38.182474 13.114508
-38.129444 -38.34976 14.286969
-38.348446 -37.314297 13.913188
-38.408631 -36.951723 11.518785
-38.507979 -36.110884 12.229537
-38.512739 -35.915596 11.007597
-38.25791 -37.915741 11.902436
-38.408631 -36.951723 11.518785
-38.184868 -38.182474 13.114508
-38.25791 -37.915741 11.902436
3 0 35 33
3 0 36 35
3 135 39 136
3 137 136 37
3 135 136 137
3 139 138 39
3 1 42 40
3 3 45 43
3 3 47 45
3 1 50 48
3 1 40 50
3 2 54 52
3 5 140 141
3 5 142 144
3 142 56 143
3 142 143 144
3 4 59 57
3 6 62 60
3 6 64 62
3 6 65 64
3 145 67 146
3 7 147 149
3 147 69 148
3 147 148 149
3 7 71 69
3 150 73 151
3 152 75 153
3 154 153 73
3 152 153 154
3 8 78 76
3 10 79 31
3 10 80 79
3 155 82 156
3 8 83 32
3 8 76 83
3 12 86 84
3 157 87 158
3 159 158 34
3 157 158 159
3 161 160 87
3 14 162 163
3 14 164 166
3 164 88 165
3 164 165 166
3 15 91 89
3 17 92 38
3 17 93 92
3 17 94 93
3 18 97 95
3 20 98 41
3 20 99 98
3 9 100 77
3 21 101 44
3 21 102 101
3 21 103 102
3 22 104 46
3 22 105 104
3 167 106 168
3 11 107 81
3 23 108 49
3 23 109 108
3 23 110 109
3 18 111 51
3 18 95 111
3 19 112 96
3 170 169 53
3 13 171 173
3 173 172 85
3 171 172 173
3 24 174 176
3 176 175 55
3 174 175 176
3 24 177 178
3 179 113 180
3 25 114 58
3 25 115 114
3 16 116 90
3 26 117 61
3 26 118 117
3 26 119 118
3 181 120 182
3 183 182 63
3 181 182 183
3 185 184 120
3 27 121 66
3 27 122 121
3 186 123 187
3 28 124 68
3 28 125 124
3 28 126 125
3 29 127 70
3 29 128 127
3 188 129 189
3 190 130 191
3 192 191 129
3 190 191 192
3 30 131 72
3 30 132 131
3 30 133 132
3 194 193 74
3 195 134 196
3 197 31 198
3 199 198 8
3 197 198 199
3 200 31 201
3 202 10 203
3 204 203 31
3 202 203 204
3 205 32 206
3 207 32 208
3 209 8 210
3 211 210 32
3 209 210 211
3 33 34 12
3 35 34 33
3 35 212 214
3 214 213 34
3 212 213 214
3 35 215 216
3 36 217 219
3 219 218 35
3 217 218 219
3 36 220 221
3 222 14 223
3 37 38 15
3 39 38 37
3 39 17 38
3 39 224 226
3 226 225 17
3 224 225 226
3 228 227 39
3 40 41 18
3 42 41 40
3 42 20 41
3 43 44 9
3 45 44 43
3 45 21 44
3 45 46 21
3 47 46 45
3 47 22 46
3 48 49 11
3 50 49 48
3 50 23 49
3 50 51 23
3 40 51 50
3 40 18 51
3 52 53 19
3 54 53 52
3 54 229 231
3 231 230 53
3 229 230 231
3 233 232 13
3 234 55 235
3 56 236 238
3 236 55 237
3 236 237 238
3 56 24 55
3 57 239 241
3 239 58 240
3 239 240 241
3 59 58 57
3 59 25 58
3 60 61 16
3 62 61 60
3 62 26 61
3 62 63 26
3 64 63 62
3 64 242 244
3 244 243 63
3 242 243 244
3 64 245 246
3 65 247 249
3 249 248 64
3 247 248 249
3 65 250 251
3 252 66 253
3 67 254 256
3 254 66 255
3 254 255 256
3 67 27 66
3 257 68 258
3 257 258 259
3 69 260 262
3 260 68 261
3 260 261 262
3 69 28 68
3 69 70 28
3 71 70 69
3 71 29 70
3 263 72 264
3 73 265 267
3 265 72 266
3 265 266 267
3 73 30 72
3 73 74 30
3 75 74 73
3 75 268 270
3 270 269 74
3 268 269 270
3 76 77 1
3 78 77 76
3 78 9 77
3 31 78 8
3 79 78 31
3 79 9 78
3 79 43 9
3 80 43 79
3 80 3 43
3 271 81 272
3 82 273 275
3 273 81 274
3 273 274 275
3 82 11 81
3 32 276 278
3 276 82 277
3 276 277 278
3 83 82 32
3 83 11 82
3 83 48 11
3 76 48 83
3 76 1 48
3 84 85 2
3 86 85 84
3 86 13 85
3 34 86 12
3 87 86 34
3 87 13 86
3 87 279 281
3 281 280 13
3 279 280 281
3 283 282 87
3 88 284 285
3 88 286 288
3 286 5 287
3 286 287 288
3 89 90 4
3 91 90 89
3 91 16 90
3 38 91 15
3 92 91 38
3 92 16 91
3 92 60 16
3 93 60 92
3 93 6 60
3 93 289 291
3 291 290 6
3 289 290 291
3 94 292 294
3 294 293 93
3 292 293 294
3 94 295 297
3 295 296 297
3 298 94 299
3 300 299 17
3 298 299 300
3 301 94 302
3 304 303 94
3 305 7 306
3 95 307 309
3 307 96 308
3 307 308 309
3 97 96 95
3 97 19 96
3 41 97 18
3 98 97 41
3 98 19 97
3 98 52 19
3 99 52 98
3 99 2 52
3 77 42 1
3 100 42 77
3 100 20 42
3 44 100 9
3 101 100 44
3 101 20 100
3 101 99 20
3 102 99 101
3 102 2 99
3 102 84 2
3 103 84 102
3 103 12 84
3 46 103 21
3 104 103 46
3 104 12 103
3 104 33 12
3 105 33 104
3 105 0 33
3 310 57 311
3 106 312 314
3 312 57 313
3 312 313 314
3 106 4 57
3 81 315 316
3 107 317 319
3 319 318 81
3 317 318 319
3 107 320 321
3 49 107 11
3 108 107 49
3 108 322 324
3 324 323 107
3 322 323 324
3 108 325 327
3 325 106 326
3 325 326 327
3 109 106 108
3 109 4 106
3 109 89 4
3 110 89 109
3 110 15 89
3 51 110 23
3 111 110 51
3 111 15 110
3 111 37 15
3 95 37 111
3 95 328 330
3 330 329 37
3 328 329 330
3 96 331 332
3 112 333 335
3 335 334 96
3 333 334 335
3 112 336 337
3 53 112 19
3 338 112 339
3 340 339 53
3 338 339 340
3 342 341 112
3 85 54 2
3 343 54 344
3 345 344 85
3 343 344 345
3 347 346 54
3 349 348 13
3 55 350 352
3 350 351 352
3 354 353 55
3 113 355 356
3 113 357 359
3 357 14 358
3 357 358 359
3 58 360 362
3 360 113 361
3 360 361 362
3 114 113 58
3 114 14 113
3 114 88 14
3 115 88 114
3 115 5 88
3 90 59 4
3 116 59 90
3 116 25 59
3 61 116 16
3 117 116 61
3 117 25 116
3 117 115 25
3 118 115 117
3 118 5 115
3 118 56 5
3 119 56 118
3 119 24 56
3 63 119 26
3 120 119 63
3 120 24 119
3 120 363 365
3 365 364 24
3 363 364 365
3 367 366 120
3 368 65 369
3 370 369 6
3 368 369 370
3 371 65 372
3 374 373 65
3 375 10 376
3 66 377 378
3 121 379 381
3 381 380 66
3 379 380 381
3 121 382 384
3 382 10 383
3 382 383 384
3 121 80 10
3 122 80 121
3 122 3 80
3 385 67 386
3 123 387 389
3 387 67 388
3 387 388 389
3 123 27 67
3 68 390 392
3 390 123 391
3 390 391 392
3 124 123 68
3 124 27 123
3 124 122 27
3 125 122 124
3 125 3 122
3 125 47 3
3 126 47 125
3 126 22 47
3 70 126 28
3 127 126 70
3 127 22 126
3 127 105 22
3 128 105 127
3 128 0 105
3 393 7 394
3 129 395 396
3 129 397 399
3 397 7 398
3 397 398 399
3 129 71 7
3 130 71 129
3 130 29 71
3 72 400 402
3 400 130 401
3 400 401 402
3 131 130 72
3 131 29 130
3 131 128 29
3 132 128 131
3 132 0 128
3 132 36 0
3 133 36 132
3 133 403 405
3 405 404 36
3 403 404 405
3 74 133 30
3 406 133 407
3 408 407 74
3 406 407 408
3 410 409 133
3 411 75 412
3 134 413 415
3 413 75 414
3 413 414 415
3 134 416 418
3 418 417 75
3 416 417 418
3 419 134 420
3 419 420 421
3 422 134 423
3 425 424 134
