ply
format ascii 1.0
element vertex 994
property float x
property float y
property float z
element face 1269
property list uchar int vertex_index
end_header
23.383583 -61.577183 -10.088602
24.92609 -100.037758 -20.229496
13.532147 -51.377697 -35.660637
21.678465 -61.216187 -22.449066
24.818962 -79.691856 -13.258354
21.036343 -80.659645 -29.918488
5.284311 -63.261143 -42.738468
23.400646 -51.765026 -18.603907
22.637928 -62.316193 -15.783028
26.52174 -78.315964 3.661978
26.854525 -81.101952 13.171919
26.487488 -90.444237 -15.990846
24.322453 -82.119453 -21.67474
23.773378 -92.018265 -26.208733
7.855089 -79.010498 -40.830818
-3.60207 -49.729492 -48.395729
15.805842 -43.734325 -31.982767
7.138631 -42.793209 -42.071037
20.639816 -48.63665 -25.30826
18.739723 -57.543106 -29.198486
23.079554 -69.604469 -11.6112
24.847425 -74.550476 -4.774733
26.631023 -85.29509 -5.963315
22.973444 -71.862831 -18.526463
21.651636 -70.981628 -25.821669
17.440735 -66.569321 -32.810265
17.252338 -88.233322 -34.59193
14.103431 -74.049858 -36.925785
10.640833 -58.37178 -39.203419
2.803171 -47.152935 -45.388348
23.457077 -57.933525 -13.914347
22.974499 -61.984226 -12.706267
27.16888 -75.804222 13.032483
27.183891 -76.84726 18.158243
26.274145 -95.402832 -17.99958
25.596479 -91.889832 -21.205015
24.640099 -96.555099 -23.492872
14.648417 -47.624504 -33.821999
10.361174 -47.234612 -38.87606
22.236986 -56.401718 -20.641214
22.289967 -50.241726 -21.904734
21.134211 -54.892719 -24.017714
19.476191 -53.069351 -27.375044
20.544273 -59.824017 -25.824524
24.324377 -69.629898 -4.588876
25.23971 -71.385612 -0.768934
26.478859 -81.894333 -1.079211
27.163862 -90.702621 -7.055215
23.785191 -74.527031 -12.193254
23.01053 -71.058464 -14.940533
23.841936 -76.165886 -16.041286
23.17131 -82.189667 -25.923258
23.034094 -77.107491 -23.987877
21.636419 -76.181923 -27.824862
19.932846 -69.351608 -29.514053
19.293419 -73.820496 -31.444805
18.143841 -93.998917 -33.185284
13.813268 -90.627289 -36.811958
6.49202 -71.121994 -41.80257
11.434577 -77.039612 -38.915081
9.716108 -69.168526 -39.992256
12.324917 -66.329567 -38.05328
8.233278 -61.277424 -41.027729
6.755357 -53.280136 -42.250496
4.000534 -55.181374 -43.922779
24.321716 -52.693142 -15.027761
22.952147 -57.362556 -17.185793
22.295982 -61.916527 -19.107161
26.108456 -72.858078 3.599308
26.808336 -74.515984 8.412116
26.8985 -79.966324 8.435533
25.891626 -85.159317 -14.361892
24.79644 -81.357147 -17.443401
25.498833 -86.598953 -19.195702
24.453213 -87.295349 -23.877806
22.505613 -86.552544 -28.261347
3.534955 -79.681328 -42.491314
2.698662 -72.485641 -43.400784
1.789033 -64.980858 -44.320984
0.615734 -56.685314 -45.567657
-3.047069 -57.825245 -46.971611
22.422377 -100.465149 -25.781202
24.037256 -45.470123 -19.61463
22.246288 -43.991093 -23.216719
20.021055 -42.115612 -26.681282
18.337561 -46.316967 -28.834953
17.258169 -50.660244 -30.653603
16.378572 -54.726231 -32.434322
22.976645 -65.243835 -10.817216
23.482004 -67.64077 -8.117467
23.874666 -72.334259 -8.446026
24.722569 -77.336357 -9.134855
25.792192 -76.571976 -0.732241
25.724329 -79.940361 -5.375464
25.792233 -82.600449 -9.825167
26.707603 -88.163063 -11.018839
26.991951 -93.527588 -12.454642
26.320213 -98.535095 -14.314841
24.42108 -102.791206 -16.447166
21.233299 -105.860313 -18.66185
22.672415 -66.352478 -13.902068
22.536127 -66.991173 -17.153362
22.274584 -67.03492 -20.700199
23.684824 -76.913788 -19.951464
22.627277 -72.012764 -22.16721
21.553137 -65.976151 -24.119213
20.265797 -64.835007 -27.601389
18.25127 -62.401558 -30.920311
15.535528 -59.183659 -34.183075
21.933172 -96.032173 -28.613262
20.886423 -90.688004 -30.78466
19.503742 -84.721771 -32.366146
12.844696 -84.257057 -37.918404
15.753562 -81.571762 -35.857796
17.90452 -78.139366 -33.665016
16.036272 -70.574142 -34.921654
14.101505 -62.792057 -36.221325
12.265871 -54.922184 -37.46051
8.745481 -50.29435 -40.653225
5.138675 -44.887985 -43.86578
-0.235076 -48.601665 -46.975304
23.366957 -60.128235 -11.846946
23.177967 -61.780106 -11.236647
25.77878 -97.833405 -19.022995
25.588938 -96.102707 -20.803358
24.935934 -98.263878 -21.820751
14.156552 -49.671257 -34.694786
13.262482 -46.099277 -35.378105
12.653308 -47.618698 -36.290611
11.126179 -45.569462 -37.871342
11.962225 -49.205231 -37.261276
21.880541 -58.955822 -21.582985
21.759766 -55.810242 -22.289986
21.386349 -58.164059 -23.314629
20.767397 -57.406273 -24.99218
21.196968 -60.445435 -24.081841
25.587225 -69.71373 1.365887
24.255747 -76.990784 -12.745765
23.779856 -75.282082 -14.137389
24.314659 -77.987106 -14.773687
22.200224 -81.398354 -27.982996
22.446014 -79.288651 -26.878159
21.443928 -78.399216 -28.803223
20.555534 -75.162918 -29.707296
20.186842 -77.435219 -30.719343
5.79713 -67.195511 -42.30468
8.152143 -70.190788 -40.939384
7.41484 -66.076859 -41.446491
9.032491 -65.401031 -40.448307
6.889623 -62.222946 -41.857174
6.08135 -58.24662 -42.497791
4.610614 -59.388432 -43.298958
24.669336 -53.087967 -13.347469
22.956499 -60.135403 -14.866322
23.223579 -57.65554 -15.511898
22.776293 -59.869919 -16.436302
22.540543 -59.634197 -18.15189
22.483257 -62.184807 -17.453663
26.762018 -71.943413 8.196752
27.071428 -72.614098 10.744187
27.051617 -78.330414 13.220621
26.993479 -77.969177 10.791114
26.926149 -80.569351 10.914803
26.891983 -82.462921 8.352679
26.256819 -87.833664 -15.236049
25.758171 -85.94075 -16.741385
26.05024 -88.586464 -17.584772
24.819696 -92.006485 -23.725983
25.107235 -89.637054 -22.48848
24.285315 -89.647827 -24.907574
23.597586 -87.086685 -26.113365
23.187029 -89.526337 -27.297705
0.418884 -72.727486 -44.168541
0.225655 -69.180878 -44.571678
2.212024 -68.793121 -43.858849
-0.218069 -65.318939 -45.091198
-0.825509 -61.315094 -45.719376
24.297705 -49.410587 -17.296534
23.754704 -48.543362 -19.075043
21.517502 -49.343334 -23.64967
22.246763 -47.143532 -22.621958
21.335327 -46.282696 -24.351988
21.163351 -43.168472 -24.997602
20.332556 -45.358818 -26.004982
19.144764 -44.262833 -27.73498
19.565653 -47.380318 -27.07501
19.145056 -55.430168 -28.188227
18.397444 -51.849964 -29.069744
18.077032 -54.276741 -29.840096
16.916779 -53.01136 -31.425356
17.667986 -56.526627 -30.803358
23.511276 -65.367371 -7.931517
23.858671 -66.205612 -6.30085
24.515278 -72.10173 -4.754565
24.040312 -71.059502 -6.577785
24.347418 -73.558434 -6.766995
24.253269 -74.808784 -8.765543
24.723906 -75.919601 -7.03142
26.311291 -75.574333 3.760835
25.921938 -74.736649 1.503746
26.182175 -77.370117 1.39245
26.532558 -83.583504 -3.498438
26.114813 -80.846474 -3.3057
26.176357 -82.481491 -5.580122
25.7642 -81.430748 -7.64863
26.260563 -83.990944 -7.807304
26.312401 -85.363281 -10.275331
26.678411 -86.687164 -8.497791
27.162439 -93.310249 -7.789117
27.127131 -92.087715 -9.596391
27.04854 -94.785172 -10.381851
26.797827 -96.099472 -13.346253
26.752047 -97.100227 -11.267365
25.183088 -101.762085 -13.319915
23.931252 -103.660934 -14.399288
23.006205 -104.487144 -17.447533
22.962181 -67.42173 -11.192253
22.785126 -65.876648 -12.404061
22.829357 -68.121658 -12.884032
22.994762 -71.477303 -16.759771
22.749258 -69.250977 -16.155132
22.685596 -69.285141 -17.883476
22.422615 -66.839958 -18.945271
22.610788 -69.46579 -19.546381
24.646191 -81.977905 -19.592815
24.236 -79.307182 -18.96134
24.035446 -79.525429 -20.840357
22.349369 -74.245453 -24.971119
22.820606 -74.555046 -23.137064
22.252926 -71.824875 -23.977264
22.096279 -69.123871 -23.136951
21.619335 -68.585159 -24.901207
20.947493 -65.359962 -25.954071
20.955416 -67.951385 -26.764933
18.794392 -68.139534 -31.178839
19.138132 -66.012291 -30.191189
17.959534 -64.593384 -31.777885
16.974285 -60.902557 -32.555092
16.530275 -63.120056 -33.477154
20.750521 -99.855156 -28.508131
22.35165 -98.340294 -27.162373
20.586288 -97.644356 -29.752237
17.760523 -91.137077 -33.945873
19.698177 -92.53231 -31.953432
19.155113 -89.58297 -32.772057
20.358459 -87.921387 -31.480829
18.563049 -86.624626 -33.426643
8.310672 -82.360535 -40.418266
10.970663 -85.010719 -38.942871
10.376194 -81.530396 -39.447105
12.805209 -75.720886 -37.979942
13.670065 -79.520462 -37.423168
14.787045 -77.714539 -36.527515
16.854282 -79.923065 -34.833282
16.058691 -76.370216 -35.361721
16.937239 -74.364693 -34.345654
15.206796 -72.57811 -35.888271
11.432717 -62.536251 -38.662495
13.266739 -64.676933 -37.165009
12.364466 -60.653931 -37.767826
13.277717 -58.938858 -36.74316
11.526135 -56.698471 -38.331581
10.574135 -52.792248 -39.027271
9.57785 -54.305981 -40.006474
4.737559 -50.149864 -43.826588
5.923331 -49.056782 -43.030109
4.09701 -46.172024 -44.586105
3.485872 -42.429024 -45.397106
-1.617856 -53.342098 -46.987194
0.150432 -52.655785 -46.237511
-1.917423 -49.201855 -47.723881
23.723703 -57.966259 -12.348875
23.179291 -60.051247 -13.277062
22.800505 -62.255161 -14.134405
27.299255 -73.083023 13.181357
27.239773 -76.254852 15.637203
26.985712 -79.02562 15.653616
26.477417 -92.897148 -17.07659
26.111721 -91.18853 -18.731955
25.981268 -93.780464 -19.729366
25.279114 -94.225632 -22.286333
24.331425 -94.36721 -24.793861
15.16262 -45.552044 -32.937275
14.406464 -42.161774 -33.566406
9.608177 -43.67445 -39.447334
8.701573 -44.847233 -40.510189
22.766785 -54.02755 -19.568815
22.897108 -51.002113 -20.268705
22.250095 -53.418587 -21.287924
21.642296 -52.532997 -22.98414
20.90201 -51.796303 -24.649797
19.986969 -50.811054 -26.382225
20.383471 -54.18354 -25.695969
20.024824 -56.528774 -26.60984
19.742449 -58.883099 -27.501011
24.250471 -67.249466 -4.564541
24.76366 -70.509819 -2.801721
25.006351 -72.890556 -2.668801
26.732582 -81.140709 3.50395
26.459679 -79.969635 1.307963
26.730106 -82.74614 1.151529
26.794088 -84.540665 -1.237729
26.895561 -86.396889 -3.860899
26.962374 -87.95137 -6.546398
27.126305 -89.107498 -4.306539
23.369423 -71.996368 -11.843823
23.025728 -70.452995 -13.304033
23.356945 -72.821869 -13.599148
23.373747 -73.548676 -15.503492
23.392805 -74.139633 -17.323059
23.827129 -82.248169 -23.88983
23.689411 -79.701042 -22.909239
23.129898 -79.455345 -24.970608
22.432802 -76.75029 -25.944645
21.699568 -73.621979 -26.770357
20.88813 -70.281097 -27.716372
20.837076 -72.731453 -28.57575
19.763641 -71.83403 -30.363121
18.372461 -70.256142 -32.14423
16.12274 -92.543304 -35.033203
15.693545 -89.600632 -35.711399
7.065114 -74.978462 -41.381111
9.519958 -77.758293 -40.027882
8.949964 -74.299194 -40.414776
10.490581 -73.084496 -39.506184
11.982602 -71.8498 -38.478333
13.176112 -70.139008 -37.504005
11.101586 -67.688019 -39.028275
10.254048 -63.871845 -39.600864
9.51198 -59.884964 -40.130661
8.62503 -55.781155 -40.805847
7.523223 -57.318996 -41.592793
5.480403 -54.257038 -43.079388
3.339926 -51.178654 -44.645798
24.804016 -49.951862 -15.509103
23.88727 -52.299625 -16.80759
23.86274 -55.37154 -14.50018
23.5495 -55.040203 -16.135334
23.186405 -54.625473 -17.840336
22.643188 -56.737835 -18.936117
22.262434 -59.287651 -19.842857
22.028135 -61.669128 -20.825319
26.409918 -71.060364 5.844449
26.49342 -73.750618 5.976675
26.618401 -76.43026 6.011265
27.029753 -75.278976 10.747089
26.85696 -77.203758 8.456559
26.757555 -79.124062 5.993119
26.870213 -81.877609 5.822849
26.914646 -84.488899 5.815577
25.385006 -82.446083 -13.836744
24.879379 -80.742195 -15.280395
25.359591 -83.363365 -15.988868
25.191723 -83.933449 -18.254292
24.947195 -84.596085 -20.477362
25.684935 -89.328575 -20.071075
25.124239 -87.19249 -21.448473
24.471474 -84.773056 -22.745085
23.814219 -84.750809 -24.946613
22.931929 -84.334648 -27.057812
21.768465 -83.598663 -29.152685
5.690963 -79.178207 -41.764179
3.0146 -76.006126 -43.01355
5.238058 -75.62394 -42.181332
4.533722 -71.737343 -42.697124
4.048013 -67.947609 -43.123352
3.546649 -63.962856 -43.591965
2.891646 -60.128643 -44.161541
1.186299 -61.042957 -44.903793
-1.16364 -57.328369 -46.30019
-3.508082 -53.624573 -47.743881
23.796885 -102.05513 -21.159481
23.879354 -100.399162 -22.955843
22.501827 -102.089134 -24.149933
23.078619 -47.736965 -20.854067
23.153423 -44.781055 -21.507366
17.92997 -42.95763 -29.326683
17.156937 -45.125889 -30.3629
18.906071 -49.640392 -28.1276
17.759203 -48.494991 -29.747595
16.473492 -47.012867 -31.381731
15.991785 -49.131744 -32.238316
15.551397 -51.215469 -33.086987
15.016281 -53.224113 -34.052525
23.513058 -62.200848 -9.051748
23.142921 -63.137932 -10.427353
23.277359 -64.172218 -9.296519
23.187765 -66.468689 -9.515725
23.249338 -68.804237 -9.798018
23.862968 -68.596954 -6.472901
23.602764 -69.868744 -8.255421
23.451944 -71.060791 -10.032616
23.808937 -73.607468 -10.363334
24.27257 -76.097084 -10.665072
24.784079 -78.682365 -11.173794
25.699022 -72.224747 1.371239
25.47961 -73.995491 -0.738328
25.327175 -75.660332 -2.903433
26.117773 -79.230576 -1.03931
25.724775 -78.361153 -3.117739
25.256466 -77.283737 -5.13819
25.235527 -78.676849 -7.304607
25.265337 -80.00486 -9.424381
25.306534 -81.199303 -11.668547
25.852554 -83.869362 -12.120321
26.337124 -86.743469 -12.783817
26.65601 -89.435318 -13.504561
26.98752 -89.356857 -8.984128
26.954466 -90.819214 -11.504936
26.798281 -92.006508 -14.297077
26.731493 -94.523392 -15.17169
26.386234 -97.052277 -16.242144
25.774025 -99.399857 -17.144178
26.655319 -81.649277 15.640709
26.146322 -99.507339 -12.164742
25.544622 -100.791 -15.200022
24.821405 -101.476311 -18.31216
23.440439 -103.458214 -19.440237
21.866934 -104.903526 -20.552517
22.905054 -63.702923 -11.866806
22.74095 -64.13974 -13.304108
22.608961 -64.471901 -14.905592
22.762991 -68.611504 -14.490761
22.595652 -66.713501 -15.548032
22.502085 -64.47168 -16.554726
22.38938 -64.559486 -18.143795
22.220098 -64.348541 -19.86335
21.963045 -64.051598 -21.558155
24.324558 -78.733459 -16.800289
23.841221 -76.802422 -18.017645
23.309227 -74.348724 -19.263735
23.419891 -77.0495 -22.028513
23.147339 -74.629135 -21.235176
22.841238 -71.91671 -20.420378
22.410927 -69.385307 -21.413363
21.974867 -66.4216 -22.380699
21.573425 -63.47839 -23.282867
21.061031 -62.961296 -24.969612
20.347925 -62.205681 -26.755219
19.522537 -61.241806 -28.390268
20.096495 -66.996529 -28.57312
19.375645 -63.795258 -29.241579
18.563292 -60.185192 -29.968857
17.342272 -58.575344 -31.637726
15.989229 -57.094936 -33.310432
14.560484 -55.176296 -34.868374
23.744007 -98.67025 -24.539373
23.402798 -96.584869 -26.133774
23.055128 -94.144424 -27.335508
20.121916 -95.193756 -31.021931
21.447741 -93.571518 -29.784519
22.427111 -91.565109 -28.615395
21.87327 -88.848869 -29.47452
21.110649 -85.871101 -30.406586
20.326231 -82.730484 -31.202255
11.229692 -88.307396 -38.50069
13.385438 -87.629906 -37.391388
15.112394 -86.497345 -36.323627
12.087263 -80.644897 -38.478718
14.424596 -83.097122 -36.891537
16.539288 -85.125084 -35.252239
17.759859 -83.391434 -34.133255
18.724796 -81.344254 -33.02639
19.656528 -79.544533 -31.745554
18.644125 -75.951767 -32.597649
17.752005 -72.461334 -33.237125
16.935999 -68.805519 -33.74292
14.235209 -68.660728 -36.519436
15.155871 -66.813507 -35.48703
15.914079 -65.019348 -34.471607
14.948956 -61.156322 -35.134014
13.968444 -57.097164 -35.796661
13.024535 -53.338371 -36.469334
11.393695 -51.048897 -38.063885
9.663605 -48.875103 -39.71817
8.013909 -46.544407 -41.260216
7.74319 -51.684963 -41.522549
6.955364 -47.733383 -42.227757
6.214614 -43.944897 -42.961224
2.522916 -56.273613 -44.648689
1.799828 -52.060284 -45.44521
1.335036 -48.027939 -46.187626
23.280775 -61.678645 -10.662624
23.390645 -60.930498 -10.832397
23.493453 -60.829037 -10.258375
25.809146 -68.75188 2.483745
25.590997 -68.376106 1.366041
24.822195 -53.304003 -12.497733
25.174864 -51.940031 -12.605091
27.241717 -71.578609 11.903111
27.106665 -71.253979 10.688906
26.821732 -82.166581 11.908466
26.857544 -81.90028 10.779908
26.890337 -80.835651 12.043361
-1.074318 -67.38675 -45.182118
-0.928579 -69.284592 -44.916277
-1.29618 -65.45578 -45.441878
0.003793 -67.249909 -44.831438
-1.074318 -67.38675 -45.182118
-1.503056 -63.473119 -45.742876
-1.29618 -65.45578 -45.441878
15.486684 -42.059337 -32.278292
16.176649 -42.737064 -31.491254
6.759155 -40.837395 -42.458129
7.512274 -41.996275 -41.652845
6.322128 -41.460045 -42.909156
6.759155 -40.837395 -42.458129
24.099894 -65.446872 -5.423094
23.931787 -65.020424 -6.252052
26.991428 -95.319221 -9.387428
27.105489 -94.04771 -9.085484
27.048377 -94.58176 -8.091061
26.843181 -96.476749 -9.830185
26.900294 -95.9427 -10.824608
26.991428 -95.319221 -9.387428
23.536724 -104.013664 -13.459671
24.236379 -103.154392 -12.887463
23.182259 -104.41711 -14.955036
23.536724 -104.013664 -13.459671
19.739175 -98.31052 -30.334376
20.668405 -98.749756 -29.130184
19.821291 -99.41592 -29.712323
2.484589 -45.091352 -45.849225
3.131508 -44.600897 -45.448103
3.45009 -46.66248 -44.987227
23.82805 -58.090426 -11.618339
24.073425 -56.957279 -11.788293
27.211832 -76.551056 16.897723
27.366698 -75.191742 16.872001
27.338757 -75.487946 18.132521
14.230742 -45.858423 -34.14609
14.487844 -44.822193 -33.703728
14.905518 -46.588274 -33.379637
12.81572 -44.195674 -35.711147
12.50532 -44.991274 -36.173284
25.001685 -70.947715 -1.785328
24.94825 -69.705342 -1.769401
25.186274 -70.143238 -0.753008
26.814397 -83.303383 2.283165
26.731344 -81.943424 2.327739
26.815635 -82.500667 3.459376
26.910497 -85.868424 -1.481515
26.87139 -85.050488 -0.236297
26.961233 -86.796536 -2.7931
26.844825 -85.468777 -2.549314
26.910497 -85.868424 -1.481515
27.076605 -88.15184 -3.015921
27.010933 -87.752194 -4.083719
26.961233 -86.796536 -2.7931
14.968004 -91.585296 -35.92258
15.099085 -93.000061 -35.5961
13.944349 -92.042054 -36.485478
24.562866 -51.322502 -15.268432
25.067039 -50.076149 -14.576967
24.825889 -51.446789 -14.336296
23.659909 -56.652533 -14.207263
23.992124 -55.551026 -13.708687
23.789293 -56.832018 -13.415771
26.619309 -70.111592 7.0842
26.420648 -69.825837 5.850898
26.862678 -84.772213 6.957961
26.903315 -83.47591 7.084128
26.851346 -83.759224 8.226513
26.885483 -85.831421 5.649837
26.862678 -84.772213 6.957961
4.814234 -81.184162 -41.894968
3.732672 -81.439361 -42.21146
4.612959 -79.429767 -42.127747
5.892238 -80.932602 -41.531401
4.814234 -81.184162 -41.894968
14.012183 -40.524146 -33.925697
13.663445 -41.29048 -34.382202
22.389757 -102.830368 -23.347025
23.149356 -102.072132 -22.654707
23.037286 -102.813366 -21.851799
24.572986 -44.24046 -19.007511
24.407524 -45.815473 -18.680183
24.141426 -43.946003 -19.920383
24.572986 -44.24046 -19.007511
22.762287 -42.772299 -22.64777
23.215854 -43.16728 -21.793094
22.699855 -44.386074 -22.362043
22.225614 -42.456013 -23.52283
22.762287 -42.772299 -22.64777
20.534165 -40.984235 -26.1299
21.105313 -41.510666 -25.28806
20.592203 -42.642042 -25.839442
19.904043 -40.504223 -26.971888
20.534165 -40.984235 -26.1299
19.418508 -41.558869 -27.48145
19.904043 -40.504223 -26.971888
23.495382 -63.646849 -8.502948
23.395209 -63.186533 -9.174133
23.613232 -62.661164 -8.380562
25.903739 -72.541413 2.485273
25.849738 -71.2994 2.431579
26.054455 -71.616066 3.545613
26.50496 -81.812859 16.829701
26.733845 -80.560894 16.93265
25.906085 -100.032768 -11.159505
26.301126 -98.894599 -10.711474
20.568683 -105.965653 -20.198377
20.8855 -105.487259 -21.143711
21.550117 -105.38192 -19.607184
23.613232 -62.661164 -8.380562
23.779518 -61.539174 -8.357589
19.132878 -94.596337 -32.103608
19.322903 -95.919109 -31.596247
18.333866 -95.32169 -32.677924
9.973656 -86.948387 -39.227732
10.235768 -88.693585 -38.887405
4.822749 -43.016558 -44.254021
5.360718 -42.545013 -43.801743
5.676645 -44.416441 -43.413502
3.19959 -40.509882 -45.837656
2.633328 -40.958568 -46.237455
23.48514 -60.104563 -11.137547
23.649677 -59.171413 -11.367374
23.272462 -60.954171 -11.541797
23.48514 -60.104563 -11.137547
23.390645 -60.930498 -10.832397
27.315143 -75.720444 19.360068
27.338757 -75.487946 18.132521
12.200733 -45.750984 -36.629537
12.50532 -44.991274 -36.173284
12.957895 -46.858987 -35.834358
11.889743 -46.59408 -37.080976
11.437169 -44.726366 -37.419903
12.200733 -45.750984 -36.629537
25.360032 -69.307297 0.314403
25.590997 -68.376106 1.366041
25.413467 -70.549671 0.298477
25.186274 -70.143238 -0.753008
25.360032 -69.307297 0.314403
12.807261 -91.095494 -37.269768
13.944349 -92.042054 -36.485478
24.999699 -51.644202 -13.49615
25.174864 -51.940031 -12.605091
24.495526 -52.890555 -14.187615
24.825889 -51.446789 -14.336296
24.999699 -51.644202 -13.49615
26.95196 -70.918637 9.415188
26.795358 -70.553116 8.260351
26.916723 -72.278756 9.47047
26.95196 -70.918637 9.415188
27.106665 -71.253979 10.688906
26.840461 -82.847065 9.498845
26.909066 -81.516136 9.633741
26.857544 -81.90028 10.779908
26.851346 -83.759224 8.226513
26.840461 -82.847065 9.498845
2.474768 -79.91777 -42.752888
3.732672 -81.439361 -42.21146
-0.831964 -71.057896 -44.714709
-0.659063 -72.902394 -44.439037
0.322269 -70.954182 -44.370109
-0.831964 -71.057896 -44.714709
-0.928579 -69.284592 -44.916277
-1.806776 -61.471197 -46.056965
-0.521789 -63.317017 -45.405287
-1.503056 -63.473119 -45.742876
-2.917556 -59.726273 -46.683082
-1.936289 -59.57017 -46.345494
-1.806776 -61.471197 -46.056965
24.537748 -47.785705 -17.521135
24.835478 -48.121934 -16.624131
24.266248 -47.352093 -18.41039
24.537748 -47.785705 -17.521135
24.026204 -48.976974 -18.185789
23.89598 -47.006743 -19.344836
24.407524 -45.815473 -18.680183
24.266248 -47.352093 -18.41039
23.758089 -64.601304 -7.067385
23.612341 -64.244425 -7.820447
23.684973 -65.786492 -7.116183
23.758089 -64.601304 -7.067385
23.931787 -65.020424 -6.252052
24.862297 -102.204968 -12.347777
25.424468 -101.160141 -11.737091
24.55717 -102.71151 -13.859602
24.862297 -102.204968 -12.347777
24.236379 -103.154392 -12.887463
22.719735 -104.830215 -16.479158
23.468729 -104.074039 -15.92341
23.182259 -104.41711 -14.955036
21.833282 -105.5168 -17.086317
22.119752 -105.173729 -18.054692
22.719735 -104.830215 -16.479158
9.640667 -83.685627 -39.680568
9.844141 -85.300049 -39.448822
8.514146 -83.974956 -40.18652
2.82594 -42.729397 -45.853604
3.791441 -44.300524 -44.991606
3.131508 -44.600897 -45.448103
2.633328 -40.958568 -46.237455
2.82594 -42.729397 -45.853604
23.922605 -56.848385 -12.633035
24.073425 -56.957279 -11.788293
23.59039 -57.949892 -13.131611
23.789293 -56.832018 -13.415771
23.922605 -56.848385 -12.633035
23.54533 -59.047247 -12.097911
23.82805 -58.090426 -11.618339
23.649677 -59.171413 -11.367374
27.466656 -72.002678 14.385741
27.355631 -71.813072 13.121696
27.361809 -73.41204 14.33429
27.466656 -72.002678 14.385741
27.52921 -72.331695 15.538674
27.296622 -74.77264 14.259853
27.234068 -74.443623 13.10692
27.361809 -73.41204 14.33429
27.332068 -74.997955 15.562213
27.366698 -75.191742 16.872001
27.204327 -76.029537 14.334843
27.296622 -74.77264 14.259853
27.332068 -74.997955 15.562213
14.109766 -43.127058 -34.018293
14.784542 -43.856909 -33.251841
14.487844 -44.822193 -33.703728
13.663445 -41.29048 -34.382202
14.109766 -43.127058 -34.018293
13.537775 -45.09581 -34.924143
14.230742 -45.858423 -34.14609
13.95545 -46.861891 -34.600052
13.537775 -45.09581 -34.924143
12.81572 -44.195674 -35.711147
10.64154 -43.720566 -38.268873
11.437169 -44.726366 -37.419903
9.882538 -42.77306 -39.056869
10.64154 -43.720566 -38.268873
10.367178 -44.621956 -38.659338
9.108555 -41.810621 -39.894419
9.882538 -42.77306 -39.056869
8.747046 -42.436895 -40.340993
9.108555 -41.810621 -39.894419
8.293744 -43.023287 -40.872421
8.747046 -42.436895 -40.340993
9.154875 -44.260841 -39.978761
7.920102 -43.820221 -41.290613
7.512274 -41.996275 -41.652845
8.293744 -43.023287 -40.872421
24.492775 -66.359261 -3.631384
24.295794 -65.968799 -4.554939
24.475949 -67.576946 -3.592103
24.492775 -66.359261 -3.631384
24.512901 -68.767162 -3.60427
24.287424 -68.439682 -4.576709
24.475949 -67.576946 -3.592103
24.732543 -69.207123 -2.710693
24.94825 -69.705342 -1.769401
24.544018 -70.069858 -3.695298
24.512901 -68.767162 -3.60427
24.732543 -69.207123 -2.710693
26.839399 -84.153225 0.958333
26.814397 -83.303383 2.283165
26.762097 -83.643403 -0.0431
26.839399 -84.153225 0.958333
26.87139 -85.050488 -0.236297
27.132996 -89.593425 -3.215607
27.076605 -88.15184 -3.015921
27.157356 -90.460262 -4.662133
27.132996 -89.593425 -3.215607
27.176135 -91.257824 -6.036471
27.145083 -89.905059 -5.680877
27.157356 -90.460262 -4.662133
27.175424 -92.561637 -6.403422
27.163151 -92.006435 -7.422166
27.176135 -91.257824 -6.036471
27.094774 -93.865685 -6.699923
27.175424 -92.561637 -6.403422
27.048377 -94.58176 -8.091061
27.094774 -93.865685 -6.699923
17.288655 -94.596374 -33.716544
18.333866 -95.32169 -32.677924
16.278105 -93.868568 -34.640503
15.099085 -93.000061 -35.5961
17.133291 -93.271111 -34.109244
17.288655 -94.596374 -33.716544
16.278105 -93.868568 -34.640503
-3.811786 -47.630619 -48.864961
-4.664191 -47.961683 -49.160168
25.35492 -48.657976 -14.829531
25.067039 -50.076149 -14.576967
25.088634 -48.392572 -15.730415
25.35492 -48.657976 -14.829531
24.55086 -49.681224 -16.402819
24.835478 -48.121934 -16.624131
25.088634 -48.392572 -15.730415
24.395422 -54.409239 -13.132331
24.822195 -53.304003 -12.497733
24.266038 -54.229754 -13.923825
24.395422 -54.409239 -13.132331
23.992124 -55.551026 -13.708687
26.205186 -70.717209 4.668183
26.420648 -69.825837 5.850898
26.259187 -71.959221 4.721878
26.054455 -71.616066 3.545613
26.205186 -70.717209 4.668183
26.585968 -71.501889 7.020601
26.619309 -70.111592 7.0842
26.795358 -70.553116 8.260351
27.185341 -72.84856 11.962772
27.241717 -71.578609 11.903111
27.355631 -71.813072 13.121696
26.884451 -82.869118 4.618825
26.815635 -82.500667 3.459376
26.801398 -81.509159 4.663399
26.906668 -84.174762 4.615189
26.884451 -82.869118 4.618825
26.892429 -83.183254 5.819213
26.946911 -85.457142 4.461319
26.906668 -84.174762 4.615189
26.946911 -85.457142 4.461319
26.885483 -85.831421 5.649837
7.202093 -82.523765 -40.858444
8.514146 -83.974956 -40.18652
7.000818 -80.769371 -41.091223
7.202093 -82.523765 -40.858444
5.892238 -80.932602 -41.531401
2.142057 -78.074959 -43.079628
2.474768 -79.91777 -42.752888
0.584021 -74.598038 -43.918241
-0.659063 -72.902394 -44.439037
1.88188 -76.237358 -43.340746
0.584021 -74.598038 -43.918241
1.716742 -74.366806 -43.591045
3.274777 -77.843727 -42.752432
2.142057 -78.074959 -43.079628
1.88188 -76.237358 -43.340746
-4.113902 -57.742435 -47.339865
-2.917556 -59.726273 -46.683082
-4.200031 -55.904957 -47.663679
-4.113902 -57.742435 -47.339865
-4.430538 -53.804621 -48.049814
-3.277576 -55.724909 -47.357746
-4.200031 -55.904957 -47.663679
-4.565104 -51.895559 -48.429848
-4.430538 -53.804621 -48.049814
-4.612098 -49.948019 -48.755772
-3.555076 -51.677032 -48.069805
-4.565104 -51.895559 -48.429848
-4.664191 -47.961683 -49.160168
-4.612098 -49.948019 -48.755772
14.786995 -41.273062 -33.070112
15.486684 -42.059337 -32.278292
15.106153 -42.948049 -32.774586
14.786995 -41.273062 -33.070112
14.012183 -40.524146 -33.925697
21.618265 -102.858524 -24.681512
22.389757 -102.830368 -23.347025
21.68358 -101.992748 -25.528471
21.618265 -102.858524 -24.681512
21.643854 -101.180756 -26.344105
22.462102 -101.277141 -24.965567
21.68358 -101.992748 -25.528471
20.807927 -100.875759 -27.70757
21.586449 -100.160152 -27.144666
21.643854 -101.180756 -26.344105
19.912729 -100.570362 -28.953492
20.807927 -100.875759 -27.70757
19.821291 -99.41592 -29.712323
19.912729 -100.570362 -28.953492
23.699509 -43.601469 -20.866751
24.141426 -43.946003 -19.920383
23.59534 -45.125589 -20.560998
23.699509 -43.601469 -20.866751
23.215854 -43.16728 -21.793094
21.684145 -42.044702 -24.413272
22.225614 -42.456013 -23.52283
21.704819 -43.579783 -24.10716
21.684145 -42.044702 -24.413272
21.105313 -41.510666 -25.28806
18.980362 -42.632479 -28.008299
19.418508 -41.558869 -27.48145
19.582909 -43.189222 -27.208131
18.372965 -41.979878 -28.80415
18.980362 -42.632479 -28.008299
18.537367 -43.610231 -28.530831
17.654812 -41.328114 -29.679431
18.372965 -41.979878 -28.80415
17.238714 -42.348717 -30.163212
17.654812 -41.328114 -29.679431
16.852197 -43.432846 -30.68132
17.238714 -42.348717 -30.163212
17.543453 -44.041759 -29.844791
16.481389 -44.430107 -31.172833
16.176649 -42.737064 -31.491254
16.852197 -43.432846 -30.68132
23.394317 -64.769795 -8.614018
23.495382 -63.646849 -8.502948
23.612341 -64.244425 -7.820447
24.054571 -66.727539 -5.432695
24.099894 -65.446872 -5.423094
24.295794 -65.968799 -4.554939
25.79384 -70.043892 2.428902
25.809146 -68.75188 2.483745
25.643124 -70.969238 1.368563
25.79384 -70.043892 2.428902
25.849738 -71.2994 2.431579
27.114907 -77.000916 19.417937
27.315143 -75.720444 19.360068
26.998131 -78.159886 18.191416
27.114907 -77.000916 19.417937
26.929147 -78.313541 19.45111
26.899041 -79.249066 16.939103
27.084801 -77.93644 16.905929
26.998131 -78.159886 18.191416
26.820515 -80.337448 15.647163
26.899041 -79.249066 16.939103
26.733845 -80.560894 16.93265
26.442324 -82.892078 15.472596
26.50496 -81.812859 16.829701
26.627596 -82.594608 14.297507
26.442324 -82.892078 15.472596
26.727199 -82.320946 13.063112
26.754922 -81.375614 14.406314
26.627596 -82.594608 14.297507
26.821732 -82.166581 11.908466
26.727199 -82.320946 13.063112
26.603988 -97.691044 -10.262785
26.843181 -96.476749 -9.830185
26.449185 -98.303783 -11.716054
26.603988 -97.691044 -10.262785
26.301126 -98.894599 -10.711474
25.664705 -100.634712 -12.742328
25.906085 -100.032768 -11.159505
25.424468 -101.160141 -11.737091
22.859063 -103.514908 -20.992177
23.037286 -102.813366 -21.851799
23.618662 -102.756672 -20.299859
22.072311 -104.237564 -21.548317
22.859063 -103.514908 -20.992177
22.653686 -104.18087 -19.996377
21.149269 -104.943901 -22.016762
22.072311 -104.237564 -21.548317
21.149269 -104.943901 -22.016762
20.8855 -105.487259 -21.143711
20.901574 -106.14349 -17.60387
21.833282 -105.5168 -17.086317
20.251118 -106.372055 -19.063355
20.901574 -106.14349 -17.60387
20.568683 -105.965653 -20.198377
20.251118 -106.372055 -19.063355
23.660809 -61.284172 -9.079311
23.779518 -61.539174 -8.357589
23.448321 -61.889015 -9.570175
23.596072 -60.97234 -9.597738
23.660809 -61.284172 -9.079311
23.596072 -60.97234 -9.597738
23.493453 -60.829037 -10.258375
19.555089 -97.144409 -30.9614
19.739175 -98.31052 -30.334376
20.354102 -96.419056 -30.387084
19.555089 -97.144409 -30.9614
19.322903 -95.919109 -31.596247
11.515473 -89.935547 -38.114133
10.235768 -88.693585 -38.887405
12.52148 -89.467343 -37.656324
12.807261 -91.095494 -37.269768
11.515473 -89.935547 -38.114133
11.100178 -86.659057 -38.72178
9.973656 -86.948387 -39.227732
9.844141 -85.300049 -39.448822
5.860119 -42.035889 -43.35425
6.322128 -41.460045 -42.909156
6.676623 -43.369053 -42.516131
5.860119 -42.035889 -43.35425
5.360718 -42.545013 -43.801743
3.996347 -41.787077 -45.019684
4.822749 -43.016558 -44.254021
4.312273 -43.658504 -44.631443
3.996347 -41.787077 -45.019684
3.19959 -40.509882 -45.837656
-2.969463 -47.3668 -48.529038
-2.759746 -49.465674 -48.059805
-3.811786 -47.630619 -48.864961
-2.037351 -47.32415 -48.095589
-2.969463 -47.3668 -48.529038
-1.196177 -47.024055 -47.7213
-1.07625 -48.90176 -47.349592
-2.037351 -47.32415 -48.095589
-0.403325 -46.614998 -47.376292
-1.196177 -47.024055 -47.7213
0.381731 -46.328135 -46.982453
0.54998 -48.314802 -46.581465
-0.403325 -46.614998 -47.376292
1.138764 -46.100674 -46.573553
0.381731 -46.328135 -46.982453
1.872831 -45.663172 -46.173914
2.069103 -47.590437 -45.787987
1.138764 -46.100674 -46.573553
2.484589 -45.091352 -45.849225
1.872831 -45.663172 -46.173914
3 0 482 484
3 482 122 483
3 482 483 484
3 1 125 123
3 2 128 126
3 2 130 128
3 3 133 131
3 3 135 133
3 485 136 486
3 4 139 137
3 5 142 140
3 5 144 142
3 6 147 145
3 6 149 147
3 6 151 149
3 487 152 488
3 8 155 153
3 8 157 155
3 489 159 490
3 10 162 160
3 10 491 493
3 493 492 162
3 491 492 493
3 11 166 164
3 13 169 167
3 13 171 169
3 494 173 495
3 496 175 497
3 498 497 173
3 496 497 498
3 500 499 175
3 16 501 502
3 17 503 504
3 17 505 506
3 7 178 177
3 18 181 179
3 18 183 181
3 18 185 183
3 19 188 186
3 19 190 188
3 507 192 508
3 21 195 193
3 21 197 195
3 9 200 198
3 22 203 201
3 22 205 203
3 22 207 205
3 509 210 510
3 511 510 208
3 509 510 511
3 512 212 513
3 514 513 210
3 512 513 514
3 515 214 516
3 518 517 214
3 20 218 216
3 23 221 219
3 23 223 221
3 12 226 224
3 24 229 227
3 24 231 229
3 24 233 231
3 25 236 234
3 25 238 236
3 519 241 520
3 521 520 239
3 519 520 521
3 26 244 242
3 26 246 244
3 14 249 247
3 27 252 250
3 27 254 252
3 27 256 254
3 28 259 257
3 28 261 259
3 28 263 261
3 29 266 264
3 29 522 524
3 524 523 266
3 522 523 524
3 15 270 268
3 525 271 526
3 31 272 121
3 31 273 272
3 33 527 529
3 527 275 528
3 527 528 529
3 33 276 275
3 34 279 277
3 36 280 124
3 36 281 280
3 37 530 532
3 532 531 282
3 530 531 532
3 534 533 127
3 38 284 129
3 38 285 284
3 39 288 286
3 41 289 132
3 41 290 289
3 41 292 290
3 43 293 134
3 43 294 293
3 45 535 537
3 535 296 536
3 535 536 537
3 45 297 296
3 538 300 539
3 540 539 298
3 538 539 540
3 541 301 542
3 543 302 544
3 545 544 301
3 543 544 545
3 546 304 547
3 548 547 302
3 546 547 548
3 48 307 305
3 50 308 138
3 50 309 308
3 51 312 310
3 53 313 141
3 53 314 313
3 53 316 314
3 55 317 143
3 55 318 317
3 57 549 551
3 549 319 550
3 549 550 551
3 57 320 319
3 58 323 321
3 60 324 146
3 60 325 324
3 60 327 325
3 62 328 148
3 62 329 328
3 62 331 329
3 64 332 150
3 64 333 332
3 65 552 554
3 552 334 553
3 552 553 554
3 65 335 334
3 30 555 557
3 555 336 556
3 555 556 557
3 66 337 154
3 66 338 337
3 66 339 338
3 67 340 156
3 67 341 340
3 558 342 559
3 69 343 158
3 69 344 343
3 32 345 274
3 70 346 161
3 70 347 346
3 70 348 347
3 560 349 561
3 562 561 163
3 560 561 562
3 564 563 349
3 71 352 350
3 73 353 165
3 73 354 353
3 35 355 278
3 74 356 168
3 74 357 356
3 74 358 357
3 75 359 170
3 75 360 359
3 76 565 566
3 76 567 569
3 567 361 568
3 567 568 569
3 77 362 172
3 77 363 362
3 77 364 363
3 78 365 174
3 78 366 365
3 78 368 366
3 80 369 176
3 80 370 369
3 571 570 283
3 572 373 573
3 574 573 371
3 572 573 574
3 82 575 576
3 82 577 578
3 40 374 287
3 83 375 180
3 83 579 581
3 581 580 375
3 579 580 581
3 83 582 583
3 84 584 586
3 586 585 182
3 584 585 586
3 84 587 588
3 84 589 590
3 85 376 184
3 85 377 376
3 42 378 291
3 86 379 187
3 86 380 379
3 86 381 380
3 87 382 189
3 87 383 382
3 591 386 592
3 593 592 384
3 591 592 593
3 89 387 191
3 89 388 387
3 44 389 295
3 90 390 194
3 90 391 390
3 90 392 391
3 91 393 196
3 91 394 393
3 68 594 596
3 594 395 595
3 594 595 596
3 92 396 199
3 92 397 396
3 46 398 299
3 93 399 202
3 93 400 399
3 93 401 400
3 94 402 204
3 94 403 402
3 94 404 403
3 95 405 206
3 95 406 405
3 47 407 303
3 96 408 209
3 96 409 408
3 96 410 409
3 97 411 211
3 97 412 411
3 597 413 598
3 599 414 600
3 98 415 213
3 98 416 415
3 98 417 416
3 99 418 215
3 99 601 603
3 603 602 418
3 601 602 603
3 604 384 605
3 88 419 385
3 100 420 217
3 100 421 420
3 49 422 306
3 101 423 220
3 101 424 423
3 101 425 424
3 102 426 222
3 102 427 426
3 72 428 351
3 103 429 225
3 103 430 429
3 52 431 311
3 104 432 228
3 104 433 432
3 104 434 433
3 105 435 230
3 105 436 435
3 105 437 436
3 106 438 232
3 106 439 438
3 54 440 315
3 107 441 235
3 107 442 441
3 107 443 442
3 108 444 237
3 108 445 444
3 81 446 372
3 109 447 240
3 109 448 447
3 56 606 608
3 606 449 607
3 606 607 608
3 110 450 243
3 110 451 450
3 110 452 451
3 111 453 245
3 111 454 453
3 609 455 610
3 112 456 248
3 112 457 456
3 59 458 322
3 113 459 251
3 113 460 459
3 113 461 460
3 114 462 253
3 114 463 462
3 114 464 463
3 115 465 255
3 115 466 465
3 61 467 326
3 116 468 258
3 116 469 468
3 116 470 469
3 117 471 260
3 117 472 471
3 117 473 472
3 118 474 262
3 118 475 474
3 63 476 330
3 119 477 265
3 119 478 477
3 119 611 613
3 613 612 478
3 611 612 613
3 615 614 267
3 79 479 367
3 120 480 269
3 120 481 480
3 616 121 617
3 122 618 620
3 618 121 619
3 618 619 620
3 122 31 121
3 621 33 622
3 123 124 34
3 125 124 123
3 125 36 124
3 126 127 37
3 128 127 126
3 128 623 625
3 625 624 127
3 623 624 625
3 128 626 628
3 626 129 627
3 626 627 628
3 130 129 128
3 130 38 129
3 131 132 39
3 133 132 131
3 133 41 132
3 133 134 41
3 135 134 133
3 135 43 134
3 136 629 630
3 136 631 633
3 631 45 632
3 631 632 633
3 137 138 48
3 139 138 137
3 139 50 138
3 140 141 51
3 142 141 140
3 142 53 141
3 142 143 53
3 144 143 142
3 144 55 143
3 634 57 635
3 145 146 58
3 147 146 145
3 147 60 146
3 147 148 60
3 149 148 147
3 149 62 148
3 149 150 62
3 151 150 149
3 151 64 150
3 152 636 637
3 152 638 640
3 638 65 639
3 638 639 640
3 153 154 30
3 155 154 153
3 155 66 154
3 155 156 66
3 157 156 155
3 157 67 156
3 641 158 642
3 159 643 645
3 643 158 644
3 643 644 645
3 159 69 158
3 160 161 32
3 162 161 160
3 162 70 161
3 162 163 70
3 646 163 647
3 648 647 162
3 646 647 648
3 650 649 163
3 164 165 71
3 166 165 164
3 166 73 165
3 167 168 35
3 169 168 167
3 169 74 168
3 169 170 74
3 171 170 169
3 171 75 170
3 651 76 652
3 653 172 654
3 173 655 657
3 655 172 656
3 655 656 657
3 173 77 172
3 173 174 77
3 175 174 173
3 175 78 174
3 175 176 78
3 658 176 659
3 660 659 175
3 658 659 660
3 661 80 662
3 663 662 176
3 661 662 663
3 177 664 665
3 178 666 668
3 668 667 177
3 666 667 668
3 178 669 671
3 669 82 670
3 669 670 671
3 179 180 40
3 181 180 179
3 181 83 180
3 181 182 83
3 183 182 181
3 183 84 182
3 183 184 84
3 185 184 183
3 185 85 184
3 186 187 42
3 188 187 186
3 188 86 187
3 188 189 86
3 190 189 188
3 190 87 189
3 672 191 673
3 192 674 676
3 674 191 675
3 674 675 676
3 192 89 191
3 193 194 44
3 195 194 193
3 195 90 194
3 195 196 90
3 197 196 195
3 197 91 196
3 198 199 68
3 200 199 198
3 200 92 199
3 201 202 46
3 203 202 201
3 203 93 202
3 203 204 93
3 205 204 203
3 205 94 204
3 205 206 94
3 207 206 205
3 207 95 206
3 208 209 47
3 210 209 208
3 210 96 209
3 210 211 96
3 212 211 210
3 212 97 211
3 677 213 678
3 214 679 681
3 679 213 680
3 679 680 681
3 214 98 213
3 214 215 98
3 682 215 683
3 684 683 214
3 682 683 684
3 685 99 686
3 687 686 215
3 685 686 687
3 216 217 88
3 218 217 216
3 218 100 217
3 219 220 49
3 221 220 219
3 221 101 220
3 221 222 101
3 223 222 221
3 223 102 222
3 224 225 72
3 226 225 224
3 226 103 225
3 227 228 52
3 229 228 227
3 229 104 228
3 229 230 104
3 231 230 229
3 231 105 230
3 231 232 105
3 233 232 231
3 233 106 232
3 234 235 54
3 236 235 234
3 236 107 235
3 236 237 107
3 238 237 236
3 238 108 237
3 239 240 81
3 241 240 239
3 241 109 240
3 242 243 56
3 244 243 242
3 244 110 243
3 244 245 110
3 246 245 244
3 246 111 245
3 247 688 690
3 688 248 689
3 688 689 690
3 249 248 247
3 249 112 248
3 250 251 59
3 252 251 250
3 252 113 251
3 252 253 113
3 254 253 252
3 254 114 253
3 254 255 114
3 256 255 254
3 256 115 255
3 257 258 61
3 259 258 257
3 259 116 258
3 259 260 116
3 261 260 259
3 261 117 260
3 261 262 117
3 263 262 261
3 263 118 262
3 264 265 63
3 266 265 264
3 266 119 265
3 266 267 119
3 691 267 692
3 693 692 266
3 691 692 693
3 695 694 267
3 268 269 79
3 270 269 268
3 270 120 269
3 271 696 697
3 271 698 700
3 698 30 699
3 698 699 700
3 121 701 703
3 701 271 702
3 701 702 703
3 272 271 121
3 272 30 271
3 272 153 30
3 273 153 272
3 273 8 153
3 704 274 705
3 706 274 707
3 706 707 708
3 709 32 710
3 711 710 274
3 709 710 711
3 275 712 713
3 275 714 716
3 714 32 715
3 714 715 716
3 275 160 32
3 276 160 275
3 276 10 160
3 277 278 11
3 279 278 277
3 279 35 278
3 124 279 34
3 280 279 124
3 280 35 279
3 280 167 35
3 281 167 280
3 281 13 167
3 282 283 16
3 717 283 718
3 719 718 282
3 717 718 719
3 721 720 283
3 127 722 724
3 724 723 37
3 722 723 724
3 726 725 127
3 129 727 728
3 284 729 731
3 731 730 129
3 729 730 731
3 284 732 733
3 284 734 735
3 285 736 738
3 738 737 284
3 736 737 738
3 285 739 741
3 739 17 740
3 739 740 741
3 286 287 7
3 288 287 286
3 288 40 287
3 132 288 39
3 289 288 132
3 289 40 288
3 289 179 40
3 290 179 289
3 290 18 179
3 290 291 18
3 292 291 290
3 292 42 291
3 134 292 41
3 293 292 134
3 293 42 292
3 293 186 42
3 294 186 293
3 294 19 186
3 742 295 743
3 744 295 745
3 746 44 747
3 748 747 295
3 746 747 748
3 296 749 750
3 296 751 753
3 751 44 752
3 751 752 753
3 296 193 44
3 297 193 296
3 297 21 193
3 298 299 9
3 300 299 298
3 300 46 299
3 754 300 755
3 301 756 758
3 756 300 757
3 756 757 758
3 301 46 300
3 301 201 46
3 302 201 301
3 302 22 201
3 302 303 22
3 304 303 302
3 304 47 303
3 759 304 760
3 761 304 762
3 763 47 764
3 765 764 304
3 763 764 765
3 766 208 767
3 768 767 47
3 766 767 768
3 769 208 770
3 772 771 208
3 305 306 20
3 307 306 305
3 307 49 306
3 138 307 48
3 308 307 138
3 308 49 307
3 308 219 49
3 309 219 308
3 309 23 219
3 310 311 12
3 312 311 310
3 312 52 311
3 141 312 51
3 313 312 141
3 313 52 312
3 313 227 52
3 314 227 313
3 314 24 227
3 314 315 24
3 316 315 314
3 316 54 315
3 143 316 53
3 317 316 143
3 317 54 316
3 317 234 54
3 318 234 317
3 318 25 234
3 773 56 774
3 319 775 776
3 319 777 779
3 777 56 778
3 777 778 779
3 319 242 56
3 320 242 319
3 320 26 242
3 321 322 14
3 323 322 321
3 323 59 322
3 146 323 58
3 324 323 146
3 324 59 323
3 324 250 59
3 325 250 324
3 325 27 250
3 325 326 27
3 327 326 325
3 327 61 326
3 148 327 60
3 328 327 148
3 328 61 327
3 328 257 61
3 329 257 328
3 329 28 257
3 329 330 28
3 331 330 329
3 331 63 330
3 150 331 62
3 332 331 150
3 332 63 331
3 332 264 63
3 333 264 332
3 333 29 264
3 781 780 15
3 334 782 783
3 334 784 785
3 334 786 788
3 786 177 787
3 786 787 788
3 335 177 334
3 335 7 177
3 789 152 790
3 336 791 793
3 791 152 792
3 791 792 793
3 336 65 152
3 154 336 30
3 337 336 154
3 337 65 336
3 337 335 65
3 338 335 337
3 338 7 335
3 338 286 7
3 339 286 338
3 339 39 286
3 156 339 66
3 340 339 156
3 340 39 339
3 340 131 39
3 341 131 340
3 341 3 131
3 342 794 795
3 342 796 798
3 796 68 797
3 796 797 798
3 158 799 801
3 799 342 800
3 799 800 801
3 343 342 158
3 343 68 342
3 343 198 68
3 344 198 343
3 344 9 198
3 274 802 804
3 802 159 803
3 802 803 804
3 345 159 274
3 345 69 159
3 161 345 32
3 346 345 161
3 346 69 345
3 346 344 69
3 347 344 346
3 347 9 344
3 347 298 9
3 348 298 347
3 348 805 807
3 807 806 298
3 805 806 807
3 163 348 70
3 349 348 163
3 349 808 810
3 810 809 348
3 808 809 810
3 349 811 812
3 814 813 349
3 350 351 4
3 352 351 350
3 352 72 351
3 165 352 71
3 353 352 165
3 353 72 352
3 353 224 72
3 354 224 353
3 354 12 224
3 278 166 11
3 355 166 278
3 355 73 166
3 168 355 35
3 356 355 168
3 356 73 355
3 356 354 73
3 357 354 356
3 357 12 354
3 357 310 12
3 358 310 357
3 358 51 310
3 170 358 74
3 359 358 170
3 359 51 358
3 359 140 51
3 360 140 359
3 360 5 140
3 815 247 816
3 361 817 819
3 817 247 818
3 817 818 819
3 361 14 247
3 820 76 821
3 172 822 823
3 362 824 826
3 826 825 172
3 824 825 826
3 362 827 829
3 827 76 828
3 827 828 829
3 362 361 76
3 363 361 362
3 363 14 361
3 363 321 14
3 364 321 363
3 364 58 321
3 174 364 77
3 365 364 174
3 365 58 364
3 365 145 58
3 366 145 365
3 366 6 145
3 366 367 6
3 368 367 366
3 368 79 367
3 176 368 78
3 369 368 176
3 369 79 368
3 369 268 79
3 370 268 369
3 370 15 268
3 830 80 831
3 832 80 833
3 834 370 835
3 836 835 80
3 834 835 836
3 837 370 838
3 839 15 840
3 841 840 370
3 839 840 841
3 843 842 15
3 283 844 846
3 846 845 16
3 844 845 846
3 848 847 283
3 371 372 1
3 373 372 371
3 373 81 372
3 849 373 850
3 851 373 852
3 853 81 854
3 855 854 373
3 853 854 855
3 856 239 857
3 858 857 81
3 856 857 858
3 859 239 860
3 862 861 239
3 287 178 7
3 374 178 287
3 374 82 178
3 180 374 40
3 375 374 180
3 375 82 374
3 375 863 865
3 865 864 82
3 863 864 865
3 867 866 375
3 182 868 870
3 870 869 83
3 868 869 870
3 872 871 182
3 184 873 875
3 875 874 84
3 873 874 875
3 376 876 878
3 878 877 184
3 876 877 878
3 376 879 880
3 376 881 882
3 377 883 885
3 885 884 376
3 883 884 885
3 377 886 888
3 886 16 887
3 886 887 888
3 291 185 18
3 378 185 291
3 378 85 185
3 187 378 42
3 379 378 187
3 379 85 378
3 379 377 85
3 380 377 379
3 380 16 377
3 380 282 16
3 381 282 380
3 381 37 282
3 189 381 86
3 382 381 189
3 382 37 381
3 382 126 37
3 383 126 382
3 383 2 126
3 384 385 0
3 386 385 384
3 386 88 385
3 191 889 891
3 889 386 890
3 889 890 891
3 387 386 191
3 387 88 386
3 387 216 88
3 388 216 387
3 388 20 216
3 295 892 894
3 892 192 893
3 892 893 894
3 389 192 295
3 389 89 192
3 194 389 44
3 390 389 194
3 390 89 389
3 390 388 89
3 391 388 390
3 391 20 388
3 391 305 20
3 392 305 391
3 392 48 305
3 196 392 90
3 393 392 196
3 393 48 392
3 393 137 48
3 394 137 393
3 394 4 137
3 895 136 896
3 395 897 899
3 897 136 898
3 897 898 899
3 395 45 136
3 199 395 68
3 396 395 199
3 396 45 395
3 396 297 45
3 397 297 396
3 397 21 297
3 299 200 9
3 398 200 299
3 398 92 200
3 202 398 46
3 399 398 202
3 399 92 398
3 399 397 92
3 400 397 399
3 400 21 397
3 400 197 21
3 401 197 400
3 401 91 197
3 204 401 93
3 402 401 204
3 402 91 401
3 402 394 91
3 403 394 402
3 403 4 394
3 403 350 4
3 404 350 403
3 404 71 350
3 206 404 94
3 405 404 206
3 405 71 404
3 405 164 71
3 406 164 405
3 406 11 164
3 303 207 22
3 407 207 303
3 407 95 207
3 209 407 47
3 408 407 209
3 408 95 407
3 408 406 95
3 409 406 408
3 409 11 406
3 409 277 11
3 410 277 409
3 410 34 277
3 211 410 96
3 411 410 211
3 411 34 410
3 411 123 34
3 412 123 411
3 412 1 123
3 900 33 901
3 902 33 903
3 902 903 904
3 905 276 906
3 907 906 33
3 905 906 907
3 413 908 910
3 908 276 909
3 908 909 910
3 413 10 276
3 911 413 912
3 913 413 914
3 915 10 916
3 917 916 413
3 915 916 917
3 919 918 10
3 920 212 921
3 414 922 924
3 922 212 923
3 922 923 924
3 414 97 212
3 213 925 927
3 925 414 926
3 925 926 927
3 415 414 213
3 415 97 414
3 415 412 97
3 416 412 415
3 416 1 412
3 416 371 1
3 417 371 416
3 417 928 930
3 930 929 371
3 928 929 930
3 215 417 98
3 418 417 215
3 418 931 933
3 933 932 417
3 931 932 933
3 418 934 935
3 937 936 418
3 938 99 939
3 940 99 941
3 943 942 99
3 384 944 945
3 384 946 948
3 946 0 947
3 946 947 948
3 949 0 950
3 385 122 0
3 419 122 385
3 419 31 122
3 217 419 88
3 420 419 217
3 420 31 419
3 420 273 31
3 421 273 420
3 421 8 273
3 306 218 20
3 422 218 306
3 422 100 218
3 220 422 49
3 423 422 220
3 423 100 422
3 423 421 100
3 424 421 423
3 424 8 421
3 424 157 8
3 425 157 424
3 425 67 157
3 222 425 101
3 426 425 222
3 426 67 425
3 426 341 67
3 427 341 426
3 427 3 341
3 351 139 4
3 428 139 351
3 428 50 139
3 225 428 72
3 429 428 225
3 429 50 428
3 429 309 50
3 430 309 429
3 430 23 309
3 311 226 12
3 431 226 311
3 431 103 226
3 228 431 52
3 432 431 228
3 432 103 431
3 432 430 103
3 433 430 432
3 433 23 430
3 433 223 23
3 434 223 433
3 434 102 223
3 230 434 104
3 435 434 230
3 435 102 434
3 435 427 102
3 436 427 435
3 436 3 427
3 436 135 3
3 437 135 436
3 437 43 135
3 232 437 105
3 438 437 232
3 438 43 437
3 438 294 43
3 439 294 438
3 439 19 294
3 315 233 24
3 440 233 315
3 440 106 233
3 235 440 54
3 441 440 235
3 441 106 440
3 441 439 106
3 442 439 441
3 442 19 439
3 442 190 19
3 443 190 442
3 443 87 190
3 237 443 107
3 444 443 237
3 444 87 443
3 444 383 87
3 445 383 444
3 445 2 383
3 372 125 1
3 446 125 372
3 446 36 125
3 240 446 81
3 447 446 240
3 447 36 446
3 447 281 36
3 448 281 447
3 448 13 281
3 951 241 952
3 449 953 955
3 953 241 954
3 953 954 955
3 449 109 241
3 243 449 56
3 450 449 243
3 450 109 449
3 450 448 109
3 451 448 450
3 451 13 448
3 451 171 13
3 452 171 451
3 452 75 171
3 245 452 110
3 453 452 245
3 453 75 452
3 453 360 75
3 454 360 453
3 454 5 360
3 455 956 957
3 455 958 960
3 958 57 959
3 958 959 960
3 248 961 963
3 961 455 962
3 961 962 963
3 456 455 248
3 456 57 455
3 456 320 57
3 457 320 456
3 457 26 320
3 322 249 14
3 458 249 322
3 458 112 249
3 251 458 59
3 459 458 251
3 459 112 458
3 459 457 112
3 460 457 459
3 460 26 457
3 460 246 26
3 461 246 460
3 461 111 246
3 253 461 113
3 462 461 253
3 462 111 461
3 462 454 111
3 463 454 462
3 463 5 454
3 463 144 5
3 464 144 463
3 464 55 144
3 255 464 114
3 465 464 255
3 465 55 464
3 465 318 55
3 466 318 465
3 466 25 318
3 326 256 27
3 467 256 326
3 467 115 256
3 258 467 61
3 468 467 258
3 468 115 467
3 468 466 115
3 469 466 468
3 469 25 466
3 469 238 25
3 470 238 469
3 470 108 238
3 260 470 116
3 471 470 260
3 471 108 470
3 471 445 108
3 472 445 471
3 472 2 445
3 472 130 2
3 473 130 472
3 473 38 130
3 262 473 117
3 474 473 262
3 474 38 473
3 474 285 38
3 475 285 474
3 475 17 285
3 330 263 28
3 476 263 330
3 476 118 263
3 265 476 63
3 477 476 265
3 477 118 476
3 477 475 118
3 478 475 477
3 478 17 475
3 478 964 966
3 966 965 17
3 964 965 966
3 968 967 478
3 267 969 971
3 971 970 119
3 969 970 971
3 973 972 267
3 367 151 6
3 479 151 367
3 479 64 151
3 269 479 79
3 480 479 269
3 480 64 479
3 480 333 64
3 481 333 480
3 481 29 333
3 974 270 975
3 976 975 15
3 974 975 976
3 977 270 978
3 979 120 980
3 981 980 270
3 979 980 981
3 982 120 983
3 984 481 985
3 986 985 120
3 984 985 986
3 987 481 988
3 989 29 990
3 991 990 481
3 989 990 991
3 993 992 29
