ply
format ascii 1.0
element vertex 818
property float x
property float y
property float z
element face 933
property list uchar int vertex_index
end_header
-30.25631 -47.579952 43.311703
-16.219322 -55.572433 60.408585
-28.25598 -55.553238 55.227112
-29.876299 -34.131741 56.108456
-29.181307 -27.797338 39.302681
3.494565 -32.773403 54.145683
-30.144936 -51.654709 48.997383
-2.71152 -34.59811 61.35952
-23.304688 -57.04509 59.510967
-29.843697 -41.794971 49.206223
-29.609426 -39.194122 41.523518
-29.219492 -30.772476 47.589344
0.585663 -40.66106 54.810001
-5.709272 -43.438599 61.064617
-13.432471 -45.992207 65.507103
-18.25012 -38.324852 70.266357
-21.006168 -47.824757 66.428345
-26.997787 -47.709526 63.193691
-29.647066 -45.25441 56.799969
-30.362463 -51.368496 42.145111
-30.304245 -49.540039 45.868557
-30.224943 -54.232349 44.906944
-26.124605 -56.774708 57.711155
-24.176773 -61.063473 55.37038
-26.823698 -60.400921 53.27544
-29.761133 -38.003506 52.577393
-29.492466 -36.586491 48.378136
-29.560789 -32.412601 51.76609
-29.529577 -19.909447 49.850327
4.541667 -35.765102 51.002163
3.215162 -39.657055 51.285931
2.002051 -36.702885 54.514824
-4.382477 -38.868664 61.691479
-7.89417 -40.183041 64.422195
-9.449151 -44.742683 63.644085
-11.871738 -41.317928 66.752586
-21.929878 -38.600021 70.43013
-19.682014 -42.951805 68.822365
-23.275126 -43.380688 68.259689
-24.320131 -48.017303 65.397461
-26.067099 -43.412228 66.610977
-29.377169 -41.397194 60.605721
-29.826128 -39.828651 56.842674
-29.932043 -43.617485 52.997238
-29.314665 -33.885502 40.290981
-29.766075 -38.396061 37.520943
-29.611273 -32.627914 36.429089
-29.526615 -54.010189 52.084591
-28.646709 -58.853306 50.731953
-29.709036 -56.876617 47.733742
0.495434 -33.664352 57.915089
-29.273319 -21.267891 38.448116
-29.664133 -26.236601 35.603863
-29.926613 -19.667223 34.93911
-20.008064 -56.553268 60.454445
-17.303339 -60.195366 56.757004
-20.918686 -61.014118 56.472649
-30.046663 -44.9575 45.943802
-29.979677 -43.939426 42.580624
-29.674246 -40.41692 45.23476
-29.285299 -35.064003 44.325485
-29.04705 -29.211967 43.262245
-29.450111 -26.418226 50.666203
-29.111029 -24.543421 46.405727
-29.014856 -22.816666 42.330906
-0.978611 -37.778164 58.201077
-2.428139 -42.023842 58.156281
-7.350269 -48.067265 60.027905
-11.053107 -49.635574 61.955261
-14.741197 -50.935001 63.203484
-14.243626 -37.508942 69.158791
-15.740176 -42.184998 68.241501
-17.258671 -47.109512 66.410759
-18.616915 -51.951572 63.747677
-22.208324 -52.54493 63.299755
-25.368853 -52.433334 61.844978
-27.688938 -51.830311 59.389771
-28.170582 -42.529236 64.059044
-28.74552 -46.69762 60.241333
-29.175537 -50.609451 56.305775
-29.925571 -48.785744 52.870377
-30.120882 -46.823128 49.367805
-30.333302 -49.242241 42.779156
-30.263813 -47.717602 41.96595
-30.290636 -48.414486 44.395828
-30.353584 -50.44109 43.97818
-14.252529 -55.10685 59.901188
-27.288166 -56.193085 56.624622
-26.545219 -58.556793 55.55291
-27.616199 -57.938702 54.39603
-29.797871 -36.07457 54.407066
-29.655348 -35.347607 52.160301
-29.748796 -33.385689 54.020523
3.337073 -36.245918 52.677231
2.637853 -34.771576 54.458622
-7.183105 -37.899937 64.607933
-9.032712 -38.426132 65.879814
-9.873321 -40.797375 65.675644
-10.986697 -38.977688 67.02388
-22.569187 -40.99855 69.463722
-24.286749 -41.012413 68.905762
-24.800385 -43.420578 67.558525
-25.707458 -40.965652 68.065895
-29.922941 -34.841213 58.151684
-29.863997 -36.965126 56.39793
-29.841349 -38.919613 54.608162
-29.219557 -30.974016 39.845196
-29.421467 -33.23727 38.381706
-29.379889 -30.247162 37.831554
-29.910723 -52.904644 50.494785
-29.6222 -55.525887 50.018375
-29.985214 -54.358036 48.40509
-29.545897 -20.319984 36.715271
-21.759634 -56.74799 60.193447
-20.528061 -58.848297 58.494957
-22.194834 -59.059177 58.107178
-29.945307 -43.562263 47.48959
-29.874851 -42.810604 45.597618
-29.760921 -41.144623 47.220753
-29.335569 -33.796673 47.9132
-29.367495 -35.844116 46.312138
-29.214903 -32.96402 45.934856
-29.148682 -32.307873 43.83342
-29.101866 -30.103661 45.388626
-29.676985 -27.226225 52.877228
-29.35771 -18.738781 47.730503
-29.29538 -22.178711 48.188457
-29.155766 -21.258713 46.05772
-29.031221 -23.507164 44.432713
-29.077568 -20.35339 43.838448
-29.087679 -19.566729 41.873882
-29.17963 -16.946796 43.458549
1.945301 -40.190536 53.015373
0.002332 -42.857708 54.609165
-1.128067 -34.143135 59.736362
-0.316841 -35.714935 58.168736
-1.84832 -36.283009 59.83688
-5.0501 -41.137794 61.469131
-3.41967 -40.458324 60.02174
-4.036331 -42.75639 59.659161
-3.102862 -44.361954 57.795681
-4.7438 -45.016979 59.263237
-6.60503 -45.810478 60.679794
-11.420848 -45.553543 64.587418
-10.344497 -47.215347 62.955627
-12.177448 -47.938499 63.73148
-12.892445 -50.244377 62.711292
-14.123136 -48.387444 64.517075
-16.277473 -37.988033 69.823349
-15.021575 -39.912823 68.788086
-17.051096 -40.262211 69.363945
-20.315727 -45.363796 67.743736
-18.406254 -45.106903 67.683861
-19.191784 -47.599174 66.508263
-17.875952 -49.56126 65.148468
-19.890644 -50.047153 65.120636
-20.519163 -52.32835 63.637894
-21.701538 -50.182549 64.954521
-25.743481 -47.946697 64.438538
-24.825747 -50.407825 63.625847
-26.169838 -50.2001 62.626011
-26.655983 -52.207745 60.69738
-27.310057 -49.840157 61.39904
-27.88516 -40.362949 65.724236
-28.6824 -39.86972 64.168343
-29.513643 -43.207878 58.757797
-29.064079 -43.964039 60.665615
-29.28577 -45.950462 58.611668
-28.930758 -48.765701 58.385632
-29.455669 -47.982487 56.636444
-29.637136 -49.682877 54.6353
-29.792673 -46.987293 54.852161
-29.907804 -42.519764 51.090694
-30.018545 -45.212341 51.202271
-30.000925 -44.342651 49.385609
-30.103762 -45.906937 47.612614
-29.797785 -41.680805 42.015568
-29.991016 -43.690304 40.715023
-29.820967 -41.305984 40.167805
-30.061857 -25.877007 33.684944
-29.938995 -29.128216 34.099121
-17.983349 -62.462811 54.757774
-30.262135 -50.659782 47.408707
-30.197443 -53.161434 46.964973
-30.317732 -51.869362 45.419331
-30.329931 -52.821808 43.505791
-24.794453 -56.90321 58.806187
-23.744041 -59.092552 57.502575
-25.197397 -58.93708 56.666378
-25.585764 -60.924973 54.336464
-29.777618 -39.916378 50.904858
-29.667645 -39.274017 48.71698
-29.633112 -37.314678 50.443455
-29.482063 -34.34026 49.996632
-29.370855 -31.630707 49.537815
-29.606346 -16.535526 49.486279
5.021417 -37.222099 49.511929
3.84332 -37.700264 51.174206
2.595533 -38.209209 52.910591
1.288566 -38.703487 54.670795
-4.464186 -35.037968 63.001316
-3.542194 -36.701923 61.572258
-5.406166 -37.219425 63.253307
-6.130689 -39.525753 63.144573
-6.776833 -41.902817 62.78067
-7.541427 -44.094971 62.43206
-8.659934 -42.309982 64.178307
-10.589578 -43.153126 65.20182
-12.508286 -43.611069 66.166199
-20.159307 -38.59037 70.458115
-18.989344 -40.6101 69.656876
-20.847473 -41.011639 69.640373
-21.489357 -43.336365 68.642433
-22.087355 -45.715355 67.423775
-22.809546 -48.069817 65.9842
-23.81028 -45.716957 66.910698
-25.263262 -45.715752 66.091682
-26.549551 -45.488312 65.030594
-29.24826 -39.423859 62.387104
-29.689041 -40.571571 58.704197
-29.763678 -42.625511 56.741138
-29.85597 -44.332726 54.912971
-29.864845 -41.568356 54.827007
-29.859524 -40.876343 52.823097
-29.451815 -36.653717 40.828156
-29.664007 -38.818283 39.543297
-29.524313 -36.100918 38.916233
-29.006241 -54.751705 53.699509
-28.440769 -57.326859 53.037678
-29.117754 -56.578499 51.477676
-29.259174 -57.942425 49.251369
-30.034285 -55.562275 46.252338
2.053467 -33.059933 56.079952
-29.195717 -24.408371 38.864079
-29.367214 -27.179495 37.516987
-29.437077 -23.777782 37.000111
-29.776751 -23.196823 35.176216
-30.187084 -22.253435 33.52813
-30.412281 -18.932402 33.183788
-18.133419 -56.187386 60.495522
-18.701117 -58.403408 58.730434
-19.138435 -60.679695 56.721165
-19.626495 -62.927509 54.574474
-22.618921 -61.291172 55.879368
-27.806604 -59.768177 52.067539
-30.16828 -46.456112 44.445995
-30.143206 -45.989388 42.939182
-30.010063 -44.453358 44.260212
-29.816442 -42.147861 43.815514
-29.613148 -39.70005 43.401485
-29.557243 -38.545647 46.765751
-29.465492 -37.780785 44.82074
-29.421541 -37.089523 42.888443
-29.266308 -34.365482 42.19775
-29.141117 -31.438042 41.786777
-29.069838 -28.397903 41.241211
-29.698479 -30.38282 53.444572
-29.488457 -29.508865 51.233082
-29.292578 -28.565872 49.102184
-29.482155 -23.195496 50.312351
-29.257786 -25.331745 48.521057
-29.129696 -27.678421 46.899349
-29.029934 -26.904034 44.758141
-28.998661 -25.868069 42.866589
-29.049969 -25.440962 40.823196
-29.091419 -21.985281 40.387032
-29.201645 -18.578457 39.96666
1.24713 -35.209541 56.277313
0.528622 -37.223335 56.417263
-0.184918 -39.179974 56.554611
-2.640628 -38.251354 60.028397
-1.800435 -39.825264 58.380535
-0.821383 -41.277859 56.467537
-1.541001 -43.521473 56.325214
-8.41235 -46.347382 61.970604
-9.146156 -48.684662 61.157936
-11.638558 -51.946815 60.763214
-13.657269 -52.638027 61.477314
-15.548244 -53.351448 61.857544
-12.18511 -37.125698 68.237701
-12.969068 -39.287949 68.048828
-13.811984 -41.700356 67.629257
-14.521351 -44.109776 66.939377
-17.731583 -42.687443 68.62616
-16.496666 -44.613308 67.44886
-15.366005 -46.621693 66.050079
-16.08765 -49.166862 64.87265
-16.693666 -51.596691 63.518299
-17.55908 -53.877888 62.15329
-19.360996 -54.239094 62.220867
-21.105083 -54.555038 62.007065
-22.843979 -54.666573 61.582325
-23.353653 -50.428299 64.367203
-23.853395 -52.683926 62.638939
-24.407581 -54.855675 60.730251
-25.79874 -54.658592 59.800407
-26.967955 -54.327328 58.684059
-27.955404 -53.865364 57.338066
-26.855886 -40.883766 66.991814
-27.290445 -42.867664 65.446831
-27.618801 -45.117905 63.733147
-28.870567 -41.910965 62.500454
-28.478809 -44.536362 62.239254
-27.973583 -47.205254 61.865929
-28.231993 -49.121754 60.114025
-28.532822 -51.183609 57.984734
-28.78303 -53.027946 55.900856
-29.398132 -52.249535 54.184704
-29.795996 -51.412022 52.51289
-30.042192 -50.27224 51.01025
-29.955311 -46.242455 53.130249
-30.070663 -47.704647 51.15448
-30.171989 -49.212856 49.350105
-30.215942 -48.195698 47.668877
-30.201982 -47.217491 46.004543
-30.145416 -45.847256 41.237717
-29.88401 -40.981415 38.230385
-29.617123 -29.3908 35.942303
-15.593065 -56.449834 59.405113
-14.609669 -56.217043 59.151415
-15.235925 -55.339641 60.154887
3.066209 -33.77249 54.302152
3.332497 -34.488995 53.536413
3.760853 -33.489908 53.379943
-9.602124 -37.493818 66.525264
-8.617985 -37.241214 65.900478
-10.579116 -37.769596 67.097297
-10.009704 -38.70191 66.451847
-9.602124 -37.493818 66.525264
-24.736971 -39.868191 69.12389
-23.953904 -39.82493 69.493202
-25.447325 -39.84481 68.703957
-24.997104 -40.989033 68.485828
-24.736971 -39.868191 69.12389
4.20363 -32.591543 53.16959
3.964084 -31.780332 53.959501
3.760853 -33.489908 53.379943
4.20363 -32.591543 53.16959
-29.19133 -19.597077 45.796312
-29.256738 -19.998747 46.894112
-29.292302 -18.337111 46.632703
-29.152231 -19.144416 44.686676
-29.116667 -20.806052 44.948084
-29.19133 -19.597077 45.796312
-29.203262 -17.441119 44.496726
-29.128599 -18.650093 43.648499
-29.152231 -19.144416 44.686676
0.942832 -41.455336 53.931645
1.62265 -41.220073 53.03433
1.265482 -40.425798 53.912687
0.293998 -41.759384 54.709583
0.651166 -42.55366 53.831226
0.942832 -41.455336 53.931645
-17.851723 -37.156692 70.476993
-18.794967 -37.278126 70.649074
-17.263796 -38.156442 70.044853
-16.8654 -36.988283 70.255489
-17.851723 -37.156692 70.476993
-28.932653 -38.484079 64.071503
-28.592591 -38.809501 64.936504
-30.21027 -27.178077 32.930844
-30.28781 -25.448304 32.819631
-17.247947 -63.264082 53.702474
-18.15832 -63.526941 53.703483
-30.355174 -51.586561 41.163961
-30.339648 -52.45076 41.742515
-30.339648 -52.45076 41.742515
-30.323381 -53.177416 42.422855
-30.346197 -52.095152 42.825451
-26.332772 -61.627077 52.62162
-25.713805 -61.889103 53.152132
-26.204731 -60.662947 53.805952
-29.643622 -14.834993 49.207276
-29.752965 -15.230768 50.337246
-29.518619 -15.98062 48.321524
-29.643622 -14.834993 49.207276
-5.910618 -36.398428 63.93379
-4.935176 -36.128697 63.127312
-5.439628 -35.307699 63.807794
-21.585412 -37.4708 70.788612
-22.498145 -37.435692 70.709385
-21.044593 -38.595196 70.444123
-20.700126 -37.465975 70.802605
-21.585412 -37.4708 70.788612
-29.757585 -40.200111 57.773436
-29.75918 -39.12689 58.574036
-29.827724 -38.75543 57.643274
5.181446 -35.625457 50.053833
4.94221 -34.911848 50.813263
4.781542 -36.4936 50.257046
5.421321 -36.353956 49.308716
5.181446 -35.625457 50.053833
-29.638274 -34.083303 36.686434
-29.543371 -34.387981 37.662743
-29.51637 -32.932592 37.405397
-29.747609 -33.957811 35.697294
-29.638274 -34.083303 36.686434
-29.508424 -58.121967 47.359019
-29.283493 -58.654871 48.117832
-29.484105 -57.409521 48.492555
-30.6954 -18.52553 32.336323
-30.530219 -17.191435 33.105785
-30.561291 -20.263762 32.468186
-30.6954 -18.52553 32.336323
-29.800949 -29.225181 54.30534
-29.795502 -30.757949 54.597963
-29.505866 -21.552471 50.081339
-29.618538 -22.041638 51.185816
-29.642249 -20.398613 50.954803
-29.210535 -17.306835 40.778252
-29.144662 -19.072593 40.920271
-29.153552 -17.80097 41.731863
-29.283235 -16.828235 39.810465
-29.210535 -17.306835 40.778252
3.536872 -40.343443 50.495216
3.828047 -39.400022 50.427262
-2.67748 -45.093878 56.900744
-3.424303 -45.449211 57.565439
-6.722081 -48.795489 58.974449
-6.409741 -47.65832 59.382059
-7.631852 -49.167278 59.557419
-6.722081 -48.795489 58.974449
-10.396655 -50.31073 61.020242
-9.443179 -49.835274 60.62158
-10.099632 -49.160118 61.556598
-11.345833 -50.791195 61.359237
-10.68938 -51.466351 60.424219
-10.396655 -50.31073 61.020242
-13.799904 -36.285149 69.233173
-14.84901 -36.577644 69.630527
-13.214368 -37.31732 68.698246
-12.770646 -36.093527 68.772628
-13.799904 -36.285149 69.233173
-27.212741 -39.551853 67.119339
-26.689646 -39.71042 67.688557
-30.07804 -44.754425 40.031563
-30.007958 -43.576082 39.794441
-29.905597 -30.637743 34.332627
-30.088299 -30.333978 33.316007
-16.356876 -59.952575 56.616438
-17.062358 -59.104681 57.66592
-30.334609 -49.435278 41.90083
-30.34919 -50.498406 41.583807
-30.347883 -50.305369 42.462134
-30.299865 -48.672959 41.494226
-30.334609 -49.435278 41.90083
-30.298558 -48.479922 42.372553
-30.26547 -47.775967 41.035654
-30.299865 -48.672959 41.494226
-13.58566 -55.863242 58.89591
-13.344431 -54.629768 59.759846
-13.58566 -55.863242 58.89591
-14.609669 -56.217043 59.151415
3.682107 -35.226166 52.645718
3.93937 -36.00551 51.839697
4.284404 -34.985757 51.808183
2.987463 -35.508747 53.567926
3.682107 -35.226166 52.645718
3.332497 -34.488995 53.536413
-7.693182 -36.978117 65.264538
-6.799088 -36.738684 64.611103
-8.107909 -38.163035 65.243874
-7.693182 -36.978117 65.264538
-8.617985 -37.241214 65.900478
-22.775468 -38.618734 70.255387
-22.498145 -37.435692 70.709385
-23.095123 -39.817999 69.772182
-22.249533 -39.799285 69.946926
-22.775468 -38.618734 70.255387
-23.427968 -41.005482 69.184742
-23.095123 -39.817999 69.772182
-23.953904 -39.82493 69.493202
-29.87613 -36.261711 58.297779
-29.883593 -35.24503 59.187579
-29.846658 -37.323667 57.420902
-29.87613 -36.261711 58.297779
-29.893469 -35.90317 57.274807
-29.845063 -38.396889 56.620302
-29.827724 -38.75543 57.643274
-29.846658 -37.323667 57.420902
4.284404 -34.985757 51.808183
4.94221 -34.911848 50.813263
-30.131068 -55.443147 44.507126
-30.221457 -54.710245 43.786324
-29.47345 -19.046752 37.475676
-29.409608 -20.793937 37.581694
-29.337161 -19.520705 38.342098
-29.639259 -18.61721 36.551358
-29.47345 -19.046752 37.475676
-29.829617 -18.29083 35.663277
-29.736255 -19.993603 35.827191
-29.639259 -18.61721 36.551358
-23.634206 -62.133372 54.56315
-24.372042 -62.030648 54.22575
-28.308764 -60.10079 50.258633
-28.711778 -59.596159 49.540304
-29.804274 -26.171886 53.758065
-29.790202 -27.646883 54.021667
-29.687078 -25.652781 52.635111
-29.804274 -26.171886 53.758065
-29.57364 -25.248782 51.529599
-29.563548 -26.822226 51.771715
-29.687078 -25.652781 52.635111
-29.199528 -16.491004 42.524197
-29.153552 -17.80097 41.731863
-29.133654 -18.256763 42.666215
2.26846 -40.920564 52.204191
2.903391 -40.653824 51.33947
2.580232 -39.923795 52.150652
2.26846 -40.920564 52.204191
1.62265 -41.220073 53.03433
0.377783 -43.621719 53.727964
0.651166 -42.55366 53.831226
-0.343241 -43.959269 54.531503
0.377783 -43.621719 53.727964
-4.244772 -45.776724 58.299217
-3.424303 -45.449211 57.565439
-3.923331 -44.689466 58.529459
-5.106507 -46.133177 58.999725
-4.244772 -45.776724 58.299217
-6.037121 -46.529926 59.708004
-5.106507 -46.133177 58.999725
-5.674415 -45.413729 59.971515
-6.97765 -46.938872 60.353849
-6.409741 -47.65832 59.382059
-6.037121 -46.529926 59.708004
-15.865934 -36.81719 69.962806
-16.8654 -36.988283 70.255489
-15.260549 -37.748487 69.49107
-14.84901 -36.577644 69.630527
-15.865934 -36.81719 69.962806
-28.19397 -39.056116 65.714451
-27.727377 -39.291444 66.48555
-28.28378 -40.116335 64.94629
-28.19397 -39.056116 65.714451
-28.592591 -38.809501 64.936504
-29.922933 -42.383922 39.520832
-30.007958 -43.576082 39.794441
-29.905991 -42.498144 40.441414
-29.880635 -39.578272 36.839001
-29.844552 -38.212561 36.509664
-30.148839 -28.803681 33.137932
-30.000426 -27.502612 33.892032
-30.21027 -27.178077 32.930844
-30.088299 -30.333978 33.316007
-30.148839 -28.803681 33.137932
-17.038217 -62.20427 54.695673
-16.698211 -61.070547 55.695288
-17.643344 -61.329088 55.757389
-17.038217 -62.20427 54.695673
-17.247947 -63.264082 53.702474
-30.355174 -51.586561 41.163961
-30.34919 -50.498406 41.583807
-30.273951 -54.004975 43.085747
-30.221457 -54.710245 43.786324
-30.277437 -53.527079 44.206367
-30.273951 -54.004975 43.085747
-30.323381 -53.177416 42.422855
-25.076538 -61.961398 53.708792
-24.372042 -62.030648 54.22575
-24.881269 -60.994223 54.853422
-25.076538 -61.961398 53.708792
-25.713805 -61.889103 53.152132
-29.676115 -18.732738 50.765551
-29.642249 -20.398613 50.954803
-29.714499 -17.045778 50.583527
-29.752965 -15.230768 50.337246
-29.567961 -18.222487 49.668303
-29.676115 -18.732738 50.765551
-29.714499 -17.045778 50.583527
-29.394302 -17.082248 47.443636
-29.482028 -17.637154 48.608391
-29.518619 -15.98062 48.321524
-29.292302 -18.337111 46.632703
-29.394302 -17.082248 47.443636
4.731174 -38.182544 49.540261
5.277747 -37.982304 48.763958
4.142125 -38.421627 50.371399
4.731174 -38.182544 49.540261
4.432368 -37.461181 50.343068
3.529241 -38.678659 51.230069
3.828047 -39.400022 50.427262
4.142125 -38.421627 50.371399
-6.294636 -37.559681 63.93062
-5.910618 -36.398428 63.93379
-6.799088 -36.738684 64.611103
-19.749561 -37.410885 70.744954
-20.700126 -37.465975 70.802605
-19.204713 -38.457611 70.362236
-18.794967 -37.278126 70.649074
-19.749561 -37.410885 70.744954
-29.423012 -37.975468 62.266417
-29.215583 -38.261149 63.180884
-29.441299 -39.021727 61.421309
-29.423012 -37.975468 62.266417
-29.505753 -40.008394 60.530617
-29.312714 -40.410527 61.496413
-29.441299 -39.021727 61.421309
-29.66169 -39.595583 59.579855
-29.75918 -39.12689 58.574036
-29.533105 -40.984382 59.654959
-29.505753 -40.008394 60.530617
-29.66169 -39.595583 59.579855
5.631022 -37.091016 48.613802
5.421321 -36.353956 49.308716
5.277747 -37.982304 48.763958
5.631022 -37.091016 48.613802
-29.594794 -35.819805 37.930006
-29.47289 -34.669094 38.648969
-29.543371 -34.387981 37.662743
-29.715674 -36.967377 37.232361
-29.645194 -37.24849 38.218588
-29.594794 -35.819805 37.930006
-29.844552 -38.212561 36.509664
-29.715674 -36.967377 37.232361
-29.01801 -59.140718 48.800012
-28.711778 -59.596159 49.540304
-28.952942 -58.397866 49.991661
-29.01801 -59.140718 48.800012
-29.283493 -58.654871 48.117832
-30.035739 -56.10811 45.179823
-30.129614 -54.897312 45.579641
-30.131068 -55.443147 44.507126
-29.885505 -56.836043 45.889921
-30.035739 -56.10811 45.179823
-29.722881 -57.493214 46.630623
-29.871661 -56.219446 46.99304
-29.885505 -56.836043 45.889921
-29.508424 -58.121967 47.359019
-29.722881 -57.493214 46.630623
-29.884412 -32.63241 55.929905
-29.936191 -33.066975 56.921671
2.518991 -32.126143 55.852354
2.774016 -32.916668 55.112817
3.23954 -31.982879 54.885219
1.733131 -32.355865 56.801391
2.518991 -32.126143 55.852354
0.954114 -32.658074 57.71896
1.27445 -33.362143 56.997521
1.733131 -32.355865 56.801391
0.133396 -32.83706 58.658162
0.954114 -32.658074 57.71896
-0.678354 -33.076452 59.568798
-0.316317 -33.903744 58.825726
0.133396 -32.83706 58.658162
-1.534356 -33.296473 60.455179
-0.678354 -33.076452 59.568798
-2.326083 -33.52396 61.266758
-1.919793 -34.370622 60.547941
-1.534356 -33.296473 60.455179
-3.218772 -33.752496 62.108208
-2.326083 -33.52396 61.266758
-4.095105 -33.972425 62.929106
-3.587853 -34.818039 62.180418
-3.218772 -33.752496 62.108208
-5.008354 -34.171002 63.714854
-4.095105 -33.972425 62.929106
-5.439628 -35.307699 63.807794
-5.008354 -34.171002 63.714854
-29.963008 -33.846953 59.037079
-29.883593 -35.24503 59.187579
-29.959513 -33.421711 57.943285
-29.963008 -33.846953 59.037079
-29.936191 -33.066975 56.921671
-29.89962 -34.486477 57.13007
-29.959513 -33.421711 57.943285
3.23954 -31.982879 54.885219
3.964084 -31.780332 53.959501
-30.350423 -23.636518 32.741223
-30.28781 -25.448304 32.819631
-30.124471 -24.065221 33.606537
-30.040331 -17.837402 34.811724
-29.829617 -18.29083 35.663277
-30.283165 -17.469992 33.934063
-30.530219 -17.191435 33.105785
-30.169447 -19.299813 34.061449
-30.040331 -17.837402 34.811724
-30.283165 -17.469992 33.934063
-30.448693 -21.924279 32.640357
-30.299682 -20.592918 33.355959
-30.561291 -20.263762 32.468186
-30.350423 -23.636518 32.741223
-30.448693 -21.924279 32.640357
-17.477398 -57.100691 59.535179
-16.520349 -56.793214 59.491711
-17.17637 -55.879909 60.452054
-17.761247 -58.208702 58.652636
-17.477398 -57.100691 59.535179
-18.417268 -57.295397 59.612978
-18.002228 -59.299387 57.743719
-17.062358 -59.104681 57.66592
-17.761247 -58.208702 58.652636
-18.979892 -63.75929 53.611834
-18.15832 -63.526941 53.703483
-18.804922 -62.69516 54.666124
-22.85528 -62.247221 54.817644
-23.397847 -61.177323 55.624874
-23.634206 -62.133372 54.56315
-22.018987 -62.242272 55.063174
-22.85528 -62.247221 54.817644
-21.168869 -62.103745 55.359814
-21.768804 -61.152645 56.176008
-22.018987 -62.242272 55.063174
-20.522773 -63.06044 54.410727
-20.27259 -61.970814 55.523561
-21.168869 -62.103745 55.359814
-19.88121 -63.883195 53.589047
-20.522773 -63.06044 54.410727
-18.979892 -63.75929 53.611834
-19.88121 -63.883195 53.589047
-27.888711 -60.558226 50.926426
-28.226657 -59.310742 51.399746
-28.308764 -60.10079 50.258633
-27.391445 -60.944826 51.580799
-27.888711 -60.558226 50.926426
-26.899992 -61.261198 52.18475
-27.315151 -60.084549 52.671489
-27.391445 -60.944826 51.580799
-26.332772 -61.627077 52.62162
-26.899992 -61.261198 52.18475
-29.82066 -32.259383 54.885938
-29.812548 -33.758715 55.064489
-29.884412 -32.63241 55.929905
-29.723637 -31.884254 53.732547
-29.82066 -32.259383 54.885938
-29.795502 -30.757949 54.597963
-29.687732 -28.804522 53.1609
-29.800949 -29.225181 54.30534
-29.790202 -27.646883 54.021667
-29.589662 -23.637417 51.352672
-29.618538 -22.041638 51.185816
-29.466133 -24.806861 50.489277
-29.57364 -25.248782 51.529599
-29.589662 -23.637417 51.352672
-29.301324 -18.175989 39.10137
-29.337161 -19.520705 38.342098
-29.237482 -19.923174 39.207388
-29.301324 -18.175989 39.10137
-29.283235 -16.828235 39.810465
-29.262358 -15.646534 44.309192
-29.203262 -17.441119 44.496726
-29.251994 -15.167328 43.383934
-29.262358 -15.646534 44.309192
-29.199528 -16.491004 42.524197
-29.251994 -15.167328 43.383934
3.536872 -40.343443 50.495216
2.903391 -40.653824 51.33947
-1.114907 -44.291151 55.389528
-0.343241 -43.959269 54.531503
-0.769335 -43.189591 55.46719
-1.89655 -44.673637 56.16551
-2.321931 -43.941713 57.060448
-2.67748 -45.093878 56.900744
-1.114907 -44.291151 55.389528
-1.89655 -44.673637 56.16551
-8.529796 -49.475977 60.122434
-7.631852 -49.167278 59.557419
-8.248212 -48.375963 60.59292
-8.529796 -49.475977 60.122434
-9.443179 -49.835274 60.62158
-11.052479 -52.714889 59.778413
-10.68938 -51.466351 60.424219
-12.037446 -53.049751 60.190859
-11.052479 -52.714889 59.778413
-13.046801 -53.395357 60.547909
-12.037446 -53.049751 60.190859
-12.647913 -52.292421 61.120264
-13.954899 -53.872439 60.689251
-13.344431 -54.629768 59.759846
-13.046801 -53.395357 60.547909
-11.781813 -35.953153 68.272171
-12.770646 -36.093527 68.772628
-11.178323 -36.843601 67.704208
-11.781813 -35.953153 68.272171
-11.585904 -38.051693 67.630791
-10.579116 -37.769596 67.097297
-11.178323 -36.843601 67.704208
-26.115431 -39.751363 68.225597
-25.447325 -39.84481 68.703957
-26.281672 -40.924709 67.528854
-26.115431 -39.751363 68.225597
-26.689646 -39.71042 67.688557
-27.370523 -40.623357 66.358025
-27.212741 -39.551853 67.119339
-27.727377 -39.291444 66.48555
-28.96533 -39.646789 63.277723
-28.932653 -38.484079 64.071503
-29.215583 -38.261149 63.180884
-30.206272 -46.840794 40.671537
-30.26547 -47.775967 41.035654
-30.204614 -46.782429 41.601833
-30.15524 -45.832901 40.29291
-30.068216 -44.76878 40.97637
-30.07804 -44.754425 40.031563
-30.206272 -46.840794 40.671537
-30.15524 -45.832901 40.29291
-29.954455 -42.221638 38.552122
-29.922933 -42.383922 39.520832
-29.852488 -41.143699 39.199095
-29.939602 -40.870949 37.193722
-29.825043 -39.688738 37.875664
-29.880635 -39.578272 36.839001
-29.981117 -42.083717 37.566322
-29.939602 -40.870949 37.193722
-29.954455 -42.221638 38.552122
-29.981117 -42.083717 37.566322
-29.744661 -30.769035 35.254218
-29.778059 -29.259508 35.020712
-29.905597 -30.637743 34.332627
-29.741737 -32.387592 35.497611
-29.614198 -31.009357 36.185696
-29.744661 -30.769035 35.254218
-29.747609 -33.957811 35.697294
-29.741737 -32.387592 35.497611
-15.593065 -56.449834 59.405113
-16.520349 -56.793214 59.491711
-16.356876 -59.952575 56.616438
-16.698211 -61.070547 55.695288
3 0 83 82
3 0 82 84
3 1 318 320
3 320 319 86
3 318 319 320
3 2 89 87
3 3 92 90
3 5 321 323
3 321 94 322
3 321 322 323
3 324 96 325
3 326 98 327
3 328 327 96
3 326 327 328
3 329 100 330
3 331 102 332
3 333 332 100
3 331 332 333
3 3 104 103
3 3 90 104
3 5 334 335
3 5 336 337
3 4 108 106
3 6 111 109
3 8 115 113
3 9 118 116
3 11 121 119
3 11 123 121
3 338 127 339
3 340 339 125
3 338 339 340
3 341 129 342
3 343 342 127
3 341 342 343
3 344 131 345
3 346 345 129
3 344 345 346
3 12 347 349
3 349 348 132
3 347 348 349
3 12 350 352
3 350 133 351
3 350 351 352
3 7 136 134
3 13 139 137
3 13 141 139
3 13 142 141
3 14 145 143
3 14 147 145
3 15 353 354
3 15 355 357
3 355 148 356
3 355 356 357
3 15 150 148
3 16 153 151
3 16 155 153
3 16 157 155
3 17 160 158
3 17 162 160
3 358 164 359
3 18 167 165
3 18 169 167
3 18 171 169
3 9 174 172
3 9 116 174
3 10 178 176
3 361 360 179
3 363 362 181
3 19 364 365
3 20 184 182
3 19 185 85
3 19 366 368
3 368 367 185
3 366 367 368
3 22 188 186
3 24 189 88
3 24 369 371
3 371 370 189
3 369 370 371
3 25 192 190
3 27 193 91
3 27 194 193
3 372 195 373
3 375 374 195
3 29 197 196
3 31 198 93
3 31 199 198
3 376 202 377
3 378 377 200
3 376 377 378
3 33 203 95
3 33 204 203
3 33 206 204
3 35 207 97
3 35 208 207
3 36 379 380
3 36 381 383
3 381 209 382
3 381 382 383
3 36 211 209
3 38 212 99
3 38 213 212
3 38 215 213
3 40 216 101
3 40 217 216
3 42 384 386
3 384 219 385
3 384 385 386
3 42 220 219
3 42 222 220
3 25 223 105
3 25 190 223
3 29 387 388
3 29 389 391
3 389 196 390
3 389 390 391
3 44 226 224
3 46 392 394
3 394 393 107
3 392 393 394
3 46 395 396
3 47 229 227
3 49 230 110
3 49 397 399
3 399 398 230
3 397 398 399
3 21 231 183
3 51 235 233
3 53 236 112
3 53 237 236
3 400 238 401
3 403 402 238
3 54 240 239
3 56 241 114
3 56 242 241
3 23 243 187
3 48 244 228
3 57 247 245
3 59 248 117
3 59 249 248
3 26 250 191
3 60 251 120
3 60 252 251
3 60 253 252
3 61 254 122
3 61 255 254
3 404 256 405
3 62 257 124
3 62 258 257
3 28 406 408
3 406 259 407
3 406 407 408
3 63 260 126
3 63 261 260
3 63 262 261
3 64 263 128
3 64 264 263
3 64 265 264
3 409 266 410
3 411 410 130
3 409 410 411
3 413 412 266
3 30 414 415
3 50 267 232
3 65 268 135
3 65 269 268
3 32 270 201
3 66 271 138
3 66 272 271
3 66 273 272
3 417 416 140
3 67 418 419
3 67 420 421
3 34 274 205
3 68 275 144
3 68 422 424
3 424 423 275
3 422 423 424
3 68 425 427
3 425 276 426
3 425 426 427
3 69 277 146
3 69 278 277
3 70 428 429
3 70 430 432
3 430 279 431
3 430 431 432
3 70 280 279
3 71 281 149
3 71 282 281
3 37 283 210
3 72 284 152
3 72 285 284
3 72 286 285
3 73 287 154
3 73 288 287
3 73 289 288
3 74 290 156
3 74 291 290
3 39 292 214
3 75 293 159
3 75 294 293
3 75 295 294
3 76 296 161
3 76 297 296
3 433 298 434
3 77 299 163
3 77 300 299
3 41 301 218
3 78 302 166
3 78 303 302
3 78 304 303
3 79 305 168
3 79 306 305
3 79 307 306
3 80 308 170
3 80 309 308
3 43 310 221
3 81 311 173
3 81 312 311
3 81 313 312
3 57 314 175
3 57 245 314
3 58 315 246
3 436 435 177
3 45 316 225
3 52 317 234
3 438 437 180
3 55 439 440
3 82 441 443
3 443 442 19
3 441 442 443
3 83 444 446
3 446 445 82
3 444 445 446
3 83 447 448
3 84 85 20
3 82 85 84
3 82 19 85
3 86 449 450
3 452 451 86
3 87 88 22
3 89 88 87
3 89 24 88
3 90 91 25
3 92 91 90
3 92 27 91
3 453 93 454
3 455 454 29
3 453 454 455
3 94 456 458
3 456 93 457
3 456 457 458
3 94 31 93
3 459 95 460
3 96 461 463
3 461 95 462
3 461 462 463
3 96 33 95
3 96 97 33
3 98 97 96
3 98 35 97
3 464 36 465
3 466 99 467
3 468 467 36
3 466 467 468
3 100 469 471
3 469 99 470
3 469 470 471
3 100 38 99
3 100 101 38
3 102 101 100
3 102 40 101
3 103 472 473
3 104 474 476
3 476 475 103
3 474 475 476
3 104 477 479
3 477 42 478
3 477 478 479
3 104 105 42
3 90 105 104
3 90 25 105
3 480 29 481
3 106 107 44
3 108 107 106
3 108 46 107
3 109 110 47
3 111 110 109
3 111 49 110
3 483 482 21
3 484 112 485
3 486 485 51
3 484 485 486
3 487 112 488
3 489 53 490
3 491 490 112
3 489 490 491
3 113 114 54
3 115 114 113
3 115 56 114
3 493 492 23
3 495 494 48
3 116 117 57
3 118 117 116
3 118 59 117
3 119 120 26
3 121 120 119
3 121 60 120
3 121 122 60
3 123 122 121
3 123 61 122
3 496 124 497
3 498 124 499
3 500 62 501
3 502 501 124
3 500 501 502
3 125 126 28
3 127 126 125
3 127 63 126
3 127 128 63
3 129 128 127
3 129 64 128
3 129 130 64
3 131 130 129
3 131 503 505
3 505 504 130
3 503 504 505
3 132 506 508
3 508 507 30
3 506 507 508
3 510 509 132
3 133 511 512
3 133 513 514
3 134 135 50
3 136 135 134
3 136 65 135
3 137 138 32
3 139 138 137
3 139 66 138
3 139 140 66
3 141 140 139
3 141 515 517
3 517 516 140
3 515 516 517
3 141 518 519
3 142 520 522
3 522 521 141
3 520 521 522
3 142 523 525
3 523 67 524
3 523 524 525
3 143 144 34
3 145 144 143
3 145 68 144
3 145 146 68
3 147 146 145
3 147 69 146
3 148 526 527
3 148 528 530
3 528 70 529
3 528 529 530
3 148 149 70
3 150 149 148
3 150 71 149
3 151 152 37
3 153 152 151
3 153 72 152
3 153 154 72
3 155 154 153
3 155 73 154
3 155 156 73
3 157 156 155
3 157 74 156
3 158 159 39
3 160 159 158
3 160 75 159
3 160 161 75
3 162 161 160
3 162 76 161
3 531 163 532
3 164 533 535
3 533 163 534
3 533 534 535
3 164 77 163
3 165 166 41
3 167 166 165
3 167 78 166
3 167 168 78
3 169 168 167
3 169 79 168
3 169 170 79
3 171 170 169
3 171 80 170
3 172 173 43
3 174 173 172
3 174 81 173
3 174 175 81
3 116 175 174
3 116 57 175
3 176 177 58
3 178 177 176
3 178 536 538
3 538 537 177
3 536 537 538
3 540 539 45
3 179 180 52
3 541 180 542
3 543 542 179
3 541 542 543
3 545 544 180
3 181 546 548
3 548 547 55
3 546 547 548
3 550 549 181
3 552 551 19
3 182 183 6
3 184 183 182
3 184 21 183
3 85 184 20
3 185 184 85
3 185 21 184
3 185 553 555
3 555 554 21
3 553 554 555
3 557 556 185
3 186 187 8
3 188 187 186
3 188 23 187
3 88 188 22
3 189 188 88
3 189 23 188
3 189 558 560
3 560 559 23
3 558 559 560
3 562 561 189
3 190 191 9
3 192 191 190
3 192 26 191
3 91 192 25
3 193 192 91
3 193 26 192
3 193 119 26
3 194 119 193
3 194 11 119
3 563 28 564
3 195 565 566
3 195 567 569
3 567 28 568
3 567 568 569
3 195 125 28
3 570 125 571
3 572 571 195
3 570 571 572
3 574 573 125
3 196 575 576
3 197 577 579
3 579 578 196
3 577 578 579
3 197 580 582
3 580 30 581
3 580 581 582
3 93 197 29
3 198 197 93
3 198 30 197
3 198 132 30
3 199 132 198
3 199 12 132
3 200 201 7
3 202 201 200
3 202 32 201
3 95 583 585
3 583 202 584
3 583 584 585
3 203 202 95
3 203 32 202
3 203 137 32
3 204 137 203
3 204 13 137
3 204 205 13
3 206 205 204
3 206 34 205
3 97 206 33
3 207 206 97
3 207 34 206
3 207 143 34
3 208 143 207
3 208 14 143
3 209 586 587
3 209 588 590
3 588 15 589
3 588 589 590
3 209 210 15
3 211 210 209
3 211 37 210
3 99 211 36
3 212 211 99
3 212 37 211
3 212 151 37
3 213 151 212
3 213 16 151
3 213 214 16
3 215 214 213
3 215 39 214
3 101 215 38
3 216 215 101
3 216 39 215
3 216 158 39
3 217 158 216
3 217 17 158
3 591 218 592
3 593 218 594
3 595 41 596
3 597 596 218
3 595 596 597
3 219 598 599
3 219 600 602
3 600 41 601
3 600 601 602
3 219 165 41
3 220 165 219
3 220 18 165
3 220 221 18
3 222 221 220
3 222 43 221
3 105 222 42
3 223 222 105
3 223 43 222
3 223 172 43
3 190 172 223
3 190 9 172
3 196 603 604
3 196 605 606
3 224 225 10
3 226 225 224
3 226 45 225
3 107 226 44
3 607 226 608
3 609 608 107
3 607 608 609
3 610 45 611
3 612 611 226
3 610 611 612
3 614 613 45
3 227 228 2
3 229 228 227
3 229 48 228
3 110 229 47
3 230 229 110
3 230 48 229
3 230 615 617
3 617 616 48
3 615 616 617
3 619 618 230
3 183 111 6
3 231 111 183
3 231 49 111
3 620 231 621
3 622 621 21
3 620 621 622
3 623 231 624
3 625 49 626
3 627 626 231
3 625 626 627
3 629 628 49
3 631 630 3
3 632 232 633
3 634 633 5
3 632 633 634
3 635 232 636
3 637 50 638
3 639 638 232
3 637 638 639
3 640 50 641
3 642 134 643
3 644 643 50
3 642 643 644
3 645 134 646
3 647 7 648
3 649 648 134
3 647 648 649
3 650 7 651
3 652 200 653
3 654 653 7
3 652 653 654
3 655 200 656
3 658 657 200
3 659 103 660
3 661 103 662
3 663 3 664
3 665 664 103
3 663 664 665
3 666 5 667
3 233 234 4
3 235 234 233
3 235 52 234
3 112 235 51
3 236 235 112
3 236 52 235
3 236 179 52
3 237 179 236
3 237 668 670
3 670 669 179
3 668 669 670
3 671 53 672
3 238 673 674
3 238 675 677
3 675 53 676
3 675 676 677
3 238 237 53
3 678 237 679
3 680 679 238
3 678 679 680
3 682 681 237
3 239 683 685
3 685 684 1
3 683 684 685
3 240 686 688
3 688 687 239
3 686 687 688
3 240 689 691
3 689 55 690
3 689 690 691
3 114 240 54
3 241 240 114
3 241 55 240
3 241 181 55
3 242 181 241
3 242 692 694
3 694 693 181
3 692 693 694
3 187 115 8
3 243 115 187
3 243 56 115
3 695 243 696
3 697 696 23
3 695 696 697
3 698 243 699
3 700 56 701
3 702 701 243
3 700 701 702
3 703 242 704
3 705 704 56
3 703 704 705
3 706 242 707
3 709 708 242
3 228 89 2
3 244 89 228
3 244 24 89
3 710 244 711
3 712 711 48
3 710 711 712
3 713 244 714
3 715 24 716
3 717 716 244
3 715 716 717
3 719 718 24
3 245 246 0
3 247 246 245
3 247 58 246
3 117 247 57
3 248 247 117
3 248 58 247
3 248 176 58
3 249 176 248
3 249 10 176
3 191 118 9
3 250 118 191
3 250 59 118
3 120 250 26
3 251 250 120
3 251 59 250
3 251 249 59
3 252 249 251
3 252 10 249
3 252 224 10
3 253 224 252
3 253 44 224
3 122 253 60
3 254 253 122
3 254 44 253
3 254 106 44
3 255 106 254
3 255 4 106
3 720 92 721
3 722 721 3
3 720 721 722
3 256 723 725
3 723 92 724
3 723 724 725
3 256 27 92
3 124 726 728
3 726 256 727
3 726 727 728
3 257 256 124
3 257 27 256
3 257 194 27
3 258 194 257
3 258 11 194
3 259 729 730
3 259 731 733
3 731 62 732
3 731 732 733
3 126 259 28
3 260 259 126
3 260 62 259
3 260 258 62
3 261 258 260
3 261 11 258
3 261 123 11
3 262 123 261
3 262 61 123
3 128 262 63
3 263 262 128
3 263 61 262
3 263 255 61
3 264 255 263
3 264 4 255
3 264 233 4
3 265 233 264
3 265 51 233
3 130 265 64
3 266 265 130
3 266 51 265
3 266 734 736
3 736 735 51
3 734 735 736
3 738 737 266
3 739 131 740
3 741 131 742
3 744 743 131
3 746 745 30
3 232 94 5
3 267 94 232
3 267 31 94
3 135 267 50
3 268 267 135
3 268 31 267
3 268 199 31
3 269 199 268
3 269 12 199
3 201 136 7
3 270 136 201
3 270 65 136
3 138 270 32
3 271 270 138
3 271 65 270
3 271 269 65
3 272 269 271
3 272 12 269
3 272 133 12
3 273 133 272
3 273 747 749
3 749 748 133
3 747 748 749
3 140 273 66
3 750 273 751
3 752 751 140
3 750 751 752
3 754 753 273
3 205 142 13
3 274 142 205
3 274 67 142
3 144 274 34
3 275 274 144
3 275 67 274
3 275 755 757
3 757 756 67
3 755 756 757
3 759 758 275
3 276 760 761
3 276 762 763
3 146 276 68
3 277 276 146
3 277 764 766
3 766 765 276
3 764 765 766
3 277 767 769
3 767 86 768
3 767 768 769
3 278 86 277
3 278 1 86
3 279 770 771
3 279 772 773
3 279 774 776
3 774 98 775
3 774 775 776
3 280 98 279
3 280 35 98
3 149 280 70
3 281 280 149
3 281 35 280
3 281 208 35
3 282 208 281
3 282 14 208
3 210 150 15
3 283 150 210
3 283 71 150
3 152 283 37
3 284 283 152
3 284 71 283
3 284 282 71
3 285 282 284
3 285 14 282
3 285 147 14
3 286 147 285
3 286 69 147
3 154 286 72
3 287 286 154
3 287 69 286
3 287 278 69
3 288 278 287
3 288 1 278
3 288 239 1
3 289 239 288
3 289 54 239
3 156 289 73
3 290 289 156
3 290 54 289
3 290 113 54
3 291 113 290
3 291 8 113
3 214 157 16
3 292 157 214
3 292 74 157
3 159 292 39
3 293 292 159
3 293 74 292
3 293 291 74
3 294 291 293
3 294 8 291
3 294 186 8
3 295 186 294
3 295 22 186
3 161 295 75
3 296 295 161
3 296 22 295
3 296 87 22
3 297 87 296
3 297 2 87
3 777 102 778
3 298 779 781
3 779 102 780
3 779 780 781
3 298 40 102
3 163 782 784
3 782 298 783
3 782 783 784
3 299 298 163
3 299 40 298
3 299 217 40
3 300 217 299
3 300 17 217
3 218 785 787
3 785 164 786
3 785 786 787
3 301 164 218
3 301 77 164
3 166 301 41
3 302 301 166
3 302 77 301
3 302 300 77
3 303 300 302
3 303 17 300
3 303 162 17
3 304 162 303
3 304 76 162
3 168 304 78
3 305 304 168
3 305 76 304
3 305 297 76
3 306 297 305
3 306 2 297
3 306 227 2
3 307 227 306
3 307 47 227
3 170 307 79
3 308 307 170
3 308 47 307
3 308 109 47
3 309 109 308
3 309 6 109
3 221 171 18
3 310 171 221
3 310 80 171
3 173 310 43
3 311 310 173
3 311 80 310
3 311 309 80
3 312 309 311
3 312 6 309
3 312 182 6
3 313 182 312
3 313 20 182
3 175 313 81
3 314 313 175
3 314 20 313
3 314 84 20
3 245 84 314
3 245 0 84
3 246 83 0
3 315 83 246
3 315 788 790
3 790 789 83
3 788 789 790
3 177 315 58
3 791 315 792
3 793 792 177
3 791 792 793
3 795 794 315
3 225 178 10
3 316 178 225
3 316 796 798
3 798 797 178
3 796 797 798
3 799 316 800
3 801 800 45
3 799 800 801
3 802 316 803
3 805 804 316
3 234 108 4
3 317 108 234
3 317 46 108
3 180 317 52
3 806 317 807
3 808 807 180
3 806 807 808
3 809 46 810
3 811 810 317
3 809 810 811
3 813 812 46
3 815 814 1
3 817 816 55
