ply
format ascii 1.0
element vertex 817
property float x
property float y
property float z
element face 977
property list uchar int vertex_index
end_header
-30.491217 -46.420429 9.835872
-30.386616 -47.858967 27.739241
-32.943993 -22.93224 24.612963
-28.231169 -42.448837 -7.817873
-30.183189 -55.922695 40.520325
-29.774479 -57.993149 31.315214
-30.276159 -47.993801 36.287872
-30.513762 -25.0196 31.954317
-28.126276 -57.573799 12.193204
-25.757992 -66.42749 5.78307
-26.737314 -56.42067 2.631751
-25.242714 -54.099174 -6.452899
-29.665609 -45.022064 0.893556
-29.183393 -57.954983 21.899961
-30.635908 -47.285416 18.872149
-30.132353 -37.680279 33.467941
-31.356112 -36.445007 25.68078
-32.956169 -34.974724 17.389816
-34.725315 -7.571092 23.840374
-35.602772 -20.777082 16.563877
-33.866611 -33.575588 8.662981
-25.853567 -39.158489 -15.450316
-30.319075 -52.294109 38.163376
-30.267128 -47.834332 40.105358
-22.248323 -39.569366 -21.122183
-29.148973 -52.14209 10.88497
-27.506269 -56.934261 7.429695
-28.682524 -51.433903 6.227519
-28.027819 -50.727699 1.476557
-30.165236 -45.762459 5.272201
-30.079599 -53.171291 29.280075
-29.500776 -58.169167 26.656122
-29.960217 -52.998615 24.748381
-29.784655 -52.946308 20.254616
-30.509933 -47.707867 23.257046
-31.628489 -24.175354 28.310228
-31.064917 -30.862476 28.859095
-32.097111 -29.785362 25.104902
-32.176178 -35.558521 21.661152
-33.21207 -28.946411 21.177011
-33.881847 -0.840453 27.112886
-35.50106 0.74876 23.321304
-35.07333 -27.442982 12.743294
-24.965277 -65.926804 0.646303
-26.526525 -48.546951 -7.228508
-24.44108 -52.474934 -10.473188
-25.644426 -46.731396 -11.254107
-24.646072 -44.633011 -14.858837
-27.139229 -40.754791 -11.920429
-29.602507 -60.966717 38.415878
-29.338963 -62.195393 33.672211
-30.020645 -57.241795 35.973682
-30.223713 -52.850487 33.920994
-30.302925 -48.042149 32.147114
-32.317379 -16.71244 27.966585
-27.495924 -62.643124 14.008441
-26.806616 -62.055412 9.081034
-25.994301 -61.534626 3.997572
-25.201193 -60.841812 -0.779384
-26.007074 -55.446148 -1.990409
-27.363962 -49.751171 -2.853372
-29.122988 -43.636818 -3.538475
-29.034275 -62.748367 28.869493
-28.623516 -63.022011 23.921667
-28.141218 -62.854691 19.084496
-28.710236 -57.900925 17.149403
-29.49917 -52.713528 15.486745
-30.679102 -46.768402 14.420677
-30.0249 -43.461861 38.873859
-30.167894 -43.077381 34.789783
-30.411425 -42.904785 30.736109
-30.237602 -31.53974 32.532894
-30.674793 -36.872692 29.562943
-30.799004 -42.204433 26.575027
-31.236755 -42.032249 22.291868
-31.670443 -41.552063 18.071678
-31.98892 -40.977417 13.571249
-33.06601 -9.267693 27.609165
-33.804829 -15.400208 24.36441
-36.339832 -6.114251 19.843159
-35.37492 -14.186156 20.383707
-34.325211 -21.748318 20.748053
-34.236252 -28.302549 17.057055
-33.542397 -34.348831 13.058416
-32.103783 -40.247459 9.113073
-31.976341 -39.533031 4.897191
-31.59189 -38.552734 0.196476
-24.474083 -37.103031 -18.702137
-23.413813 -42.187668 -18.33728
-30.335917 -49.628315 41.022503
-22.763803 -37.246151 -21.136366
-21.791363 -37.93544 -22.261726
-29.81595 -49.258118 10.487147
-28.942884 -51.813686 8.667343
-29.615316 -48.98634 8.086806
-29.421925 -48.555153 5.77656
-30.403902 -45.936172 7.601927
-30.235735 -50.42305 28.5399
-30.032715 -52.955845 27.067362
-30.230976 -50.356098 26.32477
-30.210363 -50.440346 23.997688
-30.449162 -47.762844 25.501717
-32.279133 -23.29682 26.514225
-31.901575 -26.879765 26.742411
-32.50341 -26.281773 24.918062
-32.637669 -29.472332 23.16316
-33.141235 -25.980898 22.893354
-35.959099 4.940047 22.644814
-27.35634 -45.478973 -7.568209
-26.104271 -47.614788 -9.338272
-26.860823 -44.770969 -9.600348
-26.374763 -43.894638 -11.49216
-27.69615 -41.721016 -9.89005
-29.952072 -58.386257 39.558891
-29.863108 -59.047108 37.250355
-30.12254 -56.531944 38.196186
-30.314716 -50.212364 37.236263
-30.280941 -52.483871 36.034592
-30.293415 -50.321072 35.040688
-30.262503 -50.666271 32.835613
-30.285158 -47.957752 34.184811
-31.62397 -17.615129 29.687527
-31.953028 -13.798199 29.555073
-27.796902 -59.985283 13.052801
-27.138342 -62.447247 11.485378
-27.416929 -59.919292 10.536277
-27.146355 -56.630806 5.028566
-26.681656 -59.375092 5.693918
-26.295324 -59.046486 3.286115
-25.589495 -61.165733 1.500412
-25.923128 -58.583584 0.892518
-25.52301 -58.221195 -1.415281
-26.407217 -55.862247 0.34034
-28.856169 -47.863987 1.298712
-27.679983 -50.365341 -0.690929
-28.51902 -47.341007 -1.08619
-28.168922 -46.760807 -3.344713
-29.44873 -44.238781 -1.357478
-29.577793 -60.194817 32.444962
-29.185572 -62.575993 31.25708
-29.431812 -60.464771 30.14222
-29.353325 -58.096703 24.320105
-29.107189 -60.535385 25.339033
-28.889631 -60.596878 22.876955
-28.384274 -63.009075 21.450785
-28.676815 -60.399147 20.454853
-28.374746 -60.446899 17.898106
-28.961426 -57.953453 19.538214
-30.165369 -50.241531 19.427572
-29.6658 -52.810631 17.867956
-30.09849 -50.175407 17.228275
-30.035139 -49.872124 14.922357
-30.633883 -47.24295 16.592897
-29.923029 -38.02906 35.498386
-29.995195 -40.760483 36.157059
-30.135374 -40.402721 34.07312
-30.272791 -42.730141 32.779762
-30.314287 -40.23259 32.025707
-30.358683 -28.479147 32.176743
-31.282045 -33.626175 27.166016
-30.847628 -33.749233 29.242624
-31.000599 -36.465061 27.701996
-30.769859 -39.570644 28.159216
-31.04574 -39.33374 26.191507
-31.011803 -42.168171 24.450638
-31.353497 -39.173161 24.081451
-32.56155 -35.495132 19.4387
-31.983608 -38.639599 19.914385
-32.298904 -38.327686 17.66518
-31.873751 -41.183186 15.821004
-32.563076 -38.006104 15.449482
-34.311035 -4.294697 25.486008
-33.491322 -5.130487 27.339708
-33.891941 -8.452744 25.733202
-33.499241 -12.400336 25.872349
-34.299377 -11.689994 24.005854
-36.800365 -1.935486 19.392408
-36.095798 -13.570411 18.345694
-35.520538 -17.522486 18.630461
-34.856617 -18.194395 20.51557
-35.003426 -21.184126 18.679302
-34.383114 -25.014132 18.85804
-34.924133 -24.47003 16.92919
-34.547058 -30.605764 10.756207
-34.319214 -30.903509 12.927932
-33.740959 -33.97316 10.878396
-32.903915 -37.33844 11.091843
-32.976528 -36.975956 8.874529
-32.097927 -39.793953 7.000101
-32.983574 -36.608402 6.775462
-26.115307 -66.791336 8.350996
-23.951084 -51.570629 -12.511551
-25.19582 -41.88834 -15.2371
-24.022171 -43.482483 -16.673548
-24.591988 -40.839539 -16.872663
-23.989252 -39.659531 -18.41157
-25.21361 -38.065289 -17.103437
-30.316832 -53.533024 41.33992
-30.280542 -54.096565 39.200172
-30.347885 -51.804626 40.182812
-30.329823 -50.065395 39.161098
-30.275316 -48.068306 38.295181
-28.596312 -54.951279 11.621951
-27.824711 -57.347683 9.902024
-28.349817 -54.554131 9.242258
-28.060974 -54.191154 6.848154
-27.681166 -54.028515 4.449567
-27.368944 -53.489162 2.086105
-28.357233 -51.157097 3.851241
-29.100971 -48.363663 3.432726
-30.015837 -45.184879 3.124067
-29.932507 -55.676193 30.264874
-29.652269 -58.015366 28.983232
-29.835043 -55.613552 27.966753
-29.748341 -55.47213 25.809195
-29.598648 -55.657608 23.409246
-29.46841 -55.496616 21.106749
-29.883635 -52.993202 22.540712
-30.201477 -50.31797 21.73934
-30.559633 -47.643017 21.05372
-29.665274 -35.538692 36.943779
-29.883945 -35.287708 34.9655
-31.073849 -24.502691 30.053064
-30.834949 -27.863527 30.327185
-31.338087 -27.67362 28.505127
-31.559782 -30.409834 26.971987
-31.728361 -33.061836 25.321177
-31.757275 -35.869675 23.760973
-32.188328 -32.63118 23.46032
-32.673912 -32.449375 21.348959
-33.130039 -32.09296 19.384472
-34.733311 -0.145039 25.118982
-35.174362 -3.455963 23.494326
-35.405663 -24.292044 14.653295
-25.885723 -51.207176 -6.822544
-24.841373 -53.442154 -8.449098
-25.421307 -50.561298 -8.915285
-24.969206 -49.623562 -10.963132
-24.585949 -48.516155 -12.722729
-24.099234 -47.448914 -14.513776
-25.178089 -45.666363 -13.096697
-25.838125 -42.848392 -13.386092
-26.560301 -39.911167 -13.680256
-29.50528 -61.517818 36.147663
-29.714577 -59.804523 34.806263
-29.916178 -57.568901 33.64603
-30.226477 -54.57914 37.030453
-30.150579 -55.067974 34.952785
-30.057905 -55.281075 32.594154
-30.151346 -53.091888 31.587477
-30.239628 -50.648235 30.756084
-30.334015 -48.013992 29.931549
-30.710302 -21.595123 31.752584
-31.323296 -21.13204 29.881159
-31.992298 -20.478748 28.037792
-32.68848 -19.647682 26.270332
-36.695507 5.698514 20.723604
-27.300743 -65.053291 15.115637
-26.917917 -64.911522 12.349843
-26.574505 -64.530136 9.809471
-26.210567 -64.28933 7.36253
-27.072807 -59.590294 8.116837
-26.393017 -61.928436 6.552022
-25.787428 -64.044609 4.652013
-25.42577 -63.644749 2.313702
-25.035368 -63.428429 0.019277
-24.830635 -60.282894 -3.040659
-25.100449 -57.743019 -3.799956
-25.587679 -54.926922 -4.32749
-26.988255 -53.105354 -0.256154
-26.594152 -52.66378 -2.557842
-26.198383 -52.150509 -4.727746
-26.94754 -49.314831 -4.988434
-27.745502 -46.292774 -5.47237
-28.718391 -43.120125 -5.615512
-29.299442 -60.460529 27.902658
-28.860239 -62.824394 26.460106
-27.851858 -62.656292 16.556379
-28.087679 -60.316784 15.503299
-28.429142 -57.756611 14.642009
-29.302137 -55.378773 18.76502
-29.085026 -55.301586 16.332142
-28.827875 -55.227039 13.889509
-29.333282 -52.429737 13.12332
-29.935953 -49.58049 12.663248
-30.588783 -46.69524 12.111073
-30.165064 -45.818546 39.348103
-30.182003 -45.60516 37.489235
-30.078224 -43.18602 36.90226
-30.22035 -45.60955 35.570644
-30.274158 -45.449593 33.487556
-30.346823 -45.449844 31.409485
-30.441898 -45.438625 29.255987
-29.8722 -32.14727 34.566132
-30.141809 -34.53545 33.084301
-30.627699 -31.088079 30.71287
-30.470179 -34.114651 31.162432
-30.370674 -37.202377 31.58396
-30.514158 -39.822083 30.176548
-30.584259 -42.559952 28.684519
-30.563721 -45.215839 27.17293
-30.698893 -45.06546 25.03688
-30.845306 -44.892605 22.889452
-30.991978 -44.696461 20.723072
-31.673717 -38.829308 22.057241
-31.486727 -41.621368 20.2006
-31.10754 -44.571426 18.478754
-31.251373 -44.145069 16.241928
-31.271137 -44.085789 13.96193
-31.283676 -43.799919 11.731889
-32.70652 -5.990943 29.131945
-32.300385 -10.070514 29.383553
-32.734581 -13.222408 27.632624
-33.055962 -16.268673 26.111597
-33.404144 -19.460886 24.329313
-36.341282 1.222127 21.183586
-35.985363 -2.566291 21.548225
-35.533501 -6.735352 21.929586
-35.83765 -10.104767 20.270731
-35.051994 -11.009907 22.204809
-34.598415 -14.952834 22.358053
-34.155319 -18.428497 22.522778
-33.62463 -22.282011 22.766977
-33.797836 -25.277775 20.918295
-33.741425 -28.533949 19.220119
-33.581722 -31.609491 17.370806
-34.716797 -27.750952 14.890108
-33.979107 -31.31171 15.137114
-33.265751 -34.721581 15.271471
-32.764774 -37.678776 13.28133
-32.063736 -40.670712 11.358313
-31.297733 -43.296104 9.458395
-31.21649 -42.962482 7.27678
-31.056915 -42.722347 5.16644
-30.931459 -42.103222 2.890738
-31.822947 -39.077507 2.585059
-30.667322 -41.731903 0.648234
-30.379299 -41.177322 -1.630559
-29.996037 -40.676765 -3.879376
-29.627003 -39.930859 -6.029637
-29.112274 -39.308964 -8.171144
-28.590982 -38.465965 -10.208059
-28.015779 -37.714199 -12.046179
-27.232885 -37.052235 -14.035019
-26.532913 -36.180721 -15.782736
-25.766338 -35.429729 -17.416981
-23.792509 -36.152569 -20.075718
-23.509621 -46.331577 -16.359138
-22.8202 -40.856026 -19.82066
-23.351236 -38.407879 -19.887129
-22.552661 -36.569399 -21.636398
-22.97374 -36.392685 -21.134922
-36.098289 7.03733 22.434802
-35.680819 6.45019 23.499026
-30.088224 -56.834173 41.205597
-30.200581 -55.555418 41.593014
-30.06763 -57.154476 40.039608
-29.972665 -58.065954 40.72488
-30.088224 -56.834173 41.205597
-31.763685 -12.301865 30.364013
-31.604539 -14.132077 30.455011
-30.436222 -26.749374 32.06553
-30.21027 -27.178077 32.930844
-30.28781 -25.448304 32.819631
-35.561655 -19.149784 17.597169
-35.842167 -17.29956 17.562869
-35.883284 -18.926858 16.529577
-25.753209 -67.665177 6.20606
-25.931866 -67.847099 7.490023
-25.93665 -66.609413 7.067033
-24.824202 -55.100305 -7.208933
-24.996108 -55.529711 -6.204031
-23.535459 -52.402963 -13.247582
-23.765457 -50.919848 -13.379217
-30.355174 -51.586561 41.163961
-30.332359 -52.668825 40.761366
-30.339648 -52.45076 41.742515
-30.339648 -52.45076 41.742515
-30.323381 -53.177416 42.422855
-21.747649 -39.948499 -21.740671
-22.018835 -40.746629 -21.106336
-21.275672 -38.18951 -22.890859
-21.561608 -37.106554 -22.798376
-29.638274 -34.083303 36.686434
-29.543371 -34.387981 37.662743
-29.747609 -33.957811 35.697294
-29.77461 -35.4132 35.954639
-29.638274 -34.083303 36.686434
-35.117186 0.30186 24.220143
-34.913786 1.999838 24.952982
-35.297661 2.446737 24.054144
-25.003255 -67.112133 1.075965
-25.168934 -66.086712 1.946819
-29.553894 -61.242267 37.281771
-29.334534 -62.459278 36.796602
-29.383147 -62.183728 37.930709
-29.426795 -61.806349 39.163437
-29.644827 -60.563952 39.596708
-29.383147 -62.183728 37.930709
-29.426795 -61.806349 39.163437
-30.84441 -19.85689 31.62072
-30.561291 -20.263762 32.468186
-31.150907 -19.625349 30.685008
-31.016799 -21.363582 30.816871
-30.84441 -19.85689 31.62072
-24.911853 -61.845442 -1.648905
-24.828941 -63.138751 -1.249574
-25.11828 -62.13512 -0.380053
-25.015914 -60.562353 -1.910021
-24.726574 -61.565983 -2.779542
-24.911853 -61.845442 -1.648905
-29.108382 -63.405367 33.143656
-29.192685 -63.095015 34.324038
-28.895269 -63.757362 29.491416
-28.970917 -63.671175 30.68521
-29.109924 -62.66218 30.063286
-28.791089 -63.976837 28.266829
-28.895269 -63.757362 29.491416
-28.492822 -64.145332 24.496645
-28.611184 -64.046524 25.765864
-28.741878 -62.923203 25.190886
-28.386893 -64.128743 23.233762
-28.492822 -64.145332 24.496645
-28.002417 -64.142735 19.565856
-28.123946 -64.219927 20.749001
-28.262746 -62.931883 20.26764
-27.875363 -64.021985 18.340513
-28.002417 -64.142735 19.565856
-27.996538 -62.755492 17.820438
-27.730683 -63.922785 17.076454
-27.875363 -64.021985 18.340513
-30.094982 -44.640203 39.110981
-30.07804 -44.754425 40.031563
-30.007958 -43.576082 39.794441
-30.054901 -31.843505 33.549513
-29.905597 -30.637743 34.332627
-30.088299 -30.333978 33.316007
-33.479805 -1.461751 28.010334
-33.673246 0.754152 27.880636
-36.744942 1.678665 20.100465
-36.518394 3.46032 20.953595
-36.922055 3.916859 19.870475
-31.707418 -38.81512 1.390768
-32.274581 -37.491672 2.364574
-32.159053 -37.229286 1.170283
-30.485976 -39.072371 -3.985436
-30.65126 -39.344406 -2.95771
-30.301459 -38.699417 -5.060567
-29.81152 -40.303812 -4.954506
-30.485976 -39.072371 -3.985436
-29.583818 -37.680855 -8.297213
-29.817197 -38.057436 -7.272832
-29.323172 -37.259355 -9.31567
-28.851628 -38.887465 -9.189602
-29.583818 -37.680855 -8.297213
-28.351365 -36.279305 -12.263442
-28.75134 -36.514385 -11.230809
-27.959918 -35.948323 -13.257862
-27.624332 -37.383217 -13.040599
-28.351365 -36.279305 -12.263442
-26.826745 -34.805011 -15.968695
-27.222707 -35.170902 -15.084761
-26.443458 -34.429516 -16.785818
-26.149625 -35.805225 -16.599858
-26.826745 -34.805011 -15.968695
-24.193872 -53.898842 -10.321463
-24.394019 -54.382452 -9.309418
-24.641227 -52.958544 -9.461143
-23.186959 -43.524681 -18.206326
-23.491138 -44.172089 -17.37446
-23.717992 -42.835076 -17.505414
-22.888112 -42.82781 -18.998514
-23.186959 -43.524681 -18.206326
-23.117007 -41.521847 -19.07897
-22.591305 -42.16199 -19.740204
-22.888112 -42.82781 -18.998514
-30.334609 -49.435278 41.90083
-30.34919 -50.498406 41.583807
-30.299865 -48.672959 41.494226
-30.334609 -49.435278 41.90083
-30.26547 -47.775967 41.035654
-30.301522 -48.731324 40.56393
-30.299865 -48.672959 41.494226
-22.06644 -36.914043 -22.199078
-22.277583 -37.590795 -21.699046
-22.552661 -36.569399 -21.636398
-21.561608 -37.106554 -22.798376
-22.06644 -36.914043 -22.199078
-35.52668 4.542381 23.715899
-35.680819 6.45019 23.499026
-35.73008 2.844403 22.983059
-35.297661 2.446737 24.054144
-35.52668 4.542381 23.715899
-24.811637 -67.011539 -0.197899
-24.772806 -65.669529 -0.570101
-29.819609 -59.273722 40.168215
-29.972665 -58.065954 40.72488
-29.77729 -59.676487 38.987385
-29.644827 -60.563952 39.596708
-29.819609 -59.273722 40.168215
-31.44001 -16.040542 30.521237
-31.301244 -17.866893 30.588192
-31.788499 -15.706664 29.6213
-31.44001 -16.040542 30.521237
-31.604539 -14.132077 30.455011
-29.922933 -42.383922 39.520832
-30.007958 -43.576082 39.794441
-29.959112 -39.394772 35.827723
-29.880635 -39.578272 36.839001
-29.844552 -38.212561 36.509664
-30.148839 -28.803681 33.137932
-30.21027 -27.178077 32.930844
-30.298142 -30.009443 32.354819
-30.088299 -30.333978 33.316007
-30.148839 -28.803681 33.137932
-37.159509 -1.727202 18.319918
-36.974483 0.099859 19.204876
-36.941055 -3.632264 18.584907
-37.159509 -1.727202 18.319918
-36.710788 -5.721646 18.810282
-36.570099 -4.024869 19.617784
-36.941055 -3.632264 18.584907
-36.129796 -15.323522 17.420486
-36.428488 -13.275524 17.289488
-35.808168 -15.546449 18.488078
-36.129796 -15.323522 17.420486
-35.842167 -17.29956 17.562869
-32.066851 -36.930955 0.036865
-32.159053 -37.229286 1.170283
-31.449186 -38.282391 -0.919784
-32.066851 -36.930955 0.036865
-26.088537 -68.090542 8.788612
-26.279008 -66.899922 9.558295
-26.088537 -68.090542 8.788612
-25.931866 -67.847099 7.490023
-23.736756 -53.058534 -12.285681
-23.981755 -53.510687 -11.266499
-24.196082 -52.022781 -11.49237
-23.736756 -53.058534 -12.285681
-23.535459 -52.402963 -13.247582
-30.341901 -50.71647 40.602657
-30.355174 -51.586561 41.163961
-30.34919 -50.498406 41.583807
-30.267402 -54.360582 42.002811
-30.323381 -53.177416 42.422855
-30.250011 -54.727859 40.930122
-30.200581 -55.555418 41.593014
-30.267402 -54.360582 42.002811
-21.519169 -39.131536 -22.310442
-21.747649 -39.948499 -21.740671
-22.019843 -38.752403 -21.691955
-21.519169 -39.131536 -22.310442
-21.275672 -38.18951 -22.890859
-29.594794 -35.819805 37.930006
-29.543371 -34.387981 37.662743
-29.715674 -36.967377 37.232361
-29.594794 -35.819805 37.930006
-29.794151 -36.783876 36.221083
-29.844552 -38.212561 36.509664
-29.715674 -36.967377 37.232361
-34.09738 1.151929 26.868913
-33.673246 0.754152 27.880636
-34.523111 1.499636 25.871961
-34.913786 1.999838 24.952982
-34.307579 -0.492746 26.115934
-34.09738 1.151929 26.868913
-34.523111 1.499636 25.871961
-35.850269 -20.642533 15.508778
-35.883284 -18.926858 16.529577
-35.751715 -22.400014 14.553486
-35.504217 -22.534563 15.608586
-35.850269 -20.642533 15.508778
-35.627663 -23.954462 13.635568
-35.751715 -22.400014 14.553486
-35.461496 -25.52993 12.680568
-35.239497 -25.867513 13.698294
-35.627663 -23.954462 13.635568
-35.237066 -27.12283 11.745817
-35.461496 -25.52993 12.680568
-34.973931 -28.704222 10.752274
-34.810194 -29.024373 11.749751
-35.237066 -27.12283 11.745817
-34.659315 -30.285105 9.675554
-34.973931 -28.704222 10.752274
-34.319091 -31.770017 8.628941
-34.206834 -32.090676 9.709594
-34.659315 -30.285105 9.675554
-33.904703 -33.331524 7.645751
-34.319091 -31.770017 8.628941
-25.576414 -67.608184 4.892553
-25.565292 -66.337055 4.515203
-25.003255 -67.112133 1.075965
-24.811637 -67.011539 -0.197899
-24.08289 -49.392611 -13.484806
-23.765457 -50.919848 -13.379217
-24.268517 -50.043392 -12.61714
-24.342591 -47.982534 -13.618253
-23.839532 -48.85899 -14.380329
-24.08289 -49.392611 -13.484806
-29.275844 -62.756227 35.561763
-29.334534 -62.459278 36.796602
-29.422121 -61.856606 34.909937
-29.192685 -63.095015 34.324038
-29.275844 -62.756227 35.561763
-30.350423 -23.636518 32.741223
-30.28781 -25.448304 32.819631
-30.448693 -21.924279 32.640357
-30.561291 -20.263762 32.468186
-30.612032 -23.307361 31.853451
-30.350423 -23.636518 32.741223
-30.448693 -21.924279 32.640357
-31.473633 -19.373584 29.784343
-31.150907 -19.625349 30.685008
-31.301244 -17.866893 30.588192
-36.865536 7.847336 20.375136
-36.466493 7.416563 21.474198
-37.088646 5.971554 19.596633
-36.865536 7.847336 20.375136
-36.922055 3.916859 19.870475
-37.088646 5.971554 19.596633
-27.043816 -66.182804 14.291656
-27.202787 -66.265716 15.592156
-26.852404 -66.111919 12.908759
-27.043816 -66.182804 14.291656
-27.10933 -64.982406 13.73274
-26.680313 -65.960014 11.557719
-26.852404 -66.111919 12.908759
-26.508607 -65.769321 10.287533
-26.680313 -65.960014 11.557719
-26.746211 -64.720829 11.079657
-26.344906 -65.660736 9.080234
-26.279008 -66.899922 9.558295
-26.508607 -65.769321 10.287533
-25.580009 -65.145614 3.949674
-25.565292 -66.337055 4.515203
-25.77271 -65.23605 5.217542
-25.39918 -64.945684 2.780519
-25.580009 -65.145614 3.949674
-25.606599 -63.844679 3.482858
-25.195524 -64.785776 1.480003
-25.168934 -66.086712 1.946819
-25.39918 -64.945684 2.780519
-24.807851 -64.420342 -0.883614
-24.772806 -65.669529 -0.570101
-25.000322 -64.677616 0.33279
-24.807851 -64.420342 -0.883614
-24.828941 -63.138751 -1.249574
-24.527839 -61.278448 -3.959804
-24.726574 -61.565983 -2.779542
-24.631051 -59.980185 -4.192268
-24.527839 -61.278448 -3.959804
-24.765958 -58.710247 -4.571917
-24.631051 -59.980185 -4.192268
-24.965542 -59.012957 -3.420307
-24.924976 -57.351633 -4.87756
-24.765958 -58.710247 -4.571917
-25.168591 -55.943585 -5.141326
-24.924976 -57.351633 -4.87756
-25.344064 -56.33497 -4.063723
-25.415197 -54.513048 -5.390194
-24.996108 -55.529711 -6.204031
-25.168591 -55.943585 -5.141326
-29.031687 -63.595667 31.93609
-29.108382 -63.405367 33.143656
-29.262268 -62.385693 32.464645
-29.031687 -63.595667 31.93609
-28.970917 -63.671175 30.68521
-28.704071 -64.01485 27.062136
-28.791089 -63.976837 28.266829
-28.947257 -62.78638 27.6648
-28.704071 -64.01485 27.062136
-28.611184 -64.046524 25.765864
-28.267271 -64.122275 21.998321
-28.386893 -64.128743 23.233762
-28.503895 -63.015543 22.686226
-28.267271 -64.122275 21.998321
-28.123946 -64.219927 20.749001
-27.455125 -65.121285 16.356083
-27.202787 -66.265716 15.592156
-27.576301 -63.854792 15.836008
-27.455125 -65.121285 16.356083
-27.730683 -63.922785 17.076454
-30.206272 -46.840794 40.671537
-30.26547 -47.775967 41.035654
-30.15524 -45.832901 40.29291
-30.07804 -44.754425 40.031563
-30.216096 -46.826439 39.726731
-30.206272 -46.840794 40.671537
-30.15524 -45.832901 40.29291
-29.954455 -42.221638 38.552122
-29.922933 -42.383922 39.520832
-29.939602 -40.870949 37.193722
-29.880635 -39.578272 36.839001
-29.981117 -42.083717 37.566322
-29.939602 -40.870949 37.193722
-30.03671 -41.973252 36.529659
-30.051562 -43.32394 37.888059
-29.954455 -42.221638 38.552122
-29.981117 -42.083717 37.566322
-29.744661 -30.769035 35.254218
-29.905597 -30.637743 34.332627
-29.741737 -32.387592 35.497611
-29.744661 -30.769035 35.254218
-29.878073 -33.717489 34.765816
-29.747609 -33.957811 35.697294
-29.741737 -32.387592 35.497611
-33.284543 -3.606768 28.123745
-33.479805 -1.461751 28.010334
-33.686584 -2.98547 27.226297
-32.892141 -4.036996 29.019863
-33.284543 -3.606768 28.123745
-33.098921 -5.560715 28.235827
-32.523153 -4.443034 29.901791
-32.892141 -4.036996 29.019863
-32.332964 -6.491848 30.008672
-32.523153 -4.443034 29.901791
-32.129897 -8.531633 30.134476
-32.332964 -6.491848 30.008672
-32.503452 -8.030728 29.257749
-31.937363 -10.438022 30.278253
-32.129897 -8.531633 30.134476
-32.126706 -11.934356 29.469313
-31.763685 -12.301865 30.364013
-31.937363 -10.438022 30.278253
-36.327303 5.31928 21.684209
-36.098289 7.03733 22.434802
-36.466493 7.416563 21.474198
-36.570824 -0.35668 20.287997
-36.744942 1.678665 20.100465
-36.974483 0.099859 19.204876
-36.485012 -7.766011 18.951276
-36.710788 -5.721646 18.810282
-36.362995 -11.494091 18.202544
-36.428488 -13.275524 17.289488
-36.233921 -9.761268 19.165062
-36.362995 -11.494091 18.202544
-35.966724 -11.837589 19.308213
-36.088741 -8.109509 20.056945
-36.485012 -7.766011 18.951276
-36.233921 -9.761268 19.165062
-33.463184 -34.847931 6.701992
-33.425092 -35.091995 7.719221
-33.904703 -33.331524 7.645751
-32.941067 -36.442043 5.653458
-33.463184 -34.847931 6.701992
-32.437451 -37.904358 4.714322
-32.479957 -38.070717 5.836327
-32.941067 -36.442043 5.653458
-32.360754 -37.676595 3.558257
-32.274581 -37.491672 2.364574
-31.899644 -39.305269 3.741125
-32.437451 -37.904358 4.714322
-32.360754 -37.676595 3.558257
-30.84289 -39.594684 -1.833302
-30.985594 -39.865028 -0.717041
-31.449186 -38.282391 -0.919784
-30.187668 -40.927043 -2.754968
-30.84289 -39.594684 -1.833302
-30.65126 -39.344406 -2.95771
-30.074562 -38.368384 -6.202078
-30.301459 -38.699417 -5.060567
-29.369639 -39.619912 -7.10039
-30.074562 -38.368384 -6.202078
-29.817197 -38.057436 -7.272832
-29.038942 -36.890268 -10.311749
-29.323172 -37.259355 -9.31567
-28.30338 -38.090082 -11.127119
-29.038942 -36.890268 -10.311749
-28.75134 -36.514385 -11.230809
-27.572693 -35.606659 -14.210902
-27.959918 -35.948323 -13.257862
-26.882899 -36.616478 -14.908877
-27.572693 -35.606659 -14.210902
-27.222707 -35.170902 -15.084761
-26.004538 -34.144887 -17.618139
-26.443458 -34.429516 -16.785818
-25.369917 -35.053039 -18.183778
-26.004538 -34.144887 -17.618139
-24.723789 -35.889691 -18.826356
-25.12021 -36.26638 -18.059559
-25.369917 -35.053039 -18.183778
-24.383002 -35.414459 -19.513146
-24.133296 -36.6278 -19.388928
-24.723789 -35.889691 -18.826356
-23.925582 -35.228651 -20.231423
-24.383002 -35.414459 -19.513146
-23.488093 -35.845894 -20.604598
-23.925582 -35.228651 -20.231423
-25.753209 -67.665177 6.20606
-25.576414 -67.608184 4.892553
-24.623531 -54.771795 -8.207033
-24.824202 -55.100305 -7.208933
-25.042043 -53.770664 -7.450998
-24.623531 -54.771795 -8.207033
-24.394019 -54.382452 -9.309418
-24.193872 -53.898842 -10.321463
-23.981755 -53.510687 -11.266499
-23.577025 -48.367995 -15.262718
-23.839532 -48.85899 -14.380329
-23.282219 -47.809326 -16.185399
-23.577025 -48.367995 -15.262718
-23.804427 -46.890246 -15.436457
-23.053615 -47.01721 -17.019772
-23.282219 -47.809326 -16.185399
-23.234862 -45.596636 -17.217256
-23.765896 -44.90703 -16.516343
-23.491138 -44.172089 -17.37446
-23.053615 -47.01721 -17.019772
-23.234862 -45.596636 -17.217256
-22.304773 -41.38996 -20.455575
-22.591305 -42.16199 -19.740204
-22.534261 -40.212696 -20.471421
-22.018835 -40.746629 -21.106336
-22.304773 -41.38996 -20.455575
-23.488093 -35.845894 -20.604598
-22.97374 -36.392685 -21.134922
-23.278156 -36.69936 -20.606042
3 351 350 90
3 0 94 92
3 0 96 94
3 1 99 97
3 1 101 99
3 2 104 102
3 2 106 104
3 352 107 353
3 3 110 108
3 3 112 110
3 4 115 113
3 6 118 116
3 6 120 118
3 4 354 355
3 4 356 358
3 356 113 357
3 356 357 358
3 359 122 360
3 8 125 123
3 10 128 126
3 10 130 128
3 10 132 130
3 12 135 133
3 12 137 135
3 5 140 138
3 13 143 141
3 13 145 143
3 13 147 145
3 14 150 148
3 14 152 150
3 15 155 153
3 15 157 155
3 7 361 363
3 361 158 362
3 361 362 363
3 16 161 159
3 16 163 161
3 16 165 163
3 17 168 166
3 17 170 168
3 18 173 171
3 18 175 173
3 19 364 366
3 364 178 365
3 364 365 366
3 19 180 178
3 19 182 180
3 20 185 183
3 20 187 185
3 20 189 187
3 9 367 369
3 369 368 190
3 367 368 369
3 11 370 371
3 373 372 191
3 21 194 192
3 21 196 194
3 374 199 375
3 376 375 197
3 374 375 376
3 23 200 89
3 23 201 200
3 377 197 378
3 24 379 380
3 382 381 91
3 25 204 202
3 27 205 93
3 27 206 205
3 27 208 206
3 29 209 95
3 29 210 209
3 30 213 211
3 32 214 98
3 32 215 214
3 32 217 215
3 34 218 100
3 34 219 218
3 383 220 384
3 385 221 386
3 387 386 220
3 385 386 387
3 35 224 222
3 37 225 103
3 37 226 225
3 37 228 226
3 39 229 105
3 39 230 229
3 41 388 390
3 388 231 389
3 388 389 390
3 41 232 231
3 43 391 392
3 44 236 234
3 46 237 109
3 46 238 237
3 46 240 238
3 48 241 111
3 48 242 241
3 49 393 395
3 393 243 394
3 393 394 395
3 51 244 114
3 51 245 244
3 22 246 198
3 52 247 117
3 52 248 247
3 52 249 248
3 53 250 119
3 53 251 250
3 49 396 397
3 49 398 399
3 400 252 401
3 402 253 403
3 404 403 252
3 402 403 404
3 54 254 121
3 54 255 254
3 55 258 257
3 56 259 124
3 56 260 259
3 26 261 203
3 57 262 127
3 57 263 262
3 57 264 263
3 58 265 129
3 58 405 407
3 407 406 265
3 405 406 407
3 58 408 410
3 408 266 409
3 408 409 410
3 59 267 131
3 59 268 267
3 28 269 207
3 60 270 134
3 60 271 270
3 60 272 271
3 61 273 136
3 61 274 273
3 50 411 412
3 62 413 415
3 415 414 139
3 413 414 415
3 62 416 417
3 31 275 212
3 63 276 142
3 63 418 420
3 420 419 276
3 418 419 420
3 63 421 422
3 64 423 425
3 425 424 144
3 423 424 425
3 64 426 427
3 64 428 430
3 428 277 429
3 428 429 430
3 65 278 146
3 65 279 278
3 33 280 216
3 66 281 149
3 66 282 281
3 66 283 282
3 67 284 151
3 67 285 284
3 68 431 433
3 431 286 432
3 431 432 433
3 68 287 286
3 69 288 154
3 69 289 288
3 69 290 289
3 70 291 156
3 70 292 291
3 71 434 436
3 434 293 435
3 434 435 436
3 71 294 293
3 36 295 223
3 72 296 160
3 72 297 296
3 72 298 297
3 73 299 162
3 73 300 299
3 73 301 300
3 74 302 164
3 74 303 302
3 38 304 227
3 75 305 167
3 75 306 305
3 75 307 306
3 76 308 169
3 76 309 308
3 40 437 438
3 77 310 172
3 77 311 310
3 77 312 311
3 78 313 174
3 78 314 313
3 439 315 440
3 441 440 256
3 439 440 441
3 79 316 176
3 79 317 316
3 80 318 177
3 80 319 318
3 80 320 319
3 81 321 179
3 81 322 321
3 81 323 322
3 82 324 181
3 82 325 324
3 42 326 233
3 83 327 184
3 83 328 327
3 83 329 328
3 84 330 186
3 84 331 330
3 84 332 331
3 85 333 188
3 85 334 333
3 86 442 444
3 442 335 443
3 442 443 444
3 86 336 335
3 86 337 336
3 445 338 446
3 447 339 448
3 449 448 338
3 447 448 449
3 450 340 451
3 452 341 453
3 454 453 340
3 452 453 454
3 455 342 456
3 457 343 458
3 459 458 342
3 457 458 459
3 460 344 461
3 462 345 463
3 464 463 344
3 462 463 464
3 45 465 467
3 467 466 235
3 465 466 467
3 47 347 239
3 88 468 470
3 470 469 193
3 468 469 470
3 88 471 472
3 88 473 475
3 473 348 474
3 473 474 475
3 87 349 195
3 87 346 349
3 476 89 477
3 478 89 479
3 480 23 481
3 482 481 89
3 480 481 482
3 90 91 24
3 483 91 484
3 485 484 90
3 483 484 485
3 487 486 91
3 92 93 25
3 94 93 92
3 94 27 93
3 94 95 27
3 96 95 94
3 96 29 95
3 97 98 30
3 99 98 97
3 99 32 98
3 99 100 32
3 101 100 99
3 101 34 100
3 102 103 35
3 104 103 102
3 104 37 103
3 104 105 37
3 106 105 104
3 106 39 105
3 107 488 489
3 107 490 492
3 490 41 491
3 490 491 492
3 494 493 43
3 108 109 44
3 110 109 108
3 110 46 109
3 110 111 46
3 112 111 110
3 112 48 111
3 113 114 49
3 115 114 113
3 115 51 114
3 116 117 22
3 118 117 116
3 118 52 117
3 118 119 52
3 120 119 118
3 120 53 119
3 113 495 496
3 113 497 499
3 497 49 498
3 497 498 499
3 500 121 501
3 122 502 504
3 502 121 503
3 502 503 504
3 122 54 121
3 123 124 55
3 125 124 123
3 125 56 124
3 126 127 26
3 128 127 126
3 128 57 127
3 128 129 57
3 130 129 128
3 130 58 129
3 130 131 58
3 132 131 130
3 132 59 131
3 133 134 28
3 135 134 133
3 135 60 134
3 135 136 60
3 137 136 135
3 137 61 136
3 138 139 50
3 140 139 138
3 140 62 139
3 141 142 31
3 143 142 141
3 143 63 142
3 143 144 63
3 145 144 143
3 145 64 144
3 145 146 64
3 147 146 145
3 147 65 146
3 148 149 33
3 150 149 148
3 150 66 149
3 150 151 66
3 152 151 150
3 152 67 151
3 505 68 506
3 153 507 509
3 507 154 508
3 507 508 509
3 155 154 153
3 155 69 154
3 155 156 69
3 157 156 155
3 157 70 156
3 158 510 511
3 158 512 514
3 512 71 513
3 512 513 514
3 159 160 36
3 161 160 159
3 161 72 160
3 161 162 72
3 163 162 161
3 163 73 162
3 163 164 73
3 165 164 163
3 165 74 164
3 166 167 38
3 168 167 166
3 168 75 167
3 168 169 75
3 170 169 168
3 170 76 169
3 171 172 40
3 173 172 171
3 173 77 172
3 173 174 77
3 175 174 173
3 175 78 174
3 515 176 516
3 517 176 518
3 519 79 520
3 521 520 176
3 519 520 521
3 522 177 523
3 178 524 526
3 524 177 525
3 524 525 526
3 178 80 177
3 178 179 80
3 180 179 178
3 180 81 179
3 180 181 81
3 182 181 180
3 182 82 181
3 183 184 42
3 185 184 183
3 185 83 184
3 185 186 83
3 187 186 185
3 187 84 186
3 187 188 84
3 189 188 187
3 189 85 188
3 527 86 528
3 530 529 86
3 190 531 532
3 534 533 190
3 191 535 537
3 537 536 45
3 535 536 537
3 539 538 191
3 192 193 47
3 194 193 192
3 194 88 193
3 194 195 88
3 196 195 194
3 196 87 195
3 197 198 4
3 199 198 197
3 199 22 198
3 89 540 542
3 540 199 541
3 540 541 542
3 200 199 89
3 200 22 199
3 200 116 22
3 201 116 200
3 201 6 116
3 197 543 544
3 197 545 547
3 545 4 546
3 545 546 547
3 91 548 550
3 550 549 24
3 548 549 550
3 552 551 91
3 202 203 8
3 204 203 202
3 204 26 203
3 93 204 25
3 205 204 93
3 205 26 204
3 205 126 26
3 206 126 205
3 206 10 126
3 206 207 10
3 208 207 206
3 208 28 207
3 95 208 27
3 209 208 95
3 209 28 208
3 209 133 28
3 210 133 209
3 210 12 133
3 211 212 5
3 213 212 211
3 213 31 212
3 98 213 30
3 214 213 98
3 214 31 213
3 214 141 31
3 215 141 214
3 215 13 141
3 215 216 13
3 217 216 215
3 217 33 216
3 100 217 32
3 218 217 100
3 218 33 217
3 218 148 33
3 219 148 218
3 219 14 148
3 220 553 554
3 220 555 556
3 220 557 559
3 557 153 558
3 557 558 559
3 221 153 220
3 221 15 153
3 222 223 7
3 224 223 222
3 224 36 223
3 103 224 35
3 225 224 103
3 225 36 224
3 225 159 36
3 226 159 225
3 226 16 159
3 226 227 16
3 228 227 226
3 228 38 227
3 105 228 37
3 229 228 105
3 229 38 228
3 229 166 38
3 230 166 229
3 230 17 166
3 560 40 561
3 231 562 563
3 231 564 566
3 564 40 565
3 564 565 566
3 231 171 40
3 232 171 231
3 232 18 171
3 567 19 568
3 569 233 570
3 571 570 19
3 569 570 571
3 572 233 573
3 574 42 575
3 576 575 233
3 574 575 576
3 577 42 578
3 579 183 580
3 581 580 42
3 579 580 581
3 582 183 583
3 584 20 585
3 586 585 183
3 584 585 586
3 588 587 20
3 590 589 9
3 592 591 43
3 234 235 11
3 236 235 234
3 236 45 235
3 109 236 44
3 237 236 109
3 237 45 236
3 237 191 45
3 238 191 237
3 238 593 595
3 595 594 191
3 593 594 595
3 238 596 598
3 596 239 597
3 596 597 598
3 240 239 238
3 240 47 239
3 111 240 46
3 241 240 111
3 241 47 240
3 241 192 47
3 242 192 241
3 242 21 192
3 243 599 600
3 243 601 603
3 601 50 602
3 601 602 603
3 114 243 49
3 244 243 114
3 244 50 243
3 244 138 50
3 245 138 244
3 245 5 138
3 198 115 4
3 246 115 198
3 246 51 115
3 117 246 22
3 247 246 117
3 247 51 246
3 247 245 51
3 248 245 247
3 248 5 245
3 248 211 5
3 249 211 248
3 249 30 211
3 119 249 52
3 250 249 119
3 250 30 249
3 250 97 30
3 251 97 250
3 251 1 97
3 604 7 605
3 252 606 607
3 252 608 610
3 608 7 609
3 608 609 610
3 252 222 7
3 253 222 252
3 253 35 222
3 121 611 613
3 611 253 612
3 611 612 613
3 254 253 121
3 254 35 253
3 254 102 35
3 255 102 254
3 255 2 102
3 614 256 615
3 616 256 617
3 619 618 256
3 257 620 621
3 258 622 624
3 624 623 257
3 622 623 624
3 258 625 626
3 124 258 55
3 259 258 124
3 259 627 629
3 629 628 258
3 627 628 629
3 259 630 632
3 630 190 631
3 630 631 632
3 260 190 259
3 260 9 190
3 203 125 8
3 261 125 203
3 261 56 125
3 127 261 26
3 262 261 127
3 262 56 261
3 262 260 56
3 263 260 262
3 263 9 260
3 263 633 635
3 635 634 9
3 633 634 635
3 264 636 638
3 638 637 263
3 636 637 638
3 264 639 641
3 639 43 640
3 639 640 641
3 129 264 57
3 265 264 129
3 265 43 264
3 265 642 644
3 644 643 43
3 642 643 644
3 646 645 265
3 266 647 648
3 266 649 650
3 131 266 58
3 267 266 131
3 267 651 653
3 653 652 266
3 651 652 653
3 267 654 655
3 268 656 658
3 658 657 267
3 656 657 658
3 268 659 661
3 659 11 660
3 659 660 661
3 207 132 10
3 269 132 207
3 269 59 132
3 134 269 28
3 270 269 134
3 270 59 269
3 270 268 59
3 271 268 270
3 271 11 268
3 271 234 11
3 272 234 271
3 272 44 234
3 136 272 60
3 273 272 136
3 273 44 272
3 273 108 44
3 274 108 273
3 274 3 108
3 139 662 664
3 664 663 50
3 662 663 664
3 666 665 139
3 212 140 5
3 275 140 212
3 275 62 140
3 142 275 31
3 276 275 142
3 276 62 275
3 276 667 669
3 669 668 62
3 667 668 669
3 671 670 276
3 144 672 674
3 674 673 63
3 672 673 674
3 676 675 144
3 677 257 678
3 277 679 681
3 679 257 680
3 679 680 681
3 277 55 257
3 146 277 64
3 278 277 146
3 278 55 277
3 278 123 55
3 279 123 278
3 279 8 123
3 216 147 13
3 280 147 216
3 280 65 147
3 149 280 33
3 281 280 149
3 281 65 280
3 281 279 65
3 282 279 281
3 282 8 279
3 282 202 8
3 283 202 282
3 283 25 202
3 151 283 66
3 284 283 151
3 284 25 283
3 284 92 25
3 285 92 284
3 285 0 92
3 682 23 683
3 286 684 685
3 286 686 688
3 686 23 687
3 686 687 688
3 286 201 23
3 287 201 286
3 287 6 201
3 689 68 690
3 154 691 692
3 288 693 695
3 695 694 154
3 693 694 695
3 288 696 698
3 696 68 697
3 696 697 698
3 288 287 68
3 289 287 288
3 289 6 287
3 289 120 6
3 290 120 289
3 290 53 120
3 156 290 69
3 291 290 156
3 291 53 290
3 291 251 53
3 292 251 291
3 292 1 251
3 293 699 700
3 293 701 702
3 293 703 705
3 703 221 704
3 703 704 705
3 294 221 293
3 294 15 221
3 223 158 7
3 295 158 223
3 295 71 158
3 160 295 36
3 296 295 160
3 296 71 295
3 296 294 71
3 297 294 296
3 297 15 294
3 297 157 15
3 298 157 297
3 298 70 157
3 162 298 72
3 299 298 162
3 299 70 298
3 299 292 70
3 300 292 299
3 300 1 292
3 300 101 1
3 301 101 300
3 301 34 101
3 164 301 73
3 302 301 164
3 302 34 301
3 302 219 34
3 303 219 302
3 303 14 219
3 227 165 16
3 304 165 227
3 304 74 165
3 167 304 38
3 305 304 167
3 305 74 304
3 305 303 74
3 306 303 305
3 306 14 303
3 306 152 14
3 307 152 306
3 307 67 152
3 169 307 75
3 308 307 169
3 308 67 307
3 308 285 67
3 309 285 308
3 309 0 285
3 172 706 708
3 708 707 40
3 706 707 708
3 310 709 711
3 711 710 172
3 709 710 711
3 310 712 713
3 310 714 715
3 311 716 718
3 718 717 310
3 716 717 718
3 311 719 720
3 311 721 723
3 721 122 722
3 721 722 723
3 312 122 311
3 312 54 122
3 174 312 77
3 313 312 174
3 313 54 312
3 313 255 54
3 314 255 313
3 314 2 255
3 256 724 726
3 724 107 725
3 724 725 726
3 315 107 256
3 315 41 107
3 176 727 729
3 727 315 728
3 727 728 729
3 316 315 176
3 316 41 315
3 316 232 41
3 317 232 316
3 317 18 232
3 730 79 731
3 177 732 733
3 318 734 736
3 736 735 177
3 734 735 736
3 318 737 739
3 737 79 738
3 737 738 739
3 318 317 79
3 319 317 318
3 319 18 317
3 319 175 18
3 320 175 319
3 320 78 175
3 179 320 80
3 321 320 179
3 321 78 320
3 321 314 78
3 322 314 321
3 322 2 314
3 322 106 2
3 323 106 322
3 323 39 106
3 181 323 81
3 324 323 181
3 324 39 323
3 324 230 39
3 325 230 324
3 325 17 230
3 233 182 19
3 326 182 233
3 326 82 182
3 184 326 42
3 327 326 184
3 327 82 326
3 327 325 82
3 328 325 327
3 328 17 325
3 328 170 17
3 329 170 328
3 329 76 170
3 186 329 83
3 330 329 186
3 330 76 329
3 330 309 76
3 331 309 330
3 331 0 309
3 331 96 0
3 332 96 331
3 332 29 96
3 188 332 84
3 333 332 188
3 333 29 332
3 333 210 29
3 334 210 333
3 334 12 210
3 740 189 741
3 742 741 20
3 740 741 742
3 743 189 744
3 745 85 746
3 747 746 189
3 745 746 747
3 335 748 749
3 335 750 752
3 750 85 751
3 750 751 752
3 335 334 85
3 336 334 335
3 336 12 334
3 336 137 12
3 337 137 336
3 337 61 137
3 753 337 754
3 755 754 86
3 753 754 755
3 338 756 758
3 756 337 757
3 756 757 758
3 338 61 337
3 338 274 61
3 339 274 338
3 339 3 274
3 759 339 760
3 340 761 763
3 761 339 762
3 761 762 763
3 340 3 339
3 340 112 3
3 341 112 340
3 341 48 112
3 764 341 765
3 342 766 768
3 766 341 767
3 766 767 768
3 342 48 341
3 342 242 48
3 343 242 342
3 343 21 242
3 769 343 770
3 344 771 773
3 771 343 772
3 771 772 773
3 344 21 343
3 344 196 21
3 345 196 344
3 345 87 196
3 774 345 775
3 776 345 777
3 778 87 779
3 780 779 345
3 778 779 780
3 781 346 782
3 783 782 87
3 781 782 783
3 784 346 785
3 787 786 346
3 789 788 9
3 235 790 792
3 792 791 11
3 790 791 792
3 794 793 235
3 796 795 45
3 239 797 798
3 347 799 801
3 801 800 239
3 799 800 801
3 347 802 803
3 193 347 47
3 804 347 805
3 806 805 193
3 804 805 806
3 808 807 347
3 348 809 810
3 348 811 813
3 811 24 812
3 811 812 813
3 195 348 88
3 349 348 195
3 349 24 348
3 349 90 24
3 346 90 349
3 346 814 816
3 816 815 90
3 814 815 816
