ply
format ascii 1.0
element vertex 563
property float x
property float y
property float z
element face 637
property list uchar int vertex_index
end_header
4.556847 -77.972031 21.683914
-1.79265 -49.455223 53.385555
-5.722984 -67.227837 41.802414
7.362097 -51.047615 42.381096
-8.590484 -52.607704 57.987579
-3.972895 -58.469627 49.106659
-10.946134 -61.736351 51.844704
-18.33329 -64.591072 52.649193
3.620145 -46.232735 48.108727
2.334969 -55.050747 45.619778
-0.753906 -72.869904 31.516407
-12.71275 -70.515373 43.31123
-7.500654 -76.321724 32.397793
-2.567819 -81.996857 21.367582
-12.436333 -54.152687 59.618504
-9.86296 -57.261562 55.214668
-13.574472 -58.954716 56.215363
3.678247 -82.327332 16.401276
1.140327 -47.91217 50.65596
2.95725 -50.641453 47.201324
0.219585 -52.199047 49.472378
-4.842277 -62.830578 45.80241
-1.584526 -61.135429 44.642342
-2.450021 -65.509705 41.037338
0.086642 -68.3535 36.095123
-3.185448 -70.02317 36.593952
-19.139317 -68.671478 48.209095
-15.552811 -67.608131 48.338341
-16.403156 -71.796692 43.706959
-11.126423 -77.789787 33.235561
-4.946481 -79.168488 26.826027
-5.09106 -51.115215 55.858841
-2.982303 -53.839699 51.789841
-6.229159 -55.61116 53.553707
-7.389727 -60.056969 50.680229
-8.371797 -64.588928 46.899712
-17.085375 -75.789398 38.830719
2.129244 -43.52206 51.281773
-0.688813 -45.060829 54.453842
-3.745743 -46.536469 57.335197
5.414934 -48.751781 45.065399
4.942325 -53.166389 44.013992
4.54333 -57.488674 42.202209
-0.618121 -56.726761 47.35984
1.657303 -59.540157 43.228012
1.950998 -75.568932 26.445358
-14.625076 -63.464069 52.407978
-11.96083 -66.174911 47.853359
-9.239885 -68.9048 42.713127
-13.670806 -74.877716 38.531464
-10.118249 -73.35791 38.042549
-6.62315 -71.690514 37.327232
-4.105926 -74.659256 31.812731
-1.60715 -77.459763 26.490438
0.942345 -80.180458 21.213133
-12.918791 -56.619633 57.890633
-14.966809 -57.327236 58.401642
3.994716 -80.180443 19.118591
-0.234018 -48.558971 52.041805
0.671358 -49.978146 50.19022
-0.808991 -50.870319 51.404549
-5.339077 -65.069008 43.875973
-3.64112 -64.126526 43.45977
-4.069048 -66.328079 41.454247
-2.825884 -67.824974 38.810081
-4.499793 -68.605858 39.237713
-17.724972 -70.412354 45.842007
-6.878693 -51.769974 57.10767
-5.743324 -53.368862 54.864693
-7.466757 -54.25108 55.755482
-10.554981 -59.596272 53.624821
-8.729846 -58.755337 52.988178
-9.124631 -60.896992 51.292633
-7.942528 -62.329384 48.920181
-9.695065 -63.227631 49.389919
2.59162 -41.650593 51.393009
1.3 -42.249611 53.053288
0.753235 -44.385731 52.846764
-5.469213 -47.249374 58.736214
4.444884 -47.564919 46.588322
2.594844 -52.797215 46.583237
3.969611 -51.827183 45.570477
3.683908 -54.187431 44.773617
4.713963 -55.409859 43.192135
3.364355 -56.390553 43.871948
-3.400262 -56.22958 50.405926
-1.817377 -55.327888 49.546383
-2.204402 -57.590469 48.195568
-0.340647 -62.544109 42.325829
0.009629 -60.285374 44.02211
1.193756 -61.639957 41.910305
2.772054 -60.80946 41.348709
-0.219428 -70.686188 33.695244
1.399671 -69.70562 33.726032
0.980454 -71.899223 31.496222
0.574614 -74.217255 29.000742
-16.093084 -61.945728 54.633572
-16.512545 -64.065353 52.647175
-14.232531 -69.217361 45.774632
-13.6903 -67.030113 47.998688
-12.453207 -68.373131 45.671066
-10.673467 -67.712334 45.189198
-11.040236 -69.785843 43.032719
-15.798584 -77.48806 36.175701
-15.407821 -75.505203 38.612282
-14.190204 -76.982956 36.11969
-9.261563 -77.132431 32.727119
-10.593147 -75.697128 35.497101
-8.84486 -74.729744 35.396297
-8.335876 -72.651764 37.532784
-7.092287 -74.093018 34.818417
-5.297802 -73.13707 34.569084
-5.776534 -75.293129 32.326939
-3.801688 -80.55378 24.172806
-3.284778 -78.265938 26.703346
-2.081217 -79.735886 23.934332
-0.266466 -78.836266 23.794018
-0.85991 -81.104668 21.27309
7.458697 -48.996296 42.779686
-10.4664 -53.482964 58.793613
-9.244051 -54.940979 56.693916
-11.123599 -55.822922 57.381622
-11.694282 -58.192333 55.719971
-12.298614 -60.42757 54.05497
2.419483 -47.180771 49.335079
3.3029 -48.434399 47.699326
2.027622 -49.243725 48.926292
1.533477 -51.296852 48.506935
1.236006 -53.646877 47.542355
-4.395566 -60.681412 47.509483
-2.685172 -59.787037 46.803921
-3.163903 -61.96822 45.218433
-1.958954 -63.391449 42.819084
-0.773399 -64.702675 40.564842
0.476265 -65.991692 38.325935
-1.150059 -66.85099 38.608452
-1.460013 -69.14872 36.309372
-1.845142 -71.315514 34.110947
-16.938101 -66.080368 50.635765
-17.345589 -68.355492 48.184452
-15.929305 -69.825226 45.910271
-14.521011 -71.288521 43.454159
-12.882489 -78.554131 33.372471
-9.843955 -79.256058 30.459898
-8.052697 -78.673782 29.861231
-6.21966 -77.74305 29.618355
-6.826114 -80.000664 27.222263
-5.641798 -81.391731 24.50997
-3.405618 -50.224274 54.706902
-2.41174 -51.616959 52.71722
-4.088093 -52.482155 53.886738
-4.509974 -54.753338 52.623882
-5.182352 -56.966248 51.482174
-7.983158 -56.580555 54.284721
-6.905667 -57.947392 52.180565
-5.653317 -59.271156 49.909569
-6.142193 -61.508984 48.230862
-6.655888 -63.681149 46.45784
-7.080192 -65.995308 44.305054
-17.52762 -77.734879 36.312519
-16.821377 -58.013996 58.574837
4.061019 -44.322926 48.170506
3.329 -43.033367 49.717899
2.799835 -45.017662 49.700958
1.549598 -45.756237 51.119637
0.18302 -46.495579 52.590347
-1.252602 -47.182789 54.047043
-2.252099 -45.825802 56.005806
-2.770168 -48.008171 55.375652
-4.432891 -48.753296 56.744503
-6.093893 -49.523712 57.920994
-7.913436 -50.267292 59.086933
-9.740202 -50.985886 60.085224
6.51518 -48.032063 44.002823
6.377672 -50.051888 43.641178
4.248085 -49.594437 46.133339
5.190829 -50.815708 44.658604
6.14792 -52.161018 43.220589
6.088645 -54.323086 42.450748
-1.347499 -53.13818 50.57568
-0.272574 -54.466019 48.584198
0.812096 -55.843021 46.603157
-1.063422 -58.846138 46.14082
0.466159 -58.134438 45.320099
1.883126 -57.235317 44.676998
3.090118 -58.486454 42.787697
1.719597 -67.432678 35.975853
3.259083 -76.828781 24.01531
-15.410414 -59.709785 56.475872
-14.177405 -61.254612 54.387077
-12.749248 -62.58902 52.212494
-15.078797 -65.578766 50.387611
-13.302971 -64.886627 50.145267
-11.394122 -64.001419 49.832386
-10.23255 -65.530006 47.325211
-8.818787 -66.785461 44.825813
-7.359666 -68.174019 42.059933
-16.741077 -73.852409 41.245571
-14.968526 -73.330811 41.167606
-13.229609 -72.627785 41.07391
-12.359307 -76.351517 35.87159
-11.888392 -74.127274 38.355362
-11.453719 -71.967125 40.707901
-9.579579 -71.111313 40.3573
-7.878522 -70.291695 39.993683
-6.055955 -69.44706 39.514614
-4.890086 -70.954628 36.825226
-3.549613 -72.252602 34.273819
-2.346673 -73.751511 31.595955
-4.474331 -76.885437 29.342562
-2.786724 -75.967239 29.212225
-1.049762 -75.205772 28.900768
0.213591 -76.562584 26.352076
1.50071 -77.895432 23.798929
2.712268 -79.063217 21.479242
2.320598 -81.236061 18.864798
-15.593065 -56.449834 59.405113
-14.609669 -56.217043 59.151415
5.212221 -78.48935 20.534821
5.466824 -77.399288 21.830819
4.275781 -79.076237 20.401252
4.931155 -79.593556 19.25216
5.212221 -78.48935 20.534821
7.909994 -51.645586 41.713724
7.924068 -50.513694 41.974045
7.352162 -52.164655 42.050808
7.909994 -51.645586 41.713724
0.942832 -41.455336 53.931645
1.62265 -41.220073 53.03433
0.651166 -42.55366 53.831226
0.942832 -41.455336 53.931645
4.032514 -46.898827 47.348524
4.627088 -46.587145 46.652247
4.214719 -45.921053 47.412449
1.058418 -62.758524 41.002411
0.426555 -62.092033 42.118067
0.291216 -63.2106 41.210173
1.806761 -62.280067 40.886541
1.058418 -62.758524 41.002411
-17.422918 -64.328213 52.648184
-17.247947 -63.264082 53.702474
-18.15832 -63.526941 53.703483
-14.381144 -78.054112 34.814356
-14.994394 -77.235508 36.147695
-15.185333 -78.306663 34.842361
-2.001626 -82.691395 20.034977
-1.147671 -82.2453 19.987731
-1.713865 -81.550763 21.320336
7.446945 -48.022265 42.979881
7.937494 -48.484106 42.393772
4.330122 -82.821884 15.185312
4.560735 -81.732075 16.56596
3.315691 -83.447674 15.112139
4.330122 -82.821884 15.185312
-18.242453 -68.513485 48.196773
-18.020679 -67.486942 49.346991
-18.917544 -67.644936 49.359312
-9.2846 -80.017834 29.06553
-10.168422 -80.403168 29.199273
-8.388971 -79.726696 28.766196
-8.948326 -78.96492 30.160564
-9.2846 -80.017834 29.06553
-7.775679 -80.390137 27.446713
-7.439405 -79.337223 28.541747
-8.388971 -79.726696 28.766196
-5.981685 -82.57283 23.222879
-6.555239 -81.812481 24.667826
-5.021124 -82.121948 23.07778
-5.981685 -82.57283 23.222879
-17.797382 -78.639676 35.084641
-18.390175 -77.763363 36.299732
-16.922676 -78.494259 35.146192
-17.797382 -78.639676 35.084641
4.253937 -43.40884 48.210553
4.591449 -44.039059 47.505507
-2.998921 -46.181135 56.670502
-2.67748 -45.093878 56.900744
-3.424303 -45.449211 57.565439
-6.722081 -48.795489 58.974449
-5.781553 -48.386543 58.328604
-6.409741 -47.65832 59.382059
-7.631852 -49.167278 59.557419
-7.003664 -49.895502 58.503963
-6.722081 -48.795489 58.974449
-10.396655 -50.31073 61.020242
-9.443179 -49.835274 60.62158
-10.68938 -51.466351 60.424219
-10.396655 -50.31073 61.020242
5.965057 -48.391922 44.534111
6.051145 -47.406559 44.699347
5.501022 -47.766418 45.230635
5.213316 -57.049986 41.88328
5.298633 -56.010578 42.378242
4.628647 -56.449267 42.697172
5.136118 -58.166025 41.31488
5.213316 -57.049986 41.88328
3.50597 -60.297411 41.156103
3.383172 -61.438761 40.388445
2.190967 -69.280109 33.689239
2.01948 -70.35978 32.597206
2.779657 -75.108216 26.495118
2.11171 -74.40955 27.761542
2.60504 -76.198857 25.230334
3.4337 -75.73814 25.280094
2.779657 -75.108216 26.495118
-16.356876 -59.952575 56.616438
-16.115896 -58.861891 57.525355
-17.062358 -59.104681 57.66592
-16.913226 -74.820904 40.038145
-17.661493 -74.03392 41.217687
-17.833642 -75.002415 40.010261
-13.58566 -55.863242 58.89591
-12.677562 -55.38616 58.754569
-13.344431 -54.629768 59.759846
-13.9428 -56.973434 58.146138
-13.58566 -55.863242 58.89591
-14.609669 -56.217043 59.151415
4.71897 -80.658631 17.924618
4.931155 -79.593556 19.25216
3.836481 -81.253887 17.759933
4.560735 -81.732075 16.56596
4.71897 -80.658631 17.924618
-18.563133 -70.550827 45.810181
-18.432144 -69.541916 47.025551
-19.270305 -69.680389 46.993725
-17.929455 -71.378189 44.691357
-18.563133 -70.550827 45.810181
-17.268547 -72.070358 43.623833
-17.064064 -71.104523 44.774483
-17.929455 -71.378189 44.691357
2.26846 -40.920564 52.204191
2.903391 -40.653824 51.33947
1.94581 -41.950102 52.223149
2.26846 -40.920564 52.204191
1.62265 -41.220073 53.03433
0.377783 -43.621719 53.727964
1.026617 -43.317671 52.950026
0.651166 -42.55366 53.831226
-0.343241 -43.959269 54.531503
0.032211 -44.72328 53.650303
0.377783 -43.621719 53.727964
-4.244772 -45.776724 58.299217
-3.424303 -45.449211 57.565439
-5.106507 -46.133177 58.999725
-4.607478 -46.892921 58.035705
-4.244772 -45.776724 58.299217
-6.037121 -46.529926 59.708004
-5.106507 -46.133177 58.999725
-6.409741 -47.65832 59.382059
-6.037121 -46.529926 59.708004
5.015997 -47.172987 45.992096
4.627088 -46.587145 46.652247
4.929909 -48.15835 45.82686
5.501022 -47.766418 45.230635
5.015997 -47.172987 45.992096
2.59591 -61.864818 40.605744
1.982905 -61.224709 41.629507
1.806761 -62.280067 40.886541
3.383172 -61.438761 40.388445
2.59591 -61.864818 40.605744
1.809871 -71.456581 31.482301
2.01948 -70.35978 32.597206
1.190063 -70.802422 32.611127
1.626438 -72.574696 30.286974
1.809871 -71.456581 31.482301
1.423518 -73.733711 29.039234
1.626438 -72.574696 30.286974
0.777534 -73.058239 30.248482
1.262806 -74.893093 27.72305
2.11171 -74.40955 27.761542
1.423518 -73.733711 29.039234
-17.038217 -62.20427 54.695673
-16.698211 -61.070547 55.695288
-16.302815 -63.005541 53.640373
-17.038217 -62.20427 54.695673
-17.247947 -63.264082 53.702474
-0.258288 -81.727898 20.023851
0.64284 -81.265793 19.993873
0.041218 -80.642563 21.243111
-0.258288 -81.727898 20.023851
-1.147671 -82.2453 19.987731
7.972368 -49.488035 42.17334
7.937494 -48.484106 42.393772
7.410397 -50.021956 42.580391
7.924068 -50.513694 41.974045
7.972368 -49.488035 42.17334
0.074841 -64.289883 40.329679
0.291216 -63.2106 41.210173
-0.557023 -63.623392 41.445335
-0.148567 -65.347183 39.445388
0.699673 -64.934391 39.210226
0.074841 -64.289883 40.329679
-17.816935 -66.34938 50.572647
-17.635696 -65.33572 51.642479
-18.51453 -65.604732 51.579361
-17.141845 -67.21793 49.410108
-17.816935 -66.34938 50.572647
-18.020679 -67.486942 49.346991
-13.104809 -79.61694 32.107693
-13.727286 -78.839699 33.440747
-12.213321 -79.269447 32.033206
-13.104809 -79.61694 32.107693
-11.335289 -78.887276 31.964751
-12.004456 -78.171959 33.304016
-12.213321 -79.269447 32.033206
-10.694055 -79.620411 30.576919
-10.168422 -80.403168 29.199273
-10.485189 -78.522922 31.847729
-11.335289 -78.887276 31.964751
-10.694055 -79.620411 30.576919
-7.147398 -81.116948 26.023972
-7.775679 -80.390137 27.446713
-6.233956 -80.696197 25.866117
-7.147398 -81.116948 26.023972
-6.555239 -81.812481 24.667826
-4.101069 -81.702973 22.909198
-4.721743 -80.972756 24.341388
-5.021124 -82.121948 23.07778
-3.484135 -82.424511 21.506586
-3.184754 -81.275318 22.770194
-4.101069 -81.702973 22.909198
-2.942629 -83.143768 20.14582
-3.484135 -82.424511 21.506586
-17.953943 -75.965901 38.719427
-17.833642 -75.002415 40.010261
-18.175065 -76.938641 37.460327
-18.390175 -77.763363 36.299732
-17.306497 -76.762139 37.571619
-17.953943 -75.965901 38.719427
-18.175065 -76.938641 37.460327
-16.058158 -78.37085 35.077783
-16.663102 -77.611469 36.24411
-16.922676 -78.494259 35.146192
-15.185333 -78.306663 34.842361
-16.058158 -78.37085 35.077783
-17.477398 -57.100691 59.535179
-16.520349 -56.793214 59.491711
-17.761247 -58.208702 58.652636
-17.477398 -57.100691 59.535179
-17.062358 -59.104681 57.66592
-17.761247 -58.208702 58.652636
-18.979892 -63.75929 53.611834
-18.15832 -63.526941 53.703483
-19.234608 -64.714977 52.626406
-18.979892 -63.75929 53.611834
-18.51453 -65.604732 51.579361
-19.234608 -64.714977 52.626406
-19.80628 -67.774281 49.274315
-18.917544 -67.644936 49.359312
-19.97011 -68.816986 48.030855
-19.80628 -67.774281 49.274315
-19.270305 -69.680389 46.993725
-19.97011 -68.816986 48.030855
4.808184 -76.874302 22.947501
5.466824 -77.399288 21.830819
4.435156 -44.966149 47.443339
4.591449 -44.039059 47.505507
3.840582 -45.277831 48.139617
4.214719 -45.921053 47.412449
4.435156 -44.966149 47.443339
3.225102 -41.340212 50.548755
2.903391 -40.653824 51.33947
3.593792 -42.031599 49.711201
3.225102 -41.340212 50.548755
2.96031 -42.34198 50.555454
3.887927 -42.764061 48.984249
3.593792 -42.031599 49.711201
3.69501 -43.678146 48.944203
4.253937 -43.40884 48.210553
3.887927 -42.764061 48.984249
-1.114907 -44.291151 55.389528
-0.343241 -43.959269 54.531503
-1.89655 -44.673637 56.16551
-2.67748 -45.093878 56.900744
-1.470456 -45.443315 55.229824
-1.114907 -44.291151 55.389528
-1.89655 -44.673637 56.16551
-8.529796 -49.475977 60.122434
-7.631852 -49.167278 59.557419
-8.826819 -50.626589 59.586078
-8.529796 -49.475977 60.122434
-9.443179 -49.835274 60.62158
-11.052479 -52.714889 59.778413
-10.103301 -52.234425 59.439419
-10.68938 -51.466351 60.424219
-12.037446 -53.049751 60.190859
-11.451366 -53.817825 59.206058
-11.052479 -52.714889 59.778413
-13.046801 -53.395357 60.547909
-12.037446 -53.049751 60.190859
-13.344431 -54.629768 59.759846
-13.046801 -53.395357 60.547909
6.547959 -47.05072 44.173561
6.051145 -47.406559 44.699347
6.975187 -47.540148 43.59145
6.547959 -47.05072 44.173561
6.986938 -48.514179 43.391255
7.446945 -48.022265 42.979881
6.975187 -47.540148 43.59145
6.745074 -52.721357 42.470554
7.352162 -52.164655 42.050808
6.755009 -51.604316 42.800843
6.715436 -53.802391 42.085634
6.745074 -52.721357 42.470554
6.118282 -53.242052 42.835668
6.653954 -54.915863 41.709997
6.715436 -53.802391 42.085634
5.985974 -55.467192 42.007549
5.401304 -54.866473 42.821441
5.298633 -56.010578 42.378242
6.653954 -54.915863 41.709997
5.985974 -55.467192 42.007549
3.665002 -59.135908 41.875597
2.931086 -59.647957 42.068203
3.50597 -60.297411 41.156103
4.391608 -58.637018 41.582853
3.816724 -57.987564 42.494953
3.665002 -59.135908 41.875597
5.136118 -58.166025 41.31488
4.391608 -58.637018 41.582853
1.267915 -65.638206 38.123671
0.699673 -64.934391 39.210226
1.889581 -66.3587 36.948629
1.267915 -65.638206 38.123671
1.097931 -66.712185 37.150894
2.561708 -67.036811 35.831288
1.889581 -66.3587 36.948629
2.35093 -68.143638 34.81415
1.559634 -68.569149 34.850943
2.190967 -69.280109 33.689239
2.561708 -67.036811 35.831288
2.35093 -68.143638 34.81415
4.159301 -76.302677 24.113199
3.4337 -75.73814 25.280094
3.907965 -77.400406 22.849612
4.808184 -76.874302 22.947501
4.159301 -76.302677 24.113199
-15.894093 -57.670616 58.48824
-15.593065 -56.449834 59.405113
-16.520349 -56.793214 59.491711
-15.751749 -60.827756 55.554722
-16.356876 -59.952575 56.616438
-16.698211 -61.070547 55.695288
-17.437508 -73.098217 42.393139
-17.661493 -74.03392 41.217687
-16.572116 -72.82455 42.476265
-17.268547 -72.070358 43.623833
-17.437508 -73.098217 42.393139
-13.536347 -77.768543 34.74608
-14.381144 -78.054112 34.814356
-13.727286 -78.839699 33.440747
1.331966 -81.793595 18.819705
1.631471 -80.708259 20.038965
0.64284 -81.265793 19.993873
1.997745 -82.35421 17.587305
1.331966 -81.793595 18.819705
2.676569 -82.899845 16.355545
2.999422 -81.781697 17.633037
1.997745 -82.35421 17.587305
3.315691 -83.447674 15.112139
2.676569 -82.899845 16.355545
-2.001626 -82.691395 20.034977
-2.942629 -83.143768 20.14582
3 216 56 217
3 0 218 219
3 0 220 222
3 220 57 221
3 220 221 222
3 1 60 58
3 2 63 61
3 2 65 63
3 3 223 224
3 3 225 226
3 4 69 67
3 6 72 70
3 6 74 72
3 227 76 228
3 230 229 76
3 8 231 233
3 231 79 232
3 231 232 233
3 9 82 80
3 9 84 82
3 5 87 85
3 234 90 235
3 236 235 88
3 234 235 236
3 238 237 90
3 10 94 92
3 10 95 94
3 7 239 241
3 239 97 240
3 239 240 241
3 11 100 98
3 11 102 100
3 242 105 243
3 244 243 103
3 242 243 244
3 12 108 106
3 12 110 108
3 12 112 110
3 13 115 113
3 13 117 115
3 13 245 247
3 247 246 117
3 245 246 247
3 248 118 249
3 14 121 119
3 16 122 55
3 16 123 122
3 17 250 251
3 17 252 253
3 18 126 124
3 20 127 59
3 20 128 127
3 21 131 129
3 23 132 62
3 23 133 132
3 23 135 133
3 25 136 64
3 25 137 136
3 26 254 256
3 254 139 255
3 254 255 256
3 28 140 66
3 28 141 140
3 257 143 258
3 259 144 260
3 261 260 143
3 259 260 261
3 262 146 263
3 264 263 144
3 262 263 264
3 265 147 266
3 268 267 147
3 31 150 148
3 33 151 68
3 33 152 151
3 15 153 120
3 34 154 71
3 34 155 154
3 34 156 155
3 35 157 73
3 35 158 157
3 269 159 270
3 272 271 159
3 273 161 274
3 37 162 75
3 37 163 162
3 37 164 163
3 38 165 77
3 38 166 165
3 39 275 277
3 275 167 276
3 275 276 277
3 39 168 167
3 39 169 168
3 278 170 279
3 280 279 78
3 278 279 280
3 281 171 282
3 283 282 170
3 281 282 283
3 284 172 285
3 287 286 172
3 40 288 290
3 288 173 289
3 288 289 290
3 40 174 173
3 19 175 125
3 41 176 81
3 41 177 176
3 41 178 177
3 42 291 293
3 293 292 83
3 291 292 293
3 42 294 295
3 32 179 149
3 43 180 86
3 43 181 180
3 22 182 130
3 44 183 89
3 44 184 183
3 44 185 184
3 297 296 91
3 24 186 134
3 299 298 93
3 45 300 301
3 45 302 304
3 302 187 303
3 302 303 304
3 305 188 306
3 307 306 160
3 305 306 307
3 46 189 96
3 46 190 189
3 27 191 138
3 47 192 99
3 47 193 192
3 47 194 193
3 48 195 101
3 48 196 195
3 36 308 310
3 308 197 309
3 308 309 310
3 49 198 104
3 49 199 198
3 29 200 142
3 50 201 107
3 50 202 201
3 50 203 202
3 51 204 109
3 51 205 204
3 51 206 205
3 52 207 111
3 52 208 207
3 30 209 145
3 53 210 114
3 53 211 210
3 53 212 211
3 54 213 116
3 54 214 213
3 54 215 214
3 311 55 312
3 313 312 14
3 311 312 313
3 56 314 316
3 314 55 315
3 314 315 316
3 56 16 55
3 57 317 318
3 57 319 321
3 319 17 320
3 319 320 321
3 58 59 18
3 60 59 58
3 60 20 59
3 61 62 21
3 63 62 61
3 63 23 62
3 63 64 23
3 65 64 63
3 65 25 64
3 322 66 323
3 324 323 26
3 322 323 324
3 325 66 326
3 327 28 328
3 329 328 66
3 327 328 329
3 67 68 31
3 69 68 67
3 69 33 68
3 70 71 15
3 72 71 70
3 72 34 71
3 72 73 34
3 74 73 72
3 74 35 73
3 330 75 331
3 76 332 334
3 332 75 333
3 332 333 334
3 76 37 75
3 76 77 37
3 335 77 336
3 337 336 76
3 335 336 337
3 338 38 339
3 340 339 77
3 338 339 340
3 341 39 342
3 343 78 344
3 345 344 39
3 343 344 345
3 346 78 347
3 349 348 78
3 79 350 351
3 79 352 354
3 352 40 353
3 352 353 354
3 80 81 19
3 82 81 80
3 82 41 81
3 82 83 41
3 84 83 82
3 84 42 83
3 85 86 32
3 87 86 85
3 87 43 86
3 88 89 22
3 90 89 88
3 90 44 89
3 90 91 44
3 355 91 356
3 357 356 90
3 355 356 357
3 359 358 91
3 92 93 24
3 94 93 92
3 94 360 362
3 362 361 93
3 360 361 362
3 94 363 364
3 95 365 367
3 367 366 94
3 365 366 367
3 95 368 370
3 368 45 369
3 368 369 370
3 371 96 372
3 97 373 375
3 373 96 374
3 373 374 375
3 97 46 96
3 98 99 27
3 100 99 98
3 100 47 99
3 100 101 47
3 102 101 100
3 102 48 101
3 103 104 36
3 105 104 103
3 105 49 104
3 106 107 29
3 108 107 106
3 108 50 107
3 108 109 50
3 110 109 108
3 110 51 109
3 110 111 51
3 112 111 110
3 112 52 111
3 113 114 30
3 115 114 113
3 115 53 114
3 115 116 53
3 117 116 115
3 117 54 116
3 117 376 378
3 378 377 54
3 376 377 378
3 380 379 117
3 118 381 382
3 118 383 385
3 383 3 384
3 383 384 385
3 119 120 4
3 121 120 119
3 121 15 120
3 55 121 14
3 122 121 55
3 122 15 121
3 122 70 15
3 123 70 122
3 123 6 70
3 124 125 8
3 126 125 124
3 126 19 125
3 59 126 18
3 127 126 59
3 127 19 126
3 127 80 19
3 128 80 127
3 128 9 80
3 129 130 5
3 131 130 129
3 131 22 130
3 62 131 21
3 132 131 62
3 132 22 131
3 132 88 22
3 133 88 132
3 133 386 388
3 388 387 88
3 386 387 388
3 133 389 391
3 389 134 390
3 389 390 391
3 135 134 133
3 135 24 134
3 64 135 23
3 136 135 64
3 136 24 135
3 136 92 24
3 137 92 136
3 137 10 92
3 392 138 393
3 394 393 7
3 392 393 394
3 139 395 397
3 395 138 396
3 395 396 397
3 139 27 138
3 66 139 26
3 140 139 66
3 140 27 139
3 140 98 27
3 141 98 140
3 141 11 98
3 398 142 399
3 400 142 401
3 402 29 403
3 404 403 142
3 402 403 404
3 143 405 406
3 143 407 409
3 407 29 408
3 407 408 409
3 143 106 29
3 144 106 143
3 144 12 106
3 144 145 12
3 146 145 144
3 146 30 145
3 410 146 411
3 147 412 414
3 412 146 413
3 412 413 414
3 147 30 146
3 147 113 30
3 415 113 416
3 417 416 147
3 415 416 417
3 418 13 419
3 420 419 113
3 418 419 420
3 422 421 13
3 148 149 1
3 150 149 148
3 150 32 149
3 68 150 31
3 151 150 68
3 151 32 150
3 151 85 32
3 152 85 151
3 152 5 85
3 120 69 4
3 153 69 120
3 153 33 69
3 71 153 15
3 154 153 71
3 154 33 153
3 154 152 33
3 155 152 154
3 155 5 152
3 155 129 5
3 156 129 155
3 156 21 129
3 73 156 34
3 157 156 73
3 157 21 156
3 157 61 21
3 158 61 157
3 158 2 61
3 423 36 424
3 159 425 426
3 159 427 429
3 427 36 428
3 427 428 429
3 159 103 36
3 430 103 431
3 432 431 159
3 430 431 432
3 434 433 103
3 435 160 436
3 437 160 438
3 440 439 160
3 441 7 442
3 443 7 444
3 446 445 7
3 447 26 448
3 449 26 450
3 452 451 26
3 453 0 454
3 161 455 456
3 161 457 459
3 457 8 458
3 457 458 459
3 75 460 461
3 162 462 464
3 464 463 75
3 462 463 464
3 162 465 466
3 162 467 469
3 467 161 468
3 467 468 469
3 163 161 162
3 163 8 161
3 163 124 8
3 164 124 163
3 164 18 124
3 77 164 37
3 165 164 77
3 165 18 164
3 165 58 18
3 166 58 165
3 166 1 58
3 470 38 471
3 167 472 473
3 167 474 476
3 474 38 475
3 474 475 476
3 167 166 38
3 168 166 167
3 168 1 166
3 168 148 1
3 169 148 168
3 169 31 148
3 78 169 39
3 170 169 78
3 170 31 169
3 170 67 31
3 171 67 170
3 171 4 67
3 477 171 478
3 172 479 481
3 479 171 480
3 479 480 481
3 172 4 171
3 172 119 4
3 482 119 483
3 484 483 172
3 482 483 484
3 485 14 486
3 487 486 119
3 485 486 487
3 488 14 489
3 491 490 14
3 173 492 493
3 173 494 495
3 173 496 498
3 496 118 497
3 496 497 498
3 174 118 173
3 174 3 118
3 125 79 8
3 175 79 125
3 175 40 79
3 81 175 19
3 176 175 81
3 176 40 175
3 176 174 40
3 177 174 176
3 177 3 174
3 177 499 501
3 501 500 3
3 499 500 501
3 178 502 504
3 504 503 177
3 502 503 504
3 178 505 506
3 83 178 41
3 507 178 508
3 509 508 83
3 507 508 509
3 511 510 178
3 149 60 1
3 179 60 149
3 179 20 60
3 86 179 32
3 180 179 86
3 180 20 179
3 180 128 20
3 181 128 180
3 181 9 128
3 130 87 5
3 182 87 130
3 182 43 87
3 89 182 22
3 183 182 89
3 183 43 182
3 183 181 43
3 184 181 183
3 184 9 181
3 184 84 9
3 185 84 184
3 185 42 84
3 91 185 44
3 512 185 513
3 514 513 91
3 512 513 514
3 515 42 516
3 517 516 185
3 515 516 517
3 519 518 42
3 134 520 521
3 186 522 524
3 524 523 134
3 522 523 524
3 186 525 526
3 93 186 24
3 527 186 528
3 529 528 93
3 527 528 529
3 531 530 186
3 187 532 533
3 187 534 536
3 534 0 535
3 534 535 536
3 160 537 539
3 537 56 538
3 537 538 539
3 188 56 160
3 188 16 56
3 96 540 542
3 540 188 541
3 540 541 542
3 189 188 96
3 189 16 188
3 189 123 16
3 190 123 189
3 190 6 123
3 138 97 7
3 191 97 138
3 191 46 97
3 99 191 27
3 192 191 99
3 192 46 191
3 192 190 46
3 193 190 192
3 193 6 190
3 193 74 6
3 194 74 193
3 194 35 74
3 101 194 47
3 195 194 101
3 195 35 194
3 195 158 35
3 196 158 195
3 196 2 158
3 197 543 544
3 197 545 547
3 545 28 546
3 545 546 547
3 104 197 36
3 198 197 104
3 198 28 197
3 198 141 28
3 199 141 198
3 199 11 141
3 142 548 550
3 548 105 549
3 548 549 550
3 200 105 142
3 200 49 105
3 107 200 29
3 201 200 107
3 201 49 200
3 201 199 49
3 202 199 201
3 202 11 199
3 202 102 11
3 203 102 202
3 203 48 102
3 109 203 50
3 204 203 109
3 204 48 203
3 204 196 48
3 205 196 204
3 205 2 196
3 205 65 2
3 206 65 205
3 206 25 65
3 111 206 51
3 207 206 111
3 207 25 206
3 207 137 25
3 208 137 207
3 208 10 137
3 145 112 12
3 209 112 145
3 209 52 112
3 114 209 30
3 210 209 114
3 210 52 209
3 210 208 52
3 211 208 210
3 211 10 208
3 211 95 10
3 212 95 211
3 212 45 95
3 116 212 53
3 213 212 116
3 213 45 212
3 213 187 45
3 214 187 213
3 214 0 187
3 214 57 0
3 215 57 214
3 215 17 57
3 551 215 552
3 553 552 54
3 551 552 553
3 554 215 555
3 556 17 557
3 558 557 215
3 556 557 558
3 560 559 17
3 562 561 13
