ply
format ascii 1.0
element vertex 553
property float x
property float y
property float z
element face 665
property list uchar int vertex_index
end_header
40.655075 8.710883 15.501492
19.849127 12.642424 41.263847
32.180099 13.522241 26.477575
35.715122 24.628529 10.689259
40.303638 8.885671 9.317939
25.919222 13.59818 33.838985
28.135628 6.579226 34.027905
21.810205 5.548728 40.891373
22.996117 21.442839 34.727409
29.044535 21.139059 26.407442
37.620655 11.782402 20.172951
38.735832 3.83157 21.969328
34.050816 5.806372 27.990456
34.859829 19.846241 18.602417
39.374695 15.777584 12.507691
38.353561 17.856066 5.136202
40.869465 8.787722 12.716676
40.571171 4.811531 12.371601
40.733307 5.508382 15.518954
22.820293 13.175031 37.669136
23.96962 9.666069 37.376129
20.932266 9.068628 40.917347
21.614717 16.977177 38.033085
24.589615 17.30575 34.169796
35.011791 12.890176 23.267584
36.054867 8.890241 24.051184
33.132675 9.78984 27.240597
25.834152 2.76808 37.637169
30.736271 17.376837 26.219358
32.030979 20.748652 22.330256
33.593971 16.795958 22.775997
36.537464 15.778339 19.132441
37.525612 21.748247 7.494498
39.259712 16.97678 8.620244
37.83844 20.065977 11.325344
38.94191 8.641575 6.243279
29.048443 13.749343 30.081121
30.243853 10.0481 30.374304
27.012207 10.042154 33.893505
24.86805 6.277596 37.486397
22.600655 2.188484 40.98761
23.994514 25.705189 31.340246
27.007992 25.292892 26.887321
25.906731 21.295849 30.759251
27.566795 17.467093 30.265463
39.632809 10.24356 17.425463
39.974537 6.548774 18.375612
38.396996 7.827852 21.048834
36.718647 5.029549 24.866568
31.198622 6.370347 30.93722
31.910122 2.526363 31.660109
19.480726 1.623837 44.240585
29.841433 24.90353 22.649263
32.844326 23.885817 18.435104
35.616108 22.363123 14.530934
37.478729 18.062624 15.281532
38.845718 14.024404 16.234385
40.319271 11.869226 14.004839
38.001537 13.48786 3.795793
39.574043 13.127286 6.955619
40.371372 12.674108 10.559235
40.837219 8.653033 14.321334
40.881977 7.023566 13.986848
40.761684 7.359546 15.415837
21.300669 12.911549 39.53017
21.9606 11.132167 39.233715
20.43626 10.756422 41.056717
20.804052 14.882208 39.598244
22.302345 15.044436 37.753933
33.646076 13.254998 24.818609
34.211685 11.236676 25.21018
32.722202 11.706654 26.767351
31.33634 15.379067 26.533663
32.18721 16.988773 24.547197
32.953354 15.119183 24.642256
34.464272 14.912031 22.781305
35.598045 25.601166 8.830927
36.451904 24.211031 7.114697
36.69521 23.369459 8.989029
37.719036 21.075163 9.308796
36.827374 22.333782 10.996354
39.711094 8.702167 7.750458
39.197086 6.28582 7.552872
39.986229 6.613249 9.182186
27.450386 13.712362 31.979658
28.065136 12.034418 31.945797
26.535313 11.868447 33.748734
22.90246 7.553801 39.173584
24.411661 7.936379 37.434975
23.335781 5.968876 39.175423
23.820539 4.280842 39.177429
22.292339 3.888329 40.844131
21.515133 21.233072 36.796707
22.070946 23.445435 35.207695
22.599012 25.559298 33.516342
23.615004 23.579861 32.955944
25.047516 23.421677 30.946447
24.442547 21.349201 32.778297
25.301983 15.371654 33.958382
26.023222 17.478609 32.259769
26.820295 15.488737 32.035297
28.323029 15.466757 30.192444
38.77549 11.018592 18.668819
39.101471 9.199796 19.108885
38.082069 9.857946 20.553003
35.097527 7.439917 25.990871
36.466309 7.056085 24.358355
35.435848 5.49936 26.411337
35.776516 3.36587 26.813869
34.472801 3.828369 28.287275
29.208035 8.386812 32.197124
30.743269 8.22715 30.63092
29.629028 6.412326 32.562126
28.041208 23.218369 26.620659
28.433296 25.078291 24.782841
29.455662 23.080395 24.578438
33.487041 20.27401 20.473635
32.392159 22.434404 20.484482
33.889709 21.725994 18.594809
34.307655 23.049641 16.531269
35.343327 21.10425 16.538914
36.615669 20.233486 14.799624
36.223743 19.014879 16.915203
37.13953 13.710794 19.669008
37.762783 14.876745 17.71513
38.319092 12.916172 18.211321
39.315796 11.998301 16.892113
37.610821 18.431486 3.562331
37.427723 16.051382 2.857065
38.301151 15.6707 4.331423
38.892254 13.270468 5.3536
39.015087 15.498898 5.958756
39.41391 16.452065 10.516756
39.898827 14.757511 9.587754
40.001225 14.322165 11.442293
40.442619 12.292892 12.330823
39.926449 13.71503 13.287246
39.41888 5.307137 20.088066
40.044506 4.682498 18.645746
39.483093 3.243106 20.471823
40.694817 8.785225 11.024148
40.504761 6.718512 10.826216
40.801186 6.835083 12.458958
40.76054 5.072699 13.980565
40.591286 3.408828 15.635812
24.35219 13.409813 35.771637
24.999886 11.692884 35.568928
23.373524 11.453943 37.517715
22.527927 9.403725 39.058983
21.432514 7.317049 40.820351
22.396809 19.208447 36.337147
23.827532 19.393833 34.395557
23.177105 17.160759 36.018314
23.691189 15.171882 36.014992
36.370213 12.395561 21.692293
36.892139 10.43741 22.071922
35.642265 10.879211 23.567268
34.684502 9.386571 25.573992
33.752251 7.913882 27.407473
26.973335 4.659873 35.897598
28.447496 4.66397 34.428631
27.338823 2.873296 36.137806
29.915092 19.18767 26.305815
30.499741 21.116968 24.328094
31.425591 19.088272 24.301588
32.884773 18.779787 22.455362
34.403698 18.218773 20.62895
35.760193 17.752987 18.853052
35.155865 16.347582 20.85634
35.891891 14.353545 21.139109
38.096012 19.9062 6.221335
38.82793 17.734013 6.834398
38.447937 19.397167 8.01763
38.639324 18.756636 9.777163
38.715355 17.829386 11.794136
37.871464 8.641675 4.622924
30.598675 13.69078 28.28233
31.098629 11.903388 28.560471
29.590677 11.980919 30.242712
28.627974 10.22901 32.059696
27.615479 8.28665 33.912342
25.423588 9.818369 35.716537
25.91692 8.139351 35.759789
26.507357 6.517914 35.715561
25.395424 4.613304 37.488026
24.266407 2.632846 39.215057
25.538952 25.393175 29.131512
26.5354 23.231735 28.855194
27.476776 21.207249 28.593082
25.276352 19.343868 32.488663
26.735073 19.387157 30.507359
28.378426 19.357443 28.298918
29.131672 17.328875 28.313931
29.841173 15.502716 28.312883
40.27116 9.438008 16.339273
40.419041 7.793043 16.702471
39.875675 8.435189 17.871088
39.281406 7.23893 19.678061
38.545399 5.741583 21.667519
37.301697 8.518085 22.467073
37.573486 6.456353 22.997978
37.737198 4.365922 23.566948
31.734457 10.11361 28.688044
32.219597 8.077451 29.084507
32.675957 6.23227 29.386467
29.988178 4.634559 32.885166
31.465256 4.435524 31.429386
32.996819 4.343891 29.800705
33.41328 2.367683 30.07091
20.268991 5.321519 42.559635
20.65613 3.646386 42.578899
21.095795 2.05522 42.526318
30.947502 22.775278 22.507015
31.348289 24.436226 20.53615
33.135429 25.289465 16.432346
34.44437 24.472116 14.584446
35.744198 23.462873 12.667699
36.811012 21.264696 12.920585
37.751667 19.136806 13.225969
38.461407 17.163076 13.797648
37.111107 16.872108 17.223616
38.205379 16.06027 15.730075
39.144371 15.118092 14.315808
39.685421 12.9955 15.069182
40.070057 11.091269 15.710295
40.570179 10.050116 14.829625
36.196381 11.077176 2.020424
36.948921 13.610269 2.359555
37.424633 11.129517 3.384004
38.454811 11.08395 4.837113
39.344952 10.975943 6.457502
40.019257 10.993119 8.131495
39.545502 15.242943 7.710538
40.084522 12.970192 8.74171
40.449383 10.888995 9.773938
40.689064 10.667967 11.473401
40.728523 10.377865 13.230712
40.486679 5.995924 16.912321
40.43375 3.921005 17.1849
20.326589 13.762316 40.431045
20.020834 14.692018 40.554401
19.543372 13.572126 41.387203
37.982191 18.143776 4.349266
37.56942 19.461298 4.037604
37.94079 19.173588 4.82454
21.251478 18.027174 38.170732
20.817121 16.906764 39.022138
22.005763 18.092812 37.185116
21.642524 19.142809 37.322764
21.251478 18.027174 38.170732
37.346193 22.068364 6.6426
36.80934 23.299756 6.452699
36.988758 22.979639 7.304597
37.810812 20.827223 6.857916
37.631394 21.14734 6.006018
37.346193 22.068364 6.6426
38.613882 7.394543 6.163811
38.078659 7.394593 5.353633
38.406687 8.641625 5.433102
38.881411 5.056492 7.550235
39.341117 5.287705 8.325226
40.361176 4.6961 11.551538
40.32797 5.649591 10.778845
40.537966 5.765021 11.598909
22.853672 1.404792 40.933638
23.686548 1.626973 40.047361
23.433531 2.410665 40.101333
23.500639 26.715543 31.558035
22.802889 26.642598 32.646083
23.296763 25.632244 32.428294
24.240005 26.67247 30.397675
23.500639 26.715543 31.558035
24.766733 25.549182 30.235879
25.012224 26.516463 29.293308
24.240005 26.67247 30.397675
36.841048 3.952259 25.091496
37.350323 3.620445 24.441686
37.227922 4.697736 24.216758
35.892775 2.382236 27.004156
35.270607 2.562974 27.75162
29.398167 3.70331 33.807596
29.217837 4.649265 33.656898
28.627826 3.718015 34.579329
31.687689 3.480943 31.544747
30.916276 3.583761 32.308235
31.138709 2.62918 32.423597
19.477516 5.130884 43.424452
20.070134 6.140841 42.569564
19.299384 2.454419 44.234186
18.66169 1.369963 45.104126
20.068428 2.635111 43.409742
19.887086 3.465693 43.403343
19.299384 2.454419 44.234186
27.185859 26.267555 25.919429
26.434124 26.343404 27.121527
29.309079 25.916152 22.726399
28.605011 26.003532 23.793188
29.137364 24.99091 23.716052
30.057189 25.650616 21.661561
29.309079 25.916152 22.726399
32.242302 24.95688 18.494264
31.494284 25.232084 19.544787
32.096308 24.161022 19.485627
32.989878 24.587641 17.433725
32.387853 25.658704 17.492885
32.242302 24.95688 18.494264
35.922049 12.450377 1.471821
35.49865 11.14341 1.363026
40.225708 3.262289 18.068583
40.239128 4.301751 17.915323
40.031086 3.643035 18.799006
40.157521 2.205755 18.205814
40.365563 2.864471 17.322131
40.225708 3.262289 18.068583
20.411789 15.859279 39.804718
20.020834 14.692018 40.554401
21.209384 15.929693 38.815664
20.817121 16.906764 39.022138
20.411789 15.859279 39.804718
26.029784 1.849901 37.714133
25.218383 1.826589 38.500225
36.024974 24.906098 7.972812
35.877825 25.419269 7.007271
35.450895 26.114337 7.865386
39.735689 5.45142 9.139883
39.341117 5.287705 8.325226
39.591657 6.449535 8.367529
40.392542 3.731954 12.378861
40.545285 3.909789 13.19917
21.072639 22.331029 36.992086
20.758622 21.19211 37.786312
21.350545 23.43721 36.197581
21.072639 22.331029 36.992086
21.793039 22.339253 36.002201
21.595704 24.565751 35.409673
21.350545 23.43721 36.197581
22.334979 24.502367 34.362019
21.859737 25.622683 34.563997
21.595704 24.565751 35.409673
34.618749 2.794223 28.488323
35.270607 2.562974 27.75162
35.124658 3.597119 27.550572
31.3137 1.64768 32.565728
31.138709 2.62918 32.423597
32.089681 1.539525 31.79685
31.3137 1.64768 32.565728
18.853434 0.549458 45.071657
18.66169 1.369963 45.104126
19.683542 0.854644 44.201326
18.853434 0.549458 45.071657
37.17947 19.778737 3.200766
37.56942 19.461298 4.037604
37.148457 18.531573 2.765444
37.17947 19.778737 3.200766
37.519272 17.241434 3.209698
37.056908 17.341521 2.412811
37.148457 18.531573 2.765444
39.750379 2.923339 19.712045
40.031086 3.643035 18.799006
39.763799 3.962802 19.558785
40.639969 4.040374 14.003652
40.545285 3.909789 13.19917
40.665855 4.942115 13.176083
40.555342 3.208438 14.831276
40.639969 4.040374 14.003652
40.675913 4.240763 14.808188
40.469834 2.299104 15.765375
40.555342 3.208438 14.831276
21.201686 20.155121 37.552543
20.758622 21.19211 37.786312
21.955971 20.220759 36.566927
21.201686 20.155121 37.552543
21.642524 19.142809 37.322764
28.073489 2.822678 35.433916
28.627826 3.718015 34.579329
27.89316 3.768633 35.283219
26.78212 1.902509 36.964451
26.586488 2.820688 36.887487
26.029784 1.849901 37.714133
27.53258 1.927275 36.238052
26.78212 1.902509 36.964451
28.073489 2.822678 35.433916
27.53258 1.927275 36.238052
36.290676 24.516547 6.223376
35.877825 25.419269 7.007271
36.290676 24.516547 6.223376
36.80934 23.299756 6.452699
37.812016 20.198655 5.367106
37.631394 21.14734 6.006018
38.224787 18.881133 5.678769
37.94079 19.173588 4.82454
37.812016 20.198655 5.367106
38.788227 2.72253 22.152656
38.374218 3.07209 22.876952
37.493231 7.35857 4.591039
37.256239 8.580067 3.904088
37.493231 7.35857 4.591039
38.078659 7.394593 5.353633
38.74147 6.216666 6.818607
38.613882 7.394543 6.163811
39.069498 7.463698 6.898076
38.425794 4.987338 6.81597
38.74147 6.216666 6.818607
38.881411 5.056492 7.550235
40.068704 5.596959 9.95683
40.245495 6.665881 10.004201
40.32797 5.649591 10.778845
39.735689 5.45142 9.139883
40.068704 5.596959 9.95683
40.361176 4.6961 11.551538
40.392542 3.731954 12.378861
24.43451 1.758972 39.289169
25.218383 1.826589 38.500225
25.05028 2.700463 38.426113
24.43451 1.758972 39.289169
23.686548 1.626973 40.047361
22.087111 26.667156 33.746235
21.859737 25.622683 34.563997
22.087111 26.667156 33.746235
22.802889 26.642598 32.646083
25.699604 26.393546 28.243623
25.012224 26.516463 29.293308
26.273472 25.343033 28.009417
26.434124 26.343404 27.121527
25.699604 26.393546 28.243623
35.02067 26.732107 8.721294
35.450895 26.114337 7.865386
35.05056 26.258397 9.703387
35.02067 26.732107 8.721294
35.109099 25.772078 10.632553
35.656583 25.114847 9.760093
35.05056 26.258397 9.703387
19.362923 11.593887 42.043919
19.06568 12.494711 42.165863
19.06568 12.494711 42.165863
19.543372 13.572126 41.387203
37.874901 3.339266 23.675762
38.374218 3.07209 22.876952
38.236515 4.098746 22.768138
37.874901 3.339266 23.675762
37.350323 3.620445 24.441686
36.369982 3.120419 26.065147
36.841048 3.952259 25.091496
36.247581 4.19771 25.840218
36.369982 3.120419 26.065147
35.892775 2.382236 27.004156
30.177737 3.683279 33.036125
29.398167 3.70331 33.807596
30.726717 4.535042 32.157276
30.177737 3.683279 33.036125
30.916276 3.583761 32.308235
34.088989 2.06388 29.380141
34.618749 2.794223 28.488323
33.94304 3.098026 29.179093
32.841261 1.460185 31.00225
32.661701 2.447023 30.86551
32.089681 1.539525 31.79685
33.520967 1.314296 30.300598
32.841261 1.460185 31.00225
34.088989 2.06388 29.380141
33.520967 1.314296 30.300598
19.656489 10.650886 41.940354
20.142694 11.699423 41.160282
19.362923 11.593887 42.043919
19.865374 9.698425 41.930269
19.656489 10.650886 41.940354
20.113377 8.854529 41.860585
20.684263 9.912525 40.987032
19.865374 9.698425 41.930269
20.401771 8.014395 41.74842
20.113377 8.854529 41.860585
20.651896 7.138606 41.699922
21.18239 8.192839 40.868849
20.401771 8.014395 41.74842
20.850752 6.319284 41.689993
20.651896 7.138606 41.699922
20.070134 6.140841 42.569564
19.693517 4.30326 43.393711
19.477516 5.130884 43.424452
20.462561 4.483953 42.569267
19.693517 4.30326 43.393711
19.887086 3.465693 43.403343
20.491076 1.070335 43.344193
20.28826 1.839528 43.383452
19.683542 0.854644 44.201326
21.28741 1.215248 42.529786
20.491076 1.070335 43.344193
22.03984 1.28188 41.760431
21.848225 2.121852 41.756964
21.28741 1.215248 42.529786
22.853672 1.404792 40.933638
22.03984 1.28188 41.760431
35.142074 25.14258 11.640481
35.109099 25.772078 10.632553
27.898511 26.160255 24.867189
27.185859 26.267555 25.919429
27.720644 25.185592 25.835081
27.898511 26.160255 24.867189
28.605011 26.003532 23.793188
30.810617 25.416964 20.605004
30.057189 25.650616 21.661561
30.594861 24.669878 21.592706
30.810617 25.416964 20.605004
31.494284 25.232084 19.544787
32.546098 26.333864 16.460508
32.387853 25.658704 17.492885
33.165054 26.034878 15.46459
32.546098 26.333864 16.460508
33.819524 25.626203 14.540641
33.165054 26.034878 15.46459
33.7899 24.88079 15.508396
34.506698 25.064374 13.588075
33.819524 25.626203 14.540641
35.156612 24.559752 12.629701
34.506698 25.064374 13.588075
35.094284 23.967495 13.626072
35.72966 24.045701 11.678479
35.142074 25.14258 11.640481
35.156612 24.559752 12.629701
35.700715 9.744307 1.918635
35.002983 9.810541 1.261237
35.49865 11.14341 1.363026
36.418698 9.797817 2.602838
35.700715 9.744307 1.918635
36.868845 16.165111 2.108183
37.056908 17.341521 2.412811
36.629444 14.944554 1.859428
36.868845 16.165111 2.108183
37.188322 14.830825 2.60831
36.298319 13.716924 1.641386
36.629444 14.944554 1.859428
36.572651 12.343723 2.18999
35.922049 12.450377 1.471821
36.298319 13.716924 1.641386
37.032823 9.823988 3.284628
36.418698 9.797817 2.602838
36.810507 11.103347 2.702214
37.648049 9.885596 4.003464
37.256239 8.580067 3.904088
37.032823 9.823988 3.284628
40.44433 2.608383 16.547587
40.512518 3.664917 16.410356
40.365563 2.864471 17.322131
40.469834 2.299104 15.765375
40.44433 2.608383 16.547587
39.161857 2.428298 21.403904
39.109462 3.537338 21.220576
38.788227 2.72253 22.152656
39.491375 2.159994 20.616957
39.161857 2.428298 21.403904
39.17014 1.345185 21.549038
39.750379 2.923339 19.712045
39.491375 2.159994 20.616957
3 0 63 61
3 1 66 64
3 1 239 241
3 239 67 240
3 239 240 241
3 1 64 67
3 2 71 69
3 2 74 72
3 2 69 74
3 3 78 76
3 3 80 78
3 4 83 81
3 5 86 84
3 7 89 87
3 7 91 89
3 8 93 92
3 8 95 93
3 8 97 95
3 5 100 98
3 5 84 100
3 10 104 102
3 12 107 105
3 12 109 107
3 6 112 110
3 9 115 113
3 13 118 116
3 13 120 118
3 13 122 120
3 10 125 123
3 10 102 125
3 15 242 244
3 242 127 243
3 242 243 244
3 15 129 127
3 15 131 129
3 14 134 132
3 14 136 134
3 11 139 137
3 16 142 140
3 18 143 62
3 18 144 143
3 19 147 145
3 21 148 65
3 21 149 148
3 22 245 246
3 22 247 249
3 247 150 248
3 247 248 249
3 22 152 150
3 19 153 68
3 19 145 153
3 24 156 154
3 26 157 70
3 26 158 157
3 27 161 159
3 28 164 162
3 30 165 73
3 30 166 165
3 30 168 166
3 24 169 75
3 24 154 169
3 32 250 252
3 252 251 77
3 250 251 252
3 32 253 255
3 253 170 254
3 253 254 255
3 32 172 170
3 34 173 79
3 34 174 173
3 35 256 258
3 258 257 175
3 256 257 258
3 260 259 82
3 17 261 263
3 263 262 141
3 261 262 263
3 36 178 176
3 38 179 85
3 38 180 179
3 20 181 146
3 39 182 88
3 39 183 182
3 39 184 183
3 40 185 90
3 40 264 266
3 266 265 185
3 264 265 266
3 41 267 269
3 269 268 94
3 267 268 269
3 41 270 271
3 41 272 274
3 272 186 273
3 272 273 274
3 43 187 96
3 43 188 187
3 23 189 151
3 44 190 99
3 44 191 190
3 44 192 191
3 36 193 101
3 36 176 193
3 45 196 194
3 47 197 103
3 47 198 197
3 25 199 155
3 48 200 106
3 48 201 200
3 48 275 277
3 277 276 201
3 275 276 277
3 279 278 108
3 37 202 177
3 49 203 111
3 49 204 203
3 280 205 281
3 282 281 160
3 280 281 282
3 50 283 285
3 283 206 284
3 283 284 285
3 50 207 206
3 50 208 207
3 286 209 287
3 51 288 289
3 51 290 292
3 290 210 291
3 290 291 292
3 51 211 210
3 42 293 294
3 52 295 297
3 297 296 114
3 295 296 297
3 52 298 299
3 29 212 163
3 53 213 117
3 53 300 302
3 302 301 213
3 300 301 302
3 53 303 305
3 303 214 304
3 303 304 305
3 54 215 119
3 54 216 215
3 54 217 216
3 55 218 121
3 55 219 218
3 31 220 167
3 56 221 124
3 56 222 221
3 56 223 222
3 45 224 126
3 45 194 224
3 306 226 307
3 58 227 128
3 58 228 227
3 58 229 228
3 59 230 130
3 59 231 230
3 33 232 171
3 60 233 133
3 60 234 233
3 60 235 234
3 57 236 135
3 57 225 236
3 46 237 195
3 308 238 309
3 310 309 138
3 308 309 310
3 313 312 238
3 311 312 313
3 61 62 16
3 63 62 61
3 63 18 62
3 64 65 19
3 66 65 64
3 66 21 65
3 67 314 315
3 67 316 318
3 316 22 317
3 316 317 318
3 67 68 22
3 64 68 67
3 64 19 68
3 69 70 24
3 71 70 69
3 71 26 70
3 320 319 27
3 72 73 28
3 74 73 72
3 74 30 73
3 74 75 30
3 69 75 74
3 69 24 75
3 76 321 323
3 321 77 322
3 321 322 323
3 78 77 76
3 78 32 77
3 78 79 32
3 80 79 78
3 80 34 79
3 81 82 35
3 83 82 81
3 83 324 326
3 326 325 82
3 324 325 326
3 328 327 17
3 84 85 36
3 86 85 84
3 86 38 85
3 87 88 20
3 89 88 87
3 89 39 88
3 89 90 39
3 91 90 89
3 91 40 90
3 92 329 330
3 93 331 333
3 333 332 92
3 331 332 333
3 93 334 335
3 93 336 338
3 336 94 337
3 336 337 338
3 95 94 93
3 95 41 94
3 95 96 41
3 97 96 95
3 97 43 96
3 98 99 23
3 100 99 98
3 100 44 99
3 100 101 44
3 84 101 100
3 84 36 101
3 102 103 45
3 104 103 102
3 104 47 103
3 105 106 25
3 107 106 105
3 107 48 106
3 107 108 48
3 109 108 107
3 109 339 341
3 341 340 108
3 339 340 341
3 110 111 37
3 112 111 110
3 112 49 111
3 342 50 343
3 345 344 50
3 346 51 347
3 349 348 51
3 113 114 42
3 115 114 113
3 115 52 114
3 116 117 29
3 118 117 116
3 118 53 117
3 118 119 53
3 120 119 118
3 120 54 119
3 120 121 54
3 122 121 120
3 122 55 121
3 123 124 31
3 125 124 123
3 125 56 124
3 125 126 56
3 102 126 125
3 102 45 126
3 127 350 351
3 127 352 353
3 127 354 356
3 354 128 355
3 354 355 356
3 129 128 127
3 129 58 128
3 129 130 58
3 131 130 129
3 131 59 130
3 132 133 33
3 134 133 132
3 134 60 133
3 134 135 60
3 136 135 134
3 136 57 135
3 137 138 46
3 139 138 137
3 139 357 359
3 359 358 138
3 357 358 359
3 140 141 4
3 142 141 140
3 142 17 141
3 62 142 16
3 143 142 62
3 143 17 142
3 143 360 362
3 362 361 17
3 360 361 362
3 144 363 365
3 365 364 143
3 363 364 365
3 144 366 367
3 145 146 5
3 147 146 145
3 147 20 146
3 65 147 19
3 148 147 65
3 148 20 147
3 148 87 20
3 149 87 148
3 149 7 87
3 368 92 369
3 150 370 372
3 370 92 371
3 370 371 372
3 150 8 92
3 150 151 8
3 152 151 150
3 152 23 151
3 68 152 22
3 153 152 68
3 153 23 152
3 153 98 23
3 145 98 153
3 145 5 98
3 154 155 10
3 156 155 154
3 156 25 155
3 70 156 24
3 157 156 70
3 157 25 156
3 157 105 25
3 158 105 157
3 158 12 105
3 159 160 6
3 161 160 159
3 161 373 375
3 375 374 160
3 373 374 375
3 376 161 377
3 378 377 27
3 376 377 378
3 379 161 380
3 382 381 161
3 162 163 9
3 164 163 162
3 164 29 163
3 73 164 28
3 165 164 73
3 165 29 164
3 165 116 29
3 166 116 165
3 166 13 116
3 166 167 13
3 168 167 166
3 168 31 167
3 75 168 30
3 169 168 75
3 169 31 168
3 169 123 31
3 154 123 169
3 154 10 123
3 77 383 384
3 386 385 77
3 170 387 388
3 170 389 391
3 389 15 390
3 389 390 391
3 170 171 15
3 172 171 170
3 172 33 171
3 79 172 32
3 173 172 79
3 173 33 172
3 173 132 33
3 174 132 173
3 174 14 132
3 393 392 11
3 175 394 395
3 397 396 175
3 82 398 400
3 400 399 35
3 398 399 400
3 403 402 82
3 401 402 403
3 141 83 4
3 404 83 405
3 406 405 141
3 404 405 406
3 408 407 83
3 410 409 17
3 176 177 2
3 178 177 176
3 178 37 177
3 85 178 36
3 179 178 85
3 179 37 178
3 179 110 37
3 180 110 179
3 180 6 110
3 146 86 5
3 181 86 146
3 181 38 86
3 88 181 20
3 182 181 88
3 182 38 181
3 182 180 38
3 183 180 182
3 183 6 180
3 183 159 6
3 184 159 183
3 184 27 159
3 90 184 39
3 185 184 90
3 185 27 184
3 185 411 413
3 413 412 27
3 411 412 413
3 415 414 185
3 94 416 417
3 419 418 94
3 186 420 421
3 186 422 424
3 422 42 423
3 422 423 424
3 96 186 41
3 187 186 96
3 187 42 186
3 187 113 42
3 188 113 187
3 188 9 113
3 151 97 8
3 189 97 151
3 189 43 97
3 99 189 23
3 190 189 99
3 190 43 189
3 190 188 43
3 191 188 190
3 191 9 188
3 191 162 9
3 192 162 191
3 192 28 162
3 101 192 44
3 193 192 101
3 193 28 192
3 193 72 28
3 176 72 193
3 176 2 72
3 425 76 426
3 427 76 428
3 429 3 430
3 431 430 76
3 429 430 431
3 433 432 1
3 434 1 435
3 194 195 0
3 196 195 194
3 196 46 195
3 103 196 45
3 197 196 103
3 197 46 196
3 197 137 46
3 198 137 197
3 198 11 137
3 155 104 10
3 199 104 155
3 199 47 104
3 106 199 25
3 200 199 106
3 200 47 199
3 200 198 47
3 201 198 200
3 201 11 198
3 201 436 438
3 438 437 11
3 436 437 438
3 440 439 201
3 108 441 443
3 443 442 48
3 441 442 443
3 445 444 108
3 177 71 2
3 202 71 177
3 202 26 71
3 111 202 37
3 203 202 111
3 203 26 202
3 203 158 26
3 204 158 203
3 204 12 158
3 160 112 6
3 205 112 160
3 205 49 112
3 446 205 447
3 206 448 450
3 448 205 449
3 448 449 450
3 206 49 205
3 206 204 49
3 207 204 206
3 207 12 204
3 207 109 12
3 208 109 207
3 208 451 453
3 453 452 109
3 451 452 453
3 454 208 455
3 456 455 50
3 454 455 456
3 457 208 458
3 460 459 208
3 461 66 462
3 463 462 1
3 461 462 463
3 464 66 465
3 466 21 467
3 468 467 66
3 466 467 468
3 469 21 470
3 471 149 472
3 473 472 21
3 471 472 473
3 209 474 476
3 474 149 475
3 474 475 476
3 209 7 149
3 477 209 478
3 210 479 481
3 479 209 480
3 479 480 481
3 210 7 209
3 210 91 7
3 211 91 210
3 211 40 91
3 482 211 483
3 484 483 51
3 482 483 484
3 485 211 486
3 487 40 488
3 489 488 211
3 487 488 489
3 491 490 40
3 492 3 493
3 114 494 496
3 496 495 42
3 494 495 496
3 498 497 114
3 163 115 9
3 212 115 163
3 212 52 115
3 117 212 29
3 213 212 117
3 213 52 212
3 213 499 501
3 501 500 52
3 499 500 501
3 503 502 213
3 214 504 505
3 214 506 507
3 119 214 53
3 215 214 119
3 215 508 510
3 510 509 214
3 508 509 510
3 215 511 512
3 216 513 515
3 515 514 215
3 513 514 515
3 216 516 518
3 516 3 517
3 516 517 518
3 216 80 3
3 217 80 216
3 217 34 80
3 121 217 54
3 218 217 121
3 218 34 217
3 218 174 34
3 219 174 218
3 219 14 174
3 167 122 13
3 220 122 167
3 220 55 122
3 124 220 31
3 221 220 124
3 221 55 220
3 221 219 55
3 222 219 221
3 222 14 219
3 222 136 14
3 223 136 222
3 223 57 136
3 126 223 56
3 224 223 126
3 224 57 223
3 224 225 57
3 194 225 224
3 194 0 225
3 226 519 521
3 519 520 521
3 226 522 523
3 128 524 525
3 227 526 528
3 528 527 128
3 526 527 528
3 227 529 530
3 227 531 533
3 531 226 532
3 531 532 533
3 228 226 227
3 228 534 536
3 536 535 226
3 534 535 536
3 228 537 539
3 537 175 538
3 537 538 539
3 229 175 228
3 229 35 175
3 130 229 58
3 230 229 130
3 230 35 229
3 230 81 35
3 231 81 230
3 231 4 81
3 171 131 15
3 232 131 171
3 232 59 131
3 133 232 33
3 233 232 133
3 233 59 232
3 233 231 59
3 234 231 233
3 234 4 231
3 234 140 4
3 235 140 234
3 235 16 140
3 135 235 60
3 236 235 135
3 236 16 235
3 236 61 16
3 225 61 236
3 225 0 61
3 195 63 0
3 237 63 195
3 237 18 63
3 138 237 46
3 238 237 138
3 238 18 237
3 238 144 18
3 540 144 541
3 542 541 238
3 540 541 542
3 544 543 144
3 545 139 546
3 547 546 11
3 545 546 547
3 548 139 549
3 548 549 550
3 552 551 139
