ply
format ascii 1.0
element vertex 531
property float x
property float y
property float z
element face 579
property list uchar int vertex_index
end_header
27.88249 -51.488163 22.418795
17.830399 -66.875183 24.293221
32.03632 -46.313946 2.848225
36.261192 -36.636971 18.116011
30.473499 -49.771957 13.076292
28.759089 -54.314346 4.617265
26.557398 -57.894836 14.693075
32.606537 -36.465221 26.59214
32.313087 -43.818714 20.454342
34.409782 -42.123169 10.690858
23.197321 -59.401428 24.048048
37.775513 -34.81139 7.939837
29.41334 -50.786205 17.970602
28.592932 -53.67477 13.790315
27.288977 -54.820549 18.849569
30.451252 -43.981354 24.729631
30.036732 -47.723877 21.518885
31.477835 -46.964848 16.976696
26.982544 -58.811298 5.167779
20.689924 -63.274128 24.279385
22.732786 -63.150143 19.943859
34.734112 -36.652012 22.770775
34.684761 -32.892376 25.578566
36.573269 -33.080791 21.424831
37.981461 -29.688328 19.782097
37.774391 -33.066753 16.775806
38.495647 -32.436893 11.716951
37.215153 -36.01004 13.128543
33.204086 -44.289604 6.746021
31.328461 -48.207134 8.065269
30.450722 -50.07671 3.724384
29.533957 -52.160542 8.983748
27.672958 -56.398506 9.775071
25.846378 -60.577957 10.193383
29.790962 -35.795162 29.976257
30.26046 -40.062946 27.59371
32.68111 -40.307438 23.742565
34.40773 -40.078697 19.453417
35.478424 -39.654533 14.501404
33.595901 -43.150291 15.749352
32.485699 -45.825512 11.820914
25.806728 -51.576477 26.547266
25.587397 -55.478523 23.300623
23.345854 -55.58173 27.326441
25.053951 -59.045673 19.555435
24.471151 -62.148918 15.150663
32.212666 -32.172337 29.148346
34.364117 -28.661879 28.123806
36.212406 -38.504616 9.459366
28.736103 -51.106037 20.307314
28.395607 -52.712029 18.426554
27.6353 -53.113667 20.742941
28.022287 -49.738937 24.110643
29.158621 -47.864262 23.603479
28.931231 -49.606709 22.058039
29.785799 -49.210079 19.845434
19.274406 -65.165268 24.303982
20.529753 -65.163689 22.121494
19.14595 -67.024895 22.058895
35.550999 -36.711376 20.59383
35.705276 -34.869858 22.094826
36.4566 -34.968548 19.812952
37.22451 -33.140007 19.222664
37.073284 -34.896317 17.38098
37.583584 -34.539696 14.928283
36.802681 -36.38821 15.663866
32.563919 -45.396576 4.816173
33.419666 -43.554409 4.157205
32.90823 -44.329056 2.200301
30.919678 -49.050636 10.546816
30.408516 -50.207996 8.381431
29.97526 -51.040546 11.071548
27.623068 -55.663651 14.324915
28.087557 -55.12635 11.867941
27.123903 -57.208885 12.366598
26.791348 -58.420429 10.056858
26.1453 -59.378345 12.505647
27.676973 -41.627228 29.600935
28.867073 -39.716473 29.249926
29.095768 -41.897575 28.013504
31.423203 -44.014099 22.689121
31.55162 -42.071121 24.358192
32.459229 -42.231483 22.253839
33.529343 -40.355568 21.766218
33.323582 -41.997395 20.061596
34.045021 -41.648487 17.744829
33.041878 -43.460995 18.246279
31.066553 -48.256462 15.010644
32.048107 -46.407333 14.484375
31.496387 -47.734596 12.587518
31.891314 -47.061523 9.990712
24.586147 -53.523724 26.998264
29.599363 -52.189312 4.312162
30.06706 -51.071472 1.809088
24.383457 -57.546837 23.648479
25.388813 -57.158466 21.572193
24.202528 -59.302673 21.81023
22.520903 -64.714142 17.674274
23.66449 -62.702179 17.61812
23.337185 -64.372803 15.086377
31.265676 -36.179523 28.371592
30.995792 -34.00779 29.595716
32.335846 -34.36319 28.03129
35.688225 -31.01285 24.90947
34.540821 -30.874353 26.878134
35.506172 -28.986784 26.295168
35.455025 -26.813988 27.337948
36.421822 -27.314631 25.447775
38.184536 -33.683262 9.855011
34.937828 -41.000256 12.670247
35.942551 -39.023914 11.957237
35.337772 -40.29361 10.044924
30.032433 -50.229916 15.60285
29.55986 -51.634472 13.560315
29.009008 -52.295315 15.891614
28.030106 -54.223434 16.378128
26.928076 -56.419529 16.792324
29.325998 -43.837234 26.620304
29.335163 -45.865108 25.133512
30.291964 -45.954132 23.130699
31.215492 -45.691616 20.989859
31.966105 -45.377045 18.737167
30.878254 -47.233791 19.393894
30.493095 -48.770229 17.456223
27.876877 -56.566517 4.864453
23.074295 -61.303257 21.899658
21.843153 -63.23048 22.091276
21.562073 -65.079437 19.912224
33.764671 -36.670921 24.66964
33.654827 -34.673237 26.138134
34.711239 -34.877838 24.247679
35.660717 -33.089561 23.629541
36.571941 -31.332287 22.816696
37.334839 -31.317919 20.688334
37.898643 -31.431118 18.416174
38.401703 -31.197266 15.939919
38.199341 -32.775982 14.34951
37.930031 -34.147507 12.604197
37.553169 -35.429546 10.566282
33.82394 -43.210583 8.711473
34.670372 -41.514317 8.058107
34.099991 -42.431694 5.981092
31.65896 -47.36808 5.39098
31.229485 -48.187794 3.199863
30.859177 -49.16642 5.7988
29.9849 -51.200169 6.35598
29.117609 -53.254341 6.782555
29.048916 -53.039577 11.453352
28.618608 -54.229828 9.405051
28.243116 -55.357269 7.152933
27.338839 -57.556713 7.374288
26.41507 -59.737766 7.748748
31.362745 -38.179073 27.255095
30.485895 -41.918144 26.211342
31.61861 -40.089977 25.749262
32.687759 -38.40012 25.240002
33.712559 -38.502972 23.285553
34.613544 -38.452858 21.165054
35.400089 -38.322079 18.726345
35.90815 -38.243076 16.352638
34.997124 -39.986233 16.963633
34.547169 -41.387844 15.257518
34.04607 -42.697739 13.174391
32.542068 -45.059948 16.339397
33.068329 -44.535549 13.692926
33.442638 -43.988388 11.158081
32.872761 -45.092854 9.176329
32.21941 -46.317177 7.309988
26.951611 -51.568302 24.5194
26.768702 -53.356003 22.963686
25.787264 -53.541862 24.936985
24.583097 -55.511524 25.365265
23.385437 -57.470081 25.689859
22.063883 -59.532684 25.971697
26.508072 -55.135277 21.217255
26.155546 -56.940891 19.312677
25.830467 -58.581028 17.201342
23.942516 -61.105534 19.725735
24.766827 -60.70528 17.321779
25.59054 -59.924557 14.878469
25.160204 -61.505356 12.627895
30.714132 -31.858543 30.687845
33.522472 -32.600262 27.430901
33.31144 -30.379469 28.701681
34.319271 -26.365843 29.064978
36.374439 -37.839024 13.982924
36.759907 -37.297764 11.387457
37.025772 -36.69614 8.751327
31.805666 -46.75714 1.831711
32.21307 -45.761759 1.574629
32.21307 -45.761759 1.574629
32.649025 -44.769314 1.250668
32.472275 -45.321501 2.524263
28.543546 -42.764021 28.20588
28.38637 -41.762402 28.80722
27.834149 -42.628847 28.999595
29.030081 -53.716278 3.35456
29.450218 -52.653761 3.202008
29.179226 -53.251829 4.464714
22.749246 -65.359024 15.233369
22.929044 -64.543473 16.380326
22.341105 -65.529694 16.527317
23.156632 -65.097317 13.990121
22.749246 -65.359024 15.233369
36.028776 -29.152372 25.218768
35.597199 -29.999817 25.602319
36.119803 -30.165405 24.525919
36.486601 -28.316296 24.795071
35.963997 -28.150707 25.871471
36.028776 -29.152372 25.218768
36.838211 -27.374477 24.491051
36.486601 -28.316296 24.795071
38.060429 -33.956692 7.55459
38.264941 -33.392628 8.512176
37.980024 -34.247326 8.897424
37.829367 -34.512383 6.642746
38.060429 -33.956692 7.55459
28.737483 -46.847462 25.367558
28.724058 -45.790075 26.120175
27.329213 -58.140501 3.90065
27.77638 -57.01811 3.748987
27.42971 -57.688907 5.016116
21.266539 -63.252304 23.18533
21.954152 -62.26499 23.098622
21.377538 -62.286814 24.192676
20.925113 -66.022915 19.886862
21.045913 -65.121563 21.016859
20.408953 -66.065041 20.991497
21.381746 -65.948783 18.816288
20.925113 -66.022915 19.886862
33.874292 -42.596697 3.905901
33.574918 -43.039457 2.954655
25.645184 -61.295002 9.008358
25.92953 -60.874907 7.786041
26.130724 -60.157861 8.971065
30.178808 -39.023643 28.185572
29.482115 -38.850407 29.013679
29.563766 -39.889709 28.421818
30.811602 -39.121009 27.424402
30.729951 -38.081707 28.016264
30.178808 -39.023643 28.185572
21.454448 -59.442181 26.927037
22.091735 -58.537079 26.77855
21.462649 -60.446838 26.025488
21.454448 -59.442181 26.927037
26.355029 -50.70385 26.325484
25.761796 -50.58341 27.253768
26.379169 -51.572389 25.533333
26.92747 -50.699763 25.311551
26.355029 -50.70385 26.325484
30.635896 -49.591692 2.493009
31.025278 -48.647234 2.230748
30.840103 -49.132252 3.462124
30.289832 -50.519397 0.555521
29.927373 -51.541092 0.759831
29.620764 -34.650091 30.546449
29.001943 -35.617531 30.675964
32.110411 -31.069119 29.688734
31.361144 -30.912222 30.458483
31.463399 -32.01544 29.918095
33.765387 -28.356725 28.949239
33.239048 -29.21552 29.238177
33.837778 -29.520674 28.412743
34.341694 -27.513861 28.594392
33.742964 -27.208707 29.419826
33.765387 -28.356725 28.949239
35.346853 -25.729982 27.895375
35.877148 -25.964013 26.974694
37.954781 -28.785725 20.532229
37.655228 -29.605104 20.932287
38.719574 -31.547622 11.32064
38.607433 -31.721348 12.630858
35.142891 -40.547438 7.709156
34.820251 -41.078522 6.775558
28.590454 -48.801599 23.857061
28.649212 -47.847038 24.602542
28.081045 -48.784376 24.856123
26.890698 -59.301542 3.910609
26.5512 -59.881441 5.200244
19.717052 -66.995644 20.960197
20.408953 -66.065041 20.991497
19.837851 -66.094292 22.090194
33.319201 -43.426781 1.976203
33.574918 -43.039457 2.954655
33.163948 -43.941733 3.178753
33.058514 -43.797915 0.955585
33.319201 -43.426781 1.976203
33.058514 -43.797915 0.955585
32.649025 -44.769314 1.250668
28.272023 -40.671851 29.42543
28.109534 -39.538149 29.977566
27.514484 -40.493527 30.15307
24.579911 -52.520861 27.652556
25.196438 -52.5501 26.772765
25.190202 -51.547237 27.427058
23.960279 -53.50527 27.853707
24.579911 -52.520861 27.652556
23.340133 -54.534273 28.017795
23.966 -54.552727 27.162352
23.960279 -53.50527 27.853707
25.190202 -51.547237 27.427058
25.761796 -50.58341 27.253768
29.684067 -52.094841 1.950471
29.833212 -51.630392 3.060625
29.450218 -52.653761 3.202008
29.927373 -51.541092 0.759831
29.684067 -52.094841 1.950471
23.710932 -64.037112 13.944283
24.277915 -62.925169 13.976426
23.904168 -63.260861 15.11852
23.710932 -64.037112 13.944283
23.156632 -65.097317 13.990121
36.360546 -26.214334 26.029607
35.877148 -25.964013 26.974694
35.938423 -27.06431 26.392862
36.815866 -26.390615 25.018349
36.360546 -26.214334 26.029607
36.815866 -26.390615 25.018349
36.838211 -27.374477 24.491051
38.229809 -28.786607 19.402298
38.218817 -29.654781 18.710142
38.4422 -32.806612 9.441536
38.597755 -32.183428 10.372506
38.340091 -33.060077 10.785981
38.4422 -32.806612 9.441536
38.264941 -33.392628 8.512176
28.719476 -44.776138 26.863571
28.658662 -43.73385 27.50928
29.33058 -44.851171 25.876908
28.719476 -44.776138 26.863571
28.724058 -45.790075 26.120175
29.246892 -46.864685 24.368496
28.737483 -46.847462 25.367558
28.649212 -47.847038 24.602542
28.201588 -55.882485 3.625714
28.642694 -54.756399 3.50212
28.317983 -55.440432 4.740859
28.201588 -55.882485 3.625714
27.77638 -57.01811 3.748987
27.329213 -58.140501 3.90065
26.890698 -59.301542 3.910609
22.569723 -61.301378 23.002812
23.135808 -60.352343 22.973853
22.631236 -60.350464 24.077008
22.458724 -62.266869 21.995467
22.569723 -61.301378 23.002812
21.954152 -62.26499 23.098622
21.861162 -65.766136 17.697313
22.041488 -64.896789 18.793249
21.381746 -65.948783 18.816288
22.341105 -65.529694 16.527317
21.861162 -65.766136 17.697313
36.561661 -30.325124 23.479532
36.119803 -30.165405 24.525919
36.130083 -31.172569 23.863083
36.950468 -30.427084 22.449586
36.561661 -30.325124 23.479532
37.331917 -30.4199 21.385405
36.950468 -30.427084 22.449586
36.95339 -31.325103 21.752515
37.65815 -30.503124 20.235216
37.655228 -29.605104 20.932287
37.331917 -30.4199 21.385405
38.177408 -30.526176 18.027181
38.218817 -29.654781 18.710142
37.940052 -30.559723 19.099136
38.428938 -30.40925 16.789053
38.177408 -30.526176 18.027181
38.150173 -31.314192 17.178047
38.616606 -30.345475 15.576587
38.428938 -30.40925 16.789053
38.560461 -31.101534 14.742342
38.616606 -30.345475 15.576587
38.45928 -31.890892 13.947138
38.560461 -31.101534 14.742342
38.300522 -31.986624 15.144714
38.347494 -32.606437 13.033231
38.607433 -31.721348 12.630858
38.45928 -31.890892 13.947138
34.535061 -41.537211 5.737051
34.820251 -41.078522 6.775558
34.385182 -41.973005 7.019599
34.214455 -42.035339 4.817844
33.759828 -42.993051 5.069149
33.874292 -42.596697 3.905901
34.535061 -41.537211 5.737051
34.214455 -42.035339 4.817844
26.267463 -60.344675 6.490728
26.5512 -59.881441 5.200244
26.698807 -59.274532 6.458264
26.267463 -60.344675 6.490728
25.92953 -60.874907 7.786041
17.734265 -67.848465 23.12893
17.04409 -67.77171 24.176992
29.207326 -36.709234 30.130363
29.001943 -35.617531 30.675964
28.745382 -38.669889 29.767197
28.109534 -39.538149 29.977566
28.745382 -38.669889 29.767197
29.482115 -38.850407 29.013679
29.94406 -36.889752 29.376845
29.207326 -36.709234 30.130363
30.681416 -37.081932 28.574512
30.528319 -35.987342 29.173924
29.94406 -36.889752 29.376845
31.314211 -37.179298 27.813344
30.681416 -37.081932 28.574512
30.729951 -38.081707 28.016264
29.210883 -42.867405 27.316904
28.543546 -42.764021 28.20588
28.658662 -43.73385 27.50928
22.730286 -55.477801 28.191999
23.340133 -54.534273 28.017795
22.73272 -56.561602 27.455922
22.730286 -55.477801 28.191999
22.752512 -57.505777 26.637631
23.365645 -56.525906 26.50815
22.73272 -56.561602 27.455922
22.72466 -58.501383 25.830778
22.752512 -57.505777 26.637631
22.091735 -58.537079 26.77855
22.064517 -60.416092 25.038832
22.631236 -60.350464 24.077008
22.630602 -59.467056 25.009873
22.064517 -60.416092 25.038832
21.462649 -60.446838 26.025488
20.775669 -62.31756 25.179332
21.377538 -62.286814 24.192676
20.057282 -63.224537 25.294803
20.775669 -62.31756 25.179332
19.349522 -64.170107 25.307102
19.982165 -64.219698 24.291684
20.057282 -63.224537 25.294803
18.616006 -65.040256 25.343942
19.349522 -64.170107 25.307102
17.894003 -65.895214 25.338561
18.552402 -66.020226 24.298602
18.616006 -65.040256 25.343942
17.165829 -66.735127 25.275001
17.894003 -65.895214 25.338561
16.37952 -67.631653 25.158772
17.04409 -67.77171 24.176992
17.165829 -66.735127 25.275001
26.939889 -41.447441 30.289243
27.514484 -40.493527 30.15307
27.103115 -42.551535 29.76579
26.939889 -41.447441 30.289243
27.834149 -42.628847 28.999595
27.103115 -42.551535 29.76579
27.462809 -49.78508 25.107172
28.081045 -48.784376 24.856123
27.486949 -50.65362 24.315022
27.462809 -49.78508 25.107172
26.92747 -50.699763 25.311551
31.402248 -47.694063 2.00753
31.805666 -46.75714 1.831711
31.632903 -47.25087 3.024044
31.402248 -47.694063 2.00753
31.025278 -48.647234 2.230748
30.444065 -50.089073 1.535361
30.635896 -49.591692 2.493009
30.258891 -50.574091 2.766736
30.444065 -50.089073 1.535361
30.289832 -50.519397 0.555521
29.030081 -53.716278 3.35456
28.642694 -54.756399 3.50212
24.622442 -62.603388 12.715042
24.815677 -61.827137 13.889279
24.277915 -62.925169 13.976426
24.976208 -62.190153 11.514898
24.622442 -62.603388 12.715042
25.319296 -61.726453 10.297642
25.503291 -61.041657 11.410639
24.976208 -62.190153 11.514898
25.645184 -61.295002 9.008358
25.319296 -61.726453 10.297642
18.39204 -67.923321 22.011767
18.488174 -66.950039 23.176058
17.734265 -67.848465 23.12893
19.00882 -67.950894 20.885942
18.39204 -67.923321 22.011767
19.717052 -66.995644 20.960197
19.00882 -67.950894 20.885942
30.223179 -33.756405 30.356178
29.620764 -34.650091 30.546449
30.393377 -34.901476 29.785986
30.082349 -32.681781 30.902242
30.223179 -33.756405 30.356178
30.854962 -32.933166 30.14178
29.985591 -31.499173 31.383451
30.082349 -32.681781 30.902242
30.635 -30.677619 31.172275
29.985591 -31.499173 31.383451
30.635 -30.677619 31.172275
31.361144 -30.912222 30.458483
32.659798 -30.172685 29.465401
32.110411 -31.069119 29.688734
32.762053 -31.275903 28.925013
32.659798 -30.172685 29.465401
33.239048 -29.21552 29.238177
33.680763 -26.161094 29.841645
33.742964 -27.208707 29.419826
34.242953 -25.205427 29.533183
33.680763 -26.161094 29.841645
34.778976 -25.50591 28.75889
34.887148 -26.589916 28.201463
35.346853 -25.729982 27.895375
34.242953 -25.205427 29.533183
34.778976 -25.50591 28.75889
37.954781 -28.785725 20.532229
38.229809 -28.786607 19.402298
38.719574 -31.547622 11.32064
38.597755 -32.183428 10.372506
35.476591 -39.937084 8.702565
35.004072 -40.903964 9.051516
35.142891 -40.547438 7.709156
35.913908 -39.042587 8.409786
35.775089 -39.399113 9.752145
35.476591 -39.937084 8.702565
36.332498 -38.144959 8.102206
35.913908 -39.042587 8.409786
36.739182 -37.24072 7.748187
36.619089 -37.600378 9.105346
36.332498 -38.144959 8.102206
37.124494 -36.334509 7.396973
36.739182 -37.24072 7.748187
37.499365 -35.392134 6.991229
37.400643 -35.753765 8.345582
37.124494 -36.334509 7.396973
37.829367 -34.512383 6.642746
37.499365 -35.392134 6.991229
3 0 51 49
3 0 54 52
3 0 49 54
3 2 188 189
3 1 58 56
3 3 61 59
3 3 63 61
3 3 65 63
3 2 68 66
3 2 190 192
3 192 191 68
3 190 191 192
3 4 71 69
3 6 74 72
3 6 76 74
3 193 79 194
3 195 194 77
3 193 194 195
3 8 82 80
3 8 84 82
3 8 86 84
3 4 89 87
3 4 69 89
3 5 196 198
3 198 197 92
3 196 197 198
3 10 96 94
3 199 99 200
3 201 200 97
3 199 200 201
3 203 202 99
3 7 102 100
3 204 105 205
3 206 205 103
3 204 205 206
3 207 107 208
3 209 208 105
3 207 208 209
3 211 210 107
3 11 212 214
3 214 213 108
3 212 213 214
3 11 215 216
3 9 111 109
3 12 114 112
3 14 115 50
3 14 116 115
3 217 118 218
3 16 119 53
3 16 120 119
3 16 122 120
3 12 123 55
3 12 112 123
3 18 219 221
3 221 220 124
3 219 220 221
3 19 222 224
3 222 126 223
3 222 223 224
3 225 127 226
3 227 226 57
3 225 226 227
3 229 228 127
3 21 130 128
3 23 131 60
3 23 132 131
3 23 133 132
3 25 134 62
3 25 135 134
3 25 136 135
3 27 137 64
3 27 138 137
3 28 141 139
3 231 230 67
3 29 144 142
3 31 145 70
3 31 146 145
3 13 147 113
3 32 148 73
3 32 149 148
3 32 150 149
3 33 151 75
3 33 232 234
3 234 233 151
3 232 233 234
3 35 235 237
3 237 236 78
3 235 236 237
3 35 238 240
3 238 152 239
3 238 239 240
3 15 153 117
3 36 154 81
3 36 155 154
3 36 156 155
3 37 157 83
3 37 158 157
3 37 160 158
3 39 161 85
3 39 162 161
3 17 163 121
3 40 164 88
3 40 165 164
3 40 166 165
3 29 167 90
3 29 142 167
3 41 170 168
3 43 171 91
3 43 172 171
3 241 173 242
3 244 243 173
3 41 245 246
3 41 247 249
3 247 168 248
3 247 248 249
3 30 250 252
3 252 251 143
3 250 251 252
3 254 253 93
3 42 174 169
3 44 175 95
3 44 176 175
3 20 177 125
3 45 178 98
3 45 179 178
3 45 180 179
3 34 255 256
3 46 181 101
3 46 257 259
3 259 258 181
3 257 258 259
3 22 182 129
3 47 183 104
3 47 260 262
3 262 261 183
3 260 261 262
3 47 263 265
3 263 184 264
3 263 264 265
3 267 266 106
3 24 268 269
3 26 270 271
3 38 185 159
3 48 186 110
3 48 187 186
3 273 272 140
3 49 50 12
3 51 50 49
3 51 14 50
3 52 274 276
3 274 53 275
3 274 275 276
3 54 53 52
3 54 16 53
3 54 55 16
3 49 55 54
3 49 12 55
3 278 277 18
3 56 57 19
3 58 57 56
3 58 279 281
3 281 280 57
3 279 280 281
3 59 60 21
3 61 60 59
3 61 23 60
3 61 62 23
3 63 62 61
3 63 25 62
3 63 64 25
3 65 64 63
3 65 27 64
3 66 67 28
3 68 67 66
3 68 282 284
3 284 283 67
3 282 283 284
3 68 285 286
3 288 287 68
3 69 70 29
3 71 70 69
3 71 31 70
3 72 73 13
3 74 73 72
3 74 32 73
3 74 75 32
3 76 75 74
3 76 33 75
3 77 289 291
3 289 78 290
3 289 290 291
3 79 78 77
3 79 35 78
3 80 81 15
3 82 81 80
3 82 36 81
3 82 83 36
3 84 83 82
3 84 37 83
3 84 85 37
3 86 85 84
3 86 39 85
3 87 88 17
3 89 88 87
3 89 40 88
3 89 90 40
3 69 90 89
3 69 29 90
3 292 91 293
3 294 293 41
3 292 293 294
3 295 91 296
3 297 43 298
3 299 298 91
3 297 298 299
3 300 41 301
3 92 93 30
3 302 93 303
3 304 303 92
3 302 303 304
3 306 305 93
3 94 95 42
3 96 95 94
3 96 44 95
3 97 98 20
3 99 98 97
3 99 45 98
3 99 307 309
3 309 308 45
3 307 308 309
3 311 310 99
3 100 101 34
3 102 101 100
3 102 46 101
3 103 104 22
3 105 104 103
3 105 47 104
3 105 106 47
3 107 106 105
3 107 312 314
3 314 313 106
3 312 313 314
3 107 315 316
3 318 317 107
3 320 319 24
3 108 321 323
3 323 322 26
3 321 322 323
3 325 324 108
3 109 110 38
3 111 110 109
3 111 48 110
3 112 113 4
3 114 113 112
3 114 13 113
3 50 114 12
3 115 114 50
3 115 13 114
3 115 72 13
3 116 72 115
3 116 6 72
3 326 117 327
3 118 328 330
3 328 117 329
3 328 329 330
3 118 15 117
3 53 331 333
3 331 118 332
3 331 332 333
3 119 118 53
3 119 15 118
3 119 80 15
3 120 80 119
3 120 8 80
3 120 121 8
3 122 121 120
3 122 17 121
3 55 122 16
3 123 122 55
3 123 17 122
3 123 87 17
3 112 87 123
3 112 4 87
3 124 334 336
3 336 335 5
3 334 335 336
3 338 337 124
3 340 339 18
3 341 125 342
3 343 342 10
3 341 342 343
3 126 344 346
3 344 125 345
3 344 345 346
3 126 20 125
3 57 126 19
3 127 126 57
3 127 20 126
3 127 97 20
3 347 97 348
3 349 348 127
3 347 348 349
3 351 350 97
3 128 129 7
3 130 129 128
3 130 22 129
3 60 130 21
3 131 130 60
3 131 22 130
3 131 103 22
3 132 103 131
3 132 352 354
3 354 353 103
3 352 353 354
3 132 355 356
3 133 357 359
3 359 358 132
3 357 358 359
3 133 360 362
3 360 24 361
3 360 361 362
3 62 133 23
3 134 133 62
3 134 24 133
3 134 363 365
3 365 364 24
3 363 364 365
3 135 366 368
3 368 367 134
3 366 367 368
3 135 369 370
3 135 371 372
3 136 373 375
3 375 374 135
3 373 374 375
3 136 376 378
3 376 26 377
3 376 377 378
3 64 136 25
3 137 136 64
3 137 26 136
3 137 108 26
3 138 108 137
3 138 11 108
3 139 140 9
3 141 140 139
3 141 379 381
3 381 380 140
3 379 380 381
3 67 141 28
3 382 141 383
3 384 383 67
3 382 383 384
3 386 385 141
3 142 143 2
3 144 143 142
3 144 30 143
3 70 144 29
3 145 144 70
3 145 30 144
3 145 92 30
3 146 92 145
3 146 5 92
3 113 71 4
3 147 71 113
3 147 31 71
3 73 147 13
3 148 147 73
3 148 31 147
3 148 146 31
3 149 146 148
3 149 5 146
3 149 124 5
3 150 124 149
3 150 18 124
3 75 150 32
3 151 150 75
3 151 18 150
3 151 387 389
3 389 388 18
3 387 388 389
3 391 390 151
3 393 392 1
3 394 34 395
3 78 396 397
3 399 398 78
3 400 34 401
3 402 100 403
3 404 403 34
3 402 403 404
3 152 405 407
3 405 100 406
3 405 406 407
3 152 7 100
3 117 408 410
3 408 79 409
3 408 409 410
3 153 79 117
3 153 35 79
3 81 153 15
3 154 153 81
3 154 35 153
3 154 152 35
3 155 152 154
3 155 7 152
3 155 128 7
3 156 128 155
3 156 21 128
3 83 156 36
3 157 156 83
3 157 21 156
3 157 59 21
3 158 59 157
3 158 3 59
3 158 159 3
3 160 159 158
3 160 38 159
3 85 160 37
3 161 160 85
3 161 38 160
3 161 109 38
3 162 109 161
3 162 9 109
3 121 86 8
3 163 86 121
3 163 39 86
3 88 163 17
3 164 163 88
3 164 39 163
3 164 162 39
3 165 162 164
3 165 9 162
3 165 139 9
3 166 139 165
3 166 28 139
3 90 166 40
3 167 166 90
3 167 28 166
3 167 66 28
3 142 66 167
3 142 2 66
3 168 169 0
3 170 169 168
3 170 42 169
3 91 170 41
3 171 170 91
3 171 42 170
3 171 94 42
3 172 94 171
3 172 10 94
3 411 43 412
3 413 43 414
3 415 172 416
3 417 416 43
3 415 416 417
3 173 418 420
3 418 172 419
3 418 419 420
3 173 10 172
3 173 421 423
3 423 422 10
3 421 422 423
3 425 424 173
3 426 19 427
3 428 19 429
3 430 56 431
3 432 431 19
3 430 431 432
3 433 56 434
3 435 1 436
3 437 436 56
3 435 436 437
3 438 1 439
3 442 441 1
3 440 441 442
3 443 77 444
3 445 77 446
3 448 447 77
3 449 52 450
3 168 451 453
3 451 52 452
3 451 452 453
3 168 0 52
3 143 454 456
3 456 455 2
3 454 455 456
3 458 457 143
3 93 459 461
3 461 460 30
3 459 460 461
3 463 462 93
3 465 464 5
3 169 51 0
3 174 51 169
3 174 14 51
3 95 174 42
3 175 174 95
3 175 14 174
3 175 116 14
3 176 116 175
3 176 6 116
3 125 96 10
3 177 96 125
3 177 44 96
3 98 177 20
3 178 177 98
3 178 44 177
3 178 176 44
3 179 176 178
3 179 6 176
3 179 76 6
3 180 76 179
3 180 33 76
3 466 180 467
3 468 467 45
3 466 467 468
3 469 180 470
3 471 33 472
3 473 472 180
3 471 472 473
3 475 474 33
3 476 58 477
3 478 477 1
3 476 477 478
3 479 58 480
3 482 481 58
3 101 483 485
3 485 484 34
3 483 484 485
3 181 486 488
3 488 487 101
3 486 487 488
3 181 489 490
3 181 491 492
3 494 493 181
3 129 102 7
3 182 102 129
3 182 46 102
3 104 182 22
3 183 182 104
3 183 46 182
3 183 495 497
3 497 496 46
3 495 496 497
3 499 498 183
3 184 500 501
3 184 502 503
3 106 184 47
3 504 184 505
3 506 505 106
3 504 505 506
3 508 507 184
3 510 509 24
3 512 511 26
3 159 65 3
3 185 65 159
3 185 27 65
3 110 185 38
3 186 185 110
3 186 27 185
3 186 138 27
3 187 138 186
3 187 11 138
3 140 111 9
3 513 111 514
3 515 514 140
3 513 514 515
3 516 48 517
3 518 517 111
3 516 517 518
3 519 48 520
3 521 187 522
3 523 522 48
3 521 522 523
3 524 187 525
3 526 11 527
3 528 527 187
3 526 527 528
3 530 529 11
