ply
format ascii 1.0
element vertex 397
property float x
property float y
property float z
element face 411
property list uchar int vertex_index
end_header
25.181982 -63.198639 5.220664
14.680948 -81.398109 2.794076
11.375172 -73.164635 23.150158
16.645842 -74.304939 14.295378
10.018136 -81.161591 12.345955
28.102551 -58.23151 -4.486025
24.297163 -67.919022 -4.944333
22.161306 -66.345245 15.38036
20.574669 -72.51284 4.569932
8.074618 -75.570877 22.476036
10.867502 -77.118652 17.930565
7.208592 -79.92868 17.052505
26.649162 -60.759274 0.300434
26.374979 -62.98727 -4.653075
24.662785 -65.631401 0.201448
20.288153 -66.966393 19.8615
15.774867 -77.841156 8.559192
18.786829 -73.720909 9.426918
17.872126 -76.952225 3.711059
19.874063 -75.303246 -1.072033
14.716892 -70.278709 23.753273
17.436449 -70.695755 19.4037
14.086444 -74.201881 18.804699
13.479645 -77.841354 13.400393
12.38898 -81.725433 7.630514
8.759105 -85.250999 6.744955
5.214088 -73.643051 26.792572
23.717495 -65.165901 10.276885
19.646767 -70.402939 14.828549
21.462564 -69.389992 10.112025
23.079533 -67.797401 5.055546
22.40696 -70.498367 -0.337894
6.376801 -76.826546 21.977724
7.649915 -77.72757 19.837341
5.867594 -79.006668 19.385729
5.443224 -81.136818 16.730644
26.119856 -60.951584 5.232709
26.798853 -59.791786 2.653439
25.858818 -62.158142 2.717435
25.639484 -63.287445 0.378612
24.841087 -64.551201 2.850424
15.134162 -79.716515 5.732095
16.80839 -77.529625 6.166628
16.237604 -79.242836 3.451164
13.038787 -71.823532 23.431623
14.487852 -72.275658 21.245779
12.805054 -73.792435 20.925533
10.358059 -79.157539 15.262044
12.136264 -77.695915 15.575212
11.702973 -79.594681 12.873517
12.881127 -79.893738 10.459873
11.095681 -81.724159 9.872513
10.529221 -83.613434 7.141009
9.323923 -83.195343 9.698796
6.998175 -72.590912 26.974003
5.645251 -71.449921 29.148561
2.272422 -73.250168 29.077726
29.301073 -53.11821 2.091855
28.165508 -57.254055 -2.153021
25.409473 -65.406517 -4.883193
24.084679 -63.70142 12.802189
22.976078 -65.821831 12.893865
17.033602 -72.463951 17.063234
18.547251 -70.711517 17.134916
18.149811 -72.400398 14.67508
19.739878 -73.127228 7.026736
20.160234 -71.594513 9.767733
21.04719 -70.952339 7.24958
22.25292 -68.731567 7.586898
21.846624 -70.173531 4.972294
22.696543 -69.189064 2.528476
21.562107 -71.407028 2.258693
9.790133 -74.391914 22.791718
11.176622 -75.129051 20.594982
9.407316 -76.468987 20.223345
9.017387 -78.544365 17.533432
8.640066 -80.664276 14.660139
8.105735 -82.806152 11.812702
6.786218 -82.110504 14.192109
27.675882 -57.469704 2.633521
27.468784 -58.536415 0.388858
27.318892 -59.640644 -2.074916
27.315126 -60.511124 -4.632484
26.436592 -61.991863 -2.075879
25.494534 -64.399117 -2.320018
24.428825 -66.871887 -2.407298
21.20142 -66.81813 17.720352
16.281033 -75.985771 11.564218
17.801491 -74.123764 11.735315
17.310932 -75.760956 9.185135
18.25819 -75.442413 6.604081
19.323603 -74.641647 4.211111
20.296192 -73.780243 1.742148
18.950768 -76.044121 1.507584
25.443991 -62.012047 7.823333
16.257782 -68.668236 24.060764
17.63813 -68.821747 21.96464
16.083405 -70.643021 21.581017
15.79212 -72.499069 19.142231
15.41383 -74.358978 16.569731
12.522875 -75.732986 18.301617
13.786672 -76.060036 16.124001
15.082728 -76.254753 13.609574
14.607987 -78.009796 10.975779
14.126018 -79.75872 8.232207
13.596472 -81.633461 5.188312
11.846119 -83.564766 4.789122
8.433814 -73.533684 24.882298
6.618507 -74.739693 24.540266
5.05952 -75.776573 24.211088
3.884053 -72.416794 29.078846
3.608317 -74.647499 26.544878
24.792213 -62.87495 10.401901
24.523935 -64.093559 7.792337
18.871689 -68.876892 19.71299
19.884388 -68.849098 17.438011
20.96492 -68.343376 15.185879
19.226166 -72.016983 12.329682
20.577124 -69.989502 12.528157
21.890675 -67.807037 12.720992
22.650238 -67.213715 10.370509
23.397835 -66.47834 7.74351
24.15626 -65.485542 5.336138
23.834297 -66.788391 2.822332
23.563042 -68.031914 0.163398
23.33033 -69.306404 -2.736254
21.134085 -72.937271 -0.519289
22.098629 -71.802597 -2.900734
5.212221 -78.48935 20.534821
6.122198 -77.916607 20.681726
5.466824 -77.399288 21.830819
4.931155 -79.593556 19.25216
5.212221 -78.48935 20.534821
15.271185 -81.084995 1.667906
16.049513 -80.007358 1.99645
15.459276 -80.320472 3.12262
14.421726 -82.245369 1.377498
15.271185 -81.084995 1.667906
5.825008 -70.329892 30.290067
6.49495 -70.954773 29.198687
29.030081 -53.716278 3.35456
29.450218 -52.653761 3.202008
28.50126 -57.037604 -4.519619
28.532739 -56.548876 -3.353117
28.134029 -57.742783 -3.319523
28.510659 -57.451611 -5.584077
28.50126 -57.037604 -4.519619
28.146699 -58.59951 -5.706948
28.510659 -57.451611 -5.584077
24.778852 -67.228424 -6.073685
25.335006 -65.972172 -6.043116
24.853318 -66.662769 -4.913763
24.264515 -68.408672 -6.247557
24.778852 -67.228424 -6.073685
22.749246 -65.359024 15.233369
22.341105 -65.529694 16.527317
22.568692 -66.083538 14.137113
23.156632 -65.097317 13.990121
22.749246 -65.359024 15.233369
5.212611 -82.226628 15.349996
4.560735 -81.732075 16.56596
27.329213 -58.140501 3.90065
27.77638 -57.01811 3.748987
20.925113 -66.022915 19.886862
20.408953 -66.065041 20.991497
20.744787 -66.892261 18.790926
21.381746 -65.948783 18.816288
20.925113 -66.022915 19.886862
25.645184 -61.295002 9.008358
25.92953 -60.874907 7.786041
9.357743 -85.415069 5.461968
10.2428 -84.596287 5.659995
9.644163 -84.432216 6.942982
8.381207 -86.330318 5.264311
9.357743 -85.415069 5.461968
7.776557 -83.837596 10.472995
7.15622 -83.531189 11.634746
8.586807 -72.455376 26.099393
9.230705 -72.930267 25.084162
3.261671 -71.715366 30.273613
4.12142 -71.32904 30.185305
2.779657 -75.108216 26.495118
2.94037 -73.948834 27.811302
2.11171 -74.40955 27.761542
3.4337 -75.73814 25.280094
2.779657 -75.108216 26.495118
26.850639 -62.180088 -5.79026
27.320712 -60.942015 -5.779964
26.845053 -61.749197 -4.642779
21.968055 -72.432663 -4.219791
21.474025 -73.016041 -3.084623
22.61358 -71.128391 -4.073202
21.968055 -72.432663 -4.219791
4.71897 -80.658631 17.924618
5.655409 -80.071743 18.058187
4.931155 -79.593556 19.25216
4.560735 -81.732075 16.56596
4.71897 -80.658631 17.924618
26.459354 -60.371685 3.943074
26.890698 -59.301542 3.910609
26.5512 -59.881441 5.200244
19.717052 -66.995644 20.960197
20.408953 -66.065041 20.991497
16.828029 -78.87545 2.199817
17.64529 -77.730144 2.329765
17.054865 -78.097531 3.581112
16.828029 -78.87545 2.199817
16.049513 -80.007358 1.99645
7.171412 -71.525269 28.111407
7.868988 -71.98399 27.145246
6.321713 -72.020417 28.061282
7.171412 -71.525269 28.111407
6.49495 -70.954773 29.198687
1.626438 -72.574696 30.286974
2.455855 -72.132053 30.273053
1.423518 -73.733711 29.039234
1.626438 -72.574696 30.286974
2.11171 -74.40955 27.761542
1.423518 -73.733711 29.039234
29.684067 -52.094841 1.950471
29.450218 -52.653761 3.202008
29.544379 -52.564461 0.901214
29.684067 -52.094841 1.950471
28.560857 -56.101513 -2.268915
28.222142 -56.783554 -1.003127
28.560857 -56.101513 -2.268915
28.532739 -56.548876 -3.353117
25.875361 -64.664386 -5.940671
26.358114 -63.454763 -5.825612
25.892226 -64.196894 -4.768134
25.875361 -64.664386 -5.940671
25.335006 -65.972172 -6.043116
23.710932 -64.037112 13.944283
24.277915 -62.925169 13.976426
23.530379 -64.761626 12.848027
23.710932 -64.037112 13.944283
23.156632 -65.097317 13.990121
20.361742 -74.766366 -2.170272
19.641675 -76.093639 -2.439633
6.496462 -83.183365 12.824449
7.15622 -83.531189 11.634746
7.445976 -82.458328 13.002406
5.884108 -82.71347 14.080729
6.114721 -81.623661 15.461377
5.212611 -82.226628 15.349996
6.496462 -83.183365 12.824449
5.884108 -82.71347 14.080729
28.101091 -56.334078 2.510248
27.77638 -57.01811 3.748987
27.977329 -56.891379 1.390144
28.101091 -56.334078 2.510248
27.237368 -58.630745 2.64348
27.329213 -58.140501 3.90065
26.890698 -59.301542 3.910609
27.87378 -57.424734 0.267813
27.977329 -56.891379 1.390144
27.572333 -58.003059 1.511189
27.817146 -57.895235 -0.882081
28.222142 -56.783554 -1.003127
27.87378 -57.424734 0.267813
21.861162 -65.766136 17.697313
21.381746 -65.948783 18.816288
21.681363 -66.581688 16.550356
22.341105 -65.529694 16.527317
21.861162 -65.766136 17.697313
18.18461 -77.276093 1.228028
18.411447 -76.498173 2.609322
17.64529 -77.730144 2.329765
18.737395 -76.809285 0.095556
18.18461 -77.276093 1.228028
19.199042 -76.438847 -1.194253
19.412416 -75.673684 0.217776
18.737395 -76.809285 0.095556
19.641675 -76.093639 -2.439633
19.199042 -76.438847 -1.194253
26.267463 -60.344675 6.490728
26.5512 -59.881441 5.200244
25.781923 -61.481815 6.528021
26.267463 -60.344675 6.490728
25.92953 -60.874907 7.786041
16.947956 -68.744991 23.012702
17.734265 -67.848465 23.12893
17.04409 -67.77171 24.176992
13.295324 -82.577068 3.70456
13.837561 -82.459393 2.507442
14.13871 -81.515785 3.991194
12.420147 -83.542721 3.504964
13.295324 -82.577068 3.70456
12.721296 -82.599114 4.988717
11.535746 -84.539467 3.287478
12.420147 -83.542721 3.504964
10.901249 -84.571953 4.484051
11.18767 -83.5891 5.965065
10.2428 -84.596287 5.659995
11.535746 -84.539467 3.287478
10.901249 -84.571953 4.484051
8.385651 -84.032192 9.416042
8.714829 -83.000747 10.755749
7.776557 -83.837596 10.472995
8.103243 -85.06002 7.939122
9.041514 -84.223171 8.221875
8.385651 -84.032192 9.416042
7.768394 -86.111362 6.529568
8.103243 -85.06002 7.939122
8.381207 -86.330318 5.264311
7.768394 -86.111362 6.529568
16.37952 -67.631653 25.158772
17.04409 -67.77171 24.176992
15.576304 -68.446762 25.079282
16.37952 -67.631653 25.158772
14.805859 -69.251999 24.925537
15.487337 -69.473472 23.907018
15.576304 -68.446762 25.079282
14.073566 -70.023308 24.710922
14.805859 -69.251999 24.925537
13.234513 -70.795719 24.550097
13.87784 -71.05112 23.592448
14.073566 -70.023308 24.710922
12.369342 -71.462525 24.476914
13.234513 -70.795719 24.550097
11.537535 -72.133076 24.336182
12.206979 -72.494084 23.29089
12.369342 -71.462525 24.476914
10.701384 -72.745743 24.218092
11.537535 -72.133076 24.336182
9.908865 -73.359383 24.038872
10.582653 -73.778275 22.970938
10.701384 -72.745743 24.218092
9.111974 -73.962799 23.837008
9.908865 -73.359383 24.038872
9.230705 -72.930267 25.084162
7.715994 -73.062298 25.928151
8.586807 -72.455376 26.099393
7.868988 -71.98399 27.145246
4.808184 -76.874302 22.947501
5.466824 -77.399288 21.830819
5.71816 -76.301559 23.094406
5.002019 -70.845604 30.220162
5.825008 -70.329892 30.290067
4.764652 -71.933357 29.113703
5.002019 -70.845604 30.220162
4.12142 -71.32904 30.185305
3.078238 -72.833481 29.078286
3.261671 -71.715366 30.273613
2.455855 -72.132053 30.273053
4.159301 -76.302677 24.113199
4.333919 -75.212036 25.377983
3.4337 -75.73814 25.280094
4.808184 -76.874302 22.947501
4.159301 -76.302677 24.113199
28.913686 -54.158331 2.239415
29.030081 -53.716278 3.35456
29.183991 -53.609968 0.937075
28.913686 -54.158331 2.239415
29.544379 -52.564461 0.901214
29.183991 -53.609968 0.937075
27.752986 -59.739317 -5.780177
28.146699 -58.59951 -5.706948
27.708838 -59.371317 -4.559254
27.752986 -59.739317 -5.780177
27.320712 -60.942015 -5.779964
26.850639 -62.180088 -5.79026
26.358114 -63.454763 -5.825612
24.622442 -62.603388 12.715042
24.277915 -62.925169 13.976426
24.976208 -62.190153 11.514898
24.622442 -62.603388 12.715042
24.438446 -63.288185 11.602045
25.319296 -61.726453 10.297642
24.976208 -62.190153 11.514898
25.118102 -62.443499 9.112617
25.645184 -61.295002 9.008358
25.319296 -61.726453 10.297642
18.39204 -67.923321 22.011767
17.734265 -67.848465 23.12893
19.00882 -67.950894 20.885942
18.39204 -67.923321 22.011767
18.25491 -68.84932 20.838815
19.579921 -67.921642 19.787245
19.717052 -66.995644 20.960197
19.00882 -67.950894 20.885942
20.991754 -73.583378 -1.8939
20.504074 -74.120259 -0.795661
20.361742 -74.766366 -2.170272
21.616357 -72.369934 -1.710012
20.991754 -73.583378 -1.8939
21.474025 -73.016041 -3.084623
23.22943 -69.880294 -3.990963
22.714479 -70.554501 -2.818494
22.61358 -71.128391 -4.073202
23.712847 -69.186603 -5.095002
23.813747 -68.612713 -3.840294
23.22943 -69.880294 -3.990963
24.264515 -68.408672 -6.247557
23.712847 -69.186603 -5.095002
14.421726 -82.245369 1.377498
13.837561 -82.459393 2.507442
3 128 34 129
3 130 129 32
3 128 129 130
3 132 131 34
3 0 38 36
3 0 40 38
3 1 43 41
3 1 133 135
3 135 134 43
3 133 134 135
3 1 136 137
3 2 46 44
3 4 49 47
3 4 51 49
3 4 53 51
3 138 55 139
3 140 57 141
3 5 142 144
3 144 143 58
3 142 143 144
3 5 145 146
3 5 147 148
3 6 149 151
3 151 150 59
3 149 150 151
3 6 152 153
3 7 154 155
3 7 156 158
3 156 61 157
3 156 157 158
3 3 64 62
3 8 67 65
3 8 69 67
3 8 71 69
3 9 74 72
3 11 75 33
3 11 76 75
3 11 78 76
3 160 159 35
3 161 79 162
3 12 80 37
3 12 81 80
3 12 83 81
3 14 84 39
3 14 85 84
3 15 163 164
3 15 165 167
3 165 86 166
3 165 166 167
3 16 89 87
3 18 90 42
3 18 91 90
3 18 93 91
3 168 94 169
3 20 97 95
3 22 98 45
3 22 99 98
3 10 100 73
3 23 101 48
3 23 102 101
3 23 103 102
3 24 104 50
3 24 105 104
3 24 106 105
3 25 170 172
3 172 171 52
3 170 171 172
3 25 173 174
3 176 175 77
3 177 107 178
3 26 108 54
3 26 109 108
3 179 110 180
3 181 111 182
3 183 182 56
3 181 182 183
3 185 184 111
3 13 186 188
3 188 187 82
3 186 187 188
3 27 112 60
3 27 113 112
3 21 114 96
3 28 115 63
3 28 116 115
3 17 117 88
3 29 118 66
3 29 119 118
3 29 120 119
3 30 121 68
3 30 122 121
3 30 123 122
3 31 124 70
3 31 125 124
3 19 126 92
3 189 127 190
3 192 191 127
3 32 33 9
3 34 33 32
3 34 11 33
3 34 35 11
3 193 35 194
3 195 194 34
3 193 194 195
3 197 196 35
3 36 198 200
3 198 37 199
3 198 199 200
3 38 37 36
3 38 12 37
3 38 39 12
3 40 39 38
3 40 14 39
3 201 15 202
3 41 42 16
3 43 42 41
3 43 18 42
3 43 203 205
3 205 204 18
3 203 204 205
3 207 206 43
3 44 45 20
3 46 45 44
3 46 22 45
3 47 48 10
3 49 48 47
3 49 23 48
3 49 50 23
3 51 50 49
3 51 24 50
3 51 52 24
3 53 52 51
3 53 25 52
3 208 54 209
3 55 210 212
3 210 54 211
3 210 211 212
3 55 26 54
3 213 56 214
3 215 56 216
3 218 217 56
3 57 219 220
3 57 221 222
3 58 223 224
3 226 225 58
3 59 227 229
3 229 228 13
3 227 228 229
3 231 230 59
3 232 60 233
3 61 234 236
3 234 60 235
3 234 235 236
3 61 27 60
3 62 63 21
3 64 63 62
3 64 28 63
3 65 66 17
3 67 66 65
3 67 29 66
3 67 68 29
3 69 68 67
3 69 30 68
3 69 70 30
3 71 70 69
3 71 31 70
3 238 237 19
3 72 73 2
3 74 73 72
3 74 10 73
3 33 74 9
3 75 74 33
3 75 10 74
3 75 47 10
3 76 47 75
3 76 4 47
3 76 77 4
3 78 77 76
3 78 239 241
3 241 240 77
3 239 240 241
3 35 78 11
3 242 78 243
3 244 243 35
3 242 243 244
3 246 245 78
3 79 247 248
3 79 249 250
3 37 251 253
3 251 79 252
3 251 252 253
3 80 79 37
3 80 254 256
3 256 255 79
3 254 255 256
3 80 257 259
3 257 58 258
3 257 258 259
3 81 58 80
3 81 5 58
3 81 82 5
3 83 82 81
3 83 13 82
3 39 83 12
3 84 83 39
3 84 13 83
3 84 59 13
3 85 59 84
3 85 6 59
3 86 260 261
3 86 262 264
3 262 7 263
3 262 263 264
3 87 88 3
3 89 88 87
3 89 17 88
3 42 89 16
3 90 89 42
3 90 17 89
3 90 65 17
3 91 65 90
3 91 8 65
3 91 92 8
3 93 92 91
3 93 19 92
3 265 93 266
3 267 266 18
3 265 266 267
3 268 93 269
3 270 19 271
3 272 271 93
3 270 271 272
3 274 273 19
3 275 36 276
3 94 277 279
3 277 36 278
3 277 278 279
3 94 0 36
3 95 280 282
3 280 96 281
3 280 281 282
3 97 96 95
3 97 21 96
3 45 97 20
3 98 97 45
3 98 21 97
3 98 62 21
3 99 62 98
3 99 3 62
3 73 46 2
3 100 46 73
3 100 22 46
3 48 100 10
3 101 100 48
3 101 22 100
3 101 99 22
3 102 99 101
3 102 3 99
3 102 87 3
3 103 87 102
3 103 16 87
3 50 103 23
3 104 103 50
3 104 16 103
3 104 41 16
3 105 41 104
3 105 1 41
3 105 283 285
3 285 284 1
3 283 284 285
3 106 286 288
3 288 287 105
3 286 287 288
3 106 289 290
3 52 106 24
3 291 106 292
3 293 292 52
3 291 292 293
3 295 294 106
3 77 53 4
3 296 53 297
3 298 297 77
3 296 297 298
3 299 25 300
3 301 300 53
3 299 300 301
3 302 25 303
3 305 304 25
3 306 95 307
3 308 95 309
3 310 20 311
3 312 311 95
3 310 311 312
3 313 20 314
3 315 44 316
3 317 316 20
3 315 316 317
3 318 44 319
3 320 2 321
3 322 321 44
3 320 321 322
3 323 2 324
3 325 72 326
3 327 326 2
3 325 326 327
3 107 328 330
3 328 72 329
3 328 329 330
3 107 9 72
3 54 331 333
3 331 107 332
3 331 332 333
3 108 107 54
3 108 9 107
3 108 32 9
3 109 32 108
3 109 334 336
3 336 335 32
3 334 335 336
3 337 55 338
3 110 339 341
3 339 55 340
3 339 340 341
3 110 26 55
3 56 342 344
3 342 110 343
3 342 343 344
3 111 110 56
3 111 26 110
3 111 109 26
3 345 109 346
3 347 346 111
3 345 346 347
3 349 348 109
3 350 57 351
3 352 57 353
3 355 354 57
3 82 356 358
3 358 357 5
3 356 357 358
3 360 359 82
3 362 361 13
3 60 363 364
3 112 365 367
3 367 366 60
3 365 366 367
3 112 368 369
3 112 370 372
3 370 94 371
3 370 371 372
3 113 94 112
3 113 0 94
3 96 373 374
3 114 375 377
3 377 376 96
3 375 376 377
3 114 378 380
3 378 15 379
3 378 379 380
3 63 114 21
3 115 114 63
3 115 15 114
3 115 86 15
3 116 86 115
3 116 7 86
3 88 64 3
3 117 64 88
3 117 28 64
3 66 117 17
3 118 117 66
3 118 28 117
3 118 116 28
3 119 116 118
3 119 7 116
3 119 61 7
3 120 61 119
3 120 27 61
3 68 120 29
3 121 120 68
3 121 27 120
3 121 113 27
3 122 113 121
3 122 0 113
3 122 40 0
3 123 40 122
3 123 14 40
3 70 123 30
3 124 123 70
3 124 14 123
3 124 85 14
3 125 85 124
3 125 6 85
3 92 71 8
3 126 71 92
3 126 31 71
3 381 126 382
3 383 382 19
3 381 382 383
3 127 384 386
3 384 126 385
3 384 385 386
3 127 31 126
3 127 125 31
3 387 125 388
3 389 388 127
3 387 388 389
3 390 6 391
3 392 391 125
3 390 391 392
3 394 393 6
3 396 395 1
