ply
format ascii 1.0
element vertex 437
property float x
property float y
property float z
element face 483
property list uchar int vertex_index
end_header
-20.491482 -70.482437 12.900571
-25.16872 -56.253098 26.075338
-29.928886 -54.889572 6.584838
-34.725185 -46.925648 3.07241
-22.52566 -63.81876 20.230902
-25.109913 -62.664818 10.161342
-27.884697 -56.969296 17.029402
-33.102451 -49.748081 13.573205
-37.121796 -42.093597 10.197
-27.804794 -59.345737 -0.554578
-21.908773 -69.651794 7.750471
-36.642517 -42.768669 1.646453
-18.903002 -70.663979 17.689867
-23.833128 -60.194496 23.247107
-25.264084 -60.346825 18.771765
-26.754641 -56.944942 21.809433
-34.610695 -46.72879 16.894213
-35.289314 -46.100449 11.973898
-36.586639 -43.036373 15.150571
-20.962685 -63.065495 24.604332
-27.523331 -58.704865 8.215512
-26.363373 -61.219803 4.762958
-28.778736 -57.003357 2.803868
-32.400726 -50.975357 4.77749
-31.214645 -52.906216 1.115092
-21.458265 -67.181198 16.689079
-22.731258 -66.723831 11.761
-23.879786 -63.641113 15.283465
-26.406662 -59.870857 13.627431
-28.839619 -56.289505 11.958484
-29.509544 -53.756241 20.24544
-30.495937 -53.494175 15.241746
-31.42565 -52.492249 10.147347
-33.840145 -48.696014 8.406509
-35.938046 -44.779533 6.672934
-37.525028 -40.539471 5.181339
-19.899439 -66.785309 21.580553
-37.965866 -39.217937 13.488289
-38.148464 -38.227379 8.658536
-24.116106 -65.417435 6.377168
-25.523722 -63.850594 0.951156
-30.166882 -55.013664 -2.323419
-20.743073 -71.870506 8.194816
-21.182184 -70.203293 10.324494
-19.767414 -70.650368 15.251424
-24.450005 -58.264996 24.783661
-25.237003 -58.590904 22.687149
-25.962767 -56.752083 24.051783
-35.638165 -44.931793 16.085316
-23.081999 -59.535831 25.455631
-28.75481 -56.730389 7.434288
-28.084639 -57.98156 5.545244
-29.270298 -56.033943 4.64732
-33.662094 -48.85733 3.904994
-32.951828 -50.003155 2.131161
-34.130997 -47.915207 1.243762
-22.033566 -65.472351 18.413639
-22.730072 -65.337967 16.003857
-23.335644 -63.693043 17.748606
-26.571136 -58.643784 18.024744
-25.870579 -60.154411 16.338676
-27.131756 -58.422729 15.415279
-27.599237 -58.124233 12.695867
-28.314064 -56.789154 14.530756
-32.635799 -50.163574 16.151094
-31.36215 -51.945942 16.982344
-31.790623 -51.68499 14.395267
-30.950613 -53.086422 12.6458
-32.282478 -51.131004 11.822105
-32.6726 -50.590252 9.067323
-33.463322 -49.304409 11.005792
-36.270885 -44.147865 11.002405
-35.627369 -45.496559 9.313959
-36.512039 -43.59866 8.536114
-36.80994 -42.733025 5.954223
-37.292652 -41.511436 7.635438
-21.75536 -63.588314 22.501944
-21.263882 -65.341911 20.835489
-20.704163 -67.101982 19.229513
-38.413391 -36.756435 10.296845
-23.952093 -64.636238 10.970345
-23.398926 -66.159477 9.166524
-24.540545 -64.104744 8.316545
-27.064957 -60.321053 2.053508
-25.982422 -62.377029 2.786768
-26.651953 -61.633167 0.027815
-27.469418 -60.544846 -2.435566
-31.856071 -51.86573 -1.359267
-30.604237 -54.043766 -0.606759
-21.579556 -71.124039 5.596
-22.674105 -68.971252 4.933665
-35.716518 -44.942123 2.490939
-35.181744 -45.899467 0.642654
-23.157217 -62.023731 21.823572
-23.917021 -62.123257 19.402962
-24.577847 -60.3974 21.05311
-26.015266 -58.617622 20.405827
-27.377655 -57.020191 19.463083
-33.808044 -48.401329 15.350636
-34.22308 -47.960693 12.854019
-34.964962 -46.495682 14.499435
-35.987003 -44.594765 13.587056
-36.847095 -42.723145 12.678541
-22.36912 -61.591652 24.10778
-26.247675 -60.789207 9.16764
-25.626581 -62.179394 7.458509
-26.817041 -60.119099 6.497345
-27.558023 -59.102226 3.788991
-28.213959 -58.211967 1.277575
-31.164848 -52.95285 5.779592
-30.515694 -54.010674 3.892932
-31.756371 -51.995079 2.891877
-32.43903 -50.836559 0.267221
-20.998333 -68.803864 14.747504
-21.601284 -68.672592 12.313879
-22.153877 -66.999069 14.160406
-23.354422 -65.102303 13.377618
-24.535555 -63.170605 12.725153
-24.567989 -62.007313 16.98765
-25.131296 -61.758873 14.522038
-25.753756 -61.251286 11.78094
-26.945223 -59.392864 10.839304
-28.128504 -57.54401 10.193412
-29.3421 -55.698845 9.30774
-28.168886 -55.282738 21.141991
-28.638203 -55.447994 18.756069
-30.830784 -52.083961 19.585985
-30.065969 -53.642914 17.866129
-29.207956 -55.217426 16.161709
-29.726957 -54.813553 13.559959
-30.097689 -54.461044 10.92654
-30.649267 -53.720127 8.373816
-31.945644 -51.727551 7.47494
-33.11657 -49.853909 6.504859
-34.274841 -47.872784 5.695596
-34.593689 -47.415291 10.276077
-34.949623 -46.741035 7.597623
-35.307674 -45.938255 4.935729
-36.297367 -43.812225 4.075676
-37.086922 -41.763248 3.453292
-37.677151 -39.656036 2.647775
-19.442459 -68.696434 19.652126
-20.247036 -68.886238 17.221035
-37.351116 -41.141319 14.503412
-37.565105 -40.748569 12.034211
-38.11195 -38.684471 11.064146
-37.712578 -40.24707 9.489106
-37.86277 -39.407684 6.936963
-37.939056 -38.648987 4.414774
-38.037354 -37.62748 1.976408
-22.284153 -68.191727 9.838132
-23.035223 -67.478271 7.139532
-23.761057 -66.742531 4.370765
-25.232008 -63.333782 5.455015
-24.87199 -64.540718 3.5732
-24.435722 -66.085373 1.665049
-29.974047 -54.983692 2.001979
-29.380152 -56.168785 0.275497
-28.968538 -57.189857 -1.460869
-28.608139 -58.344563 -3.369593
-20.836833 -70.342865 11.612533
-20.642257 -71.141468 10.53868
-20.296906 -71.28104 11.826718
-19.911273 -71.430607 13.019865
-19.549239 -71.514572 14.195291
-20.129448 -70.566403 14.075997
-20.296906 -71.28104 11.826718
-19.911273 -71.430607 13.019865
-24.427364 -56.870802 26.439842
-24.704939 -55.887312 27.016673
-24.809362 -57.259047 25.429499
-24.068007 -57.876751 25.794003
-24.427364 -56.870802 26.439842
-31.653581 -52.288347 -2.293593
-32.244991 -51.217373 -2.66468
-36.416199 -43.240002 0.798146
-35.953199 -44.326729 1.22039
-36.179518 -43.855396 2.068696
-18.197942 -71.550156 17.813206
-18.442618 -70.5243 18.877225
-34.031954 -47.611565 17.40422
-34.392273 -46.773796 18.122939
-34.20937 -47.565059 16.122425
-33.630629 -48.447834 16.632431
-34.031954 -47.611565 17.40422
-33.012415 -49.835456 -0.049428
-32.695429 -50.419857 1.199191
-33.268814 -49.418754 0.882543
-32.761421 -50.270113 -0.992829
-33.012415 -49.835456 -0.049428
-34.94636 -46.309244 -0.319032
-35.469519 -45.229198 -0.65454
-28.839215 -54.51949 20.693715
-28.521155 -54.491936 21.817736
-29.191485 -53.728688 21.36946
-31.488025 -51.247377 19.081081
-31.241481 -51.238264 20.254684
-20.226689 -63.762183 24.87464
-20.514185 -62.688809 25.601919
-19.408125 -66.632915 22.614335
-20.131055 -65.903572 22.364419
-19.201869 -67.581963 21.744262
-19.408125 -66.632915 22.614335
-19.670949 -67.740871 20.616339
-18.973379 -68.537525 20.780048
-19.201869 -67.581963 21.744262
-37.658491 -40.179628 13.99585
-37.561374 -40.291422 15.223412
-37.868749 -39.329731 14.71585
-38.055563 -37.597658 4.026661
-38.058689 -38.027502 5.262484
-38.104712 -37.086905 2.807478
-37.988205 -38.138233 3.195591
-38.055563 -37.597658 4.026661
-25.395808 -64.482544 -0.066857
-24.851807 -65.599933 0.29009
-24.979722 -64.967984 1.308102
-29.078758 -57.697501 -4.658739
-29.205686 -57.188532 -3.733521
-28.48266 -58.891165 -4.250028
-29.078758 -57.697501 -4.658739
-20.422702 -71.975075 9.473841
-20.213568 -72.837356 8.317229
-20.962629 -71.0369 9.259655
-20.422702 -71.975075 9.473841
-20.642257 -71.141468 10.53868
-36.825524 -42.182188 0.459035
-37.000953 -41.726059 1.36398
-19.123447 -71.573982 15.398936
-18.691242 -71.580788 16.618157
-19.335208 -70.657173 16.470645
-19.123447 -71.573982 15.398936
-19.549239 -71.514572 14.195291
-34.937866 -45.866366 17.75011
-34.392273 -46.773796 18.122939
-35.451601 -44.967867 17.345661
-35.12443 -45.830292 16.489764
-34.937866 -45.866366 17.75011
-35.941374 -44.070888 16.861157
-35.451601 -44.967867 17.345661
-36.415611 -43.123178 16.393785
-36.112402 -43.984083 15.617943
-35.941374 -44.070888 16.861157
-23.384003 -58.512169 26.129988
-22.658678 -59.162607 26.394013
-23.766002 -58.900413 25.119646
-23.384003 -58.512169 26.129988
-24.068007 -57.876751 25.794003
-33.858398 -48.37478 0.438843
-33.268814 -49.418754 0.882543
-33.541412 -48.959181 1.687461
-29.866164 -52.95662 20.99774
-29.191485 -53.728688 21.36946
-31.998974 -51.054758 16.566719
-31.753708 -51.178368 17.779261
-32.390533 -50.287183 17.363636
-21.059016 -64.305074 22.825115
-20.662678 -64.043665 23.876309
-21.359023 -63.326904 23.553138
-20.813277 -65.181873 21.991887
-21.059016 -64.305074 22.825115
-21.509621 -64.465113 21.668717
-20.58166 -66.06361 21.208021
-20.131055 -65.903572 22.364419
-20.813277 -65.181873 21.991887
-38.129444 -38.34976 14.286969
-37.868749 -39.329731 14.71585
-38.448929 -35.754805 9.766382
-38.512739 -35.915596 11.007597
-38.3857 -36.438595 9.020215
-38.448929 -35.754805 9.766382
-38.253236 -37.174066 8.201061
-38.280927 -37.491907 9.47769
-38.3857 -36.438595 9.020215
-38.163393 -37.816698 7.384365
-38.253236 -37.174066 8.201061
-26.49764 -62.226606 -0.811531
-25.933524 -63.335319 -0.34986
-26.087837 -62.741881 0.489486
-26.906372 -61.682446 -2.043221
-26.49764 -62.226606 -0.811531
-27.060685 -61.089006 -1.203876
-27.346781 -61.15506 -3.403333
-26.906372 -61.682446 -2.043221
-31.027664 -53.377365 -1.917339
-31.230154 -52.954748 -0.983013
-31.653581 -52.288347 -2.293593
-30.808986 -53.862314 -2.775669
-30.385559 -54.528715 -1.465089
-31.027664 -53.377365 -1.917339
-20.588425 -72.636844 7.020257
-20.213568 -72.837356 8.317229
-21.006667 -72.263611 5.720849
-20.588425 -72.636844 7.020257
-21.161314 -71.497273 6.895408
-21.373662 -71.99984 4.453158
-21.006667 -72.263611 5.720849
-21.936058 -70.858799 4.208349
-21.373662 -71.99984 4.453158
-22.483332 -69.782406 3.877182
-21.936058 -70.858799 4.208349
-22.126831 -70.047646 5.264833
-23.054106 -68.580185 3.595284
-22.483332 -69.782406 3.877182
-35.685812 -44.805401 0.296247
-35.449131 -45.420795 1.566796
-35.953199 -44.326729 1.22039
-35.469519 -45.229198 -0.65454
-35.685812 -44.805401 0.296247
-36.416199 -43.240002 0.798146
-36.825524 -42.182188 0.459035
-18.197942 -71.550156 17.813206
-18.691242 -71.580788 16.618157
-33.044506 -49.328956 17.03266
-32.390533 -50.287183 17.363636
-33.221922 -49.282451 15.750865
-33.044506 -49.328956 17.03266
-33.630629 -48.447834 16.632431
-21.266843 -62.023466 25.322037
-20.514185 -62.688809 25.601919
-22.3265 -60.258634 25.747687
-22.658678 -59.162607 26.394013
-21.97006 -61.286545 25.073761
-22.3265 -60.258634 25.747687
-22.725559 -60.563742 24.781706
-21.665903 -62.328574 24.356056
-21.266843 -62.023466 25.322037
-21.97006 -61.286545 25.073761
-25.954056 -55.497489 25.747183
-25.508688 -55.215674 26.697097
-25.508688 -55.215674 26.697097
-24.704939 -55.887312 27.016673
-32.469942 -50.784699 -1.806072
-32.147551 -51.351145 -0.546023
-32.761421 -50.270113 -0.992829
-32.244991 -51.217373 -2.66468
-32.469942 -50.784699 -1.806072
-34.420986 -47.317114 -0.018478
-34.656371 -46.907337 0.943208
-34.94636 -46.309244 -0.319032
-33.858398 -48.37478 0.438843
-34.420986 -47.317114 -0.018478
-26.351079 -55.746981 24.735406
-25.565743 -56.50259 25.063561
-25.954056 -55.497489 25.747183
-26.678387 -55.993883 23.722839
-26.351079 -55.746981 24.735406
-27.074324 -56.090312 22.601664
-26.358704 -56.848512 22.930608
-26.678387 -55.993883 23.722839
-27.781447 -55.259211 22.267943
-28.521155 -54.491936 21.817736
-27.461763 -56.11384 21.475712
-27.074324 -56.090312 22.601664
-27.781447 -55.259211 22.267943
-30.526784 -52.12048 20.668012
-31.241481 -51.238264 20.254684
-30.170164 -52.920101 19.915712
-29.866164 -52.95662 20.99774
-30.526784 -52.12048 20.668012
-31.096467 -52.014952 18.284165
-31.488025 -51.247377 19.081081
-31.753708 -51.178368 17.779261
-37.223156 -41.223349 2.267399
-37.000953 -41.726059 1.36398
-36.864719 -42.265958 2.549872
-37.51827 -40.169742 1.864641
-37.223156 -41.223349 2.267399
-37.382036 -40.709642 3.050534
-37.772228 -39.090999 1.417822
-37.51827 -40.169742 1.864641
-20.226689 -63.762183 24.87464
-20.662678 -64.043665 23.876309
-18.712346 -69.540527 19.858354
-18.973379 -68.537525 20.780048
-19.172731 -69.680206 18.670997
-18.442618 -70.5243 18.877225
-18.712346 -69.540527 19.858354
-36.821821 -42.209289 16.038542
-36.415611 -43.123178 16.393785
-37.204059 -41.261763 15.714963
-37.561374 -40.291422 15.223412
-36.968877 -42.088846 14.826992
-36.821821 -42.209289 16.038542
-37.204059 -41.261763 15.714963
-38.184868 -38.182474 13.114508
-38.129444 -38.34976 14.286969
-38.408631 -36.951723 11.518785
-38.512739 -35.915596 11.007597
-38.25791 -37.915741 11.902436
-38.408631 -36.951723 11.518785
-38.26267 -37.720453 10.680495
-38.038908 -38.951204 12.276217
-38.184868 -38.182474 13.114508
-38.25791 -37.915741 11.902436
-38.020546 -38.406851 6.523579
-38.005617 -38.817532 7.79775
-38.163393 -37.816698 7.384365
-37.900913 -39.028335 5.675868
-38.020546 -38.406851 6.523579
-38.058689 -38.027502 5.262484
-37.95233 -38.076721 1.082138
-37.772228 -39.090999 1.417822
-37.857253 -38.641758 2.312092
-38.104147 -36.565447 1.618766
-38.104712 -37.086905 2.807478
-38.092976 -36.979668 0.755632
-38.104147 -36.565447 1.618766
-37.95233 -38.076721 1.082138
-38.092976 -36.979668 0.755632
-23.597582 -67.465824 3.313833
-23.054106 -68.580185 3.595284
-23.217581 -67.856892 4.652215
-23.934914 -67.137245 1.960975
-23.597582 -67.465824 3.313833
-24.098389 -66.413952 3.017907
-24.296307 -66.780438 0.647681
-23.934914 -67.137245 1.960975
-24.296307 -66.780438 0.647681
-24.851807 -65.599933 0.29009
-25.395808 -64.482544 -0.066857
-25.933524 -63.335319 -0.34986
-30.564793 -54.438758 -3.615181
-30.808986 -53.862314 -2.775669
-29.985057 -55.523083 -3.210433
-30.564793 -54.438758 -3.615181
-29.385885 -56.611179 -2.779158
-29.56771 -56.10176 -1.892144
-29.985057 -55.523083 -3.210433
-28.788339 -57.76721 -2.415231
-29.385885 -56.611179 -2.779158
-29.205686 -57.188532 -3.733521
-27.913299 -59.991307 -3.783015
-28.038778 -59.444705 -2.902579
-28.48266 -58.891165 -4.250028
-27.346781 -61.15506 -3.403333
-27.913299 -59.991307 -3.783015
3 0 160 162
3 160 43 161
3 160 161 162
3 0 163 165
3 165 164 44
3 163 164 165
3 0 166 167
3 1 47 45
3 1 168 169
3 1 170 172
3 170 45 171
3 170 171 172
3 2 52 50
3 3 55 53
3 4 58 56
3 6 61 59
3 6 63 61
3 7 66 64
3 7 68 66
3 7 70 68
3 8 73 71
3 8 75 73
3 4 77 76
3 4 56 77
3 5 82 80
3 9 85 83
3 9 86 85
3 174 173 87
3 10 89 42
3 10 90 89
3 11 175 177
3 177 176 91
3 175 176 177
3 12 178 179
3 13 95 93
3 15 96 46
3 15 97 96
3 16 180 181
3 16 182 184
3 182 98 183
3 182 183 184
3 16 100 98
3 18 101 48
3 18 102 101
3 13 103 49
3 13 93 103
3 20 106 104
3 22 107 51
3 22 108 107
3 23 111 109
3 185 112 186
3 187 186 54
3 185 186 187
3 189 188 112
3 191 190 92
3 25 115 113
3 27 116 57
3 27 117 116
3 14 118 94
3 28 119 60
3 28 120 119
3 28 121 120
3 29 122 62
3 29 123 122
3 30 192 194
3 192 124 193
3 192 193 194
3 30 125 124
3 195 126 196
3 31 127 65
3 31 128 127
3 31 129 128
3 32 130 67
3 32 131 130
3 32 132 131
3 33 133 69
3 33 134 133
3 17 135 99
3 34 136 72
3 34 137 136
3 34 138 137
3 35 139 74
3 35 140 139
3 19 197 198
3 36 199 200
3 36 201 202
3 36 203 205
3 203 141 204
3 203 204 205
3 25 142 78
3 25 113 142
3 37 206 208
3 206 143 207
3 206 207 208
3 37 144 143
3 38 145 79
3 38 146 145
3 38 147 146
3 209 148 210
3 211 149 212
3 213 212 148
3 211 212 213
3 26 150 114
3 39 151 81
3 39 152 151
3 21 153 105
3 40 154 84
3 40 155 154
3 40 214 216
3 216 215 155
3 214 215 216
3 24 156 110
3 41 157 88
3 41 158 157
3 217 159 218
3 220 219 159
3 221 42 222
3 43 223 225
3 223 42 224
3 223 224 225
3 43 10 42
3 227 226 11
3 44 228 230
3 230 229 12
3 228 229 230
3 232 231 44
3 45 46 13
3 47 46 45
3 47 15 46
3 233 16 234
3 235 48 236
3 237 236 16
3 235 236 237
3 238 48 239
3 240 18 241
3 242 241 48
3 240 241 242
3 243 49 244
3 45 245 247
3 245 49 246
3 245 246 247
3 45 13 49
3 50 51 20
3 52 51 50
3 52 22 51
3 53 54 23
3 55 54 53
3 55 248 250
3 250 249 54
3 248 249 250
3 56 57 25
3 58 57 56
3 58 27 57
3 59 60 14
3 61 60 59
3 61 28 60
3 61 62 28
3 63 62 61
3 63 29 62
3 251 30 252
3 64 253 255
3 253 65 254
3 253 254 255
3 66 65 64
3 66 31 65
3 66 67 31
3 68 67 66
3 68 32 67
3 68 69 32
3 70 69 68
3 70 33 69
3 71 72 17
3 73 72 71
3 73 34 72
3 73 74 34
3 75 74 73
3 75 35 74
3 76 256 258
3 258 257 19
3 256 257 258
3 77 259 261
3 261 260 76
3 259 260 261
3 77 262 264
3 262 36 263
3 262 263 264
3 77 78 36
3 56 78 77
3 56 25 78
3 265 37 266
3 267 79 268
3 269 79 270
3 271 38 272
3 273 272 79
3 271 272 273
3 275 274 38
3 80 81 26
3 82 81 80
3 82 39 81
3 83 84 21
3 85 84 83
3 85 40 84
3 85 276 278
3 278 277 40
3 276 277 278
3 86 279 281
3 281 280 85
3 279 280 281
3 86 282 283
3 87 88 24
3 284 88 285
3 286 285 87
3 284 285 286
3 287 41 288
3 289 288 88
3 287 288 289
3 42 290 291
3 89 292 294
3 294 293 42
3 292 293 294
3 89 295 296
3 89 297 298
3 90 299 301
3 301 300 89
3 299 300 301
3 90 302 303
3 91 92 3
3 304 92 305
3 306 305 91
3 304 305 306
3 308 307 92
3 310 309 11
3 312 311 12
3 93 94 4
3 95 94 93
3 95 14 94
3 46 95 13
3 96 95 46
3 96 14 95
3 96 59 14
3 97 59 96
3 97 6 59
3 313 64 314
3 98 315 317
3 315 64 316
3 315 316 317
3 98 7 64
3 98 99 7
3 100 99 98
3 100 17 99
3 48 100 16
3 101 100 48
3 101 17 100
3 101 71 17
3 102 71 101
3 102 8 71
3 318 19 319
3 49 320 321
3 103 322 324
3 324 323 49
3 322 323 324
3 103 325 327
3 325 19 326
3 325 326 327
3 103 76 19
3 93 76 103
3 93 4 76
3 104 105 5
3 106 105 104
3 106 21 105
3 51 106 20
3 107 106 51
3 107 21 106
3 107 83 21
3 108 83 107
3 108 9 83
3 329 328 1
3 330 1 331
3 109 110 2
3 111 110 109
3 111 24 110
3 54 111 23
3 112 111 54
3 112 24 111
3 112 87 24
3 332 87 333
3 334 333 112
3 332 333 334
3 336 335 87
3 92 55 3
3 337 55 338
3 339 338 92
3 337 338 339
3 341 340 55
3 113 114 0
3 115 114 113
3 115 26 114
3 57 115 25
3 116 115 57
3 116 26 115
3 116 80 26
3 117 80 116
3 117 5 80
3 94 58 4
3 118 58 94
3 118 27 58
3 60 118 14
3 119 118 60
3 119 27 118
3 119 117 27
3 120 117 119
3 120 5 117
3 120 104 5
3 121 104 120
3 121 20 104
3 62 121 28
3 122 121 62
3 122 20 121
3 122 50 20
3 123 50 122
3 123 2 50
3 342 47 343
3 344 343 1
3 342 343 344
3 345 47 346
3 347 15 348
3 349 348 47
3 347 348 349
3 124 350 351
3 124 352 354
3 352 15 353
3 352 353 354
3 124 97 15
3 125 97 124
3 125 6 97
3 126 355 356
3 126 357 359
3 357 30 358
3 357 358 359
3 65 360 362
3 360 126 361
3 360 361 362
3 127 126 65
3 127 30 126
3 127 125 30
3 128 125 127
3 128 6 125
3 128 63 6
3 129 63 128
3 129 29 63
3 67 129 31
3 130 129 67
3 130 29 129
3 130 123 29
3 131 123 130
3 131 2 123
3 131 109 2
3 132 109 131
3 132 23 109
3 69 132 32
3 133 132 69
3 133 23 132
3 133 53 23
3 134 53 133
3 134 3 53
3 99 70 7
3 135 70 99
3 135 33 70
3 72 135 17
3 136 135 72
3 136 33 135
3 136 134 33
3 137 134 136
3 137 3 134
3 137 91 3
3 138 91 137
3 138 11 91
3 74 138 34
3 139 138 74
3 139 11 138
3 139 363 365
3 365 364 11
3 363 364 365
3 140 366 368
3 368 367 139
3 366 367 368
3 140 369 370
3 372 371 19
3 141 373 374
3 141 375 377
3 375 12 376
3 375 376 377
3 78 141 36
3 142 141 78
3 142 12 141
3 142 44 12
3 113 44 142
3 113 0 44
3 378 18 379
3 143 380 381
3 143 382 384
3 382 18 383
3 382 383 384
3 143 102 18
3 144 102 143
3 144 8 102
3 385 37 386
3 79 387 388
3 145 389 391
3 391 390 79
3 389 390 391
3 145 392 394
3 392 37 393
3 392 393 394
3 145 144 37
3 146 144 145
3 146 8 144
3 146 75 8
3 147 75 146
3 147 35 75
3 395 147 396
3 397 396 38
3 395 396 397
3 148 398 400
3 398 147 399
3 398 399 400
3 148 35 147
3 148 140 35
3 149 140 148
3 149 401 403
3 403 402 140
3 401 402 403
3 404 149 405
3 406 149 407
3 409 408 149
3 114 43 0
3 150 43 114
3 150 10 43
3 81 150 26
3 151 150 81
3 151 10 150
3 151 90 10
3 152 90 151
3 152 410 412
3 412 411 90
3 410 411 412
3 105 82 5
3 153 82 105
3 153 39 82
3 84 153 21
3 154 153 84
3 154 39 153
3 154 152 39
3 155 152 154
3 155 413 415
3 415 414 152
3 413 414 415
3 155 416 417
3 419 418 155
3 421 420 40
3 110 52 2
3 156 52 110
3 156 22 52
3 88 156 24
3 157 156 88
3 157 22 156
3 157 108 22
3 158 108 157
3 158 9 108
3 422 41 423
3 424 41 425
3 426 158 427
3 428 427 41
3 426 427 428
3 159 429 431
3 429 158 430
3 429 430 431
3 159 9 158
3 159 86 9
3 432 86 433
3 434 433 159
3 432 433 434
3 436 435 86
