ply
format ascii 1.0
element vertex 469
property float x
property float y
property float z
element face 490
property list uchar int vertex_index
end_header
17.105274 -49.003506 35.306839
6.923867 -60.138287 38.706406
12.452764 -55.42197 36.964554
27.991325 -43.630466 28.398256
23.212395 -51.254776 29.970528
18.126045 -58.624001 31.275383
12.398397 -64.601761 31.713089
6.004765 -69.209862 31.431572
21.681601 -42.183567 33.744381
0.92308 -63.87709 40.094517
28.139803 -47.829815 25.601604
20.309593 -50.405785 32.785358
20.770905 -54.844223 30.765022
17.80966 -53.871979 33.632565
9.691193 -58.002476 37.906235
12.566628 -59.963329 34.841625
9.627206 -62.503784 35.228645
9.194833 -67.049522 31.670744
6.61338 -64.649757 35.491127
19.410191 -45.763477 34.42141
22.664211 -46.688072 32.041569
14.840263 -52.384418 36.145401
11.987921 -50.712719 38.511887
9.782799 -53.336872 39.627975
7.219264 -55.50864 40.969246
27.351994 -39.359825 30.705206
20.845013 -59.351677 27.882378
18.073109 -62.834614 28.273588
15.306521 -56.973381 34.334251
15.458179 -61.620457 31.6537
15.133111 -66.137115 28.118155
11.941851 -68.98336 27.797329
8.7398 -71.377068 27.316488
24.903008 -43.086964 31.406792
25.533951 -47.577583 29.195492
3.994291 -62.068062 39.428181
3.40382 -66.640945 35.686722
2.639288 -71.013939 31.46838
18.683462 -49.870605 34.083794
19.11216 -52.112282 33.200581
17.536274 -51.466782 34.506546
8.351529 -58.974449 38.37505
9.66398 -60.277466 36.683323
8.254362 -61.313698 36.990131
8.062086 -63.667274 35.372524
6.800669 -62.417236 37.187912
16.652369 -46.777473 35.949871
18.246162 -47.372334 34.861591
19.760113 -48.143002 33.730675
9.616961 -51.02663 40.338139
8.603035 -54.568741 40.191971
7.342227 -53.281696 41.72052
24.573675 -51.517998 28.306849
23.334412 -53.486816 28.70915
19.478399 -56.761757 31.048695
20.814457 -57.08815 29.509375
19.56311 -58.977528 29.657728
19.54817 -61.248802 27.952229
18.297436 -60.671711 29.782911
13.704535 -54.001217 36.520424
15.185054 -54.721371 35.259453
13.867231 -56.278179 35.648289
12.46465 -62.313614 33.4226
13.975164 -60.882526 33.279274
13.926895 -63.215778 31.692713
15.398598 -63.840836 29.999628
13.766388 -65.480072 29.915852
13.542972 -67.692696 27.917631
12.24445 -66.743912 29.891018
7.671943 -68.222458 31.457672
8.983788 -69.34198 29.457436
7.34465 -70.459625 29.248812
24.521744 -40.705002 32.339565
23.272043 -42.582397 32.679588
22.831587 -49.057194 31.181965
24.115368 -47.141857 30.733076
24.328186 -49.4198 29.633873
25.716864 -49.590343 27.96027
2.419766 -62.920177 39.862778
3.601749 -64.362419 37.733959
2.059565 -65.284721 37.921406
28.112953 -45.715042 27.106838
21.771791 -50.874252 31.463568
22.017981 -53.131981 30.335102
20.610395 -52.647427 31.828341
19.28747 -54.408382 32.279411
18.039581 -56.272331 32.534748
11.072743 -56.795357 37.441956
12.413598 -57.762642 36.064178
11.083167 -59.046288 36.383568
11.16174 -61.243397 35.047844
11.004545 -63.567787 33.512375
10.745085 -65.829659 31.793299
9.420347 -64.670502 33.674252
7.831411 -65.994194 33.523048
6.244715 -67.019264 33.532906
20.485933 -43.833294 34.127171
22.085846 -44.47472 33.003376
21.000059 -46.238903 33.319157
21.374945 -48.415604 32.530956
22.065151 -61.2995 24.105967
15.56343 -48.424255 36.399433
15.974066 -50.653397 35.746216
14.517783 -50.033913 36.837872
13.48909 -51.601109 37.257095
12.287379 -53.010067 37.799633
10.866479 -52.002842 39.106026
11.084978 -54.435795 38.288635
9.788231 -55.753483 38.814461
8.395761 -56.789509 39.455986
7.091506 -57.773033 39.983097
27.03953 -37.135147 31.66231
28.212925 -35.439899 31.375671
28.62369 -37.623306 30.284468
30.097157 -37.984341 28.777433
22.114717 -55.373871 29.057556
22.119587 -57.541473 27.585403
20.861414 -61.360992 26.079279
19.424639 -63.174946 26.310221
17.957607 -64.915245 26.383902
16.307701 -53.096809 34.947166
16.616579 -55.550232 33.935825
16.687353 -57.902451 32.86277
13.912619 -58.456554 34.672138
15.307487 -59.331982 33.191444
16.798092 -60.215324 31.472479
16.835888 -62.311337 29.955875
16.651669 -64.506119 28.240284
16.501259 -66.59507 26.256781
14.894826 -68.225288 26.097801
13.430239 -69.767906 25.668571
11.699898 -71.101517 25.522205
10.641683 -67.950714 29.826059
10.342155 -70.226936 27.568361
10.027597 -72.326851 25.286026
26.202806 -41.267654 30.977552
26.529257 -43.475842 29.930645
23.767225 -44.815762 31.747849
25.367712 -45.282593 30.30135
26.724962 -45.623184 28.830517
26.981249 -47.681412 27.432142
26.90333 -49.831223 26.103701
5.883303 -56.611298 41.56435
5.728906 -58.843376 40.427551
4.239886 -59.785362 40.963497
5.455985 -61.068516 39.132851
5.2382 -63.379551 37.478928
5.006135 -65.593483 35.672436
4.599673 -67.944458 33.609264
2.982263 -68.854599 33.652447
4.358786 -70.241287 31.291763
7.352162 -52.164655 42.050808
7.900059 -52.762626 41.383436
28.543546 -42.764021 28.20588
27.834149 -42.628847 28.999595
5.825008 -70.329892 30.290067
6.49495 -70.954773 29.198687
6.674708 -69.834744 30.340192
21.45999 -40.997936 34.107641
20.891047 -41.858173 34.254288
22.272683 -41.240919 33.602365
21.45999 -40.997936 34.107641
22.476822 -42.382982 33.211984
23.067903 -41.440334 33.069969
22.272683 -41.240919 33.602365
1.058418 -62.758524 41.002411
0.291216 -63.2106 41.210173
1.671423 -63.398634 39.978648
1.806761 -62.280067 40.886541
1.058418 -62.758524 41.002411
28.737483 -46.847462 25.367558
28.724058 -45.790075 26.120175
28.126378 -46.772429 26.354221
19.163091 -44.562492 34.769179
18.575539 -45.38739 34.984037
19.948062 -44.798386 34.27429
19.700962 -43.597401 34.622059
19.163091 -44.562492 34.769179
21.954152 -62.26499 23.098622
21.377538 -62.286814 24.192676
14.316831 -48.894972 37.143122
15.040606 -49.229084 36.618652
14.839654 -48.090143 36.923902
12.738505 -51.156914 37.884491
13.300723 -50.488059 37.586128
12.550138 -50.043864 38.213524
14.839654 -48.090143 36.923902
15.392711 -47.250839 36.66992
30.178808 -39.023643 28.185572
29.482115 -38.850407 29.013679
30.729951 -38.081707 28.016264
30.178808 -39.023643 28.185572
21.454448 -59.442181 26.927037
22.091735 -58.537079 26.77855
21.4823 -58.446575 27.733891
20.853214 -60.356335 26.980829
21.462649 -60.446838 26.025488
21.454448 -59.442181 26.927037
8.586807 -72.455376 26.099393
9.230705 -72.930267 25.084162
9.383699 -71.851959 26.301257
26.355029 -50.70385 26.325484
26.310097 -49.710783 27.031986
25.761796 -50.58341 27.253768
26.92747 -50.699763 25.311551
26.355029 -50.70385 26.325484
5.213316 -57.049986 41.88328
5.298633 -56.010578 42.378242
5.136118 -58.166025 41.31488
5.806105 -57.727337 40.99595
5.213316 -57.049986 41.88328
4.117089 -60.926712 40.195839
3.50597 -60.297411 41.156103
3.383172 -61.438761 40.388445
2.810776 -69.934269 32.560414
2.190967 -69.280109 33.689239
2.01948 -70.35978 32.597206
3.261671 -71.715366 30.273613
4.12142 -71.32904 30.185305
3.499037 -70.627613 31.380071
28.831745 -34.472459 31.246156
29.001943 -35.617531 30.675964
28.649212 -47.847038 24.602542
28.081045 -48.784376 24.856123
17.196628 -45.894388 35.748268
16.420924 -45.617186 36.24843
17.993524 -46.191818 35.204128
17.196628 -45.894388 35.748268
17.449266 -47.074904 35.405731
18.828177 -46.567906 34.6415
18.575539 -45.38739 34.984037
17.993524 -46.191818 35.204128
11.860947 -49.530538 38.793425
12.550138 -50.043864 38.213524
9.0515 -50.503202 40.952567
9.547777 -49.975339 40.596529
9.037426 -51.635093 40.692245
9.0515 -50.503202 40.952567
9.120345 -52.790215 40.337164
9.69988 -52.181751 39.983057
9.037426 -51.635093 40.692245
8.530463 -53.406149 40.619162
9.192917 -53.952807 39.909973
9.120345 -52.790215 40.337164
7.972631 -53.925218 40.956246
8.530463 -53.406149 40.619162
7.900059 -52.762626 41.383436
28.109534 -39.538149 29.977566
27.514484 -40.493527 30.15307
24.579911 -52.520861 27.652556
25.190202 -51.547237 27.427058
23.960279 -53.50527 27.853707
24.579911 -52.520861 27.652556
23.954044 -52.502407 28.508
23.340133 -54.534273 28.017795
23.960279 -53.50527 27.853707
7.171412 -71.525269 28.111407
7.868988 -71.98399 27.145246
8.042225 -70.918346 28.28265
7.171412 -71.525269 28.111407
6.49495 -70.954773 29.198687
23.692754 -40.501637 32.899957
24.325854 -39.566202 32.75136
23.896894 -41.643699 32.509577
23.692754 -40.501637 32.899957
23.067903 -41.440334 33.069969
25.190202 -51.547237 27.427058
25.761796 -50.58341 27.253768
25.14527 -50.55417 28.13356
2.59591 -61.864818 40.605744
1.806761 -62.280067 40.886541
3.207028 -62.494119 39.64548
3.383172 -61.438761 40.388445
2.59591 -61.864818 40.605744
1.809871 -71.456581 31.482301
2.01948 -70.35978 32.597206
1.626438 -72.574696 30.286974
2.455855 -72.132053 30.273053
1.809871 -71.456581 31.482301
28.719476 -44.776138 26.863571
28.658662 -43.73385 27.50928
28.052139 -44.672754 27.752547
28.719476 -44.776138 26.863571
28.724058 -45.790075 26.120175
28.737483 -46.847462 25.367558
28.649212 -47.847038 24.602542
20.293214 -42.683037 34.445683
19.700962 -43.597401 34.622059
21.083767 -43.008431 33.935776
20.891047 -41.858173 34.254288
20.293214 -42.683037 34.445683
0.074841 -64.289883 40.329679
0.291216 -63.2106 41.210173
0.699673 -64.934391 39.210226
0.074841 -64.289883 40.329679
22.569723 -61.301378 23.002812
22.631236 -60.350464 24.077008
22.569723 -61.301378 23.002812
21.954152 -62.26499 23.098622
13.815069 -49.70446 37.376516
14.316831 -48.894972 37.143122
14.003436 -50.817511 37.047483
13.815069 -49.70446 37.376516
13.300723 -50.488059 37.586128
11.346384 -50.177381 39.102695
11.860947 -49.530538 38.793425
10.160904 -50.334337 40.015822
9.547777 -49.975339 40.596529
10.785663 -50.822443 39.399765
10.160904 -50.334337 40.015822
10.24172 -51.514736 39.722082
11.4272 -51.357781 38.808957
11.346384 -50.177381 39.102695
10.785663 -50.822443 39.399765
15.937181 -46.427448 36.445139
16.420924 -45.617186 36.24843
16.1079 -47.600864 36.174652
15.937181 -46.427448 36.445139
15.392711 -47.250839 36.66992
27.626227 -36.287523 31.518991
27.394586 -35.142651 32.025156
26.807889 -35.990274 32.168475
29.207326 -36.709234 30.130363
29.001943 -35.617531 30.675964
28.418307 -36.531602 30.83007
28.745382 -38.669889 29.767197
27.987842 -38.491566 30.494837
28.109534 -39.538149 29.977566
29.360423 -37.803824 29.53095
28.745382 -38.669889 29.767197
29.482115 -38.850407 29.013679
29.94406 -36.889752 29.376845
29.207326 -36.709234 30.130363
29.360423 -37.803824 29.53095
30.681416 -37.081932 28.574512
29.94406 -36.889752 29.376845
30.681416 -37.081932 28.574512
30.729951 -38.081707 28.016264
28.543546 -42.764021 28.20588
28.658662 -43.73385 27.50928
22.730286 -55.477801 28.191999
23.340133 -54.534273 28.017795
22.724564 -54.430343 28.883353
22.73272 -56.561602 27.455922
22.730286 -55.477801 28.191999
22.117152 -56.457672 28.32148
22.752512 -57.505777 26.637631
22.73272 -56.561602 27.455922
22.752512 -57.505777 26.637631
22.091735 -58.537079 26.77855
22.064517 -60.416092 25.038832
22.631236 -60.350464 24.077008
21.463282 -61.330246 25.092623
22.064517 -60.416092 25.038832
21.462649 -60.446838 26.025488
20.775669 -62.31756 25.179332
21.377538 -62.286814 24.192676
21.463282 -61.330246 25.092623
20.057282 -63.224537 25.294803
20.775669 -62.31756 25.179332
20.143026 -62.267969 26.19475
19.349522 -64.170107 25.307102
20.057282 -63.224537 25.294803
18.616006 -65.040256 25.343942
19.349522 -64.170107 25.307102
18.691123 -64.045096 26.347061
17.894003 -65.895214 25.338561
18.616006 -65.040256 25.343942
17.165829 -66.735127 25.275001
17.894003 -65.895214 25.338561
17.229433 -65.755157 26.320341
16.37952 -67.631653 25.158772
17.165829 -66.735127 25.275001
15.576304 -68.446762 25.079282
16.37952 -67.631653 25.158772
15.698042 -67.410179 26.177291
14.805859 -69.251999 24.925537
15.576304 -68.446762 25.079282
14.073566 -70.023308 24.710922
14.805859 -69.251999 24.925537
14.162533 -68.996597 25.883186
13.234513 -70.795719 24.550097
14.073566 -70.023308 24.710922
12.369342 -71.462525 24.476914
13.234513 -70.795719 24.550097
12.565068 -70.434711 25.595388
11.537535 -72.133076 24.336182
12.369342 -71.462525 24.476914
10.701384 -72.745743 24.218092
11.537535 -72.133076 24.336182
10.863747 -71.714184 25.404115
9.908865 -73.359383 24.038872
10.701384 -72.745743 24.218092
9.908865 -73.359383 24.038872
9.230705 -72.930267 25.084162
8.586807 -72.455376 26.099393
7.868988 -71.98399 27.145246
26.212151 -36.873398 32.277137
26.807889 -35.990274 32.168475
26.395027 -38.039535 31.833104
26.212151 -36.873398 32.277137
26.551259 -39.151875 31.354552
27.195762 -38.247486 31.183758
26.395027 -38.039535 31.833104
25.136133 -39.824463 32.171732
24.325854 -39.566202 32.75136
25.976664 -40.105789 31.490725
25.136133 -39.824463 32.171732
25.362275 -40.986328 31.658558
26.7774 -40.313739 30.841379
26.551259 -39.151875 31.354552
25.976664 -40.105789 31.490725
26.939889 -41.447441 30.289243
27.514484 -40.493527 30.15307
26.7774 -40.313739 30.841379
27.103115 -42.551535 29.76579
26.939889 -41.447441 30.289243
26.366031 -42.371748 30.454099
27.260291 -43.553154 29.164451
27.834149 -42.628847 28.999595
27.103115 -42.551535 29.76579
27.462809 -49.78508 25.107172
28.081045 -48.784376 24.856123
27.521566 -48.830519 25.852652
27.462809 -49.78508 25.107172
26.92747 -50.699763 25.311551
6.745074 -52.721357 42.470554
7.352162 -52.164655 42.050808
6.715436 -53.802391 42.085634
6.745074 -52.721357 42.470554
6.653954 -54.915863 41.709997
7.280746 -54.395168 41.344883
6.715436 -53.802391 42.085634
5.985974 -55.467192 42.007549
5.298633 -56.010578 42.378242
6.551284 -56.059969 41.266798
6.653954 -54.915863 41.709997
5.985974 -55.467192 42.007549
3.665002 -59.135908 41.875597
3.50597 -60.297411 41.156103
4.391608 -58.637018 41.582853
3.665002 -59.135908 41.875597
4.984396 -59.314369 40.695524
5.136118 -58.166025 41.31488
4.391608 -58.637018 41.582853
1.267915 -65.638206 38.123671
1.491323 -64.580906 39.007962
0.699673 -64.934391 39.210226
1.889581 -66.3587 36.948629
1.267915 -65.638206 38.123671
2.561708 -67.036811 35.831288
2.731693 -65.962833 36.804064
1.889581 -66.3587 36.948629
2.35093 -68.143638 34.81415
2.190967 -69.280109 33.689239
3.193042 -67.747772 34.669584
2.561708 -67.036811 35.831288
2.35093 -68.143638 34.81415
5.002019 -70.845604 30.220162
5.825008 -70.329892 30.290067
5.181776 -69.725574 31.361667
5.002019 -70.845604 30.220162
4.12142 -71.32904 30.185305
3.261671 -71.715366 30.273613
2.455855 -72.132053 30.273053
28.0995 -34.292623 31.83639
27.394586 -35.142651 32.025156
28.0995 -34.292623 31.83639
28.831745 -34.472459 31.246156
3 0 40 38
3 1 43 41
3 1 45 43
3 0 47 46
3 0 38 47
3 151 51 152
3 3 153 154
3 4 53 52
3 5 56 54
3 5 58 56
3 2 61 59
3 6 64 62
3 6 66 64
3 6 68 66
3 7 71 69
3 7 155 157
3 157 156 71
3 155 156 157
3 8 158 159
3 8 160 161
3 8 162 164
3 162 73 163
3 162 163 164
3 4 76 74
3 4 52 76
3 9 165 166
3 9 167 169
3 167 78 168
3 167 168 169
3 9 80 78
3 10 170 172
3 172 171 81
3 170 171 172
3 11 84 82
3 13 85 39
3 13 86 85
3 14 89 87
3 16 90 42
3 16 91 90
3 16 93 91
3 18 94 44
3 18 95 94
3 19 173 174
3 19 175 177
3 175 96 176
3 175 176 177
3 19 98 96
3 11 99 48
3 11 82 99
3 179 178 100
3 180 103 181
3 182 181 101
3 180 181 182
3 22 183 185
3 183 104 184
3 183 184 185
3 22 105 104
3 23 106 49
3 23 107 106
3 23 108 107
3 24 109 50
3 24 110 109
3 186 101 187
3 25 113 111
3 188 114 189
3 191 190 114
3 12 115 83
3 26 116 55
3 26 192 194
3 194 193 116
3 192 193 194
3 26 195 197
3 195 117 196
3 195 196 197
3 27 118 57
3 27 119 118
3 21 120 102
3 28 121 60
3 28 122 121
3 15 123 88
3 29 124 63
3 29 125 124
3 29 126 125
3 30 127 65
3 30 128 127
3 30 129 128
3 31 130 67
3 31 131 130
3 17 132 92
3 32 133 70
3 32 134 133
3 32 198 200
3 200 199 134
3 198 199 200
3 33 135 72
3 33 136 135
3 20 137 97
3 34 138 75
3 34 139 138
3 34 140 139
3 201 141 202
3 203 202 77
3 201 202 203
3 205 204 141
3 206 142 207
3 208 143 209
3 210 209 142
3 208 209 210
3 35 211 213
3 211 144 212
3 211 212 213
3 35 145 144
3 35 146 145
3 36 147 79
3 36 148 147
3 37 214 216
3 214 149 215
3 214 215 216
3 37 150 149
3 37 217 219
3 219 218 150
3 217 218 219
3 221 220 112
3 223 222 10
3 38 39 11
3 40 39 38
3 40 13 39
3 41 42 14
3 43 42 41
3 43 16 42
3 43 44 16
3 45 44 43
3 45 18 44
3 46 224 225
3 47 226 228
3 228 227 46
3 226 227 228
3 47 229 231
3 229 19 230
3 229 230 231
3 47 48 19
3 38 48 47
3 38 11 48
3 232 22 233
3 234 49 235
3 236 49 237
3 238 23 239
3 240 239 49
3 238 239 240
3 241 50 242
3 243 242 23
3 241 242 243
3 51 244 246
3 244 50 245
3 244 245 246
3 51 24 50
3 248 247 25
3 52 249 250
3 53 251 253
3 253 252 52
3 251 252 253
3 53 254 255
3 54 55 12
3 56 55 54
3 56 26 55
3 56 57 26
3 58 57 56
3 58 27 57
3 59 60 21
3 61 60 59
3 61 28 60
3 62 63 15
3 64 63 62
3 64 29 63
3 64 65 29
3 66 65 64
3 66 30 65
3 66 67 30
3 68 67 66
3 68 31 67
3 69 70 17
3 71 70 69
3 71 32 70
3 71 256 258
3 258 257 32
3 256 257 258
3 260 259 71
3 261 72 262
3 73 263 265
3 263 72 264
3 263 264 265
3 73 33 72
3 74 75 20
3 76 75 74
3 76 34 75
3 76 77 34
3 52 77 76
3 52 266 268
3 268 267 77
3 266 267 268
3 78 269 270
3 78 271 273
3 271 35 272
3 271 272 273
3 78 79 35
3 80 79 78
3 80 36 79
3 274 37 275
3 278 277 37
3 276 277 278
3 81 279 281
3 281 280 3
3 279 280 281
3 283 282 81
3 285 284 10
3 82 83 4
3 84 83 82
3 84 12 83
3 39 84 11
3 85 84 39
3 85 12 84
3 85 54 12
3 86 54 85
3 86 5 54
3 87 88 2
3 89 88 87
3 89 15 88
3 42 89 14
3 90 89 42
3 90 15 89
3 90 62 15
3 91 62 90
3 91 6 62
3 91 92 6
3 93 92 91
3 93 17 92
3 44 93 16
3 94 93 44
3 94 17 93
3 94 69 17
3 95 69 94
3 95 7 69
3 96 286 287
3 96 288 290
3 288 8 289
3 288 289 290
3 96 97 8
3 98 97 96
3 98 20 97
3 48 98 19
3 99 98 48
3 99 20 98
3 99 74 20
3 82 74 99
3 82 4 74
3 291 9 292
3 294 293 9
3 100 295 296
3 298 297 100
3 101 102 0
3 103 102 101
3 103 21 102
3 299 103 300
3 104 301 303
3 301 103 302
3 301 302 303
3 104 21 103
3 104 59 21
3 105 59 104
3 105 2 59
3 304 22 305
3 49 306 307
3 106 308 310
3 310 309 49
3 308 309 310
3 106 311 313
3 311 22 312
3 311 312 313
3 106 105 22
3 107 105 106
3 107 2 105
3 107 87 2
3 108 87 107
3 108 14 87
3 50 108 23
3 109 108 50
3 109 14 108
3 109 41 14
3 110 41 109
3 110 1 41
3 314 46 315
3 101 316 318
3 316 46 317
3 316 317 318
3 101 0 46
3 111 319 321
3 319 112 320
3 319 320 321
3 113 112 111
3 113 322 324
3 324 323 112
3 322 323 324
3 325 113 326
3 327 326 25
3 325 326 327
3 114 328 330
3 328 113 329
3 328 329 330
3 114 331 333
3 333 332 113
3 331 332 333
3 114 334 335
3 337 336 114
3 339 338 3
3 83 53 4
3 115 53 83
3 115 340 342
3 342 341 53
3 340 341 342
3 55 115 12
3 116 115 55
3 116 343 345
3 345 344 115
3 343 344 345
3 116 346 347
3 349 348 116
3 350 100 351
3 117 352 354
3 352 100 353
3 352 353 354
3 117 355 357
3 357 356 100
3 355 356 357
3 57 117 26
3 118 117 57
3 118 358 360
3 360 359 117
3 358 359 360
3 118 361 362
3 119 363 365
3 365 364 118
3 363 364 365
3 119 366 367
3 102 40 0
3 120 40 102
3 120 13 40
3 60 120 21
3 121 120 60
3 121 13 120
3 121 86 13
3 122 86 121
3 122 5 86
3 88 61 2
3 123 61 88
3 123 28 61
3 63 123 15
3 124 123 63
3 124 28 123
3 124 122 28
3 125 122 124
3 125 5 122
3 125 58 5
3 126 58 125
3 126 27 58
3 65 126 29
3 127 126 65
3 127 27 126
3 127 119 27
3 128 119 127
3 128 368 370
3 370 369 119
3 368 369 370
3 128 371 372
3 129 373 375
3 375 374 128
3 373 374 375
3 129 376 377
3 67 129 30
3 130 129 67
3 130 378 380
3 380 379 129
3 378 379 380
3 130 381 382
3 131 383 385
3 385 384 130
3 383 384 385
3 131 386 387
3 92 68 6
3 132 68 92
3 132 31 68
3 70 132 17
3 133 132 70
3 133 31 132
3 133 131 31
3 134 131 133
3 134 388 390
3 390 389 131
3 388 389 390
3 134 391 392
3 394 393 134
3 396 395 32
3 397 111 398
3 399 111 400
3 401 25 402
3 403 402 111
3 401 402 403
3 72 404 405
3 135 406 408
3 408 407 72
3 406 407 408
3 135 409 411
3 409 25 410
3 409 410 411
3 135 412 414
3 414 413 25
3 412 413 414
3 136 415 417
3 417 416 135
3 415 416 417
3 136 418 420
3 418 3 419
3 418 419 420
3 97 73 8
3 137 73 97
3 137 33 73
3 75 137 20
3 138 137 75
3 138 33 137
3 138 136 33
3 139 136 138
3 139 3 136
3 139 81 3
3 140 81 139
3 140 10 81
3 77 140 34
3 141 140 77
3 141 10 140
3 141 421 423
3 423 422 10
3 421 422 423
3 425 424 141
3 426 51 427
3 428 51 429
3 430 24 431
3 432 431 51
3 430 431 432
3 142 433 434
3 142 435 437
3 435 24 436
3 435 436 437
3 142 110 24
3 143 110 142
3 143 1 110
3 144 438 439
3 144 440 441
3 144 442 444
3 442 143 443
3 442 443 444
3 145 143 144
3 145 1 143
3 145 45 1
3 146 45 145
3 146 18 45
3 79 146 35
3 147 146 79
3 147 18 146
3 147 95 18
3 148 95 147
3 148 7 95
3 445 80 446
3 447 446 9
3 445 446 447
3 448 80 449
3 450 36 451
3 452 451 80
3 450 451 452
3 149 453 454
3 149 455 457
3 455 36 456
3 455 456 457
3 149 148 36
3 150 148 149
3 150 7 148
3 150 458 460
3 460 459 7
3 458 459 460
3 462 461 150
3 464 463 37
3 112 465 466
3 468 467 112
