ply
format ascii 1.0
element vertex 582
property float x
property float y
property float z
element face 620
property list uchar int vertex_index
end_header
6.71544 -90.80027 12.810859
11.678028 -75.885155 35.820042
-0.431999 -71.285469 30.577602
-8.513668 -83.872902 12.558245
14.339238 -69.500122 46.93486
2.110692 -64.498116 39.853569
-12.81342 -85.705833 3.303697
15.98154 -83.53714 27.983366
9.24291 -83.251648 24.040882
8.055037 -67.669212 43.143166
5.486824 -73.89801 32.404224
2.525414 -81.119591 21.738148
-3.991147 -78.475258 21.557755
-0.860119 -88.189552 11.685755
-5.231377 -92.470871 2.063604
14.918705 -76.318474 37.641666
17.161051 -79.616432 33.89843
13.787008 -79.894897 31.921806
12.569909 -83.671753 25.989107
10.526009 -79.48587 29.998857
3.744562 -69.108902 36.384705
2.422131 -72.458885 31.362099
4.052433 -77.445435 26.986565
1.02781 -76.24366 26.267
-6.23589 -81.360313 17.294996
-2.512331 -83.379791 16.673834
-4.713886 -86.16597 12.079474
-2.975256 -90.765991 6.865397
-6.977102 -88.232773 7.362405
-14.92994 -85.290909 -1.648702
-11.503941 -89.4888 -2.310582
-13.506767 -88.99572 -7.00481
16.365402 -72.94574 43.211971
13.018601 -72.568825 41.593388
0.618425 -59.817719 42.918186
-10.72578 -85.30603 7.878253
-16.18434 -81.516594 3.589798
19.365253 -82.404976 29.99732
7.893029 -87.004333 18.331787
11.08876 -68.795135 45.039532
9.842236 -71.69191 39.76606
5.085143 -66.146446 41.46019
6.773019 -70.696617 37.716133
8.52766 -75.002335 34.021393
7.240499 -78.642372 28.189003
5.865163 -82.210838 22.710762
4.510939 -86.134171 17.142168
-0.723555 -79.910118 21.380772
0.869652 -84.819092 16.625425
2.842339 -89.746735 11.812254
-9.366228 -89.221115 2.598867
13.341187 -76.092697 36.894279
14.317424 -78.078178 34.784927
12.72064 -77.894867 33.921165
12.068871 -79.752792 30.897408
11.107236 -77.680634 32.892879
-16.191671 -86.120514 -9.189253
1.685925 -70.070389 33.378048
1.003218 -71.83416 30.96384
1.727626 -74.396378 28.721764
0.250813 -73.710663 28.499346
-9.169416 -81.525337 15.28721
-7.359486 -82.764709 14.900207
-5.46796 -83.770775 14.733373
-6.579157 -85.109772 12.291476
-5.810007 -87.393089 9.641006
-7.784057 -86.066032 9.971106
-14.280503 -87.138245 -4.401417
-15.308077 -86.640648 -6.876408
-14.517137 -88.476433 -9.349261
15.968526 -69.638184 47.714577
16.92461 -71.166138 45.949745
15.250311 -71.227173 45.09457
14.740462 -72.998413 42.264549
13.71288 -71.06459 44.274975
-17.112434 -81.10865 1.246755
16.502794 -81.543114 30.968794
18.221245 -81.100464 31.941833
17.654964 -83.131836 28.973831
10.954672 -83.630539 24.881063
12.053413 -85.723427 22.889526
10.341923 -85.557266 21.913515
8.591988 -85.162704 21.132078
9.557757 -68.330299 44.011551
10.402909 -70.244057 42.33353
8.865372 -69.725021 41.353081
3.632219 -65.37075 40.632786
4.599687 -71.522408 34.388474
5.207861 -69.812035 37.094978
6.054552 -72.096024 35.174061
7.600712 -72.810463 35.902248
6.952146 -74.357109 33.271484
7.788525 -76.704086 31.126209
6.260625 -76.21743 30.309311
3.38546 -79.44799 24.194218
4.963951 -79.879135 24.822868
4.227141 -81.665901 22.195429
5.178773 -84.111877 19.962334
3.463546 -83.600159 19.460459
-1.360098 -77.419159 23.777672
-2.282485 -79.036575 21.647644
-1.769449 -85.707054 14.268
-0.821582 -84.061943 16.670765
-0.006705 -86.547577 14.150608
1.869632 -87.352249 14.181757
0.935863 -88.965958 11.70663
1.971608 -91.258972 9.385991
0.058957 -90.535652 9.194467
-4.177681 -91.708298 4.430247
-11.933471 -85.395096 5.75528
-10.113287 -87.196007 5.338229
-11.094454 -87.535011 2.99401
-10.588598 -91.422569 -4.880975
-9.537365 -91.54068 -2.727271
16.623911 -76.289703 38.514732
17.624338 -77.770927 36.66296
15.998035 -78.027756 35.760777
15.524218 -79.856697 32.955212
14.875317 -81.745445 30.000572
14.226105 -83.618958 27.073446
13.171846 -81.64296 29.133221
11.444212 -81.663055 27.860085
9.792293 -81.358528 26.926407
7.156419 -65.432716 44.935837
3.001542 -66.879715 38.178204
2.354689 -68.448639 35.755836
3.136237 -70.863419 33.763569
3.920545 -73.167732 31.825499
4.774911 -75.506737 29.839647
3.266203 -74.911644 29.286079
2.610163 -76.883018 26.579126
1.88555 -78.65966 24.125069
-5.097005 -80.115982 19.282516
-3.282255 -80.918282 19.152884
-4.374097 -82.40979 16.948366
-3.629466 -84.743813 14.498324
-2.751555 -87.216164 11.864134
-1.918549 -89.532265 9.317228
-3.944591 -88.329216 9.645768
-4.951408 -89.536736 7.150014
-6.127394 -90.357445 4.744124
-13.900772 -85.562469 0.866377
-12.137626 -87.661209 0.489213
-13.25526 -87.402382 -1.82315
-12.554434 -89.232475 -4.532724
-11.637207 -91.1791 -7.156346
15.643588 -74.705345 40.351604
13.927128 -74.4627 39.624069
12.353611 -74.160782 38.796143
-10.263785 -82.515793 12.941604
-9.60905 -84.732674 10.231458
-11.393857 -83.16468 10.630816
-12.437106 -83.487488 8.49643
-13.557265 -83.683075 5.934038
-15.165697 -81.816093 5.967841
-14.570761 -83.650391 3.487957
-15.580495 -83.423569 0.944062
18.804428 -79.036453 34.941174
20.821154 -81.620491 30.664577
13.816111 -85.565269 24.186989
7.477905 -89.027145 15.524429
12.652705 -69.209808 45.982849
12.085433 -70.710449 43.371273
11.368999 -72.230507 40.577988
10.763442 -73.831932 37.784592
6.485581 -66.804276 42.358986
4.461299 -67.553093 39.012798
5.88597 -68.384827 39.638493
7.309548 -68.989166 40.53371
8.262441 -71.149246 38.782673
9.144264 -73.275574 36.910271
10.078845 -75.419998 34.984585
9.461475 -77.225548 32.022507
8.871815 -79.019836 29.159241
8.124981 -80.881027 26.138174
5.616795 -77.96032 27.632008
6.51147 -80.396896 25.407501
7.560087 -82.900208 23.159803
6.800982 -84.654953 20.444799
6.220961 -86.650917 17.625475
5.579556 -88.526367 14.932711
-1.129136 -73.199806 28.249325
-0.538789 -75.678215 26.004622
0.273352 -78.089409 23.847916
0.973312 -80.58622 21.467165
-1.560601 -81.691887 19.029902
0.122389 -82.331467 19.08873
1.816904 -83.139961 19.041109
2.716361 -85.579887 16.733273
3.718962 -88.028122 14.412292
4.744067 -90.254463 12.295531
-0.97543 -91.817787 6.775949
-8.916321 -86.812859 7.618987
-8.268197 -88.781715 5.003623
-7.294092 -90.936905 2.330425
-10.340299 -89.623627 -0.00715
-8.426311 -91.33004 -0.159474
-6.306195 -93.081047 -0.462017
7.329822 -91.8941 11.769035
7.692485 -91.007076 13.153858
6.31255 -91.648937 11.474076
7.329822 -91.8941 11.769035
-16.984872 -84.876159 -9.098641
-16.557673 -85.178063 -7.928144
0.285609 -71.559815 30.770721
0.617684 -70.663841 31.907324
-0.099925 -70.389496 31.714205
-16.115876 -85.43813 -6.771721
-15.631553 -85.715428 -5.479174
-16.557673 -85.178063 -7.928144
-15.749874 -86.380581 -8.03283
-16.115876 -85.43813 -6.771721
16.542821 -84.341972 27.003982
17.379534 -84.13932 27.499214
16.818252 -83.334488 28.478599
15.739921 -84.496952 26.557101
16.542821 -84.341972 27.003982
8.806397 -67.999755 43.577359
9.101716 -67.244495 44.919792
8.350355 -66.913951 44.485599
2.871455 -64.934433 40.243178
3.20187 -64.196968 41.446321
2.441107 -63.760651 41.056713
-4.313575 -77.172951 22.806014
-4.834758 -78.077656 21.651496
-3.523065 -77.623226 22.647841
-4.313575 -77.172951 22.806014
-3.136816 -78.755916 21.602699
-2.668734 -77.903885 22.692786
-3.523065 -77.623226 22.647841
-4.133045 -93.23264 1.892476
-3.606197 -92.851353 3.075797
-4.704529 -92.089585 3.246925
-4.730263 -93.533211 0.69365
-4.133045 -93.23264 1.892476
-9.497903 -92.51152 -5.096991
-10.119515 -92.362922 -6.195054
6.74283 -64.304449 45.802811
7.453824 -64.63477 46.30382
1.644775 -68.10897 35.47649
1.949095 -67.295177 36.619024
-6.509814 -80.201149 18.525123
-7.107318 -80.888835 17.396361
-5.666448 -80.738147 18.288756
-5.940371 -79.578983 19.518883
-6.509814 -80.201149 18.525123
-13.128419 -89.843952 -8.243594
-12.193639 -90.935642 -8.319362
-12.571987 -90.08741 -7.080578
-14.084167 -89.37331 -10.566574
-14.978254 -88.182743 -10.506139
17.154935 -72.780735 43.684579
17.434539 -71.890934 45.053466
16.645006 -72.055939 44.580858
16.864917 -73.740883 42.245052
17.154935 -72.780735 43.684579
16.004495 -73.825542 41.781788
16.50401 -74.620686 40.814869
16.864917 -73.740883 42.245052
1.306215 -60.230448 43.378483
0.867861 -59.023586 44.026476
0.962944 -60.91589 42.235424
1.306215 -60.230448 43.378483
-11.142305 -81.775574 13.091171
-10.580106 -81.38675 14.260008
-11.707342 -82.100018 11.935777
-10.828821 -82.840237 11.78621
-11.142305 -81.775574 13.091171
-13.268313 -82.635822 8.535101
-12.773374 -82.457035 9.781009
-13.828393 -82.733616 7.253905
-12.997186 -83.585282 7.215234
-13.268313 -82.635822 8.535101
-15.675019 -81.666343 4.778819
-15.879133 -80.789455 6.139674
-16.388455 -80.639705 4.950653
-16.845637 -82.008758 -0.058038
-17.553733 -80.868465 0.026152
19.577799 -81.368313 31.467234
19.005795 -80.716057 32.439491
18.793249 -81.75272 30.969576
20.093204 -82.012733 30.330948
20.305749 -80.97607 31.800863
19.577799 -81.368313 31.467234
19.889741 -82.992218 28.985176
20.617692 -82.599975 29.318804
20.093204 -82.012733 30.330948
12.655628 -86.665588 21.990768
11.814515 -86.644188 21.50814
8.512563 -88.14529 17.305043
8.818748 -87.208584 18.714596
7.685467 -88.015739 16.928108
8.305001 -89.156696 15.901364
8.512563 -88.14529 17.305043
11.475807 -68.058929 46.431212
10.685143 -67.815811 45.931778
11.870732 -69.002471 45.51119
12.257779 -68.266266 46.90287
11.475807 -68.058929 46.431212
5.358433 -65.359203 42.769043
4.628605 -64.955162 42.318666
5.785362 -66.475361 41.909588
6.058652 -65.688118 43.218441
5.358433 -65.359203 42.769043
-1.602532 -74.051365 27.160165
-1.920567 -72.837387 28.225347
-1.307359 -75.29057 26.037813
-0.833962 -74.43901 27.126973
-1.602532 -74.051365 27.160165
3.470627 -90.883305 10.738567
4.421492 -91.137169 10.980206
3.793203 -90.000599 12.053892
2.599031 -92.404774 8.236221
1.50463 -92.00063 8.100634
-7.960814 -92.330669 -1.520386
-8.981838 -91.43536 -1.443372
-8.516341 -92.43599 -2.804285
-6.900756 -93.206173 -1.671658
-7.366253 -92.205544 -0.310746
-7.960814 -92.330669 -1.520386
-5.856264 -94.047379 -1.796896
-6.900756 -93.206173 -1.671658
-16.694702 -85.68483 -10.314317
-15.81552 -87.004784 -10.426135
-16.694702 -85.68483 -10.314317
-16.984872 -84.876159 -9.098641
0.959037 -69.781956 33.114428
1.310393 -68.919846 34.287596
1.344571 -70.952275 32.170944
0.959037 -69.781956 33.114428
0.617684 -70.663841 31.907324
-8.574081 -80.971347 16.392467
-9.453031 -80.41061 16.53687
-7.669116 -81.591033 16.198966
-8.574081 -80.971347 16.392467
-8.264451 -82.145023 15.093708
-6.797688 -82.062511 16.097601
-7.107318 -80.888835 17.396361
-7.669116 -81.591033 16.198966
-15.117766 -85.964226 -4.241679
-14.605221 -86.214577 -3.02506
-15.442484 -85.040558 -2.865321
-14.79429 -86.889446 -5.638912
-15.117766 -85.964226 -4.241679
-15.631553 -85.715428 -5.479174
-15.81552 -87.004784 -10.426135
-14.978254 -88.182743 -10.506139
-15.354404 -87.298474 -9.269257
16.446568 -70.402161 46.832161
17.19192 -70.35265 47.159979
16.713878 -69.588673 48.042395
0.202354 -58.636322 43.512135
0.867861 -59.023586 44.026476
-16.866999 -80.456345 3.701736
-16.388455 -80.639705 4.950653
-17.331046 -80.252373 2.530215
-16.648387 -81.312622 2.418277
-16.866999 -80.456345 3.701736
-17.776033 -80.024837 1.255202
-17.331046 -80.252373 2.530215
-17.553733 -80.868465 0.026152
-17.776033 -80.024837 1.255202
18.263139 -83.779831 28.054511
19.118283 -83.416401 28.566255
18.510109 -82.768406 29.485575
18.263139 -83.779831 28.054511
17.379534 -84.13932 27.499214
10.958769 -86.561107 21.020135
11.814515 -86.644188 21.50814
11.197668 -85.640346 22.401521
10.043195 -86.48505 20.50546
10.958769 -86.561107 21.020135
9.168228 -86.287769 20.114741
10.043195 -86.48505 20.50546
9.466956 -85.359985 21.522796
8.242508 -86.083518 19.731932
8.818748 -87.208584 18.714596
9.168228 -86.287769 20.114741
9.919642 -67.583393 45.417788
9.101716 -67.244495 44.919792
10.323259 -68.562717 44.525542
10.685143 -67.815811 45.931778
9.919642 -67.583393 45.417788
3.902143 -64.567314 41.904965
3.20187 -64.196968 41.446321
4.358681 -65.758598 41.046488
4.628605 -64.955162 42.318666
3.902143 -64.567314 41.904965
-2.20754 -77.095176 23.7578
-1.718013 -76.161041 24.924338
-1.821292 -78.227867 22.712658
-2.20754 -77.095176 23.7578
-2.668734 -77.903885 22.692786
0.548305 -91.63897 8.004872
1.50463 -92.00063 8.100634
1.015283 -90.897312 9.290229
-3.144738 -92.344185 4.316867
-2.543526 -91.873031 5.534442
-3.576468 -91.237144 5.647822
-3.144738 -92.344185 4.316867
-3.606197 -92.851353 3.075797
-8.972286 -92.570575 -4.020139
-10.062981 -91.481624 -3.804123
-9.497903 -92.51152 -5.096991
-8.516341 -92.43599 -2.804285
-8.972286 -92.570575 -4.020139
16.238577 -68.887333 48.86336
16.713878 -69.588673 48.042395
15.500364 -68.883282 48.505607
16.238577 -68.887333 48.86336
14.68572 -68.814251 48.115749
15.153882 -69.569153 47.324719
15.500364 -68.883282 48.505607
17.124125 -77.030315 37.588846
18.002358 -76.874847 38.020155
17.502145 -76.134235 38.946041
7.901046 -65.795704 45.381935
7.453824 -64.63477 46.30382
7.605728 -66.550964 44.039502
8.350355 -66.913951 44.485599
7.901046 -65.795704 45.381935
2.272521 -66.510716 37.830208
2.556117 -65.688916 39.015887
1.827096 -65.319916 38.66789
2.678116 -67.664177 36.96702
2.272521 -66.510716 37.830208
1.949095 -67.295177 36.619024
2.020307 -69.259514 34.566942
1.644775 -68.10897 35.47649
1.310393 -68.919846 34.287596
-5.387687 -78.898018 20.513877
-5.940371 -79.578983 19.518883
-4.544076 -79.29562 20.420136
-4.834758 -78.077656 21.651496
-5.387687 -78.898018 20.513877
-10.64382 -92.241188 -7.33274
-10.119515 -92.362922 -6.195054
-11.112903 -91.300835 -6.018661
-11.211035 -92.079479 -8.524909
-10.64382 -92.241188 -7.33274
-11.211035 -92.079479 -8.524909
-12.193639 -90.935642 -8.319362
-13.633605 -89.584308 -9.41582
-13.128419 -89.843952 -8.243594
-14.011952 -88.736076 -8.177036
-13.633605 -89.584308 -9.41582
-14.084167 -89.37331 -10.566574
17.751376 -70.960647 46.39148
17.19192 -70.35265 47.159979
17.751376 -70.960647 46.39148
17.434539 -71.890934 45.053466
16.994172 -75.412865 39.896433
17.502145 -76.134235 38.946041
16.13375 -75.497524 39.433168
16.994172 -75.412865 39.896433
16.50401 -74.620686 40.814869
1.709077 -63.256088 40.703115
2.441107 -63.760651 41.056713
-0.052017 -59.479605 42.421339
0.202354 -58.636322 43.512135
0.280651 -60.587139 41.772896
-0.052017 -59.479605 42.421339
0.962944 -60.91589 42.235424
0.280651 -60.587139 41.772896
1.424458 -64.099899 39.521801
1.709077 -63.256088 40.703115
1.827096 -65.319916 38.66789
1.424458 -64.099899 39.521801
-0.828127 -70.094032 31.509216
-0.099925 -70.389496 31.714205
-10.032921 -80.891521 15.432811
-9.453031 -80.41061 16.53687
-9.716601 -82.020565 14.114407
-10.032921 -80.891521 15.432811
-10.580106 -81.38675 14.260008
-12.25175 -82.295631 10.848202
-11.707342 -82.100018 11.935777
-11.915482 -83.326084 9.563623
-12.25175 -82.295631 10.848202
-12.773374 -82.457035 9.781009
-15.383277 -80.874485 7.378474
-15.879133 -80.789455 6.139674
-14.632609 -81.800125 7.270806
-15.383277 -80.874485 7.378474
-14.361481 -82.749584 5.95094
-13.828393 -82.733616 7.253905
-14.632609 -81.800125 7.270806
-16.079667 -83.166218 -0.209384
-16.346464 -82.266109 1.095409
-16.845637 -82.008758 -0.058038
-15.75439 -84.099888 -1.505767
-15.255218 -84.357239 -0.35232
-16.079667 -83.166218 -0.209384
-15.442484 -85.040558 -2.865321
-15.75439 -84.099888 -1.505767
18.517821 -77.512863 37.081974
18.002358 -76.874847 38.020155
19.107866 -78.145626 36.221081
18.517821 -77.512863 37.081974
18.214383 -78.40369 35.802067
19.628141 -78.683003 35.310383
19.107866 -78.145626 36.221081
19.297386 -79.684051 33.939161
18.512836 -80.068458 33.441503
19.005795 -80.716057 32.439491
19.628141 -78.683003 35.310383
19.297386 -79.684051 33.939161
21.068045 -80.569397 32.081441
20.305749 -80.97607 31.800863
21.527909 -81.059059 30.989897
21.068045 -80.569397 32.081441
21.37332 -82.047439 29.653599
21.527909 -81.059059 30.989897
21.37332 -82.047439 29.653599
20.617692 -82.599975 29.318804
19.889741 -82.992218 28.985176
19.118283 -83.416401 28.566255
14.862203 -84.537861 26.102141
15.739921 -84.496952 26.557101
15.103822 -83.578049 27.528406
14.657207 -85.511017 24.658912
14.862203 -84.537861 26.102141
14.021108 -84.592114 25.630218
14.37715 -86.51767 23.147074
14.657207 -85.511017 24.658912
13.536977 -86.58651 22.639499
12.934762 -85.644348 23.538258
12.655628 -86.665588 21.990768
14.37715 -86.51767 23.147074
13.536977 -86.58651 22.639499
8.073718 -90.120514 14.510642
8.305001 -89.156696 15.901364
7.096673 -89.913708 14.167644
7.692485 -91.007076 13.153858
8.073718 -90.120514 14.510642
13.889208 -68.709701 47.685568
14.68572 -68.814251 48.115749
13.045941 -68.564544 47.209562
12.257779 -68.266266 46.90287
13.495971 -69.354965 46.458855
13.889208 -68.709701 47.685568
13.045941 -68.564544 47.209562
6.394071 -65.002338 44.506867
6.74283 -64.304449 45.802811
6.821 -66.118496 43.647412
6.394071 -65.002338 44.506867
6.058652 -65.688118 43.218441
-1.141541 -71.053581 30.399009
-0.828127 -70.094032 31.509216
-1.49011 -72.01075 29.23487
-1.920567 -72.837387 28.225347
-0.780567 -72.242638 29.413463
-1.141541 -71.053581 30.399009
-1.49011 -72.01075 29.23487
-0.949443 -76.548687 24.891147
-1.307359 -75.29057 26.037813
-1.718013 -76.161041 24.924338
5.326863 -91.376034 11.216411
6.31255 -91.648937 11.474076
5.729754 -90.527366 12.553195
5.326863 -91.376034 11.216411
4.421492 -91.137169 10.980206
3.035262 -91.639423 9.525436
3.470627 -90.883305 10.738567
2.406973 -90.502854 10.599123
3.035262 -91.639423 9.525436
2.599031 -92.404774 8.236221
0.031111 -92.280037 6.795613
0.548305 -91.63897 8.004872
-0.458236 -91.176719 7.985208
-1.543613 -92.39893 5.489718
-1.975343 -91.291889 6.820673
-2.543526 -91.873031 5.534442
-0.420619 -92.896218 5.595641
-1.543613 -92.39893 5.489718
0.031111 -92.280037 6.795613
-0.420619 -92.896218 5.595641
-5.267672 -93.838299 -0.569161
-4.730263 -93.533211 0.69365
-5.768786 -92.775959 0.800794
-5.267672 -93.838299 -0.569161
-5.856264 -94.047379 -1.796896
3 0 198 199
3 0 200 201
3 1 53 51
3 1 55 53
3 203 202 56
3 2 204 206
3 204 58 205
3 204 205 206
3 2 60 58
3 3 62 61
3 3 64 62
3 3 66 64
3 207 68 208
3 209 56 210
3 211 210 68
3 209 210 211
3 4 72 70
3 4 74 72
3 7 78 76
3 7 212 214
3 214 213 78
3 212 213 214
3 7 215 216
3 8 81 79
3 8 82 81
3 9 217 219
3 217 83 218
3 217 218 219
3 9 85 83
3 5 220 222
3 220 86 221
3 220 221 222
3 10 89 87
3 10 91 89
3 10 93 91
3 11 96 94
3 11 98 96
3 12 223 224
3 12 225 226
3 12 227 229
3 227 100 228
3 227 228 229
3 13 103 101
3 13 105 103
3 13 107 105
3 14 230 232
3 232 231 108
3 230 231 232
3 14 233 234
3 6 111 109
3 236 235 112
3 15 116 114
3 17 117 52
3 17 118 117
3 17 120 118
3 19 121 54
3 19 122 121
3 237 123 238
3 239 125 240
3 21 126 57
3 21 127 126
3 21 129 127
3 23 130 59
3 23 131 130
3 24 241 242
3 24 243 245
3 243 132 244
3 243 244 245
3 24 134 132
3 26 135 63
3 26 136 135
3 26 138 136
3 28 139 65
3 28 140 139
3 29 143 141
3 31 144 67
3 31 145 144
3 31 246 248
3 248 247 145
3 246 247 248
3 250 249 69
3 32 251 253
3 253 252 71
3 251 252 253
3 32 254 255
3 32 256 258
3 256 146 257
3 256 257 258
3 33 147 73
3 33 148 147
3 34 259 260
3 34 261 262
3 263 149 264
3 265 151 266
3 267 266 149
3 265 266 267
3 268 152 269
3 270 153 271
3 272 271 152
3 270 271 272
3 36 273 275
3 273 154 274
3 273 274 275
3 36 155 154
3 36 156 155
3 277 276 75
3 16 157 115
3 37 278 280
3 280 279 77
3 278 279 280
3 37 281 283
3 281 158 282
3 281 282 283
3 37 284 286
3 286 285 158
3 284 285 286
3 18 159 119
3 288 287 80
3 38 289 290
3 38 291 293
3 291 160 292
3 291 292 293
3 39 294 295
3 39 296 298
3 296 161 297
3 296 297 298
3 39 162 161
3 40 163 84
3 40 164 163
3 41 299 300
3 41 301 303
3 301 165 302
3 301 302 303
3 20 166 124
3 42 167 88
3 42 168 167
3 42 169 168
3 43 170 90
3 43 171 170
3 43 172 171
3 44 173 92
3 44 174 173
3 22 175 128
3 45 176 95
3 45 177 176
3 45 178 177
3 46 179 97
3 46 180 179
3 304 181 305
3 306 182 307
3 308 307 181
3 306 307 308
3 47 183 99
3 47 184 183
3 25 185 133
3 48 186 102
3 48 187 186
3 48 188 187
3 49 189 104
3 49 190 189
3 49 309 311
3 311 310 190
3 309 310 311
3 313 312 106
3 27 191 137
3 35 192 150
3 50 193 110
3 50 194 193
3 30 195 142
3 314 196 315
3 316 315 113
3 314 315 316
3 317 197 318
3 319 318 196
3 317 318 319
3 321 320 197
3 51 52 15
3 53 52 51
3 53 17 52
3 53 54 17
3 55 54 53
3 55 19 54
3 56 322 323
3 325 324 56
3 326 57 327
3 58 328 330
3 328 57 329
3 328 329 330
3 58 21 57
3 58 59 21
3 60 59 58
3 60 23 59
3 61 331 332
3 62 333 335
3 335 334 61
3 333 334 335
3 62 336 338
3 336 24 337
3 336 337 338
3 62 63 24
3 64 63 62
3 64 26 63
3 64 65 26
3 66 65 64
3 66 28 65
3 339 67 340
3 341 340 29
3 339 340 341
3 68 342 344
3 342 67 343
3 342 343 344
3 68 31 67
3 68 69 31
3 56 69 68
3 56 345 347
3 347 346 69
3 345 346 347
3 70 348 350
3 348 71 349
3 348 349 350
3 72 71 70
3 72 32 71
3 72 73 32
3 74 73 72
3 74 33 73
3 351 34 352
3 353 36 354
3 355 75 356
3 357 356 36
3 355 356 357
3 358 75 359
3 361 360 75
3 76 77 16
3 78 77 76
3 78 37 77
3 78 362 364
3 364 363 37
3 362 363 364
3 366 365 78
3 79 80 18
3 81 80 79
3 81 367 369
3 369 368 80
3 367 368 369
3 81 370 371
3 82 372 374
3 374 373 81
3 372 373 374
3 82 375 377
3 375 38 376
3 375 376 377
3 83 378 379
3 83 380 382
3 380 39 381
3 380 381 382
3 83 84 39
3 85 84 83
3 85 40 84
3 86 383 384
3 86 385 387
3 385 41 386
3 385 386 387
3 87 88 20
3 89 88 87
3 89 42 88
3 89 90 42
3 91 90 89
3 91 43 90
3 91 92 43
3 93 92 91
3 93 44 92
3 94 95 22
3 96 95 94
3 96 45 95
3 96 97 45
3 98 97 96
3 98 46 97
3 388 99 389
3 100 390 392
3 390 99 391
3 390 391 392
3 100 47 99
3 101 102 25
3 103 102 101
3 103 48 102
3 103 104 48
3 105 104 103
3 105 49 104
3 105 106 49
3 107 106 105
3 107 393 395
3 395 394 106
3 393 394 395
3 108 396 398
3 398 397 27
3 396 397 398
3 400 399 108
3 109 110 35
3 111 110 109
3 111 50 110
3 112 113 30
3 401 113 402
3 403 402 112
3 401 402 403
3 405 404 113
3 406 70 407
3 408 70 409
3 410 4 411
3 412 411 70
3 410 411 412
3 114 413 415
3 413 115 414
3 413 414 415
3 116 115 114
3 116 16 115
3 52 116 15
3 117 116 52
3 117 16 116
3 117 76 16
3 118 76 117
3 118 7 76
3 118 119 7
3 120 119 118
3 120 18 119
3 54 120 17
3 121 120 54
3 121 18 120
3 121 79 18
3 122 79 121
3 122 8 79
3 123 416 417
3 123 418 420
3 418 9 419
3 418 419 420
3 421 124 422
3 423 422 5
3 421 422 423
3 125 424 426
3 424 124 425
3 424 425 426
3 125 20 124
3 57 427 429
3 427 125 428
3 427 428 429
3 126 125 57
3 126 20 125
3 126 87 20
3 127 87 126
3 127 10 87
3 127 128 10
3 129 128 127
3 129 22 128
3 59 129 21
3 130 129 59
3 130 22 129
3 130 94 22
3 131 94 130
3 131 11 94
3 132 430 431
3 132 432 434
3 432 12 433
3 432 433 434
3 132 133 12
3 134 133 132
3 134 25 133
3 63 134 24
3 135 134 63
3 135 25 134
3 135 101 25
3 136 101 135
3 136 13 101
3 136 137 13
3 138 137 136
3 138 27 137
3 65 138 26
3 139 138 65
3 139 27 138
3 139 108 27
3 140 108 139
3 140 14 108
3 141 142 6
3 143 142 141
3 143 30 142
3 67 143 29
3 144 143 67
3 144 30 143
3 144 112 30
3 145 112 144
3 145 435 437
3 437 436 112
3 435 436 437
3 145 438 439
3 441 440 145
3 69 442 444
3 444 443 31
3 442 443 444
3 446 445 69
3 71 447 448
3 450 449 71
3 451 114 452
3 146 453 455
3 453 114 454
3 453 454 455
3 146 15 114
3 73 146 32
3 147 146 73
3 147 15 146
3 147 51 15
3 148 51 147
3 148 1 51
3 456 5 457
3 458 34 459
3 460 34 461
3 463 462 34
3 464 5 465
3 467 466 5
3 468 2 469
3 470 61 471
3 149 472 474
3 472 61 473
3 472 473 474
3 149 3 61
3 149 150 3
3 151 150 149
3 151 35 150
3 475 151 476
3 152 477 479
3 477 151 478
3 477 478 479
3 152 35 151
3 152 109 35
3 153 109 152
3 153 6 109
3 154 480 481
3 154 482 483
3 154 484 486
3 484 153 485
3 484 485 486
3 155 153 154
3 155 6 153
3 155 141 6
3 156 141 155
3 156 29 141
3 75 156 36
3 487 156 488
3 489 488 75
3 487 488 489
3 490 29 491
3 492 491 156
3 490 491 492
3 494 493 29
3 115 495 496
3 157 497 499
3 499 498 115
3 497 498 499
3 157 500 501
3 77 157 16
3 502 157 503
3 504 503 77
3 502 503 504
3 506 505 157
3 158 507 508
3 158 509 510
3 158 511 512
3 514 513 158
3 516 515 37
3 119 517 519
3 519 518 7
3 517 518 519
3 159 520 522
3 522 521 119
3 520 521 522
3 159 523 524
3 80 159 18
3 525 159 526
3 527 526 80
3 525 526 527
3 529 528 159
3 160 530 531
3 160 532 534
3 532 0 533
3 532 533 534
3 535 4 536
3 161 537 538
3 161 539 541
3 539 4 540
3 539 540 541
3 161 74 4
3 162 74 161
3 162 33 74
3 84 162 39
3 163 162 84
3 163 33 162
3 163 148 33
3 164 148 163
3 164 1 148
3 542 123 543
3 165 544 546
3 544 123 545
3 544 545 546
3 165 9 123
3 124 86 5
3 166 86 124
3 166 41 86
3 88 166 20
3 167 166 88
3 167 41 166
3 167 165 41
3 168 165 167
3 168 9 165
3 168 85 9
3 169 85 168
3 169 40 85
3 90 169 42
3 170 169 90
3 170 40 169
3 170 164 40
3 171 164 170
3 171 1 164
3 171 55 1
3 172 55 171
3 172 19 55
3 92 172 43
3 173 172 92
3 173 19 172
3 173 122 19
3 174 122 173
3 174 8 122
3 128 93 10
3 175 93 128
3 175 44 93
3 95 175 22
3 176 175 95
3 176 44 175
3 176 174 44
3 177 174 176
3 177 8 174
3 177 82 8
3 178 82 177
3 178 38 82
3 97 178 45
3 179 178 97
3 179 38 178
3 179 160 38
3 180 160 179
3 180 0 160
3 547 2 548
3 181 549 550
3 181 551 553
3 551 2 552
3 551 552 553
3 181 60 2
3 182 60 181
3 182 23 60
3 99 554 556
3 554 182 555
3 554 555 556
3 183 182 99
3 183 23 182
3 183 131 23
3 184 131 183
3 184 11 131
3 133 100 12
3 185 100 133
3 185 47 100
3 102 185 25
3 186 185 102
3 186 47 185
3 186 184 47
3 187 184 186
3 187 11 184
3 187 98 11
3 188 98 187
3 188 46 98
3 104 188 48
3 189 188 104
3 189 46 188
3 189 180 46
3 190 180 189
3 190 0 180
3 190 557 559
3 559 558 0
3 557 558 559
3 561 560 190
3 106 562 564
3 564 563 49
3 562 563 564
3 566 565 106
3 137 107 13
3 191 107 137
3 191 567 569
3 569 568 107
3 567 568 569
3 570 191 571
3 572 571 27
3 570 571 572
3 573 191 574
3 576 575 191
3 150 66 3
3 192 66 150
3 192 28 66
3 110 192 35
3 193 192 110
3 193 28 192
3 193 140 28
3 194 140 193
3 194 14 140
3 142 111 6
3 195 111 142
3 195 50 111
3 113 195 30
3 196 195 113
3 196 50 195
3 196 194 50
3 197 194 196
3 197 14 194
3 197 577 579
3 579 578 14
3 577 578 579
3 581 580 197
