ply
format ascii 1.0
element vertex 789
property float x
property float y
property float z
element face 875
property list uchar int vertex_index
end_header
-10.136556 -96.101494 -24.153463
-11.479445 -64.831635 -47.242298
9.49479 -92.019287 -38.589031
-10.531129 -87.559296 -37.855034
-23.801796 -75.73098 -24.93902
-10.308064 -93.674995 -30.995928
-26.525644 -68.568535 -33.351547
-1.088017 -79.792175 -43.532417
-2.374292 -65.592621 -45.792557
-11.644792 -50.290253 -50.716774
-11.001259 -77.69043 -43.186172
-13.840785 -91.124298 -16.600214
-16.699186 -87.438637 -24.742283
-20.49402 -80.815392 -15.950026
-26.16873 -69.683281 -16.480824
-9.650433 -93.303276 -7.509133
-18.611448 -81.799835 -32.498245
-20.003159 -73.459061 -39.426769
-20.432407 -62.292732 -45.57317
-10.333289 -95.218246 -27.273064
-6.426416 -72.700928 -45.408051
-1.73701 -73.077301 -44.709534
-6.781259 -65.37056 -46.860241
-7.210773 -57.835186 -48.236122
-11.607743 -57.617226 -48.996864
-5.578633 -90.007874 -39.349476
-5.679011 -84.995712 -41.839607
-10.728344 -83.214699 -40.653412
-15.43937 -87.889053 -11.663017
-17.260712 -86.223274 -16.134195
-18.692022 -82.819153 -11.386282
-11.770905 -92.605118 -12.236908
-3.097589 -100.586922 -13.451803
-20.419228 -81.585022 -24.612211
-17.735985 -84.950386 -28.597164
-21.546309 -78.879913 -28.829062
-23.553974 -71.020821 -36.75145
-24.212152 -66.239059 -40.191845
-20.290768 -68.04528 -42.717564
-10.434052 -91.04084 -34.601368
-27.020281 -69.71209 -25.239531
-25.24227 -72.467911 -29.306633
4.165641 -86.246147 -41.361771
8.71762 -85.589378 -39.954773
-7.676212 -49.933796 -49.852737
-0.823787 -86.014946 -42.043507
-6.004094 -79.255928 -43.774742
-11.123042 -71.487617 -45.373695
-11.830182 -94.147476 -20.831543
-13.161286 -92.410057 -24.550459
-15.479136 -89.400826 -20.750246
-18.990723 -84.002075 -20.336899
-22.270189 -78.361687 -20.566206
-23.466471 -75.225166 -16.048143
-25.286636 -72.691429 -20.801014
-28.115068 -66.955353 -21.320532
-0.877334 -95.174011 1.728468
-7.495318 -93.331299 -2.881298
-5.188231 -97.323906 -8.227094
-7.724574 -96.77198 -12.776852
-9.897928 -95.744087 -17.114305
-13.919643 -90.553543 -28.0872
-14.472732 -88.062889 -31.839426
-14.946329 -84.845421 -35.3643
-22.805727 -75.110214 -32.780777
-19.36871 -78.088364 -35.99559
-15.45074 -80.579834 -38.731098
-15.622813 -75.745621 -41.756474
-16.037224 -69.874748 -44.38171
-16.001539 -63.777351 -46.796658
-20.528307 -55.74474 -48.374836
-16.064484 -56.799313 -49.111538
-15.908419 -49.393059 -51.333698
-10.147416 -95.859627 -25.582176
-8.868196 -68.909569 -46.30875
-6.791616 -68.867119 -46.21933
-9.180356 -65.132454 -47.167278
-9.184661 -61.739174 -47.874416
-11.580535 -61.177593 -48.155846
-8.035105 -90.909233 -37.192734
-8.224399 -88.639679 -38.786564
-8.191621 -86.659058 -40.068016
-10.70395 -85.386665 -39.319492
-17.197733 -85.249146 -11.439381
-1.835759 -100.679726 -11.090824
-22.061691 -78.789375 -24.89603
-20.983366 -80.336464 -26.762617
-22.836901 -77.193268 -26.902905
-24.486235 -63.327522 -41.995358
14.075429 -93.456818 -36.158997
11.801255 -91.563698 -37.727577
-10.36563 -92.441185 -32.885384
-28.524927 -66.713486 -25.579205
-27.889668 -67.928131 -27.433449
1.476408 -83.367432 -42.462181
3.930389 -83.197395 -41.931606
1.41458 -80.154213 -43.014462
-2.082812 -69.388306 -45.260876
-2.788043 -61.6273 -46.394554
-9.472733 -53.914165 -49.492229
-7.463145 -53.843575 -49.023716
-9.630426 -49.951298 -50.38229
-11.738124 -46.125443 -51.780319
1.981451 -89.233543 -40.957081
-0.516142 -88.956726 -41.073612
-8.279974 -81.535057 -42.534279
-5.947546 -82.149307 -42.86507
-8.486318 -78.594826 -43.583405
-8.754559 -75.393188 -44.576591
-11.018495 -74.744629 -44.306595
-12.856139 -92.695045 -18.73209
-13.690388 -91.83149 -20.672955
-14.667053 -90.351646 -18.66708
-18.95899 -83.458916 -15.939848
-18.098349 -85.250694 -18.31801
-19.756573 -82.496338 -18.181595
-20.609509 -81.291611 -20.531338
-21.376698 -79.673676 -18.294071
-25.140789 -71.032036 -14.042127
-23.860895 -73.76413 -13.959987
-24.808214 -72.492218 -16.137518
-24.398344 -73.952454 -18.342054
-25.74135 -71.234505 -18.450218
-26.673094 -69.918694 -20.954063
-27.111065 -68.483971 -19.006399
-2.111796 -92.980072 4.203487
-3.034714 -93.994408 1.721347
-4.229148 -94.595551 -0.676305
-8.407208 -93.600471 -5.313007
-6.333125 -95.406502 -5.585343
-7.437289 -95.417274 -7.892432
-6.438117 -97.133102 -10.424944
-8.690336 -95.097504 -10.144952
-12.880303 -91.884872 -14.484056
-10.976186 -94.13591 -14.854177
-11.845257 -93.596695 -16.887865
-11.037823 -94.843597 -18.976793
-14.88046 -90.0868 -24.597361
-13.488619 -91.648651 -26.313354
-15.464643 -88.898247 -26.535988
-18.171942 -83.524422 -30.48822
-16.11002 -86.623817 -30.317049
-16.497889 -85.095375 -32.13995
-14.782145 -86.476616 -33.609962
-16.816711 -83.424828 -33.967274
-25.828165 -70.749535 -31.333752
-24.076193 -73.876152 -31.039982
-24.711088 -71.818359 -33.077278
-21.872114 -72.139557 -38.23156
-21.541618 -74.41613 -36.455814
-19.62336 -75.951347 -37.784683
-17.450085 -79.444809 -37.409939
-17.620592 -77.24292 -39.08226
-15.707624 -78.035034 -40.314842
-17.891094 -74.590431 -40.698994
-20.45392 -65.017265 -44.231689
-18.276924 -68.963867 -43.602409
-18.264578 -66.098114 -44.965599
-16.089151 -66.884857 -45.59623
-18.385418 -62.720352 -46.366329
-18.278963 -56.257652 -48.874928
-18.378965 -52.583817 -50.132149
-16.174675 -53.058712 -50.23698
-18.196682 -49.007175 -51.347927
-10.192053 -94.709595 -29.121645
-3.833673 -76.211472 -44.519989
-1.334983 -76.621651 -44.116459
-4.078916 -72.765564 -45.184956
-4.40976 -69.274391 -45.808556
-4.524995 -65.826317 -46.346069
-4.761484 -61.883659 -46.963612
-7.070065 -61.655396 -47.549168
-9.481711 -57.739536 -48.713139
-11.67665 -53.977001 -49.841969
-3.11145 -88.358376 -40.987804
-5.691044 -87.553223 -40.661739
-8.20812 -84.202438 -41.370625
-10.759895 -80.605408 -41.999779
-14.658983 -89.571884 -14.212287
-15.626995 -88.68013 -16.372269
-16.498955 -86.902946 -13.826844
-18.090738 -84.436279 -13.826784
-19.556377 -81.894287 -13.496325
-10.784862 -92.979858 -9.893472
-12.750072 -90.692184 -9.482378
-13.651198 -90.270187 -11.783888
-4.424887 -100.215012 -15.650555
-18.572491 -84.563293 -24.67745
-17.390522 -86.03418 -26.690254
-19.258316 -83.137505 -26.677191
-19.703693 -81.884903 -28.687464
-20.111769 -80.44722 -30.721659
-25.186029 -69.679245 -35.170147
-25.492178 -67.613564 -37.080029
-23.955524 -68.619019 -38.528343
-22.135139 -69.681572 -39.941753
-20.021545 -71.015076 -41.135414
-22.331778 -67.049156 -41.599251
-22.326283 -64.477661 -43.189476
-22.552197 -61.458302 -44.69466
-8.223894 -92.545181 -35.497025
-10.516444 -89.313278 -36.329231
-25.47908 -72.650284 -25.167152
-24.614773 -74.049385 -27.11591
-26.256977 -71.038399 -27.305737
-27.043203 -69.189377 -29.427713
-27.694691 -67.326027 -31.563051
6.85334 -89.269562 -40.059319
9.241844 -89.079773 -39.27412
6.591212 -86.123589 -40.696289
6.093514 -82.686996 -41.298622
0.749159 -76.46859 -43.667942
-5.180735 -57.659626 -47.708118
-5.352994 -53.984669 -48.355747
-5.622126 -50.166546 -49.115814
4.423502 -89.289993 -40.627422
1.706067 -86.387085 -41.772945
-0.999648 -83.000717 -42.846344
-3.290149 -85.550964 -42.063587
-3.43031 -82.726189 -42.953884
-3.694414 -79.411659 -43.815746
-6.333854 -75.93679 -44.650303
-8.734094 -72.284569 -45.465984
-11.303862 -68.182198 -46.338673
-10.919381 -95.279625 -22.723444
-11.484104 -94.537994 -24.312798
-12.565663 -93.313286 -22.707804
-14.292293 -91.062042 -22.634031
-16.106276 -88.497108 -22.745331
-16.39819 -87.891342 -18.571758
-17.226692 -86.814911 -20.653742
-17.901941 -85.776772 -22.669811
-19.640358 -82.988014 -22.549618
-21.429829 -79.961403 -22.591484
-23.077425 -77.052628 -22.796791
-22.572348 -76.335442 -13.744386
-22.028019 -78.00238 -15.958669
-22.917675 -76.821938 -18.282049
-23.770332 -75.579208 -20.510235
-24.618311 -74.22937 -23.000477
-26.197165 -71.210236 -23.115429
-27.709776 -68.186378 -23.302074
-28.457611 -65.597954 -19.283871
-29.463448 -64.012138 -21.461712
-5.406333 -95.01371 -3.131775
-4.093763 -97.124725 -5.794477
-3.015213 -98.983055 -8.552188
-4.105506 -99.071304 -10.883965
-5.516415 -98.664597 -12.956674
-6.584841 -98.44722 -15.408655
-9.792207 -94.793877 -12.626728
-8.827577 -96.366295 -15.101625
-11.759515 -93.920967 -25.947567
-12.035379 -93.06752 -27.771343
-12.107747 -92.233589 -29.659866
-15.801844 -87.85743 -28.402931
-14.144505 -89.493286 -29.965118
-12.448741 -90.859703 -31.505774
-12.602352 -89.52639 -33.268539
-12.629021 -88.121216 -34.996841
-12.856964 -86.158356 -36.742882
-23.453619 -75.655548 -28.98407
-22.215635 -77.058083 -30.799023
-20.813833 -78.362366 -32.625305
-23.174215 -73.235542 -34.76857
-21.209282 -76.468407 -34.567261
-19.039383 -79.952682 -34.305588
-17.056942 -81.594307 -35.787552
-15.03616 -82.993973 -37.13554
-13.015305 -84.052261 -38.391628
-13.297605 -81.798569 -39.779968
-13.215068 -79.517677 -41.229565
-13.465159 -76.723671 -42.534504
-17.968643 -71.898132 -42.258404
-15.807659 -72.784645 -43.167927
-13.412255 -74.007286 -43.773075
-13.564655 -70.854942 -44.958305
-13.637247 -67.76506 -46.036343
-13.858095 -64.278328 -47.124767
-20.533926 -59.068707 -46.975609
-18.277325 -59.673912 -47.617489
-16.049492 -60.083256 -48.06144
-13.781921 -60.974552 -48.12307
-13.899952 -57.245865 -49.145401
-13.990225 -53.549141 -50.131645
-13.831257 -49.823128 -51.120155
-17.983139 -45.441158 -52.535282
-15.914693 -45.547909 -52.492146
-13.752273 -45.930809 -52.181141
-10.141986 -95.98056 -24.867819
-9.470267 -96.619461 -25.159462
-9.464837 -96.740395 -24.445105
-1.207998 -100.585388 -9.802429
-0.618409 -101.393452 -11.055851
10.648022 -91.791493 -38.158304
11.953651 -92.991089 -37.322086
10.800419 -93.218884 -37.752813
-9.289186 -94.449615 -31.516689
-9.28932 -94.969451 -30.572852
-10.336847 -93.05809 -31.940656
-9.317969 -93.832711 -32.461416
-9.289186 -94.449615 -31.516689
-28.998494 -65.72704 -26.688941
-29.284618 -65.128155 -25.749912
-1.074318 -67.38675 -45.182118
-0.928579 -69.284592 -44.916277
-2.228552 -67.490464 -45.526717
-1.29618 -65.45578 -45.441878
-1.074318 -67.38675 -45.182118
-2.581168 -63.60996 -46.093556
-1.503056 -63.473119 -45.742876
-1.29618 -65.45578 -45.441878
-0.518449 -90.288014 -40.519356
0.758593 -90.493911 -40.518413
-4.133045 -93.23264 1.892476
-3.606197 -92.851353 3.075797
-4.730263 -93.533211 0.69365
-3.631931 -94.29498 0.522521
-4.133045 -93.23264 1.892476
-9.028821 -93.451874 -6.41107
-9.497903 -92.51152 -5.096991
-10.119515 -92.362922 -6.195054
-19.373931 -50.618298 -50.635271
-19.357958 -52.460537 -49.954332
-19.282789 -48.829977 -51.24316
-18.287824 -50.795496 -50.740038
-19.373931 -50.618298 -50.635271
-9.354356 -96.078259 -27.769652
-9.46321 -96.23447 -26.881286
-10.262671 -94.963921 -28.197355
-9.283738 -95.823933 -28.693942
-9.354356 -96.078259 -27.769652
-4.289385 -91.5892 -38.904616
-5.611981 -91.049591 -38.632355
-4.27588 -90.478836 -39.563483
-4.289385 -91.5892 -38.904616
-5.634838 -88.780549 -40.005607
-4.332085 -89.251511 -40.219614
-4.27588 -90.478836 -39.563483
-13.128419 -89.843952 -8.243594
-12.193639 -90.935642 -8.319362
-14.545284 -89.07962 -11.723453
-14.084167 -89.37331 -10.566574
-14.978254 -88.182743 -10.506139
-2.554185 -101.262436 -14.642159
-1.849433 -101.394368 -13.467844
-3.761238 -100.400967 -14.551179
-3.217834 -101.076481 -15.741536
-2.554185 -101.262436 -14.642159
-26.473921 -65.862458 -37.209389
-26.284498 -66.952008 -36.260005
-24.083838 -67.429039 -39.360094
-24.985159 -66.792862 -38.703293
-25.113473 -65.602882 -39.535044
-23.389585 -62.545578 -43.464895
-23.406259 -63.902591 -42.592417
-24.469561 -61.970509 -42.867836
-23.502542 -61.035899 -44.217487
-22.43924 -62.967982 -43.942068
-23.389585 -62.545578 -43.464895
15.099085 -93.000061 -35.5961
13.944349 -92.042054 -36.485478
-9.328973 -91.793011 -35.049197
-8.191854 -93.29248 -34.681602
-9.296933 -92.54031 -34.233774
-27.88424 -67.560581 -29.602369
-27.466435 -68.558754 -28.430581
-28.307472 -66.929958 -28.605237
-28.209984 -66.628906 -30.670038
-27.368947 -68.257702 -30.495382
-27.88424 -67.560581 -29.602369
4.814234 -81.184162 -41.894968
5.011952 -82.942195 -41.615114
3.732672 -81.439361 -42.21146
5.892238 -80.932602 -41.531401
4.814234 -81.184162 -41.894968
-7.683034 -48.041319 -50.258904
-6.655991 -48.157694 -49.890442
-6.649169 -50.050171 -49.484275
4.592916 -90.793373 -40.153158
5.763126 -90.790485 -39.93436
-28.592344 -66.153489 -22.424865
-28.389698 -66.769001 -23.415636
-27.912422 -67.570865 -22.311303
-28.598029 -64.885887 -18.285863
-27.977866 -66.250316 -18.120077
-30.124112 -62.566124 -21.766716
-29.613474 -63.343532 -20.51041
-29.968165 -63.178619 -22.741347
-30.124112 -62.566124 -21.766716
-0.37157 -94.57433 3.071901
-0.988801 -93.47736 4.309411
-1.494565 -94.077042 2.965978
0.198418 -95.651367 1.83516
-0.37157 -94.57433 3.071901
-0.249909 -96.216011 0.506072
0.198418 -95.651367 1.83516
-7.960814 -92.330669 -1.520386
-8.516341 -92.43599 -2.804285
-6.900756 -93.206173 -1.671658
-7.960814 -92.330669 -1.520386
-6.450826 -94.172505 -3.006537
-5.856264 -94.047379 -1.796896
-6.900756 -93.206173 -1.671658
-8.913239 -96.728184 -17.301368
-8.378063 -97.039288 -16.295027
-9.362752 -96.055191 -16.107965
-9.469734 -96.352638 -18.233843
-8.913239 -96.728184 -17.301368
-10.938842 -95.145671 -20.978685
-10.542662 -95.493732 -20.05131
-11.434003 -94.495537 -19.904168
-11.374782 -94.71355 -21.777493
-10.483441 -95.711746 -21.924636
-10.938842 -95.145671 -20.978685
-21.591049 -55.307339 -48.106762
-21.501662 -53.642395 -48.874522
-20.531117 -57.406723 -47.675223
-21.593858 -56.969323 -47.407148
-21.591049 -55.307339 -48.106762
-18.890129 -43.418192 -53.172024
-19.078087 -45.182816 -52.526186
-15.755501 -43.794764 -53.018281
-16.826529 -43.524624 -53.167021
-14.674291 -43.986214 -52.862778
-14.833483 -45.739359 -52.336643
-15.755501 -43.794764 -53.018281
-13.678206 -44.032194 -52.71048
-14.674291 -43.986214 -52.862778
9.973656 -86.948387 -39.227732
10.235768 -88.693585 -38.887405
8.979732 -87.334575 -39.614446
-9.370273 -96.55516 -26.035842
-9.470267 -96.619461 -25.159462
-10.240353 -95.538937 -26.42762
-9.46321 -96.23447 -26.881286
-9.370273 -96.55516 -26.035842
-6.840217 -91.500271 -37.553984
-6.929381 -92.392936 -36.759964
-6.934864 -90.365494 -38.350899
-6.840217 -91.500271 -37.553984
-8.129752 -89.774456 -37.989649
-6.901516 -89.323777 -39.06802
-5.611981 -91.049591 -38.632355
-6.934864 -90.365494 -38.350899
-16.694702 -85.68483 -10.314317
-16.318551 -86.569099 -11.551199
-15.81552 -87.004784 -10.426135
-17.487903 -84.440475 -10.223705
-16.694702 -85.68483 -10.314317
-18.235047 -83.225479 -10.197156
-17.944878 -84.034149 -11.412831
-17.487903 -84.440475 -10.223705
-15.81552 -87.004784 -10.426135
-14.978254 -88.182743 -10.506139
-1.218517 -101.44077 -12.287355
-0.618409 -101.393452 -11.055851
-2.466674 -100.633324 -12.271313
-1.849433 -101.394368 -13.467844
-1.218517 -101.44077 -12.287355
-25.23675 -64.261714 -40.502976
-25.113473 -65.602882 -39.535044
-25.373792 -62.805946 -41.404732
-24.349193 -64.78329 -41.093602
-25.23675 -64.261714 -40.502976
-25.505748 -61.392305 -42.285179
-25.373792 -62.805946 -41.404732
-24.469561 -61.970509 -42.867836
-25.505748 -61.392305 -42.285179
13.090739 -93.937649 -36.537796
14.327567 -94.865632 -35.630639
12.938342 -92.510258 -36.943287
13.090739 -93.937649 -36.537796
11.953651 -92.991089 -37.322086
12.807261 -91.095494 -37.269768
13.944349 -92.042054 -36.485478
12.938342 -92.510258 -36.943287
-9.262722 -93.240482 -33.375782
-9.317969 -93.832711 -32.461416
-10.399841 -91.741013 -33.743376
-9.296933 -92.54031 -34.233774
-9.262722 -93.240482 -33.375782
-28.680864 -66.334362 -27.616062
-28.207298 -67.320808 -26.506327
-28.998494 -65.72704 -26.688941
-28.307472 -66.929958 -28.605237
-28.680864 -66.334362 -27.616062
2.474768 -79.91777 -42.752888
3.732672 -81.439361 -42.21146
2.672484 -81.675804 -42.473034
-0.831964 -71.057896 -44.714709
-0.659063 -72.902394 -44.439037
-1.909911 -71.232804 -44.985205
-0.831964 -71.057896 -44.714709
-0.928579 -69.284592 -44.916277
-1.806776 -61.471197 -46.056965
-1.503056 -63.473119 -45.742876
-2.917556 -59.726273 -46.683082
-1.806776 -61.471197 -46.056965
-9.64379 -48.013618 -50.835867
-8.666683 -48.004868 -50.57109
-8.653319 -49.942547 -50.117514
-10.697639 -46.100691 -51.534881
-9.64379 -48.013618 -50.835867
-10.684275 -48.03837 -51.081305
-11.695901 -44.194399 -52.287893
-10.697639 -46.100691 -51.534881
2.007389 -90.63232 -40.460148
3.37189 -90.765148 -40.317988
0.732654 -89.095135 -41.015346
2.007389 -90.63232 -40.460148
0.758593 -90.493911 -40.518413
-24.500842 -72.398083 -14.001057
-24.036734 -72.944008 -12.776884
-24.676681 -71.577961 -12.817954
-3.144738 -92.344185 4.316867
-2.543526 -91.873031 5.534442
-2.573255 -93.48724 2.962417
-3.144738 -92.344185 4.316867
-3.606197 -92.851353 3.075797
-2.518403 -95.04488 0.381817
-1.439712 -95.634681 0.385377
-1.956024 -94.58421 1.724908
-3.11562 -95.345451 -0.817009
-2.518403 -95.04488 0.381817
-3.631931 -94.29498 0.522521
-3.663678 -95.617268 -1.991787
-3.11562 -95.345451 -0.817009
-8.972286 -92.570575 -4.020139
-9.497903 -92.51152 -5.096991
-7.951263 -93.465885 -4.097152
-8.516341 -92.43599 -2.804285
-8.972286 -92.570575 -4.020139
-20.432628 -54.040999 -49.075676
-21.501662 -53.642395 -48.874522
-19.307957 -54.297455 -49.325722
-19.403635 -56.001196 -48.624882
-20.432628 -54.040999 -49.075676
-18.328964 -54.420735 -49.503538
-19.307957 -54.297455 -49.325722
-19.357958 -52.460537 -49.954332
9.844141 -85.300049 -39.448822
8.514146 -83.974956 -40.18652
-9.231314 -95.486751 -29.635711
-9.283738 -95.823933 -28.693942
-10.250058 -94.192295 -30.058787
-9.28932 -94.969451 -30.572852
-9.231314 -95.486751 -29.635711
-3.042288 -89.654088 -40.382646
-1.816103 -89.988838 -40.476451
-4.401247 -87.9558 -40.824771
-3.042288 -89.654088 -40.382646
-4.332085 -89.251511 -40.219614
-25.253629 -70.337902 -12.962362
-24.676681 -71.577961 -12.817954
-25.793565 -69.632641 -14.208734
-25.253629 -70.337902 -12.962362
-26.307536 -68.958263 -15.428082
-25.65476 -70.357658 -15.261475
-25.793565 -69.632641 -14.208734
-26.833426 -68.29298 -16.718553
-26.307536 -68.958263 -15.428082
-10.64382 -92.241188 -7.33274
-10.119515 -92.362922 -6.195054
-11.211035 -92.079479 -8.524909
-10.217647 -93.141567 -8.701303
-10.64382 -92.241188 -7.33274
-11.767467 -91.836021 -9.687925
-11.211035 -92.079479 -8.524909
-12.193639 -90.935642 -8.319362
-13.633605 -89.584308 -9.41582
-13.128419 -89.843952 -8.243594
-13.200635 -90.481186 -10.633133
-13.633605 -89.584308 -9.41582
-14.084167 -89.37331 -10.566574
-3.823133 -100.894352 -16.853891
-3.217834 -101.076481 -15.741536
-5.054918 -99.953834 -16.747674
-3.823133 -100.894352 -16.853891
-26.131423 -67.984848 -35.305064
-25.855837 -69.12389 -34.260847
-26.80123 -67.429493 -34.395764
-25.339104 -68.646404 -36.125088
-26.131423 -67.984848 -35.305064
-26.284498 -66.952008 -36.260005
-25.753486 -66.290134 -37.979135
-26.473921 -65.862458 -37.209389
-24.723851 -68.116291 -37.804186
-25.753486 -66.290134 -37.979135
-24.985159 -66.792862 -38.703293
15.254449 -94.325325 -35.2034
14.327567 -94.865632 -35.630639
15.254449 -94.325325 -35.2034
15.099085 -93.000061 -35.5961
-7.012866 -94.024674 -35.097246
-8.191854 -93.29248 -34.681602
-7.023775 -93.21091 -35.912109
-7.012866 -94.024674 -35.097246
-8.129499 -91.727207 -36.34488
-6.929381 -92.392936 -36.759964
-7.023775 -93.21091 -35.912109
-28.573113 -65.582493 -31.82451
-28.209984 -66.628906 -30.670038
-28.003281 -66.244381 -32.674535
-28.573113 -65.582493 -31.82451
-27.418758 -66.865635 -33.568782
-27.110167 -67.947281 -32.457299
-28.003281 -66.244381 -32.674535
-26.80123 -67.429493 -34.395764
-27.418758 -66.865635 -33.568782
7.202093 -82.523765 -40.858444
8.514146 -83.974956 -40.18652
7.405567 -84.138187 -40.626698
7.202093 -82.523765 -40.858444
5.892238 -80.932602 -41.531401
2.142057 -78.074959 -43.079628
2.474768 -79.91777 -42.752888
1.08187 -78.311402 -43.341202
0.584021 -74.598038 -43.918241
-0.493925 -74.772946 -44.188738
-0.659063 -72.902394 -44.439037
1.88188 -76.237358 -43.340746
0.584021 -74.598038 -43.918241
2.142057 -78.074959 -43.079628
1.88188 -76.237358 -43.340746
-4.113902 -57.742435 -47.339865
-2.917556 -59.726273 -46.683082
-3.984389 -59.643463 -47.051336
-4.200031 -55.904957 -47.663679
-4.113902 -57.742435 -47.339865
-5.266865 -55.822147 -48.031932
-4.430538 -53.804621 -48.049814
-4.200031 -55.904957 -47.663679
-4.565104 -51.895559 -48.429848
-4.430538 -53.804621 -48.049814
-5.48756 -52.075607 -48.735781
-4.612098 -49.948019 -48.755772
-4.565104 -51.895559 -48.429848
-5.674219 -48.18021 -49.52021
-4.612098 -49.948019 -48.755772
-5.674219 -48.18021 -49.52021
-6.655991 -48.157694 -49.890442
-7.683034 -48.041319 -50.258904
-8.666683 -48.004868 -50.57109
9.64329 -93.447495 -38.131408
10.800419 -93.218884 -37.752813
8.29877 -92.155132 -38.915165
9.64329 -93.447495 -38.131408
6.978045 -90.78027 -39.650309
8.174065 -90.644424 -39.324175
8.29877 -92.155132 -38.915165
5.638421 -89.279777 -40.343371
6.978045 -90.78027 -39.650309
5.763126 -90.790485 -39.93436
3.202476 -89.261768 -40.792252
4.592916 -90.793373 -40.153158
3.37189 -90.765148 -40.317988
-1.813796 -88.657551 -41.030708
-0.518449 -90.288014 -40.519356
-1.816103 -89.988838 -40.476451
-18.990236 -81.941445 -10.175663
-18.235047 -83.225479 -10.197156
-19.453034 -81.468189 -11.345989
-18.990236 -81.941445 -10.175663
-19.885211 -81.005757 -12.401011
-19.1242 -82.35672 -12.441304
-19.453034 -81.468189 -11.345989
-20.327709 -80.536621 -13.62243
-19.885211 -81.005757 -12.401011
-20.79653 -79.997174 -14.84928
-20.025199 -81.354839 -14.723175
-20.327709 -80.536621 -13.62243
-23.376174 -74.333222 -12.696091
-24.036734 -72.944008 -12.776884
-22.731901 -75.618877 -12.58829
-23.376174 -74.333222 -12.696091
-23.216622 -75.049786 -13.852187
-22.074546 -76.9217 -12.497281
-22.731901 -75.618877 -12.58829
-21.835695 -77.757199 -13.746461
-22.074546 -76.9217 -12.497281
-21.56353 -78.590667 -14.853602
-21.835695 -77.757199 -13.746461
-22.300184 -77.168911 -14.851527
-21.261019 -79.408886 -15.954348
-20.79653 -79.997174 -14.84928
-21.56353 -78.590667 -14.853602
-28.797274 -66.032555 -24.554202
-28.117352 -67.449932 -24.44064
-28.389698 -66.769001 -23.415636
-29.284618 -65.128155 -25.749912
-28.797274 -66.032555 -24.554202
-27.304593 -67.693325 -17.981341
-26.639898 -69.083626 -17.743612
-26.833426 -68.29298 -16.718553
-27.784338 -67.040963 -19.145135
-27.304593 -67.693325 -17.981341
-27.977866 -66.250316 -18.120077
-29.110556 -64.13644 -19.42149
-28.598029 -64.885887 -18.285863
-28.960529 -64.805046 -20.372791
-29.110556 -64.13644 -19.42149
-29.613474 -63.343532 -20.51041
-29.266534 -64.681881 -22.495455
-28.592344 -66.153489 -22.424865
-28.789258 -65.483745 -21.391122
-29.266534 -64.681881 -22.495455
-29.968165 -63.178619 -22.741347
-1.543613 -92.39893 5.489718
-2.543526 -91.873031 5.534442
-1.543613 -92.39893 5.489718
-0.988801 -93.47736 4.309411
-0.249909 -96.216011 0.506072
-1.439712 -95.634681 0.385377
-5.267672 -93.838299 -0.569161
-4.730263 -93.533211 0.69365
-4.817741 -94.804631 -1.90404
-5.267672 -93.838299 -0.569161
-5.856264 -94.047379 -1.796896
-4.25227 -95.826347 -3.219522
-3.663678 -95.617268 -1.991787
-4.817741 -94.804631 -1.90404
-3.595985 -96.881855 -4.550873
-4.25227 -95.826347 -3.219522
-4.750048 -96.069218 -4.463126
-2.98609 -97.883442 -5.887581
-3.595985 -96.881855 -4.550873
-2.446815 -98.812607 -7.266436
-2.98609 -97.883442 -5.887581
-3.554488 -98.05389 -7.173332
-1.797726 -99.737053 -8.533111
-2.446815 -98.812607 -7.266436
-2.425486 -99.83139 -9.821506
-1.207998 -100.585388 -9.802429
-1.797726 -99.737053 -8.533111
-6.134895 -99.069939 -16.626724
-5.054918 -99.953834 -16.747674
-5.504864 -99.331116 -15.529605
-7.256695 -98.07975 -16.448543
-7.706209 -97.406757 -15.25514
-8.378063 -97.039288 -16.295027
-6.134895 -99.069939 -16.626724
-7.256695 -98.07975 -16.448543
-10.039682 -95.902393 -19.165087
-9.469734 -96.352638 -18.233843
-10.467875 -95.293842 -18.045549
-10.039682 -95.902393 -19.165087
-10.542662 -95.493732 -20.05131
-10.087419 -96.15749 -22.855867
-10.483441 -95.711746 -21.924636
-10.527969 -95.69056 -23.438454
-9.696006 -96.568424 -23.570876
-10.087419 -96.15749 -22.855867
-9.696006 -96.568424 -23.570876
-9.464837 -96.740395 -24.445105
-23.602148 -59.451571 -45.039953
-23.502542 -61.035899 -44.217487
-22.57443 -59.893111 -45.472006
-23.602148 -59.451571 -45.039953
-21.514536 -60.310326 -45.911261
-21.492302 -61.875517 -45.133915
-22.57443 -59.893111 -45.472006
-21.565295 -58.698313 -46.612481
-21.593858 -56.969323 -47.407148
-20.483167 -60.68072 -46.274389
-21.514536 -60.310326 -45.911261
-21.565295 -58.698313 -46.612481
-19.184858 -46.965824 -51.932508
-19.282789 -48.829977 -51.24316
-18.089911 -47.224166 -51.941604
-19.184858 -46.965824 -51.932508
-19.078087 -45.182816 -52.526186
-17.860752 -43.471249 -53.188589
-18.890129 -43.418192 -53.172024
-16.948916 -45.494534 -52.513714
-17.860752 -43.471249 -53.188589
-16.826529 -43.524624 -53.167021
-12.671131 -44.129511 -52.510069
-12.745199 -46.028126 -51.98073
-13.678206 -44.032194 -52.71048
-11.695901 -44.194399 -52.287893
-12.671131 -44.129511 -52.510069
11.515473 -89.935547 -38.114133
10.521549 -90.321736 -38.500849
10.235768 -88.693585 -38.887405
12.807261 -91.095494 -37.269768
11.515473 -89.935547 -38.114133
9.973656 -86.948387 -39.227732
9.844141 -85.300049 -39.448822
3 0 289 291
3 289 73 290
3 289 290 291
3 1 76 74
3 1 78 76
3 3 80 79
3 3 82 80
3 292 84 293
3 4 87 85
3 2 294 296
3 294 90 295
3 294 295 296
3 5 297 298
3 5 299 301
3 299 91 300
3 299 300 301
3 303 302 92
3 7 96 94
3 8 304 306
3 306 305 97
3 304 305 306
3 8 307 308
3 8 309 311
3 309 98 310
3 309 310 311
3 9 101 99
3 9 102 101
3 312 104 313
3 10 107 105
3 10 109 107
3 11 112 110
3 13 115 113
3 13 117 115
3 14 120 118
3 14 122 120
3 14 124 122
3 314 126 315
3 316 127 317
3 318 317 126
3 316 317 318
3 15 319 321
3 319 128 320
3 319 320 321
3 15 130 128
3 15 132 130
3 11 135 133
3 11 110 135
3 12 139 137
3 16 142 140
3 16 144 142
3 6 147 145
3 17 150 148
3 17 152 150
3 17 154 152
3 18 157 155
3 18 159 157
3 322 161 323
3 324 163 325
3 326 325 161
3 324 325 326
3 19 327 328
3 19 329 331
3 329 164 330
3 329 330 331
3 20 167 165
3 22 168 75
3 22 169 168
3 22 171 169
3 24 172 77
3 24 173 172
3 25 332 333
3 25 334 335
3 25 336 338
3 336 175 337
3 336 337 338
3 27 176 81
3 27 177 176
3 28 180 178
3 30 181 83
3 30 182 181
3 339 184 340
3 28 341 343
3 341 185 342
3 341 342 343
3 28 178 185
3 32 344 345
3 32 346 348
3 346 186 347
3 346 347 348
3 33 189 187
3 35 190 86
3 35 191 190
3 349 193 350
3 37 351 353
3 351 194 352
3 351 352 353
3 37 195 194
3 37 197 195
3 354 198 355
3 356 355 88
3 354 355 356
3 357 199 358
3 359 358 198
3 357 358 359
3 361 360 89
3 39 362 364
3 362 200 363
3 362 363 364
3 39 201 200
3 40 204 202
3 365 205 366
3 367 366 93
3 365 366 367
3 368 206 369
3 370 369 205
3 368 369 370
3 42 209 207
3 371 210 372
3 373 372 95
3 371 372 373
3 375 374 210
3 21 211 166
3 23 212 170
3 44 213 100
3 44 214 213
3 44 376 378
3 378 377 214
3 376 377 378
3 379 215 380
3 45 216 103
3 45 217 216
3 26 218 174
3 46 219 106
3 46 220 219
3 46 221 220
3 47 222 108
3 47 223 222
3 48 226 224
3 50 227 111
3 50 228 227
3 29 229 179
3 51 230 114
3 51 231 230
3 51 232 231
3 52 233 116
3 52 234 233
3 53 235 119
3 53 236 235
3 53 237 236
3 54 238 121
3 54 239 238
3 54 240 239
3 55 241 123
3 55 381 383
3 383 382 241
3 381 382 383
3 384 242 385
3 386 243 387
3 389 388 243
3 56 390 392
3 392 391 125
3 390 391 392
3 56 393 394
3 56 395 396
3 57 397 398
3 57 399 400
3 57 401 403
3 401 244 402
3 401 402 403
3 58 245 129
3 58 246 245
3 58 247 246
3 59 248 131
3 59 249 248
3 31 250 183
3 60 251 134
3 60 404 406
3 406 405 251
3 404 405 406
3 60 407 408
3 48 409 411
3 411 410 136
3 409 410 411
3 48 412 414
3 412 224 413
3 412 413 414
3 49 252 225
3 61 253 138
3 61 254 253
3 34 255 188
3 62 256 141
3 62 257 256
3 62 258 257
3 63 259 143
3 63 260 259
3 41 261 203
3 64 262 146
3 64 263 262
3 36 264 192
3 65 265 149
3 65 266 265
3 65 267 266
3 66 268 151
3 66 269 268
3 66 270 269
3 67 271 153
3 67 272 271
3 38 273 196
3 68 274 156
3 68 275 274
3 68 276 275
3 69 277 158
3 69 278 277
3 70 415 416
3 70 417 419
3 417 279 418
3 417 418 419
3 70 280 279
3 71 281 160
3 71 282 281
3 71 283 282
3 72 284 162
3 72 285 284
3 420 286 421
3 422 287 423
3 424 288 425
3 426 425 287
3 424 425 426
3 428 427 288
3 43 429 431
3 431 430 208
3 429 430 431
3 73 432 433
3 73 434 436
3 434 19 435
3 434 435 436
3 74 75 20
3 76 75 74
3 76 22 75
3 76 77 22
3 78 77 76
3 78 24 77
3 79 437 438
3 80 439 441
3 441 440 79
3 439 440 441
3 80 442 444
3 442 25 443
3 442 443 444
3 80 81 25
3 82 81 80
3 82 27 81
3 445 83 446
3 447 446 28
3 445 446 447
3 448 83 449
3 450 30 451
3 452 451 83
3 450 451 452
3 453 28 454
3 84 455 456
3 84 457 459
3 457 32 458
3 457 458 459
3 85 86 33
3 87 86 85
3 87 35 86
3 460 37 461
3 462 88 463
3 464 463 37
3 462 463 464
3 465 88 466
3 468 467 88
3 469 89 470
3 90 471 473
3 471 89 472
3 471 472 473
3 90 474 476
3 476 475 89
3 474 475 476
3 91 477 478
3 91 479 481
3 479 39 480
3 479 480 481
3 92 93 40
3 482 93 483
3 484 483 92
3 482 483 484
3 486 485 93
3 94 95 42
3 96 95 94
3 96 487 489
3 489 488 95
3 487 488 489
3 97 490 492
3 492 491 21
3 490 491 492
3 494 493 97
3 98 495 496
3 98 497 498
3 99 100 23
3 101 100 99
3 101 44 100
3 101 499 501
3 501 500 44
3 499 500 501
3 102 502 504
3 504 503 101
3 502 503 504
3 102 505 506
3 507 103 508
3 104 509 511
3 509 103 510
3 509 510 511
3 104 45 103
3 105 106 26
3 107 106 105
3 107 46 106
3 107 108 46
3 109 108 107
3 109 47 108
3 110 111 48
3 112 111 110
3 112 50 111
3 113 114 29
3 115 114 113
3 115 51 114
3 115 116 51
3 117 116 115
3 117 52 116
3 118 512 514
3 512 119 513
3 512 513 514
3 120 119 118
3 120 53 119
3 120 121 53
3 122 121 120
3 122 54 121
3 122 123 54
3 124 123 122
3 124 55 123
3 515 125 516
3 126 517 519
3 517 125 518
3 517 518 519
3 126 56 125
3 126 520 522
3 522 521 56
3 520 521 522
3 127 523 525
3 525 524 126
3 523 524 525
3 127 526 527
3 128 528 529
3 128 530 532
3 530 57 531
3 530 531 532
3 128 129 57
3 130 129 128
3 130 58 129
3 130 131 58
3 132 131 130
3 132 59 131
3 133 134 31
3 135 134 133
3 135 60 134
3 135 136 60
3 110 136 135
3 110 48 136
3 137 138 49
3 139 138 137
3 139 61 138
3 140 141 34
3 142 141 140
3 142 62 141
3 142 143 62
3 144 143 142
3 144 63 143
3 145 146 41
3 147 146 145
3 147 64 146
3 148 149 36
3 150 149 148
3 150 65 149
3 150 151 65
3 152 151 150
3 152 66 151
3 152 153 66
3 154 153 152
3 154 67 153
3 155 156 38
3 157 156 155
3 157 68 156
3 157 158 68
3 159 158 157
3 159 69 158
3 533 70 534
3 535 160 536
3 537 536 70
3 535 536 537
3 161 538 540
3 538 160 539
3 538 539 540
3 161 71 160
3 161 162 71
3 163 162 161
3 163 72 162
3 542 541 43
3 164 543 544
3 164 545 547
3 545 5 546
3 545 546 547
3 165 166 7
3 167 166 165
3 167 21 166
3 75 167 20
3 168 167 75
3 168 21 167
3 168 97 21
3 169 97 168
3 169 8 97
3 169 170 8
3 171 170 169
3 171 23 170
3 77 171 22
3 172 171 77
3 172 23 171
3 172 99 23
3 173 99 172
3 173 9 99
3 548 174 549
3 175 550 552
3 550 174 551
3 550 551 552
3 175 26 174
3 81 175 25
3 176 175 81
3 176 26 175
3 176 105 26
3 177 105 176
3 177 10 105
3 178 179 11
3 180 179 178
3 180 29 179
3 83 180 28
3 181 180 83
3 181 29 180
3 181 113 29
3 182 113 181
3 182 13 113
3 553 118 554
3 555 118 556
3 557 14 558
3 559 558 118
3 557 558 559
3 561 560 14
3 562 15 563
3 564 183 565
3 566 565 15
3 564 565 566
3 184 567 569
3 567 183 568
3 567 568 569
3 184 31 183
3 570 184 571
3 185 572 574
3 572 184 573
3 572 573 574
3 185 31 184
3 185 133 31
3 178 133 185
3 178 11 133
3 186 575 576
3 186 577 578
3 187 188 12
3 189 188 187
3 189 34 188
3 86 189 33
3 190 189 86
3 190 34 189
3 190 140 34
3 191 140 190
3 191 16 140
3 579 192 580
3 581 580 6
3 579 580 581
3 193 582 584
3 582 192 583
3 582 583 584
3 193 36 192
3 585 193 586
3 194 587 589
3 587 193 588
3 587 588 589
3 194 36 193
3 194 148 36
3 195 148 194
3 195 17 148
3 195 196 17
3 197 196 195
3 197 38 196
3 88 197 37
3 198 197 88
3 198 38 197
3 198 155 38
3 199 155 198
3 199 18 155
3 89 590 591
3 593 592 89
3 200 594 595
3 200 596 597
3 200 598 600
3 598 79 599
3 598 599 600
3 201 79 200
3 201 3 79
3 202 203 4
3 204 203 202
3 204 41 203
3 93 204 40
3 205 204 93
3 205 41 204
3 205 145 41
3 206 145 205
3 206 6 145
3 601 206 602
3 603 206 604
3 605 6 606
3 607 606 206
3 605 606 607
3 609 608 6
3 207 208 2
3 209 208 207
3 209 43 208
3 95 209 42
3 210 209 95
3 210 43 209
3 210 610 612
3 612 611 43
3 610 611 612
3 614 613 210
3 166 96 7
3 211 96 166
3 211 615 617
3 617 616 96
3 615 616 617
3 618 211 619
3 620 619 21
3 618 619 620
3 621 211 622
3 624 623 211
3 170 98 8
3 212 98 170
3 212 625 627
3 627 626 98
3 625 626 627
3 100 212 23
3 213 212 100
3 213 628 630
3 630 629 212
3 628 629 630
3 213 631 632
3 214 633 635
3 635 634 213
3 633 634 635
3 214 636 637
3 214 638 639
3 641 640 214
3 643 642 44
3 644 2 645
3 646 2 647
3 648 207 649
3 650 649 2
3 648 649 650
3 215 651 653
3 651 207 652
3 651 652 653
3 215 42 207
3 103 654 656
3 654 215 655
3 654 655 656
3 216 215 103
3 216 42 215
3 216 94 42
3 217 94 216
3 217 7 94
3 174 657 659
3 657 104 658
3 657 658 659
3 218 104 174
3 218 45 104
3 106 218 26
3 219 218 106
3 219 45 218
3 219 217 45
3 220 217 219
3 220 7 217
3 220 165 7
3 221 165 220
3 221 20 165
3 108 221 46
3 222 221 108
3 222 20 221
3 222 74 20
3 223 74 222
3 223 1 74
3 224 225 0
3 226 225 224
3 226 49 225
3 111 226 48
3 227 226 111
3 227 49 226
3 227 137 49
3 228 137 227
3 228 12 137
3 179 112 11
3 229 112 179
3 229 50 112
3 114 229 29
3 230 229 114
3 230 50 229
3 230 228 50
3 231 228 230
3 231 12 228
3 231 187 12
3 232 187 231
3 232 33 187
3 116 232 51
3 233 232 116
3 233 33 232
3 233 85 33
3 234 85 233
3 234 4 85
3 660 30 661
3 662 30 663
3 664 182 665
3 666 665 30
3 664 665 666
3 667 182 668
3 669 13 670
3 671 670 182
3 669 670 671
3 119 672 673
3 235 674 676
3 676 675 119
3 674 675 676
3 235 677 678
3 235 679 680
3 236 681 683
3 683 682 235
3 681 682 683
3 236 684 686
3 684 13 685
3 684 685 686
3 236 117 13
3 237 117 236
3 237 52 117
3 121 237 53
3 238 237 121
3 238 52 237
3 238 234 52
3 239 234 238
3 239 4 234
3 239 202 4
3 240 202 239
3 240 40 202
3 123 240 54
3 241 240 123
3 241 40 240
3 241 92 40
3 687 92 688
3 689 688 241
3 687 688 689
3 691 690 92
3 692 124 693
3 694 693 14
3 692 693 694
3 242 695 697
3 695 124 696
3 695 696 697
3 242 55 124
3 698 242 699
3 243 700 702
3 700 242 701
3 700 701 702
3 243 55 242
3 243 703 705
3 705 704 55
3 703 704 705
3 707 706 243
3 125 708 709
3 711 710 125
3 713 712 56
3 714 127 715
3 244 716 718
3 716 127 717
3 716 717 718
3 244 719 721
3 721 720 127
3 719 720 721
3 129 244 57
3 245 244 129
3 245 722 724
3 724 723 244
3 722 723 724
3 245 725 726
3 246 727 729
3 729 728 245
3 727 728 729
3 246 730 731
3 246 732 734
3 732 84 733
3 732 733 734
3 247 84 246
3 247 32 84
3 131 247 58
3 248 247 131
3 248 32 247
3 248 186 32
3 249 186 248
3 249 735 737
3 737 736 186
3 735 736 737
3 183 132 15
3 250 132 183
3 250 59 132
3 134 250 31
3 251 250 134
3 251 59 250
3 251 249 59
3 738 249 739
3 740 739 251
3 738 739 740
3 742 741 249
3 136 743 745
3 745 744 60
3 743 744 745
3 747 746 136
3 224 748 749
3 224 750 752
3 750 0 751
3 750 751 752
3 753 0 754
3 225 73 0
3 252 73 225
3 252 19 73
3 138 252 49
3 253 252 138
3 253 19 252
3 253 164 19
3 254 164 253
3 254 5 164
3 188 139 12
3 255 139 188
3 255 61 139
3 141 255 34
3 256 255 141
3 256 61 255
3 256 254 61
3 257 254 256
3 257 5 254
3 257 91 5
3 258 91 257
3 258 39 91
3 143 258 62
3 259 258 143
3 259 39 258
3 259 201 39
3 260 201 259
3 260 3 201
3 203 87 4
3 261 87 203
3 261 35 87
3 146 261 41
3 262 261 146
3 262 35 261
3 262 191 35
3 263 191 262
3 263 16 191
3 192 147 6
3 264 147 192
3 264 64 147
3 149 264 36
3 265 264 149
3 265 64 264
3 265 263 64
3 266 263 265
3 266 16 263
3 266 144 16
3 267 144 266
3 267 63 144
3 151 267 65
3 268 267 151
3 268 63 267
3 268 260 63
3 269 260 268
3 269 3 260
3 269 82 3
3 270 82 269
3 270 27 82
3 153 270 66
3 271 270 153
3 271 27 270
3 271 177 27
3 272 177 271
3 272 10 177
3 196 154 17
3 273 154 196
3 273 67 154
3 156 273 38
3 274 273 156
3 274 67 273
3 274 272 67
3 275 272 274
3 275 10 272
3 275 109 10
3 276 109 275
3 276 47 109
3 158 276 68
3 277 276 158
3 277 47 276
3 277 223 47
3 278 223 277
3 278 1 223
3 755 199 756
3 757 199 758
3 759 18 760
3 761 760 199
3 759 760 761
3 279 762 763
3 279 764 766
3 764 18 765
3 764 765 766
3 279 159 18
3 280 159 279
3 280 69 159
3 160 280 70
3 281 280 160
3 281 69 280
3 281 278 69
3 282 278 281
3 282 1 278
3 282 78 1
3 283 78 282
3 283 24 78
3 162 283 71
3 284 283 162
3 284 24 283
3 284 173 24
3 285 173 284
3 285 9 173
3 767 163 768
3 286 769 771
3 769 163 770
3 769 770 771
3 286 72 163
3 772 286 773
3 287 774 776
3 774 286 775
3 774 775 776
3 287 72 286
3 287 285 72
3 288 285 287
3 288 9 285
3 288 102 9
3 777 102 778
3 779 778 288
3 777 778 779
3 781 780 102
3 208 90 2
3 782 90 783
3 784 783 208
3 782 783 784
3 786 785 90
3 788 787 43
