ply
format ascii 1.0
element vertex 402
property float x
property float y
property float z
element face 459
property list uchar int vertex_index
end_header
8.068407 -106.496765 -26.862942
-2.49782 -102.116959 -26.627516
-0.95809 -99.236603 -34.288906
18.276472 -105.967598 -24.5306
18.892061 -98.976685 -30.916515
9.72654 -101.70636 -34.078468
-0.520756 -91.619301 -39.965099
-5.68495 -99.692657 -17.844793
14.941969 -107.783859 -16.144697
4.244252 -105.710678 -17.944674
-6.981666 -98.920975 -25.467503
-6.212714 -98.573402 -29.210302
13.528371 -106.939674 -25.92083
14.586184 -104.587967 -29.646275
9.205939 -104.803146 -30.733791
-5.823657 -93.87664 -36.327194
-0.573233 -96.072983 -37.362751
1.81953 -103.564156 -13.525885
-0.806883 -103.152046 -18.142584
14.579705 -96.274445 -35.10228
2.611563 -104.816689 -26.962103
3.856463 -103.669327 -31.030836
-1.657042 -101.291603 -30.598034
-5.906757 -96.793976 -32.951252
22.277687 -103.571602 -22.544117
19.093189 -103.11158 -27.829737
14.676105 -100.97435 -32.834839
9.903337 -97.442581 -36.644398
4.475083 -101.046852 -34.621716
4.850385 -97.174904 -37.524044
4.762329 -92.296753 -39.678894
-8.186522 -97.99427 -21.458412
16.937471 -107.568161 -20.446619
11.904139 -107.84864 -22.002497
9.54961 -107.3647 -17.382526
6.333303 -106.778236 -22.660522
1.120807 -104.618324 -22.608416
-3.961634 -101.469757 -22.27006
-8.793118 -97.379295 -24.736748
-8.593131 -97.250694 -26.489508
10.813178 -106.864502 -26.553596
11.427529 -106.036369 -28.50857
8.706732 -105.822113 -28.856512
-5.645329 -92.091309 -37.915234
-0.601276 -102.201813 -13.483886
12.106048 -94.41848 -36.916595
0.080697 -103.63459 -26.764885
0.677643 -103.319412 -28.905088
-1.860321 -101.996124 -28.591955
-8.270576 -96.263908 -30.149776
-6.129204 -97.738663 -31.131516
-8.270308 -95.224236 -32.037449
-8.159814 -94.03978 -33.86618
20.431604 -104.984276 -23.481007
20.734703 -103.627914 -25.213091
18.623301 -104.671608 -26.434956
12.353367 -103.371925 -31.928507
14.672652 -102.852257 -31.416559
12.271796 -101.504158 -33.551876
12.226271 -99.25325 -34.971485
9.905636 -99.776924 -35.409241
1.396533 -101.62957 -32.738342
4.181213 -102.490715 -32.923374
1.627065 -100.210159 -34.580544
-0.42621 -94.079094 -38.701927
2.10867 -96.680313 -37.612022
2.14809 -94.52726 -38.843281
4.862638 -94.820648 -38.697739
2.033328 -92.031097 -39.963215
18.415262 -107.327644 -17.437475
16.044741 -107.845985 -18.464344
14.37619 -107.895363 -21.248823
13.42686 -107.992859 -19.013405
5.858966 -105.890373 -15.516201
8.3917 -106.643906 -15.077843
6.991976 -106.725319 -17.84549
8.121883 -107.274323 -20.124725
5.380045 -106.43074 -20.328308
3.783697 -105.853683 -22.919361
2.794988 -105.358154 -20.442392
-3.221379 -101.573692 -18.057228
-2.433289 -102.41774 -20.411291
-4.747998 -100.729584 -19.934029
-6.155303 -99.767136 -21.715399
-7.025052 -98.853783 -19.673719
-4.874846 -100.550201 -25.970016
-4.421638 -100.42691 -27.997015
-6.557737 -98.907082 -27.301277
-8.375423 -96.938271 -28.266239
16.027714 -106.562744 -25.414045
16.425116 -105.468903 -27.246523
13.95665 -105.944893 -27.936756
11.883516 -104.849754 -30.338013
9.572403 -103.416359 -32.48661
-3.376241 -96.72924 -35.370251
-0.766206 -97.725319 -35.93782
-3.202791 -95.084595 -36.97179
-3.000137 -93.170525 -38.459755
-2.973127 -90.949799 -39.777489
4.455441 -104.741379 -13.270732
3.188539 -104.795151 -15.656637
1.69587 -104.530365 -18.028126
0.637133 -103.530327 -15.823174
-2.010781 -101.93795 -15.832516
16.669634 -97.890305 -33.187286
18.52389 -96.644463 -32.170563
16.43347 -95.193832 -34.247803
5.181368 -105.728485 -27.11084
5.910875 -105.209503 -29.130924
3.250808 -104.401505 -29.072153
1.151217 -102.697861 -30.825544
-1.078841 -100.589417 -32.41687
-3.985619 -100.031883 -29.936777
-3.604576 -99.302048 -31.871162
-3.460438 -98.161354 -33.672985
-5.801837 -95.504166 -34.697468
20.865332 -101.896362 -26.907009
19.074936 -101.285568 -29.398853
16.819601 -103.935768 -28.989017
17.087143 -102.220505 -30.405256
17.01005 -100.263794 -31.79397
14.693469 -98.86647 -34.002487
12.369174 -97.034393 -35.926708
9.79179 -94.875702 -37.673786
6.669156 -104.407318 -30.974333
6.961601 -103.194847 -32.719872
7.159545 -101.551613 -34.432056
2.066098 -98.645241 -36.185349
4.75334 -99.242828 -36.186031
7.32696 -99.615738 -35.932053
7.451573 -97.437386 -37.179874
7.428234 -95.081421 -38.231319
7.10275 -92.290977 -39.241299
-7.928549 -97.71228 -17.48843
-9.04154 -96.961189 -19.35338
-10.047502 -96.143867 -21.125828
-9.255457 -97.035355 -22.988289
19.904066 -106.070992 -21.734905
19.268938 -106.883797 -19.464859
17.777386 -106.945442 -22.409737
15.389393 -107.419662 -23.281807
12.84868 -107.548241 -24.030035
10.078869 -107.341171 -24.568773
9.763679 -106.339165 -12.437372
10.937304 -107.192818 -14.754261
12.207331 -107.740791 -16.830616
10.821257 -107.798737 -19.682859
9.196856 -107.49865 -22.277464
7.297889 -106.819359 -24.774437
4.502385 -105.95018 -24.987249
1.900536 -104.876991 -24.878393
-0.593443 -103.577621 -24.694206
0.077136 -103.959328 -20.456448
-1.572693 -103.079559 -22.597624
-2.99217 -102.08815 -24.481449
-5.428558 -100.34082 -23.980165
-7.476624 -98.672089 -23.432261
-9.470267 -96.619461 -25.159462
-9.464837 -96.740395 -24.445105
11.953651 -92.991089 -37.322086
10.800419 -93.218884 -37.752813
-9.289186 -94.449615 -31.516689
-8.270442 -95.744072 -31.093612
-9.28932 -94.969451 -30.572852
-9.317969 -93.832711 -32.461416
-9.289186 -94.449615 -31.516689
-0.518449 -90.288014 -40.519356
0.758593 -90.493911 -40.518413
0.756286 -91.825199 -39.964157
15.493355 -107.814922 -17.304521
16.677617 -107.657192 -16.931182
16.126231 -107.626129 -15.771358
19.739175 -98.31052 -30.334376
19.821291 -99.41592 -29.712323
-9.354356 -96.078259 -27.769652
-8.484277 -97.094482 -27.377873
-9.46321 -96.23447 -26.881286
-9.283738 -95.823933 -28.693942
-9.354356 -96.078259 -27.769652
-4.289385 -91.5892 -38.904616
-4.322733 -92.630917 -38.187494
-5.611981 -91.049591 -38.632355
-4.27588 -90.478836 -39.563483
-2.986632 -92.060162 -39.118622
-4.289385 -91.5892 -38.904616
-4.332085 -89.251511 -40.219614
-4.27588 -90.478836 -39.563483
3.137486 -104.152767 -13.398309
3.81784 -104.077084 -12.110416
2.499884 -103.488472 -12.237993
-2.554185 -101.262436 -14.642159
-1.306029 -102.069882 -14.658201
-1.849433 -101.394368 -13.467844
-3.217834 -101.076481 -15.741536
-2.554185 -101.262436 -14.642159
-8.191854 -93.29248 -34.681602
-9.296933 -92.54031 -34.233774
22.389757 -102.830368 -23.347025
23.037286 -102.813366 -21.851799
4.592916 -90.793373 -40.153158
5.763126 -90.790485 -39.93436
5.93254 -92.293865 -39.460096
-8.913239 -96.728184 -17.301368
-8.378063 -97.039288 -16.295027
-9.469734 -96.352638 -18.233843
-8.485045 -97.336735 -18.420905
-8.913239 -96.728184 -17.301368
-10.938842 -95.145671 -20.978685
-10.542662 -95.493732 -20.05131
-10.483441 -95.711746 -21.924636
-10.938842 -95.145671 -20.978685
20.568683 -105.965653 -20.198377
20.8855 -105.487259 -21.143711
8.400033 -105.962162 -12.572449
9.068165 -105.772549 -11.306129
19.322903 -95.919109 -31.596247
18.333866 -95.32169 -32.677924
-9.370273 -96.55516 -26.035842
-8.693124 -97.314994 -25.613128
-9.470267 -96.619461 -25.159462
-9.46321 -96.23447 -26.881286
-9.370273 -96.55516 -26.035842
-6.840217 -91.500271 -37.553984
-5.734493 -92.983974 -37.121214
-6.929381 -92.392936 -36.759964
-6.934864 -90.365494 -38.350899
-6.840217 -91.500271 -37.553984
-5.611981 -91.049591 -38.632355
-6.934864 -90.365494 -38.350899
1.209236 -102.835667 -12.273381
2.499884 -103.488472 -12.237993
-0.001168 -102.154495 -12.252382
0.609127 -102.882984 -13.504886
1.209236 -102.835667 -12.273381
-1.218517 -101.44077 -12.287355
-0.001168 -102.154495 -12.252382
-0.618409 -101.393452 -11.055851
-1.849433 -101.394368 -13.467844
-1.218517 -101.44077 -12.287355
13.090739 -93.937649 -36.537796
14.327567 -94.865632 -35.630639
13.342876 -95.346463 -36.009438
13.090739 -93.937649 -36.537796
11.953651 -92.991089 -37.322086
-9.262722 -93.240482 -33.375782
-8.215061 -94.632008 -32.951814
-9.317969 -93.832711 -32.461416
-9.296933 -92.54031 -34.233774
-9.262722 -93.240482 -33.375782
2.007389 -90.63232 -40.460148
3.37189 -90.765148 -40.317988
3.397829 -92.163925 -39.821055
2.007389 -90.63232 -40.460148
0.758593 -90.493911 -40.518413
17.862877 -107.398021 -16.417747
18.956049 -107.063137 -16.003695
17.230002 -107.586815 -17.95091
17.862877 -107.398021 -16.417747
16.677617 -107.657192 -16.931182
7.125333 -106.267139 -15.297022
7.714044 -106.114532 -13.892684
6.447677 -105.737766 -14.111864
-9.231314 -95.486751 -29.635711
-8.322999 -96.60109 -29.208008
-9.283738 -95.823933 -28.693942
-9.28932 -94.969451 -30.572852
-9.231314 -95.486751 -29.635711
-3.042288 -89.654088 -40.382646
-1.816103 -89.988838 -40.476451
-1.746941 -91.28455 -39.871294
-3.042288 -89.654088 -40.382646
-4.332085 -89.251511 -40.219614
15.504356 -107.516625 -14.659003
16.126231 -107.626129 -15.771358
5.10178 -104.562084 -11.895724
3.81784 -104.077084 -12.110416
5.745914 -105.163269 -12.989129
5.10178 -104.562084 -11.895724
5.157203 -105.315876 -14.393467
6.447677 -105.737766 -14.111864
5.745914 -105.163269 -12.989129
-3.823133 -100.894352 -16.853891
-2.61608 -101.755821 -16.944872
-3.217834 -101.076481 -15.741536
-5.054918 -99.953834 -16.747674
-4.453164 -100.633174 -17.95101
-3.823133 -100.894352 -16.853891
17.288655 -94.596374 -33.716544
18.333866 -95.32169 -32.677924
17.47868 -95.919148 -33.209183
15.254449 -94.325325 -35.2034
15.506588 -95.734139 -34.675041
14.327567 -94.865632 -35.630639
16.278105 -93.868568 -34.640503
15.254449 -94.325325 -35.2034
15.099085 -93.000061 -35.5961
17.288655 -94.596374 -33.716544
16.278105 -93.868568 -34.640503
-7.012866 -94.024674 -35.097246
-6.980825 -94.771973 -34.281824
-8.191854 -93.29248 -34.681602
-7.023775 -93.21091 -35.912109
-5.812747 -94.690403 -35.512331
-7.012866 -94.024674 -35.097246
-6.929381 -92.392936 -36.759964
-7.023775 -93.21091 -35.912109
21.618265 -102.858524 -24.681512
22.389757 -102.830368 -23.347025
21.506195 -103.599758 -23.878604
21.68358 -101.992748 -25.528471
21.618265 -102.858524 -24.681512
20.800017 -102.762138 -26.06005
21.643854 -101.180756 -26.344105
21.68358 -101.992748 -25.528471
20.807927 -100.875759 -27.70757
21.643854 -101.180756 -26.344105
19.912729 -100.570362 -28.953492
20.807927 -100.875759 -27.70757
19.970134 -101.590965 -28.152931
18.983499 -100.131126 -30.157684
19.821291 -99.41592 -29.712323
19.912729 -100.570362 -28.953492
9.64329 -93.447495 -38.131408
10.800419 -93.218884 -37.752813
10.948919 -94.647091 -37.295191
8.29877 -92.155132 -38.915165
9.64329 -93.447495 -38.131408
8.44727 -93.583339 -38.457543
6.978045 -90.78027 -39.650309
8.29877 -92.155132 -38.915165
6.978045 -90.78027 -39.650309
5.763126 -90.790485 -39.93436
4.592916 -90.793373 -40.153158
3.37189 -90.765148 -40.317988
-0.518449 -90.288014 -40.519356
-1.816103 -89.988838 -40.476451
-6.134895 -99.069939 -16.626724
-5.054918 -99.953834 -16.747674
-7.256695 -98.07975 -16.448543
-8.378063 -97.039288 -16.295027
-6.80675 -98.702469 -17.666612
-6.134895 -99.069939 -16.626724
-7.256695 -98.07975 -16.448543
-10.039682 -95.902393 -19.165087
-9.469734 -96.352638 -18.233843
-9.544521 -96.552528 -20.239604
-10.039682 -95.902393 -19.165087
-10.542662 -95.493732 -20.05131
-10.087419 -96.15749 -22.855867
-9.65148 -96.589611 -22.057059
-10.483441 -95.711746 -21.924636
-9.696006 -96.568424 -23.570876
-10.087419 -96.15749 -22.855867
22.859063 -103.514908 -20.992177
23.037286 -102.813366 -21.851799
22.072311 -104.237564 -21.548317
22.859063 -103.514908 -20.992177
21.149269 -104.943901 -22.016762
21.354646 -104.277939 -23.012562
22.072311 -104.237564 -21.548317
20.167835 -105.527634 -22.607956
21.149269 -104.943901 -22.016762
20.8855 -105.487259 -21.143711
19.492556 -106.877155 -16.991683
18.956049 -107.063137 -16.003695
19.919393 -106.655231 -18.005375
19.492556 -106.877155 -16.991683
18.8421 -107.105721 -18.451167
20.251118 -106.372055 -19.063355
20.901574 -106.14349 -17.60387
19.919393 -106.655231 -18.005375
19.586502 -106.477395 -20.599882
20.568683 -105.965653 -20.198377
20.251118 -106.372055 -19.063355
14.244303 -107.586666 -15.070504
15.504356 -107.516625 -14.659003
10.308339 -105.999741 -10.976907
9.068165 -105.772549 -11.306129
11.04291 -106.521241 -12.131563
10.308339 -105.999741 -10.976907
9.077689 -106.491535 -13.757607
8.400033 -105.962162 -12.572449
7.714044 -106.114532 -13.892684
11.629723 -106.948067 -13.290007
11.04291 -106.521241 -12.131563
10.350492 -106.765991 -13.595816
12.241971 -107.291145 -14.375286
11.629723 -106.948067 -13.290007
12.876984 -107.565132 -15.413463
12.241971 -107.291145 -14.375286
11.572318 -107.466804 -15.792438
13.57465 -107.762325 -16.487656
14.244303 -107.586666 -15.070504
12.876984 -107.565132 -15.413463
-9.696006 -96.568424 -23.570876
-9.464837 -96.740395 -24.445105
-9.024287 -97.207325 -23.862519
19.555089 -97.144409 -30.9614
19.739175 -98.31052 -30.334376
18.707976 -97.810574 -31.543539
19.555089 -97.144409 -30.9614
19.322903 -95.919109 -31.596247
3 158 157 38
3 0 42 40
3 160 159 45
3 1 48 46
3 161 51 162
3 163 162 49
3 161 162 163
3 165 164 51
3 3 55 53
3 5 58 56
3 5 60 58
3 2 63 61
3 6 66 64
3 6 68 66
3 6 166 168
3 168 167 68
3 166 167 168
3 8 169 171
3 169 70 170
3 169 170 171
3 8 72 70
3 9 75 73
3 9 77 75
3 9 79 77
3 7 82 80
3 7 84 82
3 4 172 173
3 10 87 85
3 174 88 175
3 176 175 39
3 174 175 176
3 178 177 88
3 12 91 89
3 14 92 41
3 14 93 92
3 15 96 94
3 179 97 180
3 181 180 43
3 179 180 181
3 182 98 183
3 184 183 97
3 182 183 184
3 186 185 98
3 17 187 189
3 187 99 188
3 187 188 189
3 17 100 99
3 17 102 100
3 190 103 191
3 192 191 44
3 190 191 192
3 194 193 103
3 19 106 104
3 20 109 107
3 22 110 47
3 22 111 110
3 11 112 86
3 23 113 50
3 23 114 113
3 23 115 114
3 196 195 52
3 24 197 198
3 25 116 54
3 25 117 116
3 13 118 90
3 26 119 57
3 26 120 119
3 26 121 120
3 27 122 59
3 27 123 122
3 21 124 108
3 28 125 62
3 28 126 125
3 16 127 95
3 29 128 65
3 29 129 128
3 29 130 129
3 30 131 67
3 30 132 131
3 30 199 201
3 201 200 132
3 199 200 201
3 202 133 203
3 204 134 205
3 206 205 133
3 204 205 206
3 207 135 208
3 210 209 135
3 211 137 212
3 32 138 69
3 32 139 138
3 32 140 139
3 33 141 71
3 33 142 141
3 213 143 214
3 34 144 74
3 34 145 144
3 34 146 145
3 35 147 76
3 35 148 147
3 35 149 148
3 36 150 78
3 36 151 150
3 18 152 101
3 37 153 81
3 37 154 153
3 37 155 154
3 31 156 83
3 31 136 156
3 216 215 105
3 38 39 10
3 217 39 218
3 219 218 38
3 217 218 219
3 221 220 39
3 40 41 12
3 42 41 40
3 42 14 41
3 222 43 223
3 224 223 15
3 222 223 224
3 225 43 226
3 228 227 43
3 229 17 230
3 231 44 232
3 233 232 17
3 231 232 233
3 234 44 235
3 234 235 236
3 238 237 44
3 45 239 241
3 241 240 19
3 239 240 241
3 243 242 45
3 46 47 20
3 48 47 46
3 48 22 47
3 49 50 11
3 51 50 49
3 51 23 50
3 51 52 23
3 244 52 245
3 246 245 51
3 244 245 246
3 248 247 52
3 53 54 24
3 55 54 53
3 55 25 54
3 56 57 13
3 58 57 56
3 58 26 57
3 58 59 26
3 60 59 58
3 60 27 59
3 61 62 21
3 63 62 61
3 63 28 62
3 64 65 16
3 66 65 64
3 66 29 65
3 66 67 29
3 68 67 66
3 68 30 67
3 68 249 251
3 251 250 30
3 249 250 251
3 253 252 68
3 254 69 255
3 70 256 258
3 256 69 257
3 256 257 258
3 70 32 69
3 70 71 32
3 72 71 70
3 72 33 71
3 73 259 261
3 259 74 260
3 259 260 261
3 75 74 73
3 75 34 74
3 75 76 34
3 77 76 75
3 77 35 76
3 77 78 35
3 79 78 77
3 79 36 78
3 80 81 18
3 82 81 80
3 82 37 81
3 82 83 37
3 84 83 82
3 84 31 83
3 85 86 1
3 87 86 85
3 87 11 86
3 39 87 10
3 88 87 39
3 88 11 87
3 88 49 11
3 262 49 263
3 264 263 88
3 262 263 264
3 266 265 49
3 89 90 3
3 91 90 89
3 91 13 90
3 41 91 12
3 92 91 41
3 92 13 91
3 92 56 13
3 93 56 92
3 93 5 56
3 94 95 2
3 96 95 94
3 96 16 95
3 43 96 15
3 97 96 43
3 97 16 96
3 97 64 16
3 98 64 97
3 98 6 64
3 98 267 269
3 269 268 6
3 267 268 269
3 271 270 98
3 272 8 273
3 99 274 275
3 99 276 277
3 99 278 280
3 278 73 279
3 278 279 280
3 100 73 99
3 100 9 73
3 100 101 9
3 102 101 100
3 102 18 101
3 44 102 17
3 103 102 44
3 103 18 102
3 103 80 18
3 281 80 282
3 283 282 103
3 281 282 283
3 284 7 285
3 286 285 80
3 284 285 286
3 104 105 4
3 106 105 104
3 106 287 289
3 289 288 105
3 287 288 289
3 290 106 291
3 292 291 19
3 290 291 292
3 293 106 294
3 293 294 295
3 297 296 106
3 107 108 0
3 109 108 107
3 109 21 108
3 47 109 20
3 110 109 47
3 110 21 109
3 110 61 21
3 111 61 110
3 111 2 61
3 86 48 1
3 112 48 86
3 112 22 48
3 50 112 11
3 113 112 50
3 113 22 112
3 113 111 22
3 114 111 113
3 114 2 111
3 114 94 2
3 115 94 114
3 115 15 94
3 52 115 23
3 298 115 299
3 300 299 52
3 298 299 300
3 301 15 302
3 303 302 115
3 301 302 303
3 305 304 15
3 54 306 308
3 308 307 24
3 306 307 308
3 116 309 311
3 311 310 54
3 309 310 311
3 116 312 313
3 116 314 315
3 117 316 318
3 318 317 116
3 316 317 318
3 117 319 321
3 319 4 320
3 319 320 321
3 90 55 3
3 118 55 90
3 118 25 55
3 57 118 13
3 119 118 57
3 119 25 118
3 119 117 25
3 120 117 119
3 120 4 117
3 120 104 4
3 121 104 120
3 121 19 104
3 59 121 26
3 122 121 59
3 122 19 121
3 122 45 19
3 123 45 122
3 123 322 324
3 324 323 45
3 322 323 324
3 108 42 0
3 124 42 108
3 124 14 42
3 62 124 21
3 125 124 62
3 125 14 124
3 125 93 14
3 126 93 125
3 126 5 93
3 95 63 2
3 127 63 95
3 127 28 63
3 65 127 16
3 128 127 65
3 128 28 127
3 128 126 28
3 129 126 128
3 129 5 126
3 129 60 5
3 130 60 129
3 130 27 60
3 67 130 29
3 131 130 67
3 131 27 130
3 131 123 27
3 132 123 131
3 132 325 327
3 327 326 123
3 325 326 327
3 132 328 329
3 331 330 132
3 333 332 30
3 335 334 6
3 336 7 337
3 133 338 339
3 133 340 342
3 340 7 341
3 340 341 342
3 133 84 7
3 134 84 133
3 134 31 84
3 343 134 344
3 135 345 347
3 345 134 346
3 345 346 347
3 135 31 134
3 135 136 31
3 348 136 349
3 350 349 135
3 348 349 350
3 352 351 136
3 353 24 354
3 355 24 356
3 357 53 358
3 359 358 24
3 357 358 359
3 137 360 362
3 360 53 361
3 360 361 362
3 137 3 53
3 69 363 364
3 138 365 367
3 367 366 69
3 365 366 367
3 138 368 370
3 368 369 370
3 138 371 373
3 371 137 372
3 371 372 373
3 139 137 138
3 139 3 137
3 139 89 3
3 140 89 139
3 140 12 89
3 71 140 32
3 141 140 71
3 141 12 140
3 141 40 12
3 142 40 141
3 142 0 40
3 374 8 375
3 143 376 377
3 143 378 379
3 74 380 382
3 380 143 381
3 380 381 382
3 144 143 74
3 144 383 385
3 385 384 143
3 383 384 385
3 144 386 387
3 145 388 390
3 390 389 144
3 388 389 390
3 145 391 393
3 391 8 392
3 391 392 393
3 145 72 8
3 146 72 145
3 146 33 72
3 76 146 34
3 147 146 76
3 147 33 146
3 147 142 33
3 148 142 147
3 148 0 142
3 148 107 0
3 149 107 148
3 149 20 107
3 78 149 35
3 150 149 78
3 150 20 149
3 150 46 20
3 151 46 150
3 151 1 46
3 101 79 9
3 152 79 101
3 152 36 79
3 81 152 18
3 153 152 81
3 153 36 152
3 153 151 36
3 154 151 153
3 154 1 151
3 154 85 1
3 155 85 154
3 155 10 85
3 83 155 37
3 156 155 83
3 156 10 155
3 156 38 10
3 136 38 156
3 136 394 396
3 396 395 38
3 394 395 396
3 105 397 399
3 399 398 4
3 397 398 399
3 401 400 105
