ply
format ascii 1.0
element vertex 517
property float x
property float y
property float z
element face 587
property list uchar int vertex_index
end_header
38.766216 -22.581221 11.36142
38.945908 -7.819839 16.255924
36.076595 -20.651478 28.332035
38.110451 -0.652609 9.128608
40.348381 1.189379 15.894937
35.688683 -16.099583 7.158749
39.261776 -27.58552 4.995993
35.7878 -9.424891 9.080898
38.208801 -16.130535 15.1835
38.79641 -5.076818 23.140644
38.530899 -14.04398 23.067318
38.665218 -22.508972 20.44525
36.55138 -29.317961 24.142368
38.831509 -29.493685 15.213255
37.528248 -19.277847 9.317506
36.502274 -18.60014 5.094601
38.243729 -21.913918 6.814953
38.865883 -24.191956 3.531689
39.153309 -25.218908 8.34499
38.654209 -4.304078 12.584405
36.821781 -5.21656 9.288454
37.69585 -8.889683 12.637546
37.150036 -12.804285 12.183049
38.375916 -12.095333 15.889577
37.586395 -17.388609 25.96023
38.534824 -18.436743 22.115524
37.716724 -21.785332 24.606779
37.498096 3.654954 6.026077
39.485149 4.28959 9.097581
39.74469 0.29053 12.513978
39.701321 -3.108794 16.091404
33.540459 -12.99951 4.96361
35.831001 -1.167922 6.095695
34.388554 -5.729676 6.148092
35.444199 -13.19312 8.483019
37.115028 -16.458595 11.028318
38.350052 -19.477209 13.623888
39.750164 -1.982534 19.446928
39.331604 -6.453826 19.832289
38.624672 -9.635056 23.386364
38.939919 -11.015186 19.858425
38.721561 -15.286298 19.16494
38.744862 -19.077911 17.925116
38.966675 -22.739258 15.835244
36.299271 -25.114038 26.611439
37.894089 -25.833654 22.541046
38.840721 -26.154871 17.988253
39.213024 -26.000933 13.293904
39.221519 -28.862436 10.248365
38.816212 -31.311802 6.494578
38.221169 -20.880171 10.302936
37.887508 -20.670935 8.170098
38.551796 -22.356474 9.077684
38.823254 -23.631927 7.634671
38.987946 -23.980759 9.978746
38.845211 -6.061475 14.4444
38.164898 -6.567317 12.686192
38.414509 -8.310732 14.391503
38.091167 -10.510106 14.332631
38.616863 -10.10103 16.136883
35.965481 -18.372618 28.967901
36.777763 -16.750849 27.830156
36.912445 -18.983231 27.199076
37.656384 -19.656946 25.326317
37.008064 -21.260544 26.479818
40.519398 3.008048 14.026739
40.213913 2.652378 12.386121
40.178173 0.781147 14.18326
39.727001 -1.548703 14.196312
40.043327 -0.959059 15.948065
37.0294 -19.711012 3.728611
36.009415 -18.131071 2.953403
39.177876 -25.952135 4.252406
39.028732 -25.065567 1.727086
39.191456 -26.940674 2.363399
39.144062 -28.707151 3.269231
37.822716 1.443328 7.536306
36.60928 1.318764 5.933776
37.069927 -0.832405 7.557102
36.25042 -7.293064 9.213516
35.66082 -5.395408 7.640886
35.06863 -7.661708 7.569407
34.67244 -9.58359 7.393773
34.483902 -11.519187 7.115443
35.529255 -11.341099 8.871171
37.700554 -14.523726 13.611208
37.061886 -14.737959 11.691526
37.6744 -16.2633 12.981104
37.81028 -18.037434 12.297953
38.207527 -17.781675 14.352335
39.307339 -3.564208 21.339325
39.552769 -4.186754 19.633673
39.180798 -5.798691 21.454426
38.137447 -13.500573 24.842899
38.109192 -11.114757 25.124498
38.552647 -11.945884 23.345957
38.89048 -10.308393 21.647802
38.798019 -12.504244 21.394291
38.800026 -13.320929 19.638405
38.719547 -14.74004 21.257984
38.59956 -20.493134 21.290966
38.732243 -18.804087 20.018343
38.80085 -20.771013 19.119158
38.834789 -20.990992 16.989529
38.896198 -22.736053 18.166807
37.209911 -25.466599 24.588924
37.254601 -27.434322 23.534327
38.456173 -29.621235 17.638187
38.478157 -27.884886 19.022499
38.85812 -27.967747 16.645266
39.091763 -26.184994 15.589038
39.117748 -27.840607 14.212956
39.259785 -27.433975 11.877712
39.07383 -29.296629 12.74074
38.699863 -31.929962 9.028061
36.670338 -17.686363 8.245311
36.044502 -17.413607 6.221987
37.029179 -19.00457 7.188686
37.449455 -20.211632 5.945671
37.883034 -21.327885 4.518665
38.301662 -22.387978 2.870424
38.570026 -23.046827 5.221735
39.022858 -24.742945 5.920394
39.264973 -26.527399 6.85752
38.409847 -2.534293 10.832504
37.497189 -3.046032 9.355732
37.823395 -4.950696 10.999256
37.281315 -7.068265 10.951294
36.787876 -9.093563 10.760617
36.535145 -11.131705 10.7171
37.371082 -10.841258 12.485431
37.829258 -12.560001 14.021667
38.227909 -14.100849 15.564597
37.514332 -15.122728 26.452759
38.119419 -15.687 24.615988
38.501205 -16.25515 22.771931
38.126404 -17.911213 24.207748
38.202347 -20.122744 23.439199
38.289436 -22.139477 22.543779
37.328995 -29.521881 22.082476
38.719219 -31.005802 13.544765
38.565735 3.827164 7.547598
38.836246 1.703825 9.164092
40.15118 4.580669 10.731474
39.675117 2.268946 10.787337
39.032433 -0.181984 10.755263
39.178867 -2.013075 12.460893
39.293644 -3.719681 14.315279
39.310135 -5.534596 16.261997
32.382736 -11.299597 3.888986
35.315113 1.050275 4.591131
34.509418 -1.429938 4.748814
36.392445 -3.178347 7.7136
35.098541 -3.503428 6.197574
33.452827 -11.48678 5.502007
34.431271 -13.109122 6.596252
35.455261 -14.740139 7.80905
36.377048 -13.053329 10.405742
36.327896 -14.81446 9.804356
36.430302 -16.337648 9.069024
37.247253 -17.864061 10.210531
37.96582 -19.456848 11.371692
38.515617 -21.028788 12.47435
40.297375 1.807937 17.459362
39.91481 0.348941 19.239618
40.099205 -0.332428 17.674252
39.835945 -2.624149 17.813074
39.533897 -4.966807 18.025185
39.255688 -7.183044 18.122614
39.023575 -7.9692 21.662672
39.127281 -8.665726 19.876577
38.991837 -9.387856 18.049391
38.77763 -11.60925 17.973093
38.616379 -13.606516 17.608114
38.53907 -15.651011 17.156298
38.702461 -16.772362 20.740364
38.708126 -17.26754 18.676058
38.542107 -17.673302 16.487488
38.617188 -19.421871 15.776585
38.732365 -21.095919 14.680305
38.919876 -22.768435 13.571072
35.17971 -22.442478 29.199425
35.238682 -24.645977 28.452801
36.217484 -22.893373 27.501551
37.083801 -23.5455 25.62788
37.817379 -23.750904 23.666845
38.359333 -24.185495 21.553663
37.928101 -27.883123 21.282362
38.424709 -26.100407 20.374327
38.767464 -24.353785 19.24264
39.010155 -24.457762 16.879642
39.113941 -24.488958 14.565876
39.104168 -24.337484 12.191789
39.237129 -25.728518 10.853241
39.303204 -27.081749 9.319995
39.272995 -28.392757 7.638644
38.943501 -30.658352 10.92433
39.07988 -30.117117 8.400819
39.141144 -29.451008 5.845171
38.893326 -30.49531 3.90735
35.341925 -16.006542 6.20445
35.143324 -15.315382 6.569769
36.826266 -19.397965 2.571093
37.274718 -20.181542 2.961773
39.051874 -4.320513 22.239984
39.044998 -3.244316 22.241894
38.789534 -4.000621 23.142553
36.028776 -29.152372 25.218768
36.119803 -30.165405 24.525919
36.486601 -28.316296 24.795071
36.028776 -29.152372 25.218768
36.902991 -28.376142 23.838348
36.838211 -27.374477 24.491051
36.486601 -28.316296 24.795071
39.025442 4.058377 8.322589
38.881411 5.056492 7.550235
39.341117 5.287705 8.325226
40.361176 4.6961 11.551538
40.32797 5.649591 10.778845
33.055725 -12.85054 4.106313
32.476864 -12.000584 3.569001
32.961597 -12.149553 4.426298
35.964266 -17.821862 4.653854
35.73538 -17.228595 5.217547
36.273388 -18.006873 5.658294
35.413052 -17.320535 2.610921
35.776909 -17.824067 1.946142
38.762277 -23.789512 2.288555
38.480167 -22.887523 1.957923
38.583772 -23.289967 3.201056
38.953458 -24.647394 0.446895
39.064617 -25.562652 0.852121
36.875934 3.60313 5.297351
37.306547 4.86521 5.292616
34.020554 -4.740196 5.429103
34.375547 -3.627072 5.453844
34.743547 -4.616552 6.172833
33.730957 -5.821587 5.436877
34.020554 -4.740196 5.429103
33.528949 -10.623358 5.704862
32.944267 -10.572537 4.935949
40.157521 2.205755 18.205814
40.365563 2.864471 17.322131
39.832487 -0.816797 19.343273
39.66404 -0.463763 20.187672
39.581716 -1.629501 20.291328
38.351832 -9.314421 24.326129
38.094092 -10.054272 25.195196
38.366932 -10.374907 24.255431
38.649235 -8.468735 23.416179
38.351832 -9.314421 24.326129
38.824123 -8.802128 22.524518
38.848686 -7.635807 22.554333
38.649235 -8.468735 23.416179
34.673172 -23.243744 29.600406
34.583126 -22.136745 30.002469
35.768976 -24.880007 27.53212
35.346853 -25.729982 27.895375
35.877148 -25.964013 26.974694
37.954781 -28.785725 20.532229
37.628548 -28.702502 21.682419
37.655228 -29.605104 20.932287
38.719574 -31.547622 11.32064
38.83136 -30.832077 12.234547
38.607433 -31.721348 12.630858
36.371622 -17.561733 28.399029
36.338959 -16.424148 28.607304
35.932817 -17.235032 29.176177
39.735689 5.45142 9.139883
39.341117 5.287705 8.325226
40.366656 2.830213 13.20643
40.392542 3.731954 12.378861
40.545285 3.909789 13.19917
33.657818 -13.663715 4.557895
34.069212 -13.765345 5.472199
36.316273 -18.607995 2.183489
36.519407 -18.921042 3.341007
36.826266 -19.397965 2.571093
35.776909 -17.824067 1.946142
36.316273 -18.607995 2.183489
39.145979 -26.500206 1.170278
39.064617 -25.562652 0.852121
39.110094 -26.003121 2.045242
39.141035 -27.41161 1.427211
39.145979 -26.500206 1.170278
39.117338 -28.294848 1.880127
39.141035 -27.41161 1.427211
39.167759 -27.823912 2.816315
39.029213 -29.166766 2.313147
39.117338 -28.294848 1.880127
34.44544 -7.672065 6.765366
34.105402 -6.706049 6.054709
34.728592 -6.695692 6.85875
34.247345 -8.633006 6.677549
34.44544 -7.672065 6.765366
34.870535 -8.622649 7.48159
34.138756 -9.671763 6.650746
34.247345 -8.633006 6.677549
34.578171 -10.551388 7.254608
34.044487 -10.639561 6.51158
34.138756 -9.671763 6.650746
39.360304 -2.420338 21.237526
39.044998 -3.244316 22.241894
39.528751 -2.773371 20.393127
39.581716 -1.629501 20.291328
39.360304 -2.420338 21.237526
38.12332 -12.307665 24.983698
37.82188 -11.937355 25.857376
37.836008 -13.130263 25.716577
36.360546 -26.214334 26.029607
35.877148 -25.964013 26.974694
36.815866 -26.390615 25.018349
36.754591 -25.290318 25.600181
36.360546 -26.214334 26.029607
37.232256 -26.45046 24.061625
36.815866 -26.390615 25.018349
36.838211 -27.374477 24.491051
38.467165 -28.753061 18.330343
38.229809 -28.786607 19.402298
38.218817 -29.654781 18.710142
38.4422 -32.806612 9.441536
38.597755 -32.183428 10.372506
38.522604 -32.515978 8.098702
38.4422 -32.806612 9.441536
38.580779 -32.206898 6.83196
38.758038 -31.620882 7.761319
38.522604 -32.515978 8.098702
38.64135 -31.827223 5.54214
38.580779 -32.206898 6.83196
40.639969 4.040374 14.003652
40.545285 3.909789 13.19917
40.555342 3.208438 14.831276
40.639969 4.040374 14.003652
40.469834 2.299104 15.765375
40.43389 2.098714 14.960838
40.555342 3.208438 14.831276
37.701535 -20.989979 3.3568
37.274718 -20.181542 2.961773
37.456217 -20.519448 4.123638
38.092348 -21.857931 3.694545
37.910849 -21.520026 2.532679
37.701535 -20.989979 3.3568
38.481823 -4.702796 23.981973
38.789534 -4.000621 23.142553
36.782263 -15.594707 27.943973
36.338959 -16.424148 28.607304
37.150547 -14.780647 27.255274
36.782263 -15.594707 27.943973
37.146048 -15.936788 27.141458
37.524451 -13.94134 26.521507
37.150547 -14.780647 27.255274
37.82589 -14.31165 25.647829
37.836008 -13.130263 25.716577
37.524451 -13.94134 26.521507
36.561661 -30.325124 23.479532
36.119803 -30.165405 24.525919
36.950468 -30.427084 22.449586
36.940188 -29.419921 23.112422
36.561661 -30.325124 23.479532
37.331917 -30.4199 21.385405
36.950468 -30.427084 22.449586
37.655228 -29.605104 20.932287
37.331917 -30.4199 21.385405
38.177408 -30.526176 18.027181
38.218817 -29.654781 18.710142
38.428938 -30.40925 16.789053
38.177408 -30.526176 18.027181
38.616606 -30.345475 15.576587
38.643841 -29.55746 16.425721
38.428938 -30.40925 16.789053
38.560461 -31.101534 14.742342
38.775364 -30.249744 14.37901
38.616606 -30.345475 15.576587
38.45928 -31.890892 13.947138
38.560461 -31.101534 14.742342
38.607433 -31.721348 12.630858
38.45928 -31.890892 13.947138
37.891975 4.901233 6.05521
37.306547 4.86521 5.292616
38.425794 4.987338 6.81597
38.881411 5.056492 7.550235
38.031915 3.741059 6.786837
37.891975 4.901233 6.05521
38.425794 4.987338 6.81597
40.068704 5.596959 9.95683
40.32797 5.649591 10.778845
39.818164 4.43513 9.914528
39.735689 5.45142 9.139883
40.068704 5.596959 9.95683
40.182547 3.616524 11.558798
40.361176 4.6961 11.551538
40.392542 3.731954 12.378861
35.417614 -18.176162 29.758142
35.932817 -17.235032 29.176177
35.493866 -19.298262 29.453921
35.417614 -18.176162 29.758142
35.549423 -20.437692 29.135988
36.021038 -19.512048 28.649968
35.493866 -19.298262 29.453921
31.874454 -11.181698 3.113974
31.791423 -10.384954 3.344394
31.874454 -11.181698 3.113974
32.476864 -12.000584 3.569001
33.055725 -12.85054 4.106313
33.657818 -13.663715 4.557895
35.519835 -16.663555 5.736069
35.341925 -16.006542 6.20445
35.866592 -16.756595 6.690368
35.519835 -16.663555 5.736069
35.73538 -17.228595 5.217547
35.717836 -17.587327 3.583255
35.964266 -17.821862 4.653854
36.255844 -18.365606 4.024002
35.717836 -17.587327 3.583255
35.413052 -17.320535 2.610921
38.165382 -22.009571 1.744272
37.910849 -21.520026 2.532679
38.165382 -22.009571 1.744272
38.480167 -22.887523 1.957923
38.843702 -24.226318 1.386254
38.762277 -23.789512 2.288555
38.947307 -24.628762 2.629387
38.843702 -24.226318 1.386254
38.953458 -24.647394 0.446895
36.431527 2.435036 5.251201
36.875934 3.60313 5.297351
37.053688 2.486859 5.979926
35.784443 2.300791 4.579878
36.431527 2.435036 5.251201
35.962196 1.184519 5.262453
35.033856 2.224756 3.860737
35.784443 2.300791 4.579878
34.601641 0.902259 3.962452
35.033856 2.224756 3.860737
34.198793 -0.337847 4.041294
34.601641 0.902259 3.962452
34.912265 -0.189831 4.669973
33.753801 -1.497051 4.054752
34.198793 -0.337847 4.041294
34.080986 -2.590327 4.729464
34.803979 -2.466683 5.473194
34.375547 -3.627072 5.453844
33.753801 -1.497051 4.054752
34.080986 -2.590327 4.729464
33.730957 -5.821587 5.436877
34.105402 -6.706049 6.054709
32.409222 -10.478946 4.129439
31.791423 -10.384954 3.344394
32.917782 -11.393189 4.695496
32.409222 -10.478946 4.129439
32.944267 -10.572537 4.935949
33.968364 -11.502983 6.308725
33.528949 -10.623358 5.704862
34.044487 -10.639561 6.51158
34.514618 -13.820151 6.28852
34.069212 -13.765345 5.472199
33.985865 -13.054316 5.779931
35.026613 -14.635659 6.894919
34.514618 -13.820151 6.28852
34.943266 -13.92463 7.202651
35.571972 -15.419861 7.483899
35.143324 -15.315382 6.569769
35.026613 -14.635659 6.894919
40.44433 2.608383 16.547587
40.365563 2.864471 17.322131
40.322878 1.498658 16.677149
40.469834 2.299104 15.765375
40.44433 2.608383 16.547587
39.707234 0.712911 20.000855
39.66404 -0.463763 20.187672
39.966238 1.476257 19.095942
39.707234 0.712911 20.000855
40.106093 1.078439 18.34949
40.157521 2.205755 18.205814
39.966238 1.476257 19.095942
38.465671 -5.838333 24.101906
38.481823 -4.702796 23.981973
37.782888 -10.79645 25.966586
37.82188 -11.937355 25.857376
37.782888 -10.79645 25.966586
38.094092 -10.054272 25.195196
38.735104 -6.189616 23.293319
38.465671 -5.838333 24.101906
38.927298 -6.550553 22.450209
38.988604 -5.437755 22.297535
38.735104 -6.189616 23.293319
39.102187 -6.883945 21.558549
38.927298 -6.550553 22.450209
38.848686 -7.635807 22.554333
35.10098 -21.333192 29.569683
34.583126 -22.136745 30.002469
35.628152 -21.546978 28.76573
35.549423 -20.437692 29.135988
35.10098 -21.333192 29.569683
34.778976 -25.50591 28.75889
35.346853 -25.729982 27.895375
34.702658 -24.345493 29.227094
34.778976 -25.50591 28.75889
35.209196 -23.544227 28.826113
34.673172 -23.243744 29.600406
34.702658 -24.345493 29.227094
38.203129 -27.884005 20.152431
37.954781 -28.785725 20.532229
38.229809 -28.786607 19.402298
38.821682 -31.294157 9.976195
38.719574 -31.547622 11.32064
38.597755 -32.183428 10.372506
38.903845 -30.060845 2.632207
39.029213 -29.166766 2.313147
39.018694 -29.60123 3.588291
38.679907 -31.418977 4.248526
38.854769 -30.903556 5.200964
38.64135 -31.827223 5.54214
38.714943 -30.990918 2.961119
38.679907 -31.418977 4.248526
38.903845 -30.060845 2.632207
38.714943 -30.990918 2.961119
3 0 52 50
3 0 54 52
3 1 57 55
3 1 59 57
3 2 62 60
3 2 64 62
3 4 67 65
3 4 69 67
3 5 200 201
3 203 202 70
3 6 74 72
3 6 75 74
3 3 78 76
3 7 81 79
3 7 82 81
3 7 84 82
3 8 87 85
3 8 89 87
3 9 204 206
3 204 90 205
3 204 205 206
3 9 92 90
3 10 95 93
3 10 97 95
3 10 99 97
3 11 102 100
3 11 104 102
3 12 207 208
3 12 209 210
3 12 211 213
3 211 106 212
3 211 212 213
3 13 109 107
3 13 111 109
3 13 113 111
3 14 117 115
3 16 118 51
3 16 119 118
3 16 121 119
3 18 122 53
3 18 123 122
3 19 126 124
3 21 127 56
3 21 128 127
3 21 130 128
3 23 131 58
3 23 132 131
3 24 133 61
3 24 134 133
3 24 136 134
3 26 137 63
3 26 138 137
3 28 214 216
3 214 141 215
3 214 215 216
3 28 142 141
3 217 143 218
3 29 144 66
3 29 145 144
3 29 146 145
3 30 147 68
3 30 148 147
3 31 219 221
3 221 220 149
3 219 220 221
3 15 222 224
3 224 223 116
3 222 223 224
3 226 225 71
3 17 227 229
3 229 228 120
3 227 228 229
3 231 230 73
3 27 232 233
3 32 150 77
3 32 151 150
3 20 152 125
3 33 153 80
3 33 234 236
3 236 235 153
3 234 235 236
3 33 237 238
3 239 154 240
3 34 155 83
3 34 156 155
3 22 157 129
3 35 158 86
3 35 159 158
3 35 160 159
3 36 161 88
3 36 162 161
3 241 163 242
3 37 243 245
3 243 164 244
3 243 244 245
3 37 165 164
3 37 166 165
3 38 167 91
3 38 168 167
3 39 246 248
3 248 247 94
3 246 247 248
3 39 249 250
3 39 251 253
3 251 169 252
3 251 252 253
3 40 170 96
3 40 171 170
3 40 172 171
3 41 173 98
3 41 174 173
3 25 175 135
3 42 176 101
3 42 177 176
3 42 178 177
3 43 179 103
3 43 180 179
3 254 181 255
3 44 256 258
3 256 182 257
3 256 257 258
3 44 183 182
3 44 184 183
3 45 185 105
3 45 186 185
3 259 187 260
3 261 260 139
3 259 260 261
3 46 188 108
3 46 189 188
3 46 190 189
3 47 191 110
3 47 192 191
3 47 193 192
3 48 194 112
3 48 195 194
3 262 196 263
3 264 263 140
3 262 263 264
3 49 197 114
3 49 198 197
3 49 199 198
3 50 51 14
3 52 51 50
3 52 16 51
3 52 53 16
3 54 53 52
3 54 18 53
3 55 56 19
3 57 56 55
3 57 21 56
3 57 58 21
3 59 58 57
3 59 23 58
3 60 265 267
3 265 61 266
3 265 266 267
3 62 61 60
3 62 24 61
3 62 63 24
3 64 63 62
3 64 26 63
3 268 28 269
3 65 270 272
3 270 66 271
3 270 271 272
3 67 66 65
3 67 29 66
3 67 68 29
3 69 68 67
3 69 30 68
3 274 273 31
3 70 71 15
3 275 71 276
3 277 276 70
3 275 276 277
3 279 278 71
3 72 73 17
3 74 73 72
3 74 280 282
3 282 281 73
3 280 281 282
3 74 283 284
3 75 285 287
3 287 286 74
3 285 286 287
3 75 288 289
3 76 77 27
3 78 77 76
3 78 32 77
3 79 80 20
3 81 80 79
3 81 33 80
3 81 290 292
3 292 291 33
3 290 291 292
3 82 293 295
3 295 294 81
3 293 294 295
3 82 296 297
3 82 298 300
3 298 83 299
3 298 299 300
3 84 83 82
3 84 34 83
3 85 86 22
3 87 86 85
3 87 35 86
3 87 88 35
3 89 88 87
3 89 36 88
3 90 301 302
3 90 303 305
3 303 37 304
3 303 304 305
3 90 91 37
3 92 91 90
3 92 38 91
3 93 306 308
3 306 94 307
3 306 307 308
3 95 94 93
3 95 39 94
3 95 96 39
3 97 96 95
3 97 40 96
3 97 98 40
3 99 98 97
3 99 41 98
3 100 101 25
3 102 101 100
3 102 42 101
3 102 103 42
3 104 103 102
3 104 43 103
3 309 44 310
3 311 105 312
3 313 312 44
3 311 312 313
3 106 314 316
3 314 105 315
3 314 315 316
3 106 45 105
3 107 317 319
3 317 108 318
3 317 318 319
3 109 108 107
3 109 46 108
3 109 110 46
3 111 110 109
3 111 47 110
3 111 112 47
3 113 112 111
3 113 48 112
3 320 114 321
3 322 114 323
3 324 49 325
3 326 325 114
3 324 325 326
3 328 327 49
3 329 65 330
3 331 65 332
3 333 4 334
3 335 334 65
3 333 334 335
3 115 116 5
3 117 116 115
3 117 15 116
3 51 117 14
3 118 117 51
3 118 15 117
3 118 70 15
3 119 70 118
3 119 336 338
3 338 337 70
3 336 337 338
3 119 339 341
3 339 120 340
3 339 340 341
3 121 120 119
3 121 17 120
3 53 121 16
3 122 121 53
3 122 17 121
3 122 72 17
3 123 72 122
3 123 6 72
3 124 125 3
3 126 125 124
3 126 20 125
3 56 126 19
3 127 126 56
3 127 20 126
3 127 79 20
3 128 79 127
3 128 7 79
3 128 129 7
3 130 129 128
3 130 22 129
3 58 130 21
3 131 130 58
3 131 22 130
3 131 85 22
3 132 85 131
3 132 8 85
3 342 9 343
3 61 344 345
3 133 346 348
3 348 347 61
3 346 347 348
3 133 349 350
3 133 351 353
3 351 93 352
3 351 352 353
3 134 93 133
3 134 10 93
3 134 135 10
3 136 135 134
3 136 25 135
3 63 136 24
3 137 136 63
3 137 25 136
3 137 100 25
3 138 100 137
3 138 11 100
3 354 12 355
3 356 139 357
3 358 357 12
3 356 357 358
3 359 139 360
3 362 361 139
3 363 107 364
3 365 107 366
3 367 13 368
3 369 368 107
3 367 368 369
3 370 140 371
3 372 371 13
3 370 371 372
3 373 140 374
3 376 375 140
3 377 27 378
3 141 379 380
3 141 381 383
3 381 27 382
3 381 382 383
3 141 76 27
3 142 76 141
3 142 3 76
3 143 384 385
3 143 386 388
3 386 28 387
3 386 387 388
3 66 389 391
3 389 143 390
3 389 390 391
3 144 143 66
3 144 28 143
3 144 142 28
3 145 142 144
3 145 3 142
3 145 124 3
3 146 124 145
3 146 19 124
3 68 146 29
3 147 146 68
3 147 19 146
3 147 55 19
3 148 55 147
3 148 1 55
3 392 60 393
3 394 60 395
3 396 2 397
3 398 397 60
3 396 397 398
3 149 399 400
3 402 401 149
3 404 403 31
3 116 405 407
3 407 406 5
3 405 406 407
3 409 408 116
3 71 410 412
3 412 411 15
3 410 411 412
3 414 413 71
3 120 415 416
3 418 417 120
3 73 419 421
3 421 420 17
3 419 420 421
3 423 422 73
3 77 424 426
3 426 425 27
3 424 425 426
3 150 427 429
3 429 428 77
3 427 428 429
3 150 430 431
3 150 432 433
3 151 434 436
3 436 435 150
3 434 435 436
3 151 437 438
3 125 78 3
3 152 78 125
3 152 32 78
3 80 152 20
3 153 152 80
3 153 32 152
3 153 151 32
3 439 151 440
3 441 440 153
3 439 440 441
3 443 442 151
3 445 444 33
3 446 149 447
3 154 448 450
3 448 149 449
3 448 449 450
3 154 31 149
3 83 451 453
3 451 154 452
3 451 452 453
3 155 154 83
3 155 31 154
3 155 454 456
3 456 455 31
3 454 455 456
3 156 457 459
3 459 458 155
3 457 458 459
3 156 460 462
3 460 5 461
3 460 461 462
3 129 84 7
3 157 84 129
3 157 34 84
3 86 157 22
3 158 157 86
3 158 34 157
3 158 156 34
3 159 156 158
3 159 5 156
3 159 115 5
3 160 115 159
3 160 14 115
3 88 160 35
3 161 160 88
3 161 14 160
3 161 50 14
3 162 50 161
3 162 0 50
3 163 463 464
3 163 465 467
3 465 4 466
3 465 466 467
3 164 468 469
3 164 470 471
3 164 472 474
3 472 163 473
3 472 473 474
3 165 163 164
3 165 4 163
3 165 69 4
3 166 69 165
3 166 30 69
3 91 166 37
3 167 166 91
3 167 30 166
3 167 148 30
3 168 148 167
3 168 1 148
3 475 9 476
3 94 477 478
3 480 479 94
3 481 9 482
3 483 92 484
3 485 484 9
3 483 484 485
3 169 486 488
3 486 92 487
3 486 487 488
3 169 38 92
3 96 169 39
3 170 169 96
3 170 38 169
3 170 168 38
3 171 168 170
3 171 1 168
3 171 59 1
3 172 59 171
3 172 23 59
3 98 172 40
3 173 172 98
3 173 23 172
3 173 132 23
3 174 132 173
3 174 8 132
3 135 99 10
3 175 99 135
3 175 41 99
3 101 175 25
3 176 175 101
3 176 41 175
3 176 174 41
3 177 174 176
3 177 8 174
3 177 89 8
3 178 89 177
3 178 36 89
3 103 178 42
3 179 178 103
3 179 36 178
3 179 162 36
3 180 162 179
3 180 0 162
3 181 489 490
3 181 491 493
3 491 2 492
3 491 492 493
3 182 494 495
3 182 496 497
3 182 498 500
3 498 181 499
3 498 499 500
3 183 181 182
3 183 2 181
3 183 64 2
3 184 64 183
3 184 26 64
3 105 184 44
3 185 184 105
3 185 26 184
3 185 138 26
3 186 138 185
3 186 11 138
3 139 106 12
3 187 106 139
3 187 45 106
3 108 501 503
3 501 187 502
3 501 502 503
3 188 187 108
3 188 45 187
3 188 186 45
3 189 186 188
3 189 11 186
3 189 104 11
3 190 104 189
3 190 43 104
3 110 190 46
3 191 190 110
3 191 43 190
3 191 180 43
3 192 180 191
3 192 0 180
3 192 54 0
3 193 54 192
3 193 18 54
3 112 193 47
3 194 193 112
3 194 18 193
3 194 123 18
3 195 123 194
3 195 6 123
3 140 113 13
3 196 113 140
3 196 48 113
3 114 504 506
3 504 196 505
3 504 505 506
3 197 196 114
3 197 48 196
3 197 195 48
3 198 195 197
3 198 6 195
3 198 75 6
3 199 75 198
3 199 507 509
3 509 508 75
3 507 508 509
3 510 199 511
3 512 511 49
3 510 511 512
3 513 199 514
3 516 515 199
