ply
format ascii 1.0
element vertex 665
property float x
property float y
property float z
element face 719
property list uchar int vertex_index
end_header
7.416237 -43.930866 43.725716
13.987062 -31.798193 40.980679
26.576248 -34.845402 32.674641
11.419113 -46.172535 39.58622
9.940302 -38.491489 42.26395
15.312548 -39.999348 37.708939
35.711483 -11.526642 29.877764
31.203585 -18.454273 34.113094
19.239538 -24.575916 40.185799
25.560316 -25.642982 36.04958
20.050056 -32.966789 36.71167
5.534077 -38.742508 48.015987
8.75193 -31.707537 46.848698
31.713572 -27.685732 31.301487
9.097611 -45.009335 41.75301
9.478592 -48.924049 40.854919
7.435194 -47.048233 43.180077
8.482641 -41.487186 43.028713
10.678542 -42.116093 40.721413
30.888863 -13.904076 34.95116
28.285275 -17.564402 36.450485
16.480505 -28.304098 40.544369
19.451981 -28.690329 38.419613
16.863537 -32.222912 38.736675
16.189478 -44.456898 36.546989
18.421383 -41.052631 35.761421
6.994066 -35.30447 47.384754
35.900154 -16.097446 29.384453
37.534569 -12.759953 26.590254
26.023397 -30.174618 34.413239
28.777117 -26.646996 33.825596
29.25705 -31.139803 32.079056
14.115878 -47.756031 37.448372
11.91048 -35.241238 41.434143
14.558175 -35.640137 39.182461
12.589693 -39.121738 39.735756
13.290184 -43.296585 38.542053
33.329311 -10.23651 32.731285
33.569839 -14.934897 32.386402
33.812996 -19.507479 31.507029
25.356804 -21.423334 37.428299
22.304434 -25.039219 38.072327
22.709677 -29.340834 36.427803
23.296684 -33.980328 34.77351
17.570978 -36.502602 37.111382
20.816473 -37.463379 35.190189
24.129965 -38.427402 33.163155
6.59585 -41.530235 45.418362
5.806861 -44.876945 45.588436
4.446854 -42.494755 48.250599
11.300617 -31.701733 43.635662
9.325235 -35.094143 44.267704
7.770079 -38.428646 44.868626
40.017666 2.603572 18.952267
37.419594 -8.181157 26.79077
28.436214 -22.221415 35.294109
31.343056 -23.173695 32.949837
34.166634 -24.04501 30.001387
8.14518 -44.387238 42.820744
8.287594 -46.080273 42.423374
7.415576 -45.313759 43.490562
7.890086 -42.888191 43.383434
8.801885 -43.195335 42.324005
15.186319 -29.972736 40.80201
16.637838 -30.169147 39.64027
15.338911 -31.932051 39.87112
17.740887 -45.011303 35.546665
26.381815 -32.54707 33.489372
27.674465 -30.73171 33.26828
27.986074 -33.145348 32.297108
12.706933 -46.948143 38.529045
13.112356 -49.375008 37.915161
11.733972 -48.348358 39.074963
8.48604 -49.979774 41.566994
8.457891 -52.243557 41.046352
10.879642 -36.888367 41.832878
12.158786 -37.188911 40.576298
11.187446 -38.742813 40.991024
11.043988 -44.143066 40.122669
11.894889 -42.65567 39.641972
12.355672 -44.717648 39.040077
13.821107 -45.415642 37.932823
31.031517 -16.279995 34.585114
32.379368 -14.357775 33.605843
32.375004 -16.629536 33.380451
33.687405 -17.188047 32.019676
32.514622 -19.030685 32.878071
22.299282 -22.925663 38.816612
20.733738 -24.772467 39.116859
19.622189 -30.808903 37.594891
21.03709 -29.016983 37.415638
21.322657 -31.084257 36.607861
23.036493 -31.608992 35.575108
21.699722 -33.40416 35.7472
14.88756 -37.792576 38.411522
16.029854 -36.084202 38.105038
16.421452 -38.24818 37.378483
20.100494 -41.53278 34.764194
19.528179 -39.281391 35.48513
21.23838 -39.812305 34.470901
22.473019 -38.090431 34.176815
22.863764 -40.298271 33.46035
6.017538 -40.242882 46.689587
5.562464 -42.004002 46.757183
4.986874 -40.628265 48.114429
11.168456 -29.889301 44.803017
9.984491 -31.720987 45.194149
10.303483 -33.390575 43.907551
9.041718 -33.462822 45.45245
6.240627 -36.959934 47.715675
7.351031 -36.920483 46.075893
6.609311 -38.575558 46.450218
7.110023 -40.015366 45.197159
4.809292 -45.609371 46.716171
5.58711 -46.781055 45.39587
38.782658 -2.924424 23.144463
35.637115 -9.295837 29.880209
36.643063 -9.892589 28.357651
25.41136 -23.473927 36.791573
26.962364 -21.670391 36.375732
27.010477 -23.963711 35.707527
30.315571 -27.07534 32.622311
30.181332 -24.940992 33.356388
31.684958 -25.321306 32.065338
32.866901 -23.606684 31.489525
33.042255 -25.956345 30.618311
10.224835 -45.609562 40.639381
10.41571 -47.625725 40.228748
9.371638 -46.84391 41.254002
8.416291 -47.971916 42.007858
9.176635 -40.104614 42.614304
10.297718 -40.295639 41.426933
9.536134 -41.88908 41.824478
9.920724 -43.664169 41.160271
29.609602 -15.763147 35.773792
29.699263 -18.114546 35.336185
17.779737 -26.484392 40.395649
19.348295 -26.683674 39.248199
18.005878 -28.379196 39.436977
18.110441 -30.558849 38.546345
18.473246 -32.706196 37.632492
15.798532 -42.349709 37.057667
16.774635 -40.431671 36.776669
17.300055 -42.71262 36.132469
18.915991 -43.361507 35.116947
4.440931 -39.14299 49.568592
7.819086 -33.591782 47.085983
6.661859 -33.725498 48.746414
5.821226 -35.485813 49.105503
38.126541 -2.112819 24.613033
38.167236 -4.328773 24.823301
35.812717 -13.92781 29.690279
36.688583 -12.252232 28.324415
36.786762 -14.438566 28.057789
25.772686 -27.971436 35.220383
27.183764 -26.171164 34.956284
27.462498 -28.455866 34.102104
29.099552 -28.89398 32.919868
30.555868 -29.496696 31.656706
10.704847 -49.642044 39.693504
12.817676 -33.525967 41.271992
14.254022 -33.641109 40.047352
13.218335 -35.418442 40.2519
13.472866 -37.387833 39.483521
13.881431 -39.583118 38.706791
11.543928 -40.611427 40.25988
12.870121 -41.186943 39.134205
14.338027 -41.670246 38.057693
14.726671 -43.777534 37.533619
15.221992 -46.077423 36.940407
34.511032 -10.859467 31.429171
32.192974 -12.173218 33.87899
33.520573 -12.568441 32.556362
34.740925 -13.169407 31.153397
34.792896 -15.598151 30.938808
34.869747 -17.979706 30.548382
35.022251 -20.223906 29.939941
25.249298 -19.155815 38.121796
23.728466 -21.095573 38.531815
23.87488 -23.207064 37.768883
23.945528 -25.310078 37.053116
20.959993 -26.964294 38.168594
22.555292 -27.223562 37.191261
24.120596 -27.461843 36.273499
24.361128 -29.708494 35.453709
24.75946 -32.011108 34.558311
24.913034 -34.373871 33.795067
15.706707 -34.048843 38.884552
17.247265 -34.352947 37.847401
18.795759 -34.818424 36.86507
17.974737 -38.652821 36.431816
19.060722 -36.940807 36.214645
20.36759 -35.251957 35.941578
21.991611 -35.785641 34.979374
23.620903 -36.25211 34.001213
25.384773 -36.611649 32.891964
25.750523 -38.943924 32.003899
7.007197 -42.892204 44.475876
6.728937 -44.359047 44.503403
6.150561 -43.199638 45.553349
5.121879 -43.755192 46.840508
3.858583 -41.029831 49.704502
13.833439 -29.843397 42.021461
12.449262 -29.894712 43.359856
12.671994 -31.664085 42.227982
11.566424 -33.45573 42.492424
10.632665 -35.040337 42.781651
9.687348 -36.635208 43.180283
8.111146 -35.203182 45.81583
8.480861 -36.774277 44.593193
8.85507 -38.321022 43.530468
8.098502 -40.010303 43.897755
7.522605 -41.531528 44.172234
6.580737 -46.069378 44.344299
39.499657 1.076882 20.762091
37.376614 -5.810741 26.65959
38.134933 -6.599848 25.063169
37.456585 -10.478143 26.808674
38.078991 -8.993787 25.265894
38.673798 -7.302414 23.445993
26.803574 -19.422163 37.048492
28.354239 -19.889345 35.921539
29.820436 -20.32851 34.800541
28.634573 -24.366972 34.581944
29.964048 -22.694765 34.126045
31.24383 -20.810469 33.609779
32.642799 -21.340223 32.279995
33.986542 -21.831013 30.805513
29.450565 -33.50502 31.11664
32.008156 -29.9659 30.229122
33.166656 -28.051571 29.774673
7.909994 -51.645586 41.713724
8.471965 -51.111666 41.306673
7.924068 -50.513694 41.974045
7.352162 -52.164655 42.050808
7.900059 -52.762626 41.383436
7.909994 -51.645586 41.713724
19.986638 -24.674191 39.651329
20.734619 -23.710052 39.528341
19.987519 -23.611777 40.062811
21.45999 -40.997936 34.107641
20.669437 -40.672543 34.617548
20.891047 -41.858173 34.254288
22.272683 -41.240919 33.602365
22.051072 -40.055288 33.965626
21.45999 -40.997936 34.107641
23.067903 -41.440334 33.069969
22.272683 -41.240919 33.602365
9.322132 -30.783281 46.637535
8.636836 -30.884431 47.517994
9.36821 -31.714262 46.021423
9.938413 -30.790005 45.810261
9.322132 -30.783281 46.637535
4.627088 -46.587145 46.652247
4.214719 -45.921053 47.412449
39.044998 -3.244316 22.241894
38.789534 -4.000621 23.142553
7.446945 -48.022265 42.979881
7.937494 -48.484106 42.393772
7.925743 -47.510075 42.593967
28.947438 -16.663775 36.112139
28.811303 -15.556545 36.395288
28.149139 -16.457172 36.733635
19.163091 -44.562492 34.769179
18.328439 -44.186405 35.331806
18.575539 -45.38739 34.984037
19.700962 -43.597401 34.622059
19.163091 -44.562492 34.769179
6.46105 -32.967522 49.491585
7.081167 -32.85614 48.617794
5.181446 -35.625457 50.053833
5.58199 -34.772204 49.864933
4.94221 -34.911848 50.813263
5.421321 -36.353956 49.308716
5.181446 -35.625457 50.053833
37.723683 -2.894285 25.532631
37.666775 -1.826246 25.413029
37.74403 -4.002262 25.637765
38.146889 -3.220796 24.718167
37.723683 -2.894285 25.532631
14.316831 -48.894972 37.143122
14.839654 -48.090143 36.923902
13.300723 -50.488059 37.586128
12.550138 -50.043864 38.213524
14.839654 -48.090143 36.923902
15.392711 -47.250839 36.66992
14.668935 -46.916727 37.194389
33.887003 -9.41347 32.05007
33.290102 -9.117209 32.695841
33.920171 -10.547989 32.080228
34.477863 -9.724948 31.399013
33.887003 -9.41347 32.05007
31.540919 -13.038647 34.415075
31.461957 -11.864418 34.540531
30.809902 -12.729847 35.076616
22.920977 -20.948599 39.108238
23.662458 -20.054405 38.894649
4.253937 -43.40884 48.210553
4.591449 -44.039059 47.505507
4.784366 -43.124973 47.545553
3.536872 -40.343443 50.495216
4.149757 -40.08641 49.636547
3.828047 -39.400022 50.427262
13.718502 -28.943208 42.607695
14.435973 -28.975892 41.916404
6.051145 -47.406559 44.699347
5.501022 -47.766418 45.230635
40.225708 3.262289 18.068583
40.031086 3.643035 18.799006
40.157521 2.205755 18.205814
40.225708 3.262289 18.068583
39.193835 0.230414 21.695846
39.17014 1.345185 21.549038
37.398104 -6.995949 26.72518
36.968128 -6.660249 27.484068
36.989618 -7.845457 27.549658
38.351832 -9.314421 24.326129
38.094092 -10.054272 25.195196
38.649235 -8.468735 23.416179
38.376395 -8.1481 24.355944
38.351832 -9.314421 24.326129
38.848686 -7.635807 22.554333
38.649235 -8.468735 23.416179
34.673172 -23.243744 29.600406
34.583126 -22.136745 30.002469
34.076588 -22.938012 30.40345
29.620764 -34.650091 30.546449
28.831745 -34.472459 31.246156
29.001943 -35.617531 30.675964
32.110411 -31.069119 29.688734
31.361144 -30.912222 30.458483
33.765387 -28.356725 28.949239
33.239048 -29.21552 29.238177
33.742964 -27.208707 29.419826
33.765387 -28.356725 28.949239
27.491376 -17.414006 37.026111
28.149139 -16.457172 36.733635
17.196628 -45.894388 35.748268
16.965183 -44.7341 36.046827
16.420924 -45.617186 36.24843
17.993524 -46.191818 35.204128
17.196628 -45.894388 35.748268
18.575539 -45.38739 34.984037
17.993524 -46.191818 35.204128
36.338959 -16.424148 28.607304
35.932817 -17.235032 29.176177
11.860947 -49.530538 38.793425
12.550138 -50.043864 38.213524
12.423164 -48.861683 38.495062
9.0515 -50.503202 40.952567
9.547777 -49.975339 40.596529
8.982316 -49.451911 41.210957
9.037426 -51.635093 40.692245
9.0515 -50.503202 40.952567
8.471965 -51.111666 41.306673
9.120345 -52.790215 40.337164
9.037426 -51.635093 40.692245
8.530463 -53.406149 40.619162
9.120345 -52.790215 40.337164
8.530463 -53.406149 40.619162
7.900059 -52.762626 41.383436
32.67629 -10.030418 33.374687
33.290102 -9.117209 32.695841
21.517391 -22.786651 39.378217
22.206386 -21.863644 39.250637
21.51651 -23.849065 38.966735
21.517391 -22.786651 39.378217
20.734619 -23.710052 39.528341
23.692754 -40.501637 32.899957
24.325854 -39.566202 32.75136
23.496865 -39.362837 33.311752
23.692754 -40.501637 32.899957
23.067903 -41.440334 33.069969
10.530396 -29.874163 45.614695
11.097328 -28.997324 45.435121
10.576474 -30.805144 44.998583
10.530396 -29.874163 45.614695
9.938413 -30.790005 45.810261
5.015997 -47.172987 45.992096
5.198201 -46.195213 46.056021
4.627088 -46.587145 46.652247
5.501022 -47.766418 45.230635
5.015997 -47.172987 45.992096
39.750379 2.923339 19.712045
40.031086 3.643035 18.799006
39.097963 -2.100446 22.140095
38.835335 -1.770239 22.887032
39.360304 -2.420338 21.237526
39.097963 -2.100446 22.140095
39.044998 -3.244316 22.241894
36.098379 -8.402797 29.094378
35.543858 -8.12738 29.89311
36.601353 -8.701173 28.333098
36.098379 -8.402797 29.094378
36.140089 -9.594213 29.11893
37.031329 -9.036873 27.57421
36.989618 -7.845457 27.549658
36.601353 -8.701173 28.333098
37.82188 -11.937355 25.857376
37.836008 -13.130263 25.716577
7.972368 -49.488035 42.17334
8.451165 -48.975845 41.787426
7.937494 -48.484106 42.393772
7.924068 -50.513694 41.974045
7.972368 -49.488035 42.17334
30.156593 -13.691658 35.559393
30.809902 -12.729847 35.076616
29.516963 -14.621194 35.970709
28.811303 -15.556545 36.395288
30.249232 -14.833611 35.362476
30.156593 -13.691658 35.559393
29.516963 -14.621194 35.970709
20.293214 -42.683037 34.445683
19.508243 -42.447144 34.940571
19.700962 -43.597401 34.622059
20.891047 -41.858173 34.254288
20.293214 -42.683037 34.445683
4.731174 -38.182544 49.540261
4.987504 -38.942749 48.79229
5.277747 -37.982304 48.763958
4.142125 -38.421627 50.371399
4.731174 -38.182544 49.540261
3.828047 -39.400022 50.427262
4.142125 -38.421627 50.371399
8.126202 -31.84716 47.668936
8.636836 -30.884431 47.517994
7.659781 -32.789282 47.787578
8.285508 -32.649659 46.96734
8.126202 -31.84716 47.668936
7.240473 -33.65864 47.916199
7.659781 -32.789282 47.787578
7.081167 -32.85614 48.617794
6.002306 -33.892046 49.685389
6.46105 -32.967522 49.491585
6.241542 -34.605655 48.925959
6.002306 -33.892046 49.685389
5.58199 -34.772204 49.864933
5.631022 -37.091016 48.613802
6.030926 -36.222873 48.410589
5.421321 -36.353956 49.308716
5.277747 -37.982304 48.763958
5.887352 -37.851221 47.865831
5.631022 -37.091016 48.613802
38.098541 -1.065365 24.455204
37.666775 -1.826246 25.413029
38.507277 -1.364437 23.621317
38.098541 -1.065365 24.455204
38.4546 -2.518622 23.878748
38.835335 -1.770239 22.887032
38.507277 -1.364437 23.621317
38.481823 -4.702796 23.981973
38.789534 -4.000621 23.142553
38.474947 -3.626599 23.983882
36.782263 -15.594707 27.943973
36.343458 -15.268006 28.721121
36.338959 -16.424148 28.607304
37.150547 -14.780647 27.255274
36.782263 -15.594707 27.943973
37.524451 -13.94134 26.521507
37.160666 -13.599259 27.324022
37.150547 -14.780647 27.255274
37.836008 -13.130263 25.716577
37.524451 -13.94134 26.521507
13.815069 -49.70446 37.376516
14.316831 -48.894972 37.143122
13.614117 -48.56552 37.681766
13.815069 -49.70446 37.376516
13.300723 -50.488059 37.586128
11.346384 -50.177381 39.102695
11.860947 -49.530538 38.793425
11.219409 -48.995201 39.384233
10.160904 -50.334337 40.015822
10.091719 -49.283046 40.274211
9.547777 -49.975339 40.596529
10.785663 -50.822443 39.399765
10.160904 -50.334337 40.015822
11.346384 -50.177381 39.102695
10.785663 -50.822443 39.399765
15.937181 -46.427448 36.445139
16.420924 -45.617186 36.24843
15.705735 -45.267161 36.743698
15.937181 -46.427448 36.445139
15.392711 -47.250839 36.66992
35.040905 -8.943133 30.624532
35.543858 -8.12738 29.89311
35.074073 -10.077652 30.65469
35.040905 -8.943133 30.624532
34.477863 -9.724948 31.399013
32.108122 -10.998772 33.94854
31.461957 -11.864418 34.540531
32.761142 -11.204864 33.305138
32.67629 -10.030418 33.374687
32.108122 -10.998772 33.94854
35.417614 -18.176162 29.758142
35.932817 -17.235032 29.176177
35.384951 -17.038576 29.966417
35.493866 -19.298262 29.453921
35.417614 -18.176162 29.758142
34.945999 -19.101806 30.244162
35.549423 -20.437692 29.135988
35.493866 -19.298262 29.453921
27.394586 -35.142651 32.025156
26.807889 -35.990274 32.168475
24.422874 -19.084526 38.68964
25.150439 -18.060901 38.46152
24.488882 -20.125694 38.326806
24.422874 -19.084526 38.68964
23.662458 -20.054405 38.894649
23.013874 -22.010618 38.674214
22.920977 -20.948599 39.108238
22.206386 -21.863644 39.250637
26.212151 -36.873398 32.277137
26.807889 -35.990274 32.168475
25.980511 -35.728526 32.783303
26.395027 -38.039535 31.833104
26.212151 -36.873398 32.277137
25.567648 -37.777787 32.447931
26.551259 -39.151875 31.354552
26.395027 -38.039535 31.833104
25.136133 -39.824463 32.171732
24.940244 -38.685663 32.583527
24.325854 -39.566202 32.75136
25.976664 -40.105789 31.490725
25.136133 -39.824463 32.171732
26.551259 -39.151875 31.354552
25.976664 -40.105789 31.490725
4.435156 -44.966149 47.443339
4.965585 -44.682282 46.77834
4.591449 -44.039059 47.505507
4.214719 -45.921053 47.412449
4.435156 -44.966149 47.443339
3.225102 -41.340212 50.548755
3.536872 -40.343443 50.495216
2.903391 -40.653824 51.33947
3.593792 -42.031599 49.711201
3.225102 -41.340212 50.548755
3.887927 -42.764061 48.984249
4.152718 -41.762293 48.97755
3.593792 -42.031599 49.711201
4.253937 -43.40884 48.210553
3.887927 -42.764061 48.984249
19.154398 -23.566855 40.684235
19.987519 -23.611777 40.062811
18.512039 -24.511105 40.756433
19.154398 -23.566855 40.684235
17.782139 -25.465342 40.861358
18.509638 -25.530154 40.290724
18.512039 -24.511105 40.756433
17.091519 -26.41655 40.961176
17.782139 -25.465342 40.861358
16.441903 -27.326403 41.035536
17.130121 -27.394245 40.470009
17.091519 -26.41655 40.961176
15.759506 -28.206243 41.177858
16.441903 -27.326403 41.035536
15.112413 -29.040562 41.306679
15.833412 -29.138417 40.67319
15.759506 -28.206243 41.177858
14.509879 -29.908067 41.411736
15.112413 -29.040562 41.306679
14.435973 -28.975892 41.916404
11.728771 -28.999215 44.681404
11.097328 -28.997324 45.435121
12.369174 -29.00192 43.959824
11.728771 -28.999215 44.681404
11.808859 -29.892007 44.081436
13.026413 -28.968866 43.276892
12.369174 -29.00192 43.959824
13.14135 -29.869054 42.690658
13.718502 -28.943208 42.607695
13.026413 -28.968866 43.276892
6.547959 -47.05072 44.173561
6.083924 -46.425217 44.870085
6.051145 -47.406559 44.699347
6.975187 -47.540148 43.59145
7.007966 -46.558806 43.762188
6.547959 -47.05072 44.173561
7.446945 -48.022265 42.979881
6.975187 -47.540148 43.59145
39.491375 2.159994 20.616957
39.17014 1.345185 21.549038
39.758662 1.840227 19.857179
39.750379 2.923339 19.712045
39.491375 2.159994 20.616957
39.456463 -0.099793 20.948909
39.193835 0.230414 21.695846
39.707234 0.712911 20.000855
39.456463 -0.099793 20.948909
39.66404 -0.463763 20.187672
39.966238 1.476257 19.095942
39.758662 1.840227 19.857179
39.707234 0.712911 20.000855
40.157521 2.205755 18.205814
39.966238 1.476257 19.095942
36.894711 -5.564819 27.45949
36.968128 -6.660249 27.484068
37.348719 -4.743246 26.555909
36.894711 -5.564819 27.45949
37.771925 -5.069757 25.741446
37.74403 -4.002262 25.637765
37.348719 -4.743246 26.555909
38.465671 -5.838333 24.101906
38.481823 -4.702796 23.981973
38.151084 -5.46431 24.943235
37.782888 -10.79645 25.966586
37.495577 -11.619048 26.699464
37.82188 -11.937355 25.857376
37.767788 -9.735965 26.037284
37.782888 -10.79645 25.966586
38.094092 -10.054272 25.195196
38.735104 -6.189616 23.293319
38.465671 -5.838333 24.101906
38.404365 -6.951131 24.254581
38.927298 -6.550553 22.450209
38.735104 -6.189616 23.293319
38.927298 -6.550553 22.450209
38.848686 -7.635807 22.554333
25.973388 -18.209712 37.861767
25.150439 -18.060901 38.46152
26.750526 -18.342886 37.325115
25.973388 -18.209712 37.861767
26.026436 -19.288989 37.585144
27.544424 -18.493282 36.749488
27.491376 -17.414006 37.026111
26.750526 -18.342886 37.325115
35.10098 -21.333192 29.569683
34.504396 -21.027459 30.372727
34.583126 -22.136745 30.002469
35.549423 -20.437692 29.135988
35.10098 -21.333192 29.569683
28.0995 -34.292623 31.83639
27.281161 -33.995375 32.485875
27.394586 -35.142651 32.025156
28.718319 -33.325184 31.706874
28.0995 -34.292623 31.83639
28.831745 -34.472459 31.246156
30.223179 -33.756405 30.356178
29.620764 -34.650091 30.546449
30.082349 -32.681781 30.902242
30.223179 -33.756405 30.356178
29.985591 -31.499173 31.383451
29.353808 -32.322412 31.597848
30.082349 -32.681781 30.902242
30.635 -30.677619 31.172275
29.906459 -30.31825 31.867881
29.985591 -31.499173 31.383451
31.282012 -29.731298 30.942914
30.635 -30.677619 31.172275
31.361144 -30.912222 30.458483
32.659798 -30.172685 29.465401
32.110411 -31.069119 29.688734
32.587406 -29.008736 30.001897
32.659798 -30.172685 29.465401
33.239048 -29.21552 29.238177
33.680763 -26.161094 29.841645
33.104456 -27.003958 30.196492
33.742964 -27.208707 29.419826
34.242953 -25.205427 29.533183
33.604444 -25.000678 30.309849
33.680763 -26.161094 29.841645
34.702658 -24.345493 29.227094
34.242953 -25.205427 29.533183
34.778976 -25.50591 28.75889
34.673172 -23.243744 29.600406
34.702658 -24.345493 29.227094
3 0 60 58
3 0 58 61
3 1 65 63
3 2 69 67
3 3 72 70
3 231 74 232
3 233 232 73
3 231 232 233
3 236 235 74
3 234 235 236
3 4 77 75
3 3 80 78
3 3 70 80
3 7 84 82
3 7 86 84
3 8 237 239
3 237 88 238
3 237 238 239
3 10 91 89
3 10 93 91
3 5 96 94
3 240 99 241
3 242 241 97
3 240 241 242
3 243 101 244
3 245 244 99
3 243 244 245
3 247 246 101
3 11 104 102
3 12 248 249
3 12 250 252
3 250 106 251
3 250 251 252
3 12 108 106
3 11 111 109
3 11 102 111
3 254 253 113
3 256 255 115
3 6 117 116
3 9 120 118
3 13 123 121
3 13 125 123
3 14 128 126
3 16 129 59
3 16 257 259
3 259 258 129
3 257 258 259
3 17 132 130
3 14 133 62
3 14 126 133
3 20 260 262
3 260 134 261
3 260 261 262
3 20 135 134
3 21 138 136
3 23 139 64
3 23 140 139
3 24 143 141
3 263 144 264
3 265 264 66
3 263 264 265
3 267 266 144
3 268 147 269
3 270 148 271
3 270 271 272
3 274 273 148
3 275 149 276
3 277 150 278
3 279 278 149
3 277 278 279
3 27 153 151
3 29 156 154
3 31 157 68
3 31 158 157
3 32 280 281
3 283 282 71
3 15 159 127
3 33 162 160
3 35 163 76
3 35 164 163
3 18 165 131
3 36 166 79
3 36 167 166
3 36 168 167
3 32 169 81
3 32 284 286
3 286 285 169
3 284 285 286
3 37 287 288
3 37 289 291
3 289 170 290
3 289 290 291
3 19 292 294
3 292 171 293
3 292 293 294
3 38 172 83
3 38 173 172
3 38 174 173
3 39 175 85
3 39 176 175
3 295 178 296
3 41 179 87
3 41 180 179
3 22 181 137
3 42 182 90
3 42 183 182
3 42 184 183
3 43 185 92
3 43 186 185
3 34 187 161
3 44 188 95
3 44 189 188
3 25 190 142
3 45 191 98
3 45 192 191
3 45 193 192
3 46 194 100
3 46 195 194
3 46 196 195
3 47 199 197
3 49 200 103
3 49 297 299
3 299 298 200
3 297 298 299
3 300 201 301
3 302 301 145
3 300 301 302
3 303 202 304
3 50 203 105
3 50 204 203
3 50 205 204
3 51 206 107
3 51 207 206
3 26 208 146
3 52 209 110
3 52 210 209
3 52 211 210
3 47 212 112
3 47 197 212
3 48 213 198
3 306 305 114
3 53 307 308
3 53 309 310
3 311 214 312
3 54 313 315
3 313 215 314
3 313 314 315
3 54 216 215
3 28 217 152
3 316 218 317
3 318 219 319
3 320 319 218
3 318 319 320
3 322 321 219
3 40 220 177
3 55 221 119
3 55 222 221
3 30 223 155
3 56 224 122
3 56 225 224
3 56 226 225
3 57 227 124
3 57 323 325
3 325 324 227
3 323 324 325
3 326 228 327
3 326 327 328
3 329 229 330
3 331 230 332
3 334 333 230
3 58 59 14
3 60 59 58
3 60 16 59
3 61 62 17
3 58 62 61
3 58 14 62
3 335 20 336
3 63 64 21
3 65 64 63
3 65 23 64
3 337 66 338
3 339 338 24
3 337 338 339
3 340 66 341
3 343 342 66
3 345 344 27
3 67 68 29
3 69 68 67
3 69 31 68
3 70 71 32
3 72 71 70
3 72 346 348
3 348 347 71
3 346 347 348
3 73 349 351
3 351 350 15
3 349 350 351
3 74 352 354
3 354 353 73
3 352 353 354
3 74 355 356
3 74 357 358
3 360 359 74
3 75 76 33
3 77 76 75
3 77 35 76
3 78 79 18
3 80 79 78
3 80 36 79
3 80 81 36
3 70 81 80
3 70 32 81
3 361 37 362
3 82 83 19
3 84 83 82
3 84 38 83
3 84 85 38
3 86 85 84
3 86 39 85
3 363 87 364
3 88 365 367
3 365 87 366
3 365 366 367
3 88 41 87
3 89 90 22
3 91 90 89
3 91 42 90
3 91 92 42
3 93 92 91
3 93 43 92
3 94 95 34
3 96 95 94
3 96 44 95
3 97 98 25
3 99 98 97
3 99 45 98
3 99 100 45
3 101 100 99
3 101 46 100
3 101 368 370
3 370 369 46
3 368 369 370
3 372 371 101
3 102 103 47
3 104 103 102
3 104 49 103
3 373 105 374
3 106 375 377
3 375 105 376
3 375 376 377
3 106 50 105
3 106 107 50
3 108 107 106
3 108 51 107
3 109 110 26
3 111 110 109
3 111 52 110
3 111 112 52
3 102 112 111
3 102 47 112
3 113 114 48
3 378 114 379
3 380 379 113
3 378 379 380
3 382 381 114
3 383 53 384
3 115 385 386
3 389 388 115
3 387 388 389
3 116 390 391
3 117 392 394
3 394 393 116
3 392 393 394
3 117 395 397
3 395 54 396
3 395 396 397
3 399 398 28
3 118 119 40
3 120 119 118
3 120 55 119
3 121 122 30
3 123 122 121
3 123 56 122
3 123 124 56
3 125 124 123
3 125 57 124
3 126 127 3
3 128 127 126
3 128 15 127
3 59 128 14
3 129 128 59
3 129 15 128
3 129 73 15
3 400 73 401
3 402 401 129
3 400 401 402
3 404 403 73
3 130 131 4
3 132 131 130
3 132 18 131
3 62 132 17
3 133 132 62
3 133 18 132
3 133 78 18
3 126 78 133
3 126 3 78
3 405 19 406
3 134 407 408
3 134 409 411
3 409 19 410
3 409 410 411
3 134 82 19
3 135 82 134
3 135 7 82
3 136 137 8
3 138 137 136
3 138 22 137
3 64 138 21
3 139 138 64
3 139 22 138
3 139 89 22
3 140 89 139
3 140 10 89
3 141 142 5
3 143 142 141
3 143 25 142
3 66 143 24
3 144 143 66
3 144 25 143
3 144 97 25
3 412 97 413
3 414 413 144
3 412 413 414
3 416 415 97
3 417 145 418
3 419 418 11
3 417 418 419
3 420 145 421
3 423 422 145
3 424 12 425
3 426 146 427
3 428 427 12
3 426 427 428
3 147 429 431
3 429 146 430
3 429 430 431
3 147 26 146
3 432 147 433
3 148 434 436
3 434 147 435
3 434 435 436
3 148 26 147
3 148 109 26
3 437 109 438
3 439 438 148
3 437 438 439
3 440 11 441
3 442 441 109
3 440 441 442
3 149 443 444
3 149 445 446
3 149 447 449
3 447 115 448
3 447 448 449
3 150 115 149
3 150 450 452
3 452 451 115
3 450 451 452
3 151 152 6
3 153 152 151
3 153 28 152
3 453 153 454
3 455 454 27
3 453 454 455
3 456 153 457
3 458 28 459
3 460 459 153
3 458 459 460
3 462 461 28
3 154 155 9
3 156 155 154
3 156 30 155
3 68 156 29
3 157 156 68
3 157 30 156
3 157 121 30
3 158 121 157
3 158 13 121
3 71 463 465
3 465 464 32
3 463 464 465
3 467 466 71
3 127 72 3
3 159 72 127
3 159 468 470
3 470 469 72
3 468 469 470
3 471 159 472
3 473 472 15
3 471 472 473
3 474 159 475
3 477 476 159
3 160 161 1
3 162 161 160
3 162 34 161
3 76 162 33
3 163 162 76
3 163 34 162
3 163 94 34
3 164 94 163
3 164 5 94
3 131 77 4
3 165 77 131
3 165 35 77
3 79 165 18
3 166 165 79
3 166 35 165
3 166 164 35
3 167 164 166
3 167 5 164
3 167 141 5
3 168 141 167
3 168 24 141
3 81 168 36
3 169 168 81
3 169 24 168
3 169 478 480
3 480 479 24
3 478 479 480
3 482 481 169
3 483 116 484
3 170 485 487
3 485 116 486
3 485 486 487
3 170 6 116
3 171 488 489
3 171 490 492
3 490 37 491
3 490 491 492
3 83 171 19
3 172 171 83
3 172 37 171
3 172 170 37
3 173 170 172
3 173 6 170
3 173 151 6
3 174 151 173
3 174 27 151
3 85 174 38
3 175 174 85
3 175 27 174
3 175 493 495
3 495 494 27
3 493 494 495
3 176 496 498
3 498 497 175
3 496 497 498
3 176 499 500
3 502 501 2
3 503 177 504
3 178 505 507
3 505 177 506
3 505 506 507
3 178 40 177
3 87 508 510
3 508 178 509
3 508 509 510
3 179 178 87
3 179 40 178
3 179 118 40
3 180 118 179
3 180 9 118
3 137 88 8
3 181 88 137
3 181 41 88
3 90 181 22
3 182 181 90
3 182 41 181
3 182 180 41
3 183 180 182
3 183 9 180
3 183 154 9
3 184 154 183
3 184 29 154
3 92 184 42
3 185 184 92
3 185 29 184
3 185 67 29
3 186 67 185
3 186 2 67
3 161 65 1
3 187 65 161
3 187 23 65
3 95 187 34
3 188 187 95
3 188 23 187
3 188 140 23
3 189 140 188
3 189 10 140
3 142 96 5
3 190 96 142
3 190 44 96
3 98 190 25
3 191 190 98
3 191 44 190
3 191 189 44
3 192 189 191
3 192 10 189
3 192 93 10
3 193 93 192
3 193 43 93
3 100 193 45
3 194 193 100
3 194 43 193
3 194 186 43
3 195 186 194
3 195 2 186
3 195 511 513
3 513 512 2
3 511 512 513
3 196 514 516
3 516 515 195
3 514 515 516
3 196 517 518
3 519 196 520
3 521 520 46
3 519 520 521
3 522 196 523
3 525 524 196
3 197 198 0
3 199 198 197
3 199 48 198
3 103 199 47
3 200 199 103
3 200 48 199
3 200 113 48
3 526 113 527
3 528 527 200
3 526 527 528
3 530 529 113
3 145 104 11
3 201 104 145
3 201 49 104
3 531 201 532
3 531 532 533
3 534 201 535
3 536 49 537
3 538 537 201
3 536 537 538
3 540 539 49
3 541 8 542
3 543 8 544
3 545 136 546
3 547 546 8
3 545 546 547
3 548 136 549
3 550 21 551
3 552 551 136
3 550 551 552
3 553 21 554
3 555 63 556
3 557 556 21
3 555 556 557
3 202 558 560
3 558 63 559
3 558 559 560
3 202 1 63
3 105 561 562
3 203 563 565
3 565 564 105
3 563 564 565
3 203 566 567
3 203 568 570
3 568 202 569
3 568 569 570
3 204 202 203
3 204 1 202
3 204 160 1
3 205 160 204
3 205 33 160
3 107 205 50
3 206 205 107
3 206 33 205
3 206 75 33
3 207 75 206
3 207 4 75
3 146 108 12
3 208 108 146
3 208 51 108
3 110 208 26
3 209 208 110
3 209 51 208
3 209 207 51
3 210 207 209
3 210 4 207
3 210 130 4
3 211 130 210
3 211 17 130
3 112 211 52
3 212 211 112
3 212 17 211
3 212 61 17
3 197 61 212
3 197 0 61
3 198 60 0
3 213 60 198
3 213 16 60
3 114 213 48
3 571 213 572
3 573 572 114
3 571 572 573
3 574 16 575
3 576 575 213
3 574 575 576
3 578 577 16
3 214 579 580
3 214 581 583
3 581 53 582
3 581 582 583
3 584 214 585
3 586 214 587
3 586 587 588
3 589 53 590
3 591 590 214
3 589 590 591
3 593 592 53
3 215 594 595
3 215 596 597
3 215 598 600
3 598 150 599
3 598 599 600
3 216 150 215
3 216 601 603
3 603 602 150
3 601 602 603
3 152 117 6
3 217 117 152
3 217 54 117
3 604 217 605
3 606 605 28
3 604 605 606
3 218 607 609
3 607 217 608
3 607 608 609
3 218 54 217
3 218 216 54
3 219 216 218
3 219 610 612
3 612 611 216
3 610 611 612
3 219 613 614
3 616 615 219
3 177 617 618
3 220 619 621
3 621 620 177
3 619 620 621
3 220 622 624
3 622 20 623
3 622 623 624
3 119 220 40
3 221 220 119
3 221 20 220
3 221 135 20
3 222 135 221
3 222 7 135
3 155 120 9
3 223 120 155
3 223 55 120
3 122 223 30
3 224 223 122
3 224 55 223
3 224 222 55
3 225 222 224
3 225 7 222
3 225 86 7
3 226 86 225
3 226 39 86
3 124 226 56
3 227 226 124
3 227 39 226
3 227 176 39
3 625 176 626
3 627 626 227
3 625 626 627
3 629 628 176
3 630 69 631
3 632 631 2
3 630 631 632
3 228 633 635
3 633 69 634
3 633 634 635
3 228 31 69
3 636 228 637
3 638 228 639
3 640 31 641
3 642 641 228
3 640 641 642
3 643 158 644
3 645 644 31
3 643 644 645
3 229 646 648
3 646 158 647
3 646 647 648
3 229 13 158
3 649 229 650
3 230 651 653
3 651 229 652
3 651 652 653
3 230 13 229
3 230 125 13
3 654 125 655
3 656 655 230
3 654 655 656
3 657 57 658
3 659 658 125
3 657 658 659
3 660 57 661
3 660 661 662
3 664 663 57
