ply
format ascii 1.0
element vertex 805
property float x
property float y
property float z
element face 883
property list uchar int vertex_index
end_header
-35.148685 -51.245071 -27.766279
-16.923676 -84.235611 -6.667034
-26.910576 -64.305252 -8.372621
-35.921806 -44.491837 -14.046764
-28.260529 -58.536919 -41.27541
-22.269123 -74.375648 -6.571964
-23.434107 -68.189117 2.256902
-32.633911 -50.569016 -3.970092
-36.837421 -41.816082 -6.944328
-30.044308 -63.542824 -25.920618
-33.208988 -54.978943 -34.929504
-34.606979 -31.209181 -51.778278
-38.071434 -41.270241 -36.773037
-31.18865 -58.61401 -18.369013
-31.47887 -54.424015 -11.121252
-35.57563 -47.552517 -20.673944
-34.852016 -43.93642 -43.533367
-28.580629 -46.380283 -48.593632
-20.368896 -48.652779 -51.138393
-21.167767 -72.875641 3.310316
-35.757294 -44.558929 -1.951735
-37.423813 -40.172501 -3.309194
-32.758831 -57.428562 -26.790991
-31.847189 -59.418964 -30.559431
-34.465233 -53.197868 -31.339155
-24.687418 -69.210152 -7.316487
-24.212572 -72.123886 -11.593782
-26.578667 -66.990463 -12.278324
-28.738447 -64.17382 -17.287855
-29.037773 -61.590431 -13.45422
-34.211594 -47.832447 -9.159435
-31.862354 -52.531033 -7.57927
-33.832214 -49.320915 -12.608516
-33.499035 -51.362915 -15.948343
-35.681534 -45.983227 -17.415184
-27.455664 -64.111351 -37.338749
-24.452887 -60.613495 -43.740314
-36.880672 -42.486382 -40.381924
-37.38649 -36.54451 -44.620354
-31.939989 -38.619671 -50.238998
-28.231407 -39.473194 -52.20752
-24.459753 -47.493191 -50.316505
-24.089113 -40.552235 -53.361557
-17.995033 -80.628281 -1.194451
-19.734228 -79.358368 -6.266637
-20.604429 -75.891136 -1.407728
-22.825748 -71.328384 -2.093705
-25.041176 -66.465782 -3.106242
-33.5858 -48.834354 -0.366076
-34.907173 -46.225273 -5.611024
-36.298855 -43.207577 -10.48603
-28.725277 -65.931786 -29.777025
-30.081873 -61.68261 -34.16243
-31.134493 -56.880272 -38.177956
-37.220871 -44.971561 -28.831141
-36.772202 -46.657646 -32.181549
-21.576744 -77.507957 -11.250175
-30.784777 -61.12011 -22.07172
-33.197727 -55.278038 -22.870277
-27.224144 -61.765274 -4.371099
-29.549377 -57.050438 -5.947886
-29.250834 -59.189922 -9.70512
-31.318205 -56.413811 -14.626274
-33.379097 -53.253422 -19.32214
-35.463818 -49.272774 -24.088095
-35.847733 -48.232029 -35.98349
-34.229084 -49.676491 -39.404057
-31.716991 -51.307247 -42.422573
-35.048988 -37.631958 -47.680195
-31.97913 -45.287155 -46.336136
-28.456953 -52.818729 -45.022194
-24.603632 -54.302795 -47.051357
-37.00853 -41.595707 -0.728382
-33.942715 -54.462208 -27.123306
-33.631279 -55.437778 -29.039963
-34.820553 -52.351643 -29.500898
-17.778072 -83.631805 -9.00803
-25.824518 -66.69178 -7.78218
-25.572514 -68.256645 -9.837978
-26.767792 -65.634895 -10.377374
-27.874857 -64.123062 -12.791249
-27.957811 -62.919647 -10.810432
-35.083755 -46.177391 -11.608525
-33.947487 -48.668701 -10.916031
-34.85994 -46.992928 -13.231608
-34.744446 -47.742161 -14.988701
-35.724926 -45.328278 -15.586422
-36.567497 -43.562798 -17.893488
-36.752281 -42.669315 -16.397671
-15.955028 -84.790207 -4.081941
-27.955988 -61.265732 -39.365978
-26.014793 -64.966705 -38.878242
-26.261349 -62.28437 -40.814106
-26.525261 -59.457088 -42.575001
-26.218077 -40.071442 -52.846855
-18.439632 -78.941025 1.26365
-19.360601 -78.345985 -1.518396
-19.648674 -76.840691 1.024181
-22.292559 -70.593559 2.820699
-22.039837 -72.002251 0.664657
-23.096376 -69.747475 0.236805
-23.936007 -68.84201 -2.417841
-24.156891 -67.475502 -0.369687
-36.303894 -43.209198 -4.454928
-35.282276 -45.485676 -3.798261
-35.912544 -44.067715 -6.287361
-35.635113 -44.69384 -8.159985
-36.588806 -42.449215 -8.749285
-37.210102 -40.849243 -11.118021
-37.444736 -40.120644 -9.313884
-17.549658 -79.396095 3.813675
-29.472061 -64.740593 -27.798676
-32.563168 -57.328106 -32.664536
-30.997068 -60.74876 -32.237816
-31.699495 -58.411064 -34.380016
-30.67576 -59.337101 -36.144382
-32.294254 -55.883842 -36.598038
-21.084185 -76.838303 -6.55312
-20.664371 -78.467346 -8.809135
-22.019423 -75.788574 -8.906476
-29.998699 -61.371464 -17.831785
-29.7635 -62.674927 -19.559109
-31.028357 -59.831558 -20.177551
-32.04491 -58.132584 -22.427734
-32.221142 -56.993488 -20.706776
-26.343327 -62.820045 -1.650876
-31.45109 -52.710964 -3.227919
-31.72308 -53.292042 -9.432466
-30.714506 -54.773899 -6.808947
-30.498817 -55.755482 -8.501895
-29.268639 -58.28627 -7.685504
-30.336708 -56.810436 -10.266831
-30.293507 -57.760975 -12.108358
-31.433958 -55.294388 -12.920373
-34.553684 -49.537491 -18.354401
-33.441826 -52.253677 -17.567581
-34.502491 -50.423134 -20.022093
-34.444359 -51.336449 -21.720293
-35.460522 -48.580826 -22.295874
-36.429035 -46.440403 -24.646891
-36.447803 -45.722897 -22.897539
-37.485973 -43.980644 -34.592491
-36.415443 -47.394623 -34.104343
-36.993164 -44.885002 -36.338501
-35.909031 -43.435524 -41.941029
-35.601044 -46.139885 -39.905243
-34.537998 -46.94743 -41.514828
-33.017536 -50.741711 -40.841393
-33.320534 -47.823219 -42.863804
-36.257614 -33.712631 -48.488571
-34.82375 -34.489235 -49.808205
-30.2738 -42.504593 -49.449368
-32.063446 -41.941368 -48.28775
-30.291168 -45.814339 -47.605518
-30.280439 -48.996399 -45.698265
-28.446625 -49.896118 -46.762093
-26.53936 -53.587826 -46.137482
-26.593084 -50.250496 -47.881756
-22.357233 -48.172939 -50.804646
-22.475016 -51.540051 -49.374207
-20.33695 -52.337257 -49.776516
-20.033356 -75.11702 3.520921
-36.18988 -43.711334 -0.05016
-36.672794 -42.378674 -2.577644
-37.120266 -41.068733 -5.081028
-31.48805 -60.379627 -26.314247
-30.906553 -61.709938 -28.332386
-32.283028 -58.659229 -28.523071
-33.189003 -56.380711 -30.763264
-33.986195 -53.947552 -33.171257
-23.494173 -71.814697 -6.932064
-23.227722 -73.28949 -9.095648
-24.406713 -70.741112 -9.309509
-25.366468 -69.643768 -11.882596
-26.446341 -68.233246 -14.375341
-27.498121 -66.902679 -16.956282
-27.681551 -65.540276 -14.774952
-28.92729 -62.841854 -15.386307
-30.07925 -60.206444 -15.849923
-33.371758 -49.319794 -6.541561
-32.209038 -51.548763 -5.876814
-33.110058 -50.059345 -8.365663
-32.86216 -50.922955 -10.074214
-32.638969 -51.884476 -11.707279
-32.576855 -52.701698 -13.52943
-33.656586 -50.261898 -14.223347
-34.616089 -48.663845 -16.656553
-35.584335 -46.84227 -19.007212
-36.543446 -44.836372 -21.408543
-36.586319 -44.082321 -19.733736
-37.43219 -41.502953 -20.193161
-27.076817 -66.290451 -35.43998
-37.569645 -41.91806 -38.54282
-37.934109 -39.058224 -40.80225
-36.172279 -40.287891 -44.108173
-33.318539 -34.799263 -51.107063
-31.587328 -35.124146 -52.285595
-30.212246 -39.091591 -51.247536
-28.343964 -43.057625 -50.439922
-26.446632 -47.150009 -49.516434
-26.361168 -43.695786 -51.179165
-24.284149 -44.122364 -51.835049
-22.236708 -44.503654 -52.280399
-20.173035 -44.924473 -52.51709
-22.027487 -40.735458 -53.766407
-17.418554 -82.518929 -3.849376
-18.393295 -81.802353 -6.45655
-18.780102 -80.245781 -3.859435
-20.182991 -77.655495 -3.893081
-21.371941 -75.337364 -4.110065
-20.898453 -74.385269 0.905352
-21.766212 -73.589355 -1.781114
-22.586876 -72.834953 -4.4345
-23.758347 -70.290161 -4.794774
-24.845863 -67.858307 -5.179274
-25.958611 -65.366013 -5.667358
-33.083813 -49.703667 -2.252878
-34.710976 -46.719021 -1.280718
-34.176121 -47.690128 -2.989429
-33.830898 -48.349693 -5.027009
-34.572868 -46.947254 -7.397263
-35.251614 -45.609264 -9.723648
-36.118298 -43.768158 -12.300981
-37.019772 -41.462837 -12.802624
-16.57884 -82.908867 -1.362831
-30.296026 -62.737759 -30.177229
-29.451536 -63.838959 -32.085968
-28.311872 -65.162735 -33.786018
-28.930439 -62.682999 -35.932781
-29.367493 -60.368397 -37.83234
-29.808474 -57.623482 -39.846882
-36.191879 -48.197758 -28.16534
-35.98563 -49.058937 -29.952686
-37.003952 -45.917549 -30.518559
-38.392906 -40.752834 -34.986279
-19.28845 -81.063736 -8.965045
-20.214045 -80.117226 -11.305697
-21.099041 -79.178955 -13.748535
-22.891453 -74.902313 -11.432194
-29.06962 -65.351624 -23.529198
-30.472883 -62.3451 -24.020983
-31.813005 -59.274349 -24.318327
-33.02095 -56.367771 -24.794743
-34.227577 -53.277561 -25.314302
-25.267893 -65.114494 -1.084869
-26.112339 -64.086197 -3.595548
-26.999849 -63.088367 -6.25663
-30.962704 -53.863853 -4.906942
-29.803232 -56.032501 -4.097448
-28.35718 -59.437767 -5.130463
-28.185335 -60.604271 -7.107281
-28.015427 -61.777596 -8.78892
-29.101971 -60.414169 -11.476011
-30.170952 -58.98251 -13.921995
-31.240749 -57.52845 -16.436089
-32.425392 -53.816139 -15.16246
-32.39452 -54.798153 -17.017008
-32.283913 -55.955547 -18.79664
-33.373547 -54.095325 -21.153658
-34.388844 -52.241985 -23.57583
-35.326813 -50.272568 -25.85429
-36.346443 -47.313549 -26.512373
-37.291943 -44.276718 -26.994871
-35.699848 -49.848137 -31.8309
-35.250118 -50.665455 -33.760445
-34.564217 -51.636967 -35.503128
-36.448055 -45.323601 -38.23719
-35.158257 -48.910191 -37.720066
-33.766811 -52.381454 -37.24509
-32.799812 -53.16436 -38.791431
-31.441904 -54.230297 -40.327305
-29.998646 -54.906998 -41.900837
-37.362061 -33.506596 -46.85302
-36.279675 -37.155098 -46.241333
-34.989246 -40.847752 -45.633568
-33.595486 -38.233971 -48.961632
-33.589516 -41.60598 -46.919796
-33.621834 -44.524479 -44.917267
-31.984224 -48.361988 -44.274193
-30.126839 -52.085003 -43.82616
-28.408316 -55.693676 -43.200932
-26.649887 -56.603527 -44.298943
-24.652098 -57.444839 -45.385246
-22.596664 -58.327919 -46.249352
-24.561825 -50.897346 -48.719975
-22.653791 -54.869938 -47.838688
-17.350874 -83.933708 -7.837532
-16.984872 -84.876159 -9.098641
-16.557673 -85.178063 -7.928144
-16.115876 -85.43813 -6.771721
-15.631553 -85.715428 -5.479174
-16.439352 -84.512909 -5.374487
-16.557673 -85.178063 -7.928144
-16.115876 -85.43813 -6.771721
-19.253622 -77.032464 2.383939
-19.044153 -77.890858 1.143915
-18.649101 -78.08263 2.503674
-18.204114 -78.310166 3.778686
-17.751959 -78.547775 5.061764
-18.649101 -78.08263 2.503674
-17.994645 -79.16856 2.538663
-18.204114 -78.310166 3.778686
-29.758184 -64.141709 -26.859647
-28.998494 -65.72704 -26.688941
-29.284618 -65.128155 -25.749912
-32.042501 -51.63999 -3.599006
-31.653581 -52.288347 -2.293593
-32.244991 -51.217373 -2.66468
-34.715364 -32.849208 -50.793242
-35.466578 -32.542107 -50.127541
-35.358193 -30.902079 -51.112578
-19.373931 -50.618298 -50.635271
-19.357958 -52.460537 -49.954332
-20.352923 -50.495018 -50.457454
-19.282789 -48.829977 -51.24316
-19.373931 -50.618298 -50.635271
-36.416199 -43.240002 0.798146
-35.953199 -44.326729 1.22039
-37.621418 -39.45489 -4.544875
-37.469645 -39.903006 -5.430792
-37.27204 -40.620617 -4.195111
-37.487972 -41.111404 -19.406346
-36.999843 -42.532876 -19.043325
-37.055626 -42.141327 -18.256509
-37.83567 -40.15804 -20.451275
-37.487972 -41.111404 -19.406346
-26.473921 -65.862458 -37.209389
-26.284498 -66.952008 -36.260005
-27.26624 -65.200901 -36.389364
-24.985159 -66.792862 -38.703293
-25.113473 -65.602882 -39.535044
-23.389585 -62.545578 -43.464895
-24.469561 -61.970509 -42.867836
-23.502542 -61.035899 -44.217487
-23.389585 -62.545578 -43.464895
-38.39873 -37.305492 -40.995487
-38.227251 -38.771832 -39.899506
-37.244433 -38.200784 -43.544863
-37.784754 -36.397374 -43.739674
-36.779385 -38.416201 -44.364263
-36.637327 -40.072475 -43.288773
-37.244433 -38.200784 -43.544863
-31.43208 -33.378384 -53.214043
-32.273103 -33.253612 -52.698103
-29.221826 -39.282393 -51.727528
-29.981918 -37.383114 -52.204059
-28.991499 -37.573915 -52.684052
-33.012415 -49.835456 -0.049428
-33.268814 -49.418754 0.882543
-33.334806 -49.269011 -1.309477
-32.761421 -50.270113 -0.992829
-33.012415 -49.835456 -0.049428
-35.234135 -45.638975 -1.616227
-34.94636 -46.309244 -0.319032
-35.469519 -45.229198 -0.65454
-37.534289 -39.937658 -12.348364
-37.606899 -39.629909 -11.416546
-17.286936 -81.768574 -1.278641
-16.845637 -82.008758 -0.058038
-17.553733 -80.868465 0.026152
-27.88424 -67.560581 -29.602369
-28.307472 -66.929958 -28.605237
-28.209984 -66.628906 -30.670038
-27.88424 -67.560581 -29.602369
-38.525337 -40.3862 -34.104781
-38.080196 -42.05043 -33.866327
-28.592344 -66.153489 -22.424865
-28.389698 -66.769001 -23.415636
-28.598029 -64.885887 -18.285863
-27.977866 -66.250316 -18.120077
-28.118284 -65.53825 -17.122069
-30.124112 -62.566124 -21.766716
-29.613474 -63.343532 -20.51041
-30.274138 -61.897518 -20.815414
-30.62883 -61.732605 -23.046352
-29.968165 -63.178619 -22.741347
-30.124112 -62.566124 -21.766716
-25.395808 -64.482544 -0.066857
-24.851807 -65.599933 0.29009
-29.078758 -57.697501 -4.658739
-29.205686 -57.188532 -3.733521
-29.676305 -56.54147 -5.022667
-28.953278 -58.244102 -5.539174
-28.48266 -58.891165 -4.250028
-29.078758 -57.697501 -4.658739
-37.320609 -43.903134 -26.126629
-36.860489 -45.358561 -25.820881
-36.889155 -44.984976 -24.952639
-37.730439 -42.741125 -27.290273
-37.320609 -43.903134 -26.126629
-36.979343 -43.76226 -22.463161
-36.978371 -43.482073 -21.670314
-37.375065 -31.805894 -47.877764
-37.87178 -31.57137 -47.088763
-21.591049 -55.307339 -48.106762
-22.564403 -53.204994 -48.606448
-21.501662 -53.642395 -48.874522
-21.593858 -56.969323 -47.407148
-21.591049 -55.307339 -48.106762
-18.890129 -43.418192 -53.172024
-19.078087 -45.182816 -52.526186
-19.985077 -43.159849 -53.162928
-37.18396 -41.139578 0.176562
-36.825524 -42.182188 0.459035
-37.000953 -41.726059 1.36398
-37.329239 -40.50938 -1.105541
-37.18396 -41.139578 0.176562
-37.536881 -39.797777 -2.395948
-37.216172 -40.884104 -2.018788
-37.329239 -40.50938 -1.105541
-37.696913 -39.07794 -3.610909
-37.536881 -39.797777 -2.395948
-17.487903 -84.440475 -10.223705
-16.694702 -85.68483 -10.314317
-16.984872 -84.876159 -9.098641
-18.235047 -83.225479 -10.197156
-17.487903 -84.440475 -10.223705
-37.148018 -41.694586 -17.508601
-37.055626 -42.141327 -18.256509
-36.659889 -43.116056 -17.14558
-15.117766 -85.964226 -4.241679
-15.442484 -85.040558 -2.865321
-15.117766 -85.964226 -4.241679
-15.631553 -85.715428 -5.479174
-25.23675 -64.261714 -40.502976
-25.113473 -65.602882 -39.535044
-26.138071 -63.625538 -39.846174
-25.373792 -62.805946 -41.404732
-25.23675 -64.261714 -40.502976
-25.505748 -61.392305 -42.285179
-25.373792 -62.805946 -41.404732
-26.393305 -60.870729 -41.694553
-25.489074 -60.035291 -43.157657
-24.469561 -61.970509 -42.867836
-25.505748 -61.392305 -42.285179
-37.836893 -34.812638 -44.908869
-37.784754 -36.397374 -43.739674
-28.034384 -37.728295 -53.086016
-28.991499 -37.573915 -52.684052
-27.027718 -38.027418 -53.405683
-27.224742 -39.772318 -52.527187
-28.034384 -37.728295 -53.086016
-25.983982 -38.309767 -53.678169
-27.027718 -38.027418 -53.405683
-24.9195 -38.550163 -53.93552
-25.153595 -40.311839 -53.104206
-25.983982 -38.309767 -53.678169
-23.942839 -38.746246 -54.120054
-24.9195 -38.550163 -53.93552
-33.858398 -48.37478 0.438843
-33.268814 -49.418754 0.882543
-37.724216 -39.26561 -10.514477
-37.606899 -39.629909 -11.416546
-37.327419 -40.484943 -10.215953
-17.071114 -79.579456 5.062591
-17.751959 -78.547775 5.061764
-16.866999 -80.456345 3.701736
-16.388455 -80.639705 4.950653
-17.071114 -79.579456 5.062591
-17.331046 -80.252373 2.530215
-16.866999 -80.456345 3.701736
-17.776033 -80.024837 1.255202
-17.331046 -80.252373 2.530215
-17.994645 -79.16856 2.538663
-18.217332 -79.784653 0.0346
-17.553733 -80.868465 0.026152
-17.776033 -80.024837 1.255202
-28.680864 -66.334362 -27.616062
-28.998494 -65.72704 -26.688941
-29.098669 -65.33619 -28.78785
-28.307472 -66.929958 -28.605237
-28.680864 -66.334362 -27.616062
-37.588867 -43.818476 -29.930264
-37.647524 -43.479822 -29.076523
-24.036734 -72.944008 -12.776884
-24.676681 -71.577961 -12.817954
-26.49764 -62.226606 -0.811531
-25.933524 -63.335319 -0.34986
-26.906372 -61.682446 -2.043221
-26.49764 -62.226606 -0.811531
-27.346781 -61.15506 -3.403333
-26.783735 -62.292659 -3.010988
-26.906372 -61.682446 -2.043221
-31.027664 -53.377365 -1.917339
-31.653581 -52.288347 -2.293593
-30.808986 -53.862314 -2.775669
-31.027664 -53.377365 -1.917339
-36.898539 -44.626223 -24.077963
-36.889155 -44.984976 -24.952639
-36.438419 -46.08165 -23.772215
-36.18351 -32.153804 -49.467724
-36.822841 -31.908912 -48.695539
-36.748738 -30.350085 -49.674692
-35.540682 -34.100933 -49.148388
-36.18351 -32.153804 -49.467724
-35.466578 -32.542107 -50.127541
-20.432628 -54.040999 -49.075676
-21.501662 -53.642395 -48.874522
-21.405983 -51.938654 -49.575361
-19.307957 -54.297455 -49.325722
-20.432628 -54.040999 -49.075676
-19.307957 -54.297455 -49.325722
-19.357958 -52.460537 -49.954332
-19.64848 -75.310577 4.855861
-19.445963 -76.170628 3.632309
-20.233567 -74.260101 4.683309
-19.64848 -75.310577 4.855861
-20.800772 -73.139412 4.578006
-20.600562 -73.99633 3.415618
-20.233567 -74.260101 4.683309
-21.373662 -71.99984 4.453158
-20.800772 -73.139412 4.578006
-21.006667 -72.263611 5.720849
-21.936058 -70.858799 4.208349
-21.730163 -71.7346 3.065507
-21.373662 -71.99984 4.453158
-22.483332 -69.782406 3.877182
-21.936058 -70.858799 4.208349
-23.054106 -68.580185 3.595284
-22.863333 -69.391338 2.5388
-22.483332 -69.782406 3.877182
-35.685812 -44.805401 0.296247
-35.953199 -44.326729 1.22039
-35.973587 -44.135131 -1.000948
-35.469519 -45.229198 -0.65454
-35.685812 -44.805401 0.296247
-36.599205 -42.65352 -0.389271
-36.416199 -43.240002 0.798146
-36.825524 -42.182188 0.459035
-37.388771 -40.233142 -6.307997
-37.247349 -40.606817 -7.239647
-36.978843 -41.442408 -6.012678
-37.388771 -40.233142 -6.307997
-37.469645 -39.903006 -5.430792
-37.621418 -39.45489 -4.544875
-37.696913 -39.07794 -3.610909
-25.253629 -70.337902 -12.962362
-24.676681 -71.577961 -12.817954
-24.78952 -70.883827 -11.738189
-25.793565 -69.632641 -14.208734
-25.253629 -70.337902 -12.962362
-25.906405 -68.938507 -13.128968
-26.307536 -68.958263 -15.428082
-25.793565 -69.632641 -14.208734
-26.972231 -67.567962 -15.665812
-26.833426 -68.29298 -16.718553
-26.307536 -68.958263 -15.428082
-36.999808 -43.105047 -20.832911
-36.978371 -43.482073 -21.670314
-36.564883 -44.459346 -20.57114
-37.422743 -41.815363 -21.062623
-36.999808 -43.105047 -20.832911
-37.009254 -42.792637 -19.963448
-37.839911 -40.382784 -21.325443
-37.422743 -41.815363 -21.062623
-37.839911 -40.382784 -21.325443
-37.83567 -40.15804 -20.451275
-26.131423 -67.984848 -35.305064
-26.80123 -67.429493 -34.395764
-26.131423 -67.984848 -35.305064
-26.284498 -66.952008 -36.260005
-25.753486 -66.290134 -37.979135
-26.473921 -65.862458 -37.209389
-26.735228 -64.539028 -38.108496
-25.753486 -66.290134 -37.979135
-24.985159 -66.792862 -38.703293
-38.045019 -40.201749 -38.76979
-37.82054 -41.59415 -37.657928
-38.295913 -39.87784 -37.884899
-37.751877 -40.488142 -39.672535
-38.045019 -40.201749 -38.76979
-38.227251 -38.771832 -39.899506
-38.058563 -37.65423 -41.830622
-38.39873 -37.305492 -40.995487
-37.518242 -39.457642 -41.635811
-38.058563 -37.65423 -41.830622
-36.991523 -41.17172 -41.425648
-37.40739 -40.772303 -40.592087
-37.518242 -39.457642 -41.635811
-36.505703 -41.646292 -42.205201
-36.394852 -42.960953 -41.161476
-36.991523 -41.17172 -41.425648
-36.040655 -41.861708 -43.024601
-36.505703 -41.646292 -42.205201
-36.637327 -40.072475 -43.288773
-33.138708 -33.091171 -52.108837
-33.962759 -33.004222 -51.44267
-33.782928 -31.296129 -52.444445
-32.452934 -34.961705 -51.696329
-33.138708 -33.091171 -52.108837
-32.273103 -33.253612 -52.698103
-30.66946 -35.399392 -52.723089
-31.43208 -33.378384 -53.214043
-30.899787 -37.107869 -51.766565
-30.66946 -35.399392 -52.723089
-29.981918 -37.383114 -52.204059
-20.912303 -41.065342 -53.787586
-19.985077 -43.159849 -53.162928
-21.100261 -42.829966 -53.141749
-22.912026 -38.837858 -54.322479
-23.0583 -40.643847 -53.563982
-23.942839 -38.746246 -54.120054
-21.792384 -39.046019 -54.434853
-22.912026 -38.837858 -54.322479
-20.912303 -41.065342 -53.787586
-21.792384 -39.046019 -54.434853
-19.841015 -75.978856 2.272551
-19.253622 -77.032464 2.383939
-19.445963 -76.170628 3.632309
-32.469942 -50.784699 -1.806072
-32.761421 -50.270113 -0.992829
-32.858862 -50.136342 -3.111485
-32.244991 -51.217373 -2.66468
-32.469942 -50.784699 -1.806072
-34.420986 -47.317114 -0.018478
-34.94636 -46.309244 -0.319032
-34.148388 -47.776687 -0.823397
-33.858398 -48.37478 0.438843
-34.420986 -47.317114 -0.018478
-36.517071 -42.850378 -13.514509
-36.418825 -43.212217 -14.387401
-36.020052 -44.129998 -13.173872
-36.967808 -41.697717 -13.765331
-36.517071 -42.850378 -13.514509
-36.569035 -42.615498 -12.551803
-37.376175 -40.51623 -13.996647
-36.967808 -41.697717 -13.765331
-37.439124 -40.244455 -13.190665
-37.114937 -41.15604 -11.960323
-37.534289 -39.937658 -12.348364
-37.376175 -40.51623 -13.996647
-37.439124 -40.244455 -13.190665
-37.551006 -39.759098 -8.424425
-37.141078 -40.968363 -8.129106
-37.247349 -40.606817 -7.239647
-37.796207 -38.932386 -9.631312
-37.551006 -39.759098 -8.424425
-38.075687 -38.077353 -10.831906
-37.724216 -39.26561 -10.514477
-37.796207 -38.932386 -9.631312
-16.079667 -83.166218 -0.209384
-16.845637 -82.008758 -0.058038
-15.75439 -84.099888 -1.505767
-16.079667 -83.166218 -0.209384
-16.266934 -83.849537 -2.722386
-15.442484 -85.040558 -2.865321
-15.75439 -84.099888 -1.505767
-28.573113 -65.582493 -31.82451
-28.209984 -66.628906 -30.670038
-29.088406 -64.885373 -30.931497
-28.003281 -66.244381 -32.674535
-28.573113 -65.582493 -31.82451
-28.881704 -64.500847 -32.935993
-27.418758 -66.865635 -33.568782
-28.003281 -66.244381 -32.674535
-27.694344 -65.726593 -34.612999
-26.80123 -67.429493 -34.395764
-27.418758 -66.865635 -33.568782
-35.176521 -29.321699 -52.121527
-35.358193 -30.902079 -51.112578
-34.444403 -29.490331 -52.75837
-35.176521 -29.321699 -52.121527
-33.782928 -31.296129 -52.444445
-34.444403 -29.490331 -52.75837
-37.480407 -44.29147 -30.773974
-37.112412 -45.444555 -29.67485
-37.588867 -43.818476 -29.930264
-37.38572 -44.632787 -31.632467
-37.480407 -44.29147 -30.773974
-37.269845 -45.002836 -32.463962
-36.888077 -46.287598 -31.350054
-37.38572 -44.632787 -31.632467
-37.62673 -43.664335 -33.669433
-37.129087 -45.319145 -33.38702
-37.269845 -45.002836 -32.463962
-37.93944 -42.366739 -34.789385
-37.62673 -43.664335 -33.669433
-38.080196 -42.05043 -33.866327
-38.793226 -39.116055 -35.206846
-38.525337 -40.3862 -34.104781
-38.671166 -39.295332 -36.136055
-38.793226 -39.116055 -35.206846
-38.51043 -39.554035 -37.029434
-38.23217 -41.011538 -35.879658
-38.671166 -39.295332 -36.136055
-38.295913 -39.87784 -37.884899
-38.51043 -39.554035 -37.029434
-18.990236 -81.941445 -10.175663
-18.235047 -83.225479 -10.197156
-18.533261 -82.34777 -8.986538
-19.453034 -81.468189 -11.345989
-18.990236 -81.941445 -10.175663
-19.751247 -80.590481 -10.135371
-19.885211 -81.005757 -12.401011
-19.453034 -81.468189 -11.345989
-20.327709 -80.536621 -13.62243
-19.885211 -81.005757 -12.401011
-20.656543 -79.64809 -12.527116
-20.79653 -79.997174 -14.84928
-20.327709 -80.536621 -13.62243
-23.376174 -74.333222 -12.696091
-23.552013 -73.5131 -11.512988
-24.036734 -72.944008 -12.776884
-22.731901 -75.618877 -12.58829
-23.376174 -74.333222 -12.696091
-22.074546 -76.9217 -12.497281
-22.234099 -76.205135 -11.341185
-22.731901 -75.618877 -12.58829
-21.835695 -77.757199 -13.746461
-21.337893 -78.343456 -12.499355
-22.074546 -76.9217 -12.497281
-21.56353 -78.590667 -14.853602
-21.835695 -77.757199 -13.746461
-20.79653 -79.997174 -14.84928
-21.56353 -78.590667 -14.853602
-28.797274 -66.032555 -24.554202
-28.389698 -66.769001 -23.415636
-29.556964 -64.447224 -24.724908
-29.284618 -65.128155 -25.749912
-28.797274 -66.032555 -24.554202
-27.304593 -67.693325 -17.981341
-26.833426 -68.29298 -16.718553
-27.304593 -67.693325 -17.981341
-27.977866 -66.250316 -18.120077
-29.110556 -64.13644 -19.42149
-28.598029 -64.885887 -18.285863
-29.250974 -63.424374 -18.423482
-29.110556 -64.13644 -19.42149
-29.613474 -63.343532 -20.51041
-29.266534 -64.681881 -22.495455
-28.592344 -66.153489 -22.424865
-29.771251 -63.848362 -23.775091
-29.266534 -64.681881 -22.495455
-29.968165 -63.178619 -22.741347
-23.597582 -67.465824 3.313833
-23.054106 -68.580185 3.595284
-23.934914 -67.137245 1.960975
-23.597582 -67.465824 3.313833
-24.296307 -66.780438 0.647681
-23.795499 -67.83231 0.943608
-23.934914 -67.137245 1.960975
-24.712392 -66.294998 -0.727278
-24.296307 -66.780438 0.647681
-24.851807 -65.599933 0.29009
-25.80561 -63.96727 -1.367873
-25.395808 -64.482544 -0.066857
-25.933524 -63.335319 -0.34986
-30.564793 -54.438758 -3.615181
-30.808986 -53.862314 -2.775669
-31.206897 -53.287408 -4.067431
-29.985057 -55.523083 -3.210433
-30.564793 -54.438758 -3.615181
-30.382968 -54.948177 -4.502195
-29.385885 -56.611179 -2.779158
-29.985057 -55.523083 -3.210433
-29.385885 -56.611179 -2.779158
-29.205686 -57.188532 -3.733521
-27.913299 -59.991307 -3.783015
-28.48266 -58.891165 -4.250028
-27.790662 -60.60152 -4.750781
-27.346781 -61.15506 -3.403333
-27.913299 -59.991307 -3.783015
-37.68306 -43.132401 -28.158388
-37.647524 -43.479822 -29.076523
-37.256407 -44.624139 -27.913006
-37.68306 -43.132401 -28.158388
-37.730439 -42.741125 -27.290273
-36.931522 -44.205523 -23.207659
-36.495625 -45.279635 -22.153041
-36.979343 -43.76226 -22.463161
-36.898539 -44.626223 -24.077963
-36.931522 -44.205523 -23.207659
-36.834063 -42.300956 -15.562854
-36.337044 -43.580576 -15.222217
-36.418825 -43.212217 -14.387401
-37.179894 -41.435478 -16.691874
-36.834063 -42.300956 -15.562854
-37.148018 -41.694586 -17.508601
-37.179894 -41.435478 -16.691874
-37.824678 -33.293681 -46.025202
-37.87178 -31.57137 -47.088763
-37.374275 -35.025553 -45.736687
-37.836893 -34.812638 -44.908869
-37.824678 -33.293681 -46.025202
-36.809838 -33.609614 -47.670795
-37.375065 -31.805894 -47.877764
-36.822841 -31.908912 -48.695539
-23.602148 -59.451571 -45.039953
-23.502542 -61.035899 -44.217487
-24.552492 -59.029167 -44.56278
-22.57443 -59.893111 -45.472006
-23.602148 -59.451571 -45.039953
-23.624381 -57.886379 -45.817299
-21.514536 -60.310326 -45.911261
-22.57443 -59.893111 -45.472006
-21.565295 -58.698313 -46.612481
-22.625228 -56.598928 -47.04402
-21.593858 -56.969323 -47.407148
-21.514536 -60.310326 -45.911261
-21.565295 -58.698313 -46.612481
-19.184858 -46.965824 -51.932508
-19.282789 -48.829977 -51.24316
-20.270965 -46.788626 -51.827742
-19.184858 -46.965824 -51.932508
-19.078087 -45.182816 -52.526186
3 0 75 73
3 1 286 288
3 286 76 287
3 286 287 288
3 2 79 77
3 2 81 79
3 3 84 82
3 3 86 84
3 3 88 86
3 1 289 291
3 291 290 89
3 289 290 291
3 1 292 293
3 4 92 90
3 4 93 92
3 294 97 295
3 296 295 95
3 294 295 296
3 6 100 98
3 6 102 100
3 8 105 103
3 8 107 105
3 8 109 107
3 297 110 298
3 299 95 300
3 301 300 110
3 299 300 301
3 9 302 304
3 302 111 303
3 302 303 304
3 10 114 112
3 10 116 114
3 5 119 117
3 13 122 120
3 13 124 122
3 7 305 307
3 305 126 306
3 305 306 307
3 14 129 127
3 14 131 129
3 14 133 131
3 15 136 134
3 15 138 136
3 15 140 138
3 12 143 141
3 16 146 144
3 16 148 146
3 11 308 310
3 308 150 309
3 308 309 310
3 17 153 151
3 17 155 153
3 17 157 155
3 18 160 158
3 18 311 313
3 313 312 160
3 311 312 313
3 18 314 315
3 316 162 317
3 21 163 72
3 21 164 163
3 21 318 320
3 320 319 164
3 318 319 320
3 22 167 165
3 24 168 74
3 24 169 168
3 25 172 170
3 27 173 78
3 27 174 173
3 27 176 174
3 29 177 80
3 29 178 177
3 30 181 179
3 32 182 83
3 32 183 182
3 32 185 183
3 34 186 85
3 34 187 186
3 34 189 187
3 321 190 322
3 323 322 87
3 321 322 323
3 325 324 190
3 35 326 328
3 328 327 191
3 326 327 328
3 330 329 91
3 36 331 332
3 36 333 334
3 335 193 336
3 38 337 338
3 38 339 341
3 339 194 340
3 339 340 341
3 342 196 343
3 40 344 346
3 344 197 345
3 344 345 346
3 40 198 197
3 40 200 198
3 42 201 94
3 42 202 201
3 42 204 202
3 43 207 205
3 45 208 96
3 45 209 208
3 19 210 161
3 46 211 99
3 46 212 211
3 46 213 212
3 47 214 101
3 47 215 214
3 48 347 348
3 48 349 351
3 349 216 350
3 349 350 351
3 20 352 354
3 352 217 353
3 352 353 354
3 49 218 104
3 49 219 218
3 49 220 219
3 50 221 106
3 50 222 221
3 50 223 222
3 356 355 108
3 43 357 359
3 357 224 358
3 357 358 359
3 43 205 224
3 51 360 361
3 51 362 363
3 23 225 166
3 52 226 113
3 52 227 226
3 52 228 227
3 53 229 115
3 53 230 229
3 54 233 231
3 364 234 365
3 44 235 206
3 56 236 118
3 56 237 236
3 26 238 171
3 366 239 367
3 28 368 370
3 370 369 175
3 368 369 370
3 57 371 373
3 373 372 121
3 371 372 373
3 57 374 376
3 374 240 375
3 374 375 376
3 57 241 240
3 58 242 123
3 58 243 242
3 377 244 378
3 59 245 125
3 59 246 245
3 31 247 180
3 60 248 128
3 60 379 381
3 381 380 248
3 379 380 381
3 60 382 384
3 382 249 383
3 382 383 384
3 61 250 130
3 61 251 250
3 61 252 251
3 62 253 132
3 62 254 253
3 33 255 184
3 63 256 135
3 63 257 256
3 63 258 257
3 64 259 137
3 64 260 259
3 64 261 260
3 385 262 386
3 387 386 139
3 385 386 387
3 389 388 262
3 391 390 188
3 55 263 232
3 65 264 142
3 65 265 264
3 37 266 192
3 66 267 145
3 66 268 267
3 66 269 268
3 67 270 147
3 67 271 270
3 392 272 393
3 68 273 149
3 68 274 273
3 39 275 195
3 69 276 152
3 69 277 276
3 69 278 277
3 70 279 154
3 70 280 279
3 70 281 280
3 71 282 156
3 71 283 282
3 41 284 199
3 394 285 395
3 396 395 159
3 394 395 396
3 398 397 285
3 401 400 203
3 399 400 401
3 402 72 403
3 402 403 404
3 405 72 406
3 407 21 408
3 409 408 72
3 407 408 409
3 411 410 21
3 73 74 22
3 75 74 73
3 75 24 74
3 76 412 414
3 412 413 414
3 76 415 416
3 77 78 25
3 79 78 77
3 79 27 78
3 79 80 27
3 81 80 79
3 81 29 80
3 82 83 30
3 84 83 82
3 84 32 83
3 84 85 32
3 86 85 84
3 86 34 85
3 86 87 34
3 88 87 86
3 88 417 419
3 419 418 87
3 417 418 419
3 89 420 421
3 423 422 89
3 90 91 35
3 92 91 90
3 92 424 426
3 426 425 91
3 424 425 426
3 92 427 428
3 93 429 431
3 431 430 92
3 429 430 431
3 93 432 434
3 432 36 433
3 432 433 434
3 435 38 436
3 437 40 438
3 439 94 440
3 441 440 40
3 439 440 441
3 442 94 443
3 444 42 445
3 446 445 94
3 444 445 446
3 448 447 42
3 95 96 43
3 97 96 95
3 97 45 96
3 98 99 19
3 100 99 98
3 100 46 99
3 100 101 46
3 102 101 100
3 102 47 101
3 449 48 450
3 103 104 20
3 105 104 103
3 105 49 104
3 105 106 49
3 107 106 105
3 107 50 106
3 107 108 50
3 109 108 107
3 109 451 453
3 453 452 108
3 451 452 453
3 110 454 455
3 110 456 458
3 456 457 458
3 110 459 460
3 95 461 463
3 463 462 110
3 461 462 463
3 95 464 466
3 464 43 465
3 464 465 466
3 111 467 468
3 111 469 471
3 469 51 470
3 469 470 471
3 112 113 23
3 114 113 112
3 114 52 113
3 114 115 52
3 116 115 114
3 116 53 115
3 473 472 54
3 117 118 44
3 119 118 117
3 119 56 118
3 475 474 26
3 120 121 28
3 122 121 120
3 122 57 121
3 122 123 57
3 124 123 122
3 124 58 123
3 476 125 477
3 478 125 479
3 480 59 481
3 482 481 125
3 480 481 482
3 126 483 484
3 126 485 486
3 127 128 31
3 129 128 127
3 129 60 128
3 129 130 60
3 131 130 129
3 131 61 130
3 131 132 61
3 133 132 131
3 133 62 132
3 134 135 33
3 136 135 134
3 136 63 135
3 136 137 63
3 138 137 136
3 138 64 137
3 138 139 64
3 140 139 138
3 140 487 489
3 489 488 139
3 487 488 489
3 141 142 55
3 143 142 141
3 143 65 142
3 144 145 37
3 146 145 144
3 146 66 145
3 146 147 66
3 148 147 146
3 148 67 147
3 490 149 491
3 490 491 492
3 150 493 495
3 493 149 494
3 493 494 495
3 150 68 149
3 151 152 39
3 153 152 151
3 153 69 152
3 153 154 69
3 155 154 153
3 155 70 154
3 155 156 70
3 157 156 155
3 157 71 156
3 158 159 41
3 160 159 158
3 160 496 498
3 498 497 159
3 496 497 498
3 160 499 500
3 502 501 160
3 503 161 504
3 505 161 506
3 507 19 508
3 509 508 161
3 507 508 509
3 510 19 511
3 510 511 512
3 513 98 514
3 515 514 19
3 513 514 515
3 516 98 517
3 518 6 519
3 520 519 98
3 518 519 520
3 162 521 522
3 162 523 525
3 523 20 524
3 523 524 525
3 72 526 528
3 526 162 527
3 526 527 528
3 163 162 72
3 163 20 162
3 163 103 20
3 164 103 163
3 164 8 103
3 164 529 531
3 531 530 8
3 529 530 531
3 533 532 164
3 535 534 21
3 165 166 9
3 167 166 165
3 167 23 166
3 74 167 22
3 168 167 74
3 168 23 167
3 168 112 23
3 169 112 168
3 169 10 112
3 170 171 5
3 172 171 170
3 172 26 171
3 78 172 25
3 173 172 78
3 173 26 172
3 173 536 538
3 538 537 26
3 536 537 538
3 174 539 541
3 541 540 173
3 539 540 541
3 174 542 543
3 174 544 546
3 544 175 545
3 544 545 546
3 176 175 174
3 176 28 175
3 80 176 27
3 177 176 80
3 177 28 176
3 177 120 28
3 178 120 177
3 178 13 120
3 179 180 7
3 181 180 179
3 181 31 180
3 83 181 30
3 182 181 83
3 182 31 181
3 182 127 31
3 183 127 182
3 183 14 127
3 183 184 14
3 185 184 183
3 185 33 184
3 85 185 32
3 186 185 85
3 186 33 185
3 186 134 33
3 187 134 186
3 187 15 134
3 187 188 15
3 189 188 187
3 189 547 549
3 549 548 188
3 547 548 549
3 87 189 34
3 190 189 87
3 190 550 552
3 552 551 189
3 550 551 552
3 190 553 554
3 556 555 190
3 191 557 558
3 560 559 191
3 91 561 563
3 563 562 35
3 561 562 563
3 565 564 91
3 566 192 567
3 568 567 12
3 566 567 568
3 193 569 571
3 569 192 570
3 569 570 571
3 193 37 192
3 572 193 573
3 574 193 575
3 576 37 577
3 578 577 193
3 576 577 578
3 579 144 580
3 581 580 37
3 579 580 581
3 194 582 584
3 582 144 583
3 582 583 584
3 194 16 144
3 585 195 586
3 587 586 11
3 585 586 587
3 196 588 590
3 588 195 589
3 588 589 590
3 196 39 195
3 591 196 592
3 197 593 595
3 593 196 594
3 593 594 595
3 197 39 196
3 197 151 39
3 198 151 197
3 198 17 151
3 198 199 17
3 200 199 198
3 200 41 199
3 94 200 40
3 201 200 94
3 201 41 200
3 201 158 41
3 202 158 201
3 202 18 158
3 202 203 18
3 204 203 202
3 204 596 598
3 598 597 203
3 596 597 598
3 599 204 600
3 601 600 42
3 599 600 601
3 602 204 603
3 605 604 204
3 205 206 1
3 207 206 205
3 207 44 206
3 96 207 43
3 208 207 96
3 208 44 207
3 208 117 44
3 209 117 208
3 209 5 117
3 161 606 608
3 606 97 607
3 606 607 608
3 210 97 161
3 210 45 97
3 99 210 19
3 211 210 99
3 211 45 210
3 211 209 45
3 212 209 211
3 212 5 209
3 212 170 5
3 213 170 212
3 213 25 170
3 101 213 46
3 214 213 101
3 214 25 213
3 214 77 25
3 215 77 214
3 215 2 77
3 216 609 610
3 216 611 613
3 611 7 612
3 611 612 613
3 217 614 615
3 217 616 618
3 616 48 617
3 616 617 618
3 104 217 20
3 218 217 104
3 218 48 217
3 218 216 48
3 219 216 218
3 219 7 216
3 219 179 7
3 220 179 219
3 220 30 179
3 106 220 49
3 221 220 106
3 221 30 220
3 221 82 30
3 222 82 221
3 222 3 82
3 222 619 621
3 621 620 3
3 619 620 621
3 223 622 624
3 624 623 222
3 622 623 624
3 223 625 626
3 108 223 50
3 627 223 628
3 629 628 108
3 627 628 629
3 631 630 223
3 632 109 633
3 634 633 8
3 632 633 634
3 635 109 636
3 639 638 109
3 637 638 639
3 224 640 641
3 224 642 643
3 224 644 646
3 644 89 645
3 644 645 646
3 205 89 224
3 205 1 89
3 166 111 9
3 225 111 166
3 225 51 111
3 113 225 23
3 226 225 113
3 226 51 225
3 226 647 649
3 649 648 51
3 647 648 649
3 227 650 652
3 652 651 226
3 650 651 652
3 227 653 654
3 227 655 657
3 655 191 656
3 655 656 657
3 228 191 227
3 228 35 191
3 115 228 52
3 229 228 115
3 229 35 228
3 229 90 35
3 230 90 229
3 230 4 90
3 658 11 659
3 660 11 661
3 663 662 11
3 231 232 0
3 233 232 231
3 233 55 232
3 664 233 665
3 666 665 54
3 664 665 666
3 667 233 668
3 669 55 670
3 671 670 233
3 669 670 671
3 672 141 673
3 674 673 55
3 672 673 674
3 234 675 677
3 675 141 676
3 675 676 677
3 234 12 141
3 678 234 679
3 680 234 681
3 682 12 683
3 684 683 234
3 682 683 684
3 686 685 12
3 206 76 1
3 235 76 206
3 235 687 689
3 689 688 76
3 687 688 689
3 118 235 44
3 236 235 118
3 236 690 692
3 692 691 235
3 690 691 692
3 236 693 694
3 237 695 697
3 697 696 236
3 695 696 697
3 237 698 699
3 171 119 5
3 238 119 171
3 238 56 119
3 700 238 701
3 702 701 26
3 700 701 702
3 703 238 704
3 705 56 706
3 707 706 238
3 705 706 707
3 708 237 709
3 710 709 56
3 708 709 710
3 711 237 712
3 714 713 237
3 239 715 716
3 239 717 719
3 717 9 718
3 717 718 719
3 175 720 721
3 723 722 175
3 121 724 726
3 726 725 28
3 724 725 726
3 728 727 121
3 729 239 730
3 240 731 733
3 731 239 732
3 731 732 733
3 240 9 239
3 240 165 9
3 241 165 240
3 241 22 165
3 123 241 57
3 242 241 123
3 242 22 241
3 242 73 22
3 243 73 242
3 243 0 73
3 734 6 735
3 736 6 737
3 738 102 739
3 740 739 6
3 738 739 740
3 244 741 743
3 741 102 742
3 741 742 743
3 244 47 102
3 125 744 746
3 744 244 745
3 744 745 746
3 245 244 125
3 245 47 244
3 245 215 47
3 246 215 245
3 246 2 215
3 180 126 7
3 247 126 180
3 247 747 749
3 749 748 126
3 747 748 749
3 128 247 31
3 248 247 128
3 248 750 752
3 752 751 247
3 750 751 752
3 248 753 754
3 756 755 248
3 249 757 758
3 249 759 761
3 759 59 760
3 759 760 761
3 130 249 60
3 250 249 130
3 250 59 249
3 250 246 59
3 251 246 250
3 251 2 246
3 251 81 2
3 252 81 251
3 252 29 81
3 132 252 61
3 253 252 132
3 253 29 252
3 253 178 29
3 254 178 253
3 254 13 178
3 184 133 14
3 255 133 184
3 255 62 133
3 135 255 33
3 256 255 135
3 256 62 255
3 256 254 62
3 257 254 256
3 257 13 254
3 257 124 13
3 258 124 257
3 258 58 124
3 137 258 63
3 259 258 137
3 259 58 258
3 259 243 58
3 260 243 259
3 260 0 243
3 260 231 0
3 261 231 260
3 261 54 231
3 139 261 64
3 262 261 139
3 262 54 261
3 262 762 764
3 764 763 54
3 762 763 764
3 766 765 262
3 188 140 15
3 767 140 768
3 769 768 188
3 767 768 769
3 771 770 140
3 772 88 773
3 774 773 3
3 772 773 774
3 775 88 776
3 778 777 88
3 232 75 0
3 263 75 232
3 263 24 75
3 142 263 55
3 264 263 142
3 264 24 263
3 264 169 24
3 265 169 264
3 265 10 169
3 192 143 12
3 266 143 192
3 266 65 143
3 145 266 37
3 267 266 145
3 267 65 266
3 267 265 65
3 268 265 267
3 268 10 265
3 268 116 10
3 269 116 268
3 269 53 116
3 147 269 66
3 270 269 147
3 270 53 269
3 270 230 53
3 271 230 270
3 271 4 230
3 272 779 780
3 272 781 783
3 781 38 782
3 781 782 783
3 149 784 786
3 784 272 785
3 784 785 786
3 273 272 149
3 273 38 272
3 273 194 38
3 274 194 273
3 274 16 194
3 195 150 11
3 275 150 195
3 275 68 150
3 152 275 39
3 276 275 152
3 276 68 275
3 276 274 68
3 277 274 276
3 277 16 274
3 277 148 16
3 278 148 277
3 278 67 148
3 154 278 69
3 279 278 154
3 279 67 278
3 279 271 67
3 280 271 279
3 280 4 271
3 280 93 4
3 281 93 280
3 281 36 93
3 156 281 70
3 282 281 156
3 282 36 281
3 282 787 789
3 789 788 36
3 787 788 789
3 283 790 792
3 792 791 282
3 790 791 792
3 283 793 794
3 199 157 17
3 284 157 199
3 284 71 157
3 159 284 41
3 285 284 159
3 285 71 284
3 285 283 71
3 795 283 796
3 797 796 285
3 795 796 797
3 799 798 283
3 203 800 802
3 802 801 18
3 800 801 802
3 804 803 203
