ply
format ascii 1.0
element vertex 868
property float x
property float y
property float z
element face 1088
property list uchar int vertex_index
end_header
57.305038 -53.741222 4.077224
70.561867 -40.460625 -26.609884
62.341675 -24.61515 -19.588839
65.982262 -49.162354 -11.06752
60.066856 -69.387543 3.454607
59.026382 -46.117004 0.087723
59.847198 -42.306652 -8.202396
60.631027 -52.616642 -3.025936
62.736511 -69.50174 -4.964161
68.524773 -30.525045 -23.853373
65.808983 -16.631737 -28.29756
61.14053 -31.266651 -11.300512
63.673462 -37.013596 -16.203604
70.167511 -44.238403 -18.93989
56.566299 -58.423592 11.357579
59.840019 -61.142136 3.84658
56.2603 -66.742538 12.187141
60.274921 -55.048592 17.892046
59.804718 -50.243546 8.669014
65.517723 -60.768314 -4.181496
68.69561 -57.673672 -12.475456
68.302597 -55.324787 -20.918177
63.190933 -11.949158 -21.559767
57.796104 -50.355148 2.256149
58.625893 -49.073757 -1.750443
58.488922 -53.392696 0.88679
70.699593 -34.809647 -25.27286
69.829353 -27.366209 -27.642298
70.522453 -32.54982 -28.998243
69.15448 -39.02697 -30.23807
61.970337 -34.152092 -7.419577
62.328842 -45.610992 -9.925209
61.403156 -39.882568 -12.245672
64.903511 -43.102898 -13.892715
67.501892 -40.267464 -17.754683
68.410751 -46.698837 -15.021206
56.087021 -60.734921 15.848844
56.373589 -62.657223 11.944241
55.316513 -64.813309 16.51963
53.514313 -72.412659 16.999815
60.385586 -57.163506 22.78661
57.615032 -58.867374 19.442169
57.599243 -56.642025 14.747515
62.837784 -46.31781 6.685756
63.412018 -48.877068 11.289751
60.783699 -65.368225 3.697577
62.770279 -61.400982 -0.136478
63.311356 -65.637604 -0.432985
66.256828 -63.97575 -8.770992
66.40583 -62.852291 -13.046158
68.896385 -56.212093 -16.720633
65.872154 -62.180626 -17.329668
63.12397 -61.810841 -24.985243
62.202553 -22.10713 -16.28372
63.529869 -16.105694 -16.806616
62.554878 -18.272442 -20.782682
60.957932 -41.597584 -1.947159
60.216057 -39.314621 -6.00754
59.101898 -44.316887 -4.087778
60.164841 -47.59111 -5.857338
63.259605 -51.215237 -7.060976
61.72897 -69.765411 -0.773264
65.032547 -27.315819 -22.085421
64.080551 -20.729996 -23.914698
67.188171 -23.5779 -26.088427
61.247261 -28.124676 -15.359861
60.123737 -36.849487 -10.011497
60.966759 -34.055183 -14.032915
62.732853 -30.864164 -18.0693
66.258423 -33.822239 -20.064962
69.603012 -37.416405 -21.536711
70.937523 -42.131958 -22.821589
56.994057 -55.929203 7.259382
58.222694 -57.011349 3.959323
57.485092 -60.067684 7.705623
58.205032 -64.307419 7.845389
58.074192 -68.332703 7.783916
54.661835 -68.711929 16.852802
55.424728 -70.526665 12.208998
56.546593 -72.065514 7.610638
66.859093 -50.209309 19.196121
63.563576 -53.614086 21.004688
63.625626 -51.381451 16.056986
60.12043 -52.676071 13.188691
57.617531 -54.26302 10.291206
57.592911 -52.019997 6.151187
59.361328 -48.021133 4.32212
60.661758 -57.203789 0.215954
63.572037 -56.571243 -3.749819
66.351746 -55.133663 -7.777079
65.229668 -65.084381 -4.571733
67.573204 -59.381557 -8.28941
68.567116 -53.122738 -11.830324
69.949295 -51.009819 -15.915129
70.382034 -49.271812 -20.010641
69.851906 -48.079468 -24.009378
64.789909 -61.978943 -21.417982
67.000923 -54.854828 -24.833937
68.43647 -47.189983 -27.724489
63.524567 -14.100807 -25.484938
57.455032 -52.246521 3.266505
57.886864 -51.768684 1.46205
57.738106 -53.608295 2.662132
70.922119 -37.468407 -25.950144
70.771721 -33.636753 -27.134214
70.630028 -36.531429 -27.806391
70.060562 -35.657982 -29.646307
69.967842 -39.733124 -28.446184
62.631016 -35.541653 -5.510807
64.154404 -47.349117 -10.562315
63.584915 -44.414856 -11.922812
65.495384 -46.136681 -12.544647
66.803612 -44.832352 -14.505032
67.257576 -47.957737 -13.050098
55.91806 -61.790737 18.19483
55.643333 -62.787544 16.233408
55.376823 -63.796719 18.598675
56.641144 -59.779938 17.686172
65.155899 -47.033932 10.296001
65.320923 -48.344185 12.677906
60.658218 -67.410385 3.587018
62.095085 -65.609192 1.630101
61.778179 -67.661385 1.487493
64.799187 -65.987099 -11.128736
64.637566 -65.655708 -13.273928
66.211761 -62.445908 -15.195877
64.342583 -65.447113 -15.412872
61.906631 -23.335852 -18.024637
62.276489 -20.234844 -18.499407
62.37822 -21.451777 -20.230139
59.91188 -43.881874 -0.96533
59.678932 -42.871685 -3.048523
58.995049 -45.224663 -2.006855
59.395111 -50.782036 -2.465717
59.309601 -48.382416 -3.801807
60.415688 -50.145115 -4.496979
61.57259 -49.366554 -6.532841
61.909508 -52.00177 -5.041971
66.824097 -28.821201 -23.039507
66.176033 -25.454882 -24.085215
67.874008 -27.055496 -24.972055
69.989563 -25.90642 -29.569532
62.351936 -30.00993 -9.814346
61.646065 -26.821552 -13.781019
61.064667 -29.736084 -13.305609
59.63129 -40.756866 -7.146914
60.065842 -38.11554 -8.010296
59.894318 -39.596527 -9.174147
62.466911 -38.499039 -14.236423
61.103165 -36.981388 -13.201864
62.037308 -35.515282 -15.200727
61.750103 -32.509594 -16.051622
63.14624 -33.949303 -17.185228
64.368515 -32.297062 -19.152502
64.962662 -35.446083 -18.146044
69.096306 -42.135056 -18.372309
68.649086 -38.824696 -19.65354
69.966202 -40.834843 -20.285715
70.582817 -39.614517 -22.187506
70.690964 -43.128284 -20.887686
56.799316 -57.184235 9.244229
57.142559 -57.964615 7.534975
56.798798 -59.292294 9.561369
56.363731 -64.732758 12.101545
57.140629 -63.538498 9.908978
57.22892 -65.604065 9.974154
58.299774 -66.359756 7.835892
57.104836 -67.593338 9.98295
54.350494 -71.479904 14.561199
54.620384 -72.333427 12.186087
55.964722 -71.334885 9.893976
54.95575 -73.140739 9.834854
67.726776 -50.448486 23.648275
68.045197 -49.582375 20.972473
66.640518 -51.204353 21.790859
60.327347 -56.145931 20.314945
61.918343 -55.371914 21.914055
61.918327 -54.326027 19.431036
63.621071 -52.542942 18.50576
61.89362 -53.195118 16.997913
61.827255 -51.997009 14.611154
60.212082 -53.885098 15.517117
56.836075 -57.522449 13.087651
57.614594 -55.459415 12.485532
56.952187 -56.32515 10.893545
57.050652 -55.120098 8.792648
61.249138 -48.27198 7.700453
60.930687 -47.087608 5.477626
59.587914 -49.091682 6.476374
58.350346 -50.042835 5.29633
58.46085 -51.092743 7.393367
59.027916 -59.034187 3.902179
59.338875 -57.210491 2.132464
60.367653 -59.264511 1.983129
64.204803 -61.194176 -2.152285
63.32753 -59.074112 -1.973274
64.774185 -58.648441 -3.982853
65.009094 -55.945332 -5.759787
66.106331 -58.01741 -6.00588
62.32703 -69.699219 -2.867985
63.593788 -67.575089 -2.682987
64.21109 -67.273621 -4.771902
67.625793 -60.894184 -10.644691
67.218163 -61.635082 -8.533081
68.255211 -58.531433 -10.372562
68.233696 -56.29213 -10.092669
68.967796 -55.318302 -12.158844
69.372765 -52.04533 -13.868574
69.465141 -54.365746 -14.239817
68.691498 -55.694687 -18.837137
69.762283 -52.76973 -18.423971
69.579071 -52.190845 -20.499567
70.23526 -48.613976 -22.032892
69.186508 -51.749855 -22.532469
63.398735 -65.354919 -19.557348
64.168228 -58.130463 -26.639151
65.158241 -58.346684 -25.001184
67.813217 -51.090981 -26.343775
67.462082 -46.716431 -29.424639
63.285683 -14.061043 -19.138762
63.805359 -11.058707 -19.288439
64.993904 -18.6901 -26.098913
63.752045 -17.415812 -24.744028
64.49572 -15.305319 -27.03348
58.319492 -48.286381 1.176268
58.480919 -47.512688 -0.889606
58.12117 -49.709976 0.275711
58.542141 -51.307362 -0.465736
59.473274 -53.072144 -1.03586
69.87545 -32.502552 -24.582178
69.329636 -28.913742 -25.741568
70.333481 -31.095711 -26.449488
70.456802 -29.774448 -28.328848
69.982582 -31.536972 -30.87229
68.178505 -38.303215 -31.98736
61.455574 -32.732742 -9.34243
60.80558 -43.930531 -9.137062
60.523018 -41.152393 -10.233622
61.829697 -42.759403 -11.155151
63.00042 -41.464691 -13.1467
64.275925 -40.062946 -15.110163
65.598656 -38.580498 -17.045691
66.230354 -41.707275 -15.835741
68.023262 -43.482231 -16.446371
69.395081 -45.441738 -16.983915
56.316582 -59.612148 13.565594
56.403809 -60.543434 11.701454
56.001419 -61.707371 13.930637
55.807076 -63.780903 14.19582
55.633968 -65.805962 14.374484
53.602234 -71.496635 19.412106
58.907825 -58.001106 21.132084
58.835808 -56.940773 18.712828
58.785618 -55.815033 16.3424
57.591061 -57.78307 17.06835
56.722237 -58.679268 15.355884
63.170959 -47.590279 8.966499
61.510487 -49.504044 9.96365
60.476952 -63.269161 3.782195
61.285961 -61.381683 1.865068
61.907791 -63.509041 1.7535
63.300163 -63.52919 -0.280464
64.577667 -63.326958 -2.321295
64.611343 -66.861954 -6.873793
64.800262 -66.409004 -8.992966
66.430504 -63.37952 -10.900747
67.804436 -60.187843 -12.775888
68.903694 -56.881527 -14.594492
67.776947 -59.582081 -14.919363
67.568054 -59.11808 -17.060579
67.196739 -58.803268 -19.175768
62.848083 -19.092159 -16.596766
62.754105 -17.133772 -18.873953
62.841042 -15.095161 -21.231234
62.129898 -39.273033 -2.828999
61.527847 -38.020947 -4.816271
60.530384 -40.467415 -3.9911
59.571358 -41.840199 -5.106995
59.377869 -43.354599 -6.153418
58.796986 -46.733917 -2.963278
59.284519 -45.900391 -5.035135
59.953617 -44.974121 -7.095465
61.178329 -46.671303 -7.901674
62.831795 -48.433052 -8.557384
64.633316 -50.261284 -9.071079
59.047077 -71.315918 3.313047
60.963722 -69.665466 1.330733
59.727673 -71.644531 1.172648
60.289524 -71.820694 -0.941565
63.447075 -25.933084 -20.943701
63.166222 -22.713804 -21.74365
64.510948 -24.032074 -23.023428
65.558716 -22.075956 -25.108015
66.492737 -20.10047 -27.202845
68.689934 -25.31665 -26.912493
67.979729 -21.72427 -28.106676
67.220284 -18.148849 -29.316637
61.653614 -25.123381 -15.870771
61.683357 -26.419786 -17.457567
61.025745 -36.748741 -6.780203
60.680851 -35.43808 -8.741892
60.543232 -34.070892 -10.718531
60.383316 -38.341293 -11.192263
60.420387 -35.499924 -12.018511
60.648876 -32.630516 -12.72027
61.013763 -31.102928 -14.749235
61.629105 -29.478363 -16.801008
62.459976 -27.753448 -18.868204
63.853851 -29.127346 -20.081125
65.624687 -30.578892 -21.102537
67.474861 -32.171513 -21.964788
66.89801 -37.049736 -18.955446
68.095406 -35.505184 -20.843706
69.111572 -33.979881 -22.716673
70.302055 -36.071854 -23.408407
70.907875 -38.491875 -24.076609
70.893188 -41.249184 -24.732409
57.153549 -54.726303 5.471597
57.601345 -55.173183 4.020857
57.410141 -56.58469 5.664412
57.917248 -58.595699 5.756165
58.535545 -60.696548 5.797466
56.9538 -61.422466 9.775856
57.888435 -62.197403 7.804318
59.101112 -62.824078 5.802101
59.455414 -64.927071 5.770986
59.473381 -66.970123 5.703701
59.084721 -68.937759 5.605398
54.951447 -65.778954 18.906399
55.018532 -66.791718 16.720428
55.382648 -67.763657 14.481806
54.174511 -70.578156 16.938126
54.971115 -69.649857 14.536643
55.967339 -68.67215 12.216534
56.69175 -69.498566 9.949953
57.483932 -70.226364 7.702845
58.285126 -70.838242 5.488815
57.135117 -72.704742 5.370707
68.293259 -48.573799 18.356667
67.001984 -49.093395 16.656971
61.906307 -56.32077 24.448032
63.467934 -54.580246 23.557623
65.077011 -52.873119 22.661823
65.244064 -51.891918 20.0882
65.35051 -50.797783 17.570196
65.381332 -49.607628 15.101945
63.560722 -50.150608 13.652984
61.703026 -50.756477 12.267102
59.98587 -51.450405 10.905992
58.736961 -54.638386 14.022362
58.670612 -53.434547 11.75514
58.576492 -52.238113 9.544509
57.603714 -53.096451 8.176566
57.133205 -53.964458 6.814773
57.235069 -52.95525 4.996172
61.446796 -42.729561 0.136585
60.226074 -44.903427 1.147603
60.578705 -45.965652 3.294165
59.161049 -47.036522 2.195846
58.287987 -49.1129 3.233012
57.635277 -51.101112 4.197142
58.402161 -55.291794 2.342196
59.474648 -55.221977 0.491182
60.73494 -54.979256 -1.453695
61.832088 -59.279762 0.018824
62.099747 -56.992023 -1.75325
62.108841 -54.553993 -3.443937
63.530952 -53.938118 -5.451963
64.942741 -53.135944 -7.463396
66.291039 -52.169163 -9.47208
62.772266 -67.713928 -0.59964
64.371124 -65.455383 -2.497681
65.681168 -62.916607 -4.373777
65.860336 -64.569321 -6.661474
66.568863 -62.333588 -6.443237
66.653557 -60.148705 -6.226215
67.272057 -57.21439 -8.042089
67.550735 -54.174343 -9.800289
67.527679 -51.077686 -11.476847
68.610023 -49.916206 -13.479231
69.50174 -48.74704 -15.481451
70.173134 -47.630409 -17.484278
69.727425 -53.500671 -16.331484
70.286888 -50.07325 -17.965734
70.600594 -46.614235 -19.484663
70.768394 -45.725464 -21.473833
70.669159 -44.966259 -23.437799
70.306656 -44.314545 -25.358824
63.929779 -65.358849 -17.51956
65.398773 -62.040783 -19.416986
66.67186 -58.609974 -21.231489
64.035088 -61.926979 -23.287924
65.993378 -58.481934 -23.187197
67.737442 -55.0653 -22.929785
68.593613 -51.403942 -24.491213
69.244644 -47.624191 -25.914328
69.69912 -43.729679 -27.219374
68.880447 -43.161438 -29.006632
67.897919 -42.559799 -30.715212
63.017273 -19.473639 -22.473715
62.992683 -16.222898 -23.116426
63.07048 -12.980146 -23.648283
64.069199 -11.933146 -27.87591
63.384567 -10.803409 -26.105654
63.214149 -9.77467 -24.046835
63.003779 -36.228945 -4.549727
63.631922 -35.040104 -4.860553
55.609671 -63.291172 19.596661
55.647441 -62.793728 18.396752
55.880289 -62.288181 19.394739
55.880289 -62.288181 19.394739
56.270443 -61.30529 19.132599
66.187919 -48.109566 13.422514
66.161866 -47.460553 12.20044
63.637307 -67.122089 -13.366758
63.757409 -67.188091 -12.299083
63.489815 -67.017792 -14.436229
64.490075 -65.551411 -14.3434
63.637307 -67.122089 -13.366758
69.684421 -23.982107 -30.222032
69.897736 -25.228554 -30.552665
61.513246 -29.855536 -11.531596
62.118949 -29.227175 -10.788513
61.746233 -30.638291 -10.557429
61.102598 -30.501368 -12.303061
61.475315 -29.090252 -12.534145
61.513246 -29.855536 -11.531596
54.107101 -73.236683 12.176334
54.068047 -72.811359 13.381718
54.274785 -73.640338 11.000718
54.788067 -72.737083 11.010471
54.107101 -73.236683 12.176334
53.670891 -74.55637 10.976889
54.351856 -74.05677 9.811025
54.274785 -73.640338 11.000718
67.042313 -51.257441 24.047113
67.535488 -50.807018 25.017049
66.499184 -51.635374 23.118405
67.183647 -50.82642 22.719567
67.042313 -51.257441 24.047113
65.134461 -56.375584 -26.617278
64.610466 -56.211952 -27.414385
63.36858 -10.413153 -21.659168
63.675793 -9.967928 -20.523505
63.498146 -11.503933 -20.424103
70.384625 -30.547709 -29.61462
70.351799 -29.160024 -29.279922
70.489627 -31.162134 -28.663545
70.252517 -32.043396 -29.935266
70.114689 -30.041286 -30.551643
70.384625 -30.547709 -29.61462
69.208954 -36.923328 -30.855933
69.661995 -35.238834 -30.560051
69.607521 -37.342476 -29.942189
68.666493 -38.665093 -31.112715
68.720967 -36.561451 -31.730577
69.208954 -36.923328 -30.855933
62.486653 -32.844487 -7.671538
62.877167 -33.597109 -6.742946
61.712955 -33.442417 -8.381004
62.229271 -32.134812 -8.632964
62.486653 -32.844487 -7.671538
58.261429 -58.43424 20.287126
58.300043 -58.944446 21.498382
57.653647 -59.377581 20.653425
63.896168 -67.678436 -9.092052
63.876976 -67.819011 -8.031712
62.525318 -20.599645 -16.440243
62.994361 -20.033944 -15.507221
62.671596 -21.541429 -15.350699
58.712405 -72.43993 2.175006
59.387375 -71.480224 2.242847
58.372107 -72.275623 3.245205
59.445124 -72.874108 -1.018943
59.243475 -72.732013 0.041972
60.496376 -71.8405 -1.991829
59.445124 -72.874108 -1.018943
68.228829 -20.829876 -29.1299
68.592541 -22.682181 -28.49094
67.849106 -19.042165 -29.73488
67.600007 -19.93656 -28.711657
68.228829 -20.829876 -29.1299
67.44154 -17.207898 -30.387888
67.849106 -19.042165 -29.73488
54.845353 -66.239277 20.127251
55.092773 -65.264508 19.962114
54.840184 -67.751824 16.786615
54.79122 -67.257531 17.925911
54.612871 -68.217636 17.992099
61.145947 -56.742138 23.617321
61.182062 -57.206326 24.876722
60.421701 -57.627693 24.046011
61.697847 -43.307424 1.202516
62.42769 -42.256763 0.71455
61.087486 -44.394357 1.708025
60.836435 -43.816494 0.642094
61.697847 -43.307424 1.202516
62.630499 -45.698871 5.56879
63.662045 -45.347096 6.179997
62.885489 -66.988602 -17.581856
63.110218 -66.960507 -16.548179
63.579529 -61.86891 -24.136584
62.977704 -63.637726 -23.267411
62.522144 -63.579657 -24.11607
67.131695 -44.355759 -30.862848
67.680001 -44.638115 -30.069926
66.913776 -46.434075 -30.217562
67.351776 -42.221558 -31.531244
67.131695 -44.355759 -30.862848
64.098545 -15.686566 -15.729592
63.733009 -17.096224 -15.695107
64.3023 -10.84551 -29.078282
64.611187 -12.556864 -28.607132
63.344967 -9.17773 -26.341724
63.546768 -9.697256 -27.346239
63.259758 -8.66336 -25.312315
63.299358 -10.28904 -25.076245
63.344967 -9.17773 -26.341724
63.294254 -8.211818 -24.172809
63.259758 -8.66336 -25.312315
63.207507 -34.291889 -5.788561
63.631922 -35.040104 -4.860553
62.300677 -34.846873 -6.465192
62.877167 -33.597109 -6.742946
63.207507 -34.291889 -5.788561
57.118929 -59.843609 19.756268
57.653647 -59.377581 20.653425
56.631985 -60.299891 18.87827
57.128088 -59.323656 18.56417
57.118929 -59.843609 19.756268
56.279602 -60.785337 17.940501
56.631985 -60.299891 18.87827
56.270443 -61.30529 19.132599
66.079353 -46.805426 11.009488
65.993939 -46.12903 9.811217
65.238411 -47.689059 11.486954
66.079353 -46.805426 11.009488
66.161866 -47.460553 12.20044
63.838219 -67.353786 -11.226487
63.89563 -67.467484 -10.159937
64.718377 -65.821404 -12.201332
63.838219 -67.353786 -11.226487
63.757409 -67.188091 -12.299083
69.597458 -24.773257 -29.222368
69.517353 -25.503151 -28.258751
69.909458 -26.636315 -28.605915
69.597458 -24.773257 -29.222368
69.684421 -23.982107 -30.222032
62.83485 -28.646703 -9.98805
63.208027 -29.464588 -9.05378
62.83485 -28.646703 -9.98805
62.118949 -29.227175 -10.788513
61.766014 -27.632986 -12.77185
62.190376 -26.218498 -12.945616
61.355366 -28.278818 -13.543314
61.766014 -27.632986 -12.77185
61.475315 -29.090252 -12.534145
54.398871 -69.1689 18.072575
54.612871 -68.217636 17.992099
54.349907 -68.674607 19.211871
53.933101 -72.384598 14.569274
53.932403 -71.946281 15.780507
53.515011 -72.850975 15.788582
54.485439 -71.906666 13.373643
53.933101 -72.384598 14.569274
54.068047 -72.811359 13.381718
55.146782 -73.519165 8.679699
55.942204 -72.981552 7.567591
55.751171 -72.603127 8.722746
55.146782 -73.519165 8.679699
54.351856 -74.05677 9.811025
68.093727 -50.024479 24.661544
67.902439 -50.38301 26.030317
67.535488 -50.807018 25.017049
68.286526 -49.669178 23.284385
68.093727 -50.024479 24.661544
67.885987 -50.015431 22.310374
68.445736 -49.236123 21.946485
68.286526 -49.669178 23.284385
62.336769 -67.030952 -19.588602
62.619967 -66.986637 -18.60075
63.067049 -65.364959 -20.519528
62.336769 -67.030952 -19.588602
63.762636 -63.676972 -21.449844
64.094322 -63.666931 -20.487665
63.067049 -65.364959 -20.519528
65.629467 -56.483694 -25.798294
64.663235 -58.238574 -25.820167
65.134461 -56.375584 -26.617278
66.550808 -54.737766 -25.71467
66.079582 -56.600756 -24.917561
65.629467 -56.483694 -25.798294
66.956955 -52.855843 -26.469589
67.40707 -52.972904 -25.588856
66.550808 -54.737766 -25.71467
67.339592 -50.916759 -27.203978
66.956955 -52.855843 -26.469589
67.651218 -48.966261 -27.894334
68.124843 -49.140482 -27.034132
67.339592 -50.916759 -27.203978
67.164024 -48.729484 -28.744409
67.949276 -46.953207 -28.574564
67.651218 -48.966261 -27.894334
66.622379 -48.506655 -29.53161
67.164024 -48.729484 -28.744409
66.913776 -46.434075 -30.217562
66.622379 -48.506655 -29.53161
63.731041 -13.62463 -18.025654
63.853134 -14.646956 -16.859581
63.407776 -15.083368 -17.972689
63.990879 -12.123462 -18.100493
63.731041 -13.62463 -18.025654
63.545521 -12.559875 -19.2136
64.257801 -10.726671 -18.104893
63.990879 -12.123462 -18.100493
64.022599 -9.621185 -19.308134
64.257801 -10.726671 -18.104893
63.893033 -8.530406 -20.5432
64.022599 -9.621185 -19.308134
63.675793 -9.967928 -20.523505
70.118179 -27.226009 -29.900264
70.223183 -27.840434 -28.94919
70.351799 -29.160024 -29.279922
69.897736 -25.228554 -30.552665
70.118179 -27.226009 -29.900264
69.857479 -29.472208 -31.519298
70.114689 -30.041286 -30.551643
69.593223 -31.058504 -31.818004
69.857479 -29.472208 -31.519298
69.623005 -33.17833 -31.173043
70.021572 -33.597477 -30.259298
69.661995 -35.238834 -30.560051
69.593223 -31.058504 -31.818004
69.623005 -33.17833 -31.173043
68.239399 -36.145262 -32.640626
68.720967 -36.561451 -31.730577
67.639122 -37.916229 -32.842866
68.239399 -36.145262 -32.640626
62.677452 -30.773406 -8.868922
63.208027 -29.464588 -9.05378
61.903755 -31.371336 -9.578388
62.677452 -30.773406 -8.868922
62.229271 -32.134812 -8.632964
53.422695 -71.961613 20.680418
53.706058 -71.013576 20.60207
53.263039 -72.428993 19.462926
53.422695 -71.961613 20.680418
53.0835 -72.89397 20.731237
53.219078 -72.887005 18.256781
53.558273 -71.954647 18.205961
53.263039 -72.428993 19.462926
53.096401 -73.333634 17.028949
53.219078 -72.887005 18.256781
53.515011 -72.850975 15.788582
53.096401 -73.333634 17.028949
59.700541 -58.075331 23.192443
60.421701 -57.627693 24.046011
58.96166 -58.494131 22.36518
58.300043 -58.944446 21.498382
59.646706 -57.582306 21.959347
59.700541 -58.075331 23.192443
58.96166 -58.494131 22.36518
63.857869 -46.010742 7.322422
63.662045 -45.347096 6.179997
65.016926 -46.368803 9.127545
65.993939 -46.12903 9.811217
64.024456 -46.646977 8.462794
65.016926 -46.368803 9.127545
64.163429 -47.312106 9.63125
63.004372 -46.954045 7.826128
63.857869 -46.010742 7.322422
64.024456 -46.646977 8.462794
63.782516 -68.045486 -6.972125
63.673927 -68.181847 -5.918977
62.845101 -69.365379 -6.017309
64.705803 -66.635479 -7.933379
63.782516 -68.045486 -6.972125
63.876976 -67.819011 -8.031712
64.799724 -66.198051 -10.060851
63.896168 -67.678436 -9.092052
63.89563 -67.467484 -10.159937
62.032018 -63.509935 -24.900371
62.522144 -63.579657 -24.11607
62.58984 -61.687912 -25.733176
62.032018 -63.509935 -24.900371
63.111969 -59.847723 -26.560129
63.646099 -59.970652 -25.812197
62.58984 -61.687912 -25.733176
63.602279 -57.951166 -27.360859
63.111969 -59.847723 -26.560129
62.54602 -59.668426 -27.281838
64.610466 -56.211952 -27.414385
63.602279 -57.951166 -27.360859
63.392117 -18.589456 -15.590182
62.994361 -20.033944 -15.507221
63.188976 -17.598926 -16.701691
63.733009 -17.096224 -15.695107
63.392117 -18.589456 -15.590182
65.481079 -14.90616 -28.817957
66.11998 -15.616135 -29.406216
61.828873 -38.64699 -3.822635
62.452194 -37.468592 -4.202459
62.75322 -38.094635 -3.208824
58.96255 -72.643932 1.099078
58.712405 -72.43993 2.175006
60.008599 -71.732613 0.115541
58.96255 -72.643932 1.099078
59.243475 -72.732013 0.041972
61.515129 -70.779763 -2.955039
61.308277 -70.759957 -1.904775
60.496376 -71.8405 -1.991829
61.71987 -70.681023 -4.003127
62.531771 -69.60048 -3.916073
61.515129 -70.779763 -2.955039
61.844761 -70.651691 -5.052808
61.71987 -70.681023 -4.003127
62.845101 -69.365379 -6.017309
61.844761 -70.651691 -5.052808
68.947643 -24.478372 -27.893849
69.259643 -26.34143 -27.277396
69.517353 -25.503151 -28.258751
68.334832 -23.52046 -27.509585
68.947643 -24.478372 -27.893849
68.592541 -22.682181 -28.49094
66.825631 -16.374691 -29.915754
66.11998 -15.616135 -29.406216
66.514634 -17.390293 -28.807099
66.825631 -16.374691 -29.915754
67.44154 -17.207898 -30.387888
62.27903 -23.001579 -15.217281
62.671596 -21.541429 -15.350699
62.000786 -25.35879 -13.965931
62.190376 -26.218498 -12.945616
62.00456 -24.509705 -15.010807
62.000786 -25.35879 -13.965931
61.649839 -25.972466 -14.825895
61.928083 -23.615255 -16.077246
62.27903 -23.001579 -15.217281
62.00456 -24.509705 -15.010807
62.079431 -36.7813 -5.163539
63.003779 -36.228945 -4.549727
62.452194 -37.468592 -4.202459
55.305461 -64.27339 19.808252
55.609671 -63.291172 19.596661
55.164135 -64.787836 18.752537
55.305461 -64.27339 19.808252
55.092773 -65.264508 19.962114
54.757677 -66.751148 19.018897
54.845353 -66.239277 20.127251
54.984989 -66.285336 17.813413
54.757677 -66.751148 19.018897
54.79122 -67.257531 17.925911
53.86907 -70.561252 19.352227
53.972894 -70.078194 20.542191
53.706058 -71.013576 20.60207
54.155209 -70.102013 18.115237
53.86907 -70.561252 19.352227
53.888373 -71.037396 18.175116
54.418173 -69.645043 16.895464
54.398871 -69.1689 18.072575
54.155209 -70.102013 18.115237
57.416127 -72.970035 4.274036
58.372107 -72.275623 3.245205
58.091097 -72.01033 4.341877
56.236466 -73.301166 6.447626
56.840855 -72.385128 6.490673
55.942204 -72.981552 7.567591
56.441151 -73.647907 5.317794
56.236466 -73.301166 6.447626
57.416127 -72.970035 4.274036
56.441151 -73.647907 5.317794
68.607788 -48.800968 20.599574
68.445736 -49.236123 21.946485
68.73182 -48.296681 19.291671
68.607788 -48.800968 20.599574
68.169228 -49.078087 19.66457
68.861156 -47.785469 17.973331
69.299717 -47.50835 18.908335
68.73182 -48.296681 19.291671
68.376934 -48.004932 17.075917
68.861156 -47.785469 17.973331
67.731296 -48.26473 16.226069
68.376934 -48.004932 17.075917
67.647621 -48.833597 17.506819
67.02845 -48.484171 15.412046
67.731296 -48.26473 16.226069
61.896181 -56.742428 25.738525
61.182062 -57.206326 24.876722
62.624826 -55.876438 25.305822
61.896181 -56.742428 25.738525
63.40564 -55.006176 24.860618
62.624826 -55.876438 25.305822
62.68712 -55.450508 24.002828
64.164444 -54.155501 24.425472
63.40564 -55.006176 24.860618
64.968983 -53.301937 23.977573
64.164444 -54.155501 24.425472
64.272472 -53.726683 23.109723
65.71743 -52.469757 23.553886
64.968983 -53.301937 23.977573
65.858765 -52.038736 22.226341
66.499184 -51.635374 23.118405
65.71743 -52.469757 23.553886
66.218124 -48.741287 14.634533
67.02845 -48.484171 15.412046
66.191658 -49.350511 15.879458
65.351127 -48.975907 13.889926
66.187919 -48.109566 13.422514
66.218124 -48.741287 14.634533
63.13784 -38.780338 -2.226739
62.75322 -38.094635 -3.208824
62.452074 -39.897731 -1.813448
63.13784 -38.780338 -2.226739
61.866091 -41.060007 -1.372528
61.543915 -40.435308 -2.388079
62.452074 -39.897731 -1.813448
62.110523 -41.625996 -0.330656
62.42769 -42.256763 0.71455
61.202364 -42.163573 -0.905287
61.866091 -41.060007 -1.372528
62.110523 -41.625996 -0.330656
61.676951 -46.08377 4.964725
62.630499 -45.698871 5.56879
61.884236 -46.702709 6.081691
61.50096 -45.522792 3.872994
61.676951 -46.08377 4.964725
60.754696 -46.52663 4.385896
61.263801 -44.92547 2.781306
61.50096 -45.522792 3.872994
60.402389 -45.434539 2.220884
61.087486 -44.394357 1.708025
61.263801 -44.92547 2.781306
63.31662 -67.004638 -15.494836
63.489815 -67.017792 -14.436229
64.136181 -65.402981 -16.466216
63.31662 -67.004638 -15.494836
63.110218 -66.960507 -16.548179
63.664257 -65.356884 -18.538454
62.885489 -66.988602 -17.581856
62.619967 -66.986637 -18.60075
63.385226 -63.65099 -22.384816
62.977704 -63.637726 -23.267411
64.412498 -61.952961 -22.352953
63.762636 -63.676972 -21.449844
63.385226 -63.65099 -22.384816
67.492069 -40.093266 -32.167318
68.038212 -40.431507 -31.351286
67.351776 -42.221558 -31.531244
67.639122 -37.916229 -32.842866
67.492069 -40.093266 -32.167318
64.098545 -15.686566 -15.729592
63.853134 -14.646956 -16.859581
64.824448 -14.24295 -28.185917
65.152352 -15.968528 -27.66552
65.481079 -14.90616 -28.817957
64.28246 -13.619233 -27.454695
64.824448 -14.24295 -28.185917
64.611187 -12.556864 -28.607132
63.889084 -10.262124 -28.231367
64.3023 -10.84551 -29.078282
63.726883 -11.368278 -26.990782
63.889084 -10.262124 -28.231367
63.546768 -9.697256 -27.346239
63.380188 -9.325909 -22.902703
63.36858 -10.413153 -21.659168
63.202541 -10.861914 -22.803301
63.380188 -9.325909 -22.902703
63.294254 -8.211818 -24.172809
3 0 102 100
3 1 105 103
3 1 107 105
3 405 108 406
3 3 111 109
3 3 113 111
3 407 116 408
3 409 408 114
3 407 408 409
3 410 114 411
3 412 119 413
3 4 122 120
3 414 124 415
3 416 126 417
3 418 417 124
3 416 417 418
3 2 129 127
3 5 132 130
3 7 135 133
3 7 137 135
3 9 140 138
3 420 419 141
3 11 421 423
3 423 422 142
3 421 422 423
3 11 424 426
3 424 144 425
3 424 425 426
3 6 147 145
3 12 150 148
3 12 152 150
3 12 154 152
3 13 157 155
3 13 159 157
3 14 162 160
3 16 165 163
3 16 167 165
3 427 169 428
3 429 171 430
3 431 430 169
3 429 430 431
3 434 433 171
3 432 433 434
3 435 172 436
3 437 174 438
3 439 438 172
3 437 438 439
3 17 177 175
3 17 179 177
3 17 181 179
3 14 184 182
3 14 160 184
3 18 188 186
3 18 190 188
3 15 193 191
3 19 196 194
3 19 198 196
3 8 201 199
3 20 204 202
3 20 206 204
3 20 208 206
3 21 211 209
3 21 213 211
3 441 440 215
3 22 220 219
3 22 442 444
3 444 443 220
3 442 443 444
3 10 223 221
3 23 226 224
3 25 227 101
3 25 228 227
3 26 231 229
3 28 232 104
3 28 445 447
3 447 446 232
3 445 446 447
3 28 448 450
3 448 233 449
3 448 449 450
3 29 451 453
3 453 452 106
3 451 452 453
3 29 454 456
3 454 234 455
3 454 455 456
3 30 457 458
3 30 459 461
3 459 235 460
3 459 460 461
3 31 238 236
3 33 239 110
3 33 240 239
3 33 242 240
3 35 243 112
3 35 244 243
3 36 247 245
3 38 248 115
3 38 249 248
3 41 462 464
3 462 251 463
3 462 463 464
3 41 252 251
3 41 254 252
3 36 255 117
3 36 245 255
3 44 256 118
3 44 257 256
3 45 260 258
3 47 261 121
3 47 262 261
3 465 264 466
3 49 265 123
3 49 266 265
3 49 268 266
3 51 269 125
3 51 270 269
3 53 467 469
3 467 271 468
3 467 468 469
3 55 272 128
3 55 273 272
3 56 276 274
3 58 277 131
3 58 278 277
3 24 279 225
3 59 280 134
3 59 281 280
3 59 282 281
3 60 283 136
3 60 284 283
3 470 287 471
3 472 471 285
3 470 471 472
3 473 288 474
3 476 475 288
3 62 291 289
3 64 292 139
3 64 293 292
3 27 294 230
3 477 295 478
3 479 296 480
3 481 480 295
3 479 480 481
3 483 482 296
3 65 297 143
3 65 298 297
3 57 299 275
3 66 300 146
3 66 301 300
3 32 302 237
3 67 303 149
3 67 304 303
3 67 305 304
3 68 306 151
3 68 307 306
3 68 308 307
3 69 309 153
3 69 310 309
3 34 311 241
3 70 312 156
3 70 313 312
3 70 314 313
3 71 315 158
3 71 316 315
3 72 319 317
3 74 320 161
3 74 321 320
3 37 322 246
3 75 323 164
3 75 324 323
3 75 325 324
3 76 326 166
3 76 327 326
3 484 328 485
3 77 486 488
3 486 329 487
3 486 487 488
3 77 330 329
3 39 331 250
3 78 332 168
3 78 333 332
3 78 334 333
3 79 335 170
3 79 336 335
3 79 337 336
3 80 338 173
3 80 339 338
3 40 489 491
3 489 340 490
3 489 490 491
3 81 341 176
3 81 342 341
3 81 343 342
3 82 344 178
3 82 345 344
3 82 346 345
3 83 347 180
3 83 348 347
3 42 349 253
3 84 350 183
3 84 351 350
3 84 352 351
3 72 353 185
3 72 317 353
3 492 355 493
3 494 356 495
3 496 495 355
3 494 495 496
3 43 497 498
3 86 357 187
3 86 358 357
3 86 359 358
3 85 360 189
3 85 354 360
3 73 361 318
3 87 362 192
3 87 363 362
3 46 364 259
3 88 365 195
3 88 366 365
3 88 367 366
3 89 368 197
3 89 369 368
3 61 370 286
3 90 371 200
3 90 372 371
3 48 373 263
3 91 374 203
3 91 375 374
3 91 376 375
3 92 377 205
3 92 378 377
3 92 379 378
3 93 380 207
3 93 381 380
3 50 382 267
3 94 383 210
3 94 384 383
3 94 385 384
3 95 386 212
3 95 387 386
3 499 388 500
3 96 389 214
3 96 390 389
3 52 501 503
3 501 391 502
3 501 502 503
3 97 392 216
3 97 393 392
3 97 394 393
3 98 395 217
3 98 396 395
3 98 397 396
3 504 398 505
3 506 505 218
3 504 505 506
3 508 507 398
3 54 509 510
3 63 399 290
3 99 400 222
3 99 401 400
3 511 402 512
3 513 403 514
3 515 404 516
3 517 516 403
3 515 516 517
3 519 518 404
3 100 101 23
3 102 101 100
3 102 25 101
3 103 104 26
3 105 104 103
3 105 28 104
3 105 106 28
3 107 106 105
3 107 29 106
3 108 520 521
3 108 522 524
3 522 30 523
3 522 523 524
3 109 110 31
3 111 110 109
3 111 33 110
3 111 112 33
3 113 112 111
3 113 35 112
3 114 115 36
3 116 115 114
3 116 38 115
3 525 41 526
3 527 117 528
3 529 528 41
3 527 528 529
3 114 530 532
3 530 117 531
3 530 531 532
3 114 36 117
3 533 118 534
3 119 535 537
3 535 118 536
3 535 536 537
3 119 44 118
3 120 121 45
3 122 121 120
3 122 47 121
3 538 123 539
3 124 540 542
3 540 123 541
3 540 541 542
3 124 49 123
3 124 125 49
3 126 125 124
3 126 51 125
3 127 128 53
3 129 128 127
3 129 55 128
3 130 131 56
3 132 131 130
3 132 58 131
3 133 134 24
3 135 134 133
3 135 59 134
3 135 136 59
3 137 136 135
3 137 60 136
3 138 139 62
3 140 139 138
3 140 64 139
3 141 543 545
3 545 544 27
3 543 544 545
3 547 546 141
3 142 548 549
3 551 550 142
3 552 143 553
3 144 554 556
3 554 143 555
3 554 555 556
3 144 65 143
3 145 146 57
3 147 146 145
3 147 66 146
3 148 149 32
3 150 149 148
3 150 67 149
3 150 151 67
3 152 151 150
3 152 68 151
3 152 153 68
3 154 153 152
3 154 69 153
3 155 156 34
3 157 156 155
3 157 70 156
3 157 158 70
3 159 158 157
3 159 71 158
3 160 161 72
3 162 161 160
3 162 74 161
3 163 164 37
3 165 164 163
3 165 75 164
3 165 166 75
3 167 166 165
3 167 76 166
3 557 77 558
3 557 558 559
3 560 168 561
3 562 561 39
3 560 561 562
3 169 563 565
3 563 168 564
3 563 564 565
3 169 78 168
3 169 170 78
3 171 170 169
3 171 79 170
3 171 566 568
3 568 567 79
3 566 567 568
3 570 569 171
3 172 571 573
3 571 572 573
3 172 574 575
3 172 576 578
3 576 173 577
3 576 577 578
3 174 173 172
3 174 80 173
3 175 176 40
3 177 176 175
3 177 81 176
3 177 178 81
3 179 178 177
3 179 82 178
3 179 180 82
3 181 180 179
3 181 83 180
3 182 183 42
3 184 183 182
3 184 84 183
3 184 185 84
3 160 185 184
3 160 72 185
3 186 187 43
3 188 187 186
3 188 86 187
3 188 189 86
3 190 189 188
3 190 85 189
3 191 192 73
3 193 192 191
3 193 87 192
3 194 195 46
3 196 195 194
3 196 88 195
3 196 197 88
3 198 197 196
3 198 89 197
3 199 200 61
3 201 200 199
3 201 90 200
3 202 203 48
3 204 203 202
3 204 91 203
3 204 205 91
3 206 205 204
3 206 92 205
3 206 207 92
3 208 207 206
3 208 93 207
3 209 210 50
3 211 210 209
3 211 94 210
3 211 212 94
3 213 212 211
3 213 95 212
3 579 214 580
3 581 214 582
3 583 96 584
3 585 584 214
3 583 584 585
3 215 216 52
3 586 216 587
3 588 587 215
3 586 587 588
3 589 97 590
3 591 590 216
3 589 590 591
3 592 217 593
3 594 593 97
3 592 593 594
3 595 217 596
3 597 98 598
3 599 598 217
3 597 598 599
3 600 218 601
3 602 601 98
3 600 601 602
3 603 218 604
3 606 605 218
3 219 607 609
3 609 608 54
3 607 608 609
3 220 610 612
3 612 611 219
3 610 611 612
3 220 613 614
3 220 615 616
3 619 618 220
3 617 618 619
3 221 222 63
3 223 222 221
3 223 99 222
3 224 225 5
3 226 225 224
3 226 24 225
3 101 226 23
3 227 226 101
3 227 24 226
3 227 133 24
3 228 133 227
3 228 7 133
3 229 230 9
3 231 230 229
3 231 27 230
3 104 231 26
3 232 231 104
3 232 27 231
3 232 141 27
3 620 141 621
3 622 621 232
3 620 621 622
3 624 623 141
3 233 625 626
3 233 627 628
3 106 233 28
3 629 233 630
3 631 630 106
3 629 630 631
3 633 632 233
3 234 634 635
3 234 636 637
3 638 142 639
3 235 640 642
3 640 142 641
3 640 641 642
3 235 11 142
3 236 237 6
3 238 237 236
3 238 32 237
3 110 238 31
3 239 238 110
3 239 32 238
3 239 148 32
3 240 148 239
3 240 12 148
3 240 241 12
3 242 241 240
3 242 34 241
3 112 242 33
3 243 242 112
3 243 34 242
3 243 155 34
3 244 155 243
3 244 13 155
3 245 246 14
3 247 246 245
3 247 37 246
3 115 247 36
3 248 247 115
3 248 37 247
3 248 163 37
3 249 163 248
3 249 16 163
3 643 250 644
3 645 250 646
3 645 646 647
3 648 39 649
3 650 649 250
3 648 649 650
3 651 39 652
3 654 653 39
3 655 40 656
3 251 657 658
3 251 659 661
3 659 40 660
3 659 660 661
3 251 175 40
3 252 175 251
3 252 17 175
3 252 253 17
3 254 253 252
3 254 42 253
3 117 254 41
3 255 254 117
3 255 42 254
3 255 182 42
3 245 182 255
3 245 14 182
3 662 43 663
3 118 664 665
3 256 666 668
3 668 667 118
3 666 667 668
3 256 669 671
3 669 43 670
3 669 670 671
3 256 186 43
3 257 186 256
3 257 18 186
3 258 259 15
3 260 259 258
3 260 46 259
3 121 260 45
3 261 260 121
3 261 46 260
3 261 194 46
3 262 194 261
3 262 19 194
3 672 263 673
3 674 673 8
3 672 673 674
3 264 675 677
3 675 263 676
3 675 676 677
3 264 48 263
3 123 678 680
3 678 264 679
3 678 679 680
3 265 264 123
3 265 48 264
3 265 202 48
3 266 202 265
3 266 20 202
3 266 267 20
3 268 267 266
3 268 50 267
3 125 268 49
3 269 268 125
3 269 50 268
3 269 209 50
3 270 209 269
3 270 21 209
3 681 52 682
3 683 52 684
3 685 215 686
3 687 686 52
3 685 686 687
3 688 215 689
3 688 689 690
3 692 691 215
3 271 693 694
3 271 695 697
3 695 54 696
3 695 696 697
3 128 271 53
3 272 271 128
3 272 54 271
3 272 219 54
3 273 219 272
3 273 22 219
3 699 698 10
3 274 700 702
3 700 275 701
3 700 701 702
3 276 275 274
3 276 57 275
3 131 276 56
3 277 276 131
3 277 57 276
3 277 145 57
3 278 145 277
3 278 6 145
3 225 132 5
3 279 132 225
3 279 58 132
3 134 279 24
3 280 279 134
3 280 58 279
3 280 278 58
3 281 278 280
3 281 6 278
3 281 236 6
3 282 236 281
3 282 31 236
3 136 282 59
3 283 282 136
3 283 31 282
3 283 109 31
3 284 109 283
3 284 3 109
3 285 286 4
3 287 286 285
3 287 61 286
3 703 287 704
3 288 705 707
3 705 287 706
3 705 706 707
3 288 61 287
3 288 199 61
3 708 199 709
3 710 709 288
3 708 709 710
3 711 8 712
3 713 712 199
3 711 712 713
3 714 8 715
3 717 716 8
3 289 290 2
3 291 290 289
3 291 63 290
3 139 291 62
3 292 291 139
3 292 63 291
3 292 221 63
3 293 221 292
3 293 10 221
3 230 140 9
3 294 140 230
3 294 64 140
3 718 294 719
3 720 719 27
3 718 719 720
3 295 721 723
3 721 294 722
3 721 722 723
3 295 64 294
3 295 293 64
3 296 293 295
3 296 10 293
3 296 724 726
3 726 725 10
3 724 725 726
3 728 727 296
3 729 53 730
3 143 731 732
3 297 733 735
3 735 734 143
3 733 734 735
3 297 736 738
3 736 53 737
3 736 737 738
3 297 127 53
3 298 127 297
3 298 2 127
3 275 739 741
3 739 108 740
3 739 740 741
3 299 108 275
3 299 30 108
3 146 299 57
3 300 299 146
3 300 30 299
3 300 235 30
3 301 235 300
3 301 11 235
3 237 147 6
3 302 147 237
3 302 66 147
3 149 302 32
3 303 302 149
3 303 66 302
3 303 301 66
3 304 301 303
3 304 11 301
3 304 144 11
3 305 144 304
3 305 65 144
3 151 305 67
3 306 305 151
3 306 65 305
3 306 298 65
3 307 298 306
3 307 2 298
3 307 289 2
3 308 289 307
3 308 62 289
3 153 308 68
3 309 308 153
3 309 62 308
3 309 138 62
3 310 138 309
3 310 9 138
3 241 154 12
3 311 154 241
3 311 69 154
3 156 311 34
3 312 311 156
3 312 69 311
3 312 310 69
3 313 310 312
3 313 9 310
3 313 229 9
3 314 229 313
3 314 26 229
3 158 314 70
3 315 314 158
3 315 26 314
3 315 103 26
3 316 103 315
3 316 1 103
3 317 318 0
3 319 318 317
3 319 73 318
3 161 319 72
3 320 319 161
3 320 73 319
3 320 191 73
3 321 191 320
3 321 15 191
3 246 162 14
3 322 162 246
3 322 74 162
3 164 322 37
3 323 322 164
3 323 74 322
3 323 321 74
3 324 321 323
3 324 15 321
3 324 258 15
3 325 258 324
3 325 45 258
3 166 325 75
3 326 325 166
3 326 45 325
3 326 120 45
3 327 120 326
3 327 4 120
3 742 116 743
3 328 744 746
3 744 116 745
3 744 745 746
3 328 38 116
3 747 328 748
3 329 749 751
3 749 328 750
3 749 750 751
3 329 38 328
3 329 249 38
3 330 249 329
3 330 16 249
3 250 752 754
3 752 753 754
3 331 755 757
3 757 756 250
3 755 756 757
3 331 758 760
3 758 77 759
3 758 759 760
3 168 331 39
3 332 331 168
3 332 77 331
3 332 330 77
3 333 330 332
3 333 16 330
3 333 167 16
3 334 167 333
3 334 76 167
3 170 334 78
3 335 334 170
3 335 76 334
3 335 327 76
3 336 327 335
3 336 4 327
3 336 285 4
3 337 285 336
3 337 761 763
3 763 762 285
3 761 762 763
3 764 337 765
3 766 765 79
3 764 765 766
3 767 337 768
3 770 769 337
3 173 771 772
3 338 773 775
3 775 774 173
3 773 774 775
3 338 776 778
3 776 777 778
3 338 779 780
3 339 781 783
3 783 782 338
3 781 782 783
3 339 784 785
3 340 786 787
3 340 788 789
3 176 340 40
3 341 340 176
3 341 790 792
3 792 791 340
3 790 791 792
3 341 793 794
3 342 795 797
3 797 796 341
3 795 796 797
3 342 798 799
3 342 800 802
3 800 174 801
3 800 801 802
3 343 174 342
3 343 80 174
3 178 343 81
3 344 343 178
3 344 80 343
3 344 339 80
3 345 339 344
3 345 803 805
3 805 804 339
3 803 804 805
3 345 806 808
3 806 119 807
3 806 807 808
3 346 119 345
3 346 44 119
3 180 346 82
3 347 346 180
3 347 44 346
3 347 257 44
3 348 257 347
3 348 18 257
3 253 181 17
3 349 181 253
3 349 83 181
3 183 349 42
3 350 349 183
3 350 83 349
3 350 348 83
3 351 348 350
3 351 18 348
3 351 190 18
3 352 190 351
3 352 85 190
3 185 352 84
3 353 352 185
3 353 85 352
3 353 354 85
3 317 354 353
3 317 0 354
3 809 274 810
3 811 274 812
3 813 56 814
3 815 814 274
3 813 814 815
3 355 816 817
3 355 818 820
3 818 56 819
3 818 819 820
3 355 130 56
3 356 130 355
3 356 5 130
3 187 821 823
3 823 822 43
3 821 822 823
3 357 824 826
3 826 825 187
3 824 825 826
3 357 827 828
3 357 829 831
3 829 356 830
3 829 830 831
3 358 356 357
3 358 5 356
3 358 224 5
3 359 224 358
3 359 23 224
3 189 359 86
3 360 359 189
3 360 23 359
3 360 100 23
3 354 100 360
3 354 0 100
3 318 102 0
3 361 102 318
3 361 25 102
3 192 361 73
3 362 361 192
3 362 25 361
3 362 228 25
3 363 228 362
3 363 7 228
3 259 193 15
3 364 193 259
3 364 87 193
3 195 364 46
3 365 364 195
3 365 87 364
3 365 363 87
3 366 363 365
3 366 7 363
3 366 137 7
3 367 137 366
3 367 60 137
3 197 367 88
3 368 367 197
3 368 60 367
3 368 284 60
3 369 284 368
3 369 3 284
3 286 122 4
3 370 122 286
3 370 47 122
3 200 370 61
3 371 370 200
3 371 47 370
3 371 262 47
3 372 262 371
3 372 19 262
3 263 201 8
3 373 201 263
3 373 90 201
3 203 373 48
3 374 373 203
3 374 90 373
3 374 372 90
3 375 372 374
3 375 19 372
3 375 198 19
3 376 198 375
3 376 89 198
3 205 376 91
3 377 376 205
3 377 89 376
3 377 369 89
3 378 369 377
3 378 3 369
3 378 113 3
3 379 113 378
3 379 35 113
3 207 379 92
3 380 379 207
3 380 35 379
3 380 244 35
3 381 244 380
3 381 13 244
3 267 208 20
3 382 208 267
3 382 93 208
3 210 382 50
3 383 382 210
3 383 93 382
3 383 381 93
3 384 381 383
3 384 13 381
3 384 159 13
3 385 159 384
3 385 71 159
3 212 385 94
3 386 385 212
3 386 71 385
3 386 316 71
3 387 316 386
3 387 1 316
3 832 126 833
3 388 834 836
3 834 126 835
3 834 835 836
3 388 51 126
3 214 837 839
3 837 388 838
3 837 838 839
3 389 388 214
3 389 51 388
3 389 270 51
3 390 270 389
3 390 21 270
3 391 840 841
3 391 842 844
3 842 96 843
3 842 843 844
3 216 391 52
3 392 391 216
3 392 96 391
3 392 390 96
3 393 390 392
3 393 21 390
3 393 213 21
3 394 213 393
3 394 95 213
3 217 394 97
3 395 394 217
3 395 95 394
3 395 387 95
3 396 387 395
3 396 1 387
3 396 107 1
3 397 107 396
3 397 29 107
3 218 397 98
3 398 397 218
3 398 29 397
3 398 234 29
3 845 234 846
3 847 846 398
3 845 846 847
3 849 848 234
3 851 850 54
3 290 129 2
3 399 129 290
3 399 55 129
3 222 399 63
3 400 399 222
3 400 55 399
3 400 273 55
3 401 273 400
3 401 22 273
3 852 223 853
3 854 853 10
3 852 853 854
3 402 855 857
3 855 223 856
3 855 856 857
3 402 99 223
3 858 402 859
3 403 860 862
3 860 402 861
3 860 861 862
3 403 99 402
3 403 401 99
3 404 401 403
3 404 22 401
3 404 863 865
3 865 864 22
3 863 864 865
3 867 866 404
