ply
format ascii 1.0
element vertex 778
property float x
property float y
property float z
element face 955
property list uchar int vertex_index
end_header
49.892799 -87.475082 2.170938
34.883873 -93.958 -23.873701
47.168373 -95.936012 -17.028105
44.38781 -57.398571 -32.334053
62.637047 -68.58847 -13.459587
56.071259 -67.613022 -26.800783
54.57621 -77.284828 2.948848
55.240547 -79.566299 -5.69832
41.956993 -96.531685 -22.793245
51.582611 -82.377319 -21.657412
45.985985 -80.676727 -25.463095
50.118759 -63.651058 -29.787161
39.767792 -76.252441 -27.229063
46.015797 -99.300568 -0.278154
49.567024 -92.42482 -7.603529
46.625519 -93.094917 10.802382
29.223103 -87.831116 -22.990675
34.929256 -68.476196 -27.944872
54.375294 -81.548691 -14.390783
60.567055 -68.763847 -21.456987
51.810539 -81.98848 2.691777
55.095173 -78.526535 -1.392099
52.177193 -83.911346 -1.836981
38.435413 -95.645271 -23.745611
44.025726 -88.799484 -24.040495
40.687157 -87.45845 -24.924772
42.800152 -78.836945 -26.4788
37.428879 -85.355507 -25.304251
44.790222 -102.607834 -5.718697
45.088451 -95.648613 15.338788
44.619171 -98.38826 9.376499
32.286602 -78.409485 -25.147696
30.950947 -73.458336 -24.76779
62.992073 -68.947868 -9.191139
48.63343 -94.477119 -12.514507
51.63961 -87.362144 -11.018845
50.763596 -88.671799 -15.501421
53.87896 -75.118759 -24.076361
56.074715 -75.514832 -21.386412
58.644745 -68.538559 -24.554976
60.844772 -61.142776 -27.767229
58.12339 -59.702122 -29.793745
47.207874 -60.8134 -31.111921
52.398636 -54.849731 -32.79483
57.697136 -73.235329 3.177364
58.600723 -73.927521 -1.096321
59.017822 -74.217331 -5.30805
58.907463 -74.427849 -9.549021
44.96479 -96.634224 -20.581755
49.298115 -89.407669 -19.402502
47.025299 -89.449944 -22.287771
49.047615 -81.853195 -23.968767
51.057739 -74.027893 -25.951754
53.119797 -65.945312 -28.416647
47.975426 -72.281815 -27.335794
44.937458 -69.905457 -28.538153
42.054821 -66.848885 -29.611162
48.318722 -93.410828 1.177897
50.008488 -90.02417 -2.681318
47.876305 -96.410896 -4.031988
46.800507 -99.202751 -9.266108
45.153889 -101.485725 -14.275841
42.833805 -102.994713 -18.506525
39.719009 -103.582237 -21.374392
35.977421 -103.217445 -22.698236
32.076988 -101.92276 -22.843378
53.976295 -75.784882 7.454169
51.334396 -79.970055 7.332267
49.423531 -84.910576 7.063951
47.809769 -87.639832 11.718025
48.1563 -90.436378 6.392812
46.580063 -96.073509 5.201783
43.72213 -101.464073 3.657351
28.519815 -99.698875 -22.370321
31.714642 -91.389351 -23.570326
34.542114 -82.371536 -25.362745
37.058025 -72.817551 -27.719492
39.43026 -63.027561 -30.462366
37.351143 -58.412441 -31.086695
52.118458 -85.714287 -6.394754
54.975708 -80.574326 -10.058662
58.400429 -74.825325 -13.80065
53.330784 -82.240067 -18.390947
57.522411 -75.311523 -17.863333
61.841198 -68.618355 -17.644152
55.251045 -57.542637 -31.373102
50.754669 -84.645645 2.480586
52.035942 -82.965668 0.422511
50.945103 -85.783905 0.141811
36.634102 -94.905479 -23.882822
39.586452 -91.615105 -24.301092
37.859211 -90.774292 -24.473577
39.027069 -86.509331 -25.160711
36.189865 -89.72847 -24.529425
45.265755 -94.351807 18.40136
44.279858 -96.847099 17.627197
43.976376 -98.142105 14.531085
62.877251 -68.720474 -11.324238
47.979042 -95.294312 -14.855526
49.641323 -91.681885 -14.033165
49.009537 -92.307976 -16.236483
54.991512 -71.406296 -25.399549
56.278458 -71.827309 -24.284231
57.427399 -68.172012 -25.778421
59.796234 -64.906029 -26.168062
58.509445 -64.410858 -27.309645
59.521057 -60.521782 -28.859426
57.116051 -63.716854 -28.269751
45.784584 -59.184071 -31.743505
48.382458 -56.258785 -32.566597
46.961548 -54.562851 -33.194534
56.155907 -75.203514 3.056856
58.197426 -73.643333 1.025508
56.526909 -75.721275 0.892951
55.223221 -79.060402 -3.541334
57.008537 -76.490784 -3.360943
57.075623 -76.794151 -5.483103
59.021629 -74.309464 -7.422398
57.027245 -77.092018 -7.617304
43.551384 -96.682106 -21.861994
46.000195 -93.11557 -21.460714
44.587894 -93.012924 -22.593428
45.01218 -84.775925 -24.709955
46.582973 -85.312439 -24.016195
47.556824 -81.34552 -24.79751
50.050468 -77.967712 -24.906805
48.532307 -77.319229 -25.676893
49.525433 -73.233566 -26.681086
46.967228 -76.510818 -26.331205
41.254066 -77.644699 -26.883581
43.855957 -74.401657 -27.441977
42.355591 -73.08313 -27.930246
43.473572 -68.467598 -29.096464
40.908867 -71.572426 -28.36899
47.321697 -96.385818 0.495493
48.181889 -94.91996 -1.42135
46.996002 -97.976929 -2.177553
43.947701 -104.192947 -8.409933
45.848064 -101.068634 -7.528372
45.048767 -102.486107 -10.166935
46.050831 -100.426605 -11.828239
44.101772 -103.759537 -12.717493
41.702961 -105.721817 -17.249205
40.214897 -106.353455 -19.064604
41.374252 -103.407768 -20.135889
38.529419 -106.728325 -20.491438
34.689011 -106.688705 -22.120195
34.013153 -102.685043 -22.881334
30.614281 -105.618637 -22.402544
55.337814 -73.897591 7.524544
53.747963 -74.972801 9.787196
51.214493 -78.965668 9.724075
50.119942 -81.221054 9.671535
50.267555 -82.345322 7.233222
49.231392 -83.668053 9.562346
46.59359 -91.709175 13.665131
47.188454 -89.007645 14.121764
47.256927 -90.362144 11.332678
47.964867 -89.008232 9.038002
47.382225 -91.78511 8.577653
47.479733 -93.270798 5.859294
46.644581 -94.549263 7.981595
44.237656 -99.877304 6.489752
26.834398 -103.558495 -21.938547
25.186104 -102.156288 -21.571585
28.725964 -94.080887 -22.583418
30.367603 -89.740105 -23.311354
33.175423 -86.961395 -24.389456
31.896986 -85.211754 -24.213148
33.648602 -73.4841 -26.482775
34.643108 -75.684906 -26.510931
35.899231 -70.759888 -27.860807
38.251755 -67.930634 -29.056681
37.110806 -65.788445 -29.301378
49.85495 -91.253365 -5.132071
50.980904 -87.984596 -4.552181
50.809254 -89.028427 -6.931192
52.928925 -84.525276 -12.700314
53.23262 -83.901627 -10.469025
54.718044 -81.077332 -12.242447
56.647728 -77.763428 -11.914331
56.335648 -78.128052 -14.041643
50.428452 -85.930969 -20.525583
51.312984 -85.799965 -18.844992
52.55785 -82.388969 -20.137403
58.333023 -72.138443 -21.402662
56.885788 -75.473045 -19.715509
59.087608 -72.078911 -19.652208
59.685066 -71.937973 -17.740858
61.274803 -68.706985 -19.619856
62.735363 -65.375 -21.481707
51.61116 -64.86882 -29.112837
54.18042 -61.784637 -29.837252
52.706577 -60.589218 -30.539446
53.095795 -79.535339 2.836582
54.86866 -77.939781 0.765172
53.347019 -80.347221 0.619023
53.529636 -81.112465 -1.57938
53.611202 -81.840637 -3.777777
40.230965 -96.185974 -23.403502
43.01059 -92.728493 -23.415964
41.322937 -92.263672 -23.967089
42.369999 -88.217918 -24.56629
43.384731 -84.072685 -25.237597
44.38678 -79.84343 -26.011614
41.751415 -83.194099 -25.643927
40.151764 -82.12706 -25.961031
38.614769 -80.856186 -26.20471
44.33371 -102.136719 -1.095409
45.483139 -100.961685 -3.002159
43.59621 -103.862976 -3.840708
42.714676 -105.575508 -6.562748
45.940422 -93.048286 16.025173
45.865734 -94.385002 13.059244
45.780643 -95.782356 10.139459
44.889687 -96.985649 12.326362
28.312464 -85.655167 -22.619139
30.817337 -83.204529 -23.975382
29.9711 -80.936646 -23.691168
31.489187 -76.053329 -24.966673
32.886036 -71.049583 -26.414026
62.95369 -69.229019 -7.070457
49.158516 -93.510147 -10.077465
50.525715 -90.011536 -9.3258
50.138718 -90.90654 -11.708748
51.258469 -88.075165 -13.301624
52.528503 -85.072433 -14.876753
52.738861 -78.771744 -22.832769
53.821976 -78.920151 -21.463472
55.071068 -75.40274 -22.84355
57.39827 -72.066002 -22.953463
59.694149 -68.72496 -23.111994
61.920319 -65.348473 -23.246897
60.940067 -65.20903 -24.8155
62.05571 -61.564983 -26.481108
61.788498 -57.230988 -29.33359
59.087406 -55.564075 -31.363817
48.651596 -62.299572 -30.454821
51.25053 -59.26585 -31.227175
49.811356 -57.822975 -31.905989
50.977982 -53.340069 -33.471275
60.703228 -71.860306 -3.042093
56.821198 -76.144272 -1.240736
58.878769 -74.106232 -3.202776
60.953011 -71.801643 -5.141455
61.040337 -71.6996 -7.249268
60.98217 -71.612869 -9.3696
60.803337 -71.58786 -11.498672
46.170597 -96.385254 -18.957769
48.209614 -92.762466 -18.249041
47.211124 -93.032822 -20.006117
48.266838 -89.517029 -20.989542
49.334213 -85.892593 -21.950502
45.596558 -89.209785 -23.296049
48.040771 -85.685257 -23.108782
50.404377 -82.198334 -22.932196
51.469467 -78.453491 -23.972715
52.526119 -74.65889 -25.099981
53.575356 -70.802238 -26.329054
54.61972 -66.865929 -27.662722
52.078766 -70.024139 -27.120123
50.549576 -69.08432 -27.825102
49.024494 -67.993088 -28.487562
45.398689 -75.540604 -26.911173
46.440361 -71.173874 -27.950029
47.524166 -66.755234 -29.132597
46.055008 -65.368805 -29.764532
44.617111 -63.825871 -30.372225
43.214905 -62.114868 -30.938879
49.126953 -90.419571 1.739603
50.017899 -88.759232 -0.251217
49.143524 -91.827736 -0.772554
49.003777 -93.217461 -3.296988
48.708778 -94.563713 -5.840544
46.500595 -99.550995 -4.855221
47.411102 -97.851067 -6.653364
48.2724 -95.83577 -8.394207
47.706116 -96.99894 -10.928122
47.008125 -98.018387 -13.39023
46.160824 -98.863533 -15.710047
42.993271 -104.84903 -15.106447
44.089287 -102.349312 -16.529539
45.137337 -99.511322 -17.807936
43.913799 -99.947495 -19.608706
42.48251 -100.165909 -21.056555
40.860512 -100.166267 -22.127508
36.671452 -106.839973 -21.504343
37.901737 -103.517792 -22.217199
39.08984 -99.951241 -22.834826
37.230362 -99.523575 -23.224627
35.348866 -98.883781 -23.363348
33.508774 -98.028572 -23.320772
55.747185 -74.591072 5.264881
54.263489 -76.56192 5.175166
52.45882 -76.895248 9.754154
52.599564 -77.791824 7.396065
52.827484 -78.678757 5.091443
51.554218 -80.984924 4.990171
50.504971 -83.494141 4.838979
49.672092 -86.186508 4.603586
48.416969 -84.992798 11.965643
48.538788 -86.280975 9.360888
48.755901 -87.627518 6.79162
48.979023 -89.013359 4.255242
48.297089 -91.909508 3.777258
47.475952 -94.809448 3.169881
46.3797 -97.662285 2.453052
45.623264 -97.254219 7.271729
45.345268 -98.808144 4.45126
44.918316 -100.441223 1.666405
43.065605 -103.145302 0.866116
28.658363 -104.711319 -22.228811
30.229445 -100.92923 -22.655752
31.76395 -96.950562 -23.154833
30.157776 -95.638931 -22.903116
33.23135 -92.790649 -23.761354
34.617435 -88.46257 -24.496889
35.923973 -83.981049 -25.370028
37.164806 -79.366379 -26.378061
33.316872 -80.516159 -25.285646
35.829182 -77.645218 -26.479486
38.360229 -74.64679 -27.509516
39.531586 -69.857758 -28.746767
40.696754 -65.038124 -30.068468
41.866219 -60.224072 -31.451891
32.37994 -68.397751 -26.329115
34.189041 -65.977982 -27.990667
36.156124 -63.43684 -29.493048
38.299557 -60.816109 -30.797422
40.60535 -58.145607 -31.908667
51.02726 -86.899345 -2.196898
52.205917 -84.827209 -4.105391
53.582561 -82.545403 -5.990969
51.925919 -86.565559 -8.704834
53.451996 -83.234428 -8.224236
55.153198 -80.067535 -7.871649
56.879448 -77.412552 -9.764666
58.696167 -74.599686 -11.681311
60.525261 -71.64537 -13.622599
50.122078 -89.122726 -17.555983
52.002277 -85.50737 -16.944502
53.924629 -81.949478 -16.458067
54.704643 -78.904495 -19.866259
55.397224 -78.743454 -18.066866
55.928833 -78.470024 -16.108477
58.01638 -75.077957 -15.87554
60.155888 -71.774895 -15.715754
62.290657 -68.562164 -15.576799
55.659637 -62.834621 -29.095095
56.690308 -58.700676 -30.616758
53.82032 -56.252987 -32.094574
43.852026 -97.378799 18.765669
44.410027 -96.205475 19.202656
43.660049 -98.022614 17.181226
43.852026 -97.378799 18.765669
63.637307 -67.122089 -13.366758
63.757409 -67.188091 -12.299083
62.757149 -68.654472 -12.391913
63.489815 -67.017792 -14.436229
63.637307 -67.122089 -13.366758
44.973461 -55.059248 -33.057113
46.260331 -53.641388 -33.487354
45.674679 -55.980711 -32.764293
44.003647 -104.076565 -10.601278
44.498234 -103.339527 -9.288434
43.453114 -104.929985 -9.722777
43.530149 -104.71328 -11.876558
44.575269 -103.122822 -11.442214
44.003647 -104.076565 -10.601278
38.75066 -107.95591 -19.251846
39.602043 -107.655934 -18.43947
37.907921 -108.143345 -19.965263
39.372158 -106.54089 -19.778021
38.75066 -107.95591 -19.251846
29.884315 -107.353878 -22.174747
31.6304 -105.949036 -22.398041
53.670891 -74.55637 10.976889
54.351856 -74.05677 9.811025
49.647842 -81.850792 10.885261
50.122143 -80.68211 10.911799
49.203567 -83.074292 10.830666
49.675667 -82.444553 9.616941
49.647842 -81.850792 10.885261
23.49815 -103.219174 -21.177198
24.281684 -104.014637 -21.387953
28.36157 -90.047428 -22.596314
27.865781 -89.004261 -22.37764
29.795353 -88.78561 -23.151015
28.93382 -91.001923 -22.756653
28.36157 -90.047428 -22.596314
42.93419 -104.381596 -2.867981
43.96496 -102.999848 -2.468058
43.302941 -103.518467 -1.495332
41.50763 -107.020061 -6.942649
42.03203 -106.133114 -5.595977
42.203851 -106.398246 -7.899028
41.50763 -107.020061 -6.942649
43.783242 -98.812302 13.019657
43.265131 -99.323467 14.091179
27.986329 -84.433472 -22.418264
27.043127 -86.736138 -21.952595
28.815647 -82.074211 -22.954279
29.141782 -83.295907 -23.155154
27.986329 -84.433472 -22.418264
31.220067 -74.755832 -24.867232
30.436713 -77.233139 -24.175646
30.167593 -75.935643 -24.076205
63.896168 -67.678436 -9.092052
63.876976 -67.819011 -8.031712
62.972881 -69.088443 -8.130798
61.940551 -59.457323 -27.924898
62.54602 -59.668426 -27.281838
61.450241 -61.353879 -27.124168
61.316635 -59.186882 -28.55041
62.412414 -57.501429 -28.708078
61.940551 -59.457323 -27.924898
59.291736 -58.09746 -30.104435
59.99057 -58.50729 -29.637276
58.822223 -60.111952 -29.326586
58.605398 -57.633099 -30.578781
59.773744 -56.028436 -30.889471
59.291736 -58.09746 -30.104435
50.2644 -52.529981 -33.79211
49.68022 -54.799427 -33.018936
48.966639 -53.989339 -33.339771
51.544441 -51.101419 -34.302818
50.2644 -52.529981 -33.79211
58.712405 -72.43993 2.175006
58.372107 -72.275623 3.245205
59.445124 -72.874108 -1.018943
59.243475 -72.732013 0.041972
58.399074 -73.785427 -0.035407
59.651976 -72.893913 -2.069207
60.496376 -71.8405 -1.991829
59.445124 -72.874108 -1.018943
41.74487 -106.469594 -15.46359
42.403591 -105.914952 -14.31953
35.025196 -108.368404 -21.471166
36.037278 -108.356491 -21.076364
51.84725 -77.443531 10.957989
52.443843 -76.450672 10.957095
47.79347 -86.991371 13.072595
47.482813 -87.675278 14.274464
47.499111 -88.323738 12.919895
48.113369 -86.316315 11.841834
48.097071 -85.667855 13.196403
47.79347 -86.991371 13.072595
26.904612 -105.957455 -21.894112
27.875749 -106.494 -22.026868
33.038984 -65.842459 -27.174856
32.2516 -66.976608 -26.29151
33.943535 -64.632575 -28.005632
33.284491 -67.187866 -27.159891
33.038984 -65.842459 -27.174856
36.388506 -59.652114 -30.368267
36.98357 -57.124843 -31.217003
36.753633 -60.92464 -30.289872
35.790996 -62.164314 -29.571444
36.388506 -59.652114 -30.368267
41.190798 -55.728601 -32.640655
40.041339 -57.012686 -32.112849
41.822371 -56.794687 -32.392288
41.190798 -55.728601 -32.640655
62.885489 -66.988602 -17.581856
63.110218 -66.960507 -16.548179
62.065928 -68.59026 -16.610475
62.977704 -63.637726 -23.267411
62.522144 -63.579657 -24.11607
56.475166 -56.004526 -31.796277
57.194797 -56.583545 -31.418105
55.970676 -58.121657 -30.99493
44.902975 -94.957829 19.589738
45.369547 -93.710331 19.945868
44.772807 -95.599453 18.014278
44.902975 -94.957829 19.589738
44.410027 -96.205475 19.202656
43.508308 -98.670117 15.63317
44.128117 -97.494602 16.079141
43.660049 -98.022614 17.181226
43.265131 -99.323467 14.091179
43.508308 -98.670117 15.63317
30.006778 -74.553173 -23.92705
30.167593 -75.935643 -24.076205
63.838219 -67.353786 -11.226487
63.89563 -67.467484 -10.159937
62.934662 -68.834171 -10.257689
63.838219 -67.353786 -11.226487
63.757409 -67.188091 -12.299083
48.256183 -53.141373 -33.65374
48.966639 -53.989339 -33.339771
47.672003 -55.410818 -32.880566
47.540318 -52.269518 -33.952636
48.256183 -53.141373 -33.65374
47.540318 -52.269518 -33.952636
46.260331 -53.641388 -33.487354
40.346075 -107.340114 -17.531771
41.099715 -106.905987 -16.534969
40.958929 -106.037636 -18.156904
40.346075 -107.340114 -17.531771
39.602043 -107.655934 -18.43947
32.980927 -108.160686 -21.983494
34.033976 -108.29277 -21.779092
33.667765 -106.48407 -22.256867
32.980927 -108.160686 -21.983494
34.31197 -104.748439 -22.545887
35.333216 -104.953075 -22.409216
33.667765 -106.48407 -22.256867
33.329836 -104.482238 -22.637436
34.995287 -102.951244 -22.789785
34.31197 -104.748439 -22.545887
32.313717 -104.15184 -22.641939
33.329836 -104.482238 -22.637436
31.6304 -105.949036 -22.398041
55.146782 -73.519165 8.679699
55.942204 -72.981552 7.567591
54.542889 -74.435196 8.65587
55.146782 -73.519165 8.679699
54.351856 -74.05677 9.811025
50.669418 -79.554417 10.938069
51.225087 -78.478741 10.942949
50.667217 -80.093361 9.697805
50.669418 -79.554417 10.938069
50.122143 -80.68211 10.911799
46.891022 -90.35841 13.893448
46.906465 -89.696937 15.34063
46.609033 -91.047702 15.112313
43.665177 -100.388771 7.527026
44.428414 -99.132782 7.933126
43.855934 -99.644249 8.970399
43.354062 -101.14864 6.091681
43.665177 -100.388771 7.527026
43.096299 -101.942024 4.67548
43.979893 -100.670688 5.073551
43.354062 -101.14864 6.091681
42.72258 -102.758567 3.270245
43.096299 -101.942024 4.67548
25.105831 -104.71574 -21.571434
25.992629 -105.381043 -21.748979
26.010251 -102.857392 -21.755066
25.105831 -104.71574 -21.571434
24.281684 -104.014637 -21.387953
28.113001 -93.172314 -22.392685
27.19435 -95.284489 -22.090203
29.546784 -91.910496 -22.947386
28.113001 -93.172314 -22.392685
28.93382 -91.001923 -22.756653
37.937439 -55.925541 -31.889089
36.98357 -57.124843 -31.217003
38.414236 -57.146103 -31.701863
37.937439 -55.925541 -31.889089
62.336769 -67.030952 -19.588602
62.619967 -66.986637 -18.60075
61.558 -68.66267 -18.632004
63.067049 -65.364959 -20.519528
62.336769 -67.030952 -19.588602
62.005083 -67.040993 -20.550781
63.762636 -63.676972 -21.449844
63.067049 -65.364959 -20.519528
53.661079 -53.360594 -33.280052
52.962963 -52.632429 -33.634754
42.472797 -105.276848 -4.234957
42.93419 -104.381596 -2.867981
43.155443 -104.719242 -5.201728
42.472797 -105.276848 -4.234957
42.03203 -106.133114 -5.595977
42.820364 -105.706966 -8.82262
43.331188 -104.884228 -7.486341
42.203851 -106.398246 -7.899028
43.453114 -104.929985 -9.722777
42.820364 -105.706966 -8.82262
45.666958 -93.053368 18.710601
45.369547 -93.710331 19.945868
46.004292 -92.401608 17.522507
45.666958 -93.053368 18.710601
45.603088 -93.700046 17.213266
46.282449 -91.717258 16.292334
46.004292 -92.401608 17.522507
46.267006 -92.378731 14.845152
46.609033 -91.047702 15.112313
46.282449 -91.717258 16.292334
44.239897 -98.234073 11.917295
44.433031 -97.563877 13.428724
43.783242 -98.812302 13.019657
44.104639 -98.935379 10.442364
44.754429 -97.686954 10.85143
44.239897 -98.234073 11.917295
43.855934 -99.644249 8.970399
44.104639 -98.935379 10.442364
27.410461 -87.916287 -22.191872
27.043127 -86.736138 -21.952595
28.767784 -86.743142 -22.804907
27.865781 -89.004261 -22.37764
27.410461 -87.916287 -22.191872
29.67767 -79.674797 -23.537894
28.815647 -82.074211 -22.954279
30.730144 -78.494988 -24.328921
29.67767 -79.674797 -23.537894
30.436713 -77.233139 -24.175646
63.782516 -68.045486 -6.972125
62.845101 -69.365379 -6.017309
63.782516 -68.045486 -6.972125
63.876976 -67.819011 -8.031712
63.896168 -67.678436 -9.092052
63.89563 -67.467484 -10.159937
62.032018 -63.509935 -24.900371
62.522144 -63.579657 -24.11607
61.430193 -65.278751 -24.031199
62.58984 -61.687912 -25.733176
62.032018 -63.509935 -24.900371
61.497889 -63.387006 -25.648304
63.111969 -59.847723 -26.560129
62.58984 -61.687912 -25.733176
63.111969 -59.847723 -26.560129
62.54602 -59.668426 -27.281838
62.836033 -55.524929 -29.471066
62.412414 -57.501429 -28.708078
62.208292 -55.1982 -30.097926
62.836033 -55.524929 -29.471066
61.124291 -56.861893 -29.874358
60.654777 -58.876385 -29.096508
59.99057 -58.50729 -29.637276
62.208292 -55.1982 -30.097926
61.124291 -56.861893 -29.874358
60.20497 -53.944675 -31.669598
59.773744 -56.028436 -30.889471
59.541704 -53.437129 -32.171189
60.20497 -53.944675 -31.669598
52.252636 -51.877598 -33.972977
52.962963 -52.632429 -33.634754
51.688309 -54.0949 -33.133052
52.252636 -51.877598 -33.972977
51.544441 -51.101419 -34.302818
58.96255 -72.643932 1.099078
58.712405 -72.43993 2.175006
57.947281 -73.439331 2.101436
58.96255 -72.643932 1.099078
59.243475 -72.732013 0.041972
61.515129 -70.779763 -2.955039
60.496376 -71.8405 -1.991829
61.71987 -70.681023 -4.003127
61.515129 -70.779763 -2.955039
61.844761 -70.651691 -5.052808
61.71987 -70.681023 -4.003127
60.828119 -71.830974 -4.091774
61.95335 -70.515331 -6.105956
62.845101 -69.365379 -6.017309
61.844761 -70.651691 -5.052808
42.957842 -105.370205 -13.125053
43.530149 -104.71328 -11.876558
43.547522 -104.304283 -13.91197
42.957842 -105.370205 -13.125053
42.403591 -105.914952 -14.31953
42.348116 -105.285424 -16.177826
41.74487 -106.469594 -15.46359
41.099715 -106.905987 -16.534969
36.966261 -108.300667 -20.569912
37.907921 -108.143345 -19.965263
37.600436 -106.784149 -20.99789
36.966261 -108.300667 -20.569912
36.037278 -108.356491 -21.076364
35.680232 -106.764339 -21.812269
35.025196 -108.368404 -21.471166
34.033976 -108.29277 -21.779092
57.416127 -72.970035 4.274036
58.372107 -72.275623 3.245205
56.236466 -73.301166 6.447626
55.942204 -72.981552 7.567591
56.441151 -73.647907 5.317794
56.236466 -73.301166 6.447626
55.5425 -74.244332 6.394712
56.722161 -73.9132 4.221122
57.416127 -72.970035 4.274036
56.441151 -73.647907 5.317794
53.088415 -75.489449 10.973616
53.670891 -74.55637 10.976889
53.103392 -75.934024 9.770675
53.088415 -75.489449 10.973616
52.443843 -76.450672 10.957095
51.836657 -77.930458 9.739114
51.84725 -77.443531 10.957989
51.225087 -78.478741 10.942949
47.220883 -88.365173 15.52653
46.906465 -89.696937 15.34063
47.220883 -88.365173 15.52653
47.482813 -87.675278 14.274464
48.44115 -84.385491 13.281727
48.097071 -85.667855 13.196403
48.796356 -83.736664 12.032315
48.44115 -84.385491 13.281727
48.82418 -84.330425 10.763994
49.203567 -83.074292 10.830666
48.796356 -83.736664 12.032315
42.668888 -104.022759 -0.514569
43.302941 -103.518467 -1.495332
43.699658 -102.64101 -0.114647
42.394317 -103.599182 1.874628
43.393867 -102.304688 2.261734
42.72258 -102.758567 3.270245
41.961893 -104.468933 0.492177
42.394317 -103.599182 1.874628
42.668888 -104.022759 -0.514569
41.961893 -104.468933 0.492177
28.853707 -106.947659 -22.113735
29.884315 -107.353878 -22.174747
29.636322 -105.164978 -22.315677
28.853707 -106.947659 -22.113735
27.875749 -106.494 -22.026868
27.746381 -104.134907 -22.083679
26.904612 -105.957455 -21.894112
25.992629 -105.381043 -21.748979
24.466617 -101.326401 -21.35667
23.49815 -103.219174 -21.177198
26.086573 -100.189312 -21.793091
24.466617 -101.326401 -21.35667
27.753428 -98.960605 -22.192459
26.85296 -100.927582 -21.970953
26.086573 -100.189312 -21.793091
27.856503 -96.151612 -22.299008
27.19435 -95.284489 -22.090203
28.572409 -96.930633 -22.458856
27.856503 -96.151612 -22.299008
29.44187 -94.859909 -22.743267
29.338795 -97.668903 -22.636719
27.753428 -98.960605 -22.192459
28.572409 -96.930633 -22.458856
30.811848 -72.051815 -24.673821
30.006778 -74.553173 -23.92705
31.526345 -69.521523 -25.454483
32.2516 -66.976608 -26.29151
31.665443 -70.928044 -25.548453
30.811848 -72.051815 -24.673821
31.526345 -69.521523 -25.454483
34.807455 -63.434885 -28.820253
33.943535 -64.632575 -28.005632
35.172583 -64.707411 -28.741858
34.807455 -63.434885 -28.820253
35.790996 -62.164314 -29.571444
38.888443 -58.347937 -31.557227
37.82535 -59.614275 -30.942059
38.414236 -57.146103 -31.701863
39.452454 -59.480858 -31.353045
38.888443 -58.347937 -31.557227
40.041339 -57.012686 -32.112849
42.452805 -57.83392 -32.163899
41.235785 -59.184839 -31.680279
41.822371 -56.794687 -32.392288
43.7136 -56.421169 -32.60498
43.127015 -58.811321 -31.892972
42.452805 -57.83392 -32.163899
44.973461 -55.059248 -33.057113
43.7136 -56.421169 -32.60498
63.31662 -67.004638 -15.494836
63.489815 -67.017792 -14.436229
62.463852 -68.575317 -14.518193
63.31662 -67.004638 -15.494836
63.110218 -66.960507 -16.548179
62.885489 -66.988602 -17.581856
62.619967 -66.986637 -18.60075
63.385226 -63.65099 -22.384816
62.327841 -65.361737 -22.364302
62.977704 -63.637726 -23.267411
63.762636 -63.676972 -21.449844
63.385226 -63.65099 -22.384816
58.393346 -55.015245 -31.791635
57.888857 -57.132376 -30.990288
57.194797 -56.583545 -31.418105
59.541704 -53.437129 -32.171189
58.393346 -55.015245 -31.791635
54.371921 -54.062221 -32.929924
53.109478 -55.551359 -32.444702
53.661079 -53.360594 -33.280052
55.065689 -54.740122 -32.554364
54.371921 -54.062221 -32.929924
55.781052 -55.384947 -32.193627
54.535683 -56.897812 -31.733838
55.065689 -54.740122 -32.554364
56.475166 -56.004526 -31.796277
55.781052 -55.384947 -32.193627
3 0 88 86
3 1 91 89
3 1 93 91
3 351 95 352
3 354 353 95
3 4 355 357
3 357 356 97
3 355 356 357
3 4 358 359
3 2 100 98
3 5 103 101
3 5 105 103
3 5 107 105
3 3 110 108
3 3 360 362
3 362 361 110
3 360 361 362
3 6 113 111
3 7 116 114
3 7 118 116
3 8 121 119
3 10 124 122
3 10 126 124
3 10 128 126
3 12 131 129
3 12 133 131
3 13 136 134
3 363 139 364
3 365 364 137
3 363 364 365
3 366 141 367
3 368 367 139
3 366 367 368
3 369 143 370
3 371 145 372
3 373 372 143
3 371 372 373
3 374 148 375
3 376 150 377
3 378 152 379
3 380 154 381
3 382 381 152
3 380 381 382
3 15 157 155
3 15 159 157
3 15 161 159
3 383 164 384
3 16 385 386
3 16 387 389
3 387 166 388
3 387 388 389
3 16 168 166
3 17 171 169
3 17 173 171
3 14 176 174
3 18 179 177
3 18 181 179
3 9 184 182
3 19 187 185
3 19 189 187
3 19 190 189
3 11 193 191
3 20 196 194
3 22 197 87
3 22 198 197
3 23 201 199
3 25 202 90
3 25 203 202
3 25 205 203
3 27 206 92
3 27 207 206
3 390 210 391
3 392 391 208
3 390 391 392
3 393 211 394
3 396 395 211
3 29 212 94
3 29 213 212
3 29 215 213
3 398 397 96
3 399 216 400
3 401 218 402
3 403 402 216
3 401 402 403
3 32 404 406
3 404 219 405
3 404 405 406
3 32 220 219
3 33 407 409
3 409 408 221
3 407 408 409
3 34 224 222
3 36 225 99
3 36 226 225
3 37 229 227
3 39 230 102
3 39 231 230
3 39 233 231
3 40 234 104
3 40 410 412
3 412 411 234
3 410 411 412
3 40 413 415
3 413 235 414
3 413 414 415
3 41 416 418
3 418 417 106
3 416 417 418
3 41 419 421
3 419 236 420
3 419 420 421
3 42 239 237
3 422 240 423
3 424 423 109
3 422 423 424
3 426 425 240
3 44 427 428
3 45 429 431
3 431 430 112
3 429 430 431
3 45 432 434
3 432 241 433
3 432 433 434
3 21 242 195
3 46 243 115
3 46 244 243
3 46 245 244
3 47 246 117
3 47 247 246
3 48 250 248
3 50 251 120
3 50 252 251
3 24 253 200
3 51 254 123
3 51 255 254
3 51 256 255
3 52 257 125
3 52 258 257
3 52 260 258
3 54 261 127
3 54 262 261
3 26 263 204
3 55 264 130
3 55 265 264
3 55 266 265
3 56 267 132
3 56 268 267
3 57 271 269
3 59 272 135
3 59 273 272
3 28 274 209
3 60 275 138
3 60 276 275
3 60 277 276
3 61 278 140
3 61 279 278
3 435 280 436
3 62 281 142
3 62 282 281
3 62 283 282
3 63 284 144
3 63 285 284
3 437 286 438
3 64 287 146
3 64 288 287
3 64 289 288
3 65 290 147
3 65 291 290
3 66 292 149
3 66 293 292
3 439 294 440
3 67 295 151
3 67 296 295
3 67 297 296
3 68 298 153
3 68 299 298
3 69 441 443
3 443 442 156
3 441 442 443
3 69 444 446
3 444 300 445
3 444 445 446
3 69 301 300
3 70 302 158
3 70 303 302
3 70 304 303
3 71 305 160
3 71 306 305
3 30 307 214
3 72 308 162
3 72 309 308
3 72 310 309
3 447 311 448
3 73 312 163
3 73 313 312
3 74 314 165
3 74 315 314
3 74 316 315
3 75 317 167
3 75 318 317
3 31 319 217
3 76 320 170
3 76 321 320
3 76 322 321
3 77 323 172
3 77 324 323
3 449 325 450
3 451 326 452
3 453 452 325
3 451 452 453
3 78 454 455
3 78 456 458
3 456 327 457
3 456 457 458
3 78 328 327
3 459 329 460
3 462 461 329
3 58 330 270
3 79 331 175
3 79 332 331
3 35 333 223
3 80 334 178
3 80 335 334
3 80 336 335
3 81 337 180
3 81 338 337
3 49 339 249
3 82 340 183
3 82 341 340
3 38 342 228
3 83 343 186
3 83 344 343
3 83 345 344
3 84 346 188
3 84 347 346
3 84 463 465
3 465 464 347
3 463 464 465
3 467 466 232
3 53 348 259
3 85 349 192
3 85 468 470
3 470 469 349
3 468 469 470
3 43 350 238
3 86 87 20
3 88 87 86
3 88 22 87
3 89 90 23
3 91 90 89
3 91 25 90
3 91 92 25
3 93 92 91
3 93 27 92
3 471 94 472
3 95 473 475
3 473 94 474
3 473 474 475
3 95 29 94
3 95 96 29
3 476 96 477
3 478 477 95
3 476 477 478
3 480 479 96
3 481 32 482
3 97 483 485
3 485 484 33
3 483 484 485
3 487 486 97
3 98 99 34
3 100 99 98
3 100 36 99
3 101 102 37
3 103 102 101
3 103 39 102
3 103 104 39
3 105 104 103
3 105 40 104
3 105 106 40
3 107 106 105
3 107 41 106
3 108 109 42
3 110 109 108
3 110 488 490
3 490 489 109
3 488 489 490
3 110 491 492
3 494 493 110
3 111 112 44
3 113 112 111
3 113 45 112
3 114 115 21
3 116 115 114
3 116 46 115
3 116 117 46
3 118 117 116
3 118 47 117
3 119 120 48
3 121 120 119
3 121 50 120
3 122 123 24
3 124 123 122
3 124 51 123
3 124 125 51
3 126 125 124
3 126 52 125
3 126 127 52
3 128 127 126
3 128 54 127
3 129 130 26
3 131 130 129
3 131 55 130
3 131 132 55
3 133 132 131
3 133 56 132
3 134 135 57
3 136 135 134
3 136 59 135
3 137 138 28
3 139 138 137
3 139 60 138
3 139 140 60
3 141 140 139
3 141 61 140
3 495 142 496
3 143 497 499
3 497 142 498
3 497 498 499
3 143 62 142
3 143 144 62
3 145 144 143
3 145 63 144
3 500 146 501
3 502 146 503
3 504 64 505
3 506 505 146
3 504 505 506
3 507 147 508
3 509 508 64
3 507 508 509
3 148 510 512
3 510 147 511
3 510 511 512
3 148 65 147
3 513 149 514
3 150 515 517
3 515 149 516
3 515 516 517
3 150 66 149
3 518 151 519
3 152 520 522
3 520 151 521
3 520 521 522
3 152 67 151
3 152 153 67
3 154 153 152
3 154 68 153
3 155 523 525
3 523 156 524
3 523 524 525
3 157 156 155
3 157 69 156
3 157 158 69
3 159 158 157
3 159 70 158
3 159 160 70
3 161 160 159
3 161 71 160
3 526 162 527
3 528 527 30
3 526 527 528
3 529 162 530
3 531 72 532
3 533 532 162
3 531 532 533
3 535 534 72
3 536 163 537
3 164 538 540
3 538 163 539
3 538 539 540
3 164 73 163
3 541 165 542
3 166 543 545
3 543 165 544
3 543 544 545
3 166 74 165
3 166 167 74
3 168 167 166
3 168 75 167
3 169 170 31
3 171 170 169
3 171 76 170
3 171 172 76
3 173 172 171
3 173 77 172
3 546 78 547
3 549 548 78
3 174 175 58
3 176 175 174
3 176 79 175
3 177 178 35
3 179 178 177
3 179 80 178
3 179 180 80
3 181 180 179
3 181 81 180
3 182 183 49
3 184 183 182
3 184 82 183
3 185 186 38
3 187 186 185
3 187 83 186
3 187 188 83
3 189 188 187
3 189 84 188
3 189 550 552
3 552 551 84
3 550 551 552
3 190 553 555
3 555 554 189
3 553 554 555
3 190 556 557
3 191 192 53
3 193 192 191
3 193 85 192
3 559 558 43
3 194 195 6
3 196 195 194
3 196 21 195
3 87 196 20
3 197 196 87
3 197 21 196
3 197 114 21
3 198 114 197
3 198 7 114
3 199 200 8
3 201 200 199
3 201 24 200
3 90 201 23
3 202 201 90
3 202 24 201
3 202 122 24
3 203 122 202
3 203 10 122
3 203 204 10
3 205 204 203
3 205 26 204
3 92 205 25
3 206 205 92
3 206 26 205
3 206 129 26
3 207 129 206
3 207 12 129
3 208 209 13
3 210 209 208
3 210 28 209
3 560 210 561
3 211 562 564
3 562 210 563
3 562 563 564
3 211 28 210
3 211 137 28
3 565 137 566
3 567 566 211
3 565 566 567
3 569 568 137
3 94 570 571
3 212 572 574
3 574 573 94
3 572 573 574
3 212 575 576
3 212 577 579
3 577 155 578
3 577 578 579
3 213 155 212
3 213 15 155
3 213 214 15
3 215 214 213
3 215 30 214
3 96 215 29
3 580 215 581
3 582 581 96
3 580 581 582
3 583 30 584
3 585 584 215
3 583 584 585
3 587 586 30
3 216 588 589
3 216 590 592
3 590 16 591
3 590 591 592
3 216 217 16
3 218 217 216
3 218 31 217
3 593 218 594
3 219 595 597
3 595 218 596
3 595 596 597
3 219 31 218
3 219 169 31
3 220 169 219
3 220 17 169
3 221 598 599
3 601 600 221
3 603 602 33
3 222 223 14
3 224 223 222
3 224 35 223
3 99 224 34
3 225 224 99
3 225 35 224
3 225 177 35
3 226 177 225
3 226 18 177
3 227 228 9
3 229 228 227
3 229 38 228
3 102 229 37
3 230 229 102
3 230 38 229
3 230 185 38
3 231 185 230
3 231 19 185
3 231 232 19
3 233 232 231
3 233 604 606
3 606 605 232
3 604 605 606
3 104 233 39
3 234 233 104
3 234 607 609
3 609 608 233
3 607 608 609
3 234 610 611
3 613 612 234
3 235 614 615
3 235 616 617
3 106 235 40
3 618 235 619
3 620 619 106
3 618 619 620
3 622 621 235
3 236 623 624
3 236 625 626
3 237 238 11
3 239 238 237
3 239 43 238
3 109 239 42
3 240 239 109
3 240 43 239
3 240 627 629
3 629 628 43
3 627 628 629
3 631 630 240
3 112 632 634
3 634 633 44
3 632 633 634
3 636 635 112
3 241 637 638
3 241 639 640
3 195 113 6
3 242 113 195
3 242 45 113
3 115 242 21
3 243 242 115
3 243 45 242
3 243 241 45
3 244 241 243
3 244 641 643
3 643 642 241
3 641 642 643
3 244 644 646
3 644 221 645
3 644 645 646
3 245 221 244
3 245 33 221
3 117 245 46
3 246 245 117
3 246 33 245
3 246 97 33
3 247 97 246
3 247 4 97
3 248 249 2
3 250 249 248
3 250 49 249
3 120 250 48
3 251 250 120
3 251 49 250
3 251 182 49
3 252 182 251
3 252 9 182
3 200 121 8
3 253 121 200
3 253 50 121
3 123 253 24
3 254 253 123
3 254 50 253
3 254 252 50
3 255 252 254
3 255 9 252
3 255 227 9
3 256 227 255
3 256 37 227
3 125 256 51
3 257 256 125
3 257 37 256
3 257 101 37
3 258 101 257
3 258 5 101
3 258 259 5
3 260 259 258
3 260 53 259
3 127 260 52
3 261 260 127
3 261 53 260
3 261 191 53
3 262 191 261
3 262 11 191
3 204 128 10
3 263 128 204
3 263 54 128
3 130 263 26
3 264 263 130
3 264 54 263
3 264 262 54
3 265 262 264
3 265 11 262
3 265 237 11
3 266 237 265
3 266 42 237
3 132 266 55
3 267 266 132
3 267 42 266
3 267 108 42
3 268 108 267
3 268 3 108
3 269 270 0
3 271 270 269
3 271 58 270
3 135 271 57
3 272 271 135
3 272 58 271
3 272 174 58
3 273 174 272
3 273 14 174
3 209 136 13
3 274 136 209
3 274 59 136
3 138 274 28
3 275 274 138
3 275 59 274
3 275 273 59
3 276 273 275
3 276 14 273
3 276 222 14
3 277 222 276
3 277 34 222
3 140 277 60
3 278 277 140
3 278 34 277
3 278 98 34
3 279 98 278
3 279 2 98
3 647 141 648
3 280 649 651
3 649 141 650
3 649 650 651
3 280 61 141
3 142 652 654
3 652 280 653
3 652 653 654
3 281 280 142
3 281 61 280
3 281 279 61
3 282 279 281
3 282 2 279
3 282 248 2
3 283 248 282
3 283 48 248
3 144 283 62
3 284 283 144
3 284 48 283
3 284 119 48
3 285 119 284
3 285 8 119
3 655 145 656
3 286 657 659
3 657 145 658
3 657 658 659
3 286 63 145
3 146 660 662
3 660 286 661
3 660 661 662
3 287 286 146
3 287 63 286
3 287 285 63
3 288 285 287
3 288 8 285
3 288 199 8
3 289 199 288
3 289 23 199
3 147 289 64
3 290 289 147
3 290 23 289
3 290 89 23
3 291 89 290
3 291 1 89
3 663 44 664
3 149 665 666
3 292 667 669
3 669 668 149
3 667 668 669
3 292 670 672
3 670 44 671
3 670 671 672
3 292 111 44
3 293 111 292
3 293 6 111
3 673 150 674
3 294 675 677
3 675 150 676
3 675 676 677
3 294 66 150
3 151 678 680
3 678 294 679
3 678 679 680
3 295 294 151
3 295 66 294
3 295 293 66
3 296 293 295
3 296 6 293
3 296 194 6
3 297 194 296
3 297 20 194
3 153 297 67
3 298 297 153
3 298 20 297
3 298 86 20
3 299 86 298
3 299 0 86
3 156 681 682
3 684 683 156
3 300 685 686
3 300 687 688
3 300 689 691
3 689 154 690
3 689 690 691
3 301 154 300
3 301 68 154
3 158 301 69
3 302 301 158
3 302 68 301
3 302 299 68
3 303 299 302
3 303 0 299
3 303 269 0
3 304 269 303
3 304 57 269
3 160 304 70
3 305 304 160
3 305 57 304
3 305 134 57
3 306 134 305
3 306 13 134
3 214 161 15
3 307 161 214
3 307 71 161
3 162 307 30
3 308 307 162
3 308 71 307
3 308 306 71
3 309 306 308
3 309 13 306
3 309 208 13
3 310 208 309
3 310 692 694
3 694 693 208
3 692 693 694
3 695 310 696
3 697 696 72
3 695 696 697
3 698 310 699
3 701 700 310
3 702 148 703
3 311 704 706
3 704 148 705
3 704 705 706
3 311 65 148
3 163 707 709
3 707 311 708
3 707 708 709
3 312 311 163
3 312 65 311
3 312 291 65
3 313 291 312
3 313 1 291
3 710 164 711
3 712 164 713
3 714 73 715
3 716 715 164
3 714 715 716
3 165 717 718
3 314 719 721
3 721 720 165
3 719 720 721
3 314 722 724
3 722 73 723
3 722 723 724
3 314 313 73
3 315 313 314
3 315 1 313
3 315 93 1
3 316 93 315
3 316 27 93
3 167 316 74
3 317 316 167
3 317 27 316
3 317 207 27
3 318 207 317
3 318 12 207
3 217 168 16
3 319 168 217
3 319 75 168
3 170 319 31
3 320 319 170
3 320 75 319
3 320 318 75
3 321 318 320
3 321 12 318
3 321 133 12
3 322 133 321
3 322 56 133
3 172 322 76
3 323 322 172
3 323 56 322
3 323 268 56
3 324 268 323
3 324 3 268
3 725 32 726
3 325 727 728
3 325 729 731
3 729 32 730
3 729 730 731
3 325 220 32
3 326 220 325
3 326 17 220
3 732 326 733
3 327 734 736
3 734 326 735
3 734 735 736
3 327 17 326
3 327 173 17
3 328 173 327
3 328 77 173
3 737 328 738
3 739 738 78
3 737 738 739
3 329 740 742
3 740 328 741
3 740 741 742
3 329 77 328
3 329 324 77
3 743 324 744
3 745 744 329
3 743 744 745
3 746 3 747
3 748 747 324
3 746 747 748
3 750 749 3
3 270 88 0
3 330 88 270
3 330 22 88
3 175 330 58
3 331 330 175
3 331 22 330
3 331 198 22
3 332 198 331
3 332 7 198
3 223 176 14
3 333 176 223
3 333 79 176
3 178 333 35
3 334 333 178
3 334 79 333
3 334 332 79
3 335 332 334
3 335 7 332
3 335 118 7
3 336 118 335
3 336 47 118
3 180 336 80
3 337 336 180
3 337 47 336
3 337 247 47
3 338 247 337
3 338 4 247
3 249 100 2
3 339 100 249
3 339 36 100
3 183 339 49
3 340 339 183
3 340 36 339
3 340 226 36
3 341 226 340
3 341 18 226
3 228 184 9
3 342 184 228
3 342 82 184
3 186 342 38
3 343 342 186
3 343 82 342
3 343 341 82
3 344 341 343
3 344 18 341
3 344 181 18
3 345 181 344
3 345 81 181
3 188 345 83
3 346 345 188
3 346 81 345
3 346 338 81
3 347 338 346
3 347 4 338
3 347 751 753
3 753 752 4
3 751 752 753
3 755 754 347
3 757 756 84
3 232 190 19
3 758 190 759
3 760 759 232
3 758 759 760
3 762 761 190
3 259 107 5
3 348 107 259
3 348 41 107
3 192 348 53
3 349 348 192
3 349 41 348
3 349 236 41
3 763 236 764
3 765 764 349
3 763 764 765
3 767 766 236
3 238 193 11
3 350 193 238
3 350 85 193
3 768 350 769
3 770 769 43
3 768 769 770
3 771 350 772
3 773 85 774
3 775 774 350
3 773 774 775
3 777 776 85
