ply
format ascii 1.0
element vertex 833
property float x
property float y
property float z
element face 974
property list uchar int vertex_index
end_header
3.192894 -40.244576 37.971535
-2.725733 -58.574894 3.758702
-7.012196 -82.973381 20.524376
-0.572479 -67.975571 36.834274
1.566952 -63.66124 20.244999
-8.017303 -70.113129 4.636198
-5.059523 -86.424789 29.708662
0.06814 -80.667374 47.98737
-0.578346 -69.528137 46.014252
-1.030396 -79.537888 37.905888
-2.147373 -77.115189 28.699833
4.723461 -25.084797 37.464714
3.046612 -52.785965 29.880951
2.462662 -28.929787 43.979141
-9.163219 -80.607254 12.313556
0.34025 -43.184113 44.848148
-1.474325 -56.770485 45.156799
0.85845 -54.307819 37.471218
0.844347 -65.863525 28.624966
-2.750475 -74.149933 20.030643
-4.517588 -71.774597 11.751742
0.476433 -61.371796 11.594064
-10.239424 -75.039536 5.499653
-1.268017 -85.322357 43.870934
-0.379501 -80.261703 42.860802
4.017384 -32.92202 37.802658
4.011803 -39.449402 34.321423
3.978996 -46.022102 30.342216
3.136776 -46.523685 34.175537
3.21386 -21.142952 43.495796
-4.916077 -57.096714 0.354098
-7.996157 -81.633194 16.261808
-0.782005 -68.847092 41.275337
-1.330219 -63.333359 45.421791
-1.010855 -62.306473 41.082718
-0.470379 -55.426956 41.251221
-0.141935 -61.278954 37.007317
1.00971 -60.314655 33.110176
0.062551 -66.961578 32.666206
-4.609783 -80.214409 24.703579
-2.440306 -75.610703 24.346163
-5.284277 -78.648438 20.319653
-6.052387 -77.329361 16.070841
3.069283 -57.761196 20.812439
1.264042 -62.566383 15.88572
-1.931242 -66.817047 11.53966
-0.842249 -67.963913 15.668346
-5.352266 -64.487366 4.040823
-7.077211 -63.194149 0.656917
-6.059046 -84.645294 25.009418
0.360991 -75.483841 52.110882
-0.220692 -69.993576 51.008854
0.097118 -75.282196 46.924355
-0.326096 -74.833389 41.916553
-0.669146 -74.095467 37.161804
-0.736547 -73.071297 32.690662
-1.676306 -78.472351 33.18808
-3.821381 -81.851456 29.212795
5.401699 -16.63995 36.948887
3.799015 -52.224201 25.787231
2.697853 -58.594971 25.138893
4.44104 -18.657646 40.375229
3.839382 -26.777353 40.861496
3.071823 -34.331467 41.263725
-10.491348 -79.628021 8.881107
1.500154 -36.219032 44.465256
2.025423 -41.476387 41.510445
-1.185314 -64.250427 50.043114
-1.951212 -58.189365 49.272476
-2.086756 -51.842548 48.631145
-0.803057 -50.015263 45.044632
0.719959 -48.458305 41.486748
2.108765 -47.299438 37.867374
2.108297 -53.445641 33.726044
2.028492 -59.425274 29.214191
1.413921 -64.748886 24.515202
-0.537571 -71.826195 28.428816
-0.298803 -70.483574 24.216745
-0.324896 -69.175667 19.945744
-3.372252 -72.864807 15.780493
-7.148821 -76.267342 12.099067
-8.605165 -75.423981 8.595432
-0.862133 -60.026714 7.517542
-3.516859 -65.675293 7.662637
-6.169491 -70.868896 8.05946
-11.030132 -77.063034 5.979619
-1.589149 -84.958221 41.326401
3.630524 -36.634125 37.913872
4.022568 -36.154709 36.117287
3.617298 -39.798775 36.159004
3.588432 -43.020531 34.285912
3.17057 -43.358307 36.134548
-3.79657 -57.835354 2.013212
-7.490238 -82.255569 18.362106
-8.372475 -83.817657 16.275677
-0.737398 -68.432426 39.016525
-0.97164 -65.6362 41.122154
-0.765709 -65.167908 38.957695
-0.635967 -61.787304 39.014999
-0.428419 -64.682266 36.864799
0.011786 -64.186279 34.832977
-0.296015 -67.482994 34.722488
-5.90172 -81.590637 22.639942
-4.95163 -79.408401 22.498245
-6.311924 -80.809776 20.445192
-6.729755 -80.104393 18.292196
2.343479 -60.747829 20.512161
2.330906 -60.249744 18.306818
1.472868 -63.120159 18.067322
0.255922 -65.32119 15.737931
0.538998 -65.897003 17.889341
-6.711256 -67.359131 4.299847
-7.567223 -66.839043 2.609109
-5.563433 -85.539673 27.331499
0.327463 -78.116364 50.047546
0.260818 -75.410263 49.500378
0.194643 -78.013138 47.450207
-0.691685 -79.942223 40.35672
-0.25495 -77.608246 42.365662
-0.524048 -77.292511 39.899681
-0.523201 -74.501709 39.503815
-0.783398 -76.89502 37.496597
-1.00536 -76.415436 35.161316
-1.367268 -79.046913 35.515526
-3.369612 -82.623322 31.533464
-4.533892 -84.131271 29.470724
-5.019342 -83.283508 27.148577
5.066624 -20.935589 37.236294
3.514465 -49.426018 30.147629
3.927025 -49.192596 28.134949
3.42997 -52.50161 27.873001
3.252007 -55.431549 25.479147
2.932961 -55.770447 27.554127
4.69479 -14.389691 40.075687
4.163116 -15.665376 41.710232
2.863323 -25.104591 43.735359
3.596458 -23.895987 42.23164
3.246899 -27.800407 42.468666
3.483055 -30.619305 41.074123
2.844929 -31.568207 42.697517
-5.497156 -53.468632 -1.221449
-7.80743 -62.486889 -0.946453
-9.823429 -80.131233 10.515786
-0.087627 -40.786953 46.191708
0.451832 -37.324608 45.923676
0.938349 -39.728634 44.677971
1.842667 -38.775421 43.08564
1.238358 -42.272705 43.209694
-0.399 -69.787865 48.482765
-0.68981 -67.159653 50.502331
-0.861824 -66.847504 48.054539
-1.506714 -60.087708 45.255581
-1.624712 -60.687084 47.409222
-1.777813 -57.483231 47.181866
-2.108521 -55.046669 48.943626
-1.730797 -54.218178 46.99474
-1.493866 -50.908955 46.822727
-1.228197 -53.406227 45.097424
0.177826 -54.834564 39.350342
0.074537 -51.94331 41.381676
0.791649 -51.329201 39.539322
1.453299 -47.827202 39.68557
1.483307 -50.802414 37.697731
2.106873 -50.359505 35.850006
1.516251 -53.846676 35.601662
1.007267 -63.183342 30.870594
1.556934 -59.861015 31.174812
1.458838 -62.684608 28.887499
1.827843 -62.19244 26.870346
1.17354 -65.304276 26.588335
-1.271692 -75.233276 30.682312
-0.660135 -72.469696 30.542765
-1.316309 -74.555984 28.514904
-2.57518 -74.863945 22.185844
-1.330568 -73.125824 24.234488
-1.370018 -72.416016 22.092556
-0.261454 -69.818985 22.089348
-1.482496 -71.733276 19.945148
-1.702353 -71.086998 17.803169
-3.005045 -73.481979 17.889343
-7.70142 -78.931221 14.164153
-6.550791 -76.771194 14.037382
-8.293793 -78.432648 12.234839
-8.952969 -77.963326 10.434298
2.00246 -59.142323 13.872629
-0.121536 -60.717319 9.521282
-2.177269 -62.89238 7.560797
-1.386892 -63.531651 9.516066
-3.200033 -69.362534 11.613988
-3.977255 -68.843826 9.68573
-5.292229 -71.298187 9.863708
-7.432306 -73.227585 8.329041
-6.595566 -73.611145 10.076262
-9.212864 -72.694366 5.041702
-10.003799 -72.481842 3.448187
-4.562325 -87.268082 32.139931
-0.119673 -80.501266 45.408108
-0.721607 -82.823143 43.371117
-1.051258 -82.48455 40.84156
-1.434681 -82.05954 38.353905
-1.846888 -81.546265 35.917576
4.375984 -29.078552 37.651333
4.408573 -32.391846 36.022694
3.998901 -42.75679 32.401527
3.556946 -46.248154 32.285236
3.100796 -49.685669 32.0914
3.513405 -17.047089 43.248566
-6.056721 -56.360298 -1.227999
-8.550533 -81.094063 14.238337
-8.976858 -83.289551 14.255445
-0.620174 -44.195736 46.433006
-0.71904 -69.213806 43.609634
-0.993189 -66.485092 45.673096
-1.04142 -66.078438 43.361183
-1.242037 -62.826347 43.217468
-1.248846 -59.482521 43.166939
-1.033518 -56.077511 43.183594
-0.845577 -58.891407 41.137268
-0.316149 -58.330116 39.159927
0.297369 -57.808254 37.225235
0.939095 -57.329147 35.318645
0.425484 -60.787319 35.045929
0.508387 -63.685219 32.843334
0.459118 -66.418922 30.642609
-3.302698 -78.752365 26.716671
-2.308006 -76.369392 26.513813
-3.563377 -77.959976 24.516346
-3.80335 -77.18222 22.334908
-4.054247 -76.44339 20.169189
-4.353689 -75.759766 18.025833
-5.639685 -77.953278 18.172453
-7.184326 -79.481339 16.192024
2.223469 -59.71925 16.085974
0.935099 -61.9869 13.721338
-0.710564 -64.146988 11.53642
-0.161079 -64.741196 13.614451
-1.316179 -67.386299 13.576282
-2.554333 -69.906021 13.617093
-4.001715 -61.545902 3.861216
-4.967661 -60.842754 2.121093
-6.25021 -63.85812 2.319322
-6.540287 -83.778305 22.740818
-7.288706 -85.179306 20.557373
0.236134 -72.841537 54.168407
-0.077091 -70.148766 53.585846
0.148615 -72.763855 51.551044
0.000744 -72.638428 48.970886
-0.184019 -72.45842 46.437401
-0.006302 -77.846291 44.885933
-0.108313 -75.092072 44.393127
-0.373875 -72.218521 43.959167
-0.532307 -71.915634 41.54467
-0.624739 -71.549187 39.2015
-0.626295 -71.121185 36.934101
-0.528158 -70.636154 34.740776
-0.742622 -73.616653 34.892513
-1.170475 -75.858215 32.892708
-1.93882 -77.823265 30.919638
-2.260706 -80.947083 33.538239
-2.651312 -80.27037 31.216211
-3.000906 -79.531448 28.945847
-4.236174 -81.038979 26.939068
-5.475224 -82.425476 24.873444
3.535835 -55.085796 23.32888
2.914124 -58.185394 23.00584
2.267159 -61.229507 22.68239
0.248089 -72.878586 56.810879
0.383974 -75.510361 54.744053
0.171825 -80.766281 50.586636
5.188644 -13.237591 38.363823
4.913696 -17.585131 38.693863
4.616852 -21.801647 38.960754
3.901299 -19.848764 41.98381
4.155952 -22.790695 40.630951
4.303017 -25.87068 39.186714
3.968147 -29.788769 39.384178
3.598518 -33.566368 39.553596
3.173855 -37.226517 39.684349
-5.922642 -60.120296 0.454003
-6.842569 -59.376099 -1.143776
-7.720751 -58.605671 -2.679832
-8.570892 -57.803337 -4.165442
1.463142 -30.151714 45.370712
0.973139 -33.787033 45.644089
2.009243 -32.628071 44.226376
2.379528 -35.217545 42.908909
2.588959 -37.939735 41.415386
2.675167 -40.800987 39.759224
-0.518402 -67.419258 53.013359
-1.033453 -64.636978 52.462852
-1.555933 -61.787796 51.940002
-1.298637 -63.812584 47.696606
-1.628611 -61.259861 49.634811
-2.018482 -58.862911 51.443947
-2.36554 -55.859829 50.96817
-2.563032 -52.781006 50.502853
-1.900627 -48.586517 48.317883
-1.10605 -47.567238 46.641327
-0.258476 -46.608414 44.9683
-0.615067 -52.640282 43.231274
-0.04925 -49.191322 43.271133
0.591339 -45.737926 43.270432
1.3906 -44.973907 41.53479
2.096037 -44.324387 39.761925
2.686306 -43.788475 37.959564
2.66658 -46.868809 36.032234
2.64286 -49.991501 33.986065
2.615616 -53.095848 31.82575
1.553171 -56.891254 33.420616
2.098009 -56.490067 31.50845
2.55574 -56.119282 29.559422
2.407593 -59.004997 27.206829
2.097565 -61.708282 24.803616
1.547176 -64.201645 22.399069
-0.340473 -70.101189 32.611435
-0.090834 -69.525894 30.527546
0.181128 -68.922318 28.464989
-1.325333 -73.846161 26.371546
-0.403816 -71.158081 26.326473
0.431393 -68.304047 26.399267
0.61915 -67.68454 24.311506
0.712271 -67.074402 22.193157
0.689442 -66.478989 20.047775
-0.513571 -68.558075 17.798691
-2.05509 -70.47908 15.686292
-3.874166 -72.296738 13.727604
-4.738047 -75.137413 15.921577
-5.234676 -74.573929 13.880189
-5.855732 -74.06456 11.926208
-7.840992 -75.812424 10.280883
-9.646317 -77.519623 8.793617
-10.329185 -77.153549 7.335767
-1.737247 -59.308796 5.594224
-3.059376 -62.229729 5.674938
-4.425089 -65.090454 5.821389
-5.786175 -67.854553 6.038215
-2.673273 -66.248787 9.567846
-4.855007 -68.344368 7.830195
-7.100527 -70.480774 6.323037
-8.326427 -72.927032 6.66153
-9.417482 -75.156067 7.020934
-11.57734 -78.059624 5.630881
-11.259208 -77.814903 6.194557
-3.261151 -58.205124 2.885957
-2.693303 -56.720286 2.869992
-2.157884 -57.090056 3.742737
-7.413276 -83.708378 19.451953
-7.652297 -83.349472 18.370818
-7.251217 -82.614475 19.443241
-8.429761 -69.92347 3.811766
-7.776737 -68.54647 3.643591
-7.36428 -68.73613 4.468023
-5.429818 -87.138038 28.602445
-5.681774 -86.695481 27.413863
-5.311478 -85.982231 28.52008
-4.796708 -85.27803 29.589693
-4.282165 -84.534866 30.657495
-4.54498 -85.681625 30.776464
4.954193 -24.750733 36.581081
5.125775 -22.67613 36.466871
4.895043 -23.010193 37.350504
3.960088 -14.24808 42.340593
4.270466 -13.514792 41.548334
-6.208437 -53.135877 -1.974351
-6.350856 -54.545443 -1.984196
-9.746037 -81.482429 11.42297
-10.076142 -81.244419 10.524085
-9.493324 -80.369243 11.414671
1.058401 -59.941601 11.642722
1.821414 -58.826864 12.782005
1.239447 -60.257059 12.733346
0.177449 -61.044558 10.557673
0.759416 -59.614362 10.606331
1.058401 -59.941601 11.642722
-10.612181 -75.026112 4.742071
-10.098901 -73.853527 4.513095
-9.726144 -73.866951 5.270677
-4.734158 -88.459382 32.284779
-4.327086 -87.656189 33.379904
-0.994812 -84.07275 43.621026
-0.59336 -82.951275 44.65111
-0.866565 -84.200882 44.901018
-1.516236 -83.494701 39.82585
-1.320203 -83.721385 41.08398
-1.785182 -84.731537 40.06827
-1.707948 -83.282196 38.582022
-1.24297 -82.272045 39.597732
-1.516236 -83.494701 39.82585
-1.929871 -83.010673 37.343941
-1.707948 -83.282196 38.582022
-4.327086 -87.656189 33.379904
-4.045592 -86.474762 33.204903
4.219597 -37.611717 34.306792
4.224979 -35.964371 35.204724
4.017186 -37.802055 35.219355
4.228834 -39.312912 33.382733
4.219597 -37.611717 34.306792
4.005352 -41.103096 33.361475
4.222383 -40.966606 32.422785
4.228834 -39.312912 33.382733
-4.516966 -55.625807 0.34873
-3.860081 -55.982284 1.170701
-5.486399 -56.728506 -0.436951
-5.087288 -55.257599 -0.442318
-4.516966 -55.625807 0.34873
-8.637853 -84.677139 15.251565
-8.309531 -84.938194 16.261623
-1.101904 -44.739408 47.212418
-0.897953 -43.062694 47.041617
3.115744 -57.532425 19.692192
3.430756 -56.236637 20.959593
-7.933487 -66.556896 1.787083
-8.53597 -68.073811 1.991529
-10.307227 -72.357437 2.662504
-10.773986 -73.72908 2.958183
-6.420362 -85.329658 23.906781
-6.660983 -84.896164 22.772481
-6.299667 -84.2118 23.875118
-2.578594 -82.139481 33.722572
-2.053797 -81.246674 34.727908
-2.371685 -82.439072 34.912241
5.68304 -16.231285 36.039724
5.55938 -14.429627 36.763317
4.213722 -45.921408 29.33303
4.219645 -44.28284 30.400829
4.084848 -50.592577 25.91168
4.148854 -49.076774 27.085539
3.86302 -50.708399 26.96109
3.986034 -52.077433 24.701608
4.084848 -50.592577 25.91168
3.667425 -53.654999 24.558056
3.854444 -53.50823 23.472433
3.986034 -52.077433 24.701608
0.284888 -74.187145 57.097901
0.211192 -72.879776 58.136343
0.352831 -75.503033 56.064487
0.316032 -74.194474 55.777466
0.284888 -74.187145 57.097901
0.178682 -80.784397 51.889721
0.275731 -79.464729 51.626402
5.049656 -11.623608 39.034889
5.30961 -11.011737 38.153383
-7.640353 -60.552448 -1.818472
-7.325 -60.931494 -1.045114
-8.122784 -62.107844 -1.71981
-8.079444 -60.167234 -2.5865
-7.28166 -58.990885 -1.911804
-7.640353 -60.552448 -1.818472
-9.043779 -58.921683 -4.805308
-8.7817 -59.358799 -4.077424
-8.99778 -57.383188 -4.889974
-9.043779 -58.921683 -4.805308
-11.071216 -80.404453 8.1466
-10.791055 -79.356346 8.172985
-7.467326 -85.937531 19.459543
-7.191905 -86.318641 20.561152
0.866657 -30.800799 46.007228
1.109449 -28.95784 45.869759
-2.344041 -50.736755 49.334829
-2.582179 -51.205984 50.270683
-2.324894 -52.311777 49.566999
-1.993691 -50.214533 48.474514
-2.250977 -49.108739 49.178198
-2.344041 -50.736755 49.334829
-10.791055 -79.356346 8.172985
-10.368539 -78.302147 8.12924
-10.068832 -78.573822 8.837362
-0.235194 -58.56534 7.519261
0.123675 -58.927482 8.542145
-1.29969 -59.667755 6.555883
-0.672751 -58.206381 6.557602
-0.235194 -58.56534 7.519261
-11.374131 -77.152279 5.285437
-10.978777 -76.14053 5.045454
-10.634778 -76.051285 5.739636
-11.374131 -77.152279 5.285437
-11.57734 -78.059624 5.630881
-1.926709 -86.177986 41.559534
-1.428583 -85.140289 42.598667
-1.766143 -86.360054 42.8318
-2.10714 -85.938064 40.290699
-1.926709 -86.177986 41.559534
-1.785182 -84.731537 40.06827
-2.10714 -85.938064 40.290699
-3.300327 -56.351605 2.000258
-2.693303 -56.720286 2.869992
-4.356324 -57.466034 1.183655
-3.860081 -55.982284 1.170701
-3.300327 -56.351605 2.000258
-8.093415 -84.130516 17.327604
-7.931356 -83.036613 17.318891
-7.652297 -83.349472 18.370818
-8.309531 -84.938194 16.261623
-8.093415 -84.130516 17.327604
-8.204721 -68.286427 2.798222
-7.13924 -67.099087 3.454478
-7.776737 -68.54647 3.643591
-8.53597 -68.073811 1.991529
-8.204721 -68.286427 2.798222
-5.924348 -86.22873 26.224579
-6.172154 -85.78154 25.063538
-5.81124 -85.092484 26.170459
-5.924348 -86.22873 26.224579
-5.681774 -86.695481 27.413863
-3.700025 -83.780891 31.688865
-3.133046 -82.9776 32.720185
-3.951752 -83.377296 30.502094
-3.700025 -83.780891 31.688865
-4.282165 -84.534866 30.657495
5.323023 -20.563454 36.34485
5.49056 -18.415635 36.201147
5.234161 -18.787769 37.092591
5.323023 -20.563454 36.34485
5.125775 -22.67613 36.466871
4.536302 -12.876949 40.731062
4.802729 -12.199658 39.890822
4.428953 -15.027534 40.89296
4.536302 -12.876949 40.731062
4.270466 -13.514792 41.548334
-5.332759 -52.090521 -1.193693
-4.525528 -52.390243 -0.414563
-5.332759 -52.090521 -1.193693
-6.208437 -53.135877 -1.974351
-8.341387 -64.067995 -0.788364
-7.442321 -62.840519 -0.144768
-7.976278 -64.421625 0.013321
-8.548845 -63.718058 -1.560879
-8.341387 -64.067995 -0.788364
-8.122784 -62.107844 -1.71981
-8.548845 -63.718058 -1.560879
-10.42467 -80.981701 9.697274
-10.75863 -80.730095 8.879935
-10.157388 -79.879627 9.698446
-10.42467 -80.981701 9.697274
-10.076142 -81.244419 10.524085
0.182103 -39.05578 46.057692
-0.130766 -37.920589 46.612216
-0.400496 -39.651762 46.746232
2.530357 -57.681382 13.955761
2.587046 -57.968342 15.088857
2.530357 -57.681382 13.955761
1.821414 -58.826864 12.782005
0.493973 -59.272785 9.544015
0.759416 -59.614362 10.606331
-0.491835 -60.372017 8.519412
0.123675 -58.927482 8.542145
0.493973 -59.272785 9.544015
-10.494369 -73.747265 3.716337
-9.608332 -72.588104 4.244944
-10.098901 -73.853527 4.513095
-10.773986 -73.72908 2.958183
-10.494369 -73.747265 3.716337
-10.612181 -75.026112 4.742071
-10.978777 -76.14053 5.045454
-4.948842 -88.02108 31.038034
-5.197441 -87.599434 29.8224
-4.810924 -86.846436 30.924296
-4.948842 -88.02108 31.038034
-4.734158 -88.459382 32.284779
-0.292393 -81.790336 45.669606
-0.025766 -80.58432 46.697739
-0.198487 -81.87339 46.959237
-0.42064 -81.662205 44.389612
-0.292393 -81.790336 45.669606
-0.59336 -82.951275 44.65111
-2.135974 -82.754036 36.125777
-1.640785 -81.802903 37.13574
-1.929871 -83.010673 37.343941
-2.371685 -82.439072 34.912241
-2.135974 -82.754036 36.125777
-4.296381 -86.103272 31.992099
-4.045592 -86.474762 33.204903
-4.810924 -86.846436 30.924296
-4.54498 -85.681625 30.776464
-4.296381 -86.103272 31.992099
4.584706 -28.781166 36.767286
4.758444 -26.784288 36.673977
4.549722 -27.081674 37.558024
4.601 -30.437813 35.952967
4.584706 -28.781166 36.767286
4.392278 -30.735199 36.837013
4.63038 -32.177011 35.114775
4.601 -30.437813 35.952967
4.417982 -34.08294 35.157427
4.215571 -34.273277 36.069991
4.224979 -35.964371 35.204724
4.63038 -32.177011 35.114775
4.417982 -34.08294 35.157427
4.229597 -42.650185 31.430484
4.222383 -40.966606 32.422785
3.988949 -44.389446 31.371872
4.219645 -44.28284 30.400829
4.229597 -42.650185 31.430484
3.247333 -15.715991 43.842857
3.635233 -14.938937 43.10976
3.097763 -17.779756 43.957098
3.247333 -15.715991 43.842857
2.94799 -19.827688 44.080713
3.363633 -19.095021 43.372181
3.097763 -17.779756 43.957098
2.768795 -21.831761 44.190365
2.94799 -19.827688 44.080713
2.593526 -23.812581 44.310146
3.038591 -23.123772 43.615578
2.768795 -21.831761 44.190365
2.389221 -25.752264 44.426022
2.593526 -23.812581 44.310146
2.18889 -27.664862 44.547912
2.662992 -27.017189 43.85725
2.389221 -25.752264 44.426022
-4.807505 -53.811766 -0.439043
-4.525528 -52.390243 -0.414563
-5.776938 -54.914465 -1.224724
-4.807505 -53.811766 -0.439043
-5.087288 -55.257599 -0.442318
-6.630638 -55.991276 -1.987472
-6.350856 -54.545443 -1.984196
-5.776938 -54.914465 -1.224724
-9.091769 -81.957867 13.286158
-9.398112 -81.714462 12.323767
-8.856876 -80.850659 13.275946
-9.304932 -83.055611 13.294712
-9.091769 -81.957867 13.286158
-8.763696 -82.191807 14.246891
-9.296181 -84.189529 13.28231
-9.304932 -83.055611 13.294712
-8.940044 -84.413086 14.241449
-8.674667 -83.553604 15.265561
-8.637853 -84.677139 15.251565
-9.296181 -84.189529 13.28231
-8.940044 -84.413086 14.241449
-0.631679 -41.358303 46.920968
-0.400496 -39.651762 46.746232
-0.353901 -42.491344 46.312357
-0.631679 -41.358303 46.920968
-0.897953 -43.062694 47.041617
2.746556 -58.776699 18.439381
3.115744 -57.532425 19.692192
2.700095 -59.00547 19.559629
2.692837 -58.511452 17.328959
2.746556 -58.776699 18.439381
2.277188 -59.984497 17.196396
2.69755 -58.256805 16.19553
2.692837 -58.511452 17.328959
2.112965 -59.430786 14.979302
2.587046 -57.968342 15.088857
2.69755 -58.256805 16.19553
-7.27498 -65.066435 1.642189
-6.908717 -65.348581 2.464215
-7.933487 -66.556896 1.787083
-7.688481 -64.734449 0.810987
-6.663711 -63.526134 1.48812
-7.27498 -65.066435 1.642189
-7.976278 -64.421625 0.013321
-7.688481 -64.734449 0.810987
-9.423009 -71.107826 3.21776
-8.429761 -69.92347 3.811766
-9.010551 -71.297485 4.042193
-9.423009 -71.107826 3.21776
-10.307227 -72.357437 2.662504
-7.035192 -85.596665 21.680758
-6.914497 -84.478805 21.649096
-6.660983 -84.896164 22.772481
-7.191905 -86.318641 20.561152
-7.035192 -85.596665 21.680758
-6.420362 -85.329658 23.906781
-6.172154 -85.78154 25.063538
-5.429818 -87.138038 28.602445
-5.197441 -87.599434 29.8224
0.079521 -71.495151 53.877127
-0.034981 -70.203999 54.895447
0.121632 -71.550385 55.186728
-2.815159 -81.785202 32.535851
-2.578594 -82.139481 33.722572
-3.133046 -82.9776 32.720185
5.68304 -16.231285 36.039724
5.49056 -18.415635 36.201147
4.954193 -24.750733 36.581081
4.758444 -26.784288 36.673977
4.187736 -47.506654 28.229396
4.213722 -45.921408 29.33303
3.95301 -47.607349 29.238582
4.187736 -47.506654 28.229396
4.148854 -49.076774 27.085539
3.664032 -54.898937 22.217813
3.854444 -53.50823 23.472433
3.302559 -56.423496 22.07066
3.430756 -56.236637 20.959593
3.664032 -54.898937 22.217813
0.13174 -71.605141 57.832212
0.211192 -72.879776 58.136343
0.12761 -71.568909 56.507964
0.13174 -71.605141 57.832212
0.242112 -72.860062 55.489643
0.121632 -71.550385 55.186728
0.12761 -71.568909 56.507964
0.364309 -76.834724 55.018163
0.352831 -75.503033 56.064487
0.381806 -76.836769 53.705111
0.364309 -76.834724 55.018163
0.370314 -76.823509 52.388525
0.372482 -75.497101 53.427467
0.381806 -76.836769 53.705111
0.35355 -78.13977 51.356857
0.344227 -76.800103 51.079214
0.370314 -76.823509 52.388525
0.249644 -79.441323 50.317091
0.35355 -78.13977 51.356857
0.275731 -79.464729 51.626402
-0.021204 -82.063606 50.839484
0.178682 -80.784397 51.889721
-0.061099 -82.012001 49.547905
-0.021204 -82.063606 50.839484
-0.112941 -81.962547 48.248272
0.119983 -80.716827 49.287003
-0.061099 -82.012001 49.547905
-0.198487 -81.87339 46.959237
-0.112941 -81.962547 48.248272
-1.149113 -85.460594 45.15078
-0.866565 -84.200882 44.901018
-1.62511 -86.551949 44.106302
-1.149113 -85.460594 45.15078
-1.766143 -86.360054 42.8318
-1.62511 -86.551949 44.106302
5.452852 -12.728448 37.470785
5.30961 -11.011737 38.153383
5.295172 -14.938771 37.656355
5.55938 -14.429627 36.763317
5.452852 -12.728448 37.470785
4.941717 -13.813641 39.219755
5.049656 -11.623608 39.034889
4.802729 -12.199658 39.890822
3.83826 -16.356233 42.479399
3.960088 -14.24808 42.340593
3.635233 -14.938937 43.10976
-7.462654 -57.113962 -2.713388
-6.630638 -55.991276 -1.987472
-6.888736 -57.482985 -1.953916
-8.35663 -59.759966 -3.33462
-8.079444 -60.167234 -2.5865
-8.145822 -58.204504 -3.422637
-8.35663 -59.759966 -3.33462
-8.7817 -59.358799 -4.077424
-7.887724 -56.712795 -3.456193
-7.462654 -57.113962 -2.713388
-8.145822 -58.204504 -3.422637
-8.46665 -56.338997 -4.192398
-7.887724 -56.712795 -3.456193
-8.46665 -56.338997 -4.192398
-8.99778 -57.383188 -4.889974
-11.071216 -80.404453 8.1466
-10.75863 -80.730095 8.879935
-9.746037 -81.482429 11.42297
-9.398112 -81.714462 12.323767
-7.551531 -84.811341 19.468452
-7.413276 -83.708378 19.451953
-7.150451 -84.076344 20.540875
-7.551531 -84.811341 19.468452
-7.467326 -85.937531 19.459543
1.689131 -28.275825 45.243698
1.109449 -28.95784 45.869759
1.962902 -29.540751 44.674926
2.18889 -27.664862 44.547912
1.689131 -28.275825 45.243698
0.11358 -36.176784 46.441411
-0.130766 -37.920589 46.612216
0.374233 -34.407997 46.301617
0.11358 -36.176784 46.441411
0.712485 -35.55582 45.783883
0.621656 -32.618459 46.143917
0.374233 -34.407997 46.301617
1.218141 -31.969373 45.507401
0.866657 -30.800799 46.007228
0.621656 -32.618459 46.143917
-0.229341 -68.888386 54.584383
-0.034981 -70.203999 54.895447
-0.449996 -67.523632 54.29814
-0.229341 -68.888386 54.584383
-0.297747 -68.784012 53.299602
-0.700784 -66.19334 53.984682
-0.449996 -67.523632 54.29814
-0.958309 -64.8022 53.709429
-0.700784 -66.19334 53.984682
-0.775927 -66.028118 52.738106
-1.240177 -63.447415 53.397001
-0.958309 -64.8022 53.709429
-1.501417 -62.022824 53.135576
-1.240177 -63.447415 53.397001
-1.294693 -63.212387 52.201427
-1.784104 -60.634935 52.825209
-1.501417 -62.022824 53.135576
-2.015378 -59.172493 52.577181
-1.784104 -60.634935 52.825209
-1.787208 -60.325353 51.691975
-2.268886 -57.745401 52.267956
-2.015378 -59.172493 52.577181
-2.442416 -56.24386 52.030068
-2.268886 -57.745401 52.267956
-2.192011 -57.36137 51.206058
-2.642313 -54.77422 51.720144
-2.442416 -56.24386 52.030068
-2.741059 -53.234808 51.487486
-2.642313 -54.77422 51.720144
-2.464286 -54.320417 50.735512
-2.87184 -51.721379 51.17563
-2.741059 -53.234808 51.487486
-2.87184 -51.721379 51.17563
-2.582179 -51.205984 50.270683
-2.19588 -47.499832 48.944016
-2.250977 -49.108739 49.178198
-1.74213 -46.934799 48.154856
-2.19588 -47.499832 48.944016
-1.344842 -46.42516 47.316578
-1.74213 -46.934799 48.154856
-1.503338 -48.076878 47.479605
-0.863112 -45.881487 46.537166
-1.101904 -44.739408 47.212418
-1.344842 -46.42516 47.316578
-10.709973 -78.11911 7.400315
-9.987751 -77.336586 8.064692
-10.368539 -78.302147 8.12924
-10.908735 -77.860161 6.872631
-10.709973 -78.11911 7.400315
-1.61986 -57.465603 4.66497
-2.157884 -57.090056 3.742737
-1.125617 -57.832554 5.582731
-0.672751 -58.206381 6.557602
-2.23149 -58.941845 4.676463
-1.61986 -57.465603 4.66497
-1.125617 -57.832554 5.582731
-10.908735 -77.860161 6.872631
-11.259208 -77.814903 6.194557
-10.679659 -77.108292 6.657693
3 342 341 85
3 0 89 87
3 0 91 89
3 1 343 345
3 343 92 344
3 343 344 345
3 2 346 348
3 348 347 93
3 346 347 348
3 3 97 95
3 3 99 97
3 3 101 99
3 2 104 102
3 2 93 104
3 4 108 106
3 4 110 108
3 5 349 351
3 351 350 111
3 349 350 351
3 6 352 354
3 354 353 113
3 352 353 354
3 7 116 114
3 9 119 117
3 9 121 119
3 9 123 121
3 6 355 357
3 355 125 356
3 355 356 357
3 6 113 125
3 11 358 360
3 360 359 127
3 358 359 360
3 12 130 128
3 12 132 130
3 361 134 362
3 13 137 135
3 13 139 137
3 364 363 140
3 14 365 367
3 367 366 142
3 365 366 367
3 15 145 143
3 15 147 145
3 8 150 148
3 16 153 151
3 16 155 153
3 16 157 155
3 17 160 158
3 17 162 160
3 17 164 162
3 18 167 165
3 18 169 167
3 10 172 170
3 19 175 173
3 19 177 175
3 19 179 177
3 14 182 180
3 14 142 182
3 21 368 370
3 370 369 184
3 368 369 370
3 21 371 373
3 371 185 372
3 371 372 373
3 21 187 185
3 20 190 188
3 20 192 190
3 22 374 376
3 376 375 193
3 374 375 376
3 378 377 195
3 23 379 381
3 379 197 380
3 379 380 381
3 382 198 383
3 384 383 86
3 382 383 384
3 385 199 386
3 387 386 198
3 385 386 387
3 389 388 199
3 390 195 391
3 25 202 201
3 26 392 394
3 394 393 88
3 392 393 394
3 26 395 396
3 26 397 399
3 397 203 398
3 397 398 399
3 28 204 90
3 28 205 204
3 30 400 401
3 30 402 404
3 402 207 403
3 402 403 404
3 31 209 208
3 406 405 94
3 407 210 408
3 32 213 211
3 34 214 96
3 34 215 214
3 34 217 215
3 36 218 98
3 36 219 218
3 36 221 219
3 38 222 100
3 38 223 222
3 39 226 224
3 41 227 103
3 41 228 227
3 41 230 228
3 31 231 105
3 31 208 231
3 43 409 410
3 44 232 107
3 44 233 232
3 44 235 233
3 46 236 109
3 46 237 236
3 47 240 238
3 412 411 112
3 414 413 194
3 49 415 417
3 417 416 241
3 415 416 417
3 50 245 243
3 52 246 115
3 52 247 246
3 24 248 196
3 53 249 118
3 53 250 249
3 53 251 250
3 54 252 120
3 54 253 252
3 54 255 253
3 56 256 122
3 56 257 256
3 418 258 419
3 420 419 200
3 418 419 420
3 57 259 124
3 57 260 259
3 57 261 260
3 49 262 126
3 49 241 262
3 58 421 422
3 27 423 424
3 59 425 427
3 427 426 129
3 425 426 427
3 59 428 429
3 59 430 432
3 430 263 431
3 430 431 432
3 60 264 131
3 60 265 264
3 433 266 434
3 435 267 436
3 437 436 266
3 435 436 437
3 438 268 439
3 440 269 441
3 61 270 133
3 61 271 270
3 29 272 206
3 62 273 136
3 62 274 273
3 62 275 274
3 63 276 138
3 63 277 276
3 48 278 239
3 442 279 443
3 444 443 141
3 442 443 444
3 445 280 446
3 447 446 279
3 445 446 447
3 448 281 449
3 451 450 281
3 64 452 453
3 455 454 242
3 456 282 457
3 65 283 144
3 65 284 283
3 65 285 284
3 66 286 146
3 66 287 286
3 51 288 244
3 67 289 149
3 67 290 289
3 33 291 212
3 68 292 152
3 68 293 292
3 68 294 293
3 69 295 154
3 69 458 460
3 460 459 295
3 458 459 460
3 69 461 463
3 461 296 462
3 461 462 463
3 70 297 156
3 70 298 297
3 35 299 216
3 71 300 159
3 71 301 300
3 71 302 301
3 72 303 161
3 72 304 303
3 72 305 304
3 73 306 163
3 73 307 306
3 37 308 220
3 74 309 166
3 74 310 309
3 74 311 310
3 75 312 168
3 75 313 312
3 55 314 254
3 76 315 171
3 76 316 315
3 40 317 225
3 77 318 174
3 77 319 318
3 77 320 319
3 78 321 176
3 78 322 321
3 78 323 322
3 79 324 178
3 79 325 324
3 42 326 229
3 80 327 181
3 80 328 327
3 80 329 328
3 64 330 183
3 64 464 466
3 466 465 330
3 464 465 466
3 82 467 468
3 82 469 471
3 469 332 470
3 469 470 471
3 82 333 332
3 83 334 186
3 83 335 334
3 45 336 234
3 84 337 189
3 84 338 337
3 84 339 338
3 81 340 191
3 81 331 340
3 85 472 474
3 474 473 22
3 472 473 474
3 476 475 85
3 477 86 478
3 479 478 23
3 477 478 479
3 480 86 481
3 483 482 86
3 87 88 25
3 89 88 87
3 89 26 88
3 89 90 26
3 91 90 89
3 91 28 90
3 92 484 485
3 92 486 488
3 486 30 487
3 486 487 488
3 93 94 31
3 489 94 490
3 491 490 93
3 489 490 491
3 493 492 94
3 95 96 32
3 97 96 95
3 97 34 96
3 97 98 34
3 99 98 97
3 99 36 98
3 99 100 36
3 101 100 99
3 101 38 100
3 102 103 39
3 104 103 102
3 104 41 103
3 104 105 41
3 93 105 104
3 93 31 105
3 106 107 43
3 108 107 106
3 108 44 107
3 108 109 44
3 110 109 108
3 110 46 109
3 111 112 47
3 494 112 495
3 496 495 111
3 494 495 496
3 498 497 112
3 113 499 501
3 501 500 49
3 499 500 501
3 503 502 113
3 114 115 50
3 116 115 114
3 116 52 115
3 117 118 24
3 119 118 117
3 119 53 118
3 119 120 53
3 121 120 119
3 121 54 120
3 121 122 54
3 123 122 121
3 123 56 122
3 504 124 505
3 125 506 508
3 506 124 507
3 506 507 508
3 125 57 124
3 125 126 57
3 113 126 125
3 113 49 126
3 127 509 511
3 511 510 58
3 509 510 511
3 513 512 127
3 128 129 27
3 130 129 128
3 130 59 129
3 130 131 59
3 132 131 130
3 132 60 131
3 514 133 515
3 134 516 518
3 516 133 517
3 516 517 518
3 134 61 133
3 135 136 29
3 137 136 135
3 137 62 136
3 137 138 62
3 139 138 137
3 139 63 138
3 140 519 520
3 522 521 140
3 523 141 524
3 525 524 48
3 523 524 525
3 526 141 527
3 529 528 141
3 142 530 532
3 532 531 64
3 530 531 532
3 534 533 142
3 143 535 537
3 535 144 536
3 535 536 537
3 145 144 143
3 145 65 144
3 145 146 65
3 147 146 145
3 147 66 146
3 148 149 51
3 150 149 148
3 150 67 149
3 151 152 33
3 153 152 151
3 153 68 152
3 153 154 68
3 155 154 153
3 155 69 154
3 155 156 69
3 157 156 155
3 157 70 156
3 158 159 35
3 160 159 158
3 160 71 159
3 160 161 71
3 162 161 160
3 162 72 161
3 162 163 72
3 164 163 162
3 164 73 163
3 165 166 37
3 167 166 165
3 167 74 166
3 167 168 74
3 169 168 167
3 169 75 168
3 170 171 55
3 172 171 170
3 172 76 171
3 173 174 40
3 175 174 173
3 175 77 174
3 175 176 77
3 177 176 175
3 177 78 176
3 177 178 78
3 179 178 177
3 179 79 178
3 180 181 42
3 182 181 180
3 182 80 181
3 182 183 80
3 142 183 182
3 142 64 183
3 184 538 539
3 541 540 184
3 185 542 543
3 185 544 546
3 544 82 545
3 544 545 546
3 185 186 82
3 187 186 185
3 187 83 186
3 188 189 45
3 190 189 188
3 190 84 189
3 190 191 84
3 192 191 190
3 192 81 191
3 193 194 5
3 547 194 548
3 549 548 193
3 547 548 549
3 551 550 194
3 553 552 22
3 195 554 556
3 556 555 6
3 554 555 556
3 558 557 195
3 559 196 560
3 561 560 7
3 559 560 561
3 197 562 564
3 562 196 563
3 562 563 564
3 197 24 196
3 86 197 23
3 198 197 86
3 198 24 197
3 198 117 24
3 199 117 198
3 199 9 117
3 199 200 9
3 565 200 566
3 567 566 199
3 565 566 567
3 569 568 200
3 195 570 571
3 195 572 574
3 572 6 573
3 572 573 574
3 201 575 577
3 577 576 11
3 575 576 577
3 202 578 580
3 580 579 201
3 578 579 580
3 202 581 582
3 88 202 25
3 583 202 584
3 585 584 88
3 583 584 585
3 587 586 202
3 203 588 589
3 203 590 592
3 590 27 591
3 590 591 592
3 90 203 26
3 204 203 90
3 204 27 203
3 204 128 27
3 205 128 204
3 205 12 128
3 593 206 594
3 595 206 596
3 597 29 598
3 599 598 206
3 597 598 599
3 600 29 601
3 602 135 603
3 604 603 29
3 602 603 604
3 605 135 606
3 607 13 608
3 609 608 135
3 607 608 609
3 610 140 611
3 207 612 614
3 612 140 613
3 612 613 614
3 207 615 617
3 617 616 140
3 615 616 617
3 208 618 620
3 620 619 14
3 618 619 620
3 209 621 623
3 623 622 208
3 621 622 623
3 209 624 625
3 94 209 31
3 626 209 627
3 628 627 94
3 626 627 628
3 630 629 209
3 631 143 632
3 210 633 635
3 633 143 634
3 633 634 635
3 210 15 143
3 211 212 8
3 213 212 211
3 213 33 212
3 96 213 32
3 214 213 96
3 214 33 213
3 214 151 33
3 215 151 214
3 215 16 151
3 215 216 16
3 217 216 215
3 217 35 216
3 98 217 34
3 218 217 98
3 218 35 217
3 218 158 35
3 219 158 218
3 219 17 158
3 219 220 17
3 221 220 219
3 221 37 220
3 100 221 36
3 222 221 100
3 222 37 221
3 222 165 37
3 223 165 222
3 223 18 165
3 224 225 10
3 226 225 224
3 226 40 225
3 103 226 39
3 227 226 103
3 227 40 226
3 227 173 40
3 228 173 227
3 228 19 173
3 228 229 19
3 230 229 228
3 230 42 229
3 105 230 41
3 231 230 105
3 231 42 230
3 231 180 42
3 208 180 231
3 208 14 180
3 107 636 638
3 638 637 43
3 636 637 638
3 232 639 641
3 641 640 107
3 639 640 641
3 232 642 643
3 232 644 646
3 644 184 645
3 644 645 646
3 233 184 232
3 233 21 184
3 233 234 21
3 235 234 233
3 235 45 234
3 109 235 44
3 236 235 109
3 236 45 235
3 236 188 45
3 237 188 236
3 237 20 188
3 238 239 1
3 240 239 238
3 240 48 239
3 112 240 47
3 647 240 648
3 649 648 112
3 647 648 649
3 650 48 651
3 652 651 240
3 650 651 652
3 654 653 48
3 194 655 657
3 657 656 5
3 655 656 657
3 659 658 194
3 241 242 2
3 660 242 661
3 662 661 241
3 660 661 662
3 664 663 242
3 666 665 49
3 668 667 6
3 243 669 671
3 669 244 670
3 669 670 671
3 245 244 243
3 245 51 244
3 115 245 50
3 246 245 115
3 246 51 245
3 246 148 51
3 247 148 246
3 247 8 148
3 196 116 7
3 248 116 196
3 248 52 116
3 118 248 24
3 249 248 118
3 249 52 248
3 249 247 52
3 250 247 249
3 250 8 247
3 250 211 8
3 251 211 250
3 251 32 211
3 120 251 53
3 252 251 120
3 252 32 251
3 252 95 32
3 253 95 252
3 253 3 95
3 253 254 3
3 255 254 253
3 255 55 254
3 122 255 54
3 256 255 122
3 256 55 255
3 256 170 55
3 257 170 256
3 257 10 170
3 200 123 9
3 258 123 200
3 258 56 123
3 124 672 674
3 672 258 673
3 672 673 674
3 259 258 124
3 259 56 258
3 259 257 56
3 260 257 259
3 260 10 257
3 260 224 10
3 261 224 260
3 261 39 224
3 126 261 57
3 262 261 126
3 262 39 261
3 262 102 39
3 241 102 262
3 241 2 102
3 676 675 58
3 678 677 11
3 129 679 681
3 681 680 27
3 679 680 681
3 683 682 129
3 263 684 685
3 263 686 688
3 686 43 687
3 686 687 688
3 131 263 59
3 264 263 131
3 264 43 263
3 264 106 43
3 265 106 264
3 265 4 106
3 266 689 690
3 266 691 692
3 266 693 695
3 693 243 694
3 693 694 695
3 267 243 266
3 267 50 243
3 696 267 697
3 698 267 699
3 700 50 701
3 702 701 267
3 700 701 702
3 703 114 704
3 705 704 50
3 703 704 705
3 268 706 708
3 706 114 707
3 706 707 708
3 268 7 114
3 709 268 710
3 711 268 712
3 713 7 714
3 715 714 268
3 713 714 715
3 717 716 7
3 718 23 719
3 720 23 721
3 723 722 23
3 269 724 725
3 269 726 728
3 726 58 727
3 726 727 728
3 133 729 731
3 729 269 730
3 729 730 731
3 270 269 133
3 270 58 269
3 270 127 58
3 271 127 270
3 271 11 127
3 206 732 734
3 732 134 733
3 732 733 734
3 272 134 206
3 272 61 134
3 136 272 29
3 273 272 136
3 273 61 272
3 273 271 61
3 274 271 273
3 274 11 271
3 274 201 11
3 275 201 274
3 275 25 201
3 138 275 62
3 276 275 138
3 276 25 275
3 276 87 25
3 277 87 276
3 277 0 87
3 239 92 1
3 278 92 239
3 278 30 92
3 141 278 48
3 279 278 141
3 279 30 278
3 279 207 30
3 280 207 279
3 280 735 737
3 737 736 207
3 735 736 737
3 738 280 739
3 281 740 742
3 740 280 741
3 740 741 742
3 281 743 745
3 745 744 280
3 743 744 745
3 281 746 747
3 749 748 281
3 751 750 64
3 753 752 14
3 242 754 756
3 756 755 2
3 754 755 756
3 758 757 242
3 282 759 760
3 282 761 763
3 761 13 762
3 761 762 763
3 144 764 765
3 283 766 768
3 768 767 144
3 766 767 768
3 283 769 770
3 283 771 773
3 771 282 772
3 771 772 773
3 284 282 283
3 284 13 282
3 284 139 13
3 285 139 284
3 285 63 139
3 146 285 65
3 286 285 146
3 286 63 285
3 286 277 63
3 287 277 286
3 287 0 277
3 244 774 775
3 288 776 778
3 778 777 244
3 776 777 778
3 288 779 780
3 149 288 51
3 289 288 149
3 289 781 783
3 783 782 288
3 781 782 783
3 289 784 785
3 290 786 788
3 788 787 289
3 786 787 788
3 290 789 790
3 212 150 8
3 291 150 212
3 291 67 150
3 152 291 33
3 292 291 152
3 292 67 291
3 292 290 67
3 293 290 292
3 293 791 793
3 793 792 290
3 791 792 793
3 293 794 795
3 294 796 798
3 798 797 293
3 796 797 798
3 294 799 800
3 154 294 68
3 295 294 154
3 295 801 803
3 803 802 294
3 801 802 803
3 295 804 805
3 807 806 295
3 296 808 809
3 296 810 811
3 156 296 69
3 297 296 156
3 297 812 814
3 814 813 296
3 812 813 814
3 297 815 817
3 815 210 816
3 815 816 817
3 298 210 297
3 298 15 210
3 216 157 16
3 299 157 216
3 299 70 157
3 159 299 35
3 300 299 159
3 300 70 299
3 300 298 70
3 301 298 300
3 301 15 298
3 301 147 15
3 302 147 301
3 302 66 147
3 161 302 71
3 303 302 161
3 303 66 302
3 303 287 66
3 304 287 303
3 304 0 287
3 304 91 0
3 305 91 304
3 305 28 91
3 163 305 72
3 306 305 163
3 306 28 305
3 306 205 28
3 307 205 306
3 307 12 205
3 220 164 17
3 308 164 220
3 308 73 164
3 166 308 37
3 309 308 166
3 309 73 308
3 309 307 73
3 310 307 309
3 310 12 307
3 310 132 12
3 311 132 310
3 311 60 132
3 168 311 74
3 312 311 168
3 312 60 311
3 312 265 60
3 313 265 312
3 313 4 265
3 254 101 3
3 314 101 254
3 314 38 101
3 171 314 55
3 315 314 171
3 315 38 314
3 315 223 38
3 316 223 315
3 316 18 223
3 225 172 10
3 317 172 225
3 317 76 172
3 174 317 40
3 318 317 174
3 318 76 317
3 318 316 76
3 319 316 318
3 319 18 316
3 319 169 18
3 320 169 319
3 320 75 169
3 176 320 77
3 321 320 176
3 321 75 320
3 321 313 75
3 322 313 321
3 322 4 313
3 322 110 4
3 323 110 322
3 323 46 110
3 178 323 78
3 324 323 178
3 324 46 323
3 324 237 46
3 325 237 324
3 325 20 237
3 229 179 19
3 326 179 229
3 326 79 179
3 181 326 42
3 327 326 181
3 327 79 326
3 327 325 79
3 328 325 327
3 328 20 325
3 328 192 20
3 329 192 328
3 329 81 192
3 183 329 80
3 330 329 183
3 330 81 329
3 330 331 81
3 818 331 819
3 820 819 330
3 818 819 820
3 822 821 331
3 823 1 824
3 332 825 826
3 332 827 829
3 827 1 828
3 827 828 829
3 332 238 1
3 333 238 332
3 333 47 238
3 186 333 82
3 334 333 186
3 334 47 333
3 334 111 47
3 335 111 334
3 335 5 111
3 234 187 21
3 336 187 234
3 336 83 187
3 189 336 45
3 337 336 189
3 337 83 336
3 337 335 83
3 338 335 337
3 338 5 335
3 338 193 5
3 339 193 338
3 339 22 193
3 191 339 84
3 340 339 191
3 340 22 339
3 340 85 22
3 331 85 340
3 331 830 832
3 832 831 85
3 830 831 832
