ply
format ascii 1.0
element vertex 563
property float x
property float y
property float z
element face 637
property list uchar int vertex_index
end_header
34.260532 -92.982216 35.617607
27.797848 -66.170944 70.752403
21.999413 -79.984756 56.846832
34.110992 -67.864334 55.560211
20.472874 -69.900009 75.033455
23.890114 -73.690582 65.587814
16.263102 -77.91658 68.73114
8.325954 -82.544289 69.672279
31.816669 -62.977169 63.453949
29.718771 -71.019493 61.017181
28.430477 -84.7173 44.649582
14.860081 -85.293579 59.619392
21.589182 -87.750664 45.79546
27.143505 -93.828293 32.426712
16.046864 -71.915878 76.11129
18.118122 -74.079468 72.32991
13.824551 -76.328262 73.273376
33.465862 -97.13353 29.040127
30.21489 -64.533173 67.389336
30.750826 -67.009285 62.602043
28.577517 -68.52755 65.900208
22.656092 -76.910553 61.637169
26.028225 -75.65303 60.165718
25.479105 -78.718681 55.841446
28.582748 -81.394676 50.51635
25.210606 -81.796783 50.504738
7.902992 -86.490738 65.214279
11.414122 -84.324768 65.226585
11.466595 -88.20575 60.556984
18.388275 -91.030136 47.953091
24.518368 -90.31485 38.706383
24.495461 -67.948227 73.299484
25.721542 -70.113159 68.667404
22.17765 -71.945511 70.803185
20.238491 -75.563591 67.352608
18.984585 -78.90831 63.108101
12.084143 -92.243988 55.966751
31.363764 -60.449474 67.75621
29.445997 -61.977966 71.623039
26.54356 -63.623619 74.624985
32.432003 -65.41481 59.087227
32.004269 -69.615845 58.286377
31.785057 -73.83989 57.035683
27.057814 -72.270531 63.477654
29.041399 -74.799522 58.672462
31.470282 -88.653214 39.686119
12.20149 -80.428833 69.578049
15.174329 -81.556099 64.410378
18.40839 -82.290245 58.218048
15.110473 -89.483322 54.750351
18.334007 -86.199425 52.996864
21.734661 -83.400078 51.399315
24.994141 -85.489143 44.550068
28.055502 -88.756668 38.333809
30.862095 -92.892319 33.180683
14.885235 -74.163788 74.806717
12.689457 -75.161591 75.090073
33.936932 -95.013985 32.271141
29.118774 -65.339386 69.163696
29.418915 -66.551941 66.772881
28.195768 -67.352432 68.397484
22.265553 -78.441734 59.342369
24.019512 -77.724899 58.710739
23.76322 -79.22493 56.287666
25.323605 -80.222504 53.285561
23.590733 -80.766464 53.649429
9.641577 -87.448837 63.027061
22.556807 -68.904907 74.259911
23.323984 -69.99427 72.184006
21.353567 -70.989975 73.077042
17.104164 -76.035416 70.632332
19.155704 -74.877441 69.972412
18.27758 -76.692337 68.096687
19.521156 -77.256035 65.32206
17.585556 -78.447075 66.031647
31.6294 -58.417435 67.501953
30.891319 -59.11108 69.626442
30.523512 -61.198318 69.782059
24.745426 -64.490723 75.76722
32.037598 -64.199837 61.219009
30.203472 -69.030762 61.894325
31.241707 -68.288574 60.323471
30.895906 -70.352631 59.673294
31.865314 -71.742737 57.739067
30.625134 -72.386803 58.873413
24.742823 -71.950562 67.240349
26.334272 -71.165375 66.080986
25.539715 -72.937996 64.576408
27.312916 -76.848801 57.614258
27.577469 -75.207489 59.429115
28.847038 -76.557587 57.120293
30.320116 -76.258713 56.625999
28.519403 -83.001091 47.690605
30.157055 -83.091988 48.144295
30.092949 -84.782578 45.192245
29.981049 -86.585503 42.044777
10.858898 -79.51136 71.716476
10.222719 -81.57357 69.733376
13.113491 -84.8675 62.565155
13.275961 -82.970078 64.901924
14.927731 -83.389458 62.052315
16.769228 -81.92395 61.422356
16.620983 -83.747711 58.94413
13.835661 -93.221848 53.233643
13.571228 -90.989014 55.467651
15.300529 -91.808144 52.423523
19.958694 -89.322853 46.804642
18.379498 -88.491257 50.419464
19.998898 -86.861282 49.42939
20.01564 -84.68158 52.138245
21.670326 -85.429329 48.5756
23.381929 -84.298317 47.935631
23.273598 -86.442863 45.020302
25.86307 -91.972542 35.431343
26.285748 -89.331841 38.296299
27.68885 -91.164024 35.280602
29.489594 -90.754921 35.615143
29.030418 -93.178589 32.556572
33.978939 -65.696861 55.711693
18.287117 -70.91394 75.643707
19.26239 -72.035583 73.803596
17.091507 -73.10611 74.377449
15.980522 -75.210815 72.875999
15.012408 -77.232704 71.154953
31.103306 -63.745743 65.467911
31.309052 -64.982826 63.13118
30.448204 -65.76561 65.002708
29.741198 -67.771194 64.303604
29.054605 -69.738861 63.395889
23.193165 -75.33812 63.719521
24.888702 -74.614471 62.851097
24.386644 -76.2024 60.898712
25.704609 -77.212875 58.137283
27.133503 -78.412323 55.504753
28.643219 -79.82357 53.051682
27.011286 -79.935005 53.093147
26.919514 -81.476028 50.401367
26.832771 -83.111725 47.484089
9.805258 -83.57357 67.593979
9.61412 -85.526245 65.341881
11.344799 -86.253876 62.906258
13.137867 -86.817261 60.178253
16.87513 -92.724541 49.130325
19.817368 -92.051781 44.330288
21.426094 -90.375778 43.140701
23.095963 -88.900314 42.189312
22.784691 -91.661201 39.524914
24.048321 -93.167145 36.052376
26.251722 -67.037697 72.133095
26.767551 -68.182693 69.847984
25.137928 -69.059296 71.110527
24.028244 -70.990158 69.814377
23.003052 -72.823334 68.274582
20.196484 -72.980392 71.639694
21.132282 -73.799538 69.185196
22.117306 -74.560715 66.513763
21.398067 -76.214699 64.545647
20.849072 -77.810959 62.378716
20.458755 -79.391357 60.023628
12.423058 -94.319839 53.792618
10.550068 -76.047974 75.215714
32.218517 -61.01075 63.536781
31.999834 -59.7402 65.594681
31.636574 -61.732567 65.6707
30.884058 -62.492622 67.722137
29.919638 -63.280903 69.630661
28.718718 -64.095535 71.350395
28.117615 -62.78611 73.243652
27.275013 -64.939865 72.851227
25.599607 -65.818573 74.120445
23.71822 -66.733154 75.163292
21.667614 -67.677948 76.000465
19.492363 -68.637802 76.662537
33.170425 -64.566132 57.412231
33.104359 -66.633972 57.170822
31.636227 -66.226761 60.8424
32.19912 -67.493774 58.729378
33.069492 -68.790215 56.898438
33.07288 -70.988892 56.575546
27.239977 -69.299896 67.360611
27.770117 -70.439461 64.797195
28.446579 -71.645782 62.290001
26.474796 -74.009262 61.93911
27.951336 -73.472786 60.976517
29.328478 -72.949432 59.955467
30.436432 -74.362648 57.878296
30.194176 -81.446503 50.807686
32.894733 -90.825302 37.558563
11.692638 -77.376114 73.509499
12.917717 -78.413162 71.523651
14.226574 -79.184624 69.234055
11.697626 -82.391907 67.466125
13.645191 -81.087494 67.138756
15.617564 -79.745834 66.64827
17.085121 -80.175583 63.797791
18.619555 -80.566498 60.72982
20.207432 -81.014771 57.502098
11.735554 -90.200577 58.229782
13.310713 -88.85186 57.79538
14.938558 -87.314087 57.16613
16.814388 -90.187286 51.451683
16.698231 -87.843201 53.896896
16.61211 -85.704727 56.415108
18.325579 -84.146843 55.619705
20.070358 -82.753227 54.853844
21.832119 -81.610565 54.181206
23.474167 -82.429588 50.841713
25.111935 -83.52552 47.563465
26.723194 -84.923775 44.42495
24.814098 -87.745949 41.565228
26.555672 -86.982857 41.326492
28.288019 -86.616814 41.493317
29.79248 -88.562065 38.813629
31.231588 -90.683243 36.400642
32.6096 -92.875465 34.235844
32.183441 -95.059914 31.006607
12.144245 -74.441162 75.869259
13.245323 -74.013943 75.768593
34.919542 -93.987042 34.707621
35.041383 -93.013161 36.405029
34.098732 -93.9981 33.944374
34.757742 -95.002926 33.034388
34.919542 -93.987042 34.707621
34.7819 -68.483345 54.935208
34.624544 -67.34687 54.940212
34.18849 -68.987366 55.489502
34.7819 -68.483345 54.935208
30.52563 -58.407749 70.434971
30.963191 -58.072725 69.415787
30.409307 -59.475877 70.600739
30.52563 -58.407749 70.434971
31.927134 -63.588503 62.336479
32.218291 -63.217793 61.318741
32.107826 -62.606459 62.436211
28.785049 -77.391472 56.18763
28.079977 -76.703194 57.367275
28.017988 -77.537079 56.434613
29.55159 -77.311081 56.087425
28.785049 -77.391472 56.18763
9.274337 -82.05893 69.702828
9.549017 -81.016842 70.721425
8.600634 -81.502202 70.690876
15.357217 -93.034367 51.321717
14.568095 -92.514996 52.828583
14.624783 -93.741219 51.726776
27.760635 -94.822193 31.075539
28.704092 -94.497341 31.140469
28.086962 -93.503441 32.491642
33.926494 -64.680009 55.805279
34.40632 -65.179382 55.058773
34.092006 -98.059528 28.124911
34.345251 -97.050011 29.73923
33.139879 -98.240441 27.524731
34.092006 -98.059528 28.124911
8.758556 -86.008491 65.27808
8.806884 -85.039177 66.416748
7.95132 -85.521423 66.352947
20.4615 -92.658905 42.502573
19.653337 -93.517719 43.189455
21.265864 -91.820904 41.90778
20.621731 -91.21378 43.735495
20.4615 -92.658905 42.502573
21.945162 -92.463615 40.099886
22.105393 -91.01849 41.332808
21.265864 -91.820904 41.90778
23.699921 -94.698021 34.852499
23.160698 -93.916416 36.568533
24.643719 -94.014981 34.428276
23.699921 -94.698021 34.852499
12.536398 -95.353371 52.75069
11.747813 -94.672752 53.913029
13.213196 -94.916313 52.451629
12.536398 -95.353371 52.75069
32.350589 -60.04963 63.447506
32.451116 -60.679411 62.465869
27.330588 -63.204864 73.934318
27.686426 -62.086354 74.026199
26.899399 -62.505108 74.716865
23.237923 -66.058166 75.926441
24.231823 -65.611939 75.465256
23.751526 -64.936951 76.228405
22.21262 -66.530563 76.345028
22.692917 -67.205551 75.581879
23.237923 -66.058166 75.926441
18.942337 -67.913185 77.339131
20.057944 -67.463516 77.044266
18.367002 -69.112686 76.921844
18.942337 -67.913185 77.339131
32.801214 -64.990471 58.249729
32.922358 -63.992329 58.378189
32.553146 -64.416668 59.215687
32.447845 -73.515091 56.591099
32.487974 -72.466515 56.942791
31.825185 -72.791314 57.387375
32.477281 -74.600304 56.281883
32.447845 -73.515091 56.591099
31.036592 -76.068691 56.364044
31.035631 -77.048916 55.742393
30.951477 -83.173699 48.461422
30.929408 -84.041664 47.065916
32.274368 -88.770352 40.274521
31.543512 -87.712559 41.303613
32.182507 -89.739258 38.622341
32.986593 -89.856395 39.210743
32.274368 -88.770352 40.274521
10.660065 -77.83561 73.537556
11.121353 -76.712044 74.362606
10.08878 -77.171539 74.390664
11.909848 -91.222283 57.098267
10.979843 -90.731064 58.319267
11.154137 -91.752769 57.187752
14.343212 -73.515041 75.626915
15.46605 -73.039833 75.459003
14.924027 -72.391087 76.279201
13.787346 -74.662689 74.948395
14.343212 -73.515041 75.626915
13.245323 -74.013943 75.768593
34.580786 -95.990239 31.354737
34.757742 -95.002926 33.034388
33.701397 -96.073757 30.655634
34.345251 -97.050011 29.73923
34.580786 -95.990239 31.354737
8.833927 -87.908733 62.959129
8.772284 -86.969787 64.12067
7.964634 -87.429683 64.052738
9.751364 -88.403133 61.863949
8.833927 -87.908733 62.959129
10.663873 -88.78159 60.62891
10.554086 -87.827293 61.792023
9.751364 -88.403133 61.863949
31.332231 -57.725903 68.353543
31.667905 -57.410395 67.252308
31.260359 -58.764257 68.564198
31.332231 -57.725903 68.353543
30.963191 -58.072725 69.415787
30.225404 -60.519497 70.678547
30.707415 -60.154699 69.704251
30.409307 -59.475877 70.600739
29.686646 -60.90932 71.599037
29.984755 -61.588142 70.702549
30.225404 -60.519497 70.678547
26.052326 -62.911684 75.345234
26.899399 -62.505108 74.716865
25.153259 -63.345236 75.916351
25.644493 -64.057171 75.196102
26.052326 -62.911684 75.345234
24.204322 -63.763316 76.431469
25.153259 -63.345236 75.916351
23.751526 -64.936951 76.228405
24.204322 -63.763316 76.431469
32.355944 -63.809182 60.281578
32.218291 -63.217793 61.318741
32.234801 -64.807323 60.153118
32.553146 -64.416668 59.215687
32.355944 -63.809182 60.281578
30.288129 -77.161644 55.840278
29.583577 -76.40815 56.873146
29.55159 -77.311081 56.087425
31.035631 -77.048916 55.742393
30.288129 -77.161644 55.840278
30.897355 -84.88696 45.589891
30.929408 -84.041664 47.065916
30.125002 -83.937283 46.66827
30.854846 -85.777241 44.056676
30.897355 -84.88696 45.589891
30.798896 -86.678704 42.482943
30.854846 -85.777241 44.056676
30.036999 -85.684041 43.618511
30.725665 -87.619359 40.865448
31.543512 -87.712559 41.303613
30.798896 -86.678704 42.482943
9.867107 -79.985737 71.712975
10.243195 -78.903233 72.641044
10.540809 -80.542465 70.724926
9.867107 -79.985737 71.712975
9.549017 -81.016842 70.721425
29.676616 -94.233002 31.342369
30.592454 -94.089867 31.654425
29.946257 -93.035454 32.868628
29.676616 -94.233002 31.342369
28.704092 -94.497341 31.140469
34.558517 -66.263134 55.015953
34.40632 -65.179382 55.058773
34.044966 -66.780597 55.635952
34.624544 -67.34687 54.940212
34.558517 -66.263134 55.015953
27.928281 -78.31884 55.37986
28.017988 -77.537079 56.434613
27.22321 -77.630562 56.559506
27.888361 -79.117947 54.278217
28.683139 -79.024463 54.153324
27.928281 -78.31884 55.37986
8.902454 -84.062839 67.542797
9.065606 -83.05893 68.633129
8.162802 -83.548199 68.581947
9.709689 -84.549908 66.46793
8.902454 -84.062839 67.542797
8.806884 -85.039177 66.416748
16.828587 -94.062226 48.045727
16.144517 -93.492565 49.675117
17.573061 -93.251461 47.388023
16.828587 -94.062226 48.045727
18.329633 -92.404258 46.799406
17.631702 -91.877339 48.541708
17.573061 -93.251461 47.388023
19.04418 -92.915081 44.988005
19.653337 -93.517719 43.189455
19.102821 -91.540959 46.141689
18.329633 -92.404258 46.799406
19.04418 -92.915081 44.988005
22.528883 -93.163444 38.304802
21.945162 -92.463615 40.099886
23.416506 -92.414173 37.788645
22.528883 -93.163444 38.304802
23.160698 -93.916416 36.568533
25.551094 -93.417679 34.117759
24.955696 -92.569844 35.74186
24.643719 -94.014981 34.428276
26.191311 -94.345554 32.615444
26.503287 -92.900418 33.929028
25.551094 -93.417679 34.117759
26.763735 -95.264961 31.131782
26.191311 -94.345554 32.615444
11.371295 -92.700966 56.074639
11.154137 -91.752769 57.187752
11.540752 -93.738891 54.987572
11.747813 -94.672752 53.913029
12.2536 -93.281914 54.879684
11.371295 -92.700966 56.074639
11.540752 -93.738891 54.987572
13.919498 -94.367317 52.172142
13.129359 -93.770843 53.513131
13.213196 -94.916313 52.451629
14.624783 -93.741219 51.726776
13.919498 -94.367317 52.172142
10.018796 -75.241146 75.957593
11.074551 -74.884354 75.93208
9.530773 -76.410225 75.190003
10.018796 -75.241146 75.957593
10.08878 -77.171539 74.390664
9.530773 -76.410225 75.190003
7.665838 -81.871338 70.576851
8.600634 -81.502202 70.690876
7.436368 -82.910366 69.52319
7.665838 -81.871338 70.576851
8.162802 -83.548199 68.581947
7.436368 -82.910366 69.52319
7.10789 -85.876144 66.176644
7.95132 -85.521423 66.352947
7.105909 -86.822197 65.019283
7.10789 -85.876144 66.176644
7.964634 -87.429683 64.052738
7.105909 -86.822197 65.019283
34.369058 -92.001259 37.296213
35.041383 -93.013161 36.405029
32.30875 -61.623249 62.477626
32.451116 -60.679411 62.465869
32.017593 -61.99396 63.495365
32.107826 -62.606459 62.436211
32.30875 -61.623249 62.477626
31.906245 -58.095203 66.375969
31.667905 -57.410395 67.252308
32.091462 -58.756586 65.422333
31.906245 -58.095203 66.375969
31.814617 -59.078817 66.548317
32.241248 -59.414355 64.476456
32.091462 -58.756586 65.422333
32.109175 -60.375475 64.565731
32.350589 -60.04963 63.447506
32.241248 -59.414355 64.476456
29.080934 -61.288927 72.466633
29.686646 -60.90932 71.599037
28.416744 -61.692999 73.276939
27.686426 -62.086354 74.026199
28.781806 -62.382038 72.433346
29.080934 -61.288927 72.466633
28.416744 -61.692999 73.276939
21.145569 -66.983589 76.71323
22.21262 -66.530563 76.345028
20.579988 -68.157875 76.331501
21.145569 -66.983589 76.71323
20.057944 -67.463516 77.044266
17.764379 -70.250755 76.41243
18.88974 -69.775871 76.153122
18.367002 -69.112686 76.921844
16.644253 -70.751724 76.646221
17.16699 -71.414909 75.877499
17.764379 -70.250755 76.41243
15.506878 -71.204937 76.845349
16.644253 -70.751724 76.646221
14.924027 -72.391087 76.279201
15.506878 -71.204937 76.845349
33.212433 -63.603359 57.507923
32.922358 -63.992329 58.378189
33.522238 -64.114645 56.655548
33.212433 -63.603359 57.507923
33.574682 -65.131496 56.561962
33.926494 -64.680009 55.805279
33.522238 -64.114645 56.655548
33.667739 -69.450306 56.158615
34.18849 -68.987366 55.489502
33.590242 -68.327275 56.229325
33.669433 -70.549644 55.997169
33.667739 -69.450306 56.158615
33.071186 -69.889554 56.736992
33.75223 -71.690041 55.901817
33.669433 -70.549644 55.997169
33.091757 -72.089592 56.36103
32.469097 -71.365814 57.157307
32.487974 -72.466515 56.942791
33.75223 -71.690041 55.901817
33.091757 -72.089592 56.36103
31.09475 -75.120659 56.990192
30.378274 -75.31068 57.252147
31.036592 -76.068691 56.364044
31.769063 -74.85928 56.568886
31.110744 -74.101269 57.456989
31.09475 -75.120659 56.990192
32.477281 -74.600304 56.281883
31.769063 -74.85928 56.568886
29.432235 -79.804592 53.085594
28.683139 -79.024463 54.153324
30.207714 -80.616059 51.963596
29.432235 -79.804592 53.085594
29.418698 -80.635037 51.929684
30.978023 -81.478432 51.009727
30.207714 -80.616059 51.963596
30.970038 -82.350956 49.793117
30.175615 -82.269246 49.47599
30.951477 -83.173699 48.461422
30.978023 -81.478432 51.009727
30.970038 -82.350956 49.793117
33.686159 -90.922802 38.266691
32.986593 -89.856395 39.210743
33.577632 -91.903759 36.588085
34.369058 -92.001259 37.296213
33.686159 -90.922802 38.266691
11.619763 -75.604782 75.152894
12.144245 -74.441162 75.869259
11.074551 -74.884354 75.93208
11.275768 -78.443737 72.612988
10.660065 -77.83561 73.537556
10.243195 -78.903233 72.641044
10.798353 -89.779003 59.465309
10.979843 -90.731064 58.319267
11.601074 -89.203163 59.393383
10.663873 -88.78159 60.62891
10.798353 -89.779003 59.465309
16.087829 -92.266343 50.776924
15.357217 -93.034367 51.321717
16.144517 -93.492565 49.675117
31.253127 -95.173665 30.567386
31.522768 -93.976117 32.093645
30.592454 -94.089867 31.654425
31.881854 -96.221588 29.485867
31.253127 -95.173665 30.567386
32.523065 -97.258397 28.502626
32.824652 -96.096722 30.023367
31.881854 -96.221588 29.485867
33.139879 -98.240441 27.524731
32.523065 -97.258397 28.502626
27.760635 -94.822193 31.075539
26.763735 -95.264961 31.131782
3 216 56 217
3 0 218 219
3 0 220 222
3 220 57 221
3 220 221 222
3 1 60 58
3 2 63 61
3 2 65 63
3 3 223 224
3 3 225 226
3 4 69 67
3 6 72 70
3 6 74 72
3 227 76 228
3 230 229 76
3 8 231 233
3 231 79 232
3 231 232 233
3 9 82 80
3 9 84 82
3 5 87 85
3 234 90 235
3 236 235 88
3 234 235 236
3 238 237 90
3 10 94 92
3 10 95 94
3 7 239 241
3 239 97 240
3 239 240 241
3 11 100 98
3 11 102 100
3 242 105 243
3 244 243 103
3 242 243 244
3 12 108 106
3 12 110 108
3 12 112 110
3 13 115 113
3 13 117 115
3 13 245 247
3 247 246 117
3 245 246 247
3 248 118 249
3 14 121 119
3 16 122 55
3 16 123 122
3 17 250 251
3 17 252 253
3 18 126 124
3 20 127 59
3 20 128 127
3 21 131 129
3 23 132 62
3 23 133 132
3 23 135 133
3 25 136 64
3 25 137 136
3 26 254 256
3 254 139 255
3 254 255 256
3 28 140 66
3 28 141 140
3 257 143 258
3 259 144 260
3 261 260 143
3 259 260 261
3 262 146 263
3 264 263 144
3 262 263 264
3 265 147 266
3 268 267 147
3 31 150 148
3 33 151 68
3 33 152 151
3 15 153 120
3 34 154 71
3 34 155 154
3 34 156 155
3 35 157 73
3 35 158 157
3 269 159 270
3 272 271 159
3 273 161 274
3 37 162 75
3 37 163 162
3 37 164 163
3 38 165 77
3 38 166 165
3 39 275 277
3 275 167 276
3 275 276 277
3 39 168 167
3 39 169 168
3 278 170 279
3 280 279 78
3 278 279 280
3 281 171 282
3 283 282 170
3 281 282 283
3 284 172 285
3 287 286 172
3 40 288 290
3 288 173 289
3 288 289 290
3 40 174 173
3 19 175 125
3 41 176 81
3 41 177 176
3 41 178 177
3 42 291 293
3 293 292 83
3 291 292 293
3 42 294 295
3 32 179 149
3 43 180 86
3 43 181 180
3 22 182 130
3 44 183 89
3 44 184 183
3 44 185 184
3 297 296 91
3 24 186 134
3 299 298 93
3 45 300 301
3 45 302 304
3 302 187 303
3 302 303 304
3 305 188 306
3 307 306 160
3 305 306 307
3 46 189 96
3 46 190 189
3 27 191 138
3 47 192 99
3 47 193 192
3 47 194 193
3 48 195 101
3 48 196 195
3 36 308 310
3 308 197 309
3 308 309 310
3 49 198 104
3 49 199 198
3 29 200 142
3 50 201 107
3 50 202 201
3 50 203 202
3 51 204 109
3 51 205 204
3 51 206 205
3 52 207 111
3 52 208 207
3 30 209 145
3 53 210 114
3 53 211 210
3 53 212 211
3 54 213 116
3 54 214 213
3 54 215 214
3 311 55 312
3 313 312 14
3 311 312 313
3 56 314 316
3 314 55 315
3 314 315 316
3 56 16 55
3 57 317 318
3 57 319 321
3 319 17 320
3 319 320 321
3 58 59 18
3 60 59 58
3 60 20 59
3 61 62 21
3 63 62 61
3 63 23 62
3 63 64 23
3 65 64 63
3 65 25 64
3 322 66 323
3 324 323 26
3 322 323 324
3 325 66 326
3 327 28 328
3 329 328 66
3 327 328 329
3 67 68 31
3 69 68 67
3 69 33 68
3 70 71 15
3 72 71 70
3 72 34 71
3 72 73 34
3 74 73 72
3 74 35 73
3 330 75 331
3 76 332 334
3 332 75 333
3 332 333 334
3 76 37 75
3 76 77 37
3 335 77 336
3 337 336 76
3 335 336 337
3 338 38 339
3 340 339 77
3 338 339 340
3 341 39 342
3 343 78 344
3 345 344 39
3 343 344 345
3 346 78 347
3 349 348 78
3 79 350 351
3 79 352 354
3 352 40 353
3 352 353 354
3 80 81 19
3 82 81 80
3 82 41 81
3 82 83 41
3 84 83 82
3 84 42 83
3 85 86 32
3 87 86 85
3 87 43 86
3 88 89 22
3 90 89 88
3 90 44 89
3 90 91 44
3 355 91 356
3 357 356 90
3 355 356 357
3 359 358 91
3 92 93 24
3 94 93 92
3 94 360 362
3 362 361 93
3 360 361 362
3 94 363 364
3 95 365 367
3 367 366 94
3 365 366 367
3 95 368 370
3 368 45 369
3 368 369 370
3 371 96 372
3 97 373 375
3 373 96 374
3 373 374 375
3 97 46 96
3 98 99 27
3 100 99 98
3 100 47 99
3 100 101 47
3 102 101 100
3 102 48 101
3 103 104 36
3 105 104 103
3 105 49 104
3 106 107 29
3 108 107 106
3 108 50 107
3 108 109 50
3 110 109 108
3 110 51 109
3 110 111 51
3 112 111 110
3 112 52 111
3 113 114 30
3 115 114 113
3 115 53 114
3 115 116 53
3 117 116 115
3 117 54 116
3 117 376 378
3 378 377 54
3 376 377 378
3 380 379 117
3 118 381 382
3 118 383 385
3 383 3 384
3 383 384 385
3 119 120 4
3 121 120 119
3 121 15 120
3 55 121 14
3 122 121 55
3 122 15 121
3 122 70 15
3 123 70 122
3 123 6 70
3 124 125 8
3 126 125 124
3 126 19 125
3 59 126 18
3 127 126 59
3 127 19 126
3 127 80 19
3 128 80 127
3 128 9 80
3 129 130 5
3 131 130 129
3 131 22 130
3 62 131 21
3 132 131 62
3 132 22 131
3 132 88 22
3 133 88 132
3 133 386 388
3 388 387 88
3 386 387 388
3 133 389 391
3 389 134 390
3 389 390 391
3 135 134 133
3 135 24 134
3 64 135 23
3 136 135 64
3 136 24 135
3 136 92 24
3 137 92 136
3 137 10 92
3 392 138 393
3 394 393 7
3 392 393 394
3 139 395 397
3 395 138 396
3 395 396 397
3 139 27 138
3 66 139 26
3 140 139 66
3 140 27 139
3 140 98 27
3 141 98 140
3 141 11 98
3 398 142 399
3 400 142 401
3 402 29 403
3 404 403 142
3 402 403 404
3 143 405 406
3 143 407 409
3 407 29 408
3 407 408 409
3 143 106 29
3 144 106 143
3 144 12 106
3 144 145 12
3 146 145 144
3 146 30 145
3 410 146 411
3 147 412 414
3 412 146 413
3 412 413 414
3 147 30 146
3 147 113 30
3 415 113 416
3 417 416 147
3 415 416 417
3 418 13 419
3 420 419 113
3 418 419 420
3 422 421 13
3 148 149 1
3 150 149 148
3 150 32 149
3 68 150 31
3 151 150 68
3 151 32 150
3 151 85 32
3 152 85 151
3 152 5 85
3 120 69 4
3 153 69 120
3 153 33 69
3 71 153 15
3 154 153 71
3 154 33 153
3 154 152 33
3 155 152 154
3 155 5 152
3 155 129 5
3 156 129 155
3 156 21 129
3 73 156 34
3 157 156 73
3 157 21 156
3 157 61 21
3 158 61 157
3 158 2 61
3 423 36 424
3 159 425 426
3 159 427 429
3 427 36 428
3 427 428 429
3 159 103 36
3 430 103 431
3 432 431 159
3 430 431 432
3 434 433 103
3 435 160 436
3 437 160 438
3 440 439 160
3 441 7 442
3 443 7 444
3 446 445 7
3 447 26 448
3 449 26 450
3 452 451 26
3 453 0 454
3 161 455 456
3 161 457 459
3 457 8 458
3 457 458 459
3 75 460 461
3 162 462 464
3 464 463 75
3 462 463 464
3 162 465 466
3 162 467 469
3 467 161 468
3 467 468 469
3 163 161 162
3 163 8 161
3 163 124 8
3 164 124 163
3 164 18 124
3 77 164 37
3 165 164 77
3 165 18 164
3 165 58 18
3 166 58 165
3 166 1 58
3 470 38 471
3 167 472 473
3 167 474 476
3 474 38 475
3 474 475 476
3 167 166 38
3 168 166 167
3 168 1 166
3 168 148 1
3 169 148 168
3 169 31 148
3 78 169 39
3 170 169 78
3 170 31 169
3 170 67 31
3 171 67 170
3 171 4 67
3 477 171 478
3 172 479 481
3 479 171 480
3 479 480 481
3 172 4 171
3 172 119 4
3 482 119 483
3 484 483 172
3 482 483 484
3 485 14 486
3 487 486 119
3 485 486 487
3 488 14 489
3 491 490 14
3 173 492 493
3 173 494 495
3 173 496 498
3 496 118 497
3 496 497 498
3 174 118 173
3 174 3 118
3 125 79 8
3 175 79 125
3 175 40 79
3 81 175 19
3 176 175 81
3 176 40 175
3 176 174 40
3 177 174 176
3 177 3 174
3 177 499 501
3 501 500 3
3 499 500 501
3 178 502 504
3 504 503 177
3 502 503 504
3 178 505 506
3 83 178 41
3 507 178 508
3 509 508 83
3 507 508 509
3 511 510 178
3 149 60 1
3 179 60 149
3 179 20 60
3 86 179 32
3 180 179 86
3 180 20 179
3 180 128 20
3 181 128 180
3 181 9 128
3 130 87 5
3 182 87 130
3 182 43 87
3 89 182 22
3 183 182 89
3 183 43 182
3 183 181 43
3 184 181 183
3 184 9 181
3 184 84 9
3 185 84 184
3 185 42 84
3 91 185 44
3 512 185 513
3 514 513 91
3 512 513 514
3 515 42 516
3 517 516 185
3 515 516 517
3 519 518 42
3 134 520 521
3 186 522 524
3 524 523 134
3 522 523 524
3 186 525 526
3 93 186 24
3 527 186 528
3 529 528 93
3 527 528 529
3 531 530 186
3 187 532 533
3 187 534 536
3 534 0 535
3 534 535 536
3 160 537 539
3 537 56 538
3 537 538 539
3 188 56 160
3 188 16 56
3 96 540 542
3 540 188 541
3 540 541 542
3 189 188 96
3 189 16 188
3 189 123 16
3 190 123 189
3 190 6 123
3 138 97 7
3 191 97 138
3 191 46 97
3 99 191 27
3 192 191 99
3 192 46 191
3 192 190 46
3 193 190 192
3 193 6 190
3 193 74 6
3 194 74 193
3 194 35 74
3 101 194 47
3 195 194 101
3 195 35 194
3 195 158 35
3 196 158 195
3 196 2 158
3 197 543 544
3 197 545 547
3 545 28 546
3 545 546 547
3 104 197 36
3 198 197 104
3 198 28 197
3 198 141 28
3 199 141 198
3 199 11 141
3 142 548 550
3 548 105 549
3 548 549 550
3 200 105 142
3 200 49 105
3 107 200 29
3 201 200 107
3 201 49 200
3 201 199 49
3 202 199 201
3 202 11 199
3 202 102 11
3 203 102 202
3 203 48 102
3 109 203 50
3 204 203 109
3 204 48 203
3 204 196 48
3 205 196 204
3 205 2 196
3 205 65 2
3 206 65 205
3 206 25 65
3 111 206 51
3 207 206 111
3 207 25 206
3 207 137 25
3 208 137 207
3 208 10 137
3 145 112 12
3 209 112 145
3 209 52 112
3 114 209 30
3 210 209 114
3 210 52 209
3 210 208 52
3 211 208 210
3 211 10 208
3 211 95 10
3 212 95 211
3 212 45 95
3 116 212 53
3 213 212 116
3 213 45 212
3 213 187 45
3 214 187 213
3 214 0 187
3 214 57 0
3 215 57 214
3 215 17 57
3 551 215 552
3 553 552 54
3 551 552 553
3 554 215 555
3 556 17 557
3 558 557 215
3 556 557 558
3 560 559 17
3 562 561 13
