ply
format ascii 1.0
element vertex 559
property float x
property float y
property float z
element face 645
property list uchar int vertex_index
end_header
-54.744564 -1.248976 45.047081
-50.03611 -18.363789 52.024513
-68.726311 -11.503052 20.770771
-63.238308 5.367624 27.159096
-63.462109 -10.884666 36.379906
-67.600357 -2.671568 14.556563
-59.216125 2.721642 36.364483
-50.780731 -10.833717 46.176403
-56.710747 -14.422417 44.189655
-57.6213 -6.125966 38.506592
-63.946579 -2.911917 30.482533
-49.550568 -5.483945 52.846188
-44.545242 -14.997023 53.931679
-62.795837 -18.543581 43.269489
-67.464378 -17.80257 34.944469
-68.455841 -10.123235 28.280315
-68.118729 -2.290648 22.040606
-57.028214 0.819054 40.780106
-52.924957 -6.076126 45.334351
-54.205975 -8.437853 42.367496
-55.924675 -3.745888 41.362747
-58.814728 -1.60169 37.260559
-46.792549 -10.458135 52.991856
-60.164597 -12.424605 40.310364
-60.297421 -16.14883 44.090767
-63.322918 -14.706044 40.015602
-65.353012 -17.833714 39.101227
-66.050964 -13.885603 35.903809
-68.150314 -13.866045 31.76462
-66.346962 -10.100071 32.357616
-64.039337 1.313801 28.678228
-66.459145 -2.31184 26.279926
-66.042793 1.872766 24.193571
-67.27153 1.950277 19.71611
-68.365776 -7.252494 17.496637
-66.445442 -12.060966 17.984703
-61.319092 4.295185 31.831287
-49.676132 -15.027849 48.371872
-53.277462 -16.486399 48.080593
-53.151428 -12.801967 44.558506
-56.746273 -10.489757 40.775803
-60.299988 -8.442832 36.955986
-63.629345 -6.993871 33.041672
-60.919128 -4.20877 34.55571
-61.557823 0.139931 33.037682
-52.274174 -3.378356 49.077675
-43.894623 -18.85218 56.230953
-46.524136 -17.002491 52.271408
-47.486752 -13.042665 50.003906
-49.842064 -8.366648 49.18071
-57.179214 -17.844881 48.172802
-69.190056 -14.524161 27.726099
-69.365601 -10.727224 24.316719
-66.467468 -6.313323 29.00639
-68.451828 -6.342663 24.911015
-69.18174 -6.793775 20.96237
-68.569458 -2.541527 18.01358
-55.902966 -0.201895 42.937271
-56.022614 2.005209 42.617958
-53.97514 -3.640663 45.183586
-54.437767 -4.902213 43.36594
-55.325157 -2.51795 43.151752
-56.640732 -1.421303 41.075882
-68.776779 -13.518085 22.433805
-61.846401 -11.574287 38.355164
-61.849869 -13.486458 40.206745
-63.412235 -12.796133 38.20343
-64.74173 -14.200263 37.965828
-64.887032 -12.285248 36.182106
-66.23378 -11.978456 34.142166
-64.976471 -10.387932 34.380486
-63.78978 3.387974 27.91954
-65.11821 1.666307 26.447107
-64.735199 3.727045 25.609154
-65.538872 3.928232 23.279558
-68.034729 -4.992995 15.970619
-67.363861 -7.366459 16.053308
-67.022949 -4.999526 14.54336
-60.281834 3.561539 34.113617
-50.043404 -13.028059 47.077316
-51.387451 -13.942684 46.457016
-51.77422 -11.877894 45.178123
-55.921349 -7.251048 40.44632
-55.316322 -9.496781 41.392284
-57.090889 -8.348205 39.488483
-58.538277 -9.409753 38.874451
-58.845772 -7.287028 37.568314
-60.562172 -6.352867 35.625816
-59.292664 -5.101027 36.544411
-59.18639 0.607683 36.819111
-60.209549 -0.668434 35.16481
-60.415108 1.494255 34.645042
-61.60379 2.26486 32.438972
-50.943008 -4.439528 50.98996
-51.861389 -1.909058 50.955997
-50.617195 -2.927988 52.821705
-43.274467 -15.92696 55.935543
-43.996021 -17.019695 54.896873
-45.136971 -17.926363 54.250702
-45.320797 -16.089357 52.905743
-46.786858 -15.13026 50.935841
-45.956604 -14.04529 51.952457
-48.207428 -8.006631 52.869305
-48.300339 -9.441444 51.081802
-49.688637 -6.965951 50.994621
-51.15403 -5.882976 49.099735
-54.981567 -15.468048 46.130081
-55.281765 -17.141605 48.159363
-56.92939 -16.192513 46.166565
-61.719421 -17.233715 43.803932
-60.271652 -17.932522 45.885113
-61.44376 -19.080273 45.368401
-62.261608 -20.466164 44.586945
-63.550209 -20.103298 42.511429
-66.48822 -17.726614 37.021042
-68.223778 -18.050871 32.882969
-68.34584 -11.980862 30.037704
-68.830765 -14.129259 29.719084
-69.001892 -12.243855 28.010431
-69.319496 -12.624096 26.040024
-69.086304 -10.375987 26.267891
-63.781021 -4.980326 31.652861
-65.130486 -6.555433 31.038246
-65.219124 -4.57158 29.617012
-67.418976 -2.244375 24.153076
-67.544434 -4.284999 25.472662
-68.334503 -4.355374 23.400616
-68.996628 -6.540443 22.899338
-68.811356 -4.512878 21.370331
-68.934494 -4.706059 19.424326
-68.513992 -2.406359 19.97921
-58.130955 1.799816 38.586971
-51.794296 -8.495593 45.625534
-52.487572 -9.645172 44.275047
-53.428326 -7.298999 43.701309
-55.052879 -6.104112 41.755814
-56.659813 -4.94678 39.785744
-58.241737 -3.862108 37.789936
-57.384453 -2.636307 39.326767
-57.927162 -0.371967 38.963219
-48.115559 -6.503839 54.670227
-42.912308 -14.670844 57.30912
-46.739594 -9.003122 54.74749
-58.445076 -13.39107 42.25246
-58.585621 -15.23555 44.181099
-60.232521 -14.316195 42.196945
-61.831886 -15.370681 42.055397
-63.135628 -16.621872 41.728821
-64.108818 -18.114948 41.182709
-64.495895 -16.143848 39.653774
-65.766663 -15.837138 37.57444
-66.904854 -15.72323 35.491051
-67.858871 -15.803915 33.411087
-67.204781 -13.776244 33.832993
-67.404556 -11.881639 32.089371
-67.524582 -10.018782 30.318832
-64.061417 -0.802538 29.508694
-65.286552 -2.52722 28.394936
-65.277191 -0.435852 27.354073
-66.330109 -0.225706 25.17421
-67.177361 -0.149385 22.987417
-67.775284 -0.172426 20.823038
-66.773529 1.956259 21.938896
-68.593826 -9.422146 19.109388
-67.782486 -11.827152 19.264568
-67.615372 -9.644744 17.639429
-62.312008 4.901533 29.513496
-49.693615 -16.804897 50.045074
-51.620693 -17.452679 50.045433
-51.352032 -15.803491 48.101662
-53.076645 -14.740159 46.177109
-54.842056 -13.633626 44.26619
-53.538513 -10.688178 43.28624
-54.944389 -11.636566 42.667717
-56.626312 -12.520506 42.361237
-58.409401 -11.448342 40.453697
-60.170521 -10.467669 38.534992
-61.885303 -9.624884 36.597191
-63.52383 -8.956789 34.633987
-62.007019 -7.628088 35.013512
-62.216904 -5.577016 33.65543
-62.479496 -3.473929 32.536179
-59.789215 -2.881865 35.767143
-61.288704 -2.032871 33.714798
-62.721222 -1.335621 31.62945
-62.842365 0.804529 30.876072
-62.736298 2.900118 30.197577
-53.539219 -2.311209 47.096825
-54.071293 0.083364 46.946617
-53.009109 -0.903896 48.997978
-48.548042 -19.23831 54.011566
-45.370319 -19.558834 55.957382
-46.683041 -18.653299 53.98378
-48.128975 -17.747215 52.00795
-48.045296 -16.045015 50.309551
-48.37109 -14.114219 48.993851
-49.105103 -11.972094 48.081993
-46.993305 -11.81672 51.367409
-48.553726 -10.77205 49.445007
-50.163033 -9.661339 47.536022
-51.389824 -7.239191 47.269859
-52.58522 -4.768884 47.165985
-53.661339 -18.052372 50.162739
-58.740986 -16.989473 46.128162
-64.790558 -19.863234 40.452366
-68.571259 -16.06085 31.35117
-69.254211 -13.067106 24.166479
-69.253479 -11.121075 22.469164
-65.049561 -8.486805 32.642166
-66.419212 -8.22254 30.623608
-67.583633 -8.15454 28.587481
-66.489326 -4.346123 27.552578
-67.59182 -6.252501 26.957075
-68.48996 -8.256469 26.55212
-69.085358 -8.487204 24.545952
-69.32222 -8.79514 22.606802
-69.164436 -9.124437 20.779158
-68.975578 -7.047996 19.146105
-68.677689 -4.882169 17.609459
-68.26503 -2.645569 16.191471
-68.084557 -0.251707 18.721012
-68.076172 -0.339624 16.729141
-54.906336 -0.098171 44.930408
-55.485537 0.42537 43.875504
-55.323765 -0.725436 43.992176
-68.302624 -12.716232 20.827855
-68.327858 -13.723748 21.659372
-68.751545 -12.510568 21.602288
-62.792094 6.290306 26.748474
-63.654341 5.529758 25.966303
-51.062556 -18.639625 52.100151
-50.311416 -19.053968 53.108334
-63.654341 5.529758 25.966303
-64.402786 4.709469 25.191332
-63.986753 4.547334 26.384125
-59.010183 3.714523 36.08851
-59.543037 4.134471 34.963077
-59.74898 3.14159 35.23905
-67.214428 -18.827918 35.648248
-66.726349 -18.78994 36.686535
-66.976299 -17.764592 35.982755
-67.627933 -18.94836 34.627761
-67.214428 -18.827918 35.648248
-67.844078 -17.926721 33.913719
-68.007633 -19.07251 33.597012
-67.627933 -18.94836 34.627761
-56.991737 1.879171 40.579047
-57.543108 2.369553 39.482479
-57.579584 1.309435 39.683538
-55.812562 3.044824 42.370098
-55.434807 2.62186 43.511207
-47.993074 -5.740246 55.513941
-47.392387 -7.001014 55.58126
-43.461707 -13.516424 57.104507
-42.850944 -13.983721 58.107172
-43.529498 -14.206418 56.303852
-43.461707 -13.516424 57.104507
-46.704405 -8.250655 55.619892
-46.030015 -9.483935 55.699471
-47.392387 -7.001014 55.58126
-47.427577 -7.753481 54.708858
-46.704405 -8.250655 55.619892
-65.852047 3.971045 22.117435
-65.158039 4.90648 22.825817
-66.811722 -8.564528 16.226712
-66.685173 -7.36456 15.447692
-60.976763 5.244722 31.487112
-61.473221 5.547897 30.328216
-61.81555 4.598359 30.672391
-51.768202 0.106633 51.756315
-52.076962 -0.661256 50.878784
-51.55263 -1.141169 51.833528
-47.860933 -19.674494 55.00219
-48.860466 -19.904214 55.105312
-43.340454 -19.33274 57.209004
-43.357118 -18.403842 56.561477
-44.040573 -19.676551 57.068115
-43.340454 -19.33274 57.209004
-44.632471 -19.205507 56.094167
-44.778421 -20.029878 56.93133
-44.040573 -19.676551 57.068115
-46.892927 -11.137428 52.179632
-46.25363 -12.308454 52.341949
-46.153251 -11.629162 53.154173
-66.511143 -13.163635 18.770245
-67.179665 -13.046728 19.410177
-67.113964 -11.944059 18.624636
-54.067884 1.232725 46.787914
-53.647543 0.792929 47.858158
-56.403156 -18.262315 49.19988
-55.454431 -17.910677 49.193161
-56.23049 -17.493243 48.166083
-57.262115 -18.627506 49.127611
-56.403156 -18.262315 49.19988
-59.540489 -18.301682 46.931233
-60.172131 -18.806779 46.685364
-69.086586 -15.491298 28.531932
-68.90694 -15.293847 29.528424
-69.010411 -14.32671 28.722592
-69.115177 -15.736834 27.566091
-69.086586 -15.491298 28.531932
-69.184555 -14.761681 26.774698
-69.115177 -15.736834 27.566091
-67.762032 0.747394 16.141194
-67.789929 0.77775 17.149415
-67.906307 -0.363606 15.813429
-67.762032 0.747394 16.141194
-55.545361 1.528922 43.715847
-55.96279 0.901657 42.777614
-55.485537 0.42537 43.875504
-55.434807 2.62186 43.511207
-55.545361 1.528922 43.715847
-68.350666 -14.749281 22.445802
-68.76957 -14.509377 23.243434
-68.350666 -14.749281 22.445802
-68.327858 -13.723748 21.659372
-64.804623 4.810062 24.026534
-65.137035 3.827638 24.444356
-64.402786 4.709469 25.191332
-65.158039 4.90648 22.825817
-64.804623 4.810062 24.026534
-66.514717 -6.181094 14.692718
-66.685173 -7.36456 15.447692
-67.193405 -6.182993 15.298334
-60.003603 4.530321 33.803116
-60.522232 4.897144 32.661951
-60.800463 3.928362 32.972452
-60.003603 4.530321 33.803116
-59.543037 4.134471 34.963077
-50.930532 -1.650634 52.766383
-51.55263 -1.141169 51.833528
-51.239292 -2.418523 51.888851
-43.047041 -16.941232 56.413773
-42.711315 -16.397009 56.941206
-43.407818 -17.4876 55.894437
-43.047041 -16.941232 56.413773
-43.635244 -16.473327 55.416208
-43.945322 -17.935938 55.563913
-43.357118 -18.403842 56.561477
-43.407818 -17.4876 55.894437
-65.678348 -13.285089 18.227184
-65.604168 -12.124182 17.467858
-60.758184 -19.380654 46.427008
-60.172131 -18.806779 46.685364
-60.857706 -18.506397 45.626757
-61.19748 -19.997384 46.028412
-60.758184 -19.380654 46.427008
-61.606403 -20.690329 45.637684
-61.19748 -19.997384 46.028412
-61.852684 -19.773218 44.977673
-61.885159 -21.424862 45.122231
-61.606403 -20.690329 45.637684
-62.532488 -21.280389 44.105225
-62.156039 -22.239087 44.640511
-61.885159 -21.424862 45.122231
-63.176789 -21.098956 43.067467
-62.532488 -21.280389 44.105225
-62.905909 -20.284731 43.549187
-63.809971 -21.004877 42.064926
-63.176789 -21.098956 43.067467
-66.216553 -18.750852 37.71085
-65.648949 -18.804402 38.750943
-65.920616 -17.780164 38.061135
-66.216553 -18.750852 37.71085
-66.726349 -18.78994 36.686535
-68.293114 -19.263683 32.588408
-68.007633 -19.07251 33.597012
-68.464397 -18.246897 31.8708
-68.293114 -19.263683 32.588408
-67.387608 1.9227 18.642899
-66.926155 2.982379 19.195119
-67.098397 -2.62546 13.84828
-67.334854 -1.509312 13.913769
-58.005639 2.822869 38.34721
-58.548223 3.283782 37.235966
-58.67354 2.260729 37.475727
-58.005639 2.822869 38.34721
-57.543108 2.369553 39.482479
-56.488937 2.472249 41.497973
-56.991737 1.879171 40.579047
-56.525414 1.412131 41.699032
-56.488937 2.472249 41.497973
-55.812562 3.044824 42.370098
-48.697859 -5.228451 54.641096
-49.415363 -4.718504 53.729076
-48.833063 -5.993892 53.758207
-48.697859 -5.228451 54.641096
-47.993074 -5.740246 55.513941
-42.362362 -15.143282 58.320439
-42.300998 -14.456159 59.118491
-42.850944 -13.983721 58.107172
-42.530236 -15.768951 57.627994
-42.362362 -15.143282 58.320439
-43.093388 -15.298902 56.622332
-42.711315 -16.397009 56.941206
-42.530236 -15.768951 57.627994
-43.710577 -14.834475 55.617064
-43.093388 -15.298902 56.622332
-43.529498 -14.206418 56.303852
-44.345965 -14.369507 54.615132
-43.909855 -15.461991 54.933611
-43.710577 -14.834475 55.617064
-45.029598 -13.898606 53.624085
-44.345965 -14.369507 54.615132
-46.072388 -10.941508 53.959936
-46.153251 -11.629162 53.154173
-46.04591 -10.214001 54.837753
-46.030015 -9.483935 55.699471
-46.766071 -9.730628 53.869673
-46.072388 -10.941508 53.959936
-46.04591 -10.214001 54.837753
-66.469375 2.985059 21.447103
-66.1562 2.942245 22.609227
-65.852047 3.971045 22.117435
-66.718376 2.982068 20.33571
-67.022529 1.953268 20.827503
-66.469375 2.985059 21.447103
-66.926155 2.982379 19.195119
-66.718376 2.982068 20.33571
-66.937477 -9.703671 17.019773
-67.489616 -8.505601 16.846369
-66.811722 -8.564528 16.226712
-66.352513 -10.911782 17.19241
-67.030407 -10.852855 17.812066
-66.937477 -9.703671 17.019773
-65.604168 -12.124182 17.467858
-66.352513 -10.911782 17.19241
-66.809692 -3.78944 13.841679
-67.311653 -3.835547 14.549962
-67.098397 -2.62546 13.84828
-66.352981 -4.937417 13.945408
-66.809692 -3.78944 13.841679
-66.139725 -3.72733 13.243726
-66.514717 -6.181094 14.692718
-66.352981 -4.937417 13.945408
-61.913639 5.835807 29.135976
-62.376789 6.068853 27.958776
-62.775158 5.134578 28.336296
-61.913639 5.835807 29.135976
-61.473221 5.547897 30.328216
-60.976763 5.244722 31.487112
-60.522232 4.897144 32.661951
-59.010183 3.714523 36.08851
-58.548223 3.283782 37.235966
-53.116451 0.299299 48.883839
-53.647543 0.792929 47.858158
-53.540201 -0.410266 47.972298
-52.650822 -0.158675 49.899775
-52.435249 -1.406477 49.976988
-52.076962 -0.661256 50.878784
-53.116451 0.299299 48.883839
-52.650822 -0.158675 49.899775
-49.948677 -3.440526 53.716835
-50.083882 -4.205967 52.833946
-49.415363 -4.718504 53.729076
-50.340534 -2.1519 53.661663
-49.948677 -3.440526 53.716835
-50.930532 -1.650634 52.766383
-50.340534 -2.1519 53.661663
-49.567383 -19.491229 54.10186
-48.860466 -19.904214 55.105312
-49.292076 -18.801049 53.01804
-50.311416 -19.053968 53.108334
-49.567383 -19.491229 54.10186
-45.642978 -20.289674 56.952129
-44.778421 -20.029878 56.93133
-46.272072 -19.834756 55.975098
-45.642978 -20.289674 56.952129
-46.928432 -19.381988 54.988297
-46.272072 -19.834756 55.975098
-46.02668 -19.106067 54.970581
-47.615542 -18.945805 53.997673
-47.860933 -19.674494 55.00219
-46.928432 -19.381988 54.988297
-45.735279 -13.422739 52.634473
-45.250923 -14.521157 52.942068
-45.029598 -13.898606 53.624085
-46.474954 -12.931005 51.659933
-45.735279 -13.422739 52.634473
-46.25363 -12.308454 52.341949
-67.830712 -12.878282 20.074753
-68.302624 -12.716232 20.827855
-68.254399 -11.665102 20.01767
-67.22789 -14.097858 20.220363
-67.830712 -12.878282 20.074753
-67.179665 -13.046728 19.410177
-66.511143 -13.163635 18.770245
-65.678348 -13.285089 18.227184
-62.792094 6.290306 26.748474
-62.376789 6.068853 27.958776
-54.5697 0.567999 45.880177
-54.906336 -0.098171 44.930408
-54.407928 -0.582806 45.996849
-54.5697 0.567999 45.880177
-54.067884 1.232725 46.787914
-51.854847 -18.18407 51.110611
-51.062556 -18.639625 52.100151
-50.828401 -17.908234 51.034973
-52.87517 -18.483916 51.169264
-51.854847 -18.18407 51.110611
-52.641016 -17.752525 50.104086
-53.881035 -18.765397 51.225719
-52.87517 -18.483916 51.169264
-54.644218 -18.36606 50.194849
-54.471552 -17.596988 49.161051
-55.454431 -17.910677 49.193161
-53.881035 -18.765397 51.225719
-54.644218 -18.36606 50.194849
-58.775156 -17.830157 47.052757
-59.506319 -17.460997 46.006637
-59.540489 -18.301682 46.931233
-57.99427 -18.257861 48.075077
-57.9601 -17.417177 47.150482
-58.775156 -17.830157 47.052757
-57.262115 -18.627506 49.127611
-57.99427 -18.257861 48.075077
-64.430146 -20.884845 41.035394
-63.809971 -21.004877 42.064926
-64.170383 -19.983266 41.481898
-65.367722 -19.819161 39.426512
-65.071785 -18.848474 39.776797
-65.648949 -18.804402 38.750943
-65.031048 -20.855329 40.039961
-65.367722 -19.819161 39.426512
-64.430146 -20.884845 41.035394
-65.031048 -20.855329 40.039961
-68.638138 -17.251886 31.1049
-68.464397 -18.246897 31.8708
-68.397518 -17.055861 32.117069
-68.777187 -16.259642 30.344468
-68.701012 -15.095054 30.535127
-68.90694 -15.293847 29.528424
-68.638138 -17.251886 31.1049
-68.777187 -16.259642 30.344468
-69.249275 -13.811649 25.93166
-69.184555 -14.761681 26.774698
-69.254776 -13.574129 26.883062
-69.216633 -14.033154 24.994887
-69.249275 -13.811649 25.93166
-69.286854 -12.845601 25.103251
-69.008285 -14.283888 24.10977
-69.216633 -14.033154 24.994887
-69.015495 -13.292596 23.300142
-68.76957 -14.509377 23.243434
-69.008285 -14.283888 24.10977
-67.794121 0.821708 18.14535
-67.678044 0.849285 19.218561
-67.387608 1.9227 18.642899
-68.080365 -0.295666 17.725077
-67.794121 0.821708 18.14535
-67.789929 0.77775 17.149415
-68.000736 -1.516578 15.544594
-68.170601 -1.492597 16.460306
-67.906307 -0.363606 15.813429
-67.6684 -1.529578 14.72714
-67.932693 -2.658569 15.374017
-68.000736 -1.516578 15.544594
-67.334854 -1.509312 13.913769
-67.6684 -1.529578 14.72714
3 0 222 224
3 224 223 57
3 222 223 224
3 0 61 59
3 0 57 61
3 2 225 227
3 227 226 63
3 225 226 227
3 3 228 229
3 1 230 231
3 4 66 64
3 4 68 66
3 4 70 68
3 3 73 71
3 3 232 234
3 234 233 73
3 232 233 234
3 5 77 75
3 6 235 237
3 237 236 78
3 235 236 237
3 7 81 79
3 9 84 82
3 9 86 84
3 9 88 86
3 6 91 89
3 6 78 91
3 11 95 93
3 12 97 96
3 12 99 97
3 12 101 99
3 11 104 102
3 11 93 104
3 8 108 106
3 13 111 109
3 13 112 111
3 13 113 112
3 14 238 240
3 240 239 114
3 238 239 240
3 14 241 242
3 14 243 245
3 243 115 244
3 243 244 245
3 15 118 116
3 15 120 118
3 10 123 121
3 16 126 124
3 16 128 126
3 16 130 128
3 17 246 248
3 248 247 131
3 246 247 248
3 250 249 58
3 18 134 132
3 20 135 60
3 20 136 135
3 20 138 136
3 17 139 62
3 17 131 139
3 252 251 140
3 253 141 254
3 256 255 141
3 257 142 258
3 259 140 260
3 261 260 142
3 259 260 261
3 23 145 143
3 25 146 65
3 25 147 146
3 25 149 147
3 27 150 67
3 27 151 150
3 27 153 151
3 29 154 69
3 29 155 154
3 30 158 156
3 32 159 72
3 32 160 159
3 32 162 160
3 263 262 74
3 34 165 163
3 265 264 76
3 36 266 268
3 268 267 166
3 266 267 268
3 37 169 167
3 39 170 80
3 39 171 170
3 19 172 133
3 40 173 83
3 40 174 173
3 40 175 174
3 41 176 85
3 41 177 176
3 41 179 177
3 43 180 87
3 43 181 180
3 21 182 137
3 44 183 90
3 44 184 183
3 44 185 184
3 36 186 92
3 36 166 186
3 45 189 187
3 271 270 94
3 269 270 271
3 272 190 273
3 46 274 275
3 46 276 277
3 46 278 280
3 278 191 279
3 278 279 280
3 47 192 98
3 47 193 192
3 47 194 193
3 48 195 100
3 48 196 195
3 22 281 283
3 281 197 282
3 281 282 283
3 49 198 103
3 49 199 198
3 49 200 199
3 45 201 105
3 45 187 201
3 35 284 286
3 286 285 164
3 284 285 286
3 288 287 188
3 38 202 168
3 50 289 291
3 291 290 107
3 289 290 291
3 50 292 293
3 24 203 144
3 295 294 110
3 26 204 148
3 28 205 152
3 51 296 298
3 298 297 117
3 296 297 298
3 51 299 300
3 51 301 302
3 52 206 119
3 52 207 206
3 42 208 178
3 53 209 122
3 53 210 209
3 31 211 157
3 54 212 125
3 54 213 212
3 54 214 213
3 55 215 127
3 55 216 215
3 55 217 216
3 56 218 129
3 56 219 218
3 33 220 161
3 303 221 304
3 306 305 221
3 57 58 17
3 307 58 308
3 309 308 57
3 307 308 309
3 311 310 58
3 59 60 18
3 61 60 59
3 61 20 60
3 61 62 20
3 57 62 61
3 57 17 62
3 63 312 313
3 315 314 63
3 64 65 23
3 66 65 64
3 66 25 65
3 66 67 25
3 68 67 66
3 68 27 67
3 68 69 27
3 70 69 68
3 70 29 69
3 71 72 30
3 73 72 71
3 73 32 72
3 73 74 32
3 316 74 317
3 318 317 73
3 316 317 318
3 320 319 74
3 75 76 34
3 77 76 75
3 77 321 323
3 323 322 76
3 321 322 323
3 78 324 326
3 326 325 36
3 324 325 326
3 328 327 78
3 79 80 37
3 81 80 79
3 81 39 80
3 82 83 19
3 84 83 82
3 84 40 83
3 84 85 40
3 86 85 84
3 86 41 85
3 86 87 41
3 88 87 86
3 88 43 87
3 89 90 21
3 91 90 89
3 91 44 90
3 91 92 44
3 78 92 91
3 78 36 92
3 93 94 45
3 95 94 93
3 95 329 331
3 331 330 94
3 329 330 331
3 96 332 333
3 97 334 336
3 336 335 96
3 334 335 336
3 97 337 339
3 337 46 338
3 337 338 339
3 97 98 46
3 99 98 97
3 99 47 98
3 99 100 47
3 101 100 99
3 101 48 100
3 102 103 22
3 104 103 102
3 104 49 103
3 104 105 49
3 93 105 104
3 93 45 105
3 341 340 35
3 106 107 38
3 108 107 106
3 108 50 107
3 109 110 24
3 111 110 109
3 111 342 344
3 344 343 110
3 342 343 344
3 111 345 346
3 112 347 349
3 349 348 111
3 347 348 349
3 112 350 351
3 112 352 354
3 352 353 354
3 113 355 357
3 357 356 112
3 355 356 357
3 113 358 359
3 114 360 362
3 362 361 26
3 360 361 362
3 364 363 114
3 115 365 366
3 115 367 368
3 116 117 28
3 118 117 116
3 118 51 117
3 118 119 51
3 120 119 118
3 120 52 119
3 121 122 42
3 123 122 121
3 123 53 122
3 124 125 31
3 126 125 124
3 126 54 125
3 126 127 54
3 128 127 126
3 128 55 127
3 128 129 55
3 130 129 128
3 130 56 129
3 370 369 33
3 372 371 5
3 131 373 375
3 375 374 6
3 373 374 375
3 377 376 131
3 58 378 380
3 380 379 17
3 378 379 380
3 382 381 58
3 132 133 7
3 134 133 132
3 134 19 133
3 60 134 18
3 135 134 60
3 135 19 134
3 135 82 19
3 136 82 135
3 136 9 82
3 136 137 9
3 138 137 136
3 138 21 137
3 62 138 20
3 139 138 62
3 139 21 138
3 139 89 21
3 131 89 139
3 131 6 89
3 140 383 385
3 385 384 11
3 383 384 385
3 387 386 140
3 141 388 390
3 388 389 390
3 141 391 392
3 141 393 395
3 393 96 394
3 393 394 395
3 396 96 397
3 398 397 141
3 396 397 398
3 399 12 400
3 401 400 96
3 399 400 401
3 403 402 12
3 404 22 405
3 142 406 407
3 142 408 410
3 408 22 409
3 408 409 410
3 142 102 22
3 140 102 142
3 140 11 102
3 143 144 8
3 145 144 143
3 145 24 144
3 65 145 23
3 146 145 65
3 146 24 145
3 146 109 24
3 147 109 146
3 147 13 109
3 147 148 13
3 149 148 147
3 149 26 148
3 67 149 25
3 150 149 67
3 150 26 149
3 150 114 26
3 151 114 150
3 151 14 114
3 151 152 14
3 153 152 151
3 153 28 152
3 69 153 27
3 154 153 69
3 154 28 153
3 154 116 28
3 155 116 154
3 155 15 116
3 156 157 10
3 158 157 156
3 158 31 157
3 72 158 30
3 159 158 72
3 159 31 158
3 159 124 31
3 160 124 159
3 160 16 124
3 160 161 16
3 162 161 160
3 162 33 161
3 74 162 32
3 411 162 412
3 413 412 74
3 411 412 413
3 414 33 415
3 416 415 162
3 414 415 416
3 418 417 33
3 163 164 2
3 165 164 163
3 165 35 164
3 76 165 34
3 419 165 420
3 421 420 76
3 419 420 421
3 422 35 423
3 424 423 165
3 422 423 424
3 426 425 35
3 427 77 428
3 429 428 5
3 427 428 429
3 430 77 431
3 430 431 432
3 434 433 77
3 166 435 437
3 437 436 3
3 435 436 437
3 439 438 166
3 441 440 36
3 443 442 6
3 167 168 1
3 169 168 167
3 169 38 168
3 80 169 37
3 170 169 80
3 170 38 169
3 170 106 38
3 171 106 170
3 171 8 106
3 133 81 7
3 172 81 133
3 172 39 81
3 83 172 19
3 173 172 83
3 173 39 172
3 173 171 39
3 174 171 173
3 174 8 171
3 174 143 8
3 175 143 174
3 175 23 143
3 85 175 40
3 176 175 85
3 176 23 175
3 176 64 23
3 177 64 176
3 177 4 64
3 177 178 4
3 179 178 177
3 179 42 178
3 87 179 41
3 180 179 87
3 180 42 179
3 180 121 42
3 181 121 180
3 181 10 121
3 137 88 9
3 182 88 137
3 182 43 88
3 90 182 21
3 183 182 90
3 183 43 182
3 183 181 43
3 184 181 183
3 184 10 181
3 184 156 10
3 185 156 184
3 185 30 156
3 92 185 44
3 186 185 92
3 186 30 185
3 186 71 30
3 166 71 186
3 166 3 71
3 187 188 0
3 189 188 187
3 189 444 446
3 446 445 188
3 444 445 446
3 94 189 45
3 447 189 448
3 449 448 94
3 447 448 449
3 451 450 189
3 452 95 453
3 454 453 11
3 452 453 454
3 455 95 456
3 458 457 95
3 190 459 460
3 190 461 463
3 461 1 462
3 461 462 463
3 191 464 465
3 191 466 467
3 98 191 46
3 192 191 98
3 192 468 470
3 470 469 191
3 468 469 470
3 192 471 473
3 471 190 472
3 471 472 473
3 193 190 192
3 193 1 190
3 193 167 1
3 194 167 193
3 194 37 167
3 100 194 47
3 195 194 100
3 195 37 194
3 195 79 37
3 196 79 195
3 196 7 79
3 474 101 475
3 476 475 12
3 474 475 476
3 197 477 479
3 477 101 478
3 477 478 479
3 197 48 101
3 103 197 22
3 198 197 103
3 198 48 197
3 198 196 48
3 199 196 198
3 199 7 196
3 199 132 7
3 200 132 199
3 200 18 132
3 105 200 49
3 201 200 105
3 201 18 200
3 201 59 18
3 187 59 201
3 187 0 59
3 164 480 482
3 482 481 2
3 480 481 482
3 485 484 164
3 483 484 485
3 487 486 35
3 489 488 3
3 188 490 492
3 492 491 0
3 490 491 492
3 494 493 188
3 168 495 497
3 497 496 1
3 495 496 497
3 202 498 500
3 500 499 168
3 498 499 500
3 202 501 502
3 107 202 38
3 503 202 504
3 505 504 107
3 503 504 505
3 507 506 202
3 144 108 8
3 203 108 144
3 203 50 108
3 110 203 24
3 508 203 509
3 510 509 110
3 508 509 510
3 511 50 512
3 513 512 203
3 511 512 513
3 515 514 50
3 148 113 13
3 204 113 148
3 204 516 518
3 518 517 113
3 516 517 518
3 519 204 520
3 521 520 26
3 519 520 521
3 522 204 523
3 525 524 204
3 152 115 14
3 205 115 152
3 205 526 528
3 528 527 115
3 526 527 528
3 117 205 28
3 529 205 530
3 531 530 117
3 529 530 531
3 533 532 205
3 119 534 536
3 536 535 51
3 534 535 536
3 206 537 539
3 539 538 119
3 537 538 539
3 206 540 541
3 206 542 544
3 542 63 543
3 542 543 544
3 207 63 206
3 207 2 63
3 178 70 4
3 208 70 178
3 208 29 70
3 122 208 42
3 209 208 122
3 209 29 208
3 209 155 29
3 210 155 209
3 210 15 155
3 157 123 10
3 211 123 157
3 211 53 123
3 125 211 31
3 212 211 125
3 212 53 211
3 212 210 53
3 213 210 212
3 213 15 210
3 213 120 15
3 214 120 213
3 214 52 120
3 127 214 54
3 215 214 127
3 215 52 214
3 215 207 52
3 216 207 215
3 216 2 207
3 216 163 2
3 217 163 216
3 217 34 163
3 129 217 55
3 218 217 129
3 218 34 217
3 218 75 34
3 219 75 218
3 219 5 75
3 161 130 16
3 220 130 161
3 220 56 130
3 545 220 546
3 547 546 33
3 545 546 547
3 221 548 550
3 548 220 549
3 548 549 550
3 221 56 220
3 221 219 56
3 551 219 552
3 553 552 221
3 551 552 553
3 554 5 555
3 556 555 219
3 554 555 556
3 558 557 5
