ply
format ascii 1.0
element vertex 517
property float x
property float y
property float z
element face 587
property list uchar int vertex_index
end_header
66.567352 -42.63744 30.611313
66.253845 -26.89855 33.759777
64.694145 -38.424461 48.336937
66.56028 -19.858797 25.22102
69.154465 -17.279436 31.488972
59.377373 -38.0303 27.063494
69.885635 -46.011452 21.698719
60.460014 -29.765764 27.998539
64.295364 -35.81469 35.232738
66.557228 -23.323652 39.77034
66.633461 -32.428722 42.230412
67.418236 -41.001617 40.831326
65.543945 -47.186951 43.843513
68.462013 -47.725018 33.028332
63.238335 -40.404182 29.018539
62.007118 -40.429283 24.030262
66.007637 -42.470764 25.234264
68.871819 -43.531353 20.716988
68.628181 -44.670998 26.266201
66.253708 -23.637493 29.385178
63.334366 -24.886021 26.705526
63.871864 -28.430792 30.784777
62.136147 -33.013592 31.685635
64.91761 -31.473991 34.968727
66.119202 -35.258419 45.749359
66.906845 -36.825508 42.420204
66.661713 -39.7187 45.150414
66.877167 -15.534645 21.439915
69.283974 -14.779074 24.047085
68.578911 -18.700371 28.148722
67.792969 -22.135548 32.454285
55.80867 -35.256752 24.923059
63.22863 -20.784973 22.998125
59.471161 -25.969952 24.53714
58.885498 -34.304798 28.34621
61.797977 -37.153259 31.255156
64.861221 -39.655128 33.811783
67.866501 -20.408228 35.680588
67.145844 -25.163502 36.800621
66.513123 -27.942936 41.02951
66.513428 -29.747549 38.127514
66.137459 -34.175388 38.943581
66.318848 -38.376892 38.336872
67.213112 -42.071178 35.866119
65.26059 -42.95974 46.944298
67.107109 -43.927689 42.664188
68.077927 -44.6866 37.457523
68.461357 -45.012093 31.885984
69.266617 -47.220284 27.287159
68.846275 -48.88987 22.920496
65.029541 -41.520329 29.86235
64.520782 -41.586086 27.276077
66.250504 -42.65593 27.932308
67.540665 -43.535835 25.764463
67.62439 -43.762642 28.523777
66.208595 -25.328905 31.55904
65.029381 -26.05587 30.097158
65.228607 -27.691986 32.2547
64.342415 -30.008423 32.883476
65.532028 -29.209328 34.424419
64.337852 -36.108231 48.366089
65.188087 -34.511684 47.035164
65.523041 -36.797596 47.180035
66.398087 -37.504284 45.678871
65.828697 -39.068138 46.912815
69.748169 -15.604473 29.401747
69.531914 -16.232151 27.689577
69.040787 -18.019131 29.792822
68.174957 -20.474615 30.287241
68.518936 -19.701855 31.92412
63.868965 -41.086243 22.019629
61.629662 -40.116516 21.486858
69.648674 -44.718597 21.187151
69.881386 -43.83812 18.456589
70.158669 -45.133259 18.976212
69.90419 -46.531292 19.562229
66.742729 -17.765224 23.274471
65.126884 -18.163898 22.188084
65.036552 -20.344664 24.012093
61.794693 -27.35046 27.418941
61.485855 -25.442112 25.556673
59.883224 -27.940266 26.2192
58.568291 -30.374052 26.686914
57.668671 -32.695126 26.859943
59.45248 -32.101284 28.341211
63.185623 -34.460091 33.498581
61.753159 -35.164482 31.681393
63.079109 -36.532089 33.271896
63.360184 -38.433365 32.591965
64.415138 -37.821999 34.757984
67.216515 -21.885765 37.746384
67.50309 -22.801752 36.193966
67.014854 -24.247421 38.300106
66.277885 -31.570955 43.649818
66.09552 -29.320787 43.029243
66.556938 -30.198 41.691559
66.715904 -28.847176 39.618439
66.623535 -31.088951 40.230576
66.27655 -31.979824 38.660091
66.583206 -33.303001 40.653381
67.130577 -38.957787 41.869316
66.762451 -37.617584 40.450821
67.027351 -39.662712 39.665604
66.685371 -40.307762 37.330692
67.406731 -41.581264 38.402138
66.304138 -43.460434 44.960857
66.447281 -45.521988 43.333298
67.934532 -47.750687 35.901333
67.868835 -46.125244 38.119354
68.340134 -46.287766 35.313377
68.319954 -44.919678 34.691483
68.696579 -46.320518 32.460968
68.974548 -46.196892 29.603247
68.897636 -47.554882 30.145912
68.460678 -49.600471 25.674812
61.315979 -39.252289 28.080395
60.459984 -39.414787 25.743011
62.550552 -40.517994 26.544977
64.125145 -41.446915 24.658085
65.869606 -42.06839 22.526936
67.583427 -42.443748 20.267624
67.521362 -43.09848 23.009338
68.729019 -44.204559 23.479202
69.426788 -45.40509 23.957592
66.381508 -21.815556 27.264553
64.959915 -22.386362 25.949108
64.945168 -24.289272 27.985271
63.535423 -26.726105 28.712784
62.255051 -29.119576 29.363815
61.214577 -31.453606 29.836395
62.874161 -30.756296 31.35113
63.63237 -32.27182 33.336155
64.4814 -33.684368 35.275169
65.831711 -33.001251 45.447258
66.481079 -33.807812 44.084824
66.745697 -34.640778 42.513168
66.698662 -36.032074 44.200829
66.932777 -38.22908 43.892136
67.184837 -40.370056 43.101704
66.499725 -47.461445 41.389122
68.37233 -49.008438 30.721064
68.257065 -15.18115 22.634268
68.033043 -17.315002 24.573696
69.944359 -14.327277 25.639986
68.965424 -16.804514 26.060112
67.75061 -19.313606 26.610092
67.462044 -21.180439 28.720964
67.211304 -22.920229 30.884274
67.023491 -24.540127 33.078392
54.294621 -33.652885 23.883707
63.237808 -18.52294 21.321348
61.199253 -21.193403 22.177429
63.245407 -22.906233 24.794212
61.300606 -23.390327 23.805725
55.931141 -33.221069 25.379986
57.294151 -34.833618 26.649761
58.84639 -36.306213 27.933971
60.524345 -33.693634 30.022648
60.27943 -35.784821 29.827065
60.540482 -37.659508 29.185656
62.301582 -38.917519 30.364616
64.029175 -40.109135 31.443066
65.605309 -41.268764 32.408051
68.953735 -16.49855 33.181553
68.206619 -18.021582 35.242268
68.516335 -18.876413 33.589024
68.00161 -21.292049 34.063362
67.451828 -23.693375 34.63134
66.898575 -26.0525 35.281616
66.847183 -26.56942 38.941978
66.811127 -27.47805 37.470688
66.370033 -28.362705 35.959343
65.90152 -30.628374 36.571465
65.541359 -32.851673 37.001205
65.347511 -35.021263 37.12878
66.620056 -35.486034 40.760788
66.13974 -36.318626 38.863266
65.374382 -37.107712 36.853848
65.654709 -39.067627 36.11515
66.18338 -40.854805 34.902863
66.909363 -42.434044 33.260979
63.65934 -40.122261 49.188728
63.975243 -42.429924 48.543976
65.006577 -40.716835 47.874054
66.092789 -41.299271 46.173016
66.903015 -41.870934 44.135262
67.445335 -42.41954 41.830883
67.247917 -45.861477 40.818634
67.687706 -44.345234 40.136784
67.749092 -42.920345 39.334488
67.860657 -43.339684 36.712219
67.837036 -43.641197 34.015129
67.739113 -43.791267 31.278351
68.549881 -44.936024 29.071657
69.208435 -45.896118 26.764694
69.590721 -46.707703 24.469311
68.839859 -48.641777 27.856564
69.244919 -48.10968 25.036854
69.598099 -47.405785 22.271786
69.17038 -48.019562 20.226675
58.868448 -38.135235 25.976168
58.447739 -37.368944 26.530552
63.814728 -40.787728 20.698638
64.859009 -41.262537 20.921518
66.886871 -22.604709 38.758362
66.934533 -21.428189 38.511143
66.604889 -22.147132 39.523121
64.973587 -47.014332 44.913128
65.017585 -48.043819 44.024906
65.494148 -46.155877 44.709266
64.973587 -47.014332 44.913128
65.995613 -46.35447 43.588406
65.945816 -45.323395 44.454159
65.494148 -46.155877 44.709266
68.77052 -14.980112 23.340677
68.870689 -13.899259 22.38744
69.384144 -13.69822 23.093849
70.097531 -14.079679 26.496478
70.279224 -13.132631 25.50671
55.140766 -35.398587 24.039136
54.383741 -34.596653 23.519461
55.051645 -34.454819 24.403383
60.888418 -39.904392 23.694599
60.114851 -39.397144 24.550973
61.233551 -39.922035 24.886637
60.446667 -39.617561 21.21374
61.526607 -39.837627 20.21071
68.966645 -43.091387 19.352083
68.322449 -42.547584 19.127402
68.227623 -42.98755 20.492306
70.000675 -43.304062 17.114179
70.144314 -43.959477 17.379455
66.029927 -15.69043 20.96024
66.897919 -14.352358 20.58372
59.332859 -24.909973 23.755914
60.247582 -23.620161 23.390206
60.385884 -24.680139 24.171433
58.416256 -26.222238 24.084568
59.332859 -24.909973 23.755914
56.292488 -32.080934 25.398716
55.355576 -32.335683 24.774927
68.715812 -16.09936 34.002371
69.108692 -15.364092 32.985892
68.03656 -19.214905 35.461428
67.821495 -18.765939 36.261364
67.651436 -19.959262 36.480524
66.232033 -27.495123 41.692737
66.023231 -28.184048 42.692604
66.304321 -28.631861 42.029376
66.511517 -26.797777 40.696136
66.232033 -27.495123 41.692737
66.680153 -27.256178 39.985744
66.678547 -26.111019 39.65237
66.511517 -26.797777 40.696136
63.0621 -40.993336 49.453491
62.873474 -39.812962 49.646084
64.617916 -42.694832 47.744137
64.101086 -43.553961 48.001283
64.743759 -43.818869 47.201445
67.268421 -46.758375 39.765526
66.873821 -46.661461 41.103878
66.894325 -47.558359 40.05077
68.426106 -49.396373 28.171457
68.606095 -48.825108 29.288814
68.192341 -49.579704 29.603707
64.762969 -35.309958 47.700626
64.574661 -34.148485 47.544399
64.149543 -34.946759 48.209862
69.756535 -13.534762 23.862217
69.384144 -13.69822 23.093849
69.640041 -15.918312 28.545662
69.891308 -15.032116 27.521273
69.999436 -14.718277 28.377358
56.074734 -36.108137 24.468261
56.663387 -35.98217 25.460335
62.695076 -40.302864 20.432253
62.749313 -40.60138 21.753243
63.814728 -40.787728 20.698638
61.526607 -39.837627 20.21071
62.695076 -40.302864 20.432253
70.282955 -44.607046 17.639267
70.144314 -43.959477 17.379455
70.020027 -44.48569 18.7164
70.159775 -45.313776 17.940871
70.282955 -44.607046 17.639267
70.032535 -46.012793 18.233879
70.159775 -45.313776 17.940871
70.03143 -45.832276 19.26922
69.666622 -46.764215 18.576111
70.032535 -46.012793 18.233879
58.879787 -28.220781 25.662613
58.673755 -27.235623 24.821583
59.677193 -26.955109 25.37817
58.222321 -29.437673 25.89647
58.879787 -28.220781 25.662613
59.225758 -29.157159 26.453057
57.611063 -30.657426 26.05218
58.222321 -29.437673 25.89647
58.118481 -31.534589 26.773429
57.161253 -31.817963 26.138694
57.611063 -30.657426 26.05218
67.326443 -20.698031 37.513422
66.934533 -21.428189 38.511143
67.541508 -21.146997 36.713486
67.651436 -19.959262 36.480524
67.326443 -20.698031 37.513422
66.186702 -30.445871 43.339531
65.822849 -30.029566 43.964094
65.914032 -31.15465 44.274382
65.35247 -44.042271 46.259659
64.743759 -43.818869 47.201445
65.874245 -44.292618 45.267938
65.782364 -43.210087 45.952578
65.35247 -44.042271 46.259659
66.375709 -44.491211 44.147077
65.874245 -44.292618 45.267938
65.945816 -45.323395 44.454159
67.901684 -46.937966 37.010344
67.57888 -46.890259 38.415886
67.611728 -47.70298 37.306876
67.902439 -50.38301 26.030317
68.236515 -49.87572 27.080582
68.093727 -50.024479 24.661544
67.902439 -50.38301 26.030317
68.286526 -49.669178 23.284385
68.653477 -49.245171 24.297654
68.093727 -50.024479 24.661544
68.445736 -49.236123 21.946485
68.286526 -49.669178 23.284385
69.992173 -14.454377 29.253765
69.999436 -14.718277 28.377358
69.697338 -15.268809 30.263553
69.992173 -14.454377 29.253765
69.400486 -16.106291 31.307165
69.451317 -16.441955 30.44536
69.697338 -15.268809 30.263553
65.859329 -41.753611 21.175172
64.859009 -41.262537 20.921518
64.869286 -41.577317 22.273283
66.726517 -42.256069 21.39728
66.71624 -41.941289 20.045516
65.859329 -41.753611 21.175172
66.201706 -22.868263 40.490677
66.604889 -22.147132 39.523121
65.016181 -33.367018 46.812809
64.574661 -34.148485 47.544399
65.337993 -32.611801 46.018856
65.016181 -33.367018 46.812809
65.509899 -33.756467 46.241211
65.690945 -31.869798 45.173102
65.337993 -32.611801 46.018856
66.054798 -32.286103 44.548538
65.914032 -31.15465 44.274382
65.690945 -31.869798 45.173102
65.542179 -48.157598 42.85051
65.017585 -48.043819 44.024906
66.020069 -48.294845 41.623314
66.021835 -47.324198 42.616318
65.542179 -48.157598 42.85051
66.465901 -48.363478 40.318247
66.020069 -48.294845 41.623314
66.894325 -47.558359 40.05077
66.465901 -48.363478 40.318247
67.560932 -48.526483 36.18543
67.611728 -47.70298 37.306876
67.880982 -48.486727 34.753805
67.560932 -48.526483 36.18543
68.144722 -48.473892 33.317304
68.198273 -47.737853 34.464832
67.880982 -48.486727 34.753805
68.099881 -49.115602 32.16367
68.417171 -48.366728 31.874698
68.144722 -48.473892 33.317304
67.933857 -49.778106 31.030485
68.099881 -49.115602 32.16367
68.192341 -49.579704 29.603707
67.933857 -49.778106 31.030485
67.625362 -14.222786 21.127412
66.897919 -14.352358 20.58372
68.315312 -14.046038 21.724588
68.870689 -13.899259 22.38744
67.567116 -15.357897 22.037091
67.625362 -14.222786 21.127412
68.315312 -14.046038 21.724588
70.086727 -13.308864 24.658667
70.279224 -13.132631 25.50671
69.614167 -14.553176 24.843536
69.756535 -13.534762 23.862217
70.086727 -13.308864 24.658667
69.738136 -15.279714 26.664782
70.097531 -14.079679 26.496478
69.891308 -15.032116 27.521273
63.620239 -35.765778 48.803764
64.149543 -34.946759 48.209862
63.815818 -36.944115 48.882385
63.620239 -35.765778 48.803764
63.993965 -38.10223 48.867809
64.515998 -37.266346 48.351513
63.815818 -36.944115 48.882385
53.548769 -33.803156 23.117853
53.647346 -32.763502 23.400672
53.548769 -33.803156 23.117853
54.383741 -34.596653 23.519461
55.140766 -35.398587 24.039136
56.074734 -36.108137 24.468261
59.409754 -38.827478 25.315926
58.868448 -38.135235 25.976168
59.918678 -38.722544 26.403253
59.409754 -38.827478 25.315926
60.114851 -39.397144 24.550973
60.69969 -39.748008 22.422897
60.888418 -39.904392 23.694599
61.81839 -40.272899 22.75856
60.69969 -39.748008 22.422897
60.446667 -39.617561 21.21374
67.655536 -42.006311 18.910127
66.71624 -41.941289 20.045516
67.655536 -42.006311 18.910127
68.322449 -42.547584 19.127402
69.471428 -43.244771 18.221884
68.966645 -43.091387 19.352083
69.376603 -43.684736 19.586789
69.471428 -43.244771 18.221884
70.000675 -43.304062 17.114179
65.154785 -17.005057 21.334324
66.029927 -15.69043 20.96024
66.002026 -16.849272 21.814
64.210247 -17.184578 20.900956
65.154785 -17.005057 21.334324
64.182346 -18.343419 21.754716
63.234123 -17.32346 20.537254
64.210247 -17.184578 20.900956
62.188919 -18.687896 20.992356
63.234123 -17.32346 20.537254
61.169641 -20.023128 21.420397
62.188919 -18.687896 20.992356
62.21853 -19.858171 21.749389
60.108019 -21.386114 21.854822
61.169641 -20.023128 21.420397
60.196905 -22.521699 22.576059
61.24993 -22.291865 22.991577
60.247582 -23.620161 23.390206
60.108019 -21.386114 21.854822
60.196905 -22.521699 22.576059
58.416256 -26.222238 24.084568
58.673755 -27.235623 24.821583
54.537315 -32.551591 24.026788
53.647346 -32.763502 23.400672
55.112881 -33.436977 24.631847
54.537315 -32.551591 24.026788
55.355576 -32.335683 24.774927
56.799906 -32.958098 26.119965
56.292488 -32.080934 25.398716
57.161253 -31.817963 26.138694
57.406128 -35.770603 26.323686
56.663387 -35.98217 25.460335
56.551411 -35.045185 25.78641
58.182248 -36.506901 26.965791
57.406128 -35.770603 26.323686
58.07027 -35.569916 27.291866
59.111881 -37.168256 27.498732
58.447739 -37.368944 26.530552
58.182248 -36.506901 26.965791
69.300121 -15.715848 32.153456
69.108692 -15.364092 32.985892
69.0541 -16.888993 32.335262
69.400486 -16.106291 31.307165
69.300121 -15.715848 32.153456
67.921795 -17.594726 36.047713
67.821495 -18.765939 36.261364
68.342254 -16.860875 35.032729
67.921795 -17.594726 36.047713
68.580177 -17.260066 34.211911
68.715812 -16.09936 34.002371
68.342254 -16.860875 35.032729
66.210915 -24.033186 40.751701
66.201706 -22.868263 40.490677
65.697342 -28.89217 43.637046
65.822849 -30.029566 43.964094
65.697342 -28.89217 43.637046
66.023231 -28.184048 42.692604
66.533569 -24.488135 40.066551
66.210915 -24.033186 40.751701
66.762383 -24.950019 39.331434
66.786041 -23.785536 39.035223
66.533569 -24.488135 40.066551
66.931018 -25.40842 38.621042
66.762383 -24.950019 39.331434
66.678547 -26.111019 39.65237
63.476562 -38.95113 49.293705
62.873474 -39.812962 49.646084
64.176743 -39.273361 48.762833
63.993965 -38.10223 48.867809
63.476562 -38.95113 49.293705
63.385632 -43.30492 48.731544
64.101086 -43.553961 48.001283
63.220051 -42.147167 49.131115
63.385632 -43.30492 48.731544
63.817291 -41.276093 48.866352
63.0621 -40.993336 49.453491
63.220051 -42.147167 49.131115
67.558376 -45.993361 39.468994
67.268421 -46.758375 39.765526
67.57888 -46.890259 38.415886
68.650269 -49.121124 26.765688
68.426106 -49.396373 28.171457
68.236515 -49.87572 27.080582
69.299717 -47.50835 18.908335
69.666622 -46.764215 18.576111
69.537285 -47.275427 19.894452
68.607788 -48.800968 20.599574
69.008328 -48.454716 21.573586
68.445736 -49.236123 21.946485
68.73182 -48.296681 19.291671
68.607788 -48.800968 20.599574
69.299717 -47.50835 18.908335
68.73182 -48.296681 19.291671
3 0 52 50
3 0 54 52
3 1 57 55
3 1 59 57
3 2 62 60
3 2 64 62
3 4 67 65
3 4 69 67
3 5 200 201
3 203 202 70
3 6 74 72
3 6 75 74
3 3 78 76
3 7 81 79
3 7 82 81
3 7 84 82
3 8 87 85
3 8 89 87
3 9 204 206
3 204 90 205
3 204 205 206
3 9 92 90
3 10 95 93
3 10 97 95
3 10 99 97
3 11 102 100
3 11 104 102
3 12 207 208
3 12 209 210
3 12 211 213
3 211 106 212
3 211 212 213
3 13 109 107
3 13 111 109
3 13 113 111
3 14 117 115
3 16 118 51
3 16 119 118
3 16 121 119
3 18 122 53
3 18 123 122
3 19 126 124
3 21 127 56
3 21 128 127
3 21 130 128
3 23 131 58
3 23 132 131
3 24 133 61
3 24 134 133
3 24 136 134
3 26 137 63
3 26 138 137
3 28 214 216
3 214 141 215
3 214 215 216
3 28 142 141
3 217 143 218
3 29 144 66
3 29 145 144
3 29 146 145
3 30 147 68
3 30 148 147
3 31 219 221
3 221 220 149
3 219 220 221
3 15 222 224
3 224 223 116
3 222 223 224
3 226 225 71
3 17 227 229
3 229 228 120
3 227 228 229
3 231 230 73
3 27 232 233
3 32 150 77
3 32 151 150
3 20 152 125
3 33 153 80
3 33 234 236
3 236 235 153
3 234 235 236
3 33 237 238
3 239 154 240
3 34 155 83
3 34 156 155
3 22 157 129
3 35 158 86
3 35 159 158
3 35 160 159
3 36 161 88
3 36 162 161
3 241 163 242
3 37 243 245
3 243 164 244
3 243 244 245
3 37 165 164
3 37 166 165
3 38 167 91
3 38 168 167
3 39 246 248
3 248 247 94
3 246 247 248
3 39 249 250
3 39 251 253
3 251 169 252
3 251 252 253
3 40 170 96
3 40 171 170
3 40 172 171
3 41 173 98
3 41 174 173
3 25 175 135
3 42 176 101
3 42 177 176
3 42 178 177
3 43 179 103
3 43 180 179
3 254 181 255
3 44 256 258
3 256 182 257
3 256 257 258
3 44 183 182
3 44 184 183
3 45 185 105
3 45 186 185
3 259 187 260
3 261 260 139
3 259 260 261
3 46 188 108
3 46 189 188
3 46 190 189
3 47 191 110
3 47 192 191
3 47 193 192
3 48 194 112
3 48 195 194
3 262 196 263
3 264 263 140
3 262 263 264
3 49 197 114
3 49 198 197
3 49 199 198
3 50 51 14
3 52 51 50
3 52 16 51
3 52 53 16
3 54 53 52
3 54 18 53
3 55 56 19
3 57 56 55
3 57 21 56
3 57 58 21
3 59 58 57
3 59 23 58
3 60 265 267
3 265 61 266
3 265 266 267
3 62 61 60
3 62 24 61
3 62 63 24
3 64 63 62
3 64 26 63
3 268 28 269
3 65 270 272
3 270 66 271
3 270 271 272
3 67 66 65
3 67 29 66
3 67 68 29
3 69 68 67
3 69 30 68
3 274 273 31
3 70 71 15
3 275 71 276
3 277 276 70
3 275 276 277
3 279 278 71
3 72 73 17
3 74 73 72
3 74 280 282
3 282 281 73
3 280 281 282
3 74 283 284
3 75 285 287
3 287 286 74
3 285 286 287
3 75 288 289
3 76 77 27
3 78 77 76
3 78 32 77
3 79 80 20
3 81 80 79
3 81 33 80
3 81 290 292
3 292 291 33
3 290 291 292
3 82 293 295
3 295 294 81
3 293 294 295
3 82 296 297
3 82 298 300
3 298 83 299
3 298 299 300
3 84 83 82
3 84 34 83
3 85 86 22
3 87 86 85
3 87 35 86
3 87 88 35
3 89 88 87
3 89 36 88
3 90 301 302
3 90 303 305
3 303 37 304
3 303 304 305
3 90 91 37
3 92 91 90
3 92 38 91
3 93 306 308
3 306 94 307
3 306 307 308
3 95 94 93
3 95 39 94
3 95 96 39
3 97 96 95
3 97 40 96
3 97 98 40
3 99 98 97
3 99 41 98
3 100 101 25
3 102 101 100
3 102 42 101
3 102 103 42
3 104 103 102
3 104 43 103
3 309 44 310
3 311 105 312
3 313 312 44
3 311 312 313
3 106 314 316
3 314 105 315
3 314 315 316
3 106 45 105
3 107 317 319
3 317 108 318
3 317 318 319
3 109 108 107
3 109 46 108
3 109 110 46
3 111 110 109
3 111 47 110
3 111 112 47
3 113 112 111
3 113 48 112
3 320 114 321
3 322 114 323
3 324 49 325
3 326 325 114
3 324 325 326
3 328 327 49
3 329 65 330
3 331 65 332
3 333 4 334
3 335 334 65
3 333 334 335
3 115 116 5
3 117 116 115
3 117 15 116
3 51 117 14
3 118 117 51
3 118 15 117
3 118 70 15
3 119 70 118
3 119 336 338
3 338 337 70
3 336 337 338
3 119 339 341
3 339 120 340
3 339 340 341
3 121 120 119
3 121 17 120
3 53 121 16
3 122 121 53
3 122 17 121
3 122 72 17
3 123 72 122
3 123 6 72
3 124 125 3
3 126 125 124
3 126 20 125
3 56 126 19
3 127 126 56
3 127 20 126
3 127 79 20
3 128 79 127
3 128 7 79
3 128 129 7
3 130 129 128
3 130 22 129
3 58 130 21
3 131 130 58
3 131 22 130
3 131 85 22
3 132 85 131
3 132 8 85
3 342 9 343
3 61 344 345
3 133 346 348
3 348 347 61
3 346 347 348
3 133 349 350
3 133 351 353
3 351 93 352
3 351 352 353
3 134 93 133
3 134 10 93
3 134 135 10
3 136 135 134
3 136 25 135
3 63 136 24
3 137 136 63
3 137 25 136
3 137 100 25
3 138 100 137
3 138 11 100
3 354 12 355
3 356 139 357
3 358 357 12
3 356 357 358
3 359 139 360
3 362 361 139
3 363 107 364
3 365 107 366
3 367 13 368
3 369 368 107
3 367 368 369
3 370 140 371
3 372 371 13
3 370 371 372
3 373 140 374
3 376 375 140
3 377 27 378
3 141 379 380
3 141 381 383
3 381 27 382
3 381 382 383
3 141 76 27
3 142 76 141
3 142 3 76
3 143 384 385
3 143 386 388
3 386 28 387
3 386 387 388
3 66 389 391
3 389 143 390
3 389 390 391
3 144 143 66
3 144 28 143
3 144 142 28
3 145 142 144
3 145 3 142
3 145 124 3
3 146 124 145
3 146 19 124
3 68 146 29
3 147 146 68
3 147 19 146
3 147 55 19
3 148 55 147
3 148 1 55
3 392 60 393
3 394 60 395
3 396 2 397
3 398 397 60
3 396 397 398
3 149 399 400
3 402 401 149
3 404 403 31
3 116 405 407
3 407 406 5
3 405 406 407
3 409 408 116
3 71 410 412
3 412 411 15
3 410 411 412
3 414 413 71
3 120 415 416
3 418 417 120
3 73 419 421
3 421 420 17
3 419 420 421
3 423 422 73
3 77 424 426
3 426 425 27
3 424 425 426
3 150 427 429
3 429 428 77
3 427 428 429
3 150 430 431
3 150 432 433
3 151 434 436
3 436 435 150
3 434 435 436
3 151 437 438
3 125 78 3
3 152 78 125
3 152 32 78
3 80 152 20
3 153 152 80
3 153 32 152
3 153 151 32
3 439 151 440
3 441 440 153
3 439 440 441
3 443 442 151
3 445 444 33
3 446 149 447
3 154 448 450
3 448 149 449
3 448 449 450
3 154 31 149
3 83 451 453
3 451 154 452
3 451 452 453
3 155 154 83
3 155 31 154
3 155 454 456
3 456 455 31
3 454 455 456
3 156 457 459
3 459 458 155
3 457 458 459
3 156 460 462
3 460 5 461
3 460 461 462
3 129 84 7
3 157 84 129
3 157 34 84
3 86 157 22
3 158 157 86
3 158 34 157
3 158 156 34
3 159 156 158
3 159 5 156
3 159 115 5
3 160 115 159
3 160 14 115
3 88 160 35
3 161 160 88
3 161 14 160
3 161 50 14
3 162 50 161
3 162 0 50
3 163 463 464
3 163 465 467
3 465 4 466
3 465 466 467
3 164 468 469
3 164 470 471
3 164 472 474
3 472 163 473
3 472 473 474
3 165 163 164
3 165 4 163
3 165 69 4
3 166 69 165
3 166 30 69
3 91 166 37
3 167 166 91
3 167 30 166
3 167 148 30
3 168 148 167
3 168 1 148
3 475 9 476
3 94 477 478
3 480 479 94
3 481 9 482
3 483 92 484
3 485 484 9
3 483 484 485
3 169 486 488
3 486 92 487
3 486 487 488
3 169 38 92
3 96 169 39
3 170 169 96
3 170 38 169
3 170 168 38
3 171 168 170
3 171 1 168
3 171 59 1
3 172 59 171
3 172 23 59
3 98 172 40
3 173 172 98
3 173 23 172
3 173 132 23
3 174 132 173
3 174 8 132
3 135 99 10
3 175 99 135
3 175 41 99
3 101 175 25
3 176 175 101
3 176 41 175
3 176 174 41
3 177 174 176
3 177 8 174
3 177 89 8
3 178 89 177
3 178 36 89
3 103 178 42
3 179 178 103
3 179 36 178
3 179 162 36
3 180 162 179
3 180 0 162
3 181 489 490
3 181 491 493
3 491 2 492
3 491 492 493
3 182 494 495
3 182 496 497
3 182 498 500
3 498 181 499
3 498 499 500
3 183 181 182
3 183 2 181
3 183 64 2
3 184 64 183
3 184 26 64
3 105 184 44
3 185 184 105
3 185 26 184
3 185 138 26
3 186 138 185
3 186 11 138
3 139 106 12
3 187 106 139
3 187 45 106
3 108 501 503
3 501 187 502
3 501 502 503
3 188 187 108
3 188 45 187
3 188 186 45
3 189 186 188
3 189 11 186
3 189 104 11
3 190 104 189
3 190 43 104
3 110 190 46
3 191 190 110
3 191 43 190
3 191 180 43
3 192 180 191
3 192 0 180
3 192 54 0
3 193 54 192
3 193 18 54
3 112 193 47
3 194 193 112
3 194 18 193
3 194 123 18
3 195 123 194
3 195 6 123
3 140 113 13
3 196 113 140
3 196 48 113
3 114 504 506
3 504 196 505
3 504 505 506
3 197 196 114
3 197 48 196
3 197 195 48
3 198 195 197
3 198 6 195
3 198 75 6
3 199 75 198
3 199 507 509
3 509 508 75
3 507 508 509
3 510 199 511
3 512 511 49
3 510 511 512
3 513 199 514
3 516 515 199
