ply
format ascii 1.0
element vertex 818
property float x
property float y
property float z
element face 933
property list uchar int vertex_index
end_header
0.559498 -64.855553 59.418449
11.599033 -73.720734 76.648445
0.14839 -73.429382 71.459534
3.590025 -52.441551 72.396652
4.827971 -46.932961 53.494423
30.329344 -49.452221 68.779091
-0.376373 -69.133499 65.16687
25.28447 -51.364849 76.116203
4.110527 -75.368088 75.712944
2.373075 -59.354347 65.54631
2.890562 -57.12809 56.97525
5.43852 -49.703064 62.152931
30.159941 -57.704418 71.2435
24.3332 -60.660202 77.230484
15.875747 -63.764957 80.334564
10.442049 -55.534264 86.007286
7.671352 -65.794312 81.985474
2.510397 -65.320007 80.110329
1.401295 -62.576756 73.905052
-0.035179 -68.698761 57.981522
0.045771 -66.785233 61.981812
-0.643595 -71.780563 60.601219
1.629877 -74.82061 73.970329
2.819147 -79.730438 71.650192
0.690964 -78.843323 69.426765
3.435705 -56.015579 68.990715
4.102388 -54.675198 64.167747
4.671547 -51.051052 67.229904
4.985376 -39.847824 63.055847
31.633566 -52.431484 65.5868
31.706411 -56.403355 67.002663
30.149702 -53.497471 70.039055
24.994198 -55.923443 76.853355
21.354721 -57.250072 79.19976
20.272354 -62.244965 79.001137
17.299648 -58.585712 81.148994
7.030369 -56.217968 87.301506
9.264845 -60.715836 84.302635
5.991053 -61.143021 84.790695
4.582424 -65.910736 81.647911
3.638142 -60.953739 83.892036
2.148922 -58.917778 77.994225
2.645437 -57.468365 73.69693
1.822781 -60.910549 69.847527
4.07704 -52.323246 55.226311
2.780312 -56.327709 52.910805
3.324001 -51.169178 51.459854
-0.437653 -71.440376 68.429428
-0.493391 -77.047653 66.636429
-0.865942 -74.612694 63.592232
28.109283 -50.392769 72.757088
5.019217 -40.856728 52.07991
3.409195 -45.444855 50.229843
3.088934 -39.053322 49.341743
7.510494 -74.966309 76.57608
9.627493 -78.295105 73.565613
5.861504 -79.531509 73.057007
1.204517 -62.399117 62.200035
1.568209 -61.429214 58.457031
2.763222 -58.081535 61.21627
4.353294 -53.465591 59.499626
5.541294 -48.349174 57.483086
5.172564 -45.732811 65.051636
6.073835 -44.193687 60.022057
6.083179 -42.577122 55.615578
27.966805 -54.668076 73.830894
27.703959 -59.13266 74.695061
22.757626 -65.383179 76.68959
18.392311 -67.188568 78.015724
13.848791 -68.850754 78.875221
14.264103 -54.563671 83.880196
13.151722 -59.80056 82.909767
11.546202 -65.021545 81.401718
9.542223 -70.103668 79.324707
5.840673 -70.695549 79.137756
3.02424 -70.482414 78.037827
1.23963 -69.491241 75.95414
2.378674 -60.158184 81.528778
1.509579 -64.132065 77.43425
0.44371 -67.91069 73.053398
0.396608 -66.0103 69.610519
0.753708 -64.067505 65.909721
0.258905 -66.52095 58.818459
0.66008 -65.014351 57.917381
0.311926 -65.710007 60.552818
-0.071918 -67.860985 60.013077
13.801189 -72.866295 76.447113
0.766424 -74.217049 72.797218
1.087881 -76.878647 71.755585
0.305519 -76.177002 70.486885
3.665129 -54.251228 70.703911
4.132284 -53.560764 68.198181
4.143803 -51.740288 69.820648
30.962727 -52.948273 67.882385
30.147018 -51.449802 69.367432
21.659504 -54.792278 79.102348
19.756538 -55.401318 80.259369
19.360138 -57.923397 80.204834
17.781443 -56.010742 81.361839
6.561857 -58.695343 86.142029
5.188519 -58.776726 86.071259
4.684124 -61.1287 84.530594
4.062618 -58.705864 85.593002
3.066183 -53.147984 74.922157
3.190886 -54.958607 73.168961
3.03182 -56.732815 71.375824
4.519255 -49.708843 54.338844
3.752943 -51.750427 53.281464
4.03459 -49.05312 52.500801
-0.469574 -70.309738 66.808952
-0.716789 -73.081467 66.03344
-0.707571 -71.833893 64.457451
4.135246 -39.962757 50.632713
5.707117 -75.284378 76.253304
6.61512 -77.291077 74.914299
4.897984 -77.571091 74.448685
1.752264 -60.917419 63.847572
1.951067 -60.26403 61.827591
2.599062 -58.674911 63.375656
4.846445 -52.2435 63.209259
4.29122 -54.056526 61.797897
5.01354 -51.609592 60.80127
5.018871 -50.981628 58.500877
5.588375 -49.031006 59.747063
4.520149 -46.491245 67.695763
5.609753 -38.943581 60.601807
5.734022 -42.040482 61.471085
6.122597 -41.19294 59.080956
6.20978 -43.397915 57.720779
6.258703 -40.321823 56.867203
6.105011 -39.423912 54.866486
6.156466 -37.069767 56.183403
31.035063 -57.03437 69.205132
29.927296 -59.840675 71.575035
26.771292 -50.872948 74.511375
27.984617 -52.497692 73.269493
26.640673 -53.045197 74.962227
24.761328 -58.281223 77.129189
26.439772 -57.572689 75.840424
26.123039 -59.885288 76.074654
27.255238 -61.386597 74.808746
25.561092 -62.199749 76.065483
23.663218 -63.035908 77.095718
18.091137 -63.0242 79.703804
19.422709 -64.734421 78.618942
17.178127 -65.55777 79.196602
16.116373 -68.053375 78.492683
14.92065 -66.328079 79.693382
12.322805 -55.072727 85.005058
13.758503 -57.172909 83.461975
11.78944 -57.688183 84.420349
8.515215 -63.2742 83.212242
10.396929 -62.910137 82.798866
9.529545 -65.481201 81.780746
10.574183 -67.585297 80.439156
8.581396 -68.011887 80.62722
7.595821 -70.494759 79.330696
6.765856 -68.269882 80.628456
3.410749 -65.700615 81.032928
3.802834 -68.222656 79.897942
2.703424 -67.914108 79.121384
2.000673 -70.075371 77.112839
1.872709 -67.431679 78.074425
2.635567 -58.113197 83.42981
2.33609 -57.620319 81.819916
1.838675 -60.770794 75.980438
1.812103 -61.503452 77.854935
1.363657 -63.38385 75.755394
0.976833 -66.048599 75.275391
0.856268 -65.2127 73.595291
0.347313 -66.982994 71.381683
0.898426 -64.326096 71.779068
2.10388 -60.106518 67.711723
1.275745 -62.530449 67.883102
1.519657 -61.684414 65.869545
0.982584 -63.17382 64.04509
2.222443 -59.343414 57.764793
1.722212 -61.19183 56.479729
2.305613 -59.018826 55.716843
2.526873 -44.688065 48.786644
2.714294 -47.710819 49.225143
8.875315 -80.460114 71.709473
-0.193827 -67.94561 63.542397
-0.577351 -70.530289 62.898628
-0.356688 -69.198105 61.399376
-0.376846 -70.268921 59.223053
2.746149 -75.21096 74.949188
3.390989 -77.594505 73.76062
2.11676 -77.35939 72.856529
1.634743 -79.415489 70.627777
2.971148 -57.719265 67.266884
3.256433 -57.032352 64.964951
3.806637 -55.327969 66.576622
4.540941 -52.891945 65.687622
5.119438 -50.373734 64.660942
4.719353 -36.655067 62.2873
32.197861 -53.890915 63.963837
31.6703 -54.408386 66.332825
31.021803 -54.978058 68.591774
30.199106 -55.585835 70.699471
23.661942 -51.871765 77.588066
25.126675 -53.610268 76.48568
23.458733 -54.19334 77.856354
23.24431 -56.580135 78.096252
22.906736 -59.007378 78.230469
22.368896 -61.450836 78.191788
20.911922 -59.742401 79.182991
18.818666 -60.472244 80.031509
16.672691 -61.177856 80.813972
8.663336 -55.924534 86.802925
9.904606 -58.129772 85.24147
8.147577 -58.473289 85.843124
7.530258 -61.000919 84.696861
6.811342 -63.492798 83.39415
6.011108 -65.941383 81.956856
5.323408 -63.549908 83.283798
4.082895 -63.437992 82.841583
3.11137 -63.159725 82.055092
2.285547 -57.029243 79.932434
2.332167 -58.204601 75.916862
2.02232 -60.000088 73.944969
1.571974 -61.742653 71.923355
2.308157 -59.219604 71.789818
2.641182 -58.453033 69.552353
3.523022 -54.791183 56.117722
2.862955 -56.721291 54.916389
3.355558 -54.30175 54.096169
-0.243359 -72.491898 69.991631
-0.240822 -75.286736 69.085411
-0.572063 -74.243248 67.588463
-0.768349 -75.893463 65.126556
-0.815037 -73.233887 62.071136
29.293242 -49.920238 70.845833
4.993906 -43.984337 52.730507
4.190645 -46.19598 51.7827
4.221361 -43.168087 51.152985
3.29261 -42.337105 49.737732
2.265678 -41.499634 48.423782
1.95224 -38.135201 48.136154
9.487524 -74.434319 76.699471
8.511478 -76.772476 75.164291
7.670746 -79.029114 73.420685
7.005722 -81.198387 71.481422
4.234728 -79.770134 72.465622
-0.014133 -78.042641 68.083138
0.794321 -63.761192 60.663834
0.984879 -63.334152 59.024414
1.400322 -61.810005 60.355026
2.106785 -59.744236 59.80307
2.859396 -57.572304 59.079185
3.466658 -56.400501 62.675102
3.583834 -55.823765 60.422775
3.601694 -55.292759 58.230637
4.28087 -52.891792 57.301971
4.852732 -50.350502 56.339928
5.285746 -47.65094 55.39315
4.430498 -49.164783 68.791939
5.019835 -48.451725 66.155403
5.511156 -47.741318 63.567062
5.14954 -42.870476 63.995468
5.71076 -44.969509 62.480057
5.849798 -47.026375 61.067451
5.989428 -46.298615 58.699409
5.89801 -45.551071 56.503319
5.562981 -44.779751 54.509659
5.681629 -41.729553 53.733421
5.650644 -38.499046 53.100708
29.151587 -51.966194 71.402733
29.157372 -54.071812 72.02829
29.168211 -56.223228 72.623322
26.575443 -55.285416 75.437927
27.914295 -56.886097 74.340424
29.052519 -58.405117 73.081657
28.715872 -60.599888 73.310226
21.601463 -63.886162 77.932526
20.623524 -66.28923 77.425995
17.241642 -69.58757 77.181152
14.966892 -70.493996 77.579407
12.719639 -71.318825 77.864975
16.227627 -54.027237 82.694695
15.769371 -56.606979 82.430717
15.215471 -59.21862 82.052933
14.521805 -61.836365 81.548302
11.153269 -60.307838 83.681168
12.414175 -62.422485 82.22348
13.677418 -64.440216 80.905785
12.702675 -67.014343 80.114334
11.641239 -69.545593 79.160423
10.549585 -72.022354 78.027634
8.503023 -72.567215 78.042503
6.621531 -72.922012 77.877571
4.940842 -73.064621 77.503143
5.163429 -68.342529 80.396179
4.30884 -70.692253 78.712799
3.489475 -72.984657 76.899956
2.287067 -72.684555 76.063828
1.342493 -72.179115 75.005913
0.652292 -71.493301 73.749695
3.208527 -58.481487 84.703552
2.869457 -60.624641 82.881027
2.416986 -62.728413 80.937904
2.149315 -59.579292 79.882156
1.991968 -62.166645 79.52317
1.881735 -64.788101 78.89949
1.304214 -66.799576 76.781105
0.729065 -68.758514 74.589622
0.200256 -70.658997 72.326416
-0.041401 -69.711441 70.770844
-0.109055 -68.68631 69.118523
-0.043491 -67.6185 67.405067
1.054369 -63.421558 69.863457
0.546272 -65.026688 67.775154
0.11458 -66.543167 65.666512
0.328075 -65.499855 63.940186
0.564749 -64.542206 62.264061
1.157568 -63.213203 57.20192
2.358658 -58.72739 53.673622
3.423311 -48.38485 50.808456
12.144245 -74.441162 75.869259
13.245323 -74.013943 75.768593
12.700111 -73.293514 76.547779
30.238181 -50.451011 69.073262
30.569374 -51.199934 68.273003
30.660537 -50.201144 67.978832
18.967577 -54.440392 80.869862
19.921235 -54.166911 80.249367
17.98003 -54.745103 81.421097
18.768991 -55.70603 80.810604
18.967577 -54.440392 80.869862
4.780668 -57.599655 86.595089
5.387671 -57.58353 86.7477
4.217718 -57.564224 86.355961
4.625568 -58.741295 85.832131
4.780668 -57.599655 86.595089
30.783797 -49.220411 67.673893
30.569713 -48.482141 68.559555
30.660537 -50.201144 67.978832
30.783797 -49.220411 67.673893
6.071277 -39.605987 58.689354
5.866175 -40.068261 59.841381
5.814855 -38.481308 59.44978
6.13933 -39.170429 57.582478
6.19065 -40.757382 57.97408
6.071277 -39.605987 58.689354
6.088211 -37.544401 57.240578
6.207584 -38.695795 56.525303
6.13933 -39.170429 57.582478
30.52563 -58.407749 70.434971
30.963191 -58.072725 69.415787
30.597502 -57.369394 70.224316
30.043619 -58.772546 71.409267
30.409307 -59.475877 70.600739
30.52563 -58.407749 70.434971
10.675837 -54.24593 86.291668
9.77167 -54.456696 86.774761
11.382427 -55.303495 85.506172
11.616215 -54.015162 85.790554
10.675837 -54.24593 86.291668
2.280807 -56.368576 81.799118
2.344796 -56.627836 82.732628
2.232293 -45.865155 48.243782
2.058636 -44.312401 48.088942
9.549017 -81.016842 70.721425
8.600634 -81.502202 70.690876
0.039651 -69.019558 56.91877
-0.157211 -69.924565 57.490578
-0.157211 -69.924565 57.490578
-0.328045 -70.709644 58.111344
-0.206013 -69.483841 58.602288
1.008925 -80.102836 68.854023
1.480814 -80.38892 69.454529
1.162853 -79.129406 70.027271
4.553674 -34.972208 62.006329
4.13949 -35.489639 63.210171
5.045526 -36.164926 61.103027
4.553674 -34.972208 62.006329
22.69031 -53.294118 78.404221
23.560337 -53.032553 77.72221
22.791915 -52.133331 78.270077
7.222103 -54.974396 87.764328
6.461082 -55.101356 87.921943
7.846852 -56.071251 87.052216
8.038586 -54.827679 87.515038
7.222103 -54.974396 87.764328
2.488802 -57.836483 74.806896
2.548665 -56.937862 75.736748
2.705299 -56.569744 74.626781
31.925402 -52.195543 64.388931
31.678559 -51.452135 65.224232
31.915714 -53.161199 64.775318
32.20755 -52.925258 63.57745
31.925402 -52.195543 64.388931
3.215838 -52.490606 51.813396
3.430308 -52.781231 52.724201
3.538472 -51.459803 52.370659
3.054417 -52.243545 50.88874
3.215838 -52.490606 51.813396
-0.847009 -76.015225 63.107746
-0.798212 -76.655609 63.874908
-0.817145 -75.253079 64.359394
1.376902 -37.675795 47.536794
1.778557 -36.363268 48.028938
1.577719 -39.400305 47.637783
1.376902 -37.675795 47.536794
4.123435 -48.207285 69.583916
4.115715 -49.524263 70.11594
5.067458 -41.35915 63.525658
4.683777 -41.804245 64.808033
4.601695 -40.292919 64.338223
5.816126 -37.296577 53.695965
5.877828 -38.961479 53.983597
6.04331 -37.759011 54.578854
5.568939 -36.795915 52.868752
5.816126 -37.296577 53.695965
31.94475 -57.088164 66.126324
31.96452 -56.11478 65.841912
27.686426 -62.086354 74.026199
26.899399 -62.505108 74.716865
23.237923 -66.058166 75.926441
23.751526 -64.936951 76.228405
22.21262 -66.530563 76.345028
23.237923 -66.058166 75.926441
18.942337 -67.913185 77.339131
20.057944 -67.463516 77.044266
19.507917 -66.738899 77.72086
17.816976 -68.388069 77.598438
18.367002 -69.112686 76.921844
18.942337 -67.913185 77.339131
14.494445 -53.284294 84.022366
13.530416 -53.528002 84.651452
15.245865 -54.295454 83.287445
15.476207 -53.016077 83.429615
14.494445 -53.284294 84.022366
2.977483 -57.259996 84.950108
3.314293 -57.393217 85.536781
1.536085 -62.185208 55.848736
1.796076 -61.103123 55.461285
2.760263 -49.14649 49.481194
2.464221 -48.854742 48.650856
10.660065 -77.83561 73.537556
10.08878 -77.171539 74.390664
0.315144 -66.77446 57.867959
0.168101 -67.863365 57.44949
0.111863 -67.609856 58.399991
0.515731 -66.02116 57.41742
0.315144 -66.77446 57.867959
0.459492 -65.767651 58.36792
0.749445 -65.103688 56.969089
0.515731 -66.02116 57.41742
14.343212 -73.515041 75.626915
14.924027 -72.391087 76.279201
14.343212 -73.515041 75.626915
13.245323 -74.013943 75.768593
30.977229 -51.949169 67.530479
31.298147 -52.689878 66.734592
31.312648 -51.690775 66.382687
30.554873 -52.199038 68.624909
30.977229 -51.949169 67.530479
30.569374 -51.199934 68.273003
20.872718 -53.862391 79.670857
21.790696 -53.593587 79.027218
20.708021 -55.096798 79.680858
20.872718 -53.862391 79.670857
19.921235 -54.166911 80.249367
6.308597 -56.304152 87.362824
6.461082 -55.101356 87.921943
6.07434 -57.542839 86.783085
6.796113 -57.456655 86.721767
6.308597 -56.304152 87.362824
5.875188 -58.736035 86.106644
6.07434 -57.542839 86.783085
5.387671 -57.58353 86.7477
2.915673 -54.409554 75.239395
2.847326 -53.496436 76.140511
2.978024 -55.314865 74.362797
2.915673 -54.409554 75.239395
3.128534 -54.053296 74.045559
2.918162 -56.213486 73.432945
2.705299 -56.569744 74.626781
2.978024 -55.314865 74.362797
31.312648 -51.690775 66.382687
31.678559 -51.452135 65.224232
-0.72221 -73.13208 60.130863
-0.617295 -72.321289 59.438679
4.525158 -38.756087 51.100341
4.577231 -40.409743 51.356312
4.967144 -39.203072 51.82394
4.040837 -38.27071 50.434643
4.525158 -38.756087 51.100341
3.517681 -37.815993 49.789158
3.61209 -39.50804 49.987228
4.040837 -38.27071 50.434643
3.285245 -80.799701 70.985386
2.622415 -80.745686 70.524761
-0.334643 -78.420471 66.12051
-0.546095 -77.868515 65.383659
4.090601 -45.498243 68.492416
4.16826 -46.870515 69.035828
4.477992 -45.090696 67.154602
4.090601 -45.498243 68.492416
4.8042 -44.711479 65.832538
4.846357 -46.112028 66.3737
4.477992 -45.090696 67.154602
6.069038 -36.581938 55.237313
6.04331 -37.759011 54.578854
6.130738 -38.24684 55.524945
31.332231 -57.725903 68.353543
31.667905 -57.410395 67.252308
31.370737 -56.718863 68.103898
31.332231 -57.725903 68.353543
30.963191 -58.072725 69.415787
30.225404 -60.519497 70.678547
30.409307 -59.475877 70.600739
29.686646 -60.90932 71.599037
30.225404 -60.519497 70.678547
26.052326 -62.911684 75.345234
26.899399 -62.505108 74.716865
26.408165 -61.793173 75.437115
25.153259 -63.345236 75.916351
26.052326 -62.911684 75.345234
24.204322 -63.763316 76.431469
25.153259 -63.345236 75.916351
24.612155 -62.617829 76.580601
23.210422 -64.209543 76.892654
23.751526 -64.936951 76.228405
24.204322 -63.763316 76.431469
12.559767 -53.782529 85.213883
11.616215 -54.015162 85.790554
13.293454 -54.818199 84.442627
13.530416 -53.528002 84.651452
12.559767 -53.782529 85.213883
2.494535 -56.874275 83.537575
2.691003 -57.075851 84.313237
2.485829 -57.866758 82.624863
2.494535 -56.874275 83.537575
2.344796 -56.627836 82.732628
2.087776 -60.016621 55.079842
1.796076 -61.103123 55.461285
2.013912 -60.105328 56.098286
2.577322 -57.384473 52.278935
2.710304 -56.130549 51.93425
2.326003 -47.376531 48.463031
2.620584 -46.199442 49.005893
2.232293 -45.865155 48.243782
2.464221 -48.854742 48.650856
2.326003 -47.376531 48.463031
9.867107 -79.985737 71.712975
10.243195 -78.903233 72.641044
9.251404 -79.37761 72.637543
9.867107 -79.985737 71.712975
9.549017 -81.016842 70.721425
0.039651 -69.019558 56.91877
0.168101 -67.863365 57.44949
-0.483921 -71.565468 58.749595
-0.617295 -72.321289 59.438679
-0.51022 -71.024742 59.912136
-0.483921 -71.565468 58.749595
-0.328045 -70.709644 58.111344
2.030213 -80.588211 70.013554
2.622415 -80.745686 70.524761
2.226945 -79.572964 71.138984
2.030213 -80.588211 70.013554
1.480814 -80.38892 69.454529
4.448814 -38.733288 63.917633
4.601695 -40.292919 64.338223
4.315803 -37.13691 63.53336
4.13949 -35.489639 63.210171
4.852365 -38.251446 62.671574
4.448814 -38.733288 63.917633
4.315803 -37.13691 63.53336
5.490725 -37.309184 60.260281
5.164553 -37.799324 61.444553
5.045526 -36.164926 61.103027
5.814855 -38.481308 59.44978
5.490725 -37.309184 60.260281
32.210245 -54.85856 64.322498
32.424267 -54.608053 63.128518
31.946465 -55.117296 65.506992
32.210245 -54.85856 64.322498
31.934081 -54.14965 65.148331
31.688356 -55.40587 66.667744
31.96452 -56.11478 65.841912
31.946465 -55.117296 65.506992
22.559118 -54.492809 78.479351
22.69031 -53.294118 78.404221
21.790696 -53.593587 79.027218
8.882313 -54.651831 87.172581
8.038586 -54.827679 87.515038
9.552692 -55.729399 86.405105
9.77167 -54.456696 86.774761
8.882313 -54.651831 87.172581
2.308496 -55.769749 79.797264
2.255536 -56.073038 80.855377
2.365272 -56.699506 78.879547
2.308496 -55.769749 79.797264
2.296959 -57.643774 77.910443
2.217234 -57.973511 78.96333
2.365272 -56.699506 78.879547
2.388581 -57.287185 76.871761
2.548665 -56.937862 75.736748
2.240545 -58.561189 76.955544
2.296959 -57.643774 77.910443
2.388581 -57.287185 76.871761
32.436299 -53.668284 62.74955
32.20755 -52.925258 63.57745
32.424267 -54.608053 63.128518
32.436299 -53.668284 62.74955
3.231616 -54.056893 53.131554
3.554251 -53.026089 53.688817
3.430308 -52.781231 52.724201
2.943993 -55.069872 52.538872
3.067935 -55.314729 53.503487
3.231616 -54.056893 53.131554
2.710304 -56.130549 51.93425
2.943993 -55.069872 52.538872
-0.683574 -77.29142 64.628723
-0.546095 -77.868515 65.383659
-0.63087 -76.470558 65.881493
-0.683574 -77.29142 64.628723
-0.798212 -76.655609 63.874908
-0.807931 -73.858742 60.865822
-0.729316 -72.507225 61.336178
-0.72221 -73.13208 60.130863
-0.851233 -74.620872 61.596058
-0.807931 -73.858742 60.865822
-0.876686 -75.310276 62.356606
-0.84049 -73.923291 62.831684
-0.851233 -74.620872 61.596058
-0.847009 -76.015225 63.107746
-0.876686 -75.310276 62.356606
3.695479 -51.162647 71.918296
3.389302 -51.523482 73.230782
29.499795 -48.932907 70.637856
29.811293 -49.686229 69.812462
30.017845 -48.698898 69.604484
28.882335 -49.144777 71.608486
29.499795 -48.932907 70.637856
28.290356 -49.381042 72.564114
28.701262 -50.156503 71.80146
28.882335 -49.144777 71.608486
27.604723 -49.590653 73.461113
28.290356 -49.381042 72.564114
26.935727 -49.830742 74.338256
27.440288 -50.632858 73.634231
27.604723 -49.590653 73.461113
26.184715 -50.041583 75.167034
26.935727 -49.830742 74.338256
25.441305 -50.287533 75.969448
26.027881 -51.118899 75.313789
26.184715 -50.041583 75.167034
24.631164 -50.502913 76.739224
25.441305 -50.287533 75.969448
23.8199 -50.756371 77.475155
24.473206 -51.618307 76.852135
24.631164 -50.502913 76.739224
22.958703 -50.978712 78.198265
23.8199 -50.756371 77.475155
22.791915 -52.133331 78.270077
22.958703 -50.978712 78.198265
2.857534 -52.233332 75.77658
2.847326 -53.496436 76.140511
3.127381 -51.876698 74.493534
2.857534 -52.233332 75.77658
3.389302 -51.523482 73.230782
3.328104 -52.794767 73.659404
3.127381 -51.876698 74.493534
30.017845 -48.698898 69.604484
30.569713 -48.482141 68.559555
1.928038 -42.718186 47.907511
2.058636 -44.312401 48.088942
2.396275 -43.09385 48.605213
2.951997 -37.322159 49.194443
3.517681 -37.815993 49.789158
2.38365 -36.863098 48.591648
1.778557 -36.363268 48.028938
2.520587 -38.594262 48.738948
2.951997 -37.322159 49.194443
2.38365 -36.863098 48.591648
1.734437 -41.082521 47.781597
2.108959 -39.817418 48.279968
1.577719 -39.400305 47.637783
1.928038 -42.718186 47.907511
1.734437 -41.082521 47.781597
10.018796 -75.241146 75.957593
11.074551 -74.884354 75.93208
10.543278 -74.077527 76.673958
9.530773 -76.410225 75.190003
10.018796 -75.241146 75.957593
8.999501 -75.603397 75.931881
9.069485 -77.533791 74.364952
10.08878 -77.171539 74.390664
9.530773 -76.410225 75.190003
7.665838 -81.871338 70.576851
8.600634 -81.502202 70.690876
7.940518 -80.829251 71.595448
3.993035 -80.819549 71.393101
3.526937 -79.750286 72.057907
3.285245 -80.799701 70.985386
4.760756 -80.724102 71.742264
3.993035 -80.819549 71.393101
5.574143 -80.60479 72.037957
5.048116 -79.650822 72.761314
4.760756 -80.724102 71.742264
6.146252 -81.438229 71.250164
6.433613 -80.364948 72.269215
5.574143 -80.60479 72.037957
6.776252 -82.237415 70.427761
6.146252 -81.438229 71.250164
7.665838 -81.871338 70.576851
6.776252 -82.237415 70.427761
-0.095014 -78.917965 66.843864
-0.253762 -77.545147 67.359784
-0.334643 -78.420471 66.12051
0.223569 -79.36927 67.542805
-0.095014 -78.917965 66.843864
0.576118 -79.769611 68.214619
0.338416 -78.442982 68.754952
0.223569 -79.36927 67.542805
1.008925 -80.102836 68.854023
0.576118 -79.769611 68.214619
3.972367 -50.812016 70.630295
3.866914 -52.090919 71.10865
3.695479 -51.162647 71.918296
4.287151 -50.452535 69.306294
3.972367 -50.812016 70.630295
4.115715 -49.524263 70.11594
4.475324 -47.828014 68.243851
4.123435 -48.207285 69.583916
4.16826 -46.870515 69.035828
4.792687 -43.280311 65.304454
4.683777 -41.804245 64.808033
5.161052 -44.301643 64.523552
4.8042 -44.711479 65.832538
4.792687 -43.280311 65.304454
5.282857 -38.024231 52.334339
4.967144 -39.203072 51.82394
5.334931 -39.677887 52.590309
5.282857 -38.024231 52.334339
5.568939 -36.795915 52.868752
5.975843 -35.871389 56.947002
6.088211 -37.544401 57.240578
6.042787 -35.358366 55.94107
5.975843 -35.871389 56.947002
6.069038 -36.581938 55.237313
6.042787 -35.358366 55.94107
31.94475 -57.088164 66.126324
31.667905 -57.410395 67.252308
29.080934 -61.288927 72.466633
29.686646 -60.90932 71.599037
29.321584 -60.220281 72.442631
28.416744 -61.692999 73.276939
27.985555 -60.993243 74.059486
27.686426 -62.086354 74.026199
29.080934 -61.288927 72.466633
28.416744 -61.692999 73.276939
21.145569 -66.983589 76.71323
22.21262 -66.530563 76.345028
21.690575 -65.836205 77.057793
21.145569 -66.983589 76.71323
20.057944 -67.463516 77.044266
17.764379 -70.250755 76.41243
18.367002 -69.112686 76.921844
16.644253 -70.751724 76.646221
17.764379 -70.250755 76.41243
15.506878 -71.204937 76.845349
16.644253 -70.751724 76.646221
16.104267 -70.040783 77.38028
14.384041 -71.680145 77.01326
14.924027 -72.391087 76.279201
15.506878 -71.204937 76.845349
16.444266 -52.769346 82.776886
15.476207 -53.016077 83.429615
17.203122 -53.753351 82.087525
16.444266 -52.769346 82.776886
17.004535 -55.01899 82.028267
17.98003 -54.745103 81.421097
17.203122 -53.753351 82.087525
3.741338 -57.505405 85.981506
4.217718 -57.564224 86.355961
3.635572 -58.593676 85.148277
3.741338 -57.505405 85.981506
3.314293 -57.393217 85.536781
2.922047 -58.297342 84.066681
2.977483 -57.259996 84.950108
2.691003 -57.075851 84.313237
2.310818 -57.324781 80.876175
2.280807 -56.368576 81.799118
2.255536 -56.073038 80.855377
0.998189 -64.203114 56.611359
0.749445 -65.103688 56.969089
0.908824 -64.113777 57.559651
1.253763 -63.195894 56.209831
1.43989 -62.202517 56.840824
1.536085 -62.185208 55.848736
0.998189 -64.203114 56.611359
1.253763 -63.195894 56.209831
2.114299 -59.870903 54.058232
2.087776 -60.016621 55.079842
2.332136 -58.873108 54.695233
2.366494 -58.584314 52.660343
2.569485 -57.527549 53.292214
2.577322 -57.384473 52.278935
2.180365 -59.788011 53.025204
2.366494 -58.584314 52.660343
2.114299 -59.870903 54.058232
2.180365 -59.788011 53.025204
3.114771 -49.483505 50.27285
3.068803 -48.047835 50.0168
2.760263 -49.14649 49.481194
3.065116 -50.87567 50.598549
3.373656 -49.777014 51.134155
3.114771 -49.483505 50.27285
3.054417 -52.243545 50.88874
3.065116 -50.87567 50.598549
12.144245 -74.441162 75.869259
11.074551 -74.884354 75.93208
10.660065 -77.83561 73.537556
10.243195 -78.903233 72.641044
3 0 83 82
3 0 82 84
3 1 318 320
3 320 319 86
3 318 319 320
3 2 89 87
3 3 92 90
3 5 321 323
3 321 94 322
3 321 322 323
3 324 96 325
3 326 98 327
3 328 327 96
3 326 327 328
3 329 100 330
3 331 102 332
3 333 332 100
3 331 332 333
3 3 104 103
3 3 90 104
3 5 334 335
3 5 336 337
3 4 108 106
3 6 111 109
3 8 115 113
3 9 118 116
3 11 121 119
3 11 123 121
3 338 127 339
3 340 339 125
3 338 339 340
3 341 129 342
3 343 342 127
3 341 342 343
3 344 131 345
3 346 345 129
3 344 345 346
3 12 347 349
3 349 348 132
3 347 348 349
3 12 350 352
3 350 133 351
3 350 351 352
3 7 136 134
3 13 139 137
3 13 141 139
3 13 142 141
3 14 145 143
3 14 147 145
3 15 353 354
3 15 355 357
3 355 148 356
3 355 356 357
3 15 150 148
3 16 153 151
3 16 155 153
3 16 157 155
3 17 160 158
3 17 162 160
3 358 164 359
3 18 167 165
3 18 169 167
3 18 171 169
3 9 174 172
3 9 116 174
3 10 178 176
3 361 360 179
3 363 362 181
3 19 364 365
3 20 184 182
3 19 185 85
3 19 366 368
3 368 367 185
3 366 367 368
3 22 188 186
3 24 189 88
3 24 369 371
3 371 370 189
3 369 370 371
3 25 192 190
3 27 193 91
3 27 194 193
3 372 195 373
3 375 374 195
3 29 197 196
3 31 198 93
3 31 199 198
3 376 202 377
3 378 377 200
3 376 377 378
3 33 203 95
3 33 204 203
3 33 206 204
3 35 207 97
3 35 208 207
3 36 379 380
3 36 381 383
3 381 209 382
3 381 382 383
3 36 211 209
3 38 212 99
3 38 213 212
3 38 215 213
3 40 216 101
3 40 217 216
3 42 384 386
3 384 219 385
3 384 385 386
3 42 220 219
3 42 222 220
3 25 223 105
3 25 190 223
3 29 387 388
3 29 389 391
3 389 196 390
3 389 390 391
3 44 226 224
3 46 392 394
3 394 393 107
3 392 393 394
3 46 395 396
3 47 229 227
3 49 230 110
3 49 397 399
3 399 398 230
3 397 398 399
3 21 231 183
3 51 235 233
3 53 236 112
3 53 237 236
3 400 238 401
3 403 402 238
3 54 240 239
3 56 241 114
3 56 242 241
3 23 243 187
3 48 244 228
3 57 247 245
3 59 248 117
3 59 249 248
3 26 250 191
3 60 251 120
3 60 252 251
3 60 253 252
3 61 254 122
3 61 255 254
3 404 256 405
3 62 257 124
3 62 258 257
3 28 406 408
3 406 259 407
3 406 407 408
3 63 260 126
3 63 261 260
3 63 262 261
3 64 263 128
3 64 264 263
3 64 265 264
3 409 266 410
3 411 410 130
3 409 410 411
3 413 412 266
3 30 414 415
3 50 267 232
3 65 268 135
3 65 269 268
3 32 270 201
3 66 271 138
3 66 272 271
3 66 273 272
3 417 416 140
3 67 418 419
3 67 420 421
3 34 274 205
3 68 275 144
3 68 422 424
3 424 423 275
3 422 423 424
3 68 425 427
3 425 276 426
3 425 426 427
3 69 277 146
3 69 278 277
3 70 428 429
3 70 430 432
3 430 279 431
3 430 431 432
3 70 280 279
3 71 281 149
3 71 282 281
3 37 283 210
3 72 284 152
3 72 285 284
3 72 286 285
3 73 287 154
3 73 288 287
3 73 289 288
3 74 290 156
3 74 291 290
3 39 292 214
3 75 293 159
3 75 294 293
3 75 295 294
3 76 296 161
3 76 297 296
3 433 298 434
3 77 299 163
3 77 300 299
3 41 301 218
3 78 302 166
3 78 303 302
3 78 304 303
3 79 305 168
3 79 306 305
3 79 307 306
3 80 308 170
3 80 309 308
3 43 310 221
3 81 311 173
3 81 312 311
3 81 313 312
3 57 314 175
3 57 245 314
3 58 315 246
3 436 435 177
3 45 316 225
3 52 317 234
3 438 437 180
3 55 439 440
3 82 441 443
3 443 442 19
3 441 442 443
3 83 444 446
3 446 445 82
3 444 445 446
3 83 447 448
3 84 85 20
3 82 85 84
3 82 19 85
3 86 449 450
3 452 451 86
3 87 88 22
3 89 88 87
3 89 24 88
3 90 91 25
3 92 91 90
3 92 27 91
3 453 93 454
3 455 454 29
3 453 454 455
3 94 456 458
3 456 93 457
3 456 457 458
3 94 31 93
3 459 95 460
3 96 461 463
3 461 95 462
3 461 462 463
3 96 33 95
3 96 97 33
3 98 97 96
3 98 35 97
3 464 36 465
3 466 99 467
3 468 467 36
3 466 467 468
3 100 469 471
3 469 99 470
3 469 470 471
3 100 38 99
3 100 101 38
3 102 101 100
3 102 40 101
3 103 472 473
3 104 474 476
3 476 475 103
3 474 475 476
3 104 477 479
3 477 42 478
3 477 478 479
3 104 105 42
3 90 105 104
3 90 25 105
3 480 29 481
3 106 107 44
3 108 107 106
3 108 46 107
3 109 110 47
3 111 110 109
3 111 49 110
3 483 482 21
3 484 112 485
3 486 485 51
3 484 485 486
3 487 112 488
3 489 53 490
3 491 490 112
3 489 490 491
3 113 114 54
3 115 114 113
3 115 56 114
3 493 492 23
3 495 494 48
3 116 117 57
3 118 117 116
3 118 59 117
3 119 120 26
3 121 120 119
3 121 60 120
3 121 122 60
3 123 122 121
3 123 61 122
3 496 124 497
3 498 124 499
3 500 62 501
3 502 501 124
3 500 501 502
3 125 126 28
3 127 126 125
3 127 63 126
3 127 128 63
3 129 128 127
3 129 64 128
3 129 130 64
3 131 130 129
3 131 503 505
3 505 504 130
3 503 504 505
3 132 506 508
3 508 507 30
3 506 507 508
3 510 509 132
3 133 511 512
3 133 513 514
3 134 135 50
3 136 135 134
3 136 65 135
3 137 138 32
3 139 138 137
3 139 66 138
3 139 140 66
3 141 140 139
3 141 515 517
3 517 516 140
3 515 516 517
3 141 518 519
3 142 520 522
3 522 521 141
3 520 521 522
3 142 523 525
3 523 67 524
3 523 524 525
3 143 144 34
3 145 144 143
3 145 68 144
3 145 146 68
3 147 146 145
3 147 69 146
3 148 526 527
3 148 528 530
3 528 70 529
3 528 529 530
3 148 149 70
3 150 149 148
3 150 71 149
3 151 152 37
3 153 152 151
3 153 72 152
3 153 154 72
3 155 154 153
3 155 73 154
3 155 156 73
3 157 156 155
3 157 74 156
3 158 159 39
3 160 159 158
3 160 75 159
3 160 161 75
3 162 161 160
3 162 76 161
3 531 163 532
3 164 533 535
3 533 163 534
3 533 534 535
3 164 77 163
3 165 166 41
3 167 166 165
3 167 78 166
3 167 168 78
3 169 168 167
3 169 79 168
3 169 170 79
3 171 170 169
3 171 80 170
3 172 173 43
3 174 173 172
3 174 81 173
3 174 175 81
3 116 175 174
3 116 57 175
3 176 177 58
3 178 177 176
3 178 536 538
3 538 537 177
3 536 537 538
3 540 539 45
3 179 180 52
3 541 180 542
3 543 542 179
3 541 542 543
3 545 544 180
3 181 546 548
3 548 547 55
3 546 547 548
3 550 549 181
3 552 551 19
3 182 183 6
3 184 183 182
3 184 21 183
3 85 184 20
3 185 184 85
3 185 21 184
3 185 553 555
3 555 554 21
3 553 554 555
3 557 556 185
3 186 187 8
3 188 187 186
3 188 23 187
3 88 188 22
3 189 188 88
3 189 23 188
3 189 558 560
3 560 559 23
3 558 559 560
3 562 561 189
3 190 191 9
3 192 191 190
3 192 26 191
3 91 192 25
3 193 192 91
3 193 26 192
3 193 119 26
3 194 119 193
3 194 11 119
3 563 28 564
3 195 565 566
3 195 567 569
3 567 28 568
3 567 568 569
3 195 125 28
3 570 125 571
3 572 571 195
3 570 571 572
3 574 573 125
3 196 575 576
3 197 577 579
3 579 578 196
3 577 578 579
3 197 580 582
3 580 30 581
3 580 581 582
3 93 197 29
3 198 197 93
3 198 30 197
3 198 132 30
3 199 132 198
3 199 12 132
3 200 201 7
3 202 201 200
3 202 32 201
3 95 583 585
3 583 202 584
3 583 584 585
3 203 202 95
3 203 32 202
3 203 137 32
3 204 137 203
3 204 13 137
3 204 205 13
3 206 205 204
3 206 34 205
3 97 206 33
3 207 206 97
3 207 34 206
3 207 143 34
3 208 143 207
3 208 14 143
3 209 586 587
3 209 588 590
3 588 15 589
3 588 589 590
3 209 210 15
3 211 210 209
3 211 37 210
3 99 211 36
3 212 211 99
3 212 37 211
3 212 151 37
3 213 151 212
3 213 16 151
3 213 214 16
3 215 214 213
3 215 39 214
3 101 215 38
3 216 215 101
3 216 39 215
3 216 158 39
3 217 158 216
3 217 17 158
3 591 218 592
3 593 218 594
3 595 41 596
3 597 596 218
3 595 596 597
3 219 598 599
3 219 600 602
3 600 41 601
3 600 601 602
3 219 165 41
3 220 165 219
3 220 18 165
3 220 221 18
3 222 221 220
3 222 43 221
3 105 222 42
3 223 222 105
3 223 43 222
3 223 172 43
3 190 172 223
3 190 9 172
3 196 603 604
3 196 605 606
3 224 225 10
3 226 225 224
3 226 45 225
3 107 226 44
3 607 226 608
3 609 608 107
3 607 608 609
3 610 45 611
3 612 611 226
3 610 611 612
3 614 613 45
3 227 228 2
3 229 228 227
3 229 48 228
3 110 229 47
3 230 229 110
3 230 48 229
3 230 615 617
3 617 616 48
3 615 616 617
3 619 618 230
3 183 111 6
3 231 111 183
3 231 49 111
3 620 231 621
3 622 621 21
3 620 621 622
3 623 231 624
3 625 49 626
3 627 626 231
3 625 626 627
3 629 628 49
3 631 630 3
3 632 232 633
3 634 633 5
3 632 633 634
3 635 232 636
3 637 50 638
3 639 638 232
3 637 638 639
3 640 50 641
3 642 134 643
3 644 643 50
3 642 643 644
3 645 134 646
3 647 7 648
3 649 648 134
3 647 648 649
3 650 7 651
3 652 200 653
3 654 653 7
3 652 653 654
3 655 200 656
3 658 657 200
3 659 103 660
3 661 103 662
3 663 3 664
3 665 664 103
3 663 664 665
3 666 5 667
3 233 234 4
3 235 234 233
3 235 52 234
3 112 235 51
3 236 235 112
3 236 52 235
3 236 179 52
3 237 179 236
3 237 668 670
3 670 669 179
3 668 669 670
3 671 53 672
3 238 673 674
3 238 675 677
3 675 53 676
3 675 676 677
3 238 237 53
3 678 237 679
3 680 679 238
3 678 679 680
3 682 681 237
3 239 683 685
3 685 684 1
3 683 684 685
3 240 686 688
3 688 687 239
3 686 687 688
3 240 689 691
3 689 55 690
3 689 690 691
3 114 240 54
3 241 240 114
3 241 55 240
3 241 181 55
3 242 181 241
3 242 692 694
3 694 693 181
3 692 693 694
3 187 115 8
3 243 115 187
3 243 56 115
3 695 243 696
3 697 696 23
3 695 696 697
3 698 243 699
3 700 56 701
3 702 701 243
3 700 701 702
3 703 242 704
3 705 704 56
3 703 704 705
3 706 242 707
3 709 708 242
3 228 89 2
3 244 89 228
3 244 24 89
3 710 244 711
3 712 711 48
3 710 711 712
3 713 244 714
3 715 24 716
3 717 716 244
3 715 716 717
3 719 718 24
3 245 246 0
3 247 246 245
3 247 58 246
3 117 247 57
3 248 247 117
3 248 58 247
3 248 176 58
3 249 176 248
3 249 10 176
3 191 118 9
3 250 118 191
3 250 59 118
3 120 250 26
3 251 250 120
3 251 59 250
3 251 249 59
3 252 249 251
3 252 10 249
3 252 224 10
3 253 224 252
3 253 44 224
3 122 253 60
3 254 253 122
3 254 44 253
3 254 106 44
3 255 106 254
3 255 4 106
3 720 92 721
3 722 721 3
3 720 721 722
3 256 723 725
3 723 92 724
3 723 724 725
3 256 27 92
3 124 726 728
3 726 256 727
3 726 727 728
3 257 256 124
3 257 27 256
3 257 194 27
3 258 194 257
3 258 11 194
3 259 729 730
3 259 731 733
3 731 62 732
3 731 732 733
3 126 259 28
3 260 259 126
3 260 62 259
3 260 258 62
3 261 258 260
3 261 11 258
3 261 123 11
3 262 123 261
3 262 61 123
3 128 262 63
3 263 262 128
3 263 61 262
3 263 255 61
3 264 255 263
3 264 4 255
3 264 233 4
3 265 233 264
3 265 51 233
3 130 265 64
3 266 265 130
3 266 51 265
3 266 734 736
3 736 735 51
3 734 735 736
3 738 737 266
3 739 131 740
3 741 131 742
3 744 743 131
3 746 745 30
3 232 94 5
3 267 94 232
3 267 31 94
3 135 267 50
3 268 267 135
3 268 31 267
3 268 199 31
3 269 199 268
3 269 12 199
3 201 136 7
3 270 136 201
3 270 65 136
3 138 270 32
3 271 270 138
3 271 65 270
3 271 269 65
3 272 269 271
3 272 12 269
3 272 133 12
3 273 133 272
3 273 747 749
3 749 748 133
3 747 748 749
3 140 273 66
3 750 273 751
3 752 751 140
3 750 751 752
3 754 753 273
3 205 142 13
3 274 142 205
3 274 67 142
3 144 274 34
3 275 274 144
3 275 67 274
3 275 755 757
3 757 756 67
3 755 756 757
3 759 758 275
3 276 760 761
3 276 762 763
3 146 276 68
3 277 276 146
3 277 764 766
3 766 765 276
3 764 765 766
3 277 767 769
3 767 86 768
3 767 768 769
3 278 86 277
3 278 1 86
3 279 770 771
3 279 772 773
3 279 774 776
3 774 98 775
3 774 775 776
3 280 98 279
3 280 35 98
3 149 280 70
3 281 280 149
3 281 35 280
3 281 208 35
3 282 208 281
3 282 14 208
3 210 150 15
3 283 150 210
3 283 71 150
3 152 283 37
3 284 283 152
3 284 71 283
3 284 282 71
3 285 282 284
3 285 14 282
3 285 147 14
3 286 147 285
3 286 69 147
3 154 286 72
3 287 286 154
3 287 69 286
3 287 278 69
3 288 278 287
3 288 1 278
3 288 239 1
3 289 239 288
3 289 54 239
3 156 289 73
3 290 289 156
3 290 54 289
3 290 113 54
3 291 113 290
3 291 8 113
3 214 157 16
3 292 157 214
3 292 74 157
3 159 292 39
3 293 292 159
3 293 74 292
3 293 291 74
3 294 291 293
3 294 8 291
3 294 186 8
3 295 186 294
3 295 22 186
3 161 295 75
3 296 295 161
3 296 22 295
3 296 87 22
3 297 87 296
3 297 2 87
3 777 102 778
3 298 779 781
3 779 102 780
3 779 780 781
3 298 40 102
3 163 782 784
3 782 298 783
3 782 783 784
3 299 298 163
3 299 40 298
3 299 217 40
3 300 217 299
3 300 17 217
3 218 785 787
3 785 164 786
3 785 786 787
3 301 164 218
3 301 77 164
3 166 301 41
3 302 301 166
3 302 77 301
3 302 300 77
3 303 300 302
3 303 17 300
3 303 162 17
3 304 162 303
3 304 76 162
3 168 304 78
3 305 304 168
3 305 76 304
3 305 297 76
3 306 297 305
3 306 2 297
3 306 227 2
3 307 227 306
3 307 47 227
3 170 307 79
3 308 307 170
3 308 47 307
3 308 109 47
3 309 109 308
3 309 6 109
3 221 171 18
3 310 171 221
3 310 80 171
3 173 310 43
3 311 310 173
3 311 80 310
3 311 309 80
3 312 309 311
3 312 6 309
3 312 182 6
3 313 182 312
3 313 20 182
3 175 313 81
3 314 313 175
3 314 20 313
3 314 84 20
3 245 84 314
3 245 0 84
3 246 83 0
3 315 83 246
3 315 788 790
3 790 789 83
3 788 789 790
3 177 315 58
3 791 315 792
3 793 792 177
3 791 792 793
3 795 794 315
3 225 178 10
3 316 178 225
3 316 796 798
3 798 797 178
3 796 797 798
3 799 316 800
3 801 800 45
3 799 800 801
3 802 316 803
3 805 804 316
3 234 108 4
3 317 108 234
3 317 46 108
3 180 317 52
3 806 317 807
3 808 807 180
3 806 807 808
3 809 46 810
3 811 810 317
3 809 810 811
3 813 812 46
3 815 814 1
3 817 816 55
