ply
format ascii 1.0
element vertex 397
property float x
property float y
property float z
element face 411
property list uchar int vertex_index
end_header
50.797157 -78.366135 22.371367
43.424194 -97.9105 19.90414
40.25967 -91.584564 41.664864
44.652813 -92.258408 32.793617
39.299358 -98.953766 28.362278
53.593819 -74.139938 12.166582
49.175743 -82.48053 12.098986
49.639908 -82.752548 33.361591
47.101246 -87.881676 22.355679
37.319416 -92.902679 38.814594
39.833496 -95.471756 35.192932
36.857925 -96.724815 32.024693
51.705704 -76.154152 17.123446
51.23568 -77.991814 12.161824
49.649017 -80.319 17.242012
48.384796 -84.248131 38.862526
44.023514 -95.244881 26.387505
46.127903 -90.439171 27.620203
45.473339 -93.068855 21.490376
46.624477 -90.38623 16.559496
43.314026 -88.740746 43.401245
45.491272 -88.793633 38.755558
42.640289 -92.756554 37.582794
42.120026 -96.233826 31.035772
41.512005 -99.252899 24.314169
38.285667 -102.192688 21.814672
34.625694 -89.101036 42.226593
50.31958 -80.670876 27.807423
47.150208 -87.551834 33.477703
48.201363 -85.419426 27.997688
48.852165 -82.870628 22.554554
47.930756 -85.122513 17.149899
35.822235 -93.044106 37.192451
37.122623 -94.829872 35.442116
35.578552 -94.991867 33.797634
35.22464 -96.966492 30.438332
51.725426 -76.307404 22.232433
52.097244 -75.258904 19.614388
51.156197 -77.23468 19.718796
50.667419 -78.162315 17.191591
50.163029 -79.330704 19.815479
43.738506 -96.604042 23.133514
44.800964 -94.260376 23.954224
44.540195 -95.56385 20.778116
41.764767 -90.337021 42.695744
42.953144 -90.81488 40.619179
41.484413 -92.383766 39.725483
39.602417 -97.255478 31.778057
41.014179 -96.090431 33.186188
40.76384 -97.764153 29.782906
41.849583 -97.790039 27.664953
40.441002 -99.342072 26.391958
39.997017 -100.851067 23.076841
38.873936 -100.590263 25.021294
36.136997 -89.13868 43.644852
34.731064 -87.191971 45.255177
31.616743 -86.771904 42.921108
54.135906 -69.62587 19.292347
53.515709 -73.289291 14.577348
50.124344 -80.143166 12.152063
51.106747 -79.493011 30.364262
50.036831 -81.762436 30.575855
45.043179 -90.590988 35.853149
46.395691 -88.312943 36.165634
45.896645 -89.953186 33.260342
46.662121 -89.215523 24.987068
47.15332 -87.919228 27.902706
47.584541 -86.659821 25.206295
48.549 -84.168533 25.264198
47.942204 -85.325653 22.523811
48.295307 -83.972092 19.86554
47.500999 -86.500984 19.739792
38.786785 -92.437729 40.344276
40.040798 -93.584801 38.519791
38.598095 -94.39032 37.059181
38.384075 -96.262306 33.654781
38.100552 -98.070808 30.230206
37.698009 -99.837135 26.873627
36.478882 -98.608025 28.662113
52.923843 -73.361351 19.513746
52.67849 -74.254608 17.058083
52.507935 -75.129242 14.600522
52.428867 -76.006096 12.160036
51.406494 -77.057312 14.633668
50.310085 -79.12468 14.66401
49.310532 -81.363533 14.664213
49.09346 -83.595642 36.138271
44.31831 -93.804115 29.622938
45.462666 -91.479271 30.233273
45.100189 -92.907562 27.118862
45.753029 -91.773445 24.574509
46.299812 -90.485077 22.017031
46.781654 -89.115837 19.46501
46.068161 -91.754929 19.019842
51.491417 -77.384315 24.90152
44.902176 -86.873703 43.788769
45.986351 -86.868065 41.45417
44.456451 -88.946526 41.187035
44.053955 -90.892967 38.323868
43.705074 -92.703606 35.25885
41.241325 -94.300865 36.527477
42.370537 -94.561012 34.364464
43.40398 -94.379341 32.05127
43.128639 -95.930908 28.759403
42.843468 -97.377594 25.439426
42.505444 -98.745949 22.14296
41.062248 -100.652672 21.035913
37.486511 -90.924301 42.033142
35.997791 -91.101036 40.513359
34.477585 -91.020302 38.974819
33.19445 -87.026001 44.029572
33.078453 -88.887489 40.862923
51.312057 -78.45903 27.614357
50.547096 -79.524048 25.070063
46.943504 -86.55088 38.915554
47.75462 -85.957268 36.240921
48.407028 -85.132446 33.49255
46.599201 -89.039909 30.596596
47.747696 -86.567169 30.742893
48.90313 -84.126945 30.71839
49.267349 -82.993294 27.94968
49.548912 -81.78389 25.203728
49.819092 -80.548523 22.489786
49.190025 -81.574821 19.877119
48.724331 -82.642311 17.241249
48.465332 -83.778183 14.597812
47.253311 -87.722702 16.931297
47.777172 -86.342911 14.427164
34.919542 -93.987042 34.707621
35.700394 -94.017987 35.495042
35.041383 -93.013161 36.405029
34.757742 -95.002926 33.034388
34.919542 -93.987042 34.707621
43.852026 -97.378799 18.765669
44.410027 -96.205475 19.202656
43.982194 -96.737175 20.341128
43.232218 -98.554314 18.319697
43.852026 -97.378799 18.765669
34.768275 -86.226307 46.6041
35.493306 -87.163322 45.865233
53.972894 -70.078194 20.542191
54.212103 -69.125943 20.445957
54.107101 -73.236683 12.176334
54.068047 -72.811359 13.381718
53.554764 -73.714615 13.371965
54.274785 -73.640338 11.000718
54.107101 -73.236683 12.176334
53.670891 -74.55637 10.976889
54.274785 -73.640338 11.000718
49.647842 -81.850792 10.885261
50.122143 -80.68211 10.911799
49.650043 -81.311848 12.125525
49.203567 -83.074292 10.830666
49.647842 -81.850792 10.885261
50.224499 -81.598976 33.250698
50.006832 -82.014457 34.640051
49.838369 -82.257492 31.968723
50.422961 -81.10392 31.85783
50.224499 -81.598976 33.250698
34.971395 -97.97601 28.824014
34.345251 -97.050011 29.73923
52.73703 -73.850853 20.802451
53.0835 -72.89397 20.731237
49.081173 -83.098312 38.762078
48.700081 -83.337627 40.087395
48.739128 -83.921886 37.500399
49.435505 -82.772068 37.39995
49.081173 -83.098312 38.762078
51.847126 -76.865353 26.151097
51.913288 -76.363647 24.811954
38.84048 -102.258 20.850309
39.696156 -101.587189 21.481394
39.141342 -101.521878 22.445757
37.899795 -102.991753 20.298047
38.84048 -102.258 20.850309
37.415836 -100.710895 25.265193
36.820131 -100.168182 26.15595
37.56615 -89.902019 43.51034
38.232844 -90.658958 42.719645
32.448106 -86.008671 45.008555
33.229771 -86.111565 45.486532
32.274368 -88.770352 40.274521
32.347598 -87.829697 41.892015
31.543512 -87.712559 41.303613
32.986593 -89.856395 39.210743
32.274368 -88.770352 40.274521
51.84725 -77.443531 10.957989
52.443843 -76.450672 10.957095
51.832273 -76.998955 12.16093
47.79347 -86.991371 13.072595
47.482813 -87.675278 14.274464
48.097071 -85.667855 13.196403
47.79347 -86.991371 13.072595
34.580786 -95.990239 31.354737
35.401596 -95.97918 32.117983
34.757742 -95.002926 33.034388
34.345251 -97.050011 29.73923
34.580786 -95.990239 31.354737
51.911335 -75.783154 20.923411
52.323731 -74.79963 20.852772
52.137822 -75.32388 22.161794
47.9515 -84.458905 40.168186
48.700081 -83.337627 40.087395
44.902975 -94.957829 19.589738
45.369547 -93.710331 19.945868
45.006767 -94.316352 21.134246
44.902975 -94.957829 19.589738
44.410027 -96.205475 19.202656
36.196272 -88.136677 45.06007
36.891393 -89.009209 44.316195
35.434031 -88.165325 44.450015
36.196272 -88.136677 45.06007
35.493306 -87.163322 45.865233
30.854846 -85.777241 44.056676
31.659252 -85.881623 44.454323
30.798896 -86.678704 42.482943
30.854846 -85.777241 44.056676
31.543512 -87.712559 41.303613
30.798896 -86.678704 42.482943
54.349907 -68.674607 19.211871
54.212103 -69.125943 20.445957
54.398871 -69.1689 18.072575
54.349907 -68.674607 19.211871
53.933101 -72.384598 14.569274
53.515011 -72.850975 15.788582
53.933101 -72.384598 14.569274
54.068047 -72.811359 13.381718
50.669418 -79.554417 10.938069
51.225087 -78.478741 10.942949
50.680012 -79.06749 12.156944
50.669418 -79.554417 10.938069
50.122143 -80.68211 10.911799
50.957918 -79.969207 31.752034
51.491494 -78.857772 31.617342
50.571789 -80.627724 30.470059
50.957918 -79.969207 31.752034
50.422961 -81.10392 31.85783
46.906465 -89.696937 15.34063
46.609033 -91.047702 15.112313
36.210567 -99.553627 27.050193
36.820131 -100.168182 26.15595
37.088445 -99.22258 27.76787
35.598517 -98.796776 27.935904
35.851761 -97.787259 29.550223
34.971395 -97.97601 28.824014
36.210567 -99.553627 27.050193
35.598517 -98.796776 27.935904
53.263039 -72.428993 19.462926
53.0835 -72.89397 20.731237
53.219078 -72.887005 18.256781
53.263039 -72.428993 19.462926
52.510543 -74.310127 19.564067
52.73703 -73.850853 20.802451
52.323731 -74.79963 20.852772
53.096401 -73.333634 17.028949
53.219078 -72.887005 18.256781
52.801166 -73.80798 18.285915
53.097099 -73.77195 15.817716
53.515011 -72.850975 15.788582
53.096401 -73.333634 17.028949
49.733608 -82.436004 36.028391
49.435505 -82.772068 37.39995
49.366684 -83.174095 34.749931
50.006832 -82.014457 34.640051
49.733608 -82.436004 36.028391
45.666958 -93.053368 18.710601
45.77075 -92.411892 20.255109
45.369547 -93.710331 19.945868
46.004292 -92.401608 17.522507
45.666958 -93.053368 18.710601
46.282449 -91.717258 16.292334
46.346319 -91.07058 17.789669
46.004292 -92.401608 17.522507
46.609033 -91.047702 15.112313
46.282449 -91.717258 16.292334
52.030293 -75.825192 23.47741
52.137822 -75.32388 22.161794
51.608421 -76.84586 23.566977
52.030293 -75.825192 23.47741
51.913288 -76.363647 24.811954
45.444263 -86.870884 42.62147
46.246639 -85.846981 42.677311
45.704551 -85.8498 43.844611
42.289265 -99.407425 20.528125
42.74864 -98.9897 19.408715
42.964819 -98.328225 21.02355
41.567667 -100.360786 19.974601
42.289265 -99.407425 20.528125
41.783846 -99.69931 21.589436
40.764963 -101.339009 19.452463
41.567667 -100.360786 19.974601
40.228771 -101.487991 20.460929
40.529632 -100.751869 22.056377
39.696156 -101.587189 21.481394
40.764963 -101.339009 19.452463
40.228771 -101.487991 20.460929
38.003799 -101.087459 24.339027
38.285972 -100.213699 25.94746
37.415836 -100.710895 25.265193
37.709665 -101.888672 22.735716
38.579802 -101.391475 23.417983
38.003799 -101.087459 24.339027
37.334023 -102.764767 21.222197
37.709665 -101.888672 22.735716
37.899795 -102.991753 20.298047
37.334023 -102.764767 21.222197
45.133864 -85.78307 44.929994
45.704551 -85.8498 43.844611
44.305441 -86.71114 44.824084
45.133864 -85.78307 44.929994
43.511366 -87.644661 44.630322
44.108101 -87.807225 43.595007
44.305441 -86.71114 44.824084
42.69836 -88.454583 44.378353
43.511366 -87.644661 44.630322
41.923731 -89.25272 44.025602
42.539396 -89.538883 43.048495
42.69836 -88.454583 44.378353
41.135294 -89.903424 43.614515
41.923731 -89.25272 44.025602
40.382745 -90.527195 43.099075
41.012219 -90.960792 42.180304
41.135294 -89.903424 43.614515
39.619423 -90.98909 42.535505
40.382745 -90.527195 43.099075
38.882981 -91.415672 41.875211
39.523228 -92.011146 41.00457
39.619423 -90.98909 42.535505
38.136648 -91.681015 41.188709
38.882981 -91.415672 41.875211
38.232844 -90.658958 42.719645
36.811754 -90.03149 42.838997
37.56615 -89.902019 43.51034
36.891393 -89.009209 44.316195
34.369058 -92.001259 37.296213
35.041383 -93.013161 36.405029
35.14991 -92.032204 38.083635
33.998078 -86.194549 46.099335
34.768275 -86.226307 46.6041
33.962757 -87.108986 44.642375
33.998078 -86.194549 46.099335
33.229771 -86.111565 45.486532
32.405597 -86.898953 43.47534
32.448106 -86.008671 45.008555
31.659252 -85.881623 44.454323
33.686159 -90.922802 38.266691
33.778019 -89.953896 39.918871
32.986593 -89.856395 39.210743
34.369058 -92.001259 37.296213
33.686159 -90.922802 38.266691
53.86907 -70.561252 19.352227
53.972894 -70.078194 20.542191
54.155209 -70.102013 18.115237
53.86907 -70.561252 19.352227
54.398871 -69.1689 18.072575
54.155209 -70.102013 18.115237
53.088415 -75.489449 10.973616
53.670891 -74.55637 10.976889
53.011343 -75.073017 12.163309
53.088415 -75.489449 10.973616
52.443843 -76.450672 10.957095
51.84725 -77.443531 10.957989
51.225087 -78.478741 10.942949
51.590151 -78.405601 30.242126
51.491494 -78.857772 31.617342
51.692806 -77.888611 28.867173
51.590151 -78.405601 30.242126
51.209402 -78.976021 28.989309
51.757446 -77.40271 27.507515
51.692806 -77.888611 28.867173
51.401737 -77.921672 26.257939
51.847126 -76.865353 26.151097
51.757446 -77.40271 27.507515
46.752277 -85.768872 41.464008
46.246639 -85.846981 42.677311
47.230854 -85.610279 40.1947
46.752277 -85.768872 41.464008
46.464928 -86.709473 40.184862
47.66415 -85.399506 38.88904
47.9515 -84.458905 40.168186
47.230854 -85.610279 40.1947
47.220883 -88.365173 15.52653
46.938894 -89.054466 16.745396
46.906465 -89.696937 15.34063
47.515242 -87.032806 15.67923
47.220883 -88.365173 15.52653
47.482813 -87.675278 14.274464
48.44115 -84.385491 13.281727
48.121252 -85.060547 14.512488
48.097071 -85.667855 13.196403
48.796356 -83.736664 12.032315
48.820538 -83.129357 13.348399
48.44115 -84.385491 13.281727
49.203567 -83.074292 10.830666
48.796356 -83.736664 12.032315
43.232218 -98.554314 18.319697
42.74864 -98.9897 19.408715
3 128 34 129
3 130 129 32
3 128 129 130
3 132 131 34
3 0 38 36
3 0 40 38
3 1 43 41
3 1 133 135
3 135 134 43
3 133 134 135
3 1 136 137
3 2 46 44
3 4 49 47
3 4 51 49
3 4 53 51
3 138 55 139
3 140 57 141
3 5 142 144
3 144 143 58
3 142 143 144
3 5 145 146
3 5 147 148
3 6 149 151
3 151 150 59
3 149 150 151
3 6 152 153
3 7 154 155
3 7 156 158
3 156 61 157
3 156 157 158
3 3 64 62
3 8 67 65
3 8 69 67
3 8 71 69
3 9 74 72
3 11 75 33
3 11 76 75
3 11 78 76
3 160 159 35
3 161 79 162
3 12 80 37
3 12 81 80
3 12 83 81
3 14 84 39
3 14 85 84
3 15 163 164
3 15 165 167
3 165 86 166
3 165 166 167
3 16 89 87
3 18 90 42
3 18 91 90
3 18 93 91
3 168 94 169
3 20 97 95
3 22 98 45
3 22 99 98
3 10 100 73
3 23 101 48
3 23 102 101
3 23 103 102
3 24 104 50
3 24 105 104
3 24 106 105
3 25 170 172
3 172 171 52
3 170 171 172
3 25 173 174
3 176 175 77
3 177 107 178
3 26 108 54
3 26 109 108
3 179 110 180
3 181 111 182
3 183 182 56
3 181 182 183
3 185 184 111
3 13 186 188
3 188 187 82
3 186 187 188
3 27 112 60
3 27 113 112
3 21 114 96
3 28 115 63
3 28 116 115
3 17 117 88
3 29 118 66
3 29 119 118
3 29 120 119
3 30 121 68
3 30 122 121
3 30 123 122
3 31 124 70
3 31 125 124
3 19 126 92
3 189 127 190
3 192 191 127
3 32 33 9
3 34 33 32
3 34 11 33
3 34 35 11
3 193 35 194
3 195 194 34
3 193 194 195
3 197 196 35
3 36 198 200
3 198 37 199
3 198 199 200
3 38 37 36
3 38 12 37
3 38 39 12
3 40 39 38
3 40 14 39
3 201 15 202
3 41 42 16
3 43 42 41
3 43 18 42
3 43 203 205
3 205 204 18
3 203 204 205
3 207 206 43
3 44 45 20
3 46 45 44
3 46 22 45
3 47 48 10
3 49 48 47
3 49 23 48
3 49 50 23
3 51 50 49
3 51 24 50
3 51 52 24
3 53 52 51
3 53 25 52
3 208 54 209
3 55 210 212
3 210 54 211
3 210 211 212
3 55 26 54
3 213 56 214
3 215 56 216
3 218 217 56
3 57 219 220
3 57 221 222
3 58 223 224
3 226 225 58
3 59 227 229
3 229 228 13
3 227 228 229
3 231 230 59
3 232 60 233
3 61 234 236
3 234 60 235
3 234 235 236
3 61 27 60
3 62 63 21
3 64 63 62
3 64 28 63
3 65 66 17
3 67 66 65
3 67 29 66
3 67 68 29
3 69 68 67
3 69 30 68
3 69 70 30
3 71 70 69
3 71 31 70
3 238 237 19
3 72 73 2
3 74 73 72
3 74 10 73
3 33 74 9
3 75 74 33
3 75 10 74
3 75 47 10
3 76 47 75
3 76 4 47
3 76 77 4
3 78 77 76
3 78 239 241
3 241 240 77
3 239 240 241
3 35 78 11
3 242 78 243
3 244 243 35
3 242 243 244
3 246 245 78
3 79 247 248
3 79 249 250
3 37 251 253
3 251 79 252
3 251 252 253
3 80 79 37
3 80 254 256
3 256 255 79
3 254 255 256
3 80 257 259
3 257 58 258
3 257 258 259
3 81 58 80
3 81 5 58
3 81 82 5
3 83 82 81
3 83 13 82
3 39 83 12
3 84 83 39
3 84 13 83
3 84 59 13
3 85 59 84
3 85 6 59
3 86 260 261
3 86 262 264
3 262 7 263
3 262 263 264
3 87 88 3
3 89 88 87
3 89 17 88
3 42 89 16
3 90 89 42
3 90 17 89
3 90 65 17
3 91 65 90
3 91 8 65
3 91 92 8
3 93 92 91
3 93 19 92
3 265 93 266
3 267 266 18
3 265 266 267
3 268 93 269
3 270 19 271
3 272 271 93
3 270 271 272
3 274 273 19
3 275 36 276
3 94 277 279
3 277 36 278
3 277 278 279
3 94 0 36
3 95 280 282
3 280 96 281
3 280 281 282
3 97 96 95
3 97 21 96
3 45 97 20
3 98 97 45
3 98 21 97
3 98 62 21
3 99 62 98
3 99 3 62
3 73 46 2
3 100 46 73
3 100 22 46
3 48 100 10
3 101 100 48
3 101 22 100
3 101 99 22
3 102 99 101
3 102 3 99
3 102 87 3
3 103 87 102
3 103 16 87
3 50 103 23
3 104 103 50
3 104 16 103
3 104 41 16
3 105 41 104
3 105 1 41
3 105 283 285
3 285 284 1
3 283 284 285
3 106 286 288
3 288 287 105
3 286 287 288
3 106 289 290
3 52 106 24
3 291 106 292
3 293 292 52
3 291 292 293
3 295 294 106
3 77 53 4
3 296 53 297
3 298 297 77
3 296 297 298
3 299 25 300
3 301 300 53
3 299 300 301
3 302 25 303
3 305 304 25
3 306 95 307
3 308 95 309
3 310 20 311
3 312 311 95
3 310 311 312
3 313 20 314
3 315 44 316
3 317 316 20
3 315 316 317
3 318 44 319
3 320 2 321
3 322 321 44
3 320 321 322
3 323 2 324
3 325 72 326
3 327 326 2
3 325 326 327
3 107 328 330
3 328 72 329
3 328 329 330
3 107 9 72
3 54 331 333
3 331 107 332
3 331 332 333
3 108 107 54
3 108 9 107
3 108 32 9
3 109 32 108
3 109 334 336
3 336 335 32
3 334 335 336
3 337 55 338
3 110 339 341
3 339 55 340
3 339 340 341
3 110 26 55
3 56 342 344
3 342 110 343
3 342 343 344
3 111 110 56
3 111 26 110
3 111 109 26
3 345 109 346
3 347 346 111
3 345 346 347
3 349 348 109
3 350 57 351
3 352 57 353
3 355 354 57
3 82 356 358
3 358 357 5
3 356 357 358
3 360 359 82
3 362 361 13
3 60 363 364
3 112 365 367
3 367 366 60
3 365 366 367
3 112 368 369
3 112 370 372
3 370 94 371
3 370 371 372
3 113 94 112
3 113 0 94
3 96 373 374
3 114 375 377
3 377 376 96
3 375 376 377
3 114 378 380
3 378 15 379
3 378 379 380
3 63 114 21
3 115 114 63
3 115 15 114
3 115 86 15
3 116 86 115
3 116 7 86
3 88 64 3
3 117 64 88
3 117 28 64
3 66 117 17
3 118 117 66
3 118 28 117
3 118 116 28
3 119 116 118
3 119 7 116
3 119 61 7
3 120 61 119
3 120 27 61
3 68 120 29
3 121 120 68
3 121 27 120
3 121 113 27
3 122 113 121
3 122 0 113
3 122 40 0
3 123 40 122
3 123 14 40
3 70 123 30
3 124 123 70
3 124 14 123
3 124 85 14
3 125 85 124
3 125 6 85
3 92 71 8
3 126 71 92
3 126 31 71
3 381 126 382
3 383 382 19
3 381 382 383
3 127 384 386
3 384 126 385
3 384 385 386
3 127 31 126
3 127 125 31
3 387 125 388
3 389 388 127
3 387 388 389
3 390 6 391
3 392 391 125
3 390 391 392
3 394 393 6
3 396 395 1
