ply
format ascii 1.0
element vertex 923
property float x
property float y
property float z
element face 1171
property list uchar int vertex_index
end_header
-64.629013 -24.938894 -12.7575
-62.315884 -17.907198 -43.59761
-64.425568 -44.320827 -14.268452
-67.995499 -45.98307 -27.300617
-65.86235 -19.380661 -28.043343
-59.159092 6.019045 -37.769821
-62.414448 -33.423592 -14.541996
-65.444244 -32.565613 -21.818504
-63.001595 -22.489141 -19.99498
-64.020142 -50.350029 0.683265
-62.006313 -0.024712 -25.732609
-44.140678 17.083576 -50.972939
-66.460739 -32.053951 -35.222004
-67.32251 -55.998566 -11.840799
-68.88221 -44.673256 -20.708767
-69.176323 -31.28429 -28.317932
-66.801224 -17.291466 -35.666943
-65.449791 -16.288424 -13.854515
-66.594696 -32.439659 -7.178049
-63.194962 -53.434086 -5.876457
-63.482162 -42.669312 -7.248564
-63.519894 -10.819081 -23.42971
-63.60701 -6.207873 -33.618492
-61.070885 -3.822349 -43.191689
-52.978157 14.701408 -40.266769
-52.854301 8.579321 -48.775024
-54.461662 -4.440782 -51.686432
-63.250572 -28.555046 -13.7679
-62.499809 -28.126354 -17.56715
-63.330482 -23.838373 -15.952736
-64.794144 -24.935043 -39.32069
-66.253845 -50.0471 -13.234179
-68.285942 -50.636299 -16.375706
-66.927498 -44.541172 -17.516312
-65.90892 -26.036663 -25.041111
-67.950989 -31.779915 -25.09071
-67.902664 -24.919945 -28.465
-68.417343 -24.260529 -31.915455
-67.064713 -18.034071 -31.832405
-63.492458 -59.046001 -4.493874
-61.785309 -57.082909 -1.631521
-66.365227 -45.563507 0.203606
-63.969345 -46.635719 -3.34318
-65.803757 -41.584175 -3.626156
-64.877808 -37.447643 -7.307131
-67.593544 -36.688213 -3.758776
-64.169724 -13.421401 -18.396557
-63.924774 -8.336883 -19.134686
-60.84034 3.309713 -31.78643
-62.414696 -2.306402 -30.351856
-61.608974 0.122282 -35.935596
-62.959557 -4.601203 -38.480648
-59.970253 1.82518 -41.293442
-52.793762 13.101376 -35.176197
-49.482395 16.460903 -40.992039
-48.391716 13.639507 -50.336632
-48.527985 8.2805 -53.317184
-53.474503 2.486261 -50.97081
-49.395569 1.723694 -54.740509
-68.009338 -52.381031 -23.018612
-62.866066 -38.767673 -14.731834
-64.869873 -38.736855 -18.229
-63.105072 -33.22155 -18.300228
-63.630116 -27.215942 -21.419472
-64.094597 -20.965462 -24.115128
-61.765038 -55.224854 1.504417
-63.562416 -53.941788 4.930567
-63.043018 -3.777421 -19.855343
-60.378292 4.234814 -26.791424
-58.732956 8.051405 -32.990795
-45.207684 18.2929 -46.279846
-40.440544 18.335308 -50.48185
-67.497253 -39.13784 -31.28994
-65.573318 -47.107933 -30.464642
-68.241028 -57.011356 -15.042976
-68.954857 -51.332954 -19.65324
-69.270325 -45.10334 -23.97683
-67.514015 -38.400284 -21.491867
-69.238052 -38.167152 -24.669392
-69.184593 -38.390358 -27.931095
-68.539368 -31.378479 -31.695808
-67.185852 -24.298685 -35.559074
-65.020515 -17.31566 -39.643265
-66.607544 -23.921135 -10.081797
-65.158791 -20.961359 -13.381517
-67.758636 -27.79546 -7.049839
-65.474945 -28.293432 -10.306019
-65.649857 -60.727791 -7.315315
-65.222786 -54.880554 -8.848652
-63.985153 -49.209045 -10.096088
-62.634563 -51.786823 -2.71624
-62.962227 -47.993534 -6.808855
-62.920475 -43.69492 -10.841192
-62.834599 -38.289272 -11.030058
-63.889328 -33.079502 -10.765882
-63.859512 -18.704556 -17.398903
-63.472095 -16.656307 -21.907524
-64.10614 -14.646074 -26.489304
-63.030247 -5.179172 -24.665237
-63.521683 -8.379034 -28.581745
-65.077255 -12.743851 -30.927338
-65.375046 -11.243785 -35.23521
-64.324509 -10.470867 -39.518181
-61.973091 -10.494195 -43.799828
-56.024059 11.427406 -34.122818
-56.262276 11.066013 -39.175217
-48.903713 16.664906 -46.041458
-52.764381 12.992882 -45.070972
-56.525139 7.834194 -43.497143
-57.178104 2.599318 -46.35743
-58.065136 -3.861901 -47.699554
-58.861206 -11.044159 -47.838993
-63.963879 -26.489389 -13.245298
-63.193733 -26.243145 -14.975481
-63.953655 -24.438416 -14.156855
-63.669533 -21.404732 -41.445774
-62.227036 -21.806192 -43.265285
-65.372147 -47.158966 -13.812176
-66.612579 -47.378059 -15.401529
-65.650803 -44.467316 -15.909319
-65.970825 -22.713161 -26.559917
-67.032532 -25.445202 -26.765301
-66.920303 -22.048021 -28.358578
-67.592484 -21.470362 -30.140793
-66.607269 -18.653399 -29.944016
-66.14254 -43.585415 -1.730598
-67.136047 -41.166885 -1.85487
-66.754402 -39.108292 -3.698912
-67.967911 -38.800186 -1.970167
-64.495361 -10.020497 -16.54393
-64.106644 -7.8087 -16.789417
-60.095428 4.759466 -34.799259
-61.144386 1.947392 -34.033058
-60.439957 3.146149 -36.913288
-60.926624 1.081751 -38.646858
-59.50592 4.141405 -39.732224
-46.297989 7.79414 -55.178871
-48.882454 5.090654 -54.22979
-68.059517 -49.247879 -25.203838
-67.039612 -53.016624 -24.659386
-67.023621 -49.842628 -26.830135
-62.470806 -36.059566 -14.718212
-62.939949 -36.064705 -16.567398
-62.489048 -33.391521 -16.440083
-62.72221 -25.343307 -18.853752
-62.849468 -27.719837 -19.511242
-63.127083 -24.759361 -20.850872
-63.898022 -24.108728 -22.813759
-63.395901 -21.746202 -22.071037
-59.298615 5.892847 -27.368229
-59.639042 6.225399 -29.878307
-58.480156 8.006933 -30.446926
-67.050034 -35.611565 -33.245628
-65.76207 -36.089733 -34.940334
-67.31897 -59.049507 -11.098278
-67.664764 -59.638866 -12.701382
-67.977341 -56.496422 -13.410839
-68.614212 -47.728287 -18.58186
-68.827301 -50.94923 -17.995041
-69.099747 -47.960823 -20.206783
-69.156708 -48.2854 -21.861935
-69.298996 -44.833313 -22.329811
-65.148026 -35.711914 -20.074612
-66.217125 -38.583214 -19.883339
-66.512589 -35.426132 -21.727104
-68.786377 -31.471527 -26.694752
-68.733414 -34.896656 -24.921062
-69.277779 -34.75843 -26.518623
-69.445908 -38.20911 -26.28389
-69.343361 -34.756706 -28.1478
-68.942574 -34.906933 -29.818211
-69.083092 -31.249731 -29.982094
-67.719543 -20.760845 -33.768532
-67.996178 -24.189823 -33.710526
-67.141609 -20.683388 -35.649982
-66.210167 -20.789057 -37.576969
-66.071091 -17.211832 -37.639633
-66.836182 -21.763218 -10.080647
-67.224831 -25.772343 -8.567019
-63.389526 -56.218769 -5.231443
-64.45961 -57.047207 -6.665546
-64.103134 -54.199703 -7.375389
-64.646004 -52.020649 -9.525066
-63.655964 -51.399124 -7.986694
-62.861214 -52.77404 1.042043
-62.268284 -53.542358 -0.63028
-63.110767 -51.013786 -1.042498
-63.767471 -44.694778 -5.307777
-63.21669 -47.306683 -5.094265
-63.10355 -45.320503 -7.086136
-62.967529 -45.917076 -8.83399
-62.924278 -43.216812 -9.058735
-62.726162 -40.97731 -11.002035
-63.154716 -40.538883 -9.160835
-65.750198 -34.90641 -7.252819
-64.367096 -35.291458 -9.074648
-65.199203 -32.764156 -8.940071
-64.677582 -30.619356 -10.536432
-66.029892 -30.332703 -8.788824
-65.368828 -18.635441 -13.649317
-64.435677 -19.786037 -15.301596
-64.652466 -17.300026 -15.712763
-63.749615 -12.097436 -20.876461
-63.697754 -14.874787 -20.292969
-63.561775 -13.72648 -22.710735
-63.689129 -15.648048 -24.209141
-63.64587 -12.600513 -25.148834
-62.528736 -1.856922 -22.752865
-63.05426 -4.204913 -22.304028
-62.586819 -2.517942 -25.210865
-62.899143 -4.095563 -32.194756
-63.027149 -5.30574 -29.510139
-63.605469 -7.24404 -31.121632
-64.183128 -10.44025 -29.960926
-64.417442 -9.458454 -32.307919
-65.367447 -11.920365 -33.091095
-64.471054 -8.59734 -34.616463
-62.177464 -4.100964 -40.854282
-63.689804 -7.405167 -39.154308
-62.787544 -7.123878 -41.398598
-63.282421 -10.393317 -41.665871
-61.575668 -7.049277 -43.623123
-52.990067 14.312347 -37.705864
-54.46138 12.482849 -34.672409
-54.637177 13.208069 -37.214088
-56.187256 11.648243 -36.675358
-54.660225 13.095806 -39.756882
-44.648117 18.09391 -48.733246
-47.018677 17.753281 -46.270485
-46.574516 17.07476 -48.6437
-50.61919 11.265163 -49.666008
-50.661724 13.481548 -47.806446
-52.745361 11.06085 -47.099369
-54.672604 10.556725 -44.359955
-54.804417 8.343845 -46.206898
-56.804321 5.412336 -45.128674
-55.053722 5.667601 -47.669212
-53.941578 -0.91128 -51.50515
-55.837685 -0.640787 -49.43515
-56.304928 -4.106077 -49.791916
-58.494553 -7.385213 -47.90041
-56.767338 -7.701441 -49.837395
-54.983929 -8.055757 -51.526512
-62.694408 -30.90086 -14.216389
-62.38847 -30.823383 -16.127335
-62.64085 -28.413363 -15.634607
-62.749493 -25.844358 -16.871906
-62.981705 -23.186859 -17.932465
-65.715759 -28.489033 -37.243832
-65.134918 -32.515965 -36.959446
-66.940704 -52.993393 -12.565115
-67.869812 -53.393738 -14.118553
-67.388367 -50.352226 -14.793518
-67.748337 -47.550697 -16.984711
-68.0578 -44.591782 -19.109283
-65.715897 -29.329967 -23.468037
-66.780205 -32.162716 -23.475571
-66.971077 -28.825432 -25.146324
-68.010986 -28.364691 -26.790684
-68.68309 -28.000162 -28.433716
-68.898193 -27.775684 -30.105507
-68.386963 -24.511452 -30.172459
-67.87532 -21.028885 -31.936184
-67.140831 -17.569147 -33.73373
-62.574295 -55.325336 -3.762297
-65.208557 -47.946468 0.411654
-64.058685 -48.514252 -1.35009
-65.088348 -46.037811 -1.571356
-64.846542 -44.097122 -3.516249
-64.503342 -42.10495 -5.430664
-64.091324 -40.041447 -7.314442
-65.371078 -39.543018 -5.486494
-66.282066 -37.023254 -5.500645
-67.127243 -34.565872 -5.497042
-65.365707 -13.988445 -14.006876
-64.756157 -14.809889 -16.040709
-64.709778 -12.368549 -16.307261
-64.124985 -10.83491 -18.784184
-63.662216 -9.369496 -21.390881
-61.457581 1.704935 -28.754955
-62.146343 -0.916388 -28.157417
-61.687832 0.581476 -31.107479
-62.077484 -1.019938 -33.166878
-62.666397 -3.006784 -34.834209
-63.420086 -5.313255 -36.070301
-62.234112 -2.080227 -37.421791
-61.528797 -1.352953 -39.955948
-60.513317 -0.84934 -42.435905
-51.275955 14.94836 -38.117126
-51.241882 15.82996 -40.690434
-43.784794 15.33971 -52.934303
-46.217255 15.608425 -50.778305
-46.027615 13.471779 -52.608444
-48.3624 11.177307 -52.013084
-50.73748 8.551167 -51.16201
-53.101982 5.681635 -50.06588
-51.020859 5.479126 -52.272987
-51.449738 2.16889 -52.996323
-51.986748 -1.287546 -53.33577
-52.580605 -4.827974 -53.29364
-50.018478 -1.73741 -54.840424
-67.847694 -55.373024 -20.751789
-65.771774 -56.745396 -23.987484
-63.549141 -41.52441 -14.579891
-64.630768 -41.612839 -16.287642
-63.686062 -38.810585 -16.512861
-63.887905 -35.93943 -18.356483
-64.149338 -32.934368 -20.096252
-62.621914 -30.604675 -18.041405
-63.347797 -30.262699 -19.917938
-64.439728 -29.825006 -21.729321
-64.709732 -26.642433 -23.264278
-64.90316 -23.415077 -24.717293
-64.970108 -20.166067 -26.105797
-60.737831 -57.710304 2.07709
-62.484386 -54.490456 3.187652
-63.851601 -52.157101 2.77204
-65.063278 -51.71957 4.543263
-65.199203 -49.837997 2.445314
-66.460709 -47.532715 2.185753
-61.844105 0.265778 -23.229988
-61.275826 2.245157 -26.252125
-60.627342 4.105623 -29.321011
-59.859676 5.820797 -32.406635
-58.922409 7.358265 -35.481331
-45.703365 17.689014 -43.681526
-43.49955 18.309086 -46.016354
-42.846081 18.544708 -48.551102
-42.203362 18.000195 -50.888687
-39.769547 17.477493 -52.674393
-41.683792 16.694698 -52.967827
-67.810364 -42.60463 -29.320229
-66.88855 -46.538994 -28.922295
-67.601059 -60.254936 -14.367363
-68.46489 -53.794949 -15.719429
-68.657967 -54.241875 -17.370483
-68.44043 -54.765278 -19.057796
-68.668442 -51.810764 -21.336975
-68.793602 -48.717651 -23.535892
-68.815804 -45.491936 -25.641048
-65.926865 -41.604424 -17.940441
-67.226593 -41.543419 -19.55212
-68.333664 -41.484047 -21.143932
-67.768906 -35.135777 -23.333363
-68.568497 -38.244148 -23.078712
-69.095535 -41.480446 -22.738434
-69.421234 -41.57663 -24.353039
-69.286209 -41.798256 -25.99461
-68.724625 -42.147911 -27.656925
-68.505592 -38.708336 -29.6063
-68.144653 -35.201714 -31.524818
-67.629425 -31.657995 -33.451454
-68.639877 -27.718597 -31.826073
-67.95829 -27.834282 -33.601089
-66.947464 -28.104343 -35.418308
-66.083984 -24.562185 -37.442955
-65.021072 -21.046198 -39.525173
-63.740196 -17.565208 -41.647728
-65.546501 -24.414515 -11.568121
-64.879158 -23.154484 -13.064585
-65.91098 -22.313971 -11.657475
-66.126045 -20.108778 -11.776525
-66.170334 -17.885715 -11.866533
-68.216118 -34.34668 -3.823967
-67.796486 -32.192719 -5.494188
-68.198517 -29.922867 -5.500408
-67.295853 -30.066042 -7.10598
-66.737061 -28.006254 -8.656792
-66.147232 -26.083206 -10.142834
-64.981766 -26.416012 -11.679747
-66.596008 -58.44627 -9.567789
-64.610497 -59.932594 -5.89003
-65.591705 -57.788155 -8.099199
-66.357307 -55.473011 -10.327116
-65.806938 -52.547428 -11.042345
-65.053322 -49.675735 -11.675966
-64.225266 -46.852402 -12.196264
-61.522564 -56.108246 -0.104029
-62.171333 -54.413128 -2.2325
-62.669235 -52.613251 -4.327616
-63.226707 -49.197289 -3.082842
-62.861275 -49.943352 -4.77129
-63.018597 -50.694733 -6.405901
-63.239986 -48.641586 -8.476654
-63.370304 -46.437183 -10.538811
-63.457047 -44.06736 -12.580219
-62.870949 -41.313301 -12.814766
-62.559929 -38.591549 -12.896872
-62.572941 -35.915825 -12.833248
-63.653805 -37.891182 -9.158104
-63.241219 -35.647465 -10.942663
-62.905689 -33.313988 -12.640343
-63.498829 -30.828259 -12.346319
-64.242111 -28.512901 -11.997948
-64.169083 -22.197065 -14.792124
-63.586151 -21.315094 -16.744171
-63.265343 -20.452486 -18.840298
-64.071518 -16.057928 -17.942776
-63.523945 -17.670467 -19.620445
-63.271534 -19.585243 -21.007206
-63.597912 -18.702494 -23.186157
-64.173203 -17.806044 -25.337418
-64.877411 -16.912582 -27.4422
-63.565071 -5.968853 -19.480698
-63.430752 -6.725113 -21.858566
-63.341797 -7.959531 -24.076767
-62.707607 -3.701573 -27.508804
-63.147549 -6.601707 -26.795532
-63.463181 -9.577789 -26.010067
-63.886234 -11.498916 -27.572308
-64.61293 -13.667123 -28.729599
-65.564171 -16.054102 -29.500462
-66.086304 -15.274611 -31.525444
-66.320847 -14.622882 -33.537033
-66.188858 -14.142335 -35.555191
-64.247665 -7.901419 -36.895363
-65.032837 -10.753476 -37.374359
-65.666527 -13.860441 -37.594051
-64.783669 -13.781185 -39.656872
-63.60891 -13.883307 -41.730518
-62.226852 -14.124495 -43.779556
-55.654434 10.390615 -31.639843
-57.148098 9.403891 -31.036713
-57.453259 9.938442 -33.559509
-57.619312 9.677475 -36.100399
-57.76545 8.682198 -38.517895
-47.442825 17.589317 -43.73634
-49.237385 16.98975 -43.567024
-51.056351 15.865482 -43.228638
-48.591644 15.515179 -48.325459
-50.830315 15.056618 -45.633801
-52.868031 14.242691 -42.759674
-54.642242 12.181087 -42.178974
-56.352531 9.757856 -41.487823
-57.978378 7.053513 -40.676472
-58.297386 4.902822 -42.475887
-58.715458 2.332071 -43.867886
-59.193329 -0.575005 -44.856247
-55.408005 2.641378 -48.738358
-57.612419 -0.515625 -47.200558
-59.678253 -3.753078 -45.482681
-60.119507 -7.151313 -45.80555
-60.475761 -10.728778 -45.879581
-61.562247 -18.095533 -44.505302
-61.517822 -20.045029 -44.33914
-62.27146 -19.856695 -43.431448
-67.684509 -41.035988 -0.993872
-67.270874 -42.188629 -0.911722
-68.100441 -39.852638 -1.051521
-67.551979 -39.983536 -1.912519
-67.684509 -41.035988 -0.993872
-64.051964 -7.831397 -15.637344
-64.374344 -8.768097 -15.533793
-45.203102 7.456583 -55.92884
-45.027822 8.998698 -55.501228
-46.523026 6.170203 -55.521504
-45.203102 7.456583 -55.92884
-58.664482 6.537027 -27.679039
-58.997246 5.346524 -26.187632
-58.255253 7.59407 -29.218387
-58.889386 6.94989 -28.907578
-58.664482 6.537027 -27.679039
-64.575783 -26.934657 -39.170731
-65.036591 -28.711652 -38.132301
-65.254952 -26.712038 -38.282261
-62.137064 -57.582619 -2.359058
-61.595653 -58.438555 -1.278674
-62.179802 -56.204122 -2.696909
-62.531557 -56.703833 -3.424446
-62.137064 -57.582619 -2.359058
-64.904102 -12.077579 -15.220813
-65.037743 -13.178497 -15.157069
-65.232067 -12.887528 -14.070621
-50.379175 15.704631 -39.554582
-50.402546 15.04832 -38.254129
-49.505766 15.804592 -39.691586
-44.837561 13.23303 -53.586551
-44.906205 14.405745 -52.771373
-43.71615 14.166996 -53.749481
-48.445193 9.728904 -52.665134
-47.206762 10.996279 -53.049545
-47.289555 9.547876 -53.701595
-67.473548 -54.213881 -22.714733
-67.392727 -55.709877 -21.581322
-67.928516 -53.877027 -21.8852
-65.797828 -55.208008 -25.101149
-66.405693 -54.88101 -24.323435
-66.431748 -53.343622 -25.4371
-65.086914 -57.080431 -24.711859
-65.797828 -55.208008 -25.101149
-63.023401 -54.216122 4.059109
-62.241378 -55.329657 4.298058
-62.780394 -55.055323 5.169515
-65.745678 -50.610126 4.385587
-65.669212 -51.592436 5.442329
-65.81364 -49.66934 3.336613
-65.13124 -50.778784 3.494288
-65.745678 -50.610126 4.385587
-66.444393 -48.516699 3.206832
-65.829956 -48.685356 2.315533
-65.81364 -49.66934 3.336613
-61.663386 0.07184 -22.016149
-62.098219 -0.773362 -21.759175
-60.681954 3.172611 -25.274203
-60.158504 3.933286 -25.569891
-60.827059 3.239985 -26.521774
-61.130721 2.177782 -25.004553
-60.681954 3.172611 -25.274203
-42.705717 18.099566 -45.719548
-43.770536 17.840203 -44.677385
-41.643313 18.440008 -49.516476
-42.020872 18.500788 -48.299181
-40.818104 18.396088 -49.264555
-39.527625 16.701475 -53.622501
-38.59988 17.012325 -53.355194
-40.484747 16.310077 -53.769219
-40.726669 17.086095 -52.82111
-39.527625 16.701475 -53.622501
-41.529021 15.709653 -53.85141
-40.484747 16.310077 -53.769219
-67.065369 -41.132721 -31.120882
-67.221924 -42.866116 -30.136026
-67.653808 -40.871235 -30.305084
-64.748963 -34.548401 -36.755453
-64.429958 -32.751505 -37.777986
-68.167855 -57.295818 -15.883691
-67.84787 -58.917608 -15.545885
-67.921043 -58.633146 -14.70517
-66.481067 -19.868321 -10.927007
-66.481113 -20.935998 -10.928586
-66.836136 -20.69554 -10.079068
-66.503212 -18.756789 -10.972012
-66.14819 -18.997247 -11.821529
-66.481067 -19.868321 -10.927007
-68.375912 -33.226571 -3.862948
-68.491009 -34.331494 -3.034166
-68.166096 -32.14959 -4.698059
-68.006302 -33.2697 -4.659078
-68.375912 -33.226571 -3.862948
-67.978577 -28.859164 -6.275124
-68.237297 -28.846802 -5.50505
-68.017357 -27.783099 -6.279765
-66.047619 -61.086231 -8.059259
-65.48764 -62.197544 -6.926153
-66.122932 -59.58703 -8.441552
-66.520694 -59.945471 -9.185496
-66.047619 -61.086231 -8.059259
-64.051478 -59.489297 -5.191952
-64.005844 -60.915224 -4.793675
-63.446825 -60.471927 -4.095598
-63.304045 -4.873137 -19.668021
-63.553579 -5.873445 -18.282521
-63.292553 -4.777729 -18.469843
-53.409633 12.037593 -33.700249
-52.545227 12.149878 -33.95479
-59.78796 -12.747319 -46.790914
-60.595237 -12.589629 -45.811208
-59.668484 -10.886468 -46.859287
-58.993496 -12.925289 -47.687221
-59.78796 -12.747319 -46.790914
-52.874702 -6.622575 -53.082325
-51.634413 -5.035564 -53.907795
-65.665054 -48.779815 -29.418677
-66.32267 -48.495346 -28.647503
-66.230934 -46.823464 -29.693469
-63.534605 -23.382469 -41.286185
-64.096911 -25.147625 -40.223642
-64.231839 -23.169888 -40.383232
-62.813356 -23.583199 -42.19594
-63.534605 -23.382469 -41.286185
-62.948284 -21.605462 -42.35553
-62.087468 -23.793178 -43.020176
-62.813356 -23.583199 -42.19594
-61.478375 -22.000819 -44.078361
-62.087468 -23.793178 -43.020176
-61.478375 -22.000819 -44.078361
-61.517822 -20.045029 -44.33914
-61.312134 -57.899372 -0.548582
-61.595653 -58.438555 -1.278674
-66.77412 -43.397894 -0.849587
-66.253884 -44.574461 -0.763496
-66.885464 -44.38694 0.117516
-66.639294 -42.37615 -1.792734
-66.77412 -43.397894 -0.849587
-67.270874 -42.188629 -0.911722
-64.568703 -9.873996 -15.411049
-64.796894 -10.903554 -15.339147
-64.301003 -8.914599 -16.666674
-64.568703 -9.873996 -15.411049
-64.374344 -8.768097 -15.533793
-48.607378 16.541284 -41.053713
-49.505766 15.804592 -39.691586
-46.174557 9.304696 -54.632438
-45.027822 8.998698 -55.501228
-47.412987 8.03732 -54.248027
-47.289555 9.547876 -53.701595
-46.174557 9.304696 -54.632438
-47.815258 4.818461 -55.046963
-47.590221 6.442397 -54.70433
-46.523026 6.170203 -55.521504
-48.071815 3.134981 -55.302323
-49.139012 3.407174 -54.48515
-47.815258 4.818461 -55.046963
-48.376526 1.450789 -55.431221
-48.071815 3.134981 -55.302323
-66.423752 -51.756624 -26.522474
-66.431748 -53.343622 -25.4371
-67.031617 -51.429626 -25.74476
-63.366789 -54.821525 6.049629
-62.780394 -55.055323 5.169515
-59.618666 4.762302 -25.858294
-58.997246 5.346524 -26.187632
-59.838453 5.06383 -27.079826
-60.158504 3.933286 -25.569891
-59.618666 4.762302 -25.858294
-39.659264 18.231308 -50.094918
-40.818104 18.396088 -49.264555
-66.654316 -37.623421 -33.096325
-66.877926 -39.386558 -32.118481
-67.273643 -37.374702 -32.267784
-66.010334 -37.862505 -33.943677
-66.654316 -37.623421 -33.096325
-66.406052 -35.850649 -34.092981
-65.318924 -38.118262 -34.734335
-66.010334 -37.862505 -33.943677
-67.491867 -59.344186 -11.89983
-67.274841 -60.87767 -11.536207
-67.101944 -60.58299 -10.734656
-67.139847 -22.68797 -9.296
-66.721863 -22.842177 -10.081222
-67.025528 -23.766928 -9.296575
-67.109962 -21.645548 -9.268783
-67.139847 -22.68797 -9.296
-66.836136 -20.69554 -10.079068
-67.109962 -21.645548 -9.268783
-67.841941 -26.713149 -7.027663
-68.017357 -27.783099 -6.279765
-67.575039 -25.701591 -7.786253
-67.491733 -26.783901 -7.808429
-67.841941 -26.713149 -7.027663
-67.334171 -24.692532 -8.539186
-67.575039 -25.701591 -7.786253
-67.025528 -23.766928 -9.296575
-66.916188 -24.846739 -9.324408
-67.334171 -24.692532 -8.539186
-65.055794 -61.779074 -6.201818
-65.48764 -62.197544 -6.926153
-56.97262 -9.545839 -49.713559
-58.019554 -11.217198 -48.714358
-57.814272 -9.3728 -48.838194
-56.080916 -9.722997 -50.558117
-56.97262 -9.545839 -49.713559
-55.875634 -7.878599 -50.681953
-55.216586 -9.892402 -51.279495
-56.080916 -9.722997 -50.558117
-64.946255 -49.063696 -30.126709
-64.843345 -47.371528 -31.173588
-64.74617 -30.725118 -37.990109
-65.425339 -30.502499 -37.101639
-65.036591 -28.711652 -38.132301
-64.429958 -32.751505 -37.777986
-64.74617 -30.725118 -37.990109
-64.575783 -26.934657 -39.170731
-64.096911 -25.147625 -40.223642
-62.905399 -59.960208 -3.409099
-63.446825 -60.471927 -4.095598
-62.990639 -58.564165 -3.790234
-62.905399 -59.960208 -3.409099
-62.939172 -57.150549 -4.159019
-63.440992 -57.632385 -4.862659
-62.990639 -58.564165 -3.790234
-62.98191 -55.772053 -4.49687
-62.939172 -57.150549 -4.159019
-62.531557 -56.703833 -3.424446
-64.60257 -11.194523 -16.425596
-64.904102 -12.077579 -15.220813
-64.796894 -10.903554 -15.339147
-51.925087 13.211275 -35.376759
-52.545227 12.149878 -33.95479
-51.166184 14.134767 -36.847223
-50.402546 15.04832 -38.254129
-52.034858 14.024868 -36.646662
-51.925087 13.211275 -35.376759
-51.166184 14.134767 -36.847223
-46.03937 12.143515 -53.347225
-44.837561 13.23303 -53.586551
-47.195008 12.324543 -52.310764
-46.03937 12.143515 -53.347225
-47.206762 10.996279 -53.049545
-50.35335 -3.490282 -54.681187
-51.634413 -5.035564 -53.907795
-51.299542 -3.282692 -54.067032
-48.687981 -0.279762 -55.481178
-49.707024 -0.006858 -54.790467
-48.376526 1.450789 -55.431221
-49.041847 -1.989638 -55.387791
-48.687981 -0.279762 -55.481178
-50.35335 -3.490282 -54.681187
-49.041847 -1.989638 -55.387791
-67.281475 -57.149718 -20.426384
-67.707638 -56.797066 -19.588356
-67.281475 -57.149718 -20.426384
-67.392727 -55.709877 -21.581322
-66.988686 -54.531677 -23.53512
-67.473548 -54.213881 -22.714733
-67.524475 -52.698828 -23.838999
-66.354766 -56.396063 -23.199169
-66.988686 -54.531677 -23.53512
-66.405693 -54.88101 -24.323435
-65.68499 -58.204773 -22.844911
-66.354766 -56.396063 -23.199169
-65.019936 -58.565611 -23.584111
-65.68499 -58.204773 -22.844911
-65.019936 -58.565611 -23.584111
-65.086914 -57.080431 -24.711859
-60.292175 -58.469837 3.202762
-60.250742 -58.971914 2.41614
-60.939871 -57.277694 2.891276
-60.292175 -58.469837 3.202762
-61.453474 -56.03497 2.604939
-61.251435 -56.467579 1.790754
-60.939871 -57.277694 2.891276
-61.813148 -55.667771 3.446557
-62.241378 -55.329657 4.298058
-62.124712 -54.857655 2.346035
-61.453474 -56.03497 2.604939
-61.813148 -55.667771 3.446557
-64.187657 -53.765074 5.823539
-63.366789 -54.821525 6.049629
-64.938087 -52.653965 5.629887
-65.669212 -51.592436 5.442329
-64.312847 -52.830679 4.736915
-64.187657 -53.765074 5.823539
-64.938087 -52.653965 5.629887
-67.016221 -47.41341 3.072161
-66.444393 -48.516699 3.206832
-67.006241 -46.391562 2.075854
-67.016221 -47.41341 3.072161
-66.9585 -45.406958 1.08478
-66.412968 -46.548111 1.19468
-67.006241 -46.391562 2.075854
-66.885464 -44.38694 0.117516
-66.9585 -45.406958 1.08478
-62.921345 -3.876003 -18.660108
-63.292553 -4.777729 -18.469843
-62.697676 -2.794961 -20.071852
-62.921345 -3.876003 -18.660108
-62.440534 -1.834712 -21.520613
-62.785877 -2.817171 -21.304104
-62.697676 -2.794961 -20.071852
-62.18642 -0.795572 -22.991426
-62.440534 -1.834712 -21.520613
-62.098219 -0.773362 -21.759175
-61.41486 1.188092 -23.493485
-61.663386 0.07184 -22.016149
-61.559966 1.255467 -24.741056
-61.41486 1.188092 -23.493485
-61.130721 2.177782 -25.004553
-44.872444 17.530166 -43.509971
-45.861242 17.040468 -42.336548
-44.601457 17.99905 -44.84894
-44.872444 17.530166 -43.509971
-43.770536 17.840203 -44.677385
-42.347606 18.382976 -47.031807
-42.705717 18.099566 -45.719548
-43.172815 18.426897 -47.283728
-42.347606 18.382976 -47.031807
-42.020872 18.500788 -48.299181
-39.259844 18.004814 -51.246849
-39.659264 18.231308 -50.094918
-38.924346 17.575907 -52.34312
-38.59988 17.012325 -53.355194
-40.105046 17.906401 -51.578122
-39.259844 18.004814 -51.246849
-38.924346 17.575907 -52.34312
-42.579521 15.032159 -53.834648
-42.734293 16.017204 -52.951065
-41.529021 15.709653 -53.85141
-43.71615 14.166996 -53.749481
-42.579521 15.032159 -53.834648
-66.761017 -44.833298 -29.937059
-67.349457 -44.571812 -29.121262
-67.221924 -42.866116 -30.136026
-66.103401 -45.117767 -30.708233
-66.230934 -46.823464 -29.693469
-66.761017 -44.833298 -29.937059
-67.065369 -41.132721 -31.120882
-66.877926 -39.386558 -32.118481
-65.425812 -45.386009 -31.486319
-66.103401 -45.117767 -30.708233
-64.843345 -47.371528 -31.173588
-65.425812 -45.386009 -31.486319
-65.062538 -36.335285 -35.745897
-65.448494 -34.302849 -35.94989
-64.748963 -34.548401 -36.755453
-65.318924 -38.118262 -34.734335
-65.062538 -36.335285 -35.745897
-67.292259 -61.211486 -12.357788
-67.274841 -60.87767 -11.536207
-67.260407 -61.519521 -13.190778
-67.292259 -61.211486 -12.357788
-67.632912 -59.946901 -13.534372
-67.079956 -61.868706 -14.036796
-67.260407 -61.519521 -13.190778
-67.374882 -60.589996 -15.217163
-67.079956 -61.868706 -14.036796
-67.374882 -60.589996 -15.217163
-67.84787 -58.917608 -15.545885
-68.376324 -55.911078 -17.047445
-68.167855 -57.295818 -15.883691
-68.449498 -55.626615 -16.20673
-68.267556 -56.172779 -17.891101
-68.376324 -55.911078 -17.047445
-68.549199 -54.503577 -18.21414
-68.004006 -56.493193 -18.74136
-68.267556 -56.172779 -17.891101
-68.144062 -55.069151 -19.904792
-67.707638 -56.797066 -19.588356
-68.004006 -56.493193 -18.74136
-66.388565 -17.723726 -10.955662
-66.503212 -18.756789 -10.972012
-66.096523 -16.79983 -11.891295
-66.388565 -17.723726 -10.955662
-65.736252 -16.001185 -12.885285
-65.810063 -17.087069 -12.860524
-66.096523 -16.79983 -11.891295
-65.69421 -14.851195 -12.961466
-65.407749 -15.138434 -13.930695
-65.736252 -16.001185 -12.885285
-65.519104 -13.817699 -12.975041
-65.69421 -14.851195 -12.961466
-65.232067 -12.887528 -14.070621
-65.519104 -13.817699 -12.975041
-68.360245 -38.735965 -1.141474
-68.100441 -39.852638 -1.051521
-68.253071 -37.654342 -2.033497
-68.360245 -38.735965 -1.141474
-68.065888 -36.598356 -2.927802
-67.780727 -37.744199 -2.864472
-68.253071 -37.654342 -2.033497
-68.377174 -35.427589 -2.960397
-68.491009 -34.331494 -3.034166
-67.904831 -35.517446 -3.791372
-68.065888 -36.598356 -2.927802
-68.377174 -35.427589 -2.960397
-68.348762 -29.955088 -4.742995
-68.237297 -28.846802 -5.50505
-68.367111 -31.014664 -4.701169
-68.348762 -29.955088 -4.742995
-67.997501 -31.057793 -5.497298
-68.166096 -32.14959 -4.698059
-68.367111 -31.014664 -4.701169
-66.882175 -60.24709 -9.950741
-67.101944 -60.58299 -10.734656
-66.957489 -58.747889 -10.333033
-66.882175 -60.24709 -9.950741
-66.520694 -59.945471 -9.185496
-64.536114 -61.381476 -5.489175
-64.005844 -60.915224 -4.793675
-65.130177 -60.330193 -6.602673
-65.055794 -61.779074 -6.201818
-64.536114 -61.381476 -5.489175
-60.788395 -58.21307 1.305724
-60.250742 -58.971914 2.41614
-61.180762 -57.412041 0.215165
-60.788395 -58.21307 1.305724
-61.130198 -56.909275 0.986531
-61.653937 -56.595578 -0.867775
-61.312134 -57.899372 -0.548582
-61.180762 -57.412041 0.215165
-63.824366 -6.793368 -16.93688
-64.051964 -7.831397 -15.637344
-63.835858 -6.888777 -18.135058
-63.824366 -6.793368 -16.93688
-63.553579 -5.873445 -18.282521
-54.243443 11.72833 -33.448355
-53.409633 12.037593 -33.700249
-53.627571 12.792112 -34.924303
-54.83997 10.682213 -31.932071
-54.243443 11.72833 -33.448355
-55.057907 11.436732 -33.156126
-55.315487 9.505232 -30.471989
-54.83997 10.682213 -31.932071
-56.118118 9.237593 -30.143104
-55.315487 9.505232 -30.471989
-56.86495 8.744231 -29.841539
-56.118118 9.237593 -30.143104
-56.401266 9.897253 -31.338278
-57.589224 8.292549 -29.513281
-56.86495 8.744231 -29.841539
-57.814127 8.705412 -30.741819
-58.255253 7.59407 -29.218387
-57.589224 8.292549 -29.513281
-46.717863 17.15534 -42.398456
-45.861242 17.040468 -42.336548
-47.587593 17.105491 -42.425863
-46.717863 17.15534 -42.398456
-46.573095 17.639166 -43.708933
-48.46261 17.02511 -42.364189
-48.607378 16.541284 -41.053713
-47.587593 17.105491 -42.425863
-61.470783 -14.287488 -44.761196
-61.351306 -12.426637 -44.829569
-60.595237 -12.589629 -45.811208
-61.515299 -16.178839 -44.670223
-62.271368 -16.015847 -43.688583
-61.470783 -14.287488 -44.761196
-61.562247 -18.095533 -44.505302
-61.515299 -16.178839 -44.670223
-58.993496 -12.925289 -47.687221
-58.019554 -11.217198 -48.714358
-54.076364 -8.236467 -52.198761
-53.782267 -6.441866 -52.410076
-52.874702 -6.622575 -53.082325
-55.216586 -9.892402 -51.279495
-54.076364 -8.236467 -52.198761
-66.390206 -50.147163 -27.601423
-66.956086 -48.190811 -27.876215
-66.32267 -48.495346 -28.647503
-66.423752 -51.756624 -26.522474
-66.390206 -50.147163 -27.601423
-65.665054 -48.779815 -29.418677
-64.946255 -49.063696 -30.126709
3 0 114 112
3 1 116 115
3 1 443 445
3 445 444 116
3 443 444 445
3 2 119 117
3 4 122 120
3 4 124 122
3 446 126 447
3 448 128 449
3 450 449 126
3 448 449 450
3 451 130 452
3 5 133 131
3 5 135 133
3 453 136 454
3 456 455 136
3 3 140 138
3 6 143 141
3 8 146 144
3 8 148 146
3 457 149 458
3 459 151 460
3 461 460 149
3 459 460 461
3 12 153 152
3 13 156 154
3 14 159 157
3 14 161 159
3 7 164 162
3 15 167 165
3 15 169 167
3 15 171 169
3 16 174 172
3 16 176 174
3 19 181 179
3 19 183 181
3 9 186 184
3 20 189 187
3 20 191 189
3 20 193 191
3 18 196 194
3 18 198 196
3 17 201 199
3 21 204 202
3 21 206 204
3 10 209 207
3 22 212 210
3 22 214 212
3 22 216 214
3 23 219 217
3 23 221 219
3 24 224 222
3 24 226 224
3 11 229 227
3 25 232 230
3 25 234 232
3 25 236 234
3 26 239 237
3 26 241 239
3 26 242 241
3 27 245 243
3 29 246 113
3 29 247 246
3 30 462 464
3 464 463 248
3 462 463 464
3 31 252 250
3 33 253 118
3 33 254 253
3 34 257 255
3 36 258 121
3 36 259 258
3 36 261 259
3 38 262 123
3 38 263 262
3 40 465 466
3 40 467 469
3 467 264 468
3 467 468 469
3 41 267 265
3 43 268 125
3 43 269 268
3 43 271 269
3 45 272 127
3 45 273 272
3 470 276 471
3 472 471 274
3 470 471 472
3 47 277 129
3 47 278 277
3 48 281 279
3 50 282 132
3 50 283 282
3 50 285 283
3 52 286 134
3 52 287 286
3 54 473 475
3 473 288 474
3 473 474 475
3 54 289 288
3 476 292 477
3 478 477 290
3 476 477 478
3 56 479 481
3 479 293 480
3 479 480 481
3 56 294 293
3 56 296 294
3 58 297 137
3 58 298 297
3 58 300 298
3 59 482 484
3 484 483 301
3 482 483 484
3 485 302 486
3 487 486 139
3 485 486 487
3 489 488 302
3 60 305 303
3 62 306 142
3 62 307 306
3 28 308 244
3 63 309 145
3 63 310 309
3 63 311 310
3 64 312 147
3 64 313 312
3 66 490 492
3 490 315 491
3 490 491 492
3 66 316 315
3 493 317 494
3 495 318 496
3 497 496 317
3 495 496 497
3 498 319 499
3 500 499 318
3 498 499 500
3 501 320 502
3 68 503 504
3 68 505 507
3 505 321 506
3 505 506 507
3 68 322 321
3 69 323 150
3 69 324 323
3 508 326 509
3 71 510 512
3 510 327 511
3 510 511 512
3 71 328 327
3 513 329 514
3 515 330 516
3 517 516 329
3 515 516 517
3 519 518 330
3 72 520 522
3 522 521 331
3 520 521 522
3 524 523 249
3 74 333 155
3 74 525 527
3 527 526 333
3 525 526 527
3 32 334 251
3 75 335 158
3 75 336 335
3 75 337 336
3 76 338 160
3 76 339 338
3 61 340 304
3 77 341 163
3 77 342 341
3 35 343 256
3 78 344 166
3 78 345 344
3 78 346 345
3 79 347 168
3 79 348 347
3 79 349 348
3 80 350 170
3 80 351 350
3 37 352 260
3 81 353 173
3 81 354 353
3 81 355 354
3 82 356 175
3 82 357 356
3 83 360 358
3 528 361 529
3 530 529 177
3 528 529 530
3 531 362 532
3 533 532 361
3 531 532 533
3 534 363 535
3 536 364 537
3 538 537 363
3 536 537 538
3 85 539 541
3 539 365 540
3 539 540 541
3 85 366 365
3 85 367 366
3 83 368 178
3 83 358 368
3 87 542 543
3 87 544 546
3 544 370 545
3 544 545 546
3 39 547 549
3 547 371 548
3 547 548 549
3 88 372 180
3 88 373 372
3 88 374 373
3 89 375 182
3 89 376 375
3 65 377 314
3 90 378 185
3 90 379 378
3 42 380 266
3 91 381 188
3 91 382 381
3 91 383 382
3 92 384 190
3 92 385 384
3 92 386 385
3 93 387 192
3 93 388 387
3 44 389 270
3 94 390 195
3 94 391 390
3 94 392 391
3 86 393 197
3 86 369 393
3 84 394 359
3 95 395 200
3 95 396 395
3 46 397 275
3 96 398 203
3 96 399 398
3 96 400 399
3 97 401 205
3 97 402 401
3 67 550 552
3 550 403 551
3 550 551 552
3 98 404 208
3 98 405 404
3 49 406 280
3 99 407 211
3 99 408 407
3 99 409 408
3 100 410 213
3 100 411 410
3 100 412 411
3 101 413 215
3 101 414 413
3 51 415 284
3 102 416 218
3 102 417 416
3 102 418 417
3 103 419 220
3 103 420 419
3 53 553 554
3 104 421 223
3 104 422 421
3 104 423 422
3 105 424 225
3 105 425 424
3 70 426 325
3 106 427 228
3 106 428 427
3 55 429 291
3 107 430 231
3 107 431 430
3 107 432 431
3 108 433 233
3 108 434 433
3 108 435 434
3 109 436 235
3 109 437 436
3 57 438 295
3 110 439 238
3 110 440 439
3 110 441 440
3 111 442 240
3 111 555 557
3 557 556 442
3 555 556 557
3 111 558 559
3 561 560 299
3 73 562 564
3 564 563 332
3 562 563 564
3 112 113 27
3 114 113 112
3 114 29 113
3 115 565 567
3 567 566 30
3 565 566 567
3 116 568 570
3 570 569 115
3 568 569 570
3 116 571 572
3 116 573 574
3 576 575 116
3 117 118 31
3 119 118 117
3 119 33 118
3 120 121 34
3 122 121 120
3 122 36 121
3 122 123 36
3 124 123 122
3 124 38 123
3 577 40 578
3 579 125 580
3 581 580 41
3 579 580 581
3 126 582 584
3 582 125 583
3 582 583 584
3 126 43 125
3 126 127 43
3 128 127 126
3 128 45 127
3 585 129 586
3 130 587 589
3 587 129 588
3 587 588 589
3 130 47 129
3 131 132 48
3 133 132 131
3 133 50 132
3 133 134 50
3 135 134 133
3 135 52 134
3 590 54 591
3 136 592 593
3 136 594 596
3 594 56 595
3 594 595 596
3 136 137 56
3 597 137 598
3 599 598 136
3 597 598 599
3 600 58 601
3 602 601 137
3 600 601 602
3 604 603 58
3 138 139 59
3 140 139 138
3 140 605 607
3 607 606 139
3 605 606 607
3 141 142 60
3 143 142 141
3 143 62 142
3 144 145 28
3 146 145 144
3 146 63 145
3 146 147 63
3 148 147 146
3 148 64 147
3 608 66 609
3 149 610 611
3 149 612 614
3 612 68 613
3 612 613 614
3 149 150 68
3 151 150 149
3 151 69 150
3 615 71 616
3 152 617 619
3 619 618 72
3 617 618 619
3 153 620 622
3 622 621 152
3 620 621 622
3 153 623 624
3 154 625 627
3 625 155 626
3 625 626 627
3 156 155 154
3 156 74 155
3 157 158 32
3 159 158 157
3 159 75 158
3 159 160 75
3 161 160 159
3 161 76 160
3 162 163 61
3 164 163 162
3 164 77 163
3 165 166 35
3 167 166 165
3 167 78 166
3 167 168 78
3 169 168 167
3 169 79 168
3 169 170 79
3 171 170 169
3 171 80 170
3 172 173 37
3 174 173 172
3 174 81 173
3 174 175 81
3 176 175 174
3 176 82 175
3 628 177 629
3 630 629 83
3 628 629 630
3 631 177 632
3 634 633 177
3 635 85 636
3 637 178 638
3 639 638 85
3 637 638 639
3 640 178 641
3 642 83 643
3 644 643 178
3 642 643 644
3 645 87 646
3 179 180 39
3 181 180 179
3 181 88 180
3 181 182 88
3 183 182 181
3 183 89 182
3 184 185 65
3 186 185 184
3 186 90 185
3 187 188 42
3 189 188 187
3 189 91 188
3 189 190 91
3 191 190 189
3 191 92 190
3 191 192 92
3 193 192 191
3 193 93 192
3 194 195 44
3 196 195 194
3 196 94 195
3 196 197 94
3 198 197 196
3 198 86 197
3 199 200 84
3 201 200 199
3 201 95 200
3 202 203 46
3 204 203 202
3 204 96 203
3 204 205 96
3 206 205 204
3 206 97 205
3 207 208 67
3 209 208 207
3 209 98 208
3 210 211 49
3 212 211 210
3 212 99 211
3 212 213 99
3 214 213 212
3 214 100 213
3 214 215 100
3 216 215 214
3 216 101 215
3 217 218 51
3 219 218 217
3 219 102 218
3 219 220 102
3 221 220 219
3 221 103 220
3 222 223 53
3 224 223 222
3 224 104 223
3 224 225 104
3 226 225 224
3 226 105 225
3 227 228 70
3 229 228 227
3 229 106 228
3 230 231 55
3 232 231 230
3 232 107 231
3 232 233 107
3 234 233 232
3 234 108 233
3 234 235 108
3 236 235 234
3 236 109 235
3 237 238 57
3 239 238 237
3 239 110 238
3 239 240 110
3 241 240 239
3 241 111 240
3 241 647 649
3 649 648 111
3 647 648 649
3 242 650 652
3 652 651 241
3 650 651 652
3 242 653 654
3 656 655 73
3 243 244 6
3 245 244 243
3 245 28 244
3 113 245 27
3 246 245 113
3 246 28 245
3 246 144 28
3 247 144 246
3 247 8 144
3 248 249 12
3 657 249 658
3 659 658 248
3 657 658 659
3 661 660 249
3 663 662 30
3 250 251 13
3 252 251 250
3 252 32 251
3 118 252 31
3 253 252 118
3 253 32 252
3 253 157 32
3 254 157 253
3 254 14 157
3 255 256 7
3 257 256 255
3 257 35 256
3 121 257 34
3 258 257 121
3 258 35 257
3 258 165 35
3 259 165 258
3 259 15 165
3 259 260 15
3 261 260 259
3 261 37 260
3 123 261 36
3 262 261 123
3 262 37 261
3 262 172 37
3 263 172 262
3 263 16 172
3 664 39 665
3 666 39 667
3 668 179 669
3 670 669 39
3 668 669 670
3 264 671 673
3 671 179 672
3 671 672 673
3 264 19 179
3 265 266 9
3 267 266 265
3 267 42 266
3 125 267 41
3 268 267 125
3 268 42 267
3 268 187 42
3 269 187 268
3 269 20 187
3 269 270 20
3 271 270 269
3 271 44 270
3 127 271 43
3 272 271 127
3 272 44 271
3 272 194 44
3 273 194 272
3 273 18 194
3 274 275 17
3 276 275 274
3 276 46 275
3 129 674 676
3 674 276 675
3 674 675 676
3 277 276 129
3 277 46 276
3 277 202 46
3 278 202 277
3 278 21 202
3 279 280 10
3 281 280 279
3 281 49 280
3 132 281 48
3 282 281 132
3 282 49 281
3 282 210 49
3 283 210 282
3 283 22 210
3 283 284 22
3 285 284 283
3 285 51 284
3 134 285 50
3 286 285 134
3 286 51 285
3 286 217 51
3 287 217 286
3 287 23 217
3 677 53 678
3 288 679 680
3 288 681 683
3 681 53 682
3 681 682 683
3 288 222 53
3 289 222 288
3 289 24 222
3 290 291 11
3 292 291 290
3 292 55 291
3 684 292 685
3 293 686 688
3 686 292 687
3 686 687 688
3 293 55 292
3 293 230 55
3 294 230 293
3 294 25 230
3 294 295 25
3 296 295 294
3 296 57 295
3 137 296 56
3 297 296 137
3 297 57 296
3 297 237 57
3 298 237 297
3 298 26 237
3 298 299 26
3 300 299 298
3 300 689 691
3 691 690 299
3 689 690 691
3 692 300 693
3 694 693 58
3 692 693 694
3 695 300 696
3 698 697 300
3 301 699 700
3 702 701 301
3 139 703 705
3 705 704 59
3 703 704 705
3 302 706 708
3 708 707 139
3 706 707 708
3 302 709 710
3 302 711 712
3 714 713 302
3 303 304 2
3 305 304 303
3 305 61 304
3 142 305 60
3 306 305 142
3 306 61 305
3 306 162 61
3 307 162 306
3 307 7 162
3 244 143 6
3 308 143 244
3 308 62 143
3 145 308 28
3 309 308 145
3 309 62 308
3 309 307 62
3 310 307 309
3 310 7 307
3 310 255 7
3 311 255 310
3 311 34 255
3 147 311 63
3 312 311 147
3 312 34 311
3 312 120 34
3 313 120 312
3 313 4 120
3 715 314 716
3 717 314 718
3 719 65 720
3 721 720 314
3 719 720 721
3 315 722 723
3 315 724 726
3 724 65 725
3 724 725 726
3 315 184 65
3 316 184 315
3 316 9 184
3 727 66 728
3 317 729 730
3 317 731 733
3 731 66 732
3 731 732 733
3 317 316 66
3 318 316 317
3 318 9 316
3 318 265 9
3 319 265 318
3 319 41 265
3 734 319 735
3 736 319 737
3 738 41 739
3 740 739 319
3 738 739 740
3 742 741 41
3 743 67 744
3 745 67 746
3 747 207 748
3 749 748 67
3 747 748 749
3 320 750 752
3 750 207 751
3 750 751 752
3 320 10 207
3 753 320 754
3 321 755 757
3 755 320 756
3 755 756 757
3 321 10 320
3 321 279 10
3 322 279 321
3 322 48 279
3 150 322 68
3 323 322 150
3 323 48 322
3 323 131 48
3 324 131 323
3 324 5 131
3 758 325 759
3 326 760 762
3 760 325 761
3 760 761 762
3 326 70 325
3 763 326 764
3 327 765 767
3 765 326 766
3 765 766 767
3 327 70 326
3 327 227 70
3 328 227 327
3 328 11 227
3 768 71 769
3 329 770 771
3 329 772 774
3 772 71 773
3 772 773 774
3 329 328 71
3 330 328 329
3 330 11 328
3 330 290 11
3 775 290 776
3 777 776 330
3 775 776 777
3 779 778 290
3 331 332 3
3 780 332 781
3 782 781 331
3 780 781 782
3 783 73 784
3 785 784 332
3 783 784 785
3 787 786 72
3 788 73 789
3 791 790 73
3 249 153 12
3 792 153 793
3 794 793 249
3 792 793 794
3 796 795 153
3 155 797 798
3 333 799 801
3 801 800 155
3 799 800 801
3 333 802 803
3 333 804 805
3 807 806 333
3 251 156 13
3 334 156 251
3 334 74 156
3 158 334 32
3 335 334 158
3 335 74 334
3 335 808 810
3 810 809 74
3 808 809 810
3 336 811 813
3 813 812 335
3 811 812 813
3 336 814 815
3 336 816 818
3 816 301 817
3 816 817 818
3 337 301 336
3 337 59 301
3 160 337 75
3 338 337 160
3 338 59 337
3 338 138 59
3 339 138 338
3 339 3 138
3 304 119 2
3 340 119 304
3 340 33 119
3 163 340 61
3 341 340 163
3 341 33 340
3 341 254 33
3 342 254 341
3 342 14 254
3 256 164 7
3 343 164 256
3 343 77 164
3 166 343 35
3 344 343 166
3 344 77 343
3 344 342 77
3 345 342 344
3 345 14 342
3 345 161 14
3 346 161 345
3 346 76 161
3 168 346 78
3 347 346 168
3 347 76 346
3 347 339 76
3 348 339 347
3 348 3 339
3 348 331 3
3 349 331 348
3 349 72 331
3 170 349 79
3 350 349 170
3 350 72 349
3 350 152 72
3 351 152 350
3 351 12 152
3 260 171 15
3 352 171 260
3 352 80 171
3 173 352 37
3 353 352 173
3 353 80 352
3 353 351 80
3 354 351 353
3 354 12 351
3 354 248 12
3 355 248 354
3 355 30 248
3 175 355 81
3 356 355 175
3 356 30 355
3 356 115 30
3 357 115 356
3 357 1 115
3 358 359 0
3 360 359 358
3 360 84 359
3 177 360 83
3 361 360 177
3 361 84 360
3 361 199 84
3 362 199 361
3 362 17 199
3 819 362 820
3 821 362 822
3 823 17 824
3 825 824 362
3 823 824 825
3 826 274 827
3 828 827 17
3 826 827 828
3 829 274 830
3 832 831 274
3 833 128 834
3 835 128 836
3 837 45 838
3 839 838 128
3 837 838 839
3 363 840 841
3 363 842 844
3 842 45 843
3 842 843 844
3 363 273 45
3 364 273 363
3 364 18 273
3 365 845 846
3 365 847 848
3 365 849 851
3 849 364 850
3 849 850 851
3 366 364 365
3 366 18 364
3 366 198 18
3 367 198 366
3 367 86 198
3 178 367 85
3 368 367 178
3 368 86 367
3 368 369 86
3 358 369 368
3 358 0 369
3 852 154 853
3 370 854 856
3 854 154 855
3 854 855 856
3 370 13 154
3 371 857 858
3 371 859 861
3 859 87 860
3 859 860 861
3 180 371 39
3 372 371 180
3 372 87 371
3 372 370 87
3 373 370 372
3 373 13 370
3 373 250 13
3 374 250 373
3 374 31 250
3 182 374 88
3 375 374 182
3 375 31 374
3 375 117 31
3 376 117 375
3 376 2 117
3 314 862 863
3 377 864 866
3 866 865 314
3 864 865 866
3 377 867 869
3 867 40 868
3 867 868 869
3 185 377 65
3 378 377 185
3 378 40 377
3 378 264 40
3 379 264 378
3 379 19 264
3 266 186 9
3 380 186 266
3 380 90 186
3 188 380 42
3 381 380 188
3 381 90 380
3 381 379 90
3 382 379 381
3 382 19 379
3 382 183 19
3 383 183 382
3 383 89 183
3 190 383 91
3 384 383 190
3 384 89 383
3 384 376 89
3 385 376 384
3 385 2 376
3 385 303 2
3 386 303 385
3 386 60 303
3 192 386 92
3 387 386 192
3 387 60 386
3 387 141 60
3 388 141 387
3 388 6 141
3 270 193 20
3 389 193 270
3 389 93 193
3 195 389 44
3 390 389 195
3 390 93 389
3 390 388 93
3 391 388 390
3 391 6 388
3 391 243 6
3 392 243 391
3 392 27 243
3 197 392 94
3 393 392 197
3 393 27 392
3 393 112 27
3 369 112 393
3 369 0 112
3 359 114 0
3 394 114 359
3 394 29 114
3 200 394 84
3 395 394 200
3 395 29 394
3 395 247 29
3 396 247 395
3 396 8 247
3 275 201 17
3 397 201 275
3 397 95 201
3 203 397 46
3 398 397 203
3 398 95 397
3 398 396 95
3 399 396 398
3 399 8 396
3 399 148 8
3 400 148 399
3 400 64 148
3 205 400 96
3 401 400 205
3 401 64 400
3 401 313 64
3 402 313 401
3 402 4 313
3 870 130 871
3 403 872 874
3 872 130 873
3 872 873 874
3 403 47 130
3 208 403 67
3 404 403 208
3 404 47 403
3 404 278 47
3 405 278 404
3 405 21 278
3 280 209 10
3 406 209 280
3 406 98 209
3 211 406 49
3 407 406 211
3 407 98 406
3 407 405 98
3 408 405 407
3 408 21 405
3 408 206 21
3 409 206 408
3 409 97 206
3 213 409 99
3 410 409 213
3 410 97 409
3 410 402 97
3 411 402 410
3 411 4 402
3 411 124 4
3 412 124 411
3 412 38 124
3 215 412 100
3 413 412 215
3 413 38 412
3 413 263 38
3 414 263 413
3 414 16 263
3 284 216 22
3 415 216 284
3 415 101 216
3 218 415 51
3 416 415 218
3 416 101 415
3 416 414 101
3 417 414 416
3 417 16 414
3 417 176 16
3 418 176 417
3 418 82 176
3 220 418 102
3 419 418 220
3 419 82 418
3 419 357 82
3 420 357 419
3 420 1 357
3 223 875 877
3 877 876 53
3 875 876 877
3 421 878 880
3 880 879 223
3 878 879 880
3 421 881 882
3 421 883 884
3 422 885 887
3 887 886 421
3 885 886 887
3 422 888 889
3 422 890 892
3 890 151 891
3 890 891 892
3 423 151 422
3 423 69 151
3 225 423 104
3 424 423 225
3 424 69 423
3 424 324 69
3 425 324 424
3 425 5 324
3 325 893 894
3 426 895 897
3 897 896 325
3 895 896 897
3 426 898 900
3 898 54 899
3 898 899 900
3 228 426 70
3 427 426 228
3 427 54 426
3 427 289 54
3 428 289 427
3 428 24 289
3 291 229 11
3 429 229 291
3 429 106 229
3 231 429 55
3 430 429 231
3 430 106 429
3 430 428 106
3 431 428 430
3 431 24 428
3 431 226 24
3 432 226 431
3 432 105 226
3 233 432 107
3 433 432 233
3 433 105 432
3 433 425 105
3 434 425 433
3 434 5 425
3 434 135 5
3 435 135 434
3 435 52 135
3 235 435 108
3 436 435 235
3 436 52 435
3 436 287 52
3 437 287 436
3 437 23 287
3 295 236 25
3 438 236 295
3 438 109 236
3 238 438 57
3 439 438 238
3 439 109 438
3 439 437 109
3 440 437 439
3 440 23 437
3 440 221 23
3 441 221 440
3 441 103 221
3 240 441 110
3 442 441 240
3 442 103 441
3 442 420 103
3 901 420 902
3 903 902 442
3 901 902 903
3 904 1 905
3 906 905 420
3 904 905 906
3 908 907 1
3 910 909 111
3 299 242 26
3 911 242 912
3 913 912 299
3 911 912 913
3 915 914 242
3 332 140 3
3 916 140 917
3 918 917 332
3 916 917 918
3 920 919 140
3 922 921 73
