ply
format ascii 1.0
element vertex 818
property float x
property float y
property float z
element face 908
property list uchar int vertex_index
end_header
-4.192778 -53.289368 69.938187
-3.30929 -89.332047 39.680367
-3.242828 -89.619781 58.933296
-3.323248 -69.764748 75.747986
0.00713 -70.259232 56.205048
-3.291842 -47.547077 51.222927
-6.028147 -85.922668 66.632774
-9.143385 -92.834564 56.173988
-6.82461 -77.075073 74.58252
-2.035107 -79.558617 67.848854
-4.883583 -51.376228 59.39801
-2.636934 -90.613846 49.752094
-7.665945 -98.023895 49.475182
-2.49992 -61.900455 74.513718
-1.857832 -61.226097 63.784149
-0.541838 -70.362297 66.749084
-0.070463 -80.689125 58.360683
-2.012274 -59.482075 53.710415
-8.396442 -83.524231 69.78714
-8.906687 -86.610062 65.070633
-8.928799 -79.84594 73.438499
-6.028347 -81.688416 70.980728
-4.091846 -88.044296 34.619877
-4.942215 -48.348068 67.063629
-5.817709 -47.315758 61.791199
-4.722544 -52.56517 64.485123
-1.981215 -84.504852 38.810139
-2.896481 -83.331879 33.906906
-2.753765 -90.456375 54.506634
-4.972383 -94.861435 50.042152
-5.352936 -93.97287 54.246788
-2.47871 -65.872444 75.567108
-1.361021 -65.937981 70.753082
-1.570805 -70.19474 71.620148
-2.132961 -84.7603 63.511642
-0.761627 -80.295387 63.322189
-1.239735 -85.579163 58.952351
-0.860985 -85.893478 54.061806
-9.989557 -63.031414 83.120438
-3.085073 -41.053482 50.011929
-0.713364 -38.516571 47.300755
-1.583633 -45.283081 47.991829
-0.707052 -65.465454 60.14175
-1.910244 -60.505024 58.557682
-0.883165 -64.967422 54.956005
-4.28227 -88.061356 62.980347
-5.981211 -92.171631 58.054333
-7.11133 -89.601669 61.611816
-4.866179 -73.569977 75.34201
-2.528969 -74.452789 71.894508
-4.049301 -78.458832 71.684151
-3.707382 -83.418915 67.579781
-5.912357 -45.713638 57.05125
-4.435017 -49.666756 54.949528
-2.81909 -90.208206 44.769264
-4.617689 -94.199997 40.457996
-4.710571 -94.892456 45.417953
-6.777948 -99.024216 45.512135
-8.380043 -95.902084 52.945812
-3.224525 -57.754627 72.552567
-3.286337 -57.295639 67.051216
-2.002644 -61.685795 69.208115
-0.824091 -65.781631 65.488159
-0.064501 -70.371902 61.512379
-0.981087 -75.026711 67.542915
-0.089737 -75.351059 62.604927
0.321688 -75.495705 57.384922
0.185539 -80.802513 53.192806
-0.881781 -85.788162 48.991886
-4.320095 -65.438721 79.476501
-6.884586 -64.497246 82.061935
-5.868011 -68.960434 78.765182
-7.954462 -72.379822 77.650696
-10.208685 -75.542847 76.349899
0.270172 -31.449884 46.643745
-3.377518 -56.497047 61.710987
-3.308002 -55.291439 56.806473
-2.919086 -53.68861 52.472118
-9.660231 -82.363235 71.063782
-9.731461 -83.760773 69.095543
-8.530849 -81.770287 71.732422
-3.668541 -88.736023 37.138145
-4.528849 -90.4534 34.963966
-4.218355 -91.162079 37.522018
-4.615551 -50.886299 68.507721
-5.025684 -50.507324 65.784927
-4.48456 -52.977886 67.185455
-2.264269 -87.397751 41.792667
-2.625132 -86.917908 39.254997
-3.052805 -86.344315 36.743172
-2.942324 -90.128937 56.765598
-3.979553 -92.382034 54.486046
-4.205259 -91.853195 56.598022
-2.797531 -67.825546 75.751953
-1.986311 -67.981743 73.613312
-2.348194 -70.020393 73.801704
-2.544643 -87.252975 61.243721
-1.611444 -85.236816 61.283417
-2.137705 -87.74704 59.035107
-1.865816 -88.082977 56.733391
-4.115389 -45.540138 52.227734
-3.255737 -44.344616 50.605011
-2.255301 -43.127617 49.100555
-2.491133 -46.413147 49.570148
-0.3041 -67.790794 58.202412
-0.766594 -65.242126 57.518929
-0.38159 -67.628006 55.58292
-5.063873 -87.047607 64.857986
-5.627428 -89.074219 62.400349
-6.430944 -87.832397 64.190247
-5.810368 -75.383377 75.00267
-4.422043 -75.984619 73.55648
-5.348413 -77.793915 73.264572
-5.902954 -83.869339 68.903526
-4.779217 -82.587616 69.377052
-4.789104 -84.87915 67.192917
-3.855686 -85.801254 65.334473
-5.500021 -49.386475 60.596706
-5.98514 -46.589943 59.333389
-5.478559 -48.617653 58.21217
-5.244751 -47.708332 56.014137
-4.745298 -50.584091 57.082073
-4.030437 -84.938461 31.844267
-2.690859 -90.474548 47.281937
-3.737942 -92.589981 45.137295
-3.714357 -92.793701 47.591465
-6.287443 -96.613831 49.895851
-6.008638 -96.957962 47.791943
-7.24589 -98.665283 47.563236
-7.533173 -92.746185 57.238415
-7.146093 -94.063278 55.5215
-8.732374 -94.464813 54.568047
-2.798872 -59.85743 73.636047
-2.657309 -59.723724 70.934479
-2.195713 -61.826401 71.900269
-0.901293 -68.082672 68.772781
-1.030903 -65.88121 68.151146
-0.585648 -68.060242 66.176468
-0.392181 -68.003036 63.525265
-0.244904 -70.38269 64.155434
-2.233383 -76.966202 69.904144
-1.661728 -74.775726 69.812584
-1.43391 -77.336121 67.760391
-0.354321 -80.531212 60.880341
-0.344267 -77.847336 63.018471
-0.007401 -78.004379 60.493053
0.167189 -75.442902 60.013741
0.217972 -78.10659 57.908577
0.344645 -78.159088 55.292274
0.106277 -80.777565 55.790459
-1.645456 -88.32048 51.907467
-0.824793 -85.888306 51.540653
-1.672222 -88.249069 49.413933
-1.784491 -88.066818 46.887047
-3.829859 -63.632988 79.514473
-4.823858 -63.313148 81.259224
-9.578749 -65.408279 81.805969
-8.385715 -63.824314 82.781837
-7.923708 -66.124763 81.299446
-6.388708 -66.728561 80.432228
-6.865616 -70.687164 78.231949
-11.269983 -76.934525 75.545067
-1.053261 -32.805359 47.83054
-2.574348 -59.246704 65.466766
-3.341192 -56.94342 64.34153
-2.58555 -58.897625 62.787029
-1.966303 -60.031853 56.081207
-2.61488 -57.941509 57.70018
-2.593954 -57.326988 55.333134
-3.162575 -54.533531 54.567593
-2.519291 -56.627892 53.091965
-7.155264 -84.731537 68.287796
-7.407906 -86.502762 65.915344
-8.528685 -85.132294 67.560791
-7.876585 -78.583664 74.066826
-6.355949 -79.410454 72.866074
-7.424467 -80.760132 72.352264
-7.167706 -82.815514 70.434555
-4.905991 -89.650681 32.429626
-5.452232 -47.896492 64.382317
-5.336081 -50.013092 63.134365
-4.867018 -52.035355 61.876583
-0.465113 -83.079407 45.931103
-2.42506 -83.961807 36.333977
-3.528858 -85.681442 34.269875
-2.656284 -90.612961 52.16489
-3.746492 -92.838043 49.975765
-3.832481 -92.706268 52.277142
-5.144321 -94.531113 52.198608
-6.557877 -96.016281 51.87677
-2.382107 -63.90081 75.159523
-1.909992 -63.893005 72.674088
-1.836422 -65.940796 73.243782
-1.360632 -68.061363 71.268791
-0.97599 -70.303635 69.252754
-1.981472 -82.177132 65.717674
-1.31414 -79.973114 65.655777
-1.353046 -82.627853 63.494839
-0.884432 -82.967133 61.152641
-0.552868 -83.200722 58.717525
-0.338638 -83.338089 56.214539
-0.995537 -85.794312 56.538559
-1.707058 -88.269699 54.352455
-11.662857 -62.140888 83.105957
-2.797741 -37.671486 49.466839
-1.512281 -36.332756 48.211246
-1.920546 -39.770142 48.641415
-1.175732 -41.929653 47.650227
-1.223299 -63.285007 62.006523
-1.867823 -60.90147 61.131447
-1.25597 -63.004448 59.37326
-1.337473 -62.663498 56.810444
-1.446901 -62.257851 54.33115
-3.681074 -88.927017 61.005245
-4.535723 -91.11647 58.615009
-5.000875 -90.181793 60.5452
-6.468056 -90.964218 59.852367
-8.037243 -91.254944 58.932316
-7.92642 -88.133698 63.350143
-8.692308 -89.644119 60.636082
-9.662703 -91.071747 57.809475
-4.025097 -71.685547 75.598267
-2.895538 -72.050613 73.837387
-3.59656 -74.051529 73.749115
-3.227386 -76.514832 71.847427
-2.943665 -79.051605 69.868881
-4.98558 -80.210312 71.398079
-3.791887 -80.954102 69.697128
-2.790289 -81.615952 67.794189
-2.826365 -84.150558 65.617157
-3.110615 -86.60054 63.347183
-6.16432 -42.664318 55.955341
-4.787693 -46.673439 54.020786
-3.947632 -48.644218 53.002892
-3.024818 -89.82489 42.229828
-3.983177 -91.762146 40.083855
-3.824722 -92.241882 42.628834
-4.635307 -94.627914 42.971832
-5.450071 -96.939194 43.222191
-4.826958 -94.976273 47.779144
-5.723959 -97.060638 45.564846
-5.621164 -93.183136 56.19342
-6.834221 -95.162506 53.744846
-8.037271 -97.098557 51.26088
-9.548178 -97.732925 50.315033
-3.869549 -55.323097 68.539146
-3.237917 -57.563808 69.802383
-2.590958 -59.520111 68.195877
-1.896904 -61.485783 66.488274
-1.579807 -63.817928 70.065163
-1.368706 -63.688808 67.387451
-1.255741 -63.511436 64.688187
-0.721407 -65.643555 62.806843
-0.303099 -67.913971 60.857208
0.01539 -70.331696 58.853546
-1.969179 -72.332489 71.822876
-1.236851 -72.541359 69.59687
-0.679512 -72.689728 67.204773
-0.811918 -77.627502 65.452774
-0.465221 -75.215134 65.126915
-0.273336 -72.789917 64.691483
0.004959 -72.851761 62.098488
0.174294 -72.880966 59.461807
0.379637 -78.163177 52.666168
-0.228144 -83.389008 53.666298
-0.214233 -83.360931 51.092331
-0.294022 -83.257721 48.509174
-1.03021 -85.598831 46.430626
-1.982204 -87.78154 44.341671
-3.278023 -57.867405 75.253693
-3.043682 -59.912743 76.246872
-2.939968 -61.892788 76.990013
-3.01722 -63.821743 77.460823
-3.304375 -65.712006 77.66391
-3.804974 -67.574005 77.631104
-8.749437 -61.472973 84.203911
-7.308495 -62.231056 83.628876
-5.99032 -62.847279 82.642738
-5.519796 -65.036377 80.954613
-5.007025 -67.211418 79.20314
-4.499739 -69.414284 77.414215
-5.354059 -71.231361 77.070847
-6.32633 -73.010757 76.647301
-7.373661 -74.722076 76.164879
-9.085726 -74.011322 77.032516
-8.453377 -76.320679 75.61515
-9.520445 -77.755417 74.966187
-10.520824 -78.983238 74.175385
-4.673058 -93.625275 37.897255
-0.224672 -35.028961 46.959145
-4.019747 -54.985741 65.803131
-4.128124 -54.547947 63.135635
-4.165279 -53.997395 60.573803
-2.605293 -58.464691 60.189808
-3.373224 -55.947575 59.191486
-4.106195 -53.326691 58.149517
-3.930735 -52.537224 55.885033
-3.624561 -51.641212 53.78804
-3.180647 -50.661751 51.848408
-2.601326 -49.630962 50.038513
-10.288359 -82.384697 70.776535
-10.200967 -81.875065 71.515328
-10.200967 -81.875065 71.515328
-9.793148 -81.583492 71.88414
-4.282165 -84.534866 30.657495
-4.54498 -85.681625 30.776464
-8.097495 -99.024772 48.249523
-7.887467 -99.345467 47.293551
-7.455917 -98.344589 48.519209
-5.03611 -62.235774 82.101513
-4.564933 -62.428581 81.264927
-8.503271 -66.932987 80.877266
-8.751228 -65.766521 81.552707
-9.330792 -66.574745 81.130527
-7.664853 -67.262969 80.539715
-8.503271 -66.932987 80.877266
-1.733947 -33.500406 48.412353
-1.506331 -31.713732 48.222072
-9.875252 -84.415169 67.927834
-10.46861 -83.643631 68.746662
-4.498919 -88.847488 33.524752
-4.734158 -88.459382 32.284779
-4.327086 -87.656189 33.379904
-4.780979 -91.279373 33.847727
-4.669933 -91.687012 35.13866
-5.197223 -48.12228 65.722973
-5.303168 -46.781719 65.018361
-5.04816 -47.007507 66.359016
-0.59336 -82.951275 44.65111
-0.866565 -84.200882 44.901018
-1.516236 -83.494701 39.82585
-1.785182 -84.731537 40.06827
-1.707948 -83.282196 38.582022
-1.516236 -83.494701 39.82585
-2.203137 -84.233329 37.572058
-1.929871 -83.010673 37.343941
-1.707948 -83.282196 38.582022
-4.327086 -87.656189 33.379904
-4.045592 -86.474762 33.204903
-3.810352 -86.862869 34.444876
-12.519823 -61.660389 82.944859
-11.768857 -60.88166 83.648808
-3.534412 -40.032803 50.40873
-3.605007 -41.691197 50.748835
-2.941407 -39.362484 49.739384
-3.390746 -38.341805 50.136185
-3.534412 -40.032803 50.40873
-1.101904 -44.739408 47.212418
-0.897953 -43.062694 47.041617
-1.379682 -43.606367 47.821028
-9.510748 -89.442391 60.072501
-9.103745 -88.806969 61.50272
-9.995945 -90.156205 58.659197
-9.177506 -90.357933 59.222779
-9.510748 -89.442391 60.072501
-10.484267 -90.770035 57.16791
-9.995945 -90.156205 58.659197
-5.980149 -45.891934 61.144735
-5.779638 -46.227156 62.406748
-6.105161 -44.678421 57.589674
-6.141552 -45.116574 58.730744
-5.948749 -46.151791 58.192319
-6.038339 -44.188978 56.503296
-6.231142 -43.153761 57.041719
-6.105161 -44.678421 57.589674
-5.743614 -45.204315 56.014561
-5.869595 -43.679655 55.466606
-6.038339 -44.188978 56.503296
-2.578594 -82.139481 33.722572
-2.371685 -82.439072 34.912241
-6.530176 -99.068382 44.415953
-6.003182 -98.086593 44.442309
-6.250953 -98.042427 45.538491
-6.967996 -100.048386 44.348726
-6.530176 -99.068382 44.415953
-10.034748 -98.660835 48.963926
-10.305003 -97.817429 49.67361
-9.316157 -98.381248 49.520021
-10.034748 -98.660835 48.963926
-3.231221 -57.659217 71.177475
-3.474444 -56.568041 70.553055
-3.467747 -56.66345 71.928146
0.284888 -74.187145 57.097901
0.211192 -72.879776 58.136343
0.247991 -74.188335 58.423365
0.352831 -75.503033 56.064487
0.284888 -74.187145 57.097901
0.178682 -80.784397 51.889721
0.275731 -79.464729 51.626402
0.282588 -79.482845 52.929487
-3.354839 -57.879711 76.552128
-3.398039 -56.846393 75.997467
-3.237668 -58.90238 77.048717
-3.160852 -58.890074 75.750282
-3.354839 -57.879711 76.552128
-3.238682 -61.837349 78.127353
-3.179686 -60.882723 77.847897
-3.277309 -62.801827 78.362759
-2.978594 -62.857265 77.225418
-3.238682 -61.837349 78.127353
-9.369497 -62.252194 83.662174
-9.515401 -61.033299 84.291756
-10.135461 -61.812519 83.750019
-9.647205 -74.777085 76.691207
-10.001564 -73.634484 77.320453
-10.563043 -74.400246 76.979145
-11.366792 -78.573868 74.357903
-10.895404 -77.958881 74.860226
-11.741372 -77.549511 75.042744
-10.949349 -79.490948 73.68351
-11.366792 -78.573868 74.357903
0.512964 -29.606925 46.506275
-0.147327 -30.313952 47.079639
0.866657 -30.800799 46.007228
1.109449 -28.95784 45.869759
0.512964 -29.606925 46.506275
-2.344041 -50.736755 49.334829
-2.582179 -51.205984 50.270683
-2.250977 -49.108739 49.178198
-2.344041 -50.736755 49.334829
-10.323974 -83.083466 69.792416
-9.695846 -83.062004 70.079663
-10.288359 -82.384697 70.776535
-10.46861 -83.643631 68.746662
-10.323974 -83.083466 69.792416
-9.228457 -81.287018 72.21846
-8.729824 -80.808113 72.58546
-9.427432 -80.324844 73.071498
-9.09554 -82.066761 71.398102
-9.228457 -81.287018 72.21846
-9.793148 -81.583492 71.88414
-4.514686 -92.041352 36.417686
-4.669933 -91.687012 35.13866
-4.373602 -90.807739 36.242992
-1.926709 -86.177986 41.559534
-1.766143 -86.360054 42.8318
-2.10714 -85.938064 40.290699
-1.926709 -86.177986 41.559534
-2.4447 -87.157829 40.523832
-2.303173 -85.71138 39.032568
-1.785182 -84.731537 40.06827
-2.10714 -85.938064 40.290699
-4.120165 -43.934524 51.856737
-4.543238 -44.547979 52.677414
-3.690339 -43.336764 51.045376
-4.120165 -43.934524 51.856737
-3.685563 -44.942377 51.416372
-3.170405 -42.699049 50.30847
-3.605007 -41.691197 50.748835
-3.690339 -43.336764 51.045376
-9.210934 -87.28994 63.719995
-9.702994 -86.444168 64.601669
-3.700025 -83.780891 31.688865
-3.133046 -82.9776 32.720185
-3.463459 -84.13517 32.875586
-3.700025 -83.780891 31.688865
-4.282165 -84.534866 30.657495
-7.562832 -99.685806 46.372931
-7.328861 -99.865273 45.34738
-7.011919 -98.84475 46.537686
-7.562832 -99.685806 46.372931
-7.887467 -99.345467 47.293551
-4.067933 -62.588501 80.392551
-3.683628 -62.707449 79.389584
-4.326859 -63.473068 80.386848
-4.067933 -62.588501 80.392551
-4.564933 -62.428581 81.264927
-6.897353 -67.564869 80.106106
-7.156208 -66.426662 80.865837
-7.664853 -67.262969 80.539715
-6.637004 -68.680805 79.272583
-6.12836 -67.844498 79.598705
-6.897353 -67.564869 80.106106
-7.135807 -69.54417 79.005966
-6.366814 -69.823799 78.498565
-6.637004 -68.680805 79.272583
-7.6992 -70.371978 78.652523
-7.135807 -69.54417 79.005966
-8.243623 -71.218308 78.361897
-7.410039 -71.533493 77.941322
-7.6992 -70.371978 78.652523
-11.137476 -75.14254 76.570587
-10.563043 -74.400246 76.979145
-11.668125 -75.838379 76.168171
-10.739334 -76.238686 75.947483
-11.137476 -75.14254 76.570587
-12.191565 -76.519943 75.68092
-11.668125 -75.838379 76.168171
-11.741372 -77.549511 75.042744
-12.191565 -76.519943 75.68092
-4.827562 -95.152382 39.354873
-4.914961 -95.406761 40.617965
-0.809044 -30.991689 47.673036
-1.506331 -31.713732 48.222072
-0.391544 -32.127622 47.237143
-0.147327 -30.313952 47.079639
-0.809044 -30.991689 47.673036
-0.130766 -37.920589 46.612216
-0.400496 -39.651762 46.746232
-9.273864 -85.10093 67.160458
-9.130073 -84.446534 68.328167
-9.875252 -84.415169 67.927834
-9.462865 -85.839813 65.915379
-8.717686 -85.871178 66.315712
-9.273864 -85.10093 67.160458
-9.702994 -86.444168 64.601669
-9.462865 -85.839813 65.915379
-5.120674 -89.212379 31.182882
-4.734158 -88.459382 32.284779
-5.119582 -90.427109 31.302803
-5.120674 -89.212379 31.182882
-4.969551 -90.878014 32.580557
-4.71742 -90.052041 33.696796
-4.780979 -91.279373 33.847727
-5.119582 -90.427109 31.302803
-4.969551 -90.878014 32.580557
-5.5969 -46.517523 63.702307
-5.303168 -46.781719 65.018361
-5.63497 -47.606125 63.086758
-5.779638 -46.227156 62.406748
-5.5969 -46.517523 63.702307
-0.292393 -81.790336 45.669606
-0.198487 -81.87339 46.959237
-0.292393 -81.790336 45.669606
-0.59336 -82.951275 44.65111
-2.135974 -82.754036 36.125777
-1.929871 -83.010673 37.343941
-2.66077 -83.646843 35.120441
-2.371685 -82.439072 34.912241
-2.135974 -82.754036 36.125777
-4.296381 -86.103272 31.992099
-3.779648 -85.309952 33.057071
-4.045592 -86.474762 33.204903
-4.54498 -85.681625 30.776464
-4.296381 -86.103272 31.992099
-9.740234 -93.613129 54.758665
-9.956767 -92.650695 55.532444
-10.97211 -61.367256 83.742779
-11.768857 -60.88166 83.648808
-10.826207 -62.586151 83.113197
-10.135461 -61.812519 83.750019
-10.97211 -61.367256 83.742779
-12.386892 -62.922924 82.471783
-12.519823 -61.660389 82.944859
-11.490787 -63.36786 82.539444
-12.386892 -62.922924 82.471783
-10.654138 -63.813123 82.546684
-10.826207 -62.586151 83.113197
-11.490787 -63.36786 82.539444
-10.448733 -65.001556 81.88945
-9.784153 -64.219846 82.463203
-10.654138 -63.813123 82.546684
-10.221205 -66.199607 81.305412
-10.448733 -65.001556 81.88945
-9.330792 -66.574745 81.130527
-10.221205 -66.199607 81.305412
-3.252567 -36.631951 49.84176
-3.390746 -38.341805 50.136185
-2.606187 -35.93347 49.230503
-3.252567 -36.631951 49.84176
-2.155011 -37.002121 48.839043
-1.963457 -35.264105 48.602706
-2.606187 -35.93347 49.230503
-0.631679 -41.358303 46.920968
-0.400496 -39.651762 46.746232
-0.944548 -40.223112 47.475491
-0.631679 -41.358303 46.920968
-0.897953 -43.062694 47.041617
-8.7208 -88.051758 62.859751
-8.416553 -87.37188 64.210388
-9.210934 -87.28994 63.719995
-8.309364 -88.888908 61.993113
-8.7208 -88.051758 62.859751
-9.103745 -88.806969 61.50272
-10.216426 -91.769287 56.350188
-9.956767 -92.650695 55.532444
-9.403044 -91.953156 56.991732
-10.216426 -91.769287 56.350188
-10.484267 -90.770035 57.16791
-6.063864 -45.529026 59.91583
-5.980149 -45.891934 61.144735
-5.901425 -46.95285 60.562294
-6.063864 -45.529026 59.91583
-6.141552 -45.116574 58.730744
-6.297409 -41.608198 56.489538
-6.231142 -43.153761 57.041719
-6.197059 -41.070772 55.460804
-6.297409 -41.608198 56.489538
-5.943225 -42.105325 54.983141
-6.197059 -41.070772 55.460804
-5.943225 -42.105325 54.983141
-5.869595 -43.679655 55.466606
-5.409811 -46.201662 55.496004
-5.743614 -45.204315 56.014561
-5.578554 -46.710985 56.532694
-5.181282 -45.684216 54.499329
-5.409811 -46.201662 55.496004
-5.016222 -47.190886 55.017461
-4.87939 -45.114629 53.57394
-5.181282 -45.684216 54.499329
-4.451541 -46.106789 53.12426
-4.543238 -44.547979 52.677414
-4.87939 -45.114629 53.57394
-0.034981 -70.203999 54.895447
0.121632 -71.550385 55.186728
-2.578594 -82.139481 33.722572
-3.133046 -82.9776 32.720185
-4.92377 -95.62072 41.874883
-4.914961 -95.406761 40.617965
-4.626498 -94.413956 41.714914
-5.331152 -96.776359 42.000063
-4.92377 -95.62072 41.874883
-5.042689 -95.783554 43.097012
-5.621633 -97.944198 42.10764
-5.331152 -96.776359 42.000063
-5.866238 -98.025871 43.270981
-5.587015 -96.999916 44.393518
-6.003182 -98.086593 44.442309
-5.621633 -97.944198 42.10764
-5.866238 -98.025871 43.270981
-6.967996 -100.048386 44.348726
-7.328861 -99.865273 45.34738
-9.534729 -94.428253 53.955694
-8.93788 -93.649688 55.371018
-9.740234 -93.613129 54.758665
-9.340952 -95.317124 53.20236
-9.534729 -94.428253 53.955694
-9.164786 -96.035759 52.391243
-8.556209 -95.183448 53.756929
-9.340952 -95.317124 53.20236
-9.748854 -96.951179 51.075854
-10.305003 -97.817429 49.67361
-8.964111 -96.817504 51.630422
-9.164786 -96.035759 52.391243
-9.748854 -96.951179 51.075854
-8.560704 -98.064065 49.992945
-8.792725 -97.415741 50.787956
-9.316157 -98.381248 49.520021
-8.375041 -98.526734 49.100096
-7.851608 -97.561226 50.368031
-8.560704 -98.064065 49.992945
-8.097495 -99.024772 48.249523
-8.375041 -98.526734 49.100096
-3.79026 -55.447685 69.921436
-4.031163 -54.306233 69.238666
-3.951874 -54.430821 70.620957
-3.553733 -56.443452 69.170765
-3.79026 -55.447685 69.921436
-3.474444 -56.568041 70.553055
0.13174 -71.605141 57.832212
0.094842 -71.606331 59.157677
0.211192 -72.879776 58.136343
0.12761 -71.568909 56.507964
0.01126 -70.295464 57.529297
0.13174 -71.605141 57.832212
0.121632 -71.550385 55.186728
0.12761 -71.568909 56.507964
0.364309 -76.834724 55.018163
0.352831 -75.503033 56.064487
0.333166 -76.827396 56.338598
0.381806 -76.836769 53.705111
0.364309 -76.834724 55.018163
0.362141 -78.161133 53.979221
0.370314 -76.823509 52.388525
0.381806 -76.836769 53.705111
0.35355 -78.13977 51.356857
0.370314 -76.823509 52.388525
0.35355 -78.13977 51.356857
0.275731 -79.464729 51.626402
-0.021204 -82.063606 50.839484
0.178682 -80.784397 51.889721
-0.014347 -82.081722 52.142568
-0.061099 -82.012001 49.547905
-0.021204 -82.063606 50.839484
-0.254128 -83.309326 49.800753
-0.112941 -81.962547 48.248272
-0.061099 -82.012001 49.547905
-0.379568 -83.168564 47.220139
-0.198487 -81.87339 46.959237
-0.112941 -81.962547 48.248272
-1.149113 -85.460594 45.15078
-0.866565 -84.200882 44.901018
-0.747661 -84.339119 46.180864
-1.62511 -86.551949 44.106302
-1.149113 -85.460594 45.15078
-1.506207 -86.690186 45.386148
-2.123236 -87.589646 43.067169
-1.766143 -86.360054 42.8318
-1.62511 -86.551949 44.106302
-4.694619 -47.211143 67.708443
-5.04816 -47.007507 66.359016
-4.644407 -48.519806 68.429779
-4.694619 -47.211143 67.708443
-4.481075 -49.788922 69.151825
-4.778883 -49.617183 67.785675
-4.644407 -48.519806 68.429779
-4.386016 -51.027455 69.886013
-4.481075 -49.788922 69.151825
-4.174629 -52.228989 70.601246
-4.404165 -52.087834 69.222954
-4.386016 -51.027455 69.886013
-4.041602 -53.401382 71.320915
-4.174629 -52.228989 70.601246
-3.951874 -54.430821 70.620957
-4.041602 -53.401382 71.320915
-3.402682 -56.74749 73.303207
-3.467747 -56.66345 71.928146
-3.429431 -56.803879 74.653771
-3.398039 -56.846393 75.997467
-3.251274 -57.811016 73.90313
-3.402682 -56.74749 73.303207
-3.429431 -56.803879 74.653771
-3.231543 -59.892701 77.476326
-3.237668 -58.90238 77.048717
-2.991825 -60.902766 76.618443
-3.231543 -59.892701 77.476326
-3.179686 -60.882723 77.847897
-3.423539 -63.727365 78.487648
-3.277309 -62.801827 78.362759
-3.683628 -62.707449 79.389584
-8.860466 -60.266457 84.867348
-9.515401 -61.033299 84.291756
-8.177123 -60.690741 84.650112
-8.860466 -60.266457 84.867348
-7.456652 -61.069782 84.362595
-8.177123 -60.690741 84.650112
-8.028966 -61.852015 83.916393
-6.831624 -61.422035 83.929787
-7.456652 -61.069782 84.362595
-6.172536 -61.730147 83.436718
-6.831624 -61.422035 83.929787
-6.649407 -62.539168 83.135807
-5.619341 -62.00284 82.79327
-6.172536 -61.730147 83.436718
-5.407089 -63.080213 81.950981
-5.03611 -62.235774 82.101513
-5.619341 -62.00284 82.79327
-8.837742 -72.032002 78.001156
-8.243623 -71.218308 78.361897
-9.403374 -72.847752 77.692066
-10.001564 -73.634484 77.320453
-8.520094 -73.195572 77.341606
-8.837742 -72.032002 78.001156
-9.403374 -72.847752 77.692066
-10.223444 -79.893494 73.439942
-9.427432 -80.324844 73.071498
-9.724811 -79.414589 73.806942
-10.223444 -79.893494 73.439942
-10.949349 -79.490948 73.68351
-4.742038 -93.27295 36.605305
-4.514686 -92.041352 36.417686
-4.445707 -92.393677 37.709637
-4.855247 -94.865021 38.074503
-4.645373 -93.912636 39.177626
-4.827562 -95.152382 39.354873
-4.810572 -94.530296 36.78293
-4.855247 -94.865021 38.074503
-4.742038 -93.27295 36.605305
-4.810572 -94.530296 36.78293
-1.282771 -34.569057 48.020893
-1.733947 -33.500406 48.412353
-1.963457 -35.264105 48.602706
0.11358 -36.176784 46.441411
-0.469018 -36.772766 47.12995
-0.130766 -37.920589 46.612216
0.374233 -34.407997 46.301617
0.11358 -36.176784 46.441411
0.621656 -32.618459 46.143917
0.02275 -33.239423 46.801445
0.374233 -34.407997 46.301617
0.866657 -30.800799 46.007228
0.621656 -32.618459 46.143917
-0.229341 -68.888386 54.584383
-0.18723 -68.943619 55.893984
-0.034981 -70.203999 54.895447
-0.449996 -67.523632 54.29814
-0.229341 -68.888386 54.584383
-0.700784 -66.19334 53.984682
-0.632378 -66.297714 55.269463
-0.449996 -67.523632 54.29814
-0.958309 -64.8022 53.709429
-0.700784 -66.19334 53.984682
-1.240177 -63.447415 53.397001
-1.165033 -63.612637 54.643577
-0.958309 -64.8022 53.709429
-1.501417 -62.022824 53.135576
-1.240177 -63.447415 53.397001
-1.784104 -60.634935 52.825209
-1.729588 -60.869963 54.020782
-1.501417 -62.022824 53.135576
-2.015378 -59.172493 52.577181
-1.784104 -60.634935 52.825209
-2.268886 -57.745401 52.267956
-2.265783 -58.054984 53.40119
-2.015378 -59.172493 52.577181
-2.442416 -56.24386 52.030068
-2.268886 -57.745401 52.267956
-2.642313 -54.77422 51.720144
-2.719189 -55.158251 52.782042
-2.442416 -56.24386 52.030068
-2.741059 -53.234808 51.487486
-2.642313 -54.77422 51.720144
-2.87184 -51.721379 51.17563
-3.049867 -52.17518 52.160263
-2.741059 -53.234808 51.487486
-2.890986 -50.146356 50.943461
-2.87184 -51.721379 51.17563
-2.582179 -51.205984 50.270683
-2.19588 -47.499832 48.944016
-2.546229 -48.022054 49.804331
-2.250977 -49.108739 49.178198
-1.74213 -46.934799 48.154856
-2.037383 -45.848114 48.780989
-2.19588 -47.499832 48.944016
-1.344842 -46.42516 47.316578
-1.74213 -46.934799 48.154856
-1.101904 -44.739408 47.212418
-1.344842 -46.42516 47.316578
3 301 300 78
3 302 78 303
3 1 83 81
3 0 86 84
3 1 88 87
3 1 81 88
3 2 92 90
3 3 95 93
3 2 98 96
3 2 90 98
3 5 101 100
3 5 103 101
3 4 106 104
3 6 109 107
3 8 112 110
3 6 115 113
3 6 107 115
3 10 119 117
3 10 121 119
3 305 304 122
3 11 125 123
3 12 128 126
3 12 306 308
3 308 307 128
3 306 307 308
3 7 131 129
3 13 134 132
3 15 137 135
3 15 139 137
3 9 142 140
3 16 145 143
3 16 147 145
3 16 149 147
3 11 152 150
3 11 123 152
3 309 155 310
3 311 158 312
3 313 312 156
3 311 312 313
3 315 314 158
3 316 162 317
3 14 165 163
3 17 168 166
3 17 170 168
3 18 173 171
3 319 318 79
3 20 176 174
3 18 177 80
3 18 171 177
3 22 320 322
3 320 178 321
3 320 321 322
3 324 323 82
3 23 325 327
3 325 179 326
3 325 326 327
3 25 180 85
3 25 181 180
3 329 328 182
3 26 330 331
3 26 332 333
3 26 334 336
3 334 183 335
3 334 335 336
3 22 184 89
3 22 337 339
3 339 338 184
3 337 338 339
3 28 187 185
3 30 188 91
3 30 189 188
3 31 192 190
3 33 193 94
3 33 194 193
3 34 197 195
3 36 198 97
3 36 199 198
3 36 201 199
3 28 202 99
3 28 185 202
3 340 203 341
3 39 342 343
3 39 344 346
3 344 204 345
3 344 345 346
3 39 206 204
3 41 207 102
3 41 347 349
3 349 348 207
3 347 348 349
3 42 210 208
3 44 211 105
3 44 212 211
3 45 215 213
3 47 216 108
3 47 217 216
3 19 218 172
3 350 219 351
3 352 220 353
3 354 353 219
3 352 353 354
3 356 355 220
3 48 223 221
3 50 224 111
3 50 225 224
3 21 226 175
3 51 227 114
3 51 228 227
3 51 229 228
3 45 230 116
3 45 213 230
3 24 357 358
3 52 359 361
3 361 360 118
3 359 360 361
3 52 362 364
3 362 231 363
3 362 363 364
3 52 365 367
3 367 366 231
3 365 366 367
3 53 232 120
3 53 233 232
3 27 368 369
3 54 236 234
3 56 237 124
3 56 238 237
3 29 239 186
3 57 240 127
3 57 370 372
3 372 371 240
3 370 371 372
3 57 373 374
3 46 241 214
3 58 242 130
3 58 243 242
3 375 244 376
3 378 377 244
3 59 379 381
3 379 246 380
3 379 380 381
3 61 247 133
3 61 248 247
3 32 249 191
3 62 250 136
3 62 251 250
3 62 252 251
3 63 253 138
3 63 254 253
3 49 255 222
3 64 256 141
3 64 257 256
3 35 258 196
3 65 259 144
3 65 260 259
3 65 261 260
3 66 262 146
3 66 382 384
3 384 383 262
3 382 383 384
3 66 385 386
3 67 263 148
3 67 387 389
3 389 388 263
3 387 388 389
3 37 264 200
3 68 265 151
3 68 266 265
3 68 267 266
3 54 268 153
3 54 234 268
3 390 269 391
3 392 270 393
3 394 393 269
3 392 393 394
3 395 271 396
3 397 272 398
3 399 398 271
3 397 398 399
3 69 273 154
3 69 274 273
3 38 400 402
3 400 275 401
3 400 401 402
3 70 276 157
3 70 277 276
3 70 278 277
3 71 279 159
3 71 280 279
3 71 281 280
3 72 282 160
3 72 283 282
3 73 403 405
3 403 284 404
3 403 404 405
3 73 285 284
3 73 286 285
3 406 287 407
3 408 407 161
3 406 407 408
3 410 409 287
3 55 288 235
3 74 411 412
3 74 413 415
3 413 414 415
3 40 289 205
3 60 290 245
3 75 291 164
3 75 292 291
3 43 293 209
3 76 294 167
3 76 295 294
3 76 296 295
3 77 297 169
3 77 298 297
3 416 299 417
3 419 418 299
3 78 79 18
3 420 79 421
3 422 421 78
3 420 421 422
3 424 423 79
3 425 80 426
3 427 426 20
3 425 426 427
3 78 428 430
3 428 80 429
3 428 429 430
3 78 18 80
3 81 82 22
3 83 82 81
3 83 431 433
3 433 432 82
3 431 432 433
3 84 85 23
3 86 85 84
3 86 25 85
3 87 434 435
3 88 436 438
3 438 437 87
3 436 437 438
3 88 439 441
3 439 26 440
3 439 440 441
3 88 89 26
3 81 89 88
3 81 22 89
3 90 91 28
3 92 91 90
3 92 30 91
3 93 94 31
3 95 94 93
3 95 33 94
3 96 97 34
3 98 97 96
3 98 36 97
3 98 99 36
3 90 99 98
3 90 28 99
3 100 442 443
3 101 444 446
3 446 445 100
3 444 445 446
3 101 447 449
3 447 39 448
3 447 448 449
3 101 102 39
3 103 102 101
3 103 41 102
3 104 105 42
3 106 105 104
3 106 44 105
3 107 108 45
3 109 108 107
3 109 47 108
3 451 450 19
3 110 111 48
3 112 111 110
3 112 50 111
3 113 114 21
3 115 114 113
3 115 51 114
3 115 116 51
3 107 116 115
3 107 45 116
3 117 118 24
3 119 118 117
3 119 52 118
3 119 120 52
3 121 120 119
3 121 53 120
3 122 452 454
3 454 453 27
3 452 453 454
3 456 455 122
3 123 124 54
3 125 124 123
3 125 56 124
3 126 127 29
3 128 127 126
3 128 57 127
3 128 457 459
3 459 458 57
3 457 458 459
3 461 460 128
3 129 130 46
3 131 130 129
3 131 58 130
3 132 133 59
3 134 133 132
3 134 61 133
3 135 136 32
3 137 136 135
3 137 62 136
3 137 138 62
3 139 138 137
3 139 63 138
3 140 141 49
3 142 141 140
3 142 64 141
3 143 144 35
3 145 144 143
3 145 65 144
3 145 146 65
3 147 146 145
3 147 66 146
3 147 148 66
3 149 148 147
3 149 67 148
3 150 151 37
3 152 151 150
3 152 68 151
3 152 153 68
3 123 153 152
3 123 54 153
3 462 154 463
3 155 464 466
3 464 154 465
3 464 465 466
3 155 69 154
3 156 157 38
3 158 157 156
3 158 70 157
3 158 159 70
3 467 159 468
3 469 468 158
3 467 468 469
3 470 71 471
3 472 471 159
3 470 471 472
3 473 160 474
3 475 474 71
3 473 474 475
3 476 160 477
3 478 72 479
3 480 479 160
3 478 479 480
3 481 73 482
3 483 161 484
3 485 484 73
3 483 484 485
3 486 161 487
3 489 488 161
3 491 490 55
3 162 492 493
3 162 494 496
3 494 74 495
3 494 495 496
3 498 497 40
3 163 164 60
3 165 164 163
3 165 75 164
3 166 167 43
3 168 167 166
3 168 76 167
3 168 169 76
3 170 169 168
3 170 77 169
3 171 172 6
3 173 172 171
3 173 19 172
3 79 173 18
3 499 173 500
3 501 500 79
3 499 500 501
3 502 19 503
3 504 503 173
3 502 503 504
3 506 505 19
3 174 175 8
3 176 175 174
3 176 21 175
3 80 176 20
3 177 176 80
3 177 21 176
3 177 113 21
3 171 113 177
3 171 6 113
3 178 507 508
3 178 509 510
3 82 178 22
3 511 178 512
3 513 512 82
3 511 512 513
3 515 514 178
3 179 516 517
3 179 518 520
3 518 24 519
3 518 519 520
3 85 179 23
3 180 179 85
3 180 24 179
3 180 117 24
3 181 117 180
3 181 10 117
3 182 521 522
3 524 523 182
3 183 525 526
3 183 527 529
3 527 27 528
3 527 528 529
3 89 183 26
3 184 183 89
3 184 27 183
3 184 122 27
3 530 122 531
3 532 531 184
3 530 531 532
3 534 533 122
3 185 186 11
3 187 186 185
3 187 29 186
3 91 187 28
3 188 187 91
3 188 29 187
3 188 126 29
3 189 126 188
3 189 12 126
3 536 535 7
3 190 191 13
3 192 191 190
3 192 32 191
3 94 192 31
3 193 192 94
3 193 32 192
3 193 135 32
3 194 135 193
3 194 15 135
3 195 196 9
3 197 196 195
3 197 35 196
3 97 197 34
3 198 197 97
3 198 35 197
3 198 143 35
3 199 143 198
3 199 16 143
3 199 200 16
3 201 200 199
3 201 37 200
3 99 201 36
3 202 201 99
3 202 37 201
3 202 150 37
3 185 150 202
3 185 11 150
3 203 537 538
3 203 539 541
3 539 38 540
3 539 540 541
3 542 203 543
3 544 203 545
3 546 38 547
3 548 547 203
3 546 547 548
3 549 156 550
3 551 550 38
3 549 550 551
3 552 156 553
3 555 554 156
3 204 556 557
3 204 558 559
3 204 560 562
3 560 205 561
3 560 561 562
3 206 205 204
3 206 40 205
3 102 206 39
3 207 206 102
3 207 40 206
3 207 563 565
3 565 564 40
3 563 564 565
3 567 566 207
3 208 209 14
3 210 209 208
3 210 43 209
3 105 210 42
3 211 210 105
3 211 43 210
3 211 166 43
3 212 166 211
3 212 17 166
3 213 214 2
3 215 214 213
3 215 46 214
3 108 215 45
3 216 215 108
3 216 46 215
3 216 129 46
3 217 129 216
3 217 7 129
3 172 109 6
3 218 109 172
3 218 47 109
3 568 218 569
3 570 569 19
3 568 569 570
3 219 571 573
3 571 218 572
3 571 572 573
3 219 47 218
3 219 217 47
3 220 217 219
3 220 7 217
3 220 574 576
3 576 575 7
3 574 575 576
3 578 577 220
3 221 222 3
3 223 222 221
3 223 49 222
3 111 223 48
3 224 223 111
3 224 49 223
3 224 140 49
3 225 140 224
3 225 9 140
3 175 112 8
3 226 112 175
3 226 50 112
3 114 226 21
3 227 226 114
3 227 50 226
3 227 225 50
3 228 225 227
3 228 9 225
3 228 195 9
3 229 195 228
3 229 34 195
3 116 229 51
3 230 229 116
3 230 34 229
3 230 96 34
3 213 96 230
3 213 2 96
3 118 579 581
3 581 580 24
3 579 580 581
3 583 582 118
3 231 584 585
3 231 586 587
3 231 588 589
3 591 590 231
3 120 592 594
3 594 593 52
3 592 593 594
3 232 595 597
3 597 596 120
3 595 596 597
3 232 598 599
3 232 600 602
3 600 100 601
3 600 601 602
3 233 100 232
3 233 5 100
3 604 603 4
3 606 605 27
3 234 235 1
3 236 235 234
3 236 55 235
3 124 236 54
3 237 236 124
3 237 55 236
3 237 607 609
3 609 608 55
3 607 608 609
3 238 610 612
3 612 611 237
3 610 611 612
3 238 613 614
3 186 125 11
3 239 125 186
3 239 56 125
3 127 239 29
3 240 239 127
3 240 56 239
3 240 238 56
3 615 238 616
3 617 616 240
3 615 616 617
3 619 618 238
3 621 620 57
3 214 92 2
3 241 92 214
3 241 30 92
3 130 241 46
3 242 241 130
3 242 30 241
3 242 189 30
3 243 189 242
3 243 12 189
3 622 131 623
3 624 623 7
3 622 623 624
3 625 131 626
3 627 58 628
3 629 628 131
3 627 628 629
3 244 630 631
3 244 632 634
3 632 58 633
3 632 633 634
3 244 243 58
3 635 243 636
3 637 636 244
3 635 636 637
3 638 12 639
3 640 639 243
3 638 639 640
3 642 641 12
3 643 245 644
3 645 644 0
3 643 644 645
3 246 646 648
3 646 245 647
3 646 647 648
3 246 60 245
3 133 246 59
3 247 246 133
3 247 60 246
3 247 163 60
3 248 163 247
3 248 14 163
3 191 134 13
3 249 134 191
3 249 61 134
3 136 249 32
3 250 249 136
3 250 61 249
3 250 248 61
3 251 248 250
3 251 14 248
3 251 208 14
3 252 208 251
3 252 42 208
3 138 252 62
3 253 252 138
3 253 42 252
3 253 104 42
3 254 104 253
3 254 4 104
3 222 95 3
3 255 95 222
3 255 33 95
3 141 255 49
3 256 255 141
3 256 33 255
3 256 194 33
3 257 194 256
3 257 15 194
3 196 142 9
3 258 142 196
3 258 64 142
3 144 258 35
3 259 258 144
3 259 64 258
3 259 257 64
3 260 257 259
3 260 15 257
3 260 139 15
3 261 139 260
3 261 63 139
3 146 261 65
3 262 261 146
3 262 63 261
3 262 254 63
3 649 254 650
3 651 650 262
3 649 650 651
3 652 4 653
3 654 653 254
3 652 653 654
3 656 655 4
3 148 657 659
3 659 658 66
3 657 658 659
3 263 660 662
3 662 661 148
3 660 661 662
3 263 663 664
3 263 665 666
3 668 667 263
3 200 149 16
3 264 149 200
3 264 67 149
3 151 264 37
3 265 264 151
3 265 67 264
3 265 669 671
3 671 670 67
3 669 670 671
3 266 672 674
3 674 673 265
3 672 673 674
3 266 675 676
3 266 677 679
3 677 182 678
3 677 678 679
3 267 182 266
3 267 680 682
3 682 681 182
3 680 681 682
3 153 267 68
3 268 267 153
3 268 683 685
3 685 684 267
3 683 684 685
3 268 686 688
3 686 87 687
3 686 687 688
3 234 87 268
3 234 1 87
3 689 23 690
3 691 23 692
3 693 84 694
3 695 694 23
3 693 694 695
3 696 84 697
3 698 0 699
3 700 699 84
3 698 699 700
3 701 0 702
3 704 703 0
3 705 59 706
3 269 707 708
3 269 709 711
3 709 59 710
3 709 710 711
3 269 132 59
3 270 132 269
3 270 13 132
3 712 270 713
3 271 714 716
3 714 270 715
3 714 715 716
3 271 13 270
3 271 190 13
3 272 190 271
3 272 31 190
3 154 717 719
3 717 272 718
3 717 718 719
3 273 272 154
3 273 31 272
3 273 93 31
3 274 93 273
3 274 3 93
3 275 720 721
3 275 722 723
3 157 275 38
3 276 275 157
3 276 724 726
3 726 725 275
3 724 725 726
3 276 727 728
3 277 729 731
3 731 730 276
3 729 730 731
3 277 732 733
3 277 734 736
3 734 155 735
3 734 735 736
3 278 155 277
3 278 69 155
3 159 278 70
3 279 278 159
3 279 69 278
3 279 274 69
3 280 274 279
3 280 3 274
3 280 221 3
3 281 221 280
3 281 48 221
3 160 281 71
3 282 281 160
3 282 48 281
3 282 110 48
3 283 110 282
3 283 8 110
3 737 72 738
3 284 739 740
3 284 741 743
3 741 72 742
3 741 742 743
3 284 283 72
3 285 283 284
3 285 8 283
3 285 174 8
3 286 174 285
3 286 20 174
3 161 286 73
3 287 286 161
3 287 20 286
3 287 744 746
3 746 745 20
3 744 745 746
3 748 747 287
3 235 83 1
3 288 83 235
3 288 749 751
3 751 750 83
3 749 750 751
3 752 288 753
3 754 753 55
3 752 753 754
3 755 288 756
3 758 757 288
3 205 759 761
3 759 162 760
3 759 760 761
3 289 162 205
3 289 74 162
3 762 289 763
3 764 763 40
3 762 763 764
3 765 289 766
3 767 74 768
3 769 768 289
3 767 768 769
3 771 770 74
3 245 86 0
3 290 86 245
3 290 25 86
3 164 290 60
3 291 290 164
3 291 25 290
3 291 181 25
3 292 181 291
3 292 10 181
3 209 165 14
3 293 165 209
3 293 75 165
3 167 293 43
3 294 293 167
3 294 75 293
3 294 292 75
3 295 292 294
3 295 10 292
3 295 121 10
3 296 121 295
3 296 53 121
3 169 296 76
3 297 296 169
3 297 53 296
3 297 233 53
3 298 233 297
3 298 5 233
3 772 106 773
3 774 773 4
3 772 773 774
3 775 106 776
3 777 44 778
3 779 778 106
3 777 778 779
3 780 44 781
3 782 212 783
3 784 783 44
3 782 783 784
3 785 212 786
3 787 17 788
3 789 788 212
3 787 788 789
3 790 17 791
3 792 170 793
3 794 793 17
3 792 793 794
3 795 170 796
3 797 77 798
3 799 798 170
3 797 798 799
3 800 77 801
3 802 298 803
3 804 803 77
3 802 803 804
3 299 805 807
3 805 298 806
3 805 806 807
3 299 5 298
3 299 103 5
3 808 103 809
3 810 809 299
3 808 809 810
3 811 41 812
3 813 812 103
3 811 812 813
3 814 41 815
3 817 816 41
