ply
format ascii 1.0
element vertex 665
property float x
property float y
property float z
element face 719
property list uchar int vertex_index
end_header
33.749649 -60.447842 56.332909
38.294834 -47.216866 51.11499
54.75531 -52.193531 48.158661
38.095104 -62.993671 51.370918
35.175903 -54.638546 53.348465
41.726608 -56.387402 48.658722
63.288826 -29.135048 46.9468
58.153072 -35.688576 50.810493
44.337627 -39.800705 51.59536
51.873646 -42.390968 50.096649
46.104839 -49.182121 48.015335
32.650673 -55.325191 62.293198
33.640358 -47.715473 59.406143
59.823509 -45.372002 49.84993
35.212448 -61.479546 53.54232
36.149734 -65.676117 53.210159
33.87405 -63.663158 55.898865
34.364853 -57.911449 54.967422
36.515747 -58.615379 51.767296
57.829395 -30.816097 50.561684
54.674362 -34.151932 51.322388
41.009239 -43.448776 51.057022
44.684074 -44.312164 49.278549
41.88311 -47.917534 48.841621
44.157181 -61.324924 49.277763
46.150311 -57.781826 48.247894
32.783657 -51.550747 60.7463
63.961235 -33.785286 48.053635
65.550179 -30.738344 44.898945
53.136375 -47.339306 49.172897
55.979862 -43.993622 50.356178
57.179321 -48.807957 49.088737
42.041367 -64.681976 50.499405
36.378643 -51.007847 51.936028
39.628971 -51.621685 49.196945
37.908073 -55.257996 50.266014
39.91695 -59.853901 49.875992
60.605087 -27.56864 48.737709
60.959946 -32.329895 49.447952
61.687065 -37.118721 50.115494
51.291225 -37.49733 51.088821
47.888275 -40.857765 50.216095
48.844193 -45.729065 48.883873
50.540039 -50.714321 48.096802
43.738102 -52.770187 47.940857
48.228569 -54.203594 47.750244
52.57843 -55.628113 47.778496
33.260799 -58.097515 58.942284
32.897999 -61.539082 59.451904
32.482662 -59.088509 63.358231
35.581139 -47.192764 54.806671
34.178684 -51.015198 55.982506
33.576859 -54.669441 57.559883
68.47789 -15.700169 34.823189
65.107826 -26.168404 43.607948
55.04586 -39.065025 50.9412
58.921211 -40.578461 50.849731
62.464859 -41.86441 49.718254
34.295181 -60.875961 54.987312
34.552719 -62.654972 54.610992
33.795521 -61.846298 56.117508
34.022079 -59.330181 55.721321
34.779125 -59.627293 54.087639
39.559013 -45.32114 50.99292
41.301807 -45.622452 49.787338
39.988129 -47.483738 49.785416
46.378548 -62.058411 49.245323
53.922066 -49.78743 48.67337
55.211739 -48.10759 49.246437
55.934448 -50.500992 48.593689
39.974842 -63.833359 50.787651
40.888451 -66.249313 51.14991
38.904766 -65.323151 51.535431
35.138096 -66.829407 54.320213
35.452808 -69.102356 54.310204
35.705299 -52.855732 52.58989
37.066505 -53.083542 50.941093
36.390396 -54.872791 51.632515
37.286423 -60.753845 51.429634
38.074684 -59.187366 50.638794
39.018501 -61.474174 50.591461
40.994179 -62.246803 50.095917
57.917015 -33.243496 50.651093
59.370888 -31.577808 49.986839
59.607704 -33.99799 50.284218
61.296928 -34.72448 49.852295
59.947559 -36.423981 50.551392
47.790955 -38.518555 51.143471
46.043953 -40.245422 50.714996
45.280724 -46.714241 48.518112
46.723885 -44.972473 48.939758
47.4314 -47.436985 48.368492
49.622627 -48.219101 48.426735
48.323853 -49.935974 47.99493
40.605946 -53.971348 48.758949
41.602421 -52.142021 48.396187
42.694454 -54.58569 48.216274
48.394073 -58.489929 48.246361
47.167221 -55.987797 47.907036
49.405876 -56.702778 47.926865
50.450779 -54.933609 47.797604
51.558449 -57.383591 47.901878
32.993221 -56.731064 60.596878
32.877548 -58.524849 61.116768
32.612476 -57.199928 62.927483
35.526226 -45.466724 56.639824
34.53484 -47.400856 57.035561
34.753937 -49.1171 55.316757
33.840752 -49.325428 57.60659
32.674736 -53.445652 61.535263
33.183029 -53.09705 59.10788
33.072109 -54.929302 59.897873
33.413094 -56.408535 58.319832
32.398983 -62.235748 61.418472
32.67429 -63.418526 59.344147
66.65255 -20.970613 39.275902
63.069893 -26.805841 46.416168
64.256989 -27.626049 45.359875
51.477592 -39.928246 50.557457
53.128876 -38.267075 50.936188
53.453568 -40.732922 50.609467
57.958336 -44.721378 50.265648
57.452831 -42.297295 50.732689
59.371578 -42.995651 50.508629
60.763687 -41.250813 50.469002
61.167221 -43.622189 49.928734
36.48774 -62.197575 52.297417
37.138149 -64.397385 52.234039
35.670464 -63.501411 53.27494
34.833702 -64.661903 54.405853
34.743084 -56.332558 54.158684
35.807587 -56.579208 52.409424
35.279556 -58.175674 53.234612
35.863033 -60.12376 52.616051
56.291866 -32.479172 51.077034
56.375801 -34.921726 51.022507
42.614632 -41.608253 51.274734
44.358719 -42.00116 50.301628
42.767616 -43.792946 49.97287
43.221794 -46.096127 48.970459
43.939198 -48.495384 48.269043
42.933212 -58.845947 48.856064
43.901745 -57.069256 48.346336
45.155876 -59.567429 48.722015
47.393654 -60.280792 48.704803
32.22263 -55.826206 64.68116
33.078171 -49.638985 60.013657
32.396717 -50.029621 62.45533
32.217239 -51.959602 63.191063
65.880096 -20.083733 40.778061
65.846184 -22.412874 41.211014
63.598045 -31.461334 47.532639
64.521935 -29.929123 45.986389
64.844276 -32.222351 46.590454
52.440201 -44.867565 49.645973
53.935081 -43.206421 50.250465
54.533508 -45.670403 49.802559
56.562561 -46.423313 49.812859
58.482491 -47.101021 49.541428
37.785973 -66.703705 52.361382
37.234814 -49.119827 51.433556
38.84444 -49.362625 49.984528
37.874863 -51.237816 50.378555
38.71106 -53.461437 49.658623
39.704662 -55.772392 49.279259
37.187897 -56.984585 50.979485
38.871372 -57.519268 49.91684
40.810432 -58.151249 49.224571
41.973179 -60.578484 49.449173
43.12664 -63.035442 49.876274
61.952911 -28.348249 47.839104
59.27034 -29.17519 49.776901
60.719551 -29.941307 49.041016
62.190289 -30.704201 48.323761
62.520531 -33.063374 48.835526
62.902626 -35.423325 49.24144
63.293785 -37.779999 49.398682
51.343433 -35.114586 51.762169
49.567734 -36.811073 51.514862
49.578461 -39.171558 50.699585
49.843597 -41.590797 50.042221
46.247959 -42.567833 49.716431
48.251549 -43.267776 49.47403
50.330429 -44.051373 49.489815
50.997894 -46.533371 49.004936
51.80278 -49.015877 48.572968
52.700104 -51.477966 48.194611
40.683689 -49.76561 48.917221
42.711559 -50.309566 48.226509
44.872944 -50.963184 47.868542
44.90633 -55.270176 47.964722
45.969528 -53.470211 47.758919
47.106323 -51.687908 47.76516
49.349808 -52.443298 47.81192
51.54512 -53.191395 47.888283
53.639587 -53.899273 47.869019
54.561626 -56.260479 47.576782
33.50526 -59.385597 57.447891
33.351749 -60.918465 57.677734
33.092091 -59.782078 59.333946
32.683716 -60.348072 61.394958
32.18309 -57.772972 65.249985
38.016941 -45.202988 52.573166
36.67905 -45.259804 54.479881
36.826035 -47.123367 52.807236
35.873848 -49.041431 53.231865
35.152508 -50.936211 53.827255
34.629505 -52.785534 54.552544
33.411404 -51.227695 58.317482
33.808483 -52.870136 56.753311
34.253487 -54.569344 55.350555
33.966671 -56.271023 56.153404
33.722298 -57.877224 56.884674
33.25444 -62.640587 57.603615
67.636971 -17.16787 36.853157
64.99659 -23.853304 43.065361
65.864601 -24.74272 41.733063
65.299164 -28.463554 44.24485
65.950943 -27.04731 42.355965
66.509911 -25.652618 40.362762
52.998951 -35.825523 51.314453
54.770821 -36.59864 51.10807
56.622467 -37.382118 51.023087
55.462269 -41.535355 50.718193
56.995277 -39.845547 50.962097
58.502113 -38.13784 50.918449
60.346603 -38.845776 50.652306
62.087608 -39.503662 50.103439
57.800087 -51.131657 48.214409
60.25544 -47.689518 48.882248
61.535828 -45.939812 49.017273
34.7819 -68.483345 54.935208
35.295452 -67.965881 54.315208
34.624544 -67.34687 54.940212
34.18849 -68.987366 55.489502
34.859398 -69.606377 54.864498
34.7819 -68.483345 54.935208
45.19079 -40.023063 51.155178
46.091375 -39.133572 51.335743
45.238213 -38.911213 51.775925
49.984127 -57.932525 48.071979
48.899974 -57.596353 48.086613
49.478226 -58.826101 48.231728
51.060414 -58.272932 48.059486
50.482163 -57.043185 47.914372
49.984127 -57.932525 48.071979
52.076825 -58.578383 47.971901
51.060414 -58.272932 48.059486
34.079588 -46.751709 59.186214
33.62141 -46.949829 60.388599
34.087599 -47.558165 58.220852
34.526829 -46.5944 58.000923
34.079588 -46.751709 59.186214
32.218291 -63.217793 61.318741
32.107826 -62.606459 62.436211
66.934533 -21.428189 38.511143
66.604889 -22.147132 39.523121
33.926494 -64.680009 55.805279
34.40632 -65.179382 55.058773
34.353876 -64.162531 55.152359
55.483114 -33.315552 51.199711
55.534797 -32.110484 51.376571
54.726045 -32.946864 51.499248
47.973203 -61.514105 48.961925
46.886101 -61.169601 48.975063
47.465651 -62.402914 49.232185
48.481258 -60.61775 48.690303
47.973203 -61.514105 48.961925
32.226703 -49.282133 63.347424
32.616598 -49.066374 62.143894
31.925402 -52.195543 64.388931
31.970396 -51.216194 64.026364
31.678559 -51.452135 65.224232
32.20755 -52.925258 63.57745
31.925402 -52.195543 64.388931
65.420658 -20.809883 41.704491
65.421478 -19.668383 41.516526
65.403702 -21.974453 41.920967
65.86314 -21.248303 40.994537
65.420658 -20.809883 41.704491
42.516144 -65.91301 50.742554
43.119269 -65.093841 50.451088
41.293976 -67.47731 51.364616
40.278217 -66.986206 51.49704
43.119269 -65.093841 50.451088
43.661905 -64.270575 50.139522
42.584004 -63.858709 50.18784
61.218494 -26.78648 48.103893
60.609966 -26.400241 48.659714
61.278999 -27.958444 48.288407
61.892406 -27.176285 47.654591
61.218494 -26.78648 48.103893
58.549867 -29.995643 50.169292
58.586254 -28.799992 50.199913
57.865781 -29.620445 50.592304
48.773724 -36.537799 51.90305
49.696005 -35.667107 52.02494
32.350589 -60.04963 63.447506
32.451116 -60.679411 62.465869
32.583189 -59.718291 62.376595
31.94475 -57.088164 66.126324
32.20286 -56.799589 64.965573
31.96452 -56.11478 65.841912
38.027189 -44.267729 53.456253
38.723942 -44.249724 52.549633
32.922358 -63.992329 58.378189
32.553146 -64.416668 59.215687
68.870769 -14.964901 33.806709
68.553158 -14.604508 34.585804
68.715812 -16.09936 34.002371
68.870769 -14.964901 33.806709
67.202927 -17.898657 37.849472
67.245094 -16.759458 37.628094
65.052208 -25.010854 43.336655
64.537712 -24.582419 43.93861
64.593331 -25.739968 44.209903
66.232033 -27.495123 41.692737
66.023231 -28.184048 42.692604
66.511517 -26.797777 40.696136
66.230427 -26.349964 41.359364
66.232033 -27.495123 41.692737
66.678547 -26.111019 39.65237
66.511517 -26.797777 40.696136
63.0621 -40.993336 49.453491
62.873474 -39.812962 49.646084
62.276234 -40.684036 49.910847
58.094836 -52.255448 47.722226
57.231609 -51.982901 48.0418
57.526358 -53.106691 47.549616
60.452175 -48.810396 48.268766
59.628216 -48.554636 48.733379
62.301438 -46.183649 48.371144
61.695198 -47.061963 48.395138
62.165925 -45.059864 48.968193
62.301438 -46.183649 48.371144
53.881633 -33.78825 51.575977
54.726045 -32.946864 51.499248
45.849852 -62.931939 49.532959
45.267865 -61.691668 49.261543
44.739169 -62.565195 49.549179
46.932751 -63.291821 49.519279
45.849852 -62.931939 49.532959
47.465651 -62.402914 49.232185
46.932751 -63.291821 49.519279
64.574661 -34.148485 47.544399
64.149543 -34.946759 48.209862
39.286375 -66.523125 51.689801
40.278217 -66.986206 51.49704
39.896608 -65.786232 51.34267
35.884135 -67.397484 53.802639
36.389954 -66.820839 53.247612
35.643915 -66.252762 53.765186
36.04149 -68.533958 53.797635
35.884135 -67.397484 53.802639
35.295452 -67.965881 54.315208
36.267179 -69.716926 53.867798
36.04149 -68.533958 53.797635
35.60462 -70.269363 54.310085
36.267179 -69.716926 53.867798
35.60462 -70.269363 54.310085
34.859398 -69.606377 54.864498
59.958458 -27.188904 49.228313
60.609966 -26.400241 48.659714
46.964877 -38.270138 51.549981
47.885334 -37.39154 51.717354
46.917454 -39.381988 50.929233
46.964877 -38.270138 51.549981
46.091375 -39.133572 51.335743
52.564398 -57.693915 47.809011
53.074388 -56.816175 47.747321
52.068439 -56.505852 47.840187
52.564398 -57.693915 47.809011
52.076825 -58.578383 47.971901
35.022522 -45.627335 57.803055
35.624477 -44.66464 57.673794
35.030533 -46.43379 56.837693
35.022522 -45.627335 57.803055
34.526829 -46.5944 58.000923
32.355944 -63.809182 60.281578
32.536637 -62.827137 60.38131
32.218291 -63.217793 61.318741
32.553146 -64.416668 59.215687
32.355944 -63.809182 60.281578
68.120525 -15.30808 35.603779
68.553158 -14.604508 34.585804
67.04446 -20.240454 38.278181
66.710717 -19.800028 39.060845
67.326443 -20.698031 37.513422
67.04446 -20.240454 38.278181
66.934533 -21.428189 38.511143
63.574364 -26.058687 45.614013
63.013458 -25.644409 46.211496
64.167912 -26.468791 45.085867
63.574364 -26.058687 45.614013
63.663441 -27.215945 45.888022
64.682408 -26.897226 44.483912
64.593331 -25.739968 44.209903
64.167912 -26.468791 45.085867
65.822849 -30.029566 43.964094
65.914032 -31.15465 44.274382
34.558517 -66.263134 55.015953
34.985899 -65.745655 54.363033
34.40632 -65.179382 55.058773
34.624544 -67.34687 54.940212
34.558517 -66.263134 55.015953
57.108522 -30.444126 50.919327
57.865781 -29.620445 50.592304
56.339758 -31.275664 51.177002
55.534797 -32.110484 51.376571
57.060631 -31.647634 50.819359
57.108522 -30.444126 50.919327
56.339758 -31.275664 51.177002
48.981468 -59.722319 48.461083
47.893863 -59.38536 48.475582
48.481258 -60.61775 48.690303
49.478226 -58.826101 48.231728
48.981468 -59.722319 48.461083
32.210245 -54.85856 64.322498
32.436651 -55.575699 63.487179
32.424267 -54.608053 63.128518
31.946465 -55.117296 65.506992
32.210245 -54.85856 64.322498
31.96452 -56.11478 65.841912
31.946465 -55.117296 65.506992
33.238418 -47.9093 60.619301
33.62141 -46.949829 60.388599
32.957325 -48.871056 60.923057
33.359264 -48.677229 59.7099
33.238418 -47.9093 60.619301
32.737444 -49.834303 61.234493
32.957325 -48.871056 60.923057
32.616598 -49.066374 62.143894
32.060135 -50.251204 63.658497
32.226703 -49.282133 63.347424
32.306978 -50.994611 62.823196
32.060135 -50.251204 63.658497
31.970396 -51.216194 64.026364
32.436299 -53.668284 62.74955
32.445988 -52.702627 62.363163
32.20755 -52.925258 63.57745
32.424267 -54.608053 63.128518
32.662705 -54.385421 61.914231
32.436299 -53.668284 62.74955
65.899693 -18.941381 40.572918
65.421478 -19.668383 41.516526
66.324489 -19.356589 39.811924
65.899693 -18.941381 40.572918
66.266323 -20.527173 40.026982
66.710717 -19.800028 39.060845
66.324489 -19.356589 39.811924
66.201706 -22.868263 40.490677
66.604889 -22.147132 39.523121
66.249367 -21.691744 40.243458
65.016181 -33.367018 46.812809
64.402755 -33.003819 47.322045
64.574661 -34.148485 47.544399
65.337993 -32.611801 46.018856
65.016181 -33.367018 46.812809
65.690945 -31.869798 45.173102
65.197227 -31.480348 45.744699
65.337993 -32.611801 46.018856
65.914032 -31.15465 44.274382
65.690945 -31.869798 45.173102
41.939686 -66.696678 51.067807
42.516144 -65.91301 50.742554
41.464909 -65.465644 50.824658
41.939686 -66.696678 51.067807
41.293976 -67.47731 51.364616
38.726979 -67.213402 52.102776
39.286375 -66.523125 51.689801
38.34537 -66.013428 51.948407
37.208073 -67.334633 52.823223
36.967854 -66.189911 52.78577
36.389954 -66.820839 53.247612
38.089156 -67.896263 52.480778
37.208073 -67.334633 52.823223
38.726979 -67.213402 52.102776
38.089156 -67.896263 52.480778
44.223898 -63.420454 49.848434
44.739169 -62.565195 49.549179
43.641911 -62.180183 49.577019
44.223898 -63.420454 49.848434
43.661905 -64.270575 50.139522
62.450897 -26.405081 46.943123
63.013458 -25.644409 46.211496
62.511402 -27.577045 47.127636
62.450897 -26.405081 46.943123
61.892406 -27.176285 47.654591
59.291084 -27.992179 49.74791
58.586254 -28.799992 50.199913
59.937714 -28.371915 49.257305
59.958458 -27.188904 49.228313
59.291084 -27.992179 49.74791
63.620239 -35.765778 48.803764
64.149543 -34.946759 48.209862
63.43193 -34.604305 48.647537
63.815818 -36.944115 48.882385
63.620239 -35.765778 48.803764
63.098205 -36.601662 49.320061
63.993965 -38.10223 48.867809
63.815818 -36.944115 48.882385
55.709221 -52.513838 48.013925
55.171326 -53.36665 47.897419
50.583855 -34.818863 52.148594
51.491472 -33.954745 52.196713
50.455584 -35.962829 51.638515
50.583855 -34.818863 52.148594
49.696005 -35.667107 52.02494
48.679344 -37.664814 51.329166
48.773724 -36.537799 51.90305
47.885334 -37.39154 51.717354
54.613464 -54.219521 47.752598
55.171326 -53.36665 47.897419
54.197449 -53.046402 48.01384
55.074483 -55.400123 47.60648
54.613464 -54.219521 47.752598
54.100606 -55.079876 47.722901
55.460361 -56.534817 47.335262
55.074483 -55.400123 47.60648
54.065986 -57.132358 47.646463
53.570028 -55.944296 47.677639
53.074388 -56.816175 47.747321
54.979157 -57.402261 47.423874
54.065986 -57.132358 47.646463
55.460361 -56.534817 47.335262
54.979157 -57.402261 47.423874
32.30875 -61.623249 62.477626
32.541349 -61.29191 61.406715
32.451116 -60.679411 62.465869
32.107826 -62.606459 62.436211
32.30875 -61.623249 62.477626
31.906245 -58.095203 66.375969
31.94475 -57.088164 66.126324
31.667905 -57.410395 67.252308
32.091462 -58.756586 65.422333
31.906245 -58.095203 66.375969
32.241248 -59.414355 64.476456
32.332876 -58.43074 64.304108
32.091462 -58.756586 65.422333
32.350589 -60.04963 63.447506
32.241248 -59.414355 64.476456
44.485399 -38.760937 52.378754
45.238213 -38.911213 51.775925
43.561061 -39.678198 52.233258
44.485399 -38.760937 52.378754
42.699564 -40.581972 52.072945
43.476129 -40.704479 51.435047
43.561061 -39.678198 52.233258
41.824646 -41.510734 51.957462
42.699564 -40.581972 52.072945
41.02195 -42.430996 51.848606
41.811936 -42.528514 51.165878
41.824646 -41.510734 51.957462
40.220091 -43.372618 51.791561
41.02195 -42.430996 51.848606
39.494978 -44.308799 51.75951
40.284126 -44.384958 51.024971
40.220091 -43.372618 51.791561
38.787977 -45.262064 51.783043
39.494978 -44.308799 51.75951
38.723942 -44.249724 52.549633
36.169626 -44.500211 56.534008
35.624477 -44.66464 57.673794
36.746038 -44.396752 55.454037
36.169626 -44.500211 56.534008
36.102638 -45.363264 55.559852
37.358244 -44.296137 54.40961
36.746038 -44.396752 55.454037
37.347995 -45.231396 53.526523
38.027189 -44.267729 53.456253
37.358244 -44.296137 54.40961
33.212433 -63.603359 57.507923
32.964365 -63.029556 58.473881
32.922358 -63.992329 58.378189
33.522238 -64.114645 56.655548
33.564245 -63.151872 56.75124
33.212433 -63.603359 57.507923
33.926494 -64.680009 55.805279
33.522238 -64.114645 56.655548
67.700066 -16.04193 36.618763
67.245094 -16.759458 37.628094
68.057431 -16.43402 35.838173
68.120525 -15.30808 35.603779
67.700066 -16.04193 36.618763
67.536671 -18.339083 37.066809
67.202927 -17.898657 37.849472
67.921795 -17.594726 36.047713
67.536671 -18.339083 37.066809
67.821495 -18.765939 36.261364
68.342254 -16.860875 35.032729
68.057431 -16.43402 35.838173
67.921795 -17.594726 36.047713
68.715812 -16.09936 34.002371
68.342254 -16.860875 35.032729
64.495228 -23.425511 43.724131
64.537712 -24.582419 43.93861
64.978905 -22.694668 42.84814
64.495228 -23.425511 43.724131
65.421387 -23.133089 42.138188
65.403702 -21.974453 41.920967
64.978905 -22.694668 42.84814
66.210915 -24.033186 40.751701
66.201706 -22.868263 40.490677
65.855392 -23.577797 41.472038
65.697342 -28.89217 43.637046
65.424672 -29.600949 44.571897
65.822849 -30.029566 43.964094
65.625054 -27.755432 43.300407
65.697342 -28.89217 43.637046
66.023231 -28.184048 42.692604
66.533569 -24.488135 40.066551
66.210915 -24.033186 40.751701
66.187256 -25.197669 41.047912
66.762383 -24.950019 39.331434
66.533569 -24.488135 40.066551
66.762383 -24.950019 39.331434
66.678547 -26.111019 39.65237
52.216169 -34.269577 51.795868
51.491472 -33.954745 52.196713
53.043928 -34.625045 51.57201
52.216169 -34.269577 51.795868
52.171192 -35.470055 51.538311
53.836657 -34.988727 51.318421
53.881633 -33.78825 51.575977
53.043928 -34.625045 51.57201
63.476562 -38.95113 49.293705
62.690697 -38.64183 49.751061
62.873474 -39.812962 49.646084
63.993965 -38.10223 48.867809
63.476562 -38.95113 49.293705
56.29879 -51.667569 48.23144
55.344879 -51.347262 48.376175
55.709221 -52.513838 48.013925
56.867267 -50.816324 48.404049
56.29879 -51.667569 48.23144
57.231609 -51.982901 48.0418
58.644287 -51.396925 47.830067
58.094836 -52.255448 47.722226
58.400539 -50.275706 48.39946
58.644287 -51.396925 47.830067
58.090156 -49.113855 48.836624
57.489704 -49.969807 48.651573
58.400539 -50.275706 48.39946
58.741742 -48.260388 49.06297
57.830906 -47.954489 49.315083
58.090156 -49.113855 48.836624
59.368966 -47.395269 49.211838
58.741742 -48.260388 49.06297
59.628216 -48.554636 48.733379
61.055004 -47.936816 48.327625
60.452175 -48.810396 48.268766
60.895634 -46.814665 48.94976
61.055004 -47.936816 48.327625
61.695198 -47.061963 48.395138
61.981621 -43.901052 49.423924
61.351524 -44.781001 49.473004
62.165925 -45.059864 48.968193
62.63044 -43.022163 49.318684
61.81604 -42.743299 49.823494
61.981621 -43.901052 49.423924
63.220051 -42.147167 49.131115
62.63044 -43.022163 49.318684
63.385632 -43.30492 48.731544
63.0621 -40.993336 49.453491
63.220051 -42.147167 49.131115
3 0 60 58
3 0 58 61
3 1 65 63
3 2 69 67
3 3 72 70
3 231 74 232
3 233 232 73
3 231 232 233
3 236 235 74
3 234 235 236
3 4 77 75
3 3 80 78
3 3 70 80
3 7 84 82
3 7 86 84
3 8 237 239
3 237 88 238
3 237 238 239
3 10 91 89
3 10 93 91
3 5 96 94
3 240 99 241
3 242 241 97
3 240 241 242
3 243 101 244
3 245 244 99
3 243 244 245
3 247 246 101
3 11 104 102
3 12 248 249
3 12 250 252
3 250 106 251
3 250 251 252
3 12 108 106
3 11 111 109
3 11 102 111
3 254 253 113
3 256 255 115
3 6 117 116
3 9 120 118
3 13 123 121
3 13 125 123
3 14 128 126
3 16 129 59
3 16 257 259
3 259 258 129
3 257 258 259
3 17 132 130
3 14 133 62
3 14 126 133
3 20 260 262
3 260 134 261
3 260 261 262
3 20 135 134
3 21 138 136
3 23 139 64
3 23 140 139
3 24 143 141
3 263 144 264
3 265 264 66
3 263 264 265
3 267 266 144
3 268 147 269
3 270 148 271
3 270 271 272
3 274 273 148
3 275 149 276
3 277 150 278
3 279 278 149
3 277 278 279
3 27 153 151
3 29 156 154
3 31 157 68
3 31 158 157
3 32 280 281
3 283 282 71
3 15 159 127
3 33 162 160
3 35 163 76
3 35 164 163
3 18 165 131
3 36 166 79
3 36 167 166
3 36 168 167
3 32 169 81
3 32 284 286
3 286 285 169
3 284 285 286
3 37 287 288
3 37 289 291
3 289 170 290
3 289 290 291
3 19 292 294
3 292 171 293
3 292 293 294
3 38 172 83
3 38 173 172
3 38 174 173
3 39 175 85
3 39 176 175
3 295 178 296
3 41 179 87
3 41 180 179
3 22 181 137
3 42 182 90
3 42 183 182
3 42 184 183
3 43 185 92
3 43 186 185
3 34 187 161
3 44 188 95
3 44 189 188
3 25 190 142
3 45 191 98
3 45 192 191
3 45 193 192
3 46 194 100
3 46 195 194
3 46 196 195
3 47 199 197
3 49 200 103
3 49 297 299
3 299 298 200
3 297 298 299
3 300 201 301
3 302 301 145
3 300 301 302
3 303 202 304
3 50 203 105
3 50 204 203
3 50 205 204
3 51 206 107
3 51 207 206
3 26 208 146
3 52 209 110
3 52 210 209
3 52 211 210
3 47 212 112
3 47 197 212
3 48 213 198
3 306 305 114
3 53 307 308
3 53 309 310
3 311 214 312
3 54 313 315
3 313 215 314
3 313 314 315
3 54 216 215
3 28 217 152
3 316 218 317
3 318 219 319
3 320 319 218
3 318 319 320
3 322 321 219
3 40 220 177
3 55 221 119
3 55 222 221
3 30 223 155
3 56 224 122
3 56 225 224
3 56 226 225
3 57 227 124
3 57 323 325
3 325 324 227
3 323 324 325
3 326 228 327
3 326 327 328
3 329 229 330
3 331 230 332
3 334 333 230
3 58 59 14
3 60 59 58
3 60 16 59
3 61 62 17
3 58 62 61
3 58 14 62
3 335 20 336
3 63 64 21
3 65 64 63
3 65 23 64
3 337 66 338
3 339 338 24
3 337 338 339
3 340 66 341
3 343 342 66
3 345 344 27
3 67 68 29
3 69 68 67
3 69 31 68
3 70 71 32
3 72 71 70
3 72 346 348
3 348 347 71
3 346 347 348
3 73 349 351
3 351 350 15
3 349 350 351
3 74 352 354
3 354 353 73
3 352 353 354
3 74 355 356
3 74 357 358
3 360 359 74
3 75 76 33
3 77 76 75
3 77 35 76
3 78 79 18
3 80 79 78
3 80 36 79
3 80 81 36
3 70 81 80
3 70 32 81
3 361 37 362
3 82 83 19
3 84 83 82
3 84 38 83
3 84 85 38
3 86 85 84
3 86 39 85
3 363 87 364
3 88 365 367
3 365 87 366
3 365 366 367
3 88 41 87
3 89 90 22
3 91 90 89
3 91 42 90
3 91 92 42
3 93 92 91
3 93 43 92
3 94 95 34
3 96 95 94
3 96 44 95
3 97 98 25
3 99 98 97
3 99 45 98
3 99 100 45
3 101 100 99
3 101 46 100
3 101 368 370
3 370 369 46
3 368 369 370
3 372 371 101
3 102 103 47
3 104 103 102
3 104 49 103
3 373 105 374
3 106 375 377
3 375 105 376
3 375 376 377
3 106 50 105
3 106 107 50
3 108 107 106
3 108 51 107
3 109 110 26
3 111 110 109
3 111 52 110
3 111 112 52
3 102 112 111
3 102 47 112
3 113 114 48
3 378 114 379
3 380 379 113
3 378 379 380
3 382 381 114
3 383 53 384
3 115 385 386
3 389 388 115
3 387 388 389
3 116 390 391
3 117 392 394
3 394 393 116
3 392 393 394
3 117 395 397
3 395 54 396
3 395 396 397
3 399 398 28
3 118 119 40
3 120 119 118
3 120 55 119
3 121 122 30
3 123 122 121
3 123 56 122
3 123 124 56
3 125 124 123
3 125 57 124
3 126 127 3
3 128 127 126
3 128 15 127
3 59 128 14
3 129 128 59
3 129 15 128
3 129 73 15
3 400 73 401
3 402 401 129
3 400 401 402
3 404 403 73
3 130 131 4
3 132 131 130
3 132 18 131
3 62 132 17
3 133 132 62
3 133 18 132
3 133 78 18
3 126 78 133
3 126 3 78
3 405 19 406
3 134 407 408
3 134 409 411
3 409 19 410
3 409 410 411
3 134 82 19
3 135 82 134
3 135 7 82
3 136 137 8
3 138 137 136
3 138 22 137
3 64 138 21
3 139 138 64
3 139 22 138
3 139 89 22
3 140 89 139
3 140 10 89
3 141 142 5
3 143 142 141
3 143 25 142
3 66 143 24
3 144 143 66
3 144 25 143
3 144 97 25
3 412 97 413
3 414 413 144
3 412 413 414
3 416 415 97
3 417 145 418
3 419 418 11
3 417 418 419
3 420 145 421
3 423 422 145
3 424 12 425
3 426 146 427
3 428 427 12
3 426 427 428
3 147 429 431
3 429 146 430
3 429 430 431
3 147 26 146
3 432 147 433
3 148 434 436
3 434 147 435
3 434 435 436
3 148 26 147
3 148 109 26
3 437 109 438
3 439 438 148
3 437 438 439
3 440 11 441
3 442 441 109
3 440 441 442
3 149 443 444
3 149 445 446
3 149 447 449
3 447 115 448
3 447 448 449
3 150 115 149
3 150 450 452
3 452 451 115
3 450 451 452
3 151 152 6
3 153 152 151
3 153 28 152
3 453 153 454
3 455 454 27
3 453 454 455
3 456 153 457
3 458 28 459
3 460 459 153
3 458 459 460
3 462 461 28
3 154 155 9
3 156 155 154
3 156 30 155
3 68 156 29
3 157 156 68
3 157 30 156
3 157 121 30
3 158 121 157
3 158 13 121
3 71 463 465
3 465 464 32
3 463 464 465
3 467 466 71
3 127 72 3
3 159 72 127
3 159 468 470
3 470 469 72
3 468 469 470
3 471 159 472
3 473 472 15
3 471 472 473
3 474 159 475
3 477 476 159
3 160 161 1
3 162 161 160
3 162 34 161
3 76 162 33
3 163 162 76
3 163 34 162
3 163 94 34
3 164 94 163
3 164 5 94
3 131 77 4
3 165 77 131
3 165 35 77
3 79 165 18
3 166 165 79
3 166 35 165
3 166 164 35
3 167 164 166
3 167 5 164
3 167 141 5
3 168 141 167
3 168 24 141
3 81 168 36
3 169 168 81
3 169 24 168
3 169 478 480
3 480 479 24
3 478 479 480
3 482 481 169
3 483 116 484
3 170 485 487
3 485 116 486
3 485 486 487
3 170 6 116
3 171 488 489
3 171 490 492
3 490 37 491
3 490 491 492
3 83 171 19
3 172 171 83
3 172 37 171
3 172 170 37
3 173 170 172
3 173 6 170
3 173 151 6
3 174 151 173
3 174 27 151
3 85 174 38
3 175 174 85
3 175 27 174
3 175 493 495
3 495 494 27
3 493 494 495
3 176 496 498
3 498 497 175
3 496 497 498
3 176 499 500
3 502 501 2
3 503 177 504
3 178 505 507
3 505 177 506
3 505 506 507
3 178 40 177
3 87 508 510
3 508 178 509
3 508 509 510
3 179 178 87
3 179 40 178
3 179 118 40
3 180 118 179
3 180 9 118
3 137 88 8
3 181 88 137
3 181 41 88
3 90 181 22
3 182 181 90
3 182 41 181
3 182 180 41
3 183 180 182
3 183 9 180
3 183 154 9
3 184 154 183
3 184 29 154
3 92 184 42
3 185 184 92
3 185 29 184
3 185 67 29
3 186 67 185
3 186 2 67
3 161 65 1
3 187 65 161
3 187 23 65
3 95 187 34
3 188 187 95
3 188 23 187
3 188 140 23
3 189 140 188
3 189 10 140
3 142 96 5
3 190 96 142
3 190 44 96
3 98 190 25
3 191 190 98
3 191 44 190
3 191 189 44
3 192 189 191
3 192 10 189
3 192 93 10
3 193 93 192
3 193 43 93
3 100 193 45
3 194 193 100
3 194 43 193
3 194 186 43
3 195 186 194
3 195 2 186
3 195 511 513
3 513 512 2
3 511 512 513
3 196 514 516
3 516 515 195
3 514 515 516
3 196 517 518
3 519 196 520
3 521 520 46
3 519 520 521
3 522 196 523
3 525 524 196
3 197 198 0
3 199 198 197
3 199 48 198
3 103 199 47
3 200 199 103
3 200 48 199
3 200 113 48
3 526 113 527
3 528 527 200
3 526 527 528
3 530 529 113
3 145 104 11
3 201 104 145
3 201 49 104
3 531 201 532
3 531 532 533
3 534 201 535
3 536 49 537
3 538 537 201
3 536 537 538
3 540 539 49
3 541 8 542
3 543 8 544
3 545 136 546
3 547 546 8
3 545 546 547
3 548 136 549
3 550 21 551
3 552 551 136
3 550 551 552
3 553 21 554
3 555 63 556
3 557 556 21
3 555 556 557
3 202 558 560
3 558 63 559
3 558 559 560
3 202 1 63
3 105 561 562
3 203 563 565
3 565 564 105
3 563 564 565
3 203 566 567
3 203 568 570
3 568 202 569
3 568 569 570
3 204 202 203
3 204 1 202
3 204 160 1
3 205 160 204
3 205 33 160
3 107 205 50
3 206 205 107
3 206 33 205
3 206 75 33
3 207 75 206
3 207 4 75
3 146 108 12
3 208 108 146
3 208 51 108
3 110 208 26
3 209 208 110
3 209 51 208
3 209 207 51
3 210 207 209
3 210 4 207
3 210 130 4
3 211 130 210
3 211 17 130
3 112 211 52
3 212 211 112
3 212 17 211
3 212 61 17
3 197 61 212
3 197 0 61
3 198 60 0
3 213 60 198
3 213 16 60
3 114 213 48
3 571 213 572
3 573 572 114
3 571 572 573
3 574 16 575
3 576 575 213
3 574 575 576
3 578 577 16
3 214 579 580
3 214 581 583
3 581 53 582
3 581 582 583
3 584 214 585
3 586 214 587
3 586 587 588
3 589 53 590
3 591 590 214
3 589 590 591
3 593 592 53
3 215 594 595
3 215 596 597
3 215 598 600
3 598 150 599
3 598 599 600
3 216 150 215
3 216 601 603
3 603 602 150
3 601 602 603
3 152 117 6
3 217 117 152
3 217 54 117
3 604 217 605
3 606 605 28
3 604 605 606
3 218 607 609
3 607 217 608
3 607 608 609
3 218 54 217
3 218 216 54
3 219 216 218
3 219 610 612
3 612 611 216
3 610 611 612
3 219 613 614
3 616 615 219
3 177 617 618
3 220 619 621
3 621 620 177
3 619 620 621
3 220 622 624
3 622 20 623
3 622 623 624
3 119 220 40
3 221 220 119
3 221 20 220
3 221 135 20
3 222 135 221
3 222 7 135
3 155 120 9
3 223 120 155
3 223 55 120
3 122 223 30
3 224 223 122
3 224 55 223
3 224 222 55
3 225 222 224
3 225 7 222
3 225 86 7
3 226 86 225
3 226 39 86
3 124 226 56
3 227 226 124
3 227 39 226
3 227 176 39
3 625 176 626
3 627 626 227
3 625 626 627
3 629 628 176
3 630 69 631
3 632 631 2
3 630 631 632
3 228 633 635
3 633 69 634
3 633 634 635
3 228 31 69
3 636 228 637
3 638 228 639
3 640 31 641
3 642 641 228
3 640 641 642
3 643 158 644
3 645 644 31
3 643 644 645
3 229 646 648
3 646 158 647
3 646 647 648
3 229 13 158
3 649 229 650
3 230 651 653
3 651 229 652
3 651 652 653
3 230 13 229
3 230 125 13
3 654 125 655
3 656 655 230
3 654 655 656
3 657 57 658
3 659 658 125
3 657 658 659
3 660 57 661
3 660 661 662
3 664 663 57
