ply
format ascii 1.0
element vertex 805
property float x
property float y
property float z
element face 883
property list uchar int vertex_index
end_header
-64.724747 -68.124832 -9.054024
-45.184036 -98.729141 11.842463
-51.108788 -79.834709 8.989416
-59.763653 -60.233524 2.75519
-54.715004 -74.522293 -20.293007
-48.178932 -89.137756 11.331538
-46.866779 -83.164093 19.715252
-55.146751 -65.406128 12.439248
-62.703194 -57.422855 9.48945
-56.959625 -79.001694 -7.084108
-61.124302 -71.402557 -15.592134
-62.551167 -48.075054 -33.13303
-67.567581 -58.221107 -18.424923
-58.336761 -75.270706 -0.11709
-55.746391 -70.417358 6.047113
-63.033287 -64.740814 -2.882072
-62.763969 -61.039906 -24.499348
-55.633617 -62.564529 -28.156464
-48.015984 -63.967682 -30.39204
-46.476921 -87.842224 21.24468
-61.655403 -60.658489 14.354416
-65.268852 -57.135265 13.156497
-61.166805 -73.735023 -7.970545
-59.375809 -75.505219 -11.313135
-63.432701 -69.710548 -12.451773
-49.334381 -84.417664 10.238631
-49.6991 -87.15918 6.33637
-51.773132 -82.400101 5.384897
-54.830479 -79.987373 0.842501
-54.535477 -77.813713 4.323772
-57.4058 -62.97015 7.425006
-54.636269 -67.641525 9.122419
-57.845207 -65.35498 4.348722
-59.583824 -67.957321 1.521924
-60.956787 -62.531532 -0.140606
-53.947174 -79.346909 -16.732754
-51.128731 -75.976105 -22.274342
-65.598206 -59.66415 -21.702339
-65.823883 -53.67062 -26.214813
-59.436462 -55.506958 -30.879799
-55.735588 -55.8088 -32.174561
-51.841789 -63.070328 -29.403946
-51.869286 -56.133366 -32.957771
-45.867462 -95.605682 17.087057
-47.084053 -93.951767 11.988992
-46.984528 -90.869705 16.664846
-47.616196 -86.164597 15.537721
-48.500832 -81.537582 14.096596
-57.453835 -64.087036 15.906732
-58.879417 -61.374638 10.802597
-60.42762 -58.409515 5.986139
-55.129444 -81.096375 -10.372124
-56.903885 -77.398956 -14.241854
-58.142891 -73.043076 -18.183308
-66.884918 -62.116474 -10.371033
-66.558853 -63.482475 -13.70623
-48.225975 -92.147049 7.05451
-58.146896 -77.12661 -3.567379
-61.912693 -72.064476 -4.536953
-50.029831 -76.956619 12.538469
-52.144722 -72.333199 10.87472
-53.400764 -75.237106 7.615459
-57.368248 -73.080658 3.059527
-61.29612 -70.229485 -1.352654
-64.583862 -66.56311 -5.799797
-64.851982 -65.016159 -17.053249
-62.207565 -66.588379 -20.007538
-58.930531 -67.907143 -22.325527
-62.86396 -54.816353 -28.905182
-59.356384 -62.009865 -26.611012
-55.274654 -68.886276 -24.130878
-51.555832 -69.783859 -25.767029
-64.825638 -58.826801 15.573444
-63.081665 -70.987282 -8.483915
-62.409184 -71.806213 -10.197062
-64.234406 -68.902107 -10.758574
-45.879375 -97.952026 9.520179
-50.135761 -82.114281 9.62624
-50.464432 -83.453247 7.761547
-51.525616 -81.155685 7.200686
-53.096535 -80.102142 4.870922
-52.742165 -78.878281 6.613472
-58.601761 -61.647137 5.048193
-57.397583 -64.093231 5.845468
-58.81176 -62.787861 3.521657
-59.447296 -64.021271 2.077032
-60.16626 -61.359676 1.270284
-61.405998 -59.794201 -0.925827
-60.838959 -58.715836 0.534358
-44.443558 -99.507904 14.169056
-54.363419 -77.036385 -18.480682
-52.338844 -80.351471 -17.900181
-52.645798 -77.898155 -19.552074
-52.921951 -75.236176 -21.277493
-53.821617 -55.937328 -32.621529
-45.939575 -94.07486 19.671549
-46.533714 -93.238617 16.990099
-46.439247 -91.711929 19.425671
-46.652023 -85.496109 20.52387
-46.993065 -87.000671 18.349941
-47.233643 -84.665146 17.629288
-47.990433 -83.84111 14.83821
-47.566711 -82.346519 16.846558
-62.187878 -59.084755 11.888387
-60.183712 -60.926041 12.563566
-60.813377 -59.398655 10.100142
-59.659378 -59.92017 8.352586
-61.43029 -57.807846 7.712549
-61.998371 -56.168858 5.408463
-63.171162 -55.701263 7.168692
-45.287769 -94.907791 22.362566
-56.107723 -80.01844 -8.770384
-60.340347 -73.53846 -13.438522
-58.209698 -76.442146 -12.839762
-59.035027 -74.429932 -14.88414
-57.588253 -75.314026 -16.191601
-59.703438 -72.241104 -16.961853
-47.678932 -91.541428 11.739542
-47.657463 -93.084869 9.495378
-48.279331 -90.629501 9.204854
-56.5923 -77.646133 0.388523
-56.488853 -78.616745 -1.369684
-58.387482 -76.218018 -1.815485
-60.113449 -74.639633 -4.020653
-60.19138 -73.756981 -2.320267
-48.72464 -77.751831 15.187735
-53.447662 -67.489914 13.337902
-55.044937 -69.003448 7.557925
-53.353127 -69.992348 10.003668
-53.875179 -71.424278 8.41255
-52.718739 -73.800919 9.235721
-54.594193 -72.862534 6.856526
-55.348064 -74.232193 5.305466
-56.576202 -71.797699 4.560619
-61.391144 -66.450104 -0.684446
-60.526272 -69.153564 0.112303
-62.336491 -67.531746 -2.089077
-63.050102 -68.499359 -3.564051
-63.950119 -65.700874 -4.301165
-65.325424 -63.667297 -6.536991
-64.461731 -62.830357 -5.08832
-67.148705 -60.925056 -16.066963
-65.849167 -64.228729 -15.40362
-66.360168 -61.654049 -17.755939
-64.268097 -60.385826 -23.180737
-64.011703 -63.18771 -20.894501
-62.545212 -63.90451 -22.253593
-60.633919 -67.293304 -21.247421
-60.927292 -64.531143 -23.44009
-64.319191 -51.019459 -29.788776
-62.7551 -51.497841 -31.041149
-57.600967 -59.054783 -29.53035
-59.438816 -58.8204 -28.756992
-57.5168 -62.322617 -27.436813
-57.358856 -65.457703 -25.342621
-55.483002 -65.796738 -26.131664
-53.405743 -69.320343 -24.95237
-53.597275 -66.115463 -26.869591
-49.942848 -63.450508 -29.94405
-49.869881 -66.919418 -28.261997
-48.006302 -67.492165 -28.873825
-46.248547 -90.198303 21.828674
-63.105804 -60.494694 16.176878
-63.588177 -58.920475 13.710917
-64.050308 -57.219097 11.304655
-59.086525 -76.389999 -7.506145
-58.23777 -77.319061 -9.200636
-60.375233 -74.600754 -9.677826
-61.477928 -72.658173 -11.864937
-62.379295 -70.550125 -14.078815
-48.699631 -86.759003 10.81653
-48.886787 -88.192307 8.78968
-49.591175 -85.796478 8.2969
-50.634186 -84.746201 5.875464
-51.831417 -83.598648 3.537428
-53.171989 -82.353424 1.263851
-53.240593 -81.246788 3.086679
-54.804977 -78.936722 2.60944
-56.425056 -76.617645 2.089804
-56.234276 -64.21788 9.88992
-54.648994 -66.419495 10.752056
-55.987473 -65.295761 8.253811
-56.217155 -66.552551 6.692543
-56.83033 -67.907745 5.202038
-57.676689 -69.272491 3.758038
-58.629753 -66.670509 2.919054
-60.367126 -65.265366 0.688745
-61.975315 -63.676357 -1.510025
-63.401192 -61.897854 -3.697321
-62.31834 -60.874416 -2.324324
-62.488819 -58.082329 -3.086594
-53.446156 -81.468414 -15.02496
-66.715256 -58.926411 -20.100979
-66.937759 -56.04673 -22.410854
-64.402054 -57.415466 -25.436234
-61.093872 -51.858028 -32.10397
-59.35397 -52.097824 -32.966389
-57.610741 -55.68581 -31.601833
-55.719139 -59.224464 -30.179157
-53.736885 -62.792976 -28.805786
-53.813766 -59.390106 -30.732388
-51.891579 -59.615189 -31.205498
-49.943298 -59.952404 -31.593288
-47.948051 -60.432194 -31.869858
-49.869194 -56.445862 -33.184135
-45.62426 -97.154968 14.474139
-46.281319 -96.351471 12.033022
-46.49181 -94.782898 14.524769
-47.104401 -92.400742 14.339523
-47.553459 -90.020172 13.960375
-46.760231 -89.351212 18.966503
-47.311565 -88.509003 16.162409
-47.947044 -87.654007 13.440247
-48.388138 -85.312759 12.830118
-48.954239 -83.00032 12.16889
-49.684605 -80.710754 11.478266
-56.112804 -64.633232 14.164188
-59.576347 -62.370483 15.088678
-58.13102 -62.766594 13.326048
-56.971657 -63.37125 11.587613
-57.913734 -62.052963 9.083189
-58.889153 -60.674362 6.662245
-59.846519 -59.22937 4.328435
-61.141911 -56.845085 3.705462
-44.919983 -97.959259 16.921373
-57.226341 -78.296684 -10.80929
-56.080727 -79.317551 -12.311308
-54.817009 -80.375046 -13.708483
-55.47686 -78.36676 -15.528709
-56.022202 -76.181183 -17.377365
-56.468887 -73.800034 -19.279011
-66.011551 -65.156693 -9.684584
-65.76104 -65.886154 -11.364401
-66.919754 -62.784107 -12.014193
-68.094681 -57.58028 -16.724407
-46.895004 -95.53241 9.612835
-47.466576 -94.663605 7.225092
-48.005749 -93.706955 4.877131
-48.927711 -89.634216 6.742739
-55.599258 -80.576439 -4.949163
-57.654297 -78.043266 -5.337376
-59.729271 -75.50428 -5.763977
-61.697243 -72.898926 -6.240202
-63.437462 -70.186829 -6.779066
-48.053104 -80.043404 16.028528
-49.180336 -79.246735 13.329049
-50.578674 -78.428383 10.763401
-53.176552 -68.654434 11.646139
-51.831436 -70.913696 12.550101
-51.027992 -74.65477 11.7212
-51.605312 -76.13179 10.018587
-52.217346 -77.552643 8.323195
-54.044472 -76.583313 5.986939
-55.992752 -75.487244 3.725367
-57.984978 -74.236343 1.507616
-58.581093 -70.570312 2.321259
-59.378029 -71.753204 0.848582
-59.93964 -72.808701 -0.693878
-61.77771 -71.189438 -2.900919
-63.430828 -69.371735 -5.129217
-64.849892 -67.357529 -7.38891
-65.864265 -64.430267 -8.068256
-66.445381 -61.444672 -8.803204
-65.150818 -66.646927 -13.066628
-64.239944 -67.446564 -14.738503
-63.087463 -68.270279 -16.325552
-65.296661 -62.421612 -19.382095
-63.623859 -65.816299 -18.602051
-61.73996 -69.087494 -17.782539
-60.230339 -69.863892 -19.083519
-58.585205 -70.574875 -20.228634
-56.834602 -71.215263 -21.244831
-65.75679 -50.451698 -28.372711
-64.417709 -54.287403 -27.641644
-62.86898 -58.004768 -26.722214
-61.194916 -55.224838 -29.985394
-61.204731 -58.476665 -27.828053
-61.116699 -61.58662 -25.640789
-59.18697 -65.046776 -24.459953
-57.130463 -68.429817 -23.271229
-55.017147 -71.802162 -22.178589
-53.176506 -72.370636 -23.081158
-51.350151 -72.964233 -23.989826
-49.555695 -73.623817 -24.911022
-51.725826 -66.472252 -27.581318
-49.734367 -70.324631 -26.574833
-45.531706 -98.340584 10.681321
-45.207371 -99.143669 9.361751
-44.859701 -99.532227 10.522893
-44.465667 -99.905068 11.629373
-44.095428 -100.294449 12.79267
-44.813797 -99.118522 13.005759
-44.859701 -99.532227 10.522893
-44.465667 -99.905068 11.629373
-46.157894 -92.134697 20.822529
-46.189411 -92.893394 19.54861
-45.908058 -93.316162 20.945468
-45.582155 -93.732628 22.290976
-45.269458 -94.150856 23.692315
-45.908058 -93.316162 20.945468
-45.613672 -94.491326 21.017057
-45.582155 -93.732628 22.290976
-56.533674 -79.510067 -7.927246
-55.505148 -80.826458 -7.736982
-55.931099 -80.318085 -6.893844
-54.297207 -66.448021 12.888575
-53.822792 -67.019645 14.199866
-54.672337 -65.977753 13.750539
-62.653133 -49.786448 -32.087089
-63.434236 -49.566482 -31.461841
-63.33227 -47.855089 -32.507782
-47.056208 -66.084396 -29.872879
-47.051367 -67.846638 -29.113771
-48.011143 -65.729923 -29.632933
-47.02262 -64.298146 -30.543432
-47.056208 -66.084396 -29.872879
-63.735027 -60.419187 17.110792
-62.86484 -61.199385 17.432032
-65.471286 -56.225265 11.981652
-64.862015 -56.267181 11.055731
-64.65958 -57.177181 12.230576
-62.137064 -57.582619 -2.359058
-61.947408 -58.938265 -2.00621
-61.595653 -58.438555 -1.278674
-62.531557 -56.703833 -3.424446
-62.137064 -57.582619 -2.359058
-52.964005 -80.975845 -16.516498
-52.713496 -82.036598 -15.662601
-53.696665 -80.407661 -15.878857
-51.388197 -82.073563 -17.738064
-51.509415 -80.874859 -18.487776
-50.148449 -77.859024 -22.013134
-51.016995 -77.384079 -21.455132
-50.243961 -76.375378 -22.785628
-50.148449 -77.859024 -22.013134
-67.473548 -54.213881 -22.714733
-67.392727 -55.709877 -21.581322
-65.797828 -55.208008 -25.101149
-66.431748 -53.343622 -25.4371
-65.112968 -55.543043 -25.825523
-65.086914 -57.080431 -24.711859
-65.797828 -55.208008 -25.101149
-59.274193 -50.356964 -33.987106
-60.131453 -50.249886 -33.574021
-56.673164 -55.747305 -31.888197
-57.578899 -53.96434 -32.617344
-56.641323 -54.025835 -32.903707
-56.416897 -64.963836 16.351303
-57.166462 -64.706543 17.216037
-56.783319 -64.360134 15.03546
-55.746381 -65.236935 15.480031
-56.416897 -64.963836 16.351303
-60.615875 -61.514486 14.721547
-60.354803 -62.24189 15.980289
-61.394331 -61.385893 15.613157
-62.241378 -55.329657 4.298058
-62.780394 -55.055323 5.169515
-45.393723 -96.782471 17.004215
-45.055672 -97.193543 18.289463
-45.529411 -96.016754 18.372305
-54.14908 -82.532974 -10.197925
-54.607959 -81.930668 -9.385301
-54.585001 -81.664422 -11.128207
-54.14908 -82.532974 -10.197925
-68.167855 -57.295818 -15.883691
-67.84787 -58.917608 -15.545885
-54.913574 -81.319317 -3.867225
-54.638359 -81.872036 -4.772411
-54.728325 -80.500527 -0.060561
-53.89908 -81.683552 0.150114
-54.001234 -81.170399 1.053176
-57.144922 -78.353032 -3.363728
-56.3159 -79.098099 -2.264881
-57.317875 -77.871678 -2.468532
-57.900596 -77.584938 -4.452377
-56.898623 -78.81136 -4.248727
-57.144922 -78.353032 -3.363728
-47.884355 -79.297894 16.996545
-47.627504 -80.446125 17.441668
-51.386799 -72.760124 12.160867
-51.230156 -72.050373 12.998557
-51.988079 -71.623447 11.712411
-51.586357 -73.493984 11.29796
-50.828434 -73.92091 12.584107
-51.386799 -72.760124 12.160867
-66.047619 -61.086231 -8.059259
-65.885402 -62.555984 -7.670097
-65.48764 -62.197544 -6.926153
-66.520694 -59.945471 -9.185496
-66.047619 -61.086231 -8.059259
-64.005844 -60.915224 -4.793675
-63.446825 -60.471927 -4.095598
-65.665054 -48.779815 -29.418677
-66.32267 -48.495346 -28.647503
-48.828651 -70.650292 -26.956657
-49.802124 -68.622024 -27.418415
-48.896408 -68.947685 -27.800239
-48.758255 -72.351387 -26.193165
-48.828651 -70.650292 -26.956657
-46.846173 -58.977554 -32.64134
-46.916374 -60.743842 -31.932833
-47.877849 -58.665907 -32.578366
-65.288426 -58.771826 16.531506
-64.594944 -59.585241 16.809075
-65.057732 -59.530265 17.767136
-65.50608 -57.960991 15.313163
-65.288426 -58.771826 16.531506
-65.727688 -57.115223 14.104689
-65.047245 -57.981033 14.364971
-65.50608 -57.960991 15.313163
-65.933246 -56.216068 12.917803
-65.727688 -57.115223 14.104689
-45.578518 -98.771637 8.257123
-44.906513 -99.96328 8.098695
-45.207371 -99.143669 9.361751
-46.198999 -97.551895 8.366627
-45.578518 -98.771637 8.257123
-61.312134 -57.899372 -0.548582
-61.595653 -58.438555 -1.278674
-61.122478 -59.255019 -0.195734
-43.687651 -100.67115 13.895961
-44.051827 -99.896606 15.327824
-43.687651 -100.67115 13.895961
-44.095428 -100.294449 12.79267
-51.662892 -79.648201 -19.313723
-51.509415 -80.874859 -18.487776
-52.492321 -79.124813 -18.726128
-51.775528 -78.345104 -20.093998
-51.662892 -79.648201 -19.313723
-51.913605 -77.014115 -20.956707
-51.775528 -78.345104 -20.093998
-52.783874 -76.567166 -20.414783
-52.025341 -75.606141 -21.775917
-51.016995 -77.384079 -21.455132
-51.913605 -77.014115 -20.956707
-66.423752 -51.756624 -26.522474
-66.431748 -53.343622 -25.4371
-55.707867 -54.075048 -33.147002
-56.641323 -54.025835 -32.903707
-54.750881 -54.139313 -33.370486
-54.778603 -55.873064 -32.398045
-55.707867 -54.075048 -33.147002
-53.788668 -54.195213 -33.534409
-54.750881 -54.139313 -33.370486
-52.812502 -54.293232 -33.70253
-52.845452 -56.035347 -32.78965
-53.788668 -54.195213 -33.534409
-51.820338 -54.385029 -33.796533
-52.812502 -54.293232 -33.70253
-58.237532 -63.899305 16.782112
-57.166462 -64.706543 17.216037
-63.366789 -54.821525 6.049629
-62.780394 -55.055323 5.169515
-62.584767 -55.93506 6.288578
-44.914825 -95.308121 23.702735
-45.269458 -94.150856 23.692315
-44.86207 -96.068634 22.290313
-44.489126 -96.468964 23.630482
-44.914825 -95.308121 23.702735
-45.239565 -95.667809 21.01006
-44.86207 -96.068634 22.290313
-45.565467 -95.251343 19.664551
-45.239565 -95.667809 21.01006
-45.613672 -94.491326 21.017057
-45.903519 -94.840271 18.379303
-45.529411 -96.016754 18.372305
-45.565467 -95.251343 19.664551
-55.097099 -81.3917 -8.584431
-55.505148 -80.826458 -7.736982
-55.618583 -80.557407 -9.571254
-54.607959 -81.930668 -9.385301
-55.097099 -81.3917 -8.584431
-67.274841 -60.87767 -11.536207
-67.101944 -60.58299 -10.734656
-49.674711 -87.847237 5.34468
-50.167165 -86.592453 5.15044
-48.582439 -77.014397 16.121595
-48.220123 -78.152107 16.576149
-49.155855 -76.609504 14.757478
-48.582439 -77.014397 16.121595
-49.80845 -76.211899 13.432845
-49.377235 -77.354225 13.863102
-49.155855 -76.609504 14.757478
-52.943817 -68.010208 14.669638
-53.822792 -67.019645 14.199866
-52.676827 -68.55735 13.80078
-52.943817 -68.010208 14.669638
-65.055794 -61.779074 -6.201818
-65.48764 -62.197544 -6.926153
-64.893577 -63.248827 -5.812655
-64.216282 -49.327292 -30.835655
-64.946255 -49.063696 -30.126709
-64.843345 -47.371528 -31.173588
-63.537146 -51.25865 -30.414963
-64.216282 -49.327292 -30.835655
-63.434236 -49.566482 -31.461841
-47.964619 -69.234059 -28.106153
-48.896408 -68.947685 -27.800239
-48.938091 -67.205792 -28.567911
-47.043606 -69.620942 -28.431574
-47.964619 -69.234059 -28.106153
-47.043606 -69.620942 -28.431574
-47.051367 -67.846638 -29.113771
-45.98639 -90.624 23.275442
-46.062544 -91.377884 22.024031
-46.130812 -89.447288 23.011335
-45.98639 -90.624 23.275442
-46.244999 -88.269249 22.719338
-46.362734 -89.020263 21.536677
-46.130812 -89.447288 23.011335
-46.335949 -87.094032 22.369684
-46.244999 -88.269249 22.719338
-46.104027 -87.521057 23.844342
-46.4235 -85.920974 22.009279
-46.564472 -86.669167 20.884275
-46.335949 -87.094032 22.369684
-46.506763 -84.751075 21.600919
-46.4235 -85.920974 22.009279
-46.614142 -83.585067 21.19661
-46.759401 -84.330101 20.119561
-46.506763 -84.751075 21.600919
-62.119532 -61.303995 16.524389
-62.86484 -61.199385 17.432032
-62.380603 -60.576592 15.265647
-61.394331 -61.385893 15.613157
-62.119532 -61.303995 16.524389
-63.965721 -59.660747 15.875161
-63.735027 -60.419187 17.110792
-64.594944 -59.585241 16.809075
-64.258774 -56.324592 10.137663
-63.585217 -56.426471 9.23006
-63.376751 -57.320976 10.397053
-64.258774 -56.324592 10.137663
-64.862015 -56.267181 11.055731
-65.471286 -56.225265 11.981652
-65.933246 -56.216068 12.917803
-50.634709 -85.385964 4.919987
-50.167165 -86.592453 5.15044
-50.166643 -85.952691 6.105917
-51.233324 -84.812187 3.750968
-50.634709 -85.385964 4.919987
-51.232802 -84.172425 4.706446
-51.769551 -84.195549 2.59967
-51.233324 -84.812187 3.750968
-52.501703 -82.976036 2.40064
-52.439836 -83.572937 1.462882
-51.769551 -84.195549 2.59967
-62.905399 -59.960208 -3.409099
-63.446825 -60.471927 -4.095598
-62.859766 -61.386135 -3.010822
-62.990639 -58.564165 -3.790234
-62.905399 -59.960208 -3.409099
-62.403579 -59.478372 -2.705459
-62.939172 -57.150549 -4.159019
-62.990639 -58.564165 -3.790234
-62.939172 -57.150549 -4.159019
-62.531557 -56.703833 -3.424446
-52.497786 -83.073433 -14.870934
-53.146353 -82.446854 -14.173573
-52.497786 -83.073433 -14.870934
-52.713496 -82.036598 -15.662601
-52.15984 -81.478127 -17.100212
-52.964005 -80.975845 -16.516498
-53.143009 -79.84919 -17.316468
-52.15984 -81.478127 -17.100212
-51.388197 -82.073563 -17.738064
-67.281475 -57.149718 -20.426384
-67.141419 -58.573759 -19.262951
-67.707638 -56.797066 -19.588356
-66.826507 -57.48657 -21.255916
-67.281475 -57.149718 -20.426384
-67.392727 -55.709877 -21.581322
-66.988686 -54.531677 -23.53512
-67.473548 -54.213881 -22.714733
-66.354766 -56.396063 -23.199169
-66.988686 -54.531677 -23.53512
-65.68499 -58.204773 -22.844911
-66.267983 -57.85544 -22.056596
-66.354766 -56.396063 -23.199169
-65.019936 -58.565611 -23.584111
-64.933152 -60.024988 -22.441538
-65.68499 -58.204773 -22.844911
-64.335076 -58.900646 -24.308485
-65.019936 -58.565611 -23.584111
-65.086914 -57.080431 -24.711859
-61.001404 -50.129987 -33.142811
-61.822519 -49.966541 -32.6185
-61.730052 -48.238501 -33.657341
-60.223921 -51.977926 -32.535179
-61.001404 -50.129987 -33.142811
-60.131453 -50.249886 -33.574021
-58.450514 -52.170347 -33.299622
-59.274193 -50.356964 -33.987106
-58.482355 -53.891817 -32.284111
-58.450514 -52.170347 -33.299622
-57.578899 -53.96434 -32.617344
-48.838421 -56.672741 -33.235504
-47.877849 -58.665907 -32.578366
-48.908622 -58.439028 -32.526996
-50.820291 -54.541277 -33.909715
-50.86924 -56.289614 -33.070953
-51.820338 -54.385029 -33.796533
-49.795393 -54.690721 -33.939357
-50.820291 -54.541277 -33.909715
-48.838421 -56.672741 -33.235504
-49.795393 -54.690721 -33.939357
-46.343897 -90.955116 20.627173
-46.157894 -92.134697 20.822529
-46.062544 -91.377884 22.024031
-55.155363 -65.591305 14.61301
-55.746381 -65.236935 15.480031
-55.629778 -65.01968 13.301718
-54.672337 -65.977753 13.750539
-55.155363 -65.591305 14.61301
-59.298788 -63.041029 16.373085
-60.354803 -62.24189 15.980289
-58.515091 -63.228759 15.497705
-58.237532 -63.899305 16.782112
-59.298788 -63.041029 16.373085
-60.292175 -58.469837 3.202762
-60.250742 -58.971914 2.41614
-59.805086 -59.731447 3.541812
-60.939871 -57.277694 2.891276
-60.292175 -58.469837 3.202762
-60.494215 -58.037228 4.016948
-61.453474 -56.03497 2.604939
-60.939871 -57.277694 2.891276
-61.813148 -55.667771 3.446557
-61.570141 -56.506971 4.556963
-62.241378 -55.329657 4.298058
-61.453474 -56.03497 2.604939
-61.813148 -55.667771 3.446557
-63.819201 -55.565675 8.069681
-62.937178 -56.562059 8.329071
-63.585217 -56.426471 9.23006
-63.99203 -54.644812 6.942602
-63.819201 -55.565675 8.069681
-64.187657 -53.765074 5.823539
-63.366789 -54.821525 6.049629
-63.99203 -54.644812 6.942602
-44.537414 -98.356048 18.14004
-45.055672 -97.193543 18.289463
-44.290039 -99.122284 16.703983
-44.537414 -98.356048 18.14004
-44.68177 -98.733581 15.545215
-44.051827 -99.896606 15.327824
-44.290039 -99.122284 16.703983
-55.060643 -80.775009 -12.097798
-54.585001 -81.664422 -11.128207
-55.605086 -80.206963 -11.341716
-54.428783 -81.303757 -12.796386
-55.060643 -80.775009 -12.097798
-55.448868 -79.846298 -13.009895
-53.831779 -81.90017 -13.515334
-54.428783 -81.303757 -12.796386
-54.131583 -80.92173 -14.366722
-53.146353 -82.446854 -14.173573
-53.831779 -81.90017 -13.515334
-63.179657 -46.117621 -33.535522
-63.33227 -47.855089 -32.507782
-62.405058 -46.323729 -34.161632
-63.179657 -46.117621 -33.535522
-61.730052 -48.238501 -33.657341
-62.405058 -46.323729 -34.161632
-67.292259 -61.211486 -12.357788
-66.902336 -62.45029 -11.192613
-67.274841 -60.87767 -11.536207
-67.260407 -61.519521 -13.190778
-67.292259 -61.211486 -12.357788
-67.079956 -61.868706 -14.036796
-66.739304 -63.133291 -12.860212
-67.260407 -61.519521 -13.190778
-67.374882 -60.589996 -15.217163
-66.853779 -62.203766 -14.886596
-67.079956 -61.868706 -14.036796
-67.621693 -59.252668 -16.395685
-67.374882 -60.589996 -15.217163
-67.84787 -58.917608 -15.545885
-68.376324 -55.911078 -17.047445
-68.167855 -57.295818 -15.883691
-68.267556 -56.172779 -17.891101
-68.376324 -55.911078 -17.047445
-68.004006 -56.493193 -18.74136
-67.831131 -57.900694 -17.574665
-68.267556 -56.172779 -17.891101
-67.707638 -56.797066 -19.588356
-68.004006 -56.493193 -18.74136
-46.706813 -96.342087 8.412955
-46.198999 -97.551895 8.366627
-46.38719 -96.742218 9.566507
-46.992599 -95.907685 7.219083
-46.706813 -96.342087 8.412955
-47.18079 -95.098007 8.418964
-47.280489 -95.475838 6.076906
-46.992599 -95.907685 7.219083
-47.550076 -94.997513 4.902926
-47.280489 -95.475838 6.076906
-47.736163 -94.18528 6.051112
-47.810717 -94.513779 3.774702
-47.550076 -94.997513 4.902926
-49.289017 -89.084755 5.547865
-49.313406 -88.396698 6.539554
-49.674711 -87.847237 5.34468
-48.869843 -90.371223 5.706964
-49.289017 -89.084755 5.547865
-48.518974 -91.62764 5.862849
-48.576843 -90.890632 6.898625
-48.869843 -90.371223 5.706964
-48.408862 -92.407593 4.77416
-48.115862 -92.927002 5.96582
-48.518974 -91.62764 5.862849
-48.27202 -93.170288 3.7251
-48.408862 -92.407593 4.77416
-47.810717 -94.513779 3.774702
-48.27202 -93.170288 3.7251
-55.250915 -81.105457 -5.826371
-54.638359 -81.872036 -4.772411
-56.279442 -79.789066 -6.016635
-55.931099 -80.318085 -6.893844
-55.250915 -81.105457 -5.826371
-53.0429 -82.910797 0.339725
-52.439836 -83.572937 1.462882
-53.0429 -82.910797 0.339725
-53.89908 -81.683552 0.150114
-55.557512 -79.815213 -1.166654
-54.728325 -80.500527 -0.060561
-55.659666 -79.302059 -0.263591
-55.557512 -79.815213 -1.166654
-56.3159 -79.098099 -2.264881
-55.871103 -80.077946 -4.054621
-54.913574 -81.319317 -3.867225
-56.626778 -79.309853 -5.14327
-55.871103 -80.077946 -4.054621
-56.898623 -78.81136 -4.248727
-46.735363 -82.423496 20.751221
-46.614142 -83.585067 21.19661
-47.034341 -82.006469 19.28503
-46.735363 -82.423496 20.751221
-47.384307 -81.597682 17.850683
-47.216745 -82.755306 18.280905
-47.034341 -82.006469 19.28503
-47.809907 -81.194962 16.437543
-47.384307 -81.597682 17.850683
-47.627504 -80.446125 17.441668
-48.388872 -78.897617 15.608132
-47.884355 -79.297894 16.996545
-48.220123 -78.152107 16.576149
-52.541272 -69.13961 12.954898
-52.676827 -68.55735 13.80078
-53.312107 -68.072174 12.49202
-51.868713 -70.269241 13.406879
-52.541272 -69.13961 12.954898
-52.503994 -69.784065 12.09812
-51.188505 -71.359955 13.874693
-51.868713 -70.269241 13.406879
-51.188505 -71.359955 13.874693
-51.230156 -72.050373 12.998557
-50.307531 -75.060974 13.02421
-50.828434 -73.92091 12.584107
-50.528911 -75.805695 12.129834
-49.80845 -76.211899 13.432845
-50.307531 -75.060974 13.02421
-66.882175 -60.24709 -9.950741
-67.101944 -60.58299 -10.734656
-66.665149 -61.780573 -9.587118
-66.882175 -60.24709 -9.950741
-66.520694 -59.945471 -9.185496
-64.536114 -61.381476 -5.489175
-63.931461 -62.364106 -4.392821
-64.005844 -60.915224 -4.793675
-65.055794 -61.779074 -6.201818
-64.536114 -61.381476 -5.489175
-60.788395 -58.21307 1.305724
-60.301306 -59.47468 1.644774
-60.250742 -58.971914 2.41614
-61.180762 -57.412041 0.215165
-60.788395 -58.21307 1.305724
-61.312134 -57.899372 -0.548582
-61.180762 -57.412041 0.215165
-66.390206 -50.147163 -27.601423
-66.32267 -48.495346 -28.647503
-65.790336 -52.061159 -27.293762
-66.423752 -51.756624 -26.522474
-66.390206 -50.147163 -27.601423
-65.037991 -50.735579 -29.080743
-65.665054 -48.779815 -29.418677
-64.946255 -49.063696 -30.126709
-50.354671 -74.869442 -23.643369
-50.243961 -76.375378 -22.785628
-51.239441 -74.470169 -23.132084
-49.457443 -75.199234 -24.103967
-50.354671 -74.869442 -23.643369
-50.452923 -73.294025 -24.450424
-48.58325 -75.638858 -24.614801
-49.457443 -75.199234 -24.103967
-48.668919 -74.00098 -25.361259
-49.645031 -71.974224 -25.742928
-48.758255 -72.351387 -26.193165
-48.58325 -75.638858 -24.614801
-48.668919 -74.00098 -25.361259
-46.988653 -62.530401 -31.282341
-47.02262 -64.298146 -30.543432
-47.982017 -62.199938 -31.130949
-46.988653 -62.530401 -31.282341
-46.916374 -60.743842 -31.932833
3 0 75 73
3 1 286 288
3 286 76 287
3 286 287 288
3 2 79 77
3 2 81 79
3 3 84 82
3 3 86 84
3 3 88 86
3 1 289 291
3 291 290 89
3 289 290 291
3 1 292 293
3 4 92 90
3 4 93 92
3 294 97 295
3 296 295 95
3 294 295 296
3 6 100 98
3 6 102 100
3 8 105 103
3 8 107 105
3 8 109 107
3 297 110 298
3 299 95 300
3 301 300 110
3 299 300 301
3 9 302 304
3 302 111 303
3 302 303 304
3 10 114 112
3 10 116 114
3 5 119 117
3 13 122 120
3 13 124 122
3 7 305 307
3 305 126 306
3 305 306 307
3 14 129 127
3 14 131 129
3 14 133 131
3 15 136 134
3 15 138 136
3 15 140 138
3 12 143 141
3 16 146 144
3 16 148 146
3 11 308 310
3 308 150 309
3 308 309 310
3 17 153 151
3 17 155 153
3 17 157 155
3 18 160 158
3 18 311 313
3 313 312 160
3 311 312 313
3 18 314 315
3 316 162 317
3 21 163 72
3 21 164 163
3 21 318 320
3 320 319 164
3 318 319 320
3 22 167 165
3 24 168 74
3 24 169 168
3 25 172 170
3 27 173 78
3 27 174 173
3 27 176 174
3 29 177 80
3 29 178 177
3 30 181 179
3 32 182 83
3 32 183 182
3 32 185 183
3 34 186 85
3 34 187 186
3 34 189 187
3 321 190 322
3 323 322 87
3 321 322 323
3 325 324 190
3 35 326 328
3 328 327 191
3 326 327 328
3 330 329 91
3 36 331 332
3 36 333 334
3 335 193 336
3 38 337 338
3 38 339 341
3 339 194 340
3 339 340 341
3 342 196 343
3 40 344 346
3 344 197 345
3 344 345 346
3 40 198 197
3 40 200 198
3 42 201 94
3 42 202 201
3 42 204 202
3 43 207 205
3 45 208 96
3 45 209 208
3 19 210 161
3 46 211 99
3 46 212 211
3 46 213 212
3 47 214 101
3 47 215 214
3 48 347 348
3 48 349 351
3 349 216 350
3 349 350 351
3 20 352 354
3 352 217 353
3 352 353 354
3 49 218 104
3 49 219 218
3 49 220 219
3 50 221 106
3 50 222 221
3 50 223 222
3 356 355 108
3 43 357 359
3 357 224 358
3 357 358 359
3 43 205 224
3 51 360 361
3 51 362 363
3 23 225 166
3 52 226 113
3 52 227 226
3 52 228 227
3 53 229 115
3 53 230 229
3 54 233 231
3 364 234 365
3 44 235 206
3 56 236 118
3 56 237 236
3 26 238 171
3 366 239 367
3 28 368 370
3 370 369 175
3 368 369 370
3 57 371 373
3 373 372 121
3 371 372 373
3 57 374 376
3 374 240 375
3 374 375 376
3 57 241 240
3 58 242 123
3 58 243 242
3 377 244 378
3 59 245 125
3 59 246 245
3 31 247 180
3 60 248 128
3 60 379 381
3 381 380 248
3 379 380 381
3 60 382 384
3 382 249 383
3 382 383 384
3 61 250 130
3 61 251 250
3 61 252 251
3 62 253 132
3 62 254 253
3 33 255 184
3 63 256 135
3 63 257 256
3 63 258 257
3 64 259 137
3 64 260 259
3 64 261 260
3 385 262 386
3 387 386 139
3 385 386 387
3 389 388 262
3 391 390 188
3 55 263 232
3 65 264 142
3 65 265 264
3 37 266 192
3 66 267 145
3 66 268 267
3 66 269 268
3 67 270 147
3 67 271 270
3 392 272 393
3 68 273 149
3 68 274 273
3 39 275 195
3 69 276 152
3 69 277 276
3 69 278 277
3 70 279 154
3 70 280 279
3 70 281 280
3 71 282 156
3 71 283 282
3 41 284 199
3 394 285 395
3 396 395 159
3 394 395 396
3 398 397 285
3 401 400 203
3 399 400 401
3 402 72 403
3 402 403 404
3 405 72 406
3 407 21 408
3 409 408 72
3 407 408 409
3 411 410 21
3 73 74 22
3 75 74 73
3 75 24 74
3 76 412 414
3 412 413 414
3 76 415 416
3 77 78 25
3 79 78 77
3 79 27 78
3 79 80 27
3 81 80 79
3 81 29 80
3 82 83 30
3 84 83 82
3 84 32 83
3 84 85 32
3 86 85 84
3 86 34 85
3 86 87 34
3 88 87 86
3 88 417 419
3 419 418 87
3 417 418 419
3 89 420 421
3 423 422 89
3 90 91 35
3 92 91 90
3 92 424 426
3 426 425 91
3 424 425 426
3 92 427 428
3 93 429 431
3 431 430 92
3 429 430 431
3 93 432 434
3 432 36 433
3 432 433 434
3 435 38 436
3 437 40 438
3 439 94 440
3 441 440 40
3 439 440 441
3 442 94 443
3 444 42 445
3 446 445 94
3 444 445 446
3 448 447 42
3 95 96 43
3 97 96 95
3 97 45 96
3 98 99 19
3 100 99 98
3 100 46 99
3 100 101 46
3 102 101 100
3 102 47 101
3 449 48 450
3 103 104 20
3 105 104 103
3 105 49 104
3 105 106 49
3 107 106 105
3 107 50 106
3 107 108 50
3 109 108 107
3 109 451 453
3 453 452 108
3 451 452 453
3 110 454 455
3 110 456 458
3 456 457 458
3 110 459 460
3 95 461 463
3 463 462 110
3 461 462 463
3 95 464 466
3 464 43 465
3 464 465 466
3 111 467 468
3 111 469 471
3 469 51 470
3 469 470 471
3 112 113 23
3 114 113 112
3 114 52 113
3 114 115 52
3 116 115 114
3 116 53 115
3 473 472 54
3 117 118 44
3 119 118 117
3 119 56 118
3 475 474 26
3 120 121 28
3 122 121 120
3 122 57 121
3 122 123 57
3 124 123 122
3 124 58 123
3 476 125 477
3 478 125 479
3 480 59 481
3 482 481 125
3 480 481 482
3 126 483 484
3 126 485 486
3 127 128 31
3 129 128 127
3 129 60 128
3 129 130 60
3 131 130 129
3 131 61 130
3 131 132 61
3 133 132 131
3 133 62 132
3 134 135 33
3 136 135 134
3 136 63 135
3 136 137 63
3 138 137 136
3 138 64 137
3 138 139 64
3 140 139 138
3 140 487 489
3 489 488 139
3 487 488 489
3 141 142 55
3 143 142 141
3 143 65 142
3 144 145 37
3 146 145 144
3 146 66 145
3 146 147 66
3 148 147 146
3 148 67 147
3 490 149 491
3 490 491 492
3 150 493 495
3 493 149 494
3 493 494 495
3 150 68 149
3 151 152 39
3 153 152 151
3 153 69 152
3 153 154 69
3 155 154 153
3 155 70 154
3 155 156 70
3 157 156 155
3 157 71 156
3 158 159 41
3 160 159 158
3 160 496 498
3 498 497 159
3 496 497 498
3 160 499 500
3 502 501 160
3 503 161 504
3 505 161 506
3 507 19 508
3 509 508 161
3 507 508 509
3 510 19 511
3 510 511 512
3 513 98 514
3 515 514 19
3 513 514 515
3 516 98 517
3 518 6 519
3 520 519 98
3 518 519 520
3 162 521 522
3 162 523 525
3 523 20 524
3 523 524 525
3 72 526 528
3 526 162 527
3 526 527 528
3 163 162 72
3 163 20 162
3 163 103 20
3 164 103 163
3 164 8 103
3 164 529 531
3 531 530 8
3 529 530 531
3 533 532 164
3 535 534 21
3 165 166 9
3 167 166 165
3 167 23 166
3 74 167 22
3 168 167 74
3 168 23 167
3 168 112 23
3 169 112 168
3 169 10 112
3 170 171 5
3 172 171 170
3 172 26 171
3 78 172 25
3 173 172 78
3 173 26 172
3 173 536 538
3 538 537 26
3 536 537 538
3 174 539 541
3 541 540 173
3 539 540 541
3 174 542 543
3 174 544 546
3 544 175 545
3 544 545 546
3 176 175 174
3 176 28 175
3 80 176 27
3 177 176 80
3 177 28 176
3 177 120 28
3 178 120 177
3 178 13 120
3 179 180 7
3 181 180 179
3 181 31 180
3 83 181 30
3 182 181 83
3 182 31 181
3 182 127 31
3 183 127 182
3 183 14 127
3 183 184 14
3 185 184 183
3 185 33 184
3 85 185 32
3 186 185 85
3 186 33 185
3 186 134 33
3 187 134 186
3 187 15 134
3 187 188 15
3 189 188 187
3 189 547 549
3 549 548 188
3 547 548 549
3 87 189 34
3 190 189 87
3 190 550 552
3 552 551 189
3 550 551 552
3 190 553 554
3 556 555 190
3 191 557 558
3 560 559 191
3 91 561 563
3 563 562 35
3 561 562 563
3 565 564 91
3 566 192 567
3 568 567 12
3 566 567 568
3 193 569 571
3 569 192 570
3 569 570 571
3 193 37 192
3 572 193 573
3 574 193 575
3 576 37 577
3 578 577 193
3 576 577 578
3 579 144 580
3 581 580 37
3 579 580 581
3 194 582 584
3 582 144 583
3 582 583 584
3 194 16 144
3 585 195 586
3 587 586 11
3 585 586 587
3 196 588 590
3 588 195 589
3 588 589 590
3 196 39 195
3 591 196 592
3 197 593 595
3 593 196 594
3 593 594 595
3 197 39 196
3 197 151 39
3 198 151 197
3 198 17 151
3 198 199 17
3 200 199 198
3 200 41 199
3 94 200 40
3 201 200 94
3 201 41 200
3 201 158 41
3 202 158 201
3 202 18 158
3 202 203 18
3 204 203 202
3 204 596 598
3 598 597 203
3 596 597 598
3 599 204 600
3 601 600 42
3 599 600 601
3 602 204 603
3 605 604 204
3 205 206 1
3 207 206 205
3 207 44 206
3 96 207 43
3 208 207 96
3 208 44 207
3 208 117 44
3 209 117 208
3 209 5 117
3 161 606 608
3 606 97 607
3 606 607 608
3 210 97 161
3 210 45 97
3 99 210 19
3 211 210 99
3 211 45 210
3 211 209 45
3 212 209 211
3 212 5 209
3 212 170 5
3 213 170 212
3 213 25 170
3 101 213 46
3 214 213 101
3 214 25 213
3 214 77 25
3 215 77 214
3 215 2 77
3 216 609 610
3 216 611 613
3 611 7 612
3 611 612 613
3 217 614 615
3 217 616 618
3 616 48 617
3 616 617 618
3 104 217 20
3 218 217 104
3 218 48 217
3 218 216 48
3 219 216 218
3 219 7 216
3 219 179 7
3 220 179 219
3 220 30 179
3 106 220 49
3 221 220 106
3 221 30 220
3 221 82 30
3 222 82 221
3 222 3 82
3 222 619 621
3 621 620 3
3 619 620 621
3 223 622 624
3 624 623 222
3 622 623 624
3 223 625 626
3 108 223 50
3 627 223 628
3 629 628 108
3 627 628 629
3 631 630 223
3 632 109 633
3 634 633 8
3 632 633 634
3 635 109 636
3 639 638 109
3 637 638 639
3 224 640 641
3 224 642 643
3 224 644 646
3 644 89 645
3 644 645 646
3 205 89 224
3 205 1 89
3 166 111 9
3 225 111 166
3 225 51 111
3 113 225 23
3 226 225 113
3 226 51 225
3 226 647 649
3 649 648 51
3 647 648 649
3 227 650 652
3 652 651 226
3 650 651 652
3 227 653 654
3 227 655 657
3 655 191 656
3 655 656 657
3 228 191 227
3 228 35 191
3 115 228 52
3 229 228 115
3 229 35 228
3 229 90 35
3 230 90 229
3 230 4 90
3 658 11 659
3 660 11 661
3 663 662 11
3 231 232 0
3 233 232 231
3 233 55 232
3 664 233 665
3 666 665 54
3 664 665 666
3 667 233 668
3 669 55 670
3 671 670 233
3 669 670 671
3 672 141 673
3 674 673 55
3 672 673 674
3 234 675 677
3 675 141 676
3 675 676 677
3 234 12 141
3 678 234 679
3 680 234 681
3 682 12 683
3 684 683 234
3 682 683 684
3 686 685 12
3 206 76 1
3 235 76 206
3 235 687 689
3 689 688 76
3 687 688 689
3 118 235 44
3 236 235 118
3 236 690 692
3 692 691 235
3 690 691 692
3 236 693 694
3 237 695 697
3 697 696 236
3 695 696 697
3 237 698 699
3 171 119 5
3 238 119 171
3 238 56 119
3 700 238 701
3 702 701 26
3 700 701 702
3 703 238 704
3 705 56 706
3 707 706 238
3 705 706 707
3 708 237 709
3 710 709 56
3 708 709 710
3 711 237 712
3 714 713 237
3 239 715 716
3 239 717 719
3 717 9 718
3 717 718 719
3 175 720 721
3 723 722 175
3 121 724 726
3 726 725 28
3 724 725 726
3 728 727 121
3 729 239 730
3 240 731 733
3 731 239 732
3 731 732 733
3 240 9 239
3 240 165 9
3 241 165 240
3 241 22 165
3 123 241 57
3 242 241 123
3 242 22 241
3 242 73 22
3 243 73 242
3 243 0 73
3 734 6 735
3 736 6 737
3 738 102 739
3 740 739 6
3 738 739 740
3 244 741 743
3 741 102 742
3 741 742 743
3 244 47 102
3 125 744 746
3 744 244 745
3 744 745 746
3 245 244 125
3 245 47 244
3 245 215 47
3 246 215 245
3 246 2 215
3 180 126 7
3 247 126 180
3 247 747 749
3 749 748 126
3 747 748 749
3 128 247 31
3 248 247 128
3 248 750 752
3 752 751 247
3 750 751 752
3 248 753 754
3 756 755 248
3 249 757 758
3 249 759 761
3 759 59 760
3 759 760 761
3 130 249 60
3 250 249 130
3 250 59 249
3 250 246 59
3 251 246 250
3 251 2 246
3 251 81 2
3 252 81 251
3 252 29 81
3 132 252 61
3 253 252 132
3 253 29 252
3 253 178 29
3 254 178 253
3 254 13 178
3 184 133 14
3 255 133 184
3 255 62 133
3 135 255 33
3 256 255 135
3 256 62 255
3 256 254 62
3 257 254 256
3 257 13 254
3 257 124 13
3 258 124 257
3 258 58 124
3 137 258 63
3 259 258 137
3 259 58 258
3 259 243 58
3 260 243 259
3 260 0 243
3 260 231 0
3 261 231 260
3 261 54 231
3 139 261 64
3 262 261 139
3 262 54 261
3 262 762 764
3 764 763 54
3 762 763 764
3 766 765 262
3 188 140 15
3 767 140 768
3 769 768 188
3 767 768 769
3 771 770 140
3 772 88 773
3 774 773 3
3 772 773 774
3 775 88 776
3 778 777 88
3 232 75 0
3 263 75 232
3 263 24 75
3 142 263 55
3 264 263 142
3 264 24 263
3 264 169 24
3 265 169 264
3 265 10 169
3 192 143 12
3 266 143 192
3 266 65 143
3 145 266 37
3 267 266 145
3 267 65 266
3 267 265 65
3 268 265 267
3 268 10 265
3 268 116 10
3 269 116 268
3 269 53 116
3 147 269 66
3 270 269 147
3 270 53 269
3 270 230 53
3 271 230 270
3 271 4 230
3 272 779 780
3 272 781 783
3 781 38 782
3 781 782 783
3 149 784 786
3 784 272 785
3 784 785 786
3 273 272 149
3 273 38 272
3 273 194 38
3 274 194 273
3 274 16 194
3 195 150 11
3 275 150 195
3 275 68 150
3 152 275 39
3 276 275 152
3 276 68 275
3 276 274 68
3 277 274 276
3 277 16 274
3 277 148 16
3 278 148 277
3 278 67 148
3 154 278 69
3 279 278 154
3 279 67 278
3 279 271 67
3 280 271 279
3 280 4 271
3 280 93 4
3 281 93 280
3 281 36 93
3 156 281 70
3 282 281 156
3 282 36 281
3 282 787 789
3 789 788 36
3 787 788 789
3 283 790 792
3 792 791 282
3 790 791 792
3 283 793 794
3 199 157 17
3 284 157 199
3 284 71 157
3 159 284 41
3 285 284 159
3 285 71 284
3 285 283 71
3 795 283 796
3 797 796 285
3 795 796 797
3 799 798 283
3 203 800 802
3 802 801 18
3 800 801 802
3 804 803 203
