ply
format ascii 1.0
element vertex 817
property float x
property float y
property float z
element face 977
property list uchar int vertex_index
end_header
-0.337963 -64.811325 25.460627
1.605129 -65.431305 43.021854
-1.801088 -41.218307 41.263767
2.908205 -60.620811 8.917184
-0.447538 -73.764175 55.930077
0.458405 -75.656837 46.590927
1.291449 -65.454193 51.818237
1.590399 -43.936737 47.391239
2.860577 -74.592484 28.458313
8.735958 -81.36293 23.037193
5.815357 -72.919754 19.305347
9.198866 -71.454178 10.394329
0.771454 -63.285309 16.900967
1.290443 -75.620026 37.501953
0.351564 -65.286514 34.206993
2.43351 -55.536182 49.045998
0.710146 -54.153938 41.44487
-1.707335 -53.446995 33.472031
-3.417261 -25.581194 40.935364
-3.710997 -39.185684 33.964436
-3.097223 -52.56292 25.354908
5.887709 -56.510582 2.250235
0.327379 -69.834755 53.652344
0.83881 -65.193024 56.020798
10.740429 -56.459698 -2.904028
1.248892 -69.92408 26.634537
4.21475 -73.775299 23.895916
2.111483 -69.250732 22.185593
3.319933 -68.425476 17.775221
0.05171 -64.183975 21.138783
1.065456 -70.693649 44.586395
0.874199 -75.793427 42.027157
1.069101 -70.704773 40.058567
0.901463 -70.602036 35.560913
1.105976 -65.343613 38.605598
-0.258049 -42.499619 44.505756
0.864542 -48.899479 44.773994
-0.563812 -47.978203 41.290283
-0.562733 -53.739021 37.50243
-1.826376 -47.261848 37.56789
-2.641584 -19.264673 43.772079
-3.96501 -16.950161 40.509941
-3.570173 -46.063583 29.821758
10.255133 -80.572342 18.037167
6.218931 -66.373032 9.390229
10.738132 -70.414017 6.338008
7.68952 -64.808426 5.612819
8.963499 -62.602951 2.223299
4.319586 -58.736343 5.363585
-0.355623 -79.131393 53.728775
0.292976 -80.204803 48.978897
-0.012421 -75.033745 51.229057
0.780293 -70.456978 49.133568
1.635015 -65.511635 47.439072
-1.265234 -35.416206 44.301407
4.366623 -79.048988 30.649662
6.010986 -78.074486 25.932846
7.786041 -77.110931 21.148092
9.545931 -76.408653 16.37076
7.51008 -72.170807 14.760096
4.721724 -67.500122 13.476692
1.722212 -62.116783 12.799814
1.054295 -80.548721 44.383926
1.926651 -80.36705 39.848572
2.998631 -79.839142 35.284271
1.892233 -75.220306 32.986343
0.866407 -70.368996 31.091217
-0.234661 -65.1567 29.825073
1.86994 -61.014416 54.442841
2.097246 -60.671848 50.301239
2.057783 -60.28117 46.145302
2.214148 -49.998665 48.076569
1.763109 -54.773075 45.271736
1.539738 -59.928661 41.972672
0.551226 -59.715103 37.770844
-0.571917 -59.607494 33.544205
-1.402563 -59.444904 29.306894
-2.042875 -27.61694 44.070415
-2.740652 -33.742268 41.171402
-4.411882 -23.799725 37.438225
-3.700369 -32.270897 37.673256
-2.885695 -40.126194 37.686981
-2.776777 -46.66972 33.712372
-2.516085 -53.107666 29.413691
-1.776377 -59.05938 25.085653
-1.818979 -58.3587 20.905294
-1.642012 -57.312771 16.778313
7.543495 -54.177197 -0.309404
9.951553 -59.751122 -0.679556
0.371382 -67.027969 56.917458
9.795219 -54.097164 -2.477957
11.10635 -54.691467 -3.676815
0.44276 -67.437096 25.951017
1.625931 -69.612495 24.408205
0.695484 -67.150108 23.751184
1.059992 -66.80217 21.56201
-0.19537 -64.533165 23.291962
1.381931 -68.094353 43.744251
1.10146 -70.717773 42.319103
1.308193 -68.080978 41.499123
1.142544 -68.056152 39.259056
1.408503 -65.382401 40.812157
-1.084064 -41.8358 42.935249
-0.483883 -45.204323 42.990906
-1.211306 -44.682259 41.275887
-1.230803 -47.597294 39.454338
-1.850447 -44.210556 39.484344
-4.212526 -12.553713 40.189331
4.566645 -63.583813 9.083595
6.968016 -65.661247 7.457677
5.275217 -62.767124 7.210954
5.989471 -61.825188 5.429104
3.589193 -59.727955 7.092041
-0.495281 -76.451599 54.824471
-0.254919 -77.149574 52.430618
-0.245008 -74.486282 53.576134
0.805676 -67.699623 52.687187
0.561226 -70.202545 51.403053
1.038504 -67.901352 50.473732
1.231676 -68.023926 48.23716
1.495039 -65.507622 49.637848
-0.290754 -36.306381 45.675285
-0.712286 -32.585197 45.549526
3.632927 -76.832939 29.524067
5.16156 -78.57592 28.30155
4.369364 -76.397163 27.216486
4.995184 -73.340508 21.601402
6.025917 -75.466576 22.555475
6.901375 -75.029121 20.209646
8.673855 -76.716248 18.750525
7.783739 -74.644501 17.867266
8.661585 -74.321655 15.545259
6.657803 -72.529419 17.019527
2.033276 -65.952461 17.241131
4.003477 -67.977356 15.606018
2.606108 -65.457458 15.125646
3.223114 -64.908615 13.05318
1.218895 -62.737129 14.829077
0.300014 -77.991043 47.739632
0.662037 -80.45639 46.667099
0.592733 -78.168823 45.440865
1.072758 -75.737335 39.761925
1.208994 -78.163231 40.897305
1.555893 -78.026382 38.634735
2.430239 -80.139229 37.573631
1.954155 -77.820358 36.369644
2.424517 -77.551155 34.098076
1.554489 -75.447769 35.244267
0.6688 -67.984299 34.800285
0.845942 -70.507019 33.323357
0.457764 -67.920105 32.581299
0.329735 -67.816513 30.36734
0.011366 -65.240448 32.014336
2.640295 -55.933388 50.957695
2.374331 -58.441238 51.647064
2.335947 -58.148857 49.639862
2.126289 -60.479797 48.224014
2.220098 -57.852695 47.646271
1.937712 -47.042244 47.70092
0.754642 -51.482346 43.180992
1.368303 -51.890877 44.983131
1.280935 -54.438755 43.371338
1.665802 -57.303024 43.659531
1.209507 -57.081276 41.649094
1.089912 -59.80262 39.875385
0.654497 -56.907532 39.62159
-1.171545 -53.587521 35.4944
-0.570852 -56.682137 35.518272
-1.132753 -56.596161 33.449081
-1.042896 -59.544888 31.425478
-1.604338 -56.496796 31.374498
-3.100363 -22.370827 42.401672
-2.359831 -23.493073 43.933517
-2.809114 -26.573921 42.563805
-2.475637 -30.646301 42.694221
-3.102934 -29.737568 41.073292
-4.761045 -19.408924 37.211174
-4.132254 -31.618135 35.858734
-3.72658 -35.713852 35.874298
-3.315752 -36.286182 37.703545
-3.305017 -39.642006 35.834038
-2.847666 -43.390694 35.752083
-3.255217 -43.018089 33.852608
-3.399645 -49.38266 27.61327
-3.043707 -49.676773 29.603598
-2.821379 -52.868732 27.385078
-2.242239 -56.169052 27.227833
-2.441889 -55.907043 25.161243
-1.827829 -58.751198 22.98954
-2.594572 -55.56493 23.09882
7.959454 -81.89019 25.556923
11.378366 -69.628883 4.449506
7.374716 -59.555229 2.186047
9.491554 -61.248383 0.701971
8.028233 -58.255756 0.753713
8.65485 -56.888252 -0.525295
6.708836 -55.334297 0.892603
-0.279243 -71.150368 56.999634
-0.101431 -71.855667 54.731346
0.114481 -69.340355 55.856018
0.569815 -67.410713 54.850655
1.060658 -65.346802 53.959564
2.060974 -72.299393 27.4827
3.495916 -74.20034 26.182232
2.570362 -71.95089 25.232277
3.177452 -71.561989 22.978251
3.860821 -71.150742 20.724167
4.59869 -70.734322 18.477625
2.683474 -68.851318 19.971926
1.51298 -66.400902 19.389507
0.379774 -63.767197 19.006512
0.732916 -73.21907 45.537964
0.673428 -75.773766 44.301781
0.864132 -73.285675 43.257751
0.954575 -73.286148 40.98719
1.020634 -73.236931 38.724838
1.09037 -73.146042 36.469513
0.990427 -70.665665 37.805733
0.914427 -68.025436 37.025925
0.735804 -65.315048 36.403809
3.107674 -53.812035 52.166939
2.784832 -53.317913 50.317627
0.646948 -43.203247 45.981155
1.124189 -46.392914 46.182236
0.305708 -45.776592 44.622566
0.145985 -48.412209 43.063721
0.097054 -51.127342 41.335686
0.080685 -53.922729 39.487957
-0.569462 -50.82716 39.444046
-1.204348 -50.573975 37.511948
-1.773535 -50.352478 35.550812
-3.36133 -18.074545 42.197952
-3.700991 -21.305866 40.751724
-3.66271 -42.64967 31.944872
7.789425 -68.992004 9.833341
10.000668 -71.003769 8.321571
8.57395 -68.405632 7.832114
9.308315 -67.673454 5.918331
9.963511 -66.756058 4.098805
10.515583 -65.627777 2.379565
8.360571 -63.792004 3.864721
6.693394 -60.752178 3.749848
5.088911 -57.656399 3.745294
-0.049398 -79.768806 51.330948
0.014959 -77.658379 50.068115
0.227282 -75.417923 48.899391
0.118193 -72.400536 52.43512
0.346571 -72.798218 50.130013
0.557554 -73.064301 47.829025
0.955332 -70.613937 46.858925
1.353655 -68.081833 45.991615
1.679028 -65.480057 45.231987
1.203197 -40.665409 47.139412
0.166708 -39.845123 45.816383
-0.788853 -39.049698 44.40345
-1.62179 -38.289391 42.875179
-4.806364 -11.477987 38.355461
5.051495 -81.266029 31.815998
5.849586 -80.767258 29.417103
6.687803 -80.236717 26.992928
7.5474 -79.704712 24.548801
5.174555 -75.932617 24.893108
6.892941 -77.574409 23.546156
8.409924 -79.209854 22.093418
9.261288 -78.791458 19.639898
10.092686 -78.477974 17.206129
10.394873 -76.182777 14.030046
9.526091 -74.046936 13.263981
8.361666 -71.825272 12.54561
5.373304 -70.322235 16.250191
6.171488 -69.910477 14.056471
6.981686 -69.47876 11.912421
5.464357 -66.974915 11.400454
3.878906 -64.290794 11.035105
2.284781 -61.414753 10.824647
0.893076 -78.217651 43.163269
1.472715 -80.510193 42.115391
3.643108 -79.473701 32.976921
2.98237 -77.220879 31.817116
2.324539 -74.935066 30.725403
1.198858 -73.012947 34.219902
1.381027 -72.831467 31.974072
1.663914 -72.594543 29.729303
0.995306 -70.176743 28.862186
0.319569 -67.658607 28.157169
-0.354374 -65.017578 27.6397
1.349958 -63.178585 55.217743
1.551622 -63.154194 53.144279
2.002071 -60.848633 52.376785
1.737194 -63.108349 51.026649
1.873943 -63.031616 48.888535
1.926817 -62.929344 46.740578
1.865068 -62.816128 44.586891
2.806231 -50.582161 49.737244
2.388102 -52.82423 48.524216
1.561493 -49.432636 46.435303
1.915789 -52.343212 46.756168
2.145647 -55.144405 47.157455
2.002384 -57.565151 45.656197
1.865965 -60.0919 44.062344
1.670429 -62.709644 42.429367
1.344601 -62.62421 40.269661
0.913118 -62.565651 38.109352
0.423016 -62.528881 35.949425
0.042803 -56.778934 37.577137
-0.022881 -59.656349 35.66
-0.066032 -62.498783 33.790054
-0.494862 -62.453979 31.631279
-0.818026 -62.371841 29.473999
-1.012476 -62.233047 27.320698
-1.442705 -24.652151 45.323311
-1.095186 -28.692535 45.433952
-1.681429 -31.600367 44.191689
-2.08436 -34.557739 42.797035
-2.311193 -37.572567 41.233017
-4.523222 -15.910081 38.734341
-4.229055 -20.315002 39.013973
-3.925852 -24.653433 39.217365
-4.060537 -28.099115 37.587822
-3.607798 -28.886158 39.360458
-3.260542 -32.978535 39.452473
-2.863733 -36.90448 39.498852
-2.397287 -40.649281 39.505714
-2.391459 -43.783535 37.635433
-2.338148 -46.958347 35.648415
-2.261221 -50.142929 33.573341
-3.173906 -46.377548 31.769855
-2.67544 -49.924328 31.589493
-2.153051 -53.294292 31.443256
-1.971064 -56.360851 29.299465
-1.642664 -59.287769 27.192345
-1.078772 -62.024227 25.17527
-1.034723 -61.738415 23.04216
-0.904591 -61.373531 20.925377
-0.708143 -60.929752 18.828396
-1.759336 -57.879616 18.833906
-0.453653 -60.407097 16.755156
-0.136921 -59.804134 14.711788
0.254677 -59.118122 12.708153
0.73568 -58.346729 10.758186
1.31666 -57.490803 8.878752
2.00112 -56.557301 7.087353
2.785641 -55.56168 5.399714
3.662315 -54.529205 3.828325
4.62154 -53.495483 2.382312
5.652967 -52.507545 1.068084
8.365395 -53.110451 -1.325375
10.953352 -64.280991 0.769003
10.361128 -58.144783 -1.893421
9.252663 -55.494312 -1.619255
9.999978 -53.32069 -2.753169
9.432215 -53.186426 -2.272798
-4.326483 -10.353312 39.975796
-4.010521 -10.956209 40.886438
-0.566578 -74.662586 56.584801
-0.519267 -73.313095 57.103108
-0.47141 -75.107887 55.377274
-0.59045 -76.006298 56.031998
-0.566578 -74.662586 56.584801
-0.347969 -31.184193 46.103632
-0.154722 -33.085751 46.164122
1.764055 -45.489491 47.54608
2.232293 -45.865155 48.243782
2.058636 -44.312401 48.088942
-3.718788 -37.449768 34.919367
-3.944439 -35.446316 34.949797
-3.936647 -37.182232 33.994866
8.746052 -82.479919 23.512695
8.3578 -82.74355 24.77256
8.347706 -81.62656 24.297058
10.179697 -72.460388 9.649121
9.782216 -72.617997 10.719272
12.17491 -70.571796 3.752022
11.635274 -69.117267 3.554134
0.039651 -69.019558 56.91877
-0.082381 -70.245362 56.427826
-0.157211 -69.924565 57.490578
-0.157211 -69.924565 57.490578
-0.328045 -70.709644 58.111344
11.356102 -56.805653 -3.550666
11.243099 -57.791922 -3.067446
11.690141 -54.90238 -4.312773
11.305642 -53.757553 -3.947564
3.215838 -52.490606 51.813396
3.430308 -52.781231 52.724201
3.054417 -52.243545 50.88874
2.946253 -53.564974 51.242283
3.215838 -52.490606 51.813396
-3.66317 -17.512353 41.353946
-3.479456 -15.899669 42.066084
-3.781296 -15.337477 41.222078
10.138183 -81.649956 18.451723
9.879044 -80.741627 19.280667
-0.202511 -79.450099 52.529861
-0.001694 -80.750232 52.004562
-0.154807 -80.431526 53.203476
-0.328889 -80.047439 54.419265
-0.483214 -78.709014 54.948914
-0.154807 -80.431526 53.203476
-0.328889 -80.047439 54.419265
1.002381 -38.940899 47.038424
1.577719 -39.400305 47.637783
0.484136 -38.530756 46.376909
0.684953 -40.255266 46.477897
1.002381 -38.940899 47.038424
10.221891 -77.34177 15.592256
10.495269 -78.37643 16.00994
9.819308 -77.443314 16.788445
9.970402 -76.295715 15.200403
10.646363 -77.228832 14.421899
10.221891 -77.34177 15.592256
0.594415 -81.41288 48.475718
0.371466 -81.242626 49.639874
1.214368 -81.662064 45.031815
1.018239 -81.615898 46.173401
0.858166 -80.502555 45.525513
1.468093 -81.660759 43.894241
1.214368 -81.662064 45.031815
2.173558 -81.505104 40.489036
1.94659 -81.576675 41.622446
1.699683 -80.438622 40.981982
2.462187 -81.38963 39.344447
2.173558 -81.505104 40.489036
3.311266 -80.968804 35.905934
3.02707 -81.118847 37.050613
2.714435 -79.989185 36.428951
3.653123 -80.776336 34.735414
3.311266 -80.968804 35.905934
3.320869 -79.656421 34.130596
3.975361 -80.593616 33.581739
3.653123 -80.776336 34.735414
1.609949 -62.0965 54.830292
1.536085 -62.185208 55.848736
1.796076 -61.103123 55.461285
2.51019 -50.290413 48.906906
2.760263 -49.14649 49.481194
2.464221 -48.854742 48.650856
-2.200271 -19.881197 44.490059
-2.343326 -17.766262 44.421349
-4.81456 -15.438225 37.810866
-4.664793 -13.694034 38.544901
-4.956131 -13.222179 37.621426
-1.700674 -57.596193 17.806109
-2.27315 -56.248452 18.906486
-2.214488 -55.965029 17.87869
-0.445652 -57.517832 12.728966
-0.595919 -57.888088 13.72702
-0.20515 -57.132136 11.753982
0.495178 -58.732426 11.733169
-0.445652 -57.517832 12.728966
0.589444 -55.850769 8.910346
0.300629 -56.294161 9.843502
0.931674 -55.384018 8.014647
1.65889 -57.024052 7.983053
0.589444 -55.850769 8.910346
2.130869 -53.945099 5.453465
1.689612 -54.419834 6.284903
2.569206 -53.428861 4.66777
3.223978 -55.045443 4.61402
2.130869 -53.945099 5.453465
4.139123 -52.01477 2.458086
3.561289 -52.447403 3.171834
4.654837 -51.520802 1.800972
5.137253 -53.001514 1.725198
4.139123 -52.01477 2.458086
11.310237 -71.721779 6.596829
10.941505 -72.016655 7.58861
10.3694 -70.708893 7.32979
10.61775 -61.239241 -0.699156
10.38775 -61.987871 -0.008392
9.721554 -60.499752 0.011207
10.742759 -60.373297 -1.370626
10.61775 -61.239241 -0.699156
10.156341 -58.947952 -1.286488
10.947546 -59.570127 -1.977558
10.742759 -60.373297 -1.370626
0.315144 -66.77446 57.867959
0.168101 -67.863365 57.44949
0.515731 -66.02116 57.41742
0.315144 -66.77446 57.867959
0.749445 -65.103688 56.969089
0.605096 -66.110496 56.469128
0.515731 -66.02116 57.41742
10.655544 -53.617841 -3.352598
10.450785 -54.394316 -3.077386
9.999978 -53.32069 -2.753169
11.305642 -53.757553 -3.947564
10.655544 -53.617841 -3.352598
-3.905054 -13.139253 41.061774
-4.010521 -10.956209 40.886438
-4.088768 -14.751937 40.349636
-3.781296 -15.337477 41.222078
-3.905054 -13.139253 41.061774
10.453979 -81.5322 17.209167
10.621567 -80.46875 16.817709
-0.553042 -77.369118 55.496762
-0.59045 -76.006298 56.031998
-0.425452 -77.791496 54.276623
-0.483214 -78.709014 54.948914
-0.553042 -77.369118 55.496762
0.056044 -34.946343 46.227001
0.255405 -36.761385 46.30636
-0.50152 -34.445789 45.612406
0.056044 -34.946343 46.227001
-0.154722 -33.085751 46.164122
2.087776 -60.016621 55.079842
1.796076 -61.103123 55.461285
2.507313 -57.187313 51.30238
2.577322 -57.384473 52.278935
2.710304 -56.130549 51.93425
2.326003 -47.376531 48.463031
2.232293 -45.865155 48.243782
2.07593 -48.520454 47.888745
2.464221 -48.854742 48.650856
2.326003 -47.376531 48.463031
-5.058788 -19.000164 36.280648
-4.933471 -17.187647 37.049282
-4.853696 -21.215664 36.411434
-5.058788 -19.000164 36.280648
-4.679115 -23.411065 36.52496
-4.586464 -21.604324 37.3247
-4.853696 -21.215664 36.411434
-4.147276 -33.398457 34.942014
-4.377203 -31.315734 34.938202
-3.929417 -33.665993 35.866516
-4.147276 -33.398457 34.942014
-3.944439 -35.446316 34.949797
-2.217089 -55.65988 16.85154
-2.214488 -55.965029 17.87869
-1.544264 -56.985412 15.7621
-2.217089 -55.65988 16.85154
8.040967 -83.021748 26.068418
7.571012 -82.169014 26.81228
8.040967 -83.021748 26.068418
8.3578 -82.74355 24.77256
11.937542 -71.013889 4.67757
11.617425 -71.406456 5.621821
11.058249 -70.02145 5.393757
11.937542 -71.013889 4.67757
12.17491 -70.571796 3.752022
0.242931 -68.184162 56.386738
0.039651 -69.019558 56.91877
0.168101 -67.863365 57.44949
-0.435119 -72.006191 57.637886
-0.328045 -70.709644 58.111344
-0.363391 -72.457271 56.464855
-0.519267 -73.313095 57.103108
-0.435119 -72.006191 57.637886
11.539062 -55.921537 -3.93706
11.356102 -56.805653 -3.550666
10.92339 -55.575583 -3.290421
11.539062 -55.921537 -3.93706
11.690141 -54.90238 -4.312773
3.231616 -54.056893 53.131554
3.430308 -52.781231 52.724201
2.943993 -55.069872 52.538872
3.231616 -54.056893 53.131554
2.873984 -54.872712 51.562317
2.710304 -56.130549 51.93425
2.943993 -55.069872 52.538872
-2.767196 -17.11792 43.670486
-2.343326 -17.766262 44.421349
-3.12707 -16.522856 42.883423
-3.479456 -15.899669 42.066084
-3.001457 -18.669609 42.985016
-2.767196 -17.11792 43.670486
-3.12707 -16.522856 42.883423
-3.934992 -38.964355 33.023066
-3.936647 -37.182232 33.994866
-3.910849 -40.696348 32.013284
-3.686853 -40.917677 32.954654
-3.934992 -38.964355 33.023066
-3.887991 -42.459024 30.98476
-3.910849 -40.696348 32.013284
-3.841723 -44.165981 29.923203
-3.616442 -44.356627 30.883315
-3.887991 -42.459024 30.98476
-3.783756 -45.887116 28.840986
-3.841723 -44.165981 29.923203
-3.698492 -47.546654 27.736742
-3.484909 -47.723122 28.717514
-3.783756 -45.887116 28.840986
-3.582758 -49.204851 26.611993
-3.698492 -47.546654 27.736742
-3.431547 -50.794981 25.482812
-3.248434 -50.97279 26.484089
-3.582758 -49.204851 26.611993
-3.228464 -52.371035 24.336335
-3.431547 -50.794981 25.482812
9.062348 -82.234493 22.223425
9.119457 -81.136921 21.780679
10.138183 -81.649956 18.451723
10.453979 -81.5322 17.209167
10.927846 -67.680855 3.378784
11.635274 -69.117267 3.554134
10.670939 -68.19247 4.274155
10.239547 -66.191917 3.239185
11.203882 -67.116715 2.519164
10.927846 -67.680855 3.378784
0.200278 -81.024628 50.815899
-0.001694 -80.750232 52.004562
0.121789 -79.986805 50.154922
0.371466 -81.242626 49.639874
0.200278 -81.024628 50.815899
1.928038 -42.718186 47.907511
2.058636 -44.312401 48.088942
1.734437 -41.082521 47.781597
1.577719 -39.400305 47.637783
1.396798 -42.301073 47.265326
1.928038 -42.718186 47.907511
1.734437 -41.082521 47.781597
-0.062023 -38.075752 45.745834
0.484136 -38.530756 46.376909
0.255405 -36.761385 46.30636
-4.938734 -9.266028 38.102545
-4.623401 -9.815449 39.05886
-5.122189 -10.994414 37.398983
-4.938734 -9.266028 38.102545
-4.956131 -13.222179 37.621426
-5.122189 -10.994414 37.398983
5.734592 -82.130893 31.186529
5.364311 -82.385395 32.415937
6.133637 -81.881508 29.987082
5.734592 -82.130893 31.186529
5.450541 -81.016644 30.616551
6.516078 -81.607548 28.74237
6.133637 -81.881508 29.987082
6.935187 -81.342277 27.530283
6.516078 -81.607548 28.74237
6.268695 -80.501987 28.205016
7.323628 -81.063454 26.274926
7.571012 -82.169014 26.81228
6.935187 -81.342277 27.530283
8.95644 -80.060383 21.308792
9.119457 -81.136921 21.780679
8.572941 -80.286392 22.565306
9.382122 -79.851185 20.082032
8.95644 -80.060383 21.308792
8.835606 -79.000656 20.866658
9.758211 -79.6819 18.838532
9.879044 -80.741627 19.280667
9.382122 -79.851185 20.082032
10.540344 -79.421566 16.40219
10.621567 -80.46875 16.817709
10.17391 -79.525158 17.621648
10.540344 -79.421566 16.40219
10.495269 -78.37643 16.00994
11.031254 -77.169559 13.257784
10.646363 -77.228832 14.421899
10.802799 -76.093563 12.890367
11.031254 -77.169559 13.257784
10.368407 -75.025643 12.507335
10.802799 -76.093563 12.890367
9.960482 -75.114857 13.647013
9.945828 -73.914376 12.154097
10.368407 -75.025643 12.507335
9.363616 -72.803543 11.794912
9.945828 -73.914376 12.154097
8.943879 -72.936104 12.904795
8.780266 -71.639725 11.46997
9.782216 -72.617997 10.719272
9.363616 -72.803543 11.794912
0.778946 -81.538673 47.319818
0.594415 -81.41288 48.475718
0.477507 -80.330596 47.822998
0.778946 -81.538673 47.319818
1.018239 -81.615898 46.173401
1.677303 -81.641495 42.759974
1.468093 -81.660759 43.894241
1.263505 -80.529457 43.249659
1.677303 -81.641495 42.759974
1.94659 -81.576675 41.622446
2.713981 -81.275719 38.206976
2.462187 -81.38963 39.344447
2.178445 -80.25314 38.711101
2.713981 -81.275719 38.206976
3.02707 -81.118847 37.050613
4.679555 -81.48978 33.001278
5.364311 -82.385395 32.415937
4.347302 -80.369865 32.396459
4.679555 -81.48978 33.001278
3.975361 -80.593616 33.581739
0.998189 -64.203114 56.611359
0.749445 -65.103688 56.969089
1.253763 -63.195894 56.209831
1.536085 -62.185208 55.848736
1.094384 -64.185804 55.61927
0.998189 -64.203114 56.611359
1.253763 -63.195894 56.209831
2.114299 -59.870903 54.058232
2.087776 -60.016621 55.079842
2.366494 -58.584314 52.660343
2.577322 -57.384473 52.278935
2.180365 -59.788011 53.025204
2.366494 -58.584314 52.660343
2.188201 -59.644936 52.011924
1.936005 -60.931524 53.409813
2.114299 -59.870903 54.058232
2.180365 -59.788011 53.025204
3.114771 -49.483505 50.27285
2.760263 -49.14649 49.481194
3.065116 -50.87567 50.598549
3.114771 -49.483505 50.27285
2.795532 -51.950037 50.027435
3.054417 -52.243545 50.88874
3.065116 -50.87567 50.598549
-2.059395 -21.995397 44.570778
-2.200271 -19.881197 44.490059
-2.500707 -21.378873 43.852798
-1.600832 -22.574936 45.265675
-2.059395 -21.995397 44.570778
-1.901268 -24.072612 44.628414
-1.074505 -23.201159 45.910518
-1.600832 -22.574936 45.265675
-0.89839 -25.239815 45.945568
-1.074505 -23.201159 45.910518
-0.724631 -27.260008 46.000889
-0.89839 -25.239815 45.945568
-1.268946 -26.672343 45.378631
-0.539419 -29.237862 46.045845
-0.724631 -27.260008 46.000889
-0.903736 -30.638866 45.491739
-0.347969 -31.184193 46.103632
-0.539419 -29.237862 46.045845
-4.509445 -12.01585 39.272396
-4.326483 -10.353312 39.975796
-4.623401 -9.815449 39.05886
-4.642133 -17.659502 37.972758
-4.81456 -15.438225 37.810866
-4.933471 -17.187647 37.049282
-4.474428 -25.588459 36.606898
-4.679115 -23.411065 36.52496
-4.334614 -29.497664 35.817152
-4.377203 -31.315734 34.938202
-4.298756 -27.738154 36.681696
-4.334614 -29.497664 35.817152
-4.096395 -29.858625 36.723278
-4.23621 -25.94942 37.513024
-4.474428 -25.588459 36.606898
-4.298756 -27.738154 36.681696
-2.977138 -53.87204 23.208291
-2.845897 -54.063925 24.226864
-3.228464 -52.371035 24.336335
-2.653389 -55.350601 22.068594
-2.977138 -53.87204 23.208291
-2.265592 -56.747486 20.971831
-2.206776 -56.961815 22.002057
-2.653389 -55.350601 22.068594
-2.235771 -56.507944 19.936137
-2.27315 -56.248452 18.906486
-1.789157 -58.119158 19.8696
-2.265592 -56.747486 20.971831
-2.235771 -56.507944 19.936137
-0.791718 -58.231094 14.728838
-0.889467 -58.558453 15.745051
-1.544264 -56.985412 15.7621
0.058878 -59.461128 13.709971
-0.791718 -58.231094 14.728838
-0.595919 -57.888088 13.72702
0.01014 -56.722124 10.783219
-0.20515 -57.132136 11.753982
1.02617 -57.918766 9.818469
0.01014 -56.722124 10.783219
0.300629 -56.294161 9.843502
1.297352 -54.917645 7.128722
0.931674 -55.384018 8.014647
2.393381 -56.059491 6.243533
1.297352 -54.917645 7.128722
1.689612 -54.419834 6.284903
3.081676 -52.964264 3.89484
2.569206 -53.428861 4.66777
4.141928 -54.012344 3.105319
3.081676 -52.964264 3.89484
3.561289 -52.447403 3.171834
5.291801 -51.145305 1.143527
4.654837 -51.520802 1.800972
6.198465 -52.068281 0.478488
5.291801 -51.145305 1.143527
7.143729 -52.903107 -0.210257
6.598231 -53.342371 0.37934
6.198465 -52.068281 0.478488
7.554679 -52.369734 -0.718242
7.954445 -53.643824 -0.817389
7.143729 -52.903107 -0.210257
8.124465 -52.034817 -1.245074
7.554679 -52.369734 -0.718242
8.717302 -52.69307 -1.696506
8.124465 -52.034817 -1.245074
8.746052 -82.479919 23.512695
9.062348 -82.234493 22.223425
10.580598 -72.235184 8.612742
10.179697 -72.460388 9.649121
9.599767 -71.228973 9.35795
10.580598 -72.235184 8.612742
10.941505 -72.016655 7.58861
11.310237 -71.721779 6.596829
11.617425 -71.406456 5.621821
11.389392 -66.47454 1.674041
11.203882 -67.116715 2.519164
11.608277 -65.801147 0.86876
11.389392 -66.47454 1.674041
10.734468 -64.954384 1.574284
11.724381 -65.028183 0.077253
11.608277 -65.801147 0.86876
11.11865 -63.504176 0.025124
10.222453 -62.764687 0.735487
10.38775 -61.987871 -0.008392
11.724381 -65.028183 0.077253
11.11865 -63.504176 0.025124
11.053449 -58.634464 -2.562143
10.947546 -59.570127 -1.977558
10.550778 -57.30224 -2.398725
11.243099 -57.791922 -3.067446
11.053449 -58.634464 -2.562143
8.717302 -52.69307 -1.696506
9.432215 -53.186426 -2.272798
9.080307 -53.603808 -1.901666
3 351 350 90
3 0 94 92
3 0 96 94
3 1 99 97
3 1 101 99
3 2 104 102
3 2 106 104
3 352 107 353
3 3 110 108
3 3 112 110
3 4 115 113
3 6 118 116
3 6 120 118
3 4 354 355
3 4 356 358
3 356 113 357
3 356 357 358
3 359 122 360
3 8 125 123
3 10 128 126
3 10 130 128
3 10 132 130
3 12 135 133
3 12 137 135
3 5 140 138
3 13 143 141
3 13 145 143
3 13 147 145
3 14 150 148
3 14 152 150
3 15 155 153
3 15 157 155
3 7 361 363
3 361 158 362
3 361 362 363
3 16 161 159
3 16 163 161
3 16 165 163
3 17 168 166
3 17 170 168
3 18 173 171
3 18 175 173
3 19 364 366
3 364 178 365
3 364 365 366
3 19 180 178
3 19 182 180
3 20 185 183
3 20 187 185
3 20 189 187
3 9 367 369
3 369 368 190
3 367 368 369
3 11 370 371
3 373 372 191
3 21 194 192
3 21 196 194
3 374 199 375
3 376 375 197
3 374 375 376
3 23 200 89
3 23 201 200
3 377 197 378
3 24 379 380
3 382 381 91
3 25 204 202
3 27 205 93
3 27 206 205
3 27 208 206
3 29 209 95
3 29 210 209
3 30 213 211
3 32 214 98
3 32 215 214
3 32 217 215
3 34 218 100
3 34 219 218
3 383 220 384
3 385 221 386
3 387 386 220
3 385 386 387
3 35 224 222
3 37 225 103
3 37 226 225
3 37 228 226
3 39 229 105
3 39 230 229
3 41 388 390
3 388 231 389
3 388 389 390
3 41 232 231
3 43 391 392
3 44 236 234
3 46 237 109
3 46 238 237
3 46 240 238
3 48 241 111
3 48 242 241
3 49 393 395
3 393 243 394
3 393 394 395
3 51 244 114
3 51 245 244
3 22 246 198
3 52 247 117
3 52 248 247
3 52 249 248
3 53 250 119
3 53 251 250
3 49 396 397
3 49 398 399
3 400 252 401
3 402 253 403
3 404 403 252
3 402 403 404
3 54 254 121
3 54 255 254
3 55 258 257
3 56 259 124
3 56 260 259
3 26 261 203
3 57 262 127
3 57 263 262
3 57 264 263
3 58 265 129
3 58 405 407
3 407 406 265
3 405 406 407
3 58 408 410
3 408 266 409
3 408 409 410
3 59 267 131
3 59 268 267
3 28 269 207
3 60 270 134
3 60 271 270
3 60 272 271
3 61 273 136
3 61 274 273
3 50 411 412
3 62 413 415
3 415 414 139
3 413 414 415
3 62 416 417
3 31 275 212
3 63 276 142
3 63 418 420
3 420 419 276
3 418 419 420
3 63 421 422
3 64 423 425
3 425 424 144
3 423 424 425
3 64 426 427
3 64 428 430
3 428 277 429
3 428 429 430
3 65 278 146
3 65 279 278
3 33 280 216
3 66 281 149
3 66 282 281
3 66 283 282
3 67 284 151
3 67 285 284
3 68 431 433
3 431 286 432
3 431 432 433
3 68 287 286
3 69 288 154
3 69 289 288
3 69 290 289
3 70 291 156
3 70 292 291
3 71 434 436
3 434 293 435
3 434 435 436
3 71 294 293
3 36 295 223
3 72 296 160
3 72 297 296
3 72 298 297
3 73 299 162
3 73 300 299
3 73 301 300
3 74 302 164
3 74 303 302
3 38 304 227
3 75 305 167
3 75 306 305
3 75 307 306
3 76 308 169
3 76 309 308
3 40 437 438
3 77 310 172
3 77 311 310
3 77 312 311
3 78 313 174
3 78 314 313
3 439 315 440
3 441 440 256
3 439 440 441
3 79 316 176
3 79 317 316
3 80 318 177
3 80 319 318
3 80 320 319
3 81 321 179
3 81 322 321
3 81 323 322
3 82 324 181
3 82 325 324
3 42 326 233
3 83 327 184
3 83 328 327
3 83 329 328
3 84 330 186
3 84 331 330
3 84 332 331
3 85 333 188
3 85 334 333
3 86 442 444
3 442 335 443
3 442 443 444
3 86 336 335
3 86 337 336
3 445 338 446
3 447 339 448
3 449 448 338
3 447 448 449
3 450 340 451
3 452 341 453
3 454 453 340
3 452 453 454
3 455 342 456
3 457 343 458
3 459 458 342
3 457 458 459
3 460 344 461
3 462 345 463
3 464 463 344
3 462 463 464
3 45 465 467
3 467 466 235
3 465 466 467
3 47 347 239
3 88 468 470
3 470 469 193
3 468 469 470
3 88 471 472
3 88 473 475
3 473 348 474
3 473 474 475
3 87 349 195
3 87 346 349
3 476 89 477
3 478 89 479
3 480 23 481
3 482 481 89
3 480 481 482
3 90 91 24
3 483 91 484
3 485 484 90
3 483 484 485
3 487 486 91
3 92 93 25
3 94 93 92
3 94 27 93
3 94 95 27
3 96 95 94
3 96 29 95
3 97 98 30
3 99 98 97
3 99 32 98
3 99 100 32
3 101 100 99
3 101 34 100
3 102 103 35
3 104 103 102
3 104 37 103
3 104 105 37
3 106 105 104
3 106 39 105
3 107 488 489
3 107 490 492
3 490 41 491
3 490 491 492
3 494 493 43
3 108 109 44
3 110 109 108
3 110 46 109
3 110 111 46
3 112 111 110
3 112 48 111
3 113 114 49
3 115 114 113
3 115 51 114
3 116 117 22
3 118 117 116
3 118 52 117
3 118 119 52
3 120 119 118
3 120 53 119
3 113 495 496
3 113 497 499
3 497 49 498
3 497 498 499
3 500 121 501
3 122 502 504
3 502 121 503
3 502 503 504
3 122 54 121
3 123 124 55
3 125 124 123
3 125 56 124
3 126 127 26
3 128 127 126
3 128 57 127
3 128 129 57
3 130 129 128
3 130 58 129
3 130 131 58
3 132 131 130
3 132 59 131
3 133 134 28
3 135 134 133
3 135 60 134
3 135 136 60
3 137 136 135
3 137 61 136
3 138 139 50
3 140 139 138
3 140 62 139
3 141 142 31
3 143 142 141
3 143 63 142
3 143 144 63
3 145 144 143
3 145 64 144
3 145 146 64
3 147 146 145
3 147 65 146
3 148 149 33
3 150 149 148
3 150 66 149
3 150 151 66
3 152 151 150
3 152 67 151
3 505 68 506
3 153 507 509
3 507 154 508
3 507 508 509
3 155 154 153
3 155 69 154
3 155 156 69
3 157 156 155
3 157 70 156
3 158 510 511
3 158 512 514
3 512 71 513
3 512 513 514
3 159 160 36
3 161 160 159
3 161 72 160
3 161 162 72
3 163 162 161
3 163 73 162
3 163 164 73
3 165 164 163
3 165 74 164
3 166 167 38
3 168 167 166
3 168 75 167
3 168 169 75
3 170 169 168
3 170 76 169
3 171 172 40
3 173 172 171
3 173 77 172
3 173 174 77
3 175 174 173
3 175 78 174
3 515 176 516
3 517 176 518
3 519 79 520
3 521 520 176
3 519 520 521
3 522 177 523
3 178 524 526
3 524 177 525
3 524 525 526
3 178 80 177
3 178 179 80
3 180 179 178
3 180 81 179
3 180 181 81
3 182 181 180
3 182 82 181
3 183 184 42
3 185 184 183
3 185 83 184
3 185 186 83
3 187 186 185
3 187 84 186
3 187 188 84
3 189 188 187
3 189 85 188
3 527 86 528
3 530 529 86
3 190 531 532
3 534 533 190
3 191 535 537
3 537 536 45
3 535 536 537
3 539 538 191
3 192 193 47
3 194 193 192
3 194 88 193
3 194 195 88
3 196 195 194
3 196 87 195
3 197 198 4
3 199 198 197
3 199 22 198
3 89 540 542
3 540 199 541
3 540 541 542
3 200 199 89
3 200 22 199
3 200 116 22
3 201 116 200
3 201 6 116
3 197 543 544
3 197 545 547
3 545 4 546
3 545 546 547
3 91 548 550
3 550 549 24
3 548 549 550
3 552 551 91
3 202 203 8
3 204 203 202
3 204 26 203
3 93 204 25
3 205 204 93
3 205 26 204
3 205 126 26
3 206 126 205
3 206 10 126
3 206 207 10
3 208 207 206
3 208 28 207
3 95 208 27
3 209 208 95
3 209 28 208
3 209 133 28
3 210 133 209
3 210 12 133
3 211 212 5
3 213 212 211
3 213 31 212
3 98 213 30
3 214 213 98
3 214 31 213
3 214 141 31
3 215 141 214
3 215 13 141
3 215 216 13
3 217 216 215
3 217 33 216
3 100 217 32
3 218 217 100
3 218 33 217
3 218 148 33
3 219 148 218
3 219 14 148
3 220 553 554
3 220 555 556
3 220 557 559
3 557 153 558
3 557 558 559
3 221 153 220
3 221 15 153
3 222 223 7
3 224 223 222
3 224 36 223
3 103 224 35
3 225 224 103
3 225 36 224
3 225 159 36
3 226 159 225
3 226 16 159
3 226 227 16
3 228 227 226
3 228 38 227
3 105 228 37
3 229 228 105
3 229 38 228
3 229 166 38
3 230 166 229
3 230 17 166
3 560 40 561
3 231 562 563
3 231 564 566
3 564 40 565
3 564 565 566
3 231 171 40
3 232 171 231
3 232 18 171
3 567 19 568
3 569 233 570
3 571 570 19
3 569 570 571
3 572 233 573
3 574 42 575
3 576 575 233
3 574 575 576
3 577 42 578
3 579 183 580
3 581 580 42
3 579 580 581
3 582 183 583
3 584 20 585
3 586 585 183
3 584 585 586
3 588 587 20
3 590 589 9
3 592 591 43
3 234 235 11
3 236 235 234
3 236 45 235
3 109 236 44
3 237 236 109
3 237 45 236
3 237 191 45
3 238 191 237
3 238 593 595
3 595 594 191
3 593 594 595
3 238 596 598
3 596 239 597
3 596 597 598
3 240 239 238
3 240 47 239
3 111 240 46
3 241 240 111
3 241 47 240
3 241 192 47
3 242 192 241
3 242 21 192
3 243 599 600
3 243 601 603
3 601 50 602
3 601 602 603
3 114 243 49
3 244 243 114
3 244 50 243
3 244 138 50
3 245 138 244
3 245 5 138
3 198 115 4
3 246 115 198
3 246 51 115
3 117 246 22
3 247 246 117
3 247 51 246
3 247 245 51
3 248 245 247
3 248 5 245
3 248 211 5
3 249 211 248
3 249 30 211
3 119 249 52
3 250 249 119
3 250 30 249
3 250 97 30
3 251 97 250
3 251 1 97
3 604 7 605
3 252 606 607
3 252 608 610
3 608 7 609
3 608 609 610
3 252 222 7
3 253 222 252
3 253 35 222
3 121 611 613
3 611 253 612
3 611 612 613
3 254 253 121
3 254 35 253
3 254 102 35
3 255 102 254
3 255 2 102
3 614 256 615
3 616 256 617
3 619 618 256
3 257 620 621
3 258 622 624
3 624 623 257
3 622 623 624
3 258 625 626
3 124 258 55
3 259 258 124
3 259 627 629
3 629 628 258
3 627 628 629
3 259 630 632
3 630 190 631
3 630 631 632
3 260 190 259
3 260 9 190
3 203 125 8
3 261 125 203
3 261 56 125
3 127 261 26
3 262 261 127
3 262 56 261
3 262 260 56
3 263 260 262
3 263 9 260
3 263 633 635
3 635 634 9
3 633 634 635
3 264 636 638
3 638 637 263
3 636 637 638
3 264 639 641
3 639 43 640
3 639 640 641
3 129 264 57
3 265 264 129
3 265 43 264
3 265 642 644
3 644 643 43
3 642 643 644
3 646 645 265
3 266 647 648
3 266 649 650
3 131 266 58
3 267 266 131
3 267 651 653
3 653 652 266
3 651 652 653
3 267 654 655
3 268 656 658
3 658 657 267
3 656 657 658
3 268 659 661
3 659 11 660
3 659 660 661
3 207 132 10
3 269 132 207
3 269 59 132
3 134 269 28
3 270 269 134
3 270 59 269
3 270 268 59
3 271 268 270
3 271 11 268
3 271 234 11
3 272 234 271
3 272 44 234
3 136 272 60
3 273 272 136
3 273 44 272
3 273 108 44
3 274 108 273
3 274 3 108
3 139 662 664
3 664 663 50
3 662 663 664
3 666 665 139
3 212 140 5
3 275 140 212
3 275 62 140
3 142 275 31
3 276 275 142
3 276 62 275
3 276 667 669
3 669 668 62
3 667 668 669
3 671 670 276
3 144 672 674
3 674 673 63
3 672 673 674
3 676 675 144
3 677 257 678
3 277 679 681
3 679 257 680
3 679 680 681
3 277 55 257
3 146 277 64
3 278 277 146
3 278 55 277
3 278 123 55
3 279 123 278
3 279 8 123
3 216 147 13
3 280 147 216
3 280 65 147
3 149 280 33
3 281 280 149
3 281 65 280
3 281 279 65
3 282 279 281
3 282 8 279
3 282 202 8
3 283 202 282
3 283 25 202
3 151 283 66
3 284 283 151
3 284 25 283
3 284 92 25
3 285 92 284
3 285 0 92
3 682 23 683
3 286 684 685
3 286 686 688
3 686 23 687
3 686 687 688
3 286 201 23
3 287 201 286
3 287 6 201
3 689 68 690
3 154 691 692
3 288 693 695
3 695 694 154
3 693 694 695
3 288 696 698
3 696 68 697
3 696 697 698
3 288 287 68
3 289 287 288
3 289 6 287
3 289 120 6
3 290 120 289
3 290 53 120
3 156 290 69
3 291 290 156
3 291 53 290
3 291 251 53
3 292 251 291
3 292 1 251
3 293 699 700
3 293 701 702
3 293 703 705
3 703 221 704
3 703 704 705
3 294 221 293
3 294 15 221
3 223 158 7
3 295 158 223
3 295 71 158
3 160 295 36
3 296 295 160
3 296 71 295
3 296 294 71
3 297 294 296
3 297 15 294
3 297 157 15
3 298 157 297
3 298 70 157
3 162 298 72
3 299 298 162
3 299 70 298
3 299 292 70
3 300 292 299
3 300 1 292
3 300 101 1
3 301 101 300
3 301 34 101
3 164 301 73
3 302 301 164
3 302 34 301
3 302 219 34
3 303 219 302
3 303 14 219
3 227 165 16
3 304 165 227
3 304 74 165
3 167 304 38
3 305 304 167
3 305 74 304
3 305 303 74
3 306 303 305
3 306 14 303
3 306 152 14
3 307 152 306
3 307 67 152
3 169 307 75
3 308 307 169
3 308 67 307
3 308 285 67
3 309 285 308
3 309 0 285
3 172 706 708
3 708 707 40
3 706 707 708
3 310 709 711
3 711 710 172
3 709 710 711
3 310 712 713
3 310 714 715
3 311 716 718
3 718 717 310
3 716 717 718
3 311 719 720
3 311 721 723
3 721 122 722
3 721 722 723
3 312 122 311
3 312 54 122
3 174 312 77
3 313 312 174
3 313 54 312
3 313 255 54
3 314 255 313
3 314 2 255
3 256 724 726
3 724 107 725
3 724 725 726
3 315 107 256
3 315 41 107
3 176 727 729
3 727 315 728
3 727 728 729
3 316 315 176
3 316 41 315
3 316 232 41
3 317 232 316
3 317 18 232
3 730 79 731
3 177 732 733
3 318 734 736
3 736 735 177
3 734 735 736
3 318 737 739
3 737 79 738
3 737 738 739
3 318 317 79
3 319 317 318
3 319 18 317
3 319 175 18
3 320 175 319
3 320 78 175
3 179 320 80
3 321 320 179
3 321 78 320
3 321 314 78
3 322 314 321
3 322 2 314
3 322 106 2
3 323 106 322
3 323 39 106
3 181 323 81
3 324 323 181
3 324 39 323
3 324 230 39
3 325 230 324
3 325 17 230
3 233 182 19
3 326 182 233
3 326 82 182
3 184 326 42
3 327 326 184
3 327 82 326
3 327 325 82
3 328 325 327
3 328 17 325
3 328 170 17
3 329 170 328
3 329 76 170
3 186 329 83
3 330 329 186
3 330 76 329
3 330 309 76
3 331 309 330
3 331 0 309
3 331 96 0
3 332 96 331
3 332 29 96
3 188 332 84
3 333 332 188
3 333 29 332
3 333 210 29
3 334 210 333
3 334 12 210
3 740 189 741
3 742 741 20
3 740 741 742
3 743 189 744
3 745 85 746
3 747 746 189
3 745 746 747
3 335 748 749
3 335 750 752
3 750 85 751
3 750 751 752
3 335 334 85
3 336 334 335
3 336 12 334
3 336 137 12
3 337 137 336
3 337 61 137
3 753 337 754
3 755 754 86
3 753 754 755
3 338 756 758
3 756 337 757
3 756 757 758
3 338 61 337
3 338 274 61
3 339 274 338
3 339 3 274
3 759 339 760
3 340 761 763
3 761 339 762
3 761 762 763
3 340 3 339
3 340 112 3
3 341 112 340
3 341 48 112
3 764 341 765
3 342 766 768
3 766 341 767
3 766 767 768
3 342 48 341
3 342 242 48
3 343 242 342
3 343 21 242
3 769 343 770
3 344 771 773
3 771 343 772
3 771 772 773
3 344 21 343
3 344 196 21
3 345 196 344
3 345 87 196
3 774 345 775
3 776 345 777
3 778 87 779
3 780 779 345
3 778 779 780
3 781 346 782
3 783 782 87
3 781 782 783
3 784 346 785
3 787 786 346
3 789 788 9
3 235 790 792
3 792 791 11
3 790 791 792
3 794 793 235
3 796 795 45
3 239 797 798
3 347 799 801
3 801 800 239
3 799 800 801
3 347 802 803
3 193 347 47
3 804 347 805
3 806 805 193
3 804 805 806
3 808 807 347
3 348 809 810
3 348 811 813
3 811 24 812
3 811 812 813
3 195 348 88
3 349 348 195
3 349 24 348
3 349 90 24
3 346 90 349
3 346 814 816
3 816 815 90
3 814 815 816
