ply
format ascii 1.0
element vertex 553
property float x
property float y
property float z
element face 665
property list uchar int vertex_index
end_header
69.877029 -9.418596 30.266304
46.127853 -7.662731 54.712303
58.054901 -6.176364 38.924961
65.689178 6.592344 24.91814
70.800636 -9.901105 23.503925
51.377678 -7.044213 45.806515
54.099701 -13.066685 47.26701
46.452023 -14.676192 52.602982
52.356445 0.762735 50.362938
57.494011 1.25563 40.735809
65.229988 -6.698997 33.957001
66.839317 -14.185835 37.854446
61.456291 -12.492791 42.893238
63.198608 1.128195 31.983908
68.987556 -2.326021 25.565765
69.465187 -0.40209 18.239395
70.742874 -9.539621 27.122898
70.250702 -13.832081 27.35297
69.943283 -12.74904 30.803173
48.566063 -7.428116 50.080666
48.481895 -11.004391 48.84996
45.492466 -11.511497 52.760834
49.488037 -3.415765 52.546547
51.998051 -3.222055 47.808472
61.710403 -6.153815 36.267662
63.219818 -9.549216 38.402786
59.599289 -9.421154 40.547737
52.99865 -16.057346 52.064995
57.533897 -2.531191 39.055077
60.229912 1.456619 36.172394
60.712139 -2.455576 35.372002
64.079971 -2.947977 32.227051
68.176796 3.710842 20.856949
69.844948 -1.085993 21.697767
67.758705 2.193176 24.562481
69.526329 -10.31741 20.376677
54.560383 -6.558615 42.07605
55.759415 -9.772485 42.852219
51.972431 -10.378533 45.560928
50.155891 -13.840148 49.710983
49.081669 -17.02603 54.428528
53.893791 4.679495 47.771675
56.518562 4.82172 42.874001
54.919083 0.93594 45.534302
54.64558 -2.88179 43.236679
68.155853 -7.891078 31.894928
68.620956 -11.495734 33.741329
66.325073 -10.276974 36.187469
64.454025 -13.045429 40.52774
57.951881 -12.546091 45.072647
59.902653 -15.376598 47.275612
45.287613 -18.206722 56.962059
59.193283 5.116793 37.95623
62.01738 5.106325 33.128986
64.963394 4.245872 28.544853
66.266815 -0.075745 28.353424
67.284409 -4.212481 29.667625
69.714226 -6.351835 27.852922
69.049889 -5.34484 17.418634
70.563538 -5.376248 20.321432
70.681694 -5.640094 23.92355
70.35463 -9.438058 28.865263
70.451607 -11.21174 28.909546
70.01255 -10.839113 30.507259
47.302757 -7.559752 52.369331
46.939869 -9.489521 51.350861
45.67646 -9.648007 53.583115
47.811737 -5.539137 53.607773
49.023438 -5.452621 51.247673
59.877197 -6.105158 37.543381
60.602875 -7.794695 38.375408
58.720901 -7.847017 39.558609
57.667648 -4.396601 38.752075
59.088177 -2.43931 37.147926
59.367825 -4.316869 37.113777
61.118229 -4.350797 35.606266
65.656677 7.439072 23.035566
66.945152 5.991402 20.893122
67.043129 5.323008 22.748264
68.115379 3.04682 22.693609
66.865837 4.455215 24.604469
70.345871 -10.111694 21.844437
69.484314 -12.617367 22.140612
70.229095 -12.290451 23.677349
52.924873 -6.803998 43.867783
53.184967 -8.507596 43.74263
51.465488 -8.791595 45.416981
47.346199 -12.87257 50.635643
49.100342 -12.521448 49.018333
48.252373 -14.258938 51.092056
49.543869 -15.450846 52.018539
47.615788 -15.938371 53.322868
51.030739 0.738285 52.694176
51.991016 2.769337 51.489021
52.554955 4.716606 50.149139
53.331299 2.766104 49.138252
54.634228 2.815857 46.718544
53.646179 0.825056 47.962166
51.614296 -5.172217 46.652603
53.297688 -3.066645 45.484856
53.011154 -4.975589 44.486687
54.484238 -4.760957 42.440529
66.801094 -7.217981 32.894905
67.259415 -9.009179 34.014824
65.823921 -8.479 35.091263
62.303978 -11.0225 40.650978
63.920052 -11.25169 39.540951
63.025406 -12.690048 41.743416
63.539688 -14.477184 42.630035
62.166283 -14.131823 43.90028
54.846786 -11.463203 44.998749
56.801228 -11.191536 43.864285
56.055603 -12.76075 46.153305
57.208527 3.077631 41.820549
57.841755 4.972841 40.409286
58.518921 3.23629 39.396488
61.686966 1.383793 34.022079
61.265465 3.34454 34.686169
62.713634 3.169043 32.433395
63.485168 4.810801 30.789845
64.19873 2.767113 30.282345
65.68837 2.100618 28.271671
64.740402 0.650681 30.083345
64.625343 -4.869088 32.949326
65.735939 -3.475372 30.868301
66.272758 -5.391932 31.788717
67.753593 -6.101869 30.746269
68.777298 -0.214008 16.723917
68.517654 -2.728945 16.276741
69.488815 -2.798965 17.605907
69.984703 -5.341905 18.766384
70.124695 -2.922951 19.12496
69.552094 -1.628599 23.593857
70.35778 -3.427909 22.64912
70.005806 -3.85339 24.587891
70.302094 -5.921188 25.872986
69.411575 -4.424891 26.595619
67.759003 -12.803512 35.788792
68.628426 -13.508846 34.348419
67.763161 -14.915991 36.384369
70.916115 -9.702675 25.292957
70.61409 -11.937985 25.373434
70.671356 -11.574017 27.152294
70.236176 -13.304281 29.105782
69.646507 -14.933146 31.125359
49.923992 -7.256316 47.883606
49.842266 -9.06006 47.24752
48.330086 -9.295003 49.23037
46.914597 -11.275493 50.731842
45.729675 -13.199556 52.406624
51.041611 -1.307083 51.482567
52.312637 -1.235317 49.098732
50.732887 -3.337238 50.175446
50.287659 -5.332918 48.916481
63.512291 -6.346219 35.077946
64.201294 -8.097267 36.166065
62.444443 -7.871947 37.253483
61.455063 -9.414222 39.471127
60.560486 -10.94645 41.722549
53.49696 -14.589584 49.635704
55.43055 -14.257945 48.510719
54.887794 -15.700594 50.900375
57.536469 -0.628527 39.761299
58.834263 1.395824 38.415665
58.961136 -0.515026 37.616875
60.455078 -0.499884 35.582905
62.014076 -0.627287 33.671547
63.618393 -0.934984 31.896507
62.387627 -2.61541 33.73053
62.886459 -4.527224 34.220795
69.008934 1.786709 19.332405
69.822807 -0.683958 19.904167
69.128883 1.321808 21.105392
68.933289 0.69808 22.9594
68.445877 -0.097515 24.873915
68.345947 -10.508337 19.138161
56.275215 -6.338317 40.431076
56.8368 -8.003616 40.8311
54.982666 -8.234541 42.218739
53.843445 -10.059367 44.142609
52.887493 -11.794628 46.218178
50.17598 -10.70103 47.12645
50.959599 -12.155943 47.550617
52.119576 -13.435398 48.443672
51.520168 -14.99485 50.796753
51.048492 -16.505758 53.234619
55.208488 4.714842 45.3358
55.919975 2.924932 44.268875
56.195053 1.088215 43.115902
53.579857 -1.122412 46.699387
54.861069 -0.969513 44.323441
56.17429 -0.794136 42.002701
56.054398 -2.691833 41.087978
56.036865 -4.556543 40.527237
69.217216 -8.672034 30.985012
69.365623 -10.320383 31.814941
68.45475 -9.651948 32.929085
67.590485 -10.846105 35.002777
66.670937 -12.163605 37.124413
64.855865 -9.837471 37.315346
65.383713 -11.636215 38.370762
65.730087 -13.551054 39.233978
57.689075 -9.549517 41.664001
58.716454 -11.010079 42.783169
59.759571 -12.449501 43.995167
57.285141 -14.024773 47.396637
59.034897 -13.913984 46.269814
60.664215 -13.945383 45.109741
61.324604 -15.567338 45.988464
44.791931 -15.082764 54.250481
45.782036 -16.442179 54.726326
47.146378 -17.599289 55.665581
59.867607 3.346291 37.013397
60.584023 5.185743 35.525208
62.466 6.700438 31.479548
63.977478 6.267616 29.072262
65.462631 5.528027 26.757671
66.408905 3.377712 26.447235
67.128746 1.147825 26.450563
67.710678 -1.0662 26.833563
65.228981 -1.452036 30.275421
66.785812 -2.198523 28.831348
68.210091 -3.186859 27.593338
68.640465 -5.168156 28.649071
68.983643 -6.994239 29.849236
69.874458 -8.065342 29.167057
66.614365 -8.078172 16.692268
67.788292 -5.366869 16.289616
68.153252 -7.985741 17.62446
69.385269 -7.886375 18.792042
70.268654 -7.790622 20.191257
70.787323 -7.711588 21.799143
70.410172 -3.125113 20.815788
70.78627 -5.46803 22.055101
70.955254 -7.667588 23.571524
70.814194 -7.683619 25.444366
70.427673 -7.795396 27.337048
69.403427 -12.148481 32.356857
69.263649 -14.229633 32.79023
46.969795 -6.600934 54.160038
47.225554 -5.574867 54.780414
46.383612 -6.636664 55.332679
69.121242 -0.308049 17.481656
68.675339 0.951789 17.1926
69.019284 0.857748 17.950339
49.618881 -2.383462 53.17688
48.868416 -3.444602 53.712284
50.264824 -2.361424 52.014557
50.395668 -1.329121 52.64489
49.618881 -2.383462 53.17688
68.059646 3.957558 19.964061
67.443825 5.097837 19.982148
67.560974 4.851122 20.875036
68.592865 2.748775 20.094677
68.475716 2.995491 19.201789
68.059646 3.957558 19.964061
68.949944 -11.614168 20.595793
68.359752 -11.709632 19.976535
68.936138 -10.412873 19.757419
68.870689 -13.899259 22.38744
69.384144 -13.69822 23.093849
70.097531 -14.079679 26.496478
70.279224 -13.132631 25.50671
70.432396 -12.885033 26.363202
49.864439 -17.521217 55.063263
50.84785 -17.261081 54.466308
50.065081 -16.765894 53.831574
53.28919 5.621236 48.209992
52.619772 5.639791 49.398724
53.224373 4.69805 48.960407
53.952907 5.584081 47.008167
53.28919 5.621236 48.209992
54.55114 4.697169 46.553737
54.610256 5.601755 45.790229
53.952907 5.584081 47.008167
64.618931 -14.01026 40.909981
65.256961 -14.263072 40.263099
65.092056 -13.298241 39.880859
63.685817 -15.446765 42.951183
63.085299 -15.196756 43.642086
56.983019 -14.740346 48.559838
56.357845 -14.141359 47.953678
56.055723 -14.856931 49.116878
59.468775 -14.645291 46.772713
58.695221 -14.628328 47.39407
59.129099 -15.359635 47.896969
44.04454 -15.278708 55.140488
44.533123 -14.291963 54.286934
44.683962 -17.578307 56.600021
44.413674 -18.517474 57.645882
45.534824 -17.32445 55.844193
44.931173 -16.696036 55.482155
44.683962 -17.578307 56.600021
56.605513 5.715485 42.105137
55.930407 5.664868 43.336802
58.634466 5.933799 38.411678
57.958702 5.861823 39.638206
58.517519 5.044817 39.182758
59.346565 5.99172 37.1767
58.634466 5.933799 38.411678
61.491789 5.991568 33.529789
60.77511 6.031277 34.7279
61.300702 5.146034 34.327097
62.24169 5.903382 32.304267
61.716099 6.788625 32.70507
61.491789 5.991568 33.529789
66.43248 -6.734354 16.034136
65.721161 -8.116033 16.338275
68.870769 -14.964901 33.806709
68.946038 -13.869239 33.569325
68.553158 -14.604508 34.585804
68.715812 -16.09936 34.002371
69.108692 -15.364092 32.985892
68.870769 -14.964901 33.806709
48.030266 -4.506288 54.242897
47.225554 -5.574867 54.780414
48.649887 -4.477451 53.07716
48.868416 -3.444602 53.712284
48.030266 -4.506288 54.242897
53.687849 -16.590261 52.668419
52.774792 -16.785007 53.282123
66.300915 6.715237 21.964344
66.170391 7.041694 21.011329
65.526153 7.765529 22.082551
69.756535 -13.534762 23.862217
69.384144 -13.69822 23.093849
69.856705 -12.453909 22.90898
69.891308 -15.032116 27.521273
69.999436 -14.718277 28.377358
50.812184 1.770055 53.210815
50.340982 0.733143 53.802799
51.292322 2.785581 52.608238
50.812184 1.770055 53.210815
51.510877 1.753811 52.091599
51.58099 3.78687 51.958656
51.292322 2.785581 52.608238
52.272986 3.742971 50.81908
51.862959 4.760504 51.288715
51.58099 3.78687 51.958656
62.398596 -15.024075 44.277209
63.085299 -15.196756 43.642086
62.852986 -14.304503 43.265158
59.520007 -16.08564 48.317288
59.129099 -15.359635 47.896969
60.187891 -16.18725 47.628376
59.520007 -16.08564 48.317288
45.091625 -19.105959 58.109279
44.413674 -18.517474 57.645882
46.032432 -18.746878 57.511643
45.091625 -19.105959 58.109279
68.310772 1.067214 16.416716
68.675339 0.951789 17.1926
68.283116 -0.151412 16.047327
68.310772 1.067214 16.416716
68.647476 -1.471477 16.500329
68.153293 -1.40888 15.823739
68.283116 -0.151412 16.047327
68.120525 -15.30808 35.603779
68.553158 -14.604508 34.585804
68.195794 -14.212419 35.366394
69.992173 -14.454377 29.253765
69.999436 -14.718277 28.377358
70.243439 -13.568181 28.229376
69.697338 -15.268809 30.263553
69.992173 -14.454377 29.253765
69.941341 -14.118714 30.115571
69.400486 -16.106291 31.307165
69.697338 -15.268809 30.263553
50.390232 -0.306437 53.250694
50.340982 0.733143 53.802799
51.036175 -0.284399 52.088372
50.390232 -0.306437 53.250694
50.395668 -1.329121 52.64489
55.784346 -15.578256 50.311706
56.055723 -14.856931 49.116878
55.159172 -14.97927 49.705547
54.632421 -16.411886 52.086109
53.943222 -15.87897 51.482685
53.687849 -16.590261 52.668419
55.490486 -16.282698 51.453941
54.632421 -16.411886 52.086109
55.784346 -15.578256 50.311706
55.490486 -16.282698 51.453941
66.769851 6.241073 19.976571
66.170391 7.041694 21.011329
66.769851 6.241073 19.976571
67.443825 5.097837 19.982148
68.791157 1.952148 18.496844
68.475716 2.995491 19.201789
69.23706 0.69231 18.7859
69.019284 0.857748 17.950339
68.791157 1.952148 18.496844
66.846267 -15.268441 38.128738
66.366306 -14.897246 38.868965
67.632309 -11.839203 19.432844
67.591072 -10.5939 18.640904
67.632309 -11.839203 19.432844
68.359752 -11.709632 19.976535
68.928936 -12.764146 21.477761
68.949944 -11.614168 20.595793
69.505322 -11.467389 21.258645
68.315312 -14.046038 21.724588
68.928936 -12.764146 21.477761
68.870689 -13.899259 22.38744
70.086727 -13.308864 24.658667
70.421593 -12.114218 24.525391
70.279224 -13.132631 25.50671
69.756535 -13.534762 23.862217
70.086727 -13.308864 24.658667
70.097531 -14.079679 26.496478
69.891308 -15.032116 27.521273
51.799713 -17.009213 53.866935
52.774792 -16.785007 53.282123
52.023571 -16.281552 52.649807
51.799713 -17.009213 53.866935
50.84785 -17.261081 54.466308
51.946817 5.715537 50.563125
51.862959 4.760504 51.288715
51.946817 5.715537 50.563125
52.619772 5.639791 49.398724
55.275369 5.611429 44.567701
54.610256 5.601755 45.790229
55.863525 4.768281 44.1049
55.930407 5.664868 43.336802
55.275369 5.611429 44.567701
64.78561 8.389415 23.245162
65.526153 7.765529 22.082551
64.907295 7.984086 24.214841
64.78561 8.389415 23.245162
64.923545 7.560722 25.156128
65.672928 7.015708 23.976853
64.907295 7.984086 24.214841
45.331648 -8.723422 55.301708
45.577804 -7.709756 55.889049
45.577804 -7.709756 55.889049
46.383612 -6.636664 55.332679
65.811691 -14.579855 39.558731
66.366306 -14.897246 38.868965
66.284702 -13.868445 38.544212
65.811691 -14.579855 39.558731
65.256961 -14.263072 40.263099
64.161762 -14.726137 41.961128
64.618931 -14.01026 40.909981
63.996856 -13.761306 41.578888
64.161762 -14.726137 41.961128
63.685817 -15.446765 42.951183
57.820343 -14.683723 47.957482
56.983019 -14.740346 48.559838
58.160019 -13.969378 46.833225
57.820343 -14.683723 47.957482
58.695221 -14.628328 47.39407
61.977756 -15.741833 45.3213
62.398596 -15.024075 44.277209
61.745444 -14.849581 44.944372
60.898866 -16.28262 46.984802
60.613629 -15.471968 46.632038
60.187891 -16.18725 47.628376
61.516233 -16.463024 46.282536
60.898866 -16.28262 46.984802
61.977756 -15.741833 45.3213
61.516233 -16.463024 46.282536
45.105951 -9.71606 54.737114
45.902157 -8.655369 54.147709
45.331648 -8.723422 55.301708
44.950298 -10.683402 54.248406
45.105951 -9.71606 54.737114
44.858301 -11.615147 53.837265
45.584463 -10.579752 53.171975
44.950298 -10.683402 54.248406
44.883391 -12.50633 53.54211
44.858301 -11.615147 53.837265
45.001995 -13.350359 53.365005
45.61107 -12.355526 52.583729
44.883391 -12.50633 53.54211
45.260803 -14.14116 53.328553
45.001995 -13.350359 53.365005
44.533123 -14.291963 54.286934
44.436121 -16.016328 55.244232
44.04454 -15.278708 55.140488
45.286983 -15.762472 54.488404
44.436121 -16.016328 55.244232
44.931173 -16.696036 55.482155
46.961815 -18.443161 56.863404
46.216995 -17.903005 56.31382
46.032432 -18.746878 57.511643
47.927067 -18.10728 56.272965
46.961815 -18.443161 56.863404
48.894712 -17.82065 55.654438
48.114024 -17.312659 55.047055
47.927067 -18.10728 56.272965
49.864439 -17.521217 55.063263
48.894712 -17.82065 55.654438
64.941162 7.051239 26.095199
64.923545 7.560722 25.156128
57.267109 5.791045 40.87278
56.605513 5.715485 42.105137
57.180159 4.89728 41.641644
57.267109 5.791045 40.87278
57.958702 5.861823 39.638206
60.041935 6.026195 35.96119
59.346565 5.99172 37.1767
59.888653 5.151268 36.740719
60.041935 6.026195 35.96119
60.77511 6.031277 34.7279
61.749624 7.54376 31.849016
61.716099 6.788625 32.70507
62.544575 7.397048 30.603053
61.749624 7.54376 31.849016
63.300314 7.180637 29.399409
62.544575 7.397048 30.603053
63.221739 6.484027 30.275905
64.085312 6.888875 28.172261
63.300314 7.180637 29.399409
64.827889 6.51908 27.014965
64.085312 6.888875 28.172261
64.720055 5.897822 27.914966
65.575905 6.060185 25.837905
64.941162 7.051239 26.095199
64.827889 6.51908 27.014965
65.832302 -9.452967 17.040496
64.939099 -9.490828 16.686504
65.721161 -8.116033 16.338275
66.725281 -9.378818 17.417957
65.832302 -9.452967 17.040496
67.885029 -2.708239 15.709458
68.153293 -1.40888 15.823739
67.520347 -4.027202 15.715895
67.885029 -2.708239 15.709458
68.152973 -4.047907 16.283178
67.019443 -5.378702 15.83281
67.520347 -4.027202 15.715895
67.201329 -6.72252 16.490942
66.43248 -6.734354 16.034136
67.019443 -5.378702 15.83281
67.494724 -9.332602 17.884053
66.725281 -9.378818 17.417957
67.383809 -8.031956 17.158364
68.249599 -9.247039 18.38131
67.591072 -10.5939 18.640904
67.494724 -9.332602 17.884053
69.300121 -15.715848 32.153456
69.455078 -14.58139 31.957794
69.108692 -15.364092 32.985892
69.400486 -16.106291 31.307165
69.300121 -15.715848 32.153456
67.308189 -15.633519 37.393699
67.301239 -14.550913 37.119408
66.846267 -15.268441 38.128738
67.700066 -16.04193 36.618763
67.308189 -15.633519 37.393699
67.245094 -16.759458 37.628094
68.120525 -15.30808 35.603779
67.700066 -16.04193 36.618763
3 0 63 61
3 1 66 64
3 1 239 241
3 239 67 240
3 239 240 241
3 1 64 67
3 2 71 69
3 2 74 72
3 2 69 74
3 3 78 76
3 3 80 78
3 4 83 81
3 5 86 84
3 7 89 87
3 7 91 89
3 8 93 92
3 8 95 93
3 8 97 95
3 5 100 98
3 5 84 100
3 10 104 102
3 12 107 105
3 12 109 107
3 6 112 110
3 9 115 113
3 13 118 116
3 13 120 118
3 13 122 120
3 10 125 123
3 10 102 125
3 15 242 244
3 242 127 243
3 242 243 244
3 15 129 127
3 15 131 129
3 14 134 132
3 14 136 134
3 11 139 137
3 16 142 140
3 18 143 62
3 18 144 143
3 19 147 145
3 21 148 65
3 21 149 148
3 22 245 246
3 22 247 249
3 247 150 248
3 247 248 249
3 22 152 150
3 19 153 68
3 19 145 153
3 24 156 154
3 26 157 70
3 26 158 157
3 27 161 159
3 28 164 162
3 30 165 73
3 30 166 165
3 30 168 166
3 24 169 75
3 24 154 169
3 32 250 252
3 252 251 77
3 250 251 252
3 32 253 255
3 253 170 254
3 253 254 255
3 32 172 170
3 34 173 79
3 34 174 173
3 35 256 258
3 258 257 175
3 256 257 258
3 260 259 82
3 17 261 263
3 263 262 141
3 261 262 263
3 36 178 176
3 38 179 85
3 38 180 179
3 20 181 146
3 39 182 88
3 39 183 182
3 39 184 183
3 40 185 90
3 40 264 266
3 266 265 185
3 264 265 266
3 41 267 269
3 269 268 94
3 267 268 269
3 41 270 271
3 41 272 274
3 272 186 273
3 272 273 274
3 43 187 96
3 43 188 187
3 23 189 151
3 44 190 99
3 44 191 190
3 44 192 191
3 36 193 101
3 36 176 193
3 45 196 194
3 47 197 103
3 47 198 197
3 25 199 155
3 48 200 106
3 48 201 200
3 48 275 277
3 277 276 201
3 275 276 277
3 279 278 108
3 37 202 177
3 49 203 111
3 49 204 203
3 280 205 281
3 282 281 160
3 280 281 282
3 50 283 285
3 283 206 284
3 283 284 285
3 50 207 206
3 50 208 207
3 286 209 287
3 51 288 289
3 51 290 292
3 290 210 291
3 290 291 292
3 51 211 210
3 42 293 294
3 52 295 297
3 297 296 114
3 295 296 297
3 52 298 299
3 29 212 163
3 53 213 117
3 53 300 302
3 302 301 213
3 300 301 302
3 53 303 305
3 303 214 304
3 303 304 305
3 54 215 119
3 54 216 215
3 54 217 216
3 55 218 121
3 55 219 218
3 31 220 167
3 56 221 124
3 56 222 221
3 56 223 222
3 45 224 126
3 45 194 224
3 306 226 307
3 58 227 128
3 58 228 227
3 58 229 228
3 59 230 130
3 59 231 230
3 33 232 171
3 60 233 133
3 60 234 233
3 60 235 234
3 57 236 135
3 57 225 236
3 46 237 195
3 308 238 309
3 310 309 138
3 308 309 310
3 313 312 238
3 311 312 313
3 61 62 16
3 63 62 61
3 63 18 62
3 64 65 19
3 66 65 64
3 66 21 65
3 67 314 315
3 67 316 318
3 316 22 317
3 316 317 318
3 67 68 22
3 64 68 67
3 64 19 68
3 69 70 24
3 71 70 69
3 71 26 70
3 320 319 27
3 72 73 28
3 74 73 72
3 74 30 73
3 74 75 30
3 69 75 74
3 69 24 75
3 76 321 323
3 321 77 322
3 321 322 323
3 78 77 76
3 78 32 77
3 78 79 32
3 80 79 78
3 80 34 79
3 81 82 35
3 83 82 81
3 83 324 326
3 326 325 82
3 324 325 326
3 328 327 17
3 84 85 36
3 86 85 84
3 86 38 85
3 87 88 20
3 89 88 87
3 89 39 88
3 89 90 39
3 91 90 89
3 91 40 90
3 92 329 330
3 93 331 333
3 333 332 92
3 331 332 333
3 93 334 335
3 93 336 338
3 336 94 337
3 336 337 338
3 95 94 93
3 95 41 94
3 95 96 41
3 97 96 95
3 97 43 96
3 98 99 23
3 100 99 98
3 100 44 99
3 100 101 44
3 84 101 100
3 84 36 101
3 102 103 45
3 104 103 102
3 104 47 103
3 105 106 25
3 107 106 105
3 107 48 106
3 107 108 48
3 109 108 107
3 109 339 341
3 341 340 108
3 339 340 341
3 110 111 37
3 112 111 110
3 112 49 111
3 342 50 343
3 345 344 50
3 346 51 347
3 349 348 51
3 113 114 42
3 115 114 113
3 115 52 114
3 116 117 29
3 118 117 116
3 118 53 117
3 118 119 53
3 120 119 118
3 120 54 119
3 120 121 54
3 122 121 120
3 122 55 121
3 123 124 31
3 125 124 123
3 125 56 124
3 125 126 56
3 102 126 125
3 102 45 126
3 127 350 351
3 127 352 353
3 127 354 356
3 354 128 355
3 354 355 356
3 129 128 127
3 129 58 128
3 129 130 58
3 131 130 129
3 131 59 130
3 132 133 33
3 134 133 132
3 134 60 133
3 134 135 60
3 136 135 134
3 136 57 135
3 137 138 46
3 139 138 137
3 139 357 359
3 359 358 138
3 357 358 359
3 140 141 4
3 142 141 140
3 142 17 141
3 62 142 16
3 143 142 62
3 143 17 142
3 143 360 362
3 362 361 17
3 360 361 362
3 144 363 365
3 365 364 143
3 363 364 365
3 144 366 367
3 145 146 5
3 147 146 145
3 147 20 146
3 65 147 19
3 148 147 65
3 148 20 147
3 148 87 20
3 149 87 148
3 149 7 87
3 368 92 369
3 150 370 372
3 370 92 371
3 370 371 372
3 150 8 92
3 150 151 8
3 152 151 150
3 152 23 151
3 68 152 22
3 153 152 68
3 153 23 152
3 153 98 23
3 145 98 153
3 145 5 98
3 154 155 10
3 156 155 154
3 156 25 155
3 70 156 24
3 157 156 70
3 157 25 156
3 157 105 25
3 158 105 157
3 158 12 105
3 159 160 6
3 161 160 159
3 161 373 375
3 375 374 160
3 373 374 375
3 376 161 377
3 378 377 27
3 376 377 378
3 379 161 380
3 382 381 161
3 162 163 9
3 164 163 162
3 164 29 163
3 73 164 28
3 165 164 73
3 165 29 164
3 165 116 29
3 166 116 165
3 166 13 116
3 166 167 13
3 168 167 166
3 168 31 167
3 75 168 30
3 169 168 75
3 169 31 168
3 169 123 31
3 154 123 169
3 154 10 123
3 77 383 384
3 386 385 77
3 170 387 388
3 170 389 391
3 389 15 390
3 389 390 391
3 170 171 15
3 172 171 170
3 172 33 171
3 79 172 32
3 173 172 79
3 173 33 172
3 173 132 33
3 174 132 173
3 174 14 132
3 393 392 11
3 175 394 395
3 397 396 175
3 82 398 400
3 400 399 35
3 398 399 400
3 403 402 82
3 401 402 403
3 141 83 4
3 404 83 405
3 406 405 141
3 404 405 406
3 408 407 83
3 410 409 17
3 176 177 2
3 178 177 176
3 178 37 177
3 85 178 36
3 179 178 85
3 179 37 178
3 179 110 37
3 180 110 179
3 180 6 110
3 146 86 5
3 181 86 146
3 181 38 86
3 88 181 20
3 182 181 88
3 182 38 181
3 182 180 38
3 183 180 182
3 183 6 180
3 183 159 6
3 184 159 183
3 184 27 159
3 90 184 39
3 185 184 90
3 185 27 184
3 185 411 413
3 413 412 27
3 411 412 413
3 415 414 185
3 94 416 417
3 419 418 94
3 186 420 421
3 186 422 424
3 422 42 423
3 422 423 424
3 96 186 41
3 187 186 96
3 187 42 186
3 187 113 42
3 188 113 187
3 188 9 113
3 151 97 8
3 189 97 151
3 189 43 97
3 99 189 23
3 190 189 99
3 190 43 189
3 190 188 43
3 191 188 190
3 191 9 188
3 191 162 9
3 192 162 191
3 192 28 162
3 101 192 44
3 193 192 101
3 193 28 192
3 193 72 28
3 176 72 193
3 176 2 72
3 425 76 426
3 427 76 428
3 429 3 430
3 431 430 76
3 429 430 431
3 433 432 1
3 434 1 435
3 194 195 0
3 196 195 194
3 196 46 195
3 103 196 45
3 197 196 103
3 197 46 196
3 197 137 46
3 198 137 197
3 198 11 137
3 155 104 10
3 199 104 155
3 199 47 104
3 106 199 25
3 200 199 106
3 200 47 199
3 200 198 47
3 201 198 200
3 201 11 198
3 201 436 438
3 438 437 11
3 436 437 438
3 440 439 201
3 108 441 443
3 443 442 48
3 441 442 443
3 445 444 108
3 177 71 2
3 202 71 177
3 202 26 71
3 111 202 37
3 203 202 111
3 203 26 202
3 203 158 26
3 204 158 203
3 204 12 158
3 160 112 6
3 205 112 160
3 205 49 112
3 446 205 447
3 206 448 450
3 448 205 449
3 448 449 450
3 206 49 205
3 206 204 49
3 207 204 206
3 207 12 204
3 207 109 12
3 208 109 207
3 208 451 453
3 453 452 109
3 451 452 453
3 454 208 455
3 456 455 50
3 454 455 456
3 457 208 458
3 460 459 208
3 461 66 462
3 463 462 1
3 461 462 463
3 464 66 465
3 466 21 467
3 468 467 66
3 466 467 468
3 469 21 470
3 471 149 472
3 473 472 21
3 471 472 473
3 209 474 476
3 474 149 475
3 474 475 476
3 209 7 149
3 477 209 478
3 210 479 481
3 479 209 480
3 479 480 481
3 210 7 209
3 210 91 7
3 211 91 210
3 211 40 91
3 482 211 483
3 484 483 51
3 482 483 484
3 485 211 486
3 487 40 488
3 489 488 211
3 487 488 489
3 491 490 40
3 492 3 493
3 114 494 496
3 496 495 42
3 494 495 496
3 498 497 114
3 163 115 9
3 212 115 163
3 212 52 115
3 117 212 29
3 213 212 117
3 213 52 212
3 213 499 501
3 501 500 52
3 499 500 501
3 503 502 213
3 214 504 505
3 214 506 507
3 119 214 53
3 215 214 119
3 215 508 510
3 510 509 214
3 508 509 510
3 215 511 512
3 216 513 515
3 515 514 215
3 513 514 515
3 216 516 518
3 516 3 517
3 516 517 518
3 216 80 3
3 217 80 216
3 217 34 80
3 121 217 54
3 218 217 121
3 218 34 217
3 218 174 34
3 219 174 218
3 219 14 174
3 167 122 13
3 220 122 167
3 220 55 122
3 124 220 31
3 221 220 124
3 221 55 220
3 221 219 55
3 222 219 221
3 222 14 219
3 222 136 14
3 223 136 222
3 223 57 136
3 126 223 56
3 224 223 126
3 224 57 223
3 224 225 57
3 194 225 224
3 194 0 225
3 226 519 521
3 519 520 521
3 226 522 523
3 128 524 525
3 227 526 528
3 528 527 128
3 526 527 528
3 227 529 530
3 227 531 533
3 531 226 532
3 531 532 533
3 228 226 227
3 228 534 536
3 536 535 226
3 534 535 536
3 228 537 539
3 537 175 538
3 537 538 539
3 229 175 228
3 229 35 175
3 130 229 58
3 230 229 130
3 230 35 229
3 230 81 35
3 231 81 230
3 231 4 81
3 171 131 15
3 232 131 171
3 232 59 131
3 133 232 33
3 233 232 133
3 233 59 232
3 233 231 59
3 234 231 233
3 234 4 231
3 234 140 4
3 235 140 234
3 235 16 140
3 135 235 60
3 236 235 135
3 236 16 235
3 236 61 16
3 225 61 236
3 225 0 61
3 195 63 0
3 237 63 195
3 237 18 63
3 138 237 46
3 238 237 138
3 238 18 237
3 238 144 18
3 540 144 541
3 542 541 238
3 540 541 542
3 544 543 144
3 545 139 546
3 547 546 11
3 545 546 547
3 548 139 549
3 548 549 550
3 552 551 139
