ply
format ascii 1.0
element vertex 787
property float x
property float y
property float z
element face 976
property list uchar int vertex_index
end_header
-34.838139 -17.697729 74.318756
-49.295242 -30.488136 63.428558
-39.96788 -26.506737 66.42717
-35.556824 -38.759636 75.874634
-59.345577 -26.194023 47.090256
-39.223728 -13.681883 68.131622
-36.004425 -22.755848 68.849792
-40.221542 -18.856682 61.885921
-32.521313 -29.884651 71.451683
-28.283237 -17.002899 78.005753
-46.972691 -35.53199 53.739986
-54.117073 -27.449844 55.153713
-43.617985 -35.077827 70.592705
-37.365955 -43.502884 67.6745
-42.128437 -39.328968 60.696468
-46.700157 -27.749855 67.816544
-51.981369 -23.585251 60.335072
-44.753723 -21.999798 59.846783
-39.405933 -32.461395 73.312637
-57.31921 -20.931379 51.780083
-37.012348 -15.910945 71.764709
-37.585518 -11.669472 70.455299
-35.028847 -14.375486 73.923706
-35.403557 -20.016413 71.952713
-37.757736 -18.334642 68.671265
-32.491695 -20.805395 74.756042
-32.948921 -23.949772 71.878586
-32.2188 -17.378323 76.251411
-28.836123 -20.826729 77.30513
-31.487209 -13.62298 75.259018
-48.301479 -32.777203 58.65765
-50.773323 -31.294739 54.824169
-51.705254 -28.681688 59.36552
-46.686131 -32.737549 67.203857
-43.383633 -37.050262 66.150574
-45.910667 -34.792938 62.47776
-44.424946 -37.230598 57.111046
-43.388145 -27.205143 67.269928
-46.08659 -24.789118 64.068588
-42.523842 -24.194054 63.374325
-41.688187 -14.254192 60.929089
-42.148163 -16.867058 57.946869
-36.651291 -28.5103 69.047318
-35.830982 -31.422466 72.230934
-40.025459 -29.55912 69.949234
-43.442688 -30.247036 70.817764
-56.470978 -30.010551 47.806686
-51.195641 -21.015833 56.40139
-54.603477 -22.175457 56.106586
-54.100731 -19.478422 52.2887
-30.803465 -40.017914 77.869064
-33.02298 -42.498985 74.737671
-37.03833 -46.068962 62.458336
-35.102314 -48.028481 65.951828
-37.387188 -25.060942 66.756523
-39.793144 -22.990669 63.62999
-38.343662 -20.929459 65.546463
-39.731045 -16.280548 64.929153
-30.272539 -27.525627 72.321213
-34.199291 -26.636683 69.579132
-23.817635 -16.531656 79.489449
-27.040215 -13.06997 76.180862
-46.532639 -38.81686 50.091316
-49.896797 -34.442432 50.71785
-53.471634 -30.416359 51.14785
-56.646431 -26.67878 50.999939
-39.903046 -37.142422 73.495148
-37.007488 -41.013451 72.380455
-40.470753 -39.197098 69.509949
-39.866261 -41.504574 64.306534
-38.876507 -43.980194 58.83287
-43.465321 -40.102535 52.444157
-48.862991 -28.769764 66.693764
-51.446579 -26.681017 62.813225
-49.423916 -25.428459 64.291924
-48.560707 -22.70433 60.389679
-47.173824 -20.110678 55.992813
-41.775444 -20.82917 60.089394
-32.942085 -36.86277 77.528885
-31.001396 -32.649109 74.348969
-34.652061 -34.100609 75.431984
-37.870846 -35.469986 75.488663
-42.246883 -33.552666 73.057968
-45.88665 -31.198986 70.127594
-53.908165 -25.135578 58.594898
-56.386597 -24.0319 54.209732
-58.920517 -23.142178 49.853752
-60.072609 -19.681036 47.485615
-61.508709 -22.38356 45.657516
-34.427231 -45.243629 70.59436
-32.802746 -49.848263 69.11734
-35.870132 -16.915148 73.261482
-36.227177 -15.009932 72.970261
-35.017162 -16.212839 74.336159
-35.146042 -18.720139 73.363289
-36.341969 -17.984966 71.941055
-33.861824 -19.089426 74.609634
-34.030849 -20.540932 73.398903
-33.768669 -17.552721 75.259949
-32.367428 -19.137777 75.783875
-33.678757 -15.81573 75.263977
-48.921516 -31.57225 61.15638
-50.115044 -30.672501 59.161861
-50.51033 -29.514637 61.426056
-48.031578 -31.576225 65.358459
-46.457432 -33.712051 65.00441
-47.712143 -32.597763 63.108543
-47.107868 -33.732746 60.577843
-41.623642 -26.919649 66.783981
-43.008194 -25.719273 65.299759
-41.320534 -25.36038 64.962585
-38.418266 -27.573858 67.780548
-38.268703 -29.118191 69.395645
-40.053169 -28.071852 68.143188
-41.809498 -28.420351 68.670792
-57.977943 -28.095926 47.515961
-50.586723 -19.744148 54.192154
-52.61792 -20.248001 54.351025
-52.089001 -18.915461 52.175789
-33.211636 -39.419941 76.903671
-32.017899 -41.213203 76.472031
-34.268841 -40.562569 75.444061
-36.81789 -47.367325 59.836926
-36.02771 -48.387238 61.685272
-40.309177 -12.563513 66.162277
-39.770351 -11.376505 67.496155
-36.163624 -10.973952 71.169861
-37.51445 -9.563907 69.251884
-36.555592 -23.999647 67.599014
-37.819916 -23.077938 66.034393
-37.256069 -21.900377 67.240845
-38.541847 -16.014133 68.501663
-38.774139 -17.323204 66.846397
-39.557602 -14.941669 66.58757
-40.566319 -13.878757 64.604507
-29.621138 -26.048449 73.425842
-34.568546 -23.448271 70.388687
-33.436745 -25.376402 70.549805
-35.094772 -24.776127 69.095657
-35.897339 -25.930832 68.192505
-26.080273 -16.788553 78.768669
-24.294376 -18.562359 79.865791
-26.502739 -18.764725 78.947891
-29.942276 -15.286181 76.771294
-29.326633 -13.350655 75.742516
-27.75596 -15.051201 77.386292
-25.478325 -14.786103 77.960495
-46.583405 -37.101974 51.686333
-48.150711 -36.583855 50.411503
-48.382812 -34.906708 52.177349
-52.546757 -29.31937 55.119595
-52.08765 -30.785217 52.953903
-53.818962 -28.858593 53.120964
-55.144867 -28.516239 51.173935
-55.362259 -27.019144 53.055695
-41.845993 -36.16156 72.110016
-40.365082 -38.128056 71.712692
-42.100422 -37.114944 70.202644
-42.821983 -38.156937 63.476189
-41.588665 -39.264244 65.273323
-41.009964 -40.426464 62.514084
-39.358028 -42.719658 61.547081
-40.388058 -41.64296 59.739071
-39.863014 -42.926903 57.073685
-41.453117 -40.572609 57.960236
-45.657673 -36.313515 55.3899
-43.807907 -38.602699 54.61459
-45.137474 -37.779152 53.090919
-44.929932 -39.384491 51.187885
-47.979012 -28.174164 67.520935
-49.351368 -27.009609 65.722992
-48.105175 -26.541031 66.11618
-45.441437 -23.405748 61.945999
-47.322327 -23.691872 62.280037
-46.622215 -22.372169 60.101822
-47.85498 -21.433882 58.17717
-45.915638 -21.020514 57.946877
-39.891338 -20.998165 62.631546
-40.802292 -21.897184 61.910164
-40.820274 -19.942976 60.787144
-42.819614 -17.955505 56.892002
-30.235516 -30.329823 72.654602
-29.315447 -31.741341 73.94516
-31.747477 -31.3116 72.81263
-37.649166 -31.970806 72.844666
-35.30098 -32.77063 73.901428
-37.102989 -33.358002 74.407265
-36.371452 -34.76561 75.677216
-38.753956 -33.940525 74.603378
-40.144684 -34.579056 74.331955
-40.974693 -32.968025 73.432953
-45.159622 -29.005348 69.384293
-44.841537 -30.658489 70.736542
-46.489304 -29.409279 69.194038
-47.443398 -29.965637 68.471138
-51.915165 -25.043118 61.799252
-52.680573 -25.840515 60.736969
-53.173492 -24.261883 59.707344
-55.952728 -21.549337 53.945827
-55.722294 -23.003283 55.37183
-57.01709 -22.457115 53.174938
-57.645821 -23.571304 52.017235
-58.322426 -21.929268 50.986599
-60.951199 -20.914495 46.688423
-37.305164 -42.24041 70.131927
-35.625458 -43.078819 71.503891
-35.957146 -44.403343 69.195129
-34.365891 -50.357746 65.300537
-34.007923 -48.952522 67.578697
-33.41753 -51.308437 67.016296
-38.133739 -14.812038 70.021904
-38.595963 -12.575209 69.442009
-37.421448 -13.794986 71.297363
-36.320305 -13.005213 72.286087
-34.812237 -12.430641 73.007996
-35.655491 -21.398472 70.36866
-36.901932 -20.596758 68.746857
-36.641064 -19.255966 70.379295
-37.476944 -17.050489 70.303085
-30.910084 -22.610918 74.785126
-31.16028 -24.26195 73.340591
-32.662323 -22.410803 73.366074
-34.24419 -22.012268 71.901489
-30.356955 -17.195335 77.171951
-28.626171 -18.93248 77.966057
-30.603354 -19.06415 76.909966
-30.756548 -20.873207 76.056747
-32.947277 -12.014906 73.520218
-33.422012 -13.942514 74.670479
-31.949945 -15.527704 76.073578
-47.595314 -34.095055 56.121288
-48.88345 -33.368256 54.33979
-49.516571 -31.958836 56.73328
-51.317078 -29.92017 57.142159
-52.902077 -27.996727 57.266438
-45.224804 -33.921803 68.95295
-43.681267 -36.017372 68.569046
-45.124592 -34.86834 66.830032
-44.680122 -35.91452 64.341599
-44.007942 -37.042812 61.639297
-43.256596 -38.249535 58.886654
-45.179737 -35.96553 59.788235
-46.367264 -34.969906 57.943207
-45.12706 -27.451691 67.679848
-46.543243 -26.219261 66.070755
-44.795895 -25.975025 65.735672
-44.258831 -24.531235 63.684689
-43.644238 -23.061653 61.664074
-40.824074 -16.595936 61.341373
-41.14576 -17.841333 59.939896
-41.812416 -15.615719 59.331757
-34.675117 -29.283325 70.259621
-34.082253 -30.745274 71.697159
-36.270081 -30.015913 70.56929
-38.027115 -30.570198 71.12645
-39.823292 -31.010294 71.718216
-41.525513 -31.415073 72.122787
-41.795067 -29.906956 70.494881
-43.557297 -28.701717 69.153229
-54.875404 -31.95418 48.006824
-51.706745 -22.266695 58.49704
-53.278801 -22.841208 58.243546
-53.059246 -21.528282 56.420341
-54.457146 -20.827845 54.314552
-55.890137 -20.128994 52.197502
-31.920309 -44.580994 73.904907
-37.250946 -44.782001 65.092468
-36.099995 -45.738678 66.756348
-36.102577 -47.068245 64.239021
-35.224667 -49.384827 63.517208
-38.85194 -10.369659 68.531357
-38.531754 -25.898487 66.37809
-39.850056 -24.823086 64.90184
-38.674442 -24.063641 65.242645
-38.914444 -22.059292 64.38179
-39.311127 -19.898056 63.760044
-37.998932 -19.660181 67.027031
-38.980637 -18.647783 65.211121
-39.900806 -17.61318 63.309669
-40.683548 -15.249734 62.946861
-31.236692 -28.811657 71.642456
-31.601353 -25.794182 71.986679
-32.312355 -27.164707 70.94664
-33.337955 -28.334919 70.360077
-35.274467 -27.687698 69.076569
-37.010742 -26.867998 67.760231
-21.551937 -16.20665 80.200867
-26.773708 -20.715216 78.49411
-23.182068 -14.455084 78.538986
-51.519096 -34.128834 49.374619
-50.246815 -32.80106 52.618355
-51.696648 -32.388912 50.978111
-53.239601 -32.114525 49.437603
-54.932655 -30.165874 49.427994
-56.531212 -28.26833 49.301464
-57.974579 -26.407339 49.007931
-37.798744 -38.006996 74.74649
-36.431557 -39.845924 74.325882
-38.471764 -39.038876 73.087166
-38.811287 -40.151764 71.013458
-38.853306 -41.324169 68.627808
-41.989342 -38.156078 67.881714
-40.27507 -40.3283 67.000572
-38.661888 -42.535378 66.037651
-38.325344 -43.772655 63.344917
-37.94862 -45.03513 60.642345
-42.58511 -39.545933 56.243729
-49.298866 -29.545815 65.312408
-50.562729 -28.503397 63.349804
-50.18457 -27.662729 64.803947
-50.650444 -25.95857 63.810772
-50.703705 -24.441587 62.35849
-47.858658 -25.059698 64.331451
-49.12886 -24.010225 62.475697
-50.4011 -23.083412 60.523254
-49.844322 -21.821392 58.421795
-49.17289 -20.570118 56.199059
-41.006954 -23.697741 63.313438
-42.066429 -22.577831 61.608864
-43.102901 -21.50556 59.798687
-41.775146 -18.925629 58.865242
-42.786285 -19.813301 58.187054
-44.186523 -20.500921 57.905277
-31.903763 -38.372871 77.922073
-34.384914 -37.766563 76.952637
-28.464249 -33.075325 75.421753
-30.257355 -33.935181 75.925682
-33.473331 -32.109665 73.294617
-32.821091 -33.416389 74.918495
-33.866066 -35.451607 76.678909
-35.456581 -36.224976 76.5457
-36.785763 -37.069656 75.911369
-39.065807 -36.255989 74.768494
-41.191566 -35.314453 73.504486
-43.141598 -34.252777 72.110741
-43.006935 -31.862118 72.147812
-44.160606 -32.41246 71.657349
-44.910088 -33.097977 70.587601
-46.507721 -31.893162 68.94104
-47.959351 -30.691118 67.17955
-51.783978 -27.594637 61.304382
-52.988541 -26.830645 59.193008
-54.194408 -26.203152 57.037647
-54.440826 -23.593208 57.557014
-55.141586 -24.543278 56.410591
-55.413258 -25.689482 54.86454
-56.652817 -25.260941 52.701393
-57.918434 -24.892246 50.573303
-59.21254 -24.569178 48.498268
-55.627098 -18.679749 50.226959
-57.345016 -19.410131 50.08242
-58.809326 -18.670841 47.977352
-58.694962 -20.30662 49.623756
-59.635258 -21.411373 48.821781
-60.209946 -22.741606 47.732529
-60.532227 -24.292334 46.483826
-35.070141 -41.789627 73.614761
-33.823208 -43.852249 72.752747
-32.782276 -46.038403 71.885452
-34.847179 -46.643654 68.316917
-33.480335 -47.505634 69.771942
-32.001518 -48.338184 71.135513
-59.410255 -27.092087 46.452726
-58.726439 -28.043038 46.665579
-58.66176 -27.144975 47.303108
-60.047231 -26.117479 46.167084
-59.410255 -27.092087 46.452726
-51.062556 -18.639625 52.100151
-51.337862 -19.329805 53.183971
-50.311416 -19.053968 53.108334
-36.384012 -48.535803 59.48769
-36.750157 -48.029934 58.564372
-35.971655 -9.958907 70.433266
-35.26374 -10.715465 71.402515
-29.424181 -25.231728 74.107403
-28.577611 -26.112216 74.15165
-33.625231 -52.005558 65.90831
-33.891711 -50.833091 66.158417
-34.099412 -51.530213 65.05043
-33.211537 -52.494888 66.816841
-33.625231 -52.005558 65.90831
-56.532217 -30.947847 47.244091
-55.73443 -31.919662 47.34416
-55.673191 -30.982366 47.906755
-30.260909 -40.923054 77.659813
-29.588548 -40.302986 78.340607
-31.961139 -42.83303 75.261345
-31.458599 -42.19014 76.128525
-32.520439 -41.856094 75.604851
-32.471644 -43.539989 74.321289
-31.409804 -43.874035 74.844963
-31.961139 -42.83303 75.261345
-35.244009 -50.049082 62.274794
-35.626188 -48.886032 62.60124
-35.64553 -49.550288 61.358825
-34.8988 -50.54917 63.22406
-35.244009 -50.049082 62.274794
-38.205679 -8.882821 68.294971
-37.372741 -8.518846 68.521266
-41.091322 -13.365092 63.597635
-40.997511 -12.680802 64.385139
-29.644612 -28.333647 72.635231
-29.197843 -27.63769 73.021019
-30.754615 -28.168642 71.981834
-30.126689 -28.976662 72.295852
-29.644612 -28.333647 72.635231
-22.935209 -17.422764 80.114037
-21.80236 -17.260261 80.469746
-22.684786 -16.369153 79.845158
-23.354261 -19.468356 80.278965
-24.456352 -19.562486 79.743629
-31.152259 -12.654958 74.577553
-31.882293 -11.850921 73.708153
-32.217243 -12.818943 74.389618
-27.783699 -12.223989 75.197609
-28.926908 -12.364331 74.978435
-28.183424 -13.210313 75.961689
-26.60823 -12.048026 75.366123
-27.783699 -12.223989 75.197609
-25.877941 -12.900885 76.40744
-26.60823 -12.048026 75.366123
-47.401379 -38.610273 49.622942
-46.699532 -39.747228 49.559675
-49.868588 -35.332211 49.995461
-48.995545 -36.402922 49.842287
-49.023754 -35.513143 50.564677
-50.707946 -34.285633 50.046234
-50.679737 -35.175411 49.323845
-49.868588 -35.332211 49.995461
-38.259167 -45.157074 58.423613
-37.795223 -45.684542 59.32835
-38.412563 -44.507662 59.737607
-38.710108 -44.641861 57.548282
-38.259167 -45.157074 58.423613
-39.711439 -43.613356 55.850941
-40.402582 -42.416439 56.23877
-42.801733 -40.527662 53.148945
-42.973026 -39.777744 54.234161
-43.636614 -39.352617 53.529373
-42.7445 -41.297106 52.137991
-42.801733 -40.527662 53.148945
-43.476677 -40.92486 51.576188
-42.7445 -41.297106 52.137991
-45.818774 -39.978144 49.933411
-45.01742 -40.261959 50.481695
-45.731285 -39.100675 50.639601
-46.699532 -39.747228 49.559675
-45.818774 -39.978144 49.933411
-47.860933 -19.674494 55.00219
-48.860466 -19.904214 55.105312
-48.173357 -20.340398 56.095936
-43.340454 -19.33274 57.209004
-42.802949 -18.884403 57.539528
-43.357118 -18.403842 56.561477
-44.040573 -19.676551 57.068115
-43.486404 -20.157111 58.046166
-43.340454 -19.33274 57.209004
-44.778421 -20.029878 56.93133
-44.040573 -19.676551 57.068115
-32.422924 -37.617821 77.725479
-31.137197 -37.894457 78.196144
-31.656358 -37.139406 77.99955
-33.374832 -34.403878 75.923718
-32.459347 -34.061768 75.666973
-33.736576 -33.758499 75.17524
-34.259063 -34.776108 76.055447
-32.981834 -35.079377 76.54718
-33.374832 -34.403878 75.923718
-56.403156 -18.262315 49.19988
-55.454431 -17.910677 49.193161
-57.262115 -18.627506 49.127611
-56.486057 -19.04494 50.15469
-56.403156 -18.262315 49.19988
-59.440967 -19.175939 47.731484
-59.540489 -18.301682 46.931233
-60.172131 -18.806779 46.685364
-61.687319 -23.229847 45.091674
-61.199078 -24.184234 45.504829
-61.020468 -23.337947 46.070671
-32.143323 -50.287245 69.84766
-31.742709 -49.532206 70.856746
-32.402132 -49.093224 70.126427
-42.238884 -13.775395 59.917156
-42.218059 -13.05999 60.754193
-58.027189 -29.01447 46.898716
-57.273707 -29.971782 47.044078
-57.224461 -29.053238 47.661323
-58.027189 -29.01447 46.898716
-58.726439 -28.043038 46.665579
-35.988922 -49.04576 60.411863
-36.4228 -47.877282 60.761099
-36.384012 -48.535803 59.48769
-35.64553 -49.550288 61.358825
-35.988922 -49.04576 60.411863
-40.642324 -11.391423 65.844746
-40.86894 -12.02318 65.164024
-40.372911 -10.797918 66.511685
-40.642324 -11.391423 65.844746
-40.039764 -11.970009 66.829216
-39.959442 -10.246195 67.044724
-40.372911 -10.797918 66.511685
-36.647068 -9.253884 69.474277
-36.839037 -10.26893 70.210872
-35.971655 -9.958907 70.433266
-37.372741 -8.518846 68.521266
-36.647068 -9.253884 69.474277
-40.86894 -12.02318 65.164024
-40.997511 -12.680802 64.385139
-40.437748 -13.221135 65.383392
-28.872142 -26.899101 73.573334
-28.577611 -26.112216 74.15165
-29.946838 -26.787038 72.873527
-29.197843 -27.63769 73.021019
-28.872142 -26.899101 73.573334
-25.560533 -19.663669 79.284679
-24.456352 -19.562486 79.743629
-25.398557 -18.663542 79.406841
-27.900941 -21.724162 77.411895
-28.918609 -21.745014 76.737495
-41.197633 -41.239292 56.682045
-40.402582 -42.416439 56.23877
-40.658065 -41.749756 57.51696
-43.047041 -16.941232 56.413773
-42.483888 -17.411282 57.419435
-42.711315 -16.397009 56.941206
-43.407818 -17.4876 55.894437
-43.047041 -16.941232 56.413773
-43.357118 -18.403842 56.561477
-43.407818 -17.4876 55.894437
-32.112082 -36.444053 77.583229
-31.656358 -37.139406 77.99955
-29.775481 -31.035582 73.299881
-28.591367 -31.19668 73.9189
-29.051402 -30.490921 73.27362
-60.758184 -19.380654 46.427008
-60.172131 -18.806779 46.685364
-61.19748 -19.997384 46.028412
-60.511904 -20.297765 47.087019
-60.758184 -19.380654 46.427008
-61.606403 -20.690329 45.637684
-61.19748 -19.997384 46.028412
-61.885159 -21.424862 45.122231
-61.229954 -21.649027 46.17297
-61.606403 -20.690329 45.637684
-62.156039 -22.239087 44.640511
-61.885159 -21.424862 45.122231
-32.887802 -51.775325 67.837174
-32.58041 -51.045238 68.887696
-33.110138 -50.57835 68.066818
-32.887802 -51.775325 67.837174
-33.211537 -52.494888 66.816841
-34.588047 -11.44381 72.321583
-35.26374 -10.715465 71.402515
-35.487931 -11.702296 72.088929
-31.035182 -23.436434 74.062859
-30.193752 -24.338479 74.064777
-30.068654 -23.512963 74.787045
-29.878822 -21.768254 76.113304
-28.918609 -21.745014 76.737495
-29.796335 -20.849968 76.680938
-29.95559 -22.637109 75.477494
-29.878822 -21.768254 76.113304
-30.833316 -21.742063 75.420937
-30.068654 -23.512963 74.787045
-29.95559 -22.637109 75.477494
-33.879757 -12.222773 73.264107
-33.655567 -11.235942 72.577694
-34.588047 -11.44381 72.321583
-42.300998 -14.456159 59.118491
-41.750301 -14.934956 60.130423
-42.238884 -13.775395 59.917156
-42.362362 -15.143282 58.320439
-42.300998 -14.456159 59.118491
-42.530236 -15.768951 57.627994
-41.980289 -16.241388 58.639313
-42.362362 -15.143282 58.320439
-42.711315 -16.397009 56.941206
-42.530236 -15.768951 57.627994
-54.973619 -32.910026 47.525869
-54.061659 -32.949542 48.079908
-54.973619 -32.910026 47.525869
-55.73443 -31.919662 47.34416
-56.532217 -30.947847 47.244091
-57.273707 -29.971782 47.044078
-30.868126 -41.520699 76.961297
-30.260909 -40.923054 77.659813
-31.410682 -40.615558 77.170547
-30.868126 -41.520699 76.961297
-31.458599 -42.19014 76.128525
-30.934144 -44.934872 74.451729
-31.409804 -43.874035 74.844963
-31.4807 -45.693783 73.500717
-30.934144 -44.934872 74.451729
-34.469412 -51.035629 64.115724
-34.795279 -49.871286 64.408873
-34.8988 -50.54917 63.22406
-34.099412 -51.530213 65.05043
-34.469412 -51.035629 64.115724
-39.500236 -9.742772 67.562325
-39.959442 -10.246195 67.044724
-39.311145 -10.873082 68.013756
-38.874424 -9.285697 67.934708
-38.183195 -9.966783 68.891621
-38.205679 -8.882821 68.294971
-39.500236 -9.742772 67.562325
-38.874424 -9.285697 67.934708
-41.149937 -14.05058 62.768812
-40.624933 -14.564246 63.775684
-41.091322 -13.365092 63.597635
-41.652256 -13.552809 61.759926
-41.185868 -14.751963 61.937975
-41.149937 -14.05058 62.768812
-42.218059 -13.05999 60.754193
-41.652256 -13.552809 61.759926
-29.6261 -29.735746 72.801925
-29.051402 -30.490921 73.27362
-30.736104 -29.57074 72.148529
-29.6261 -29.735746 72.801925
-30.126689 -28.976662 72.295852
-30.390709 -25.1552 73.383217
-29.424181 -25.231728 74.107403
-30.193752 -24.338479 74.064777
-20.685868 -17.103259 80.894657
-20.439839 -15.996866 80.567131
-20.685868 -17.103259 80.894657
-21.80236 -17.260261 80.469746
-23.17358 -18.438116 80.302208
-22.935209 -17.422764 80.114037
-24.056005 -17.547007 79.67762
-23.17358 -18.438116 80.302208
-23.354261 -19.468356 80.278965
-25.696018 -20.638915 79.057789
-25.560533 -19.663669 79.284679
-26.638223 -19.73997 78.721001
-26.869733 -21.668405 78.006385
-27.804915 -20.770972 77.89962
-27.900941 -21.724162 77.411895
-25.808151 -21.619759 78.659706
-26.869733 -21.668405 78.006385
-25.696018 -20.638915 79.057789
-25.808151 -21.619759 78.659706
-32.607101 -11.036582 72.725788
-33.655567 -11.235942 72.577694
-32.607101 -11.036582 72.725788
-31.882293 -11.850921 73.708153
-30.071972 -12.518795 74.819302
-31.152259 -12.654958 74.577553
-30.406921 -13.486818 75.500767
-30.071972 -12.518795 74.819302
-28.926908 -12.364331 74.978435
-25.096995 -13.758951 77.297257
-25.877941 -12.900885 76.40744
-26.25927 -13.928037 77.070678
-23.948867 -13.593442 77.586502
-25.096995 -13.758951 77.297257
-24.330196 -14.620594 78.249741
-22.803216 -13.374481 77.847152
-23.948867 -13.593442 77.586502
-22.053443 -14.240031 78.851024
-22.803216 -13.374481 77.847152
-21.238377 -15.115814 79.681965
-22.053443 -14.240031 78.851024
-22.367002 -15.330867 79.369926
-20.439839 -15.996866 80.567131
-21.238377 -15.115814 79.681965
-48.210415 -37.493771 49.783035
-47.401379 -38.610273 49.622942
-47.341675 -37.700357 50.25141
-48.210415 -37.493771 49.783035
-48.995545 -36.402922 49.842287
-51.583593 -35.064583 48.822279
-50.679737 -35.175411 49.323845
-52.383505 -34.036869 48.763806
-51.583593 -35.064583 48.822279
-53.243757 -33.029714 48.795298
-52.383505 -34.036869 48.763806
-52.379348 -33.121679 49.406111
-54.057502 -32.034352 48.722214
-54.061659 -32.949542 48.079908
-53.243757 -33.029714 48.795298
-37.229858 -46.850639 58.925641
-37.383255 -46.201228 60.239635
-37.795223 -45.684542 59.32835
-36.750157 -48.029934 58.564372
-37.229858 -46.850639 58.925641
-39.203361 -44.115216 56.66869
-38.710108 -44.641861 57.548282
-39.36976 -43.453548 57.953277
-39.203361 -44.115216 56.66869
-39.711439 -43.613356 55.850941
-41.76363 -40.725954 55.823791
-41.197633 -41.239292 56.682045
-42.019114 -40.059271 57.101983
-42.361627 -40.249361 55.048731
-43.196509 -39.074316 55.429159
-42.973026 -39.777744 54.234161
-41.76363 -40.725954 55.823791
-42.361627 -40.249361 55.048731
-44.208983 -40.565838 50.948052
-43.476677 -40.92486 51.576188
-44.197626 -39.743513 51.816021
-44.208983 -40.565838 50.948052
-45.01742 -40.261959 50.481695
-49.567383 -19.491229 54.10186
-49.879807 -20.157133 55.195606
-48.860466 -19.904214 55.105312
-50.311416 -19.053968 53.108334
-49.567383 -19.491229 54.10186
-45.642978 -20.289674 56.952129
-45.05108 -20.760717 57.926077
-44.778421 -20.029878 56.93133
-46.272072 -19.834756 55.975098
-46.544731 -20.565596 56.969845
-45.642978 -20.289674 56.952129
-46.928432 -19.381988 54.988297
-46.272072 -19.834756 55.975098
-47.860933 -19.674494 55.00219
-46.928432 -19.381988 54.988297
-30.094012 -39.470836 78.362717
-29.588548 -40.302986 78.340607
-30.64416 -38.648315 78.389221
-31.137197 -37.894457 78.196144
-31.353614 -39.195392 77.895568
-30.094012 -39.470836 78.362717
-30.64416 -38.648315 78.389221
-28.074865 -31.907581 74.531349
-28.591367 -31.19668 73.9189
-27.649265 -32.574573 75.269645
-28.074865 -31.907581 74.531349
-28.889848 -32.408333 74.683457
-27.184972 -33.253096 75.978318
-27.649265 -32.574573 75.269645
-28.059911 -33.721025 76.185837
-27.184972 -33.253096 75.978318
-28.956464 -34.150953 76.437802
-28.059911 -33.721025 76.185837
-29.360802 -33.505253 75.673717
-29.87151 -34.5735 76.656402
-28.956464 -34.150953 76.437802
-31.177479 -34.321163 76.170567
-31.539223 -33.675785 75.422089
-32.459347 -34.061768 75.666973
-29.87151 -34.5735 76.656402
-31.177479 -34.321163 76.170567
-32.574073 -35.738472 77.158241
-32.981834 -35.079377 76.54718
-33.404075 -36.157189 77.103897
-32.112082 -36.444053 77.583229
-32.574073 -35.738472 77.158241
-51.854847 -18.18407 51.110611
-51.062556 -18.639625 52.100151
-52.87517 -18.483916 51.169264
-51.854847 -18.18407 51.110611
-53.881035 -18.765397 51.225719
-53.094866 -19.196942 52.232245
-52.87517 -18.483916 51.169264
-54.644218 -18.36606 50.194849
-55.454431 -17.910677 49.193161
-54.863914 -19.079085 51.257829
-53.881035 -18.765397 51.225719
-54.644218 -18.36606 50.194849
-58.775156 -17.830157 47.052757
-59.540489 -18.301682 46.931233
-57.99427 -18.257861 48.075077
-58.775156 -17.830157 47.052757
-58.077171 -19.040486 49.029886
-57.262115 -18.627506 49.127611
-57.99427 -18.257861 48.075077
-60.640557 -25.166634 45.863869
-60.047231 -26.117479 46.167084
-59.938902 -25.243178 46.787041
-60.640557 -25.166634 45.863869
-61.199078 -24.184234 45.504829
-61.687319 -23.229847 45.091674
-62.156039 -22.239087 44.640511
-31.911684 -46.422488 72.490989
-31.4807 -45.693783 73.500717
-32.351292 -45.309698 72.895179
-31.521305 -47.572378 72.11602
-31.911684 -46.422488 72.490989
-32.391897 -47.188294 71.510482
-31.213361 -48.747476 71.783959
-31.521305 -47.572378 72.11602
-31.213361 -48.747476 71.783959
-31.742709 -49.532206 70.856746
-32.143323 -50.287245 69.84766
-32.58041 -51.045238 68.887696
3 0 93 91
3 0 91 94
3 0 94 96
3 0 96 98
3 0 98 93
3 1 103 101
3 1 106 104
3 1 101 106
3 2 110 108
3 2 113 111
3 2 108 113
3 4 362 364
3 364 363 115
3 362 363 364
3 4 365 366
3 367 118 368
3 369 368 116
3 367 368 369
3 3 121 119
3 371 370 122
3 5 125 124
3 373 372 126
3 6 130 128
3 5 133 131
3 5 124 133
3 374 135 375
3 6 138 136
3 6 128 138
3 9 142 140
3 9 145 143
3 9 140 145
3 10 149 147
3 11 152 150
3 11 154 152
3 12 157 155
3 14 160 158
3 14 162 160
3 14 164 162
3 10 167 165
3 10 147 167
3 15 171 169
3 17 174 172
3 17 176 174
3 7 179 177
3 8 183 181
3 18 186 184
3 18 188 186
3 18 190 188
3 15 193 191
3 15 169 193
3 16 197 195
3 19 200 198
3 19 202 200
3 13 206 204
3 376 209 377
3 378 377 207
3 376 377 378
3 380 379 209
3 20 212 210
3 22 213 92
3 22 214 213
3 23 217 215
3 20 218 95
3 20 210 218
3 25 221 219
3 23 222 97
3 23 215 222
3 27 225 223
3 25 226 99
3 25 219 226
3 22 228 214
3 27 229 100
3 27 223 229
3 30 232 230
3 32 233 102
3 32 234 233
3 33 237 235
3 35 238 105
3 35 239 238
3 35 241 239
3 30 242 107
3 30 230 242
3 37 245 243
3 39 246 109
3 39 247 246
3 40 250 248
3 42 253 251
3 44 254 112
3 44 255 254
3 44 257 255
3 37 258 114
3 37 243 258
3 46 381 383
3 383 382 259
3 381 382 383
3 47 262 260
3 49 263 117
3 49 264 263
3 50 384 385
3 51 386 388
3 388 387 120
3 386 387 388
3 51 389 391
3 389 265 390
3 389 390 391
3 52 268 266
3 392 269 393
3 394 393 123
3 392 393 394
3 396 395 269
3 21 270 211
3 398 397 127
3 54 273 271
3 56 274 129
3 56 275 274
3 24 276 216
3 57 277 132
3 57 278 277
3 57 279 278
3 400 399 134
3 58 401 402
3 58 403 405
3 403 280 404
3 403 404 405
3 26 281 220
3 59 282 137
3 59 283 282
3 59 284 283
3 54 285 139
3 54 271 285
3 60 406 408
3 408 407 286
3 406 407 408
3 410 409 141
3 28 287 224
3 29 411 413
3 413 412 227
3 411 412 413
3 61 414 416
3 416 415 144
3 414 415 416
3 61 417 418
3 61 419 420
3 60 288 146
3 60 286 288
3 62 421 422
3 63 423 425
3 425 424 148
3 423 424 425
3 63 426 428
3 426 289 427
3 426 427 428
3 31 290 231
3 64 291 151
3 64 292 291
3 64 293 292
3 65 294 153
3 65 295 294
3 66 298 296
3 68 299 156
3 68 300 299
3 34 301 236
3 69 302 159
3 69 303 302
3 69 304 303
3 70 305 161
3 70 429 431
3 431 430 305
3 429 430 431
3 70 432 433
3 435 434 163
3 36 306 240
3 71 436 438
3 438 437 166
3 436 437 438
3 71 439 440
3 71 441 442
3 62 443 445
3 445 444 168
3 443 444 445
3 62 446 447
3 72 309 307
3 74 310 170
3 74 311 310
3 38 312 244
3 75 313 173
3 75 314 313
3 75 315 314
3 76 316 175
3 76 448 450
3 450 449 316
3 448 449 450
3 55 317 272
3 77 318 178
3 77 319 318
3 41 320 249
3 451 321 452
3 453 452 180
3 451 452 453
3 454 322 455
3 456 455 321
3 454 455 456
3 458 457 322
3 78 459 461
3 459 323 460
3 459 460 461
3 78 324 323
3 79 325 182
3 79 326 325
3 43 327 252
3 80 328 185
3 80 462 464
3 464 463 328
3 462 463 464
3 80 465 467
3 465 329 466
3 465 466 467
3 81 330 187
3 81 331 330
3 81 332 331
3 82 333 189
3 82 334 333
3 45 335 256
3 83 336 192
3 83 337 336
3 83 338 337
3 72 339 194
3 72 307 339
3 73 340 308
3 84 341 196
3 84 342 341
3 48 343 261
3 85 344 199
3 85 345 344
3 85 346 345
3 86 347 201
3 86 348 347
3 468 349 469
3 470 350 471
3 472 471 349
3 470 471 472
3 87 473 475
3 473 351 474
3 473 474 475
3 87 352 351
3 87 353 352
3 88 354 203
3 88 355 354
3 88 476 478
3 478 477 355
3 476 477 478
3 67 356 297
3 89 357 205
3 89 358 357
3 53 359 267
3 90 360 208
3 90 361 360
3 90 479 481
3 481 480 361
3 479 480 481
3 91 92 20
3 93 92 91
3 93 22 92
3 94 95 23
3 91 95 94
3 91 20 95
3 96 97 25
3 94 97 96
3 94 23 97
3 98 99 27
3 96 99 98
3 96 25 99
3 93 100 22
3 98 100 93
3 98 27 100
3 101 102 30
3 103 102 101
3 103 32 102
3 104 105 33
3 106 105 104
3 106 35 105
3 106 107 35
3 101 107 106
3 101 30 107
3 108 109 37
3 110 109 108
3 110 39 109
3 483 482 40
3 111 112 42
3 113 112 111
3 113 44 112
3 113 114 44
3 108 114 113
3 108 37 114
3 115 484 486
3 486 485 46
3 484 485 486
3 488 487 115
3 116 117 47
3 118 117 116
3 118 49 117
3 119 120 50
3 121 120 119
3 121 51 120
3 122 123 52
3 489 123 490
3 491 490 122
3 489 490 491
3 493 492 123
3 124 494 495
3 125 496 498
3 498 497 124
3 496 497 498
3 125 499 500
3 126 127 21
3 501 127 502
3 503 502 126
3 501 502 503
3 505 504 127
3 128 129 54
3 130 129 128
3 130 56 129
3 131 132 24
3 133 132 131
3 133 57 132
3 133 134 57
3 124 134 133
3 124 506 508
3 508 507 134
3 506 507 508
3 135 509 510
3 135 511 513
3 511 58 512
3 511 512 513
3 136 137 26
3 138 137 136
3 138 59 137
3 138 139 59
3 128 139 138
3 128 54 139
3 140 141 60
3 142 141 140
3 142 514 516
3 516 515 141
3 514 515 516
3 518 517 28
3 143 144 29
3 145 144 143
3 145 61 144
3 145 146 61
3 140 146 145
3 140 60 146
3 147 148 62
3 149 148 147
3 149 63 148
3 150 151 31
3 152 151 150
3 152 64 151
3 152 153 64
3 154 153 152
3 154 65 153
3 155 156 66
3 157 156 155
3 157 68 156
3 158 159 34
3 160 159 158
3 160 69 159
3 160 161 69
3 162 161 160
3 162 70 161
3 162 163 70
3 164 163 162
3 164 519 521
3 521 520 163
3 519 520 521
3 165 166 36
3 167 166 165
3 167 71 166
3 167 168 71
3 147 168 167
3 147 62 168
3 169 170 72
3 171 170 169
3 171 74 170
3 172 173 38
3 174 173 172
3 174 75 173
3 174 175 75
3 176 175 174
3 176 76 175
3 177 178 55
3 179 178 177
3 179 77 178
3 522 180 523
3 524 523 41
3 522 523 524
3 525 180 526
3 528 527 180
3 529 78 530
3 181 531 533
3 531 182 532
3 531 532 533
3 183 182 181
3 183 79 182
3 184 185 43
3 186 185 184
3 186 80 185
3 186 187 80
3 188 187 186
3 188 81 187
3 188 189 81
3 190 189 188
3 190 82 189
3 191 192 45
3 193 192 191
3 193 83 192
3 193 194 83
3 169 194 193
3 169 72 194
3 195 196 73
3 197 196 195
3 197 84 196
3 198 199 48
3 200 199 198
3 200 85 199
3 200 201 85
3 202 201 200
3 202 86 201
3 534 87 535
3 536 203 537
3 538 537 87
3 536 537 538
3 539 203 540
3 541 88 542
3 543 542 203
3 541 542 543
3 545 544 88
3 204 205 67
3 206 205 204
3 206 89 205
3 207 208 53
3 209 208 207
3 209 90 208
3 209 546 548
3 548 547 90
3 546 547 548
3 550 549 209
3 210 211 5
3 212 211 210
3 212 21 211
3 92 212 20
3 213 212 92
3 213 21 212
3 213 126 21
3 214 126 213
3 214 551 553
3 553 552 126
3 551 552 553
3 215 216 6
3 217 216 215
3 217 24 216
3 95 217 23
3 218 217 95
3 218 24 217
3 218 131 24
3 210 131 218
3 210 5 131
3 219 554 556
3 554 220 555
3 554 555 556
3 221 220 219
3 221 26 220
3 97 221 25
3 222 221 97
3 222 26 221
3 222 136 26
3 215 136 222
3 215 6 136
3 223 224 9
3 225 224 223
3 225 28 224
3 99 225 27
3 226 225 99
3 226 28 225
3 226 557 559
3 559 558 28
3 557 558 559
3 219 560 562
3 562 561 226
3 560 561 562
3 219 563 564
3 214 565 567
3 565 227 566
3 565 566 567
3 228 227 214
3 228 29 227
3 100 228 22
3 229 228 100
3 229 29 228
3 229 143 29
3 223 143 229
3 223 9 143
3 230 231 10
3 232 231 230
3 232 31 231
3 102 232 30
3 233 232 102
3 233 31 232
3 233 150 31
3 234 150 233
3 234 11 150
3 235 236 12
3 237 236 235
3 237 34 236
3 105 237 33
3 238 237 105
3 238 34 237
3 238 158 34
3 239 158 238
3 239 14 158
3 239 240 14
3 241 240 239
3 241 36 240
3 107 241 35
3 242 241 107
3 242 36 241
3 242 165 36
3 230 165 242
3 230 10 165
3 243 244 15
3 245 244 243
3 245 38 244
3 109 245 37
3 246 245 109
3 246 38 245
3 246 172 38
3 247 172 246
3 247 17 172
3 248 249 7
3 250 249 248
3 250 41 249
3 568 250 569
3 570 569 40
3 568 569 570
3 571 250 572
3 573 41 574
3 575 574 250
3 573 574 575
3 577 576 41
3 251 252 8
3 253 252 251
3 253 43 252
3 112 253 42
3 254 253 112
3 254 43 253
3 254 184 43
3 255 184 254
3 255 18 184
3 255 256 18
3 257 256 255
3 257 45 256
3 114 257 44
3 258 257 114
3 258 45 257
3 258 191 45
3 243 191 258
3 243 15 191
3 259 578 579
3 581 580 259
3 583 582 46
3 260 261 16
3 262 261 260
3 262 48 261
3 117 262 47
3 263 262 117
3 263 48 262
3 263 198 48
3 264 198 263
3 264 19 198
3 120 584 586
3 586 585 50
3 584 585 586
3 588 587 120
3 265 589 590
3 265 591 592
3 266 267 13
3 268 267 266
3 268 53 267
3 123 268 52
3 269 268 123
3 269 53 268
3 269 207 53
3 593 207 594
3 595 594 269
3 593 594 595
3 597 596 207
3 211 125 5
3 270 125 211
3 270 598 600
3 600 599 125
3 598 599 600
3 127 270 21
3 601 270 602
3 603 602 127
3 601 602 603
3 605 604 270
3 271 272 2
3 273 272 271
3 273 55 272
3 129 273 54
3 274 273 129
3 274 55 273
3 274 177 55
3 275 177 274
3 275 7 177
3 216 130 6
3 276 130 216
3 276 56 130
3 132 276 24
3 277 276 132
3 277 56 276
3 277 275 56
3 278 275 277
3 278 7 275
3 278 248 7
3 279 248 278
3 279 40 248
3 134 279 57
3 606 279 607
3 608 607 134
3 606 607 608
3 609 40 610
3 611 610 279
3 609 610 611
3 613 612 40
3 614 181 615
3 280 616 618
3 616 181 617
3 616 617 618
3 280 8 181
3 220 619 621
3 619 135 620
3 619 620 621
3 281 135 220
3 281 58 135
3 137 281 26
3 282 281 137
3 282 58 281
3 282 280 58
3 283 280 282
3 283 8 280
3 283 251 8
3 284 251 283
3 284 42 251
3 139 284 59
3 285 284 139
3 285 42 284
3 285 111 42
3 271 111 285
3 271 2 111
3 286 622 623
3 625 624 286
3 141 626 628
3 628 627 60
3 626 627 628
3 630 629 141
3 224 142 9
3 287 142 224
3 287 631 633
3 633 632 142
3 631 632 633
3 634 287 635
3 636 635 28
3 634 635 636
3 637 287 638
3 640 639 287
3 227 641 642
3 644 643 227
3 144 645 647
3 647 646 29
3 645 646 647
3 649 648 144
3 146 650 652
3 652 651 61
3 650 651 652
3 288 653 655
3 655 654 146
3 653 654 655
3 288 656 657
3 288 658 659
3 286 660 662
3 662 661 288
3 660 661 662
3 286 663 664
3 148 665 667
3 667 666 62
3 665 666 667
3 669 668 148
3 289 670 671
3 289 672 673
3 231 149 10
3 290 149 231
3 290 63 149
3 151 290 31
3 291 290 151
3 291 63 290
3 291 289 63
3 292 289 291
3 292 674 676
3 676 675 289
3 674 675 676
3 292 677 679
3 677 259 678
3 677 678 679
3 293 259 292
3 293 46 259
3 153 293 64
3 294 293 153
3 294 46 293
3 294 115 46
3 295 115 294
3 295 4 115
3 296 297 3
3 298 297 296
3 298 67 297
3 156 298 66
3 299 298 156
3 299 67 298
3 299 204 67
3 300 204 299
3 300 13 204
3 236 157 12
3 301 157 236
3 301 68 157
3 159 301 34
3 302 301 159
3 302 68 301
3 302 300 68
3 303 300 302
3 303 13 300
3 303 266 13
3 304 266 303
3 304 52 266
3 161 304 69
3 305 304 161
3 305 52 304
3 305 122 52
3 680 122 681
3 682 681 305
3 680 681 682
3 684 683 122
3 163 685 687
3 687 686 70
3 685 686 687
3 689 688 163
3 240 164 14
3 306 164 240
3 306 690 692
3 692 691 164
3 690 691 692
3 166 306 36
3 693 306 694
3 695 694 166
3 693 694 695
3 697 696 306
3 168 698 700
3 700 699 71
3 698 699 700
3 702 701 168
3 307 308 1
3 309 308 307
3 309 73 308
3 170 309 72
3 310 309 170
3 310 73 309
3 310 195 73
3 311 195 310
3 311 16 195
3 244 171 15
3 312 171 244
3 312 74 171
3 173 312 38
3 313 312 173
3 313 74 312
3 313 311 74
3 314 311 313
3 314 16 311
3 314 260 16
3 315 260 314
3 315 47 260
3 175 315 75
3 316 315 175
3 316 47 315
3 316 116 47
3 703 116 704
3 705 704 316
3 703 704 705
3 707 706 116
3 272 110 2
3 317 110 272
3 317 39 110
3 178 317 55
3 318 317 178
3 318 39 317
3 318 247 39
3 319 247 318
3 319 17 247
3 249 179 7
3 320 179 249
3 320 77 179
3 180 320 41
3 321 320 180
3 321 77 320
3 321 319 77
3 322 319 321
3 322 17 319
3 322 176 17
3 708 176 709
3 710 709 322
3 708 709 710
3 711 76 712
3 713 712 176
3 711 712 713
3 714 76 715
3 717 716 76
3 718 50 719
3 323 720 721
3 323 722 724
3 722 50 723
3 722 723 724
3 323 119 50
3 324 119 323
3 324 3 119
3 182 725 726
3 325 727 729
3 729 728 182
3 727 728 729
3 325 730 731
3 325 732 733
3 326 734 736
3 736 735 325
3 734 735 736
3 326 737 738
3 252 183 8
3 327 183 252
3 327 79 183
3 185 327 43
3 328 327 185
3 328 79 327
3 328 326 79
3 739 326 740
3 741 740 328
3 739 740 741
3 743 742 326
3 329 744 745
3 329 746 748
3 746 78 747
3 746 747 748
3 187 329 80
3 330 329 187
3 330 78 329
3 330 324 78
3 331 324 330
3 331 3 324
3 331 296 3
3 332 296 331
3 332 66 296
3 189 332 81
3 333 332 189
3 333 66 332
3 333 155 66
3 334 155 333
3 334 12 155
3 256 190 18
3 335 190 256
3 335 82 190
3 192 335 45
3 336 335 192
3 336 82 335
3 336 334 82
3 337 334 336
3 337 12 334
3 337 235 12
3 338 235 337
3 338 33 235
3 194 338 83
3 339 338 194
3 339 33 338
3 339 104 33
3 307 104 339
3 307 1 104
3 308 103 1
3 340 103 308
3 340 32 103
3 196 340 73
3 341 340 196
3 341 32 340
3 341 234 32
3 342 234 341
3 342 11 234
3 261 197 16
3 343 197 261
3 343 84 197
3 199 343 48
3 344 343 199
3 344 84 343
3 344 342 84
3 345 342 344
3 345 11 342
3 345 154 11
3 346 154 345
3 346 65 154
3 201 346 85
3 347 346 201
3 347 65 346
3 347 295 65
3 348 295 347
3 348 4 295
3 749 118 750
3 751 118 752
3 753 49 754
3 755 754 118
3 753 754 755
3 349 756 757
3 349 758 760
3 758 49 759
3 758 759 760
3 349 264 49
3 350 264 349
3 350 19 264
3 351 761 762
3 351 763 764
3 351 765 767
3 765 350 766
3 765 766 767
3 352 350 351
3 352 19 350
3 352 202 19
3 353 202 352
3 353 86 202
3 203 353 87
3 354 353 203
3 354 86 353
3 354 348 86
3 355 348 354
3 355 4 348
3 355 768 770
3 770 769 4
3 768 769 770
3 772 771 355
3 774 773 88
3 297 121 3
3 356 121 297
3 356 51 121
3 205 356 67
3 357 356 205
3 357 51 356
3 357 265 51
3 358 265 357
3 358 775 777
3 777 776 265
3 775 776 777
3 267 206 13
3 359 206 267
3 359 89 206
3 208 359 53
3 360 359 208
3 360 89 359
3 360 358 89
3 361 358 360
3 361 778 780
3 780 779 358
3 778 779 780
3 361 781 782
3 784 783 361
3 786 785 90
