ply
format ascii 1.0
element vertex 402
property float x
property float y
property float z
element face 459
property list uchar int vertex_index
end_header
-16.946491 -125.937897 -13.051924
-28.226177 -119.360275 -11.564283
-27.921629 -117.88504 -19.970753
-7.077288 -126.060013 -9.699503
-6.135807 -119.773987 -15.378782
-15.789948 -121.723206 -19.896633
-28.134079 -110.573593 -23.388523
-31.391481 -114.756042 -1.4566
-9.641903 -127.439819 -0.296653
-20.306087 -123.670959 -2.616957
-33.369247 -115.043015 -9.462986
-33.306656 -115.458725 -13.833199
-11.625851 -126.930634 -11.931301
-10.916727 -124.833389 -15.677078
-16.222326 -124.567154 -17.232029
-33.90892 -111.722214 -20.811638
-27.97963 -114.814468 -22.348881
-23.342213 -120.497604 2.388636
-25.855238 -119.505646 -2.421434
-10.419382 -117.037354 -18.927902
-22.618553 -123.249863 -12.883871
-22.059128 -122.686523 -17.439827
-27.92186 -119.472504 -16.220509
-33.619415 -114.31813 -17.789303
-3.582781 -123.457214 -6.78026
-6.531103 -123.449493 -13.157867
-10.461893 -121.49762 -17.98275
-15.685439 -117.668777 -20.986736
-21.782608 -120.463547 -20.681019
-21.700813 -116.876083 -22.305347
-21.967106 -112.193909 -22.617714
-34.479118 -113.08139 -4.947506
-7.959574 -127.478043 -5.24765
-12.810726 -127.543854 -7.119911
-14.822994 -126.506104 -1.914108
-18.207005 -125.618271 -7.934795
-23.776619 -122.083832 -7.68351
-29.276161 -117.637756 -6.558498
-35.572151 -113.027771 -8.307093
-35.533508 -113.372574 -10.291803
-14.21437 -126.664291 -12.649378
-13.800889 -125.973328 -14.795216
-16.53751 -125.454285 -15.304104
-34.000351 -109.956696 -21.889599
-26.119129 -118.384705 2.418043
-13.132877 -114.991516 -20.088528
-25.454006 -121.412231 -12.349493
-25.180611 -121.535995 -14.774675
-28.010664 -119.631912 -13.966883
-35.892296 -113.01886 -14.347952
-33.447525 -115.081894 -15.898355
-36.141113 -112.313553 -16.258785
-36.374043 -111.263077 -17.992622
-5.188053 -124.957626 -8.296122
-4.964037 -123.694489 -10.119957
-6.785734 -124.890411 -11.575005
-13.212883 -123.50856 -18.026272
-10.65661 -123.308945 -17.015499
-13.017134 -121.800568 -19.050182
-12.911697 -119.806564 -19.69836
-15.683014 -119.835327 -20.618565
-24.92651 -120.470718 -18.937511
-21.89794 -121.766312 -19.257366
-24.870895 -119.322647 -20.521858
-28.033651 -112.823792 -23.011169
-24.844423 -115.990768 -22.516624
-24.902176 -113.886734 -22.973419
-21.776848 -114.661102 -22.587727
-25.040724 -111.528717 -23.156696
-6.446766 -127.069672 -1.617998
-8.675562 -127.655838 -2.796795
-10.291332 -127.76973 -6.304916
-11.108961 -127.708252 -3.77552
-18.944267 -123.983185 0.169012
-16.194172 -125.390518 0.620174
-17.546741 -125.296982 -2.381472
-16.389027 -126.255295 -5.016462
-19.138416 -124.829544 -5.260273
-20.98827 -124.014664 -7.934111
-21.91185 -123.026901 -5.261396
-28.629961 -117.15799 -2.021053
-27.455753 -118.661591 -4.610195
-30.198734 -116.301178 -4.017075
-31.93292 -115.331009 -5.777937
-32.894299 -113.940903 -3.307486
-30.885925 -117.198853 -10.580093
-30.722105 -117.567062 -12.91221
-33.254765 -115.443954 -11.66716
-35.670628 -113.369751 -12.331533
-9.232843 -126.726273 -10.931122
-8.883163 -125.684998 -12.878119
-11.233387 -126.050797 -13.970858
-13.474566 -124.909714 -16.60363
-15.974969 -123.311111 -18.772167
-30.951498 -114.956879 -20.576096
-27.947203 -116.514816 -21.34351
-31.026506 -113.378937 -21.776779
-31.091948 -111.502625 -22.65324
-31.169361 -109.36058 -23.24625
-20.564964 -122.371628 2.590533
-21.713757 -122.203537 -0.058826
-23.078821 -121.70929 -2.626463
-24.489874 -120.135986 -0.064222
-27.269289 -117.871307 0.145988
-8.080881 -118.640488 -17.376698
-6.077463 -117.519455 -16.031881
-8.164913 -116.176346 -17.727718
-19.766096 -124.782501 -13.126997
-19.386347 -124.513214 -15.46974
-22.287107 -123.188171 -15.287437
-25.019669 -121.218491 -16.998829
-27.905663 -118.882965 -18.246193
-30.704016 -117.523605 -15.147633
-30.766956 -117.06279 -17.216572
-30.860504 -116.197525 -19.045753
-33.780952 -113.187698 -19.441238
-4.753262 -122.184174 -11.672903
-6.305151 -121.745987 -14.42646
-8.592148 -124.341339 -14.509146
-8.345036 -122.716476 -15.798964
-8.159767 -120.817596 -16.747311
-10.366703 -119.407394 -18.604404
-12.93619 -117.536087 -20.02198
-15.833959 -115.23439 -21.072353
-19.104805 -123.817093 -17.518291
-18.890951 -122.723892 -19.196411
-18.732075 -121.272171 -20.459564
-24.841095 -117.815002 -21.713932
-21.711559 -118.820236 -21.689552
-18.635656 -119.501251 -21.304882
-18.625328 -117.443146 -21.771221
-18.732506 -115.1185 -21.927422
-18.985909 -112.538528 -21.85677
-34.114189 -112.365875 -0.77449
-35.511154 -111.628311 -2.546881
-36.894848 -110.905548 -4.164789
-36.013878 -112.202835 -6.320473
-5.464514 -125.961273 -6.237581
-5.859705 -126.677597 -3.992239
-7.447817 -126.934143 -7.571594
-9.68355 -127.432922 -8.71722
-12.135044 -127.438202 -9.62044
-14.754519 -126.951004 -10.242201
-15.052617 -125.086456 3.672337
-13.491259 -126.35347 1.291049
-12.17197 -127.234726 -1.215595
-13.697321 -127.231903 -4.520927
-15.466396 -126.814423 -7.665953
-17.488676 -125.994141 -10.563042
-20.285477 -124.612442 -10.583506
-23.099398 -122.872528 -10.321081
-25.892433 -120.861069 -9.80621
-24.688637 -120.937225 -5.036615
-26.547127 -119.922836 -7.211908
-28.629427 -118.680252 -9.08025
-31.268963 -116.440323 -8.198055
-33.75367 -114.250397 -7.237442
-36.514143 -112.24807 -8.568791
-36.408914 -112.216865 -7.805233
-13.333137 -113.582664 -20.029686
-14.645853 -113.764274 -20.521895
-37.262397 -111.283005 -15.386871
-36.016705 -112.666207 -15.303368
-37.137989 -111.635659 -14.431454
-37.413635 -110.779022 -16.277539
-37.262397 -111.283005 -15.386871
-28.219893 -109.328606 -23.473591
-26.673216 -109.806168 -23.357678
-26.587401 -111.051155 -23.27261
-9.158732 -127.547829 -1.546724
-7.980058 -127.378525 -0.98917
-8.463228 -127.270516 0.260901
-5.271783 -119.082009 -14.636681
-5.345572 -120.097893 -14.155857
-36.704403 -112.355934 -11.507587
-35.602068 -113.371162 -11.311668
-36.635843 -112.357346 -10.487722
-36.863979 -112.159447 -12.474175
-36.704403 -112.355934 -11.507587
-32.581522 -109.712494 -22.675819
-32.546149 -110.72966 -22.27142
-34.035723 -108.939529 -22.293999
-32.620228 -108.641471 -22.972324
-31.130654 -110.431602 -22.949745
-32.581522 -109.712494 -22.675819
-32.659128 -107.501213 -23.267929
-32.620228 -108.641471 -22.972324
-21.953589 -121.434616 2.489585
-21.468068 -121.449295 3.730366
-22.856693 -120.512283 3.629417
-28.081032 -116.99266 1.409244
-26.694209 -118.128006 1.282015
-27.505952 -117.249359 2.545272
-28.658563 -116.684646 0.350402
-28.081032 -116.99266 1.409244
-36.467871 -110.576813 -18.745134
-37.65535 -109.600464 -17.946796
-3.507588 -122.795723 -7.672092
-2.927941 -122.531372 -5.992306
-22.128674 -110.839294 -22.550035
-20.638075 -111.011604 -22.169564
-20.476508 -112.366219 -22.237242
-35.43474 -111.191185 -0.403927
-34.816105 -111.532791 0.524588
-36.133223 -110.822403 -1.290123
-34.812672 -111.997093 -1.660686
-35.43474 -111.191185 -0.403927
-38.041305 -109.819748 -3.827919
-37.454363 -110.131447 -2.982984
-37.501128 -110.575401 -4.902175
-38.041305 -109.819748 -3.827919
-4.744435 -125.679634 -4.416535
-4.61108 -125.255951 -5.506937
-16.423825 -124.506279 3.346696
-15.936802 -124.278358 4.775259
-5.225262 -116.793732 -15.30123
-6.135442 -116.244186 -16.225916
-36.494822 -112.420471 -9.561146
-35.55283 -113.200173 -9.299448
-36.514143 -112.24807 -8.568791
-36.635843 -112.357346 -10.487722
-36.494822 -112.420471 -9.561146
-35.346291 -109.09095 -21.319651
-33.954636 -110.839455 -21.350618
-35.300575 -109.973709 -20.78067
-35.387029 -108.125557 -21.823044
-35.346291 -109.09095 -21.319651
-34.035723 -108.939529 -22.293999
-35.387029 -108.125557 -21.823044
-24.245205 -119.560875 3.55978
-22.856693 -120.512283 3.629417
-25.633663 -118.504425 3.574483
-24.730671 -119.441154 2.403339
-24.245205 -119.560875 3.55978
-27.01618 -117.455826 3.628899
-25.633663 -118.504425 3.574483
-26.530714 -117.575547 4.785339
-27.505952 -117.249359 2.545272
-27.01618 -117.455826 3.628899
-11.900077 -114.687721 -19.551039
-10.543329 -115.71064 -18.970726
-11.776129 -116.014435 -19.508215
-11.900077 -114.687721 -19.551039
-13.333137 -113.582664 -20.029686
-37.5301 -110.253784 -17.144458
-36.257578 -111.788315 -17.125704
-37.413635 -110.779022 -16.277539
-37.65535 -109.600464 -17.946796
-37.5301 -110.253784 -17.144458
-25.161195 -110.230301 -23.154098
-23.624386 -110.562897 -22.884608
-23.503915 -111.861313 -22.887205
-25.161195 -110.230301 -23.154098
-26.673216 -109.806168 -23.357678
-6.86566 -127.085442 -0.399772
-5.797191 -126.646248 0.236134
-7.561164 -127.362755 -2.207396
-6.86566 -127.085442 -0.399772
-7.980058 -127.378525 -0.98917
-17.569219 -124.686852 0.394593
-16.994602 -124.65831 1.820614
-18.36965 -123.954644 1.595033
-36.974813 -111.984001 -13.482384
-35.781462 -113.194305 -13.339742
-36.863979 -112.159447 -12.474175
-37.137989 -111.635659 -14.431454
-36.974813 -111.984001 -13.482384
-31.227716 -108.16793 -23.433983
-29.710076 -108.774437 -23.505119
-29.65172 -109.967086 -23.317386
-31.227716 -108.16793 -23.433983
-32.659128 -107.501213 -23.267929
-9.022673 -127.092201 1.473534
-8.463228 -127.270516 0.260901
-20.077468 -122.268616 3.923274
-21.468068 -121.449295 3.730366
-19.179998 -123.148865 2.805794
-20.077468 -122.268616 3.923274
-19.754615 -123.177407 1.379773
-18.36965 -123.954644 1.595033
-19.179998 -123.148865 2.805794
-29.338898 -116.327988 -0.733119
-27.949625 -117.514648 -0.937533
-28.658563 -116.684646 0.350402
-30.719659 -115.127014 -0.450892
-30.010721 -115.957016 -1.738827
-29.338898 -116.327988 -0.733119
-7.179168 -115.572632 -17.073835
-6.135442 -116.244186 -16.225916
-7.121188 -116.8479 -16.879799
-9.416094 -115.280136 -18.370634
-9.292148 -116.60685 -18.32781
-10.543329 -115.71064 -18.970726
-8.314049 -114.797722 -17.790503
-9.416094 -115.280136 -18.370634
-9.56523 -113.901512 -18.433419
-7.179168 -115.572632 -17.073835
-8.314049 -114.797722 -17.790503
-35.171325 -111.539123 -19.469442
-35.077497 -112.225387 -18.71693
-36.467871 -110.576813 -18.745134
-35.235309 -110.806381 -20.154642
-33.844936 -112.454956 -20.126438
-35.171325 -111.539123 -19.469442
-35.300575 -109.973709 -20.78067
-35.235309 -110.806381 -20.154642
-4.198217 -122.914361 -9.341941
-3.507588 -122.795723 -7.672092
-4.273409 -123.575851 -8.450108
-4.092829 -122.159203 -10.118414
-4.198217 -122.914361 -9.341941
-4.85865 -122.939332 -10.89643
-4.012637 -121.382042 -10.882459
-4.092829 -122.159203 -10.118414
-4.6543 -121.302987 -12.302917
-4.012637 -121.382042 -10.882459
-5.430245 -121.083893 -13.679696
-4.6543 -121.302987 -12.302917
-5.529207 -121.96508 -13.049682
-6.220479 -120.759987 -14.902621
-5.345572 -120.097893 -14.155857
-5.430245 -121.083893 -13.679696
-15.996394 -113.885711 -21.013807
-14.645853 -113.764274 -20.521895
-14.483418 -115.112953 -20.580441
-17.572369 -112.53778 -21.406016
-15.996394 -113.885711 -21.013807
-17.409934 -113.886459 -21.464562
-19.193838 -111.123886 -21.750048
-17.572369 -112.53778 -21.406016
-19.193838 -111.123886 -21.750048
-20.638075 -111.011604 -22.169564
-22.128674 -110.839294 -22.550035
-23.624386 -110.562897 -22.884608
-28.219893 -109.328606 -23.473591
-29.710076 -108.774437 -23.505119
-32.100443 -113.923462 -0.163129
-30.719659 -115.127014 -0.450892
-33.461798 -112.728378 0.177926
-34.816105 -111.532791 0.524588
-32.752835 -113.560958 -1.115545
-32.100443 -113.923462 -0.163129
-33.461798 -112.728378 0.177926
-36.762516 -110.492829 -2.17403
-36.133223 -110.822403 -1.290123
-36.203001 -111.26693 -3.355835
-36.762516 -110.492829 -2.17403
-37.454363 -110.131447 -2.982984
-37.060643 -111.224045 -5.980017
-36.454363 -111.554192 -5.242631
-37.501128 -110.575401 -4.902175
-36.629778 -111.804397 -6.811923
-37.060643 -111.224045 -5.980017
-2.962499 -123.103714 -5.013983
-2.927941 -122.531372 -5.992306
-3.670214 -124.003921 -5.778277
-2.962499 -123.103714 -5.013983
-4.47285 -124.754128 -6.536207
-4.385417 -124.20742 -7.538191
-3.670214 -124.003921 -5.778277
-5.326284 -125.45945 -7.266851
-4.47285 -124.754128 -6.536207
-4.61108 -125.255951 -5.506937
-5.455291 -126.518921 -0.952873
-5.797191 -126.646248 0.236134
-5.16176 -126.322884 -2.139994
-5.455291 -126.518921 -0.952873
-6.153236 -126.873635 -2.805118
-4.942031 -126.037796 -3.293864
-4.244086 -125.683082 -1.441618
-5.16176 -126.322884 -2.139994
-5.662109 -126.319435 -5.11491
-4.744435 -125.679634 -4.416535
-4.942031 -126.037796 -3.293864
-10.259732 -127.128212 0.937652
-9.022673 -127.092201 1.473534
-14.573041 -124.730637 5.196661
-15.936802 -124.278358 4.775259
-13.712636 -125.437691 4.102252
-14.573041 -124.730637 5.196661
-15.623394 -125.238487 2.146256
-16.423825 -124.506279 3.346696
-16.994602 -124.65831 1.820614
-12.931957 -126.071198 2.911608
-13.712636 -125.437691 4.102252
-14.271938 -125.719963 2.481693
-12.18441 -126.585037 1.731503
-12.931957 -126.071198 2.911608
-11.524765 -127.025666 0.478181
-12.18441 -126.585037 1.731503
-12.831615 -126.794098 0.037727
-10.906937 -127.337272 -0.756124
-10.259732 -127.128212 0.937652
-11.524765 -127.025666 0.478181
-36.629778 -111.804397 -6.811923
-36.408914 -112.216865 -7.805233
-35.793014 -112.615303 -7.313783
-5.242611 -117.954742 -14.963231
-5.271783 -119.082009 -14.636681
-6.106635 -118.646721 -15.705331
-5.242611 -117.954742 -14.963231
-5.225262 -116.793732 -15.30123
3 158 157 38
3 0 42 40
3 160 159 45
3 1 48 46
3 161 51 162
3 163 162 49
3 161 162 163
3 165 164 51
3 3 55 53
3 5 58 56
3 5 60 58
3 2 63 61
3 6 66 64
3 6 68 66
3 6 166 168
3 168 167 68
3 166 167 168
3 8 169 171
3 169 70 170
3 169 170 171
3 8 72 70
3 9 75 73
3 9 77 75
3 9 79 77
3 7 82 80
3 7 84 82
3 4 172 173
3 10 87 85
3 174 88 175
3 176 175 39
3 174 175 176
3 178 177 88
3 12 91 89
3 14 92 41
3 14 93 92
3 15 96 94
3 179 97 180
3 181 180 43
3 179 180 181
3 182 98 183
3 184 183 97
3 182 183 184
3 186 185 98
3 17 187 189
3 187 99 188
3 187 188 189
3 17 100 99
3 17 102 100
3 190 103 191
3 192 191 44
3 190 191 192
3 194 193 103
3 19 106 104
3 20 109 107
3 22 110 47
3 22 111 110
3 11 112 86
3 23 113 50
3 23 114 113
3 23 115 114
3 196 195 52
3 24 197 198
3 25 116 54
3 25 117 116
3 13 118 90
3 26 119 57
3 26 120 119
3 26 121 120
3 27 122 59
3 27 123 122
3 21 124 108
3 28 125 62
3 28 126 125
3 16 127 95
3 29 128 65
3 29 129 128
3 29 130 129
3 30 131 67
3 30 132 131
3 30 199 201
3 201 200 132
3 199 200 201
3 202 133 203
3 204 134 205
3 206 205 133
3 204 205 206
3 207 135 208
3 210 209 135
3 211 137 212
3 32 138 69
3 32 139 138
3 32 140 139
3 33 141 71
3 33 142 141
3 213 143 214
3 34 144 74
3 34 145 144
3 34 146 145
3 35 147 76
3 35 148 147
3 35 149 148
3 36 150 78
3 36 151 150
3 18 152 101
3 37 153 81
3 37 154 153
3 37 155 154
3 31 156 83
3 31 136 156
3 216 215 105
3 38 39 10
3 217 39 218
3 219 218 38
3 217 218 219
3 221 220 39
3 40 41 12
3 42 41 40
3 42 14 41
3 222 43 223
3 224 223 15
3 222 223 224
3 225 43 226
3 228 227 43
3 229 17 230
3 231 44 232
3 233 232 17
3 231 232 233
3 234 44 235
3 234 235 236
3 238 237 44
3 45 239 241
3 241 240 19
3 239 240 241
3 243 242 45
3 46 47 20
3 48 47 46
3 48 22 47
3 49 50 11
3 51 50 49
3 51 23 50
3 51 52 23
3 244 52 245
3 246 245 51
3 244 245 246
3 248 247 52
3 53 54 24
3 55 54 53
3 55 25 54
3 56 57 13
3 58 57 56
3 58 26 57
3 58 59 26
3 60 59 58
3 60 27 59
3 61 62 21
3 63 62 61
3 63 28 62
3 64 65 16
3 66 65 64
3 66 29 65
3 66 67 29
3 68 67 66
3 68 30 67
3 68 249 251
3 251 250 30
3 249 250 251
3 253 252 68
3 254 69 255
3 70 256 258
3 256 69 257
3 256 257 258
3 70 32 69
3 70 71 32
3 72 71 70
3 72 33 71
3 73 259 261
3 259 74 260
3 259 260 261
3 75 74 73
3 75 34 74
3 75 76 34
3 77 76 75
3 77 35 76
3 77 78 35
3 79 78 77
3 79 36 78
3 80 81 18
3 82 81 80
3 82 37 81
3 82 83 37
3 84 83 82
3 84 31 83
3 85 86 1
3 87 86 85
3 87 11 86
3 39 87 10
3 88 87 39
3 88 11 87
3 88 49 11
3 262 49 263
3 264 263 88
3 262 263 264
3 266 265 49
3 89 90 3
3 91 90 89
3 91 13 90
3 41 91 12
3 92 91 41
3 92 13 91
3 92 56 13
3 93 56 92
3 93 5 56
3 94 95 2
3 96 95 94
3 96 16 95
3 43 96 15
3 97 96 43
3 97 16 96
3 97 64 16
3 98 64 97
3 98 6 64
3 98 267 269
3 269 268 6
3 267 268 269
3 271 270 98
3 272 8 273
3 99 274 275
3 99 276 277
3 99 278 280
3 278 73 279
3 278 279 280
3 100 73 99
3 100 9 73
3 100 101 9
3 102 101 100
3 102 18 101
3 44 102 17
3 103 102 44
3 103 18 102
3 103 80 18
3 281 80 282
3 283 282 103
3 281 282 283
3 284 7 285
3 286 285 80
3 284 285 286
3 104 105 4
3 106 105 104
3 106 287 289
3 289 288 105
3 287 288 289
3 290 106 291
3 292 291 19
3 290 291 292
3 293 106 294
3 293 294 295
3 297 296 106
3 107 108 0
3 109 108 107
3 109 21 108
3 47 109 20
3 110 109 47
3 110 21 109
3 110 61 21
3 111 61 110
3 111 2 61
3 86 48 1
3 112 48 86
3 112 22 48
3 50 112 11
3 113 112 50
3 113 22 112
3 113 111 22
3 114 111 113
3 114 2 111
3 114 94 2
3 115 94 114
3 115 15 94
3 52 115 23
3 298 115 299
3 300 299 52
3 298 299 300
3 301 15 302
3 303 302 115
3 301 302 303
3 305 304 15
3 54 306 308
3 308 307 24
3 306 307 308
3 116 309 311
3 311 310 54
3 309 310 311
3 116 312 313
3 116 314 315
3 117 316 318
3 318 317 116
3 316 317 318
3 117 319 321
3 319 4 320
3 319 320 321
3 90 55 3
3 118 55 90
3 118 25 55
3 57 118 13
3 119 118 57
3 119 25 118
3 119 117 25
3 120 117 119
3 120 4 117
3 120 104 4
3 121 104 120
3 121 19 104
3 59 121 26
3 122 121 59
3 122 19 121
3 122 45 19
3 123 45 122
3 123 322 324
3 324 323 45
3 322 323 324
3 108 42 0
3 124 42 108
3 124 14 42
3 62 124 21
3 125 124 62
3 125 14 124
3 125 93 14
3 126 93 125
3 126 5 93
3 95 63 2
3 127 63 95
3 127 28 63
3 65 127 16
3 128 127 65
3 128 28 127
3 128 126 28
3 129 126 128
3 129 5 126
3 129 60 5
3 130 60 129
3 130 27 60
3 67 130 29
3 131 130 67
3 131 27 130
3 131 123 27
3 132 123 131
3 132 325 327
3 327 326 123
3 325 326 327
3 132 328 329
3 331 330 132
3 333 332 30
3 335 334 6
3 336 7 337
3 133 338 339
3 133 340 342
3 340 7 341
3 340 341 342
3 133 84 7
3 134 84 133
3 134 31 84
3 343 134 344
3 135 345 347
3 345 134 346
3 345 346 347
3 135 31 134
3 135 136 31
3 348 136 349
3 350 349 135
3 348 349 350
3 352 351 136
3 353 24 354
3 355 24 356
3 357 53 358
3 359 358 24
3 357 358 359
3 137 360 362
3 360 53 361
3 360 361 362
3 137 3 53
3 69 363 364
3 138 365 367
3 367 366 69
3 365 366 367
3 138 368 370
3 368 369 370
3 138 371 373
3 371 137 372
3 371 372 373
3 139 137 138
3 139 3 137
3 139 89 3
3 140 89 139
3 140 12 89
3 71 140 32
3 141 140 71
3 141 12 140
3 141 40 12
3 142 40 141
3 142 0 40
3 374 8 375
3 143 376 377
3 143 378 379
3 74 380 382
3 380 143 381
3 380 381 382
3 144 143 74
3 144 383 385
3 385 384 143
3 383 384 385
3 144 386 387
3 145 388 390
3 390 389 144
3 388 389 390
3 145 391 393
3 391 8 392
3 391 392 393
3 145 72 8
3 146 72 145
3 146 33 72
3 76 146 34
3 147 146 76
3 147 33 146
3 147 142 33
3 148 142 147
3 148 0 142
3 148 107 0
3 149 107 148
3 149 20 107
3 78 149 35
3 150 149 78
3 150 20 149
3 150 46 20
3 151 46 150
3 151 1 46
3 101 79 9
3 152 79 101
3 152 36 79
3 81 152 18
3 153 152 81
3 153 36 152
3 153 151 36
3 154 151 153
3 154 1 151
3 154 85 1
3 155 85 154
3 155 10 85
3 83 155 37
3 156 155 83
3 156 10 155
3 156 38 10
3 136 38 156
3 136 394 396
3 396 395 38
3 394 395 396
3 105 397 399
3 399 398 4
3 397 398 399
3 401 400 105
