ply
format ascii 1.0
element vertex 634
property float x
property float y
property float z
element face 704
property list uchar int vertex_index
end_header
-10.741703 -81.386894 71.966873
-16.5016 -64.347809 80.235466
-23.713602 -74.101181 66.603302
-29.790443 -56.576725 71.632278
-36.682423 -48.692543 57.291817
-23.78581 -60.448612 76.954498
-40.849613 -44.930809 51.265446
-28.197975 -70.202805 60.565228
-14.00116 -73.909744 76.961258
-17.116306 -78.405426 70.440659
-21.867527 -70.151413 75.447083
-28.241192 -65.987274 70.816872
-31.873178 -61.78997 63.33712
-33.832932 -52.702679 64.800323
-34.314186 -57.922359 55.025318
-9.082834 -67.741211 80.455086
-11.205759 -83.526489 68.397781
-29.880175 -68.496178 56.952164
-15.527536 -69.265091 78.82254
-17.980526 -72.114204 76.603943
-19.506256 -67.425308 78.045982
-27.004532 -58.502384 74.521362
-26.650095 -63.460209 74.378769
-29.409565 -61.42944 71.496384
-30.373589 -63.877594 67.360672
-31.496712 -59.38398 68.002129
-35.263351 -50.713337 61.032379
-34.16259 -55.316704 59.994633
-35.367405 -53.365047 56.073906
-36.989437 -51.527626 52.707569
-12.713953 -66.164581 80.858719
-11.593611 -70.930046 78.763428
-20.613438 -76.255783 68.795746
-17.944809 -79.88208 65.137459
-21.149843 -77.675522 63.121788
-20.243156 -62.4123 78.878151
-20.291437 -57.129787 79.475235
-38.460732 -46.712814 53.927608
-40.94215 -41.905975 55.403854
-26.232882 -72.074753 63.845905
-23.928047 -75.731308 60.830986
-12.212761 -78.164497 74.540421
-13.577465 -80.261856 71.530746
-15.889817 -76.437874 74.388046
-19.683258 -74.466705 73.385429
-23.221758 -72.352196 71.656052
-23.289494 -65.469757 76.561493
-25.369614 -68.088448 73.525589
-26.2146 -70.213242 69.197464
-28.511967 -68.107788 66.011642
-30.192709 -66.067047 62.21069
-31.573677 -64.146698 58.088554
-32.064121 -54.65144 68.367722
-32.99675 -57.336014 64.081848
-33.050453 -59.782635 59.078362
-14.512916 -82.032646 66.892532
-10.916487 -82.406158 70.489288
-9.926065 -80.803749 72.704498
-16.093958 -66.841049 79.57122
-17.526461 -68.363831 78.527397
-18.049829 -65.913818 79.130676
-28.457687 -57.537983 73.12896
-28.368305 -60.025875 73.115982
-29.667713 -59.033539 71.589615
-30.535887 -60.40826 69.81604
-30.815405 -58.038891 69.937988
-35.950134 -49.704281 59.138454
-35.284779 -52.030014 58.531799
-35.950516 -51.04084 56.652538
-36.106483 -52.428352 54.297237
-36.717155 -50.069351 54.890755
-14.927683 -62.760818 81.446457
-13.110926 -63.70496 81.837608
-14.602324 -65.278183 80.655396
-14.1351 -67.72937 79.817772
-22.228695 -75.167297 67.769402
-20.89794 -76.99025 66.060532
-22.419983 -75.920929 64.966232
-27.273075 -71.119339 62.2635
-26.18844 -73.043823 61.028118
-27.200544 -72.198959 59.511192
-13.113146 -76.105362 75.816772
-14.012111 -77.331116 74.588043
-15.029308 -75.241623 75.819702
-19.954163 -71.150238 76.120529
-18.938026 -73.362671 75.160294
-20.848183 -72.355881 74.536415
-21.504883 -73.418678 72.610497
-22.675045 -71.319702 73.724182
-22.047607 -61.430012 77.982262
-21.849884 -63.983391 77.747162
-23.646093 -62.998119 76.820641
-27.62793 -64.786942 72.759621
-26.135031 -65.819138 74.070259
-26.895422 -67.040245 72.269859
-25.93663 -69.205002 71.524689
-27.316536 -68.141922 70.132278
-27.451443 -69.154526 67.692139
-28.510393 -67.080704 68.548592
-31.186981 -62.828003 65.402344
-30.372204 -64.977631 64.869835
-31.095703 -63.946991 62.833611
-30.894329 -65.087151 60.163834
-31.739643 -62.941479 60.724415
-32.358074 -52.242214 68.658051
-33.005543 -53.681339 66.617386
-32.671074 -56.039902 66.330193
-33.410885 -55.036373 64.413742
-34.21151 -56.596027 57.484512
-33.643112 -57.56776 59.537533
-33.646122 -58.830585 56.996445
-33.004078 -61.044861 56.517429
-39.570797 -45.784683 52.493885
-38.694675 -48.231262 51.899971
-7.405998 -68.401176 79.779984
-8.532785 -70.056793 79.073097
-12.838938 -72.462158 77.908981
-10.917402 -73.257645 77.608391
-12.066267 -74.742233 76.791275
-15.321587 -79.39389 71.05854
-14.060638 -81.191452 69.400848
-15.80125 -80.247162 68.718307
-18.343517 -80.513557 62.116005
-16.68701 -81.666016 63.11174
-24.136002 -76.649261 57.893909
-22.837105 -77.44931 58.985149
-10.019043 -85.069565 66.760124
-11.614529 -84.593994 65.909035
-29.049683 -69.327042 58.78059
-28.139593 -71.405472 57.919109
-29.05378 -70.661255 56.284897
-14.820003 -71.622849 77.960052
-15.983958 -73.03511 76.889938
-16.829063 -70.738495 77.788925
-18.833351 -69.811386 77.41748
-20.799286 -68.847557 76.858658
-25.442818 -59.47229 75.799179
-25.343601 -62.008255 75.738892
-26.92304 -61.017197 74.502441
-28.112642 -62.446808 73.022171
-28.943586 -63.749397 71.26033
-29.398602 -64.932144 69.174683
-30.07597 -62.707966 69.584274
-31.031578 -61.664574 67.752029
-31.829865 -60.622803 65.792297
-34.572933 -51.713512 62.930912
-34.064289 -54.031944 62.453636
-34.672836 -53.028755 60.480362
-34.734879 -54.329865 57.989746
-34.84613 -55.657993 55.535076
-35.591515 -54.758759 53.742718
-11.318718 -64.594833 81.972931
-10.863661 -66.990936 80.804855
-10.322767 -69.347443 79.601677
-12.201214 -68.568298 79.839432
-13.539669 -70.122238 78.910538
-18.896582 -77.345657 69.685608
-17.553795 -79.193329 67.934158
-19.265945 -78.091942 67.048767
-19.591526 -78.759361 64.162842
-16.747042 -61.783443 80.846977
-18.388565 -63.388275 79.634407
-18.552261 -60.790756 80.080505
-20.330627 -59.796577 79.178162
-22.072067 -58.810398 78.160721
-26.983097 -55.93819 74.535461
-28.479351 -55.007927 73.166489
-37.641827 -46.333954 58.014355
-37.506599 -47.689606 55.539665
-38.543709 -45.303528 56.263695
-39.559864 -44.299809 54.628197
-40.715408 -43.352085 53.142876
-42.138145 -40.952789 53.853733
-42.023678 -42.491676 51.831825
-43.488033 -41.747185 50.708218
-25.049988 -73.068901 65.295082
-23.812166 -74.902939 63.762722
-25.066296 -73.943924 62.448891
-25.137966 -74.887497 59.579659
-25.339762 -75.96225 56.779591
-11.377874 -79.998657 73.191635
-11.981266 -80.952721 71.841583
-12.983603 -79.257172 73.234833
-14.741992 -78.42392 73.017822
-16.577158 -77.491425 72.601044
-16.984535 -74.327545 75.592354
-17.796631 -75.479034 73.980484
-18.423664 -76.482437 72.010262
-20.228378 -75.425537 71.256081
-21.947525 -74.347061 70.340775
-23.545252 -73.267426 69.262276
-19.976681 -64.958046 78.518532
-21.437054 -66.457764 77.389755
-22.693064 -67.855377 76.116432
-25.035568 -64.468796 75.558815
-24.481735 -66.843521 75.188469
-23.684031 -69.127762 74.58345
-24.381741 -70.266281 72.721512
-24.800138 -71.280777 70.519211
-24.99436 -72.200012 68.017639
-26.278786 -71.151993 66.605995
-27.396782 -70.126602 65.031754
-28.363218 -69.126091 63.30777
-29.5222 -66.02446 66.786575
-29.414295 -67.076691 64.174347
-29.209673 -68.153999 61.458202
-29.98164 -67.216316 59.520233
-30.733158 -66.321022 57.54393
-31.519945 -65.476578 55.589733
-29.882614 -54.085526 71.729752
-31.4839 -50.726227 70.57798
-31.178925 -53.16568 70.227676
-30.993841 -55.615585 70.042068
-31.812956 -57.041019 68.178543
-32.308022 -58.358715 66.080658
-32.502357 -59.588116 63.740974
-33.599892 -56.320389 62.040092
-33.090603 -58.56736 61.640224
-32.477184 -60.771858 61.211304
-32.357597 -61.970997 58.598236
-32.286221 -63.255211 56.048065
-37.62318 -49.12751 53.293232
-38.041065 -50.673035 51.345707
-9.721022 -71.684181 78.351616
-12.40185 -81.94751 69.983269
-12.815781 -82.91037 67.673492
-13.285254 -83.798508 65.014221
-16.239054 -80.99527 66.047287
-14.989646 -82.789352 64.079697
-22.599026 -76.661278 62.011822
-21.434814 -78.368576 60.052299
-10.829095 -81.896526 71.228081
-10.288359 -82.384697 70.776535
-10.200967 -81.875065 71.515328
-10.200967 -81.875065 71.515328
-9.793148 -81.583492 71.88414
-10.333884 -81.095321 72.335686
-36.316278 -49.198412 58.215136
-36.384012 -48.535803 59.48769
-36.750157 -48.029934 58.564372
-33.625231 -52.005558 65.90831
-34.099412 -51.530213 65.05043
-33.419238 -53.192009 65.708855
-33.211537 -52.494888 66.816841
-33.625231 -52.005558 65.90831
-34.021597 -59.046391 54.785936
-33.687565 -59.500504 55.7715
-33.980154 -58.376472 56.010881
-34.443672 -58.637358 53.886549
-34.021597 -59.046391 54.785936
-40.396731 -46.165199 51.002579
-39.757323 -46.592137 51.616799
-40.210205 -45.357746 51.879666
-8.503271 -66.932987 80.877266
-9.330792 -66.574745 81.130527
-8.244416 -68.071194 80.117535
-7.664853 -67.262969 80.539715
-8.503271 -66.932987 80.877266
-17.765495 -81.408954 61.045922
-18.570206 -80.827976 60.523979
-23.662783 -77.499313 56.925466
-24.312285 -77.184219 56.45982
-10.612401 -84.298027 67.578952
-9.875252 -84.415169 67.927834
-10.46861 -83.643631 68.746662
-35.244009 -50.049082 62.274794
-35.64553 -49.550288 61.358825
-34.918142 -51.213425 61.981645
-34.8988 -50.54917 63.22406
-35.244009 -50.049082 62.274794
-36.735928 -52.715452 52.43227
-36.29445 -53.165815 53.227104
-36.54796 -51.977989 53.502403
-37.265171 -52.312334 51.763472
-36.735928 -52.715452 52.43227
-20.54128 -78.537171 62.108805
-19.762122 -79.07909 62.629331
-20.370685 -78.217442 63.642315
-17.698406 -59.972623 80.757728
-17.649652 -61.287099 80.463741
-16.795797 -60.468967 81.140964
-20.311032 -58.463182 79.326698
-19.452168 -58.965539 79.844765
-19.432573 -57.632144 79.993302
-26.976429 -54.64858 74.590744
-26.162441 -55.101276 75.231037
-27.724556 -54.183449 73.906258
-27.731224 -55.473059 73.850975
-26.976429 -54.64858 74.590744
-38.259167 -45.157074 58.423613
-37.795223 -45.684542 59.32835
-38.710108 -44.641861 57.548282
-38.092768 -45.818741 57.139025
-38.259167 -45.157074 58.423613
-40.251007 -43.102892 55.016025
-39.711439 -43.613356 55.850941
-40.402582 -42.416439 56.23877
-42.801733 -40.527662 53.148945
-42.973026 -39.777744 54.234161
-42.7445 -41.297106 52.137991
-42.080911 -41.722233 52.842779
-42.801733 -40.527662 53.148945
-43.476677 -40.92486 51.576188
-42.755855 -42.11943 51.270021
-42.7445 -41.297106 52.137991
-16.795797 -60.468967 81.140964
-15.928083 -60.979799 81.527714
-25.691072 -74.505432 58.921274
-25.663203 -73.96566 60.303888
-26.21631 -73.583595 59.645504
-25.79197 -75.042809 57.521241
-25.238864 -75.424873 58.179625
-25.691072 -74.505432 58.921274
-27.708225 -72.417046 57.406122
-28.209051 -72.099114 56.705889
-29.971474 -52.841511 71.85339
-29.215775 -53.27888 72.529847
-32.143323 -50.287245 69.84766
-31.742709 -49.532206 70.856746
-32.684168 -62.837771 55.078701
-32.64515 -62.150036 56.282747
-33.043097 -61.732596 55.313383
-32.339352 -63.97263 54.885915
-32.684168 -62.837771 55.078701
-38.65662 -50.274994 50.793434
-38.36787 -49.452148 51.622839
-38.983425 -49.054108 51.070566
-39.023681 -51.111723 50.000382
-38.408127 -51.509764 50.552655
-38.65662 -50.274994 50.793434
-10.001564 -73.634484 77.320453
-10.563043 -74.400246 76.979145
-11.366792 -78.573868 74.357903
-11.741372 -77.549511 75.042744
-11.795317 -79.081577 73.866028
-10.949349 -79.490948 73.68351
-11.366792 -78.573868 74.357903
-15.259422 -83.140083 62.556593
-15.838328 -82.227684 63.595718
-16.108104 -82.578415 62.072615
-14.416367 -83.702812 63.085489
-15.259422 -83.140083 62.556593
-21.621171 -78.750816 58.485544
-22.135959 -77.908943 59.518724
-22.322316 -78.291183 57.951969
-20.887916 -79.219707 58.981719
-21.621171 -78.750816 58.485544
-10.323974 -83.083466 69.792416
-10.288359 -82.384697 70.776535
-11.061123 -82.966324 69.443534
-10.46861 -83.643631 68.746662
-10.323974 -83.083466 69.792416
-9.228457 -81.287018 72.21846
-9.427432 -80.324844 73.071498
-9.228457 -81.287018 72.21846
-9.793148 -81.583492 71.88414
-29.93815 -69.231171 55.802763
-30.312314 -68.105942 56.043137
-35.988922 -49.04576 60.411863
-36.384012 -48.535803 59.48769
-35.606742 -50.208809 60.085417
-35.64553 -49.550288 61.358825
-35.988922 -49.04576 60.411863
-14.019305 -63.232889 81.642032
-13.243858 -62.442425 82.310684
-14.152236 -61.970354 82.115108
-19.399625 -56.288031 80.218373
-19.432573 -57.632144 79.993302
-41.197633 -41.239292 56.682045
-40.402582 -42.416439 56.23877
-26.722361 -73.161163 58.887041
-26.21631 -73.583595 59.645504
-26.694492 -72.621391 60.269655
-32.887802 -51.775325 67.837174
-32.58041 -51.045238 68.887696
-32.681809 -52.961776 67.637719
-32.887802 -51.775325 67.837174
-33.211537 -52.494888 66.816841
-33.366543 -60.607641 55.531992
-33.3251 -59.937723 56.756937
-33.687565 -59.500504 55.7715
-33.043097 -61.732596 55.313383
-33.366543 -60.607641 55.531992
-39.319261 -47.815426 51.319841
-39.132736 -47.007973 52.196928
-39.757323 -46.592137 51.616799
-38.983425 -49.054108 51.070566
-39.319261 -47.815426 51.319841
-6.897353 -67.564869 80.106106
-7.664853 -67.262969 80.539715
-6.637004 -68.680805 79.272583
-6.897353 -67.564869 80.106106
-7.135807 -69.54417 79.005966
-6.637004 -68.680805 79.272583
-7.6992 -70.371978 78.652523
-7.135807 -69.54417 79.005966
-7.969392 -69.228984 79.426541
-8.243623 -71.218308 78.361897
-7.6992 -70.371978 78.652523
-11.137476 -75.14254 76.570587
-10.563043 -74.400246 76.979145
-11.491834 -73.999939 77.199833
-11.668125 -75.838379 76.168171
-11.137476 -75.14254 76.570587
-12.191565 -76.519943 75.68092
-11.668125 -75.838379 76.168171
-12.589707 -75.423798 76.304023
-12.662954 -77.134929 75.178596
-11.741372 -77.549511 75.042744
-12.191565 -76.519943 75.68092
-16.937241 -81.985184 61.543789
-17.515263 -81.089787 62.613872
-17.765495 -81.408954 61.045922
-16.108104 -82.578415 62.072615
-16.937241 -81.985184 61.543789
-23.013334 -77.899338 57.471086
-23.486553 -77.049285 58.439529
-23.662783 -77.499313 56.925466
-22.322316 -78.291183 57.951969
-23.013334 -77.899338 57.471086
-9.273864 -85.10093 67.160458
-9.875252 -84.415169 67.927834
-9.462865 -85.839813 65.915379
-9.273864 -85.10093 67.160458
-10.259173 -85.67392 65.446415
-9.702994 -86.444168 64.601669
-9.462865 -85.839813 65.915379
-11.056915 -85.436134 65.020871
-10.259173 -85.67392 65.446415
-10.816786 -84.831779 66.33458
-11.885188 -85.087379 64.52022
-11.056915 -85.436134 65.020871
-28.666145 -71.727005 55.888783
-28.209051 -72.099114 56.705889
-28.596687 -71.033364 57.102003
-29.524953 -70.31371 55.46913
-29.466977 -69.578716 56.618531
-29.93815 -69.231171 55.802763
-29.176189 -71.434128 55.189663
-29.524953 -70.31371 55.46913
-28.666145 -71.727005 55.888783
-29.176189 -71.434128 55.189663
-34.469412 -51.035629 64.115724
-34.8988 -50.54917 63.22406
-34.202933 -52.208095 63.865617
-34.099412 -51.530213 65.05043
-34.469412 -51.035629 64.115724
-34.971632 -56.360345 54.378959
-34.70566 -57.492528 54.12408
-34.580158 -56.790176 55.280197
-35.344324 -55.910728 53.482781
-34.971632 -56.360345 54.378959
-35.218823 -55.208376 54.638897
-35.808983 -55.506709 52.691954
-35.344324 -55.910728 53.482781
-36.036967 -54.331018 52.949844
-35.848999 -53.593555 54.019978
-36.29445 -53.165815 53.227104
-35.808983 -55.506709 52.691954
-36.036967 -54.331018 52.949844
-41.109888 -45.791595 50.546413
-41.573991 -44.553595 50.760933
-12.386892 -62.922924 82.471783
-12.519823 -61.660389 82.944859
-13.243858 -62.442425 82.310684
-11.490787 -63.36786 82.539444
-12.386892 -62.922924 82.471783
-12.214822 -64.149896 81.90527
-10.654138 -63.813123 82.546684
-11.490787 -63.36786 82.539444
-10.448733 -65.001556 81.88945
-10.654138 -63.813123 82.546684
-10.221205 -66.199607 81.305412
-10.448733 -65.001556 81.88945
-11.09119 -65.792884 81.388893
-9.973247 -67.366073 80.62997
-9.330792 -66.574745 81.130527
-10.221205 -66.199607 81.305412
-19.138117 -79.956188 61.605913
-18.967522 -79.636459 63.139423
-19.762122 -79.07909 62.629331
-18.570206 -80.827976 60.523979
-19.138117 -79.956188 61.605913
-18.562985 -59.462629 80.295937
-17.698406 -59.972623 80.757728
-19.441444 -60.293667 79.629334
-18.562985 -59.462629 80.295937
-19.452168 -58.965539 79.844765
-20.245537 -55.786909 79.646694
-19.399625 -56.288031 80.218373
-21.143046 -56.639028 78.914451
-20.245537 -55.786909 79.646694
-22.033361 -57.479334 78.257194
-21.181752 -57.970092 78.817978
-21.143046 -56.639028 78.914451
-22.919871 -58.324053 77.601074
-22.033361 -57.479334 78.257194
-23.776743 -59.14316 76.997963
-22.928939 -59.629505 77.557609
-22.919871 -58.324053 77.601074
-24.605246 -58.654999 76.420303
-24.614314 -59.960451 76.376838
-23.776743 -59.14316 76.997963
-25.425538 -58.176414 75.81459
-24.605246 -58.654999 76.420303
-26.206395 -57.691462 75.175682
-26.223675 -58.987337 75.16027
-25.425538 -58.176414 75.81459
-26.195678 -56.409364 75.182731
-26.162441 -55.101276 75.231037
-26.993814 -57.220287 74.528412
-26.206395 -57.691462 75.175682
-26.195678 -56.409364 75.182731
-37.229858 -46.850639 58.925641
-37.795223 -45.684542 59.32835
-37.162125 -47.513249 57.653086
-36.750157 -48.029934 58.564372
-37.229858 -46.850639 58.925641
-39.203361 -44.115216 56.66869
-38.710108 -44.641861 57.548282
-39.051786 -44.801669 55.445946
-39.203361 -44.115216 56.66869
-39.711439 -43.613356 55.850941
-41.76363 -40.725954 55.823791
-41.197633 -41.239292 56.682045
-42.361627 -40.249361 55.048731
-42.973026 -39.777744 54.234161
-41.540148 -41.429382 54.628794
-41.76363 -40.725954 55.823791
-42.361627 -40.249361 55.048731
-42.161024 -43.334028 51.044123
-41.573991 -44.553595 50.760933
-41.436645 -43.711242 51.548636
-42.893202 -42.961782 50.482319
-42.161024 -43.334028 51.044123
-42.755855 -42.11943 51.270021
-43.698959 -42.644547 50.088316
-42.893202 -42.961782 50.482319
-44.208983 -40.565838 50.948052
-43.476677 -40.92486 51.576188
-44.29647 -41.443306 50.241861
-44.208983 -40.565838 50.948052
-45.01742 -40.261959 50.481695
-43.698959 -42.644547 50.088316
-44.29647 -41.443306 50.241861
-15.018403 -61.468486 81.827453
-14.152236 -61.970354 82.115108
-15.837363 -62.272131 81.146717
-15.018403 -61.468486 81.827453
-15.928083 -60.979799 81.527714
-24.914164 -76.840713 55.902661
-24.312285 -77.184219 56.45982
-24.737882 -76.305756 57.33675
-27.238701 -72.813789 58.202163
-27.670068 -71.802216 58.715151
-27.708225 -72.417046 57.406122
-26.760518 -73.775993 57.578012
-26.722361 -73.161163 58.887041
-27.238701 -72.813789 58.202163
-25.905012 -75.66748 56.213313
-25.79197 -75.042809 57.521241
-26.35722 -74.748039 56.954962
-25.52849 -76.593799 55.451914
-25.905012 -75.66748 56.213313
-25.102892 -77.472263 54.574984
-24.914164 -76.840713 55.902661
-25.52849 -76.593799 55.451914
-30.738805 -67.018364 56.33902
-30.312314 -68.105942 56.043137
-30.306666 -67.4086 57.248047
-31.132199 -66.596142 55.361921
-30.738805 -67.018364 56.33902
-31.126551 -65.8988 56.566832
-31.606549 -66.233628 54.488909
-31.132199 -66.596142 55.361921
-28.514143 -53.74008 73.248215
-27.724556 -54.183449 73.906258
-29.180982 -54.546727 72.448121
-28.514143 -53.74008 73.248215
-29.215775 -53.27888 72.529847
-30.954552 -49.941498 71.505192
-31.213361 -48.747476 71.783959
-31.742709 -49.532206 70.856746
-30.772118 -51.161862 71.277504
-30.954552 -49.941498 71.505192
-31.920987 -51.48422 69.618015
-32.143323 -50.287245 69.84766
-32.58041 -51.045238 68.887696
-30.61963 -52.381588 71.102352
-30.772118 -51.161862 71.277504
-31.331412 -51.945954 70.402828
-30.530769 -53.625603 70.978714
-29.971474 -52.841511 71.85339
-30.61963 -52.381588 71.102352
-31.956214 -65.083313 54.65675
-31.903083 -64.365894 55.818899
-32.339352 -63.97263 54.885915
-31.606549 -66.233628 54.488909
-31.956214 -65.083313 54.65675
-34.443672 -58.637358 53.886549
-34.70566 -57.492528 54.12408
-37.790985 -51.885039 51.082541
-37.265171 -52.312334 51.763472
-37.515251 -51.10033 52.026638
-37.790985 -51.885039 51.082541
-38.408127 -51.509764 50.552655
-40.396731 -46.165199 51.002579
-41.109888 -45.791595 50.546413
-8.837742 -72.032002 78.001156
-8.243623 -71.218308 78.361897
-9.126904 -70.870487 78.712356
-9.403374 -72.847752 77.692066
-10.319212 -72.470913 77.980004
-10.001564 -73.634484 77.320453
-8.837742 -72.032002 78.001156
-9.403374 -72.847752 77.692066
-10.223444 -79.893494 73.439942
-9.427432 -80.324844 73.071498
-10.651969 -80.401203 72.948067
-10.223444 -79.893494 73.439942
-10.949349 -79.490948 73.68351
-12.720551 -84.689637 64.072813
-11.885188 -85.087379 64.52022
-12.449891 -84.196251 65.461628
-13.564172 -84.20739 63.552751
-14.13745 -83.29393 64.546959
-14.416367 -83.702812 63.085489
-12.720551 -84.689637 64.072813
-13.564172 -84.20739 63.552751
-20.683766 -78.883698 60.57406
-20.54128 -78.537171 62.108805
-21.292328 -78.022049 61.587044
-20.683766 -78.883698 60.57406
-20.887916 -79.219707 58.981719
3 0 231 233
3 231 56 232
3 231 232 233
3 0 234 236
3 236 235 57
3 234 235 236
3 1 60 58
3 3 63 61
3 3 65 63
3 4 237 239
3 237 66 238
3 237 238 239
3 4 68 66
3 4 70 68
3 1 73 71
3 1 58 73
3 2 77 75
3 7 80 78
3 8 83 81
3 10 86 84
3 10 88 86
3 5 91 89
3 11 94 92
3 11 96 94
3 11 98 96
3 12 101 99
3 12 103 101
3 13 240 241
3 13 242 244
3 242 105 243
3 242 243 244
3 13 107 105
3 14 110 108
3 14 245 247
3 247 246 110
3 245 246 247
3 14 248 249
3 6 250 252
3 252 251 112
3 250 251 252
3 15 253 254
3 15 255 257
3 255 114 256
3 255 256 257
3 15 115 114
3 8 118 116
3 8 81 118
3 9 121 119
3 259 258 122
3 261 260 124
3 16 262 264
3 262 126 263
3 262 263 264
3 16 127 126
3 17 130 128
3 18 133 131
3 20 134 59
3 20 135 134
3 21 138 136
3 23 139 62
3 23 140 139
3 23 142 140
3 25 143 64
3 25 144 143
3 26 265 266
3 26 267 269
3 267 145 268
3 267 268 269
3 26 147 145
3 28 148 67
3 28 149 148
3 28 150 149
3 29 270 272
3 272 271 69
3 270 271 272
3 29 273 274
3 30 151 72
3 30 152 151
3 30 154 152
3 18 155 74
3 18 131 155
3 32 158 156
3 34 159 76
3 34 275 277
3 277 276 159
3 275 276 277
3 278 162 279
3 280 279 160
3 278 279 280
3 36 281 283
3 281 163 282
3 281 282 283
3 36 164 163
3 284 165 285
3 286 166 287
3 288 287 165
3 286 287 288
3 289 167 290
3 291 169 292
3 293 292 167
3 291 292 293
3 38 294 296
3 294 170 295
3 294 295 296
3 38 171 170
3 297 172 298
3 299 173 300
3 301 300 172
3 299 300 301
3 302 174 303
3 304 303 173
3 302 303 304
3 305 160 306
3 39 177 175
3 307 178 308
3 309 308 79
3 307 308 309
3 310 179 311
3 312 311 178
3 310 311 312
3 314 313 129
3 41 182 180
3 43 183 82
3 43 184 183
3 19 185 132
3 44 186 85
3 44 187 186
3 44 188 187
3 45 189 87
3 45 190 189
3 35 191 161
3 46 192 90
3 46 193 192
3 22 194 137
3 47 195 93
3 47 196 195
3 47 197 196
3 48 198 95
3 48 199 198
3 48 200 199
3 49 201 97
3 49 202 201
3 24 203 141
3 50 204 100
3 50 205 204
3 50 206 205
3 51 207 102
3 51 208 207
3 315 209 316
3 317 210 318
3 52 211 104
3 52 212 211
3 52 213 212
3 53 214 106
3 53 215 214
3 27 216 146
3 54 217 109
3 54 218 217
3 54 219 218
3 319 220 320
3 321 320 111
3 319 320 321
3 323 322 220
3 37 221 168
3 324 222 325
3 326 325 113
3 324 325 326
3 329 328 222
3 327 328 329
3 31 223 153
3 331 330 117
3 41 332 333
3 41 334 336
3 334 180 335
3 334 335 336
3 42 224 181
3 55 225 120
3 55 226 225
3 33 227 157
3 337 228 338
3 339 338 123
3 337 338 339
3 341 340 228
3 40 229 176
3 342 230 343
3 344 343 125
3 342 343 344
3 346 345 230
3 56 347 348
3 56 349 351
3 349 16 350
3 349 350 351
3 57 352 353
3 355 354 57
3 357 356 17
3 58 59 18
3 60 59 58
3 60 20 59
3 61 62 21
3 63 62 61
3 63 23 62
3 63 64 23
3 65 64 63
3 65 25 64
3 66 358 359
3 66 360 362
3 360 26 361
3 360 361 362
3 66 67 26
3 68 67 66
3 68 28 67
3 68 69 28
3 70 69 68
3 70 29 69
3 71 363 365
3 363 72 364
3 363 364 365
3 73 72 71
3 73 30 72
3 73 74 30
3 58 74 73
3 58 18 74
3 75 76 32
3 77 76 75
3 77 34 76
3 366 36 367
3 368 38 369
3 78 79 39
3 80 79 78
3 80 370 372
3 372 371 79
3 370 371 372
3 81 82 41
3 83 82 81
3 83 43 82
3 84 85 19
3 86 85 84
3 86 44 85
3 86 87 44
3 88 87 86
3 88 45 87
3 89 90 35
3 91 90 89
3 91 46 90
3 92 93 22
3 94 93 92
3 94 47 93
3 94 95 47
3 96 95 94
3 96 48 95
3 96 97 48
3 98 97 96
3 98 49 97
3 99 100 24
3 101 100 99
3 101 50 100
3 101 102 50
3 103 102 101
3 103 51 102
3 373 104 374
3 105 375 377
3 375 104 376
3 375 376 377
3 105 52 104
3 105 106 52
3 107 106 105
3 107 53 106
3 108 109 27
3 110 109 108
3 110 54 109
3 110 111 54
3 378 111 379
3 380 379 110
3 378 379 380
3 382 381 111
3 112 113 37
3 383 113 384
3 385 384 112
3 383 384 385
3 387 386 113
3 114 388 389
3 114 390 391
3 114 392 393
3 115 394 396
3 396 395 114
3 394 395 396
3 115 397 398
3 116 117 31
3 118 117 116
3 118 399 401
3 401 400 117
3 399 400 401
3 118 402 403
3 81 404 406
3 406 405 118
3 404 405 406
3 81 407 409
3 407 41 408
3 407 408 409
3 119 120 42
3 121 120 119
3 121 55 120
3 122 123 33
3 410 123 411
3 412 411 122
3 410 411 412
3 414 413 123
3 124 125 40
3 415 125 416
3 417 416 124
3 415 416 417
3 419 418 125
3 126 420 421
3 126 422 423
3 126 424 426
3 424 425 426
3 127 427 429
3 429 428 126
3 427 428 429
3 127 430 431
3 128 129 7
3 130 129 128
3 130 432 434
3 434 433 129
3 432 433 434
3 435 130 436
3 437 436 17
3 435 436 437
3 438 130 439
3 441 440 130
3 131 132 8
3 133 132 131
3 133 19 132
3 59 133 18
3 134 133 59
3 134 19 133
3 134 84 19
3 135 84 134
3 135 10 84
3 136 137 5
3 138 137 136
3 138 22 137
3 62 138 21
3 139 138 62
3 139 22 138
3 139 92 22
3 140 92 139
3 140 11 92
3 140 141 11
3 142 141 140
3 142 24 141
3 64 142 23
3 143 142 64
3 143 24 142
3 143 99 24
3 144 99 143
3 144 12 99
3 145 442 443
3 145 444 446
3 444 13 445
3 444 445 446
3 145 146 13
3 147 146 145
3 147 27 146
3 67 147 26
3 148 147 67
3 148 27 147
3 148 108 27
3 149 108 148
3 149 14 108
3 149 447 449
3 449 448 14
3 447 448 449
3 150 450 452
3 452 451 149
3 450 451 452
3 150 453 454
3 69 150 28
3 455 150 456
3 457 456 69
3 455 456 457
3 459 458 150
3 461 460 6
3 72 462 464
3 462 463 464
3 151 465 467
3 467 466 72
3 465 466 467
3 151 468 469
3 151 470 471
3 152 472 474
3 474 473 151
3 472 473 474
3 152 475 477
3 475 15 476
3 475 476 477
3 152 153 15
3 154 153 152
3 154 31 153
3 74 154 30
3 155 154 74
3 155 31 154
3 155 116 31
3 131 116 155
3 131 8 116
3 156 157 9
3 158 157 156
3 158 33 157
3 76 158 32
3 159 158 76
3 159 33 158
3 159 122 33
3 478 122 479
3 480 479 159
3 478 479 480
3 482 481 122
3 160 161 1
3 162 161 160
3 162 35 161
3 483 162 484
3 163 485 487
3 485 162 486
3 485 486 487
3 163 35 162
3 163 89 35
3 164 89 163
3 164 5 89
3 488 36 489
3 490 36 491
3 492 164 493
3 494 493 36
3 492 493 494
3 495 164 496
3 497 5 498
3 499 498 164
3 497 498 499
3 500 136 501
3 502 501 5
3 500 501 502
3 503 136 504
3 505 21 506
3 507 506 136
3 505 506 507
3 165 508 509
3 165 510 512
3 510 21 511
3 510 511 512
3 165 61 21
3 166 61 165
3 166 3 61
3 167 513 514
3 167 515 517
3 515 4 516
3 515 516 517
3 167 168 4
3 169 168 167
3 169 37 168
3 518 169 519
3 170 520 522
3 520 169 521
3 520 521 522
3 170 37 169
3 170 112 37
3 171 112 170
3 171 6 112
3 523 38 524
3 172 525 526
3 172 527 529
3 527 38 528
3 527 528 529
3 172 171 38
3 173 171 172
3 173 6 171
3 173 530 532
3 532 531 6
3 530 531 532
3 174 533 535
3 535 534 173
3 533 534 535
3 174 536 537
3 538 174 539
3 540 174 541
3 540 541 542
3 544 543 174
3 545 71 546
3 160 547 549
3 547 71 548
3 547 548 549
3 160 1 71
3 175 176 2
3 177 176 175
3 177 40 176
3 79 177 39
3 178 177 79
3 178 40 177
3 178 124 40
3 179 124 178
3 179 550 552
3 552 551 124
3 550 551 552
3 129 80 7
3 553 80 554
3 555 554 129
3 553 554 555
3 558 557 80
3 556 557 558
3 559 179 560
3 559 560 561
3 562 179 563
3 566 565 179
3 564 565 566
3 180 181 0
3 182 181 180
3 182 42 181
3 82 182 41
3 183 182 82
3 183 42 182
3 183 119 42
3 184 119 183
3 184 9 119
3 132 83 8
3 185 83 132
3 185 43 83
3 85 185 19
3 186 185 85
3 186 43 185
3 186 184 43
3 187 184 186
3 187 9 184
3 187 156 9
3 188 156 187
3 188 32 156
3 87 188 44
3 189 188 87
3 189 32 188
3 189 75 32
3 190 75 189
3 190 2 75
3 161 60 1
3 191 60 161
3 191 20 60
3 90 191 35
3 192 191 90
3 192 20 191
3 192 135 20
3 193 135 192
3 193 10 135
3 137 91 5
3 194 91 137
3 194 46 91
3 93 194 22
3 195 194 93
3 195 46 194
3 195 193 46
3 196 193 195
3 196 10 193
3 196 88 10
3 197 88 196
3 197 45 88
3 95 197 47
3 198 197 95
3 198 45 197
3 198 190 45
3 199 190 198
3 199 2 190
3 199 175 2
3 200 175 199
3 200 39 175
3 97 200 48
3 201 200 97
3 201 39 200
3 201 78 39
3 202 78 201
3 202 7 78
3 141 98 11
3 203 98 141
3 203 49 98
3 100 203 24
3 204 203 100
3 204 49 203
3 204 202 49
3 205 202 204
3 205 7 202
3 205 128 7
3 206 128 205
3 206 17 128
3 102 206 50
3 207 206 102
3 207 17 206
3 207 567 569
3 569 568 17
3 567 568 569
3 208 570 572
3 572 571 207
3 570 571 572
3 208 573 574
3 575 166 576
3 209 577 579
3 577 166 578
3 577 578 579
3 209 3 166
3 210 580 582
3 580 581 582
3 210 583 584
3 104 585 587
3 585 210 586
3 585 586 587
3 211 210 104
3 211 588 590
3 590 589 210
3 588 589 590
3 211 591 593
3 591 209 592
3 591 592 593
3 212 209 211
3 212 3 209
3 212 65 3
3 213 65 212
3 213 25 65
3 106 213 52
3 214 213 106
3 214 25 213
3 214 144 25
3 215 144 214
3 215 12 144
3 146 107 13
3 216 107 146
3 216 53 107
3 109 216 27
3 217 216 109
3 217 53 216
3 217 215 53
3 218 215 217
3 218 12 215
3 218 103 12
3 219 103 218
3 219 51 103
3 111 219 54
3 220 219 111
3 220 51 219
3 220 208 51
3 594 208 595
3 596 595 220
3 594 595 596
3 598 597 208
3 600 599 14
3 168 70 4
3 221 70 168
3 221 29 70
3 113 221 37
3 222 221 113
3 222 29 221
3 222 601 603
3 603 602 29
3 601 602 603
3 605 604 222
3 607 606 6
3 153 115 15
3 223 115 153
3 223 608 610
3 610 609 115
3 608 609 610
3 117 223 31
3 611 223 612
3 613 612 117
3 611 612 613
3 615 614 223
3 616 57 617
3 180 618 620
3 618 57 619
3 618 619 620
3 180 0 57
3 181 56 0
3 224 56 181
3 224 16 56
3 120 224 42
3 225 224 120
3 225 16 224
3 225 127 16
3 226 127 225
3 226 621 623
3 623 622 127
3 621 622 623
3 157 121 9
3 227 121 157
3 227 55 121
3 123 227 33
3 228 227 123
3 228 55 227
3 228 226 55
3 624 226 625
3 626 625 228
3 624 625 626
3 628 627 226
3 176 77 2
3 229 77 176
3 229 34 77
3 125 229 40
3 230 229 125
3 230 34 229
3 230 629 631
3 631 630 34
3 629 630 631
3 633 632 230
