ply
format ascii 1.0
element vertex 343
property float x
property float y
property float z
element face 358
property list uchar int vertex_index
end_header
-40.016655 -84.073975 48.984306
-45.876541 -92.557465 22.219387
-43.506447 -88.177216 43.0163
-37.957424 -93.676849 42.487
-42.675873 -95.339355 33.250954
-33.277184 -85.583252 47.480282
-45.541981 -89.549271 27.168438
-42.790749 -91.902908 38.659046
-44.380825 -91.080673 33.072521
-44.522537 -94.182297 27.81094
-37.659943 -79.893646 49.350964
-34.170563 -80.515259 49.257622
-36.519485 -85.251129 48.541912
-37.606953 -97.715546 36.450439
-35.003574 -94.653625 40.251244
-41.969482 -86.960114 46.952003
-38.756397 -89.100464 46.812317
-40.862144 -91.371826 43.439331
-40.394203 -95.359695 38.278084
-40.237991 -98.930817 32.045212
-42.584373 -98.549118 27.245358
-43.571938 -82.244049 48.634125
-45.020126 -84.194366 45.971603
-31.088272 -80.663597 49.169453
-30.330414 -85.147995 46.169052
-35.576607 -90.22641 45.515491
-32.578674 -90.161179 43.384155
-29.694 -89.24324 41.083267
-45.40501 -88.056366 29.539925
-44.420307 -89.49173 35.49958
-44.956406 -88.840195 32.54937
-45.010227 -90.363983 30.138569
-38.882671 -82.103943 49.317379
-37.082733 -82.603783 49.187782
-38.246681 -84.759613 48.856476
-36.131634 -98.353088 35.083794
-42.788349 -87.779678 45.197884
-41.333878 -89.212784 45.425751
-42.227798 -89.853348 43.388741
-42.689674 -93.656006 36.057655
-41.655922 -93.734833 38.649895
-41.573753 -95.534668 35.838531
-40.312824 -97.18959 35.252674
-41.537983 -97.25116 32.826096
-41.465897 -98.90303 29.682407
-42.668053 -96.96489 30.296089
-45.251148 -93.393921 25.022064
-44.541882 -95.70845 25.042904
-44.384945 -83.422714 47.565117
-46.74506 -82.854599 42.947678
-33.708439 -83.101776 48.641911
-32.577461 -80.642166 49.20163
-32.158649 -83.100769 48.291557
-30.693533 -82.965225 47.941017
-31.77322 -85.440887 46.82679
-38.289448 -91.455414 44.906006
-37.148991 -89.810745 46.297565
-36.754951 -92.150116 44.157791
-33.539322 -94.61972 38.818901
-33.767883 -92.535812 41.891705
-32.313343 -92.272629 40.541183
-31.133974 -89.764938 42.203979
-30.85968 -91.805832 39.192432
-45.724232 -91.049698 24.72221
-46.013077 -88.696274 24.193996
-44.12402 -88.188614 40.497433
-43.048302 -90.075623 40.996407
-43.78318 -89.930923 38.338394
-43.638889 -91.622131 35.930515
-43.62645 -93.262604 33.322769
-43.665222 -94.858368 30.563005
-44.44305 -92.64241 30.497446
-45.135742 -91.880951 27.620611
-47.517784 -80.735077 46.066963
-36.383862 -77.546188 49.272465
-35.868954 -80.266663 49.315147
-35.351784 -82.939011 48.952541
-34.858685 -85.526947 48.069359
-37.745045 -95.759659 39.633163
-36.476318 -94.346039 41.504333
-36.286861 -96.40538 38.437176
-34.813934 -96.68071 37.004272
-41.046577 -85.714386 48.216984
-39.344307 -86.630981 48.168331
-40.372772 -88.133331 47.031799
-39.825584 -90.458252 45.332649
-39.428974 -92.668091 43.140331
-41.856956 -91.841171 41.188759
-40.558403 -93.422668 41.034348
-39.177452 -94.750565 40.513092
-39.034538 -96.706787 37.536316
-38.937145 -98.552643 34.310501
-43.672703 -96.42038 27.69384
-38.219505 -77.15387 49.154167
-39.520134 -79.402985 49.34219
-40.724895 -81.457588 49.318432
-41.801033 -83.225021 48.910557
-42.734352 -84.631851 48.010971
-43.523197 -85.632477 46.588596
-44.173782 -86.214752 44.679813
-46.456463 -82.678017 45.140083
-45.488914 -84.562561 43.913853
-44.695091 -86.398422 42.36499
-37.655235 -87.338974 47.86578
-36.006763 -87.80159 47.328552
-34.418724 -87.998917 46.595352
-35.24519 -92.509598 43.129345
-34.053825 -90.335526 44.519135
-32.897068 -87.937561 45.723034
-31.431889 -87.656494 44.783478
-30.000656 -87.227295 43.859322
-45.549345 -86.899071 29.149437
-45.402523 -87.315354 30.675068
-45.178221 -87.707268 32.179791
-45.008328 -88.074966 33.68428
-45.402523 -87.315354 30.675068
-45.180708 -88.44828 31.044648
-45.178221 -87.707268 32.179791
-46.157894 -92.134697 20.822529
-45.908058 -93.316162 20.945468
-45.582155 -93.732628 22.290976
-45.269458 -94.150856 23.692315
-45.563845 -92.975693 23.620725
-45.908058 -93.316162 20.945468
-45.582155 -93.732628 22.290976
-32.190684 -93.29168 38.932648
-32.926333 -93.446174 39.680042
-32.803673 -94.465225 38.071506
-31.463852 -93.058281 38.258272
-31.586512 -92.039231 39.866807
-32.190684 -93.29168 38.932648
-30.713398 -92.820328 37.546042
-31.463852 -93.058281 38.258272
-44.211818 -88.902626 38.037661
-43.9536 -89.059769 39.417913
-44.382238 -88.031472 39.11718
-34.713291 -97.655236 35.270279
-35.472784 -97.516899 36.044033
-35.372141 -98.491424 34.31004
-34.066841 -96.653282 36.225069
-34.713291 -97.655236 35.270279
-39.521206 -99.623383 31.492724
-38.870783 -99.434296 32.625368
-39.587568 -98.74173 33.177857
-40.16127 -99.770211 30.392865
-39.521206 -99.623383 31.492724
-41.929655 -99.530876 26.85878
-41.370417 -99.707832 28.077305
-42.025135 -98.726074 28.463883
-42.467487 -99.329125 25.695591
-41.929655 -99.530876 26.85878
-44.057913 -96.834885 24.897566
-44.489126 -96.468964 23.630482
-38.479793 -75.783249 48.946573
-37.549137 -75.983116 49.059637
-40.469963 -79.104443 49.30542
-39.821462 -78.043095 49.199067
-41.072344 -80.131744 49.293541
-40.122514 -80.430286 49.330311
-40.469963 -79.104443 49.30542
-43.075709 -81.465077 48.905636
-43.994347 -81.026108 48.761843
-42.686486 -82.734535 48.772341
-42.190256 -81.955562 49.043852
-43.075709 -81.465077 48.905636
-47.146229 -81.890904 44.638702
-46.987123 -81.706547 45.603523
-47.67689 -80.919433 45.102142
-45.648777 -84.560592 42.699612
-46.116987 -83.70858 43.430766
-46.27685 -83.706611 42.216525
-45.251865 -85.478523 41.92518
-45.092002 -85.480491 43.139421
-45.648777 -84.560592 42.699612
-44.896261 -86.31417 41.054077
-45.251865 -85.478523 41.92518
-33.59364 -79.302719 49.448347
-34.407017 -79.186493 49.343445
-31.298642 -79.458095 49.540148
-32.043236 -79.44738 49.556236
-31.832867 -80.652882 49.185541
-30.599445 -79.513599 49.708918
-31.298642 -79.458095 49.540148
-30.387571 -80.637401 49.175938
-30.599445 -79.513599 49.708918
-29.810678 -83.946747 46.900842
-29.992237 -82.855362 47.786825
-30.511973 -84.05661 47.055035
-29.626335 -84.96302 45.870705
-29.810678 -83.946747 46.900842
-29.134783 -87.995575 42.060835
-29.288111 -86.987603 43.448863
-29.847328 -88.235267 42.471294
-28.963878 -88.979766 40.606258
-29.134783 -87.995575 42.060835
-45.602663 -87.6324 28.025278
-45.671149 -88.378853 26.839534
-45.473495 -88.802819 28.354181
-45.602663 -87.6324 28.025278
-45.549345 -86.899071 29.149437
-44.740278 -88.400734 35.159385
-44.530382 -88.68303 36.618254
-44.688356 -89.165963 34.024475
-44.740278 -88.400734 35.159385
-45.008328 -88.074966 33.68428
-36.802318 -98.962379 34.071415
-36.869293 -98.034317 35.767117
-37.539978 -98.643608 34.754738
-36.032913 -99.290618 33.333534
-36.802318 -98.962379 34.071415
-35.372141 -98.491424 34.31004
-36.032913 -99.290618 33.333534
-44.914825 -95.308121 23.702735
-44.896515 -94.551186 25.032484
-45.269458 -94.150856 23.692315
-44.489126 -96.468964 23.630482
-44.914825 -95.308121 23.702735
-44.438469 -81.700344 48.400097
-43.994347 -81.026108 48.761843
-44.844972 -82.289676 47.865593
-43.978442 -82.833382 48.099621
-44.438469 -81.700344 48.400097
-45.183782 -82.770023 47.235481
-44.844972 -82.289676 47.865593
-45.501373 -83.155849 46.438724
-44.702535 -83.80854 46.76836
-45.183782 -82.770023 47.235481
-47.353319 -81.982803 42.388625
-47.290527 -81.979195 43.5425
-46.810484 -82.770675 41.68845
-47.353319 -81.982803 42.388625
-46.27685 -83.706611 42.216525
-46.810484 -82.770675 41.68845
-30.120911 -91.530227 38.580667
-29.53807 -90.248931 39.526085
-30.27684 -90.524536 40.13785
-30.120911 -91.530227 38.580667
-30.713398 -92.820328 37.546042
-45.98639 -90.624 23.275442
-46.062544 -91.377884 22.024031
-45.800387 -91.803582 23.470799
-46.130812 -89.447288 23.011335
-45.98639 -90.624 23.275442
-45.868655 -89.872986 24.458103
-46.244999 -88.269249 22.719338
-46.130812 -89.447288 23.011335
-45.906697 -87.952354 25.352313
-45.777529 -89.122772 25.681217
-45.671149 -88.378853 26.839534
-46.104027 -87.521057 23.844342
-45.906697 -87.952354 25.352313
-46.244999 -88.269249 22.719338
-46.104027 -87.521057 23.844342
-44.101743 -89.711327 36.918987
-44.211818 -88.902626 38.037661
-44.530382 -88.68303 36.618254
-48.049167 -79.72757 46.405174
-47.248894 -80.357243 46.796925
-48.251604 -80.010471 45.5765
-48.049167 -79.72757 46.405174
-47.67689 -80.919433 45.102142
-48.251604 -80.010471 45.5765
-35.513666 -77.701957 49.350866
-35.748759 -76.356765 49.281866
-35.256213 -79.062195 49.372208
-35.513666 -77.701957 49.350866
-36.126408 -78.906425 49.293806
-35.019759 -80.390961 49.286384
-34.407017 -79.186493 49.343445
-35.256213 -79.062195 49.372208
-33.429535 -95.622787 37.132384
-34.176628 -95.650215 37.911586
-34.066841 -96.653282 36.225069
-32.803673 -94.465225 38.071506
-33.429535 -95.622787 37.132384
-46.157894 -92.134697 20.822529
-46.062544 -91.377884 22.024031
-38.205074 -99.062157 33.684769
-37.539978 -98.643608 34.754738
-38.272049 -98.134095 35.38047
-38.205074 -99.062157 33.684769
-38.870783 -99.434296 32.625368
-40.775223 -99.756317 29.211462
-40.16127 -99.770211 30.392865
-40.851944 -98.916923 30.86381
-40.775223 -99.756317 29.211462
-41.370417 -99.707832 28.077305
-43.623323 -97.190849 26.223034
-44.107292 -96.064415 26.368372
-44.057913 -96.834885 24.897566
-43.079158 -98.255219 25.998793
-43.128538 -97.484749 27.469599
-43.623323 -97.190849 26.223034
-42.467487 -99.329125 25.695591
-43.079158 -98.255219 25.998793
-36.631315 -76.179276 49.118786
-35.748759 -76.356765 49.281866
-37.301683 -77.350029 49.213316
-36.631315 -76.179276 49.118786
-37.549137 -75.983116 49.059637
-39.171148 -76.918537 49.105055
-38.479793 -75.783249 48.946573
-38.869819 -78.278427 49.248179
-39.171148 -76.918537 49.105055
-39.821462 -78.043095 49.199067
-41.652187 -81.071846 49.247789
-41.072344 -80.131744 49.293541
-41.262964 -82.341305 49.114494
-41.652187 -81.071846 49.247789
-42.190256 -81.955562 49.043852
-46.750202 -81.426205 46.486404
-47.248894 -80.357243 46.796925
-46.219541 -82.397674 46.022965
-46.750202 -81.426205 46.486404
-46.987123 -81.706547 45.603523
-45.738294 -83.436192 45.555843
-45.501373 -83.155849 46.438724
-46.219541 -82.397674 46.022965
-46.600762 -82.766308 44.043881
-47.146229 -81.890904 44.638702
-47.290527 -81.979195 43.5425
-44.610726 -87.209266 40.120299
-44.409555 -87.293518 41.431212
-44.896261 -86.31417 41.054077
-44.382238 -88.031472 39.11718
-44.610726 -87.209266 40.120299
-32.797089 -79.366173 49.420351
-33.59364 -79.302719 49.448347
-33.374012 -80.578712 49.229626
-32.797089 -79.366173 49.420351
-32.043236 -79.44738 49.556236
-30.190202 -81.788216 48.56172
-30.387571 -80.637401 49.175938
-30.890902 -81.814411 48.555235
-30.190202 -81.788216 48.56172
-29.992237 -82.855362 47.786825
-29.461456 -86.00267 44.71584
-29.626335 -84.96302 45.870705
-30.165535 -86.187645 45.014187
-29.461456 -86.00267 44.71584
-29.288111 -86.987603 43.448863
-28.963878 -88.979766 40.606258
-29.53807 -90.248931 39.526085
3 112 111 28
3 113 30 114
3 115 28 116
3 117 116 30
3 115 116 117
3 0 34 32
3 1 118 119
3 2 38 36
3 4 41 39
3 4 43 41
3 4 45 43
3 1 120 122
3 122 121 46
3 120 121 122
3 1 123 124
3 5 52 50
3 5 54 52
3 3 57 55
3 125 60 126
3 127 126 58
3 125 126 127
3 128 62 129
3 130 129 60
3 128 129 130
3 132 131 62
3 6 64 63
3 133 67 134
3 135 134 65
3 133 134 135
3 8 68 29
3 8 69 68
3 8 71 69
3 6 72 31
3 6 63 72
3 10 75 74
3 12 76 33
3 12 77 76
3 13 80 78
3 136 81 137
3 138 137 35
3 136 137 138
3 140 139 81
3 15 84 82
3 17 85 37
3 17 86 85
3 7 87 66
3 18 88 40
3 18 89 88
3 18 90 89
3 19 91 42
3 19 141 143
3 143 142 91
3 141 142 143
3 19 144 145
3 20 146 148
3 148 147 44
3 146 147 148
3 20 149 150
3 9 92 70
3 152 151 47
3 153 93 154
3 155 94 156
3 157 95 158
3 159 158 94
3 157 158 159
3 21 160 161
3 21 162 164
3 162 96 163
3 162 163 164
3 21 97 96
3 22 98 48
3 22 99 98
3 165 100 166
3 167 166 73
3 165 166 167
3 168 101 169
3 170 169 49
3 168 169 170
3 171 102 172
3 173 172 101
3 171 172 173
3 175 174 102
3 11 176 177
3 23 178 180
3 180 179 51
3 178 179 180
3 23 181 182
3 23 183 184
3 24 185 187
3 187 186 53
3 185 186 187
3 24 188 189
3 16 103 83
3 25 104 56
3 25 105 104
3 14 106 79
3 26 107 59
3 26 108 107
3 26 109 108
3 27 110 61
3 27 190 192
3 192 191 110
3 190 191 192
3 27 193 194
3 28 195 197
3 197 196 6
3 195 196 197
3 199 198 28
3 200 29 201
3 30 202 204
3 202 29 203
3 202 203 204
3 30 8 29
3 30 31 8
3 28 31 30
3 28 6 31
3 32 33 10
3 34 33 32
3 34 12 33
3 205 35 206
3 207 206 13
3 205 206 207
3 208 35 209
3 211 210 35
3 36 37 15
3 38 37 36
3 38 17 37
3 39 40 7
3 41 40 39
3 41 18 40
3 41 42 18
3 43 42 41
3 43 19 42
3 43 44 19
3 45 44 43
3 45 20 44
3 46 47 9
3 212 47 213
3 214 213 46
3 212 213 214
3 216 215 47
3 217 21 218
3 219 48 220
3 221 220 21
3 219 220 221
3 222 48 223
3 224 22 225
3 226 225 48
3 224 225 226
3 227 49 228
3 229 49 230
3 232 231 49
3 50 51 11
3 52 51 50
3 52 23 51
3 52 53 23
3 54 53 52
3 54 24 53
3 55 56 16
3 57 56 55
3 57 25 56
3 58 59 14
3 60 59 58
3 60 26 59
3 60 61 26
3 62 61 60
3 62 27 61
3 62 233 235
3 235 234 27
3 233 234 235
3 237 236 62
3 63 238 240
3 240 239 1
3 238 239 240
3 64 241 243
3 243 242 63
3 241 242 243
3 64 244 245
3 246 64 247
3 248 247 6
3 246 247 248
3 249 64 250
3 252 251 64
3 65 66 2
3 67 66 65
3 67 7 66
3 29 253 255
3 253 67 254
3 253 254 255
3 68 67 29
3 68 7 67
3 68 39 7
3 69 39 68
3 69 4 39
3 69 70 4
3 71 70 69
3 71 9 70
3 31 71 8
3 72 71 31
3 72 9 71
3 72 46 9
3 63 46 72
3 63 1 46
3 256 73 257
3 258 73 259
3 261 260 73
3 74 262 263
3 75 264 266
3 266 265 74
3 264 265 266
3 75 267 269
3 267 11 268
3 267 268 269
3 33 75 10
3 76 75 33
3 76 11 75
3 76 50 11
3 77 50 76
3 77 5 50
3 78 79 3
3 80 79 78
3 80 14 79
3 35 80 13
3 81 80 35
3 81 14 80
3 81 58 14
3 270 58 271
3 272 271 81
3 270 271 272
3 274 273 58
3 276 275 1
3 82 83 0
3 84 83 82
3 84 16 83
3 37 84 15
3 85 84 37
3 85 16 84
3 85 55 16
3 86 55 85
3 86 3 55
3 66 38 2
3 87 38 66
3 87 17 38
3 40 87 7
3 88 87 40
3 88 17 87
3 88 86 17
3 89 86 88
3 89 3 86
3 89 78 3
3 90 78 89
3 90 13 78
3 42 90 18
3 91 90 42
3 91 13 90
3 91 277 279
3 279 278 13
3 277 278 279
3 281 280 91
3 44 282 284
3 284 283 19
3 282 283 284
3 286 285 44
3 70 45 4
3 92 45 70
3 92 20 45
3 47 92 9
3 287 92 288
3 289 288 47
3 287 288 289
3 290 20 291
3 292 291 92
3 290 291 292
3 294 293 20
3 295 74 296
3 93 297 299
3 297 74 298
3 297 298 299
3 93 10 74
3 300 93 301
3 94 302 304
3 302 93 303
3 302 303 304
3 94 10 93
3 94 32 10
3 95 32 94
3 95 0 32
3 305 95 306
3 96 307 309
3 307 95 308
3 307 308 309
3 96 0 95
3 96 82 0
3 97 82 96
3 97 15 82
3 48 97 21
3 98 97 48
3 98 15 97
3 98 36 15
3 99 36 98
3 99 2 36
3 73 310 311
3 100 312 314
3 314 313 73
3 312 313 314
3 100 315 317
3 315 22 316
3 315 316 317
3 49 318 320
3 318 100 319
3 318 319 320
3 101 100 49
3 101 22 100
3 101 99 22
3 102 99 101
3 102 2 99
3 102 65 2
3 321 65 322
3 323 322 102
3 321 322 323
3 325 324 65
3 51 326 328
3 328 327 11
3 326 327 328
3 330 329 51
3 53 331 333
3 333 332 23
3 331 332 333
3 335 334 53
3 83 34 0
3 103 34 83
3 103 12 34
3 56 103 16
3 104 103 56
3 104 12 103
3 104 77 12
3 105 77 104
3 105 5 77
3 79 57 3
3 106 57 79
3 106 25 57
3 59 106 14
3 107 106 59
3 107 25 106
3 107 105 25
3 108 105 107
3 108 5 105
3 108 54 5
3 109 54 108
3 109 24 54
3 61 109 26
3 110 109 61
3 110 24 109
3 110 336 338
3 338 337 24
3 336 337 338
3 340 339 110
3 342 341 27
