ply
format ascii 1.0
element vertex 1012
property float x
property float y
property float z
element face 1270
property list uchar int vertex_index
end_header
7.417719 79.815605 31.18121
31.830742 32.267654 57.599022
17.160183 32.22541 64.171776
1.210854 64.257591 35.340961
4.48394 56.391495 58.548798
19.206142 55.129341 46.049522
3.15085 78.846687 6.767364
0.490589 48.252434 60.469742
4.478069 41.241253 68.881798
23.753832 31.643494 58.30323
17.926979 44.286819 55.492805
25.424402 42.94194 51.497658
33.521976 42.330093 50.433167
39.96909 39.689045 46.100708
38.768085 31.851524 55.085793
1.856609 75.259636 34.371651
2.292236 73.244095 21.189398
3.716698 83.411324 19.204554
10.917162 31.189419 72.118217
37.016335 20.778332 61.015808
16.027031 76.885803 27.557369
10.408382 86.19754 16.409613
19.372826 81.15258 14.302153
0.529682 51.499611 47.994209
0.762917 63.298347 48.56794
5.32987 69.680275 45.587452
11.104929 45.093376 63.206886
11.559464 57.976219 52.291214
13.273457 68.848518 40.224213
21.382917 63.843437 36.157383
5.619522 87.96508 4.274446
2.066851 37.229538 69.799721
4.476078 33.459206 72.987389
27.70676 31.837177 57.60141
24.640656 37.479931 55.0756
28.694269 37.593384 54.605713
29.512821 42.715096 51.05159
32.754425 37.741081 54.353607
36.406982 37.379368 53.223007
35.681694 32.4333 57.042152
3.988741 78.552467 33.009834
2.713194 79.79055 26.820591
5.138762 82.71965 25.419914
17.596077 79.541237 20.922394
0.444399 44.036011 53.393845
1.943775 53.061653 60.15921
0.529413 56.038551 54.871521
2.081549 60.551697 54.199158
2.451483 67.417542 47.580414
4.758841 63.371872 52.339233
14.159674 32.169388 68.338509
11.058367 38.202988 67.907478
14.354422 38.69091 63.979652
18.44816 49.924446 50.817863
14.81884 51.131866 54.142555
15.373301 56.813339 48.812698
12.236877 63.711327 46.323647
16.257309 62.004829 43.399261
17.420364 66.605354 37.904076
20.214161 59.79319 41.211418
40.31358 20.617443 59.062683
1.808317 57.815788 35.454044
2.820906 76.427002 13.947184
2.949896 70.295914 15.034483
12.004593 87.726654 9.16751
7.800879 88.162239 10.338911
9.050196 89.272079 3.087247
0.108772 42.457977 59.637291
0.593357 40.22374 65.272362
1.975941 45.21244 65.369888
4.429745 48.94046 64.077377
20.247965 31.865414 60.537666
17.540016 38.343128 59.96151
20.898624 37.765347 56.78389
21.523571 43.444363 52.803101
22.23782 48.719284 48.641853
23.117477 53.434311 44.337093
26.23373 47.795509 47.611588
37.123756 41.360439 48.836754
39.231331 36.173855 50.730858
1.053059 70.282173 35.09396
1.723036 69.21936 28.373798
1.697985 75.073395 27.781744
2.442663 78.942581 20.326311
3.171421 81.981827 12.882952
7.471426 29.023182 74.92997
22.683662 25.66172 61.216415
26.421553 25.757256 59.98983
30.532089 26.198605 59.955452
34.604614 26.655514 59.894485
33.037827 20.406841 61.547142
11.655838 79.130829 29.269833
8.844297 83.519165 23.793076
13.21949 82.298882 22.242203
14.898492 84.368851 15.198197
16.691807 85.255722 8.349497
0.800081 58.319107 41.929703
0.070784 50.33004 54.490509
0.220629 57.77726 48.597351
0.554888 64.498886 42.085846
1.203768 69.757935 41.682022
3.084658 73.449783 40.455139
6.224211 75.184128 38.480881
7.641748 36.491383 71.046577
7.648455 43.891064 66.587784
7.658613 51.11702 61.498322
14.524866 45.05249 59.242233
11.219923 51.733604 57.977455
7.829826 57.990852 55.773315
8.288065 64.341766 49.52597
9.101221 70.044647 42.943485
10.252825 75.005882 36.175659
14.577927 73.280907 33.997429
18.728374 70.513428 32.173912
38.135414 26.645126 58.667984
40.682606 25.82151 55.858452
6.455675 85.944633 17.824297
4.737778 86.151428 11.658086
3.720549 84.228256 5.55172
3.149996 31.479416 73.413376
29.772652 32.050194 57.591667
28.23245 34.775703 56.179558
30.295855 34.952873 56.150902
30.748058 37.697689 54.529388
32.3288 35.101204 56.07618
34.273289 35.147263 55.805901
33.821449 32.418476 57.460297
5.562454 79.441841 32.13105
4.536432 80.752289 29.223448
6.185541 81.532997 28.378626
3.089418 54.934952 59.515739
1.986582 56.86834 57.268776
3.1605 58.632256 56.549538
3.290291 62.193184 53.412384
4.588055 59.954422 55.522461
15.674749 32.285667 66.252327
14.268665 35.444378 66.2034
15.818205 35.450706 64.125824
18.794022 52.588135 48.439941
16.915882 53.337067 49.845657
17.284506 55.998695 47.307671
15.774173 59.476181 46.111557
17.729416 58.534035 44.760544
18.244041 60.930153 42.199909
19.682682 57.534859 43.644901
1.486536 61.056374 35.39299
1.989946 60.461494 32.217461
1.703568 63.686378 32.047852
3.021397 77.728706 10.344223
3.041321 74.712929 10.913624
3.137159 75.845383 7.377645
12.796946 88.037804 5.656244
10.519577 88.744446 6.119684
11.223671 88.951172 2.611775
0.662254 36.182495 67.356033
3.15164 39.391495 69.525299
2.023054 41.227489 67.682915
3.115299 43.336426 67.304329
3.080988 47.257599 64.896461
4.450037 45.109268 66.569313
21.938328 31.709873 59.213333
20.582909 34.832539 58.688774
22.343231 34.66048 57.509087
25.037167 40.273857 53.328003
23.07901 40.403919 53.895996
23.438305 43.142735 51.990799
21.863033 46.14344 50.740791
23.812321 45.756546 50.028641
24.213163 48.222679 48.014214
25.818819 45.455894 49.591103
31.546913 42.573914 50.827576
29.916473 44.968311 49.098503
31.950953 44.673164 48.789467
35.395676 41.934608 49.782715
37.658669 34.692589 54.28566
37.945461 36.887592 52.146446
38.992409 34.12635 52.971382
1.304993 72.945061 34.809544
1.358807 72.79924 31.466873
1.65387 75.401657 31.108147
3.202986 81.711166 23.011105
2.464712 79.607582 23.584263
2.905563 81.37928 19.804443
2.818972 80.561951 16.595438
3.347801 82.940948 16.03624
15.288854 25.879482 70.310974
21.025379 25.748142 62.468826
27.660173 22.830963 60.775276
28.452446 25.948433 59.891014
29.726255 23.05685 60.789062
31.818924 23.319065 60.876976
30.937237 20.143356 61.499069
13.861509 78.17115 28.380627
12.421621 80.843376 25.767639
14.633566 79.749878 24.980129
18.451321 80.48056 17.592299
16.273411 82.114883 18.115108
17.152912 82.875076 14.706627
15.778865 84.959526 11.734126
18.082727 83.349724 11.359032
0.883224 48.267754 47.566921
0.644287 55.007339 45.036255
0.177486 45.443451 60.177971
0.068359 46.428375 57.164703
0.154886 49.409439 57.583244
0.620619 59.753052 51.800987
0.245201 57.06324 51.822891
0.363167 60.673836 48.685623
0.366138 61.245445 45.410606
0.528986 64.091179 45.397667
0.741608 67.2864 41.976089
0.957079 66.641609 45.188755
3.753357 68.794189 46.696068
2.734077 70.546715 44.069736
4.094982 71.791504 43.161224
4.511806 74.568703 39.540691
5.73698 72.538101 42.067032
9.198818 30.260571 73.669716
7.587233 32.763653 73.057899
9.300785 33.894955 71.700737
11.08338 41.669918 65.622528
9.364826 41.107689 67.377907
9.36834 44.668171 65.008522
7.64278 47.536186 64.124657
9.380785 48.175255 62.490608
17.724936 41.34457 57.758865
16.072693 41.680687 59.643585
16.215729 44.718918 57.282829
13.204145 54.581581 53.307686
13.021276 51.55072 56.049324
11.352987 54.912453 55.181763
9.51367 54.942726 57.014328
9.670889 58.162933 54.080193
8.017097 61.240608 52.703758
9.90855 61.25222 51.043831
12.713675 66.360771 43.28627
10.657347 66.987709 44.763134
11.168444 69.611061 41.557682
9.639132 72.623512 39.577545
11.759247 72.055405 38.320633
12.414909 74.307068 35.049664
13.900877 71.160324 37.132111
19.421953 65.257095 36.959793
18.063755 68.651024 35.078896
25.119699 52.658585 43.815674
23.619793 55.555527 42.110085
35.841434 23.734074 60.615433
36.469479 26.736687 59.473312
37.64431 23.772091 60.01326
40.561104 23.292591 57.61264
2.004894 71.343124 24.798304
2.428106 70.162079 21.592678
9.61599 84.994453 20.093561
7.578024 85.000557 20.851347
8.318127 86.356422 17.103746
6.645195 88.338264 7.293608
6.090696 87.460777 10.996878
5.203552 87.179245 7.94082
4.151199 85.437454 8.583551
4.474815 86.362206 4.916737
1.253292 34.796379 69.69503
2.087353 33.228546 71.719078
3.16984 35.437069 71.561592
4.493647 37.354443 71.019829
25.686113 31.688866 57.793221
24.21767 34.592484 56.73436
26.19149 34.63855 56.325211
26.643709 37.500629 54.737572
27.059843 40.237968 53.035583
27.459707 42.816418 51.228195
29.113129 40.250542 52.891663
31.155365 40.246456 52.747688
33.140316 40.155323 52.46228
35.01931 39.915573 51.926071
34.65913 37.653378 53.947205
36.069267 35.026245 55.228752
37.348965 32.255886 56.260132
2.746731 77.1483 33.768036
2.261368 77.643051 30.61454
3.219259 79.445755 29.980709
3.744083 81.510155 26.167332
4.31078 83.345955 22.346956
16.792694 78.339333 24.25499
18.87521 76.703239 23.594105
19.690788 77.819977 20.364071
0.831142 44.612198 50.220215
0.462111 47.829971 50.785904
1.075321 50.814468 60.47287
0.487509 52.192329 57.765228
1.093756 54.70211 57.670006
1.159807 58.481178 54.682663
1.278566 62.115013 51.522934
1.453241 65.569328 48.206039
2.23502 64.078056 50.963875
3.486149 65.5886 50.120918
5.004417 66.620178 49.019653
12.577547 31.817806 70.321358
11.009604 34.706966 70.069969
12.670568 35.213135 68.215256
12.730518 38.582809 66.007065
12.775925 41.917568 63.688515
18.162968 47.152306 53.173958
16.393034 47.684311 54.851555
16.621717 50.561508 52.365982
15.05685 54.028259 51.495529
13.464886 57.499702 50.502754
11.851873 60.912766 49.330734
13.813232 60.294563 47.657761
14.25176 62.955437 44.789757
14.774542 65.470032 41.904686
15.367616 67.824295 38.995811
16.811867 64.385834 40.669533
18.814209 63.174522 39.608253
20.785828 61.896606 38.724472
38.181889 17.840572 61.120491
38.774578 20.784012 60.235352
39.921906 17.831512 60.182976
2.570585 74.935028 17.5667
2.665804 71.879539 18.034163
2.877064 73.3936 14.469584
3.08049 71.63063 11.527806
11.207937 87.112259 12.760219
9.064478 87.441376 13.387027
9.80127 88.240845 9.718894
8.440533 88.86058 6.675055
7.158525 88.948746 3.652774
0.234343 41.430344 62.566132
0.530289 44.253548 62.974823
1.20307 38.825642 67.69709
1.144325 42.849472 65.491661
1.096266 46.853447 63.082169
1.944269 49.165863 62.861267
3.067148 51.133034 62.299896
4.435669 52.71051 61.403206
18.667599 32.060112 62.224419
17.356197 35.299118 62.097694
18.929943 35.067181 60.246078
19.178932 38.043812 58.212929
19.426823 40.974308 56.121582
22.719223 37.567101 55.737083
21.20713 40.643757 54.820427
19.688919 43.839359 53.976334
19.980961 46.618828 51.78759
20.316456 49.293602 49.567886
20.704464 51.846451 47.326485
21.147865 54.26255 45.064259
22.655441 51.153809 46.50927
24.648222 50.525391 45.946152
26.678106 49.952019 45.557137
27.862377 45.210106 49.323715
28.283936 47.40596 47.327316
38.6618 40.605385 47.598495
36.74292 39.48526 51.0765
38.263878 38.848354 49.900452
39.542171 38.014503 48.424126
1.043821 67.357948 35.256653
1.456352 66.860512 31.894958
1.316776 69.923416 31.716145
1.616636 72.24424 28.108595
1.936787 74.331482 24.455904
2.043129 77.618652 27.358891
2.063314 77.116768 24.061171
2.266186 76.198769 20.779419
2.588799 77.858986 17.098392
2.884417 79.322258 13.428679
3.130928 80.595078 9.782088
10.761009 27.650688 74.05619
12.432884 28.398884 72.331329
14.011433 28.869453 70.392166
15.502565 29.095924 68.312317
19.887541 28.877857 62.341087
21.498283 28.735195 60.860153
23.241646 28.660175 59.79055
24.487226 25.658752 60.399529
25.117636 28.68631 59.145424
27.103668 28.818836 58.867683
29.160097 29.034096 58.837959
31.235613 29.2841 58.896164
33.271137 29.505123 58.87133
32.603699 26.455185 60.01152
33.878502 23.564423 60.8685
35.084728 20.636425 61.42765
32.117325 17.229465 61.989311
36.266846 17.714577 61.692757
37.477238 14.851864 61.714027
9.478746 79.697662 30.21278
8.107254 81.788177 27.492956
10.217451 81.543205 26.611383
10.99551 83.139061 22.993919
11.802896 84.467331 19.373482
15.435945 81.069626 21.550179
14.045637 83.479141 18.710741
12.630701 85.510345 15.768923
13.471842 86.254303 12.204294
14.323814 86.693764 8.706625
15.192981 86.837494 5.303944
19.073273 83.552666 8.10471
17.649807 85.278305 5.073688
16.097866 86.711174 2.02357
1.290098 58.186142 38.635605
0.990707 61.408211 38.692047
0.189968 43.321728 56.555695
0.175243 47.220024 54.008835
0.208895 51.023262 51.268356
0.17602 53.295372 54.793694
0.121397 54.126183 51.629425
0.292082 54.692787 48.350967
0.421743 58.190231 45.273865
0.5931 61.481972 42.054192
0.801617 64.542786 38.709137
0.784437 67.515022 38.64061
1.000433 70.24044 38.439743
1.503586 72.632301 38.068718
1.6861 68.81559 44.750183
1.978855 71.833466 41.176384
2.332449 74.611931 37.507706
3.50342 76.118874 36.76075
5.002302 77.119713 35.857311
6.786898 77.611862 34.847549
5.932035 31.314053 74.099373
5.994701 35.136841 72.186684
6.009651 38.950165 70.119102
9.349268 37.512413 69.60569
7.655149 40.203815 68.89241
5.997448 42.747475 67.892151
5.979113 46.514709 65.498856
5.974955 50.231033 62.933182
6.003792 53.871338 60.193588
15.94588 38.586143 61.92482
14.433735 41.898666 61.660088
12.82618 45.202385 61.253883
14.646999 48.13549 56.731659
12.901358 48.419296 58.704178
11.143629 48.454559 60.657043
9.422749 51.607231 59.823311
7.715212 54.609543 58.711006
6.082407 57.409424 57.285454
6.225077 60.820129 54.221771
6.443184 64.081299 51.022308
6.744596 67.174599 47.710915
10.23621 64.197639 47.930511
8.649172 67.280411 46.265045
7.133026 70.08548 44.31234
7.607536 72.80246 40.848877
8.162836 75.316193 37.337715
8.790159 77.617882 33.790085
10.929375 77.179619 32.739887
13.119814 76.351044 31.738008
15.28929 75.194595 30.807537
16.012177 70.003357 36.046539
16.690277 71.992867 33.037537
17.391121 73.780029 29.95575
21.642584 56.530495 42.770668
22.178688 58.644348 40.424919
22.744028 60.605972 38.001839
42.382462 41.764137 39.918259
35.202763 29.628716 58.611748
36.96545 29.592651 58.008316
38.499153 29.350628 57.007095
39.230667 23.633774 59.01152
39.550079 26.344578 57.454491
39.75787 28.878872 55.608864
1.936798 66.075897 28.619385
2.778738 68.759903 18.540337
6.86178 83.388702 24.614273
5.783968 84.45253 21.615334
4.904032 84.953506 18.536015
7.134413 87.18573 14.060675
5.504267 86.328331 14.748526
4.235456 84.892654 15.416142
3.770126 84.294662 12.292664
3.478096 83.204544 9.199313
3.308237 81.680511 6.166583
7.636538 89.28405 0.090448
4.735521 87.059151 1.299994
3.889191 85.047546 1.945683
3.403221 82.578568 2.587207
3.193176 79.785782 3.222733
3.148585 77.822708 5.318553
3.141739 76.322056 5.623693
3.144005 77.346035 7.072504
12.410468 88.504295 2.431917
12.010309 88.494488 4.13401
13.197105 88.047611 3.954152
0.689828 34.161356 68.2882
0.52476 34.76795 67.0214
33.727366 43.301908 49.364281
32.941854 44.473444 48.542431
32.736464 43.501628 49.611317
34.458826 42.132351 50.107941
34.664215 43.104166 49.039055
33.727366 43.301908 49.364281
39.334302 31.531559 54.313336
39.446465 32.668972 53.25613
38.880247 32.988937 54.028588
28.251607 21.364162 61.108528
27.235355 21.270689 61.159065
29.284647 21.477106 61.115421
28.693214 22.943907 60.782169
28.251607 21.364162 61.108528
29.890138 20.020359 61.470425
30.331746 21.600103 61.144065
29.284647 21.477106 61.115421
0.755518 51.634552 46.367226
0.932289 50.018623 46.153582
0.706453 49.883682 47.780565
0.586985 53.253475 46.515232
0.81282 53.388416 44.888249
0.755518 51.634552 46.367226
20.717477 65.507874 35.193487
19.736995 66.214703 35.594692
20.402435 64.550266 36.558588
21.690273 64.741196 34.824566
20.717477 65.507874 35.193487
25.372603 53.64333 42.712087
26.138091 52.294713 43.618447
40.250989 40.471119 44.948853
39.569964 40.949066 45.691456
2.076705 31.227708 72.5783
1.681473 31.99809 71.600216
19.501005 75.18423 24.854985
18.495267 76.028389 25.198067
20.718485 76.9207 20.126126
20.293202 76.382751 21.684136
20.137207 78.258507 18.757922
20.718485 76.9207 20.126126
0.637771 44.324105 51.80703
0.829014 42.725401 51.45205
0.635643 42.437308 53.038865
39.657619 16.40423 60.589187
39.051897 17.836042 60.651733
38.787611 16.40876 61.057945
2.033107 57.523376 33.946657
1.965278 56.200321 35.504814
2.194639 60.058765 30.71737
2.086474 61.667763 30.552713
3.115353 72.200726 9.7805
3.060906 73.171779 11.220715
3.095768 73.741875 9.473409
3.083359 70.657619 10.151241
3.115353 72.200726 9.7805
0.41385 40.827042 63.919247
0.272433 39.412716 63.652176
0.45194 38.809414 65.005291
29.314031 47.207527 47.185246
29.100205 46.187135 48.21291
30.130299 45.988703 48.070839
28.510138 48.406529 46.284088
29.314031 47.207527 47.185246
37.355045 42.202501 47.691086
36.474423 42.547882 48.195473
37.892778 40.982912 48.217624
38.124067 41.824974 47.071956
37.355045 42.202501 47.691086
39.734112 35.716299 49.876617
39.889532 36.636623 48.723252
39.386751 37.094179 49.577492
10.640861 25.868032 74.968643
9.89216 27.129203 74.784973
13.119932 26.970119 72.349033
12.324891 26.675455 73.288169
13.909206 27.205404 71.379452
13.222158 28.634169 71.361748
13.119932 26.970119 72.349033
16.098168 27.552227 68.240539
15.39571 27.487703 69.311645
15.991313 25.944006 69.239868
16.222295 29.1123 67.252465
16.098168 27.552227 68.240539
19.694719 27.37685 63.228229
19.135942 28.954975 63.249428
25.454389 25.708004 60.194679
25.080413 24.169706 60.699543
26.047576 24.218958 60.494693
31.642636 15.650569 62.144413
31.057659 17.098306 61.969825
35.850201 16.172474 61.904114
35.246578 17.604685 61.82116
36.455397 14.741118 61.914749
36.872042 16.28322 61.703392
35.850201 16.172474 61.904114
20.268217 82.642483 8.0424
19.723203 82.557946 9.596345
18.161957 85.171562 3.503375
18.894317 84.396183 5.022583
17.385987 85.887996 1.978317
16.873836 85.99474 3.548629
18.161957 85.171562 3.503375
16.583397 86.533413 0.457724
17.385987 85.887996 1.978317
1.04509 58.252624 40.282654
1.204782 56.635315 40.196453
0.959774 56.701797 41.843502
0.14937 42.889853 58.096493
0.217845 41.342365 57.724869
0.177247 40.91049 59.265667
6.701731 30.168617 74.514671
5.867487 29.397778 74.978065
6.637182 28.252342 75.393364
19.070238 71.349876 30.678104
18.401612 72.983177 29.569024
18.059748 72.146728 31.064831
23.166661 58.083161 40.116196
22.899241 57.099937 41.267502
23.887214 56.53875 40.958778
23.449331 59.063973 38.904655
22.461358 59.62516 39.213379
23.166661 58.083161 40.116196
42.818022 41.250866 39.037959
42.422146 40.443565 40.112923
42.789137 42.557287 38.834176
42.818022 41.250866 39.037959
40.701275 27.000228 54.857929
40.238907 28.52891 54.733136
40.220238 27.350191 55.733658
6.977407 89.025745 -1.382378
7.870297 89.313141 -1.641071
6.810951 88.890774 0.380503
6.977407 89.025745 -1.382378
4.361881 86.356705 -0.156337
4.83959 87.288296 -0.478199
3.938716 85.350902 0.166507
4.312356 86.053348 1.622839
4.361881 86.356705 -0.156337
3.27269 81.563859 1.150648
3.408925 82.932488 0.817536
3.167667 80.167465 1.468411
3.298198 81.182175 2.90497
3.27269 81.563859 1.150648
3.125694 78.683403 1.808982
3.167667 80.167465 1.468411
3.112428 29.498726 74.245209
2.608026 30.353144 73.425449
3.778012 30.518944 74.09914
3.112428 29.498726 74.245209
4.441054 31.508839 73.886146
3.813037 32.469311 73.200382
3.778012 30.518944 74.09914
0.459067 42.095274 54.597805
0.635643 42.437308 53.038865
1.943285 63.280204 30.467909
2.086474 61.667763 30.552713
1.846757 62.073936 32.132656
3.143687 74.308102 7.70542
3.095768 73.741875 9.473409
3.08924 75.279156 9.145634
3.138542 74.785042 5.969264
3.143687 74.308102 7.70542
3.138542 74.785042 5.969264
3.141739 76.322056 5.623693
0.486388 36.788792 66.047126
0.52476 34.76795 67.0214
0.627806 38.203118 66.314198
0.45194 38.809414 65.005291
0.486388 36.788792 66.047126
31.14754 45.841129 47.916321
30.130299 45.988703 48.070839
30.933713 44.820737 48.943985
32.171279 45.615932 47.720821
31.14754 45.841129 47.916321
32.171279 45.615932 47.720821
32.941854 44.473444 48.542431
35.610383 42.834967 48.668453
34.664215 43.104166 49.039055
36.259716 41.647523 49.309735
36.474423 42.547882 48.195473
35.610383 42.834967 48.668453
39.515587 33.73045 52.14711
39.635048 34.754202 51.026848
39.11187 35.150103 51.85112
39.515587 33.73045 52.14711
39.446465 32.668972 53.25613
15.153655 24.254224 71.278835
14.547917 25.710418 71.338855
15.847644 24.369091 70.207287
15.153655 24.254224 71.278835
15.991313 25.944006 69.239868
15.847644 24.369091 70.207287
20.777468 24.25011 63.266697
20.263638 25.811993 63.292099
21.559204 24.20317 62.540413
20.777468 24.25011 63.266697
22.388345 24.159959 61.914208
21.85452 25.704931 61.84262
21.559204 24.20317 62.540413
26.666886 22.755812 60.887417
27.235355 21.270689 61.159065
27.040863 24.29411 60.382553
26.047576 24.218958 60.494693
26.666886 22.755812 60.887417
1.131704 48.403656 45.991378
1.091267 46.662563 47.331587
1.131704 48.403656 45.991378
0.932289 50.018623 46.153582
0.881877 55.045913 43.396778
0.81282 53.388416 44.888249
0.722184 56.663223 43.482979
0.959774 56.701797 41.843502
0.881877 55.045913 43.396778
19.057896 67.911667 34.654243
18.742854 66.954059 36.019345
19.736995 66.214703 35.594692
19.390205 68.842869 33.201752
18.396065 69.582226 33.626404
19.057896 67.911667 34.654243
19.713727 69.716499 31.788958
19.390205 68.842869 33.201752
24.62265 55.091801 41.859293
24.369746 54.107056 42.962879
25.372603 53.64333 42.712087
23.887214 56.53875 40.958778
24.62265 55.091801 41.859293
41.085211 21.776362 57.565818
40.437342 21.955017 58.337661
40.961449 20.438788 58.29084
41.091917 23.017908 56.736019
41.085211 21.776362 57.565818
41.152668 24.282367 55.858925
40.621855 24.557051 56.735546
41.091917 23.017908 56.736019
41.107216 25.453646 54.898629
41.152668 24.282367 55.858925
2.092942 69.787139 24.962941
1.952013 68.725257 26.750689
1.863965 70.281242 26.586051
2.304548 69.196617 23.360129
2.092942 69.787139 24.962941
2.2165 70.752601 23.195491
2.50665 68.589009 21.811286
2.304548 69.196617 23.360129
2.951063 68.737896 15.357955
2.996823 69.415001 13.630701
1.264442 32.782007 70.588192
0.985348 33.468298 69.457698
1.670322 34.012462 70.707054
1.264442 32.782007 70.588192
1.681473 31.99809 71.600216
2.618675 32.353981 72.566227
2.076705 31.227708 72.5783
2.608026 30.353144 73.425449
17.454009 76.846436 25.528509
16.409863 77.612568 25.90618
17.071178 76.119671 27.179699
17.833952 77.521286 23.924547
17.454009 76.846436 25.528509
18.495267 76.028389 25.198067
19.885413 75.824382 23.299152
19.501005 75.18423 24.854985
19.282999 77.261608 21.979088
19.885413 75.824382 23.299152
20.293202 76.382751 21.684136
19.517474 79.588798 17.372036
19.071055 79.150268 18.978185
20.137207 78.258507 18.757922
19.978226 79.924808 15.726963
18.912073 80.81657 15.947226
19.517474 79.588798 17.372036
1.045651 43.018849 49.909138
0.829014 42.725401 51.45205
1.065225 44.834785 48.658234
1.045651 43.018849 49.909138
0.857183 46.439976 48.893568
1.091267 46.662563 47.331587
1.065225 44.834785 48.658234
40.492048 39.16793 45.245119
40.259842 38.351627 46.398739
40.53219 16.401381 60.056713
39.657619 16.40423 60.589187
40.687782 17.745241 59.529736
40.53219 16.401381 60.056713
40.88362 19.138207 58.969589
40.117743 19.224477 59.622829
40.687782 17.745241 59.529736
40.961449 20.438788 58.29084
40.88362 19.138207 58.969589
2.123921 58.846229 32.328366
2.033107 57.523376 33.946657
1.899131 59.138641 33.835752
2.123921 58.846229 32.328366
2.194639 60.058765 30.71737
3.06212 70.082359 11.877363
2.996823 69.415001 13.630701
3.015193 70.963272 13.281144
3.06212 70.082359 11.877363
3.083359 70.657619 10.151241
0.144657 40.453567 60.766517
0.177247 40.91049 59.265667
0.207443 39.939751 62.230938
0.272433 39.412716 63.652176
0.171558 41.94416 61.101712
0.144657 40.453567 60.766517
0.207443 39.939751 62.230938
0.957773 35.489437 68.525531
0.689828 34.161356 68.2882
0.985348 33.468298 69.457698
26.917295 50.941429 44.489178
26.138091 52.294713 43.618447
25.898902 51.305302 44.686405
27.707223 49.679558 45.398998
27.481021 48.67899 46.442227
28.510138 48.406529 46.284088
26.917295 50.941429 44.489178
27.707223 49.679558 45.398998
38.916319 41.407236 46.440349
38.124067 41.824974 47.071956
39.315445 40.147215 46.849601
39.569964 40.949066 45.691456
38.916319 41.407236 46.440349
40.046382 37.514356 47.560448
40.259842 38.351627 46.398739
39.755631 38.851774 47.262417
40.046382 37.514356 47.560448
39.889532 36.636623 48.723252
39.734112 35.716299 49.876617
39.635048 34.754202 51.026848
7.373603 27.144859 75.795151
6.637182 28.252342 75.393364
8.247369 27.81545 75.221863
7.373603 27.144859 75.795151
9.111065 28.434145 74.591736
8.335122 29.641876 74.299843
8.247369 27.81545 75.221863
9.979913 28.95563 73.862953
9.111065 28.434145 74.591736
9.89216 27.129203 74.784973
11.488954 26.301357 74.1506
10.640861 25.868032 74.968643
11.596946 28.024786 73.193759
11.488954 26.301357 74.1506
12.324891 26.675455 73.288169
14.650144 27.374468 70.35157
13.909206 27.205404 71.379452
14.547917 25.710418 71.338855
16.308387 30.707172 66.222469
15.588657 30.690796 67.282322
16.222295 29.1123 67.252465
17.051103 30.677043 65.182194
16.417466 32.255539 65.212052
16.308387 30.707172 66.222469
17.772263 30.628751 64.164772
17.051103 30.677043 65.182194
18.52597 30.546102 63.191094
17.913891 32.142761 63.198097
17.772263 30.628751 64.164772
19.27757 30.468984 62.282753
18.52597 30.546102 63.191094
19.135942 28.954975 63.249428
20.45646 27.313 62.404956
19.694719 27.37685 63.228229
20.263638 25.811993 63.292099
23.246356 24.143249 61.402862
22.388345 24.159959 61.914208
24.148138 24.141765 60.994419
25.080413 24.169706 60.699543
23.585444 25.660236 60.807972
23.246356 24.143249 61.402862
24.148138 24.141765 60.994419
30.467615 18.555252 61.724705
29.890138 20.020359 61.470425
31.527281 18.686411 61.74419
30.467615 18.555252 61.724705
31.057659 17.098306 61.969825
32.714878 15.792336 62.130916
31.642636 15.650569 62.144413
33.171818 17.362129 61.969437
32.714878 15.792336 62.130916
33.632069 18.950817 61.748352
32.577576 18.818153 61.768226
33.171818 17.362129 61.969437
34.655519 19.065609 61.688606
34.061278 20.521633 61.487396
33.632069 18.950817 61.748352
35.675787 19.175501 61.560204
34.655519 19.065609 61.688606
35.246578 17.604685 61.82116
38.435285 14.914406 61.354713
38.787611 16.40876 61.057945
37.829563 16.346218 61.417259
37.090944 13.358311 61.916004
36.455397 14.741118 61.914749
38.117594 13.475317 61.64524
37.090944 13.358311 61.916004
38.435285 14.914406 61.354713
38.117594 13.475317 61.64524
14.395123 87.447457 3.778002
13.197105 88.047611 3.954152
13.994964 87.437649 5.480094
20.472176 80.242908 14.149556
19.978226 79.924808 15.726963
19.872979 81.357902 12.695067
20.472176 80.242908 14.149556
19.22793 82.456474 11.223506
18.727776 82.251152 12.830592
19.872979 81.357902 12.695067
18.578 83.451195 9.731871
19.22793 82.456474 11.223506
19.723203 82.557946 9.596345
19.60605 83.533364 6.538095
20.268217 82.642483 8.0424
18.36154 84.415486 6.589199
19.60605 83.533364 6.538095
18.894317 84.396183 5.022583
14.847565 87.384297 2.137815
14.395123 87.447457 3.778002
15.645423 86.774334 3.663757
15.26541 87.262032 0.502615
14.847565 87.384297 2.137815
15.26541 87.262032 0.502615
16.583397 86.533413 0.457724
1.725253 56.377575 37.016117
1.965278 56.200321 35.504814
1.466143 56.562752 38.606898
1.204782 56.635315 40.196453
1.549208 58.000965 37.044825
1.725253 56.377575 37.016117
1.466143 56.562752 38.606898
0.331852 41.738132 56.17873
0.217845 41.342365 57.724869
0.317184 43.67887 54.97477
0.459067 42.095274 54.597805
0.331852 41.738132 56.17873
5.169032 30.436262 74.442138
5.867487 29.397778 74.978065
5.204057 32.386629 73.543381
4.441054 31.508839 73.886146
5.169032 30.436262 74.442138
17.753222 74.566784 28.378889
17.071178 76.119671 27.179699
16.709076 75.332916 28.75656
17.753222 74.566784 28.378889
18.401612 72.983177 29.569024
19.070238 71.349876 30.678104
19.713727 69.716499 31.788958
23.72947 59.977588 37.706177
23.449331 59.063973 38.904655
23.03708 61.516071 36.741535
23.72947 59.977588 37.706177
22.356524 63.134804 35.819308
22.063472 62.224705 37.079611
23.03708 61.516071 36.741535
21.690273 64.741196 34.824566
22.356524 63.134804 35.819308
40.250989 40.471119 44.948853
40.492048 39.16793 45.245119
42.008887 40.987904 41.022863
42.422146 40.443565 40.112923
41.803364 42.266581 40.72588
42.008887 40.987904 41.022863
42.192509 43.029465 39.61562
41.803364 42.266581 40.72588
42.192509 43.029465 39.61562
42.789137 42.557287 38.834176
39.829195 30.045233 54.574871
39.334302 31.531559 54.313336
39.262977 30.365198 55.347329
39.829195 30.045233 54.574871
40.238907 28.52891 54.733136
40.701275 27.000228 54.857929
41.107216 25.453646 54.898629
2.0599 64.474964 28.753675
1.943285 63.280204 30.467909
1.820183 64.881137 30.333619
2.058894 67.153526 26.873482
1.829917 67.647628 28.496592
1.952013 68.725257 26.750689
2.160104 65.566249 27.052437
2.058894 67.153526 26.873482
2.0599 64.474964 28.753675
2.160104 65.566249 27.052437
2.681966 67.887921 20.285115
2.50665 68.589009 21.811286
2.603422 69.460991 20.066508
2.865484 67.96989 17.110882
2.864317 69.527908 16.78741
2.951063 68.737896 15.357955
2.804058 67.18911 18.832361
2.865484 67.96989 17.110882
2.681966 67.887921 20.285115
2.804058 67.18911 18.832361
11.57928 88.912369 0.915703
12.410468 88.504295 2.431917
10.433497 89.173713 1.103993
11.57928 88.912369 0.915703
9.34676 89.334167 1.341729
10.136933 89.111626 2.849511
10.433497 89.173713 1.103993
8.639931 89.340152 -0.156671
7.870297 89.313141 -1.641071
8.343367 89.278064 1.588847
9.34676 89.334167 1.341729
8.639931 89.340152 -0.156671
6.571945 88.723122 2.161666
7.397531 89.116398 1.871611
6.810951 88.890774 0.380503
5.802443 88.231289 2.472503
6.389024 88.456913 3.96361
6.571945 88.723122 2.161666
5.360443 87.778324 0.985277
4.83959 87.288296 -0.478199
5.177522 87.512115 2.78722
5.802443 88.231289 2.472503
5.360443 87.778324 0.985277
3.65191 84.166977 0.496774
3.938716 85.350902 0.166507
3.646206 83.813057 2.266445
3.65191 84.166977 0.496774
3.408925 82.932488 0.817536
3.169748 78.292255 3.546237
3.148585 77.822708 5.318553
3.172013 79.316235 4.995048
3.169748 78.292255 3.546237
3.125694 78.683403 1.808982
3 1 122 120
3 1 124 122
3 1 126 124
3 0 129 127
3 4 132 130
3 4 134 132
3 2 137 135
3 5 140 138
3 5 142 140
3 5 144 142
3 3 147 145
3 6 150 148
3 6 478 480
3 480 479 150
3 478 479 480
3 481 153 482
3 483 482 151
3 481 482 483
3 484 154 485
3 8 157 155
3 8 159 157
3 9 162 160
3 11 165 163
3 11 167 165
3 11 169 167
3 12 172 170
3 12 486 488
3 488 487 172
3 486 487 488
3 12 489 491
3 489 173 490
3 489 490 491
3 14 176 174
3 14 492 494
3 494 493 176
3 492 493 494
3 15 179 177
3 17 182 180
3 17 184 182
3 495 187 496
3 497 189 498
3 499 498 187
3 497 498 499
3 500 191 501
3 502 501 189
3 500 501 502
3 20 194 192
3 22 197 195
3 22 199 197
3 23 503 505
3 505 504 200
3 503 504 505
3 23 506 508
3 506 201 507
3 506 507 508
3 7 204 202
3 24 207 205
3 24 209 207
3 24 211 209
3 25 214 212
3 25 216 214
3 18 219 217
3 26 222 220
3 26 224 222
3 10 227 225
3 27 230 228
3 27 232 230
3 27 234 232
3 28 237 235
3 28 239 237
3 28 241 239
3 29 509 511
3 511 510 242
3 509 510 511
3 29 512 513
3 515 514 244
3 13 516 517
3 19 248 246
3 16 251 250
3 21 254 252
3 30 257 255
3 30 259 257
3 518 261 519
3 32 262 119
3 32 263 262
3 33 266 264
3 35 267 121
3 35 268 267
3 35 270 268
3 37 271 123
3 37 272 271
3 37 274 272
3 39 275 125
3 39 276 275
3 40 279 277
3 42 280 128
3 42 281 280
3 520 283 521
3 522 284 523
3 525 524 284
3 44 526 528
3 526 285 527
3 526 527 528
3 44 286 285
3 45 289 287
3 47 290 131
3 47 291 290
3 47 293 291
3 49 294 133
3 49 295 294
3 50 298 296
3 52 299 136
3 52 300 299
3 53 303 301
3 55 304 139
3 55 305 304
3 55 307 305
3 57 308 141
3 57 309 308
3 57 311 309
3 59 312 143
3 59 313 312
3 529 316 530
3 531 530 314
3 529 530 531
3 61 532 533
3 535 534 146
3 62 319 317
3 536 320 537
3 538 537 149
3 536 537 538
3 540 539 320
3 64 323 321
3 66 324 152
3 66 325 324
3 68 541 543
3 541 326 542
3 541 542 543
3 68 327 326
3 31 328 260
3 69 329 156
3 69 330 329
3 69 331 330
3 70 332 158
3 70 333 332
3 71 336 334
3 73 337 161
3 73 338 337
3 34 339 265
3 74 340 164
3 74 341 340
3 74 342 341
3 75 343 166
3 75 344 343
3 75 346 344
3 77 347 168
3 77 348 347
3 36 349 269
3 544 350 545
3 546 545 171
3 544 545 546
3 548 547 350
3 78 549 550
3 78 551 553
3 551 351 552
3 551 552 553
3 38 352 273
3 79 353 175
3 79 354 353
3 79 554 556
3 556 555 354
3 554 555 556
3 80 357 355
3 82 358 178
3 82 359 358
3 41 360 278
3 83 361 181
3 83 362 361
3 83 363 362
3 84 364 183
3 84 365 364
3 557 366 558
3 559 367 560
3 561 368 562
3 563 562 367
3 561 562 563
3 564 369 565
3 566 565 185
3 564 565 566
3 568 567 369
3 569 370 570
3 86 371 186
3 86 372 371
3 87 571 573
3 571 373 572
3 571 572 573
3 87 374 373
3 87 375 374
3 88 376 188
3 88 377 376
3 88 379 377
3 90 380 190
3 90 381 380
3 574 382 575
3 576 383 577
3 578 384 579
3 580 579 383
3 578 579 580
3 91 387 385
3 93 388 193
3 93 389 388
3 43 390 282
3 94 391 196
3 94 392 391
3 94 393 392
3 95 394 198
3 95 395 394
3 581 396 582
3 583 397 584
3 585 398 586
3 587 586 397
3 585 586 587
3 589 588 398
3 96 590 592
3 590 399 591
3 590 591 592
3 96 400 399
3 67 593 595
3 593 401 594
3 593 594 595
3 97 402 203
3 97 403 402
3 46 404 288
3 98 405 206
3 98 406 405
3 98 407 406
3 99 408 208
3 99 409 408
3 99 410 409
3 100 411 210
3 100 412 411
3 48 413 292
3 101 414 213
3 101 415 414
3 101 416 415
3 102 417 215
3 102 418 417
3 85 596 598
3 596 419 597
3 596 597 598
3 103 420 218
3 103 421 420
3 51 422 297
3 104 423 221
3 104 424 423
3 104 425 424
3 105 426 223
3 105 427 426
3 72 428 335
3 106 429 226
3 106 430 429
3 54 431 302
3 107 432 229
3 107 433 432
3 107 434 433
3 108 435 231
3 108 436 435
3 108 437 436
3 109 438 233
3 109 439 438
3 56 440 306
3 110 441 236
3 110 442 441
3 110 443 442
3 111 444 238
3 111 445 444
3 111 446 445
3 112 447 240
3 112 448 447
3 58 449 310
3 113 450 243
3 113 451 450
3 113 599 601
3 601 600 451
3 599 600 601
3 76 452 345
3 602 453 603
3 604 603 245
3 602 603 604
3 605 454 606
3 607 606 453
3 605 606 607
3 608 455 609
3 611 610 455
3 89 456 378
3 114 457 247
3 114 458 457
3 60 459 315
3 115 460 249
3 115 461 460
3 115 612 614
3 614 613 461
3 612 613 614
3 81 462 356
3 63 463 318
3 92 464 386
3 116 465 253
3 116 466 465
3 65 467 322
3 117 468 256
3 117 469 468
3 117 470 469
3 118 471 258
3 118 472 471
3 615 473 616
3 618 617 473
3 619 474 620
3 621 475 622
3 623 622 474
3 621 622 623
3 624 476 625
3 626 477 627
3 628 627 476
3 626 627 628
3 630 629 477
3 631 119 632
3 633 119 634
3 635 32 636
3 637 636 119
3 635 636 637
3 120 121 33
3 122 121 120
3 122 35 121
3 122 123 35
3 124 123 122
3 124 37 123
3 124 125 37
3 126 125 124
3 126 39 125
3 127 128 40
3 129 128 127
3 129 42 128
3 638 44 639
3 130 131 45
3 132 131 130
3 132 47 131
3 132 133 47
3 134 133 132
3 134 49 133
3 135 136 50
3 137 136 135
3 137 52 136
3 138 139 53
3 140 139 138
3 140 55 139
3 140 141 55
3 142 141 140
3 142 57 141
3 142 143 57
3 144 143 142
3 144 59 143
3 145 146 61
3 147 146 145
3 147 640 642
3 642 641 146
3 640 641 642
3 148 149 62
3 150 149 148
3 150 643 645
3 645 644 149
3 643 644 645
3 150 646 647
3 649 648 150
3 151 152 64
3 153 152 151
3 153 66 152
3 154 650 651
3 154 652 654
3 652 68 653
3 652 653 654
3 155 156 31
3 157 156 155
3 157 69 156
3 157 158 69
3 159 158 157
3 159 70 158
3 160 161 71
3 162 161 160
3 162 73 161
3 163 164 34
3 165 164 163
3 165 74 164
3 165 166 74
3 167 166 165
3 167 75 166
3 167 168 75
3 169 168 167
3 169 77 168
3 170 171 36
3 172 171 170
3 172 655 657
3 657 656 171
3 655 656 657
3 172 658 659
3 661 660 172
3 173 662 663
3 173 664 666
3 664 78 665
3 664 665 666
3 174 175 38
3 176 175 174
3 176 79 175
3 176 667 669
3 669 668 79
3 667 668 669
3 671 670 176
3 177 178 80
3 179 178 177
3 179 82 178
3 180 181 41
3 182 181 180
3 182 83 181
3 182 183 83
3 184 183 182
3 184 84 183
3 672 185 673
3 674 185 675
3 677 676 185
3 678 186 679
3 680 186 681
3 682 86 683
3 684 683 186
3 682 683 684
3 187 685 686
3 187 687 689
3 687 87 688
3 687 688 689
3 187 188 87
3 189 188 187
3 189 88 188
3 189 190 88
3 191 190 189
3 191 90 190
3 192 193 91
3 194 193 192
3 194 93 193
3 195 196 43
3 197 196 195
3 197 94 196
3 197 198 94
3 199 198 197
3 199 95 198
3 200 690 691
3 693 692 200
3 201 694 695
3 201 696 698
3 696 96 697
3 696 697 698
3 202 203 67
3 204 203 202
3 204 97 203
3 205 206 46
3 207 206 205
3 207 98 206
3 207 208 98
3 209 208 207
3 209 99 208
3 209 210 99
3 211 210 209
3 211 100 210
3 212 213 48
3 214 213 212
3 214 101 213
3 214 215 101
3 216 215 214
3 216 102 215
3 217 218 85
3 219 218 217
3 219 103 218
3 220 221 51
3 222 221 220
3 222 104 221
3 222 223 104
3 224 223 222
3 224 105 223
3 225 226 72
3 227 226 225
3 227 106 226
3 228 229 54
3 230 229 228
3 230 107 229
3 230 231 107
3 232 231 230
3 232 108 231
3 232 233 108
3 234 233 232
3 234 109 233
3 235 236 56
3 237 236 235
3 237 110 236
3 237 238 110
3 239 238 237
3 239 111 238
3 239 240 111
3 241 240 239
3 241 112 240
3 242 243 58
3 699 243 700
3 701 700 242
3 699 700 701
3 702 113 703
3 704 703 243
3 702 703 704
3 706 705 113
3 244 245 76
3 707 245 708
3 709 708 244
3 707 708 709
3 711 710 245
3 246 247 89
3 248 247 246
3 248 114 247
3 712 249 713
3 714 713 60
3 712 713 714
3 715 249 716
3 717 115 718
3 719 718 249
3 717 718 719
3 721 720 115
3 250 722 724
3 724 723 81
3 722 723 724
3 251 725 727
3 727 726 250
3 725 726 727
3 251 728 729
3 731 730 63
3 252 253 92
3 254 253 252
3 254 116 253
3 255 256 65
3 257 256 255
3 257 117 256
3 257 258 117
3 259 258 257
3 259 118 258
3 732 260 733
3 261 734 736
3 734 260 735
3 734 735 736
3 261 31 260
3 119 737 739
3 737 261 738
3 737 738 739
3 262 261 119
3 262 31 261
3 262 155 31
3 263 155 262
3 263 8 155
3 264 265 9
3 266 265 264
3 266 34 265
3 121 266 33
3 267 266 121
3 267 34 266
3 267 163 34
3 268 163 267
3 268 11 163
3 268 269 11
3 270 269 268
3 270 36 269
3 123 270 35
3 271 270 123
3 271 36 270
3 271 170 36
3 272 170 271
3 272 12 170
3 272 273 12
3 274 273 272
3 274 38 273
3 125 274 37
3 275 274 125
3 275 38 274
3 275 174 38
3 276 174 275
3 276 14 174
3 277 278 15
3 279 278 277
3 279 41 278
3 128 279 40
3 280 279 128
3 280 41 279
3 280 180 41
3 281 180 280
3 281 17 180
3 740 282 741
3 742 741 20
3 740 741 742
3 283 743 745
3 743 282 744
3 743 744 745
3 283 43 282
3 746 283 747
3 284 748 750
3 748 283 749
3 748 749 750
3 284 43 283
3 284 195 43
3 751 195 752
3 753 752 284
3 751 752 753
3 754 22 755
3 756 755 195
3 754 755 756
3 285 757 758
3 285 759 760
3 285 761 763
3 761 200 762
3 761 762 763
3 286 200 285
3 286 23 200
3 287 288 7
3 289 288 287
3 289 46 288
3 131 289 45
3 290 289 131
3 290 46 289
3 290 205 46
3 291 205 290
3 291 24 205
3 291 292 24
3 293 292 291
3 293 48 292
3 133 293 47
3 294 293 133
3 294 48 293
3 294 212 48
3 295 212 294
3 295 25 212
3 296 297 18
3 298 297 296
3 298 51 297
3 136 298 50
3 299 298 136
3 299 51 298
3 299 220 51
3 300 220 299
3 300 26 220
3 301 302 10
3 303 302 301
3 303 54 302
3 139 303 53
3 304 303 139
3 304 54 303
3 304 228 54
3 305 228 304
3 305 27 228
3 305 306 27
3 307 306 305
3 307 56 306
3 141 307 55
3 308 307 141
3 308 56 307
3 308 235 56
3 309 235 308
3 309 28 235
3 309 310 28
3 311 310 309
3 311 58 310
3 143 311 57
3 312 311 143
3 312 58 311
3 312 242 58
3 313 242 312
3 313 29 242
3 765 764 13
3 314 315 19
3 316 315 314
3 316 60 315
3 766 316 767
3 768 316 769
3 770 60 771
3 772 771 316
3 770 771 772
3 774 773 60
3 146 775 777
3 777 776 61
3 775 776 777
3 779 778 146
3 317 318 16
3 319 318 317
3 319 63 318
3 149 319 62
3 320 319 149
3 320 63 319
3 320 780 782
3 782 781 63
3 780 781 782
3 784 783 320
3 321 322 21
3 323 322 321
3 323 65 322
3 152 323 64
3 324 323 152
3 324 65 323
3 324 255 65
3 325 255 324
3 325 30 255
3 785 67 786
3 326 787 788
3 326 789 791
3 789 67 790
3 789 790 791
3 326 202 67
3 327 202 326
3 327 7 202
3 260 792 794
3 792 154 793
3 792 793 794
3 328 154 260
3 328 68 154
3 156 328 31
3 329 328 156
3 329 68 328
3 329 327 68
3 330 327 329
3 330 7 327
3 330 287 7
3 331 287 330
3 331 45 287
3 158 331 69
3 332 331 158
3 332 45 331
3 332 130 45
3 333 130 332
3 333 4 130
3 334 335 2
3 336 335 334
3 336 72 335
3 161 336 71
3 337 336 161
3 337 72 336
3 337 225 72
3 338 225 337
3 338 10 225
3 265 162 9
3 339 162 265
3 339 73 162
3 164 339 34
3 340 339 164
3 340 73 339
3 340 338 73
3 341 338 340
3 341 10 338
3 341 301 10
3 342 301 341
3 342 53 301
3 166 342 74
3 343 342 166
3 343 53 342
3 343 138 53
3 344 138 343
3 344 5 138
3 344 345 5
3 346 345 344
3 346 76 345
3 168 346 75
3 347 346 168
3 347 76 346
3 347 244 76
3 348 244 347
3 348 795 797
3 797 796 244
3 795 796 797
3 269 169 11
3 349 169 269
3 349 77 169
3 171 349 36
3 350 349 171
3 350 77 349
3 350 348 77
3 798 348 799
3 800 799 350
3 798 799 800
3 802 801 348
3 351 803 804
3 351 805 807
3 805 13 806
3 805 806 807
3 273 173 12
3 352 173 273
3 352 78 173
3 175 352 38
3 353 352 175
3 353 78 352
3 353 351 78
3 354 351 353
3 354 13 351
3 354 808 810
3 810 809 13
3 808 809 810
3 812 811 354
3 814 813 79
3 355 356 3
3 357 356 355
3 357 81 356
3 178 357 80
3 358 357 178
3 358 81 357
3 358 250 81
3 359 250 358
3 359 16 250
3 278 179 15
3 360 179 278
3 360 82 179
3 181 360 41
3 361 360 181
3 361 82 360
3 361 359 82
3 362 359 361
3 362 16 359
3 362 317 16
3 363 317 362
3 363 62 317
3 183 363 83
3 364 363 183
3 364 62 363
3 364 148 62
3 365 148 364
3 365 6 148
3 815 85 816
3 817 85 818
3 819 217 820
3 821 820 85
3 819 820 821
3 366 822 824
3 822 217 823
3 822 823 824
3 366 18 217
3 825 366 826
3 367 827 829
3 827 366 828
3 827 828 829
3 367 18 366
3 367 296 18
3 368 296 367
3 368 50 296
3 185 830 832
3 830 368 831
3 830 831 832
3 369 368 185
3 369 50 368
3 369 135 50
3 833 135 834
3 835 834 369
3 833 834 835
3 836 2 837
3 838 837 135
3 836 837 838
3 839 2 840
3 841 334 842
3 843 842 2
3 841 842 843
3 370 844 846
3 844 334 845
3 844 845 846
3 370 71 334
3 186 847 849
3 847 370 848
3 847 848 849
3 371 370 186
3 371 71 370
3 371 160 71
3 372 160 371
3 372 9 160
3 850 86 851
3 373 852 853
3 373 854 856
3 854 86 855
3 854 855 856
3 373 372 86
3 374 372 373
3 374 9 372
3 374 264 9
3 375 264 374
3 375 33 264
3 188 375 87
3 376 375 188
3 376 33 375
3 376 120 33
3 377 120 376
3 377 1 120
3 377 378 1
3 379 378 377
3 379 89 378
3 190 379 88
3 380 379 190
3 380 89 379
3 380 246 89
3 381 246 380
3 381 19 246
3 857 191 858
3 382 859 861
3 859 191 860
3 859 860 861
3 382 90 191
3 862 382 863
3 864 382 865
3 866 90 867
3 868 867 382
3 866 867 868
3 869 381 870
3 871 870 90
3 869 870 871
3 383 872 874
3 872 381 873
3 872 873 874
3 383 19 381
3 383 314 19
3 384 314 383
3 384 875 877
3 877 876 314
3 875 876 877
3 878 384 879
3 880 384 881
3 883 882 384
3 385 386 0
3 387 386 385
3 387 92 386
3 193 387 91
3 388 387 193
3 388 92 387
3 388 252 92
3 389 252 388
3 389 21 252
3 282 194 20
3 390 194 282
3 390 93 194
3 196 390 43
3 391 390 196
3 391 93 390
3 391 389 93
3 392 389 391
3 392 21 389
3 392 321 21
3 393 321 392
3 393 64 321
3 198 393 94
3 394 393 198
3 394 64 393
3 394 151 64
3 395 151 394
3 395 884 886
3 886 885 151
3 884 885 886
3 887 22 888
3 889 22 890
3 891 199 892
3 893 892 22
3 891 892 893
3 396 894 896
3 894 199 895
3 894 895 896
3 396 95 199
3 897 396 898
3 397 899 901
3 899 396 900
3 899 900 901
3 397 95 396
3 397 395 95
3 398 395 397
3 398 902 904
3 904 903 395
3 902 903 904
3 398 905 906
3 908 907 398
3 909 61 910
3 399 911 912
3 399 913 915
3 913 61 914
3 913 914 915
3 399 145 61
3 400 145 399
3 400 3 145
3 401 916 917
3 401 918 920
3 918 44 919
3 918 919 920
3 203 401 67
3 402 401 203
3 402 44 401
3 402 286 44
3 403 286 402
3 403 23 286
3 288 204 7
3 404 204 288
3 404 97 204
3 206 404 46
3 405 404 206
3 405 97 404
3 405 403 97
3 406 403 405
3 406 23 403
3 406 201 23
3 407 201 406
3 407 96 201
3 208 407 98
3 408 407 208
3 408 96 407
3 408 400 96
3 409 400 408
3 409 3 400
3 409 355 3
3 410 355 409
3 410 80 355
3 210 410 99
3 411 410 210
3 411 80 410
3 411 177 80
3 412 177 411
3 412 15 177
3 292 211 24
3 413 211 292
3 413 100 211
3 213 413 48
3 414 413 213
3 414 100 413
3 414 412 100
3 415 412 414
3 415 15 412
3 415 277 15
3 416 277 415
3 416 40 277
3 215 416 101
3 417 416 215
3 417 40 416
3 417 127 40
3 418 127 417
3 418 0 127
3 419 921 922
3 419 923 925
3 923 32 924
3 923 924 925
3 218 419 85
3 420 419 218
3 420 32 419
3 420 263 32
3 421 263 420
3 421 8 263
3 297 219 18
3 422 219 297
3 422 103 219
3 221 422 51
3 423 422 221
3 423 103 422
3 423 421 103
3 424 421 423
3 424 8 421
3 424 159 8
3 425 159 424
3 425 70 159
3 223 425 104
3 426 425 223
3 426 70 425
3 426 333 70
3 427 333 426
3 427 4 333
3 335 137 2
3 428 137 335
3 428 52 137
3 226 428 72
3 429 428 226
3 429 52 428
3 429 300 52
3 430 300 429
3 430 26 300
3 302 227 10
3 431 227 302
3 431 106 227
3 229 431 54
3 432 431 229
3 432 106 431
3 432 430 106
3 433 430 432
3 433 26 430
3 433 224 26
3 434 224 433
3 434 105 224
3 231 434 107
3 435 434 231
3 435 105 434
3 435 427 105
3 436 427 435
3 436 4 427
3 436 134 4
3 437 134 436
3 437 49 134
3 233 437 108
3 438 437 233
3 438 49 437
3 438 295 49
3 439 295 438
3 439 25 295
3 306 234 27
3 440 234 306
3 440 109 234
3 236 440 56
3 441 440 236
3 441 109 440
3 441 439 109
3 442 439 441
3 442 25 439
3 442 216 25
3 443 216 442
3 443 102 216
3 238 443 110
3 444 443 238
3 444 102 443
3 444 418 102
3 445 418 444
3 445 0 418
3 445 385 0
3 446 385 445
3 446 91 385
3 240 446 111
3 447 446 240
3 447 91 446
3 447 192 91
3 448 192 447
3 448 20 192
3 310 241 28
3 449 241 310
3 449 112 241
3 243 449 58
3 450 449 243
3 450 112 449
3 450 448 112
3 451 448 450
3 451 20 448
3 451 926 928
3 928 927 20
3 926 927 928
3 930 929 451
3 932 931 113
3 345 144 5
3 452 144 345
3 452 59 144
3 245 452 76
3 453 452 245
3 453 59 452
3 453 313 59
3 454 313 453
3 454 29 313
3 933 454 934
3 935 454 936
3 937 29 938
3 939 938 454
3 937 938 939
3 941 940 29
3 943 942 13
3 455 944 945
3 455 946 947
3 455 948 949
3 951 950 455
3 378 126 1
3 456 126 378
3 456 39 126
3 247 456 89
3 457 456 247
3 457 39 456
3 457 276 39
3 458 276 457
3 458 14 276
3 315 248 19
3 459 248 315
3 459 114 248
3 249 459 60
3 460 459 249
3 460 114 459
3 460 458 114
3 461 458 460
3 461 14 458
3 461 952 954
3 954 953 14
3 952 953 954
3 956 955 461
3 958 957 115
3 356 147 3
3 462 147 356
3 462 959 961
3 961 960 147
3 959 960 961
3 962 462 963
3 964 963 81
3 962 963 964
3 965 462 966
3 968 967 462
3 318 251 16
3 463 251 318
3 463 969 971
3 971 970 251
3 969 970 971
3 972 463 973
3 974 973 63
3 972 973 974
3 975 463 976
3 978 977 463
3 386 129 0
3 464 129 386
3 464 42 129
3 253 464 92
3 465 464 253
3 465 42 464
3 465 281 42
3 466 281 465
3 466 17 281
3 322 254 21
3 467 254 322
3 467 116 254
3 256 467 65
3 468 467 256
3 468 116 467
3 468 466 116
3 469 466 468
3 469 17 466
3 469 184 17
3 470 184 469
3 470 84 184
3 258 470 117
3 471 470 258
3 471 84 470
3 471 365 84
3 472 365 471
3 472 6 365
3 979 153 980
3 981 153 982
3 983 66 984
3 985 984 153
3 983 984 985
3 473 986 987
3 473 988 990
3 988 66 989
3 988 989 990
3 473 325 66
3 991 325 992
3 993 992 473
3 991 992 993
3 994 30 995
3 996 995 325
3 994 995 996
3 474 997 998
3 474 999 1001
3 999 30 1000
3 999 1000 1001
3 474 259 30
3 475 259 474
3 475 118 259
3 1002 475 1003
3 476 1004 1006
3 1004 475 1005
3 1004 1005 1006
3 476 118 475
3 476 472 118
3 477 472 476
3 477 6 472
3 477 1007 1009
3 1009 1008 6
3 1007 1008 1009
3 1011 1010 477
