ply
format ascii 1.0
element vertex 1031
property float x
property float y
property float z
element face 1342
property list uchar int vertex_index
end_header
-2.518732 -36.854034 85.174385
26.127491 -37.882099 79.369202
6.842169 -20.283512 87.863907
0.244276 -6.560209 82.803253
21.809494 -25.920544 77.703697
7.276403 -39.232185 87.989426
1.928841 -28.353233 65.833199
18.178616 -53.479465 81.480354
4.372818 -56.422585 87.118919
15.858356 -14.677372 83.833817
10.290787 -7.31743 84.373138
13.700243 -24.430521 84.176292
0.533854 -45.019615 78.97171
3.38047 -41.620026 68.261215
-1.385149 -32.798794 75.856186
28.321741 -43.456738 75.62883
20.623325 -44.430649 81.431229
0.329411 -39.221603 89.858299
5.003653 -47.254166 90.485321
0.579529 -47.316475 87.757957
2.225525 -55.116833 81.77832
-0.418556 -27.919472 88.782555
-2.245325 -22.722704 83.696625
2.425772 -13.549232 87.134392
22.424137 -32.624474 76.771568
16.384811 -38.399025 83.443306
12.976614 -32.602272 81.969574
4.965395 -31.416882 87.585426
29.922634 -25.976713 71.371696
-1.435427 -17.521387 75.22155
1.029964 -12.588961 66.32
12.452198 -45.740738 86.873161
19.745098 -12.545425 81.100433
19.483566 -16.855143 82.852898
-1.419146 -41.100468 82.19104
-0.618658 -39.319019 77.148117
-2.34025 -34.932823 80.813881
27.473053 -40.581276 78.395256
24.59152 -43.941124 78.654922
23.071331 -40.878899 80.869461
-1.673006 -38.345165 88.353355
-0.048866 -43.291653 89.421875
-1.300272 -42.494034 86.483322
0.05167 -46.411976 83.857628
29.330784 -35.074776 76.705811
2.739534 -23.841343 88.848022
0.710598 -20.960861 88.189117
4.289873 -17.123022 88.010063
21.515581 -29.518311 76.319527
17.581911 -32.681232 79.138184
17.070717 -29.331982 79.40126
10.033068 -22.745264 86.562561
8.962721 -27.820431 85.806221
5.538565 -26.174503 88.013237
1.855806 -29.979401 89.010323
26.728201 -22.292784 76.623283
30.400969 -22.241596 73.209053
25.944431 -26.069271 74.425255
26.060244 -29.505713 73.664604
2.645782 -35.345467 66.642044
3.644299 -26.061476 61.259026
-1.140312 -14.751128 83.259972
-2.084654 -20.070324 79.662674
-1.272547 -11.873024 79.58651
-0.223736 -6.663473 71.205116
2.355394 -10.159456 62.170074
1.969002 -1.955137 62.624168
21.921888 -52.394897 78.952087
11.681091 -38.806812 85.741203
14.099585 -41.721596 85.72065
9.753593 -42.361477 88.117363
4.714169 -51.800701 89.450264
7.751764 -51.263889 88.876251
2.628468 -53.844887 77.358864
11.390308 -17.247711 86.126335
8.484232 -13.961405 86.576439
12.752039 -11.429911 84.222801
22.75729 -22.006939 79.863609
17.67498 -25.432322 81.066208
18.73027 -21.199251 82.715508
14.870875 -19.663092 84.86644
2.490606 -48.757187 75.711609
3.816372 -47.249786 70.375893
1.753569 -43.363972 73.650269
0.834612 -37.360783 71.857101
0.11776 -30.592783 70.763824
29.164598 -46.438511 72.148979
26.175505 -47.167068 75.650917
22.767311 -47.89254 78.712585
19.069284 -48.675446 81.545082
3.39744 -39.459644 89.596306
5.741959 -43.015503 89.964981
2.365828 -43.419659 90.572456
2.259863 -47.585098 90.074715
2.586542 -51.826485 88.169052
2.746439 -56.038506 85.196663
1.570154 -51.24876 85.108192
1.622076 -50.156853 80.764801
-2.23303 -32.360302 87.507278
-2.797518 -30.200508 84.264587
-1.758249 -25.41008 86.892784
-0.535023 -17.831114 86.227203
1.134918 -9.937715 85.371284
6.221287 -10.044644 86.411964
4.462816 -5.909849 85.690804
24.238029 -35.313622 78.390625
21.236736 -38.101711 81.343246
19.188843 -35.494217 80.270432
14.301031 -35.69104 82.516678
9.697006 -35.835228 85.070488
12.848686 -28.823334 82.721664
8.727449 -32.242161 84.991203
5.534178 -35.755024 87.510277
2.014812 -35.22963 89.116127
-0.631191 -34.096256 89.204781
30.592945 -29.277893 71.428734
27.389969 -32.467865 74.850685
-2.518164 -27.850916 80.002472
-1.624052 -25.469837 75.257912
-0.268726 -23.097549 70.442749
-0.977629 -9.194741 75.490417
-0.356415 -15.041361 70.70565
1.375185 -20.707771 65.81813
2.929865 -18.278969 61.535706
18.577988 -41.227303 83.261803
16.541794 -45.018311 84.167046
15.212624 -49.535141 84.31353
8.516542 -46.546989 89.201897
11.359909 -50.437668 86.923996
21.314213 -11.656565 79.681465
22.857235 -12.414726 79.385178
21.433544 -13.541163 80.827202
-2.118055 -39.019958 83.734833
-1.970209 -38.135902 81.437569
-2.542715 -35.932758 83.104073
26.881624 -39.207939 79.151115
25.292309 -40.732937 79.658226
24.553146 -39.330818 80.262817
-2.236853 -37.667336 86.948128
-1.646086 -40.444641 87.532669
-2.019556 -39.798965 85.792397
-1.490644 -41.860363 84.468704
27.735571 -36.480904 78.174606
28.546789 -37.75705 78.355904
29.166012 -39.06105 77.978035
4.702679 -21.994547 88.468643
3.452881 -20.537983 88.533966
5.479155 -18.777073 88.075188
21.528648 -27.773939 76.813354
19.272837 -29.455557 77.812523
19.380592 -27.648119 78.444908
8.366718 -21.611656 87.360374
7.711527 -24.413158 87.325577
6.128393 -23.293167 88.065132
4.050091 -25.089888 88.619156
24.287825 -24.139515 77.124985
26.278667 -24.207764 75.442513
23.887537 -26.028301 76.041389
23.690083 -27.835394 75.257385
2.27253 -31.937986 66.130173
3.559628 -34.324211 64.133041
3.192137 -30.854053 63.703255
2.832621 -27.215454 63.490662
-0.466644 -10.669547 83.043007
-1.259115 -13.284345 81.493233
-0.678848 -9.148891 81.382141
1.458942 -3.093626 64.73893
20.085932 -52.932503 80.239365
9.429066 -39.028198 86.901794
10.627853 -40.511208 87.070427
8.45997 -40.797413 88.176071
4.578653 -54.115047 88.422096
5.891794 -53.984745 88.542381
5.586824 -56.390335 87.424141
2.765162 -55.671124 75.556633
13.666742 -15.90729 85.043274
12.073997 -14.376546 85.336014
14.227829 -13.180529 84.076897
23.174473 -20.010746 80.663063
20.736065 -21.681501 81.357239
21.161057 -19.614363 81.936432
17.619455 -15.9025 83.441154
17.244808 -18.230545 83.91304
15.399301 -17.193071 84.579628
13.069784 -18.569725 85.608635
25.421875 -18.310133 79.831558
25.182476 -20.24958 79.244728
1.570671 -46.89933 77.344696
2.175428 -46.119659 74.687386
1.070763 -44.211399 76.338226
-1.067102 -36.166679 76.416275
0.043213 -38.351799 74.50959
-0.37499 -35.128204 73.813545
0.437153 -34.073975 71.21064
-0.689178 -31.700279 73.304832
28.712738 -44.939354 73.90947
27.729721 -46.808151 73.96608
27.080193 -45.249031 75.601524
22.628189 -44.178223 80.058792
23.534988 -45.839645 78.672279
21.658875 -46.145138 80.109016
20.946453 -48.274559 80.143944
19.7351 -46.469574 81.51799
1.743849 -39.41362 89.932739
2.747295 -41.407906 90.255859
1.236917 -41.408066 90.251717
0.174103 -45.315269 88.732544
1.055355 -45.482201 89.85891
1.275251 -47.533016 89.145103
2.408415 -49.704136 89.279755
1.598173 -49.578018 88.123085
1.936117 -51.611496 86.835953
1.076515 -49.293091 86.536133
0.181921 -45.76292 81.499596
0.862574 -48.297455 82.356346
1.119276 -47.634338 79.919403
1.975117 -49.481388 78.295975
29.858852 -41.773479 75.651962
-1.51185 -30.11149 88.294525
-2.109541 -28.986881 87.188698
-1.204657 -26.704411 88.02861
1.51265 -17.295248 87.720978
-0.003916 -19.40624 87.352951
0.810041 -15.59822 86.894867
0.261292 -13.90844 85.823883
1.72035 -11.726894 86.358177
9.372383 -10.673745 85.556549
7.276464 -12.058115 86.562325
8.257723 -8.586701 85.533691
23.265629 -34.005203 77.539459
21.700129 -35.402733 79.292023
20.753967 -34.076252 78.515686
15.242311 -32.666195 80.504395
15.858736 -34.192505 80.798576
13.503807 -34.222866 82.106544
11.954687 -35.778481 83.772316
11.231539 -34.213116 83.493111
15.658528 -25.007088 82.681458
15.195067 -27.127552 81.813873
13.189638 -26.688686 83.449142
6.850166 -29.591379 86.69532
8.706999 -30.129425 85.325607
6.776217 -31.898872 86.38961
7.005733 -33.981144 86.258255
5.092426 -33.707691 87.462578
3.679726 -35.561081 88.466164
3.343334 -33.297142 88.415733
0.604519 -29.020462 89.114891
0.442701 -32.00753 89.228249
-0.660688 -31.127787 88.984512
-1.567553 -33.295578 88.574806
30.057627 -24.148506 72.119736
30.091436 -27.692707 71.126503
24.197025 -31.108351 75.130348
26.592993 -31.044586 74.058426
24.898573 -32.562931 75.76368
25.801462 -33.919346 76.65036
3.661053 -44.505241 69.28907
4.435835 -43.690147 66.613441
-2.608782 -26.54401 83.951752
-2.74774 -29.036705 82.225349
-2.564554 -25.285385 81.952271
-1.816114 -18.783838 77.469437
-2.028101 -22.787018 77.512863
-1.573378 -21.558311 75.183624
-0.996155 -24.283638 72.839493
-1.008831 -20.339914 72.841377
-0.805332 -6.30378 77.651207
0.28727 -9.645607 68.775436
-0.311541 -10.875978 70.952774
0.314854 -13.812732 68.488457
0.395056 -17.91102 68.243324
1.175873 -16.692451 66.029686
2.197174 -19.498356 63.626801
1.940985 -15.469996 63.891586
2.825466 -8.95323 60.207581
3.139957 -13.018445 59.886093
18.799332 -38.235703 82.367119
19.846668 -39.597401 82.440338
17.497845 -39.772419 83.559982
13.193846 -43.63736 86.440025
15.3242 -43.312752 85.136169
14.490082 -45.363171 85.536087
15.799628 -47.194614 84.320045
13.818329 -47.596634 85.703918
5.288498 -45.082809 90.423615
7.106737 -44.747978 89.776505
6.686399 -46.929428 90.020737
9.10129 -53.379128 87.542236
9.506516 -50.87191 88.027176
10.909624 -52.957596 86.57605
12.796728 -52.492332 85.422707
2.353502 -55.635353 83.64534
17.904018 -13.556126 82.509621
16.265255 -12.115435 82.684761
18.144735 -11.18627 81.193871
21.424536 -17.552452 82.046425
21.503609 -15.518735 81.655167
19.65678 -14.68996 82.187347
-0.501385 -43.094978 80.592255
-0.067806 -42.261711 78.019882
-1.117239 -40.243649 79.727722
-1.609007 -37.176064 78.975868
-1.944334 -33.881065 78.376663
27.932449 -42.000477 77.175598
26.496252 -43.706024 77.18895
25.922247 -42.195232 78.592072
23.852737 -42.378799 79.934662
21.744152 -42.569702 81.236862
-0.815891 -38.866585 89.333305
-0.013865 -41.255096 89.799248
-0.978958 -40.934246 88.885498
-0.823709 -42.976532 88.15696
-0.410807 -44.978931 87.173195
0.175877 -46.937836 85.97049
-0.70409 -44.482162 85.244743
-0.724707 -43.845081 83.024658
30.880041 -33.618069 75.024422
29.589426 -40.400299 77.045212
1.013977 -25.820862 88.9627
0.053459 -24.515331 88.534798
1.623762 -22.453171 88.698212
2.389654 -18.957211 88.276443
3.275599 -15.36404 87.689896
21.818264 -31.135448 76.315659
19.980629 -32.664013 77.892929
19.47057 -31.129374 77.623329
17.168598 -31.082672 79.05217
14.927119 -30.980171 80.585243
11.818371 -23.681984 85.488304
11.262527 -26.101665 84.960724
9.43012 -25.347668 86.274788
7.183455 -27.084213 87.057701
5.130508 -28.895035 87.809486
3.317192 -30.779594 88.484459
3.569704 -28.031254 88.589897
2.190678 -27.001751 88.982491
29.036715 -20.368149 76.095001
28.615795 -22.30048 74.930168
28.208483 -24.208113 73.770531
27.960827 -26.052505 72.866814
27.984627 -27.799648 72.412979
25.847191 -27.843636 73.789429
23.783106 -29.533615 74.936302
3.026581 -38.57135 67.361961
4.218014 -40.738014 65.620598
-1.744204 -18.779253 83.47258
-2.233183 -21.384396 81.755653
-1.787409 -17.372625 81.610092
-1.71163 -16.007421 79.605095
-1.525663 -14.682049 77.50116
0.934324 -8.43184 66.626671
1.733059 -11.37089 64.210777
1.57369 -7.23516 64.516434
2.13842 -6.054155 62.454491
2.560879 -4.883133 60.451279
2.34906 -0.828014 60.55098
14.006601 -38.591888 84.574165
15.168248 -39.985161 84.71608
12.872063 -40.234451 85.897636
11.899948 -42.028015 86.949196
11.095837 -43.996239 87.695511
4.833925 -49.503807 90.152245
6.383398 -49.21973 89.881256
6.139299 -51.583813 89.376663
7.413837 -53.730824 88.22715
2.331444 -54.510254 79.662094
2.444996 -56.36977 77.82666
9.09342 -18.703861 87.072868
7.636255 -17.168209 87.363564
9.856501 -15.704037 86.439621
10.640621 -12.620181 85.4963
11.442408 -9.459444 84.314194
14.767828 -10.388827 82.786156
13.432512 -8.411742 82.871552
22.260727 -23.987247 78.800255
19.731688 -25.729061 79.390434
20.223354 -23.729399 80.43985
18.200367 -23.341778 82.003326
16.21447 -22.799833 83.441261
19.174755 -19.03039 83.029037
16.766577 -20.534098 83.896446
14.2875 -22.080555 84.702393
12.442095 -21.164728 85.743202
10.702526 -20.03986 86.536026
27.149038 -20.359837 77.714188
24.765026 -22.202255 78.274956
3.188578 -50.605412 74.064911
3.800932 -49.883743 71.439941
3.121357 -48.007835 73.058914
2.888775 -45.316986 71.990646
2.539742 -42.496468 70.947357
0.540657 -41.373436 75.368134
1.28738 -40.453133 72.684631
2.132023 -39.516483 70.006065
1.717724 -36.357262 69.225273
1.334627 -33.010345 68.640633
1.004625 -29.477825 68.264893
28.471428 -48.369316 72.37114
27.100163 -48.788536 74.165138
25.598139 -49.210217 75.822693
25.348011 -45.544682 77.179802
24.515867 -47.525555 77.224396
23.977859 -49.640976 77.362244
22.255463 -50.085659 78.808464
20.448788 -50.546532 80.189888
18.576929 -51.023006 81.533997
5.254108 -39.387711 88.918884
6.399061 -41.065872 89.135803
4.48147 -41.281998 89.858994
3.953123 -43.268112 90.465103
3.645273 -45.340858 90.690918
1.020853 -43.435642 90.231918
2.221357 -45.48436 90.513428
3.513821 -47.484035 90.518761
3.495922 -49.674194 89.960327
3.518936 -51.887482 89.050156
3.51236 -54.103119 87.835838
3.420059 -56.304947 86.37001
2.71875 -53.940693 86.791451
2.208426 -53.631165 85.329315
1.974806 -53.189056 83.511833
0.838026 -48.859406 84.587646
1.474682 -50.755539 83.058968
1.995312 -52.637508 81.410866
2.234669 -52.004501 79.096642
2.648886 -51.31868 76.631004
-2.566786 -34.62236 86.451233
-2.776079 -33.648945 84.664864
-2.635836 -31.318253 86.049118
-2.467081 -27.786915 85.719727
-2.09651 -24.072323 85.428917
-0.688 -23.120964 87.726608
-1.220194 -21.677006 86.580597
-1.563547 -20.220119 85.145798
-0.905602 -16.271053 84.850296
-0.15733 -12.258762 84.531952
0.64752 -8.210383 84.182541
6.344622 -15.459678 87.428413
5.220434 -13.619225 87.289124
4.252686 -11.697357 86.961189
5.293982 -7.977202 86.125519
3.419678 -9.747101 86.450478
2.694386 -7.816401 85.754768
2.051514 -5.942226 84.868431
25.225338 -36.592873 79.072311
23.684353 -37.989143 80.353493
22.710352 -36.691383 79.979279
20.20734 -36.796509 80.927254
17.730053 -36.918934 81.940712
18.280376 -34.139774 79.599052
16.717743 -35.592041 81.344025
15.291819 -37.060387 83.031967
12.907627 -37.214493 84.195648
10.595459 -37.367325 85.403702
8.376982 -37.497765 86.603043
17.263828 -27.439856 80.126015
14.924575 -29.128487 81.054619
12.760427 -30.801998 82.185066
10.856647 -28.394299 84.332848
10.682343 -30.525957 83.791702
10.799845 -32.46867 83.488297
9.059195 -34.140961 84.903252
7.548897 -35.836792 86.345467
6.277842 -37.5783 87.717285
4.32757 -37.577309 88.653954
2.558781 -37.46294 89.316086
1.005121 -37.208076 89.616859
1.784714 -32.732613 89.026855
0.569067 -34.743301 89.379608
-0.302263 -36.795105 89.493217
-1.339396 -36.219048 88.91526
-2.093653 -35.488167 87.888474
31.383955 -30.732498 72.191109
28.333731 -29.426964 72.498772
28.99301 -30.928173 73.084961
29.883087 -32.316006 74.009247
28.345932 -33.799858 75.822029
26.787699 -35.212494 77.539215
-2.749285 -32.597755 82.602142
-2.518896 -31.496574 80.33786
-2.116167 -30.367664 77.941696
-2.363405 -24.029873 79.786255
-2.136602 -26.659311 77.661148
-1.56735 -29.225916 75.474205
-0.893875 -28.078827 72.985214
-0.116625 -26.927849 70.514069
0.737217 -25.770618 68.090828
-0.794727 -7.695665 79.57592
-1.180845 -10.512376 77.574905
-1.230207 -13.389866 75.337273
-0.657274 -7.913188 73.360085
-0.823837 -12.123141 73.146072
-0.946371 -16.276134 72.9571
-0.345671 -19.125895 70.519691
0.534533 -21.906897 68.095451
1.627377 -24.603373 65.738686
2.497108 -23.422962 63.476822
3.275188 -22.227978 61.323357
3.88372 -21.01878 59.296745
2.620501 -14.245018 61.840065
3.496716 -17.050987 59.559013
22.20269 -39.45433 81.348763
20.82863 -41.038826 82.061974
19.611927 -42.782639 82.527641
16.330885 -41.453667 84.482712
17.46814 -43.028221 83.82621
18.590538 -44.708443 82.796608
17.777386 -46.818535 82.919624
17.151989 -49.096298 82.934303
16.660904 -51.511456 82.859077
7.689091 -42.700844 89.152
9.055773 -44.37468 88.836082
10.45097 -46.141518 88.121628
8.099384 -48.855499 89.210632
9.936916 -48.445061 88.227898
11.854837 -48.018055 87.029381
13.272943 -49.986053 85.660378
14.724787 -52.004917 84.164536
21.330589 -10.737327 78.949967
21.889387 -11.305397 79.07201
21.889387 -11.305397 79.07201
22.085724 -12.035646 79.533321
22.660897 -11.684477 78.923867
22.660897 -11.684477 78.923867
23.340764 -11.762559 78.584641
18.967577 -54.440392 80.869862
19.921235 -54.166911 80.249367
19.132274 -53.205984 80.859859
17.98003 -54.745103 81.421097
18.967577 -54.440392 80.869862
4.780668 -57.599655 86.595089
5.387671 -57.58353 86.7477
4.979821 -56.40646 87.27153
4.217718 -57.564224 86.355961
4.780668 -57.599655 86.595089
22.28804 -18.819899 81.483017
22.167765 -19.812555 81.299747
23.294747 -19.01809 80.846332
24.418449 -18.167783 80.43058
25.414238 -17.358145 79.876545
23.294747 -19.01809 80.846332
24.298174 -19.16044 80.24731
24.418449 -18.167783 80.43058
29.183747 -43.316168 74.787128
29.952303 -42.474539 74.798694
29.090297 -42.615109 75.640396
28.51724 -44.198046 74.76915
29.379246 -44.057476 73.927448
29.183747 -43.316168 74.787128
30.869196 -25.002031 70.934722
30.936692 -24.087927 71.308742
29.99013 -25.06261 71.745716
30.873229 -25.90343 70.657246
30.869196 -25.002031 70.934722
30.007035 -26.83471 71.249099
30.95763 -26.761427 70.534649
30.873229 -25.90343 70.657246
3.129144 -10.370874 59.12373
2.953324 -8.349761 59.269902
10.675837 -54.24593 86.291668
10.005457 -53.168362 87.059143
9.77167 -54.456696 86.774761
11.616215 -54.015162 85.790554
10.675837 -54.24593 86.291668
2.280807 -56.368576 81.799118
2.344796 -56.627836 82.732628
2.289513 -55.376093 82.71183
22.362879 -14.852256 80.974152
22.466237 -15.796599 81.27372
30.587203 -34.971809 76.280891
31.361832 -34.243456 75.440197
30.105412 -34.346423 75.865116
3.279017 -36.482109 65.710732
3.469417 -38.095051 66.07069
2.836182 -36.958409 67.002003
4.13949 -35.489639 63.210171
3.973812 -33.80678 62.929199
4.16322 -27.348895 60.230301
3.832963 -27.908021 61.321824
3.964737 -25.475682 60.210183
4.16322 -27.348895 60.230301
0.908162 -6.343292 66.754463
0.618433 -6.937977 67.83413
1.227845 -5.744953 65.699345
1.254007 -7.8335 65.571552
0.908162 -6.343292 66.754463
22.69031 -53.294118 78.404221
22.791915 -52.133331 78.270077
7.222103 -54.974396 87.764328
6.652815 -53.857784 88.384766
6.461082 -55.101356 87.921943
8.038586 -54.827679 87.515038
7.222103 -54.974396 87.764328
2.548665 -56.937862 75.736748
2.705299 -56.569744 74.626781
15.7105 -9.944433 82.003777
15.516541 -11.252131 82.735458
16.459214 -10.807737 81.953079
13.776638 -6.870629 82.118687
14.369476 -7.971343 82.068016
12.846032 -7.32204 82.92149
13.776638 -6.870629 82.118687
27.277158 -19.400204 78.099716
28.235399 -19.403576 77.365059
28.818013 -47.403914 72.260059
29.088887 -48.157446 71.400509
29.435473 -47.192043 71.289428
29.818615 -46.243444 71.167793
29.696787 -45.520144 72.115097
29.435473 -47.192043 71.289428
29.818615 -46.243444 71.167793
4.878399 -6.943525 85.908162
5.831492 -6.100239 85.668568
5.415909 -5.066562 85.451211
2.513203 -3.941917 84.586331
2.874282 -4.914846 84.978993
1.763063 -5.045139 84.328087
2.513203 -3.941917 84.586331
31.422824 -21.203782 72.925449
30.605874 -21.269588 73.805222
31.71133 -29.154404 70.934887
31.377632 -28.389976 70.677151
30.98845 -30.005195 71.809922
32.106836 -29.881706 71.316074
31.71133 -29.154404 70.934887
4.123435 -48.207285 69.583916
4.115715 -49.524263 70.11594
3.808652 -48.566765 70.907917
4.683777 -41.804245 64.808033
4.601695 -40.292919 64.338223
-0.549678 -5.598203 79.55547
-0.435641 -6.343494 80.412037
-0.440505 -7.28833 72.282601
-0.560495 -5.795573 73.451797
-0.343726 -5.170716 72.374313
3.66218 -16.432973 58.634502
3.318337 -15.034716 59.722553
3.483801 -14.416702 58.798042
3.873355 -18.423696 58.486923
3.66218 -16.432973 58.634502
14.494445 -53.284294 84.022366
13.760758 -52.248624 84.793622
13.530416 -53.528002 84.651452
15.476207 -53.016077 83.429615
14.494445 -53.284294 84.022366
2.977483 -57.259996 84.950108
3.314293 -57.393217 85.536781
3.083249 -56.171726 85.783336
20.576594 -11.031871 79.674675
19.792036 -11.476301 80.384159
20.529655 -12.100995 80.390949
20.576594 -11.031871 79.674675
21.330589 -10.737327 78.949967
22.14539 -12.977944 80.10619
22.327846 -13.863471 80.56017
23.039692 -13.300252 79.839157
23.713967 -12.59714 79.056873
23.340764 -11.762559 78.584641
23.039692 -13.300252 79.839157
23.713967 -12.59714 79.056873
28.977333 -36.404152 77.712741
29.77494 -35.701088 76.978344
28.533178 -35.77784 77.440208
29.382942 -37.042225 77.803391
28.977333 -36.404152 77.712741
28.14118 -37.118977 78.265255
29.73174 -37.670969 77.816437
29.382942 -37.042225 77.803391
28.8564 -38.40905 78.166969
30.041351 -38.322969 77.627503
29.73174 -37.670969 77.816437
3.790066 -32.071701 62.714306
3.973812 -33.80678 62.929199
3.375882 -32.589132 63.918148
3.606882 -30.30431 62.543938
3.790066 -32.071701 62.714306
3.427124 -28.48501 62.437641
3.606882 -30.30431 62.543938
3.012379 -29.034754 63.596958
3.23846 -26.638465 62.374844
3.832963 -27.908021 61.321824
3.427124 -28.48501 62.437641
1.160955 -1.589837 65.879738
1.170471 -3.674186 65.810593
1.420171 -1.031652 64.776581
1.160955 -1.589837 65.879738
1.675202 -0.462408 63.7192
1.713972 -2.524382 63.681549
1.420171 -1.031652 64.776581
1.905771 0.082695 62.621906
1.675202 -0.462408 63.7192
20.872718 -53.862391 79.670857
21.790696 -53.593587 79.027218
21.00391 -52.6637 79.595726
20.872718 -53.862391 79.670857
19.921235 -54.166911 80.249367
6.308597 -56.304152 87.362824
6.461082 -55.101356 87.921943
5.739309 -55.18754 87.983261
6.07434 -57.542839 86.783085
6.308597 -56.304152 87.362824
6.07434 -57.542839 86.783085
5.387671 -57.58353 86.7477
2.915673 -54.409554 75.239395
2.696815 -54.758005 76.457749
2.847326 -53.496436 76.140511
2.978024 -55.314865 74.362797
2.915673 -54.409554 75.239395
2.705299 -56.569744 74.626781
2.978024 -55.314865 74.362797
26.408943 -17.434164 79.306339
25.414238 -17.358145 79.876545
26.413576 -18.375352 79.158401
26.408943 -17.434164 79.306339
25.302176 -19.279857 79.538143
26.293877 -19.345076 78.864987
26.413576 -18.375352 79.158401
30.767149 -41.633392 74.822105
30.735876 -40.96929 75.613327
30.767149 -41.633392 74.822105
29.952303 -42.474539 74.798694
29.470857 -44.770565 72.995342
29.379246 -44.057476 73.927448
28.938668 -45.688932 73.029224
29.696787 -45.520144 72.115097
29.470857 -44.770565 72.995342
4.991015 -3.983643 85.277462
5.415909 -5.066562 85.451211
4.079933 -4.898658 85.390179
4.991015 -3.983643 85.277462
31.061902 -23.136623 71.794536
31.233573 -22.183169 72.339195
30.229298 -23.195051 72.664395
31.061902 -23.136623 71.794536
30.936692 -24.087927 71.308742
31.126877 -27.597383 70.526036
30.95763 -26.761427 70.534649
30.342191 -28.4853 71.277619
31.377632 -28.389976 70.677151
31.126877 -27.597383 70.526036
4.090601 -45.498243 68.492416
4.16826 -46.870515 69.035828
3.738713 -45.877513 69.832482
4.477992 -45.090696 67.154602
4.090601 -45.498243 68.492416
4.048444 -44.097694 67.951256
4.8042 -44.711479 65.832538
4.477992 -45.090696 67.154602
-0.613606 -4.193259 77.667084
-0.55498 -4.90226 78.593113
-0.751561 -5.635025 76.642155
-0.613606 -4.193259 77.667084
-0.837709 -7.080505 75.561759
-0.891481 -7.749261 76.570812
-0.751561 -5.635025 76.642155
3.286389 -12.403482 58.962986
2.982711 -10.985837 60.046837
3.129144 -10.370874 59.12373
3.483801 -14.416702 58.798042
3.286389 -12.403482 58.962986
12.559767 -53.782529 85.213883
11.853176 -52.724964 85.999379
11.616215 -54.015162 85.790554
13.530416 -53.528002 84.651452
12.559767 -53.782529 85.213883
2.494535 -56.874275 83.537575
2.691003 -57.075851 84.313237
2.549971 -55.836929 84.421002
2.494535 -56.874275 83.537575
2.344796 -56.627836 82.732628
17.398954 -10.343155 81.207634
16.459214 -10.807737 81.953079
17.204995 -11.650852 81.939316
18.991855 -10.796723 80.430878
18.944916 -11.865848 81.147152
19.792036 -11.476301 80.384159
18.269461 -9.97884 80.387485
18.991855 -10.796723 80.430878
17.398954 -10.343155 81.207634
18.269461 -9.97884 80.387485
22.4267 -16.813457 81.469349
22.419779 -17.788943 81.538014
21.464073 -16.535593 81.850796
22.4267 -16.813457 81.469349
22.466237 -15.796599 81.27372
21.468577 -14.529949 81.241185
22.362879 -14.852256 80.974152
22.327846 -13.863471 80.56017
32.130061 -33.47936 74.624664
31.620061 -32.847037 74.118515
32.130061 -33.47936 74.624664
31.361832 -34.243456 75.440197
30.587203 -34.971809 76.280891
29.77494 -35.701088 76.978344
30.272131 -38.961674 77.342831
30.041351 -38.322969 77.627503
30.483838 -39.631298 76.876419
30.272131 -38.961674 77.342831
29.377719 -39.730674 77.511624
30.601163 -40.282699 76.309952
30.483838 -39.631298 76.876419
29.724139 -41.086889 76.348587
30.735876 -40.96929 75.613327
30.601163 -40.282699 76.309952
9.779892 -6.189906 84.385098
10.757651 -5.613331 83.729332
29.923747 -20.332864 75.248196
30.082741 -19.363236 75.766396
29.713286 -21.299029 74.665779
29.923747 -20.332864 75.248196
28.826255 -21.334314 75.512585
29.508382 -22.271038 74.06961
30.605874 -21.269588 73.805222
29.713286 -21.299029 74.665779
4.065133 -39.178383 65.200008
3.622298 -39.654682 66.491279
3.469417 -38.095051 66.07069
4.601695 -40.292919 64.338223
4.065133 -39.178383 65.200008
3.73594 -35.971481 64.45623
3.279017 -36.482109 65.710732
3.102705 -34.834839 65.387542
3.73594 -35.971481 64.45623
4.13949 -35.489639 63.210171
-0.165625 -4.549831 71.303024
-0.343726 -5.170716 72.374313
0.039403 -6.053793 70.123352
-0.165625 -4.549831 71.303024
0.294906 -7.544861 68.908512
0.031767 -8.15454 69.990276
0.039403 -6.053793 70.123352
0.610797 -9.038723 67.701054
0.294906 -7.544861 68.908512
0.618433 -6.937977 67.83413
1.516316 -5.164393 64.627682
1.227845 -5.744953 65.699345
1.170471 -3.674186 65.810593
2.82103 -6.314713 59.391751
2.953324 -8.349761 59.269902
2.693173 -6.918181 60.32943
2.672427 -4.296901 59.483776
2.82103 -6.314713 59.391751
2.566518 -2.269342 59.533626
2.672427 -4.296901 59.483776
2.454969 -2.855574 60.50113
2.448053 -0.261458 59.540799
2.566518 -2.269342 59.533626
2.0958 0.646257 61.585312
2.159031 -1.391576 61.587574
1.905771 0.082695 62.621906
2.268522 1.186866 60.502282
2.0958 0.646257 61.585312
2.448053 -0.261458 59.540799
2.268522 1.186866 60.502282
22.69031 -53.294118 78.404221
21.790696 -53.593587 79.027218
8.882313 -54.651831 87.172581
8.257563 -53.554976 87.884693
8.038586 -54.827679 87.515038
9.77167 -54.456696 86.774761
8.882313 -54.651831 87.172581
2.308496 -55.769749 79.797264
2.255536 -56.073038 80.855377
2.278485 -54.813544 80.720207
2.365272 -56.699506 78.879547
2.308496 -55.769749 79.797264
2.38822 -55.440012 78.744377
2.296959 -57.643774 77.910443
2.365272 -56.699506 78.879547
2.388581 -57.287185 76.871761
2.605079 -56.020447 76.691647
2.548665 -56.937862 75.736748
2.296959 -57.643774 77.910443
2.388581 -57.287185 76.871761
15.037133 -8.959886 82.025318
15.7105 -9.944433 82.003777
14.10017 -9.400284 82.828854
15.037133 -8.959886 82.025318
14.369476 -7.971343 82.068016
11.85098 -7.845891 83.642811
12.43746 -8.935593 83.592873
12.846032 -7.32204 82.92149
11.27517 -6.774884 83.672283
10.866598 -8.388437 84.343666
11.85098 -7.845891 83.642811
10.757651 -5.613331 83.729332
11.27517 -6.774884 83.672283
21.292797 -18.583407 81.991428
22.28804 -18.819899 81.483017
22.419779 -17.788943 81.538014
29.179237 -19.407732 76.555465
30.082741 -19.363236 75.766396
28.092877 -20.363993 76.904595
29.179237 -19.407732 76.555465
28.235399 -19.403576 77.365059
26.165757 -20.304709 78.479458
27.277158 -19.400204 78.099716
26.293877 -19.345076 78.864987
3.494755 -50.244578 72.752426
3.695479 -51.162647 71.918296
3.389302 -51.523482 73.230782
0.083861 -5.775766 82.025703
0.602237 -4.502339 82.658733
28.882335 -49.144777 71.608486
29.088887 -48.157446 71.400509
28.290356 -49.381042 72.564114
28.882335 -49.144777 71.608486
27.604723 -49.590653 73.461113
28.290356 -49.381042 72.564114
27.785795 -48.578926 73.268139
26.935727 -49.830742 74.338256
27.604723 -49.590653 73.461113
26.184715 -50.041583 75.167034
26.935727 -49.830742 74.338256
26.349151 -48.999376 74.993915
25.441305 -50.287533 75.969448
26.184715 -50.041583 75.167034
24.631164 -50.502913 76.739224
25.441305 -50.287533 75.969448
24.787999 -49.425596 76.592468
23.8199 -50.756371 77.475155
24.631164 -50.502913 76.739224
22.958703 -50.978712 78.198265
23.8199 -50.756371 77.475155
23.116661 -49.863318 78.085354
22.088676 -51.240278 78.880276
22.791915 -52.133331 78.270077
22.958703 -50.978712 78.198265
2.857534 -52.233332 75.77658
2.847326 -53.496436 76.140511
2.638677 -52.581784 76.994934
3.127381 -51.876698 74.493534
2.857534 -52.233332 75.77658
2.918732 -50.962046 75.347958
3.389302 -51.523482 73.230782
3.127381 -51.876698 74.493534
8.76336 -6.824541 84.965374
9.274255 -7.952065 84.953415
9.779892 -6.189906 84.385098
7.763402 -7.501834 85.479443
8.76336 -6.824541 84.965374
6.745184 -8.230806 85.918579
7.239505 -9.315672 85.972827
7.763402 -7.501834 85.479443
6.281531 -7.197085 85.775357
5.831492 -6.100239 85.668568
5.757634 -9.010923 86.268742
6.745184 -8.230806 85.918579
6.281531 -7.197085 85.775357
3.195718 -5.851934 85.422161
3.578601 -6.863125 85.722786
4.079933 -4.898658 85.390179
2.37295 -6.879314 85.311599
3.195718 -5.851934 85.422161
2.874282 -4.914846 84.978993
1.061066 -6.179218 83.985142
1.349517 -7.076304 84.525486
1.763063 -5.045139 84.328087
0.859444 -5.354131 83.295498
0.445898 -7.385296 83.492897
1.061066 -6.179218 83.985142
0.602237 -4.502339 82.658733
0.859444 -5.354131 83.295498
31.422824 -21.203782 72.925449
31.233573 -22.183169 72.339195
32.567939 -30.579282 71.772732
32.106836 -29.881706 71.316074
31.872018 -31.404251 72.701859
32.567939 -30.579282 71.772732
31.121584 -32.196005 73.610928
31.872018 -31.404251 72.701859
30.633521 -31.524252 73.100178
30.381564 -32.967038 74.516835
31.620061 -32.847037 74.118515
31.121584 -32.196005 73.610928
3.972367 -50.812016 70.630295
3.695479 -51.162647 71.918296
3.972367 -50.812016 70.630295
4.115715 -49.524263 70.11594
4.123435 -48.207285 69.583916
4.16826 -46.870515 69.035828
4.792687 -43.280311 65.304454
4.326925 -42.214081 66.117019
4.683777 -41.804245 64.808033
4.8042 -44.711479 65.832538
4.792687 -43.280311 65.304454
-0.377702 -7.070107 81.315147
-0.217286 -7.85455 82.092697
0.083861 -5.775766 82.025703
-0.736787 -8.422278 80.47903
-0.377702 -7.070107 81.315147
-0.435641 -6.343494 80.412037
-0.800029 -6.999722 78.613563
-0.549678 -5.598203 79.55547
-0.55498 -4.90226 78.593113
-0.677532 -6.439728 74.496593
-0.560495 -5.795573 73.451797
-0.817451 -8.553964 74.425251
-0.837709 -7.080505 75.561759
-0.677532 -6.439728 74.496593
3.780181 -23.558934 60.242348
3.964737 -25.475682 60.210183
3.459744 -24.144727 61.291191
4.084447 -22.954335 59.229042
3.780181 -23.558934 60.242348
3.579454 -21.623379 60.310051
4.282252 -22.359821 58.258778
4.084447 -22.954335 59.229042
4.066857 -20.407593 58.355789
3.690218 -19.034883 59.427879
3.873355 -18.423696 58.486923
4.282252 -22.359821 58.258778
4.066857 -20.407593 58.355789
16.444266 -52.769346 82.776886
15.692845 -51.758187 83.511807
15.476207 -53.016077 83.429615
17.203122 -53.753351 82.087525
17.41976 -52.495461 82.169715
16.444266 -52.769346 82.776886
17.98003 -54.745103 81.421097
17.203122 -53.753351 82.087525
3.741338 -57.505405 85.981506
4.217718 -57.564224 86.355961
3.896438 -56.363766 86.744464
3.741338 -57.505405 85.981506
3.314293 -57.393217 85.536781
2.977483 -57.259996 84.950108
2.691003 -57.075851 84.313237
2.280807 -56.368576 81.799118
2.255536 -56.073038 80.855377
3 520 519 129
3 521 129 522
3 523 522 130
3 521 522 523
3 524 130 525
3 0 134 132
3 1 137 135
3 0 140 138
3 0 132 140
3 1 143 142
3 1 135 143
3 2 147 145
3 4 150 148
3 2 153 151
3 2 145 153
3 4 157 155
3 4 148 157
3 6 161 159
3 6 162 161
3 3 165 163
3 7 526 528
3 528 527 167
3 526 527 528
3 7 529 530
3 5 170 168
3 8 173 171
3 8 531 533
3 533 532 173
3 531 532 533
3 8 534 535
3 9 177 175
3 536 180 537
3 538 537 178
3 536 537 538
3 9 183 181
3 9 175 183
3 539 185 540
3 541 178 542
3 543 542 185
3 541 542 543
3 12 189 187
3 14 192 190
3 14 194 192
3 15 197 195
3 16 200 198
3 16 202 200
3 17 205 203
3 19 208 206
3 19 210 208
3 19 212 210
3 12 215 213
3 12 187 215
3 15 544 546
3 546 545 217
3 544 545 546
3 15 547 549
3 547 195 548
3 547 548 549
3 21 220 218
3 23 223 221
3 23 225 223
3 10 228 226
3 24 231 229
3 26 234 232
3 26 236 234
3 11 239 237
3 27 242 240
3 27 244 242
3 27 246 244
3 21 249 247
3 21 218 249
3 28 550 552
3 552 551 251
3 550 551 552
3 28 553 554
3 28 555 557
3 555 252 556
3 555 556 557
3 24 255 253
3 24 229 255
3 13 258 257
3 22 261 259
3 29 264 262
3 29 266 264
3 30 270 268
3 30 272 270
3 30 274 272
3 559 558 275
3 25 279 277
3 31 282 280
3 31 284 282
3 18 287 285
3 560 290 561
3 562 561 288
3 560 561 562
3 564 563 290
3 20 565 567
3 567 566 292
3 565 566 567
3 32 295 293
3 568 297 569
3 32 298 131
3 32 293 298
3 34 301 299
3 36 302 133
3 36 303 302
3 37 306 304
3 39 307 136
3 39 308 307
3 40 311 309
3 42 312 139
3 42 313 312
3 42 315 313
3 34 316 141
3 34 299 316
3 44 570 572
3 572 571 317
3 570 571 572
3 37 318 144
3 37 304 318
3 45 321 319
3 47 322 146
3 47 323 322
3 48 326 324
3 50 327 149
3 50 328 327
3 51 331 329
3 53 332 152
3 53 333 332
3 53 335 333
3 45 336 154
3 45 319 336
3 55 338 337
3 57 339 156
3 57 340 339
3 57 342 340
3 48 343 158
3 48 324 343
3 59 573 575
3 575 574 344
3 573 574 575
3 577 576 160
3 60 578 579
3 60 580 581
3 61 348 346
3 63 349 164
3 63 350 349
3 582 351 583
3 584 353 585
3 586 585 351
3 584 585 586
3 66 354 166
3 66 355 354
3 66 356 355
3 67 587 588
3 68 359 357
3 70 360 169
3 70 361 360
3 71 364 362
3 589 365 590
3 591 590 172
3 589 590 591
3 593 592 365
3 73 367 366
3 595 594 174
3 74 370 368
3 76 371 176
3 76 372 371
3 596 373 597
3 598 597 294
3 596 597 598
3 599 374 600
3 602 601 374
3 77 377 375
3 79 378 179
3 79 379 378
3 33 380 296
3 80 381 182
3 80 382 381
3 80 383 382
3 74 384 184
3 74 368 384
3 603 385 604
3 77 386 186
3 77 375 386
3 81 389 387
3 83 390 188
3 83 391 390
3 35 392 300
3 84 393 191
3 84 394 393
3 84 395 394
3 85 396 193
3 85 397 396
3 86 605 607
3 605 398 606
3 605 606 607
3 87 399 196
3 87 400 399
3 38 401 305
3 88 402 199
3 88 403 402
3 88 404 403
3 89 405 201
3 89 406 405
3 90 409 407
3 92 410 204
3 92 411 410
3 41 412 310
3 93 413 207
3 93 414 413
3 93 415 414
3 94 416 209
3 94 417 416
3 94 419 417
3 96 420 211
3 96 421 420
3 43 422 314
3 97 423 214
3 97 424 423
3 97 425 424
3 81 426 216
3 81 387 426
3 86 608 609
3 86 610 611
3 98 429 427
3 100 430 219
3 100 431 430
3 46 432 320
3 101 433 222
3 101 434 433
3 101 435 434
3 102 436 224
3 102 437 436
3 75 438 369
3 103 439 227
3 103 440 439
3 104 612 614
3 612 441 613
3 612 613 614
3 104 442 441
3 104 443 442
3 615 444 616
3 618 617 444
3 105 447 445
3 107 448 230
3 107 449 448
3 49 450 325
3 108 451 233
3 108 452 451
3 108 453 452
3 109 454 235
3 109 455 454
3 78 456 376
3 110 457 238
3 110 458 457
3 52 459 330
3 111 460 241
3 111 461 460
3 111 462 461
3 112 463 243
3 112 464 463
3 112 465 464
3 113 466 245
3 113 467 466
3 54 468 334
3 114 469 248
3 114 470 469
3 114 471 470
3 98 472 250
3 98 427 472
3 56 619 620
3 115 621 622
3 115 623 625
3 623 473 624
3 623 624 625
3 58 474 341
3 116 475 254
3 116 476 475
3 116 477 476
3 105 478 256
3 105 445 478
3 82 626 628
3 628 627 388
3 626 627 628
3 630 629 345
3 99 479 428
3 117 480 260
3 117 481 480
3 62 482 347
3 118 483 263
3 118 484 483
3 118 485 484
3 119 486 265
3 119 487 486
3 631 488 632
3 120 489 267
3 120 490 489
3 64 633 635
3 633 491 634
3 633 634 635
3 121 492 269
3 121 493 492
3 121 494 493
3 122 495 271
3 122 496 495
3 122 497 496
3 123 498 273
3 123 499 498
3 65 500 352
3 636 501 637
3 638 637 276
3 636 637 638
3 640 639 501
3 106 502 446
3 124 503 278
3 124 504 503
3 69 505 358
3 125 506 281
3 125 507 506
3 125 508 507
3 126 509 283
3 126 510 509
3 91 511 408
3 127 512 286
3 127 513 512
3 72 514 363
3 128 515 289
3 128 516 515
3 128 517 516
3 641 518 642
3 643 642 291
3 641 642 643
3 645 644 518
3 95 646 648
3 648 647 418
3 646 647 648
3 129 649 651
3 651 650 32
3 649 650 651
3 653 652 129
3 130 654 656
3 654 131 655
3 654 655 656
3 129 131 130
3 129 32 131
3 130 657 658
3 130 659 660
3 132 133 34
3 134 133 132
3 134 36 133
3 135 136 37
3 137 136 135
3 137 39 136
3 138 139 40
3 140 139 138
3 140 42 139
3 140 141 42
3 132 141 140
3 132 34 141
3 142 661 663
3 663 662 44
3 661 662 663
3 143 664 666
3 666 665 142
3 664 665 666
3 143 667 668
3 143 669 671
3 669 144 670
3 669 670 671
3 135 144 143
3 135 37 144
3 145 146 45
3 147 146 145
3 147 47 146
3 148 149 48
3 150 149 148
3 150 50 149
3 151 152 51
3 153 152 151
3 153 53 152
3 153 154 53
3 145 154 153
3 145 45 154
3 155 156 55
3 157 156 155
3 157 57 156
3 157 158 57
3 148 158 157
3 148 48 158
3 159 160 59
3 161 160 159
3 161 672 674
3 674 673 160
3 672 673 674
3 161 675 676
3 162 677 679
3 679 678 161
3 677 678 679
3 162 680 682
3 680 60 681
3 680 681 682
3 163 164 61
3 165 164 163
3 165 63 164
3 683 166 684
3 685 166 686
3 687 66 688
3 689 688 166
3 687 688 689
3 691 690 66
3 167 692 694
3 694 693 67
3 692 693 694
3 696 695 167
3 168 169 68
3 170 169 168
3 170 70 169
3 171 172 71
3 173 172 171
3 173 697 699
3 699 698 172
3 697 698 699
3 173 700 701
3 703 702 173
3 704 174 705
3 706 705 73
3 704 705 706
3 707 174 708
3 710 709 174
3 175 176 74
3 177 176 175
3 177 76 176
3 178 179 77
3 180 179 178
3 180 79 179
3 181 182 33
3 183 182 181
3 183 80 182
3 183 184 80
3 175 184 183
3 175 74 184
3 185 711 712
3 185 713 714
3 185 715 717
3 715 186 716
3 715 716 717
3 178 186 185
3 178 77 186
3 187 188 81
3 189 188 187
3 189 83 188
3 190 191 35
3 192 191 190
3 192 84 191
3 192 193 84
3 194 193 192
3 194 85 193
3 195 196 86
3 197 196 195
3 197 87 196
3 198 199 38
3 200 199 198
3 200 88 199
3 200 201 88
3 202 201 200
3 202 89 201
3 203 204 90
3 205 204 203
3 205 92 204
3 206 207 41
3 208 207 206
3 208 93 207
3 208 209 93
3 210 209 208
3 210 94 209
3 210 211 94
3 212 211 210
3 212 96 211
3 213 214 43
3 215 214 213
3 215 97 214
3 215 216 97
3 187 216 215
3 187 81 216
3 217 718 719
3 721 720 217
3 195 722 723
3 195 724 726
3 724 86 725
3 724 725 726
3 218 219 98
3 220 219 218
3 220 100 219
3 221 222 46
3 223 222 221
3 223 101 222
3 223 224 101
3 225 224 223
3 225 102 224
3 226 227 75
3 228 227 226
3 228 103 227
3 727 104 728
3 730 729 104
3 229 230 105
3 231 230 229
3 231 107 230
3 232 233 49
3 234 233 232
3 234 108 233
3 234 235 108
3 236 235 234
3 236 109 235
3 237 238 78
3 239 238 237
3 239 110 238
3 240 241 52
3 242 241 240
3 242 111 241
3 242 243 111
3 244 243 242
3 244 112 243
3 244 245 112
3 246 245 244
3 246 113 245
3 247 248 54
3 249 248 247
3 249 114 248
3 249 250 114
3 218 250 249
3 218 98 250
3 251 731 733
3 733 732 56
3 731 732 733
3 735 734 251
3 252 736 737
3 252 738 740
3 738 115 739
3 738 739 740
3 253 254 58
3 255 254 253
3 255 116 254
3 255 256 116
3 229 256 255
3 229 105 256
3 257 741 743
3 743 742 82
3 741 742 743
3 258 744 746
3 746 745 257
3 744 745 746
3 258 747 748
3 259 260 99
3 261 260 259
3 261 117 260
3 262 263 62
3 264 263 262
3 264 118 263
3 264 265 118
3 266 265 264
3 266 119 265
3 749 267 750
3 751 267 752
3 753 120 754
3 755 754 267
3 753 754 755
3 268 269 64
3 270 269 268
3 270 121 269
3 270 271 121
3 272 271 270
3 272 122 271
3 272 273 122
3 274 273 272
3 274 123 273
3 275 276 65
3 756 276 757
3 758 757 275
3 756 757 758
3 760 759 276
3 277 278 106
3 279 278 277
3 279 124 278
3 280 281 69
3 282 281 280
3 282 125 281
3 282 283 125
3 284 283 282
3 284 126 283
3 285 286 91
3 287 286 285
3 287 127 286
3 288 289 72
3 290 289 288
3 290 128 289
3 290 291 128
3 761 291 762
3 763 762 290
3 761 762 763
3 765 764 291
3 292 766 768
3 768 767 95
3 766 767 768
3 770 769 292
3 293 294 9
3 295 294 293
3 295 771 773
3 773 772 294
3 771 772 773
3 774 295 775
3 776 775 32
3 774 775 776
3 777 295 778
3 780 779 295
3 781 296 782
3 297 783 785
3 783 296 784
3 783 784 785
3 297 33 296
3 131 786 788
3 786 297 787
3 786 787 788
3 298 297 131
3 298 33 297
3 298 181 33
3 293 181 298
3 293 9 181
3 299 300 12
3 301 300 299
3 301 35 300
3 133 301 34
3 302 301 133
3 302 35 301
3 302 190 35
3 303 190 302
3 303 14 190
3 304 305 15
3 306 305 304
3 306 38 305
3 136 306 37
3 307 306 136
3 307 38 306
3 307 198 38
3 308 198 307
3 308 16 198
3 309 310 17
3 311 310 309
3 311 41 310
3 139 311 40
3 312 311 139
3 312 41 311
3 312 206 41
3 313 206 312
3 313 19 206
3 313 314 19
3 315 314 313
3 315 43 314
3 141 315 42
3 316 315 141
3 316 43 315
3 316 213 43
3 299 213 316
3 299 12 213
3 317 789 790
3 792 791 317
3 794 793 44
3 144 795 796
3 318 797 799
3 799 798 144
3 797 798 799
3 318 800 801
3 318 802 804
3 802 217 803
3 802 803 804
3 304 217 318
3 304 15 217
3 319 320 21
3 321 320 319
3 321 46 320
3 146 321 45
3 322 321 146
3 322 46 321
3 322 221 46
3 323 221 322
3 323 23 221
3 806 805 10
3 324 325 24
3 326 325 324
3 326 49 325
3 149 326 48
3 327 326 149
3 327 49 326
3 327 232 49
3 328 232 327
3 328 26 232
3 329 330 11
3 331 330 329
3 331 52 330
3 152 331 51
3 332 331 152
3 332 52 331
3 332 240 52
3 333 240 332
3 333 27 240
3 333 334 27
3 335 334 333
3 335 54 334
3 154 335 53
3 336 335 154
3 336 54 335
3 336 247 54
3 319 247 336
3 319 21 247
3 337 807 808
3 338 809 811
3 811 810 337
3 809 810 811
3 338 812 814
3 812 56 813
3 812 813 814
3 156 338 55
3 339 338 156
3 339 56 338
3 339 251 56
3 340 251 339
3 340 28 251
3 340 341 28
3 342 341 340
3 342 58 341
3 158 342 57
3 343 342 158
3 343 58 342
3 343 253 58
3 324 253 343
3 324 24 253
3 344 345 13
3 815 345 816
3 817 816 344
3 815 816 817
3 819 818 345
3 160 820 822
3 822 821 59
3 820 821 822
3 824 823 160
3 346 347 22
3 348 347 346
3 348 62 347
3 164 348 61
3 349 348 164
3 349 62 348
3 349 262 62
3 350 262 349
3 350 29 262
3 825 64 826
3 827 64 828
3 829 268 830
3 831 830 64
3 829 830 831
3 351 832 834
3 832 268 833
3 832 833 834
3 351 30 268
3 351 352 30
3 353 352 351
3 353 65 352
3 166 835 837
3 835 353 836
3 835 836 837
3 354 353 166
3 354 65 353
3 354 275 65
3 355 275 354
3 355 838 840
3 840 839 275
3 838 839 840
3 355 841 842
3 356 843 845
3 845 844 355
3 843 844 845
3 356 846 847
3 848 356 849
3 850 849 66
3 848 849 850
3 851 356 852
3 854 853 356
3 856 855 67
3 357 358 25
3 359 358 357
3 359 69 358
3 169 359 68
3 360 359 169
3 360 69 359
3 360 280 69
3 361 280 360
3 361 31 280
3 362 363 18
3 364 363 362
3 364 72 363
3 172 364 71
3 365 364 172
3 365 72 364
3 365 288 72
3 857 288 858
3 859 858 365
3 857 858 859
3 861 860 288
3 366 862 864
3 864 863 20
3 862 863 864
3 367 865 867
3 867 866 366
3 865 866 867
3 367 868 869
3 174 367 73
3 870 367 871
3 872 871 174
3 870 871 872
3 874 873 367
3 368 369 2
3 370 369 368
3 370 75 369
3 176 370 74
3 371 370 176
3 371 75 370
3 371 226 75
3 372 226 371
3 372 10 226
3 294 177 9
3 373 177 294
3 373 76 177
3 875 373 876
3 374 877 879
3 877 373 878
3 877 878 879
3 374 76 373
3 374 372 76
3 880 372 881
3 882 881 374
3 880 881 882
3 883 10 884
3 885 884 372
3 883 884 885
3 887 886 10
3 375 376 4
3 377 376 375
3 377 78 376
3 179 377 77
3 378 377 179
3 378 78 377
3 378 237 78
3 379 237 378
3 379 11 237
3 296 888 890
3 888 180 889
3 888 889 890
3 380 180 296
3 380 79 180
3 182 380 33
3 381 380 182
3 381 79 380
3 381 379 79
3 382 379 381
3 382 11 379
3 382 329 11
3 383 329 382
3 383 51 329
3 184 383 80
3 384 383 184
3 384 51 383
3 384 151 51
3 368 151 384
3 368 2 151
3 891 337 892
3 385 893 895
3 893 337 894
3 893 894 895
3 385 55 337
3 186 896 898
3 896 385 897
3 896 897 898
3 386 385 186
3 386 55 385
3 386 155 55
3 375 155 386
3 375 4 155
3 387 899 901
3 899 388 900
3 899 900 901
3 389 388 387
3 389 82 388
3 188 389 81
3 390 389 188
3 390 82 389
3 390 257 82
3 391 257 390
3 391 13 257
3 300 189 12
3 392 189 300
3 392 83 189
3 191 392 35
3 393 392 191
3 393 83 392
3 393 391 83
3 394 391 393
3 394 13 391
3 394 344 13
3 395 344 394
3 395 59 344
3 193 395 84
3 396 395 193
3 396 59 395
3 396 159 59
3 397 159 396
3 397 6 159
3 903 902 3
3 398 904 905
3 398 906 907
3 196 398 86
3 399 398 196
3 399 908 910
3 910 909 398
3 908 909 910
3 399 911 912
3 400 913 915
3 915 914 399
3 913 914 915
3 400 916 917
3 305 197 15
3 401 197 305
3 401 87 197
3 199 401 38
3 402 401 199
3 402 87 401
3 402 400 87
3 403 400 402
3 403 918 920
3 920 919 400
3 918 919 920
3 403 921 922
3 404 923 925
3 925 924 403
3 923 924 925
3 404 926 928
3 926 67 927
3 926 927 928
3 201 404 88
3 405 404 201
3 405 67 404
3 405 167 67
3 406 167 405
3 406 7 167
3 407 408 5
3 409 408 407
3 409 91 408
3 204 409 90
3 410 409 204
3 410 91 409
3 410 285 91
3 411 285 410
3 411 18 285
3 310 205 17
3 412 205 310
3 412 92 205
3 207 412 41
3 413 412 207
3 413 92 412
3 413 411 92
3 414 411 413
3 414 18 411
3 414 362 18
3 415 362 414
3 415 71 362
3 209 415 93
3 416 415 209
3 416 71 415
3 416 171 71
3 417 171 416
3 417 8 171
3 417 418 8
3 419 418 417
3 419 95 418
3 211 419 94
3 420 419 211
3 420 95 419
3 420 292 95
3 421 292 420
3 421 20 292
3 314 212 19
3 422 212 314
3 422 96 212
3 214 422 43
3 423 422 214
3 423 96 422
3 423 421 96
3 424 421 423
3 424 20 421
3 424 366 20
3 425 366 424
3 425 73 366
3 216 425 97
3 426 425 216
3 426 73 425
3 426 929 931
3 931 930 73
3 929 930 931
3 387 932 934
3 934 933 426
3 932 933 934
3 387 935 936
3 427 428 0
3 429 428 427
3 429 99 428
3 219 429 98
3 430 429 219
3 430 99 429
3 430 259 99
3 431 259 430
3 431 22 259
3 320 220 21
3 432 220 320
3 432 100 220
3 222 432 46
3 433 432 222
3 433 100 432
3 433 431 100
3 434 431 433
3 434 22 431
3 434 346 22
3 435 346 434
3 435 61 346
3 224 435 101
3 436 435 224
3 436 61 435
3 436 163 61
3 437 163 436
3 437 3 163
3 369 147 2
3 438 147 369
3 438 47 147
3 227 438 75
3 439 438 227
3 439 47 438
3 439 323 47
3 440 323 439
3 440 23 323
3 937 228 938
3 939 938 10
3 937 938 939
3 940 228 941
3 942 103 943
3 944 943 228
3 942 943 944
3 441 945 946
3 441 947 949
3 947 103 948
3 947 948 949
3 441 440 103
3 442 440 441
3 442 23 440
3 442 225 23
3 443 225 442
3 443 102 225
3 950 443 951
3 952 951 104
3 950 951 952
3 444 953 955
3 953 443 954
3 953 954 955
3 444 102 443
3 444 437 102
3 956 437 957
3 958 957 444
3 956 957 958
3 959 3 960
3 961 960 437
3 959 960 961
3 963 962 3
3 445 446 1
3 447 446 445
3 447 106 446
3 230 447 105
3 448 447 230
3 448 106 447
3 448 277 106
3 449 277 448
3 449 25 277
3 325 231 24
3 450 231 325
3 450 107 231
3 233 450 49
3 451 450 233
3 451 107 450
3 451 449 107
3 452 449 451
3 452 25 449
3 452 357 25
3 453 357 452
3 453 68 357
3 235 453 108
3 454 453 235
3 454 68 453
3 454 168 68
3 455 168 454
3 455 5 168
3 376 150 4
3 456 150 376
3 456 50 150
3 238 456 78
3 457 456 238
3 457 50 456
3 457 328 50
3 458 328 457
3 458 26 328
3 330 239 11
3 459 239 330
3 459 110 239
3 241 459 52
3 460 459 241
3 460 110 459
3 460 458 110
3 461 458 460
3 461 26 458
3 461 236 26
3 462 236 461
3 462 109 236
3 243 462 111
3 463 462 243
3 463 109 462
3 463 455 109
3 464 455 463
3 464 5 455
3 464 407 5
3 465 407 464
3 465 90 407
3 245 465 112
3 466 465 245
3 466 90 465
3 466 203 90
3 467 203 466
3 467 17 203
3 334 246 27
3 468 246 334
3 468 113 246
3 248 468 54
3 469 468 248
3 469 113 468
3 469 467 113
3 470 467 469
3 470 17 467
3 470 309 17
3 471 309 470
3 471 40 309
3 250 471 114
3 472 471 250
3 472 40 471
3 472 138 40
3 427 138 472
3 427 0 138
3 965 964 56
3 473 966 967
3 473 968 969
3 341 252 28
3 474 252 341
3 474 115 252
3 254 474 58
3 475 474 254
3 475 115 474
3 475 473 115
3 476 473 475
3 476 970 972
3 972 971 473
3 970 971 972
3 476 973 975
3 973 317 974
3 973 974 975
3 477 317 476
3 477 44 317
3 256 477 116
3 478 477 256
3 478 44 477
3 478 142 44
3 445 142 478
3 445 1 142
3 388 976 977
3 979 978 388
3 981 980 82
3 345 258 13
3 982 258 983
3 984 983 345
3 982 983 984
3 986 985 258
3 428 134 0
3 479 134 428
3 479 36 134
3 260 479 99
3 480 479 260
3 480 36 479
3 480 303 36
3 481 303 480
3 481 14 303
3 347 261 22
3 482 261 347
3 482 117 261
3 263 482 62
3 483 482 263
3 483 117 482
3 483 481 117
3 484 481 483
3 484 14 481
3 484 194 14
3 485 194 484
3 485 85 194
3 265 485 118
3 486 485 265
3 486 85 485
3 486 397 85
3 487 397 486
3 487 6 397
3 987 165 988
3 989 988 3
3 987 988 989
3 488 990 992
3 990 165 991
3 990 991 992
3 488 63 165
3 267 993 995
3 993 488 994
3 993 994 995
3 489 488 267
3 489 63 488
3 489 350 63
3 490 350 489
3 490 29 350
3 491 996 997
3 491 998 1000
3 998 120 999
3 998 999 1000
3 269 491 64
3 492 491 269
3 492 120 491
3 492 490 120
3 493 490 492
3 493 29 490
3 493 266 29
3 494 266 493
3 494 119 266
3 271 494 121
3 495 494 271
3 495 119 494
3 495 487 119
3 496 487 495
3 496 6 487
3 496 162 6
3 497 162 496
3 497 60 162
3 273 497 122
3 498 497 273
3 498 60 497
3 498 1001 1003
3 1003 1002 60
3 1001 1002 1003
3 499 1004 1006
3 1006 1005 498
3 1004 1005 1006
3 499 1007 1008
3 352 274 30
3 500 274 352
3 500 123 274
3 276 500 65
3 501 500 276
3 501 123 500
3 501 499 123
3 1009 499 1010
3 1011 1010 501
3 1009 1010 1011
3 1013 1012 499
3 446 137 1
3 502 137 446
3 502 39 137
3 278 502 106
3 503 502 278
3 503 39 502
3 503 308 39
3 504 308 503
3 504 16 308
3 358 279 25
3 505 279 358
3 505 124 279
3 281 505 69
3 506 505 281
3 506 124 505
3 506 504 124
3 507 504 506
3 507 16 504
3 507 202 16
3 508 202 507
3 508 89 202
3 283 508 125
3 509 508 283
3 509 89 508
3 509 406 89
3 510 406 509
3 510 7 406
3 408 170 5
3 511 170 408
3 511 70 170
3 286 511 91
3 512 511 286
3 512 70 511
3 512 361 70
3 513 361 512
3 513 31 361
3 363 287 18
3 514 287 363
3 514 127 287
3 289 514 72
3 515 514 289
3 515 127 514
3 515 513 127
3 516 513 515
3 516 31 513
3 516 284 31
3 517 284 516
3 517 126 284
3 291 517 128
3 518 517 291
3 518 126 517
3 518 510 126
3 1014 510 1015
3 1016 1015 518
3 1014 1015 1016
3 1017 7 1018
3 1019 1018 510
3 1017 1018 1019
3 1021 1020 7
3 418 1022 1024
3 1024 1023 8
3 1022 1023 1024
3 1026 1025 418
3 1028 1027 95
3 1030 1029 20
