ply
format ascii 1.0
element vertex 1018
property float x
property float y
property float z
element face 1313
property list uchar int vertex_index
end_header
3.62484 -98.800415 1.014847
13.334026 -74.56987 -2.105564
9.012888 -81.193024 -10.802362
4.467888 -120.595085 -1.732639
2.159775 -99.487511 19.652565
11.692596 -80.275421 13.229957
9.300985 -108.816353 -16.79817
27.14016 -77.567055 -21.449865
12.677906 -62.003616 -3.394693
12.822594 -64.293381 -8.120504
4.906343 -101.004333 31.823755
2.215578 -110.527573 -0.653854
5.712626 -117.393219 -11.676729
2.458542 -106.336746 -8.564226
18.888882 -66.531219 -16.307661
18.014568 -81.919662 -16.008543
27.700565 -64.132378 -20.990908
8.464184 -86.885422 0.577958
3.275688 -92.553642 -5.13854
7.99288 -78.167175 -5.72003
12.382881 -65.674911 -12.314407
0.504147 -110.498337 9.934438
3.166445 -99.522499 9.137257
7.34086 -90.860718 27.094389
7.849922 -89.148964 16.277082
9.259214 -89.393875 7.417199
13.704596 -79.669525 4.778914
11.892181 -68.605652 2.658763
21.810196 -104.282059 -20.782812
7.430115 -96.397644 -12.941547
18.041145 -95.172699 -18.384069
12.899403 -57.651875 -5.500502
2.450436 -104.762596 0.245845
2.265038 -109.154083 -5.053541
2.148937 -102.971313 -3.50868
23.179457 -58.589863 -19.194124
23.553223 -65.88163 -18.373224
11.309196 -80.837891 -0.692741
7.766632 -83.216057 -2.506655
10.676249 -76.54631 -3.876448
13.901382 -58.575817 -10.567568
11.957544 -64.965622 -10.221846
14.279205 -58.842766 -12.950336
15.907524 -59.106659 -15.174166
0.767963 -104.826469 21.184561
0.465427 -104.749847 15.134365
1.209015 -105.015068 9.603779
2.320681 -99.273369 14.078753
7.459536 -91.969917 32.741745
9.419134 -84.970367 19.708715
10.444981 -84.566612 14.727353
8.627937 -89.176605 11.560843
11.447102 -84.665405 10.18141
12.06287 -84.619576 6.140661
12.929182 -80.21273 8.780594
6.80835 -113.818031 -14.895702
11.819756 -113.41214 -18.053396
18.169403 -111.133888 -20.073053
15.189245 -107.39949 -19.115465
5.247677 -87.382431 -7.959028
4.13665 -94.900162 -9.099644
7.883289 -88.987793 -11.360723
22.902317 -80.44017 -18.516497
17.679905 -88.982483 -16.992842
22.866024 -86.820457 -19.456625
23.739681 -92.205353 -20.586348
27.660194 -83.211777 -22.21739
13.797455 -68.181259 -3.121788
12.796566 -69.857094 -5.229876
13.505239 -63.422733 -5.883423
13.799772 -58.257832 -8.07918
15.196817 -53.373043 -9.634317
3.080078 -100.20063 25.692106
11.210724 -76.004349 11.750689
2.903324 -115.879265 -1.351109
3.314762 -114.743439 -6.339998
3.611425 -112.318214 -10.393084
4.878407 -108.418213 -13.251961
13.88089 -74.1707 -13.585127
13.011673 -82.076019 -13.529577
18.553921 -74.303482 -15.77622
23.35268 -73.331741 -18.100752
27.392748 -71.091522 -20.966108
30.618229 -67.645546 -24.431555
30.83375 -61.258953 -24.357016
5.703695 -92.829529 1.206652
3.048992 -96.448593 -2.237713
4.998421 -89.834267 -1.836802
5.270361 -85.354935 -4.85932
7.178905 -79.742355 -8.052641
10.7612 -71.066315 -7.102386
9.58009 -72.174294 -9.078432
10.584953 -73.303596 -11.301058
14.811499 -66.325272 -14.361176
19.052685 -59.143604 -17.196535
3.574671 -120.582787 4.195117
1.990078 -116.045143 4.227386
1.524126 -110.806213 4.392855
2.1555 -105.243256 4.646094
3.805567 -99.642326 4.796871
7.110027 -96.877975 35.336426
5.898642 -96.004669 29.476341
4.991602 -94.928749 23.559498
8.493141 -85.9263 24.966795
7.399645 -89.768486 21.516331
4.765823 -94.155258 17.936649
5.279943 -94.019669 12.869998
6.043673 -94.297218 8.432982
6.277014 -94.188919 4.572034
9.201134 -88.884415 3.800022
11.973747 -83.532745 2.568504
13.802053 -77.900253 1.193374
12.661724 -75.525307 7.450027
13.661898 -74.336029 3.553209
14.008818 -71.924179 0.042767
12.495409 -65.775375 -0.614498
2.328968 -99.64048 -6.568405
3.995409 -102.026299 -11.117901
7.853437 -103.101562 -14.985306
12.396406 -89.651436 -14.42737
12.37595 -96.567963 -16.021334
13.253731 -102.538567 -17.74132
19.399494 -100.288544 -19.728331
25.662737 -96.488091 -21.596987
2.920362 -101.792244 0.675177
2.322983 -104.055443 -1.719412
2.696606 -100.960114 -1.137346
12.481852 -77.731682 -1.417446
10.942091 -78.872086 -2.281313
12.145452 -75.627533 -3.016037
14.897846 -55.867599 -11.576712
13.983379 -58.70631 -11.773909
15.240336 -55.904636 -12.867964
1.279316 -102.182587 20.463631
0.45499 -104.739136 18.107199
1.105423 -102.030746 17.481457
1.223516 -102.004745 14.631403
2.11401 -99.306725 16.790951
10.988001 -80.365158 15.598252
10.652824 -82.492058 16.381166
11.275173 -82.399796 13.976517
10.967567 -84.581116 12.393229
11.866972 -82.412079 11.671248
12.392609 -82.45166 9.479191
12.349901 -80.252419 10.952389
5.565819 -122.614929 -1.801954
7.855177 -111.489265 -15.997972
9.108477 -113.856995 -16.646059
10.429506 -111.255753 -17.495035
13.359812 -110.554832 -18.682795
12.106983 -108.331833 -18.083845
6.937391 -84.40271 -9.381268
6.266479 -88.270233 -9.666407
8.37771 -85.119949 -10.937084
25.104557 -79.173645 -19.918341
22.7934 -83.74147 -18.939775
25.095573 -82.296753 -20.323729
25.306238 -85.18589 -20.793375
27.275019 -80.509415 -21.815695
29.384239 -78.412949 -23.384619
29.062609 -75.64801 -23.086309
13.401791 -65.040329 -3.361145
13.620647 -65.895744 -4.562107
13.331127 -62.801777 -4.671482
13.498686 -58.008335 -6.798725
3.572163 -103.067986 29.758026
2.542353 -102.756027 26.656956
3.905777 -100.625229 28.773388
2.446497 -113.267746 -1.039286
3.173569 -115.453659 -3.939552
2.62483 -112.803551 -3.490126
2.264393 -107.936264 -6.931314
2.722021 -110.919609 -7.775217
2.910652 -109.433151 -9.534975
4.057529 -110.554489 -11.976999
3.40011 -107.567749 -11.013613
16.426846 -70.410843 -14.944212
16.124401 -74.356552 -14.687838
18.758633 -70.407768 -15.961729
25.742992 -65.151382 -19.589293
23.519411 -69.621437 -18.151075
25.681734 -68.786736 -19.437296
25.492893 -72.371979 -19.448664
27.593935 -67.646004 -20.905737
29.251467 -66.208755 -22.556231
29.388952 -62.828465 -22.589434
7.026041 -89.859726 0.993984
5.297098 -91.536224 -0.337931
6.605696 -88.395615 -0.535057
7.722197 -80.83728 -4.087997
6.27158 -84.297592 -3.586653
6.576427 -81.756538 -5.174473
6.011263 -82.669464 -6.434849
7.270607 -78.953979 -6.816069
12.702389 -67.139664 -6.716135
11.790594 -70.495834 -6.17457
11.916557 -67.6147 -7.710262
11.939085 -65.312637 -11.267498
10.802307 -68.49913 -9.696398
10.855837 -68.960403 -10.732397
9.772612 -72.745567 -10.165201
11.466238 -69.427353 -11.795397
12.647247 -69.862221 -12.864479
13.345701 -66.027527 -13.350517
17.761473 -55.921703 -16.461657
17.307846 -59.175648 -16.206743
19.231808 -55.81583 -17.545038
20.969246 -55.590271 -18.595945
4.791172 -122.443161 4.216763
3.297352 -120.240067 7.213628
0.666769 -113.110565 10.061674
1.512682 -115.864647 7.159228
1.098518 -113.348816 7.129273
1.618189 -113.487213 4.293205
0.999264 -110.693771 7.105012
2.046038 -102.248528 9.393064
1.721817 -105.172585 7.055979
2.517368 -102.394333 7.001493
2.86224 -102.43277 4.751196
3.568848 -99.651375 6.896229
7.578369 -94.803078 36.840881
7.395464 -91.44001 29.926849
6.936024 -93.973526 31.166027
6.61009 -93.424889 28.261686
5.379431 -95.461411 26.502832
6.345728 -92.850952 25.362753
8.12248 -84.153305 26.579914
8.756145 -83.596909 23.988197
8.860514 -86.978836 17.986059
8.513998 -87.316498 20.585672
7.570206 -89.376381 18.839775
6.168472 -91.880081 19.74235
6.306145 -91.599365 17.092562
4.947517 -94.005539 15.324634
6.586668 -91.494522 14.583439
9.001888 -89.314407 9.418742
7.348808 -91.686234 10.021674
7.653753 -91.812317 7.964351
6.265377 -94.351784 6.434971
7.790993 -91.799446 6.04579
7.714254 -91.526779 4.255749
9.334444 -89.288788 5.548388
13.069986 -82.183792 5.456623
12.111958 -84.255013 4.30302
13.15303 -81.658539 3.617907
13.056374 -80.761322 1.87487
13.841389 -78.971962 2.941034
10.365566 -73.781815 11.044214
11.975588 -75.811897 9.552557
11.160528 -73.466599 8.903913
12.496719 -72.398895 4.905633
12.971453 -71.514709 3.054538
13.920546 -73.300568 1.753277
13.286192 -70.337738 1.300183
13.441221 -68.854202 -0.358341
12.263201 -67.321304 0.968516
5.445272 -118.652725 -9.570232
19.924885 -107.833725 -20.4522
21.626804 -109.357574 -20.849157
23.377264 -105.872986 -21.204321
2.9849 -94.680077 -3.713945
2.402369 -98.115334 -4.320337
2.665468 -96.12516 -5.735722
5.519045 -95.789124 -11.087992
3.940617 -98.533386 -10.043165
5.480019 -99.362823 -12.098253
5.683571 -102.755028 -13.18186
7.521385 -99.858101 -13.952452
15.466092 -82.150627 -14.792923
12.652016 -85.925926 -13.864693
15.185039 -85.902084 -15.178774
17.748615 -92.202904 -17.667299
14.986685 -92.900124 -16.473368
15.170965 -96.070877 -17.262022
12.688587 -99.685547 -16.90291
15.594797 -98.983086 -18.05266
16.279518 -101.618919 -18.787848
18.587086 -97.87133 -19.085161
26.508459 -90.177406 -21.764605
24.573399 -94.485001 -21.118666
27.500038 -92.263741 -22.201952
11.74577 -59.124146 -3.230864
12.746386 -59.870876 -4.543257
11.971775 -57.151608 -4.197304
12.273933 -55.113293 -4.948732
6.01218 -101.269981 34.79351
2.215895 -107.683807 -0.213852
2.294422 -110.005745 -2.950329
2.19133 -107.080986 -2.344959
2.085176 -106.123116 -4.286915
2.051821 -104.783485 -6.02103
21.16596 -62.574894 -17.711512
21.224075 -66.333542 -17.299154
23.429892 -62.178516 -18.739153
25.619953 -61.529205 -19.89316
27.624092 -60.611336 -21.223925
29.375378 -59.423134 -22.755087
9.92923 -83.885117 -0.003981
8.050226 -85.24826 -0.961967
9.535164 -82.078217 -1.568441
9.261568 -79.890427 -3.145144
9.202028 -77.376053 -4.755344
13.211567 -61.409458 -9.412479
12.311895 -64.633682 -9.177404
13.000383 -61.637829 -10.540804
12.989708 -61.871696 -11.649067
13.323002 -62.120834 -12.737236
14.091251 -62.37291 -13.797039
14.899818 -58.983231 -14.087383
0.201334 -107.373253 18.633293
0.083733 -107.454002 15.569869
0.273554 -107.598816 12.612359
0.688482 -107.781342 9.781874
0.748123 -104.853409 12.295929
1.571676 -102.092834 11.934004
2.708195 -99.365578 11.528292
7.792007 -88.939346 28.748539
9.502956 -80.910912 20.524166
9.388737 -83.106056 21.409657
10.021233 -82.72757 18.866278
9.921095 -84.688408 17.171816
9.269831 -86.808395 15.49091
8.219166 -89.09446 13.8475
9.718979 -86.797546 13.117979
10.160742 -86.893951 10.877611
10.530489 -87.004349 8.773277
10.761808 -87.009613 6.802726
11.82971 -84.717972 8.097502
12.807673 -82.413666 7.40766
13.392836 -80.053421 6.72268
6.124538 -115.786667 -13.457554
13.452028 -115.288666 -18.498053
14.869333 -112.496147 -19.169016
16.556129 -109.405075 -19.637976
18.452896 -106.040398 -19.984968
4.018446 -90.109077 -6.546137
3.372395 -93.79866 -7.079109
4.576393 -91.170601 -8.382732
5.786589 -92.077751 -10.250731
7.558622 -92.760239 -12.048914
20.524464 -81.354691 -17.229151
17.788647 -85.542084 -16.422186
20.349117 -84.824715 -17.654413
20.318726 -88.089989 -18.203932
20.493074 -91.116234 -18.826925
20.912064 -93.87899 -19.469767
23.17234 -89.647881 -20.020521
25.77379 -87.817108 -21.286051
13.78348 -71.373878 -2.69133
13.034046 -72.359116 -3.68811
13.533152 -69.099518 -4.222702
13.3388 -66.58255 -5.676107
13.28521 -63.905117 -7.029369
13.334946 -60.431179 -5.823385
13.538826 -60.846622 -7.061924
13.449326 -61.158653 -8.256298
13.890337 -58.435661 -9.335798
14.640989 -55.819256 -10.261021
1.763971 -102.439789 23.539516
2.485424 -99.800407 22.634258
10.897852 -78.274887 14.813752
11.667635 -78.156342 12.485521
3.579201 -118.3339 -1.582422
4.879831 -120.228584 -4.543024
3.929354 -117.936806 -4.290421
4.159973 -117.266426 -6.814556
4.328499 -116.289406 -9.102764
2.678513 -112.034508 -5.749233
3.414524 -113.708771 -8.50518
4.550886 -114.97422 -11.107677
4.969242 -113.297714 -12.795763
5.713406 -111.250885 -14.153496
6.864637 -108.843048 -15.192995
11.368021 -77.77449 -12.206642
10.807255 -81.738159 -12.194639
13.432476 -78.14299 -13.440819
15.794797 -78.286957 -14.628498
18.290649 -78.157974 -15.788382
21.17284 -70.155449 -17.011362
21.008743 -73.970932 -16.894323
20.770376 -77.721222 -16.968008
23.118156 -76.955078 -18.227167
25.267002 -75.850975 -19.616083
27.206553 -74.414505 -21.155962
28.980854 -72.667038 -22.828852
29.076231 -69.505676 -22.643156
30.709356 -64.50029 -24.349451
4.558155 -95.809082 1.206823
3.318495 -97.826485 -0.671345
4.189539 -94.680305 -0.38895
3.897465 -93.142715 -1.90234
3.841341 -91.221489 -3.372385
6.31192 -86.527443 -2.048807
4.952444 -87.758453 -3.332134
4.152798 -88.957108 -4.839354
4.9091 -86.39257 -6.330673
6.127539 -83.565285 -7.855024
7.770422 -80.506004 -9.400389
11.888533 -73.192871 -4.602966
10.595169 -73.921288 -5.487051
9.422367 -74.596474 -6.400364
11.211327 -68.055603 -8.69368
9.955336 -71.61573 -8.059738
8.613678 -75.261353 -7.393587
8.350473 -75.935822 -8.491791
8.729515 -76.609055 -9.686598
9.758505 -77.241516 -10.941397
11.98686 -73.799133 -12.451828
14.339464 -70.210251 -13.917055
16.70108 -66.512054 -15.3416
15.321262 -62.594326 -14.817795
16.976421 -62.736992 -15.796865
18.966911 -62.747322 -16.749128
21.050074 -58.962517 -18.175417
5.125292 -122.661522 1.191267
4.002266 -120.707573 1.197783
2.05094 -117.776649 10.211599
2.244984 -118.182487 7.190253
2.641453 -118.42952 4.19626
3.124041 -118.48893 1.26047
2.489561 -116.06279 1.382415
2.099564 -113.477669 1.56463
1.95612 -110.773079 1.802267
1.210091 -107.952667 7.084181
1.705326 -108.045578 4.516973
2.060305 -107.982246 2.080703
2.410133 -105.135513 2.373048
2.999653 -102.261917 2.640475
3.818533 -99.387688 2.83629
7.040302 -99.20649 36.569775
6.159559 -98.947586 33.672684
7.275431 -94.445335 34.036995
6.495386 -96.494522 32.434727
5.300972 -98.55024 30.688915
4.534891 -98.070297 27.660778
3.923494 -97.573311 24.636816
3.517496 -97.128143 21.667215
8.053608 -86.504288 27.636936
7.997351 -88.352051 25.99651
8.944983 -85.397148 22.315462
8.230999 -87.791672 23.265406
7.331318 -90.28318 24.279009
6.186977 -92.314491 22.509996
4.778793 -94.474037 20.691086
3.349241 -96.796242 18.797987
3.421959 -96.618233 16.064873
3.699539 -96.60096 13.489043
4.102879 -96.709244 11.07645
6.961134 -91.545532 12.226169
5.680735 -94.147324 10.574906
4.520969 -96.866875 8.82156
4.835949 -96.967171 6.714516
4.956825 -96.891808 4.747017
4.850515 -96.532417 2.913518
6.06971 -93.704552 2.834467
7.43511 -90.898857 2.579584
8.885311 -88.097176 2.152826
10.806782 -86.78669 4.958284
10.653673 -86.230957 3.22552
10.336044 -85.272896 1.581878
11.683119 -82.398308 0.913405
12.81213 -79.45282 0.205173
13.614492 -76.429573 -0.482485
12.384439 -78.063843 10.242024
13.020103 -77.913193 8.098582
13.540014 -77.607903 6.063081
11.882341 -73.029541 6.85565
13.234896 -75.058914 5.450236
13.9104 -77.055977 4.135717
14.108797 -76.184433 2.308861
14.13282 -74.949181 0.569772
14.007088 -73.33902 -1.093899
13.950823 -70.20816 -1.582958
13.462547 -67.076385 -1.916433
12.616789 -63.989433 -2.076269
11.283947 -62.72736 -0.718756
11.533964 -60.995472 -2.061695
2.466993 -99.734489 -2.797476
2.094252 -101.496254 -5.119896
2.26232 -103.059074 -7.545086
2.985874 -97.431099 -7.883081
2.862503 -100.966614 -8.875204
3.001184 -104.360054 -9.952648
4.306446 -105.334198 -12.218699
6.142004 -105.925468 -14.239613
8.443047 -106.094955 -15.953634
10.331547 -85.648613 -12.447878
9.974274 -89.467224 -12.962536
9.771103 -93.154549 -13.699902
15.007009 -89.498642 -15.756468
12.290279 -93.211815 -15.169601
9.75655 -96.670006 -14.592075
9.961521 -99.974312 -15.553358
10.411259 -103.033707 -16.497019
11.123529 -105.82386 -17.353491
14.086077 -105.111557 -18.485628
17.233332 -103.970924 -19.434153
20.477665 -102.423485 -20.293955
21.594948 -96.364487 -20.086443
22.543594 -98.568932 -20.647371
23.747129 -100.496513 -21.141756
26.987041 -98.222336 -22.014597
30.672749 -70.645294 -24.579851
15.709725 -54.621391 -12.659882
15.069091 -55.886117 -12.222338
15.53848 -54.602873 -12.014256
15.985574 -54.591091 -13.352056
15.709725 -54.621391 -12.659882
5.241145 -121.444362 -3.21517
5.79011 -122.454284 -3.249828
5.016853 -121.605007 -1.767297
4.239253 -102.036159 30.79089
4.182319 -103.186264 31.272293
4.849409 -102.154438 32.305157
19.411582 -54.33456 -17.618277
18.49664 -55.868766 -17.003348
18.676414 -54.387497 -17.076586
20.133823 -54.18397 -18.20707
19.411582 -54.33456 -17.618277
3.284617 -119.972546 8.713435
3.982046 -121.108086 7.21643
0.585458 -111.804451 9.998056
0.417824 -111.691708 11.469056
0.336513 -110.385593 11.405438
7.524797 -93.77597 37.5208
7.686672 -94.912526 38.196285
8.746052 -82.479919 23.512695
8.3578 -82.74355 24.77256
10.179697 -72.460388 9.649121
10.763047 -73.624207 9.974063
9.782216 -72.617997 10.719272
12.431817 -70.060181 2.85665
12.17491 -70.571796 3.752022
11.635274 -69.117267 3.554134
6.3928 -118.481788 -11.8949
6.259123 -119.111542 -10.841652
5.578949 -118.022972 -10.62348
23.49815 -103.219174 -21.177198
24.281684 -104.014637 -21.387953
22.59373 -105.077523 -20.993567
28.36157 -90.047428 -22.596314
27.004248 -91.220574 -21.983278
27.865781 -89.004261 -22.37764
28.93382 -91.001923 -22.756653
28.36157 -90.047428 -22.596314
11.356102 -56.805653 -3.550666
11.858773 -58.137877 -3.714084
11.243099 -57.791922 -3.067446
11.889433 -53.968466 -4.583522
11.690141 -54.90238 -4.312773
11.305642 -53.757553 -3.947564
12.497933 -54.084958 -5.228055
11.889433 -53.968466 -4.583522
6.577355 -101.316223 36.217968
6.069223 -102.33231 35.244101
26.472086 -59.340208 -20.740026
25.465267 -59.761079 -20.103043
27.474156 -58.881274 -21.405409
26.622022 -61.07027 -20.558543
26.472086 -59.340208 -20.740026
28.378166 -58.334289 -22.137171
27.474156 -58.881274 -21.405409
0.484648 -106.099861 19.908927
0.433525 -107.365738 20.198385
0.716839 -106.092346 21.474019
7.704254 -88.010036 29.524943
7.692236 -89.220951 30.120154
10.138183 -81.649956 18.451723
9.762094 -81.819241 19.695222
9.879044 -80.741627 19.280667
7.478993 -114.966331 -15.189445
7.137087 -115.950649 -14.470371
6.466444 -114.802349 -14.176628
11.213679 -114.679523 -17.605055
9.858039 -114.901951 -16.901386
10.464116 -113.634568 -17.349728
12.635892 -114.350403 -18.275724
12.029815 -115.617786 -17.827383
11.213679 -114.679523 -17.605055
27.986329 -84.433472 -22.418264
27.043127 -86.736138 -21.952595
26.716992 -85.514443 -21.751721
28.815647 -82.074211 -22.954279
27.986329 -84.433472 -22.418264
30.436713 -77.233139 -24.175646
30.167593 -75.935643 -24.076205
14.918903 -54.59615 -9.947669
14.492755 -55.781107 -9.596091
14.770669 -54.558001 -9.282739
15.449233 -53.372652 -10.339827
15.171319 -54.595759 -10.65318
14.918903 -54.59615 -9.947669
10.221891 -77.34177 15.592256
10.495269 -78.37643 16.00994
10.646363 -77.228832 14.421899
10.221891 -77.34177 15.592256
31.473899 -60.358305 -25.293654
31.411702 -61.978974 -25.289871
30.771553 -62.879621 -24.353234
30.120212 -58.700333 -23.6139
30.034534 -57.070316 -23.730106
21.9282 -55.39756 -19.126669
21.823364 -53.853838 -19.313142
1.616314 -116.667171 10.184503
1.578634 -116.467762 11.704909
1.713336 -116.87009 8.673831
2.147962 -117.979568 8.700926
1.616314 -116.667171 10.184503
7.075164 -98.042233 35.953101
7.359871 -98.160939 37.358382
7.394733 -96.996681 36.741707
7.367484 -93.207626 33.38937
7.386128 -93.429657 34.772526
7.478181 -92.191948 34.124901
11.310237 -71.721779 6.596829
10.941505 -72.016655 7.58861
10.61775 -61.239241 -0.699156
10.38775 -61.987871 -0.008392
10.742759 -60.373297 -1.370626
11.408955 -61.861416 -1.390225
10.61775 -61.239241 -0.699156
10.947546 -59.570127 -1.977558
10.742759 -60.373297 -1.370626
5.644015 -120.95869 -5.984217
5.038447 -119.908805 -5.859043
19.085462 -111.861351 -20.252583
17.390798 -112.646557 -19.818781
22.576556 -109.985977 -21.010046
23.388832 -108.280582 -21.204284
24.245019 -58.291409 -19.753524
24.028529 -56.607867 -19.989618
15.511576 -55.91995 -13.494566
15.031011 -57.389015 -13.535752
14.75977 -57.373701 -12.90915
15.511576 -55.91995 -13.494566
15.985574 -54.591091 -13.352056
10.820412 -81.428608 15.989709
10.453979 -81.5322 17.209167
10.621567 -80.46875 16.817709
6.445619 -123.349198 -3.275482
6.218457 -123.475525 -1.794944
6.445619 -123.349198 -3.275482
5.79011 -122.454284 -3.249828
30.006778 -74.553173 -23.92705
30.167593 -75.935643 -24.076205
29.223424 -77.030479 -23.235464
13.356485 -56.710823 -6.530741
13.199044 -57.830105 -6.149614
13.056844 -56.532593 -5.88163
13.696976 -56.81202 -7.196979
13.356485 -56.710823 -6.530741
13.847519 -56.936768 -7.837206
13.649229 -58.133083 -7.438952
13.696976 -56.81202 -7.196979
14.072147 -57.000395 -8.505171
13.847519 -56.936768 -7.837206
14.883525 -53.350649 -8.93355
14.770669 -54.558001 -9.282739
3.584137 -104.202187 30.140678
4.182319 -103.186264 31.272293
2.972382 -104.123902 28.605067
3.584137 -104.202187 30.140678
3.057258 -102.912007 28.207491
2.457477 -103.967922 27.054532
2.972382 -104.123902 28.605067
21.002542 -54.07119 -18.732523
20.100527 -55.703051 -18.070492
20.133823 -54.18397 -18.20707
21.823364 -53.853838 -19.313142
21.002542 -54.07119 -18.732523
4.728956 -122.209633 5.717997
5.538528 -123.197178 4.234916
4.044262 -121.341614 5.715196
4.728956 -122.209633 5.717997
3.982046 -121.108086 7.21643
0.555938 -112.962352 11.569066
0.417824 -111.691708 11.469056
0.924229 -114.334129 10.109541
0.555938 -112.962352 11.569066
1.089726 -114.487606 8.610451
1.347185 -115.71117 8.658318
0.924229 -114.334129 10.109541
7.628904 -95.959232 37.493935
7.686672 -94.912526 38.196285
7.344198 -95.840527 36.088654
7.394733 -96.996681 36.741707
7.628904 -95.959232 37.493935
8.040967 -83.021748 26.068418
7.652525 -83.300572 27.323776
8.439312 -83.875107 25.284056
8.040967 -83.021748 26.068418
8.3578 -82.74355 24.77256
11.937542 -71.013889 4.67757
11.617425 -71.406456 5.621821
12.734086 -71.956802 3.980085
11.937542 -71.013889 4.67757
12.17491 -70.571796 3.752022
6.093724 -119.719929 -9.743417
5.321167 -119.120876 -8.372647
6.093724 -119.719929 -9.743417
6.259123 -119.111542 -10.841652
24.264062 -106.538288 -21.381867
23.388832 -108.280582 -21.204284
22.502034 -107.61528 -21.026739
25.105831 -104.71574 -21.571434
25.992629 -105.381043 -21.748979
24.264062 -106.538288 -21.381867
25.105831 -104.71574 -21.571434
24.281684 -104.014637 -21.387953
28.113001 -93.172314 -22.392685
27.19435 -95.284489 -22.090203
26.581387 -94.375916 -21.899469
28.113001 -93.172314 -22.392685
28.93382 -91.001923 -22.756653
31.370745 -66.600506 -25.342729
31.342098 -65.102761 -25.322401
11.539062 -55.921537 -3.93706
11.356102 -56.805653 -3.550666
12.122854 -56.132451 -4.573018
11.539062 -55.921537 -3.93706
11.690141 -54.90238 -4.312773
12.744109 -55.263302 -5.605745
13.056844 -56.532593 -5.88163
12.586668 -56.382584 -5.224617
12.744109 -55.263302 -5.605745
12.497933 -54.084958 -5.228055
5.402328 -102.287262 33.790035
6.069223 -102.33231 35.244101
5.459262 -101.137157 33.308633
4.849409 -102.154438 32.305157
5.402328 -102.287262 33.790035
24.370236 -60.085735 -19.526039
23.304674 -60.38419 -18.966639
24.245019 -58.291409 -19.753524
24.524922 -61.85386 -19.316157
24.370236 -60.085735 -19.526039
25.465267 -59.761079 -20.103043
29.253809 -57.740189 -22.902752
28.499735 -60.017235 -21.989506
28.378166 -58.334289 -22.137171
30.034534 -57.070316 -23.730106
29.253809 -57.740189 -22.902752
15.341317 -57.459248 -14.104275
14.589512 -58.912999 -13.51886
15.031011 -57.389015 -13.535752
15.75468 -57.466303 -14.704692
15.341317 -57.459248 -14.104275
16.258533 -57.528017 -15.248083
15.403671 -59.044945 -14.630775
15.75468 -57.466303 -14.704692
17.185508 -55.935539 -15.891829
16.834498 -57.514181 -15.817911
16.258533 -57.528017 -15.248083
18.076377 -54.488163 -16.463749
17.185508 -55.935539 -15.891829
18.676414 -54.387497 -17.076586
18.076377 -54.488163 -16.463749
0.284004 -108.621521 18.8281
0.433525 -107.365738 20.198385
0.150839 -108.714699 17.274632
0.284004 -108.621521 18.8281
0.092038 -108.755074 15.742921
0.150839 -108.714699 17.274632
0.142534 -107.413628 17.101581
0.126306 -108.863426 14.223154
0.092038 -108.755074 15.742921
0.221217 -108.935833 12.744398
0.126306 -108.863426 14.223154
0.178644 -107.526409 14.091114
0.38885 -109.048576 11.273398
0.336513 -110.385593 11.405438
0.221217 -108.935833 12.744398
7.417994 -90.987244 33.470495
7.478181 -92.191948 34.124901
7.526001 -90.736236 32.116757
7.417994 -90.987244 33.470495
7.493965 -90.471283 30.709309
7.4275 -91.704963 31.334297
7.526001 -90.736236 32.116757
7.593735 -90.189678 29.337694
7.493965 -90.471283 30.709309
7.692236 -89.220951 30.120154
9.445847 -82.008484 20.966912
9.062348 -82.234493 22.223425
9.119457 -81.136921 21.780679
10.337029 -82.609814 17.623722
10.138183 -81.649956 18.451723
10.453979 -81.5322 17.209167
10.927846 -67.680855 3.378784
11.635274 -69.117267 3.554134
11.203882 -67.116715 2.519164
10.927846 -67.680855 3.378784
6.813766 -116.90253 -13.716105
6.60781 -117.705806 -12.825692
5.918582 -116.589943 -12.567141
6.813766 -116.90253 -13.716105
7.137087 -115.950649 -14.470371
8.629057 -114.985814 -16.064624
7.478993 -114.966331 -15.189445
7.958414 -113.837513 -15.770881
8.629057 -114.985814 -16.064624
9.858039 -114.901951 -16.901386
12.888901 -116.524258 -18.02578
12.029815 -115.617786 -17.827383
14.374104 -116.08664 -18.67201
12.888901 -116.524258 -18.02578
15.032111 -114.723946 -19.031281
14.374104 -116.08664 -18.67201
15.740763 -113.327686 -19.366762
15.032111 -114.723946 -19.031281
14.16068 -113.892406 -18.833534
16.519368 -111.815017 -19.621035
17.390798 -112.646557 -19.818781
15.740763 -113.327686 -19.366762
27.410461 -87.916287 -22.191872
26.141125 -88.997257 -21.525328
27.043127 -86.736138 -21.952595
27.865781 -89.004261 -22.37764
27.410461 -87.916287 -22.191872
29.67767 -79.674797 -23.537894
28.815647 -82.074211 -22.954279
28.522216 -80.812363 -22.801005
29.67767 -79.674797 -23.537894
30.436713 -77.233139 -24.175646
14.117429 -57.089309 -9.13348
13.845054 -58.346747 -8.707489
14.072147 -57.000395 -8.505171
14.265663 -57.127459 -9.798409
14.117429 -57.089309 -9.13348
14.492755 -55.781107 -9.596091
15.299747 -54.61993 -11.311025
14.769417 -55.843428 -10.918867
15.171319 -54.595759 -10.65318
15.53848 -54.602873 -12.014256
15.299747 -54.61993 -11.311025
1.091233 -104.907646 22.751781
0.716839 -106.092346 21.474019
1.978428 -103.872425 25.487979
2.457477 -103.967922 27.054532
1.589237 -103.714306 23.929259
1.978428 -103.872425 25.487979
2.153162 -102.597908 25.098236
1.265967 -103.633129 22.362038
1.091233 -104.907646 22.751781
1.589237 -103.714306 23.929259
8.95644 -80.060383 21.308792
9.119457 -81.136921 21.780679
9.382122 -79.851185 20.082032
8.95644 -80.060383 21.308792
9.879044 -80.741627 19.280667
9.382122 -79.851185 20.082032
10.540344 -79.421566 16.40219
10.621567 -80.46875 16.817709
10.942927 -79.320022 15.206002
10.540344 -79.421566 16.40219
10.495269 -78.37643 16.00994
11.031254 -77.169559 13.257784
11.282744 -78.215615 13.649636
10.646363 -77.228832 14.421899
10.802799 -76.093563 12.890367
11.43918 -77.080345 12.118105
11.031254 -77.169559 13.257784
10.368407 -75.025643 12.507335
10.802799 -76.093563 12.890367
9.945828 -73.914376 12.154097
10.788145 -74.893082 11.397451
10.368407 -75.025643 12.507335
9.363616 -72.803543 11.794912
9.945828 -73.914376 12.154097
9.782216 -72.617997 10.719272
9.363616 -72.803543 11.794912
4.563209 -118.762917 -5.732741
5.038447 -119.908805 -5.859043
4.404592 -119.082695 -4.416723
4.678518 -118.427727 -6.994809
4.563209 -118.762917 -5.732741
4.044664 -117.601616 -5.552488
4.802623 -117.959575 -8.192394
5.321167 -119.120876 -8.372647
4.678518 -118.427727 -6.994809
31.387662 -63.530133 -25.281349
31.342098 -65.102761 -25.322401
30.663792 -66.072918 -24.390503
31.387662 -63.530133 -25.281349
31.411702 -61.978974 -25.289871
30.126999 -60.402998 -23.531073
29.382165 -61.125799 -22.672261
30.120212 -58.700333 -23.6139
30.849398 -59.618242 -24.414864
30.111351 -62.043709 -23.473225
30.126999 -60.402998 -23.531073
31.488217 -58.780552 -25.341444
30.849398 -59.618242 -24.414864
31.473899 -60.358305 -25.293654
31.488217 -58.780552 -25.341444
21.968614 -57.083683 -18.916405
21.00966 -57.276394 -18.385681
21.9282 -55.39756 -19.126669
23.033305 -56.897356 -19.425759
22.114765 -58.77619 -18.68477
21.968614 -57.083683 -18.916405
24.028529 -56.607867 -19.989618
23.033305 -56.897356 -19.425759
5.641756 -123.366467 2.727334
5.538528 -123.197178 4.234916
5.808816 -123.475647 1.214586
5.641756 -123.366467 2.727334
4.958232 -122.552342 2.704015
5.998194 -123.498822 -0.298333
5.808816 -123.475647 1.214586
5.345555 -122.638226 -0.305343
6.218457 -123.475525 -1.794944
5.998194 -123.498822 -0.298333
2.100687 -117.510109 11.719883
1.578634 -116.467762 11.704909
2.661411 -118.740837 10.212421
2.100687 -117.510109 11.719883
2.674146 -119.008358 8.712613
3.284617 -119.972546 8.713435
2.661411 -118.740837 10.212421
1.878833 -117.023567 7.174741
1.713336 -116.87009 8.673831
1.347185 -115.71117 8.658318
7.453794 -99.245083 37.958715
7.359871 -98.160939 37.358382
7.091416 -100.284478 37.1061
7.453794 -99.245083 37.958715
6.526241 -100.238236 35.681642
6.577355 -101.316223 36.217968
7.091416 -100.284478 37.1061
7.537598 -93.608529 36.174469
7.524797 -93.77597 37.5208
7.4269 -94.624206 35.438938
7.537598 -93.608529 36.174469
7.386128 -93.429657 34.772526
7.805621 -84.440064 27.872516
7.652525 -83.300572 27.323776
7.771185 -85.615555 28.401027
7.805621 -84.440064 27.872516
8.088044 -85.328797 27.108425
7.835055 -86.792507 28.969141
7.771185 -85.615555 28.401027
7.922808 -87.721817 28.192737
7.704254 -88.010036 29.524943
7.835055 -86.792507 28.969141
9.072441 -83.351483 22.698927
8.746052 -82.479919 23.512695
9.062348 -82.234493 22.223425
10.580598 -72.235184 8.612742
10.179697 -72.460388 9.649121
11.521434 -73.24807 7.879781
10.580598 -72.235184 8.612742
10.941505 -72.016655 7.58861
12.18953 -72.714218 5.880641
11.310237 -71.721779 6.596829
11.617425 -71.406456 5.621821
11.389392 -66.47454 1.674041
12.077691 -67.963478 1.81364
11.203882 -67.116715 2.519164
11.608277 -65.801147 0.86876
11.389392 -66.47454 1.674041
11.724381 -65.028183 0.077253
12.379305 -66.548339 0.177009
11.608277 -65.801147 0.86876
11.11865 -63.504176 0.025124
10.38775 -61.987871 -0.008392
11.889678 -64.251368 -0.666627
11.724381 -65.028183 0.077253
11.11865 -63.504176 0.025124
11.053449 -58.634464 -2.562143
11.639867 -60.059809 -2.646279
10.947546 -59.570127 -1.977558
11.243099 -57.791922 -3.067446
11.053449 -58.634464 -2.562143
15.363408 -52.286938 -9.194062
14.883525 -53.350649 -8.93355
15.769372 -52.28278 -9.930421
15.363408 -52.286938 -9.194062
15.449233 -53.372652 -10.339827
15.769372 -52.28278 -9.930421
5.447116 -121.261112 -4.620363
5.241145 -121.444362 -3.21517
4.67386 -120.411834 -3.137831
5.447116 -121.261112 -4.620363
5.644015 -120.95869 -5.984217
6.3928 -118.481788 -11.8949
6.60781 -117.705806 -12.825692
20.814163 -110.973194 -20.640635
19.085462 -111.861351 -20.252583
19.898103 -110.245731 -20.461105
20.814163 -110.973194 -20.640635
22.576556 -109.985977 -21.010046
24.466617 -101.326401 -21.35667
23.49815 -103.219174 -21.177198
22.778663 -102.389286 -20.962284
26.086573 -100.189312 -21.793091
24.466617 -101.326401 -21.35667
25.367085 -99.359424 -21.578176
27.753428 -98.960605 -22.192459
26.086573 -100.189312 -21.793091
27.856503 -96.151612 -22.299008
26.324889 -97.355213 -21.805792
27.19435 -95.284489 -22.090203
28.572409 -96.930633 -22.458856
27.856503 -96.151612 -22.299008
27.753428 -98.960605 -22.192459
28.572409 -96.930633 -22.458856
30.811848 -72.051815 -24.673821
30.006778 -74.553173 -23.92705
29.867679 -73.146652 -23.83308
31.398004 -68.10038 -25.416877
30.645489 -69.14542 -24.505703
31.370745 -66.600506 -25.342729
31.526345 -69.521523 -25.454483
31.398004 -68.10038 -25.416877
32.2516 -66.976608 -26.29151
30.811848 -72.051815 -24.673821
31.526345 -69.521523 -25.454483
3 0 126 124
3 1 129 127
3 503 132 504
3 505 504 130
3 503 504 505
3 507 506 132
3 4 135 133
3 4 137 135
3 5 140 138
3 5 142 140
3 5 144 142
3 3 508 510
3 510 509 145
3 508 509 510
3 6 148 146
3 6 150 148
3 2 153 151
3 7 156 154
3 7 158 156
3 7 160 158
3 8 163 161
3 10 511 513
3 511 165 512
3 511 512 513
3 10 167 165
3 11 170 168
3 13 173 171
3 13 175 173
3 14 178 176
3 16 181 179
3 16 183 181
3 16 185 183
3 17 188 186
3 19 191 189
3 19 193 191
3 9 196 194
3 20 199 197
3 20 201 199
3 20 203 201
3 514 206 515
3 516 515 204
3 514 515 516
3 518 517 206
3 519 209 520
3 21 521 523
3 521 210 522
3 521 522 523
3 21 212 210
3 21 214 212
3 22 217 215
3 22 219 217
3 524 220 525
3 23 223 221
3 23 225 223
3 526 227 527
3 24 230 228
3 24 232 230
3 24 234 232
3 25 237 235
3 25 239 237
3 25 241 239
3 26 244 242
3 26 246 244
3 528 249 529
3 530 529 247
3 528 529 530
3 27 531 533
3 531 251 532
3 531 532 533
3 27 253 251
3 27 255 253
3 12 534 536
3 536 535 256
3 534 535 536
3 28 259 257
3 28 537 539
3 539 538 259
3 537 538 539
3 18 262 260
3 29 265 263
3 29 267 265
3 15 270 268
3 30 273 271
3 30 275 273
3 30 277 275
3 540 280 541
3 542 541 278
3 540 541 542
3 544 543 280
3 545 283 546
3 547 546 281
3 545 546 547
3 548 284 549
3 548 549 550
3 552 551 284
3 553 285 554
3 32 288 286
3 34 289 125
3 34 290 289
3 35 293 291
3 555 294 556
3 557 295 558
3 559 558 294
3 557 558 559
3 561 560 295
3 37 299 297
3 39 300 128
3 39 301 300
3 40 304 302
3 42 305 131
3 42 306 305
3 42 308 306
3 44 562 564
3 562 309 563
3 562 563 564
3 45 310 134
3 45 311 310
3 45 313 311
3 47 314 136
3 47 315 314
3 565 316 566
3 567 319 568
3 569 568 317
3 567 568 569
3 50 320 139
3 50 321 320
3 50 323 321
3 52 324 141
3 52 325 324
3 52 327 325
3 54 328 143
3 54 329 328
3 55 570 572
3 572 571 330
3 570 571 572
3 56 573 575
3 575 574 147
3 573 574 575
3 56 576 578
3 576 331 577
3 576 577 578
3 56 332 331
3 58 333 149
3 58 334 333
3 59 337 335
3 61 338 152
3 61 339 338
3 62 342 340
3 64 343 155
3 64 344 343
3 64 346 344
3 66 347 157
3 66 579 581
3 581 580 347
3 579 580 581
3 66 582 583
3 585 584 159
3 67 350 348
3 69 351 162
3 69 352 351
3 31 353 282
3 70 354 164
3 70 355 354
3 70 356 355
3 71 586 588
3 586 357 587
3 586 587 588
3 71 589 591
3 591 590 357
3 589 590 591
3 72 358 166
3 72 359 358
3 592 360 593
3 595 594 360
3 74 364 362
3 75 365 169
3 75 366 365
3 33 367 287
3 76 368 172
3 76 369 368
3 76 370 369
3 77 371 174
3 77 372 371
3 78 375 373
3 80 376 177
3 80 377 376
3 36 378 292
3 81 379 180
3 81 380 379
3 81 381 380
3 82 382 182
3 82 383 382
3 82 385 383
3 84 386 184
3 84 596 598
3 598 597 386
3 596 597 598
3 600 599 296
3 85 389 387
3 87 390 187
3 87 391 390
3 38 392 298
3 88 393 190
3 88 394 393
3 88 395 394
3 89 396 192
3 89 397 396
3 68 398 349
3 90 399 195
3 90 400 399
3 41 401 303
3 91 402 198
3 91 403 402
3 91 404 403
3 92 405 200
3 92 406 405
3 92 407 406
3 93 408 202
3 93 409 408
3 43 410 307
3 94 411 205
3 94 412 411
3 94 413 412
3 602 601 207
3 95 414 208
3 95 415 414
3 603 416 604
3 605 417 606
3 607 606 416
3 605 606 607
3 96 418 211
3 96 419 418
3 96 420 419
3 97 421 213
3 97 422 421
3 46 423 312
3 98 424 216
3 98 425 424
3 98 426 425
3 99 427 218
3 99 428 427
3 100 608 610
3 608 429 609
3 608 609 610
3 100 430 429
3 48 611 613
3 611 431 612
3 611 612 613
3 101 432 222
3 101 433 432
3 101 434 433
3 102 435 224
3 102 436 435
3 103 437 226
3 103 438 437
3 49 439 318
3 104 440 229
3 104 441 440
3 104 442 441
3 105 443 231
3 105 444 443
3 105 445 444
3 106 446 233
3 106 447 446
3 51 448 322
3 107 449 236
3 107 450 449
3 107 451 450
3 108 452 238
3 108 453 452
3 108 454 453
3 109 455 240
3 109 456 455
3 53 457 326
3 110 458 243
3 110 459 458
3 110 460 459
3 111 461 245
3 111 462 461
3 73 463 361
3 112 464 248
3 112 465 464
3 614 466 615
3 113 467 250
3 113 468 467
3 113 469 468
3 114 470 252
3 114 471 470
3 114 472 471
3 115 473 254
3 115 474 473
3 616 475 617
3 618 476 619
3 620 619 475
3 618 619 620
3 622 621 476
3 624 623 363
3 57 625 626
3 628 627 258
3 86 477 388
3 116 478 261
3 116 479 478
3 60 480 336
3 117 481 264
3 117 482 481
3 117 483 482
3 118 484 266
3 118 485 484
3 79 486 374
3 119 487 269
3 119 488 487
3 63 489 341
3 120 490 272
3 120 491 490
3 120 492 491
3 121 493 274
3 121 494 493
3 121 495 494
3 122 496 276
3 122 497 496
3 65 498 345
3 123 499 279
3 123 500 499
3 123 501 500
3 83 502 384
3 124 125 32
3 126 125 124
3 126 34 125
3 630 629 35
3 127 128 37
3 129 128 127
3 129 39 128
3 130 131 40
3 132 131 130
3 132 42 131
3 132 631 633
3 633 632 42
3 631 632 633
3 635 634 132
3 133 134 44
3 135 134 133
3 135 45 134
3 135 136 45
3 137 136 135
3 137 47 136
3 138 636 638
3 636 139 637
3 636 637 638
3 140 139 138
3 140 50 139
3 140 141 50
3 142 141 140
3 142 52 141
3 142 143 52
3 144 143 142
3 144 54 143
3 145 639 640
3 642 641 145
3 146 147 55
3 148 147 146
3 148 56 147
3 148 149 56
3 150 149 148
3 150 58 149
3 151 152 59
3 153 152 151
3 153 61 152
3 154 155 62
3 156 155 154
3 156 64 155
3 156 157 64
3 158 157 156
3 158 66 157
3 158 159 66
3 160 159 158
3 160 643 645
3 645 644 159
3 643 644 645
3 161 162 67
3 163 162 161
3 163 69 162
3 646 164 647
3 648 647 31
3 646 647 648
3 649 164 650
3 651 70 652
3 653 652 164
3 651 652 653
3 655 654 70
3 656 71 657
3 165 658 659
3 165 660 661
3 165 662 664
3 662 166 663
3 662 663 664
3 167 166 165
3 167 72 166
3 168 169 74
3 170 169 168
3 170 75 169
3 171 172 33
3 173 172 171
3 173 76 172
3 173 174 76
3 175 174 173
3 175 77 174
3 176 177 78
3 178 177 176
3 178 80 177
3 179 180 36
3 181 180 179
3 181 81 180
3 181 182 81
3 183 182 181
3 183 82 182
3 183 184 82
3 185 184 183
3 185 84 184
3 186 187 85
3 188 187 186
3 188 87 187
3 189 190 38
3 191 190 189
3 191 88 190
3 191 192 88
3 193 192 191
3 193 89 192
3 194 195 68
3 196 195 194
3 196 90 195
3 197 198 41
3 199 198 197
3 199 91 198
3 199 200 91
3 201 200 199
3 201 92 200
3 201 202 92
3 203 202 201
3 203 93 202
3 204 205 43
3 206 205 204
3 206 94 205
3 206 207 94
3 665 207 666
3 667 666 206
3 665 666 667
3 669 668 207
3 670 208 671
3 209 672 674
3 672 208 673
3 672 673 674
3 209 95 208
3 210 675 676
3 210 677 678
3 210 679 681
3 679 211 680
3 679 680 681
3 212 211 210
3 212 96 211
3 212 213 96
3 214 213 212
3 214 97 213
3 215 216 46
3 217 216 215
3 217 98 216
3 217 218 98
3 219 218 217
3 219 99 218
3 220 682 683
3 220 684 686
3 684 100 685
3 684 685 686
3 221 222 48
3 223 222 221
3 223 101 222
3 223 224 101
3 225 224 223
3 225 102 224
3 687 226 688
3 227 689 691
3 689 226 690
3 689 690 691
3 227 103 226
3 228 229 49
3 230 229 228
3 230 104 229
3 230 231 104
3 232 231 230
3 232 105 231
3 232 233 105
3 234 233 232
3 234 106 233
3 235 236 51
3 237 236 235
3 237 107 236
3 237 238 107
3 239 238 237
3 239 108 238
3 239 240 108
3 241 240 239
3 241 109 240
3 242 243 53
3 244 243 242
3 244 110 243
3 244 245 110
3 246 245 244
3 246 111 245
3 247 248 73
3 249 248 247
3 249 112 248
3 692 250 693
3 251 694 696
3 694 250 695
3 694 695 696
3 251 113 250
3 251 252 113
3 253 252 251
3 253 114 252
3 253 254 114
3 255 254 253
3 255 115 254
3 256 697 698
3 700 699 256
3 257 258 57
3 259 258 257
3 259 701 703
3 703 702 258
3 701 702 703
3 259 704 706
3 704 705 706
3 708 707 259
3 260 261 86
3 262 261 260
3 262 116 261
3 263 264 60
3 265 264 263
3 265 117 264
3 265 266 117
3 267 266 265
3 267 118 266
3 268 269 79
3 270 269 268
3 270 119 269
3 271 272 63
3 273 272 271
3 273 120 272
3 273 274 120
3 275 274 273
3 275 121 274
3 275 276 121
3 277 276 275
3 277 122 276
3 278 279 65
3 280 279 278
3 280 123 279
3 280 709 711
3 711 710 123
3 709 710 711
3 713 712 280
3 715 714 83
3 281 282 8
3 283 282 281
3 283 31 282
3 716 283 717
3 284 718 720
3 718 283 719
3 718 719 720
3 284 31 283
3 284 721 723
3 723 722 31
3 721 722 723
3 725 724 284
3 285 726 727
3 285 728 730
3 728 10 729
3 728 729 730
3 286 287 11
3 288 287 286
3 288 33 287
3 125 288 32
3 289 288 125
3 289 33 288
3 289 171 33
3 290 171 289
3 290 13 171
3 291 292 14
3 293 292 291
3 293 36 292
3 731 293 732
3 733 732 35
3 731 732 733
3 294 734 736
3 734 293 735
3 734 735 736
3 294 36 293
3 294 179 36
3 295 179 294
3 295 16 179
3 295 296 16
3 737 296 738
3 739 738 295
3 737 738 739
3 741 740 296
3 297 298 17
3 299 298 297
3 299 38 298
3 128 299 37
3 300 299 128
3 300 38 299
3 300 189 38
3 301 189 300
3 301 19 189
3 302 303 9
3 304 303 302
3 304 41 303
3 131 304 40
3 305 304 131
3 305 41 304
3 305 197 41
3 306 197 305
3 306 20 197
3 306 307 20
3 308 307 306
3 308 43 307
3 742 308 743
3 744 743 42
3 742 743 744
3 745 308 746
3 747 43 748
3 749 748 308
3 747 748 749
3 750 204 751
3 752 751 43
3 750 751 752
3 753 204 754
3 756 755 204
3 309 757 758
3 309 759 760
3 134 309 44
3 310 309 134
3 310 761 763
3 763 762 309
3 761 762 763
3 310 764 765
3 311 766 768
3 768 767 310
3 766 767 768
3 311 769 771
3 769 21 770
3 769 770 771
3 311 312 21
3 313 312 311
3 313 46 312
3 136 313 45
3 314 313 136
3 314 46 313
3 314 215 46
3 315 215 314
3 315 22 215
3 772 48 773
3 774 48 775
3 776 221 777
3 778 777 48
3 776 777 778
3 316 779 781
3 779 221 780
3 779 780 781
3 316 23 221
3 317 782 784
3 782 318 783
3 782 783 784
3 319 318 317
3 319 49 318
3 139 785 787
3 785 319 786
3 785 786 787
3 320 319 139
3 320 49 319
3 320 228 49
3 321 228 320
3 321 24 228
3 321 322 24
3 323 322 321
3 323 51 322
3 141 323 50
3 324 323 141
3 324 51 323
3 324 235 51
3 325 235 324
3 325 25 235
3 325 326 25
3 327 326 325
3 327 53 326
3 143 327 52
3 328 327 143
3 328 53 327
3 328 242 53
3 329 242 328
3 329 26 242
3 788 27 789
3 791 790 27
3 330 792 794
3 794 793 12
3 792 793 794
3 796 795 330
3 147 797 799
3 799 798 55
3 797 798 799
3 801 800 147
3 331 802 803
3 331 804 805
3 331 806 807
3 332 808 810
3 810 809 331
3 808 809 810
3 332 811 813
3 811 57 812
3 811 812 813
3 149 332 56
3 333 332 149
3 333 57 332
3 333 257 57
3 334 257 333
3 334 28 257
3 335 336 18
3 337 336 335
3 337 60 336
3 152 337 59
3 338 337 152
3 338 60 337
3 338 263 60
3 339 263 338
3 339 29 263
3 340 341 15
3 342 341 340
3 342 63 341
3 155 342 62
3 343 342 155
3 343 63 342
3 343 271 63
3 344 271 343
3 344 30 271
3 344 345 30
3 346 345 344
3 346 65 345
3 157 346 64
3 347 346 157
3 347 65 346
3 347 278 65
3 814 278 815
3 816 815 347
3 814 815 816
3 818 817 278
3 159 819 821
3 821 820 66
3 819 820 821
3 823 822 159
3 348 349 1
3 350 349 348
3 350 68 349
3 162 350 67
3 351 350 162
3 351 68 350
3 351 194 68
3 352 194 351
3 352 9 194
3 282 163 8
3 353 163 282
3 353 69 163
3 164 353 31
3 354 353 164
3 354 69 353
3 354 352 69
3 355 352 354
3 355 9 352
3 355 302 9
3 356 302 355
3 356 40 302
3 824 356 825
3 826 825 70
3 824 825 826
3 357 827 829
3 827 356 828
3 827 828 829
3 357 40 356
3 357 130 40
3 830 130 831
3 832 831 357
3 830 831 832
3 834 833 130
3 835 44 836
3 166 837 838
3 358 839 841
3 841 840 166
3 839 840 841
3 358 842 844
3 842 44 843
3 842 843 844
3 358 133 44
3 359 133 358
3 359 4 133
3 845 317 846
3 847 317 848
3 850 849 317
3 851 138 852
3 360 853 855
3 853 138 854
3 853 854 855
3 360 5 138
3 360 361 5
3 856 361 857
3 858 857 360
3 856 857 858
3 859 73 860
3 861 860 361
3 859 860 861
3 862 73 863
3 864 247 865
3 866 865 73
3 864 865 866
3 867 247 868
3 870 869 247
3 362 363 3
3 364 363 362
3 364 871 873
3 873 872 363
3 871 872 873
3 169 364 74
3 365 364 169
3 365 874 876
3 876 875 364
3 874 875 876
3 365 877 879
3 877 256 878
3 877 878 879
3 366 256 365
3 366 12 256
3 287 170 11
3 367 170 287
3 367 75 170
3 172 367 33
3 368 367 172
3 368 75 367
3 368 366 75
3 369 366 368
3 369 12 366
3 369 330 12
3 370 330 369
3 370 55 330
3 174 370 76
3 371 370 174
3 371 55 370
3 371 146 55
3 372 146 371
3 372 6 146
3 373 374 2
3 375 374 373
3 375 79 374
3 177 375 78
3 376 375 177
3 376 79 375
3 376 268 79
3 377 268 376
3 377 15 268
3 292 178 14
3 378 178 292
3 378 80 178
3 180 378 36
3 379 378 180
3 379 80 378
3 379 377 80
3 380 377 379
3 380 15 377
3 380 340 15
3 381 340 380
3 381 62 340
3 182 381 81
3 382 381 182
3 382 62 381
3 382 154 62
3 383 154 382
3 383 7 154
3 383 384 7
3 385 384 383
3 385 83 384
3 184 385 82
3 386 385 184
3 386 83 385
3 386 880 882
3 882 881 83
3 880 881 882
3 884 883 386
3 296 185 16
3 885 185 886
3 887 886 296
3 885 886 887
3 888 84 889
3 890 889 185
3 888 889 890
3 891 84 892
3 894 893 84
3 387 388 0
3 389 388 387
3 389 86 388
3 187 389 85
3 390 389 187
3 390 86 389
3 390 260 86
3 391 260 390
3 391 18 260
3 298 188 17
3 392 188 298
3 392 87 188
3 190 392 38
3 393 392 190
3 393 87 392
3 393 391 87
3 394 391 393
3 394 18 391
3 394 335 18
3 395 335 394
3 395 59 335
3 192 395 88
3 396 395 192
3 396 59 395
3 396 151 59
3 397 151 396
3 397 2 151
3 349 129 1
3 398 129 349
3 398 39 129
3 195 398 68
3 399 398 195
3 399 39 398
3 399 301 39
3 400 301 399
3 400 19 301
3 303 196 9
3 401 196 303
3 401 90 196
3 198 401 41
3 402 401 198
3 402 90 401
3 402 400 90
3 403 400 402
3 403 19 400
3 403 193 19
3 404 193 403
3 404 89 193
3 200 404 91
3 405 404 200
3 405 89 404
3 405 397 89
3 406 397 405
3 406 2 397
3 406 373 2
3 407 373 406
3 407 78 373
3 202 407 92
3 408 407 202
3 408 78 407
3 408 176 78
3 409 176 408
3 409 14 176
3 307 203 20
3 410 203 307
3 410 93 203
3 205 410 43
3 411 410 205
3 411 93 410
3 411 409 93
3 412 409 411
3 412 14 409
3 412 291 14
3 413 291 412
3 413 35 291
3 207 413 94
3 895 413 896
3 897 896 207
3 895 896 897
3 898 35 899
3 900 899 413
3 898 899 900
3 902 901 35
3 208 903 904
3 414 905 907
3 907 906 208
3 905 906 907
3 414 908 909
3 414 910 912
3 910 145 911
3 910 911 912
3 415 145 414
3 415 3 145
3 416 913 914
3 416 915 916
3 416 917 919
3 917 209 918
3 917 918 919
3 417 209 416
3 417 95 209
3 211 920 922
3 920 417 921
3 920 921 922
3 418 417 211
3 418 95 417
3 418 415 95
3 419 415 418
3 419 3 415
3 419 362 3
3 420 362 419
3 420 74 362
3 213 420 96
3 421 420 213
3 421 74 420
3 421 168 74
3 422 168 421
3 422 11 168
3 312 214 21
3 423 214 312
3 423 97 214
3 216 423 46
3 424 423 216
3 424 97 423
3 424 422 97
3 425 422 424
3 425 11 422
3 425 286 11
3 426 286 425
3 426 32 286
3 218 426 98
3 427 426 218
3 427 32 426
3 427 124 32
3 428 124 427
3 428 0 124
3 429 923 924
3 429 925 926
3 429 927 929
3 927 285 928
3 927 928 929
3 430 285 429
3 430 10 285
3 930 220 931
3 431 932 934
3 932 220 933
3 932 933 934
3 431 100 220
3 222 431 48
3 432 431 222
3 432 100 431
3 432 430 100
3 433 430 432
3 433 10 430
3 433 167 10
3 434 167 433
3 434 72 167
3 224 434 101
3 435 434 224
3 435 72 434
3 435 359 72
3 436 359 435
3 436 4 359
3 226 935 936
3 437 937 939
3 939 938 226
3 937 938 939
3 437 940 941
3 437 942 944
3 942 316 943
3 942 943 944
3 438 316 437
3 438 23 316
3 318 945 947
3 945 227 946
3 945 946 947
3 439 227 318
3 439 103 227
3 229 439 49
3 440 439 229
3 440 103 439
3 440 438 103
3 441 438 440
3 441 23 438
3 441 225 23
3 442 225 441
3 442 102 225
3 231 442 104
3 443 442 231
3 443 102 442
3 443 436 102
3 444 436 443
3 444 4 436
3 444 137 4
3 445 137 444
3 445 47 137
3 233 445 105
3 446 445 233
3 446 47 445
3 446 315 47
3 447 315 446
3 447 22 315
3 322 234 24
3 448 234 322
3 448 106 234
3 236 448 51
3 449 448 236
3 449 106 448
3 449 447 106
3 450 447 449
3 450 22 447
3 450 219 22
3 451 219 450
3 451 99 219
3 238 451 107
3 452 451 238
3 452 99 451
3 452 428 99
3 453 428 452
3 453 0 428
3 453 387 0
3 454 387 453
3 454 85 387
3 240 454 108
3 455 454 240
3 455 85 454
3 455 186 85
3 456 186 455
3 456 17 186
3 326 241 25
3 457 241 326
3 457 109 241
3 243 457 53
3 458 457 243
3 458 109 457
3 458 456 109
3 459 456 458
3 459 17 456
3 459 297 17
3 460 297 459
3 460 37 297
3 245 460 110
3 461 460 245
3 461 37 460
3 461 127 37
3 462 127 461
3 462 1 127
3 361 144 5
3 463 144 361
3 463 54 144
3 248 463 73
3 464 463 248
3 464 54 463
3 464 329 54
3 465 329 464
3 465 26 329
3 948 249 949
3 466 950 952
3 950 249 951
3 950 951 952
3 466 112 249
3 250 953 955
3 953 466 954
3 953 954 955
3 467 466 250
3 467 112 466
3 467 465 112
3 468 465 467
3 468 26 465
3 468 246 26
3 469 246 468
3 469 111 246
3 252 469 113
3 470 469 252
3 470 111 469
3 470 462 111
3 471 462 470
3 471 1 462
3 471 348 1
3 472 348 471
3 472 67 348
3 254 472 114
3 473 472 254
3 473 67 472
3 473 161 67
3 474 161 473
3 474 8 161
3 956 255 957
3 958 957 27
3 956 957 958
3 959 255 960
3 961 115 962
3 963 962 255
3 961 962 963
3 475 964 965
3 475 966 968
3 966 115 967
3 966 967 968
3 475 474 115
3 476 474 475
3 476 8 474
3 476 281 8
3 969 281 970
3 971 970 476
3 969 970 971
3 973 972 281
3 974 71 975
3 976 71 977
3 979 978 71
3 363 980 982
3 982 981 3
3 980 981 982
3 984 983 363
3 986 985 12
3 258 987 989
3 989 988 57
3 987 988 989
3 991 990 258
3 388 126 0
3 477 126 388
3 477 34 126
3 261 477 86
3 478 477 261
3 478 34 477
3 478 290 34
3 479 290 478
3 479 13 290
3 336 262 18
3 480 262 336
3 480 116 262
3 264 480 60
3 481 480 264
3 481 116 480
3 481 479 116
3 482 479 481
3 482 13 479
3 482 175 13
3 483 175 482
3 483 77 175
3 266 483 117
3 484 483 266
3 484 77 483
3 484 372 77
3 485 372 484
3 485 6 372
3 374 153 2
3 486 153 374
3 486 61 153
3 269 486 79
3 487 486 269
3 487 61 486
3 487 339 61
3 488 339 487
3 488 29 339
3 341 270 15
3 489 270 341
3 489 119 270
3 272 489 63
3 490 489 272
3 490 119 489
3 490 488 119
3 491 488 490
3 491 29 488
3 491 267 29
3 492 267 491
3 492 118 267
3 274 492 120
3 493 492 274
3 493 118 492
3 493 485 118
3 494 485 493
3 494 6 485
3 494 150 6
3 495 150 494
3 495 58 150
3 276 495 121
3 496 495 276
3 496 58 495
3 496 334 58
3 497 334 496
3 497 28 334
3 345 277 30
3 498 277 345
3 498 122 277
3 279 498 65
3 499 498 279
3 499 122 498
3 499 497 122
3 500 497 499
3 500 28 497
3 500 992 994
3 994 993 28
3 992 993 994
3 501 995 997
3 997 996 500
3 995 996 997
3 501 998 999
3 1000 501 1001
3 1002 1001 123
3 1000 1001 1002
3 1003 501 1004
3 1006 1005 501
3 384 160 7
3 502 160 384
3 502 1007 1009
3 1009 1008 160
3 1007 1008 1009
3 1010 502 1011
3 1012 1011 83
3 1010 1011 1012
3 1013 502 1014
3 1013 1014 1015
3 1017 1016 502
