ply
format ascii 1.0
element vertex 582
property float x
property float y
property float z
element face 620
property list uchar int vertex_index
end_header
-21.638996 -104.221436 24.208786
-15.531427 -89.399826 50.344109
-27.519571 -84.422577 45.103256
-37.25843 -101.365616 29.58073
-12.155848 -85.580765 63.131405
-24.488567 -77.719177 55.02573
-41.905926 -101.659866 21.040045
-13.397329 -99.353348 44.368782
-19.252331 -95.323669 36.48357
-18.796894 -81.142395 58.931953
-21.650375 -84.9104 45.583496
-25.764318 -92.772156 33.340504
-32.068024 -94.31073 37.324112
-30.017879 -102.797394 24.016659
-34.128521 -108.646484 16.748699
-12.3843 -91.706848 53.441971
-11.510908 -95.975174 50.435734
-14.551246 -94.416702 47.005424
-16.272814 -97.649872 40.310184
-17.517391 -91.955933 43.412331
-22.948151 -81.137321 50.685612
-24.645496 -84.140076 44.789719
-23.645123 -88.286606 39.168137
-26.737583 -88.310913 39.441677
-34.612648 -98.629761 33.536285
-31.397564 -98.38327 30.432529
-33.853561 -102.490463 26.544121
-32.149452 -106.588074 20.298494
-36.25523 -104.9263 22.797335
-43.660095 -100.285309 16.486593
-40.240597 -104.782043 14.953961
-41.97155 -103.409164 10.78643
-10.329187 -89.240662 59.508919
-13.64056 -87.413422 56.990429
-26.244179 -74.123367 58.26289
-39.769516 -102.254395 25.416622
-44.436371 -97.229477 22.218061
-10.521318 -99.588745 47.61282
-20.574678 -99.498322 29.95853
-15.529198 -83.490814 61.033489
-16.880747 -84.933304 54.463627
-21.807528 -79.133057 56.918789
-19.995911 -82.648453 52.287628
-18.601566 -86.834641 47.534763
-20.534122 -89.611893 40.568939
-22.437347 -93.439713 33.943855
-24.180958 -98.139542 28.030033
-29.017675 -93.327957 34.681599
-27.883621 -97.889725 28.287685
-25.845947 -103.172073 23.049791
-38.396584 -105.54007 18.970121
-13.971655 -90.646973 51.898777
-13.491507 -93.008743 50.265507
-15.02381 -91.870071 48.569256
-16.036079 -93.23822 45.171001
-16.535793 -90.58606 46.899124
-44.535366 -100.335312 9.203323
-25.161026 -82.309311 47.396553
-26.098387 -84.179718 44.824593
-25.656727 -86.086609 42.041069
-27.132235 -86.330795 42.406837
-37.473003 -99.571671 33.059036
-35.934193 -100.228149 31.583273
-34.319878 -100.549667 30.001638
-35.608749 -102.07634 28.071447
-35.074883 -103.942001 24.668268
-36.877052 -103.138229 26.128387
-42.931744 -101.834396 13.622867
-43.747299 -101.080994 11.416284
-42.837425 -102.686417 8.678363
-10.499302 -86.278275 64.132706
-9.515181 -87.969818 62.369358
-11.161873 -87.39798 61.286247
-11.987049 -88.464462 58.276482
-12.834209 -86.505905 60.140759
-45.19136 -96.427826 19.657553
-12.559528 -97.622086 47.44429
-11.061829 -97.901932 49.032188
-11.961603 -99.688919 46.143768
-17.740904 -96.49791 38.296413
-16.861559 -99.490555 36.943687
-18.379108 -98.398666 34.910385
-19.962708 -97.320312 33.144241
-17.187473 -82.304352 59.975838
-16.155945 -84.185593 57.81271
-17.771214 -82.967941 56.694473
-23.189564 -78.349365 55.957024
-22.26775 -82.937752 48.184299
-21.495434 -81.776711 51.407494
-20.768921 -83.656372 48.920757
-19.244944 -84.628204 49.876774
-20.128201 -85.747391 46.425385
-19.55658 -88.095444 44.034004
-21.083593 -87.123779 43.004715
-24.700928 -90.409531 36.165817
-23.09338 -90.727921 36.440063
-24.095097 -92.931778 33.382942
-23.328394 -95.706589 30.878735
-25.076303 -95.341446 30.523958
-29.382141 -91.254623 37.968903
-30.567116 -93.834824 35.899651
-30.828121 -100.527359 27.09527
-29.677097 -98.09816 29.171328
-28.946684 -100.429199 26.063141
-26.996378 -100.442322 25.47765
-27.95899 -102.923569 23.287027
-26.695765 -105.570511 20.899437
-28.931341 -105.207809 21.282932
-33.168495 -107.852005 18.526405
-40.891636 -102.101547 23.253872
-39.222717 -103.890991 22.141602
-40.259579 -103.688019 20.078257
-39.015316 -106.376053 12.025162
-38.152935 -106.910187 14.004572
-10.770149 -92.466827 54.8909
-10.337084 -94.391693 53.343342
-11.928867 -93.882477 51.886669
-13.045954 -95.3647 48.796658
-14.035182 -96.945694 45.623894
-14.830657 -98.642227 42.382042
-15.495035 -95.959152 43.677605
-16.95462 -94.777115 41.733185
-18.433212 -93.5327 39.924149
-19.932718 -79.398819 61.095821
-23.690304 -79.4245 52.987217
-24.350471 -80.730606 50.122864
-23.733629 -82.493706 47.678207
-23.15999 -84.372238 45.036682
-22.618683 -86.448868 42.319145
-24.148512 -86.106995 42.000137
-25.203945 -88.140579 39.102676
-26.298698 -90.438446 36.363884
-33.319748 -96.625854 35.445866
-31.786509 -96.328384 33.896431
-33.039711 -98.605087 31.937052
-32.620438 -100.611572 28.455582
-31.988752 -102.692947 25.14448
-31.091286 -104.881638 22.111246
-33.144577 -104.494278 23.282438
-34.271709 -105.860275 21.467161
-35.344215 -106.757324 19.657846
-42.821594 -101.025009 18.781101
-41.208359 -103.213745 17.965801
-42.090679 -102.566452 15.810397
-41.107559 -104.127029 12.882888
-39.89473 -105.717468 10.015421
-11.30583 -90.468323 56.526344
-12.939974 -89.528824 55.139961
-14.551562 -88.35907 53.716221
-38.80442 -100.315948 30.940235
-38.549294 -102.030792 27.525642
-40.084549 -100.609604 28.740517
-41.274937 -100.512634 26.472202
-42.350601 -100.109131 24.145823
-43.573944 -97.961319 24.752228
-43.306198 -99.492966 21.771116
-44.154846 -98.752838 19.358707
-9.94953 -96.169434 51.836674
-9.084137 -99.029572 48.72501
-15.397791 -100.458206 39.098358
-21.11903 -101.817566 26.970524
-13.843089 -84.616272 62.091282
-14.505541 -85.398788 58.971313
-15.274357 -86.198776 55.703171
-16.137642 -87.075943 52.323219
-20.341019 -80.070839 57.91114
-22.305849 -80.034935 53.779778
-20.854656 -80.841324 54.664989
-19.340544 -81.831818 55.639763
-18.455851 -83.721085 53.314014
-17.701038 -85.796738 51.025063
-17.071404 -88.088409 48.863087
-18.042414 -89.285843 45.356773
-19.012875 -90.704514 41.844856
-19.94693 -92.363876 38.374954
-22.081898 -88.783371 39.661129
-21.502432 -91.396713 37.189041
-20.818108 -94.264572 34.999184
-21.615801 -96.38739 31.769613
-22.34827 -98.693222 28.732674
-23.040075 -101.123657 25.922813
-28.575565 -86.74791 43.038403
-28.233757 -88.716293 40.12925
-27.863047 -90.755035 36.991058
-27.413378 -92.932312 33.795052
-30.19591 -95.913513 32.500893
-28.539501 -95.524719 31.399372
-26.824963 -95.298889 30.711666
-26.039547 -97.87793 27.886248
-25.012861 -100.659821 25.419666
-23.723759 -103.602539 23.356108
-29.904264 -107.188843 19.416513
-38.091026 -103.730988 24.156006
-37.367413 -105.445053 20.904303
-36.344872 -107.193253 17.82173
-39.346966 -105.286804 16.986155
-37.274197 -107.216705 15.93907
-35.024746 -108.987015 14.932673
-20.814447 -105.781029 23.523999
-20.634586 -104.602104 24.886387
-21.908409 -105.429299 22.94437
-20.814447 -105.781029 23.523999
-45.207371 -99.143669 9.361751
-44.859701 -99.532227 10.522893
-26.808979 -84.301147 44.963925
-26.325304 -83.258766 46.071428
-27.035896 -83.380195 46.21076
-44.465667 -99.905068 11.629373
-44.095428 -100.294449 12.79267
-44.859701 -99.532227 10.522893
-44.141333 -100.708153 10.309803
-44.465667 -99.905068 11.629373
-12.986653 -100.446937 43.76899
-12.26879 -100.614723 44.656482
-12.679466 -99.521133 45.256275
-13.685215 -100.264366 42.795046
-12.986653 -100.446937 43.76899
-17.992184 -81.723373 59.453896
-17.765495 -81.408954 61.045922
-18.570206 -80.827976 60.523979
-23.839066 -78.034271 55.491377
-23.662783 -77.499313 56.925466
-24.312285 -77.184219 56.45982
-32.190684 -93.29168 38.932648
-32.803673 -94.465225 38.071506
-31.463852 -93.058281 38.258272
-32.190684 -93.29168 38.932648
-31.31757 -94.072777 36.611881
-30.713398 -92.820328 37.546042
-31.463852 -93.058281 38.258272
-32.949024 -109.283798 16.306016
-32.469011 -108.886559 17.194869
-33.648508 -108.249245 17.637552
-33.378584 -109.621223 15.410926
-32.949024 -109.283798 16.306016
-37.862983 -107.472145 11.584238
-38.296284 -107.191025 10.606211
-20.54128 -78.537171 62.108805
-19.762122 -79.07909 62.629331
-25.028261 -80.629704 49.916449
-24.681101 -79.86409 51.203823
-34.713291 -97.655236 35.270279
-35.372141 -98.491424 34.31004
-33.966198 -97.627808 34.491076
-34.066841 -96.653282 36.225069
-34.713291 -97.655236 35.270279
-41.389767 -104.213821 9.389318
-40.351357 -105.367973 9.003814
-40.93314 -104.563316 10.400925
-42.291357 -103.507866 7.324044
-43.262291 -102.332779 7.623918
-9.510748 -89.442391 60.072501
-9.103745 -88.806969 61.50272
-9.922184 -88.60524 60.939138
-9.995945 -90.156205 58.659197
-9.510748 -89.442391 60.072501
-10.817508 -89.854492 58.017632
-10.484267 -90.770035 57.16791
-9.995945 -90.156205 58.659197
-25.691072 -74.505432 58.921274
-26.21631 -73.583595 59.645504
-25.79197 -75.042809 57.521241
-25.691072 -74.505432 58.921274
-39.521206 -99.623383 31.492724
-38.870783 -99.434296 32.625368
-40.16127 -99.770211 30.392865
-39.444485 -100.462776 29.840376
-39.521206 -99.623383 31.492724
-41.929655 -99.530876 26.85878
-41.370417 -99.707832 28.077305
-42.467487 -99.329125 25.695591
-41.812769 -100.310883 25.309013
-41.929655 -99.530876 26.85878
-44.005157 -97.595398 23.485144
-44.057913 -96.834885 24.897566
-44.489126 -96.468964 23.630482
-45.055672 -97.193543 18.289463
-45.529411 -96.016754 18.372305
-10.034748 -98.660835 48.963926
-10.305003 -97.817429 49.67361
-10.791574 -98.745339 48.322504
-9.802727 -99.309158 48.168915
-9.316157 -98.381248 49.520021
-10.034748 -98.660835 48.963926
-10.185683 -100.283562 46.86595
-9.467092 -100.003975 47.422045
-9.802727 -99.309158 48.168915
-16.3004 -100.940056 36.377792
-17.065696 -100.482185 35.285303
-19.927004 -101.085747 29.229374
-19.72733 -99.981949 30.793475
-20.846854 -100.657944 28.464527
-20.19918 -102.245369 27.735371
-19.927004 -101.085747 29.229374
-15.259422 -83.140083 62.556593
-16.108104 -82.578415 62.072615
-14.686144 -84.053543 61.562386
-14.416367 -83.702812 63.085489
-15.259422 -83.140083 62.556593
-21.621171 -78.750816 58.485544
-22.322316 -78.291183 57.951969
-21.074274 -79.601948 57.414964
-20.887916 -79.219707 58.981719
-21.621171 -78.750816 58.485544
-29.134783 -87.995575 42.060835
-29.288111 -86.987603 43.448863
-28.963878 -88.979766 40.606258
-28.404661 -87.732101 41.583827
-29.134783 -87.995575 42.060835
-25.137083 -104.605446 22.03744
-24.075989 -104.820678 22.190599
-24.784853 -103.387306 23.202949
-25.932046 -106.951165 19.898259
-27.129802 -106.658844 19.912378
-36.573957 -108.073761 14.501254
-37.713566 -107.063446 14.971821
-37.013326 -107.920502 13.534005
-35.449232 -108.958916 13.998056
-36.149472 -108.10186 15.435871
-36.573957 -108.073761 14.501254
-34.234457 -109.907967 13.582317
-35.449232 -108.958916 13.998056
-44.906513 -99.96328 8.098695
-44.111261 -101.157227 7.886398
-44.906513 -99.96328 8.098695
-45.207371 -99.143669 9.361751
-25.856623 -82.323562 47.357408
-25.433538 -81.419056 48.553293
-25.629706 -83.244514 46.110573
-25.856623 -82.323562 47.357408
-26.325304 -83.258766 46.071428
-36.802318 -98.962379 34.071415
-37.539978 -98.643608 34.754738
-36.032913 -99.290618 33.333534
-36.802318 -98.962379 34.071415
-36.703598 -99.89991 32.321154
-35.273421 -99.428955 32.559779
-35.372141 -98.491424 34.31004
-36.032913 -99.290618 33.333534
-43.687651 -100.67115 13.895961
-43.295919 -101.059853 15.05473
-44.051827 -99.896606 15.327824
-43.339522 -101.457695 12.519575
-43.687651 -100.67115 13.895961
-44.095428 -100.294449 12.79267
-44.111261 -101.157227 7.886398
-43.262291 -102.332779 7.623918
-43.686396 -101.510864 8.940843
-10.007241 -87.124046 63.251032
-9.210934 -87.28994 63.719995
-9.702994 -86.444168 64.601669
-26.722361 -73.161163 58.887041
-26.21631 -73.583595 59.645504
-44.86207 -96.068634 22.290313
-44.489126 -96.468964 23.630482
-45.239565 -95.667809 21.01006
-44.813866 -96.828652 20.937807
-44.86207 -96.068634 22.290313
-45.565467 -95.251343 19.664551
-45.239565 -95.667809 21.01006
-45.529411 -96.016754 18.372305
-45.565467 -95.251343 19.664551
-11.581381 -100.587105 45.485031
-10.861239 -100.537018 46.219557
-11.241461 -99.638832 46.878294
-11.581381 -100.587105 45.485031
-12.26879 -100.614723 44.656482
-17.82447 -99.936241 34.268652
-17.065696 -100.482185 35.285303
-17.620334 -98.944611 35.927036
-18.629545 -99.432121 33.269402
-17.82447 -99.936241 34.268652
-19.421345 -98.892944 32.38633
-18.629545 -99.432121 33.269402
-19.170908 -97.859489 34.027313
-20.268693 -98.409317 31.551386
-19.72733 -99.981949 30.793475
-19.421345 -98.892944 32.38633
-16.937241 -81.985184 61.543789
-17.765495 -81.408954 61.045922
-16.358335 -82.897583 60.504664
-16.108104 -82.578415 62.072615
-16.937241 -81.985184 61.543789
-23.013334 -77.899338 57.471086
-23.662783 -77.499313 56.925466
-22.498546 -78.741211 56.437906
-22.322316 -78.291183 57.951969
-23.013334 -77.899338 57.471086
-30.120911 -91.530227 38.580667
-29.53807 -90.248931 39.526085
-29.974629 -92.544724 36.934277
-30.120911 -91.530227 38.580667
-30.713398 -92.820328 37.546042
-28.24759 -106.477493 20.104126
-27.129802 -106.658844 19.912378
-27.813553 -105.38916 21.091184
-32.013065 -108.315597 18.077787
-31.503543 -107.683632 18.963832
-32.658974 -107.22004 19.41245
-32.013065 -108.315597 18.077787
-32.469011 -108.886559 17.194869
-37.431793 -107.739212 12.573943
-38.584125 -106.64312 13.014867
-37.862983 -107.472145 11.584238
-37.013326 -107.920502 13.534005
-37.431793 -107.739212 12.573943
-10.259173 -85.67392 65.446415
-9.702994 -86.444168 64.601669
-11.056915 -85.436134 65.020871
-10.259173 -85.67392 65.446415
-11.885188 -85.087379 64.52022
-11.327575 -85.92952 63.632055
-11.056915 -85.436134 65.020871
-10.553617 -93.42926 54.117121
-9.740234 -93.613129 54.758665
-9.956767 -92.650695 55.532444
-19.138117 -79.956188 61.605913
-19.762122 -79.07909 62.629331
-19.364806 -80.270607 60.013887
-18.570206 -80.827976 60.523979
-19.138117 -79.956188 61.605913
-24.351018 -79.211037 52.635999
-24.089436 -78.571838 54.006473
-24.750149 -78.358375 53.655256
-24.020387 -80.077553 51.555041
-24.351018 -79.211037 52.635999
-24.681101 -79.86409 51.203823
-24.755748 -81.519959 48.759709
-25.028261 -80.629704 49.916449
-25.433538 -81.419056 48.553293
-33.429535 -95.622787 37.132384
-34.066841 -96.653282 36.225069
-32.693886 -95.468292 36.384989
-32.803673 -94.465225 38.071506
-33.429535 -95.622787 37.132384
-38.73599 -106.861732 9.60134
-38.296284 -107.191025 10.606211
-39.455023 -106.046761 11.020291
-39.199549 -106.531768 8.61588
-38.73599 -106.861732 9.60134
-39.199549 -106.531768 8.61588
-40.351357 -105.367973 9.003814
-41.822704 -103.852448 8.335285
-41.389767 -104.213821 9.389318
-42.404488 -103.047791 9.732397
-41.822704 -103.852448 8.335285
-42.291357 -103.507866 7.324044
-8.7208 -88.051758 62.859751
-9.210934 -87.28994 63.719995
-8.7208 -88.051758 62.859751
-9.103745 -88.806969 61.50272
-10.216426 -91.769287 56.350188
-9.956767 -92.650695 55.532444
-11.03799 -91.467575 55.708622
-10.216426 -91.769287 56.350188
-10.484267 -90.770035 57.16791
-24.914164 -76.840713 55.902661
-24.312285 -77.184219 56.45982
-26.760518 -73.775993 57.578012
-26.722361 -73.161163 58.887041
-26.35722 -74.748039 56.954962
-26.760518 -73.775993 57.578012
-25.79197 -75.042809 57.521241
-26.35722 -74.748039 56.954962
-25.102892 -77.472263 54.574984
-24.914164 -76.840713 55.902661
-24.750149 -78.358375 53.655256
-25.102892 -77.472263 54.574984
-27.720161 -83.466263 46.256847
-27.035896 -83.380195 46.21076
-38.205074 -99.062157 33.684769
-37.539978 -98.643608 34.754738
-38.138711 -99.94381 31.999636
-38.205074 -99.062157 33.684769
-38.870783 -99.434296 32.625368
-40.775223 -99.756317 29.211462
-40.16127 -99.770211 30.392865
-40.679743 -100.561119 27.606359
-40.775223 -99.756317 29.211462
-41.370417 -99.707832 28.077305
-43.623323 -97.190849 26.223034
-44.057913 -96.834885 24.897566
-43.079158 -98.255219 25.998793
-43.623323 -97.190849 26.223034
-42.962272 -99.035225 24.449025
-42.467487 -99.329125 25.695591
-43.079158 -98.255219 25.998793
-44.537414 -98.356048 18.14004
-44.673103 -97.590332 19.50813
-45.055672 -97.193543 18.289463
-44.290039 -99.122284 16.703983
-43.907471 -99.519073 17.92265
-44.537414 -98.356048 18.14004
-44.051827 -99.896606 15.327824
-44.290039 -99.122284 16.703983
-9.534729 -94.428253 53.955694
-9.740234 -93.613129 54.758665
-9.340952 -95.317124 53.20236
-9.534729 -94.428253 53.955694
-10.143307 -95.280563 52.590008
-9.164786 -96.035759 52.391243
-9.340952 -95.317124 53.20236
-9.748854 -96.951179 51.075854
-10.505679 -97.035683 50.434431
-10.305003 -97.817429 49.67361
-9.164786 -96.035759 52.391243
-9.748854 -96.951179 51.075854
-8.560704 -98.064065 49.992945
-9.316157 -98.381248 49.520021
-8.375041 -98.526734 49.100096
-8.560704 -98.064065 49.992945
-8.806591 -99.527611 47.874437
-8.375041 -98.526734 49.100096
-8.806591 -99.527611 47.874437
-9.467092 -100.003975 47.422045
-10.185683 -100.283562 46.86595
-10.861239 -100.537018 46.219557
-14.401879 -99.908806 41.801676
-13.685215 -100.264366 42.795046
-14.113993 -98.997788 43.375412
-14.685447 -100.816796 40.159834
-14.401879 -99.908806 41.801676
-15.114224 -99.550217 40.7402
-14.838238 -101.771881 38.562744
-14.685447 -100.816796 40.159834
-15.568516 -101.423881 37.455128
-16.129675 -99.97438 38.021023
-16.3004 -100.940056 36.377792
-14.838238 -101.771881 38.562744
-15.568516 -101.423881 37.455128
-20.374603 -103.40017 26.267256
-20.19918 -102.245369 27.735371
-21.379013 -103.019501 25.589655
-20.634586 -104.602104 24.886387
-20.374603 -103.40017 26.267256
-12.720551 -84.689637 64.072813
-11.885188 -85.087379 64.52022
-13.564172 -84.20739 63.552751
-14.416367 -83.702812 63.085489
-12.999469 -85.098518 62.611344
-12.720551 -84.689637 64.072813
-13.564172 -84.20739 63.552751
-20.683766 -78.883698 60.57406
-20.54128 -78.537171 62.108805
-20.136868 -79.734829 59.503481
-20.683766 -78.883698 60.57406
-20.887916 -79.219707 58.981719
-28.220914 -84.600312 45.337806
-27.720161 -83.466263 46.256847
-28.748911 -85.762978 44.30538
-29.288111 -86.987603 43.448863
-28.047568 -85.585244 44.07083
-28.220914 -84.600312 45.337806
-28.748911 -85.762978 44.30538
-28.807949 -89.985458 39.049076
-28.963878 -88.979766 40.606258
-29.53807 -90.248931 39.526085
-22.950791 -105.11985 22.518031
-21.908409 -105.429299 22.94437
-22.681377 -103.911987 23.782447
-22.950791 -105.11985 22.518031
-24.075989 -104.820678 22.190599
-25.561992 -105.804665 20.962263
-25.137083 -104.605446 22.03744
-26.270856 -104.371292 21.974614
-25.561992 -105.804665 20.962263
-25.932046 -106.951165 19.898259
-28.734051 -107.46801 19.170916
-28.24759 -106.477493 20.104126
-29.417803 -106.198326 20.349722
-30.380949 -107.984016 18.522841
-31.026858 -106.888459 19.857503
-31.503543 -107.683632 18.963832
-29.170397 -108.395409 18.242294
-30.380949 -107.984016 18.522841
-28.734051 -107.46801 19.170916
-29.170397 -108.395409 18.242294
-33.826696 -109.791489 14.502913
-33.378584 -109.621223 15.410926
-34.576633 -108.81675 15.840686
-33.826696 -109.791489 14.502913
-34.234457 -109.907967 13.582317
3 0 198 199
3 0 200 201
3 1 53 51
3 1 55 53
3 203 202 56
3 2 204 206
3 204 58 205
3 204 205 206
3 2 60 58
3 3 62 61
3 3 64 62
3 3 66 64
3 207 68 208
3 209 56 210
3 211 210 68
3 209 210 211
3 4 72 70
3 4 74 72
3 7 78 76
3 7 212 214
3 214 213 78
3 212 213 214
3 7 215 216
3 8 81 79
3 8 82 81
3 9 217 219
3 217 83 218
3 217 218 219
3 9 85 83
3 5 220 222
3 220 86 221
3 220 221 222
3 10 89 87
3 10 91 89
3 10 93 91
3 11 96 94
3 11 98 96
3 12 223 224
3 12 225 226
3 12 227 229
3 227 100 228
3 227 228 229
3 13 103 101
3 13 105 103
3 13 107 105
3 14 230 232
3 232 231 108
3 230 231 232
3 14 233 234
3 6 111 109
3 236 235 112
3 15 116 114
3 17 117 52
3 17 118 117
3 17 120 118
3 19 121 54
3 19 122 121
3 237 123 238
3 239 125 240
3 21 126 57
3 21 127 126
3 21 129 127
3 23 130 59
3 23 131 130
3 24 241 242
3 24 243 245
3 243 132 244
3 243 244 245
3 24 134 132
3 26 135 63
3 26 136 135
3 26 138 136
3 28 139 65
3 28 140 139
3 29 143 141
3 31 144 67
3 31 145 144
3 31 246 248
3 248 247 145
3 246 247 248
3 250 249 69
3 32 251 253
3 253 252 71
3 251 252 253
3 32 254 255
3 32 256 258
3 256 146 257
3 256 257 258
3 33 147 73
3 33 148 147
3 34 259 260
3 34 261 262
3 263 149 264
3 265 151 266
3 267 266 149
3 265 266 267
3 268 152 269
3 270 153 271
3 272 271 152
3 270 271 272
3 36 273 275
3 273 154 274
3 273 274 275
3 36 155 154
3 36 156 155
3 277 276 75
3 16 157 115
3 37 278 280
3 280 279 77
3 278 279 280
3 37 281 283
3 281 158 282
3 281 282 283
3 37 284 286
3 286 285 158
3 284 285 286
3 18 159 119
3 288 287 80
3 38 289 290
3 38 291 293
3 291 160 292
3 291 292 293
3 39 294 295
3 39 296 298
3 296 161 297
3 296 297 298
3 39 162 161
3 40 163 84
3 40 164 163
3 41 299 300
3 41 301 303
3 301 165 302
3 301 302 303
3 20 166 124
3 42 167 88
3 42 168 167
3 42 169 168
3 43 170 90
3 43 171 170
3 43 172 171
3 44 173 92
3 44 174 173
3 22 175 128
3 45 176 95
3 45 177 176
3 45 178 177
3 46 179 97
3 46 180 179
3 304 181 305
3 306 182 307
3 308 307 181
3 306 307 308
3 47 183 99
3 47 184 183
3 25 185 133
3 48 186 102
3 48 187 186
3 48 188 187
3 49 189 104
3 49 190 189
3 49 309 311
3 311 310 190
3 309 310 311
3 313 312 106
3 27 191 137
3 35 192 150
3 50 193 110
3 50 194 193
3 30 195 142
3 314 196 315
3 316 315 113
3 314 315 316
3 317 197 318
3 319 318 196
3 317 318 319
3 321 320 197
3 51 52 15
3 53 52 51
3 53 17 52
3 53 54 17
3 55 54 53
3 55 19 54
3 56 322 323
3 325 324 56
3 326 57 327
3 58 328 330
3 328 57 329
3 328 329 330
3 58 21 57
3 58 59 21
3 60 59 58
3 60 23 59
3 61 331 332
3 62 333 335
3 335 334 61
3 333 334 335
3 62 336 338
3 336 24 337
3 336 337 338
3 62 63 24
3 64 63 62
3 64 26 63
3 64 65 26
3 66 65 64
3 66 28 65
3 339 67 340
3 341 340 29
3 339 340 341
3 68 342 344
3 342 67 343
3 342 343 344
3 68 31 67
3 68 69 31
3 56 69 68
3 56 345 347
3 347 346 69
3 345 346 347
3 70 348 350
3 348 71 349
3 348 349 350
3 72 71 70
3 72 32 71
3 72 73 32
3 74 73 72
3 74 33 73
3 351 34 352
3 353 36 354
3 355 75 356
3 357 356 36
3 355 356 357
3 358 75 359
3 361 360 75
3 76 77 16
3 78 77 76
3 78 37 77
3 78 362 364
3 364 363 37
3 362 363 364
3 366 365 78
3 79 80 18
3 81 80 79
3 81 367 369
3 369 368 80
3 367 368 369
3 81 370 371
3 82 372 374
3 374 373 81
3 372 373 374
3 82 375 377
3 375 38 376
3 375 376 377
3 83 378 379
3 83 380 382
3 380 39 381
3 380 381 382
3 83 84 39
3 85 84 83
3 85 40 84
3 86 383 384
3 86 385 387
3 385 41 386
3 385 386 387
3 87 88 20
3 89 88 87
3 89 42 88
3 89 90 42
3 91 90 89
3 91 43 90
3 91 92 43
3 93 92 91
3 93 44 92
3 94 95 22
3 96 95 94
3 96 45 95
3 96 97 45
3 98 97 96
3 98 46 97
3 388 99 389
3 100 390 392
3 390 99 391
3 390 391 392
3 100 47 99
3 101 102 25
3 103 102 101
3 103 48 102
3 103 104 48
3 105 104 103
3 105 49 104
3 105 106 49
3 107 106 105
3 107 393 395
3 395 394 106
3 393 394 395
3 108 396 398
3 398 397 27
3 396 397 398
3 400 399 108
3 109 110 35
3 111 110 109
3 111 50 110
3 112 113 30
3 401 113 402
3 403 402 112
3 401 402 403
3 405 404 113
3 406 70 407
3 408 70 409
3 410 4 411
3 412 411 70
3 410 411 412
3 114 413 415
3 413 115 414
3 413 414 415
3 116 115 114
3 116 16 115
3 52 116 15
3 117 116 52
3 117 16 116
3 117 76 16
3 118 76 117
3 118 7 76
3 118 119 7
3 120 119 118
3 120 18 119
3 54 120 17
3 121 120 54
3 121 18 120
3 121 79 18
3 122 79 121
3 122 8 79
3 123 416 417
3 123 418 420
3 418 9 419
3 418 419 420
3 421 124 422
3 423 422 5
3 421 422 423
3 125 424 426
3 424 124 425
3 424 425 426
3 125 20 124
3 57 427 429
3 427 125 428
3 427 428 429
3 126 125 57
3 126 20 125
3 126 87 20
3 127 87 126
3 127 10 87
3 127 128 10
3 129 128 127
3 129 22 128
3 59 129 21
3 130 129 59
3 130 22 129
3 130 94 22
3 131 94 130
3 131 11 94
3 132 430 431
3 132 432 434
3 432 12 433
3 432 433 434
3 132 133 12
3 134 133 132
3 134 25 133
3 63 134 24
3 135 134 63
3 135 25 134
3 135 101 25
3 136 101 135
3 136 13 101
3 136 137 13
3 138 137 136
3 138 27 137
3 65 138 26
3 139 138 65
3 139 27 138
3 139 108 27
3 140 108 139
3 140 14 108
3 141 142 6
3 143 142 141
3 143 30 142
3 67 143 29
3 144 143 67
3 144 30 143
3 144 112 30
3 145 112 144
3 145 435 437
3 437 436 112
3 435 436 437
3 145 438 439
3 441 440 145
3 69 442 444
3 444 443 31
3 442 443 444
3 446 445 69
3 71 447 448
3 450 449 71
3 451 114 452
3 146 453 455
3 453 114 454
3 453 454 455
3 146 15 114
3 73 146 32
3 147 146 73
3 147 15 146
3 147 51 15
3 148 51 147
3 148 1 51
3 456 5 457
3 458 34 459
3 460 34 461
3 463 462 34
3 464 5 465
3 467 466 5
3 468 2 469
3 470 61 471
3 149 472 474
3 472 61 473
3 472 473 474
3 149 3 61
3 149 150 3
3 151 150 149
3 151 35 150
3 475 151 476
3 152 477 479
3 477 151 478
3 477 478 479
3 152 35 151
3 152 109 35
3 153 109 152
3 153 6 109
3 154 480 481
3 154 482 483
3 154 484 486
3 484 153 485
3 484 485 486
3 155 153 154
3 155 6 153
3 155 141 6
3 156 141 155
3 156 29 141
3 75 156 36
3 487 156 488
3 489 488 75
3 487 488 489
3 490 29 491
3 492 491 156
3 490 491 492
3 494 493 29
3 115 495 496
3 157 497 499
3 499 498 115
3 497 498 499
3 157 500 501
3 77 157 16
3 502 157 503
3 504 503 77
3 502 503 504
3 506 505 157
3 158 507 508
3 158 509 510
3 158 511 512
3 514 513 158
3 516 515 37
3 119 517 519
3 519 518 7
3 517 518 519
3 159 520 522
3 522 521 119
3 520 521 522
3 159 523 524
3 80 159 18
3 525 159 526
3 527 526 80
3 525 526 527
3 529 528 159
3 160 530 531
3 160 532 534
3 532 0 533
3 532 533 534
3 535 4 536
3 161 537 538
3 161 539 541
3 539 4 540
3 539 540 541
3 161 74 4
3 162 74 161
3 162 33 74
3 84 162 39
3 163 162 84
3 163 33 162
3 163 148 33
3 164 148 163
3 164 1 148
3 542 123 543
3 165 544 546
3 544 123 545
3 544 545 546
3 165 9 123
3 124 86 5
3 166 86 124
3 166 41 86
3 88 166 20
3 167 166 88
3 167 41 166
3 167 165 41
3 168 165 167
3 168 9 165
3 168 85 9
3 169 85 168
3 169 40 85
3 90 169 42
3 170 169 90
3 170 40 169
3 170 164 40
3 171 164 170
3 171 1 164
3 171 55 1
3 172 55 171
3 172 19 55
3 92 172 43
3 173 172 92
3 173 19 172
3 173 122 19
3 174 122 173
3 174 8 122
3 128 93 10
3 175 93 128
3 175 44 93
3 95 175 22
3 176 175 95
3 176 44 175
3 176 174 44
3 177 174 176
3 177 8 174
3 177 82 8
3 178 82 177
3 178 38 82
3 97 178 45
3 179 178 97
3 179 38 178
3 179 160 38
3 180 160 179
3 180 0 160
3 547 2 548
3 181 549 550
3 181 551 553
3 551 2 552
3 551 552 553
3 181 60 2
3 182 60 181
3 182 23 60
3 99 554 556
3 554 182 555
3 554 555 556
3 183 182 99
3 183 23 182
3 183 131 23
3 184 131 183
3 184 11 131
3 133 100 12
3 185 100 133
3 185 47 100
3 102 185 25
3 186 185 102
3 186 47 185
3 186 184 47
3 187 184 186
3 187 11 184
3 187 98 11
3 188 98 187
3 188 46 98
3 104 188 48
3 189 188 104
3 189 46 188
3 189 180 46
3 190 180 189
3 190 0 180
3 190 557 559
3 559 558 0
3 557 558 559
3 561 560 190
3 106 562 564
3 564 563 49
3 562 563 564
3 566 565 106
3 137 107 13
3 191 107 137
3 191 567 569
3 569 568 107
3 567 568 569
3 570 191 571
3 572 571 27
3 570 571 572
3 573 191 574
3 576 575 191
3 150 66 3
3 192 66 150
3 192 28 66
3 110 192 35
3 193 192 110
3 193 28 192
3 193 140 28
3 194 140 193
3 194 14 140
3 142 111 6
3 195 111 142
3 195 50 111
3 113 195 30
3 196 195 113
3 196 50 195
3 196 194 50
3 197 194 196
3 197 14 194
3 197 577 579
3 579 578 14
3 577 578 579
3 581 580 197
