ply
format ascii 1.0
element vertex 880
property float x
property float y
property float z
element face 1061
property list uchar int vertex_index
end_header
47.362888 20.020355 28.231661
52.572174 43.289768 1.791972
47.481964 55.660614 9.429482
54.830681 33.506935 15.139504
45.925564 42.342335 30.133554
41.602715 28.147312 47.305573
47.382755 49.420944 20.558455
50.027161 26.796013 21.242685
51.473625 53.578568 -5.606697
47.220535 54.726784 -13.422504
53.383507 49.784485 3.517124
56.280018 38.873962 8.346491
52.351662 44.822216 13.438243
48.745644 38.519024 22.287096
44.106739 30.925568 29.654217
42.631516 35.200233 38.404007
42.493549 23.39209 37.610298
42.665787 19.714642 55.656502
45.536674 16.442116 46.387421
49.82391 14.198208 36.610695
56.896919 26.69276 8.462997
48.848511 39.67392 2.597615
52.334118 37.569599 4.579227
48.11525 23.301266 24.51976
52.407539 21.35136 19.984167
51.627907 18.565186 23.573189
51.962898 16.098511 27.592045
52.395519 48.531067 -1.839567
49.964645 50.027313 -5.5121
50.653206 52.823265 6.016113
53.223366 47.438492 8.465079
50.140705 50.16684 11.410587
47.012798 45.967979 25.613358
48.406494 44.047676 21.701973
46.884094 40.516239 26.13467
46.340649 34.813583 26.035645
44.948124 36.763996 30.142876
50.848164 55.213806 0.796498
40.957127 34.181957 47.082581
41.788704 37.522495 42.5112
41.669304 31.75206 42.74926
41.93494 29.293617 38.120834
41.900845 25.677834 42.492928
42.703201 14.813931 58.527649
47.420082 12.917963 50.42662
49.549088 11.872765 45.63213
47.253506 15.022583 41.450905
56.22813 36.363567 11.829028
56.718315 32.942413 9.046719
56.863907 30.349213 11.538561
44.71077 64.217583 -15.493031
44.469658 50.284889 -12.244444
47.392868 52.646004 15.071603
45.585632 54.836746 19.165779
46.113552 51.32003 24.539944
45.950821 47.698013 29.447199
40.732979 30.352982 51.681137
52.520584 30.276848 18.214123
55.742085 27.469574 14.118795
53.990852 24.39526 16.874199
49.567951 58.739067 -8.875736
47.92038 59.370064 -13.140818
49.58989 54.651321 -9.730436
47.265182 50.726288 -9.000563
54.253468 46.600441 2.075733
54.964775 41.15818 4.940167
55.225182 44.434402 6.28862
55.107372 42.042603 10.662028
53.86644 39.33181 14.882379
49.430107 47.257195 16.74044
50.830978 41.86845 18.112537
51.68708 36.214241 18.695045
49.003517 32.695896 22.11702
46.440998 28.920731 25.421843
44.6675 25.12891 28.94096
50.523365 57.248726 -4.175072
52.783287 51.867645 -1.187019
44.870388 44.116913 33.905457
43.253582 40.737595 38.157658
44.263081 38.709877 34.284805
43.082855 32.981133 34.036331
42.666706 27.074474 33.463482
44.200832 21.528297 32.852707
42.12991 24.169994 51.770729
45.288956 14.053318 54.865814
44.225452 18.181366 51.252205
42.856529 22.017525 46.988487
43.617153 19.879238 42.003551
45.190235 18.185452 37.097775
48.011047 17.02673 32.337894
55.120007 35.313824 6.700931
55.01091 29.03587 7.163147
57.487854 24.182434 10.19205
45.483276 58.799431 -16.684042
50.893784 41.542385 2.075253
50.645348 38.652325 3.584949
52.48444 40.50053 3.327242
47.569473 21.624592 26.318253
49.659309 20.795052 24.039885
49.404587 19.310081 25.920404
51.651665 17.298092 25.539959
49.477898 17.904465 27.907692
52.556923 45.955856 0.040083
51.235985 46.863358 -1.648607
51.105911 44.271839 0.306839
49.198128 42.50515 0.841825
49.033916 54.270821 7.620022
50.424339 51.525711 8.702747
48.842583 52.882248 10.385209
46.563881 44.16798 27.93615
47.054077 43.264755 25.951427
46.344368 41.441864 28.136124
45.945705 38.656303 28.17531
45.500362 39.588192 30.215439
49.21418 55.597275 4.893744
41.269619 31.211796 47.277161
41.415874 32.994823 44.973583
41.532097 29.984612 45.014
41.663536 28.72406 42.665955
41.773361 26.914848 44.926552
55.679955 34.983494 13.516178
56.578117 33.390682 11.862485
56.059868 31.986568 13.326954
42.603634 48.036148 -11.284437
46.147156 49.51564 27.056517
40.038765 33.334549 51.322838
39.90052 31.211594 53.540878
51.246685 28.554562 19.715551
53.142159 27.298672 17.618416
52.036964 25.639477 19.089718
54.118267 18.947491 19.348179
50.65213 56.132256 -7.331806
49.872063 56.67585 -9.504318
50.595505 54.216858 -7.710747
48.345703 48.2575 -4.929871
48.633774 50.501419 -7.280508
46.865776 48.640694 -6.548836
45.405853 48.749802 -8.154474
54.121532 48.207153 2.656427
54.866409 45.542519 4.147772
54.402924 47.118088 4.939976
52.872086 46.16761 10.96876
54.264511 44.76202 9.6443
53.843422 43.479877 11.991651
54.621525 40.733879 12.811973
53.197411 42.113209 14.27739
47.400711 51.061012 17.853722
48.479141 49.934349 15.912949
48.273987 48.370178 18.598305
48.634762 41.317398 22.081242
49.487617 42.996387 19.855288
49.849152 40.243969 20.264503
51.302597 39.084446 18.528675
50.115639 37.412338 20.46846
50.372292 34.499447 20.441961
48.831932 35.640728 22.30007
45.1637 32.878006 27.838999
46.241714 31.870934 25.780741
45.091576 29.927448 27.518105
45.417255 27.011429 27.138054
44.146236 27.986107 29.308762
49.128208 60.025764 -5.446899
49.335655 59.08622 -2.948349
52.187668 52.47274 2.112988
52.050011 53.545815 -0.350225
53.178299 50.862328 1.128813
53.619774 49.236572 0.446042
44.683399 46.720718 33.415848
43.99268 44.999802 35.594986
42.30899 36.360718 40.505173
42.46183 39.122993 40.307587
43.029701 38.022797 38.365562
43.857822 39.714241 36.271839
43.398079 36.9384 36.327301
43.667107 35.885162 34.221466
42.849148 34.068951 36.237473
41.98217 26.302944 37.876671
42.183006 28.146427 35.782478
42.406937 25.209381 35.495293
43.143326 24.210255 33.149483
43.17099 22.404484 35.21022
41.609318 20.260132 57.518997
41.62273 22.743225 55.859398
41.531826 25.085781 53.938805
42.43409 22.003372 53.818817
46.849564 11.494452 54.369156
46.538521 14.70322 48.47187
45.697929 15.437927 50.864914
44.869659 17.303097 48.848297
43.535149 20.129368 49.176231
43.99577 19.121784 46.709709
43.179752 20.914165 44.49868
44.525459 18.159893 44.216599
48.418049 14.537083 39.017555
46.132252 16.590443 39.277794
47.325489 16.031429 36.860027
46.438263 17.550316 34.703964
48.807678 15.604836 34.471245
50.560726 15.26178 32.091419
55.780342 40.036697 6.617798
55.094482 38.292984 5.989019
55.993767 37.144405 7.413429
56.815601 29.848003 8.873598
56.119217 31.055309 7.940697
56.116951 27.882214 7.766338
56.121235 24.64724 7.45155
56.350891 24.476353 13.304847
56.855282 25.893425 12.078945
41.03437 65.985764 -17.993704
47.848846 57.020851 -13.480118
46.806335 59.250786 -15.017939
46.592804 56.74295 -15.220121
50.396217 35.594662 4.797118
52.156197 34.493114 5.518784
48.956116 25.034042 22.833857
51.033619 23.981586 20.634014
50.218239 22.357689 22.278572
51.889194 19.916534 21.717022
54.178017 15.560921 25.167294
54.655525 14.544777 27.259621
52.046261 51.057182 -3.751574
51.034378 51.789078 -5.751032
51.230717 49.353737 -3.700119
49.816032 47.647354 -3.299397
52.167847 51.325691 4.642399
53.396786 48.642746 5.969716
52.006054 50.112526 7.22681
51.72039 48.835655 9.842256
51.324974 47.492798 12.453185
47.273506 47.722595 23.152279
47.998009 46.738068 21.181267
47.602875 45.034821 23.635769
47.712021 42.319275 23.984358
47.664051 39.548065 24.175926
47.55793 36.702671 24.199413
46.602646 37.701374 26.159897
45.500366 35.799255 28.068184
44.426762 33.868855 29.944267
49.400986 58.020561 -0.391914
49.349297 56.851738 2.221659
50.803993 54.055511 3.376315
40.550594 37.01421 46.69677
41.015007 38.646816 44.38953
41.282738 35.891857 44.774445
41.76054 34.697716 42.708656
42.039482 33.480167 40.541939
42.208755 32.279522 38.309364
41.804947 30.504593 40.453178
41.773277 27.48304 40.275631
42.102604 24.490269 40.044384
41.453659 17.65897 58.876495
42.767342 17.312225 57.232986
48.083511 11.062717 52.215988
48.456757 12.352701 48.051544
47.430187 14.024017 46.031944
46.308647 15.665207 43.912109
48.435295 13.458824 43.581261
49.599976 13.042786 41.141945
56.432926 37.655426 10.095437
56.55632 35.955647 8.883872
56.752602 34.710011 10.375437
56.973614 31.680557 10.280743
57.153107 28.588223 9.872414
42.526276 66.595421 -16.342276
43.383354 63.77552 -17.221487
46.061764 52.492554 -12.990051
45.853981 54.303963 -15.047789
44.635525 51.934845 -14.533268
46.115215 56.978485 11.408318
47.411415 54.179344 12.251036
46.213799 55.405891 14.260533
46.381416 53.785728 17.094807
46.568295 52.119667 19.874372
44.907078 55.773071 21.203627
45.900391 53.096077 21.903383
46.701454 50.406883 22.563757
46.703236 48.648895 25.135014
46.512276 46.854248 27.573023
46.100365 45.040459 29.879242
40.236893 35.258743 49.022377
40.790264 32.347305 49.401634
41.283306 29.313786 49.578438
53.748253 31.934479 16.699427
55.255943 30.495647 14.764886
54.250053 28.926613 16.18737
54.894638 25.944653 15.463963
55.731445 23.04248 14.631434
53.132004 22.853348 18.374012
48.836151 59.185318 -11.080431
48.939331 56.987099 -11.564869
48.464745 54.834641 -11.643148
49.912292 52.344902 -7.687168
48.702293 52.675423 -9.550917
47.417305 52.735413 -11.32498
45.874989 50.661659 -10.659872
43.983135 48.552231 -9.736996
53.726795 44.965534 1.786997
53.877739 42.244656 3.331319
54.694599 43.919361 3.606999
55.414047 42.829643 5.502057
55.846329 41.695747 7.457454
54.451912 45.971466 7.279763
55.309006 43.271435 8.472841
55.963745 40.507114 9.442381
55.753387 39.248459 11.416742
55.220455 37.903927 13.340206
54.391716 36.461243 15.182022
48.6591 51.436806 13.161805
49.812008 48.745773 14.103502
50.824913 46.077713 15.017756
48.971504 45.693344 19.28285
50.215656 44.581711 17.495516
51.668999 43.392387 15.830882
52.342152 40.65073 16.463953
52.872635 37.826492 16.846054
53.316307 34.914661 16.928873
52.063438 33.266865 18.587446
50.717403 31.530136 20.182882
49.370773 29.72604 21.753304
47.515602 33.785416 24.056511
47.664276 30.82642 23.761881
48.11718 27.883595 23.342209
47.044922 26.035748 24.990494
46.231533 24.214512 26.729612
45.738564 22.44574 28.576756
50.127823 58.07885 -6.564802
51.278992 55.403275 -5.074032
50.760361 56.284683 -1.72031
51.746941 54.530327 -2.745548
52.209251 52.782555 -3.431257
52.918591 50.194466 -1.688112
53.417175 47.602737 0.081573
45.188904 48.502396 31.175476
45.514374 45.890038 31.721657
45.480705 43.2314 32.072979
41.635311 40.21167 42.127468
43.195812 43.350437 37.750092
44.087029 42.397743 36.036423
44.706036 41.450798 34.18911
45.135303 40.515526 32.235664
44.580788 37.728836 32.228622
43.965302 34.865219 32.081818
43.463287 31.937126 31.832502
42.383976 31.123585 36.042267
42.692039 30.025478 33.770416
43.250546 28.983967 31.520128
43.478298 26.073994 31.181404
44.250248 23.296688 30.846075
45.606014 20.745029 30.532978
40.719944 28.178947 53.857407
41.394997 27.275967 51.821358
41.826408 26.214951 49.577492
44.076965 14.502029 56.822418
43.880363 16.80154 55.306915
46.384239 13.506577 52.715057
44.836189 16.159325 53.162712
43.517384 19.006199 53.543648
43.045822 21.112816 51.566811
42.541443 23.125759 49.431091
42.08939 25.054958 47.19812
42.283432 23.861576 44.74411
42.520878 22.698425 42.262932
42.913288 21.618591 39.789413
45.213898 17.303249 41.732243
44.263325 18.961166 39.531525
43.557697 20.657177 37.34655
44.524334 19.826729 34.945381
45.846214 19.115864 32.584061
47.514076 18.491348 30.246822
49.875149 16.564098 29.976181
52.535545 14.934158 29.694618
53.905552 39.411999 4.626633
53.847473 36.453159 5.611998
53.739452 33.367561 6.270094
56.092361 34.147984 7.848783
55.079903 32.223915 7.073769
53.613377 30.165581 6.636653
56.429665 28.943535 12.815775
57.14909 27.268978 10.938694
57.344536 25.459206 9.267268
57.001312 23.497925 7.956746
45.316364 61.514122 -16.252768
43.877098 60.884232 -17.826136
47.540711 56.372231 8.033112
46.791847 57.078666 8.99974
48.25794 54.965717 8.524752
48.316687 55.677334 7.128382
47.540711 56.372231 8.033112
41.934532 47.624066 -12.036751
41.634827 46.845249 -10.760776
39.334302 31.531559 54.313336
39.446465 32.668972 53.25613
55.158167 18.396853 18.159356
55.10458 17.85926 19.058789
46.596019 47.528473 -5.31501
47.605739 48.449097 -5.739353
47.335983 47.336876 -4.505528
45.821092 47.664947 -6.06843
46.596019 47.528473 -5.31501
48.604656 59.983173 -2.194006
48.565022 60.50882 -3.4878
43.396755 45.437386 36.358143
43.764906 46.266556 35.263546
47.651989 10.30793 54.094937
46.944973 10.445875 55.095848
50.644983 14.08061 35.413021
50.136868 14.783925 34.343296
49.315794 14.901522 35.54097
56.868195 23.675362 12.277338
56.734489 23.016858 12.878165
40.159014 65.488957 -18.698549
41.414589 64.474503 -18.348227
48.688147 38.162016 3.333784
47.733755 38.647574 2.945316
52.765941 18.150244 22.377322
52.896585 18.825918 21.449239
51.75855 19.24086 22.645105
52.774671 17.588845 23.351427
52.765941 18.150244 22.377322
49.677261 46.400643 -2.224536
50.526009 47.255356 -2.474002
50.387237 46.008645 -1.399141
48.871937 46.767193 -2.952283
49.677261 46.400643 -2.224536
47.929673 40.132765 2.087372
48.104481 41.54838 1.209477
49.023319 41.089535 1.71972
47.733755 38.647574 2.945316
47.929673 40.132765 2.087372
48.541445 57.644924 3.056392
48.594776 58.280414 1.710485
42.07843 16.236451 58.702072
41.298067 16.315109 59.403472
41.922838 14.89259 59.22905
49.002922 12.112733 46.841837
49.46357 11.294481 47.809507
50.009735 11.054513 46.599801
50.829699 12.180895 40.955536
50.170216 12.282871 42.170502
50.275284 12.910594 39.931477
50.829699 12.180895 40.955536
43.618523 65.406502 -15.917654
43.132812 66.710831 -15.390379
44.22506 65.521912 -14.965757
45.59684 56.802524 13.882979
46.164507 56.192188 12.834426
45.547548 57.588821 12.456871
45.983524 54.311237 18.130293
45.818191 55.162426 16.725125
45.420299 55.687935 17.760611
44.563816 56.172207 22.161874
44.33524 57.081863 20.848962
46.006971 52.208054 23.221663
45.585053 53.534558 22.880384
45.691633 52.646534 24.198664
45.547548 57.588821 12.456871
45.458034 58.39339 11.028105
39.734112 35.716299 49.876617
39.889532 36.636623 48.723252
49.202051 58.962193 -9.978084
48.525352 60.290329 -10.646897
48.891253 60.067203 -9.544549
43.645617 47.608483 -8.430454
44.694494 48.651016 -8.945735
44.356976 47.707268 -7.639194
42.960111 47.436138 -9.207595
43.645617 47.608483 -8.430454
44.659253 48.886551 31.944893
44.850651 49.785736 30.807713
42.818022 41.250866 39.037959
42.422146 40.443565 40.112923
42.857706 39.930294 39.232622
43.224697 42.044016 37.953875
42.789137 42.557287 38.834176
42.818022 41.250866 39.037959
40.701275 27.000228 54.857929
40.238907 28.52891 54.733136
44.682961 14.277674 55.844116
44.801673 13.181819 56.583016
45.407669 12.957463 55.604714
52.924276 14.348682 30.751351
51.548136 15.097969 30.893019
51.936867 14.512493 31.949752
53.922031 14.225136 29.530477
52.924276 14.348682 30.751351
54.252544 27.949787 6.980549
53.553778 28.514643 6.717302
54.312144 29.600725 6.8999
57.076366 21.889662 7.734457
57.294268 22.908007 8.286786
56.577919 22.432598 7.551766
57.076366 21.889662 7.734457
47.216297 60.580933 -13.792059
47.696354 60.554542 -12.77899
45.509845 55.221165 -15.908237
45.109117 53.934491 -15.780439
50.322201 44.712885 -0.421418
50.387237 46.008645 -1.399141
51.170948 45.567599 -0.670884
50.152019 43.388495 0.574332
49.368309 43.829541 -0.153925
50.322201 44.712885 -0.421418
48.406818 56.340561 5.765244
48.473886 57.017693 4.392434
49.124048 54.934048 6.256883
48.406818 56.340561 5.765244
48.316687 55.677334 7.128382
42.583089 13.530362 59.045368
41.922838 14.89259 59.22905
50.628555 10.912263 45.393771
50.009735 11.054513 46.599801
50.144772 11.697861 44.415594
50.628555 10.912263 45.393771
45.242233 64.260666 -14.508507
44.22506 65.521912 -14.965757
42.826614 48.815906 -12.515245
43.759626 49.940277 -12.995248
43.536646 49.160518 -11.76444
42.826614 48.815906 -12.515245
41.934532 47.624066 -12.036751
45.029075 56.191372 18.813626
45.420299 55.687935 17.760611
45.794061 51.736 25.473286
45.691633 52.646534 24.198664
45.810863 50.833805 26.731572
46.130354 50.417835 25.79823
45.794061 51.736 25.473286
45.802155 49.918602 27.950585
45.810863 50.833805 26.731572
45.703987 49.009788 29.145927
46.048989 48.606826 28.251858
45.802155 49.918602 27.950585
39.515587 33.73045 52.14711
39.635048 34.754202 51.026848
39.969642 32.273072 52.431858
39.515587 33.73045 52.14711
39.446465 32.668972 53.25613
54.32575 19.598081 18.496302
53.470387 20.800016 18.814296
53.262903 20.149425 19.666173
54.32575 19.598081 18.496302
55.158167 18.396853 18.159356
45.091131 47.719501 -6.871249
46.135814 48.695248 -7.351655
45.821092 47.664947 -6.06843
44.356976 47.707268 -7.639194
45.091131 47.719501 -6.871249
48.461298 60.978592 -4.737075
48.349691 61.431697 -6.00204
49.231932 59.555992 -4.197624
48.461298 60.978592 -4.737075
48.565022 60.50882 -3.4878
44.110265 47.127014 34.173977
44.4065 47.995712 33.065079
44.33804 45.86026 34.505417
44.110265 47.127014 34.173977
43.764906 46.266556 35.263546
41.085211 21.776362 57.565818
40.961449 20.438788 58.29084
41.091917 23.017908 56.736019
41.085211 21.776362 57.565818
41.616024 21.501678 56.689197
41.152668 24.282367 55.858925
41.091917 23.017908 56.736019
41.577278 23.914503 54.899102
41.107216 25.453646 54.898629
41.152668 24.282367 55.858925
46.187973 11.678031 55.356384
46.944973 10.445875 55.095848
46.06926 12.773885 54.617485
45.407669 12.957463 55.604714
46.187973 11.678031 55.356384
51.013391 14.612396 33.153383
49.684202 15.433308 33.281332
50.136868 14.783925 34.343296
51.936867 14.512493 31.949752
51.013391 14.612396 33.153383
55.530236 26.824402 7.420951
54.977215 27.40123 7.119356
55.56393 28.459042 7.464742
55.532377 25.206915 7.263557
55.530236 26.824402 7.420951
56.119093 26.264727 7.608944
55.509222 23.540146 7.200109
55.532377 25.206915 7.263557
57.12039 24.383898 11.664388
56.603087 25.184889 12.691896
56.868195 23.675362 12.277338
57.436676 23.528402 10.72094
57.171568 25.03793 11.135497
57.12039 24.383898 11.664388
39.674166 67.041328 -18.326329
40.507502 67.428055 -17.528742
39.674166 67.041328 -18.326329
40.159014 65.488957 -18.698549
49.586565 37.651218 3.82745
48.688147 38.162016 3.333784
49.74693 39.163123 3.091282
49.462 36.122387 4.433535
49.586565 37.651218 3.82745
50.520782 37.123493 4.191033
49.327576 34.517027 5.023557
49.462 36.122387 4.433535
50.283772 33.985613 5.256451
49.327576 34.517027 5.023557
51.163761 33.434839 5.617284
50.283772 33.985613 5.256451
51.276207 35.043888 5.157951
52.067432 32.886425 5.841641
51.163761 33.434839 5.617284
54.011122 18.341397 20.264817
53.003731 19.432012 20.532601
52.896585 18.825918 21.449239
55.10458 17.85926 19.058789
54.011122 18.341397 20.264817
52.786551 16.955298 24.334812
52.774671 17.588845 23.351427
51.639786 17.931639 24.556574
54.049726 16.086712 24.14848
52.786551 16.955298 24.334812
52.914841 16.429507 25.353626
55.290916 15.222511 23.936817
54.049726 16.086712 24.14848
55.500109 14.788926 24.975254
55.290916 15.222511 23.936817
55.738863 14.280853 26.021418
55.500109 14.788926 24.975254
54.416771 15.052849 26.213457
56.015173 13.84066 27.070259
55.738863 14.280853 26.021418
48.136772 47.072266 -3.76752
49.080867 47.952427 -4.114634
48.871937 46.767193 -2.952283
47.335983 47.336876 -4.505528
48.136772 47.072266 -3.76752
48.329813 42.923761 0.216949
49.368309 43.829541 -0.153925
48.329813 42.923761 0.216949
48.104481 41.54838 1.209477
48.620621 58.864826 0.403699
48.637321 59.450344 -0.915788
49.375141 57.436149 0.914872
48.620621 58.864826 0.403699
48.594776 58.280414 1.710485
49.281739 56.224507 3.557701
48.541445 57.644924 3.056392
48.473886 57.017693 4.392434
40.7828 37.830513 45.54315
40.492048 39.16793 45.245119
40.259842 38.351627 46.398739
40.687782 17.745241 59.529736
41.298067 16.315109 59.403472
40.88362 19.138207 58.969589
40.687782 17.745241 59.529736
41.531489 18.959551 58.197746
40.961449 20.438788 58.29084
40.88362 19.138207 58.969589
48.938335 9.937404 51.933094
48.268963 10.092063 53.018353
48.679348 10.843 51.074791
48.938335 9.937404 51.933094
48.347634 11.770623 50.180107
47.751796 11.99034 51.321304
48.679348 10.843 51.074791
48.865971 11.487992 48.992569
49.46357 11.294481 47.809507
47.93842 12.635332 49.239082
48.347634 11.770623 50.180107
48.865971 11.487992 48.992569
49.587876 12.49089 43.39016
48.992192 12.665795 44.606696
50.144772 11.697861 44.415594
49.017635 13.250805 42.361603
49.587876 12.49089 43.39016
50.170216 12.282871 42.170502
49.68432 13.657743 38.869281
49.009012 13.789935 40.07975
50.275284 12.910594 39.931477
50.387251 13.488305 37.665852
49.12098 14.367646 37.814125
49.68432 13.657743 38.869281
51.158133 13.415525 36.460781
50.387251 13.488305 37.665852
41.949833 67.921006 -15.780335
43.132812 66.710831 -15.390379
41.253455 67.732883 -16.703028
41.949833 67.921006 -15.780335
41.780323 66.290593 -17.16799
40.507502 67.428055 -17.528742
41.253455 67.732883 -16.703028
42.58908 63.369381 -17.962118
41.414589 64.474503 -18.348227
42.208862 64.880642 -17.607596
44.49989 52.749932 -15.523179
45.109117 53.934491 -15.780439
45.244753 53.119404 -14.790529
43.84256 50.765255 -14.13966
44.552592 51.109867 -13.388856
43.759626 49.940277 -12.995248
43.887354 51.504131 -15.244433
43.84256 50.765255 -14.13966
44.49989 52.749932 -15.523179
43.887354 51.504131 -15.244433
45.734383 55.972507 15.307989
45.59684 56.802524 13.882979
46.297607 54.59581 15.67767
45.734383 55.972507 15.307989
45.818191 55.162426 16.725125
44.689798 56.659534 19.832549
44.33524 57.081863 20.848962
45.246355 55.304908 20.184703
45.029075 56.191372 18.813626
44.689798 56.659534 19.832549
45.088396 54.873055 22.530506
44.563816 56.172207 22.161874
45.403734 54.434574 21.553505
45.088396 54.873055 22.530506
45.585053 53.534558 22.880384
46.108473 57.737602 9.989158
45.458034 58.39339 11.028105
46.798589 56.31955 10.4189
46.791847 57.078666 8.99974
46.108473 57.737602 9.989158
40.046382 37.514356 47.560448
40.259842 38.351627 46.398739
40.393743 36.136477 47.859573
40.046382 37.514356 47.560448
39.889532 36.636623 48.723252
40.137829 34.296646 50.172607
39.734112 35.716299 49.876617
39.635048 34.754202 51.026848
56.424767 22.299921 13.541458
56.734489 23.016858 12.878165
56.041168 23.759417 13.968141
53.832619 21.55101 18.009218
52.769772 22.102354 19.179089
53.470387 20.800016 18.814296
54.11377 22.237999 17.223992
53.832619 21.55101 18.009218
54.543194 23.008955 16.474085
53.561428 23.624304 17.624105
54.11377 22.237999 17.223992
55.41349 22.332565 15.352702
54.861148 23.71887 15.752817
54.543194 23.008955 16.474085
56.253498 21.651529 14.21804
55.41349 22.332565 15.352702
56.424767 22.299921 13.541458
56.253498 21.651529 14.21804
48.15424 60.46217 -11.748797
48.525352 60.290329 -10.646897
48.378265 59.277691 -12.110625
47.696354 60.554542 -12.77899
48.15424 60.46217 -11.748797
42.270361 47.178096 -9.981316
43.293385 48.29419 -10.510717
42.960111 47.436138 -9.207595
41.634827 46.845249 -10.760776
42.270361 47.178096 -9.981316
49.164034 59.773857 -8.376348
48.891253 60.067203 -9.544549
48.944163 60.417206 -6.66193
48.349691 61.431697 -6.00204
49.44397 59.443748 -7.220881
48.944163 60.417206 -6.66193
49.628016 59.052307 -6.005851
49.847887 58.408958 -7.720269
49.164034 59.773857 -8.376348
49.44397 59.443748 -7.220881
49.368321 58.55339 -1.670131
48.604656 59.983173 -2.194006
48.637321 59.450344 -0.915788
45.323028 49.41198 30.010065
44.850651 49.785736 30.807713
45.569862 48.100205 30.311338
45.703987 49.009788 29.145927
45.323028 49.41198 30.010065
44.936152 47.611557 32.295662
44.659253 48.886551 31.944893
44.4065 47.995712 33.065079
40.773947 39.950005 44.093263
40.492048 39.16793 45.245119
41.084099 40.732432 42.962232
40.773947 39.950005 44.093263
41.325159 39.429243 43.258499
41.429789 41.490347 41.830484
41.084099 40.732432 42.962232
42.008887 40.987904 41.022863
42.04857 39.667332 41.217528
42.422146 40.443565 40.112923
41.429789 41.490347 41.830484
42.008887 40.987904 41.022863
42.599184 43.822615 38.531537
42.789137 42.557287 38.834176
42.998322 44.612703 37.435696
42.599184 43.822615 38.531537
43.594246 44.17512 36.672539
43.396755 45.437386 36.358143
42.998322 44.612703 37.435696
39.829195 30.045233 54.574871
39.334302 31.531559 54.313336
40.310232 29.69527 53.699143
39.829195 30.045233 54.574871
40.238907 28.52891 54.733136
41.125885 26.632364 53.898106
40.701275 27.000228 54.857929
41.107216 25.453646 54.898629
43.388222 13.467284 58.308746
42.583089 13.530362 59.045368
44.075103 13.311332 57.456131
44.801673 13.181819 56.583016
43.390083 14.65798 57.675033
43.388222 13.467284 58.308746
44.075103 13.311332 57.456131
47.466538 11.278585 53.292572
47.651989 10.30793 54.094937
48.268963 10.092063 53.018353
54.982021 14.030445 28.312979
53.595535 14.739467 28.47712
53.922031 14.225136 29.530477
56.015173 13.84066 27.070259
54.982021 14.030445 28.312979
50.644983 14.08061 35.413021
51.158133 13.415525 36.460781
52.85906 32.323649 6.217296
52.067432 32.886425 5.841641
52.947824 33.930338 5.894439
52.796022 30.722659 6.400576
52.85906 32.323649 6.217296
53.676414 31.766571 6.453373
52.717264 29.055952 6.609922
52.796022 30.722659 6.400576
52.717264 29.055952 6.609922
53.553778 28.514643 6.717302
54.252544 27.949787 6.980549
54.977215 27.40123 7.119356
57.700859 22.649727 9.821822
57.436676 23.528402 10.72094
57.537538 23.250262 9.404439
57.700859 22.649727 9.821822
57.465879 23.888647 8.942048
57.416195 24.82082 9.729659
57.537538 23.250262 9.404439
57.172924 24.478565 8.612007
57.465879 23.888647 8.942048
57.294268 22.908007 8.286786
56.13788 23.007255 7.299168
56.561273 24.072582 7.704148
56.577919 22.432598 7.551766
55.509222 23.540146 7.200109
56.13788 23.007255 7.299168
45.611492 63.004692 -14.968166
45.242233 64.260666 -14.508507
46.659275 60.521293 -14.730619
47.216297 60.580933 -13.792059
47.363357 59.310425 -14.079379
45.914289 61.652962 -15.348034
46.659275 60.521293 -14.730619
46.061349 60.382454 -15.635354
45.013567 62.865853 -15.872899
45.611492 63.004692 -14.968166
45.914289 61.652962 -15.348034
42.835952 61.923737 -18.264443
42.58908 63.369381 -17.962118
43.630226 62.329876 -17.523812
45.879257 56.440658 -15.994404
46.223393 55.523457 -15.133955
45.509845 55.221165 -15.908237
45.324493 57.468899 -16.726364
46.03804 57.771191 -15.952082
45.879257 56.440658 -15.994404
44.716858 58.404751 -17.408543
45.324493 57.468899 -16.726364
43.913769 59.447152 -17.97959
44.680187 59.841831 -17.255089
44.716858 58.404751 -17.408543
43.042217 60.395367 -18.499684
43.913769 59.447152 -17.97959
42.835952 61.923737 -18.264443
43.042217 60.395367 -18.499684
3 1 96 94
3 0 99 97
3 0 101 99
3 1 104 102
3 1 94 104
3 2 108 106
3 4 111 109
3 4 113 111
3 2 383 384
3 2 385 387
3 385 106 386
3 385 386 387
3 5 117 115
3 5 119 117
3 3 122 120
3 389 388 123
3 390 126 391
3 7 129 127
3 393 392 130
3 8 133 131
3 394 136 395
3 396 395 134
3 394 395 396
3 398 397 136
3 10 140 138
3 12 143 141
3 12 145 143
3 6 148 146
3 13 151 149
3 13 153 151
3 13 155 153
3 14 158 156
3 14 160 158
3 399 162 400
3 10 165 163
3 10 138 165
3 401 168 402
3 15 171 169
3 15 173 171
3 15 175 173
3 16 178 176
3 16 180 178
3 17 182 181
3 17 184 182
3 403 185 404
3 18 188 186
3 18 190 188
3 18 192 190
3 19 195 193
3 19 197 195
3 19 405 407
3 407 406 197
3 405 406 407
3 11 201 199
3 20 204 202
3 20 205 204
3 409 408 206
3 411 410 208
3 9 211 209
3 21 412 413
3 22 212 95
3 22 213 212
3 23 216 214
3 25 217 98
3 25 414 416
3 416 415 217
3 414 415 416
3 25 417 418
3 26 218 100
3 26 219 218
3 27 222 220
3 419 223 420
3 421 420 103
3 419 420 421
3 423 422 223
3 21 424 426
3 426 425 105
3 424 425 426
3 21 427 428
3 29 226 224
3 31 227 107
3 31 228 227
3 32 231 229
3 34 232 110
3 34 233 232
3 34 235 233
3 36 236 112
3 36 237 236
3 429 239 430
3 29 240 114
3 29 224 240
3 38 243 241
3 40 244 116
3 40 245 244
3 40 247 245
3 42 248 118
3 42 249 248
3 43 431 433
3 431 250 432
3 431 432 433
3 43 251 250
3 45 434 436
3 434 253 435
3 434 435 436
3 45 254 253
3 45 256 254
3 437 257 438
3 440 439 257
3 47 260 258
3 49 261 121
3 49 262 261
3 50 441 443
3 441 263 442
3 441 442 443
3 50 264 263
3 51 267 265
3 444 270 445
3 446 445 268
3 444 445 446
3 53 447 449
3 447 271 448
3 447 448 449
3 53 272 271
3 450 273 451
3 54 452 454
3 452 274 453
3 452 453 454
3 54 275 274
3 54 276 275
3 55 277 124
3 55 278 277
3 455 268 456
3 457 279 458
3 56 280 125
3 56 281 280
3 57 284 282
3 59 285 128
3 59 286 285
3 24 287 215
3 60 459 461
3 459 288 460
3 459 460 461
3 62 289 132
3 62 290 289
3 28 291 221
3 63 292 135
3 63 293 292
3 63 294 293
3 462 295 463
3 464 463 137
3 462 463 464
3 466 465 295
3 64 298 296
3 66 299 139
3 66 300 299
3 30 301 225
3 67 302 142
3 67 303 302
3 67 304 303
3 68 305 144
3 68 306 305
3 52 307 269
3 69 308 147
3 69 309 308
3 33 310 230
3 70 311 150
3 70 312 311
3 70 313 312
3 71 314 152
3 71 315 314
3 71 316 315
3 72 317 154
3 72 318 317
3 35 319 234
3 73 320 157
3 73 321 320
3 73 322 321
3 74 323 159
3 74 324 323
3 75 325 161
3 75 326 325
3 37 327 238
3 76 328 164
3 76 329 328
3 76 330 329
3 64 331 166
3 64 296 331
3 467 332 468
3 77 333 167
3 77 334 333
3 39 335 242
3 78 469 471
3 471 470 170
3 469 470 471
3 78 472 474
3 472 336 473
3 472 473 474
3 78 337 336
3 79 338 172
3 79 339 338
3 79 340 339
3 80 341 174
3 80 342 341
3 41 343 246
3 81 344 177
3 81 345 344
3 81 346 345
3 82 347 179
3 82 348 347
3 475 349 476
3 83 350 183
3 83 351 350
3 84 477 479
3 477 352 478
3 477 478 479
3 84 353 352
3 44 354 252
3 85 355 187
3 85 356 355
3 85 357 356
3 86 358 189
3 86 359 358
3 86 360 359
3 87 361 191
3 87 362 361
3 46 363 255
3 88 364 194
3 88 365 364
3 88 366 365
3 89 367 196
3 89 368 367
3 89 369 368
3 480 370 481
3 482 481 198
3 480 481 482
3 484 483 370
3 65 371 297
3 90 372 200
3 90 373 372
3 48 374 259
3 91 375 203
3 91 376 375
3 91 485 487
3 487 486 376
3 485 486 487
3 58 377 283
3 92 378 207
3 92 379 378
3 488 380 489
3 491 490 380
3 61 492 493
3 93 381 210
3 93 382 381
3 495 494 266
3 94 95 21
3 96 95 94
3 96 22 95
3 97 98 23
3 99 98 97
3 99 25 98
3 99 100 25
3 101 100 99
3 101 26 100
3 102 103 27
3 104 103 102
3 104 496 498
3 498 497 103
3 496 497 498
3 104 499 501
3 499 105 500
3 499 500 501
3 94 105 104
3 94 21 105
3 106 107 29
3 108 107 106
3 108 31 107
3 109 110 32
3 111 110 109
3 111 34 110
3 111 112 34
3 113 112 111
3 113 36 112
3 502 114 503
3 106 504 506
3 504 114 505
3 504 505 506
3 106 29 114
3 115 116 38
3 117 116 115
3 117 40 116
3 117 118 40
3 119 118 117
3 119 42 118
3 507 43 508
3 509 45 510
3 512 511 45
3 120 121 47
3 122 121 120
3 122 49 121
3 513 50 514
3 123 515 517
3 517 516 51
3 515 516 517
3 519 518 123
3 520 53 521
3 522 54 523
3 524 124 525
3 526 525 54
3 524 525 526
3 527 124 528
3 529 55 530
3 531 530 124
3 529 530 531
3 532 125 533
3 126 534 536
3 534 125 535
3 534 535 536
3 126 56 125
3 127 128 57
3 129 128 127
3 129 59 128
3 130 537 539
3 539 538 24
3 537 538 539
3 541 540 130
3 131 132 60
3 133 132 131
3 133 62 132
3 134 135 28
3 136 135 134
3 136 63 135
3 136 137 63
3 542 137 543
3 544 543 136
3 542 543 544
3 546 545 137
3 138 139 64
3 140 139 138
3 140 66 139
3 141 142 30
3 143 142 141
3 143 67 142
3 143 144 67
3 145 144 143
3 145 68 144
3 146 147 52
3 148 147 146
3 148 69 147
3 149 150 33
3 151 150 149
3 151 70 150
3 151 152 70
3 153 152 151
3 153 71 152
3 153 154 71
3 155 154 153
3 155 72 154
3 156 157 35
3 158 157 156
3 158 73 157
3 158 159 73
3 160 159 158
3 160 74 159
3 547 161 548
3 162 549 551
3 549 161 550
3 549 550 551
3 162 75 161
3 163 164 37
3 165 164 163
3 165 76 164
3 165 166 76
3 138 166 165
3 138 64 166
3 552 167 553
3 168 554 556
3 554 167 555
3 554 555 556
3 168 77 167
3 169 170 39
3 171 170 169
3 171 78 170
3 171 172 78
3 173 172 171
3 173 79 172
3 173 174 79
3 175 174 173
3 175 80 174
3 176 177 41
3 178 177 176
3 178 81 177
3 178 179 81
3 180 179 178
3 180 82 179
3 181 557 558
3 182 559 561
3 561 560 181
3 559 560 561
3 182 562 563
3 182 564 566
3 564 183 565
3 564 565 566
3 184 183 182
3 184 83 183
3 185 567 568
3 185 569 571
3 569 84 570
3 569 570 571
3 186 187 44
3 188 187 186
3 188 85 187
3 188 189 85
3 190 189 188
3 190 86 189
3 190 191 86
3 192 191 190
3 192 87 191
3 193 194 46
3 195 194 193
3 195 88 194
3 195 196 88
3 197 196 195
3 197 89 196
3 197 198 89
3 572 198 573
3 574 573 197
3 572 573 574
3 576 575 198
3 199 200 65
3 201 200 199
3 201 90 200
3 202 203 48
3 204 203 202
3 204 91 203
3 204 577 579
3 579 578 91
3 577 578 579
3 205 580 582
3 582 581 204
3 580 581 582
3 205 583 584
3 206 207 58
3 585 207 586
3 587 586 206
3 585 586 587
3 588 92 589
3 590 589 207
3 588 589 590
3 208 591 592
3 594 593 208
3 209 210 61
3 211 210 209
3 211 93 210
3 95 595 597
3 597 596 21
3 595 596 597
3 212 598 600
3 600 599 95
3 598 599 600
3 212 601 602
3 212 603 604
3 213 605 607
3 607 606 212
3 605 606 607
3 213 608 609
3 214 215 7
3 216 215 214
3 216 24 215
3 98 216 23
3 217 216 98
3 217 24 216
3 217 130 24
3 610 130 611
3 612 611 217
3 610 611 612
3 614 613 130
3 100 615 617
3 617 616 25
3 615 616 617
3 218 618 620
3 620 619 100
3 618 619 620
3 218 621 622
3 218 623 624
3 219 625 627
3 627 626 218
3 625 626 627
3 219 628 629
3 220 221 8
3 222 221 220
3 222 28 221
3 103 222 27
3 223 222 103
3 223 28 222
3 223 134 28
3 630 134 631
3 632 631 223
3 630 631 632
3 634 633 134
3 105 635 636
3 638 637 105
3 224 225 10
3 226 225 224
3 226 30 225
3 107 226 29
3 227 226 107
3 227 30 226
3 227 141 30
3 228 141 227
3 228 12 141
3 229 230 6
3 231 230 229
3 231 33 230
3 110 231 32
3 232 231 110
3 232 33 231
3 232 149 33
3 233 149 232
3 233 13 149
3 233 234 13
3 235 234 233
3 235 35 234
3 112 235 34
3 236 235 112
3 236 35 235
3 236 156 35
3 237 156 236
3 237 14 156
3 639 238 640
3 239 641 643
3 641 238 642
3 641 642 643
3 239 37 238
3 114 644 646
3 644 239 645
3 644 645 646
3 240 239 114
3 240 37 239
3 240 163 37
3 224 163 240
3 224 10 163
3 241 647 649
3 647 242 648
3 647 648 649
3 243 242 241
3 243 39 242
3 116 243 38
3 244 243 116
3 244 39 243
3 244 169 39
3 245 169 244
3 245 15 169
3 245 246 15
3 247 246 245
3 247 41 246
3 118 247 40
3 248 247 118
3 248 41 247
3 248 176 41
3 249 176 248
3 249 16 176
3 250 650 651
3 250 652 653
3 250 654 656
3 654 181 655
3 654 655 656
3 251 181 250
3 251 17 181
3 657 252 658
3 659 252 660
3 661 44 662
3 663 662 252
3 661 662 663
3 253 664 665
3 253 666 668
3 666 44 667
3 666 667 668
3 253 186 44
3 254 186 253
3 254 18 186
3 254 255 18
3 256 255 254
3 256 46 255
3 669 256 670
3 671 670 45
3 669 670 671
3 257 672 674
3 672 256 673
3 672 673 674
3 257 46 256
3 257 193 46
3 675 193 676
3 677 676 257
3 675 676 677
3 678 19 679
3 680 679 193
3 678 679 680
3 682 681 19
3 258 259 11
3 260 259 258
3 260 48 259
3 121 260 47
3 261 260 121
3 261 48 260
3 261 202 48
3 262 202 261
3 262 20 202
3 263 683 684
3 263 685 686
3 263 687 689
3 687 208 688
3 687 688 689
3 264 208 263
3 264 690 692
3 692 691 208
3 690 691 692
3 265 266 9
3 267 266 265
3 267 693 695
3 695 694 266
3 693 694 695
3 696 267 697
3 698 697 51
3 696 697 698
3 699 267 700
3 702 701 267
3 268 269 2
3 270 269 268
3 270 52 269
3 703 270 704
3 271 705 707
3 705 270 706
3 705 706 707
3 271 52 270
3 271 146 52
3 272 146 271
3 272 6 146
3 273 708 709
3 273 710 712
3 710 53 711
3 710 711 712
3 713 273 714
3 274 715 717
3 715 273 716
3 715 716 717
3 274 53 273
3 274 272 53
3 275 272 274
3 275 6 272
3 275 229 6
3 276 229 275
3 276 32 229
3 124 276 54
3 277 276 124
3 277 32 276
3 277 109 32
3 278 109 277
3 278 4 109
3 268 718 719
3 268 720 722
3 720 2 721
3 720 721 722
3 723 241 724
3 279 725 727
3 725 241 726
3 725 726 727
3 279 38 241
3 125 728 730
3 728 279 729
3 728 729 730
3 280 279 125
3 280 38 279
3 280 115 38
3 281 115 280
3 281 5 115
3 282 283 3
3 284 283 282
3 284 58 283
3 128 284 57
3 285 284 128
3 285 58 284
3 285 206 58
3 286 206 285
3 286 731 733
3 733 732 206
3 731 732 733
3 215 129 7
3 287 129 215
3 287 59 129
3 734 287 735
3 736 735 24
3 734 735 736
3 737 287 738
3 739 59 740
3 741 740 287
3 739 740 741
3 742 286 743
3 744 743 59
3 742 743 744
3 745 286 746
3 748 747 286
3 288 749 750
3 288 751 753
3 751 61 752
3 751 752 753
3 132 288 60
3 289 288 132
3 289 61 288
3 289 209 61
3 290 209 289
3 290 9 209
3 221 133 8
3 291 133 221
3 291 62 133
3 135 291 28
3 292 291 135
3 292 62 291
3 292 290 62
3 293 290 292
3 293 9 290
3 293 265 9
3 294 265 293
3 294 51 265
3 137 294 63
3 295 294 137
3 295 51 294
3 295 123 51
3 754 123 755
3 756 755 295
3 754 755 756
3 758 757 123
3 296 297 1
3 298 297 296
3 298 65 297
3 139 298 64
3 299 298 139
3 299 65 298
3 299 199 65
3 300 199 299
3 300 11 199
3 225 140 10
3 301 140 225
3 301 66 140
3 142 301 30
3 302 301 142
3 302 66 301
3 302 300 66
3 303 300 302
3 303 11 300
3 303 258 11
3 304 258 303
3 304 47 258
3 144 304 67
3 305 304 144
3 305 47 304
3 305 120 47
3 306 120 305
3 306 3 120
3 269 108 2
3 307 108 269
3 307 31 108
3 147 307 52
3 308 307 147
3 308 31 307
3 308 228 31
3 309 228 308
3 309 12 228
3 230 148 6
3 310 148 230
3 310 69 148
3 150 310 33
3 311 310 150
3 311 69 310
3 311 309 69
3 312 309 311
3 312 12 309
3 312 145 12
3 313 145 312
3 313 68 145
3 152 313 70
3 314 313 152
3 314 68 313
3 314 306 68
3 315 306 314
3 315 3 306
3 315 282 3
3 316 282 315
3 316 57 282
3 154 316 71
3 317 316 154
3 317 57 316
3 317 127 57
3 318 127 317
3 318 7 127
3 234 155 13
3 319 155 234
3 319 72 155
3 157 319 35
3 320 319 157
3 320 72 319
3 320 318 72
3 321 318 320
3 321 7 318
3 321 214 7
3 322 214 321
3 322 23 214
3 159 322 73
3 323 322 159
3 323 23 322
3 323 97 23
3 324 97 323
3 324 0 97
3 759 60 760
3 161 761 762
3 325 763 765
3 765 764 161
3 763 764 765
3 325 766 768
3 766 60 767
3 766 767 768
3 325 131 60
3 326 131 325
3 326 8 131
3 238 769 771
3 769 162 770
3 769 770 771
3 327 162 238
3 327 75 162
3 164 327 37
3 328 327 164
3 328 75 327
3 328 326 75
3 329 326 328
3 329 8 326
3 329 220 8
3 330 220 329
3 330 27 220
3 166 330 76
3 331 330 166
3 331 27 330
3 331 102 27
3 296 102 331
3 296 1 102
3 332 772 773
3 332 774 776
3 774 55 775
3 774 775 776
3 167 777 779
3 777 332 778
3 777 778 779
3 333 332 167
3 333 55 332
3 333 278 55
3 334 278 333
3 334 4 278
3 242 780 781
3 335 782 784
3 784 783 242
3 782 783 784
3 335 785 786
3 170 335 39
3 787 335 788
3 789 788 170
3 787 788 789
3 791 790 335
3 336 792 793
3 336 794 795
3 336 796 798
3 796 168 797
3 796 797 798
3 337 168 336
3 337 77 168
3 172 337 78
3 338 337 172
3 338 77 337
3 338 334 77
3 339 334 338
3 339 4 334
3 339 113 4
3 340 113 339
3 340 36 113
3 174 340 79
3 341 340 174
3 341 36 340
3 341 237 36
3 342 237 341
3 342 14 237
3 246 175 15
3 343 175 246
3 343 80 175
3 177 343 41
3 344 343 177
3 344 80 343
3 344 342 80
3 345 342 344
3 345 14 342
3 345 160 14
3 346 160 345
3 346 74 160
3 179 346 81
3 347 346 179
3 347 74 346
3 347 324 74
3 348 324 347
3 348 0 324
3 799 126 800
3 349 801 803
3 801 126 802
3 801 802 803
3 349 56 126
3 183 804 806
3 804 349 805
3 804 805 806
3 350 349 183
3 350 56 349
3 350 281 56
3 351 281 350
3 351 5 281
3 807 43 808
3 352 809 810
3 352 811 813
3 811 43 812
3 811 812 813
3 352 251 43
3 353 251 352
3 353 17 251
3 252 814 816
3 814 185 815
3 814 815 816
3 354 185 252
3 354 84 185
3 187 354 44
3 355 354 187
3 355 84 354
3 355 353 84
3 356 353 355
3 356 17 353
3 356 184 17
3 357 184 356
3 357 83 184
3 189 357 85
3 358 357 189
3 358 83 357
3 358 351 83
3 359 351 358
3 359 5 351
3 359 119 5
3 360 119 359
3 360 42 119
3 191 360 86
3 361 360 191
3 361 42 360
3 361 249 42
3 362 249 361
3 362 16 249
3 255 192 18
3 363 192 255
3 363 87 192
3 194 363 46
3 364 363 194
3 364 87 363
3 364 362 87
3 365 362 364
3 365 16 362
3 365 180 16
3 366 180 365
3 366 82 180
3 196 366 88
3 367 366 196
3 367 82 366
3 367 348 82
3 368 348 367
3 368 0 348
3 368 101 0
3 369 101 368
3 369 26 101
3 198 369 89
3 370 369 198
3 370 26 369
3 370 219 26
3 817 219 818
3 819 818 370
3 817 818 819
3 821 820 219
3 823 822 19
3 297 96 1
3 371 96 297
3 371 22 96
3 200 371 65
3 372 371 200
3 372 22 371
3 372 213 22
3 373 213 372
3 373 824 826
3 826 825 213
3 824 825 826
3 259 201 11
3 374 201 259
3 374 90 201
3 203 374 48
3 375 374 203
3 375 90 374
3 375 373 90
3 376 373 375
3 376 827 829
3 829 828 373
3 827 828 829
3 376 830 831
3 833 832 376
3 835 834 91
3 283 122 3
3 377 122 283
3 377 49 122
3 207 377 58
3 378 377 207
3 378 49 377
3 378 262 49
3 379 262 378
3 379 20 262
3 836 92 837
3 838 92 839
3 840 379 841
3 842 841 92
3 840 841 842
3 380 843 845
3 843 379 844
3 843 844 845
3 380 20 379
3 380 205 20
3 846 205 847
3 848 847 380
3 846 847 848
3 850 849 205
3 851 50 852
3 210 853 855
3 855 854 61
3 853 854 855
3 381 856 858
3 858 857 210
3 856 857 858
3 381 859 861
3 859 50 860
3 859 860 861
3 381 264 50
3 382 264 381
3 382 862 864
3 864 863 264
3 862 863 864
3 266 211 9
3 865 211 866
3 867 866 266
3 865 866 867
3 868 93 869
3 870 869 211
3 868 869 870
3 871 93 872
3 873 382 874
3 875 874 93
3 873 874 875
3 876 382 877
3 879 878 382
