ply
format ascii 1.0
element vertex 531
property float x
property float y
property float z
element face 579
property list uchar int vertex_index
end_header
56.645882 -68.257851 40.761032
46.506927 -84.825897 43.900452
55.842518 -62.785625 20.594648
64.633827 -54.137817 35.451302
56.482155 -66.205521 30.621853
53.809883 -70.530518 21.792034
53.640564 -74.00766 32.270641
61.222321 -54.129566 44.702721
60.393517 -61.075497 38.078217
60.539753 -58.92271 27.865288
52.370216 -76.218964 42.810089
66.357849 -52.066395 24.44595
56.844284 -67.456596 35.783073
55.052483 -70.024544 31.562229
55.16584 -71.29673 36.824371
59.417049 -61.338829 42.501183
58.519356 -64.600533 39.451759
58.623817 -63.799622 34.503494
52.550217 -74.340355 22.091156
49.620605 -80.505623 43.549721
51.082626 -79.691376 38.370743
63.243729 -54.38596 40.59687
63.378967 -50.640511 44.443844
65.408424 -50.937737 39.73238
67.288925 -47.655273 38.712418
66.899506 -50.802261 34.203537
68.012352 -50.15097 28.486351
65.62326 -53.37392 29.920244
57.832291 -60.839977 24.332111
56.016014 -64.614273 25.531586
54.739258 -66.6996 21.348103
54.747211 -68.446083 26.373795
53.623352 -72.328751 26.94573
52.202835 -76.34639 27.400673
58.389584 -53.379238 47.230042
59.282738 -57.588833 45.033058
61.25116 -57.865856 41.456425
62.393387 -57.592003 36.742287
62.997566 -56.770466 31.486479
60.642532 -60.253529 33.045265
58.254681 -62.512909 29.38158
55.561111 -68.550735 45.084
54.66124 -72.125168 41.884689
53.295826 -72.413338 46.243
53.335503 -75.365936 37.660774
51.87624 -78.222534 32.870422
60.648911 -49.931274 47.655285
63.067047 -46.427486 47.725014
63.343346 -55.432106 26.163612
56.839844 -67.918373 38.320145
56.005096 -69.350143 36.334148
55.937759 -69.817238 38.891777
57.212036 -66.612251 42.394299
58.164543 -64.801773 41.723602
57.588112 -66.406433 40.123581
57.741177 -66.070923 37.694008
48.09317 -82.681213 43.798752
49.015366 -82.427124 41.312263
47.518204 -84.669678 41.473846
64.002495 -54.32518 38.110786
64.320404 -52.651073 40.17709
65.117126 -52.608929 37.57122
66.210106 -50.928032 37.025192
65.798538 -52.446804 34.820141
66.387009 -52.157909 32.002335
65.166565 -53.821903 32.699394
56.687332 -61.799229 22.502506
57.692261 -59.887787 21.864681
56.622826 -60.819843 20.070368
56.232986 -65.444656 28.06024
55.334465 -66.524918 25.994328
55.524616 -67.342422 28.543999
54.369583 -71.992363 31.937454
54.28326 -71.212257 29.292889
53.641827 -73.19516 29.590267
52.970581 -74.311111 27.17915
52.916382 -75.224884 29.861725
57.002655 -58.986401 46.493782
57.939358 -57.256672 46.258018
58.364452 -59.317486 45.344711
60.017193 -61.27758 40.401031
60.32579 -59.601017 41.947498
60.947235 -59.537392 39.784966
61.909531 -57.798618 39.204712
61.367496 -59.331928 37.403419
61.628227 -58.985973 34.877365
60.586018 -60.732597 35.604469
57.548611 -65.030121 32.606583
58.47068 -63.211384 31.943775
57.311596 -64.345261 30.039429
57.057922 -63.569672 27.492411
54.471436 -70.460297 45.690166
54.2883 -68.626015 21.599566
54.563908 -67.723343 19.131395
53.567619 -74.144569 42.369156
54.024639 -73.789009 39.870872
52.947205 -75.865417 40.294838
50.373756 -81.276367 35.91851
51.557056 -79.024391 35.632286
50.80909 -80.445404 33.139805
59.912148 -53.814159 46.180542
59.488487 -51.662193 47.445724
60.981697 -52.082336 46.23912
64.491226 -48.900688 44.206299
63.26635 -48.586521 46.202217
64.403229 -46.841713 45.982742
64.226929 -44.677998 47.458591
65.444351 -45.124802 45.57502
67.3442 -51.16555 26.385822
61.849388 -57.894516 29.645191
63.190163 -56.163696 28.813499
61.886055 -57.164085 27.029018
56.706192 -66.881378 33.20406
55.741123 -68.09726 31.127748
55.921722 -68.772133 33.732742
55.163696 -70.708496 34.195625
54.39032 -72.69574 34.603142
58.565495 -61.26358 44.311157
58.501373 -63.090733 43.11483
59.095634 -63.028034 41.051704
59.450264 -62.828037 38.764351
59.601501 -62.489796 36.322803
58.657753 -64.265396 37.023575
57.711048 -65.609451 35.170673
53.243156 -72.42659 21.948729
51.753632 -78.001976 40.684666
50.43792 -80.194046 41.032982
49.77755 -81.948494 38.661629
62.326378 -54.320686 42.821457
62.276146 -52.387512 44.592609
63.382118 -52.576973 42.547478
64.472374 -50.840462 42.236649
65.540413 -49.128246 41.857506
66.432076 -49.265511 39.247372
67.187332 -49.30228 36.469528
67.827431 -49.222767 33.606277
67.495384 -50.547775 31.339905
66.898918 -51.733585 29.177679
66.018326 -52.789726 27.159889
59.160316 -59.891624 26.107864
60.457817 -58.091881 25.305412
59.015495 -58.987156 23.598276
55.876839 -63.726181 23.041771
55.2341 -64.750061 21.017828
55.225006 -65.658585 23.48447
54.680107 -67.588196 23.838589
54.179298 -69.511757 24.118641
54.891937 -69.263809 28.950377
54.197273 -70.378441 26.684336
53.656654 -71.434052 24.344826
53.05439 -73.36972 24.539715
52.335159 -75.342979 24.722387
60.228111 -55.862343 44.831646
59.471039 -59.525528 43.819466
60.383518 -57.79451 43.420292
61.328342 -56.060921 43.098572
62.218437 -56.12714 41.014328
62.925789 -56.059292 38.651222
63.48484 -55.857666 36.092381
63.931145 -55.523312 33.418182
62.742943 -57.248035 34.146881
61.774719 -58.504444 32.273666
60.612404 -59.646751 30.453098
59.596458 -62.017105 33.791615
59.488003 -61.41851 31.222923
59.327988 -60.705807 28.653856
58.02813 -61.718166 26.840061
56.837921 -62.717518 24.977966
56.227386 -68.469742 43.039429
55.677826 -70.162941 41.349831
55.19548 -70.379425 43.640327
54.094769 -72.341721 44.188515
52.900829 -74.353638 44.684566
51.594109 -76.409531 45.131409
55.010254 -71.773254 39.406624
54.289406 -73.300812 37.262207
53.555229 -74.739487 34.970657
52.271454 -77.49556 38.030602
52.618275 -76.846619 35.31221
52.819038 -76.080322 32.578651
52.073555 -77.318192 30.119989
59.000992 -49.419754 48.584511
62.108406 -50.338043 46.269386
61.854568 -48.184113 47.773003
62.796021 -44.179916 48.919113
64.295769 -55.057106 30.696362
64.601471 -54.459419 27.977226
64.860954 -53.730755 25.293322
55.609671 -63.291172 19.596661
55.880289 -62.288181 19.394739
55.880289 -62.288181 19.394739
56.270443 -61.30529 19.132599
56.232672 -61.802734 20.332508
57.907015 -60.188417 45.562046
57.683554 -59.151944 45.919246
57.226116 -60.022875 46.136582
53.972894 -70.078194 20.542191
54.212103 -69.125943 20.445957
54.049092 -69.578266 21.6958
50.224499 -81.598976 33.250698
50.591423 -80.860885 34.529157
50.006832 -82.014457 34.640051
50.422961 -81.10392 31.85783
50.224499 -81.598976 33.250698
64.973587 -47.014332 44.913128
64.447227 -47.871201 45.094521
65.017585 -48.043819 44.024906
65.494148 -46.155877 44.709266
64.92379 -45.983258 45.778881
64.973587 -47.014332 44.913128
65.945816 -45.323395 44.454159
65.494148 -46.155877 44.709266
67.042313 -51.257441 24.047113
67.535488 -50.807018 25.017049
66.851024 -51.615972 25.415886
66.499184 -51.635374 23.118405
67.042313 -51.257441 24.047113
58.031513 -63.980341 43.442196
58.07309 -63.055765 44.001623
52.73703 -73.850853 20.802451
53.0835 -72.89397 20.731237
52.896687 -73.383473 22.019942
50.029263 -80.349835 42.291351
50.745756 -79.26865 42.120694
50.337099 -79.424439 43.379063
49.081173 -83.098312 38.762078
49.396458 -82.187809 39.986946
48.700081 -83.337627 40.087395
49.435505 -82.772068 37.39995
49.081173 -83.098312 38.762078
58.300043 -58.944446 21.498382
57.653647 -59.377581 20.653425
51.847126 -76.865353 26.151097
51.913288 -76.363647 24.811954
52.268997 -75.844684 26.06153
59.092572 -56.562511 45.599655
58.420882 -56.396431 46.212135
58.611048 -57.422753 45.645538
59.755425 -56.725588 44.932352
59.565258 -55.699267 45.498949
59.092572 -56.562511 45.599655
51.10397 -76.415902 46.156014
51.804078 -75.406658 45.935762
50.881147 -77.454353 45.327921
51.10397 -76.415902 46.156014
56.073387 -67.619232 44.760052
55.627441 -67.592178 45.633831
55.894249 -68.510238 44.061715
56.406525 -67.578735 43.737766
56.073387 -67.619232 44.760052
54.845353 -66.239277 20.127251
55.092773 -65.264508 19.962114
54.986679 -65.72483 21.182966
54.79122 -67.257531 17.925911
54.612871 -68.217636 17.992099
58.094836 -52.255448 47.722226
57.526358 -53.106691 47.549616
60.452175 -48.810396 48.268766
59.628216 -48.554636 48.733379
59.824951 -49.675514 48.119898
62.301438 -46.183649 48.371144
61.695198 -47.061963 48.395138
62.460808 -47.3058 47.749009
62.931534 -45.303701 48.322063
62.165925 -45.059864 48.968193
62.301438 -46.183649 48.371144
64.101086 -43.553961 48.001283
64.743759 -43.818869 47.201445
67.268421 -46.758375 39.765526
66.894325 -47.558359 40.05077
68.426106 -49.396373 28.171457
68.192341 -49.579704 29.603707
61.182062 -57.206326 24.876722
60.421701 -57.627693 24.046011
57.688289 -65.707012 42.05895
57.863098 -64.835861 42.746582
57.386844 -65.7411 43.08193
52.323731 -74.79963 20.852772
52.137822 -75.32388 22.161794
47.9515 -84.458905 40.168186
48.700081 -83.337627 40.087395
48.266785 -83.548401 41.393055
57.118929 -59.843609 19.756268
57.653647 -59.377581 20.653425
57.157544 -60.353815 20.967524
56.631985 -60.299891 18.87827
57.118929 -59.843609 19.756268
56.631985 -60.299891 18.87827
56.270443 -61.30529 19.132599
57.471007 -58.121537 46.3759
57.149227 -57.032913 46.67588
56.680876 -57.897778 46.793762
54.552807 -69.479347 46.259123
55.016273 -69.505516 45.387083
55.097645 -68.524566 45.95604
53.983211 -70.430088 46.560672
54.552807 -69.479347 46.259123
53.395406 -71.406609 46.83709
53.883631 -71.436817 45.966583
53.983211 -70.430088 46.560672
55.097645 -68.524566 45.95604
55.627441 -67.592178 45.633831
54.349907 -68.674607 19.211871
54.426104 -68.174679 20.365481
54.212103 -69.125943 20.445957
54.612871 -68.217636 17.992099
54.349907 -68.674607 19.211871
50.957918 -79.969207 31.752034
51.491494 -78.857772 31.617342
51.342665 -79.333969 33.005114
50.957918 -79.969207 31.752034
50.422961 -81.10392 31.85783
65.35247 -44.042271 46.259659
64.743759 -43.818869 47.201445
64.83564 -44.9014 46.516806
65.874245 -44.292618 45.267938
65.35247 -44.042271 46.259659
65.874245 -44.292618 45.267938
65.945816 -45.323395 44.454159
67.57888 -46.890259 38.415886
67.611728 -47.70298 37.306876
67.902439 -50.38301 26.030317
68.236515 -49.87572 27.080582
67.678276 -50.65826 27.436087
67.902439 -50.38301 26.030317
67.535488 -50.807018 25.017049
58.105151 -62.142189 44.599787
58.007536 -61.161464 45.045269
58.533434 -62.177156 43.712993
58.105151 -62.142189 44.599787
58.07309 -63.055765 44.001623
58.332958 -63.946253 42.419216
58.031513 -63.980341 43.442196
57.863098 -64.835861 42.746582
53.422695 -71.961613 20.680418
53.706058 -71.013576 20.60207
53.526519 -71.478554 21.870382
53.422695 -71.961613 20.680418
53.0835 -72.89397 20.731237
52.73703 -73.850853 20.802451
52.323731 -74.79963 20.852772
51.403613 -78.172615 41.946535
52.061924 -77.11047 41.747377
51.711905 -77.281109 43.009247
51.095776 -79.098011 40.858824
51.403613 -78.172615 41.946535
50.745756 -79.26865 42.120694
49.733608 -82.436004 36.028391
50.075653 -81.61243 37.29007
49.435505 -82.772068 37.39995
50.006832 -82.014457 34.640051
49.733608 -82.436004 36.028391
65.542179 -48.157598 42.85051
65.017585 -48.043819 44.024906
65.015819 -49.014467 43.031903
66.020069 -48.294845 41.623314
65.542179 -48.157598 42.85051
66.465901 -48.363478 40.318247
66.020069 -48.294845 41.623314
65.986244 -49.196878 40.552439
66.860501 -48.460392 38.979895
66.894325 -47.558359 40.05077
66.465901 -48.363478 40.318247
67.560932 -48.526483 36.18543
67.611728 -47.70298 37.306876
67.238129 -48.478777 37.590973
67.880982 -48.486727 34.753805
67.560932 -48.526483 36.18543
67.507382 -49.262524 35.037903
68.144722 -48.473892 33.317304
67.880982 -48.486727 34.753805
68.099881 -49.115602 32.16367
68.144722 -48.473892 33.317304
67.933857 -49.778106 31.030485
68.099881 -49.115602 32.16367
67.661407 -49.885271 32.473091
67.753868 -50.349373 29.913128
68.192341 -49.579704 29.603707
67.933857 -49.778106 31.030485
59.700541 -58.075331 23.192443
60.421701 -57.627693 24.046011
59.736656 -58.539518 24.451844
58.96166 -58.494131 22.36518
58.353878 -59.437472 22.731479
58.300043 -58.944446 21.498382
59.700541 -58.075331 23.192443
58.96166 -58.494131 22.36518
52.030293 -75.825192 23.47741
52.137822 -75.32388 22.161794
52.442688 -74.841667 23.406772
52.030293 -75.825192 23.47741
51.913288 -76.363647 24.811954
46.246639 -85.846981 42.677311
45.704551 -85.8498 43.844611
57.870148 -54.235161 47.160646
57.526358 -53.106691 47.549616
57.645035 -56.173878 46.674634
57.149227 -57.032913 46.67588
57.645035 -56.173878 46.674634
58.420882 -56.396431 46.212135
58.645995 -54.457714 46.698147
57.870148 -54.235161 47.160646
59.407277 -54.675174 46.173397
59.150866 -53.596699 46.705292
58.645995 -54.457714 46.698147
60.07013 -54.838251 45.506094
59.407277 -54.675174 46.173397
59.565258 -55.699267 45.498949
58.464973 -60.290533 44.827934
57.907015 -60.188417 45.562046
58.007536 -61.161464 45.045269
52.77602 -72.372509 47.110909
53.395406 -71.406609 46.83709
52.654936 -73.408562 46.491558
52.77602 -72.372509 47.110909
52.457437 -74.378712 45.712341
53.098327 -73.383488 45.463783
52.654936 -73.408562 46.491558
52.247469 -75.381585 44.907987
52.457437 -74.378712 45.712341
51.804078 -75.406658 45.935762
51.323851 -77.376393 44.169907
51.711905 -77.281109 43.009247
51.982163 -76.314247 43.970749
51.323851 -77.376393 44.169907
50.881147 -77.454353 45.327921
49.894396 -79.502399 44.537077
50.337099 -79.424439 43.379063
49.127513 -80.554294 44.696143
49.894396 -79.502399 44.537077
48.363796 -81.642089 44.820658
48.856887 -81.593418 43.674236
49.127513 -80.554294 44.696143
47.556961 -82.683487 44.921516
48.363796 -81.642089 44.820658
46.76384 -83.755829 44.972366
47.300049 -83.753555 43.849602
47.556961 -82.683487 44.921516
45.936239 -84.759166 44.985836
46.76384 -83.755829 44.972366
45.133864 -85.78307 44.929994
45.704551 -85.8498 43.844611
45.936239 -84.759166 44.985836
56.199671 -58.765223 46.882374
56.680876 -57.897778 46.793762
56.536732 -59.860955 46.687054
56.199671 -58.765223 46.882374
57.226116 -60.022875 46.136582
56.536732 -59.860955 46.687054
56.898849 -66.64999 43.415201
57.386844 -65.7411 43.08193
56.719711 -67.540997 42.716864
56.898849 -66.64999 43.415201
56.406525 -67.578735 43.737766
55.305461 -64.27339 19.808252
55.609671 -63.291172 19.596661
55.538309 -63.767843 20.806238
55.305461 -64.27339 19.808252
55.092773 -65.264508 19.962114
54.757677 -66.751148 19.018897
54.845353 -66.239277 20.127251
54.651583 -67.211472 20.239749
54.757677 -66.751148 19.018897
54.79122 -67.257531 17.925911
53.972894 -70.078194 20.542191
53.706058 -71.013576 20.60207
51.590151 -78.405601 30.242126
51.974897 -77.770363 31.495205
51.491494 -78.857772 31.617342
51.692806 -77.888611 28.867173
51.590151 -78.405601 30.242126
51.757446 -77.40271 27.507515
52.138195 -76.832291 28.760331
51.692806 -77.888611 28.867173
51.847126 -76.865353 26.151097
51.757446 -77.40271 27.507515
46.752277 -85.768872 41.464008
47.012565 -84.747788 42.687149
46.246639 -85.846981 42.677311
47.230854 -85.610279 40.1947
46.752277 -85.768872 41.464008
47.9515 -84.458905 40.168186
47.230854 -85.610279 40.1947
58.644287 -51.396925 47.830067
58.094836 -52.255448 47.722226
58.939036 -52.520716 47.337883
58.400539 -50.275706 48.39946
58.644287 -51.396925 47.830067
59.244739 -50.540973 48.015118
58.090156 -49.113855 48.836624
58.400539 -50.275706 48.39946
58.741742 -48.260388 49.06297
58.090156 -49.113855 48.836624
58.741742 -48.260388 49.06297
59.628216 -48.554636 48.733379
61.055004 -47.936816 48.327625
60.452175 -48.810396 48.268766
61.251739 -49.057693 47.714144
61.055004 -47.936816 48.327625
61.695198 -47.061963 48.395138
61.981621 -43.901052 49.423924
62.165925 -45.059864 48.968193
62.63044 -43.022163 49.318684
61.981621 -43.901052 49.423924
63.385632 -43.30492 48.731544
63.511475 -44.428957 48.188852
64.101086 -43.553961 48.001283
62.63044 -43.022163 49.318684
63.385632 -43.30492 48.731544
67.268421 -46.758375 39.765526
67.57888 -46.890259 38.415886
68.426106 -49.396373 28.171457
68.236515 -49.87572 27.080582
61.896181 -56.742428 25.738525
61.171936 -57.627983 26.167215
61.182062 -57.206326 24.876722
62.624826 -55.876438 25.305822
62.6147 -56.298096 26.596315
61.896181 -56.742428 25.738525
63.40564 -55.006176 24.860618
62.624826 -55.876438 25.305822
64.164444 -54.155501 24.425472
64.10215 -54.58143 25.728467
63.40564 -55.006176 24.860618
64.968983 -53.301937 23.977573
64.164444 -54.155501 24.425472
65.71743 -52.469757 23.553886
65.609402 -52.898575 24.869636
64.968983 -53.301937 23.977573
66.499184 -51.635374 23.118405
65.71743 -52.469757 23.553886
3 0 51 49
3 0 54 52
3 0 49 54
3 2 188 189
3 1 58 56
3 3 61 59
3 3 63 61
3 3 65 63
3 2 68 66
3 2 190 192
3 192 191 68
3 190 191 192
3 4 71 69
3 6 74 72
3 6 76 74
3 193 79 194
3 195 194 77
3 193 194 195
3 8 82 80
3 8 84 82
3 8 86 84
3 4 89 87
3 4 69 89
3 5 196 198
3 198 197 92
3 196 197 198
3 10 96 94
3 199 99 200
3 201 200 97
3 199 200 201
3 203 202 99
3 7 102 100
3 204 105 205
3 206 205 103
3 204 205 206
3 207 107 208
3 209 208 105
3 207 208 209
3 211 210 107
3 11 212 214
3 214 213 108
3 212 213 214
3 11 215 216
3 9 111 109
3 12 114 112
3 14 115 50
3 14 116 115
3 217 118 218
3 16 119 53
3 16 120 119
3 16 122 120
3 12 123 55
3 12 112 123
3 18 219 221
3 221 220 124
3 219 220 221
3 19 222 224
3 222 126 223
3 222 223 224
3 225 127 226
3 227 226 57
3 225 226 227
3 229 228 127
3 21 130 128
3 23 131 60
3 23 132 131
3 23 133 132
3 25 134 62
3 25 135 134
3 25 136 135
3 27 137 64
3 27 138 137
3 28 141 139
3 231 230 67
3 29 144 142
3 31 145 70
3 31 146 145
3 13 147 113
3 32 148 73
3 32 149 148
3 32 150 149
3 33 151 75
3 33 232 234
3 234 233 151
3 232 233 234
3 35 235 237
3 237 236 78
3 235 236 237
3 35 238 240
3 238 152 239
3 238 239 240
3 15 153 117
3 36 154 81
3 36 155 154
3 36 156 155
3 37 157 83
3 37 158 157
3 37 160 158
3 39 161 85
3 39 162 161
3 17 163 121
3 40 164 88
3 40 165 164
3 40 166 165
3 29 167 90
3 29 142 167
3 41 170 168
3 43 171 91
3 43 172 171
3 241 173 242
3 244 243 173
3 41 245 246
3 41 247 249
3 247 168 248
3 247 248 249
3 30 250 252
3 252 251 143
3 250 251 252
3 254 253 93
3 42 174 169
3 44 175 95
3 44 176 175
3 20 177 125
3 45 178 98
3 45 179 178
3 45 180 179
3 34 255 256
3 46 181 101
3 46 257 259
3 259 258 181
3 257 258 259
3 22 182 129
3 47 183 104
3 47 260 262
3 262 261 183
3 260 261 262
3 47 263 265
3 263 184 264
3 263 264 265
3 267 266 106
3 24 268 269
3 26 270 271
3 38 185 159
3 48 186 110
3 48 187 186
3 273 272 140
3 49 50 12
3 51 50 49
3 51 14 50
3 52 274 276
3 274 53 275
3 274 275 276
3 54 53 52
3 54 16 53
3 54 55 16
3 49 55 54
3 49 12 55
3 278 277 18
3 56 57 19
3 58 57 56
3 58 279 281
3 281 280 57
3 279 280 281
3 59 60 21
3 61 60 59
3 61 23 60
3 61 62 23
3 63 62 61
3 63 25 62
3 63 64 25
3 65 64 63
3 65 27 64
3 66 67 28
3 68 67 66
3 68 282 284
3 284 283 67
3 282 283 284
3 68 285 286
3 288 287 68
3 69 70 29
3 71 70 69
3 71 31 70
3 72 73 13
3 74 73 72
3 74 32 73
3 74 75 32
3 76 75 74
3 76 33 75
3 77 289 291
3 289 78 290
3 289 290 291
3 79 78 77
3 79 35 78
3 80 81 15
3 82 81 80
3 82 36 81
3 82 83 36
3 84 83 82
3 84 37 83
3 84 85 37
3 86 85 84
3 86 39 85
3 87 88 17
3 89 88 87
3 89 40 88
3 89 90 40
3 69 90 89
3 69 29 90
3 292 91 293
3 294 293 41
3 292 293 294
3 295 91 296
3 297 43 298
3 299 298 91
3 297 298 299
3 300 41 301
3 92 93 30
3 302 93 303
3 304 303 92
3 302 303 304
3 306 305 93
3 94 95 42
3 96 95 94
3 96 44 95
3 97 98 20
3 99 98 97
3 99 45 98
3 99 307 309
3 309 308 45
3 307 308 309
3 311 310 99
3 100 101 34
3 102 101 100
3 102 46 101
3 103 104 22
3 105 104 103
3 105 47 104
3 105 106 47
3 107 106 105
3 107 312 314
3 314 313 106
3 312 313 314
3 107 315 316
3 318 317 107
3 320 319 24
3 108 321 323
3 323 322 26
3 321 322 323
3 325 324 108
3 109 110 38
3 111 110 109
3 111 48 110
3 112 113 4
3 114 113 112
3 114 13 113
3 50 114 12
3 115 114 50
3 115 13 114
3 115 72 13
3 116 72 115
3 116 6 72
3 326 117 327
3 118 328 330
3 328 117 329
3 328 329 330
3 118 15 117
3 53 331 333
3 331 118 332
3 331 332 333
3 119 118 53
3 119 15 118
3 119 80 15
3 120 80 119
3 120 8 80
3 120 121 8
3 122 121 120
3 122 17 121
3 55 122 16
3 123 122 55
3 123 17 122
3 123 87 17
3 112 87 123
3 112 4 87
3 124 334 336
3 336 335 5
3 334 335 336
3 338 337 124
3 340 339 18
3 341 125 342
3 343 342 10
3 341 342 343
3 126 344 346
3 344 125 345
3 344 345 346
3 126 20 125
3 57 126 19
3 127 126 57
3 127 20 126
3 127 97 20
3 347 97 348
3 349 348 127
3 347 348 349
3 351 350 97
3 128 129 7
3 130 129 128
3 130 22 129
3 60 130 21
3 131 130 60
3 131 22 130
3 131 103 22
3 132 103 131
3 132 352 354
3 354 353 103
3 352 353 354
3 132 355 356
3 133 357 359
3 359 358 132
3 357 358 359
3 133 360 362
3 360 24 361
3 360 361 362
3 62 133 23
3 134 133 62
3 134 24 133
3 134 363 365
3 365 364 24
3 363 364 365
3 135 366 368
3 368 367 134
3 366 367 368
3 135 369 370
3 135 371 372
3 136 373 375
3 375 374 135
3 373 374 375
3 136 376 378
3 376 26 377
3 376 377 378
3 64 136 25
3 137 136 64
3 137 26 136
3 137 108 26
3 138 108 137
3 138 11 108
3 139 140 9
3 141 140 139
3 141 379 381
3 381 380 140
3 379 380 381
3 67 141 28
3 382 141 383
3 384 383 67
3 382 383 384
3 386 385 141
3 142 143 2
3 144 143 142
3 144 30 143
3 70 144 29
3 145 144 70
3 145 30 144
3 145 92 30
3 146 92 145
3 146 5 92
3 113 71 4
3 147 71 113
3 147 31 71
3 73 147 13
3 148 147 73
3 148 31 147
3 148 146 31
3 149 146 148
3 149 5 146
3 149 124 5
3 150 124 149
3 150 18 124
3 75 150 32
3 151 150 75
3 151 18 150
3 151 387 389
3 389 388 18
3 387 388 389
3 391 390 151
3 393 392 1
3 394 34 395
3 78 396 397
3 399 398 78
3 400 34 401
3 402 100 403
3 404 403 34
3 402 403 404
3 152 405 407
3 405 100 406
3 405 406 407
3 152 7 100
3 117 408 410
3 408 79 409
3 408 409 410
3 153 79 117
3 153 35 79
3 81 153 15
3 154 153 81
3 154 35 153
3 154 152 35
3 155 152 154
3 155 7 152
3 155 128 7
3 156 128 155
3 156 21 128
3 83 156 36
3 157 156 83
3 157 21 156
3 157 59 21
3 158 59 157
3 158 3 59
3 158 159 3
3 160 159 158
3 160 38 159
3 85 160 37
3 161 160 85
3 161 38 160
3 161 109 38
3 162 109 161
3 162 9 109
3 121 86 8
3 163 86 121
3 163 39 86
3 88 163 17
3 164 163 88
3 164 39 163
3 164 162 39
3 165 162 164
3 165 9 162
3 165 139 9
3 166 139 165
3 166 28 139
3 90 166 40
3 167 166 90
3 167 28 166
3 167 66 28
3 142 66 167
3 142 2 66
3 168 169 0
3 170 169 168
3 170 42 169
3 91 170 41
3 171 170 91
3 171 42 170
3 171 94 42
3 172 94 171
3 172 10 94
3 411 43 412
3 413 43 414
3 415 172 416
3 417 416 43
3 415 416 417
3 173 418 420
3 418 172 419
3 418 419 420
3 173 10 172
3 173 421 423
3 423 422 10
3 421 422 423
3 425 424 173
3 426 19 427
3 428 19 429
3 430 56 431
3 432 431 19
3 430 431 432
3 433 56 434
3 435 1 436
3 437 436 56
3 435 436 437
3 438 1 439
3 442 441 1
3 440 441 442
3 443 77 444
3 445 77 446
3 448 447 77
3 449 52 450
3 168 451 453
3 451 52 452
3 451 452 453
3 168 0 52
3 143 454 456
3 456 455 2
3 454 455 456
3 458 457 143
3 93 459 461
3 461 460 30
3 459 460 461
3 463 462 93
3 465 464 5
3 169 51 0
3 174 51 169
3 174 14 51
3 95 174 42
3 175 174 95
3 175 14 174
3 175 116 14
3 176 116 175
3 176 6 116
3 125 96 10
3 177 96 125
3 177 44 96
3 98 177 20
3 178 177 98
3 178 44 177
3 178 176 44
3 179 176 178
3 179 6 176
3 179 76 6
3 180 76 179
3 180 33 76
3 466 180 467
3 468 467 45
3 466 467 468
3 469 180 470
3 471 33 472
3 473 472 180
3 471 472 473
3 475 474 33
3 476 58 477
3 478 477 1
3 476 477 478
3 479 58 480
3 482 481 58
3 101 483 485
3 485 484 34
3 483 484 485
3 181 486 488
3 488 487 101
3 486 487 488
3 181 489 490
3 181 491 492
3 494 493 181
3 129 102 7
3 182 102 129
3 182 46 102
3 104 182 22
3 183 182 104
3 183 46 182
3 183 495 497
3 497 496 46
3 495 496 497
3 499 498 183
3 184 500 501
3 184 502 503
3 106 184 47
3 504 184 505
3 506 505 106
3 504 505 506
3 508 507 184
3 510 509 24
3 512 511 26
3 159 65 3
3 185 65 159
3 185 27 65
3 110 185 38
3 186 185 110
3 186 27 185
3 186 138 27
3 187 138 186
3 187 11 138
3 140 111 9
3 513 111 514
3 515 514 140
3 513 514 515
3 516 48 517
3 518 517 111
3 516 517 518
3 519 48 520
3 521 187 522
3 523 522 48
3 521 522 523
3 524 187 525
3 526 11 527
3 528 527 187
3 526 527 528
3 530 529 11
