ply
format ascii 1.0
element vertex 469
property float x
property float y
property float z
element face 490
property list uchar int vertex_index
end_header
46.346249 -66.273041 50.361885
34.72068 -76.917175 54.325111
40.857025 -72.651733 52.485313
57.449577 -61.059349 45.779381
53.442974 -68.310852 48.220749
48.037212 -75.875702 50.219124
41.255127 -82.547531 50.681282
34.805485 -85.260643 47.953022
50.562378 -59.162273 48.217094
28.723059 -78.225357 55.254967
57.561653 -64.869949 43.769562
50.302826 -67.533218 49.890617
50.974285 -72.091003 49.34565
47.724113 -71.134811 50.944443
37.769234 -75.163292 53.498634
41.379318 -77.634628 52.374542
38.040722 -79.958382 52.510063
37.934502 -84.562477 49.718193
34.85252 -81.231651 52.054161
48.552753 -62.747417 49.219048
52.484818 -63.892445 48.686943
43.778881 -69.619919 51.440033
39.667984 -67.723099 51.84417
37.081551 -70.331497 53.425392
34.43158 -72.39119 55.228088
56.359097 -56.809155 47.093742
50.613831 -76.422272 47.180618
47.484161 -80.468803 47.837021
44.697296 -74.57531 51.788712
44.709732 -79.48526 50.753281
44.105282 -84.259613 47.93187
40.773148 -87.248222 47.036545
37.64579 -88.879738 44.987537
54.443855 -60.302685 47.620789
55.550507 -64.621498 46.940472
31.751146 -77.839119 54.858788
31.761869 -81.510361 51.211769
31.701761 -84.991341 45.987537
48.404037 -66.956314 50.23365
49.070816 -69.345352 50.443703
47.163193 -68.717926 50.77491
36.232468 -76.146423 53.946617
37.959953 -77.576263 53.193977
36.36755 -78.466522 53.355095
36.425858 -80.735237 52.353233
34.810543 -79.109238 53.403572
45.321156 -63.805466 49.820595
47.486954 -64.52523 49.793236
49.545349 -65.167648 49.657608
36.630173 -67.965561 53.285065
35.756432 -71.436371 54.309967
34.265987 -70.110397 55.418793
54.634178 -68.498398 46.828079
53.494987 -70.399879 47.431179
49.564911 -73.990562 49.816208
50.902058 -74.28479 48.46637
49.42749 -76.246002 48.890129
49.097504 -78.453049 47.554977
47.84293 -78.194153 49.237358
42.35347 -71.18605 51.962769
44.356075 -72.099564 51.744446
42.811523 -73.678741 52.181778
41.384079 -80.107956 51.762901
43.103123 -78.655869 51.69059
42.979099 -81.115974 50.814926
44.457417 -81.897705 49.57148
42.733131 -83.535767 49.461044
42.417969 -85.894196 47.630043
41.036125 -84.934464 49.101685
36.352703 -85.07151 48.908646
37.799904 -86.759872 47.576248
36.255547 -87.134674 46.475288
53.570347 -58.004238 47.716145
52.5952 -59.773174 48.041924
53.106079 -66.142288 48.621353
54.142277 -64.314148 47.991844
54.531944 -66.451134 47.587002
55.693771 -66.633621 46.183662
30.256142 -78.064575 55.054558
31.759596 -79.713593 53.240303
30.221252 -79.785614 53.119507
57.644806 -63.020798 44.888416
51.993298 -67.987854 49.237709
52.263283 -70.193848 48.81205
50.782394 -69.840927 49.810532
49.456909 -71.69014 50.325653
48.010925 -73.521317 50.779282
39.318802 -73.988258 53.003174
41.208317 -75.14418 52.582756
39.580677 -76.457092 52.928848
39.697182 -78.912796 52.512817
39.683163 -81.337524 51.661629
39.568161 -83.713768 50.318275
38.024265 -82.291962 51.364861
36.415535 -82.938995 50.877251
34.848392 -83.279869 50.235687
49.568863 -60.954708 48.675804
51.615417 -61.563286 48.512146
50.607384 -63.365509 49.069534
51.433689 -65.711563 49.29567
51.053593 -78.343254 43.208405
44.19717 -65.505707 50.402771
45.112392 -67.976288 50.90995
42.990921 -67.144043 50.985703
41.699501 -68.705307 51.579323
40.333717 -70.172432 52.19873
38.392338 -69.088821 52.600174
38.915291 -71.525131 52.852501
37.470718 -72.740273 53.535049
36.02388 -73.794624 54.226357
34.5895 -74.670135 54.898865
55.587341 -54.539768 47.636177
56.663132 -52.834145 47.86919
57.350712 -55.091084 47.091251
58.902405 -55.53619 46.166252
52.256214 -72.33168 47.978817
52.014046 -74.403786 46.740116
50.168186 -78.499176 45.524433
48.634422 -80.602966 45.842564
47.020752 -82.68576 46.044281
45.812653 -70.438141 51.276794
46.261684 -72.885559 51.392784
46.452782 -75.314552 51.168243
43.05806 -76.172371 52.123169
44.805492 -77.040138 51.480476
46.408577 -77.720444 50.540916
46.174042 -80.095024 49.479378
45.806763 -82.425308 47.98185
45.365551 -84.692436 46.07122
43.708706 -86.548576 45.859398
42.082695 -88.168419 45.355461
40.505821 -89.469826 44.533287
39.389557 -86.024323 48.469238
39.18399 -88.254425 46.143837
38.979176 -90.393616 43.406147
55.396687 -58.544044 47.270966
56.070808 -60.735508 46.880325
53.480408 -62.08675 48.110115
55.123764 -62.510803 47.394386
56.517426 -62.824959 46.323006
56.692253 -64.808395 45.524944
56.585663 -66.687729 44.436104
33.110634 -73.190292 56.146515
33.169506 -75.360718 55.528084
31.753069 -75.87867 56.102089
33.231812 -77.473625 54.625542
33.281067 -79.51181 53.353035
33.305935 -81.470016 51.652626
33.301163 -83.357224 49.507019
31.745899 -83.255409 48.778549
33.265091 -85.197128 46.943493
34.18849 -68.987366 55.489502
34.859398 -69.606377 54.864498
57.907015 -60.188417 45.562046
57.226116 -60.022875 46.136582
34.768275 -86.226307 46.6041
35.493306 -87.163322 45.865233
35.530516 -86.197659 47.214155
49.984127 -57.932525 48.071979
49.478226 -58.826101 48.231728
51.060414 -58.272932 48.059486
49.984127 -57.932525 48.071979
51.578789 -59.467723 48.129509
52.076825 -58.578383 47.971901
51.060414 -58.272932 48.059486
28.785049 -77.391472 56.18763
28.017988 -77.537079 56.434613
29.489601 -78.144966 55.154763
29.55159 -77.311081 56.087425
28.785049 -77.391472 56.18763
58.031513 -63.980341 43.442196
58.07309 -63.055765 44.001623
57.603229 -63.945374 44.328989
47.973203 -61.514105 48.961925
47.465651 -62.402914 49.232185
49.060808 -61.851062 48.947426
48.481258 -60.61775 48.690303
47.973203 -61.514105 48.961925
50.745756 -79.26865 42.120694
50.337099 -79.424439 43.379063
42.516144 -65.91301 50.742554
43.594046 -66.324875 50.694237
43.119269 -65.093841 50.451088
40.683742 -68.214203 51.711747
41.293976 -67.47731 51.364616
40.278217 -66.986206 51.49704
43.119269 -65.093841 50.451088
43.661905 -64.270575 50.139522
59.092572 -56.562511 45.599655
58.420882 -56.396431 46.212135
59.565258 -55.699267 45.498949
59.092572 -56.562511 45.599655
51.10397 -76.415902 46.156014
51.804078 -75.406658 45.935762
51.313938 -75.413029 46.960367
50.391008 -77.460724 46.352525
50.881147 -77.454353 45.327921
51.10397 -76.415902 46.156014
37.56615 -89.902019 43.51034
38.232844 -90.658958 42.719645
38.312483 -89.636677 44.196842
56.073387 -67.619232 44.760052
56.139717 -66.660675 45.309883
55.627441 -67.592178 45.633831
56.406525 -67.578735 43.737766
56.073387 -67.619232 44.760052
32.447845 -73.515091 56.591099
32.487974 -72.466515 56.942791
32.477281 -74.600304 56.281883
33.14007 -74.275505 55.8373
32.447845 -73.515091 56.591099
31.752108 -76.858894 55.480438
31.036592 -76.068691 56.364044
31.035631 -77.048916 55.742393
31.72383 -84.123375 47.383043
30.951477 -83.173699 48.461422
30.929408 -84.041664 47.065916
32.448106 -86.008671 45.008555
33.229771 -86.111565 45.486532
32.483426 -85.094234 46.465515
57.231609 -51.982901 48.0418
57.526358 -53.106691 47.549616
57.863098 -64.835861 42.746582
57.386844 -65.7411 43.08193
45.849852 -62.931939 49.532959
44.739169 -62.565195 49.549179
46.932751 -63.291821 49.519279
45.849852 -62.931939 49.532959
46.404055 -64.165348 49.806916
48.019853 -63.636323 49.506142
47.465651 -62.402914 49.232185
46.932751 -63.291821 49.519279
39.286375 -66.523125 51.689801
40.278217 -66.986206 51.49704
35.884135 -67.397484 53.802639
36.389954 -66.820839 53.247612
36.04149 -68.533958 53.797635
35.884135 -67.397484 53.802639
36.267179 -69.716926 53.867798
36.855862 -69.148529 53.355229
36.04149 -68.533958 53.797635
35.60462 -70.269363 54.310085
36.418991 -70.883934 53.86768
36.267179 -69.716926 53.867798
35.011209 -70.773384 54.86438
35.60462 -70.269363 54.310085
34.859398 -69.606377 54.864498
57.149227 -57.032913 46.67588
56.680876 -57.897778 46.793762
54.552807 -69.479347 46.259123
55.097645 -68.524566 45.95604
53.983211 -70.430088 46.560672
54.552807 -69.479347 46.259123
54.064583 -69.449139 47.129629
53.395406 -71.406609 46.83709
53.983211 -70.430088 46.560672
36.196272 -88.136677 45.06007
36.891393 -89.009209 44.316195
36.950668 -88.007206 45.731413
36.196272 -88.136677 45.06007
35.493306 -87.163322 45.865233
52.564398 -57.693915 47.809011
53.074388 -56.816175 47.747321
53.082774 -58.888706 47.879035
52.564398 -57.693915 47.809011
52.076825 -58.578383 47.971901
55.097645 -68.524566 45.95604
55.627441 -67.592178 45.633831
55.163974 -67.56601 46.505871
30.288129 -77.161644 55.840278
29.55159 -77.311081 56.087425
31.003644 -77.951847 54.956673
31.035631 -77.048916 55.742393
30.288129 -77.161644 55.840278
30.897355 -84.88696 45.589891
30.929408 -84.041664 47.065916
30.854846 -85.777241 44.056676
31.659252 -85.881623 44.454323
30.897355 -84.88696 45.589891
58.105151 -62.142189 44.599787
58.007536 -61.161464 45.045269
57.547191 -62.040073 45.333899
58.105151 -62.142189 44.599787
58.07309 -63.055765 44.001623
58.031513 -63.980341 43.442196
57.863098 -64.835861 42.746582
48.981468 -59.722319 48.461083
48.481258 -60.61775 48.690303
50.065621 -60.05849 48.446449
49.478226 -58.826101 48.231728
48.981468 -59.722319 48.461083
27.928281 -78.31884 55.37986
28.017988 -77.537079 56.434613
28.683139 -79.024463 54.153324
27.928281 -78.31884 55.37986
51.403613 -78.172615 41.946535
51.711905 -77.281109 43.009247
51.403613 -78.172615 41.946535
50.745756 -79.26865 42.120694
41.939686 -66.696678 51.067807
42.516144 -65.91301 50.742554
42.345211 -67.924675 51.282513
41.939686 -66.696678 51.067807
41.293976 -67.47731 51.364616
38.726979 -67.213402 52.102776
39.286375 -66.523125 51.689801
37.208073 -67.334633 52.823223
36.389954 -66.820839 53.247612
38.089156 -67.896263 52.480778
37.208073 -67.334633 52.823223
37.511256 -68.527191 52.94262
39.030161 -68.40596 52.222172
38.726979 -67.213402 52.102776
38.089156 -67.896263 52.480778
44.223898 -63.420454 49.848434
44.739169 -62.565195 49.549179
44.759163 -64.655586 50.111683
44.223898 -63.420454 49.848434
43.661905 -64.270575 50.139522
56.125236 -53.686957 47.752684
55.709221 -52.513838 48.013925
55.171326 -53.36665 47.897419
57.870148 -54.235161 47.160646
57.526358 -53.106691 47.549616
57.006922 -53.962615 47.480221
57.645035 -56.173878 46.674634
56.854905 -55.950119 47.092496
57.149227 -57.032913 46.67588
58.126559 -55.313637 46.628751
57.645035 -56.173878 46.674634
58.420882 -56.396431 46.212135
58.645995 -54.457714 46.698147
57.870148 -54.235161 47.160646
58.126559 -55.313637 46.628751
59.407277 -54.675174 46.173397
58.645995 -54.457714 46.698147
59.407277 -54.675174 46.173397
59.565258 -55.699267 45.498949
57.907015 -60.188417 45.562046
58.007536 -61.161464 45.045269
52.77602 -72.372509 47.110909
53.395406 -71.406609 46.83709
52.875601 -71.36578 47.704998
52.654936 -73.408562 46.491558
52.77602 -72.372509 47.110909
52.13513 -73.367733 47.359466
52.457437 -74.378712 45.712341
52.654936 -73.408562 46.491558
52.457437 -74.378712 45.712341
51.804078 -75.406658 45.935762
51.323851 -77.376393 44.169907
51.711905 -77.281109 43.009247
50.610889 -78.421215 44.366419
51.323851 -77.376393 44.169907
50.881147 -77.454353 45.327921
49.894396 -79.502399 44.537077
50.337099 -79.424439 43.379063
50.610889 -78.421215 44.366419
49.127513 -80.554294 44.696143
49.894396 -79.502399 44.537077
49.401304 -79.551071 45.683498
48.363796 -81.642089 44.820658
49.127513 -80.554294 44.696143
47.556961 -82.683487 44.921516
48.363796 -81.642089 44.820658
47.827587 -81.644363 45.943422
46.76384 -83.755829 44.972366
47.556961 -82.683487 44.921516
45.936239 -84.759166 44.985836
46.76384 -83.755829 44.972366
46.193151 -83.689098 46.05775
45.133864 -85.78307 44.929994
45.936239 -84.759166 44.985836
44.305441 -86.71114 44.824084
45.133864 -85.78307 44.929994
44.537129 -85.620506 45.965309
43.511366 -87.644661 44.630322
44.305441 -86.71114 44.824084
42.69836 -88.454583 44.378353
43.511366 -87.644661 44.630322
42.895701 -87.358497 45.607429
41.923731 -89.25272 44.025602
42.69836 -88.454583 44.378353
41.135294 -89.903424 43.614515
41.923731 -89.25272 44.025602
41.294258 -88.819122 44.944374
40.382745 -90.527195 43.099075
41.135294 -89.903424 43.614515
39.619423 -90.98909 42.535505
40.382745 -90.527195 43.099075
39.742498 -89.931721 43.969717
38.882981 -91.415672 41.875211
39.619423 -90.98909 42.535505
38.882981 -91.415672 41.875211
38.232844 -90.658958 42.719645
37.56615 -89.902019 43.51034
36.891393 -89.009209 44.316195
54.613464 -54.219521 47.752598
55.171326 -53.36665 47.897419
55.074483 -55.400123 47.60648
54.613464 -54.219521 47.752598
55.460361 -56.534817 47.335262
55.973219 -55.674461 47.364959
55.074483 -55.400123 47.60648
54.065986 -57.132358 47.646463
53.074388 -56.816175 47.747321
54.979157 -57.402261 47.423874
54.065986 -57.132358 47.646463
54.483517 -58.274141 47.493555
55.877892 -57.676599 47.182354
55.460361 -56.534817 47.335262
54.979157 -57.402261 47.423874
56.199671 -58.765223 46.882374
56.680876 -57.897778 46.793762
55.877892 -57.676599 47.182354
56.536732 -59.860955 46.687054
56.199671 -58.765223 46.882374
55.733747 -59.639776 47.075646
56.760193 -60.897429 46.329853
57.226116 -60.022875 46.136582
56.536732 -59.860955 46.687054
56.898849 -66.64999 43.415201
57.386844 -65.7411 43.08193
57.073658 -65.778839 44.102833
56.898849 -66.64999 43.415201
56.406525 -67.578735 43.737766
33.667739 -69.450306 56.158615
34.18849 -68.987366 55.489502
33.669433 -70.549644 55.997169
33.667739 -69.450306 56.158615
33.75223 -71.690041 55.901817
34.348783 -71.250794 55.323441
33.669433 -70.549644 55.997169
33.091757 -72.089592 56.36103
32.487974 -72.466515 56.942791
33.771107 -72.790741 55.687302
33.75223 -71.690041 55.901817
33.091757 -72.089592 56.36103
31.09475 -75.120659 56.990192
31.036592 -76.068691 56.364044
31.769063 -74.85928 56.568886
31.09475 -75.120659 56.990192
32.461287 -75.619694 55.815086
32.477281 -74.600304 56.281883
31.769063 -74.85928 56.568886
29.432235 -79.804592 53.085594
29.472155 -79.005485 54.187237
28.683139 -79.024463 54.153324
30.207714 -80.616059 51.963596
29.432235 -79.804592 53.085594
30.978023 -81.478432 51.009727
30.99156 -80.647987 52.165638
30.207714 -80.616059 51.963596
30.970038 -82.350956 49.793117
30.951477 -83.173699 48.461422
31.753884 -82.382885 49.995159
30.978023 -81.478432 51.009727
30.970038 -82.350956 49.793117
33.998078 -86.194549 46.099335
34.768275 -86.226307 46.6041
34.035288 -85.228886 47.448257
33.998078 -86.194549 46.099335
33.229771 -86.111565 45.486532
32.448106 -86.008671 45.008555
31.659252 -85.881623 44.454323
56.29879 -51.667569 48.23144
55.709221 -52.513838 48.013925
56.29879 -51.667569 48.23144
57.231609 -51.982901 48.0418
3 0 40 38
3 1 43 41
3 1 45 43
3 0 47 46
3 0 38 47
3 151 51 152
3 3 153 154
3 4 53 52
3 5 56 54
3 5 58 56
3 2 61 59
3 6 64 62
3 6 66 64
3 6 68 66
3 7 71 69
3 7 155 157
3 157 156 71
3 155 156 157
3 8 158 159
3 8 160 161
3 8 162 164
3 162 73 163
3 162 163 164
3 4 76 74
3 4 52 76
3 9 165 166
3 9 167 169
3 167 78 168
3 167 168 169
3 9 80 78
3 10 170 172
3 172 171 81
3 170 171 172
3 11 84 82
3 13 85 39
3 13 86 85
3 14 89 87
3 16 90 42
3 16 91 90
3 16 93 91
3 18 94 44
3 18 95 94
3 19 173 174
3 19 175 177
3 175 96 176
3 175 176 177
3 19 98 96
3 11 99 48
3 11 82 99
3 179 178 100
3 180 103 181
3 182 181 101
3 180 181 182
3 22 183 185
3 183 104 184
3 183 184 185
3 22 105 104
3 23 106 49
3 23 107 106
3 23 108 107
3 24 109 50
3 24 110 109
3 186 101 187
3 25 113 111
3 188 114 189
3 191 190 114
3 12 115 83
3 26 116 55
3 26 192 194
3 194 193 116
3 192 193 194
3 26 195 197
3 195 117 196
3 195 196 197
3 27 118 57
3 27 119 118
3 21 120 102
3 28 121 60
3 28 122 121
3 15 123 88
3 29 124 63
3 29 125 124
3 29 126 125
3 30 127 65
3 30 128 127
3 30 129 128
3 31 130 67
3 31 131 130
3 17 132 92
3 32 133 70
3 32 134 133
3 32 198 200
3 200 199 134
3 198 199 200
3 33 135 72
3 33 136 135
3 20 137 97
3 34 138 75
3 34 139 138
3 34 140 139
3 201 141 202
3 203 202 77
3 201 202 203
3 205 204 141
3 206 142 207
3 208 143 209
3 210 209 142
3 208 209 210
3 35 211 213
3 211 144 212
3 211 212 213
3 35 145 144
3 35 146 145
3 36 147 79
3 36 148 147
3 37 214 216
3 214 149 215
3 214 215 216
3 37 150 149
3 37 217 219
3 219 218 150
3 217 218 219
3 221 220 112
3 223 222 10
3 38 39 11
3 40 39 38
3 40 13 39
3 41 42 14
3 43 42 41
3 43 16 42
3 43 44 16
3 45 44 43
3 45 18 44
3 46 224 225
3 47 226 228
3 228 227 46
3 226 227 228
3 47 229 231
3 229 19 230
3 229 230 231
3 47 48 19
3 38 48 47
3 38 11 48
3 232 22 233
3 234 49 235
3 236 49 237
3 238 23 239
3 240 239 49
3 238 239 240
3 241 50 242
3 243 242 23
3 241 242 243
3 51 244 246
3 244 50 245
3 244 245 246
3 51 24 50
3 248 247 25
3 52 249 250
3 53 251 253
3 253 252 52
3 251 252 253
3 53 254 255
3 54 55 12
3 56 55 54
3 56 26 55
3 56 57 26
3 58 57 56
3 58 27 57
3 59 60 21
3 61 60 59
3 61 28 60
3 62 63 15
3 64 63 62
3 64 29 63
3 64 65 29
3 66 65 64
3 66 30 65
3 66 67 30
3 68 67 66
3 68 31 67
3 69 70 17
3 71 70 69
3 71 32 70
3 71 256 258
3 258 257 32
3 256 257 258
3 260 259 71
3 261 72 262
3 73 263 265
3 263 72 264
3 263 264 265
3 73 33 72
3 74 75 20
3 76 75 74
3 76 34 75
3 76 77 34
3 52 77 76
3 52 266 268
3 268 267 77
3 266 267 268
3 78 269 270
3 78 271 273
3 271 35 272
3 271 272 273
3 78 79 35
3 80 79 78
3 80 36 79
3 274 37 275
3 278 277 37
3 276 277 278
3 81 279 281
3 281 280 3
3 279 280 281
3 283 282 81
3 285 284 10
3 82 83 4
3 84 83 82
3 84 12 83
3 39 84 11
3 85 84 39
3 85 12 84
3 85 54 12
3 86 54 85
3 86 5 54
3 87 88 2
3 89 88 87
3 89 15 88
3 42 89 14
3 90 89 42
3 90 15 89
3 90 62 15
3 91 62 90
3 91 6 62
3 91 92 6
3 93 92 91
3 93 17 92
3 44 93 16
3 94 93 44
3 94 17 93
3 94 69 17
3 95 69 94
3 95 7 69
3 96 286 287
3 96 288 290
3 288 8 289
3 288 289 290
3 96 97 8
3 98 97 96
3 98 20 97
3 48 98 19
3 99 98 48
3 99 20 98
3 99 74 20
3 82 74 99
3 82 4 74
3 291 9 292
3 294 293 9
3 100 295 296
3 298 297 100
3 101 102 0
3 103 102 101
3 103 21 102
3 299 103 300
3 104 301 303
3 301 103 302
3 301 302 303
3 104 21 103
3 104 59 21
3 105 59 104
3 105 2 59
3 304 22 305
3 49 306 307
3 106 308 310
3 310 309 49
3 308 309 310
3 106 311 313
3 311 22 312
3 311 312 313
3 106 105 22
3 107 105 106
3 107 2 105
3 107 87 2
3 108 87 107
3 108 14 87
3 50 108 23
3 109 108 50
3 109 14 108
3 109 41 14
3 110 41 109
3 110 1 41
3 314 46 315
3 101 316 318
3 316 46 317
3 316 317 318
3 101 0 46
3 111 319 321
3 319 112 320
3 319 320 321
3 113 112 111
3 113 322 324
3 324 323 112
3 322 323 324
3 325 113 326
3 327 326 25
3 325 326 327
3 114 328 330
3 328 113 329
3 328 329 330
3 114 331 333
3 333 332 113
3 331 332 333
3 114 334 335
3 337 336 114
3 339 338 3
3 83 53 4
3 115 53 83
3 115 340 342
3 342 341 53
3 340 341 342
3 55 115 12
3 116 115 55
3 116 343 345
3 345 344 115
3 343 344 345
3 116 346 347
3 349 348 116
3 350 100 351
3 117 352 354
3 352 100 353
3 352 353 354
3 117 355 357
3 357 356 100
3 355 356 357
3 57 117 26
3 118 117 57
3 118 358 360
3 360 359 117
3 358 359 360
3 118 361 362
3 119 363 365
3 365 364 118
3 363 364 365
3 119 366 367
3 102 40 0
3 120 40 102
3 120 13 40
3 60 120 21
3 121 120 60
3 121 13 120
3 121 86 13
3 122 86 121
3 122 5 86
3 88 61 2
3 123 61 88
3 123 28 61
3 63 123 15
3 124 123 63
3 124 28 123
3 124 122 28
3 125 122 124
3 125 5 122
3 125 58 5
3 126 58 125
3 126 27 58
3 65 126 29
3 127 126 65
3 127 27 126
3 127 119 27
3 128 119 127
3 128 368 370
3 370 369 119
3 368 369 370
3 128 371 372
3 129 373 375
3 375 374 128
3 373 374 375
3 129 376 377
3 67 129 30
3 130 129 67
3 130 378 380
3 380 379 129
3 378 379 380
3 130 381 382
3 131 383 385
3 385 384 130
3 383 384 385
3 131 386 387
3 92 68 6
3 132 68 92
3 132 31 68
3 70 132 17
3 133 132 70
3 133 31 132
3 133 131 31
3 134 131 133
3 134 388 390
3 390 389 131
3 388 389 390
3 134 391 392
3 394 393 134
3 396 395 32
3 397 111 398
3 399 111 400
3 401 25 402
3 403 402 111
3 401 402 403
3 72 404 405
3 135 406 408
3 408 407 72
3 406 407 408
3 135 409 411
3 409 25 410
3 409 410 411
3 135 412 414
3 414 413 25
3 412 413 414
3 136 415 417
3 417 416 135
3 415 416 417
3 136 418 420
3 418 3 419
3 418 419 420
3 97 73 8
3 137 73 97
3 137 33 73
3 75 137 20
3 138 137 75
3 138 33 137
3 138 136 33
3 139 136 138
3 139 3 136
3 139 81 3
3 140 81 139
3 140 10 81
3 77 140 34
3 141 140 77
3 141 10 140
3 141 421 423
3 423 422 10
3 421 422 423
3 425 424 141
3 426 51 427
3 428 51 429
3 430 24 431
3 432 431 51
3 430 431 432
3 142 433 434
3 142 435 437
3 435 24 436
3 435 436 437
3 142 110 24
3 143 110 142
3 143 1 110
3 144 438 439
3 144 440 441
3 144 442 444
3 442 143 443
3 442 443 444
3 145 143 144
3 145 1 143
3 145 45 1
3 146 45 145
3 146 18 45
3 79 146 35
3 147 146 79
3 147 18 146
3 147 95 18
3 148 95 147
3 148 7 95
3 445 80 446
3 447 446 9
3 445 446 447
3 448 80 449
3 450 36 451
3 452 451 80
3 450 451 452
3 149 453 454
3 149 455 457
3 455 36 456
3 455 456 457
3 149 148 36
3 150 148 149
3 150 7 148
3 150 458 460
3 460 459 7
3 458 459 460
3 462 461 150
3 464 463 37
3 112 465 466
3 468 467 112
