ply
format ascii 1.0
element vertex 426
property float x
property float y
property float z
element face 443
property list uchar int vertex_index
end_header
-63.120995 -61.587036 37.316811
-55.571117 -66.376007 47.787685
-57.831512 -67.949242 39.924309
-60.184853 -60.245617 46.474487
-49.987972 -70.74791 48.404732
-42.62093 -73.464813 48.518192
-46.980003 -79.979408 47.526886
-64.490814 -53.032997 44.206909
-56.130814 -62.121929 49.662472
-57.87841 -63.510235 47.192154
-58.273586 -59.405781 49.493336
-53.617943 -64.181747 49.423161
-60.502502 -64.706207 38.444283
-58.507629 -67.728058 34.881512
-43.464146 -68.145523 47.707409
-51.902527 -73.262314 47.054054
-48.76989 -75.497238 48.121307
-50.094505 -77.380058 45.845947
-54.556 -70.593796 45.775803
-55.342194 -71.262466 41.778847
-56.922287 -67.556671 44.449211
-59.308525 -64.307449 43.244682
-61.7976 -60.990402 42.211311
-53.014656 -68.794449 48.202717
-41.419792 -78.805901 49.26865
-46.46447 -72.273636 48.463253
-45.207745 -77.331078 48.873398
-60.385139 -55.912052 48.893517
-62.495579 -56.710407 45.557098
-64.043327 -57.637207 41.189159
-65.044815 -58.464699 36.322525
-57.231644 -60.872608 49.626614
-55.14505 -61.070812 50.254097
-61.85284 -63.135822 37.846352
-61.042519 -64.763077 35.90934
-62.434242 -63.255844 35.304932
-63.68483 -61.766167 34.776611
-52.492802 -74.026268 45.660149
-51.082893 -75.372604 46.480728
-51.516293 -75.958817 44.866886
-55.135696 -68.512161 46.775528
-55.755054 -69.112747 45.106812
-56.314575 -67.079346 46.309311
-59.022556 -61.921558 46.848824
-58.630196 -63.966194 45.367737
-59.820305 -62.318298 44.911583
-60.552296 -62.652233 42.71172
-61.029655 -60.629913 44.458817
-54.674843 -65.41716 48.829433
-53.359158 -66.490135 48.812275
-54.341141 -67.642868 48.022064
-53.889805 -69.843071 47.216797
-56.569221 -69.607544 40.811756
-55.526726 -71.231201 39.403114
-56.827232 -69.554962 38.367485
-40.122791 -76.683205 49.055943
-42.06073 -76.137222 48.958206
-48.692448 -69.051254 48.427872
-46.900631 -69.707512 48.26561
-48.281097 -71.559143 48.444229
-47.93079 -77.774017 47.904022
-47.031845 -76.460632 48.540962
-46.208954 -78.835938 48.460945
-44.416756 -79.808167 48.889561
-45.305 -81.156639 48.166069
-45.98262 -82.117332 46.905846
-59.141815 -55.602413 50.005325
-60.163078 -53.671982 49.578838
-62.603329 -54.411293 46.819206
-63.557819 -54.884037 44.952911
-63.340778 -57.168144 43.465122
-64.323425 -55.399906 42.853668
-65.303246 -56.427383 38.217175
-65.547974 -56.846283 35.776085
-65.371483 -58.725704 33.809441
-65.666786 -57.127411 33.291569
-55.894836 -64.227859 48.771553
-56.738129 -64.997307 47.507481
-57.044411 -62.910248 48.640263
-58.155602 -61.447586 48.441597
-59.262276 -59.838264 48.176479
-52.40139 -62.668964 49.607189
-53.8377 -61.904087 49.989906
-54.929981 -63.208565 49.59473
-59.146561 -66.310852 39.133682
-58.186913 -67.909225 37.433823
-59.603703 -66.310638 36.614548
-60.035789 -66.187866 34.05468
-43.08847 -70.798477 48.069576
-51.065952 -72.16391 47.968483
-49.458801 -73.151711 48.264088
-50.398193 -74.433449 47.621979
-49.560577 -76.620972 47.236771
-48.580551 -78.720062 46.743385
-48.985424 -79.285866 45.086037
-53.800045 -72.584854 44.8018
-54.115517 -72.88736 42.798927
-55.03051 -71.059296 43.934654
-56.222733 -69.468765 43.088394
-57.418739 -67.83799 42.290352
-57.467609 -65.558701 45.83535
-58.098267 -65.947754 43.824097
-58.65078 -66.192352 41.561119
-59.927937 -64.552094 40.910156
-61.227203 -62.927521 40.33276
-62.493263 -61.316925 39.809669
-50.372894 -68.302521 48.591393
-52.191055 -65.055923 49.163265
-51.928726 -67.450897 48.727451
-51.56723 -69.828743 48.328281
-52.540863 -71.061783 47.617874
-53.282803 -71.981026 46.432369
-54.263664 -72.913811 40.517456
-45.370537 -67.665154 47.885315
-45.021767 -70.284897 48.135719
-44.566235 -72.904579 48.480965
-47.729065 -74.032791 48.505054
-45.898788 -74.817612 48.695545
-43.997963 -75.516525 48.84296
-43.326546 -78.113083 49.115253
-42.579479 -80.686104 49.177147
-59.315754 -57.732121 49.255733
-60.38311 -58.10614 47.833801
-61.466644 -54.002399 48.38147
-61.508118 -56.286629 47.391075
-61.354446 -58.502281 46.053055
-62.222015 -58.91161 43.987541
-62.985558 -59.321243 41.716087
-63.648048 -59.708313 39.30941
-65.117599 -53.606079 42.116234
-64.901779 -55.928215 40.589714
-64.60791 -58.084183 38.792618
-64.214447 -60.038105 36.822159
-64.692932 -60.265263 34.291
-65.70015 -57.211727 30.778238
-52.183447 -75.208607 44.353316
-52.004548 -74.992542 45.263517
-52.671701 -74.242333 44.749947
-51.618257 -76.080506 43.860218
-52.183447 -75.208607 44.353316
-41.64356 -73.714905 48.55751
-41.87966 -72.363884 48.307688
-42.34083 -74.801018 48.738199
-41.363461 -75.051109 48.777517
-41.64356 -73.714905 48.55751
-59.933661 -52.533907 49.715694
-59.439357 -53.553512 49.976518
-64.024316 -53.958517 44.57991
-63.59149 -53.69399 45.520767
-64.057987 -52.76847 45.147766
-65.623074 -56.00819 35.459644
-65.6213 -55.786001 36.659592
-65.68248 -56.148754 34.217387
-65.60738 -56.986847 34.533827
-65.623074 -56.00819 35.459644
-53.954453 -60.797331 50.222097
-53.223987 -61.107986 50.00135
-60.79517 -65.445968 33.700367
-60.539154 -65.475471 34.98201
-61.298535 -64.733574 34.627697
-60.244484 -66.058426 32.768903
-60.79517 -65.445968 33.700367
-42.500833 -68.366043 47.686898
-42.666304 -67.043091 47.542768
-43.276308 -69.472 47.888492
-42.312995 -69.69252 47.867981
-42.500833 -68.366043 47.686898
-50.509731 -67.068771 48.716734
-49.679649 -67.41298 48.543079
-54.906418 -71.963718 38.726849
-55.574613 -71.112781 38.147922
-57.768013 -68.53025 35.355841
-57.607655 -68.620834 36.631996
-58.347271 -67.818642 36.157668
-40.469963 -79.104443 49.30542
-39.821462 -78.043095 49.199067
-40.771292 -77.744553 49.162296
-41.072344 -80.131744 49.293541
-40.469963 -79.104443 49.30542
-46.295765 -67.397294 48.023497
-45.500416 -66.358609 47.828102
-43.075709 -81.465077 48.905636
-43.498117 -80.247135 49.033354
-43.994347 -81.026108 48.761843
-42.190256 -81.955562 49.043852
-43.075709 -81.465077 48.905636
-61.996334 -53.023708 48.037754
-61.338362 -52.837413 48.671914
-65.314937 -53.896076 40.997425
-65.405532 -52.696666 41.669168
-65.207028 -55.057144 40.234165
-65.009689 -54.767147 41.352974
-65.314937 -53.896076 40.997425
-65.234173 -59.531496 32.773558
-65.492443 -58.767735 32.540422
-65.532166 -56.375275 30.499725
-65.634766 -56.336033 31.73857
-56.761256 -60.510368 50.001528
-56.681229 -61.497269 49.644543
-56.210841 -61.135029 50.019457
-57.246851 -59.914322 50.00186
-56.761256 -60.510368 50.001528
-57.767822 -59.180909 49.935221
-57.752615 -60.139195 49.559975
-57.246851 -59.914322 50.00186
-55.258949 -60.072231 50.493336
-54.608127 -60.380693 50.354192
-55.717958 -60.609471 50.315269
-55.258949 -60.072231 50.493336
-56.210841 -61.135029 50.019457
-55.637932 -61.59637 49.958285
-55.717958 -60.609471 50.315269
-61.994396 -63.979957 34.325493
-61.298535 -64.733574 34.627697
-61.73838 -64.009461 35.607136
-62.704617 -63.255448 34.022973
-61.994396 -63.979957 34.325493
-63.32991 -62.510609 33.758812
-62.704617 -63.255448 34.022973
-63.059536 -62.511006 35.040772
-63.937683 -61.788191 33.496008
-63.32991 -62.510609 33.758812
-43.611203 -66.828151 47.598652
-42.666304 -67.043091 47.542768
-50.950468 -76.86633 44.434404
-50.239575 -77.57695 44.923935
-50.805399 -76.669438 45.356417
-50.950468 -76.86633 44.434404
-51.618257 -76.080506 43.860218
-56.224867 -70.274662 37.630108
-55.574613 -71.112781 38.147922
-56.176979 -70.393081 38.8853
-57.854827 -68.341724 34.066187
-58.660206 -67.56762 33.593962
-40.394491 -75.324101 48.826386
-39.431437 -75.547916 48.897461
-41.09176 -76.410213 49.007075
-40.394491 -75.324101 48.826386
-41.363461 -75.051109 48.777517
-47.796539 -69.379383 48.346741
-47.060812 -68.418473 48.213644
-47.956721 -68.090344 48.294775
-44.438469 -81.700344 48.400097
-43.994347 -81.026108 48.761843
-44.860878 -80.482403 48.527815
-44.844972 -82.289676 47.865593
-44.438469 -81.700344 48.400097
-45.183782 -82.770023 47.235481
-44.844972 -82.289676 47.865593
-45.64381 -81.636986 47.535957
-45.501373 -83.155849 46.438724
-45.183782 -82.770023 47.235481
-58.928726 -54.518728 50.189762
-58.471096 -55.494802 50.350051
-59.652446 -54.637197 49.792081
-58.928726 -54.518728 50.189762
-59.439357 -53.553512 49.976518
-63.114244 -53.457618 46.453914
-62.564677 -53.228155 47.256622
-63.075592 -52.27448 46.89133
-63.080574 -54.647665 45.886059
-63.114244 -53.457618 46.453914
-63.59149 -53.69399 45.520767
-65.498936 -55.576551 37.880136
-65.407761 -55.306728 39.047895
-65.42561 -56.636833 36.99663
-65.498936 -55.576551 37.880136
-65.6213 -55.786001 36.659592
-65.640095 -57.968588 32.281486
-65.492443 -58.767735 32.540422
-65.519135 -57.926558 33.550505
-52.505832 -61.490425 49.809991
-51.71883 -61.787916 49.535977
-53.119545 -62.286525 49.798547
-52.505832 -61.490425 49.809991
-53.223987 -61.107986 50.00135
-54.491375 -61.487449 50.122001
-53.954453 -60.797331 50.222097
-54.608127 -60.380693 50.354192
-59.424285 -66.797523 33.180546
-58.660206 -67.56762 33.593962
-59.271709 -66.957962 34.468096
-59.424285 -66.797523 33.180546
-60.244484 -66.058426 32.768903
-42.11343 -71.030716 48.083379
-42.312995 -69.69252 47.867981
-42.8547 -72.131645 48.293884
-41.87966 -72.363884 48.307688
-42.11343 -71.030716 48.083379
-48.049167 -79.72757 46.405174
-47.248894 -80.357243 46.796925
-47.780277 -79.349735 47.135136
-48.251604 -80.010471 45.5765
-48.049167 -79.72757 46.405174
-48.782988 -79.002964 45.914711
-48.410709 -80.194828 44.611679
-47.67689 -80.919433 45.102142
-48.251604 -80.010471 45.5765
-49.685034 -78.529854 44.54398
-49.539964 -78.332962 45.465992
-50.239575 -77.57695 44.923935
-49.076225 -79.384484 44.046707
-49.685034 -78.529854 44.54398
-48.410709 -80.194828 44.611679
-49.076225 -79.384484 44.046707
-64.512405 -51.8076 44.691151
-64.057987 -52.76847 45.147766
-53.957781 -72.736107 43.800364
-53.483059 -73.672878 43.319336
-53.325323 -73.521625 44.320773
-48.839426 -67.787346 48.461319
-47.956721 -68.090344 48.294775
-49.532671 -68.676887 48.509632
-48.839426 -67.787346 48.461319
-49.679649 -67.41298 48.543079
-51.626644 -63.016695 49.3761
-51.71883 -61.787916 49.535977
-51.521476 -64.210175 49.154139
-51.626644 -63.016695 49.3761
-52.296222 -63.862444 49.385227
-51.418812 -65.445472 49.00267
-51.521476 -64.210175 49.154139
-51.287647 -66.642959 48.784763
-51.418812 -65.445472 49.00267
-52.05989 -66.25341 48.945358
-51.15081 -67.876709 48.659422
-50.509731 -67.068771 48.716734
-51.287647 -66.642959 48.784763
-53.325323 -73.521625 44.320773
-52.671701 -74.242333 44.749947
-53.146423 -73.305561 45.230975
-53.560456 -73.732529 42.239203
-53.483059 -73.672878 43.319336
-53.634529 -73.745755 41.098467
-53.560456 -73.732529 42.239203
-54.18959 -72.900586 41.658192
-53.630846 -73.664578 39.896889
-53.634529 -73.745755 41.098467
-54.274887 -72.805024 39.284019
-54.895195 -72.072506 39.960285
-54.906418 -71.963718 38.726849
-53.630846 -73.664578 39.896889
-54.274887 -72.805024 39.284019
-56.927814 -69.443703 37.098827
-57.507072 -68.732094 37.900654
-57.607655 -68.620834 36.631996
-56.224867 -70.274662 37.630108
-56.927814 -69.443703 37.098827
-57.768013 -68.53025 35.355841
-57.854827 -68.341724 34.066187
-39.171148 -76.918537 49.105055
-38.479793 -75.783249 48.946573
-39.431437 -75.547916 48.897461
-39.171148 -76.918537 49.105055
-39.821462 -78.043095 49.199067
-44.564398 -66.587967 47.687605
-45.500416 -66.358609 47.828102
-44.417341 -67.905338 47.796362
-43.611203 -66.828151 47.598652
-44.564398 -66.587967 47.687605
-46.135584 -68.686333 48.075463
-46.295765 -67.397294 48.023497
-47.060812 -68.418473 48.213644
-41.652187 -81.071846 49.247789
-41.072344 -80.131744 49.293541
-41.999635 -79.746003 49.222898
-41.652187 -81.071846 49.247789
-42.190256 -81.955562 49.043852
-46.750202 -81.426205 46.486404
-46.481312 -81.04837 47.216366
-47.248894 -80.357243 46.796925
-46.219541 -82.397674 46.022965
-46.750202 -81.426205 46.486404
-45.501373 -83.155849 46.438724
-46.219541 -82.397674 46.022965
-58.223806 -58.402082 49.87849
-57.767822 -59.180909 49.935221
-58.657921 -56.500399 50.134485
-58.471096 -55.494802 50.350051
-58.74489 -57.565252 49.759689
-58.657921 -56.500399 50.134485
-59.228785 -56.667267 49.630529
-58.79467 -58.568951 49.374534
-58.223806 -58.402082 49.87849
-58.74489 -57.565252 49.759689
-60.686578 -52.672205 49.270597
-59.933661 -52.533907 49.715694
-60.814861 -53.83719 48.980154
-60.686578 -52.672205 49.270597
-61.338362 -52.837413 48.671914
-62.034987 -54.206846 47.600338
-61.996334 -53.023708 48.037754
-62.564677 -53.228155 47.256622
-64.874085 -52.099045 43.749184
-64.512405 -51.8076 44.691151
-65.187477 -52.385586 42.703846
-65.405532 -52.696666 41.669168
-64.804206 -53.319538 43.161572
-64.874085 -52.099045 43.749184
-65.187477 -52.385586 42.703846
-65.102513 -56.177799 39.403444
-65.207028 -55.057144 40.234165
-65.407761 -55.306728 39.047895
-64.441734 -61.037739 33.253203
-63.937683 -61.788191 33.496008
-64.188881 -61.015715 34.533805
-64.894897 -60.301276 33.014337
-65.032207 -59.495483 34.05022
-65.234173 -59.531496 32.773558
-64.441734 -61.037739 33.253203
-64.894897 -60.301276 33.014337
-65.618084 -56.293875 32.995235
-65.68248 -56.148754 34.217387
-65.683468 -57.169569 32.034903
-65.618084 -56.293875 32.995235
-65.634766 -56.336033 31.73857
-65.656777 -58.010746 31.024821
-65.640095 -57.968588 32.281486
-65.683468 -57.169569 32.034903
-65.697319 -57.12842 29.51192
-65.532166 -56.375275 30.499725
-65.529336 -56.291967 29.233407
-65.751533 -57.936445 29.74888
-65.697319 -57.12842 29.51192
-65.656777 -58.010746 31.024821
-65.751533 -57.936445 29.74888
3 0 35 33
3 0 36 35
3 135 39 136
3 137 136 37
3 135 136 137
3 139 138 39
3 1 42 40
3 3 45 43
3 3 47 45
3 1 50 48
3 1 40 50
3 2 54 52
3 5 140 141
3 5 142 144
3 142 56 143
3 142 143 144
3 4 59 57
3 6 62 60
3 6 64 62
3 6 65 64
3 145 67 146
3 7 147 149
3 147 69 148
3 147 148 149
3 7 71 69
3 150 73 151
3 152 75 153
3 154 153 73
3 152 153 154
3 8 78 76
3 10 79 31
3 10 80 79
3 155 82 156
3 8 83 32
3 8 76 83
3 12 86 84
3 157 87 158
3 159 158 34
3 157 158 159
3 161 160 87
3 14 162 163
3 14 164 166
3 164 88 165
3 164 165 166
3 15 91 89
3 17 92 38
3 17 93 92
3 17 94 93
3 18 97 95
3 20 98 41
3 20 99 98
3 9 100 77
3 21 101 44
3 21 102 101
3 21 103 102
3 22 104 46
3 22 105 104
3 167 106 168
3 11 107 81
3 23 108 49
3 23 109 108
3 23 110 109
3 18 111 51
3 18 95 111
3 19 112 96
3 170 169 53
3 13 171 173
3 173 172 85
3 171 172 173
3 24 174 176
3 176 175 55
3 174 175 176
3 24 177 178
3 179 113 180
3 25 114 58
3 25 115 114
3 16 116 90
3 26 117 61
3 26 118 117
3 26 119 118
3 181 120 182
3 183 182 63
3 181 182 183
3 185 184 120
3 27 121 66
3 27 122 121
3 186 123 187
3 28 124 68
3 28 125 124
3 28 126 125
3 29 127 70
3 29 128 127
3 188 129 189
3 190 130 191
3 192 191 129
3 190 191 192
3 30 131 72
3 30 132 131
3 30 133 132
3 194 193 74
3 195 134 196
3 197 31 198
3 199 198 8
3 197 198 199
3 200 31 201
3 202 10 203
3 204 203 31
3 202 203 204
3 205 32 206
3 207 32 208
3 209 8 210
3 211 210 32
3 209 210 211
3 33 34 12
3 35 34 33
3 35 212 214
3 214 213 34
3 212 213 214
3 35 215 216
3 36 217 219
3 219 218 35
3 217 218 219
3 36 220 221
3 222 14 223
3 37 38 15
3 39 38 37
3 39 17 38
3 39 224 226
3 226 225 17
3 224 225 226
3 228 227 39
3 40 41 18
3 42 41 40
3 42 20 41
3 43 44 9
3 45 44 43
3 45 21 44
3 45 46 21
3 47 46 45
3 47 22 46
3 48 49 11
3 50 49 48
3 50 23 49
3 50 51 23
3 40 51 50
3 40 18 51
3 52 53 19
3 54 53 52
3 54 229 231
3 231 230 53
3 229 230 231
3 233 232 13
3 234 55 235
3 56 236 238
3 236 55 237
3 236 237 238
3 56 24 55
3 57 239 241
3 239 58 240
3 239 240 241
3 59 58 57
3 59 25 58
3 60 61 16
3 62 61 60
3 62 26 61
3 62 63 26
3 64 63 62
3 64 242 244
3 244 243 63
3 242 243 244
3 64 245 246
3 65 247 249
3 249 248 64
3 247 248 249
3 65 250 251
3 252 66 253
3 67 254 256
3 254 66 255
3 254 255 256
3 67 27 66
3 257 68 258
3 257 258 259
3 69 260 262
3 260 68 261
3 260 261 262
3 69 28 68
3 69 70 28
3 71 70 69
3 71 29 70
3 263 72 264
3 73 265 267
3 265 72 266
3 265 266 267
3 73 30 72
3 73 74 30
3 75 74 73
3 75 268 270
3 270 269 74
3 268 269 270
3 76 77 1
3 78 77 76
3 78 9 77
3 31 78 8
3 79 78 31
3 79 9 78
3 79 43 9
3 80 43 79
3 80 3 43
3 271 81 272
3 82 273 275
3 273 81 274
3 273 274 275
3 82 11 81
3 32 276 278
3 276 82 277
3 276 277 278
3 83 82 32
3 83 11 82
3 83 48 11
3 76 48 83
3 76 1 48
3 84 85 2
3 86 85 84
3 86 13 85
3 34 86 12
3 87 86 34
3 87 13 86
3 87 279 281
3 281 280 13
3 279 280 281
3 283 282 87
3 88 284 285
3 88 286 288
3 286 5 287
3 286 287 288
3 89 90 4
3 91 90 89
3 91 16 90
3 38 91 15
3 92 91 38
3 92 16 91
3 92 60 16
3 93 60 92
3 93 6 60
3 93 289 291
3 291 290 6
3 289 290 291
3 94 292 294
3 294 293 93
3 292 293 294
3 94 295 297
3 295 296 297
3 298 94 299
3 300 299 17
3 298 299 300
3 301 94 302
3 304 303 94
3 305 7 306
3 95 307 309
3 307 96 308
3 307 308 309
3 97 96 95
3 97 19 96
3 41 97 18
3 98 97 41
3 98 19 97
3 98 52 19
3 99 52 98
3 99 2 52
3 77 42 1
3 100 42 77
3 100 20 42
3 44 100 9
3 101 100 44
3 101 20 100
3 101 99 20
3 102 99 101
3 102 2 99
3 102 84 2
3 103 84 102
3 103 12 84
3 46 103 21
3 104 103 46
3 104 12 103
3 104 33 12
3 105 33 104
3 105 0 33
3 310 57 311
3 106 312 314
3 312 57 313
3 312 313 314
3 106 4 57
3 81 315 316
3 107 317 319
3 319 318 81
3 317 318 319
3 107 320 321
3 49 107 11
3 108 107 49
3 108 322 324
3 324 323 107
3 322 323 324
3 108 325 327
3 325 106 326
3 325 326 327
3 109 106 108
3 109 4 106
3 109 89 4
3 110 89 109
3 110 15 89
3 51 110 23
3 111 110 51
3 111 15 110
3 111 37 15
3 95 37 111
3 95 328 330
3 330 329 37
3 328 329 330
3 96 331 332
3 112 333 335
3 335 334 96
3 333 334 335
3 112 336 337
3 53 112 19
3 338 112 339
3 340 339 53
3 338 339 340
3 342 341 112
3 85 54 2
3 343 54 344
3 345 344 85
3 343 344 345
3 347 346 54
3 349 348 13
3 55 350 352
3 350 351 352
3 354 353 55
3 113 355 356
3 113 357 359
3 357 14 358
3 357 358 359
3 58 360 362
3 360 113 361
3 360 361 362
3 114 113 58
3 114 14 113
3 114 88 14
3 115 88 114
3 115 5 88
3 90 59 4
3 116 59 90
3 116 25 59
3 61 116 16
3 117 116 61
3 117 25 116
3 117 115 25
3 118 115 117
3 118 5 115
3 118 56 5
3 119 56 118
3 119 24 56
3 63 119 26
3 120 119 63
3 120 24 119
3 120 363 365
3 365 364 24
3 363 364 365
3 367 366 120
3 368 65 369
3 370 369 6
3 368 369 370
3 371 65 372
3 374 373 65
3 375 10 376
3 66 377 378
3 121 379 381
3 381 380 66
3 379 380 381
3 121 382 384
3 382 10 383
3 382 383 384
3 121 80 10
3 122 80 121
3 122 3 80
3 385 67 386
3 123 387 389
3 387 67 388
3 387 388 389
3 123 27 67
3 68 390 392
3 390 123 391
3 390 391 392
3 124 123 68
3 124 27 123
3 124 122 27
3 125 122 124
3 125 3 122
3 125 47 3
3 126 47 125
3 126 22 47
3 70 126 28
3 127 126 70
3 127 22 126
3 127 105 22
3 128 105 127
3 128 0 105
3 393 7 394
3 129 395 396
3 129 397 399
3 397 7 398
3 397 398 399
3 129 71 7
3 130 71 129
3 130 29 71
3 72 400 402
3 400 130 401
3 400 401 402
3 131 130 72
3 131 29 130
3 131 128 29
3 132 128 131
3 132 0 128
3 132 36 0
3 133 36 132
3 133 403 405
3 405 404 36
3 403 404 405
3 74 133 30
3 406 133 407
3 408 407 74
3 406 407 408
3 410 409 133
3 411 75 412
3 134 413 415
3 413 75 414
3 413 414 415
3 134 416 418
3 418 417 75
3 416 417 418
3 419 134 420
3 419 420 421
3 422 134 423
3 425 424 134
