ply
format ascii 1.0
element vertex 437
property float x
property float y
property float z
element face 483
property list uchar int vertex_index
end_header
-45.400036 -86.574341 31.810211
-52.850601 -74.458397 43.839745
-52.526474 -69.792984 23.190603
-60.642788 -63.421463 19.423527
-47.93259 -80.802078 39.245567
-47.384155 -77.660568 27.690174
-52.697014 -73.405891 34.070724
-59.11932 -66.94075 29.727039
-65.070038 -61.299072 27.080452
-49.385509 -74.026253 16.132332
-45.992783 -84.871994 25.703562
-64.36425 -60.343681 18.044706
-44.640457 -87.874329 37.736927
-50.460625 -77.822784 41.793259
-50.152596 -77.048141 36.670296
-52.998028 -74.415344 39.276321
-61.55455 -64.704071 33.346054
-62.515511 -64.12191 28.2085
-64.190536 -61.810215 32.215405
-47.835995 -81.10379 44.137321
-49.452171 -73.531342 25.404667
-47.823647 -75.77594 21.795273
-50.127441 -71.548882 19.738094
-56.425537 -66.474396 21.163143
-53.431076 -67.65876 17.740812
-46.100227 -83.662247 35.913288
-46.188248 -82.053932 29.899471
-47.614738 -79.480537 33.597424
-49.630905 -75.47052 31.101959
-52.389652 -71.767502 28.659275
-55.622501 -70.994362 36.892731
-55.7024 -70.007782 31.699839
-55.883682 -68.468536 26.443747
-59.798553 -65.528442 24.570393
-63.436756 -62.712727 23.093357
-65.873596 -59.72765 21.981937
-45.80864 -84.558624 41.485371
-65.613403 -58.809765 31.271404
-65.975426 -58.233406 26.163055
-46.545677 -80.252274 23.826097
-47.715607 -78.552383 17.964563
-51.905991 -69.624786 14.263657
-45.800316 -87.208435 26.51063
-45.69368 -85.741776 28.758949
-45.060249 -87.309738 34.819191
-51.720222 -76.202194 42.85355
-51.731163 -76.129845 40.536346
-53.005394 -74.577698 41.679478
-62.974991 -63.255051 32.741013
-50.384644 -77.773842 44.001923
-50.867725 -71.60788 24.281042
-49.658806 -72.533554 22.558054
-51.144226 -70.585609 21.492596
-58.53944 -64.931549 20.251564
-56.879089 -65.32605 18.525343
-59.021229 -63.711575 17.657492
-46.885273 -82.231979 37.683998
-46.819248 -81.558266 34.794991
-47.797455 -80.236382 36.477505
-51.373238 -75.205139 35.356232
-49.884769 -76.330811 33.915588
-51.122883 -74.452026 32.628525
-50.911903 -73.572586 29.861773
-52.514946 -72.644882 31.377035
-58.812782 -67.407181 32.306412
-57.202026 -68.955391 33.250862
-57.375488 -68.433052 30.657345
-55.762367 -69.299721 29.075397
-57.574638 -67.769287 28.059872
-57.823223 -66.964432 25.459406
-59.443104 -66.318321 27.148487
-63.955669 -62.729008 27.604311
-62.977364 -63.533939 25.646458
-64.412735 -62.124676 25.044468
-64.860855 -61.255527 22.498486
-65.47374 -60.658653 24.522202
-47.961578 -81.111008 41.829571
-46.875908 -82.686752 40.429222
-46.00219 -84.235931 38.788052
-65.694489 -57.045113 28.245602
-46.698944 -79.833138 28.815769
-46.298111 -81.1521 26.852566
-46.78532 -78.904083 25.804066
-48.448738 -74.882935 18.921604
-47.604462 -77.113083 19.893995
-48.440239 -76.276962 17.055454
-49.58707 -75.467178 14.327221
-54.197922 -66.549377 15.061831
-52.439972 -68.530502 16.001375
-46.194977 -86.34584 23.494688
-46.361504 -84.006042 22.677969
-62.623875 -61.904076 18.687185
-61.133259 -62.113297 16.871899
-49.1609 -79.344391 40.605721
-49.014355 -78.918419 37.979088
-50.365372 -77.564346 39.319336
-51.596794 -75.78154 38.010818
-52.877209 -74.010422 36.717918
-60.453178 -65.928986 31.483126
-60.865051 -65.513603 28.912174
-62.043644 -64.501282 30.776123
-63.479687 -63.093437 30.171515
-64.647675 -61.670269 29.647301
-49.167027 -79.483101 43.007378
-48.292953 -75.554016 26.546623
-47.485504 -76.707275 24.72739
-48.437904 -74.578369 23.640579
-48.842438 -73.624435 20.764593
-49.542267 -72.702591 17.943172
-54.396492 -68.086182 22.146984
-52.872253 -68.740242 20.456623
-54.803345 -66.992737 19.463005
-55.379959 -65.840637 16.795874
-45.611355 -85.108459 33.946144
-45.782757 -84.306335 30.910711
-46.144196 -82.911179 32.932899
-46.734764 -80.736496 31.824137
-47.452232 -78.601562 30.656368
-48.784996 -78.264343 35.209362
-48.539307 -77.44561 32.356178
-48.35025 -76.523987 29.459444
-49.46328 -74.521866 28.258459
-50.806549 -72.612228 27.075071
-52.377304 -70.807999 25.92807
-54.28611 -72.696236 38.050583
-54.228481 -72.269485 35.47506
-57.028397 -69.332443 35.83017
-55.668282 -70.578842 34.311798
-54.13858 -71.668228 32.843689
-54.065102 -70.924438 30.185987
-54.055866 -70.065742 27.514526
-54.154602 -69.114204 24.833591
-56.097221 -67.524231 23.805439
-58.140762 -66.017975 22.855463
-60.19677 -64.563034 21.993515
-61.280693 -64.918869 26.34479
-61.708969 -64.12471 23.781719
-62.156273 -63.1194 21.226412
-63.898987 -61.647148 20.555872
-65.306839 -60.114834 19.976027
-66.278946 -58.506386 19.47168
-45.097431 -86.229919 39.743164
-45.395126 -85.774826 36.910316
-65.096863 -60.337288 31.737675
-65.445549 -60.200043 29.174616
-65.802917 -58.661163 28.719522
-65.762794 -59.804951 26.610683
-66.07309 -59.116806 24.055218
-66.396606 -58.120522 21.519844
-66.744705 -56.824593 19.018354
-45.961342 -83.435913 27.848604
-46.2118 -82.550018 24.796146
-46.603947 -81.682899 21.787189
-47.06654 -77.989929 22.819902
-46.999836 -79.382751 20.852875
-47.201904 -80.848846 18.854807
-51.666115 -69.55928 18.726187
-50.878681 -70.582428 16.96636
-50.545574 -71.806213 15.199286
-50.628876 -73.18705 13.447013
-45.546858 -86.158059 30.28458
-45.549345 -86.899071 29.149437
-45.402523 -87.315354 30.675068
-45.178221 -87.707268 32.179791
-45.008328 -88.074966 33.68428
-45.230142 -86.942039 33.314701
-45.402523 -87.315354 30.675068
-45.178221 -87.707268 32.179791
-52.183447 -75.208607 44.353316
-52.671701 -74.242333 44.749947
-52.285411 -75.330296 43.346648
-51.618257 -76.080506 43.860218
-52.183447 -75.208607 44.353316
-53.822792 -67.019645 14.199866
-54.672337 -65.977753 13.750539
-63.735027 -60.419187 17.110792
-62.86484 -61.199385 17.432032
-63.494062 -61.123879 18.365946
-44.211818 -88.902626 38.037661
-44.382238 -88.031472 39.11718
-60.79517 -65.445968 33.700367
-61.298535 -64.733574 34.627697
-61.003864 -65.316529 32.41459
-60.244484 -66.058426 32.768903
-60.79517 -65.445968 33.700367
-56.416897 -64.963836 16.351303
-56.129524 -65.583343 17.660609
-57.166462 -64.706543 17.216037
-55.746381 -65.236935 15.480031
-56.416897 -64.963836 16.351303
-60.354803 -62.24189 15.980289
-61.394331 -61.385893 15.613157
-54.954306 -71.845299 37.471657
-54.906418 -71.963718 38.726849
-55.574613 -71.112781 38.147922
-57.768013 -68.53025 35.355841
-57.607655 -68.620834 36.631996
-47.146229 -81.890904 44.638702
-47.67689 -80.919433 45.102142
-45.648777 -84.560592 42.699612
-46.27685 -83.706611 42.216525
-45.251865 -85.478523 41.92518
-45.648777 -84.560592 42.699612
-45.453035 -85.394272 40.614267
-44.896261 -86.31417 41.054077
-45.251865 -85.478523 41.92518
-65.355133 -59.573526 31.504539
-65.234173 -59.531496 32.773558
-65.492443 -58.767735 32.540422
-66.394409 -57.28197 21.300684
-66.280178 -57.808605 22.56625
-66.568458 -56.634005 20.049939
-66.570656 -57.472558 20.269099
-66.394409 -57.28197 21.300684
-47.884355 -79.297894 16.996545
-47.627504 -80.446125 17.441668
-47.458755 -79.700615 18.409685
-51.386799 -72.760124 12.160867
-51.230156 -72.050373 12.998557
-50.828434 -73.92091 12.584107
-51.386799 -72.760124 12.160867
-45.602663 -87.6324 28.025278
-45.671149 -88.378853 26.839534
-45.746998 -86.475105 27.63479
-45.602663 -87.6324 28.025278
-45.549345 -86.899071 29.149437
-64.594944 -59.585241 16.809075
-65.057732 -59.530265 17.767136
-44.740278 -88.400734 35.159385
-44.530382 -88.68303 36.618254
-44.850353 -87.592033 36.278059
-44.740278 -88.400734 35.159385
-45.008328 -88.074966 33.68428
-61.994396 -63.979957 34.325493
-61.298535 -64.733574 34.627697
-62.704617 -63.255448 34.022973
-62.26477 -63.979561 33.043534
-61.994396 -63.979957 34.325493
-63.32991 -62.510609 33.758812
-62.704617 -63.255448 34.022973
-63.937683 -61.788191 33.496008
-63.582763 -62.532633 32.478209
-63.32991 -62.510609 33.758812
-50.950468 -76.86633 44.434404
-50.239575 -77.57695 44.923935
-51.052433 -76.988018 43.427736
-50.950468 -76.86633 44.434404
-51.618257 -76.080506 43.860218
-58.237532 -63.899305 16.782112
-57.166462 -64.706543 17.216037
-57.950159 -64.518812 18.091417
-56.224867 -70.274662 37.630108
-55.574613 -71.112781 38.147922
-58.007404 -68.181286 32.778637
-57.854827 -68.341724 34.066187
-58.660206 -67.56762 33.593962
-47.353319 -81.982803 42.388625
-47.290527 -81.979195 43.5425
-47.898786 -81.107399 42.983446
-46.810484 -82.770675 41.68845
-47.353319 -81.982803 42.388625
-47.418743 -81.89888 41.129396
-46.342274 -83.622688 40.957296
-46.27685 -83.706611 42.216525
-46.810484 -82.770675 41.68845
-65.640095 -57.968588 32.281486
-65.492443 -58.767735 32.540422
-65.418251 -56.200344 27.981543
-65.529336 -56.291967 29.233407
-65.695328 -56.815409 26.974129
-65.418251 -56.200344 27.981543
-65.835797 -57.409555 25.932856
-65.834958 -57.63926 27.204329
-65.695328 -56.815409 26.974129
-66.069588 -57.865048 24.887856
-65.835797 -57.409555 25.932856
-48.582439 -77.014397 16.121595
-48.220123 -78.152107 16.576149
-48.077923 -77.414672 17.510008
-49.155855 -76.609504 14.757478
-48.582439 -77.014397 16.121595
-49.013655 -75.87207 15.691337
-49.80845 -76.211899 13.432845
-49.155855 -76.609504 14.757478
-52.943817 -68.010208 14.669638
-53.318947 -67.53994 15.531603
-53.822792 -67.019645 14.199866
-52.676827 -68.55735 13.80078
-52.172981 -69.077644 15.132516
-52.943817 -68.010208 14.669638
-45.906697 -87.952354 25.352313
-45.671149 -88.378853 26.839534
-46.104027 -87.521057 23.844342
-45.906697 -87.952354 25.352313
-45.997647 -86.777137 25.002659
-46.335949 -87.094032 22.369684
-46.104027 -87.521057 23.844342
-46.4235 -85.920974 22.009279
-46.335949 -87.094032 22.369684
-46.506763 -84.751075 21.600919
-46.4235 -85.920974 22.009279
-46.27824 -85.175941 23.086329
-46.614142 -83.585067 21.19661
-46.506763 -84.751075 21.600919
-62.119532 -61.303995 16.524389
-61.878567 -62.008687 17.779542
-62.86484 -61.199385 17.432032
-61.394331 -61.385893 15.613157
-62.119532 -61.303995 16.524389
-63.735027 -60.419187 17.110792
-64.594944 -59.585241 16.809075
-44.211818 -88.902626 38.037661
-44.530382 -88.68303 36.618254
-59.424285 -66.797523 33.180546
-58.660206 -67.56762 33.593962
-59.63298 -66.668083 31.894769
-59.424285 -66.797523 33.180546
-60.244484 -66.058426 32.768903
-48.410709 -80.194828 44.611679
-47.67689 -80.919433 45.102142
-49.685034 -78.529854 44.54398
-50.239575 -77.57695 44.923935
-49.076225 -79.384484 44.046707
-49.685034 -78.529854 44.54398
-49.775835 -78.628472 43.50465
-48.501511 -80.293446 43.57235
-48.410709 -80.194828 44.611679
-49.076225 -79.384484 44.046707
-53.483059 -73.672878 43.319336
-53.325323 -73.521625 44.320773
-53.325323 -73.521625 44.320773
-52.671701 -74.242333 44.749947
-55.155363 -65.591305 14.61301
-54.78894 -66.195007 15.928853
-55.746381 -65.236935 15.480031
-54.672337 -65.977753 13.750539
-55.155363 -65.591305 14.61301
-59.298788 -63.041029 16.373085
-60.077244 -62.912436 17.264696
-60.354803 -62.24189 15.980289
-58.237532 -63.899305 16.782112
-59.298788 -63.041029 16.373085
-53.560456 -73.732529 42.239203
-52.927998 -74.518047 42.759612
-53.483059 -73.672878 43.319336
-53.634529 -73.745755 41.098467
-53.560456 -73.732529 42.239203
-53.630846 -73.664578 39.896889
-53.001711 -74.496521 40.4779
-53.634529 -73.745755 41.098467
-54.274887 -72.805024 39.284019
-54.906418 -71.963718 38.726849
-53.642069 -73.55579 38.663452
-53.630846 -73.664578 39.896889
-54.274887 -72.805024 39.284019
-56.927814 -69.443703 37.098827
-57.607655 -68.620834 36.631996
-56.325449 -70.163402 36.361451
-56.224867 -70.274662 37.630108
-56.927814 -69.443703 37.098827
-57.115212 -69.143917 34.540516
-57.768013 -68.53025 35.355841
-57.854827 -68.341724 34.066187
-65.529026 -59.415842 18.732797
-65.057732 -59.530265 17.767136
-64.835544 -60.229258 19.010366
-66.01508 -58.611618 18.480624
-65.529026 -59.415842 18.732797
-65.792892 -59.31061 19.723853
-66.484783 -57.762102 18.238411
-66.01508 -58.611618 18.480624
-47.146229 -81.890904 44.638702
-47.290527 -81.979195 43.5425
-44.610726 -87.209266 40.120299
-44.896261 -86.31417 41.054077
-44.868944 -87.052124 38.740046
-44.382238 -88.031472 39.11718
-44.610726 -87.209266 40.120299
-64.441734 -61.037739 33.253203
-63.937683 -61.788191 33.496008
-64.894897 -60.301276 33.014337
-65.234173 -59.531496 32.773558
-64.643699 -61.073752 31.97654
-64.441734 -61.037739 33.253203
-64.894897 -60.301276 33.014337
-65.656777 -58.010746 31.024821
-65.640095 -57.968588 32.281486
-65.697319 -57.12842 29.51192
-65.529336 -56.291967 29.233407
-65.751533 -57.936445 29.74888
-65.697319 -57.12842 29.51192
-65.748703 -57.853138 28.482562
-65.70816 -58.735464 29.995463
-65.656777 -58.010746 31.024821
-65.751533 -57.936445 29.74888
-66.11842 -58.306748 23.833937
-66.024258 -58.675106 25.109136
-66.069588 -57.865048 24.887856
-66.234848 -58.618664 22.787531
-66.11842 -58.306748 23.833937
-66.280178 -57.808605 22.56625
-66.717662 -56.921205 18.011748
-66.484783 -57.762102 18.238411
-66.511826 -57.665489 19.245017
-66.708534 -55.9572 18.801644
-66.568458 -56.634005 20.049939
-66.930984 -56.042275 17.791926
-66.708534 -55.9572 18.801644
-66.717662 -56.921205 18.011748
-66.930984 -56.042275 17.791926
-46.735363 -82.423496 20.751221
-46.614142 -83.585067 21.19661
-46.482726 -82.84447 22.232579
-47.034341 -82.006469 19.28503
-46.735363 -82.423496 20.751221
-46.902925 -81.265873 20.320998
-47.384307 -81.597682 17.850683
-47.034341 -82.006469 19.28503
-47.384307 -81.597682 17.850683
-47.627504 -80.446125 17.441668
-47.884355 -79.297894 16.996545
-48.220123 -78.152107 16.576149
-52.541272 -69.13961 12.954898
-52.676827 -68.55735 13.80078
-51.868713 -70.269241 13.406879
-52.541272 -69.13961 12.954898
-51.188505 -71.359955 13.874693
-51.225783 -70.715499 14.731472
-51.868713 -70.269241 13.406879
-50.587225 -72.496632 14.323149
-51.188505 -71.359955 13.874693
-51.230156 -72.050373 12.998557
-50.307531 -75.060974 13.02421
-50.107973 -74.327114 13.887117
-50.828434 -73.92091 12.584107
-49.80845 -76.211899 13.432845
-50.307531 -75.060974 13.02421
3 0 160 162
3 160 43 161
3 160 161 162
3 0 163 165
3 165 164 44
3 163 164 165
3 0 166 167
3 1 47 45
3 1 168 169
3 1 170 172
3 170 45 171
3 170 171 172
3 2 52 50
3 3 55 53
3 4 58 56
3 6 61 59
3 6 63 61
3 7 66 64
3 7 68 66
3 7 70 68
3 8 73 71
3 8 75 73
3 4 77 76
3 4 56 77
3 5 82 80
3 9 85 83
3 9 86 85
3 174 173 87
3 10 89 42
3 10 90 89
3 11 175 177
3 177 176 91
3 175 176 177
3 12 178 179
3 13 95 93
3 15 96 46
3 15 97 96
3 16 180 181
3 16 182 184
3 182 98 183
3 182 183 184
3 16 100 98
3 18 101 48
3 18 102 101
3 13 103 49
3 13 93 103
3 20 106 104
3 22 107 51
3 22 108 107
3 23 111 109
3 185 112 186
3 187 186 54
3 185 186 187
3 189 188 112
3 191 190 92
3 25 115 113
3 27 116 57
3 27 117 116
3 14 118 94
3 28 119 60
3 28 120 119
3 28 121 120
3 29 122 62
3 29 123 122
3 30 192 194
3 192 124 193
3 192 193 194
3 30 125 124
3 195 126 196
3 31 127 65
3 31 128 127
3 31 129 128
3 32 130 67
3 32 131 130
3 32 132 131
3 33 133 69
3 33 134 133
3 17 135 99
3 34 136 72
3 34 137 136
3 34 138 137
3 35 139 74
3 35 140 139
3 19 197 198
3 36 199 200
3 36 201 202
3 36 203 205
3 203 141 204
3 203 204 205
3 25 142 78
3 25 113 142
3 37 206 208
3 206 143 207
3 206 207 208
3 37 144 143
3 38 145 79
3 38 146 145
3 38 147 146
3 209 148 210
3 211 149 212
3 213 212 148
3 211 212 213
3 26 150 114
3 39 151 81
3 39 152 151
3 21 153 105
3 40 154 84
3 40 155 154
3 40 214 216
3 216 215 155
3 214 215 216
3 24 156 110
3 41 157 88
3 41 158 157
3 217 159 218
3 220 219 159
3 221 42 222
3 43 223 225
3 223 42 224
3 223 224 225
3 43 10 42
3 227 226 11
3 44 228 230
3 230 229 12
3 228 229 230
3 232 231 44
3 45 46 13
3 47 46 45
3 47 15 46
3 233 16 234
3 235 48 236
3 237 236 16
3 235 236 237
3 238 48 239
3 240 18 241
3 242 241 48
3 240 241 242
3 243 49 244
3 45 245 247
3 245 49 246
3 245 246 247
3 45 13 49
3 50 51 20
3 52 51 50
3 52 22 51
3 53 54 23
3 55 54 53
3 55 248 250
3 250 249 54
3 248 249 250
3 56 57 25
3 58 57 56
3 58 27 57
3 59 60 14
3 61 60 59
3 61 28 60
3 61 62 28
3 63 62 61
3 63 29 62
3 251 30 252
3 64 253 255
3 253 65 254
3 253 254 255
3 66 65 64
3 66 31 65
3 66 67 31
3 68 67 66
3 68 32 67
3 68 69 32
3 70 69 68
3 70 33 69
3 71 72 17
3 73 72 71
3 73 34 72
3 73 74 34
3 75 74 73
3 75 35 74
3 76 256 258
3 258 257 19
3 256 257 258
3 77 259 261
3 261 260 76
3 259 260 261
3 77 262 264
3 262 36 263
3 262 263 264
3 77 78 36
3 56 78 77
3 56 25 78
3 265 37 266
3 267 79 268
3 269 79 270
3 271 38 272
3 273 272 79
3 271 272 273
3 275 274 38
3 80 81 26
3 82 81 80
3 82 39 81
3 83 84 21
3 85 84 83
3 85 40 84
3 85 276 278
3 278 277 40
3 276 277 278
3 86 279 281
3 281 280 85
3 279 280 281
3 86 282 283
3 87 88 24
3 284 88 285
3 286 285 87
3 284 285 286
3 287 41 288
3 289 288 88
3 287 288 289
3 42 290 291
3 89 292 294
3 294 293 42
3 292 293 294
3 89 295 296
3 89 297 298
3 90 299 301
3 301 300 89
3 299 300 301
3 90 302 303
3 91 92 3
3 304 92 305
3 306 305 91
3 304 305 306
3 308 307 92
3 310 309 11
3 312 311 12
3 93 94 4
3 95 94 93
3 95 14 94
3 46 95 13
3 96 95 46
3 96 14 95
3 96 59 14
3 97 59 96
3 97 6 59
3 313 64 314
3 98 315 317
3 315 64 316
3 315 316 317
3 98 7 64
3 98 99 7
3 100 99 98
3 100 17 99
3 48 100 16
3 101 100 48
3 101 17 100
3 101 71 17
3 102 71 101
3 102 8 71
3 318 19 319
3 49 320 321
3 103 322 324
3 324 323 49
3 322 323 324
3 103 325 327
3 325 19 326
3 325 326 327
3 103 76 19
3 93 76 103
3 93 4 76
3 104 105 5
3 106 105 104
3 106 21 105
3 51 106 20
3 107 106 51
3 107 21 106
3 107 83 21
3 108 83 107
3 108 9 83
3 329 328 1
3 330 1 331
3 109 110 2
3 111 110 109
3 111 24 110
3 54 111 23
3 112 111 54
3 112 24 111
3 112 87 24
3 332 87 333
3 334 333 112
3 332 333 334
3 336 335 87
3 92 55 3
3 337 55 338
3 339 338 92
3 337 338 339
3 341 340 55
3 113 114 0
3 115 114 113
3 115 26 114
3 57 115 25
3 116 115 57
3 116 26 115
3 116 80 26
3 117 80 116
3 117 5 80
3 94 58 4
3 118 58 94
3 118 27 58
3 60 118 14
3 119 118 60
3 119 27 118
3 119 117 27
3 120 117 119
3 120 5 117
3 120 104 5
3 121 104 120
3 121 20 104
3 62 121 28
3 122 121 62
3 122 20 121
3 122 50 20
3 123 50 122
3 123 2 50
3 342 47 343
3 344 343 1
3 342 343 344
3 345 47 346
3 347 15 348
3 349 348 47
3 347 348 349
3 124 350 351
3 124 352 354
3 352 15 353
3 352 353 354
3 124 97 15
3 125 97 124
3 125 6 97
3 126 355 356
3 126 357 359
3 357 30 358
3 357 358 359
3 65 360 362
3 360 126 361
3 360 361 362
3 127 126 65
3 127 30 126
3 127 125 30
3 128 125 127
3 128 6 125
3 128 63 6
3 129 63 128
3 129 29 63
3 67 129 31
3 130 129 67
3 130 29 129
3 130 123 29
3 131 123 130
3 131 2 123
3 131 109 2
3 132 109 131
3 132 23 109
3 69 132 32
3 133 132 69
3 133 23 132
3 133 53 23
3 134 53 133
3 134 3 53
3 99 70 7
3 135 70 99
3 135 33 70
3 72 135 17
3 136 135 72
3 136 33 135
3 136 134 33
3 137 134 136
3 137 3 134
3 137 91 3
3 138 91 137
3 138 11 91
3 74 138 34
3 139 138 74
3 139 11 138
3 139 363 365
3 365 364 11
3 363 364 365
3 140 366 368
3 368 367 139
3 366 367 368
3 140 369 370
3 372 371 19
3 141 373 374
3 141 375 377
3 375 12 376
3 375 376 377
3 78 141 36
3 142 141 78
3 142 12 141
3 142 44 12
3 113 44 142
3 113 0 44
3 378 18 379
3 143 380 381
3 143 382 384
3 382 18 383
3 382 383 384
3 143 102 18
3 144 102 143
3 144 8 102
3 385 37 386
3 79 387 388
3 145 389 391
3 391 390 79
3 389 390 391
3 145 392 394
3 392 37 393
3 392 393 394
3 145 144 37
3 146 144 145
3 146 8 144
3 146 75 8
3 147 75 146
3 147 35 75
3 395 147 396
3 397 396 38
3 395 396 397
3 148 398 400
3 398 147 399
3 398 399 400
3 148 35 147
3 148 140 35
3 149 140 148
3 149 401 403
3 403 402 140
3 401 402 403
3 404 149 405
3 406 149 407
3 409 408 149
3 114 43 0
3 150 43 114
3 150 10 43
3 81 150 26
3 151 150 81
3 151 10 150
3 151 90 10
3 152 90 151
3 152 410 412
3 412 411 90
3 410 411 412
3 105 82 5
3 153 82 105
3 153 39 82
3 84 153 21
3 154 153 84
3 154 39 153
3 154 152 39
3 155 152 154
3 155 413 415
3 415 414 152
3 413 414 415
3 155 416 417
3 419 418 155
3 421 420 40
3 110 52 2
3 156 52 110
3 156 22 52
3 88 156 24
3 157 156 88
3 157 22 156
3 157 108 22
3 158 108 157
3 158 9 108
3 422 41 423
3 424 41 425
3 426 158 427
3 428 427 41
3 426 427 428
3 159 429 431
3 429 158 430
3 429 430 431
3 159 9 158
3 159 86 9
3 432 86 433
3 434 433 159
3 432 433 434
3 436 435 86
