ply
format ascii 1.0
element vertex 994
property float x
property float y
property float z
element face 1269
property list uchar int vertex_index
end_header
-11.488285 -78.566772 6.409495
-1.269779 -119.455109 -3.612608
-13.942536 -69.073807 -14.557272
-9.238657 -79.194824 -4.195185
-5.426655 -97.988327 5.072063
-2.568136 -100.869583 -10.702463
-23.661964 -83.095268 -19.847324
-10.192057 -68.211891 -1.730318
-12.717447 -80.313629 1.102376
-5.421814 -92.310623 20.632877
-4.6152 -96.307098 30.761295
-0.605923 -109.002121 2.118323
-1.732515 -102.337601 -2.612814
-1.128853 -112.538086 -8.877348
-19.21566 -99.265472 -19.868938
-31.975267 -68.749191 -26.407295
-12.34354 -59.852772 -12.915615
-22.938126 -60.164352 -19.15147
-10.043928 -64.76712 -7.456696
-7.826767 -75.291138 -9.489393
-11.5261 -87.532394 5.66717
-8.081692 -89.805389 12.202354
-1.904495 -100.291794 11.831027
-7.868162 -91.44458 -0.020724
-3.603846 -90.380127 -5.833607
-7.773224 -85.735275 -12.029026
-7.141888 -108.973022 -16.60247
-11.945801 -94.064972 -16.163206
-18.462151 -77.27034 -16.544888
-27.735226 -65.971985 -21.750072
-11.544174 -74.976318 2.468179
-12.637691 -79.588593 3.928304
-5.333174 -91.203537 30.17598
-4.811018 -92.920624 35.313354
-0.236984 -114.483932 -0.537788
-0.551962 -111.64299 -3.441158
-1.244701 -116.521637 -6.759668
-12.663895 -64.365326 -13.926355
-18.529377 -64.901497 -16.746834
-10.937693 -73.606667 -3.327477
-10.161718 -66.695679 -4.656778
-9.676271 -71.988258 -6.017265
-9.130522 -69.88604 -8.691778
-7.67094 -77.496826 -6.786545
-9.615503 -85.089508 12.309174
-8.246586 -86.058731 16.247568
-3.610941 -95.929871 16.180063
0.438597 -106.217926 11.139754
-8.859602 -92.719269 5.470083
-10.330582 -90.133606 2.756076
-6.844727 -95.51944 2.372836
-1.078228 -102.291931 -6.776031
-2.35202 -96.928329 -4.255203
-2.292196 -95.798157 -7.840151
-4.440205 -88.507919 -9.014091
-4.778803 -93.578354 -11.260904
-6.193422 -114.968918 -16.419952
-11.142803 -111.447418 -18.926533
-21.397661 -91.41449 -19.633263
-15.198649 -97.188705 -18.042255
-18.035791 -89.003616 -17.863605
-15.212479 -85.777084 -16.17296
-20.966682 -80.512573 -18.066074
-23.636612 -71.911316 -18.747463
-25.840214 -74.557419 -20.540146
-9.504717 -69.308578 1.373949
-11.805273 -74.602173 -0.507802
-11.360451 -80.205429 -1.616863
-7.095104 -87.457977 20.564932
-6.121305 -89.273407 25.223454
-4.7651 -94.285706 25.549335
-2.420549 -103.420944 4.031309
-3.521292 -100.905518 1.392601
-1.306992 -106.329819 -0.575954
-0.666899 -107.635834 -5.447685
-1.401667 -107.294662 -10.061409
-23.998787 -99.972107 -21.822338
-25.467003 -92.60788 -21.659409
-26.914326 -84.654984 -21.947292
-28.271656 -76.348091 -22.728172
-31.487801 -76.922028 -25.116806
-3.272011 -120.57991 -10.092014
-8.438137 -61.728798 -2.493168
-9.516666 -60.040028 -5.445175
-10.718622 -58.10693 -8.284864
-10.623219 -62.484917 -10.207546
-10.098413 -67.368698 -11.369484
-10.07453 -72.5327 -12.156101
-12.390921 -82.558456 5.977412
-11.128906 -84.14241 8.831125
-9.853828 -88.981537 8.70483
-7.0007 -94.016159 8.554932
-6.548208 -90.780945 16.169851
-5.11812 -94.828644 12.084479
-3.661013 -99.310059 8.175034
-0.960796 -104.955597 7.24403
0.422436 -110.832535 5.57383
0.303291 -116.557159 3.211085
-1.226929 -121.597137 0.374807
-4.024357 -125.397995 -2.595488
-12.614647 -84.733017 3.132225
-11.184721 -85.894073 0.401966
-8.634447 -85.854462 -2.186581
-4.306929 -96.910889 -0.830265
-5.13043 -91.427078 -2.828154
-6.265274 -84.812012 -4.788145
-5.538982 -83.069984 -7.575583
-7.211342 -80.691277 -10.464201
-11.016287 -77.515366 -13.116955
-2.989174 -116.697052 -12.303804
-3.154388 -111.627335 -13.438799
-4.250193 -105.349838 -13.816481
-12.791567 -104.769394 -18.486515
-9.127411 -101.906906 -16.382601
-6.418612 -98.096222 -13.90583
-9.431906 -90.209839 -14.074911
-12.827229 -81.953323 -14.510761
-16.028145 -73.460526 -15.349876
-21.178299 -68.668358 -17.469349
-25.623844 -63.330727 -20.087177
-29.585985 -67.878853 -23.967854
-11.71813 -77.241524 4.591256
-12.124548 -79.056213 5.282143
-0.585835 -117.061951 -2.044121
-0.689041 -115.727112 -3.679098
-1.282682 -118.100571 -5.307966
-13.179621 -66.729843 -14.252155
-14.392218 -62.651234 -15.132292
-15.184581 -64.876671 -15.401566
-17.311733 -62.866219 -16.524796
-16.206333 -67.069595 -15.658192
-10.343712 -76.389252 -3.834414
-10.287394 -72.867233 -4.681444
-9.478024 -75.627609 -5.138252
-8.782232 -74.724205 -6.444357
-8.298828 -78.416031 -5.478315
-7.814356 -84.443375 18.37953
-7.158703 -95.339478 5.324802
-7.961416 -94.278381 3.921852
-6.189056 -96.938705 3.679315
-1.517517 -101.750381 -8.800152
-1.565428 -99.167007 -7.313927
-2.23925 -98.39209 -9.195501
-3.218796 -94.828796 -9.60041
-3.550644 -97.309799 -10.968405
-22.531403 -87.29599 -19.681011
-19.63727 -90.33577 -18.724461
-20.956154 -86.151169 -18.767639
-19.51033 -84.781219 -17.912647
-22.269411 -81.904335 -18.921143
-23.54583 -77.620796 -19.190681
-24.7714 -78.841446 -20.13303
-8.842218 -69.73381 2.987334
-12.478638 -77.594452 1.68996
-11.831009 -74.855957 0.965178
-12.375004 -77.582596 0.249649
-11.931114 -77.382721 -1.153193
-12.198822 -80.377754 -0.278955
-6.285263 -86.917786 25.117659
-5.800114 -87.851288 27.496227
-5.071142 -93.718582 30.449881
-5.284065 -92.73674 27.875195
-4.624491 -95.318176 28.132982
-3.769922 -96.938477 25.791348
-1.338346 -106.203156 3.183363
-1.843071 -105.062485 1.783187
-1.007866 -107.807266 0.678581
-0.713734 -112.315979 -6.221481
-0.609732 -109.804459 -4.549461
-0.714663 -110.157593 -7.128193
-0.801683 -107.668808 -7.825901
-1.179642 -110.076691 -9.566843
-27.767258 -92.66684 -22.728737
-28.321335 -88.862732 -22.853325
-26.202156 -88.68985 -21.741814
-28.836048 -84.93277 -23.091259
-29.311392 -80.904709 -23.446751
-8.875345 -65.649101 -0.630276
-9.29026 -64.949226 -2.175304
-10.061941 -65.779037 -6.066914
-9.785086 -63.302513 -5.126932
-10.002903 -62.355927 -6.550728
-10.071135 -59.104622 -6.872854
-10.311804 -61.331898 -7.954767
-10.786535 -60.233177 -9.348146
-10.20615 -63.667908 -8.835659
-8.450939 -72.567429 -9.10828
-9.402119 -68.681213 -10.036152
-8.976742 -71.319626 -10.452326
-9.979685 -69.942467 -11.773462
-8.70274 -73.99102 -10.844162
-11.025911 -81.832169 8.878763
-10.328856 -82.357605 10.532385
-9.0842 -87.415573 12.259197
-9.901754 -87.007721 10.45429
-8.954758 -89.418671 10.396812
-8.565636 -91.474319 8.640226
-7.62048 -91.887527 10.335251
-6.447115 -89.830444 20.579815
-6.993227 -89.033401 18.338438
-5.928801 -91.472702 18.339657
-2.681099 -98.029099 14.009546
-4.295322 -95.310394 14.055351
-3.463892 -97.498474 11.991541
-4.361309 -97.057144 10.132036
-2.749542 -99.79277 9.923992
-2.175667 -102.089615 7.795613
-1.333956 -102.638763 9.592399
1.066576 -109.285004 10.538335
0.547245 -108.587814 8.434166
0.920073 -111.605682 7.576805
0.548342 -113.745361 4.468337
0.900688 -114.570023 6.537403
-0.254721 -120.040451 4.003826
-1.347704 -122.392654 2.585512
-2.474993 -123.685379 -1.119631
-12.218239 -84.994217 5.80012
-12.713305 -83.749237 4.548402
-12.174841 -86.332794 4.334029
-9.213541 -90.964828 1.359988
-10.842375 -88.219604 1.534545
-9.655745 -88.681824 0.193423
-9.982601 -86.019516 -0.903833
-8.274466 -88.815475 -1.126863
-2.559055 -101.813522 -0.573772
-3.934311 -99.105591 0.240418
-2.847492 -99.629929 -1.58005
-2.884684 -93.77182 -5.033831
-3.5819 -94.187027 -3.409451
-4.124714 -91.012726 -4.300085
-5.653818 -88.232971 -3.803995
-4.810621 -87.606384 -5.210869
-5.625217 -84.01683 -6.155489
-4.500536 -86.800018 -6.677965
-5.827847 -87.244492 -10.570679
-5.780022 -84.654037 -9.702944
-7.341202 -83.276169 -11.166941
-8.896204 -79.213379 -11.840982
-9.401962 -81.665268 -12.529955
-4.555338 -120.421799 -12.932932
-3.109119 -118.776291 -11.341089
-4.407759 -118.39003 -13.894581
-6.537622 -112.117386 -16.591095
-4.519409 -113.441315 -14.992012
-4.902239 -110.509048 -15.206108
-3.567169 -108.630142 -13.693396
-5.55283 -107.28653 -15.270863
-18.232784 -102.927246 -20.118542
-14.971439 -105.745407 -19.457043
-15.970545 -102.167236 -19.17775
-13.480274 -95.733948 -17.126724
-12.081499 -99.690979 -17.281425
-10.454199 -98.061172 -16.254356
-7.649706 -100.10199 -15.190378
-9.03886 -96.225449 -15.144402
-7.844555 -94.212173 -13.965479
-10.59351 -92.217194 -15.139482
-16.871246 -81.542343 -16.304024
-13.962676 -83.938278 -15.327538
-15.643669 -79.709793 -15.553829
-14.488407 -77.729675 -14.869843
-17.227646 -75.439514 -15.89772
-18.647232 -71.142624 -16.386724
-19.918629 -72.973427 -16.923134
-25.834839 -69.015579 -20.127132
-24.743008 -67.608414 -19.3223
-26.750977 -64.727478 -20.832256
-27.443953 -60.48019 -21.721313
-30.206568 -72.649048 -24.500435
-28.932865 -72.123535 -23.293667
-30.666424 -68.461472 -25.183609
-10.984938 -75.012688 3.984488
-12.239697 -77.457481 3.147725
-12.860209 -80.033974 2.51501
-5.335358 -88.774078 29.936138
-5.03311 -92.105347 32.731487
-4.957949 -94.630112 33.05764
-0.239525 -111.77887 0.86441
-0.538713 -110.529388 -0.633341
-0.435999 -113.185867 -2.104019
-0.724104 -114.160461 -5.074957
-1.175169 -114.679321 -7.949247
-12.399185 -62.052261 -13.503651
-13.614653 -58.386829 -14.240818
-19.453768 -60.715725 -17.673527
-20.803156 -62.592701 -17.888618
-10.898516 -70.871796 -2.630997
-10.237005 -67.508362 -3.214449
-10.569216 -70.153831 -4.049448
-10.178032 -69.306732 -5.435066
-9.851589 -68.344055 -6.801517
-9.712223 -67.279358 -8.160822
-9.249607 -70.989754 -7.351095
-8.404085 -73.700882 -7.767357
-7.487898 -76.454964 -8.127377
-9.633005 -82.821671 12.333979
-8.903231 -85.536621 14.227452
-8.316349 -87.848053 14.176484
-4.145756 -94.906586 20.7384
-4.577662 -94.026993 18.382238
-3.097246 -96.705597 18.459837
-2.064713 -98.696625 16.193884
-1.194145 -100.879425 13.90885
-0.571436 -103.205811 11.560463
0.035469 -103.850082 13.704202
-10.367071 -90.116104 5.567616
-11.119108 -88.971329 4.186588
-9.661772 -91.624374 4.068057
-8.649261 -92.831741 2.601554
-7.398623 -93.689133 1.142519
-1.189215 -102.491318 -4.694796
-1.984293 -99.798798 -3.462332
-1.509821 -99.638077 -5.385612
-2.020119 -96.497421 -6.041441
-2.748451 -93.118195 -6.707453
-3.691689 -89.546692 -7.417042
-3.25996 -92.232101 -8.397511
-4.431414 -91.102417 -10.05158
-6.207365 -89.7117 -11.608942
-8.463184 -113.419098 -17.853287
-9.008095 -110.371582 -17.812889
-20.282694 -95.416443 -19.699833
-17.108294 -98.38208 -18.944016
-18.343372 -94.425339 -18.786545
-16.584877 -93.151459 -17.910057
-14.991791 -91.647797 -17.034393
-13.550535 -89.959167 -16.131052
-16.567612 -87.471222 -17.019619
-18.157425 -83.235168 -17.094177
-19.707287 -78.961372 -17.272892
-21.158764 -74.664566 -17.577705
-22.359224 -76.217712 -18.337429
-24.749123 -73.319321 -19.586964
-26.841208 -70.261642 -21.075207
-8.299751 -66.27475 0.965056
-9.958176 -68.808228 -0.200268
-10.610655 -72.233032 1.876822
-10.969183 -71.90097 0.334237
-11.056395 -71.453049 -1.170298
-11.48317 -74.188019 -1.939278
-11.21357 -76.981949 -2.512024
-10.319681 -79.80262 -2.916212
-6.781679 -86.014023 22.804144
-6.587639 -88.329025 22.853567
-5.978472 -90.742706 22.923035
-5.700003 -90.246506 27.667908
-5.589088 -91.728241 25.359512
-5.032478 -93.264511 23.041372
-3.874643 -95.895447 23.216656
-2.657841 -98.628067 23.425648
-3.809177 -100.679977 4.654828
-4.501581 -99.618408 3.272632
-3.024137 -102.327057 2.649308
-2.241402 -103.617004 0.538025
-1.529974 -104.515625 -1.663414
-0.742992 -109.017731 -1.920115
-0.878555 -107.19046 -3.006411
-1.002825 -105.016235 -3.918051
-0.798262 -105.126648 -6.172895
-1.049553 -104.856842 -8.36348
-1.853422 -104.213089 -10.419092
-21.518559 -99.801208 -20.834606
-24.723492 -96.378326 -21.69175
-22.411617 -96.077179 -20.671844
-23.338509 -92.185349 -20.613052
-24.272194 -88.15863 -20.672649
-25.196093 -84.030197 -20.856441
-26.10239 -79.830215 -21.164139
-27.601736 -80.532532 -22.277302
-29.761152 -76.803146 -23.91848
-31.722721 -72.856873 -25.71537
-2.2731 -121.60553 -5.204353
-2.201578 -120.253433 -6.948195
-3.432396 -122.134232 -8.563925
-9.573833 -64.167694 -3.671951
-8.992508 -60.914261 -3.989407
-11.478996 -59.059006 -10.735607
-11.335144 -61.215698 -11.569656
-9.858406 -66.120987 -9.517986
-10.350811 -64.869225 -10.868694
-11.206211 -63.516773 -12.20142
-11.204403 -65.934875 -12.671511
-11.409269 -68.417244 -13.045021
-11.858021 -70.896622 -13.39657
-11.090761 -79.084671 7.464862
-12.084583 -80.329857 6.191787
-11.651083 -81.180885 7.412093
-11.833109 -83.474045 7.312115
-11.530851 -85.894379 7.211553
-10.369137 -84.651947 10.504663
-10.734884 -86.533737 8.768047
-10.730612 -88.38707 7.126633
-9.498491 -90.920212 7.052423
-7.958229 -93.484329 6.96358
-6.263706 -96.087296 6.817883
-7.645945 -86.695755 18.361713
-7.616819 -88.374466 16.203342
-7.271097 -90.236542 14.125078
-5.161077 -93.294403 16.163227
-5.88039 -92.717972 14.086064
-6.711386 -92.270523 12.146683
-6.036572 -94.427414 10.256434
-5.314222 -96.622238 8.414206
-4.571875 -98.744995 6.564648
-3.021265 -101.470734 6.156017
-1.719007 -104.265915 5.557412
-0.736603 -107.115189 4.753863
-0.214014 -105.581635 9.103277
-0.083374 -107.883896 6.503579
-0.112581 -109.985733 3.750759
0.140657 -112.830383 2.569769
0.028418 -115.592178 1.242489
-0.43442 -118.208755 -0.195128
-4.738621 -97.203522 33.398098
0.502108 -117.407303 5.335688
-0.295006 -119.198029 1.833734
-1.230061 -120.615967 -1.705338
-2.342216 -122.750214 -3.247705
-3.757647 -124.550629 -4.776293
-12.687611 -81.291512 4.853419
-12.940348 -82.099777 3.459045
-12.800976 -82.717468 2.058775
-11.706718 -87.426529 2.912445
-12.092916 -85.461151 1.746517
-12.257557 -83.094368 0.685246
-11.355379 -83.201004 -0.646494
-10.201727 -83.036636 -1.938755
-8.956104 -82.625443 -3.208572
-5.088667 -98.207062 1.991533
-5.585934 -96.399139 0.795162
-6.025534 -94.184525 -0.332607
-3.169241 -97.07605 -2.513638
-4.690624 -94.337738 -1.84457
-6.444536 -91.586182 -1.408676
-6.873495 -88.650742 -2.450186
-7.328424 -85.436951 -3.471916
-7.808277 -82.005859 -4.482141
-6.947771 -81.217026 -5.785442
-6.532743 -80.286407 -7.133081
-6.666355 -79.222504 -8.519711
-4.817133 -85.820511 -8.188753
-6.070066 -81.968201 -9.025955
-7.385523 -78.014801 -9.918314
-8.66301 -76.640518 -11.287857
-10.420628 -75.075783 -12.587589
-12.546535 -73.306061 -13.79302
-2.098553 -118.677383 -8.444555
-1.978302 -116.847885 -9.670572
-1.892004 -114.732574 -10.620806
-4.37306 -116.068008 -14.57058
-2.980522 -114.318115 -12.992235
-1.911598 -112.307358 -11.311098
-2.110098 -109.565063 -11.778786
-2.54488 -106.518799 -12.078163
-3.248074 -103.199509 -12.271782
-14.149647 -109.087784 -19.739288
-11.85548 -108.236359 -18.731113
-9.806774 -107.048523 -17.667385
-13.919641 -101.074829 -18.24361
-10.842545 -103.476364 -17.473969
-8.011387 -105.558121 -16.514189
-6.475243 -103.803986 -15.247139
-5.207424 -101.823654 -13.869493
-4.224173 -99.64975 -12.420013
-5.452377 -95.915344 -12.572477
-6.890907 -92.03775 -12.764233
-8.481552 -88.048782 -13.01734
-12.256163 -88.112915 -15.195356
-11.116673 -86.117493 -14.25165
-10.154194 -83.969421 -13.346045
-11.832222 -79.813156 -13.762356
-13.439915 -75.593307 -14.27903
-14.91226 -71.332237 -14.908476
-17.386997 -69.17041 -15.971323
-19.848669 -66.845757 -17.045887
-22.192543 -64.383766 -18.208813
-22.450804 -70.357986 -18.037155
-23.525581 -66.060501 -18.680859
-24.338356 -61.802849 -19.530376
-26.986876 -75.584007 -21.592793
-27.841333 -71.312576 -22.1404
-28.6457 -67.035187 -22.808613
-11.806417 -78.811492 5.845819
-11.57734 -78.059624 5.630881
-11.259208 -77.814903 6.194557
-7.413276 -83.708378 19.451953
-7.652297 -83.349472 18.370818
-8.429761 -69.92347 3.811766
-7.776737 -68.54647 3.643591
-5.429818 -87.138038 28.602445
-5.681774 -86.695481 27.413863
-4.225044 -97.140571 29.594263
-4.22969 -96.64611 28.280106
-4.619846 -95.812637 29.447139
-29.634557 -86.859108 -23.539629
-29.460425 -88.771668 -23.393968
-29.891914 -84.894127 -23.658596
-28.578692 -86.897751 -22.972292
-29.634557 -86.859108 -23.539629
-30.037424 -82.930408 -23.855308
-29.891914 -84.894127 -23.658596
-12.955956 -58.15716 -13.20468
-12.376862 -58.828592 -12.51669
-23.182758 -58.117046 -19.717678
-22.22755 -59.304636 -19.02985
-23.903824 -58.897199 -19.87047
-23.182758 -58.117046 -19.717678
-9.746037 -81.482429 11.42297
-10.076142 -81.244419 10.524085
1.103803 -111.975876 8.658565
0.993324 -110.445343 9.05757
1.177055 -110.815537 10.139329
1.09411 -113.458046 8.138863
0.910381 -113.087852 7.057104
1.103803 -111.975876 8.658565
-1.514709 -122.685631 3.733714
-0.87745 -121.559166 4.429631
-2.052313 -123.391662 1.860056
-1.514709 -122.685631 3.733714
-5.271783 -119.082009 -14.636681
-4.481549 -119.405914 -13.413756
-5.345572 -120.097893 -14.155857
-28.103371 -63.841063 -22.164822
-27.611247 -63.218809 -21.705914
-27.243102 -65.349732 -21.291164
-10.612181 -75.026112 4.742071
-10.098901 -73.853527 4.513095
-4.922064 -92.512985 34.02242
-4.780979 -91.279373 33.847727
-4.669933 -91.687012 35.13866
-13.267121 -62.415362 -14.348225
-13.134766 -61.258829 -14.136872
-12.53154 -63.208793 -13.715003
-14.965309 -60.701397 -15.570794
-15.341188 -61.722229 -15.719902
-8.574908 -85.797676 15.23751
-8.637853 -84.677139 15.251565
-8.309531 -84.938194 16.261623
-2.936371 -97.162781 19.671569
-3.621501 -95.806092 19.599118
-3.460626 -96.263275 20.810851
-1.371495 -100.144287 16.175932
-1.859396 -99.103249 17.366452
-0.936211 -101.235687 15.033415
-1.629429 -99.788025 15.051367
-1.371495 -100.144287 16.175932
-0.321405 -102.721015 14.931091
-0.579338 -102.364754 13.806526
-0.936211 -101.235687 15.033415
-9.802993 -112.433258 -18.38991
-9.56523 -113.901512 -18.433419
-10.90504 -112.915672 -18.970042
-8.902234 -67.791664 1.169503
-7.933487 -66.556896 1.787083
-8.53597 -68.073811 1.991529
-11.077414 -73.604675 2.1725
-10.307227 -72.357437 2.662504
-10.773986 -73.72908 2.958183
-6.420362 -85.329658 23.906781
-6.660983 -84.896164 22.772481
-2.703902 -99.148506 24.737608
-3.213882 -97.783272 24.608498
-3.259943 -98.303711 25.920458
-2.099137 -100.036225 23.51895
-2.703902 -99.148506 24.737608
-22.346731 -101.650253 -21.449571
-23.66359 -101.668556 -21.923731
-22.758673 -99.886657 -21.328472
-21.106617 -101.564804 -20.955706
-22.346731 -101.650253 -21.449571
-14.263994 -56.704588 -14.553048
-14.351247 -57.598768 -14.894595
-3.507588 -122.795723 -7.672092
-2.852748 -121.869881 -6.884139
-2.927941 -122.531372 -5.992306
-7.640353 -60.552448 -1.818472
-8.122784 -62.107844 -1.71981
-8.079444 -60.167234 -2.5865
-7.640353 -60.552448 -1.818472
-9.043779 -58.921683 -4.805308
-8.7817 -59.358799 -4.077424
-9.254587 -60.477145 -4.717291
-9.470667 -58.501534 -5.529841
-9.043779 -58.921683 -4.805308
-10.521405 -57.09272 -7.663395
-10.197661 -57.591566 -6.957389
-10.394879 -58.605776 -7.578859
-11.014967 -56.62491 -8.373359
-10.521405 -57.09272 -7.663395
-11.114839 -57.575682 -8.988173
-11.014967 -56.62491 -8.373359
-11.071216 -80.404453 8.1466
-11.370922 -80.132778 7.438477
-10.791055 -79.356346 8.172985
-7.370525 -87.076866 19.463323
-7.467326 -85.937531 19.459543
-7.191905 -86.318641 20.561152
-4.863786 -97.584572 34.701746
-4.843354 -96.31942 34.533352
0.515783 -117.777825 6.457574
0.802373 -116.367386 7.041536
-4.744435 -125.679634 -4.416535
-4.61108 -125.255951 -5.506937
-3.891002 -124.974312 -3.685891
-10.791055 -79.356346 8.172985
-10.368539 -78.302147 8.12924
-5.283241 -115.518463 -15.495266
-5.225262 -116.793732 -15.30123
-6.135442 -116.244186 -16.225916
-15.761622 -107.730294 -20.077194
-15.411888 -109.334228 -20.226234
-25.930011 -61.220951 -20.572359
-25.287267 -60.457013 -20.293959
-24.9811 -62.566788 -19.808777
-27.656967 -58.394489 -22.26231
-28.219259 -58.992573 -22.648876
-11.374131 -77.152279 5.285437
-10.978777 -76.14053 5.045454
-11.921339 -78.148868 4.936699
-11.374131 -77.152279 5.285437
-11.57734 -78.059624 5.630881
-4.514686 -92.041352 36.417686
-4.669933 -91.687012 35.13866
-15.737369 -62.834947 -15.854539
-15.341188 -61.722229 -15.719902
-14.7884 -63.763953 -15.266929
-16.248157 -63.871445 -15.963181
-16.800945 -61.829722 -16.416154
-15.737369 -62.834947 -15.854539
-8.093415 -84.130516 17.327604
-7.652297 -83.349472 18.370818
-8.030471 -85.251053 17.313549
-8.309531 -84.938194 16.261623
-8.093415 -84.130516 17.327604
-12.3381 -111.810615 -19.448688
-10.90504 -112.915672 -18.970042
-8.204721 -68.286427 2.798222
-7.776737 -68.54647 3.643591
-9.173468 -69.521194 2.180642
-8.53597 -68.073811 1.991529
-8.204721 -68.286427 2.798222
-5.924348 -86.22873 26.224579
-6.172154 -85.78154 25.063538
-6.042688 -87.384537 26.306943
-5.924348 -86.22873 26.224579
-5.681774 -86.695481 27.413863
-3.802405 -97.456261 27.109289
-4.197207 -96.128327 26.962165
-4.22969 -96.64611 28.280106
-3.259943 -98.303711 25.920458
-3.802405 -97.456261 27.109289
-25.308099 -99.878761 -22.297137
-23.66359 -101.668556 -21.923731
-29.183386 -90.673721 -23.331674
-28.981715 -92.521523 -23.234052
-28.044297 -90.764786 -22.791031
-29.183386 -90.673721 -23.331674
-29.460425 -88.771668 -23.393968
-30.275096 -80.916378 -24.033054
-29.07372 -82.91874 -23.269005
-30.037424 -82.930408 -23.855308
-31.363301 -78.925038 -24.868082
-30.399597 -78.913368 -24.281779
-30.275096 -80.916378 -24.033054
-8.341387 -64.067995 -0.788364
-7.976278 -64.421625 0.013321
-8.548845 -63.718058 -1.560879
-8.341387 -64.067995 -0.788364
-9.082802 -65.299163 -1.40279
-8.864199 -63.339012 -2.334236
-8.122784 -62.107844 -1.71981
-8.548845 -63.718058 -1.560879
-10.42467 -80.981701 9.697274
-10.75863 -80.730095 8.879935
-10.677384 -82.094887 9.705574
-10.42467 -80.981701 9.697274
-10.076142 -81.244419 10.524085
-0.330958 -120.383064 5.138787
0.137368 -119.094399 5.791644
-0.801212 -121.216553 3.294669
-0.330958 -120.383064 5.138787
-0.87745 -121.559166 4.429631
-2.615957 -124.038025 0.007485
-1.911348 -123.039017 0.73294
-2.052313 -123.391662 1.860056
-3.390639 -124.894333 -0.730444
-3.249675 -124.541687 -1.85756
-2.615957 -124.038025 0.007485
-16.602111 -104.336326 -19.787793
-16.172517 -106.059105 -19.936071
-17.80319 -104.650025 -20.266821
-27.957735 -61.095165 -22.150442
-27.097465 -62.603834 -21.276784
-27.611247 -63.218809 -21.705914
-28.219259 -58.992573 -22.648876
-27.957735 -61.095165 -22.150442
-10.494369 -73.747265 3.716337
-10.098901 -73.853527 4.513095
-11.264556 -74.994503 3.226333
-10.773986 -73.72908 2.958183
-10.494369 -73.747265 3.716337
-11.351534 -76.127106 4.287872
-10.612181 -75.026112 4.742071
-10.978777 -76.14053 5.045454
-4.948842 -88.02108 31.038034
-5.197441 -87.599434 29.8224
-5.120674 -89.212379 31.182882
-4.948842 -88.02108 31.038034
-4.734158 -88.459382 32.284779
-5.119582 -90.427109 31.302803
-5.334266 -89.988808 30.056059
-5.120674 -89.212379 31.182882
-4.969551 -90.878014 32.580557
-4.780979 -91.279373 33.847727
-5.183142 -91.654442 31.453733
-5.119582 -90.427109 31.302803
-4.969551 -90.878014 32.580557
-13.7425 -59.426113 -14.505456
-13.006919 -60.219545 -13.872235
-13.134766 -61.258829 -14.136872
-14.351247 -57.598768 -14.894595
-13.7425 -59.426113 -14.505456
-14.131282 -61.558316 -14.951193
-13.267121 -62.415362 -14.348225
-13.528056 -63.50828 -14.529324
-14.131282 -61.558316 -14.951193
-14.965309 -60.701397 -15.570794
-17.784128 -60.833689 -17.007149
-16.800945 -61.829722 -16.416154
-18.855145 -59.758442 -17.581515
-17.784128 -60.833689 -17.007149
-18.382751 -61.790972 -17.099162
-19.825903 -58.702996 -18.200744
-18.855145 -59.758442 -17.581515
-20.485371 -59.580323 -18.290878
-19.825903 -58.702996 -18.200744
-21.160066 -60.518811 -18.398424
-20.485371 -59.580323 -18.290878
-20.128462 -61.654213 -17.781073
-21.870641 -61.378526 -18.520044
-22.22755 -59.304636 -19.02985
-21.160066 -60.518811 -18.398424
-9.091769 -81.957867 13.286158
-9.398112 -81.714462 12.323767
-9.304932 -83.055611 13.294712
-9.091769 -81.957867 13.286158
-9.296181 -84.189529 13.28231
-9.624254 -83.95559 12.321576
-9.304932 -83.055611 13.294712
-8.940044 -84.413086 14.241449
-8.637853 -84.677139 15.251565
-9.259367 -85.313064 13.268313
-9.296181 -84.189529 13.28231
-8.940044 -84.413086 14.241449
-2.375663 -98.107734 18.499428
-2.936371 -97.162781 19.671569
-2.580979 -97.701111 17.326861
-2.375663 -98.107734 18.499428
-1.859396 -99.103249 17.366452
0.228092 -104.222786 14.85903
-0.321405 -102.721015 14.931091
0.474842 -105.379661 13.525492
0.228092 -104.222786 14.85903
0.676406 -106.563583 12.243267
0.237033 -105.034004 12.421978
0.474842 -105.379661 13.525492
0.990395 -108.097122 11.942558
0.752587 -107.751465 10.839044
0.676406 -106.563583 12.243267
1.22707 -109.644791 11.667978
0.990395 -108.097122 11.942558
1.177055 -110.815537 10.139329
1.22707 -109.644791 11.667978
-7.179168 -115.572632 -17.073835
-6.135442 -116.244186 -16.225916
-8.314049 -114.797722 -17.790503
-9.56523 -113.901512 -18.433419
-7.328303 -114.194008 -17.13662
-7.179168 -115.572632 -17.073835
-8.314049 -114.797722 -17.790503
-32.122222 -66.682438 -26.794275
-32.817214 -66.71614 -27.384056
-7.27498 -65.066435 1.642189
-7.933487 -66.556896 1.787083
-7.688481 -64.734449 0.810987
-7.27498 -65.066435 1.642189
-8.587548 -65.961926 0.16739
-7.976278 -64.421625 0.013321
-7.688481 -64.734449 0.810987
-9.423009 -71.107826 3.21776
-8.429761 -69.92347 3.811766
-9.726437 -70.983421 2.432078
-9.423009 -71.107826 3.21776
-10.307227 -72.357437 2.662504
-7.035192 -85.596665 21.680758
-6.660983 -84.896164 22.772481
-6.938391 -86.736 21.684538
-7.191905 -86.318641 20.561152
-7.035192 -85.596665 21.680758
-6.533471 -86.465904 23.960901
-6.420362 -85.329658 23.906781
-6.172154 -85.78154 25.063538
-5.567736 -88.312683 28.716183
-5.429818 -87.138038 28.602445
-5.197441 -87.599434 29.8224
-3.325069 -96.757706 22.049979
-3.460626 -96.263275 20.810851
-4.0102 -95.401016 21.977528
-2.716668 -98.124016 22.154474
-3.325069 -96.757706 22.049979
-3.266242 -97.261757 23.321152
-2.066309 -99.535492 22.22478
-2.716668 -98.124016 22.154474
-2.066309 -99.535492 22.22478
-2.099137 -100.036225 23.51895
-19.463729 -103.127823 -20.597673
-17.80319 -104.650025 -20.266821
-19.875671 -101.364227 -20.476574
-19.463729 -103.127823 -20.597673
-21.106617 -101.564804 -20.955706
-25.594185 -98.144287 -22.264834
-25.308099 -99.878761 -22.297137
-27.47842 -94.491653 -22.718033
-28.981715 -92.521523 -23.234052
-25.956537 -96.347397 -22.19954
-27.47842 -94.491653 -22.718033
-26.245375 -94.522583 -22.210243
-24.36114 -98.175217 -21.757044
-25.594185 -98.144287 -22.264834
-25.956537 -96.347397 -22.19954
-32.4639 -76.814827 -25.685821
-31.363301 -78.925038 -24.868082
-32.491677 -74.831078 -25.997946
-32.4639 -76.814827 -25.685821
-32.609137 -72.7985 -26.297228
-31.605261 -74.88945 -25.416088
-32.491677 -74.831078 -25.997946
-32.639567 -70.792347 -26.649772
-32.609137 -72.7985 -26.297228
-32.765839 -68.738506 -26.995735
-31.848994 -70.803032 -26.061332
-32.639567 -70.792347 -26.649772
-32.817214 -66.71614 -27.384056
-32.765839 -68.738506 -26.995735
-13.591512 -57.424188 -13.867281
-12.955956 -58.15716 -13.20468
-12.979097 -59.1198 -13.578216
-13.591512 -57.424188 -13.867281
-14.263994 -56.704588 -14.553048
-4.198217 -122.914361 -9.341941
-3.507588 -122.795723 -7.672092
-4.092829 -122.159203 -10.118414
-4.198217 -122.914361 -9.341941
-4.012637 -121.382042 -10.882459
-3.352203 -121.357071 -9.32797
-4.092829 -122.159203 -10.118414
-4.6543 -121.302987 -12.302917
-3.913674 -120.500855 -11.512473
-4.012637 -121.382042 -10.882459
-5.430245 -121.083893 -13.679696
-4.6543 -121.302987 -12.302917
-5.345572 -120.097893 -14.155857
-5.430245 -121.083893 -13.679696
-8.35663 -59.759966 -3.33462
-8.079444 -60.167234 -2.5865
-8.715322 -61.321529 -3.241287
-8.35663 -59.759966 -3.33462
-8.7817 -59.358799 -4.077424
-9.747901 -58.033831 -6.24368
-9.470667 -58.501534 -5.529841
-9.7939 -59.572325 -6.159014
-9.747901 -58.033831 -6.24368
-10.197661 -57.591566 -6.957389
-11.148796 -58.638806 -9.519813
-11.114839 -57.575682 -8.988173
-10.752579 -59.170053 -8.816505
-11.495026 -58.05172 -10.213544
-11.148796 -58.638806 -9.519813
-11.132766 -59.646091 -10.041877
-11.979064 -57.485508 -10.917658
-11.495026 -58.05172 -10.213544
-11.944589 -58.431709 -11.426686
-11.979064 -57.485508 -10.917658
-11.872663 -59.510055 -11.843711
-11.944589 -58.431709 -11.426686
-11.40707 -60.137352 -11.152632
-11.839342 -60.534235 -12.242636
-12.376862 -58.828592 -12.51669
-11.872663 -59.510055 -11.843711
-11.338497 -81.506527 8.145428
-11.071216 -80.404453 8.1466
-10.75863 -80.730095 8.879935
-9.98093 -82.589638 11.433182
-9.746037 -81.482429 11.42297
-9.398112 -81.714462 12.323767
-7.551531 -84.811341 19.468452
-7.413276 -83.708378 19.451953
-7.730151 -85.569565 18.370621
-7.551531 -84.811341 19.468452
-7.467326 -85.937531 19.459543
-4.742038 -93.27295 36.605305
-4.514686 -92.041352 36.417686
-4.879552 -94.177971 35.49098
-4.742038 -93.27295 36.605305
-4.810572 -94.530296 36.78293
-4.953017 -95.032715 34.363123
-4.884483 -93.775368 34.185497
-4.879552 -94.177971 35.49098
-4.848285 -95.916817 33.227869
-4.953017 -95.032715 34.363123
-4.843354 -96.31942 34.533352
-4.603179 -98.4954 33.553991
-4.863786 -97.584572 34.701746
-4.404122 -98.072716 32.240021
-4.603179 -98.4954 33.553991
-4.342412 -97.624504 30.921619
-4.67691 -96.75531 32.079696
-4.404122 -98.072716 32.240021
-4.225044 -97.140571 29.594263
-4.342412 -97.624504 30.921619
1.001663 -114.948746 7.642393
1.09411 -113.458046 8.138863
0.701398 -115.988663 5.936546
1.001663 -114.948746 7.642393
0.802373 -116.367386 7.041536
0.123694 -118.723877 4.669757
0.515783 -117.777825 6.457574
0.137368 -119.094399 5.791644
-2.962499 -123.103714 -5.013983
-2.927941 -122.531372 -5.992306
-2.307658 -122.177872 -4.226029
-3.670214 -124.003921 -5.778277
-2.962499 -123.103714 -5.013983
-3.049932 -123.650421 -4.011999
-4.47285 -124.754128 -6.536207
-3.670214 -124.003921 -5.778277
-4.47285 -124.754128 -6.536207
-4.61108 -125.255951 -5.506937
-4.244086 -125.683082 -1.441618
-3.390639 -124.894333 -0.730444
-4.942031 -126.037796 -3.293864
-4.244086 -125.683082 -1.441618
-4.744435 -125.679634 -4.416535
-4.942031 -126.037796 -3.293864
-10.709973 -78.11911 7.400315
-10.368539 -78.302147 8.12924
-11.289523 -78.825722 6.937178
-10.908735 -77.860161 6.872631
-10.709973 -78.11911 7.400315
-10.908735 -77.860161 6.872631
-11.259208 -77.814903 6.194557
-5.242611 -117.954742 -14.963231
-5.271783 -119.082009 -14.636681
-4.39041 -117.229019 -14.232581
-5.242611 -117.954742 -14.963231
-5.225262 -116.793732 -15.30123
-13.841522 -110.630798 -19.855066
-15.411888 -109.334228 -20.226234
-12.646225 -110.267601 -19.33291
-12.3381 -111.810615 -19.448688
-13.841522 -110.630798 -19.855066
-14.560543 -107.416595 -19.598166
-15.761622 -107.730294 -20.077194
-16.172517 -106.059105 -19.936071
-24.603939 -59.716448 -20.059923
-23.903824 -58.897199 -19.87047
-23.638241 -60.983601 -19.340923
-24.603939 -59.716448 -20.059923
-25.287267 -60.457013 -20.293959
-26.840065 -59.795683 -21.389427
-25.930011 -61.220951 -20.572359
-26.533898 -61.905459 -20.904245
-26.840065 -59.795683 -21.389427
-27.656967 -58.394489 -22.26231
-31.4678 -66.538578 -26.182432
-31.320845 -68.605332 -25.795452
-32.122222 -66.682438 -26.794275
-30.906098 -66.360833 -25.571087
-31.4678 -66.538578 -26.182432
-30.365879 -66.069523 -24.963209
-30.126205 -68.170163 -24.575731
-30.906098 -66.360833 -25.571087
-29.900177 -65.756951 -24.357737
-30.365879 -66.069523 -24.963209
-29.430035 -65.335117 -23.778117
-29.115842 -67.45702 -23.388233
-29.900177 -65.756951 -24.357737
-29.004368 -64.904016 -23.206087
-29.430035 -65.335117 -23.778117
-28.549132 -64.372416 -22.676817
-28.190463 -66.503586 -22.279342
-29.004368 -64.904016 -23.206087
-28.103371 -63.841063 -22.164822
-28.549132 -64.372416 -22.676817
3 0 482 484
3 482 122 483
3 482 483 484
3 1 125 123
3 2 128 126
3 2 130 128
3 3 133 131
3 3 135 133
3 485 136 486
3 4 139 137
3 5 142 140
3 5 144 142
3 6 147 145
3 6 149 147
3 6 151 149
3 487 152 488
3 8 155 153
3 8 157 155
3 489 159 490
3 10 162 160
3 10 491 493
3 493 492 162
3 491 492 493
3 11 166 164
3 13 169 167
3 13 171 169
3 494 173 495
3 496 175 497
3 498 497 173
3 496 497 498
3 500 499 175
3 16 501 502
3 17 503 504
3 17 505 506
3 7 178 177
3 18 181 179
3 18 183 181
3 18 185 183
3 19 188 186
3 19 190 188
3 507 192 508
3 21 195 193
3 21 197 195
3 9 200 198
3 22 203 201
3 22 205 203
3 22 207 205
3 509 210 510
3 511 510 208
3 509 510 511
3 512 212 513
3 514 513 210
3 512 513 514
3 515 214 516
3 518 517 214
3 20 218 216
3 23 221 219
3 23 223 221
3 12 226 224
3 24 229 227
3 24 231 229
3 24 233 231
3 25 236 234
3 25 238 236
3 519 241 520
3 521 520 239
3 519 520 521
3 26 244 242
3 26 246 244
3 14 249 247
3 27 252 250
3 27 254 252
3 27 256 254
3 28 259 257
3 28 261 259
3 28 263 261
3 29 266 264
3 29 522 524
3 524 523 266
3 522 523 524
3 15 270 268
3 525 271 526
3 31 272 121
3 31 273 272
3 33 527 529
3 527 275 528
3 527 528 529
3 33 276 275
3 34 279 277
3 36 280 124
3 36 281 280
3 37 530 532
3 532 531 282
3 530 531 532
3 534 533 127
3 38 284 129
3 38 285 284
3 39 288 286
3 41 289 132
3 41 290 289
3 41 292 290
3 43 293 134
3 43 294 293
3 45 535 537
3 535 296 536
3 535 536 537
3 45 297 296
3 538 300 539
3 540 539 298
3 538 539 540
3 541 301 542
3 543 302 544
3 545 544 301
3 543 544 545
3 546 304 547
3 548 547 302
3 546 547 548
3 48 307 305
3 50 308 138
3 50 309 308
3 51 312 310
3 53 313 141
3 53 314 313
3 53 316 314
3 55 317 143
3 55 318 317
3 57 549 551
3 549 319 550
3 549 550 551
3 57 320 319
3 58 323 321
3 60 324 146
3 60 325 324
3 60 327 325
3 62 328 148
3 62 329 328
3 62 331 329
3 64 332 150
3 64 333 332
3 65 552 554
3 552 334 553
3 552 553 554
3 65 335 334
3 30 555 557
3 555 336 556
3 555 556 557
3 66 337 154
3 66 338 337
3 66 339 338
3 67 340 156
3 67 341 340
3 558 342 559
3 69 343 158
3 69 344 343
3 32 345 274
3 70 346 161
3 70 347 346
3 70 348 347
3 560 349 561
3 562 561 163
3 560 561 562
3 564 563 349
3 71 352 350
3 73 353 165
3 73 354 353
3 35 355 278
3 74 356 168
3 74 357 356
3 74 358 357
3 75 359 170
3 75 360 359
3 76 565 566
3 76 567 569
3 567 361 568
3 567 568 569
3 77 362 172
3 77 363 362
3 77 364 363
3 78 365 174
3 78 366 365
3 78 368 366
3 80 369 176
3 80 370 369
3 571 570 283
3 572 373 573
3 574 573 371
3 572 573 574
3 82 575 576
3 82 577 578
3 40 374 287
3 83 375 180
3 83 579 581
3 581 580 375
3 579 580 581
3 83 582 583
3 84 584 586
3 586 585 182
3 584 585 586
3 84 587 588
3 84 589 590
3 85 376 184
3 85 377 376
3 42 378 291
3 86 379 187
3 86 380 379
3 86 381 380
3 87 382 189
3 87 383 382
3 591 386 592
3 593 592 384
3 591 592 593
3 89 387 191
3 89 388 387
3 44 389 295
3 90 390 194
3 90 391 390
3 90 392 391
3 91 393 196
3 91 394 393
3 68 594 596
3 594 395 595
3 594 595 596
3 92 396 199
3 92 397 396
3 46 398 299
3 93 399 202
3 93 400 399
3 93 401 400
3 94 402 204
3 94 403 402
3 94 404 403
3 95 405 206
3 95 406 405
3 47 407 303
3 96 408 209
3 96 409 408
3 96 410 409
3 97 411 211
3 97 412 411
3 597 413 598
3 599 414 600
3 98 415 213
3 98 416 415
3 98 417 416
3 99 418 215
3 99 601 603
3 603 602 418
3 601 602 603
3 604 384 605
3 88 419 385
3 100 420 217
3 100 421 420
3 49 422 306
3 101 423 220
3 101 424 423
3 101 425 424
3 102 426 222
3 102 427 426
3 72 428 351
3 103 429 225
3 103 430 429
3 52 431 311
3 104 432 228
3 104 433 432
3 104 434 433
3 105 435 230
3 105 436 435
3 105 437 436
3 106 438 232
3 106 439 438
3 54 440 315
3 107 441 235
3 107 442 441
3 107 443 442
3 108 444 237
3 108 445 444
3 81 446 372
3 109 447 240
3 109 448 447
3 56 606 608
3 606 449 607
3 606 607 608
3 110 450 243
3 110 451 450
3 110 452 451
3 111 453 245
3 111 454 453
3 609 455 610
3 112 456 248
3 112 457 456
3 59 458 322
3 113 459 251
3 113 460 459
3 113 461 460
3 114 462 253
3 114 463 462
3 114 464 463
3 115 465 255
3 115 466 465
3 61 467 326
3 116 468 258
3 116 469 468
3 116 470 469
3 117 471 260
3 117 472 471
3 117 473 472
3 118 474 262
3 118 475 474
3 63 476 330
3 119 477 265
3 119 478 477
3 119 611 613
3 613 612 478
3 611 612 613
3 615 614 267
3 79 479 367
3 120 480 269
3 120 481 480
3 616 121 617
3 122 618 620
3 618 121 619
3 618 619 620
3 122 31 121
3 621 33 622
3 123 124 34
3 125 124 123
3 125 36 124
3 126 127 37
3 128 127 126
3 128 623 625
3 625 624 127
3 623 624 625
3 128 626 628
3 626 129 627
3 626 627 628
3 130 129 128
3 130 38 129
3 131 132 39
3 133 132 131
3 133 41 132
3 133 134 41
3 135 134 133
3 135 43 134
3 136 629 630
3 136 631 633
3 631 45 632
3 631 632 633
3 137 138 48
3 139 138 137
3 139 50 138
3 140 141 51
3 142 141 140
3 142 53 141
3 142 143 53
3 144 143 142
3 144 55 143
3 634 57 635
3 145 146 58
3 147 146 145
3 147 60 146
3 147 148 60
3 149 148 147
3 149 62 148
3 149 150 62
3 151 150 149
3 151 64 150
3 152 636 637
3 152 638 640
3 638 65 639
3 638 639 640
3 153 154 30
3 155 154 153
3 155 66 154
3 155 156 66
3 157 156 155
3 157 67 156
3 641 158 642
3 159 643 645
3 643 158 644
3 643 644 645
3 159 69 158
3 160 161 32
3 162 161 160
3 162 70 161
3 162 163 70
3 646 163 647
3 648 647 162
3 646 647 648
3 650 649 163
3 164 165 71
3 166 165 164
3 166 73 165
3 167 168 35
3 169 168 167
3 169 74 168
3 169 170 74
3 171 170 169
3 171 75 170
3 651 76 652
3 653 172 654
3 173 655 657
3 655 172 656
3 655 656 657
3 173 77 172
3 173 174 77
3 175 174 173
3 175 78 174
3 175 176 78
3 658 176 659
3 660 659 175
3 658 659 660
3 661 80 662
3 663 662 176
3 661 662 663
3 177 664 665
3 178 666 668
3 668 667 177
3 666 667 668
3 178 669 671
3 669 82 670
3 669 670 671
3 179 180 40
3 181 180 179
3 181 83 180
3 181 182 83
3 183 182 181
3 183 84 182
3 183 184 84
3 185 184 183
3 185 85 184
3 186 187 42
3 188 187 186
3 188 86 187
3 188 189 86
3 190 189 188
3 190 87 189
3 672 191 673
3 192 674 676
3 674 191 675
3 674 675 676
3 192 89 191
3 193 194 44
3 195 194 193
3 195 90 194
3 195 196 90
3 197 196 195
3 197 91 196
3 198 199 68
3 200 199 198
3 200 92 199
3 201 202 46
3 203 202 201
3 203 93 202
3 203 204 93
3 205 204 203
3 205 94 204
3 205 206 94
3 207 206 205
3 207 95 206
3 208 209 47
3 210 209 208
3 210 96 209
3 210 211 96
3 212 211 210
3 212 97 211
3 677 213 678
3 214 679 681
3 679 213 680
3 679 680 681
3 214 98 213
3 214 215 98
3 682 215 683
3 684 683 214
3 682 683 684
3 685 99 686
3 687 686 215
3 685 686 687
3 216 217 88
3 218 217 216
3 218 100 217
3 219 220 49
3 221 220 219
3 221 101 220
3 221 222 101
3 223 222 221
3 223 102 222
3 224 225 72
3 226 225 224
3 226 103 225
3 227 228 52
3 229 228 227
3 229 104 228
3 229 230 104
3 231 230 229
3 231 105 230
3 231 232 105
3 233 232 231
3 233 106 232
3 234 235 54
3 236 235 234
3 236 107 235
3 236 237 107
3 238 237 236
3 238 108 237
3 239 240 81
3 241 240 239
3 241 109 240
3 242 243 56
3 244 243 242
3 244 110 243
3 244 245 110
3 246 245 244
3 246 111 245
3 247 688 690
3 688 248 689
3 688 689 690
3 249 248 247
3 249 112 248
3 250 251 59
3 252 251 250
3 252 113 251
3 252 253 113
3 254 253 252
3 254 114 253
3 254 255 114
3 256 255 254
3 256 115 255
3 257 258 61
3 259 258 257
3 259 116 258
3 259 260 116
3 261 260 259
3 261 117 260
3 261 262 117
3 263 262 261
3 263 118 262
3 264 265 63
3 266 265 264
3 266 119 265
3 266 267 119
3 691 267 692
3 693 692 266
3 691 692 693
3 695 694 267
3 268 269 79
3 270 269 268
3 270 120 269
3 271 696 697
3 271 698 700
3 698 30 699
3 698 699 700
3 121 701 703
3 701 271 702
3 701 702 703
3 272 271 121
3 272 30 271
3 272 153 30
3 273 153 272
3 273 8 153
3 704 274 705
3 706 274 707
3 706 707 708
3 709 32 710
3 711 710 274
3 709 710 711
3 275 712 713
3 275 714 716
3 714 32 715
3 714 715 716
3 275 160 32
3 276 160 275
3 276 10 160
3 277 278 11
3 279 278 277
3 279 35 278
3 124 279 34
3 280 279 124
3 280 35 279
3 280 167 35
3 281 167 280
3 281 13 167
3 282 283 16
3 717 283 718
3 719 718 282
3 717 718 719
3 721 720 283
3 127 722 724
3 724 723 37
3 722 723 724
3 726 725 127
3 129 727 728
3 284 729 731
3 731 730 129
3 729 730 731
3 284 732 733
3 284 734 735
3 285 736 738
3 738 737 284
3 736 737 738
3 285 739 741
3 739 17 740
3 739 740 741
3 286 287 7
3 288 287 286
3 288 40 287
3 132 288 39
3 289 288 132
3 289 40 288
3 289 179 40
3 290 179 289
3 290 18 179
3 290 291 18
3 292 291 290
3 292 42 291
3 134 292 41
3 293 292 134
3 293 42 292
3 293 186 42
3 294 186 293
3 294 19 186
3 742 295 743
3 744 295 745
3 746 44 747
3 748 747 295
3 746 747 748
3 296 749 750
3 296 751 753
3 751 44 752
3 751 752 753
3 296 193 44
3 297 193 296
3 297 21 193
3 298 299 9
3 300 299 298
3 300 46 299
3 754 300 755
3 301 756 758
3 756 300 757
3 756 757 758
3 301 46 300
3 301 201 46
3 302 201 301
3 302 22 201
3 302 303 22
3 304 303 302
3 304 47 303
3 759 304 760
3 761 304 762
3 763 47 764
3 765 764 304
3 763 764 765
3 766 208 767
3 768 767 47
3 766 767 768
3 769 208 770
3 772 771 208
3 305 306 20
3 307 306 305
3 307 49 306
3 138 307 48
3 308 307 138
3 308 49 307
3 308 219 49
3 309 219 308
3 309 23 219
3 310 311 12
3 312 311 310
3 312 52 311
3 141 312 51
3 313 312 141
3 313 52 312
3 313 227 52
3 314 227 313
3 314 24 227
3 314 315 24
3 316 315 314
3 316 54 315
3 143 316 53
3 317 316 143
3 317 54 316
3 317 234 54
3 318 234 317
3 318 25 234
3 773 56 774
3 319 775 776
3 319 777 779
3 777 56 778
3 777 778 779
3 319 242 56
3 320 242 319
3 320 26 242
3 321 322 14
3 323 322 321
3 323 59 322
3 146 323 58
3 324 323 146
3 324 59 323
3 324 250 59
3 325 250 324
3 325 27 250
3 325 326 27
3 327 326 325
3 327 61 326
3 148 327 60
3 328 327 148
3 328 61 327
3 328 257 61
3 329 257 328
3 329 28 257
3 329 330 28
3 331 330 329
3 331 63 330
3 150 331 62
3 332 331 150
3 332 63 331
3 332 264 63
3 333 264 332
3 333 29 264
3 781 780 15
3 334 782 783
3 334 784 785
3 334 786 788
3 786 177 787
3 786 787 788
3 335 177 334
3 335 7 177
3 789 152 790
3 336 791 793
3 791 152 792
3 791 792 793
3 336 65 152
3 154 336 30
3 337 336 154
3 337 65 336
3 337 335 65
3 338 335 337
3 338 7 335
3 338 286 7
3 339 286 338
3 339 39 286
3 156 339 66
3 340 339 156
3 340 39 339
3 340 131 39
3 341 131 340
3 341 3 131
3 342 794 795
3 342 796 798
3 796 68 797
3 796 797 798
3 158 799 801
3 799 342 800
3 799 800 801
3 343 342 158
3 343 68 342
3 343 198 68
3 344 198 343
3 344 9 198
3 274 802 804
3 802 159 803
3 802 803 804
3 345 159 274
3 345 69 159
3 161 345 32
3 346 345 161
3 346 69 345
3 346 344 69
3 347 344 346
3 347 9 344
3 347 298 9
3 348 298 347
3 348 805 807
3 807 806 298
3 805 806 807
3 163 348 70
3 349 348 163
3 349 808 810
3 810 809 348
3 808 809 810
3 349 811 812
3 814 813 349
3 350 351 4
3 352 351 350
3 352 72 351
3 165 352 71
3 353 352 165
3 353 72 352
3 353 224 72
3 354 224 353
3 354 12 224
3 278 166 11
3 355 166 278
3 355 73 166
3 168 355 35
3 356 355 168
3 356 73 355
3 356 354 73
3 357 354 356
3 357 12 354
3 357 310 12
3 358 310 357
3 358 51 310
3 170 358 74
3 359 358 170
3 359 51 358
3 359 140 51
3 360 140 359
3 360 5 140
3 815 247 816
3 361 817 819
3 817 247 818
3 817 818 819
3 361 14 247
3 820 76 821
3 172 822 823
3 362 824 826
3 826 825 172
3 824 825 826
3 362 827 829
3 827 76 828
3 827 828 829
3 362 361 76
3 363 361 362
3 363 14 361
3 363 321 14
3 364 321 363
3 364 58 321
3 174 364 77
3 365 364 174
3 365 58 364
3 365 145 58
3 366 145 365
3 366 6 145
3 366 367 6
3 368 367 366
3 368 79 367
3 176 368 78
3 369 368 176
3 369 79 368
3 369 268 79
3 370 268 369
3 370 15 268
3 830 80 831
3 832 80 833
3 834 370 835
3 836 835 80
3 834 835 836
3 837 370 838
3 839 15 840
3 841 840 370
3 839 840 841
3 843 842 15
3 283 844 846
3 846 845 16
3 844 845 846
3 848 847 283
3 371 372 1
3 373 372 371
3 373 81 372
3 849 373 850
3 851 373 852
3 853 81 854
3 855 854 373
3 853 854 855
3 856 239 857
3 858 857 81
3 856 857 858
3 859 239 860
3 862 861 239
3 287 178 7
3 374 178 287
3 374 82 178
3 180 374 40
3 375 374 180
3 375 82 374
3 375 863 865
3 865 864 82
3 863 864 865
3 867 866 375
3 182 868 870
3 870 869 83
3 868 869 870
3 872 871 182
3 184 873 875
3 875 874 84
3 873 874 875
3 376 876 878
3 878 877 184
3 876 877 878
3 376 879 880
3 376 881 882
3 377 883 885
3 885 884 376
3 883 884 885
3 377 886 888
3 886 16 887
3 886 887 888
3 291 185 18
3 378 185 291
3 378 85 185
3 187 378 42
3 379 378 187
3 379 85 378
3 379 377 85
3 380 377 379
3 380 16 377
3 380 282 16
3 381 282 380
3 381 37 282
3 189 381 86
3 382 381 189
3 382 37 381
3 382 126 37
3 383 126 382
3 383 2 126
3 384 385 0
3 386 385 384
3 386 88 385
3 191 889 891
3 889 386 890
3 889 890 891
3 387 386 191
3 387 88 386
3 387 216 88
3 388 216 387
3 388 20 216
3 295 892 894
3 892 192 893
3 892 893 894
3 389 192 295
3 389 89 192
3 194 389 44
3 390 389 194
3 390 89 389
3 390 388 89
3 391 388 390
3 391 20 388
3 391 305 20
3 392 305 391
3 392 48 305
3 196 392 90
3 393 392 196
3 393 48 392
3 393 137 48
3 394 137 393
3 394 4 137
3 895 136 896
3 395 897 899
3 897 136 898
3 897 898 899
3 395 45 136
3 199 395 68
3 396 395 199
3 396 45 395
3 396 297 45
3 397 297 396
3 397 21 297
3 299 200 9
3 398 200 299
3 398 92 200
3 202 398 46
3 399 398 202
3 399 92 398
3 399 397 92
3 400 397 399
3 400 21 397
3 400 197 21
3 401 197 400
3 401 91 197
3 204 401 93
3 402 401 204
3 402 91 401
3 402 394 91
3 403 394 402
3 403 4 394
3 403 350 4
3 404 350 403
3 404 71 350
3 206 404 94
3 405 404 206
3 405 71 404
3 405 164 71
3 406 164 405
3 406 11 164
3 303 207 22
3 407 207 303
3 407 95 207
3 209 407 47
3 408 407 209
3 408 95 407
3 408 406 95
3 409 406 408
3 409 11 406
3 409 277 11
3 410 277 409
3 410 34 277
3 211 410 96
3 411 410 211
3 411 34 410
3 411 123 34
3 412 123 411
3 412 1 123
3 900 33 901
3 902 33 903
3 902 903 904
3 905 276 906
3 907 906 33
3 905 906 907
3 413 908 910
3 908 276 909
3 908 909 910
3 413 10 276
3 911 413 912
3 913 413 914
3 915 10 916
3 917 916 413
3 915 916 917
3 919 918 10
3 920 212 921
3 414 922 924
3 922 212 923
3 922 923 924
3 414 97 212
3 213 925 927
3 925 414 926
3 925 926 927
3 415 414 213
3 415 97 414
3 415 412 97
3 416 412 415
3 416 1 412
3 416 371 1
3 417 371 416
3 417 928 930
3 930 929 371
3 928 929 930
3 215 417 98
3 418 417 215
3 418 931 933
3 933 932 417
3 931 932 933
3 418 934 935
3 937 936 418
3 938 99 939
3 940 99 941
3 943 942 99
3 384 944 945
3 384 946 948
3 946 0 947
3 946 947 948
3 949 0 950
3 385 122 0
3 419 122 385
3 419 31 122
3 217 419 88
3 420 419 217
3 420 31 419
3 420 273 31
3 421 273 420
3 421 8 273
3 306 218 20
3 422 218 306
3 422 100 218
3 220 422 49
3 423 422 220
3 423 100 422
3 423 421 100
3 424 421 423
3 424 8 421
3 424 157 8
3 425 157 424
3 425 67 157
3 222 425 101
3 426 425 222
3 426 67 425
3 426 341 67
3 427 341 426
3 427 3 341
3 351 139 4
3 428 139 351
3 428 50 139
3 225 428 72
3 429 428 225
3 429 50 428
3 429 309 50
3 430 309 429
3 430 23 309
3 311 226 12
3 431 226 311
3 431 103 226
3 228 431 52
3 432 431 228
3 432 103 431
3 432 430 103
3 433 430 432
3 433 23 430
3 433 223 23
3 434 223 433
3 434 102 223
3 230 434 104
3 435 434 230
3 435 102 434
3 435 427 102
3 436 427 435
3 436 3 427
3 436 135 3
3 437 135 436
3 437 43 135
3 232 437 105
3 438 437 232
3 438 43 437
3 438 294 43
3 439 294 438
3 439 19 294
3 315 233 24
3 440 233 315
3 440 106 233
3 235 440 54
3 441 440 235
3 441 106 440
3 441 439 106
3 442 439 441
3 442 19 439
3 442 190 19
3 443 190 442
3 443 87 190
3 237 443 107
3 444 443 237
3 444 87 443
3 444 383 87
3 445 383 444
3 445 2 383
3 372 125 1
3 446 125 372
3 446 36 125
3 240 446 81
3 447 446 240
3 447 36 446
3 447 281 36
3 448 281 447
3 448 13 281
3 951 241 952
3 449 953 955
3 953 241 954
3 953 954 955
3 449 109 241
3 243 449 56
3 450 449 243
3 450 109 449
3 450 448 109
3 451 448 450
3 451 13 448
3 451 171 13
3 452 171 451
3 452 75 171
3 245 452 110
3 453 452 245
3 453 75 452
3 453 360 75
3 454 360 453
3 454 5 360
3 455 956 957
3 455 958 960
3 958 57 959
3 958 959 960
3 248 961 963
3 961 455 962
3 961 962 963
3 456 455 248
3 456 57 455
3 456 320 57
3 457 320 456
3 457 26 320
3 322 249 14
3 458 249 322
3 458 112 249
3 251 458 59
3 459 458 251
3 459 112 458
3 459 457 112
3 460 457 459
3 460 26 457
3 460 246 26
3 461 246 460
3 461 111 246
3 253 461 113
3 462 461 253
3 462 111 461
3 462 454 111
3 463 454 462
3 463 5 454
3 463 144 5
3 464 144 463
3 464 55 144
3 255 464 114
3 465 464 255
3 465 55 464
3 465 318 55
3 466 318 465
3 466 25 318
3 326 256 27
3 467 256 326
3 467 115 256
3 258 467 61
3 468 467 258
3 468 115 467
3 468 466 115
3 469 466 468
3 469 25 466
3 469 238 25
3 470 238 469
3 470 108 238
3 260 470 116
3 471 470 260
3 471 108 470
3 471 445 108
3 472 445 471
3 472 2 445
3 472 130 2
3 473 130 472
3 473 38 130
3 262 473 117
3 474 473 262
3 474 38 473
3 474 285 38
3 475 285 474
3 475 17 285
3 330 263 28
3 476 263 330
3 476 118 263
3 265 476 63
3 477 476 265
3 477 118 476
3 477 475 118
3 478 475 477
3 478 17 475
3 478 964 966
3 966 965 17
3 964 965 966
3 968 967 478
3 267 969 971
3 971 970 119
3 969 970 971
3 973 972 267
3 367 151 6
3 479 151 367
3 479 64 151
3 269 479 79
3 480 479 269
3 480 64 479
3 480 333 64
3 481 333 480
3 481 29 333
3 974 270 975
3 976 975 15
3 974 975 976
3 977 270 978
3 979 120 980
3 981 980 270
3 979 980 981
3 982 120 983
3 984 481 985
3 986 985 120
3 984 985 986
3 987 481 988
3 989 29 990
3 991 990 481
3 989 990 991
3 993 992 29
