ply
format ascii 1.0
element vertex 407
property float x
property float y
property float z
element face 441
property list uchar int vertex_index
end_header
0.767208 -84.198616 51.69146
5.677126 -83.504761 33.015877
8.339899 -90.192535 60.570877
-0.558191 -80.18512 61.595001
6.190922 -92.704819 48.064735
7.471224 -92.748863 38.200718
3.032101 -84.853073 42.467358
2.232512 -83.669983 67.039024
3.455046 -89.749802 57.309036
3.16246 -88.664345 49.882263
4.515465 -89.032967 45.267212
1.846968 -84.883926 47.040146
-0.08901 -82.627182 56.550957
0.835848 -85.351013 59.477234
1.838964 -87.464981 54.574776
4.84799 -91.639473 52.649277
6.714296 -88.088348 35.528355
7.616501 -87.080727 30.301346
-0.795452 -77.240204 58.639442
7.18257 -82.447838 28.067638
9.307777 -93.672493 56.07502
7.101486 -93.031792 43.308334
5.706755 -88.778198 40.523071
4.295427 -84.340294 37.818447
4.919102 -83.722244 68.829628
4.858795 -87.474762 64.170059
0.410589 -82.414474 64.512093
2.474886 -87.056076 62.154167
5.62924 -90.735085 59.442818
6.882465 -93.431633 54.882858
8.033134 -95.461853 50.44236
1.82214 -86.506676 50.766937
2.450966 -86.855667 48.449501
1.288237 -84.644943 49.345551
0.301355 -83.527512 54.092072
0.712936 -85.133179 55.545074
1.233612 -85.93631 53.127563
2.479578 -88.178055 52.206627
6.233511 -85.778282 34.251381
7.173073 -87.617065 32.937969
6.858175 -85.277519 31.72691
8.026276 -88.368629 62.891197
9.861151 -89.35743 60.700836
-0.590996 -72.862015 58.276138
-0.800825 -74.483597 59.660507
-0.685619 -75.560997 57.239525
-0.610804 -78.286636 56.169052
9.797464 -95.297775 53.920029
7.529099 -94.698624 47.03157
7.796413 -94.981133 44.643402
6.71456 -92.952507 45.722855
3.739765 -86.989021 43.85186
5.136475 -88.969788 42.922112
4.373508 -86.834389 41.523739
4.996691 -86.569115 39.152061
3.65202 -84.644409 40.159576
2.425682 -81.760933 69.39933
3.751343 -81.868965 70.32058
3.473259 -83.854988 68.044296
4.775484 -85.656624 66.530731
3.414738 -85.715965 65.678352
-0.598799 -78.689377 64.13089
-0.175894 -79.793289 65.604591
-0.174299 -81.404358 63.079239
2.002384 -87.654411 58.406181
1.562311 -86.348686 60.872803
2.88798 -88.497871 59.711555
3.939497 -89.013206 60.858414
4.47142 -90.423904 58.480247
6.228678 -92.159668 57.137794
5.119492 -91.65934 56.150566
5.554428 -92.271866 50.362343
6.496201 -93.566727 51.60788
7.084715 -94.229172 49.341896
8.384699 -96.193939 48.185173
7.794975 -95.021973 39.551689
4.673748 -90.711403 48.997932
5.336012 -90.953468 46.68605
3.851027 -88.940804 47.578438
3.095972 -87.006439 46.152885
2.430456 -84.942802 44.754673
1.326885 -81.36235 68.281281
-0.382429 -81.506485 59.058884
-0.014717 -82.848686 60.540321
0.288183 -84.099251 58.020439
1.279091 -86.520203 56.999077
2.578892 -88.749596 55.987114
4.127775 -90.799156 54.957336
3.249022 -89.623207 53.621727
3.963737 -90.274033 51.299774
7.121656 -90.421913 36.848602
7.496826 -92.413979 35.508057
7.376453 -90.00457 34.199245
7.592466 -89.502556 31.49177
7.999649 -84.552109 67.491615
0.046009 -81.731659 52.678177
0.449955 -82.280449 50.30085
-0.828075 -77.417755 62.62326
-0.88743 -76.007858 61.120979
-0.759001 -78.7883 60.102303
-0.577085 -79.977768 57.589897
-0.302155 -80.963486 55.109756
6.417688 -82.995758 30.55706
8.791756 -91.963509 58.291779
10.224131 -91.261551 58.408752
10.658447 -93.157944 56.182526
7.8794 -95.085442 42.153618
7.348665 -92.959129 40.802914
5.91964 -91.023575 44.33411
6.409452 -90.945534 41.91814
6.805901 -90.739799 39.423996
6.229452 -88.479393 38.059006
5.614471 -86.212662 36.728249
4.969105 -83.956734 35.437492
0.895855 -82.620956 47.972538
1.374441 -82.775406 45.679703
1.881891 -82.772797 43.404556
2.420465 -82.643158 41.129501
2.997723 -82.412209 38.840321
3.623901 -82.098465 36.527596
4.307615 -81.713531 34.186558
5.286783 -81.67807 71.018906
6.546782 -83.276443 69.3741
6.312788 -85.261551 67.139008
6.308826 -87.153656 64.824287
6.522993 -88.953278 62.479759
0.461271 -80.6959 67.002472
1.210573 -83.180885 65.847488
0.53919 -83.974648 61.991562
1.291523 -84.850334 63.364693
2.250095 -85.440865 64.609589
3.575739 -87.439568 63.268677
5.154688 -89.170181 61.794601
6.923077 -90.659256 60.149437
7.455261 -92.266212 57.863953
8.046055 -93.762207 55.634689
8.608877 -95.128029 53.45179
5.818323 -92.709259 53.86657
7.510372 -94.537033 52.661652
9.055279 -96.338867 51.286652
9.308653 -97.367554 49.098419
7.488762 -84.726822 29.165119
-0.566578 -74.662586 56.584801
-0.638308 -74.211506 57.757832
-0.519267 -73.313095 57.103108
-0.59045 -76.006298 56.031998
-0.566578 -74.662586 56.584801
10.581615 -96.061424 52.934692
9.98126 -96.051647 52.862305
7.524797 -93.77597 37.5208
7.686672 -94.912526 38.196285
7.6331 -93.885418 38.876204
1.008925 -80.102836 68.854023
1.480814 -80.38892 69.454529
7.704254 -88.010036 29.524943
7.692236 -89.220951 30.120154
7.604484 -88.291641 30.896558
8.806884 -85.039177 66.416748
7.95132 -85.521423 66.352947
-0.001694 -80.750232 52.004562
-0.154807 -80.431526 53.203476
-0.847009 -76.015225 63.107746
-0.798212 -76.655609 63.874908
-0.328889 -80.047439 54.419265
-0.45648 -79.625061 55.639404
-0.483214 -78.709014 54.948914
-0.154807 -80.431526 53.203476
-0.128073 -81.347572 53.893966
-0.328889 -80.047439 54.419265
0.594415 -81.41288 48.475718
0.672905 -82.450703 49.136694
0.371466 -81.242626 49.639874
1.214368 -81.662064 45.031815
1.018239 -81.615898 46.173401
1.468093 -81.660759 43.894241
1.628166 -82.774102 44.54213
1.214368 -81.662064 45.031815
2.173558 -81.505104 40.489036
1.94659 -81.576675 41.622446
2.462187 -81.38963 39.344447
2.709094 -82.527683 39.984911
2.173558 -81.505104 40.489036
3.311266 -80.968804 35.905934
3.02707 -81.118847 37.050613
3.653123 -80.776336 34.735414
3.965758 -81.905998 35.357077
3.311266 -80.968804 35.905934
3.975361 -80.593616 33.581739
3.653123 -80.776336 34.735414
8.851046 -97.191547 47.514007
8.45379 -96.459538 47.018093
7.386128 -93.429657 34.772526
7.478181 -92.191948 34.124901
10.979843 -90.731064 58.319267
11.154137 -91.752769 57.187752
8.833927 -87.908733 62.959129
7.964634 -87.429683 64.052738
9.751364 -88.403133 61.863949
8.833927 -87.908733 62.959129
8.943713 -88.863029 61.796017
10.663873 -88.78159 60.62891
9.751364 -88.403133 61.863949
-0.69591 -73.672806 58.968322
-0.72221 -73.13208 60.130863
-0.617295 -72.321289 59.438679
-0.553042 -77.369118 55.496762
-0.648211 -76.923817 56.704289
-0.59045 -76.006298 56.031998
-0.483214 -78.709014 54.948914
-0.553042 -77.369118 55.496762
10.435016 -95.16172 53.976734
10.190173 -94.349079 55.05423
9.55262 -94.485134 54.997524
10.435016 -95.16172 53.976734
10.581615 -96.061424 52.934692
7.662756 -94.839878 45.837486
8.159647 -95.853135 45.247208
8.02599 -95.71188 46.441292
3.088513 -81.814949 69.859955
3.285245 -80.799701 70.985386
2.622415 -80.745686 70.524761
-0.387346 -79.241333 64.86774
-0.334643 -78.420471 66.12051
-0.546095 -77.868515 65.383659
8.02599 -95.71188 46.441292
8.45379 -96.459538 47.018093
7.956899 -95.446281 47.608372
7.737208 -96.06868 38.849339
7.967651 -96.100696 40.196787
7.737208 -96.06868 38.849339
7.686672 -94.912526 38.196285
8.040967 -83.021748 26.068418
7.652525 -83.300572 27.323776
7.571012 -82.169014 26.81228
-0.483921 -71.565468 58.749595
-0.617295 -72.321289 59.438679
-0.435119 -72.006191 57.637886
-0.483921 -71.565468 58.749595
-0.328045 -70.709644 58.111344
-0.519267 -73.313095 57.103108
-0.435119 -72.006191 57.637886
2.030213 -80.588211 70.013554
2.622415 -80.745686 70.524761
1.876283 -81.561642 68.840305
2.030213 -80.588211 70.013554
1.480814 -80.38892 69.454529
7.417994 -90.987244 33.470495
7.478181 -92.191948 34.124901
7.43664 -91.209274 34.853651
7.526001 -90.736236 32.116757
7.417994 -90.987244 33.470495
7.484459 -89.753563 32.845507
7.493965 -90.471283 30.709309
7.526001 -90.736236 32.116757
7.493965 -90.471283 30.709309
7.692236 -89.220951 30.120154
8.902454 -84.062839 67.542797
8.162802 -83.548199 68.581947
8.902454 -84.062839 67.542797
8.806884 -85.039177 66.416748
0.200278 -81.024628 50.815899
0.247982 -82.006054 51.489514
-0.001694 -80.750232 52.004562
0.371466 -81.242626 49.639874
0.200278 -81.024628 50.815899
-0.683574 -77.29142 64.628723
-0.546095 -77.868515 65.383659
-0.713437 -78.053566 63.377075
-0.683574 -77.29142 64.628723
-0.798212 -76.655609 63.874908
-0.807931 -73.858742 60.865822
-0.72221 -73.13208 60.130863
-0.851233 -74.620872 61.596058
-0.807931 -73.858742 60.865822
-0.844128 -75.245728 60.390743
-0.876686 -75.310276 62.356606
-0.851233 -74.620872 61.596058
-0.857753 -76.712806 61.872119
-0.847009 -76.015225 63.107746
-0.876686 -75.310276 62.356606
5.734592 -82.130893 31.186529
6.047407 -83.250259 31.786469
5.364311 -82.385395 32.415937
6.133637 -81.881508 29.987082
5.734592 -82.130893 31.186529
6.516078 -81.607548 28.74237
6.800129 -82.721798 29.312349
6.133637 -81.881508 29.987082
6.935187 -81.342277 27.530283
6.516078 -81.607548 28.74237
7.571012 -82.169014 26.81228
6.935187 -81.342277 27.530283
11.371295 -92.700966 56.074639
11.154137 -91.752769 57.187752
10.441289 -92.209747 57.295639
10.865508 -94.091804 55.107983
9.983112 -93.415219 56.128773
10.190173 -94.349079 55.05423
11.540752 -93.738891 54.987572
10.865508 -94.091804 55.107983
11.371295 -92.700966 56.074639
11.540752 -93.738891 54.987572
8.115956 -96.016853 44.026249
8.159647 -95.853135 45.247208
8.15745 -96.069008 42.781357
8.115956 -96.016853 44.026249
7.837907 -95.033288 43.39851
8.009863 -96.132431 41.497751
8.15745 -96.069008 42.781357
7.837188 -95.053708 40.852654
7.967651 -96.100696 40.196787
8.009863 -96.132431 41.497751
0.778946 -81.538673 47.319818
0.594415 -81.41288 48.475718
1.135148 -82.698181 46.826121
0.778946 -81.538673 47.319818
1.018239 -81.615898 46.173401
1.677303 -81.641495 42.759974
1.468093 -81.660759 43.894241
2.151178 -82.707977 42.267028
1.677303 -81.641495 42.759974
1.94659 -81.576675 41.622446
2.713981 -81.275719 38.206976
2.462187 -81.38963 39.344447
3.310812 -82.255337 37.683959
2.713981 -81.275719 38.206976
3.02707 -81.118847 37.050613
4.679555 -81.48978 33.001278
5.364311 -82.385395 32.415937
4.99237 -82.609146 33.601218
4.679555 -81.48978 33.001278
3.975361 -80.593616 33.581739
3.993035 -80.819549 71.393101
3.285245 -80.799701 70.985386
4.760756 -80.724102 71.742264
3.993035 -80.819549 71.393101
4.519063 -81.773517 70.669743
5.574143 -80.60479 72.037957
4.760756 -80.724102 71.742264
6.146252 -81.438229 71.250164
5.574143 -80.60479 72.037957
6.776252 -82.237415 70.427761
6.146252 -81.438229 71.250164
5.916783 -82.477257 70.196503
7.436368 -82.910366 69.52319
7.665838 -81.871338 70.576851
6.776252 -82.237415 70.427761
7.273216 -83.914276 68.432857
8.162802 -83.548199 68.581947
7.436368 -82.910366 69.52319
7.10789 -85.876144 66.176644
7.95132 -85.521423 66.352947
7.156218 -84.90683 67.315312
7.105909 -86.822197 65.019283
7.10789 -85.876144 66.176644
6.310807 -86.207604 65.981648
7.167551 -87.761143 63.857742
7.964634 -87.429683 64.052738
7.105909 -86.822197 65.019283
-0.095014 -78.917965 66.843864
-0.334643 -78.420471 66.12051
0.223569 -79.36927 67.542805
-0.095014 -78.917965 66.843864
0.142688 -80.244595 66.303531
0.576118 -79.769611 68.214619
0.223569 -79.36927 67.542805
0.894078 -81.029125 67.641876
1.008925 -80.102836 68.854023
0.576118 -79.769611 68.214619
9.386966 -95.966774 52.628186
9.98126 -96.051647 52.862305
9.20317 -95.212902 53.68591
9.610167 -96.572193 51.545616
9.386966 -95.966774 52.628186
8.832078 -95.733448 52.369221
9.689807 -97.246414 50.488152
9.610167 -96.572193 51.545616
9.816494 -97.760757 49.394035
9.689807 -97.246414 50.488152
9.181966 -96.85321 50.192535
9.761268 -98.333824 48.313007
9.816494 -97.760757 49.394035
9.313023 -97.778355 47.97063
8.846676 -96.780746 48.641796
8.851046 -97.191547 47.514007
9.761268 -98.333824 48.313007
9.313023 -97.778355 47.97063
7.537598 -93.608529 36.174469
7.524797 -93.77597 37.5208
7.484025 -92.581421 36.854388
7.537598 -93.608529 36.174469
7.386128 -93.429657 34.772526
7.805621 -84.440064 27.872516
7.335666 -83.58733 28.616378
7.652525 -83.300572 27.323776
7.771185 -85.615555 28.401027
7.805621 -84.440064 27.872516
7.835055 -86.792507 28.969141
7.552632 -85.903774 29.733232
7.771185 -85.615555 28.401027
7.704254 -88.010036 29.524943
7.835055 -86.792507 28.969141
10.798353 -89.779003 59.465309
10.042641 -90.30949 59.554794
10.979843 -90.731064 58.319267
10.663873 -88.78159 60.62891
10.798353 -89.779003 59.465309
3 0 33 31
3 0 36 34
3 0 31 36
3 1 40 38
3 2 42 41
3 142 45 143
3 144 143 43
3 142 143 144
3 146 145 45
3 148 147 47
3 4 50 48
3 6 53 51
3 6 55 53
3 7 58 56
3 7 60 58
3 3 63 61
3 8 66 64
3 8 68 66
3 8 70 68
3 4 73 71
3 4 48 73
3 5 149 151
3 151 150 75
3 149 150 151
3 9 78 76
3 11 79 32
3 11 80 79
3 152 81 153
3 12 84 82
3 14 85 35
3 14 86 85
3 14 88 86
3 9 89 37
3 9 76 89
3 16 92 90
3 17 93 39
3 17 154 156
3 156 155 93
3 154 155 156
3 158 157 94
3 160 159 95
3 161 97 162
3 18 98 44
3 18 99 98
3 18 100 99
3 163 101 164
3 165 164 46
3 163 164 165
3 166 95 167
3 168 167 101
3 166 167 168
3 20 105 103
3 21 106 49
3 21 107 106
3 10 108 77
3 22 109 52
3 22 110 109
3 22 111 110
3 23 112 54
3 23 113 112
3 169 114 170
3 171 170 96
3 169 170 171
3 172 115 173
3 174 116 175
3 176 175 115
3 174 175 176
3 177 117 178
3 179 118 180
3 181 180 117
3 179 180 181
3 182 119 183
3 184 120 185
3 186 185 119
3 184 185 186
3 188 187 120
3 24 121 57
3 24 122 121
3 24 123 122
3 25 124 59
3 25 125 124
3 26 126 62
3 26 127 126
3 13 128 83
3 27 129 65
3 27 130 129
3 27 131 130
3 28 132 67
3 28 133 132
3 28 134 133
3 29 135 69
3 29 136 135
3 15 137 87
3 30 138 72
3 30 139 138
3 30 140 139
3 190 189 74
3 192 191 91
3 19 141 102
3 194 193 104
3 31 32 9
3 33 32 31
3 33 11 32
3 34 35 12
3 36 35 34
3 36 14 35
3 36 37 14
3 31 37 36
3 31 9 37
3 38 39 16
3 40 39 38
3 40 17 39
3 41 195 196
3 42 197 199
3 199 198 41
3 197 198 199
3 42 200 201
3 43 202 204
3 202 44 203
3 202 203 204
3 45 44 43
3 45 18 44
3 45 46 18
3 205 46 206
3 207 206 45
3 205 206 207
3 209 208 46
3 47 210 212
3 212 211 20
3 210 211 212
3 214 213 47
3 48 215 217
3 215 49 216
3 215 216 217
3 50 49 48
3 50 21 49
3 51 52 10
3 53 52 51
3 53 22 52
3 53 54 22
3 55 54 53
3 55 23 54
3 56 218 220
3 218 57 219
3 218 219 220
3 58 57 56
3 58 24 57
3 58 59 24
3 60 59 58
3 60 25 59
3 61 221 223
3 221 62 222
3 221 222 223
3 63 62 61
3 63 26 62
3 64 65 13
3 66 65 64
3 66 27 65
3 66 67 27
3 68 67 66
3 68 28 67
3 68 69 28
3 70 69 68
3 70 29 69
3 71 72 15
3 73 72 71
3 73 30 72
3 73 74 30
3 48 74 73
3 48 224 226
3 226 225 74
3 224 225 226
3 75 227 228
3 230 229 75
3 233 232 19
3 231 232 233
3 234 43 235
3 236 43 237
3 236 237 238
3 240 239 43
3 76 77 4
3 78 77 76
3 78 10 77
3 32 78 9
3 79 78 32
3 79 10 78
3 79 51 10
3 80 51 79
3 80 6 51
3 241 56 242
3 81 243 245
3 243 56 244
3 243 244 245
3 81 7 56
3 82 83 3
3 84 83 82
3 84 13 83
3 35 84 12
3 85 84 35
3 85 13 84
3 85 64 13
3 86 64 85
3 86 8 64
3 86 87 8
3 88 87 86
3 88 15 87
3 37 88 14
3 89 88 37
3 89 15 88
3 89 71 15
3 76 71 89
3 76 4 71
3 90 91 5
3 92 91 90
3 92 246 248
3 248 247 91
3 246 247 248
3 39 92 16
3 93 92 39
3 93 249 251
3 251 250 92
3 249 250 251
3 93 252 253
3 255 254 93
3 94 256 257
3 259 258 94
3 95 96 0
3 260 96 261
3 262 261 95
3 260 261 262
3 264 263 96
3 265 61 266
3 97 267 269
3 267 61 268
3 267 268 269
3 97 3 61
3 44 270 271
3 98 272 274
3 274 273 44
3 272 273 274
3 98 275 276
3 98 277 279
3 277 97 278
3 277 278 279
3 99 97 98
3 99 3 97
3 99 82 3
3 100 82 99
3 100 12 82
3 46 100 18
3 101 100 46
3 101 12 100
3 101 34 12
3 95 34 101
3 95 0 34
3 280 102 281
3 282 281 1
3 280 281 282
3 283 102 284
3 285 19 286
3 287 286 102
3 285 286 287
3 288 19 289
3 291 290 19
3 103 104 2
3 105 104 103
3 105 292 294
3 294 293 104
3 292 293 294
3 295 105 296
3 297 296 20
3 295 296 297
3 298 105 299
3 301 300 105
3 49 302 303
3 106 304 306
3 306 305 49
3 304 305 306
3 106 307 308
3 106 309 311
3 309 75 310
3 309 310 311
3 107 75 106
3 107 5 75
3 77 50 4
3 108 50 77
3 108 21 50
3 52 108 10
3 109 108 52
3 109 21 108
3 109 107 21
3 110 107 109
3 110 5 107
3 110 90 5
3 111 90 110
3 111 16 90
3 54 111 22
3 112 111 54
3 112 16 111
3 112 38 16
3 113 38 112
3 113 1 38
3 96 33 0
3 114 33 96
3 114 11 33
3 312 114 313
3 115 314 316
3 314 114 315
3 314 315 316
3 115 11 114
3 115 80 11
3 116 80 115
3 116 6 80
3 317 116 318
3 117 319 321
3 319 116 320
3 319 320 321
3 117 6 116
3 117 55 6
3 118 55 117
3 118 23 55
3 322 118 323
3 119 324 326
3 324 118 325
3 324 325 326
3 119 23 118
3 119 113 23
3 120 113 119
3 120 1 113
3 120 327 329
3 329 328 1
3 327 328 329
3 331 330 120
3 57 332 333
3 121 334 336
3 336 335 57
3 334 335 336
3 121 337 338
3 121 339 340
3 122 341 343
3 343 342 121
3 341 342 343
3 122 344 346
3 344 345 346
3 122 347 349
3 347 94 348
3 347 348 349
3 123 94 122
3 123 350 352
3 352 351 94
3 350 351 352
3 59 123 24
3 124 123 59
3 124 353 355
3 355 354 123
3 353 354 355
3 124 356 358
3 356 41 357
3 356 357 358
3 125 41 124
3 125 2 41
3 62 359 360
3 126 361 363
3 363 362 62
3 361 362 363
3 126 364 365
3 126 366 368
3 366 81 367
3 366 367 368
3 127 81 126
3 127 7 81
3 83 63 3
3 128 63 83
3 128 26 63
3 65 128 13
3 129 128 65
3 129 26 128
3 129 127 26
3 130 127 129
3 130 7 127
3 130 60 7
3 131 60 130
3 131 25 60
3 67 131 27
3 132 131 67
3 132 25 131
3 132 125 25
3 133 125 132
3 133 2 125
3 133 103 2
3 134 103 133
3 134 20 103
3 69 134 28
3 135 134 69
3 135 20 134
3 135 47 20
3 136 47 135
3 136 369 371
3 371 370 47
3 369 370 371
3 87 70 8
3 137 70 87
3 137 29 70
3 72 137 15
3 138 137 72
3 138 29 137
3 138 136 29
3 139 136 138
3 139 372 374
3 374 373 136
3 372 373 374
3 139 375 376
3 140 377 379
3 379 378 139
3 377 378 379
3 140 380 381
3 74 140 30
3 382 140 383
3 384 383 74
3 382 383 384
3 386 385 140
3 91 387 389
3 389 388 5
3 387 388 389
3 391 390 91
3 102 40 1
3 141 40 102
3 141 17 40
3 392 141 393
3 394 393 19
3 392 393 394
3 395 141 396
3 397 17 398
3 399 398 141
3 397 398 399
3 401 400 17
3 104 42 2
3 402 42 403
3 404 403 104
3 402 403 404
3 406 405 42
