ply
format ascii 1.0
element vertex 662
property float x
property float y
property float z
element face 764
property list uchar int vertex_index
end_header
-68.003006 -27.671547 32.635239
-47.570267 -42.670341 48.502716
-63.708206 -43.193531 45.653805
-63.518108 -47.897957 31.240265
-53.247913 -33.944904 48.152992
-66.604118 -35.499146 39.126747
-66.492767 -45.524002 39.416168
-66.352745 -37.944107 32.335854
-68.606339 -19.486288 27.058084
-64.977539 -29.977272 26.030949
-56.059772 -42.279228 47.926651
-60.787399 -34.092163 44.073086
-64.855545 -26.093304 39.93103
-65.698174 -55.170097 35.143204
-59.737701 -40.119843 25.772535
-67.461227 -31.657665 35.746399
-67.41066 -36.667393 35.842896
-67.554977 -32.827187 32.23822
-68.76236 -15.500669 24.053062
-66.857452 -20.576128 23.861088
-66.674316 -16.40229 21.074217
-51.697372 -42.290276 48.138386
-56.966141 -33.870522 46.02533
-59.725143 -29.925747 44.833031
-62.979744 -30.138847 42.021713
-62.16164 -25.96104 43.452759
-43.909885 -43.541908 49.468414
-42.253567 -48.51413 48.848606
-45.819389 -47.527622 48.46302
-61.761833 -47.250565 48.163292
-64.431473 -48.097107 45.722828
-65.552834 -46.866043 35.42675
-65.950912 -50.591415 38.000122
-65.038635 -51.634842 33.492805
-65.364182 -55.538822 30.221212
-63.648396 -51.998089 28.799236
-61.003769 -31.007214 23.686226
-62.331608 -35.142567 25.972088
-50.134743 -38.135033 48.369205
-65.352646 -39.297501 42.536667
-65.894882 -44.212227 42.954048
-66.874435 -40.42485 39.553192
-66.612068 -41.755554 36.013878
-64.689789 -43.042645 32.275505
-68.35347 -23.570541 29.819033
-67.400574 -28.837246 29.082268
-67.113098 -24.725925 26.402802
-64.149734 -25.785501 23.729267
-60.249344 -42.565536 47.265923
-54.178123 -37.947601 47.154438
-58.406837 -38.092331 46.09922
-62.340458 -38.522163 44.696144
-64.210228 -34.619717 41.876534
-65.757217 -30.715813 39.051846
-66.987862 -26.686222 36.331604
-64.069733 -21.906456 41.618423
-66.360672 -21.935173 37.638931
-67.961021 -22.543808 33.664902
-68.705017 -18.442923 30.858631
-39.272175 -49.876953 50.241161
-65.840927 -49.287403 42.189034
-65.512276 -54.186073 39.878616
-65.777985 -34.031044 28.882267
-63.592518 -39.139317 28.943697
-61.656635 -44.04084 28.522827
-61.097977 -48.295609 26.900536
-67.764069 -29.68429 34.148975
-67.734833 -32.226421 33.997829
-67.861252 -30.256207 32.352554
-67.924553 -15.980477 22.457798
-67.878937 -13.929412 20.884939
-48.581093 -44.769035 48.457123
-50.665985 -44.578537 48.514568
-49.586533 -42.425892 48.268173
-58.076435 -29.933014 46.281471
-59.474934 -27.99015 45.815197
-60.998901 -27.953342 44.181488
-60.748886 -26.040934 45.243912
-45.672108 -43.039429 48.89119
-44.708729 -45.476635 48.733906
-46.587715 -45.065056 48.511997
-47.770939 -47.185528 48.562069
-62.76321 -45.203026 47.001526
-63.240185 -47.623722 47.103275
-64.16024 -45.623085 45.860867
-64.631561 -47.442345 33.351135
-65.189247 -49.326118 34.64336
-64.349754 -49.786697 32.440598
-64.363174 -51.925995 31.16711
-63.401657 -50.077881 30.195553
-66.029587 -37.394291 40.847446
-66.326859 -39.822861 41.136906
-66.832855 -37.939384 39.352257
-67.116035 -37.305183 34.093006
-67.091133 -39.198898 35.971069
-66.524521 -39.858906 34.179314
-65.832962 -42.420734 34.152
-65.528191 -40.501293 32.379028
-68.489502 -21.517826 28.453156
-67.953323 -24.149708 28.03512
-67.948891 -22.091818 26.710823
-65.361847 -21.05654 22.578382
-65.577362 -23.173332 23.783199
-62.117092 -26.25481 22.716236
-54.982895 -44.464352 48.679028
-58.208946 -42.384605 47.689957
-51.64809 -36.000332 48.269939
-52.112251 -37.990875 47.714508
-53.561176 -35.895199 47.388382
-58.890244 -33.946548 45.052513
-57.589386 -35.945389 45.85379
-59.608742 -36.076355 45.096046
-60.448288 -38.268745 45.472672
-61.54287 -36.278603 44.263115
-63.312084 -36.561058 43.299526
-62.587154 -34.313591 43.030735
-63.961723 -28.132851 40.988983
-64.46447 -30.37859 40.57402
-65.284546 -28.373444 39.360809
-66.4086 -28.720032 37.677895
-66.025475 -26.331915 38.148361
-62.803368 -22.094614 43.623505
-65.944885 -19.775089 38.400658
-66.964478 -19.853266 36.352028
-67.2789 -22.17202 35.648624
-67.791489 -20.094149 34.311054
-68.36245 -20.476494 32.293846
-39.943848 -47.39959 50.739712
-43.439484 -50.500336 48.312183
-41.742165 -51.04142 48.516121
-63.62516 -52.503944 46.088623
-66.398758 -44.844849 41.265129
-65.923447 -46.745258 42.758511
-66.246124 -47.405869 40.894489
-65.780334 -52.973793 36.736626
-65.857132 -52.406948 39.023064
-65.694626 -54.725719 37.543098
-66.411392 -29.418968 27.474474
-66.680046 -31.445812 28.918613
-65.395813 -32.022614 27.372395
-60.966202 -37.669647 25.93516
-62.979156 -37.154953 27.382515
-61.751144 -39.663235 27.33568
-62.51931 -41.636131 28.846973
-60.696213 -42.087536 27.116924
-67.078735 -33.592556 37.414574
-67.231995 -36.056747 37.536575
-67.529617 -34.157257 35.737156
-67.52771 -34.763847 34.00132
-67.049644 -35.386841 32.256302
-68.700577 -17.48287 25.597168
-67.945175 -20.044811 25.364159
-67.940651 -18.011194 23.953163
-66.761169 -18.49754 22.511606
-52.812935 -44.480682 48.615364
-53.870056 -42.245934 48.049618
-55.071835 -33.865871 47.044914
-56.593456 -31.885143 46.681496
-58.369347 -31.891815 45.440018
-60.162704 -31.968758 44.244621
-61.917389 -32.119774 43.047028
-61.377724 -29.991291 43.427307
-62.511883 -27.996307 42.584747
-63.547188 -25.972803 41.691284
-42.29837 -44.17638 50.25642
-41.370163 -46.652382 49.827381
-42.963608 -46.007298 49.163345
-43.973309 -47.970501 48.543579
-62.247337 -49.646626 48.13929
-63.52504 -50.069565 46.811104
-64.533997 -50.582203 45.175392
-66.195908 -46.211906 37.456825
-66.204117 -48.086639 38.893425
-65.832657 -48.74295 36.799591
-65.593262 -51.172291 35.773689
-65.511551 -53.43195 34.390152
-65.569382 -55.460339 32.698902
-65.1129 -53.724125 31.998497
-64.654434 -53.796719 29.568737
-64.206108 -53.605637 27.105366
-63.149426 -30.50655 24.769543
-63.699287 -32.573311 25.979103
-61.665138 -33.095493 24.742146
-60.173248 -35.64798 24.697313
-58.789612 -38.131783 24.555332
-46.866425 -40.677597 49.028034
-48.761303 -40.357948 48.450115
-48.270119 -38.403687 49.154568
-49.840378 -36.221989 49.273071
-45.104908 -41.139427 49.775505
-64.576096 -41.226494 44.152615
-64.987823 -43.655678 44.431286
-65.711647 -41.724113 42.844185
-66.443161 -42.308525 41.31562
-66.742355 -42.958031 39.609833
-67.194969 -38.549446 37.711731
-66.96917 -41.079277 37.829124
-66.606873 -43.641781 37.776764
-66.061905 -44.323479 35.863171
-65.159744 -44.964893 33.904716
-63.976517 -45.52858 31.921659
-68.194611 -25.628204 31.200016
-67.926605 -28.246832 30.818127
-67.950882 -26.206625 29.388714
-67.261597 -26.791681 27.697716
-66.120331 -27.359549 26.169609
-66.974693 -22.651648 25.143169
-65.83461 -25.275234 24.959694
-64.552132 -27.89698 24.834099
-62.611767 -28.400494 23.7019
-61.082977 -44.884567 47.831924
-62.10688 -42.831711 46.597744
-50.773502 -40.165794 48.013702
-52.878937 -40.080482 47.676079
-55.041862 -40.081879 47.37949
-55.554893 -35.882671 46.598442
-56.294167 -37.985138 46.637238
-57.212498 -40.156441 47.054543
-59.32724 -40.300579 46.627686
-61.311832 -40.520065 46.031548
-63.08709 -40.825638 45.215343
-64.001373 -38.862968 43.724625
-64.833755 -36.932243 42.166267
-65.574936 -35.015862 40.578316
-63.564243 -32.353573 41.797405
-65.025848 -32.677773 40.454449
-66.222534 -33.09354 38.994064
-66.780746 -31.146793 37.440361
-67.259109 -29.163479 35.935448
-67.670273 -27.141178 34.486046
-61.865929 -24.076134 44.525833
-63.19059 -23.94376 42.60997
-64.470268 -23.919798 40.715919
-65.271538 -21.847424 39.627556
-65.656441 -24.022743 38.823429
-66.689796 -24.259285 36.918926
-67.50338 -24.62162 35.001228
-68.027161 -25.088297 33.084858
-68.339882 -23.022305 31.710041
-68.613861 -20.965225 30.328539
-68.848999 -18.937189 28.903744
-68.983116 -16.458435 29.337765
-69.040298 -16.949507 27.406084
-69.179054 -14.999201 25.823296
-40.680462 -49.153 49.409023
-65.224396 -46.142044 44.432003
-65.303375 -48.659431 44.065788
-65.257355 -51.165092 43.291458
-66.048508 -49.946175 40.150581
-65.693466 -51.787254 41.222103
-67.506157 -30.851418 30.592617
-66.899773 -33.435219 30.517742
-66.101585 -36.003563 30.55022
-64.231308 -34.60228 27.363398
-64.721848 -36.596802 28.919693
-65.156403 -38.561485 30.611584
-64.164261 -41.100922 30.598343
-63.264679 -43.591621 30.399601
-62.605812 -45.979553 29.918591
-59.971474 -44.365669 26.631174
-61.149422 -46.286263 27.887943
-62.308384 -48.1936 29.092665
-62.43486 -50.159012 27.905865
-62.971756 -51.813618 26.390144
-68.302624 -12.716232 20.827855
-68.327858 -13.723748 21.659372
-59.410255 -27.092087 46.452726
-58.726439 -28.043038 46.665579
-60.047231 -26.117479 46.167084
-60.11191 -27.015542 45.529555
-59.410255 -27.092087 46.452726
-64.578533 -22.35112 22.61386
-64.432291 -21.266204 22.054675
-56.592768 -43.401627 48.273449
-56.054329 -44.494188 48.649637
-55.521333 -43.37179 48.30284
-57.134359 -42.331917 47.808304
-57.667355 -43.454315 48.155102
-56.592768 -43.401627 48.273449
-67.214428 -18.827918 35.648248
-66.726349 -18.78994 36.686535
-67.627933 -18.94836 34.627761
-67.377983 -19.973708 35.331541
-67.214428 -18.827918 35.648248
-68.007633 -19.07251 33.597012
-67.627933 -18.94836 34.627761
-40.396731 -46.165199 51.002579
-39.757323 -46.592137 51.616799
-43.251416 -51.774392 48.177969
-44.143097 -51.541628 48.239317
-63.59149 -53.69399 45.520767
-64.057987 -52.76847 45.147766
-65.623074 -56.00819 35.459644
-65.6213 -55.786001 36.659592
-65.6964 -54.947908 36.343151
-65.68248 -56.148754 34.217387
-65.623074 -56.00819 35.459644
-65.931411 -17.660637 21.186977
-65.974838 -18.708263 21.905671
-66.717742 -17.449915 21.792912
-56.532217 -30.947847 47.244091
-55.73443 -31.919662 47.34416
-45.534723 -48.783608 48.404922
-44.611683 -49.005047 48.445202
-44.896349 -47.749061 48.503299
-46.485569 -48.594023 48.517538
-45.534723 -48.783608 48.404922
-48.446804 -48.273672 48.744171
-48.788297 -47.062521 48.671948
-62.004585 -48.448595 48.151291
-61.489339 -49.484612 48.628031
-61.246588 -48.286581 48.640032
-59.01786 -35.880083 24.103451
-59.780712 -34.618151 24.170212
-58.326042 -37.121984 24.032461
-59.48143 -36.889882 24.626323
-59.01786 -35.880083 24.103451
-47.401379 -38.610273 49.622942
-47.568272 -39.540642 49.091301
-46.699532 -39.747228 49.559675
-49.868588 -35.332211 49.995461
-48.995545 -36.402922 49.842287
-50.679737 -35.175411 49.323845
-49.868588 -35.332211 49.995461
-45.818774 -39.978144 49.933411
-45.01742 -40.261959 50.481695
-46.699532 -39.747228 49.559675
-45.985667 -40.908512 49.40177
-45.818774 -39.978144 49.933411
-61.247141 -27.563643 22.739404
-60.966144 -26.47087 22.310827
-60.666161 -43.725051 47.548924
-60.132156 -44.773035 48.095468
-59.715339 -43.61352 47.812468
-61.687319 -23.229847 45.091674
-61.199078 -24.184234 45.504829
-69.086586 -15.491298 28.531932
-68.90694 -15.293847 29.528424
-69.115177 -15.736834 27.566091
-69.011707 -16.703971 28.371924
-69.086586 -15.491298 28.531932
-69.184555 -14.761681 26.774698
-69.109676 -15.974354 26.61469
-69.115177 -15.736834 27.566091
-38.65662 -50.274994 50.793434
-38.983425 -49.054108 51.070566
-39.023681 -51.111723 50.000382
-38.65662 -50.274994 50.793434
-40.961351 -51.350141 48.754286
-41.558852 -52.307609 48.343195
-65.314937 -53.896076 40.997425
-65.405532 -52.696666 41.669168
-65.602871 -52.986663 40.550359
-65.207028 -55.057144 40.234165
-65.314937 -53.896076 40.997425
-65.532166 -56.375275 30.499725
-65.634766 -56.336033 31.73857
-65.466782 -55.499581 31.460057
-59.141112 -44.454102 25.668058
-59.387389 -43.40074 26.009302
-61.1237 -47.290936 27.394239
-60.428028 -46.353642 26.85202
-60.402306 -47.358315 26.358317
-62.684634 -51.581385 25.166964
-62.251683 -50.906208 25.979256
-63.400364 -52.46768 25.502392
-62.684634 -51.581385 25.166964
-68.350666 -14.749281 22.445802
-68.343457 -15.740573 23.25543
-68.76957 -14.509377 23.243434
-67.901745 -14.954944 21.671368
-68.350666 -14.749281 22.445802
-68.327858 -13.723748 21.659372
-49.623539 -44.673786 48.485845
-50.235821 -45.759025 48.648197
-49.193375 -45.854275 48.619475
-58.027189 -29.01447 46.898716
-57.273707 -29.971782 47.044078
-58.775684 -28.961582 46.048334
-58.027189 -29.01447 46.898716
-58.726439 -28.043038 46.665579
-49.193375 -45.854275 48.619475
-48.788297 -47.062521 48.671948
-48.176016 -45.977282 48.509596
-60.195972 -32.297768 23.664669
-59.819137 -31.243853 23.221157
-64.68629 -23.409516 23.216268
-65.469605 -22.114936 23.180791
-64.578533 -22.35112 22.61386
-63.972476 -24.715601 23.189303
-64.863548 -24.479416 23.756233
-64.68629 -23.409516 23.216268
-62.956156 -24.950255 22.682787
-63.133413 -26.020156 23.222752
-63.972476 -24.715601 23.189303
-61.90373 -25.161434 22.229109
-62.956156 -24.950255 22.682787
-60.966144 -26.47087 22.310827
-61.90373 -25.161434 22.229109
-55.546608 -45.589373 49.031855
-54.497841 -45.586371 48.979764
-55.546608 -45.589373 49.031855
-56.054329 -44.494188 48.649637
-58.69514 -43.523054 48.024485
-57.667355 -43.454315 48.155102
-59.229145 -42.475071 47.47794
-59.715339 -43.61352 47.812468
-58.69514 -43.523054 48.024485
-62.532488 -21.280389 44.105225
-62.156039 -22.239087 44.640511
-63.176789 -21.098956 43.067467
-62.532488 -21.280389 44.105225
-63.809971 -21.004877 42.064926
-63.43655 -22.000535 42.620964
-63.176789 -21.098956 43.067467
-66.216553 -18.750852 37.71085
-65.648949 -18.804402 38.750943
-66.454681 -19.814177 37.376343
-66.216553 -18.750852 37.71085
-66.726349 -18.78994 36.686535
-68.293114 -19.263683 32.588408
-68.076969 -20.285322 33.30245
-68.007633 -19.07251 33.597012
-68.464397 -18.246897 31.8708
-68.533733 -19.459708 31.576239
-68.293114 -19.263683 32.588408
-39.319261 -47.815426 51.319841
-39.757323 -46.592137 51.616799
-39.608012 -48.638272 50.490437
-38.983425 -49.054108 51.070566
-39.319261 -47.815426 51.319841
-42.402756 -52.044933 48.279938
-42.590824 -50.770878 48.414152
-43.251416 -51.774392 48.177969
-41.558852 -52.307609 48.343195
-42.402756 -52.044933 48.279938
-63.114244 -53.457618 46.453914
-63.075592 -52.27448 46.89133
-63.114244 -53.457618 46.453914
-63.59149 -53.69399 45.520767
-65.498936 -55.576551 37.880136
-65.407761 -55.306728 39.047895
-65.603451 -54.455896 38.710857
-65.498936 -55.576551 37.880136
-65.6213 -55.786001 36.659592
-65.418251 -56.200344 27.981543
-65.529336 -56.291967 29.233407
-65.253098 -55.447199 28.969348
-60.534956 -48.236565 25.778332
-60.402306 -47.358315 26.358317
-61.314793 -49.147204 26.234452
-60.534956 -48.236565 25.778332
-65.275177 -19.987762 21.939059
-66.061508 -19.77704 22.544994
-65.974838 -18.708263 21.905671
-64.432291 -21.266204 22.054675
-65.275177 -19.987762 21.939059
-51.281643 -45.680537 48.782016
-50.235821 -45.759025 48.648197
-52.355118 -45.631609 48.832414
-51.281643 -45.680537 48.782016
-51.73946 -44.529609 48.564966
-53.412861 -45.594535 48.947931
-52.355118 -45.631609 48.832414
-53.897915 -44.472517 48.647196
-54.497841 -45.586371 48.979764
-53.412861 -45.594535 48.947931
-54.973619 -32.910026 47.525869
-54.159874 -33.905388 47.598953
-54.061659 -32.949542 48.079908
-55.832645 -32.875507 46.863205
-54.973619 -32.910026 47.525869
-55.73443 -31.919662 47.34416
-57.334946 -30.909078 46.481484
-56.532217 -30.947847 47.244091
-57.273707 -29.971782 47.044078
-41.834266 -45.414381 50.0419
-41.109888 -45.791595 50.546413
-41.573991 -44.553595 50.760933
-44.34477 -50.269965 48.329504
-43.706396 -49.235418 48.427881
-44.611683 -49.005047 48.445202
-44.143097 -51.541628 48.239317
-44.34477 -50.269965 48.329504
-47.461344 -48.422975 48.567063
-46.485569 -48.594023 48.517538
-46.795164 -47.356575 48.512545
-47.461344 -48.422975 48.567063
-48.446804 -48.273672 48.744171
-61.728708 -50.659527 48.550823
-61.489339 -49.484612 48.628031
-62.38668 -50.845821 47.916664
-61.728708 -50.659527 48.550823
-63.025532 -51.057291 47.252571
-62.38668 -50.845821 47.916664
-62.886189 -49.858095 47.475197
-63.5751 -51.286755 46.449863
-63.075592 -52.27448 46.89133
-63.025532 -51.057291 47.252571
-64.512405 -51.8076 44.691151
-64.057987 -52.76847 45.147766
-64.079578 -51.543073 45.632008
-64.898224 -54.576148 28.64311
-65.253098 -55.447199 28.969348
-65.009308 -54.667771 29.894975
-64.674061 -54.480607 27.411425
-64.898224 -54.576148 28.64311
-64.430271 -53.701178 28.337052
-64.582065 -54.240282 26.150529
-64.674061 -54.480607 27.411425
-60.526657 -33.341907 24.192629
-61.334453 -32.051353 24.214186
-60.195972 -32.297768 23.664669
-60.919193 -34.371736 24.719729
-60.526657 -33.341907 24.192629
-59.780712 -34.618151 24.170212
-48.210415 -37.493771 49.783035
-47.401379 -38.610273 49.622942
-49.055249 -37.312838 49.213819
-48.210415 -37.493771 49.783035
-48.995545 -36.402922 49.842287
-51.583593 -35.064583 48.822279
-50.744234 -36.11116 48.771505
-50.679737 -35.175411 49.323845
-52.383505 -34.036869 48.763806
-52.448002 -34.972618 48.211466
-51.583593 -35.064583 48.822279
-53.243757 -33.029714 48.795298
-52.383505 -34.036869 48.763806
-54.061659 -32.949542 48.079908
-53.243757 -33.029714 48.795298
-42.161024 -43.334028 51.044123
-41.573991 -44.553595 50.760933
-42.893202 -42.961782 50.482319
-42.161024 -43.334028 51.044123
-43.698959 -42.644547 50.088316
-43.104128 -43.859144 49.862417
-42.893202 -42.961782 50.482319
-44.29647 -41.443306 50.241861
-45.01742 -40.261959 50.481695
-44.507396 -42.340667 49.62196
-43.698959 -42.644547 50.088316
-44.29647 -41.443306 50.241861
-61.494478 -28.636485 23.232236
-62.364429 -27.327652 23.209068
-61.247141 -27.563643 22.739404
-60.690479 -29.939844 23.2244
-61.807768 -29.703854 23.694063
-61.494478 -28.636485 23.232236
-59.819137 -31.243853 23.221157
-60.690479 -29.939844 23.2244
-67.830712 -12.878282 20.074753
-68.302624 -12.716232 20.827855
-67.22789 -14.097858 20.220363
-67.830712 -12.878282 20.074753
-66.62558 -15.334297 20.315002
-67.276626 -15.165851 20.979578
-67.22789 -14.097858 20.220363
-65.859794 -16.573426 20.501029
-66.62558 -15.334297 20.315002
-65.931411 -17.660637 21.186977
-65.859794 -16.573426 20.501029
-60.902395 -47.114624 48.523361
-61.246588 -48.286581 48.640032
-60.562967 -45.931625 48.357677
-60.132156 -44.773035 48.095468
-61.422405 -46.067566 47.997608
-60.902395 -47.114624 48.523361
-60.562967 -45.931625 48.357677
-60.640557 -25.166634 45.863869
-60.047231 -26.117479 46.167084
-61.307407 -25.058534 44.884873
-60.640557 -25.166634 45.863869
-61.199078 -24.184234 45.504829
-62.334649 -23.085374 44.074669
-61.687319 -23.229847 45.091674
-62.156039 -22.239087 44.640511
-64.430146 -20.884845 41.035394
-63.809971 -21.004877 42.064926
-65.367722 -19.819161 39.426512
-65.648949 -18.804402 38.750943
-65.031048 -20.855329 40.039961
-65.367722 -19.819161 39.426512
-65.608212 -20.811256 39.014107
-64.670636 -21.87694 40.62299
-64.430146 -20.884845 41.035394
-65.031048 -20.855329 40.039961
-68.638138 -17.251886 31.1049
-68.464397 -18.246897 31.8708
-68.777187 -16.259642 30.344468
-68.90694 -15.293847 29.528424
-68.844066 -17.450679 30.098198
-68.638138 -17.251886 31.1049
-68.777187 -16.259642 30.344468
-69.249275 -13.811649 25.93166
-69.184555 -14.761681 26.774698
-69.216633 -14.033154 24.994887
-69.249275 -13.811649 25.93166
-69.008285 -14.283888 24.10977
-68.970707 -15.249935 24.938179
-69.216633 -14.033154 24.994887
-68.76957 -14.509377 23.243434
-69.008285 -14.283888 24.10977
-40.657005 -47.025986 50.283546
-40.396731 -46.165199 51.002579
-41.109888 -45.791595 50.546413
-40.4305 -50.405931 49.200737
-41.211314 -50.09721 48.962572
-40.961351 -51.350141 48.754286
-39.726356 -50.767908 49.616806
-39.976318 -49.514977 49.825092
-40.4305 -50.405931 49.200737
-39.023681 -51.111723 50.000382
-39.726356 -50.767908 49.616806
-64.874085 -52.099045 43.749184
-64.512405 -51.8076 44.691151
-64.895676 -50.873648 44.233425
-65.187477 -52.385586 42.703846
-65.475411 -51.476173 42.25678
-65.405532 -52.696666 41.669168
-64.874085 -52.099045 43.749184
-65.187477 -52.385586 42.703846
-65.207028 -55.057144 40.234165
-65.407761 -55.306728 39.047895
-65.618084 -56.293875 32.995235
-65.68248 -56.148754 34.217387
-65.633778 -55.315218 33.921053
-65.618084 -56.293875 32.995235
-65.634766 -56.336033 31.73857
-65.532166 -56.375275 30.499725
-65.529336 -56.291967 29.233407
-57.674021 -38.329548 23.881878
-58.326042 -37.121984 24.032461
-58.225643 -39.312527 24.39094
-57.674021 -38.329548 23.881878
-58.699687 -40.306557 24.999541
-59.263656 -39.125813 25.163933
-58.225643 -39.312527 24.39094
-59.270502 -41.277827 25.579982
-58.699687 -40.306557 24.999541
-59.749758 -42.261673 26.252177
-60.216957 -41.10369 26.44473
-59.270502 -41.277827 25.579982
-60.333844 -43.226602 26.874049
-59.749758 -42.261673 26.252177
-59.387389 -43.40074 26.009302
-59.839055 -45.393345 26.223636
-59.141112 -44.454102 25.668058
-60.560448 -45.325966 27.259559
-59.839055 -45.393345 26.223636
-60.428028 -46.353642 26.85202
-61.983235 -50.078905 26.737117
-61.766419 -49.227311 27.4032
-61.314793 -49.147204 26.234452
-62.703308 -50.986315 27.148004
-61.983235 -50.078905 26.737117
-62.251683 -50.906208 25.979256
-64.01754 -53.363689 25.860003
-63.588932 -52.709627 26.747755
-63.400364 -52.46768 25.502392
-64.582065 -54.240282 26.150529
-64.01754 -53.363689 25.860003
3 0 68 66
3 264 70 265
3 1 73 71
3 266 75 267
3 268 77 269
3 270 269 75
3 268 269 270
3 1 80 78
3 1 71 80
3 2 84 82
3 3 87 85
3 3 89 87
3 5 92 90
3 7 95 93
3 7 97 95
3 8 100 98
3 272 271 101
3 10 273 275
3 275 274 104
3 273 274 275
3 10 276 278
3 276 105 277
3 276 277 278
3 4 108 106
3 11 111 109
3 11 113 111
3 11 115 113
3 12 118 116
3 12 120 118
3 279 123 280
3 281 125 282
3 283 282 123
3 281 282 283
3 285 284 125
3 286 127 287
3 289 288 128
3 291 290 130
3 6 133 131
3 13 136 134
3 13 292 294
3 294 293 136
3 292 293 294
3 13 295 296
3 9 139 137
3 14 142 140
3 14 144 142
3 15 147 145
3 17 148 67
3 17 149 148
3 18 152 150
3 20 153 69
3 20 297 299
3 299 298 153
3 297 298 299
3 21 154 72
3 21 155 154
3 300 157 301
3 23 158 74
3 23 159 158
3 23 161 159
3 25 162 76
3 25 163 162
3 26 166 164
3 28 167 79
3 28 302 304
3 304 303 167
3 302 303 304
3 28 305 306
3 308 307 81
3 29 309 311
3 309 168 310
3 309 310 311
3 30 169 83
3 30 170 169
3 31 173 171
3 33 174 86
3 33 175 174
3 33 177 175
3 35 178 88
3 35 179 178
3 36 182 180
3 312 183 313
3 314 184 315
3 316 315 183
3 314 315 316
3 317 187 318
3 319 318 185
3 317 318 319
3 320 188 321
3 323 322 188
3 324 189 325
3 326 185 327
3 328 327 189
3 326 327 328
3 39 192 190
3 41 193 91
3 41 194 193
3 16 195 146
3 42 196 94
3 42 197 196
3 42 198 197
3 43 199 96
3 43 200 199
3 44 203 201
3 46 204 99
3 46 205 204
3 19 206 151
3 47 207 102
3 47 208 207
3 47 209 208
3 330 329 103
3 48 331 333
3 331 210 332
3 331 332 333
3 48 211 210
3 38 212 186
3 49 213 107
3 49 214 213
3 22 215 156
3 50 216 110
3 50 217 216
3 50 218 217
3 51 219 112
3 51 220 219
3 51 221 220
3 52 222 114
3 52 223 222
3 24 224 160
3 53 225 117
3 53 226 225
3 53 227 226
3 54 228 119
3 54 229 228
3 334 230 335
3 55 231 121
3 55 232 231
3 56 233 122
3 56 234 233
3 56 235 234
3 57 236 124
3 57 237 236
3 57 238 237
3 58 239 126
3 58 240 239
3 336 241 337
3 338 242 339
3 340 339 241
3 338 339 340
3 341 243 342
3 343 342 242
3 341 342 343
3 59 344 345
3 59 346 347
3 27 244 165
3 349 348 129
3 40 245 191
3 60 246 132
3 60 247 246
3 32 248 172
3 61 249 135
3 61 350 352
3 352 351 249
3 350 351 352
3 61 353 354
3 34 355 357
3 357 356 176
3 355 356 357
3 45 250 202
3 62 251 138
3 62 252 251
3 37 253 181
3 63 254 141
3 63 255 254
3 63 256 255
3 64 257 143
3 64 258 257
3 358 259 359
3 65 360 362
3 360 260 361
3 360 361 362
3 65 261 260
3 65 262 261
3 363 263 364
3 366 365 263
3 66 67 15
3 68 67 66
3 68 17 67
3 367 69 368
3 369 368 18
3 367 368 369
3 70 370 372
3 370 69 371
3 370 371 372
3 70 20 69
3 71 373 375
3 373 72 374
3 373 374 375
3 73 72 71
3 73 21 72
3 376 74 377
3 75 378 380
3 378 74 379
3 378 379 380
3 75 23 74
3 75 76 23
3 77 76 75
3 77 25 76
3 78 79 26
3 80 79 78
3 80 28 79
3 80 81 28
3 71 81 80
3 71 381 383
3 383 382 81
3 381 382 383
3 82 83 29
3 84 83 82
3 84 30 83
3 85 86 31
3 87 86 85
3 87 33 86
3 87 88 33
3 89 88 87
3 89 35 88
3 385 384 36
3 90 91 39
3 92 91 90
3 92 41 91
3 93 94 16
3 95 94 93
3 95 42 94
3 95 96 42
3 97 96 95
3 97 43 96
3 98 99 44
3 100 99 98
3 100 46 99
3 101 102 19
3 386 102 387
3 388 387 101
3 386 387 388
3 389 47 390
3 391 390 102
3 389 390 391
3 392 103 393
3 394 393 47
3 392 393 394
3 395 103 396
3 398 397 103
3 104 399 400
3 402 401 104
3 105 403 404
3 105 405 407
3 405 48 406
3 405 406 407
3 106 107 38
3 108 107 106
3 108 49 107
3 109 110 22
3 111 110 109
3 111 50 110
3 111 112 50
3 113 112 111
3 113 51 112
3 113 114 51
3 115 114 113
3 115 52 114
3 116 117 24
3 118 117 116
3 118 53 117
3 118 119 53
3 120 119 118
3 120 54 119
3 408 121 409
3 410 121 411
3 412 55 413
3 414 413 121
3 412 413 414
3 415 122 416
3 123 417 419
3 417 122 418
3 417 418 419
3 123 56 122
3 123 124 56
3 125 124 123
3 125 57 124
3 125 126 57
3 420 126 421
3 422 421 125
3 420 421 422
3 423 58 424
3 425 424 126
3 423 424 425
3 127 426 427
3 127 428 430
3 428 59 429
3 428 429 430
3 128 129 27
3 431 129 432
3 433 432 128
3 431 432 433
3 435 434 129
3 130 436 437
3 439 438 130
3 131 132 40
3 133 132 131
3 133 60 132
3 134 135 32
3 136 135 134
3 136 61 135
3 136 440 442
3 442 441 61
3 440 441 442
3 444 443 136
3 447 446 34
3 445 446 447
3 137 138 45
3 139 138 137
3 139 62 138
3 140 141 37
3 142 141 140
3 142 63 141
3 142 143 63
3 144 143 142
3 144 64 143
3 448 65 449
3 451 450 65
3 145 146 5
3 147 146 145
3 147 16 146
3 67 147 15
3 148 147 67
3 148 16 147
3 148 93 16
3 149 93 148
3 149 7 93
3 150 151 8
3 152 151 150
3 152 19 151
3 69 152 18
3 153 152 69
3 153 19 152
3 153 101 19
3 452 101 453
3 454 453 153
3 452 453 454
3 456 455 101
3 72 457 458
3 154 459 461
3 461 460 72
3 459 460 461
3 154 462 463
3 154 464 466
3 464 104 465
3 464 465 466
3 155 104 154
3 155 10 104
3 467 156 468
3 469 468 4
3 467 468 469
3 157 470 472
3 470 156 471
3 470 471 472
3 157 22 156
3 74 473 475
3 473 157 474
3 473 474 475
3 158 157 74
3 158 22 157
3 158 109 22
3 159 109 158
3 159 11 109
3 159 160 11
3 161 160 159
3 161 24 160
3 76 161 23
3 162 161 76
3 162 24 161
3 162 116 24
3 163 116 162
3 163 12 116
3 164 476 478
3 476 165 477
3 476 477 478
3 166 165 164
3 166 27 165
3 79 166 26
3 167 166 79
3 167 27 166
3 167 128 27
3 479 128 480
3 481 480 167
3 479 480 481
3 483 482 128
3 81 484 486
3 486 485 28
3 484 485 486
3 488 487 81
3 168 489 490
3 168 491 492
3 83 168 29
3 169 168 83
3 169 493 495
3 495 494 168
3 493 494 495
3 169 496 498
3 496 130 497
3 496 497 498
3 170 130 169
3 170 499 501
3 501 500 130
3 499 500 501
3 171 172 6
3 173 172 171
3 173 32 172
3 86 173 31
3 174 173 86
3 174 32 173
3 174 134 32
3 175 134 174
3 175 13 134
3 175 176 13
3 177 176 175
3 177 34 176
3 88 177 33
3 178 177 88
3 178 34 177
3 178 502 504
3 504 503 34
3 502 503 504
3 179 505 507
3 507 506 178
3 505 506 507
3 179 508 509
3 180 181 9
3 182 181 180
3 182 37 181
3 510 182 511
3 512 511 36
3 510 511 512
3 183 513 515
3 513 182 514
3 513 514 515
3 183 37 182
3 183 140 37
3 184 140 183
3 184 14 140
3 185 186 1
3 187 186 185
3 187 38 186
3 516 187 517
3 188 518 520
3 518 187 519
3 518 519 520
3 188 38 187
3 188 106 38
3 521 106 522
3 523 522 188
3 521 522 523
3 524 4 525
3 526 525 106
3 524 525 526
3 527 4 528
3 530 529 4
3 531 164 532
3 533 164 534
3 535 26 536
3 537 536 164
3 535 536 537
3 189 538 539
3 189 540 542
3 540 26 541
3 540 541 542
3 189 78 26
3 185 78 189
3 185 1 78
3 190 191 2
3 192 191 190
3 192 40 191
3 91 192 39
3 193 192 91
3 193 40 192
3 193 131 40
3 194 131 193
3 194 6 131
3 146 92 5
3 195 92 146
3 195 41 92
3 94 195 16
3 196 195 94
3 196 41 195
3 196 194 41
3 197 194 196
3 197 6 194
3 197 171 6
3 198 171 197
3 198 31 171
3 96 198 42
3 199 198 96
3 199 31 198
3 199 85 31
3 200 85 199
3 200 3 85
3 201 202 0
3 203 202 201
3 203 45 202
3 99 203 44
3 204 203 99
3 204 45 203
3 204 137 45
3 205 137 204
3 205 9 137
3 151 100 8
3 206 100 151
3 206 46 100
3 102 206 19
3 207 206 102
3 207 46 206
3 207 205 46
3 208 205 207
3 208 9 205
3 208 180 9
3 209 180 208
3 209 36 180
3 103 209 47
3 543 209 544
3 545 544 103
3 543 544 545
3 546 36 547
3 548 547 209
3 546 547 548
3 550 549 36
3 551 70 552
3 553 70 554
3 555 20 556
3 557 556 70
3 555 556 557
3 558 20 559
3 561 560 20
3 562 29 563
3 210 564 565
3 210 566 568
3 566 29 567
3 566 567 568
3 210 82 29
3 211 82 210
3 211 2 82
3 186 73 1
3 212 73 186
3 212 21 73
3 107 212 38
3 213 212 107
3 213 21 212
3 213 155 21
3 214 155 213
3 214 10 155
3 156 108 4
3 215 108 156
3 215 49 108
3 110 215 22
3 216 215 110
3 216 49 215
3 216 214 49
3 217 214 216
3 217 10 214
3 217 105 10
3 218 105 217
3 218 48 105
3 112 218 50
3 219 218 112
3 219 48 218
3 219 211 48
3 220 211 219
3 220 2 211
3 220 190 2
3 221 190 220
3 221 39 190
3 114 221 51
3 222 221 114
3 222 39 221
3 222 90 39
3 223 90 222
3 223 5 90
3 160 115 11
3 224 115 160
3 224 52 115
3 117 224 24
3 225 224 117
3 225 52 224
3 225 223 52
3 226 223 225
3 226 5 223
3 226 145 5
3 227 145 226
3 227 15 145
3 119 227 53
3 228 227 119
3 228 15 227
3 228 66 15
3 229 66 228
3 229 0 66
3 569 77 570
3 230 571 573
3 571 77 572
3 571 572 573
3 230 25 77
3 121 574 576
3 574 230 575
3 574 575 576
3 231 230 121
3 231 25 230
3 231 163 25
3 232 163 231
3 232 12 163
3 577 55 578
3 122 579 580
3 233 581 583
3 583 582 122
3 581 582 583
3 233 584 586
3 584 55 585
3 584 585 586
3 233 232 55
3 234 232 233
3 234 12 232
3 234 120 12
3 235 120 234
3 235 54 120
3 124 235 56
3 236 235 124
3 236 54 235
3 236 229 54
3 237 229 236
3 237 0 229
3 237 201 0
3 238 201 237
3 238 44 201
3 126 238 57
3 239 238 126
3 239 44 238
3 239 98 44
3 240 98 239
3 240 8 98
3 587 58 588
3 241 589 590
3 241 591 593
3 591 58 592
3 591 592 593
3 241 240 58
3 242 240 241
3 242 8 240
3 242 150 8
3 243 150 242
3 243 18 150
3 594 243 595
3 596 243 597
3 598 18 599
3 600 599 243
3 598 599 600
3 602 601 18
3 165 603 605
3 603 127 604
3 603 604 605
3 244 127 165
3 244 59 127
3 129 244 27
3 606 244 607
3 608 607 129
3 606 607 608
3 609 59 610
3 611 610 244
3 609 610 611
3 613 612 59
3 191 84 2
3 245 84 191
3 245 30 84
3 132 245 40
3 246 245 132
3 246 30 245
3 246 170 30
3 247 170 246
3 247 614 616
3 616 615 170
3 614 615 616
3 172 133 6
3 248 133 172
3 248 60 133
3 135 248 32
3 249 248 135
3 249 60 248
3 249 247 60
3 617 247 618
3 619 618 249
3 617 618 619
3 621 620 247
3 623 622 61
3 176 624 626
3 626 625 13
3 624 625 626
3 628 627 176
3 630 629 34
3 202 68 0
3 250 68 202
3 250 17 68
3 138 250 45
3 251 250 138
3 251 17 250
3 251 149 17
3 252 149 251
3 252 7 149
3 181 139 9
3 253 139 181
3 253 62 139
3 141 253 37
3 254 253 141
3 254 62 253
3 254 252 62
3 255 252 254
3 255 7 252
3 255 97 7
3 256 97 255
3 256 43 97
3 143 256 63
3 257 256 143
3 257 43 256
3 257 200 43
3 258 200 257
3 258 3 200
3 631 184 632
3 633 184 634
3 635 14 636
3 637 636 184
3 635 636 637
3 638 14 639
3 640 144 641
3 642 641 14
3 640 641 642
3 259 643 645
3 643 144 644
3 643 644 645
3 259 64 144
3 646 259 647
3 260 648 650
3 648 259 649
3 648 649 650
3 260 64 259
3 260 258 64
3 261 258 260
3 261 3 258
3 261 89 3
3 262 89 261
3 262 35 89
3 651 262 652
3 653 652 65
3 651 652 653
3 263 654 656
3 654 262 655
3 654 655 656
3 263 35 262
3 263 179 35
3 657 179 658
3 659 658 263
3 657 658 659
3 661 660 179
