ply
format ascii 1.0
element vertex 926
property float x
property float y
property float z
element face 1082
property list uchar int vertex_index
end_header
51.639511 -32.794903 52.631256
36.689293 -9.648259 70.498962
37.243225 -24.777103 66.05764
62.929413 -19.970882 45.467152
52.091652 -19.008293 56.872948
42.395203 -34.521881 67.832436
23.415022 -18.025434 81.029602
29.370289 -11.074526 74.989655
31.128767 -18.358324 75.43779
32.360081 -32.076004 73.212608
41.651611 -29.761972 69.822632
35.379749 -36.983078 74.782715
34.451332 -42.006218 67.993462
58.108303 -26.096977 50.846519
41.89978 -8.213974 63.732353
40.808754 -16.210903 59.916786
36.762657 -17.477049 68.136894
58.328865 -18.218994 51.321281
53.936371 -24.515652 57.175278
44.519409 -21.862654 61.553848
48.95303 -26.159466 64.528397
46.994091 -32.164223 59.064026
38.970741 -40.016441 58.660324
23.222149 -14.185778 80.293137
25.543148 -11.206358 76.913864
27.072344 -14.725813 78.554253
34.296852 -34.562057 74.954056
30.916691 -37.584888 77.27697
31.6129 -40.1651 75.574692
55.070618 -29.388882 52.214859
39.562233 -8.820432 67.47496
39.41766 -12.805782 66.150124
37.278233 -13.432888 70.097816
56.680897 -15.455918 49.723038
55.470444 -18.28964 54.196777
56.425415 -21.19733 54.716339
53.917336 -21.361418 58.067551
39.034752 -20.555462 62.888962
41.92025 -19.441851 59.774475
40.813141 -23.475561 63.753265
42.862103 -32.05809 70.150787
45.60807 -27.928055 67.509773
46.088963 -30.360872 66.730743
48.642082 -28.939919 62.730072
44.875946 -33.110538 63.477745
42.9142 -36.12851 58.937027
40.735016 -37.146191 63.534851
31.657032 -45.63134 68.077118
33.739655 -44.72805 63.486992
32.05669 -48.534645 64.239517
64.93132 -17.051647 41.843452
66.768883 -18.629444 38.845787
64.96122 -21.536032 42.63092
33.222256 -10.494011 72.91507
34.461487 -14.10248 73.448997
30.963402 -14.61558 76.239906
27.405277 -18.440571 78.485245
35.03772 -28.657616 69.518356
39.346733 -27.46789 67.772949
37.178192 -31.211039 71.629646
38.889961 -33.557648 72.852562
39.256195 -35.930672 71.659302
38.286774 -38.385384 68.101311
35.267776 -39.451599 72.171425
31.648367 -42.846184 72.116562
60.704067 -22.964016 48.54068
62.957024 -24.482977 46.006824
41.201832 -12.307315 61.738861
38.783382 -16.880148 64.042519
36.391045 -21.40415 66.242027
34.282776 -17.989424 71.975052
33.607895 -21.950439 69.720276
33.667934 -25.593773 68.581589
44.395504 -3.767977 61.207466
47.979713 -36.264526 52.291237
62.630909 -15.916327 44.654137
60.74456 -18.809645 48.370758
58.585106 -21.789787 51.452217
55.960098 -24.972113 53.670197
52.786957 -28.408407 54.911247
43.29715 -15.474652 56.030495
48.347851 -20.268467 59.305489
43.477024 -25.765564 65.956062
47.361847 -23.895676 63.811035
50.885963 -22.311752 61.173759
51.688416 -24.924677 60.963203
50.761421 -28.222511 58.584915
49.136597 -32.040131 55.255493
45.224823 -35.762276 54.980782
41.385513 -39.521675 54.516556
38.037437 -43.33247 54.33934
36.793819 -40.977081 63.37014
35.722729 -43.862556 58.707764
23.824293 -11.110392 77.784103
24.5707 -12.779553 78.728569
30.219095 -36.3274 77.250877
53.396317 -31.08157 52.535004
54.777729 -31.741796 51.676109
53.088905 -33.424568 51.829567
38.20293 -9.215829 69.075188
38.484566 -11.119818 68.86132
37.176491 -11.497757 70.551659
35.794418 -7.864812 69.955078
30.99173 -50.950066 67.178574
52.550934 -17.512667 54.499252
54.377048 -17.123177 53.271843
53.841446 -18.572556 55.564995
54.760918 -19.774834 56.234444
53.223213 -20.098703 57.716934
38.17387 -22.696136 64.443199
39.744129 -22.115053 63.067017
39.017708 -24.181576 64.883698
42.830807 -33.268951 69.311844
44.568878 -31.206131 68.529037
44.327061 -32.469212 67.407089
45.651001 -31.70142 65.358574
43.7033 -33.787464 65.698395
42.821236 -35.155731 63.565598
41.651199 -35.812843 65.846542
30.810083 -47.512062 68.340019
31.80183 -47.067959 66.112602
31.238251 -48.988602 66.568695
31.723553 -50.472786 64.861664
63.948341 -18.505676 43.711693
64.96286 -19.253033 42.25499
63.972588 -20.714556 44.044636
31.322508 -10.833401 73.977875
32.244202 -12.59058 74.696312
30.342169 -12.829842 75.842339
25.406601 -16.406157 79.921532
27.396011 -16.558195 78.78112
28.117023 -9.301407 73.850906
33.751923 -30.426067 71.354355
36.081745 -29.981159 70.547829
34.799797 -31.715652 72.430641
34.988178 -35.769981 75.180916
36.656994 -34.128708 73.964294
37.204872 -35.316303 73.966263
39.265152 -34.734894 72.59343
37.405216 -36.514107 73.309113
37.267628 -37.726906 72.020645
35.458141 -38.20911 73.750282
31.675447 -41.493305 73.992249
30.045753 -43.175598 73.945427
30.228975 -44.601776 72.081215
59.459484 -24.510048 49.80275
60.614845 -25.231842 48.581718
59.311829 -26.809168 49.718918
42.95034 -8.011724 61.618835
42.539665 -10.067677 60.556412
41.610519 -10.254151 62.819717
38.134552 -15.145956 67.207214
39.071404 -14.859805 65.088989
37.804855 -17.18796 66.109741
37.61174 -19.166479 65.146973
36.474201 -19.486027 67.05883
32.944874 -16.265442 74.570473
34.510033 -16.015888 72.918915
32.79023 -18.198721 73.756584
32.066177 -22.124741 71.469337
31.815758 -24.027348 70.497749
33.485046 -23.83465 68.911827
31.823824 -25.830147 69.942795
32.162319 -27.50206 69.925568
41.902702 -6.22199 64.330017
43.150291 -5.978024 62.459854
44.334953 -5.806241 60.419533
46.138798 -38.021721 51.95649
57.680912 -16.751846 50.702782
58.355545 -15.342672 48.518326
59.13736 -16.794682 49.358963
60.473129 -16.997902 47.98114
59.579269 -18.434904 49.846413
59.712669 -20.281416 50.006386
58.608894 -19.897255 51.548759
55.264793 -22.8057 56.075172
56.31789 -22.984755 54.328918
54.954742 -24.643223 55.356537
54.441307 -26.659859 54.412704
53.434685 -26.38516 56.128319
41.865334 -14.050834 58.503204
42.98933 -13.782253 56.365807
41.974495 -15.850835 57.927589
43.091221 -20.738636 60.481239
43.539734 -18.828226 58.329704
44.895638 -20.005196 59.2565
46.777252 -19.287033 58.061226
46.427422 -21.04141 60.445419
40.56205 -28.636909 68.894775
41.437443 -26.664696 66.890205
42.680538 -27.770208 67.975349
47.359352 -27.003759 66.104446
46.603264 -25.875124 65.781273
48.383499 -24.969212 64.462479
49.177891 -23.042046 62.557503
50.029877 -24.170927 62.988708
51.535759 -23.528503 61.374893
50.39238 -25.451563 62.801819
47.913754 -30.504757 61.043564
49.736214 -28.473923 60.63855
48.938499 -30.178356 58.924652
49.955383 -30.076591 56.944168
48.038651 -31.987366 57.04158
47.195 -33.895233 55.171349
46.048496 -33.914219 56.987251
40.891624 -38.081917 58.786522
42.035076 -37.766525 56.642502
40.124943 -39.686333 56.472939
39.622509 -41.41914 54.364716
38.363403 -41.607132 56.384644
36.284836 -40.212185 68.059685
37.541039 -39.656113 65.794769
35.666515 -41.504307 65.725632
33.602463 -46.184185 61.371056
34.717113 -44.274864 61.088554
34.518818 -45.787945 58.966286
67.436371 -19.510296 37.28046
64.078835 -25.311533 44.811859
23.428865 -16.074463 80.892273
27.421778 -11.199527 75.969597
28.387278 -12.955164 76.90284
26.440247 -12.94502 77.875275
25.113789 -14.555941 79.514755
33.380081 -33.340652 74.224907
31.843622 -34.868843 75.855972
32.647766 -36.100311 76.264832
33.205864 -37.335327 76.096657
33.486263 -38.584969 75.307137
31.37825 -38.862297 76.707626
56.644669 -27.724815 51.653351
57.902168 -28.424793 50.622925
56.38765 -30.072155 51.27697
40.784019 -8.483144 65.691444
40.660179 -10.489514 64.979088
39.634266 -10.779253 67.00058
38.418888 -13.105713 68.194633
37.08989 -15.439809 69.230728
30.810778 -20.297579 74.40139
56.093178 -16.864801 52.007507
56.965302 -18.170078 52.777367
57.437054 -19.676702 53.120567
56.162548 -19.633778 54.692825
55.230865 -21.179045 56.402512
54.137283 -22.833347 57.868568
39.888279 -18.384914 61.381393
41.142555 -17.932272 59.578133
40.426285 -20.024649 61.296227
41.376003 -21.453135 61.748253
42.645302 -22.689035 62.649742
42.455017 -30.89217 70.299713
43.702564 -28.868473 68.744095
44.3592 -30.006144 68.971375
46.086784 -29.100861 67.462128
47.638496 -28.239887 65.775925
49.02536 -27.485329 63.936462
47.437927 -29.585537 64.782295
46.833199 -31.027588 63.215057
45.956501 -32.551651 61.238892
44.968853 -34.153587 59.049736
43.91013 -34.583321 61.272415
41.833191 -36.580666 61.200508
39.796051 -38.538712 61.084892
32.883396 -43.802559 67.977005
34.038551 -43.339378 65.718475
32.735115 -45.187748 65.833504
32.716312 -46.619858 63.774513
32.836479 -48.103127 61.832458
65.893295 -15.608656 39.883484
66.853218 -16.351046 38.40303
65.919289 -17.799028 40.367775
35.022724 -10.086648 71.767967
35.693768 -11.89001 72.075516
34.04147 -12.265952 73.448921
32.784863 -14.393986 74.907928
31.212713 -16.457958 76.096573
29.041487 -14.735909 77.455772
29.34803 -16.565315 77.501038
29.32176 -18.447315 77.01593
33.960335 -8.329572 70.986176
29.706347 -47.945576 70.429878
50.647209 -18.016405 55.697998
36.202892 -26.771032 67.747589
38.185856 -26.19779 66.743217
37.211697 -28.137871 68.638275
38.35725 -29.383043 69.739868
39.470097 -30.554964 70.77285
35.817806 -32.937569 73.38868
38.162308 -32.390827 72.479324
40.383335 -31.701414 71.460632
40.965683 -32.857643 71.588837
41.14447 -34.040916 71.043961
40.918907 -35.253731 69.829651
40.355122 -36.494621 68.046585
38.899784 -37.146729 70.115089
36.858864 -38.957451 70.21595
34.896088 -40.714516 70.195831
33.514061 -39.853603 73.956093
33.359318 -41.143066 72.176132
33.117012 -42.457104 70.131233
31.618814 -44.224731 70.103653
30.472633 -46.048378 70.186607
61.854782 -21.453848 47.085957
62.93045 -22.19142 45.714264
61.816944 -23.694132 47.236778
61.831902 -26.00432 47.470078
42.110104 -12.101385 59.446732
40.872406 -14.31551 60.697418
40.325024 -12.539835 63.987076
39.961788 -14.583557 62.90654
39.763172 -16.554255 61.966667
38.729599 -18.798546 63.245987
37.706028 -21.018171 64.542137
36.632248 -23.178368 65.878204
35.962883 -13.772625 71.848923
35.890503 -15.734175 71.138321
35.601364 -17.745731 70.098167
32.444679 -20.165968 72.641846
33.925884 -19.98457 70.823875
35.260345 -19.758011 68.957817
35.039471 -21.712959 67.973221
35.081257 -23.555988 67.369568
35.467754 -25.247389 67.287697
34.197739 -27.202244 68.802971
32.829716 -29.030914 70.44104
49.824276 -34.52314 52.535019
64.783836 -14.97509 41.292221
63.831947 -16.416346 43.272331
62.862076 -17.866926 45.152138
61.707863 -17.358711 46.576607
61.854286 -19.328312 46.9086
60.785202 -20.808571 48.515358
59.631714 -22.318983 49.943726
58.374054 -23.870424 51.166107
57.530323 -21.407135 53.052917
57.339336 -23.349846 52.680267
56.99836 -25.470268 52.160301
55.498596 -27.120522 52.913208
53.877571 -28.817524 53.423317
52.147087 -30.55335 53.701813
44.274315 -13.501163 54.323387
42.533081 -17.450302 57.858131
44.080311 -16.949892 56.237984
48.707756 -18.615271 56.880348
50.248459 -19.580956 58.118263
40.155163 -25.489367 65.768387
42.116871 -24.67169 64.797333
44.071686 -23.786776 63.802208
44.698505 -26.829813 66.946785
45.456108 -24.822803 64.938393
46.012554 -22.8862 62.756065
47.923576 -22.023354 61.635956
49.781013 -21.246687 60.425781
51.556637 -20.595551 59.118431
52.469315 -21.743126 59.669441
52.901531 -23.076063 59.653099
52.860241 -24.608337 59.066368
50.267136 -26.890858 61.986832
51.391415 -26.496675 59.98716
52.43335 -26.326355 58.00927
51.762856 -28.202045 56.650764
51.011017 -30.206625 55.182426
50.327232 -32.31831 53.772797
48.445236 -34.103867 53.672928
46.534397 -35.904987 53.450302
44.633171 -37.721169 53.162148
44.029629 -35.842758 56.834442
43.271301 -37.637337 54.741974
42.784496 -39.555691 52.871155
41.03466 -41.413216 52.64019
39.430943 -43.296459 52.5261
39.567932 -37.766365 65.857735
38.696499 -39.082054 63.447945
37.877827 -40.464439 60.988922
35.115799 -42.852165 63.364845
36.160145 -42.371658 60.972977
37.224758 -41.940376 58.617393
36.813026 -43.533699 56.428192
63.993866 -22.997719 44.3829
23.340764 -11.762559 78.584641
23.144427 -11.03231 78.123329
23.144427 -11.03231 78.123329
23.318652 -10.32229 77.381282
37.101608 -8.518586 69.652751
36.654171 -7.626862 69.380809
36.241855 -8.756536 70.22702
37.446112 -9.432044 69.787075
37.858427 -8.302371 68.940865
37.101608 -8.518586 69.652751
30.569374 -51.199934 68.273003
30.660537 -50.201144 67.978832
30.783797 -49.220411 67.673893
31.024167 -48.250332 67.454357
30.569713 -48.482141 68.559555
30.660537 -50.201144 67.978832
31.114991 -49.969334 66.873635
30.783797 -49.220411 67.673893
22.28804 -18.819899 81.483017
23.294747 -19.01809 80.846332
24.418449 -18.167783 80.43058
25.414238 -17.358145 79.876545
24.410812 -17.215795 80.475567
23.294747 -19.01809 80.846332
24.418449 -18.167783 80.43058
29.723708 -10.074552 73.939896
29.097075 -9.187993 73.370521
28.743656 -10.187966 74.42028
30.346398 -10.953964 74.483765
30.699818 -9.95399 73.434006
29.723708 -10.074552 73.939896
29.183747 -43.316168 74.787128
29.952303 -42.474539 74.798694
29.379246 -44.057476 73.927448
29.183747 -43.316168 74.787128
30.869196 -25.002031 70.934722
30.936692 -24.087927 71.308742
30.873229 -25.90343 70.657246
31.819791 -24.928748 70.220272
30.869196 -25.002031 70.934722
30.95763 -26.761427 70.534649
30.873229 -25.90343 70.657246
46.091375 -39.133572 51.335743
45.238213 -38.911213 51.775925
34.079588 -46.751709 59.186214
34.060641 -45.986065 60.168671
33.62141 -46.949829 60.388599
34.526829 -46.5944 58.000923
34.079588 -46.751709 59.186214
22.362879 -14.852256 80.974152
22.466237 -15.796599 81.27372
23.325507 -15.130121 80.592705
25.878768 -10.315931 75.882981
24.985037 -10.341527 76.404606
26.482463 -11.202942 76.441731
26.818083 -10.312516 75.410847
25.878768 -10.315931 75.882981
30.587203 -34.971809 76.280891
31.361832 -34.243456 75.440197
55.534797 -32.110484 51.376571
54.726045 -32.946864 51.499248
40.062 -7.682257 66.743476
39.332737 -7.879696 67.487873
40.173126 -8.651788 66.583202
40.672894 -7.513613 65.851719
40.062 -7.682257 66.743476
32.226703 -49.282133 63.347424
32.616598 -49.066374 62.143894
32.446585 -48.318886 63.035988
31.970396 -51.216194 64.026364
31.678559 -51.452135 65.224232
65.420658 -20.809883 41.704491
65.421478 -19.668383 41.516526
64.96204 -20.394532 42.442955
65.403702 -21.974453 41.920967
65.420658 -20.809883 41.704491
27.277158 -19.400204 78.099716
28.235399 -19.403576 77.365059
28.363519 -18.443943 77.750587
33.591296 -9.411791 71.950623
33.000695 -8.536791 71.467232
32.631655 -9.619011 72.431679
29.088887 -48.157446 71.400509
29.435473 -47.192043 71.289428
49.864439 -17.521217 55.063263
50.84785 -17.261081 54.466308
29.818615 -46.243444 71.167793
30.350804 -45.325077 71.133911
29.696787 -45.520144 72.115097
29.435473 -47.192043 71.289428
30.08949 -46.996977 70.308243
29.818615 -46.243444 71.167793
61.218494 -26.78648 48.103893
61.223374 -25.618081 48.025898
60.609966 -26.400241 48.659714
61.892406 -27.176285 47.654591
61.218494 -26.78648 48.103893
58.586254 -28.799992 50.199913
57.865781 -29.620445 50.592304
31.422824 -21.203782 72.925449
31.627728 -20.231773 73.521618
30.605874 -21.269588 73.805222
31.71133 -29.154404 70.934887
32.496017 -28.266487 70.183304
31.377632 -28.389976 70.677151
32.106836 -29.881706 71.316074
31.71133 -29.154404 70.934887
44.228506 -2.760011 61.452713
43.698168 -3.876222 62.094738
44.993006 -2.667858 60.604908
44.228506 -2.760011 61.452713
45.05844 -3.695995 60.227054
44.993006 -2.667858 60.604908
44.911649 -5.748704 59.328804
44.157227 -6.835854 59.901337
48.773724 -36.537799 51.90305
49.696005 -35.667107 52.02494
48.901995 -35.393833 52.413128
64.618931 -14.01026 40.909981
65.256961 -14.263072 40.263099
63.231428 -16.166336 43.963234
63.685817 -15.446765 42.951183
63.085299 -15.196756 43.642086
56.983019 -14.740346 48.559838
56.055723 -14.856931 49.116878
58.695221 -14.628328 47.39407
59.129099 -15.359635 47.896969
44.04454 -15.278708 55.140488
44.533123 -14.291963 54.286934
43.785733 -14.487908 55.176941
44.683962 -17.578307 56.600021
43.810023 -17.889059 57.283844
44.413674 -18.517474 57.645882
44.931173 -16.696036 55.482155
44.683962 -17.578307 56.600021
38.027189 -44.267729 53.456253
38.723942 -44.249724 52.549633
38.73419 -43.314464 53.43272
67.202927 -17.898657 37.849472
67.245094 -16.759458 37.628094
66.81105 -17.490245 38.624409
67.821495 -18.765939 36.261364
67.651436 -19.959262 36.480524
64.537712 -24.582419 43.93861
64.593331 -25.739968 44.209903
22.327846 -13.863471 80.56017
23.039692 -13.300252 79.839157
23.713967 -12.59714 79.056873
24.197496 -11.944972 78.256336
23.340764 -11.762559 78.584641
23.039692 -13.300252 79.839157
23.896425 -13.482665 79.510853
23.713967 -12.59714 79.056873
24.12561 -10.293544 76.839726
23.318652 -10.32229 77.381282
24.68372 -11.158375 77.348984
24.985037 -10.341527 76.404606
24.12561 -10.293544 76.839726
28.977333 -36.404152 77.712741
29.77494 -35.701088 76.978344
29.382942 -37.042225 77.803391
28.977333 -36.404152 77.712741
29.73174 -37.670969 77.816437
30.567893 -36.956144 77.263924
29.382942 -37.042225 77.803391
30.041351 -38.322969 77.627503
29.73174 -37.670969 77.816437
53.881633 -33.78825 51.575977
54.726045 -32.946864 51.499248
53.933317 -32.583182 51.752838
36.113875 -6.732518 69.041207
35.166544 -6.980427 69.49316
36.113875 -6.732518 69.041207
36.654171 -7.626862 69.380809
38.653086 -8.077395 68.287987
37.858427 -8.302371 68.940865
38.882582 -9.01813 68.275074
39.332737 -7.879696 67.487873
38.653086 -8.077395 68.287987
30.977229 -51.949169 67.530479
31.312648 -51.690775 66.382687
30.977229 -51.949169 67.530479
30.569374 -51.199934 68.273003
53.463991 -17.317922 53.885548
53.687849 -16.590261 52.668419
52.774792 -16.785007 53.282123
31.312648 -51.690775 66.382687
31.678559 -51.452135 65.224232
31.357641 -50.711426 66.020119
26.408943 -17.434164 79.306339
26.401306 -16.482176 79.351326
25.414238 -17.358145 79.876545
26.413576 -18.375352 79.158401
27.400644 -17.499383 78.633183
26.408943 -17.434164 79.306339
26.293877 -19.345076 78.864987
26.413576 -18.375352 79.158401
28.361832 -8.274828 72.739482
27.39913 -8.373955 73.241718
28.361832 -8.274828 72.739482
29.097075 -9.187993 73.370521
31.681781 -9.788706 72.963082
30.699818 -9.95399 73.434006
32.272382 -10.663706 73.446472
32.631655 -9.619011 72.431679
31.681781 -9.788706 72.963082
30.767149 -41.633392 74.822105
31.644174 -40.829203 74.78347
30.735876 -40.96929 75.613327
30.8606 -42.334452 73.968838
30.767149 -41.633392 74.822105
29.952303 -42.474539 74.798694
29.470857 -44.770565 72.995342
30.137364 -43.888687 73.013321
29.379246 -44.057476 73.927448
29.696787 -45.520144 72.115097
29.470857 -44.770565 72.995342
59.958458 -27.188904 49.228313
60.609966 -26.400241 48.659714
59.963337 -26.020505 49.150318
42.745002 -9.0397 61.087623
43.259583 -8.966572 59.969777
43.46492 -7.938596 60.500988
31.061902 -23.136623 71.794536
31.233573 -22.183169 72.339195
31.940967 -23.076045 70.983543
31.061902 -23.136623 71.794536
30.936692 -24.087927 71.308742
31.126877 -27.597383 70.526036
31.993071 -26.666103 69.934181
30.95763 -26.761427 70.534649
31.377632 -28.389976 70.677151
31.126877 -27.597383 70.526036
42.451767 -5.103229 63.656014
41.710312 -5.25266 64.442806
43.075562 -4.981246 62.720932
42.451767 -5.103229 63.656014
42.526497 -6.100007 63.394936
43.772897 -4.873 61.83366
43.698168 -3.876222 62.094738
43.075562 -4.981246 62.720932
43.46492 -7.938596 60.500988
44.157227 -6.835854 59.901337
43.642646 -6.908982 61.019184
46.964877 -38.270138 51.549981
47.885334 -37.39154 51.717354
47.059255 -37.143124 52.123863
46.964877 -38.270138 51.549981
46.091375 -39.133572 51.335743
62.398596 -15.024075 44.277209
63.085299 -15.196756 43.642086
59.520007 -16.08564 48.317288
59.129099 -15.359635 47.896969
58.746453 -16.068677 48.938645
59.805245 -16.896292 48.670051
60.187891 -16.18725 47.628376
59.520007 -16.08564 48.317288
42.427332 -13.916543 57.434506
43.046762 -12.846237 56.761074
42.484764 -12.980528 57.829773
45.091625 -19.105959 58.109279
44.413674 -18.517474 57.645882
44.217686 -19.416711 58.793102
45.836445 -19.646115 58.658863
46.032432 -18.746878 57.511643
45.091625 -19.105959 58.109279
35.022522 -45.627335 57.803055
35.624477 -44.66464 57.673794
35.120773 -44.82525 58.837025
35.022522 -45.627335 57.803055
34.526829 -46.5944 58.000923
67.04446 -20.240454 38.278181
67.102627 -19.06987 38.063124
66.710717 -19.800028 39.060845
67.326443 -20.698031 37.513422
67.04446 -20.240454 38.278181
67.651436 -19.959262 36.480524
67.326443 -20.698031 37.513422
63.574364 -26.058687 45.614013
63.517929 -24.897255 45.409341
63.013458 -25.644409 46.211496
64.167912 -26.468791 45.085867
63.574364 -26.058687 45.614013
64.593331 -25.739968 44.209903
64.167912 -26.468791 45.085867
22.4267 -16.813457 81.469349
22.419779 -17.788943 81.538014
23.421943 -17.049948 80.960938
22.4267 -16.813457 81.469349
22.466237 -15.796599 81.27372
22.362879 -14.852256 80.974152
22.327846 -13.863471 80.56017
27.165706 -9.363456 74.351501
27.39913 -8.373955 73.241718
27.7694 -10.250467 74.910251
27.165706 -9.363456 74.351501
26.818083 -10.312516 75.410847
32.130061 -33.47936 74.624664
32.870081 -32.708328 73.718758
31.620061 -32.847037 74.118515
32.611852 -34.104748 75.040439
32.130061 -33.47936 74.624664
31.361832 -34.243456 75.440197
31.031358 -35.598121 76.553425
30.587203 -34.971809 76.280891
29.77494 -35.701088 76.978344
30.272131 -38.961674 77.342831
31.147471 -38.223592 76.992298
30.041351 -38.322969 77.627503
30.483838 -39.631298 76.876419
30.272131 -38.961674 77.342831
30.601163 -40.282699 76.309952
31.495575 -39.513699 76.141159
30.483838 -39.631298 76.876419
30.735876 -40.96929 75.613327
30.601163 -40.282699 76.309952
57.108522 -30.444126 50.919327
57.865781 -29.620445 50.592304
57.144909 -29.248474 50.949948
56.339758 -31.275664 51.177002
55.58269 -30.906976 51.47654
55.534797 -32.110484 51.376571
57.108522 -30.444126 50.919327
56.339758 -31.275664 51.177002
29.923747 -20.332864 75.248196
30.969772 -19.327951 74.91959
30.082741 -19.363236 75.766396
29.713286 -21.299029 74.665779
29.923747 -20.332864 75.248196
30.605874 -21.269588 73.805222
29.713286 -21.299029 74.665779
41.232235 -6.383036 65.171005
41.710312 -5.25266 64.442806
41.343361 -7.352567 65.01073
41.232235 -6.383036 65.171005
40.672894 -7.513613 65.851719
55.784346 -15.578256 50.311706
56.055723 -14.856931 49.116878
54.632421 -16.411886 52.086109
53.687849 -16.590261 52.668419
55.490486 -16.282698 51.453941
54.632421 -16.411886 52.086109
55.235113 -16.993989 52.639675
56.387038 -16.160359 50.865273
55.784346 -15.578256 50.311706
55.490486 -16.282698 51.453941
33.238418 -47.9093 60.619301
33.62141 -46.949829 60.388599
33.219471 -47.143656 61.601757
32.957325 -48.871056 60.923057
33.238418 -47.9093 60.619301
32.957325 -48.871056 60.923057
32.616598 -49.066374 62.143894
32.060135 -50.251204 63.658497
32.226703 -49.282133 63.347424
31.890121 -49.503715 64.55059
32.060135 -50.251204 63.658497
31.970396 -51.216194 64.026364
66.373256 -15.979851 39.143257
66.846267 -15.268441 38.128738
66.366306 -14.897246 38.868965
65.899693 -18.941381 40.572918
65.441075 -18.52603 41.311383
65.421478 -19.668383 41.516526
66.324489 -19.356589 39.811924
66.344086 -18.214236 39.606781
65.899693 -18.941381 40.572918
66.710717 -19.800028 39.060845
66.324489 -19.356589 39.811924
22.28804 -18.819899 81.483017
22.419779 -17.788943 81.538014
29.179237 -19.407732 76.555465
30.082741 -19.363236 75.766396
30.225264 -18.402819 76.22686
29.179237 -19.407732 76.555465
28.235399 -19.403576 77.365059
27.277158 -19.400204 78.099716
26.293877 -19.345076 78.864987
33.269207 -7.444007 70.431042
33.000695 -8.536791 71.467232
34.249503 -7.212807 70.008709
33.269207 -7.444007 70.431042
34.877376 -8.097192 70.470627
35.166544 -6.980427 69.49316
34.249503 -7.212807 70.008709
29.499795 -48.932907 70.637856
30.017845 -48.698898 69.604484
28.882335 -49.144777 71.608486
29.499795 -48.932907 70.637856
29.088887 -48.157446 71.400509
51.799713 -17.009213 53.866935
52.774792 -16.785007 53.282123
51.599071 -17.764536 55.098625
51.799713 -17.009213 53.866935
50.84785 -17.261081 54.466308
30.017845 -48.698898 69.604484
30.569713 -48.482141 68.559555
30.258215 -47.728819 69.384949
62.450897 -26.405081 46.943123
63.013458 -25.644409 46.211496
62.394463 -25.243648 46.738451
62.450897 -26.405081 46.943123
61.892406 -27.176285 47.654591
59.291084 -27.992179 49.74791
58.606999 -27.616981 50.170922
58.586254 -28.799992 50.199913
59.958458 -27.188904 49.228313
59.291084 -27.992179 49.74791
43.019872 -9.992392 59.393856
43.259583 -8.966572 59.969777
42.805092 -11.009246 58.839016
43.019872 -9.992392 59.393856
42.324884 -11.084531 60.001572
42.607149 -12.005803 58.301537
42.805092 -11.009246 58.839016
41.987719 -13.07611 58.974968
42.484764 -12.980528 57.829773
42.607149 -12.005803 58.301537
32.255428 -21.145354 72.055591
31.422824 -21.203782 72.925449
31.233573 -22.183169 72.339195
32.567939 -30.579282 71.772732
33.290819 -29.72849 70.897697
32.106836 -29.881706 71.316074
31.872018 -31.404251 72.701859
33.056002 -31.251036 72.283481
32.567939 -30.579282 71.772732
31.121584 -32.196005 73.610928
31.872018 -31.404251 72.701859
31.620061 -32.847037 74.118515
31.121584 -32.196005 73.610928
45.028164 -4.715127 59.833088
45.05844 -3.695995 60.227054
44.365229 -4.787109 60.813499
45.028164 -4.715127 59.833088
44.911649 -5.748704 59.328804
50.583855 -34.818863 52.148594
51.491472 -33.954745 52.196713
50.731893 -33.659021 52.583137
50.583855 -34.818863 52.148594
49.696005 -35.667107 52.02494
48.773724 -36.537799 51.90305
47.885334 -37.39154 51.717354
65.811691 -14.579855 39.558731
66.366306 -14.897246 38.868965
65.338565 -15.291873 40.587852
65.811691 -14.579855 39.558731
65.256961 -14.263072 40.263099
64.161762 -14.726137 41.961128
64.618931 -14.01026 40.909981
64.307891 -15.695718 42.282276
64.161762 -14.726137 41.961128
63.685817 -15.446765 42.951183
57.820343 -14.683723 47.957482
56.983019 -14.740346 48.559838
57.518221 -15.399295 49.120682
57.820343 -14.683723 47.957482
58.695221 -14.628328 47.39407
61.977756 -15.741833 45.3213
62.398596 -15.024075 44.277209
60.898866 -16.28262 46.984802
60.187891 -16.18725 47.628376
61.516233 -16.463024 46.282536
60.898866 -16.28262 46.984802
61.090496 -17.178306 47.278874
62.169386 -16.637519 45.615372
61.977756 -15.741833 45.3213
61.516233 -16.463024 46.282536
43.606733 -12.750525 55.639752
43.046762 -12.846237 56.761074
44.249226 -12.60998 54.618541
43.606733 -12.750525 55.639752
43.631822 -13.641708 55.344597
44.883391 -12.50633 53.54211
44.249226 -12.60998 54.618541
45.001995 -13.350359 53.365005
44.883391 -12.50633 53.54211
45.001995 -13.350359 53.365005
44.533123 -14.291963 54.286934
44.436121 -16.016328 55.244232
44.04454 -15.278708 55.140488
43.688731 -16.212272 56.134239
44.436121 -16.016328 55.244232
44.931173 -16.696036 55.482155
46.961815 -18.443161 56.863404
46.032432 -18.746878 57.511643
47.927067 -18.10728 56.272965
46.961815 -18.443161 56.863404
47.742504 -18.951152 57.470787
48.894712 -17.82065 55.654438
47.927067 -18.10728 56.272965
49.677482 -18.315838 56.289173
49.864439 -17.521217 55.063263
48.894712 -17.82065 55.654438
44.485399 -38.760937 52.378754
45.238213 -38.911213 51.775925
45.385984 -37.871445 52.559319
43.561061 -39.678198 52.233258
44.485399 -38.760937 52.378754
43.708833 -38.63843 53.016652
42.699564 -40.581972 52.072945
43.561061 -39.678198 52.233258
41.824646 -41.510734 51.957462
42.699564 -40.581972 52.072945
41.909578 -40.484454 52.755673
41.02195 -42.430996 51.848606
41.824646 -41.510734 51.957462
40.220091 -43.372618 51.791561
41.02195 -42.430996 51.848606
40.232802 -42.354838 52.583145
39.494978 -44.308799 51.75951
40.220091 -43.372618 51.791561
39.494978 -44.308799 51.75951
38.723942 -44.249724 52.549633
36.169626 -44.500211 56.534008
36.267877 -43.698127 57.567978
35.624477 -44.66464 57.673794
36.746038 -44.396752 55.454037
36.169626 -44.500211 56.534008
37.358244 -44.296137 54.40961
37.425231 -43.433084 55.383766
36.746038 -44.396752 55.454037
38.027189 -44.267729 53.456253
37.358244 -44.296137 54.40961
67.308189 -15.633519 37.393699
66.846267 -15.268441 38.128738
67.308189 -15.633519 37.393699
67.245094 -16.759458 37.628094
67.536671 -18.339083 37.066809
67.202927 -17.898657 37.849472
67.102627 -19.06987 38.063124
67.536671 -18.339083 37.066809
67.821495 -18.765939 36.261364
64.495228 -23.425511 43.724131
64.03635 -24.154626 44.59738
64.537712 -24.582419 43.93861
64.978905 -22.694668 42.84814
64.477543 -22.266875 43.50691
64.495228 -23.425511 43.724131
65.403702 -21.974453 41.920967
64.978905 -22.694668 42.84814
52.216169 -34.269577 51.795868
52.364208 -33.109735 52.230412
51.491472 -33.954745 52.196713
53.043928 -34.625045 51.57201
52.216169 -34.269577 51.795868
53.881633 -33.78825 51.575977
53.043928 -34.625045 51.57201
3 379 378 93
3 380 93 381
3 0 98 96
3 1 101 99
3 1 382 384
3 384 383 102
3 382 383 384
3 1 385 387
3 385 99 386
3 385 386 387
3 389 388 103
3 4 106 104
3 4 108 106
3 2 111 109
3 5 114 112
3 5 116 114
3 5 118 116
3 390 121 391
3 392 391 119
3 390 391 392
3 393 103 394
3 395 394 121
3 393 394 395
3 3 125 123
3 6 396 397
3 7 128 126
3 6 398 400
3 400 399 129
3 398 399 400
3 6 401 402
3 7 403 405
3 405 404 131
3 403 404 405
3 7 406 408
3 406 126 407
3 406 407 408
3 9 134 132
3 11 137 135
3 11 139 137
3 11 141 139
3 409 143 410
3 412 411 143
3 13 147 145
3 14 150 148
3 16 153 151
3 16 155 153
3 8 158 156
3 413 160 414
3 415 162 416
3 417 416 160
3 415 416 417
3 419 418 162
3 14 165 164
3 14 148 165
3 421 420 167
3 17 170 168
3 17 172 170
3 17 174 172
3 18 177 175
3 18 179 177
3 15 182 180
3 19 185 183
3 19 187 185
3 10 190 188
3 20 193 191
3 20 195 193
3 20 197 195
3 21 200 198
3 21 202 200
3 21 204 202
3 22 207 205
3 22 209 207
3 12 212 210
3 422 215 423
3 424 423 213
3 422 423 424
3 426 425 215
3 23 427 429
3 429 428 218
3 427 428 429
3 24 221 219
3 23 222 94
3 23 218 222
3 24 430 431
3 24 432 434
3 432 219 433
3 432 433 434
3 435 224 436
3 27 225 95
3 27 226 225
3 27 228 226
3 29 231 229
3 438 437 97
3 30 234 232
3 32 235 100
3 32 236 235
3 30 439 440
3 30 441 443
3 441 232 442
3 441 442 443
3 34 238 105
3 34 239 238
3 34 241 239
3 36 242 107
3 36 243 242
3 37 246 244
3 39 247 110
3 39 248 247
3 40 251 249
3 42 252 113
3 42 253 252
3 42 255 253
3 44 256 115
3 44 257 256
3 44 259 257
3 46 260 117
3 46 261 260
3 47 264 262
3 49 265 120
3 49 266 265
3 49 444 446
3 446 445 266
3 444 445 446
3 448 447 122
3 50 269 267
3 52 449 451
3 451 450 124
3 449 450 451
3 52 452 453
3 53 272 270
3 55 273 127
3 55 274 273
3 25 275 220
3 56 276 130
3 56 277 276
3 56 454 456
3 456 455 277
3 454 455 456
3 53 457 459
3 457 278 458
3 457 458 459
3 53 270 278
3 461 460 279
3 462 280 463
3 57 283 281
3 59 284 133
3 59 285 284
3 26 286 223
3 60 287 136
3 60 288 287
3 60 289 288
3 61 290 138
3 61 291 290
3 61 293 291
3 63 294 140
3 63 295 294
3 28 296 227
3 64 297 142
3 64 298 297
3 64 299 298
3 464 300 465
3 466 465 144
3 464 465 466
3 467 279 468
3 469 468 300
3 467 468 469
3 65 303 301
3 470 304 471
3 472 471 146
3 470 471 472
3 474 473 304
3 476 475 230
3 67 305 149
3 67 306 305
3 31 307 233
3 68 308 152
3 68 309 308
3 68 310 309
3 69 311 154
3 69 312 311
3 54 313 271
3 70 314 157
3 70 315 314
3 477 316 478
3 479 478 237
3 477 478 479
3 71 317 159
3 71 318 317
3 71 319 318
3 72 320 161
3 72 321 320
3 72 322 321
3 480 323 481
3 482 481 163
3 480 481 482
3 484 483 323
3 73 485 486
3 73 487 488
3 73 489 490
3 492 491 166
3 74 493 495
3 495 494 324
3 493 494 495
3 496 325 497
3 75 498 500
3 498 326 499
3 498 499 500
3 75 327 326
3 33 501 502
3 504 503 169
3 76 328 171
3 76 329 328
3 76 330 329
3 77 331 173
3 77 332 331
3 35 333 240
3 78 334 176
3 78 335 334
3 78 336 335
3 79 337 178
3 79 338 337
3 80 339 181
3 80 505 507
3 507 506 339
3 505 506 507
3 38 340 245
3 508 341 509
3 510 509 184
3 508 509 510
3 512 511 341
3 81 342 186
3 81 343 342
3 58 344 282
3 82 345 189
3 82 346 345
3 41 347 250
3 83 348 192
3 83 349 348
3 83 350 349
3 84 351 194
3 84 352 351
3 84 353 352
3 85 354 196
3 85 355 354
3 43 356 254
3 86 357 199
3 86 358 357
3 86 359 358
3 87 360 201
3 87 361 360
3 87 362 361
3 88 363 203
3 88 364 363
3 45 365 258
3 89 366 206
3 89 367 366
3 89 368 367
3 90 369 208
3 90 513 515
3 515 514 369
3 513 514 515
3 62 370 292
3 91 371 211
3 91 372 371
3 48 373 263
3 92 374 214
3 92 375 374
3 92 376 375
3 51 516 518
3 518 517 268
3 516 517 518
3 520 519 216
3 66 377 302
3 522 521 217
3 524 523 23
3 93 94 24
3 525 94 526
3 527 526 93
3 525 526 527
3 528 23 529
3 530 529 94
3 528 529 530
3 93 531 532
3 93 533 535
3 533 24 534
3 533 534 535
3 536 95 537
3 538 95 539
3 540 27 541
3 542 541 95
3 540 541 542
3 544 543 27
3 96 97 29
3 98 97 96
3 98 545 547
3 547 546 97
3 545 546 547
3 99 100 30
3 101 100 99
3 101 32 100
3 102 548 549
3 551 550 102
3 99 552 553
3 99 554 556
3 554 30 555
3 554 555 556
3 103 557 558
3 560 559 103
3 104 561 563
3 561 105 562
3 561 562 563
3 106 105 104
3 106 34 105
3 106 107 34
3 108 107 106
3 108 36 107
3 109 110 37
3 111 110 109
3 111 39 110
3 112 113 40
3 114 113 112
3 114 42 113
3 114 115 42
3 116 115 114
3 116 44 115
3 116 117 44
3 118 117 116
3 118 46 117
3 119 120 47
3 121 120 119
3 121 49 120
3 121 122 49
3 103 122 121
3 103 564 566
3 566 565 122
3 564 565 566
3 123 124 50
3 125 124 123
3 125 52 124
3 126 127 53
3 128 127 126
3 128 55 127
3 129 130 25
3 567 130 568
3 569 568 129
3 567 568 569
3 570 56 571
3 572 571 130
3 570 571 572
3 574 573 56
3 131 575 576
3 578 577 131
3 126 579 580
3 126 581 583
3 581 53 582
3 581 582 583
3 132 133 57
3 134 133 132
3 134 59 133
3 135 136 26
3 137 136 135
3 137 60 136
3 137 138 60
3 139 138 137
3 139 61 138
3 139 140 61
3 141 140 139
3 141 63 140
3 584 142 585
3 586 585 28
3 584 585 586
3 143 587 589
3 587 142 588
3 587 588 589
3 143 64 142
3 143 144 64
3 590 144 591
3 592 591 143
3 590 591 592
3 594 593 144
3 145 146 65
3 147 146 145
3 147 595 597
3 597 596 146
3 595 596 597
3 148 598 600
3 598 149 599
3 598 599 600
3 150 149 148
3 150 67 149
3 151 152 31
3 153 152 151
3 153 68 152
3 153 154 68
3 155 154 153
3 155 69 154
3 156 157 54
3 158 157 156
3 158 70 157
3 601 159 602
3 160 603 605
3 603 159 604
3 603 604 605
3 160 71 159
3 160 161 71
3 162 161 160
3 162 72 161
3 162 163 72
3 606 163 607
3 608 607 162
3 606 607 608
3 610 609 163
3 164 611 612
3 165 613 615
3 615 614 164
3 613 614 615
3 165 616 618
3 616 73 617
3 616 617 618
3 165 166 73
3 148 166 165
3 148 619 621
3 621 620 166
3 619 620 621
3 167 622 624
3 624 623 74
3 622 623 624
3 626 625 167
3 627 75 628
3 168 169 33
3 170 169 168
3 170 629 631
3 631 630 169
3 629 630 631
3 170 632 634
3 632 171 633
3 632 633 634
3 172 171 170
3 172 76 171
3 172 173 76
3 174 173 172
3 174 77 173
3 175 176 35
3 177 176 175
3 177 78 176
3 177 178 78
3 179 178 177
3 179 79 178
3 180 635 637
3 635 181 636
3 635 636 637
3 182 181 180
3 182 80 181
3 183 184 38
3 185 184 183
3 185 638 640
3 640 639 184
3 638 639 640
3 185 641 643
3 641 186 642
3 641 642 643
3 187 186 185
3 187 81 186
3 188 189 58
3 190 189 188
3 190 82 189
3 191 192 41
3 193 192 191
3 193 83 192
3 193 194 83
3 195 194 193
3 195 84 194
3 195 196 84
3 197 196 195
3 197 85 196
3 198 199 43
3 200 199 198
3 200 86 199
3 200 201 86
3 202 201 200
3 202 87 201
3 202 203 87
3 204 203 202
3 204 88 203
3 205 206 45
3 207 206 205
3 207 89 206
3 207 208 89
3 209 208 207
3 209 90 208
3 210 211 62
3 212 211 210
3 212 91 211
3 213 214 48
3 215 214 213
3 215 92 214
3 215 644 646
3 646 645 92
3 644 645 646
3 648 647 215
3 649 216 650
3 651 650 51
3 649 650 651
3 652 216 653
3 655 654 216
3 656 217 657
3 658 657 66
3 656 657 658
3 659 217 660
3 662 661 217
3 218 663 665
3 665 664 6
3 663 664 665
3 667 666 218
3 669 668 23
3 219 220 7
3 221 220 219
3 221 25 220
3 94 221 24
3 222 221 94
3 222 25 221
3 222 129 25
3 218 129 222
3 218 6 129
3 670 131 671
3 219 672 674
3 672 131 673
3 672 673 674
3 219 7 131
3 675 223 676
3 677 676 9
3 675 676 677
3 224 678 680
3 678 223 679
3 678 679 680
3 224 26 223
3 95 681 683
3 681 224 682
3 681 682 683
3 225 224 95
3 225 26 224
3 225 135 26
3 226 135 225
3 226 11 135
3 226 227 11
3 228 227 226
3 228 28 227
3 684 228 685
3 686 685 27
3 684 685 686
3 687 228 688
3 689 28 690
3 691 690 228
3 689 690 691
3 693 692 28
3 229 230 13
3 231 230 229
3 231 694 696
3 696 695 230
3 694 695 696
3 97 231 29
3 697 231 698
3 699 698 97
3 697 698 699
3 701 700 231
3 232 233 14
3 234 233 232
3 234 31 233
3 100 234 30
3 235 234 100
3 235 31 234
3 235 151 31
3 236 151 235
3 236 16 151
3 702 237 703
3 704 703 8
3 702 703 704
3 705 237 706
3 708 707 237
3 709 164 710
3 232 711 713
3 711 164 712
3 711 712 713
3 232 14 164
3 714 33 715
3 105 716 717
3 238 718 720
3 720 719 105
3 718 719 720
3 238 721 723
3 721 33 722
3 721 722 723
3 238 168 33
3 239 168 238
3 239 17 168
3 239 240 17
3 241 240 239
3 241 35 240
3 107 241 34
3 242 241 107
3 242 35 241
3 242 175 35
3 243 175 242
3 243 18 175
3 244 245 15
3 246 245 244
3 246 38 245
3 110 246 37
3 247 246 110
3 247 38 246
3 247 183 38
3 248 183 247
3 248 19 183
3 249 250 10
3 251 250 249
3 251 41 250
3 113 251 40
3 252 251 113
3 252 41 251
3 252 191 41
3 253 191 252
3 253 20 191
3 253 254 20
3 255 254 253
3 255 43 254
3 115 255 42
3 256 255 115
3 256 43 255
3 256 198 43
3 257 198 256
3 257 21 198
3 257 258 21
3 259 258 257
3 259 45 258
3 117 259 44
3 260 259 117
3 260 45 259
3 260 205 45
3 261 205 260
3 261 22 205
3 262 263 12
3 264 263 262
3 264 48 263
3 120 264 47
3 265 264 120
3 265 48 264
3 265 213 48
3 266 213 265
3 266 724 726
3 726 725 213
3 724 725 726
3 266 727 728
3 730 729 266
3 122 731 733
3 733 732 49
3 731 732 733
3 735 734 122
3 267 736 738
3 736 268 737
3 736 737 738
3 269 268 267
3 269 51 268
3 124 269 50
3 739 269 740
3 741 740 124
3 739 740 741
3 742 51 743
3 744 743 269
3 742 743 744
3 746 745 51
3 748 747 6
3 270 271 1
3 272 271 270
3 272 54 271
3 127 272 53
3 273 272 127
3 273 54 272
3 273 156 54
3 274 156 273
3 274 8 156
3 220 128 7
3 275 128 220
3 275 55 128
3 130 275 25
3 276 275 130
3 276 55 275
3 276 274 55
3 277 274 276
3 277 8 274
3 277 749 751
3 751 750 8
3 749 750 751
3 753 752 277
3 755 754 56
3 278 756 757
3 278 758 759
3 278 760 762
3 760 102 761
3 760 761 762
3 270 102 278
3 270 1 102
3 279 763 764
3 767 766 279
3 765 766 767
3 768 104 769
3 280 770 772
3 770 104 771
3 770 771 772
3 280 4 104
3 281 282 2
3 283 282 281
3 283 58 282
3 133 283 57
3 284 283 133
3 284 58 283
3 284 188 58
3 285 188 284
3 285 10 188
3 223 134 9
3 286 134 223
3 286 59 134
3 136 286 26
3 287 286 136
3 287 59 286
3 287 285 59
3 288 285 287
3 288 10 285
3 288 249 10
3 289 249 288
3 289 40 249
3 138 289 60
3 290 289 138
3 290 40 289
3 290 112 40
3 291 112 290
3 291 5 112
3 291 292 5
3 293 292 291
3 293 62 292
3 140 293 61
3 294 293 140
3 294 62 293
3 294 210 62
3 295 210 294
3 295 12 210
3 227 141 11
3 296 141 227
3 296 63 141
3 142 296 28
3 297 296 142
3 297 63 296
3 297 295 63
3 298 295 297
3 298 12 295
3 298 262 12
3 299 262 298
3 299 47 262
3 144 299 64
3 300 299 144
3 300 47 299
3 300 119 47
3 279 119 300
3 279 773 775
3 775 774 119
3 773 774 775
3 301 302 3
3 303 302 301
3 303 66 302
3 146 303 65
3 304 303 146
3 304 66 303
3 304 776 778
3 778 777 66
3 776 777 778
3 780 779 304
3 230 147 13
3 781 147 782
3 783 782 230
3 781 782 783
3 785 784 147
3 149 786 787
3 305 788 790
3 790 789 149
3 788 789 790
3 305 791 792
3 305 793 795
3 793 180 794
3 793 794 795
3 306 180 305
3 306 15 180
3 233 150 14
3 307 150 233
3 307 67 150
3 152 307 31
3 308 307 152
3 308 67 307
3 308 306 67
3 309 306 308
3 309 15 306
3 309 244 15
3 310 244 309
3 310 37 244
3 154 310 68
3 311 310 154
3 311 37 310
3 311 109 37
3 312 109 311
3 312 2 109
3 271 101 1
3 313 101 271
3 313 32 101
3 157 313 54
3 314 313 157
3 314 32 313
3 314 236 32
3 315 236 314
3 315 16 236
3 237 158 8
3 316 158 237
3 316 70 158
3 159 796 798
3 796 316 797
3 796 797 798
3 317 316 159
3 317 70 316
3 317 315 70
3 318 315 317
3 318 16 315
3 318 155 16
3 319 155 318
3 319 69 155
3 161 319 71
3 320 319 161
3 320 69 319
3 320 312 69
3 321 312 320
3 321 2 312
3 321 281 2
3 322 281 321
3 322 57 281
3 163 322 72
3 323 322 163
3 323 57 322
3 323 132 57
3 799 132 800
3 801 800 323
3 799 800 801
3 802 9 803
3 804 803 132
3 802 803 804
3 805 9 806
3 808 807 9
3 166 809 811
3 811 810 73
3 809 810 811
3 813 812 166
3 324 814 816
3 816 815 0
3 814 815 816
3 818 817 324
3 820 819 74
3 821 267 822
3 325 823 825
3 823 267 824
3 823 824 825
3 325 50 267
3 826 325 827
3 326 828 830
3 828 325 829
3 828 829 830
3 326 50 325
3 326 123 50
3 327 123 326
3 327 3 123
3 169 831 833
3 833 832 33
3 831 832 833
3 835 834 169
3 836 75 837
3 171 838 839
3 328 840 842
3 842 841 171
3 840 841 842
3 328 843 845
3 843 75 844
3 843 844 845
3 328 327 75
3 329 327 328
3 329 3 327
3 329 301 3
3 330 301 329
3 330 65 301
3 173 330 76
3 331 330 173
3 331 65 330
3 331 145 65
3 332 145 331
3 332 13 145
3 240 174 17
3 333 174 240
3 333 77 174
3 176 333 35
3 334 333 176
3 334 77 333
3 334 332 77
3 335 332 334
3 335 13 332
3 335 229 13
3 336 229 335
3 336 29 229
3 178 336 78
3 337 336 178
3 337 29 336
3 337 96 29
3 338 96 337
3 338 0 96
3 181 846 847
3 339 848 850
3 850 849 181
3 848 849 850
3 339 851 852
3 339 853 854
3 856 855 339
3 245 182 15
3 340 182 245
3 340 80 182
3 184 340 38
3 341 340 184
3 341 80 340
3 341 857 859
3 859 858 80
3 857 858 859
3 861 860 341
3 186 862 863
3 342 864 866
3 866 865 186
3 864 865 866
3 342 867 868
3 342 869 871
3 869 280 870
3 869 870 871
3 343 280 342
3 343 4 280
3 282 111 2
3 344 111 282
3 344 39 111
3 189 344 58
3 345 344 189
3 345 39 344
3 345 248 39
3 346 248 345
3 346 19 248
3 250 190 10
3 347 190 250
3 347 82 190
3 192 347 41
3 348 347 192
3 348 82 347
3 348 346 82
3 349 346 348
3 349 19 346
3 349 187 19
3 350 187 349
3 350 81 187
3 194 350 83
3 351 350 194
3 351 81 350
3 351 343 81
3 352 343 351
3 352 4 343
3 352 108 4
3 353 108 352
3 353 36 108
3 196 353 84
3 354 353 196
3 354 36 353
3 354 243 36
3 355 243 354
3 355 18 243
3 254 197 20
3 356 197 254
3 356 85 197
3 199 356 43
3 357 356 199
3 357 85 356
3 357 355 85
3 358 355 357
3 358 18 355
3 358 179 18
3 359 179 358
3 359 79 179
3 201 359 86
3 360 359 201
3 360 79 359
3 360 338 79
3 361 338 360
3 361 0 338
3 361 324 0
3 362 324 361
3 362 74 324
3 203 362 87
3 363 362 203
3 363 74 362
3 363 167 74
3 364 167 363
3 364 872 874
3 874 873 167
3 872 873 874
3 258 204 21
3 365 204 258
3 365 88 204
3 206 365 45
3 366 365 206
3 366 88 365
3 366 364 88
3 367 364 366
3 367 875 877
3 877 876 364
3 875 876 877
3 367 878 879
3 368 880 882
3 882 881 367
3 880 881 882
3 368 883 884
3 208 368 89
3 369 368 208
3 369 885 887
3 887 886 368
3 885 886 887
3 369 888 889
3 891 890 369
3 292 118 5
3 370 118 292
3 370 46 118
3 211 370 62
3 371 370 211
3 371 46 370
3 371 261 46
3 372 261 371
3 372 22 261
3 263 212 12
3 373 212 263
3 373 91 212
3 214 373 48
3 374 373 214
3 374 91 373
3 374 372 91
3 375 372 374
3 375 22 372
3 375 209 22
3 376 209 375
3 376 90 209
3 892 376 893
3 894 893 92
3 892 893 894
3 895 376 896
3 897 90 898
3 899 898 376
3 897 898 899
3 901 900 90
3 268 902 903
3 905 904 268
3 216 906 908
3 908 907 51
3 906 907 908
3 910 909 216
3 302 125 3
3 377 125 302
3 377 52 125
3 217 377 66
3 911 377 912
3 913 912 217
3 911 912 913
3 914 52 915
3 916 915 377
3 914 915 916
3 918 917 52
3 919 98 920
3 921 920 0
3 919 920 921
3 922 98 923
3 925 924 98
