ply
format ascii 1.0
element vertex 695
property float x
property float y
property float z
element face 832
property list uchar int vertex_index
end_header
9.123188 -100.854187 42.884499
37.262806 -110.290932 -3.178179
6.478184 -116.194283 21.28437
19.714016 -99.457817 36.411613
27.005423 -111.361488 14.723881
6.600822 -108.632172 33.725662
0.994892 -109.714188 22.150612
10.165056 -96.805519 51.804581
15.413905 -94.26059 50.21991
13.272579 -103.693504 42.415958
13.566376 -110.135033 29.541466
36.562416 -105.41407 15.936792
31.964926 -101.650589 23.236652
11.189243 -123.543571 9.532655
3.271881 -119.705025 10.213242
22.781719 -105.773209 23.776035
16.397757 -116.277229 17.632252
21.393114 -120.481041 7.494572
41.213184 -103.326988 7.766876
31.626381 -112.572151 6.000611
8.1049 -104.870918 38.885803
5.018684 -105.385651 33.477936
7.142529 -101.362465 37.642426
10.213884 -99.300095 47.527596
12.382277 -100.22718 47.699196
10.803829 -103.17907 43.560825
10.239025 -106.868782 38.406265
35.942253 -100.499229 25.438274
42.272171 -104.900215 -1.895254
8.397411 -120.125687 15.205566
6.70495 -122.472626 10.023925
4.207327 -118.182709 16.0077
0.100344 -110.056145 15.915972
17.934649 -96.652657 43.517605
21.105633 -93.266029 40.674858
23.351521 -96.228897 33.652622
25.393726 -99.70887 27.541561
21.172241 -102.542801 29.636211
9.778276 -113.639854 25.798429
14.531672 -113.229507 23.236801
11.143476 -117.072624 19.616247
13.458858 -120.333054 13.98012
42.553886 -100.504829 13.651274
31.983717 -108.416977 14.748684
34.237617 -108.834908 10.756348
29.286705 -112.625969 10.511135
26.51955 -116.876701 6.427307
24.151447 -116.118782 11.224169
5.85519 -112.323677 27.648003
2.95381 -113.649841 22.209942
3.281422 -109.381973 28.233801
2.372601 -105.179817 27.452108
12.649738 -96.386902 51.708763
15.005198 -99.258141 46.189568
16.321039 -102.296349 39.722771
17.111412 -105.348724 32.876549
13.369143 -107.007042 36.16909
9.587294 -110.288971 32.283272
40.467678 -102.025345 17.869013
34.304031 -104.369843 19.627928
29.72348 -106.458405 18.532627
8.522881 -96.725136 45.851013
8.140327 -97.17942 40.841885
1.360279 -114.69828 16.249866
1.181688 -115.557693 10.157408
29.584484 -97.851234 27.321144
27.492861 -103.321075 22.594767
24.764872 -108.889572 18.944492
18.070103 -108.381691 26.37261
19.632641 -111.404213 20.705547
21.771799 -114.162247 15.824821
18.838121 -118.873329 12.538612
16.226284 -122.831688 8.669975
39.414719 -106.599182 2.197042
38.812634 -104.848732 11.938157
36.664639 -108.012459 6.490664
34.262909 -111.640099 1.331241
8.760494 -102.892929 41.02803
7.482359 -103.274223 38.44783
8.208998 -101.234459 40.343281
9.808517 -100.207718 45.27169
10.703533 -101.247589 45.690628
9.861813 -102.219765 43.435875
9.556488 -104.188423 41.30954
39.88496 -107.611404 -2.610809
7.298084 -118.179901 18.190746
6.159304 -119.364273 15.669941
5.188503 -117.244675 18.728922
18.896004 -98.011253 39.969994
19.489307 -94.983658 42.048622
20.553833 -96.334084 38.432003
22.273075 -94.665688 37.08469
21.505394 -97.811714 34.892914
22.394405 -99.393707 31.521128
20.45092 -100.973579 32.93819
8.02845 -115.007576 23.64539
10.318031 -115.350548 22.64049
8.702148 -116.849815 20.518723
9.662771 -118.686577 17.514202
43.040241 -99.198128 16.735254
29.532814 -109.889183 14.581644
30.660044 -110.506195 12.580379
28.147772 -112.166801 12.64682
26.740709 -114.430618 10.763525
25.577917 -113.773582 12.976181
6.076414 -110.466797 30.767588
4.372355 -111.037689 28.118172
4.84873 -109.09623 31.07518
4.792475 -103.304543 32.78656
3.596111 -105.336388 30.523329
11.072569 -95.025665 54.03344
11.365765 -96.825073 51.949356
12.975662 -101.967339 45.200985
13.646273 -99.977425 47.137619
14.321371 -101.598724 44.299141
15.770793 -100.766502 43.046211
14.741806 -103.219528 41.215912
14.995246 -104.815773 37.951633
13.365129 -105.378044 39.383762
8.436607 -107.911659 36.167221
9.854553 -108.604324 35.43502
7.939188 -109.680885 33.206596
7.65992 -111.430992 30.072166
34.027908 -101.060127 24.185587
35.219418 -102.415504 22.415213
33.14278 -103.194298 21.412516
32.07505 -105.384811 18.905083
30.925457 -104.028442 20.747658
4.832306 -121.285973 10.152919
6.338854 -123.336464 7.196893
4.66674 -121.976105 7.219231
1.761536 -111.831192 22.30661
1.976881 -114.194725 19.270283
0.959902 -112.164482 19.243093
0.168879 -110.27285 12.876438
0.445107 -112.81414 13.076459
7.67944 -97.115387 38.146988
30.322813 -95.287415 30.128166
28.377766 -95.816093 29.724365
24.18169 -102.761597 25.534859
26.42588 -101.530922 24.928257
25.150631 -104.47094 22.969202
26.186476 -106.12014 20.660402
23.727209 -107.372871 21.247553
15.418444 -107.907051 31.224426
17.532412 -106.864388 29.540596
15.776688 -109.423553 27.94722
15.364861 -114.775932 20.346415
17.062498 -112.455811 21.919632
18.000025 -113.943138 19.212549
20.648087 -112.846664 18.19252
19.091162 -115.348442 16.673607
20.281607 -116.59993 14.239058
17.576321 -117.668266 15.050557
12.213722 -122.051147 11.856512
14.820244 -121.715576 11.303747
13.670547 -123.406677 9.151277
43.092697 -100.900238 8.564299
42.470467 -102.419975 5.693609
41.72303 -104.053062 2.88314
40.364281 -104.901131 4.950818
38.619785 -103.79425 16.848749
39.715157 -103.410713 14.835273
37.677807 -105.299889 13.973609
32.948364 -110.663223 8.347715
35.41428 -108.538094 8.645756
34.170197 -110.307976 6.129504
35.483608 -109.771339 3.887574
32.894295 -112.179016 3.66562
23.962736 -118.802216 6.911457
7.326538 -106.778572 36.447128
5.619446 -107.18222 33.810593
6.555428 -105.252968 36.273701
6.126266 -103.394638 35.694691
10.324335 -98.153961 49.689651
11.44342 -98.501717 49.896957
11.234041 -99.994675 47.828323
11.761805 -101.846939 45.6744
11.94833 -103.680382 43.218086
11.886843 -105.463562 40.472618
10.604719 -105.060257 41.128571
9.027622 -106.087257 38.882538
34.718151 -98.985527 27.209696
32.813896 -99.347351 26.009335
9.715889 -121.945145 12.325394
8.84449 -123.231277 9.819958
7.397856 -121.392776 12.701983
5.328787 -120.405403 12.980656
3.566088 -119.009201 13.156673
0.665716 -107.358223 21.763477
0.366674 -109.869789 19.022907
16.782043 -95.39991 46.961128
18.270992 -93.778381 45.645721
25.239117 -94.862816 32.804176
26.383965 -96.70163 29.836853
24.379112 -97.923737 30.455002
23.27211 -101.054344 28.387703
21.935715 -104.150238 26.570927
11.653576 -112.034042 27.752274
13.931377 -111.678741 26.312399
12.084692 -113.642143 24.561745
12.785561 -115.263832 21.515205
13.730581 -116.871002 18.634119
14.869668 -118.406601 15.900773
12.210609 -118.757828 16.737173
10.854977 -120.449059 14.634664
43.590107 -99.482498 11.508229
41.94606 -101.869553 10.662745
34.337227 -106.937439 15.214439
35.456924 -107.08876 13.271723
33.104393 -108.815193 12.793259
31.789951 -110.752724 10.504837
30.435787 -112.745361 8.293064
29.072285 -114.778053 6.107745
27.899025 -114.758087 8.476398
25.339699 -116.653267 8.865414
22.749918 -118.366211 9.406588
34.507507 -112.945404 -3.544306
5.987562 -114.231911 24.457912
4.541676 -115.118088 21.861588
4.263161 -113.041481 25.017429
2.912912 -111.470589 25.283159
1.977856 -109.566505 25.240952
4.017124 -107.366707 30.983761
2.612831 -107.409439 27.999077
1.478706 -107.385483 24.905861
1.414503 -104.988823 24.319002
14.003334 -95.512787 51.110641
12.663239 -98.381599 49.692123
13.970032 -97.79425 49.08992
15.34709 -96.775604 48.14838
16.4389 -98.119804 44.943214
17.300251 -99.535538 41.557034
17.983555 -101.002831 38.071476
18.561417 -102.50309 34.579926
16.737034 -103.826942 36.301666
15.186413 -106.376465 34.589752
13.402561 -108.585823 32.856789
11.702871 -107.178734 37.478149
11.529446 -108.829285 34.300835
11.484236 -110.437538 31.027264
9.541203 -111.957001 29.039656
7.678627 -113.199249 26.854393
42.073086 -100.068901 18.91329
39.395294 -102.323311 19.885946
37.513924 -103.790817 18.781422
37.133663 -101.584656 23.656759
36.382378 -103.336845 20.629721
35.442867 -105.115242 17.816792
33.213463 -106.369843 17.08098
30.857067 -107.621712 16.644438
28.401276 -108.912842 16.54809
9.063496 -98.785606 44.481102
8.564241 -99.149055 41.986423
8.435499 -97.052574 43.409096
9.317394 -98.189156 46.842842
8.281036 -124.279602 7.13518
3.397961 -115.904007 19.096224
2.595142 -116.612816 16.203505
2.150434 -117.243568 13.228168
0.525629 -112.492302 16.149469
1.106327 -115.158875 13.19822
7.867287 -99.283676 39.347656
31.580267 -97.383263 27.965126
30.778048 -99.832954 25.179884
27.509592 -98.621849 27.174711
28.636835 -100.54612 24.806402
29.776005 -102.382248 22.68737
28.596104 -104.994881 20.48815
27.277836 -107.629967 18.546864
25.868759 -110.246384 16.797438
19.11338 -104.025612 31.176834
19.712463 -105.566551 27.945145
20.413576 -107.120865 24.94346
16.317429 -110.940269 24.831741
18.766756 -109.901184 23.423279
21.245605 -108.671204 22.195625
22.208744 -110.178978 19.686161
23.27833 -111.58271 17.36389
24.414818 -112.805992 15.153998
22.954025 -115.2752 13.526382
21.51569 -117.624382 11.836979
20.12487 -119.824799 10.034727
16.139214 -119.795197 13.2693
17.472771 -120.960167 10.684862
18.809998 -121.843132 8.103072
40.858181 -105.792564 0.118237
38.378696 -108.407516 -0.510221
41.515678 -101.384789 15.781417
40.819458 -102.734955 12.763008
39.988655 -104.159271 9.85811
36.596504 -106.872894 11.248533
37.78479 -106.374481 9.164728
39.041504 -105.69001 7.053786
38.002678 -107.345581 4.329333
36.894535 -109.125305 1.663024
35.729832 -111.00666 -0.96067
38.034891 -109.877308 -4.240059
39.345968 -108.537544 -3.956374
38.573883 -108.951168 -2.894494
43.232218 -98.554314 18.319697
43.660049 -98.022614 17.181226
43.852026 -97.378799 18.765669
4.182319 -103.186264 31.272293
4.849409 -102.154438 32.305157
10.76541 -96.815296 51.876969
10.581615 -96.061424 52.934692
9.98126 -96.051647 52.862305
10.81503 -124.162261 8.275493
11.970894 -124.188831 8.176906
3.284617 -119.972546 8.713435
3.982046 -121.108086 7.21643
3.96931 -120.840565 8.716236
0.417824 -111.691708 11.469056
0.336513 -110.385593 11.405438
15.357217 -93.034367 51.321717
14.624783 -93.741219 51.726776
27.760635 -94.822193 31.075539
28.704092 -94.497341 31.140469
11.970894 -124.188831 8.176906
13.211547 -124.120384 7.986217
12.429895 -123.475124 9.341966
30.960653 -113.558846 4.839925
31.594611 -113.362278 3.672429
32.260338 -112.375584 4.833115
22.007295 -120.658745 6.195818
23.292105 -119.819333 5.904261
22.677925 -119.641628 7.203015
20.748316 -121.450074 6.496887
22.007295 -120.658745 6.195818
6.577355 -101.316223 36.217968
6.069223 -102.33231 35.244101
6.634398 -102.378552 36.668559
34.092006 -98.059528 28.124911
34.971395 -97.97601 28.824014
34.345251 -97.050011 29.73923
33.139879 -98.240441 27.524731
33.766024 -99.166439 26.609516
34.092006 -98.059528 28.124911
42.93419 -104.381596 -2.867981
43.302941 -103.518467 -1.495332
0.433525 -107.365738 20.198385
0.716839 -106.092346 21.474019
20.4615 -92.658905 42.502573
19.653337 -93.517719 43.189455
20.29747 -94.124843 41.36174
21.265864 -91.820904 41.90778
20.4615 -92.658905 42.502573
21.945162 -92.463615 40.099886
21.265864 -91.820904 41.90778
23.699921 -94.698021 34.852499
23.160698 -93.916416 36.568533
22.812298 -95.447293 35.368656
24.295319 -95.545856 33.228399
24.643719 -94.014981 34.428276
23.699921 -94.698021 34.852499
43.071996 -99.993663 12.579752
43.783242 -98.812302 13.019657
43.265131 -99.323467 14.091179
33.859953 -113.91193 -4.808137
33.108329 -114.251205 -3.608303
12.536398 -95.353371 52.75069
11.747813 -94.672752 53.913029
11.861154 -95.706284 52.871101
13.326536 -95.949845 51.409702
13.213196 -94.916313 52.451629
12.536398 -95.353371 52.75069
38.84048 -102.258 20.850309
39.696156 -101.587189 21.481394
37.899795 -102.991753 20.298047
38.454609 -103.057064 19.333684
38.84048 -102.258 20.850309
36.537958 -101.041943 24.547517
37.415836 -100.710895 25.265193
36.820131 -100.168182 26.15595
8.920137 -97.457146 46.346927
8.851046 -97.191547 47.514007
8.45379 -96.459538 47.018093
7.188875 -124.196979 5.745633
6.31237 -123.64383 5.724981
1.616314 -116.667171 10.184503
1.578634 -116.467762 11.704909
1.144008 -115.358284 11.677814
1.713336 -116.87009 8.673831
1.616314 -116.667171 10.184503
7.359871 -98.160939 37.358382
7.394733 -96.996681 36.741707
16.918838 -123.233292 7.365457
18.210695 -122.739013 7.082005
17.518141 -122.33741 8.386523
33.635628 -112.613216 0.070301
34.36909 -112.296497 -1.075654
34.99637 -111.32338 0.185285
27.11703 -116.850139 5.172401
28.393397 -115.800815 5.01262
27.795918 -115.827377 6.267526
40.617172 -107.151062 -3.620007
41.810778 -105.795468 -3.26223
41.078565 -106.255809 -2.253032
40.617172 -107.151062 -3.620007
39.345968 -108.537544 -3.956374
43.508308 -98.670117 15.63317
43.660049 -98.022614 17.181226
42.797064 -99.851478 15.193264
43.265131 -99.323467 14.091179
43.508308 -98.670117 15.63317
3.584137 -104.202187 30.140678
4.194293 -104.320465 31.654944
4.182319 -103.186264 31.272293
2.972382 -104.123902 28.605067
2.984356 -105.258103 28.987718
3.584137 -104.202187 30.140678
2.457477 -103.967922 27.054532
2.972382 -104.123902 28.605067
10.435016 -95.16172 53.976734
10.190173 -94.349079 55.05423
11.219167 -95.925369 52.991398
10.435016 -95.16172 53.976734
10.581615 -96.061424 52.934692
8.159647 -95.853135 45.247208
8.02599 -95.71188 46.441292
8.02599 -95.71188 46.441292
8.45379 -96.459538 47.018093
5.476313 -122.96365 5.73615
6.31237 -123.64383 5.724981
5.502797 -122.656284 7.208062
4.728956 -122.209633 5.717997
5.538528 -123.197178 4.234916
5.476313 -122.96365 5.73615
4.728956 -122.209633 5.717997
3.982046 -121.108086 7.21643
0.555938 -112.962352 11.569066
0.306993 -111.543495 12.976449
0.417824 -111.691708 11.469056
0.924229 -114.334129 10.109541
0.813397 -114.185916 11.616934
0.555938 -112.962352 11.569066
1.347185 -115.71117 8.658318
0.924229 -114.334129 10.109541
7.737208 -96.06868 38.849339
7.909883 -97.147403 39.494436
7.967651 -96.100696 40.196787
7.628904 -95.959232 37.493935
7.737208 -96.06868 38.849339
7.686672 -94.912526 38.196285
7.394733 -96.996681 36.741707
7.628904 -95.959232 37.493935
29.676616 -94.233002 31.342369
30.592454 -94.089867 31.654425
29.35029 -95.551754 29.926265
29.676616 -94.233002 31.342369
28.704092 -94.497341 31.140469
14.412989 -123.926861 7.830407
15.690857 -123.639366 7.589757
14.948415 -123.119182 8.910626
14.412989 -123.926861 7.830407
13.211547 -124.120384 7.986217
43.665177 -100.388771 7.527026
43.855934 -99.644249 8.970399
43.354062 -101.14864 6.091681
43.665177 -100.388771 7.527026
42.781582 -101.660106 7.128954
43.096299 -101.942024 4.67548
43.354062 -101.14864 6.091681
42.096749 -103.236518 4.288374
42.72258 -102.758567 3.270245
43.096299 -101.942024 4.67548
32.24768 -113.153988 2.448337
32.931987 -112.88453 1.281147
33.578602 -111.909558 2.49843
32.24768 -113.153988 2.448337
31.594611 -113.362278 3.672429
24.560474 -118.874241 5.627468
25.838881 -117.911484 5.385393
25.241143 -117.839459 6.669382
24.560474 -118.874241 5.627468
23.292105 -119.819333 5.904261
5.402328 -102.287262 33.790035
5.459371 -103.349591 34.240626
6.069223 -102.33231 35.244101
4.849409 -102.154438 32.305157
5.402328 -102.287262 33.790035
36.210567 -99.553627 27.050193
36.820131 -100.168182 26.15595
35.598517 -98.796776 27.935904
34.971395 -97.97601 28.824014
35.330202 -99.742378 26.323985
36.210567 -99.553627 27.050193
35.598517 -98.796776 27.935904
42.472797 -105.276848 -4.234957
42.93419 -104.381596 -2.867981
41.810778 -105.795468 -3.26223
0.284004 -108.621521 18.8281
0.516195 -108.614006 20.393192
0.433525 -107.365738 20.198385
0.150839 -108.714699 17.274632
0.233509 -109.962967 17.46944
0.284004 -108.621521 18.8281
0.092038 -108.755074 15.742921
0.150839 -108.714699 17.274632
0.126306 -108.863426 14.223154
0.134611 -110.164498 14.396205
0.092038 -108.755074 15.742921
0.221217 -108.935833 12.744398
0.126306 -108.863426 14.223154
0.336513 -110.385593 11.405438
0.221217 -108.935833 12.744398
16.828587 -94.062226 48.045727
16.144517 -93.492565 49.675117
16.097974 -94.83025 48.590519
17.573061 -93.251461 47.388023
16.828587 -94.062226 48.045727
17.526518 -94.589146 46.303425
18.329633 -92.404258 46.799406
17.573061 -93.251461 47.388023
19.04418 -92.915081 44.988005
18.88015 -94.38102 43.847172
19.653337 -93.517719 43.189455
18.329633 -92.404258 46.799406
19.04418 -92.915081 44.988005
22.528883 -93.163444 38.304802
21.945162 -92.463615 40.099886
21.689354 -93.965858 38.879774
22.528883 -93.163444 38.304802
23.160698 -93.916416 36.568533
25.551094 -93.417679 34.117759
24.643719 -94.014981 34.428276
26.191311 -94.345554 32.615444
25.551094 -93.417679 34.117759
25.811541 -95.782223 31.320515
26.763735 -95.264961 31.131782
26.191311 -94.345554 32.615444
44.239897 -98.234073 11.917295
43.783242 -98.812302 13.019657
44.104639 -98.935379 10.442364
44.239897 -98.234073 11.917295
43.341402 -100.191368 10.036264
43.855934 -99.644249 8.970399
44.104639 -98.935379 10.442364
35.284805 -112.570141 -4.671669
36.662454 -111.242905 -4.488606
35.885156 -111.618168 -3.361243
35.284805 -112.570141 -4.671669
33.859953 -113.91193 -4.808137
1.091233 -104.907646 22.751781
0.716839 -106.092346 21.474019
1.04011 -106.173523 23.04124
1.978428 -103.872425 25.487979
1.893552 -105.08432 25.885555
2.457477 -103.967922 27.054532
1.589237 -103.714306 23.929259
1.978428 -103.872425 25.487979
1.091233 -104.907646 22.751781
1.589237 -103.714306 23.929259
10.865508 -94.091804 55.107983
10.190173 -94.349079 55.05423
11.540752 -93.738891 54.987572
10.865508 -94.091804 55.107983
11.747813 -94.672752 53.913029
13.919498 -94.367317 52.172142
13.213196 -94.916313 52.451629
14.70862 -94.886688 50.665275
14.624783 -93.741219 51.726776
13.919498 -94.367317 52.172142
42.289265 -99.407425 20.528125
42.74864 -98.9897 19.408715
41.567667 -100.360786 19.974601
42.289265 -99.407425 20.528125
40.764963 -101.339009 19.452463
41.270382 -101.047123 18.391151
41.567667 -100.360786 19.974601
40.228771 -101.487991 20.460929
39.696156 -101.587189 21.481394
39.931486 -102.174328 18.877479
40.764963 -101.339009 19.452463
40.228771 -101.487991 20.460929
38.003799 -101.087459 24.339027
37.415836 -100.710895 25.265193
37.709665 -101.888672 22.735716
38.003799 -101.087459 24.339027
37.334023 -102.764767 21.222197
37.709665 -101.888672 22.735716
36.758021 -102.46075 22.14324
36.948151 -103.563831 19.705571
37.899795 -102.991753 20.298047
37.334023 -102.764767 21.222197
8.115956 -96.016853 44.026249
8.47919 -96.888855 44.630054
8.159647 -95.853135 45.247208
8.15745 -96.069008 42.781357
8.115956 -96.016853 44.026249
8.009863 -96.132431 41.497751
8.287913 -97.115997 42.12549
8.15745 -96.069008 42.781357
7.967651 -96.100696 40.196787
8.009863 -96.132431 41.497751
9.386966 -95.966774 52.628186
9.98126 -96.051647 52.862305
9.610167 -96.572193 51.545616
9.386966 -95.966774 52.628186
9.689807 -97.246414 50.488152
10.244695 -97.47974 50.747116
9.610167 -96.572193 51.545616
9.816494 -97.760757 49.394035
9.689807 -97.246414 50.488152
9.761268 -98.333824 48.313007
10.269109 -98.727028 48.608624
9.816494 -97.760757 49.394035
9.313023 -97.778355 47.97063
8.851046 -97.191547 47.514007
9.765639 -98.744625 47.185219
9.761268 -98.333824 48.313007
9.313023 -97.778355 47.97063
38.034891 -109.877308 -4.240059
36.662454 -111.242905 -4.488606
9.642653 -124.006114 8.419145
10.81503 -124.162261 8.275493
10.016866 -123.387424 9.676306
9.360926 -124.530277 7.076756
9.642653 -124.006114 8.419145
8.562763 -123.755439 8.477569
9.144856 -125.004299 5.730246
9.360926 -124.530277 7.076756
8.159966 -124.668548 5.714777
7.309945 -123.808033 7.166037
7.188875 -124.196979 5.745633
9.144856 -125.004299 5.730246
8.159966 -124.668548 5.714777
2.100687 -117.510109 11.719883
1.628381 -116.201222 13.213194
1.578634 -116.467762 11.704909
2.661411 -118.740837 10.212421
2.711158 -118.474297 11.720705
2.100687 -117.510109 11.719883
3.284617 -119.972546 8.713435
2.661411 -118.740837 10.212421
1.713336 -116.87009 8.673831
1.347185 -115.71117 8.658318
7.453794 -99.245083 37.958715
7.773364 -98.199532 38.747322
7.359871 -98.160939 37.358382
7.091416 -100.284478 37.1061
7.504908 -100.323071 38.495041
7.453794 -99.245083 37.958715
6.577355 -101.316223 36.217968
7.091416 -100.284478 37.1061
15.357217 -93.034367 51.321717
16.144517 -93.492565 49.675117
31.253127 -95.173665 30.567386
30.592454 -94.089867 31.654425
31.881854 -96.221588 29.485867
31.253127 -95.173665 30.567386
30.95154 -96.335339 29.046646
32.523065 -97.258397 28.502626
31.881854 -96.221588 29.485867
32.197081 -98.365307 26.987231
33.139879 -98.240441 27.524731
32.523065 -97.258397 28.502626
27.380865 -96.258861 29.780609
27.760635 -94.822193 31.075539
26.763735 -95.264961 31.131782
19.456758 -122.131119 6.801137
20.748316 -121.450074 6.496887
20.101556 -121.162087 7.798822
19.456758 -122.131119 6.801137
18.210695 -122.739013 7.082005
16.918838 -123.233292 7.365457
15.690857 -123.639366 7.589757
42.668888 -104.022759 -0.514569
43.302941 -103.518467 -1.495332
42.394317 -103.599182 1.874628
42.72258 -102.758567 3.270245
41.961893 -104.468933 0.492177
42.394317 -103.599182 1.874628
41.290605 -104.922813 1.500689
41.565176 -105.34639 -0.888509
42.668888 -104.022759 -0.514569
41.961893 -104.468933 0.492177
42.556663 -99.633514 17.824272
43.232218 -98.554314 18.319697
42.74864 -98.9897 19.408715
33.757927 -113.265869 -2.367472
35.118669 -111.976032 -2.252488
34.36909 -112.296497 -1.075654
33.108329 -114.251205 -3.608303
33.757927 -113.265869 -2.367472
33.635628 -112.613216 0.070301
32.931987 -112.88453 1.281147
29.683605 -114.661797 4.893491
30.960653 -113.558846 4.839925
30.349333 -113.675102 6.054178
29.683605 -114.661797 4.893491
28.393397 -115.800815 5.01262
27.11703 -116.850139 5.172401
25.838881 -117.911484 5.385393
3 0 79 77
3 0 82 80
3 0 77 82
3 1 297 299
3 299 298 84
3 297 298 299
3 2 87 85
3 3 90 88
3 3 92 90
3 3 94 92
3 2 97 95
3 2 85 97
3 300 99 301
3 300 301 302
3 4 102 100
3 4 104 102
3 5 107 105
3 304 303 108
3 7 305 307
3 305 111 306
3 305 306 307
3 9 114 112
3 9 116 114
3 9 118 116
3 5 121 119
3 5 105 121
3 12 125 123
3 12 127 125
3 13 308 309
3 14 130 128
3 14 310 312
3 312 311 130
3 310 311 312
3 6 133 131
3 314 313 134
3 8 315 316
3 317 138 318
3 15 141 139
3 15 143 141
3 10 146 144
3 16 149 147
3 16 151 149
3 16 153 151
3 13 156 154
3 13 319 321
3 321 320 156
3 319 320 321
3 18 158 157
3 18 160 158
3 11 163 161
3 19 166 164
3 19 168 166
3 19 322 324
3 324 323 168
3 322 323 324
3 17 325 327
3 327 326 169
3 325 326 327
3 17 328 329
3 20 172 170
3 22 173 78
3 22 330 332
3 332 331 173
3 330 331 332
3 23 176 174
3 25 177 81
3 25 178 177
3 25 180 178
3 20 181 83
3 20 170 181
3 333 182 334
3 333 334 335
3 336 183 337
3 338 337 182
3 336 337 338
3 28 339 340
3 29 186 184
3 31 187 86
3 31 188 187
3 342 341 189
3 33 192 191
3 34 343 345
3 345 344 89
3 343 344 345
3 34 346 347
3 34 348 349
3 35 350 352
3 352 351 91
3 350 351 352
3 35 353 355
3 353 193 354
3 353 354 355
3 35 195 193
3 37 196 93
3 37 197 196
3 38 200 198
3 40 201 96
3 40 202 201
3 40 204 202
3 29 205 98
3 29 184 205
3 42 356 358
3 356 206 357
3 356 357 358
3 42 207 206
3 43 210 208
3 45 211 101
3 45 212 211
3 45 214 212
3 47 215 103
3 47 216 215
3 360 359 217
3 48 220 218
3 50 221 106
3 50 222 221
3 21 223 171
3 51 224 109
3 51 225 224
3 51 226 225
3 52 361 363
3 363 362 110
3 361 362 363
3 52 364 366
3 364 227 365
3 364 365 366
3 24 228 175
3 53 229 113
3 53 230 229
3 53 231 230
3 54 232 115
3 54 233 232
3 54 235 233
3 56 236 117
3 56 237 236
3 26 238 179
3 57 239 120
3 57 240 239
3 57 241 240
3 48 242 122
3 48 218 242
3 367 244 368
3 369 245 370
3 371 370 244
3 369 370 371
3 27 372 374
3 372 246 373
3 372 373 374
3 59 247 124
3 59 248 247
3 59 249 248
3 60 250 126
3 60 251 250
3 61 254 252
3 61 375 377
3 375 255 376
3 375 376 377
3 61 252 255
3 30 256 185
3 379 378 129
3 49 257 219
3 63 258 132
3 63 259 258
3 32 260 190
3 64 261 135
3 64 380 382
3 382 381 261
3 380 381 382
3 64 383 384
3 62 262 253
3 386 385 136
3 65 263 137
3 65 264 263
3 36 265 194
3 66 266 140
3 66 267 266
3 66 268 267
3 67 269 142
3 67 270 269
3 55 271 234
3 68 272 145
3 68 273 272
3 39 274 199
3 69 275 148
3 69 276 275
3 69 277 276
3 70 278 150
3 70 279 278
3 70 280 279
3 71 281 152
3 71 282 281
3 41 283 203
3 72 284 155
3 72 285 284
3 72 387 389
3 389 388 285
3 387 388 389
3 73 286 159
3 73 287 286
3 58 288 243
3 74 289 162
3 74 290 289
3 44 291 209
3 75 292 165
3 75 293 292
3 75 294 293
3 76 295 167
3 76 296 295
3 76 390 392
3 392 391 296
3 390 391 392
3 46 393 395
3 395 394 213
3 393 394 395
3 77 78 20
3 79 78 77
3 79 22 78
3 80 81 23
3 82 81 80
3 82 25 81
3 82 83 25
3 77 83 82
3 77 20 83
3 84 396 398
3 398 397 28
3 396 397 398
3 400 399 84
3 85 86 29
3 87 86 85
3 87 31 86
3 88 89 33
3 90 89 88
3 90 34 89
3 90 91 34
3 92 91 90
3 92 35 91
3 92 93 35
3 94 93 92
3 94 37 93
3 95 96 38
3 97 96 95
3 97 40 96
3 97 98 40
3 85 98 97
3 85 29 98
3 99 401 402
3 99 403 405
3 403 42 404
3 403 404 405
3 100 101 43
3 102 101 100
3 102 45 101
3 102 103 45
3 104 103 102
3 104 47 103
3 105 106 48
3 107 106 105
3 107 50 106
3 108 109 21
3 406 109 407
3 408 407 108
3 406 407 408
3 409 51 410
3 411 410 109
3 409 410 411
3 413 412 51
3 414 110 415
3 111 416 418
3 416 110 417
3 416 417 418
3 111 52 110
3 112 113 24
3 114 113 112
3 114 53 113
3 114 115 53
3 116 115 114
3 116 54 115
3 116 117 54
3 118 117 116
3 118 56 117
3 119 120 26
3 121 120 119
3 121 57 120
3 121 122 57
3 105 122 121
3 105 48 122
3 123 124 27
3 125 124 123
3 125 59 124
3 125 126 59
3 127 126 125
3 127 60 126
3 420 419 61
3 421 61 422
3 128 129 30
3 130 129 128
3 130 423 425
3 425 424 129
3 423 424 425
3 130 426 428
3 426 427 428
3 430 429 130
3 131 132 49
3 133 132 131
3 133 63 132
3 134 135 32
3 431 135 432
3 433 432 134
3 431 432 433
3 434 64 435
3 436 435 135
3 434 435 436
3 438 437 64
3 439 136 440
3 441 440 62
3 439 440 441
3 442 136 443
3 442 443 444
3 446 445 136
3 447 137 448
3 138 449 451
3 449 137 450
3 449 450 451
3 138 65 137
3 139 140 36
3 141 140 139
3 141 66 140
3 141 142 66
3 143 142 141
3 143 67 142
3 144 145 55
3 146 145 144
3 146 68 145
3 147 148 39
3 149 148 147
3 149 69 148
3 149 150 69
3 151 150 149
3 151 70 150
3 151 152 70
3 153 152 151
3 153 71 152
3 154 155 41
3 156 155 154
3 156 72 155
3 156 452 454
3 454 453 72
3 452 453 454
3 456 455 156
3 157 457 458
3 158 459 461
3 461 460 157
3 459 460 461
3 158 462 463
3 158 464 466
3 464 159 465
3 464 465 466
3 160 159 158
3 160 73 159
3 161 162 58
3 163 162 161
3 163 74 162
3 164 165 44
3 166 165 164
3 166 75 165
3 166 167 75
3 168 167 166
3 168 76 167
3 168 467 469
3 469 468 76
3 467 468 469
3 471 470 168
3 169 472 474
3 474 473 46
3 472 473 474
3 476 475 169
3 170 171 5
3 172 171 170
3 172 21 171
3 78 172 20
3 173 172 78
3 173 21 172
3 173 108 21
3 477 108 478
3 479 478 173
3 477 478 479
3 481 480 108
3 174 175 7
3 176 175 174
3 176 24 175
3 81 176 23
3 177 176 81
3 177 24 176
3 177 112 24
3 178 112 177
3 178 9 112
3 178 179 9
3 180 179 178
3 180 26 179
3 83 180 25
3 181 180 83
3 181 26 180
3 181 119 26
3 170 119 181
3 170 5 119
3 482 27 483
3 182 484 485
3 182 486 488
3 486 27 487
3 486 487 488
3 182 123 27
3 183 123 182
3 183 12 123
3 491 490 28
3 489 490 491
3 184 185 13
3 186 185 184
3 186 30 185
3 86 186 29
3 187 186 86
3 187 30 186
3 187 128 30
3 188 128 187
3 188 14 128
3 189 190 6
3 492 190 493
3 494 493 189
3 492 493 494
3 495 32 496
3 497 496 190
3 495 496 497
3 498 32 499
3 500 134 501
3 502 501 32
3 500 501 502
3 503 134 504
3 506 505 134
3 191 507 509
3 509 508 8
3 507 508 509
3 192 510 512
3 512 511 191
3 510 511 512
3 192 513 514
3 89 192 33
3 515 192 516
3 517 516 89
3 515 516 517
3 519 518 192
3 91 520 522
3 522 521 34
3 520 521 522
3 524 523 91
3 193 525 526
3 193 527 528
3 193 529 531
3 529 194 530
3 529 530 531
3 195 194 193
3 195 36 194
3 93 195 35
3 196 195 93
3 196 36 195
3 196 139 36
3 197 139 196
3 197 15 139
3 198 199 10
3 200 199 198
3 200 39 199
3 96 200 38
3 201 200 96
3 201 39 200
3 201 147 39
3 202 147 201
3 202 16 147
3 202 203 16
3 204 203 202
3 204 41 203
3 98 204 40
3 205 204 98
3 205 41 204
3 205 154 41
3 184 154 205
3 184 13 154
3 206 532 533
3 206 534 535
3 206 536 538
3 536 157 537
3 536 537 538
3 207 157 206
3 207 18 157
3 208 209 11
3 210 209 208
3 210 44 209
3 101 210 43
3 211 210 101
3 211 44 210
3 211 164 44
3 212 164 211
3 212 19 164
3 212 213 19
3 214 213 212
3 214 46 213
3 103 214 45
3 215 214 103
3 215 46 214
3 215 169 46
3 216 169 215
3 216 17 169
3 217 539 541
3 541 540 1
3 539 540 541
3 543 542 217
3 218 219 2
3 220 219 218
3 220 49 219
3 106 220 48
3 221 220 106
3 221 49 220
3 221 131 49
3 222 131 221
3 222 6 131
3 171 107 5
3 223 107 171
3 223 50 107
3 109 223 21
3 224 223 109
3 224 50 223
3 224 222 50
3 225 222 224
3 225 6 222
3 225 189 6
3 226 189 225
3 226 544 546
3 546 545 189
3 544 545 546
3 547 226 548
3 549 548 51
3 547 548 549
3 550 226 551
3 553 552 226
3 110 554 555
3 558 557 110
3 556 557 558
3 227 559 560
3 227 561 563
3 561 8 562
3 561 562 563
3 175 111 7
3 228 111 175
3 228 52 111
3 113 228 24
3 229 228 113
3 229 52 228
3 229 227 52
3 230 227 229
3 230 8 227
3 230 191 8
3 231 191 230
3 231 33 191
3 115 231 53
3 232 231 115
3 232 33 231
3 232 88 33
3 233 88 232
3 233 3 88
3 233 234 3
3 235 234 233
3 235 55 234
3 117 235 54
3 236 235 117
3 236 55 235
3 236 144 55
3 237 144 236
3 237 10 144
3 179 118 9
3 238 118 179
3 238 56 118
3 120 238 26
3 239 238 120
3 239 56 238
3 239 237 56
3 240 237 239
3 240 10 237
3 240 198 10
3 241 198 240
3 241 38 198
3 122 241 57
3 242 241 122
3 242 38 241
3 242 95 38
3 218 95 242
3 218 2 95
3 564 243 565
3 566 243 567
3 568 58 569
3 570 569 243
3 568 569 570
3 244 571 572
3 244 573 575
3 573 58 574
3 573 574 575
3 244 161 58
3 245 161 244
3 245 11 161
3 246 576 577
3 246 578 579
3 124 246 27
3 247 246 124
3 247 580 582
3 582 581 246
3 580 581 582
3 247 583 585
3 583 245 584
3 583 584 585
3 248 245 247
3 248 11 245
3 248 208 11
3 249 208 248
3 249 43 208
3 126 249 59
3 250 249 126
3 250 43 249
3 250 100 43
3 251 100 250
3 251 4 100
3 252 253 0
3 254 253 252
3 254 62 253
3 586 254 587
3 588 587 61
3 586 587 588
3 589 254 590
3 591 62 592
3 593 592 254
3 591 592 593
3 595 594 62
3 596 7 597
3 598 7 599
3 600 174 601
3 602 601 7
3 600 601 602
3 603 174 604
3 605 23 606
3 607 606 174
3 605 606 607
3 255 608 609
3 255 610 612
3 610 23 611
3 610 611 612
3 255 80 23
3 252 80 255
3 252 0 80
3 614 613 1
3 185 615 617
3 617 616 13
3 615 616 617
3 256 618 620
3 620 619 185
3 618 619 620
3 256 621 622
3 129 256 30
3 623 256 624
3 625 624 129
3 623 624 625
3 627 626 256
3 219 87 2
3 257 87 219
3 257 31 87
3 132 257 49
3 258 257 132
3 258 31 257
3 258 188 31
3 259 188 258
3 259 14 188
3 190 133 6
3 260 133 190
3 260 63 133
3 135 260 32
3 261 260 135
3 261 63 260
3 261 259 63
3 628 259 629
3 630 629 261
3 628 629 630
3 631 14 632
3 633 632 259
3 631 632 633
3 635 634 14
3 637 636 64
3 253 79 0
3 262 79 253
3 262 22 79
3 136 262 62
3 638 262 639
3 640 639 136
3 638 639 640
3 641 22 642
3 643 642 262
3 641 642 643
3 645 644 22
3 647 646 8
3 137 648 649
3 263 650 652
3 652 651 137
3 650 651 652
3 263 653 654
3 263 655 657
3 655 183 656
3 655 656 657
3 264 183 263
3 264 12 183
3 194 658 660
3 658 138 659
3 658 659 660
3 265 138 194
3 265 65 138
3 140 265 36
3 266 265 140
3 266 65 265
3 266 264 65
3 267 264 266
3 267 12 264
3 267 127 12
3 268 127 267
3 268 60 127
3 142 268 66
3 269 268 142
3 269 60 268
3 269 251 60
3 270 251 269
3 270 4 251
3 234 94 3
3 271 94 234
3 271 37 94
3 145 271 55
3 272 271 145
3 272 37 271
3 272 197 37
3 273 197 272
3 273 15 197
3 199 146 10
3 274 146 199
3 274 68 146
3 148 274 39
3 275 274 148
3 275 68 274
3 275 273 68
3 276 273 275
3 276 15 273
3 276 143 15
3 277 143 276
3 277 67 143
3 150 277 69
3 278 277 150
3 278 67 277
3 278 270 67
3 279 270 278
3 279 4 270
3 279 104 4
3 280 104 279
3 280 47 104
3 152 280 70
3 281 280 152
3 281 47 280
3 281 216 47
3 282 216 281
3 282 17 216
3 203 153 16
3 283 153 203
3 283 71 153
3 155 283 41
3 284 283 155
3 284 71 283
3 284 282 71
3 285 282 284
3 285 17 282
3 285 661 663
3 663 662 17
3 661 662 663
3 665 664 285
3 667 666 72
3 668 28 669
3 159 670 671
3 286 672 674
3 674 673 159
3 672 673 674
3 286 675 677
3 675 28 676
3 675 676 677
3 286 84 28
3 287 84 286
3 287 1 84
3 243 678 680
3 678 99 679
3 678 679 680
3 288 99 243
3 288 42 99
3 162 288 58
3 289 288 162
3 289 42 288
3 289 207 42
3 290 207 289
3 290 18 207
3 209 163 11
3 291 163 209
3 291 74 163
3 165 291 44
3 292 291 165
3 292 74 291
3 292 290 74
3 293 290 292
3 293 18 290
3 293 160 18
3 294 160 293
3 294 73 160
3 167 294 75
3 295 294 167
3 295 73 294
3 295 287 73
3 296 287 295
3 296 1 287
3 296 217 1
3 681 217 682
3 683 682 296
3 681 682 683
3 685 684 217
3 687 686 76
3 213 688 690
3 690 689 19
3 688 689 690
3 692 691 213
3 694 693 46
