ply
format ascii 1.0
element vertex 533
property float x
property float y
property float z
element face 565
property list uchar int vertex_index
end_header
-56.372734 -58.544769 50.801025
-31.693153 -66.990677 53.388084
-43.988167 -62.895863 47.434593
-51.03627 -60.906868 49.464764
-29.282623 -76.265884 51.632893
-36.900009 -64.658722 48.27784
-35.113655 -75.167343 49.291267
-52.481033 -51.332165 49.960815
-59.704243 -51.395832 49.852551
-38.383617 -54.800991 49.298542
-44.84671 -52.58292 48.166451
-54.071205 -59.690575 50.454288
-28.278509 -72.792755 55.492668
-30.386305 -71.66468 52.740482
-40.319141 -63.752697 47.329033
-39.630035 -69.003937 47.795219
-49.805656 -46.939514 48.781826
-54.012787 -46.708389 49.280499
-36.026451 -56.254658 51.64119
-48.607845 -51.831539 48.946651
-62.526024 -52.045017 47.694038
-25.706051 -80.528801 49.710033
-47.628677 -61.975304 48.293869
-47.220993 -67.129433 48.161678
-50.646568 -65.835022 48.842075
-26.900736 -76.840057 53.253704
-28.345201 -80.531563 49.261917
-33.988754 -65.716232 50.359692
-32.917358 -70.689163 50.352173
-36.028374 -69.822289 48.653988
-38.740082 -74.412628 48.738979
-54.85593 -55.447693 50.87421
-57.800377 -55.387192 50.694778
-56.262386 -51.156418 50.495491
-58.139378 -46.802513 49.275806
-33.082115 -62.42033 54.109337
-35.069321 -60.935467 50.790714
-37.682793 -59.689533 48.542889
-40.849228 -58.638035 47.547562
-41.375538 -53.573799 48.170269
-44.357025 -57.716244 47.709957
-47.978943 -56.864769 48.68713
-51.536098 -56.068302 49.957664
-31.952684 -75.76078 50.268879
-56.290867 -60.148129 50.376442
-57.262058 -58.956036 50.377106
-55.372849 -59.07365 50.732574
-30.744452 -67.715706 55.134109
-29.996126 -69.966164 54.653362
-31.016977 -69.320969 53.078068
-42.14077 -63.325333 47.264442
-41.868462 -65.940659 47.378128
-43.758259 -65.51078 47.489895
-26.552221 -82.337814 47.318264
-49.370682 -61.46233 48.870979
-49.198463 -63.989853 48.650394
-50.851898 -63.364426 49.145012
-28.659777 -74.406494 53.380268
-27.562292 -74.860794 54.507454
-28.075191 -76.530907 52.419556
-27.534794 -78.556747 51.124092
-28.797377 -78.452148 50.652523
-35.369183 -65.163353 49.18251
-34.88303 -67.677429 49.236938
-36.471416 -67.21315 48.394547
-41.13839 -71.262955 48.097183
-39.211128 -71.691284 48.245743
-40.666191 -73.964996 48.596828
-53.743542 -53.456234 50.513988
-55.487122 -53.321121 50.787403
-54.397766 -51.196686 50.335823
-56.110321 -46.714394 49.384682
-57.125763 -44.524025 48.620247
-59.181335 -44.661503 48.359013
-33.729008 -60.170422 54.546555
-34.001122 -61.646683 52.337536
-34.573158 -59.352356 52.74778
-37.120441 -55.500248 50.323112
-36.718563 -57.890591 49.877037
-38.034458 -57.24427 48.880215
-39.208351 -59.143337 47.888084
-39.500465 -56.650337 48.200253
-43.063347 -53.048447 48.043755
-42.792507 -55.604126 47.759884
-44.565041 -55.14407 47.941624
-46.166008 -57.284374 48.125912
-46.387642 -54.721722 48.328209
-50.542046 -51.547779 49.466236
-50.095333 -53.98843 49.454338
-51.9384 -53.68882 50.0373
-53.238083 -55.718372 50.504944
-58.715637 -53.435043 50.374199
-33.928806 -72.854858 49.602261
-32.420883 -73.226692 50.372414
-33.467915 -75.481323 49.726082
-52.610275 -60.311886 50.012794
-29.298599 -72.207001 54.094429
-29.80932 -73.992004 52.293083
-38.560226 -64.192551 47.660744
-38.186874 -66.777176 47.807732
-39.998283 -66.357651 47.474449
-41.537521 -68.586563 47.666386
-51.139252 -49.142212 49.334572
-53.173782 -49.001858 49.710339
-51.897301 -46.782536 49.049465
-35.097134 -57.062698 53.222843
-36.482418 -53.903278 52.156971
-37.540905 -53.097042 50.819374
-45.250057 -50.039593 48.346825
-46.702171 -52.177238 48.488369
-47.151749 -49.660423 48.572056
-49.122669 -49.361816 48.926273
-60.731342 -49.322598 49.116772
-61.210079 -51.672428 48.962357
-25.011732 -78.997574 52.284782
-34.643471 -77.857727 49.429268
-45.827072 -62.450043 47.795418
-45.630295 -65.052063 47.770889
-47.452118 -64.549377 48.174759
-48.986404 -66.523438 48.494766
-27.276857 -73.428619 56.893135
-26.470261 -75.372711 55.647034
-25.717218 -77.225349 54.124237
-26.284569 -78.722725 51.666203
-27.029203 -80.482834 49.430187
-27.920752 -82.509949 47.410439
-32.766235 -66.324188 51.77726
-32.157063 -68.725922 51.615974
-33.442596 -68.179428 50.320839
-34.400673 -70.245346 49.402157
-35.57552 -72.479561 48.988255
-37.781429 -69.411812 48.119289
-37.345306 -72.094032 48.537724
-36.878769 -74.812363 48.965107
-55.759266 -57.211555 50.967381
-56.995094 -57.162827 50.83112
-56.374363 -55.323521 50.967262
-57.149986 -53.312218 50.764809
-58.042801 -51.222229 50.354694
-55.192673 -48.944126 49.959961
-57.155983 -48.974693 49.991768
-59.018372 -49.099373 49.728043
-60.042957 -46.978683 48.88343
-32.392483 -64.690048 53.723766
-33.390308 -63.965717 52.011799
-34.538391 -63.304279 50.513084
-35.845722 -62.702801 49.275219
-35.564899 -58.592564 51.176422
-36.297733 -60.284657 49.515305
-37.305954 -62.155048 48.330547
-38.899765 -61.652096 47.694122
-40.598591 -61.183086 47.363144
-42.369099 -60.736084 47.317719
-38.775188 -52.346493 49.759602
-40.180538 -51.658863 48.992451
-39.807896 -54.158367 48.581856
-41.095261 -56.104954 47.833786
-42.575554 -58.165096 47.500435
-44.177528 -60.299019 47.522682
-45.993134 -59.860783 47.930035
-47.790192 -59.412556 48.481796
-49.548004 -58.949535 49.112713
-48.237961 -54.335739 48.856903
-49.775547 -56.457035 49.323574
-51.248581 -58.473495 49.752522
-52.871845 -57.996964 50.327393
-54.389008 -57.551704 50.76025
-58.174026 -57.398384 50.263645
-31.583164 -71.160416 51.477776
-31.052813 -73.602646 51.279106
-30.564119 -76.016747 50.909882
-33.016716 -78.090179 49.639072
-31.509012 -78.252594 49.910843
-30.110617 -78.363602 50.248383
-29.686871 -80.611206 49.182423
-29.290941 -82.745499 47.632633
-28.922256 -84.778046 45.572357
-26.325304 -83.258766 46.071428
-27.035896 -83.380195 46.21076
-41.64356 -73.714905 48.55751
-40.90229 -72.613976 48.347006
-41.87966 -72.363884 48.307688
-41.363461 -75.051109 48.777517
-41.64356 -73.714905 48.55751
-56.592768 -43.401627 48.273449
-56.054329 -44.494188 48.649637
-57.667355 -43.454315 48.155102
-56.592768 -43.401627 48.273449
-34.021597 -59.046391 54.785936
-33.687565 -59.500504 55.7715
-34.443672 -58.637358 53.886549
-34.151083 -59.761389 53.647167
-34.021597 -59.046391 54.785936
-43.955028 -52.815684 48.105103
-43.251416 -51.774392 48.177969
-44.143097 -51.541628 48.239317
-59.933661 -52.533907 49.715694
-59.439357 -53.553512 49.976518
-59.20994 -52.415437 50.113375
-53.954453 -60.797331 50.222097
-53.223987 -61.107986 50.00135
-53.34074 -60.001231 50.233541
-42.500833 -68.366043 47.686898
-41.702991 -67.263611 47.522257
-42.666304 -67.043091 47.542768
-42.312995 -69.69252 47.867981
-42.500833 -68.366043 47.686898
-36.735928 -52.715452 52.43227
-36.29445 -53.165815 53.227104
-37.265171 -52.312334 51.763472
-37.011662 -53.50016 51.488173
-36.735928 -52.715452 52.43227
-45.534723 -48.783608 48.404922
-44.611683 -49.005047 48.445202
-46.485569 -48.594023 48.517538
-46.200903 -49.850008 48.45944
-45.534723 -48.783608 48.404922
-49.464163 -48.150665 48.85405
-48.446804 -48.273672 48.744171
-48.788297 -47.062521 48.671948
-61.489339 -49.484612 48.628031
-61.246588 -48.286581 48.640032
-25.028261 -80.629704 49.916449
-24.681101 -79.86409 51.203823
-25.358891 -79.763188 50.997408
-50.509731 -67.068771 48.716734
-49.679649 -67.41298 48.543079
-49.816486 -66.17923 48.66842
-27.777683 -73.110687 56.192902
-27.708225 -72.417046 57.406122
-28.209051 -72.099114 56.705889
-38.479793 -75.783249 48.946573
-37.549137 -75.983116 49.059637
-37.809426 -74.612495 48.852043
-46.295765 -67.397294 48.023497
-45.500416 -66.358609 47.828102
-46.425644 -66.090748 47.966284
-60.132156 -44.773035 48.095468
-59.715339 -43.61352 47.812468
-32.684168 -62.837771 55.078701
-33.043097 -61.732596 55.313383
-32.737299 -63.555189 53.916551
-32.339352 -63.97263 54.885915
-32.684168 -62.837771 55.078701
-39.023681 -51.111723 50.000382
-38.408127 -51.509764 50.552655
-40.778038 -52.616331 48.58136
-40.961351 -51.350141 48.754286
-41.558852 -52.307609 48.343195
-61.996334 -53.023708 48.037754
-61.338362 -52.837413 48.671914
-61.868051 -51.858722 48.328198
-33.59364 -79.302719 49.448347
-33.830094 -77.973953 49.53417
-34.407017 -79.186493 49.343445
-31.298642 -79.458095 49.540148
-32.043236 -79.44738 49.556236
-30.599445 -79.513599 49.708918
-30.809815 -78.308098 50.079613
-31.298642 -79.458095 49.540148
-30.387571 -80.637401 49.175938
-29.898744 -79.487404 49.715403
-30.599445 -79.513599 49.708918
-29.810678 -83.946747 46.900842
-29.992237 -82.855362 47.786825
-29.626335 -84.96302 45.870705
-29.106599 -83.761773 46.602495
-29.810678 -83.946747 46.900842
-56.761256 -60.510368 50.001528
-56.210841 -61.135029 50.019457
-57.246851 -59.914322 50.00186
-56.761256 -60.510368 50.001528
-56.776463 -59.552082 50.376774
-57.767822 -59.180909 49.935221
-57.246851 -59.914322 50.00186
-55.258949 -60.072231 50.493336
-54.608127 -60.380693 50.354192
-54.722027 -59.382113 50.593431
-55.717958 -60.609471 50.315269
-55.258949 -60.072231 50.493336
-55.831858 -59.610889 50.554508
-56.210841 -61.135029 50.019457
-55.717958 -60.609471 50.315269
-30.370289 -68.840935 54.893736
-29.93815 -69.231171 55.802763
-30.312314 -68.105942 56.043137
-43.611203 -66.828151 47.598652
-42.666304 -67.043091 47.542768
-42.813361 -65.725719 47.434011
-50.235821 -45.759025 48.648197
-49.193375 -45.854275 48.619475
-49.193375 -45.854275 48.619475
-48.788297 -47.062521 48.671948
-25.856623 -82.323562 47.357408
-25.433538 -81.419056 48.553293
-26.129136 -81.433307 48.514149
-25.856623 -82.323562 47.357408
-26.325304 -83.258766 46.071428
-40.394491 -75.324101 48.826386
-39.431437 -75.547916 48.897461
-39.703136 -74.188812 48.667904
-40.394491 -75.324101 48.826386
-41.363461 -75.051109 48.777517
-47.060812 -68.418473 48.213644
-47.956721 -68.090344 48.294775
-55.546608 -45.589373 49.031855
-55.061554 -46.711391 49.33259
-54.497841 -45.586371 48.979764
-56.618042 -45.619209 49.002465
-55.546608 -45.589373 49.031855
-56.054329 -44.494188 48.649637
-58.69514 -43.523054 48.024485
-58.153549 -44.592764 48.48963
-57.667355 -43.454315 48.155102
-59.715339 -43.61352 47.812468
-58.69514 -43.523054 48.024485
-33.366543 -60.607641 55.531992
-33.687565 -59.500504 55.7715
-33.405562 -61.295376 54.327946
-33.043097 -61.732596 55.313383
-33.366543 -60.607641 55.531992
-42.402756 -52.044933 48.279938
-43.251416 -51.774392 48.177969
-42.219442 -53.311123 48.107012
-41.558852 -52.307609 48.343195
-42.402756 -52.044933 48.279938
-58.928726 -54.518728 50.189762
-58.471096 -55.494802 50.350051
-58.258007 -54.411118 50.534488
-58.928726 -54.518728 50.189762
-59.439357 -53.553512 49.976518
-62.564677 -53.228155 47.256622
-63.075592 -52.27448 46.89133
-52.505832 -61.490425 49.809991
-51.71883 -61.787916 49.535977
-51.823273 -60.609377 49.738779
-52.505832 -61.490425 49.809991
-53.223987 -61.107986 50.00135
-53.954453 -60.797331 50.222097
-54.608127 -60.380693 50.354192
-28.666145 -71.727005 55.888783
-28.209051 -72.099114 56.705889
-29.524953 -70.31371 55.46913
-29.93815 -69.231171 55.802763
-29.176189 -71.434128 55.189663
-29.524953 -70.31371 55.46913
-29.647362 -71.086583 54.373896
-28.788554 -72.499878 54.793548
-28.666145 -71.727005 55.888783
-29.176189 -71.434128 55.189663
-42.11343 -71.030716 48.083379
-41.337955 -69.924759 47.881785
-42.312995 -69.69252 47.867981
-41.87966 -72.363884 48.307688
-42.11343 -71.030716 48.083379
-51.281643 -45.680537 48.782016
-50.851478 -46.861025 48.915645
-50.235821 -45.759025 48.648197
-52.355118 -45.631609 48.832414
-51.281643 -45.680537 48.782016
-53.412861 -45.594535 48.947931
-52.955044 -46.745463 49.164982
-52.355118 -45.631609 48.832414
-54.497841 -45.586371 48.979764
-53.412861 -45.594535 48.947931
-34.971632 -56.360345 54.378959
-34.70566 -57.492528 54.12408
-35.344324 -55.910728 53.482781
-34.971632 -56.360345 54.378959
-35.808983 -55.506709 52.691954
-35.561792 -56.658678 52.432017
-35.344324 -55.910728 53.482781
-36.036967 -54.331018 52.949844
-36.29445 -53.165815 53.227104
-36.254435 -55.078968 51.89908
-35.808983 -55.506709 52.691954
-36.036967 -54.331018 52.949844
-44.34477 -50.269965 48.329504
-44.611683 -49.005047 48.445202
-45.048383 -51.311256 48.256638
-44.143097 -51.541628 48.239317
-44.34477 -50.269965 48.329504
-47.461344 -48.422975 48.567063
-46.485569 -48.594023 48.517538
-48.137209 -49.511119 48.749165
-47.461344 -48.422975 48.567063
-48.446804 -48.273672 48.744171
-61.728708 -50.659527 48.550823
-60.97071 -50.497513 49.039564
-61.489339 -49.484612 48.628031
-62.38668 -50.845821 47.916664
-61.868051 -51.858722 48.328198
-61.728708 -50.659527 48.550823
-63.025532 -51.057291 47.252571
-62.38668 -50.845821 47.916664
-63.075592 -52.27448 46.89133
-63.025532 -51.057291 47.252571
-24.351018 -79.211037 52.635999
-24.750149 -78.358375 53.655256
-24.351018 -79.211037 52.635999
-24.681101 -79.86409 51.203823
-25.028261 -80.629704 49.916449
-25.433538 -81.419056 48.553293
-35.513666 -77.701957 49.350866
-34.878563 -76.512535 49.360267
-35.748759 -76.356765 49.281866
-35.256213 -79.062195 49.372208
-35.513666 -77.701957 49.350866
-34.407017 -79.186493 49.343445
-35.256213 -79.062195 49.372208
-48.839426 -67.787346 48.461319
-47.956721 -68.090344 48.294775
-48.103699 -66.826436 48.328222
-48.839426 -67.787346 48.461319
-49.679649 -67.41298 48.543079
-51.626644 -63.016695 49.3761
-50.944084 -62.135647 49.304888
-51.71883 -61.787916 49.535977
-51.521476 -64.210175 49.154139
-51.626644 -63.016695 49.3761
-51.418812 -65.445472 49.00267
-50.749233 -64.599724 48.993544
-51.521476 -64.210175 49.154139
-51.287647 -66.642959 48.784763
-51.418812 -65.445472 49.00267
-50.509731 -67.068771 48.716734
-51.287647 -66.642959 48.784763
-27.238701 -72.813789 58.202163
-27.708225 -72.417046 57.406122
-26.760518 -73.775993 57.578012
-27.238701 -72.813789 58.202163
-26.35722 -74.748039 56.954962
-26.760518 -73.775993 57.578012
-26.873559 -74.400665 56.270084
-25.905012 -75.66748 56.213313
-26.35722 -74.748039 56.954962
-25.52849 -76.593799 55.451914
-25.905012 -75.66748 56.213313
-26.093739 -76.29903 54.885635
-25.102892 -77.472263 54.574984
-25.52849 -76.593799 55.451914
-25.364475 -78.111461 53.20451
-24.750149 -78.358375 53.655256
-25.102892 -77.472263 54.574984
-27.720161 -83.466263 46.256847
-27.035896 -83.380195 46.21076
-27.236486 -82.423881 47.364351
-36.631315 -76.179276 49.118786
-35.748759 -76.356765 49.281866
-35.996212 -74.989853 49.128187
-36.631315 -76.179276 49.118786
-37.549137 -75.983116 49.059637
-38.479793 -75.783249 48.946573
-39.431437 -75.547916 48.897461
-44.564398 -66.587967 47.687605
-44.694277 -65.281421 47.630392
-45.500416 -66.358609 47.828102
-43.611203 -66.828151 47.598652
-44.564398 -66.587967 47.687605
-46.295765 -67.397294 48.023497
-47.060812 -68.418473 48.213644
-60.902395 -47.114624 48.523361
-61.246588 -48.286581 48.640032
-60.387149 -48.15064 49.000101
-60.562967 -45.931625 48.357677
-59.612146 -45.820093 48.621221
-60.132156 -44.773035 48.095468
-60.902395 -47.114624 48.523361
-60.562967 -45.931625 48.357677
-30.738805 -67.018364 56.33902
-30.312314 -68.105942 56.043137
-31.132199 -66.596142 55.361921
-30.738805 -67.018364 56.33902
-31.606549 -66.233628 54.488909
-31.218802 -67.353192 54.261097
-31.132199 -66.596142 55.361921
-31.956214 -65.083313 54.65675
-32.339352 -63.97263 54.885915
-32.042818 -65.840362 53.555925
-31.606549 -66.233628 54.488909
-31.956214 -65.083313 54.65675
-34.835146 -58.207527 52.985311
-34.443672 -58.637358 53.886549
-34.70566 -57.492528 54.12408
-37.790985 -51.885039 51.082541
-37.265171 -52.312334 51.763472
-38.158046 -52.721767 50.289488
-37.790985 -51.885039 51.082541
-38.408127 -51.509764 50.552655
-40.4305 -50.405931 49.200737
-40.961351 -51.350141 48.754286
-39.726356 -50.767908 49.616806
-40.4305 -50.405931 49.200737
-39.477863 -52.002678 49.376027
-39.023681 -51.111723 50.000382
-39.726356 -50.767908 49.616806
-58.223806 -58.402082 49.87849
-57.767822 -59.180909 49.935221
-57.718042 -58.17721 50.320375
-58.657921 -56.500399 50.134485
-57.987201 -56.392788 50.479211
-58.471096 -55.494802 50.350051
-58.74489 -57.565252 49.759689
-58.657921 -56.500399 50.134485
-58.223806 -58.402082 49.87849
-58.74489 -57.565252 49.759689
-60.686578 -52.672205 49.270597
-59.933661 -52.533907 49.715694
-60.457161 -51.53413 49.407454
-60.686578 -52.672205 49.270597
-61.338362 -52.837413 48.671914
-61.996334 -53.023708 48.037754
-62.564677 -53.228155 47.256622
-32.797089 -79.366173 49.420351
-33.59364 -79.302719 49.448347
-32.262864 -78.171387 49.774957
-32.797089 -79.366173 49.420351
-32.043236 -79.44738 49.556236
-30.190202 -81.788216 48.56172
-30.387571 -80.637401 49.175938
-29.488906 -81.678352 48.407528
-30.190202 -81.788216 48.56172
-29.992237 -82.855362 47.786825
-28.220914 -84.600312 45.337806
-27.720161 -83.466263 46.256847
-28.421504 -83.643998 46.491398
-29.461456 -86.00267 44.71584
-29.626335 -84.96302 45.870705
-28.748911 -85.762978 44.30538
-29.461456 -86.00267 44.71584
-29.288111 -86.987603 43.448863
-28.220914 -84.600312 45.337806
-28.748911 -85.762978 44.30538
3 0 45 44
3 0 44 46
3 1 49 47
3 2 52 50
3 178 177 53
3 3 56 54
3 4 59 57
3 4 61 59
3 5 64 62
3 179 67 180
3 181 180 65
3 179 180 181
3 183 182 67
3 7 70 68
3 184 72 185
3 187 186 72
3 188 74 189
3 190 76 191
3 192 191 74
3 190 191 192
3 9 79 77
3 9 81 79
3 10 193 195
3 193 82 194
3 193 194 195
3 10 84 82
3 10 86 84
3 7 89 87
3 7 68 89
3 8 196 198
3 198 197 91
3 196 197 198
3 6 94 92
3 11 199 201
3 201 200 95
3 199 200 201
3 13 96 48
3 13 97 96
3 14 100 98
3 202 101 203
3 204 203 51
3 202 203 204
3 206 205 101
3 16 104 102
3 207 106 208
3 209 107 210
3 211 210 106
3 209 210 211
3 212 108 213
3 214 110 215
3 216 215 108
3 214 215 216
3 16 217 219
3 217 111 218
3 217 218 219
3 16 102 111
3 221 220 112
3 21 222 224
3 224 223 114
3 222 223 224
3 22 118 116
3 24 119 55
3 24 225 227
3 227 226 119
3 225 226 227
3 12 228 230
3 228 120 229
3 228 229 230
3 25 121 58
3 25 122 121
3 25 123 122
3 26 124 60
3 26 125 124
3 27 128 126
3 29 129 63
3 29 130 129
3 15 131 99
3 30 132 66
3 30 133 132
3 30 231 233
3 233 232 133
3 231 232 233
3 23 234 236
3 236 235 117
3 234 235 236
3 31 136 134
3 33 137 69
3 33 138 137
3 17 139 103
3 34 140 71
3 34 141 140
3 34 142 141
3 238 237 73
3 35 239 240
3 35 241 243
3 241 143 242
3 241 242 243
3 35 144 143
3 36 145 75
3 36 146 145
3 18 147 105
3 37 148 78
3 37 149 148
3 37 150 149
3 38 151 80
3 38 152 151
3 244 153 245
3 39 246 248
3 246 154 247
3 246 247 248
3 39 155 154
3 39 156 155
3 40 157 83
3 40 158 157
3 40 159 158
3 41 160 85
3 41 161 160
3 19 162 109
3 42 163 88
3 42 164 163
3 42 165 164
3 31 166 90
3 31 134 166
3 32 167 135
3 20 249 251
3 251 250 113
3 249 250 251
3 28 168 127
3 43 169 93
3 43 170 169
3 252 171 253
3 254 253 115
3 252 253 254
3 255 172 256
3 257 173 258
3 259 258 172
3 257 258 259
3 260 174 261
3 262 261 173
3 260 261 262
3 263 175 264
3 265 176 266
3 267 266 175
3 265 266 267
3 44 268 269
3 45 270 272
3 272 271 44
3 270 271 272
3 45 273 274
3 46 275 277
3 277 276 11
3 275 276 277
3 44 278 280
3 280 279 46
3 278 279 280
3 44 281 282
3 47 283 285
3 283 48 284
3 283 284 285
3 49 48 47
3 49 13 48
3 50 51 14
3 52 51 50
3 52 286 288
3 288 287 51
3 286 287 288
3 290 289 16
3 291 16 292
3 53 293 295
3 295 294 21
3 293 294 295
3 297 296 53
3 54 55 22
3 56 55 54
3 56 24 55
3 57 58 12
3 59 58 57
3 59 25 58
3 59 60 25
3 61 60 59
3 61 26 60
3 62 63 27
3 64 63 62
3 64 29 63
3 65 66 15
3 67 66 65
3 67 30 66
3 67 298 300
3 300 299 30
3 298 299 300
3 302 301 67
3 304 303 23
3 68 69 31
3 70 69 68
3 70 33 69
3 305 71 306
3 307 306 17
3 305 306 307
3 72 308 310
3 308 71 309
3 308 309 310
3 72 34 71
3 72 73 34
3 311 73 312
3 313 312 72
3 311 312 313
3 315 314 73
3 74 316 317
3 74 318 320
3 318 35 319
3 318 319 320
3 74 75 35
3 76 75 74
3 76 36 75
3 77 78 18
3 79 78 77
3 79 37 78
3 79 80 37
3 81 80 79
3 81 38 80
3 82 321 322
3 82 323 325
3 323 39 324
3 323 324 325
3 82 83 39
3 84 83 82
3 84 40 83
3 84 85 40
3 86 85 84
3 86 41 85
3 87 88 19
3 89 88 87
3 89 42 88
3 89 90 42
3 68 90 89
3 68 31 90
3 91 326 328
3 328 327 32
3 326 327 328
3 330 329 91
3 332 331 20
3 92 93 28
3 94 93 92
3 94 43 93
3 95 333 335
3 335 334 3
3 333 334 335
3 337 336 95
3 339 338 11
3 340 12 341
3 48 342 343
3 96 344 346
3 346 345 48
3 344 345 346
3 96 347 349
3 347 12 348
3 347 348 349
3 96 57 12
3 97 57 96
3 97 4 57
3 98 99 5
3 100 99 98
3 100 15 99
3 51 100 14
3 101 100 51
3 101 15 100
3 101 65 15
3 350 65 351
3 352 351 101
3 350 351 352
3 354 353 65
3 102 103 7
3 104 103 102
3 104 17 103
3 355 104 356
3 357 356 16
3 355 356 357
3 358 104 359
3 360 17 361
3 362 361 104
3 360 361 362
3 364 363 17
3 365 105 366
3 367 105 368
3 369 18 370
3 371 370 105
3 369 370 371
3 106 372 373
3 106 374 376
3 374 18 375
3 374 375 376
3 106 77 18
3 107 77 106
3 107 9 77
3 108 377 378
3 108 379 381
3 379 10 380
3 379 380 381
3 108 109 10
3 110 109 108
3 110 19 109
3 382 110 383
3 111 384 386
3 384 110 385
3 384 385 386
3 111 19 110
3 111 87 19
3 102 87 111
3 102 7 87
3 112 113 8
3 387 113 388
3 389 388 112
3 387 388 389
3 390 20 391
3 392 391 113
3 390 391 392
3 393 20 394
3 396 395 20
3 114 397 398
3 400 399 114
3 402 401 21
3 403 115 404
3 405 404 6
3 403 404 405
3 406 115 407
3 409 408 115
3 116 117 2
3 118 117 116
3 118 23 117
3 55 118 22
3 119 118 55
3 119 23 118
3 119 410 412
3 412 411 23
3 410 411 412
3 414 413 119
3 415 56 416
3 417 416 3
3 415 416 417
3 418 56 419
3 420 24 421
3 422 421 56
3 420 421 422
3 423 24 424
3 426 425 24
3 120 427 428
3 120 429 430
3 58 120 12
3 121 120 58
3 121 431 433
3 433 432 120
3 431 432 433
3 121 434 435
3 122 436 438
3 438 437 121
3 436 437 438
3 122 439 440
3 122 441 443
3 441 114 442
3 441 442 443
3 123 114 122
3 123 21 114
3 60 123 25
3 124 123 60
3 124 21 123
3 124 53 21
3 125 53 124
3 125 444 446
3 446 445 53
3 444 445 446
3 126 127 1
3 128 127 126
3 128 28 127
3 63 128 27
3 129 128 63
3 129 28 128
3 129 92 28
3 130 92 129
3 130 6 92
3 99 64 5
3 131 64 99
3 131 29 64
3 66 131 15
3 132 131 66
3 132 29 131
3 132 130 29
3 133 130 132
3 133 6 130
3 133 447 449
3 449 448 6
3 447 448 449
3 451 450 133
3 453 452 30
3 117 52 2
3 454 52 455
3 456 455 117
3 454 455 456
3 458 457 52
3 460 459 23
3 134 135 0
3 136 135 134
3 136 32 135
3 69 136 31
3 137 136 69
3 137 32 136
3 137 91 32
3 138 91 137
3 138 8 91
3 103 70 7
3 139 70 103
3 139 33 70
3 71 139 17
3 140 139 71
3 140 33 139
3 140 138 33
3 141 138 140
3 141 8 138
3 141 112 8
3 142 112 141
3 142 461 463
3 463 462 112
3 461 462 463
3 73 142 34
3 464 142 465
3 466 465 73
3 464 465 466
3 468 467 142
3 469 47 470
3 471 47 472
3 473 1 474
3 475 474 47
3 473 474 475
3 143 476 477
3 143 478 480
3 478 1 479
3 478 479 480
3 143 126 1
3 144 126 143
3 144 27 126
3 75 144 35
3 145 144 75
3 145 27 144
3 145 62 27
3 146 62 145
3 146 5 62
3 105 481 483
3 481 76 482
3 481 482 483
3 147 76 105
3 147 36 76
3 78 147 18
3 148 147 78
3 148 36 147
3 148 146 36
3 149 146 148
3 149 5 146
3 149 98 5
3 150 98 149
3 150 14 98
3 80 150 37
3 151 150 80
3 151 14 150
3 151 50 14
3 152 50 151
3 152 2 50
3 484 107 485
3 153 486 488
3 486 107 487
3 486 487 488
3 153 9 107
3 154 489 490
3 154 491 492
3 154 493 495
3 493 153 494
3 493 494 495
3 155 153 154
3 155 9 153
3 155 81 9
3 156 81 155
3 156 38 81
3 83 156 39
3 157 156 83
3 157 38 156
3 157 152 38
3 158 152 157
3 158 2 152
3 158 116 2
3 159 116 158
3 159 22 116
3 85 159 40
3 160 159 85
3 160 22 159
3 160 54 22
3 161 54 160
3 161 3 54
3 109 86 10
3 162 86 109
3 162 41 86
3 88 162 19
3 163 162 88
3 163 41 162
3 163 161 41
3 164 161 163
3 164 3 161
3 164 95 3
3 165 95 164
3 165 11 95
3 90 165 42
3 166 165 90
3 166 11 165
3 166 46 11
3 134 46 166
3 134 0 46
3 135 45 0
3 167 45 135
3 167 496 498
3 498 497 45
3 496 497 498
3 499 167 500
3 501 500 32
3 499 500 501
3 502 167 503
3 505 504 167
3 113 506 508
3 508 507 8
3 506 507 508
3 510 509 113
3 512 511 20
3 127 49 1
3 168 49 127
3 168 13 49
3 93 168 28
3 169 168 93
3 169 13 168
3 169 97 13
3 170 97 169
3 170 4 97
3 115 94 6
3 171 94 115
3 171 43 94
3 513 171 514
3 172 515 517
3 515 171 516
3 515 516 517
3 172 43 171
3 172 170 43
3 173 170 172
3 173 4 170
3 173 61 4
3 174 61 173
3 174 26 61
3 518 174 519
3 175 520 522
3 520 174 521
3 520 521 522
3 175 26 174
3 175 125 26
3 176 125 175
3 176 523 525
3 525 524 125
3 523 524 525
3 526 176 527
3 528 176 529
3 528 529 530
3 532 531 176
