ply
format ascii 1.0
element vertex 709
property float x
property float y
property float z
element face 848
property list uchar int vertex_index
end_header
-21.744354 68.285019 27.943163
-29.345049 75.217224 8.430552
-12.786459 85.963272 -13.172527
-38.110943 56.683262 30.259901
-43.842224 58.408619 10.793076
-24.534115 48.004314 44.954773
-25.331202 72.247284 18.817657
-19.167206 81.825668 9.357538
-29.067476 62.339397 28.429033
-34.579445 66.566422 19.66963
-33.646557 42.445 47.799778
-31.012531 72.238113 -19.451118
-33.563477 75.587555 -2.007519
-26.274776 79.937592 -12.695824
-21.97467 82.212433 -2.672215
-41.6082 59.112568 21.023319
-38.094154 68.501068 9.777433
-31.356678 52.763752 38.396225
-22.639645 59.493732 36.346397
-19.066563 69.044998 30.794716
-23.315058 70.143051 23.836004
-21.004274 75.286636 19.966938
-24.844154 65.368927 27.902725
-27.465372 67.245529 23.512409
-31.348843 75.7659 3.183813
-27.971775 78.902847 -2.53882
-25.95545 78.910904 2.809823
-15.19635 85.749695 4.488087
-41.60305 53.154545 30.569351
-42.973057 54.029758 25.913298
-40.336105 58.242062 25.780804
-32.188038 71.124878 14.08439
-36.492947 67.990753 14.899585
-34.132481 72.165207 9.056622
-36.075008 72.364182 3.833848
-29.061016 44.949375 46.373817
-32.439713 47.787487 43.128723
-27.790401 50.532063 41.825935
-26.769913 55.729771 37.244133
-23.408756 53.989567 40.704948
-19.492626 58.52869 40.102226
-19.321136 83.177872 -13.208656
-21.549538 80.398224 -17.445999
-14.451715 83.260864 -18.195358
-44.717354 53.704258 16.180542
-27.378868 74.022812 13.647836
-24.211105 78.371033 8.396294
-22.57547 77.194748 14.146252
-17.982933 80.42038 15.829163
-33.70863 59.594883 29.397369
-36.56522 61.667294 25.099186
-32.070053 64.498016 24.139626
-29.976942 69.368607 18.880859
-32.866352 76.29567 -12.086287
-30.323353 78.181503 -7.552744
-23.931526 81.514999 -8.002705
-17.490376 84.781891 -7.988592
-20.44178 82.340637 3.152995
-16.164055 85.624069 -2.024689
-11.671747 87.604385 -7.131792
-43.726788 54.20525 21.102509
-42.50499 59.135349 15.97814
-38.572788 63.270756 20.528088
-39.906624 64.019257 15.587219
-41.183334 63.834835 10.336519
-39.863743 68.061081 4.446878
-38.267921 71.621796 -1.413443
-39.196114 51.763477 35.073055
-36.869461 45.047024 43.954002
-35.962631 50.007061 39.331505
-34.961147 54.786503 34.497219
-30.299015 57.546192 33.476051
-25.863949 60.637424 32.515602
-22.105007 64.434341 31.834614
-19.070847 64.235077 35.652496
-28.741987 76.934387 -16.564514
-23.869219 76.00032 -20.513866
-20.853355 70.205612 26.92576
-19.284784 71.001465 28.251692
-20.548176 68.630341 29.174171
-22.425907 69.118286 26.122498
-21.469631 71.489746 24.51614
-23.079737 66.942795 27.872478
-24.174849 67.719162 25.798626
-30.329901 75.574005 5.807246
-28.701609 77.322556 2.933846
-27.723621 77.107742 5.608519
-40.00938 55.011173 30.497423
-41.042755 55.695988 28.233738
-39.35548 57.527958 28.051094
-30.828945 73.227921 11.260568
-33.180122 71.745499 11.600941
-31.817278 73.721207 8.702879
-32.805561 74.030457 6.112
-26.765606 46.361721 45.610672
-28.392807 47.789616 44.090096
-26.114897 49.298977 43.399956
-25.546442 52.136005 41.207672
-23.922943 51.05077 42.826218
-21.839722 53.089283 42.419048
-15.950333 84.658081 -13.290766
-16.89053 83.454315 -15.729008
-13.552179 84.767838 -15.833336
-44.288399 56.079258 13.553459
-45.175259 55.568981 11.037495
-26.364517 73.197617 16.239447
-24.953835 75.568558 13.754816
-24.034365 74.742371 16.492809
-19.578789 77.893356 17.939466
-17.421532 79.32486 19.116306
-31.375015 60.952053 28.888458
-32.943108 62.038876 26.776779
-30.612122 63.390308 26.303965
-26.472084 69.740295 21.146454
-28.749203 68.319687 21.215023
-27.626791 70.775192 18.719967
-28.744905 71.731125 16.264519
-42.568233 64.831818 2.101405
-33.289139 76.389587 -7.273792
-32.043655 76.96907 -4.826382
-24.984402 80.530014 -2.681458
-26.033253 80.292648 -5.305302
-22.896294 81.944656 -5.407232
-20.672699 83.15979 -8.079908
-19.782854 83.625244 -5.349087
-21.663216 80.084839 8.739138
-22.399851 80.414291 5.76923
-19.785524 82.178528 6.214566
-15.650721 85.787643 1.173127
-13.917871 86.822479 -4.586248
-42.355316 56.581379 23.541901
-43.377388 54.209415 23.526958
-42.765476 56.732998 21.107021
-43.151634 56.68697 18.618406
-42.050323 59.228214 18.531637
-35.623951 64.143738 22.410408
-37.677357 62.558559 22.855669
-36.682796 65.015045 20.126301
-37.302677 68.365417 12.377981
-38.318207 66.129166 15.278785
-39.012711 66.329117 12.714499
-40.507294 64.03894 12.98862
-39.727898 66.290405 10.079214
-40.534515 66.022018 7.404638
-38.931141 68.398926 7.122625
-34.898647 74.052643 0.886789
-37.13203 72.119888 1.199094
-36.040054 73.722137 -1.70706
-41.190857 47.50983 37.26799
-40.918446 50.01553 35.094734
-39.586899 49.31216 37.356575
-35.80233 41.145813 48.253143
-37.31559 42.429707 46.21315
-35.257385 43.860229 45.956062
-31.884945 50.312916 40.779343
-34.204048 48.968739 41.300655
-33.695229 51.402409 38.926682
-35.482697 52.404583 36.947361
-33.180939 53.790646 36.500114
-32.63884 56.16267 34.011902
-30.836382 55.165363 35.96257
-24.632099 57.488674 36.750088
-26.315517 58.211079 34.892265
-24.248632 60.013645 34.458241
-23.882959 62.441822 32.156773
-22.350763 62.044567 34.09127
-20.618031 64.303238 33.725929
-20.794317 61.750652 36.003693
-17.991072 57.999668 42.068584
-17.681862 61.159443 39.919113
-29.658247 78.185562 -12.383175
-30.91917 76.793488 -14.402124
-27.514166 78.644104 -14.745682
-22.718832 78.414185 -19.130569
-17.460646 69.415482 32.622963
-24.301916 71.210968 21.365644
-23.123926 73.771088 19.225431
-22.252705 72.678162 21.9203
-26.866173 63.809856 28.087357
-28.324154 64.776947 25.93996
-26.1567 66.23053 25.754986
-25.310226 68.692993 23.52409
-32.423031 75.779572 0.573436
-30.85643 77.28392 -2.297367
-29.742022 77.388351 0.294341
-26.921129 78.977509 0.100297
-24.037416 80.622208 0.04731
-17.238396 83.908875 6.927674
-42.834229 51.109608 30.477312
-43.420673 51.465809 28.140926
-42.406815 53.671238 28.260044
-41.809635 56.230175 25.916931
-41.067772 58.780399 23.440311
-33.435131 68.901505 16.890661
-35.601608 67.383621 17.329647
-34.436531 69.632919 14.48234
-35.353897 70.153748 11.993704
-36.233433 70.449692 9.429624
-37.127079 70.514999 6.807064
-35.084652 72.374512 6.461324
-33.82457 74.146515 3.500561
-31.374733 43.678513 47.140656
-33.028664 45.168789 45.465004
-30.716278 46.445164 44.811722
-30.105677 49.11208 42.495102
-29.546146 51.684811 40.169704
-29.026934 54.1777 37.811058
-27.253965 53.175716 39.552551
-25.057308 54.865147 38.999435
-22.986153 56.806164 38.552826
-21.048853 59.016285 38.212349
-21.392805 56.123486 40.343426
-19.868202 55.417927 42.181442
-22.796949 81.595764 -12.989065
-23.978292 80.362137 -15.115414
-20.402431 81.968811 -15.465078
-17.935179 81.918121 -17.874786
-28.368742 74.699326 11.045097
-26.787436 76.748001 8.307953
-25.869984 76.237259 11.024853
-23.387682 77.871048 11.254923
-20.951624 79.569672 11.767026
-21.775095 76.333038 17.058012
-20.255013 78.844376 14.840137
-18.568092 81.24852 12.568107
-35.982822 58.194897 29.877556
-37.396233 59.171627 27.720287
-35.23262 60.656612 27.275333
-34.372349 63.127956 24.62104
-33.401363 65.582932 21.933214
-29.740894 65.85144 23.741581
-31.083149 66.949951 21.504948
-32.319748 67.990112 19.226282
-31.125147 70.321335 16.507805
-29.811277 72.559097 13.780149
-29.779018 42.019867 48.693089
-27.485455 43.34074 47.866856
-25.232464 44.873943 47.126823
-9.924095 86.98494 -12.802464
-43.411339 60.665577 7.937777
-44.822136 57.821033 8.238251
-31.587093 77.416016 -9.892088
-28.397707 79.189072 -10.176632
-29.109858 78.655212 -5.094921
-27.178141 79.867142 -7.809702
-25.067308 80.869949 -10.439726
-21.683685 82.503708 -10.634926
-18.342806 84.09407 -10.706007
-15.139723 85.591324 -10.596264
-25.059616 78.711731 5.578476
-23.182844 80.585922 2.868203
-21.162632 82.344696 0.186112
-17.771162 84.10257 3.690413
-18.353315 84.101044 0.554413
-19.014954 83.936417 -2.464525
-16.768501 85.286041 -5.086092
-14.465956 86.303818 -7.683193
-12.162998 86.8974 -10.257421
-43.832207 51.66605 25.787817
-44.139118 54.028973 18.648224
-43.628643 56.460552 16.091957
-43.077435 58.854069 13.387161
-38.573563 60.051495 25.501616
-39.50407 60.776707 23.209578
-40.216675 61.301899 20.832327
-37.565086 65.687485 17.751572
-39.29187 63.763561 18.105145
-40.778748 61.602184 18.365553
-41.285191 61.67371 15.816801
-41.839428 61.528263 13.206504
-42.530552 61.185421 10.566566
-42.003021 63.422787 7.668139
-41.478409 65.533157 4.730352
-40.916641 67.488083 1.789378
-38.080952 70.344955 4.152116
-39.125095 69.931793 1.497
-42.007507 50.618763 32.796902
-40.529076 52.509403 32.842247
-38.708649 54.214893 32.710449
-38.781815 43.469391 44.027916
-38.436874 46.025928 41.814873
-34.722916 46.462223 43.638969
-36.420383 47.564297 41.662331
-38.064693 48.503048 39.556999
-37.651146 50.931126 37.245193
-37.178459 53.340504 34.866451
-36.627789 55.756634 32.410969
-34.376347 57.178074 31.977503
-32.044392 58.544247 31.467709
-29.717842 59.931789 30.953764
-28.526819 56.613102 35.40538
-28.019081 59.01659 32.959621
-27.47542 61.410267 30.504398
-25.386045 63.020535 30.162306
-23.508905 64.759369 29.920403
-21.897568 66.591904 29.688126
-20.522825 66.627243 31.424725
-19.010986 66.773468 33.264668
-19.230293 61.476147 37.93325
-29.918455 74.790039 -18.134304
-25.184669 78.735931 -16.988743
-26.372671 76.678162 -18.591518
-27.506195 74.192688 -19.921207
-46.269348 54.950336 8.586231
-23.465258 48.969723 44.717255
-23.159672 50.49295 43.652977
-24.228529 49.527542 43.890496
-17.163771 78.639595 20.755695
-18.18273 78.017243 20.075715
-16.351654 79.926949 19.833696
-17.163771 78.639595 20.755695
-31.507666 70.792678 -19.9906
-32.664663 71.192307 -19.272499
-29.786501 71.783554 -20.223434
-31.507666 70.792678 -19.9906
-43.168829 64.379473 0.83446
-42.324858 65.756248 0.647771
-32.803566 76.278312 -3.41695
-33.405872 76.059181 -4.682826
-34.165783 75.368424 -3.273395
-34.165783 75.368424 -3.273395
-35.404072 74.435715 -3.123165
-34.801766 74.654846 -1.857289
-40.544832 47.172134 38.420761
-41.278881 46.237324 38.321079
-39.742854 48.073299 38.465053
-40.388878 48.410995 37.312282
-40.544832 47.172134 38.420761
-17.082997 59.382221 42.033891
-17.277585 57.708286 43.11307
-18.346678 70.352058 30.34754
-18.455788 71.330292 29.076028
-19.175673 70.023232 29.523204
-18.263604 69.23024 31.708839
-17.54372 70.537301 31.261663
-18.346678 70.352058 30.34754
-20.883489 72.775368 23.674677
-20.586792 72.069801 25.06053
-20.116166 53.794556 43.19709
-20.853962 54.253605 42.300245
-21.101926 52.630234 43.315893
-19.148542 55.052098 43.155109
-20.116166 53.794556 43.19709
-14.955637 82.32518 -19.208086
-16.697369 81.653808 -19.0478
-16.193447 82.589493 -18.035072
-45.26854 52.307625 16.220522
-44.894438 52.501602 17.411696
-17.107236 81.605652 14.736895
-17.399816 82.019722 13.106367
-18.275512 80.83445 14.198635
-30.147665 40.515894 49.865458
-30.921166 41.416204 49.089323
-26.738357 42.514427 48.613716
-27.865296 41.798334 49.019911
-25.611861 43.281028 48.2437
-26.35896 44.107341 47.49684
-26.738357 42.514427 48.613716
-24.514012 44.132959 47.921762
-25.611861 43.281028 48.2437
-8.869549 86.745812 -14.051872
-8.68411 87.293953 -12.475946
-43.946731 60.325847 6.652596
-43.203715 61.741504 6.482774
-10.581606 87.745155 -8.394545
-10.827231 87.391662 -9.95736
-11.917372 87.250892 -8.694607
-43.947672 52.952393 22.260098
-43.772972 52.954475 23.472322
-43.552088 54.207332 22.314734
-44.136242 52.888054 21.067929
-43.947672 52.952393 22.260098
-43.932953 54.117112 19.875366
-44.342407 52.799915 19.840787
-44.136242 52.888054 21.067929
-39.267038 70.44381 -1.267334
-39.695625 69.598808 0.187888
-38.696508 70.776794 0.041779
-38.871376 71.235573 -2.691287
-39.267038 70.44381 -1.267334
-42.134113 49.347347 33.863717
-42.545713 49.578263 32.69
-18.245756 65.566086 35.429626
-18.215826 66.835281 34.235713
-19.040917 65.504272 34.458582
-17.588105 62.64712 38.77905
-16.801078 62.550766 39.812883
-33.493887 75.536499 -13.094729
-34.353544 75.259087 -11.95037
-30.440604 75.956322 -16.385124
-31.529196 75.885872 -15.303929
-29.830579 76.863937 -15.483319
-29.330221 75.862213 -17.349409
-31.028838 74.884147 -17.170019
-30.440604 75.956322 -16.385124
-24.419181 74.592758 -21.063383
-26.237669 73.688942 -20.767053
-25.687707 75.096504 -20.217537
-46.122982 56.029327 7.178801
-45.545742 56.385684 8.412241
-45.399376 57.464675 7.004811
-20.069069 70.603538 27.588726
-19.494369 71.825661 26.928306
-20.278654 71.427734 26.265339
-20.278654 71.427734 26.265339
-20.586792 72.069801 25.06053
-21.161493 70.847679 25.72095
-22.118062 51.512207 43.449392
-22.881332 52.070026 42.622633
-23.159672 50.49295 43.652977
-21.101926 52.630234 43.315893
-22.118062 51.512207 43.449392
-44.905887 54.669144 13.638827
-45.120365 53.481644 14.952369
-44.502876 54.891758 14.867
-45.349317 54.414005 12.380845
-44.905887 54.669144 13.638827
-44.731829 55.82412 12.295477
-45.866373 54.143352 11.174715
-45.349317 54.414005 12.380845
-19.261359 77.30149 19.487295
-20.291531 76.589996 18.953202
-19.974101 75.998131 20.501031
-18.50016 78.609108 18.527886
-19.261359 77.30149 19.487295
-18.18273 78.017243 20.075715
-16.582891 80.567521 18.10191
-16.863591 81.11528 16.458338
-17.702233 79.87262 17.472735
-16.582891 80.567521 18.10191
-16.351654 79.926949 19.833696
-43.355611 63.431792 2.283127
-42.782162 63.824625 3.564588
-43.355611 63.431792 2.283127
-43.168829 64.379473 0.83446
-34.028614 75.76944 -5.906531
-34.655152 75.40419 -7.135224
-32.666397 76.679328 -6.050087
-34.028614 75.76944 -5.906531
-33.405872 76.059181 -4.682826
-14.369462 86.526245 1.609536
-15.423535 85.768669 2.830607
-14.142277 86.507271 3.267016
-14.560235 86.468368 -0.080985
-14.369462 86.526245 1.609536
-14.816902 86.386582 -1.679893
-15.907388 85.705856 -0.425781
-14.560235 86.468368 -0.080985
-13.69381 86.985787 -2.960673
-15.040963 86.223274 -3.305468
-14.816902 86.386582 -1.679893
-12.602569 87.459473 -4.210135
-13.69381 86.985787 -2.960673
-11.479508 87.850426 -5.482907
-12.794809 87.213432 -5.85902
-12.602569 87.459473 -4.210135
-10.421459 88.075042 -6.726285
-11.479508 87.850426 -5.482907
-36.64294 73.42202 -2.980681
-37.756874 72.371849 -2.833872
-37.153987 72.671966 -1.560252
-36.64294 73.42202 -2.980681
-35.404072 74.435715 -3.123165
-41.785729 46.506687 37.126236
-41.278881 46.237324 38.321079
-41.725788 47.792881 36.09926
-41.785729 46.506687 37.126236
-41.054652 48.76268 36.181362
-41.589583 49.045731 35.012633
-41.725788 47.792881 36.09926
-36.55896 41.78776 47.233147
-37.536366 41.061178 47.32217
-36.779736 40.419231 48.342167
-16.928393 60.962108 40.959156
-17.836467 59.579555 40.993848
-17.082997 59.382221 42.033891
-16.801078 62.550766 39.812883
-16.928393 60.962108 40.959156
-20.882647 79.203797 -19.41539
-22.134185 79.406205 -18.288284
-20.298001 80.195816 -18.573105
-21.450541 78.031959 -20.162167
-20.882647 79.203797 -19.41539
-22.025735 76.825027 -20.853815
-23.294026 77.207253 -19.822218
-21.450541 78.031959 -20.162167
-22.586997 75.448326 -21.440479
-22.025735 76.825027 -20.853815
-18.609969 72.306984 27.651097
-19.494369 71.825661 26.928306
-18.609969 72.306984 27.651097
-18.455788 71.330292 29.076028
-16.678054 70.785309 32.188879
-17.54372 70.537301 31.261663
-16.623269 69.539612 33.606751
-16.678054 70.785309 32.188879
-21.275026 73.369575 22.376757
-21.861168 72.083954 23.21822
-20.883489 72.775368 23.674677
-20.650811 74.673812 21.400076
-21.62849 73.982399 20.943619
-21.275026 73.369575 22.376757
-19.974101 75.998131 20.501031
-20.650811 74.673812 21.400076
-32.14712 72.492179 -18.611752
-32.664663 71.192307 -19.272499
-16.984095 83.695801 8.589408
-18.202801 82.867271 8.142606
-17.9485 82.654197 9.80434
-16.004774 84.691429 7.415517
-16.984095 83.695801 8.589408
-14.983751 85.61184 6.195724
-16.217373 84.829285 5.70788
-16.004774 84.691429 7.415517
-13.968293 86.44413 5.012642
-14.983751 85.61184 6.195724
-14.142277 86.507271 3.267016
-13.968293 86.44413 5.012642
-43.127451 51.287709 29.309119
-43.547871 50.175179 29.189129
-43.254649 49.997078 30.357322
-18.209976 56.342968 43.098681
-18.929637 56.708798 42.125013
-19.148542 55.052098 43.155109
-17.277585 57.708286 43.11307
-18.209976 56.342968 43.098681
-18.490821 80.955765 -18.787498
-20.298001 80.195816 -18.573105
-19.742359 81.158173 -17.660393
-18.490821 80.955765 -18.787498
-16.697369 81.653808 -19.0478
-45.26854 52.307625 16.220522
-45.120365 53.481644 14.952369
-17.648943 82.365623 11.409624
-17.9485 82.654197 9.80434
-18.867649 81.537094 10.962822
-17.648943 82.365623 11.409624
-17.399816 82.019722 13.106367
-17.107236 81.605652 14.736895
-16.863591 81.11528 16.458338
-36.073092 39.726833 49.381695
-36.779736 40.419231 48.342167
-35.039181 40.377659 49.188676
-36.073092 39.726833 49.381695
-33.961294 41.027253 48.961994
-34.724443 41.795406 48.02646
-35.039181 40.377659 49.188676
-32.854935 41.628771 48.642668
-33.961294 41.027253 48.961994
-31.719023 42.245528 48.313107
-32.510645 43.061757 47.470217
-32.854935 41.628771 48.642668
-30.576875 42.84919 47.916872
-31.719023 42.245528 48.313107
-30.921166 41.416204 49.089323
-29.012078 41.137897 49.433028
-30.147665 40.515894 49.865458
-28.632237 42.680303 48.279972
-29.012078 41.137897 49.433028
-27.865296 41.798334 49.019911
-24.144312 45.782405 46.84785
-23.795137 47.347591 45.761826
-24.88329 46.439128 46.040798
-24.144312 45.782405 46.84785
-24.514012 44.132959 47.921762
-10.209447 86.403176 -14.255482
-11.640629 85.892342 -14.440514
-11.355277 86.474106 -12.987496
-10.209447 86.403176 -14.255482
-8.869549 86.745812 -14.051872
-44.65213 58.903576 6.802834
-44.116737 59.243305 8.088014
-43.946731 60.325847 6.652596
-45.399376 57.464675 7.004811
-44.65213 58.903576 6.802834
-33.716467 75.892243 -10.850241
-34.353544 75.259087 -11.95037
-33.92786 75.939201 -8.443994
-34.655152 75.40419 -7.135224
-33.076837 76.452416 -9.753141
-33.92786 75.939201 -8.443994
-32.438116 76.902802 -8.58294
-32.226723 76.855843 -10.989187
-33.716467 75.892243 -10.850241
-33.076837 76.452416 -9.753141
-9.70778 87.435432 -11.229882
-11.043546 86.94117 -11.529943
-10.827231 87.391662 -9.95736
-8.68411 87.293953 -12.475946
-9.70778 87.435432 -11.229882
-10.581606 87.745155 -8.394545
-10.421459 88.075042 -6.726285
-43.755854 50.282207 28.019207
-43.547871 50.175179 29.189129
-43.96162 50.382328 26.842652
-43.755854 50.282207 28.019207
-43.62644 51.565929 26.964371
-44.128155 50.41592 25.676023
-43.96162 50.382328 26.842652
-44.000382 51.682792 24.602752
-43.604798 52.937732 24.657387
-43.772972 52.954475 23.472322
-44.128155 50.41592 25.676023
-44.000382 51.682792 24.602752
-44.60532 52.66396 18.645537
-44.342407 52.799915 19.840787
-44.428236 53.866616 17.414383
-44.894438 52.501602 17.411696
-44.60532 52.66396 18.645537
-42.499555 63.120109 6.347955
-43.203715 61.741504 6.482774
-42.70718 62.044182 7.802958
-42.23725 64.175295 4.879062
-42.499555 63.120109 6.347955
-41.740715 64.477972 6.199245
-42.023321 65.182488 3.415878
-42.782162 63.824625 3.564588
-42.23725 64.175295 4.879062
-41.499061 67.084381 0.491757
-42.324858 65.756248 0.647771
-41.742437 66.159951 1.945391
-40.591398 68.376953 0.334076
-40.020868 68.709938 1.643189
-39.695625 69.598808 0.187888
-41.499061 67.084381 0.491757
-40.591398 68.376953 0.334076
-38.871376 71.235573 -2.691287
-37.756874 72.371849 -2.833872
-42.959074 49.823685 31.530206
-43.254649 49.997078 30.357322
-42.420868 50.864186 31.637107
-42.959074 49.823685 31.530206
-42.545713 49.578263 32.69
-41.462976 50.317146 33.945818
-42.134113 49.347347 33.863717
-41.589583 49.045731 35.012633
-38.212359 41.618426 46.203972
-37.536366 41.061178 47.32217
-38.945471 42.138267 45.111355
-38.212359 41.618426 46.203972
-38.048703 42.949549 45.120533
-39.572212 42.573702 43.935225
-38.945471 42.138267 45.111355
-39.46645 43.884481 42.881187
-39.572212 42.573702 43.935225
-39.29398 45.16275 41.774666
-39.46645 43.884481 42.881187
-38.609345 44.747659 42.921394
-39.167841 46.430183 40.694203
-39.29398 45.16275 41.774666
-38.981751 47.668743 39.565265
-39.167841 46.430183 40.694203
-38.250783 47.264488 40.685936
-38.825796 48.907604 38.456787
-39.742854 48.073299 38.465053
-38.981751 47.668743 39.565265
-17.440656 68.156288 33.91486
-18.235816 68.094475 32.943815
-18.215826 66.835281 34.235713
-16.623269 69.539612 33.606751
-17.440656 68.156288 33.91486
-18.36232 62.805471 37.786119
-18.456077 61.317795 38.926181
-17.588105 62.64712 38.77905
-18.282597 64.184936 36.645742
-19.15057 62.855612 36.792873
-18.36232 62.805471 37.786119
-18.245756 65.566086 35.429626
-18.282597 64.184936 36.645742
-23.465258 48.969723 44.717255
-23.795137 47.347591 45.761826
-32.520296 75.785408 -14.252648
-33.493887 75.536499 -13.094729
-31.892761 76.544579 -13.244205
-32.520296 75.785408 -14.252648
-31.529196 75.885872 -15.303929
-31.600082 73.768142 -17.953345
-31.028838 74.884147 -17.170019
-30.465493 73.514076 -18.792711
-32.14712 72.492179 -18.611752
-31.600082 73.768142 -17.953345
-28.033333 72.760841 -20.458478
-29.786501 71.783554 -20.223434
-29.259363 73.215401 -19.686163
-28.033333 72.760841 -20.458478
-26.237669 73.688942 -20.767053
-24.419181 74.592758 -21.063383
-22.586997 75.448326 -21.440479
-12.023489 85.294624 -15.770918
-13.169319 85.365555 -14.502931
-11.640629 85.892342 -14.440514
-12.382876 84.562668 -17.078327
-12.023489 85.294624 -15.770918
-12.832644 83.809181 -18.259338
-14.001947 84.014351 -17.014347
-12.382876 84.562668 -17.078327
-13.261947 82.904312 -19.396746
-12.832644 83.809181 -18.259338
-14.955637 82.32518 -19.208086
-13.261947 82.904312 -19.396746
-46.413418 53.83403 9.949083
-45.866373 54.143352 11.174715
-45.722303 55.259659 9.811863
-46.876202 54.593711 7.417418
-46.122982 56.029327 7.178801
-47.009586 53.523525 8.785339
-46.876202 54.593711 7.417418
-46.413418 53.83403 9.949083
-47.009586 53.523525 8.785339
3 0 79 77
3 0 77 80
3 0 80 82
3 1 86 84
3 3 89 87
3 1 92 90
3 1 84 92
3 5 96 94
3 5 98 96
3 5 304 306
3 306 305 98
3 304 305 306
3 2 102 100
3 4 104 103
3 6 107 105
3 307 109 308
3 310 309 109
3 8 112 110
3 6 115 113
3 6 105 115
3 11 311 312
3 11 313 314
3 316 315 117
3 12 317 319
3 317 119 318
3 317 318 319
3 14 122 120
3 14 124 122
3 7 127 125
3 15 132 130
3 15 134 132
3 9 137 135
3 16 140 138
3 16 142 140
3 16 144 142
3 12 147 145
3 12 320 322
3 322 321 147
3 320 321 322
3 323 148 324
3 325 150 326
3 327 326 148
3 325 326 327
3 10 153 151
3 17 156 154
3 17 158 156
3 17 160 158
3 18 163 161
3 18 165 163
3 18 167 165
3 329 328 168
3 13 172 170
3 19 330 332
3 332 331 78
3 330 331 332
3 19 333 335
3 333 174 334
3 333 334 335
3 20 177 175
3 337 336 81
3 22 180 178
3 20 181 83
3 20 175 181
3 24 184 182
3 26 185 85
3 26 186 185
3 28 190 188
3 30 191 88
3 30 192 191
3 31 195 193
3 33 196 91
3 33 197 196
3 33 199 197
3 24 200 93
3 24 182 200
3 35 203 201
3 37 204 95
3 37 205 204
3 37 207 205
3 39 208 97
3 39 209 208
3 39 211 209
3 338 212 339
3 340 339 99
3 338 339 340
3 342 341 212
3 41 215 213
3 43 216 101
3 43 343 345
3 345 344 216
3 343 344 345
3 44 346 347
3 45 219 217
3 47 220 106
3 47 221 220
3 21 222 176
3 48 223 108
3 48 224 223
3 48 348 350
3 350 349 224
3 348 349 350
3 49 227 225
3 51 228 111
3 51 229 228
3 23 230 179
3 52 231 114
3 52 232 231
3 52 233 232
3 45 234 116
3 45 217 234
3 351 235 352
3 353 236 354
3 355 237 356
3 357 356 236
3 355 356 357
3 359 358 237
3 361 360 238
3 363 362 239
3 54 241 118
3 54 242 241
3 25 243 183
3 55 244 121
3 55 245 244
3 55 246 245
3 56 247 123
3 56 248 247
3 46 249 218
3 57 250 126
3 57 251 250
3 27 252 187
3 58 253 128
3 58 254 253
3 58 255 254
3 59 256 129
3 59 257 256
3 59 364 366
3 366 365 257
3 364 365 366
3 29 258 189
3 60 367 369
3 369 368 131
3 367 368 369
3 60 370 371
3 60 372 374
3 372 259 373
3 372 373 374
3 61 260 133
3 61 261 260
3 50 262 226
3 62 263 136
3 62 264 263
3 32 265 194
3 63 266 139
3 63 267 266
3 63 268 267
3 64 269 141
3 64 270 269
3 64 271 270
3 65 272 143
3 65 273 272
3 34 274 198
3 66 275 146
3 66 375 377
3 377 376 275
3 375 376 377
3 66 378 379
3 380 276 381
3 67 277 149
3 67 278 277
3 68 279 152
3 68 280 279
3 36 281 202
3 69 282 155
3 69 283 282
3 69 284 283
3 70 285 157
3 70 286 285
3 70 287 286
3 71 288 159
3 71 289 288
3 38 290 206
3 72 291 162
3 72 292 291
3 72 293 292
3 73 294 164
3 73 295 294
3 73 296 295
3 74 297 166
3 74 382 384
3 384 383 297
3 382 383 384
3 40 298 210
3 386 385 169
3 53 387 388
3 75 389 391
3 391 390 171
3 389 390 391
3 75 392 394
3 392 299 393
3 392 393 394
3 42 300 214
3 76 301 173
3 76 302 301
3 76 395 397
3 397 396 302
3 395 396 397
3 398 303 399
3 400 399 240
3 398 399 400
3 77 401 403
3 401 78 402
3 401 402 403
3 79 78 77
3 79 19 78
3 80 81 20
3 77 81 80
3 77 404 406
3 406 405 81
3 404 405 406
3 82 83 22
3 80 83 82
3 80 20 83
3 84 85 24
3 86 85 84
3 86 26 85
3 87 88 28
3 89 88 87
3 89 30 88
3 90 91 31
3 92 91 90
3 92 33 91
3 92 93 33
3 84 93 92
3 84 24 93
3 94 95 35
3 96 95 94
3 96 37 95
3 96 97 37
3 98 97 96
3 98 39 97
3 98 99 39
3 407 99 408
3 409 408 98
3 407 408 409
3 411 410 99
3 100 101 41
3 102 101 100
3 102 43 101
3 103 412 414
3 414 413 44
3 412 413 414
3 104 415 417
3 417 416 103
3 415 416 417
3 104 418 419
3 105 106 45
3 107 106 105
3 107 47 106
3 420 108 421
3 422 421 21
3 420 421 422
3 109 423 425
3 423 108 424
3 423 424 425
3 109 48 108
3 109 426 428
3 428 427 48
3 426 427 428
3 430 429 109
3 110 111 49
3 112 111 110
3 112 51 111
3 113 114 23
3 115 114 113
3 115 52 114
3 115 116 52
3 105 116 115
3 105 45 116
3 117 431 432
3 434 433 117
3 435 118 436
3 119 437 439
3 437 118 438
3 437 438 439
3 119 54 118
3 120 121 25
3 122 121 120
3 122 55 121
3 122 123 55
3 124 123 122
3 124 56 123
3 125 126 46
3 127 126 125
3 127 57 126
3 440 128 441
3 442 441 27
3 440 441 442
3 443 128 444
3 445 58 446
3 447 446 128
3 445 446 447
3 448 129 449
3 450 449 58
3 448 449 450
3 451 129 452
3 453 59 454
3 455 454 129
3 453 454 455
3 457 456 59
3 130 131 29
3 132 131 130
3 132 60 131
3 132 133 60
3 134 133 132
3 134 61 133
3 135 136 50
3 137 136 135
3 137 62 136
3 138 139 32
3 140 139 138
3 140 63 139
3 140 141 63
3 142 141 140
3 142 64 141
3 142 143 64
3 144 143 142
3 144 65 143
3 145 146 34
3 147 146 145
3 147 66 146
3 147 458 460
3 460 459 66
3 458 459 460
3 462 461 147
3 148 463 464
3 148 465 466
3 148 467 469
3 467 149 468
3 467 468 469
3 150 149 148
3 150 67 149
3 151 470 472
3 470 152 471
3 470 471 472
3 153 152 151
3 153 68 152
3 154 155 36
3 156 155 154
3 156 69 155
3 156 157 69
3 158 157 156
3 158 70 157
3 158 159 70
3 160 159 158
3 160 71 159
3 161 162 38
3 163 162 161
3 163 72 162
3 163 164 72
3 165 164 163
3 165 73 164
3 165 166 73
3 167 166 165
3 167 74 166
3 168 169 40
3 473 169 474
3 475 474 168
3 473 474 475
3 477 476 169
3 170 171 53
3 172 171 170
3 172 75 171
3 478 173 479
3 480 479 42
3 478 479 480
3 481 173 482
3 483 76 484
3 485 484 173
3 483 484 485
3 487 486 76
3 78 488 489
3 491 490 78
3 174 492 493
3 174 494 495
3 175 176 6
3 177 176 175
3 177 21 176
3 81 177 20
3 496 177 497
3 498 497 81
3 496 497 498
3 499 21 500
3 501 500 177
3 499 500 501
3 503 502 21
3 178 179 8
3 180 179 178
3 180 23 179
3 83 180 22
3 181 180 83
3 181 23 180
3 181 113 23
3 175 113 181
3 175 6 113
3 504 11 505
3 182 183 12
3 184 183 182
3 184 25 183
3 85 184 24
3 185 184 85
3 185 25 184
3 185 120 25
3 186 120 185
3 186 14 120
3 506 187 507
3 508 507 7
3 506 507 508
3 509 187 510
3 511 27 512
3 513 512 187
3 511 512 513
3 514 27 515
3 517 516 27
3 188 518 520
3 518 189 519
3 518 519 520
3 190 189 188
3 190 29 189
3 88 190 28
3 191 190 88
3 191 29 190
3 191 130 29
3 192 130 191
3 192 15 130
3 193 194 9
3 195 194 193
3 195 32 194
3 91 195 31
3 196 195 91
3 196 32 195
3 196 138 32
3 197 138 196
3 197 16 138
3 197 198 16
3 199 198 197
3 199 34 198
3 93 199 33
3 200 199 93
3 200 34 199
3 200 145 34
3 182 145 200
3 182 12 145
3 201 202 10
3 203 202 201
3 203 36 202
3 95 203 35
3 204 203 95
3 204 36 203
3 204 154 36
3 205 154 204
3 205 17 154
3 205 206 17
3 207 206 205
3 207 38 206
3 97 207 37
3 208 207 97
3 208 38 207
3 208 161 38
3 209 161 208
3 209 18 161
3 209 210 18
3 211 210 209
3 211 40 210
3 99 211 39
3 212 211 99
3 212 40 211
3 212 168 40
3 521 168 522
3 523 522 212
3 521 522 523
3 525 524 168
3 213 214 13
3 215 214 213
3 215 42 214
3 101 215 41
3 216 215 101
3 216 42 215
3 216 526 528
3 528 527 42
3 526 527 528
3 530 529 216
3 532 531 44
3 217 218 1
3 219 218 217
3 219 46 218
3 106 219 45
3 220 219 106
3 220 46 219
3 220 125 46
3 221 125 220
3 221 7 125
3 176 107 6
3 222 107 176
3 222 47 107
3 108 222 21
3 223 222 108
3 223 47 222
3 223 221 47
3 224 221 223
3 224 7 221
3 224 533 535
3 535 534 7
3 533 534 535
3 537 536 224
3 539 538 48
3 225 226 3
3 227 226 225
3 227 50 226
3 111 227 49
3 228 227 111
3 228 50 227
3 228 135 50
3 229 135 228
3 229 9 135
3 179 112 8
3 230 112 179
3 230 51 112
3 114 230 23
3 231 230 114
3 231 51 230
3 231 229 51
3 232 229 231
3 232 9 229
3 232 193 9
3 233 193 232
3 233 31 193
3 116 233 52
3 234 233 116
3 234 31 233
3 234 90 31
3 217 90 234
3 217 1 90
3 540 151 541
3 542 151 543
3 544 10 545
3 546 545 151
3 544 545 546
3 547 10 548
3 549 201 550
3 551 550 10
3 549 550 551
3 235 552 554
3 552 201 553
3 552 553 554
3 235 35 201
3 555 235 556
3 236 557 559
3 557 235 558
3 557 558 559
3 236 35 235
3 236 94 35
3 237 94 236
3 237 5 94
3 237 560 562
3 562 561 5
3 560 561 562
3 564 563 237
3 238 565 567
3 567 566 2
3 565 566 567
3 569 568 238
3 239 240 4
3 570 240 571
3 572 571 239
3 570 571 572
3 574 573 240
3 575 53 576
3 118 577 578
3 241 579 581
3 581 580 118
3 579 580 581
3 241 582 584
3 582 53 583
3 582 583 584
3 241 170 53
3 242 170 241
3 242 13 170
3 183 119 12
3 243 119 183
3 243 54 119
3 121 243 25
3 244 243 121
3 244 54 243
3 244 242 54
3 245 242 244
3 245 13 242
3 245 213 13
3 246 213 245
3 246 41 213
3 123 246 55
3 247 246 123
3 247 41 246
3 247 100 41
3 248 100 247
3 248 2 100
3 218 86 1
3 249 86 218
3 249 26 86
3 126 249 46
3 250 249 126
3 250 26 249
3 250 186 26
3 251 186 250
3 251 14 186
3 187 127 7
3 252 127 187
3 252 57 127
3 128 252 27
3 253 252 128
3 253 57 252
3 253 251 57
3 254 251 253
3 254 14 251
3 254 124 14
3 255 124 254
3 255 56 124
3 129 255 58
3 256 255 129
3 256 56 255
3 256 248 56
3 257 248 256
3 257 2 248
3 257 238 2
3 585 238 586
3 587 586 257
3 585 586 587
3 589 588 238
3 591 590 59
3 189 592 593
3 258 594 596
3 596 595 189
3 594 595 596
3 258 597 598
3 131 258 29
3 599 258 600
3 601 600 131
3 599 600 601
3 603 602 258
3 259 604 605
3 259 606 608
3 606 44 607
3 606 607 608
3 133 259 60
3 260 259 133
3 260 44 259
3 260 103 44
3 261 103 260
3 261 4 103
3 226 89 3
3 262 89 226
3 262 30 89
3 136 262 50
3 263 262 136
3 263 30 262
3 263 192 30
3 264 192 263
3 264 15 192
3 194 137 9
3 265 137 194
3 265 62 137
3 139 265 32
3 266 265 139
3 266 62 265
3 266 264 62
3 267 264 266
3 267 15 264
3 267 134 15
3 268 134 267
3 268 61 134
3 141 268 63
3 269 268 141
3 269 61 268
3 269 261 61
3 270 261 269
3 270 4 261
3 270 239 4
3 271 239 270
3 271 609 611
3 611 610 239
3 609 610 611
3 143 271 64
3 272 271 143
3 272 612 614
3 614 613 271
3 612 613 614
3 272 615 617
3 615 117 616
3 615 616 617
3 273 117 272
3 273 618 620
3 620 619 117
3 618 619 620
3 198 144 16
3 274 144 198
3 274 65 144
3 146 274 34
3 275 274 146
3 275 65 274
3 275 273 65
3 621 273 622
3 623 622 275
3 621 622 623
3 625 624 273
3 627 626 66
3 628 188 629
3 276 630 632
3 630 188 631
3 630 631 632
3 276 28 188
3 149 633 635
3 633 276 634
3 633 634 635
3 277 276 149
3 277 28 276
3 277 87 28
3 278 87 277
3 278 3 87
3 152 636 637
3 279 638 640
3 640 639 152
3 638 639 640
3 279 641 642
3 279 643 644
3 280 645 647
3 647 646 279
3 645 646 647
3 280 648 649
3 202 153 10
3 281 153 202
3 281 68 153
3 155 281 36
3 282 281 155
3 282 68 281
3 282 280 68
3 283 280 282
3 283 650 652
3 652 651 280
3 650 651 652
3 283 653 655
3 653 150 654
3 653 654 655
3 284 150 283
3 284 67 150
3 157 284 69
3 285 284 157
3 285 67 284
3 285 278 67
3 286 278 285
3 286 3 278
3 286 225 3
3 287 225 286
3 287 49 225
3 159 287 70
3 288 287 159
3 288 49 287
3 288 110 49
3 289 110 288
3 289 8 110
3 206 160 17
3 290 160 206
3 290 71 160
3 162 290 38
3 291 290 162
3 291 71 290
3 291 289 71
3 292 289 291
3 292 8 289
3 292 178 8
3 293 178 292
3 293 22 178
3 164 293 72
3 294 293 164
3 294 22 293
3 294 82 22
3 295 82 294
3 295 0 82
3 295 79 0
3 296 79 295
3 296 19 79
3 166 296 73
3 297 296 166
3 297 19 296
3 297 174 19
3 656 174 657
3 658 657 297
3 656 657 658
3 660 659 174
3 210 167 18
3 298 167 210
3 298 74 167
3 169 298 40
3 661 298 662
3 663 662 169
3 661 662 663
3 664 74 665
3 666 665 298
3 664 665 666
3 668 667 74
3 670 669 5
3 171 671 673
3 673 672 53
3 671 672 673
3 675 674 171
3 299 676 677
3 299 678 680
3 678 11 679
3 678 679 680
3 214 172 13
3 300 172 214
3 300 75 172
3 173 300 42
3 301 300 173
3 301 75 300
3 301 299 75
3 302 299 301
3 302 11 299
3 302 681 683
3 683 682 11
3 681 682 683
3 685 684 302
3 687 686 76
3 688 102 689
3 690 689 2
3 688 689 690
3 691 102 692
3 693 43 694
3 695 694 102
3 693 694 695
3 696 43 697
3 699 698 43
3 240 104 4
3 303 104 240
3 303 700 702
3 702 701 104
3 700 701 702
3 703 303 704
3 705 303 706
3 708 707 303
