ply
format ascii 1.0
element vertex 789
property float x
property float y
property float z
element face 875
property list uchar int vertex_index
end_header
-37.245678 -111.40596 -7.303373
-40.031567 -81.838455 -26.799374
-16.158829 -112.537033 -20.955261
-39.227745 -104.517731 -20.471245
-49.876518 -90.152222 -5.922316
-38.383682 -110.252457 -14.514956
-52.84655 -83.425293 -13.322186
-29.314949 -99.270218 -23.590366
-30.947779 -84.855484 -24.225933
-39.614773 -67.098618 -30.230389
-39.472492 -94.853226 -23.750153
-41.539722 -105.369675 1.383375
-44.519089 -102.341888 -6.280317
-47.615685 -95.320602 2.672273
-51.707684 -84.79245 1.661913
-37.577251 -108.005997 9.18726
-46.25526 -96.898849 -13.468378
-47.07209 -88.847717 -18.941364
-47.610806 -77.6539 -24.318581
-37.738178 -111.342117 -10.683641
-35.159283 -90.920837 -25.160561
-30.196171 -92.376205 -23.739368
-35.521255 -83.761017 -26.091106
-35.563919 -76.195786 -27.249119
-39.99054 -74.552475 -28.485291
-34.071095 -107.922363 -22.698399
-34.262367 -103.128738 -23.730389
-39.325001 -100.139297 -22.292507
-43.687157 -101.979141 6.569473
-45.204372 -100.524811 2.368681
-46.518623 -97.151764 7.213075
-39.496723 -106.665894 5.251007
-28.892775 -116.114014 2.6725
-47.323154 -96.32222 -5.880501
-45.462242 -99.967056 -10.055141
-48.350227 -93.348907 -9.689226
-50.152321 -85.998672 -16.104721
-50.679985 -81.398247 -19.075371
-47.291183 -83.672485 -21.511875
-38.936657 -107.937851 -17.90097
-53.010132 -84.349411 -6.372038
-51.393353 -86.96434 -9.78533
-22.749039 -106.53952 -22.262402
-17.373596 -106.372803 -20.4151
-35.39999 -68.411499 -28.653664
-28.563578 -105.364975 -23.603123
-34.650402 -97.434921 -24.422703
-39.771881 -88.699387 -25.209599
-39.187763 -108.733948 -3.491049
-40.910721 -107.611206 -6.901716
-43.283192 -104.045288 -2.430103
-46.358521 -98.722382 -1.80233
-48.630455 -92.985443 -1.733433
-49.448532 -89.952896 2.345874
-51.011131 -87.314255 -2.133163
-54.22789 -82.062195 -2.785286
-29.291946 -111.054276 15.263133
-35.873718 -108.930817 13.063439
-32.476871 -112.481888 7.722781
-34.377052 -111.380615 3.755682
-36.755291 -110.016495 -0.033364
-41.971733 -106.1828 -10.585917
-42.768929 -103.894913 -14.151756
-43.291107 -100.712555 -17.186558
-49.371262 -89.920197 -13.074297
-46.796982 -93.210663 -16.375093
-43.496815 -96.714951 -19.612328
-43.570206 -91.882935 -21.696682
-43.75388 -86.169388 -23.794907
-44.033661 -79.662048 -26.066391
-47.922935 -70.975952 -27.338482
-44.161335 -72.63295 -28.443813
-43.959484 -65.409531 -30.794994
-37.456135 -111.468369 -8.83049
-37.712433 -86.438629 -25.983738
-35.375107 -87.406815 -25.598793
-37.822708 -82.866028 -26.624626
-37.84573 -79.192642 -27.301949
-40.058147 -78.229797 -27.633671
-36.69223 -108.225204 -20.749702
-36.773708 -106.294418 -21.756489
-36.831028 -104.118454 -22.554985
-39.286163 -102.4431 -21.455284
-45.27766 -99.591248 6.994066
-27.913231 -116.526947 4.839754
-48.573486 -93.217285 -5.843489
-47.824348 -94.898315 -7.831465
-49.168549 -91.70546 -7.806408
-50.905258 -78.792053 -20.635921
-10.667276 -114.383926 -19.01355
-13.533398 -112.173813 -19.970844
-38.686157 -109.244492 -16.296293
-54.902573 -81.634476 -6.703579
-54.086475 -82.764961 -8.398478
-26.087029 -103.052856 -22.896152
-23.328394 -103.365005 -22.025124
-26.617411 -99.785416 -22.771935
-30.599514 -88.680603 -23.934612
-31.2388 -80.928047 -24.619358
-37.633526 -71.663116 -28.765442
-35.490253 -72.323715 -27.920422
-37.44833 -67.844963 -29.553864
-39.367737 -63.346973 -31.121254
-25.281666 -108.931885 -23.151501
-28.305708 -108.083618 -23.558659
-36.998642 -99.072693 -23.759872
-34.429596 -100.390793 -24.088943
-37.1488 -96.213943 -24.285053
-37.338161 -93.142319 -24.817989
-39.60944 -91.878464 -24.465717
-40.356083 -107.078018 -1.116724
-41.339542 -106.466522 -2.91692
-42.474018 -104.730347 -0.523075
-46.542336 -97.963455 2.610084
-45.823917 -99.688858 0.278242
-47.062576 -96.992722 0.443138
-47.545555 -95.878128 -1.698229
-48.112793 -94.222153 0.448888
-50.635231 -86.025726 3.964509
-49.650322 -88.535294 4.35299
-50.475563 -87.327927 2.030297
-50.172607 -88.683121 0.077624
-51.424919 -86.021088 -0.232129
-52.500721 -84.630249 -2.439657
-52.913811 -83.46817 -0.584402
-30.857635 -108.77919 17.629169
-31.769527 -109.921112 15.863333
-32.628647 -110.595963 14.073153
-36.710651 -108.568237 11.143314
-34.247746 -110.68692 10.33458
-35.085224 -110.266937 8.394167
-33.365959 -112.003372 5.734012
-35.999966 -109.676666 6.435442
-40.526524 -106.006165 3.305403
-38.115551 -108.342178 2.571924
-39.254822 -107.697098 0.704986
-38.013878 -109.357346 -1.801178
-42.81221 -105.10405 -6.587679
-41.486614 -106.985565 -8.725439
-43.353588 -104.232086 -8.467518
-45.881119 -98.513519 -11.822699
-44.241844 -101.901001 -12.124834
-44.605633 -100.435608 -13.807232
-43.071022 -102.409134 -15.749834
-44.900166 -98.785141 -15.350063
-52.152725 -85.247513 -11.586397
-50.440536 -88.399063 -11.435965
-51.032887 -86.600235 -13.108406
-48.659538 -87.390015 -17.512241
-48.44511 -89.541061 -16.141026
-46.957977 -91.122345 -17.680016
-45.248032 -94.951096 -18.022816
-45.325981 -92.755142 -19.210308
-43.531784 -94.407593 -20.672905
-45.382095 -90.354828 -20.359074
-47.439331 -80.762245 -22.881458
-45.556087 -84.900833 -22.711308
-45.696404 -81.853531 -23.96452
-43.895016 -83.001541 -24.909496
-45.852413 -78.620193 -25.272873
-46.08091 -71.749718 -27.989323
-46.096432 -68.201111 -29.353718
-44.103092 -69.028778 -29.629597
-46.029255 -64.628609 -30.694824
-38.057331 -110.949142 -12.616816
-32.355057 -95.214966 -24.352226
-29.757231 -95.914383 -23.629997
-32.686714 -91.775452 -24.585583
-32.977104 -88.176712 -24.885605
-33.201229 -84.447495 -25.260361
-33.351509 -80.616325 -25.715496
-35.582485 -80.014923 -26.64019
-37.777153 -75.450378 -28.015121
-39.834572 -70.836029 -29.351192
-31.286072 -106.975281 -23.621716
-34.148895 -105.641846 -23.289608
-36.896744 -101.709213 -23.201843
-39.379051 -97.608826 -23.039459
-42.671326 -103.660828 3.956002
-43.538166 -102.989868 1.951518
-44.487144 -101.271988 4.465744
-45.950821 -98.815765 4.795035
-47.094402 -96.288071 4.928721
-38.504368 -107.346069 7.21634
-40.807983 -105.018478 7.992207
-41.745289 -104.329315 5.969726
-30.047836 -115.497986 0.554816
-46.005699 -99.390366 -6.032263
-45.010887 -101.245804 -8.194599
-46.475204 -98.106216 -7.968508
-46.939354 -96.664551 -9.826029
-47.391869 -95.081818 -11.576647
-51.549416 -84.678452 -14.716908
-51.980835 -82.604782 -16.300243
-50.43755 -83.795654 -17.575947
-48.832497 -85.050049 -18.878941
-47.173286 -86.368134 -20.205914
-48.994518 -82.502991 -20.282757
-49.168167 -79.741943 -21.751926
-49.359192 -76.774651 -23.296913
-36.561699 -109.890549 -19.497646
-39.117401 -106.354782 -19.29438
-51.335533 -87.186447 -6.104923
-50.616859 -88.596893 -7.899054
-52.247051 -85.614624 -8.101744
-53.168716 -83.969574 -10.023726
-54.040558 -82.232468 -11.884289
-19.401768 -109.709244 -21.643326
-16.674129 -109.580673 -20.713181
-19.978065 -106.636169 -21.362564
-20.694675 -103.3284 -21.076805
-27.189583 -96.316467 -22.707329
-33.439999 -76.707626 -26.254837
-33.495552 -72.740128 -26.879086
-33.556412 -68.727821 -27.584175
-22.290241 -109.48468 -22.482357
-25.633427 -106.104538 -23.040943
-28.906326 -102.424606 -23.594704
-31.464251 -104.35994 -23.855598
-31.711765 -101.522385 -24.019665
-32.017845 -98.470123 -24.171772
-34.90498 -94.272171 -24.772121
-37.538757 -89.875107 -25.381481
-39.925617 -85.341263 -25.988773
-38.107407 -110.245255 -5.639561
-38.943054 -109.782227 -7.161036
-40.166275 -108.160492 -5.16375
-42.156029 -105.827499 -4.732964
-43.956535 -103.264664 -4.350519
-44.305344 -102.272339 -0.048926
-44.957893 -101.45845 -2.050457
-45.512276 -100.506149 -4.05024
-46.844139 -97.601273 -3.861996
-48.036713 -94.61525 -3.800287
-49.211121 -91.621689 -3.862329
-48.811974 -91.108231 4.671189
-48.538292 -92.633621 2.573069
-49.104282 -91.432556 0.316277
-49.745987 -90.111237 -1.887989
-50.49044 -88.689026 -4.031534
-51.966599 -85.865494 -4.283957
-53.67746 -83.167633 -4.595659
-54.626171 -81.01368 -0.963623
-56.142948 -79.579453 -3.160078
-33.444168 -110.828918 12.231961
-31.671173 -112.712692 9.686646
-29.794958 -114.621719 7.243314
-30.658445 -114.301086 5.184504
-31.653969 -113.75975 3.131455
-32.809406 -113.090881 1.130341
-37.014168 -109.012558 4.486639
-35.518021 -110.699707 1.823666
-39.472527 -109.428497 -8.885834
-39.918404 -108.930252 -10.738447
-40.325676 -108.195175 -12.610954
-43.823547 -103.168701 -10.3302
-42.398312 -105.155884 -12.415257
-40.69397 -107.192108 -14.418324
-41.006889 -105.921432 -16.095854
-41.246174 -104.398163 -17.601406
-41.403378 -102.639954 -18.919464
-49.804192 -90.097519 -9.672291
-48.877754 -91.688766 -11.437115
-47.808807 -93.3694 -13.205959
-49.800125 -88.031158 -14.618708
-48.164154 -91.526886 -14.719032
-46.564671 -95.131897 -14.981882
-45.113365 -96.957535 -16.748829
-43.427467 -98.814316 -18.464962
-41.487617 -100.659058 -20.062416
-41.525909 -98.459702 -21.066402
-41.555149 -96.039764 -21.981678
-41.608982 -93.395737 -22.860226
-45.451515 -87.737854 -21.514847
-43.641117 -89.135513 -22.727627
-41.705147 -90.528519 -23.744316
-41.838745 -87.448486 -24.659527
-41.984032 -84.177872 -25.613697
-42.103577 -80.750168 -26.601097
-47.782143 -74.378143 -25.811497
-45.991653 -75.237541 -26.621605
-44.132774 -76.191071 -27.250572
-42.160851 -77.206116 -27.609272
-42.131496 -73.587456 -28.625439
-42.009747 -69.929962 -29.640057
-41.808842 -66.257858 -30.647121
-45.884697 -61.055489 -31.995808
-43.746864 -61.791588 -31.930073
-41.556187 -62.581593 -31.642246
-37.350907 -111.437164 -8.066931
-36.514143 -112.24807 -8.568791
-36.408914 -112.216865 -7.805233
-27.489708 -116.587433 5.921795
-26.530714 -117.575547 4.785339
-14.846114 -112.355423 -20.463052
-13.333137 -113.582664 -20.029686
-14.645853 -113.764274 -20.521895
-37.262397 -111.283005 -15.386871
-37.137989 -111.635659 -14.431454
-38.53492 -109.748475 -15.405624
-37.413635 -110.779022 -16.277539
-37.262397 -111.283005 -15.386871
-55.505148 -80.826458 -7.736982
-55.931099 -80.318085 -6.893844
-29.634557 -86.859108 -23.539629
-29.460425 -88.771668 -23.393968
-30.773646 -86.768044 -24.080272
-29.891914 -84.894127 -23.658596
-29.634557 -86.859108 -23.539629
-31.09329 -82.891766 -24.422646
-30.037424 -82.930408 -23.855308
-29.891914 -84.894127 -23.658596
-28.219893 -109.328606 -23.473591
-26.673216 -109.806168 -23.357678
-32.949024 -109.283798 16.306016
-32.469011 -108.886559 17.194869
-33.378584 -109.621223 15.410926
-32.199087 -110.258537 14.968243
-32.949024 -109.283798 16.306016
-37.143951 -108.287117 10.165287
-37.862983 -107.472145 11.584238
-38.296284 -107.191025 10.606211
-47.056208 -66.084396 -29.872879
-47.051367 -67.846638 -29.113771
-47.02262 -64.298146 -30.543432
-46.062843 -66.41486 -30.024271
-47.056208 -66.084396 -29.872879
-36.704403 -112.355934 -11.507587
-36.635843 -112.357346 -10.487722
-37.897754 -111.145629 -11.650229
-36.863979 -112.159447 -12.474175
-36.704403 -112.355934 -11.507587
-32.581522 -109.712494 -22.675819
-34.035723 -108.939529 -22.293999
-32.620228 -108.641471 -22.972324
-32.581522 -109.712494 -22.675819
-34.109995 -106.782105 -22.994003
-32.659128 -107.501213 -23.267929
-32.620228 -108.641471 -22.972324
-41.389767 -104.213821 9.389318
-40.351357 -105.367973 9.003814
-42.716223 -103.154228 6.269599
-42.291357 -103.507866 7.324044
-43.262291 -102.332779 7.623918
-28.081032 -116.99266 1.409244
-27.505952 -117.249359 2.545272
-29.470306 -115.806 1.613658
-28.658563 -116.684646 0.350402
-28.081032 -116.99266 1.409244
-52.964005 -80.975845 -16.516498
-52.713496 -82.036598 -15.662601
-50.558768 -82.59695 -18.325659
-51.388197 -82.073563 -17.738064
-51.509415 -80.874859 -18.487776
-50.148449 -77.859024 -22.013134
-50.036713 -79.266998 -21.193924
-51.016995 -77.384079 -21.455132
-50.243961 -76.375378 -22.785628
-49.263679 -78.258297 -22.52442
-50.148449 -77.859024 -22.013134
-9.56523 -113.901512 -18.433419
-10.90504 -112.915672 -18.970042
-37.749178 -108.9142 -18.699308
-36.467871 -110.576813 -18.745134
-37.65535 -109.600464 -17.946796
-54.14908 -82.532974 -10.197925
-53.627595 -83.367267 -9.211102
-54.607959 -81.930668 -9.385301
-54.585001 -81.664422 -11.128207
-53.604637 -83.101021 -10.954007
-54.14908 -82.532974 -10.197925
-22.346731 -101.650253 -21.449571
-22.011534 -103.346702 -21.550964
-23.66359 -101.668556 -21.923731
-21.106617 -101.564804 -20.955706
-22.346731 -101.650253 -21.449571
-35.367874 -66.439453 -29.048544
-34.446085 -66.597614 -28.513799
-34.478201 -68.56966 -28.118919
-22.128674 -110.839294 -22.550035
-20.638075 -111.011604 -22.169564
-54.913574 -81.319317 -3.867225
-54.638359 -81.872036 -4.772411
-53.952675 -82.614914 -3.690473
-54.728325 -80.500527 -0.060561
-53.89908 -81.683552 0.150114
-57.144922 -78.353032 -3.363728
-56.3159 -79.098099 -2.264881
-56.898623 -78.81136 -4.248727
-57.144922 -78.353032 -3.363728
-28.864238 -110.328125 16.165604
-29.647083 -109.190582 17.348622
-30.07479 -109.916733 16.446151
-28.008873 -111.570236 15.142578
-28.864238 -110.328125 16.165604
-28.397481 -112.217858 14.203841
-28.008873 -111.570236 15.142578
-36.573957 -108.073761 14.501254
-37.013326 -107.920502 13.534005
-35.449232 -108.958916 13.998056
-36.573957 -108.073761 14.501254
-34.658943 -109.879868 12.6477
-34.234457 -109.907967 13.582317
-35.449232 -108.958916 13.998056
-35.43474 -111.191185 -0.403927
-34.816105 -111.532791 0.524588
-36.136656 -110.358101 0.895151
-36.133223 -110.822403 -1.290123
-35.43474 -111.191185 -0.403927
-38.041305 -109.819748 -3.827919
-37.454363 -110.131447 -2.982984
-38.60082 -109.045647 -2.646113
-38.647585 -109.489601 -4.565305
-37.501128 -110.575401 -4.902175
-38.041305 -109.819748 -3.827919
-48.828651 -70.650292 -26.956657
-48.896408 -68.947685 -27.800239
-47.852539 -72.677048 -26.57499
-48.758255 -72.351387 -26.193165
-48.828651 -70.650292 -26.956657
-46.846173 -58.977554 -32.64134
-46.916374 -60.743842 -31.932833
-43.618364 -59.984063 -32.478319
-44.712095 -59.640225 -32.586348
-42.523026 -60.379065 -32.334406
-42.651526 -62.18659 -31.78616
-43.618364 -59.984063 -32.478319
-41.420729 -60.740669 -32.131466
-42.523026 -60.379065 -32.334406
-15.761622 -107.730294 -20.077194
-15.411888 -109.334228 -20.226234
-17.023862 -107.976738 -20.564141
-36.494822 -112.420471 -9.561146
-36.514143 -112.24807 -8.568791
-37.597156 -111.405243 -9.757065
-36.635843 -112.357346 -10.487722
-36.494822 -112.420471 -9.561146
-35.346291 -109.09095 -21.319651
-35.300575 -109.973709 -20.78067
-35.387029 -108.125557 -21.823044
-35.346291 -109.09095 -21.319651
-36.732969 -107.259811 -21.253096
-35.422401 -107.10839 -22.227444
-34.035723 -108.939529 -22.293999
-35.387029 -108.125557 -21.823044
-44.906513 -99.96328 8.098695
-44.482408 -100.785194 6.78177
-44.111261 -101.157227 7.886398
-45.578518 -98.771637 8.257123
-44.906513 -99.96328 8.098695
-46.198999 -97.551895 8.366627
-45.898141 -98.371506 7.103571
-45.578518 -98.771637 8.257123
-44.111261 -101.157227 7.886398
-43.262291 -102.332779 7.623918
-27.01618 -117.455826 3.628899
-26.530714 -117.575547 4.785339
-28.403003 -116.320481 3.756127
-27.505952 -117.249359 2.545272
-27.01618 -117.455826 3.628899
-51.662892 -79.648201 -19.313723
-51.509415 -80.874859 -18.487776
-51.775528 -78.345104 -20.093998
-50.792622 -80.09515 -19.855646
-51.662892 -79.648201 -19.313723
-51.913605 -77.014115 -20.956707
-51.775528 -78.345104 -20.093998
-51.016995 -77.384079 -21.455132
-51.913605 -77.014115 -20.956707
-11.900077 -114.687721 -19.551039
-10.543329 -115.71064 -18.970726
-12.100337 -113.278869 -19.492197
-11.900077 -114.687721 -19.551039
-13.333137 -113.582664 -20.029686
-12.3381 -111.810615 -19.448688
-10.90504 -112.915672 -18.970042
-12.100337 -113.278869 -19.492197
-37.5301 -110.253784 -17.144458
-37.413635 -110.779022 -16.277539
-38.811407 -108.591172 -17.098631
-37.65535 -109.600464 -17.946796
-37.5301 -110.253784 -17.144458
-55.097099 -81.3917 -8.584431
-54.494524 -82.199719 -7.551029
-55.505148 -80.826458 -7.736982
-54.607959 -81.930668 -9.385301
-55.097099 -81.3917 -8.584431
-25.308099 -99.878761 -22.297137
-23.66359 -101.668556 -21.923731
-24.972903 -101.57521 -22.39853
-29.183386 -90.673721 -23.331674
-28.981715 -92.521523 -23.234052
-30.397842 -90.528404 -23.83699
-29.183386 -90.673721 -23.331674
-29.460425 -88.771668 -23.393968
-30.275096 -80.916378 -24.033054
-30.037424 -82.930408 -23.855308
-31.363301 -78.925038 -24.868082
-30.275096 -80.916378 -24.033054
-37.356054 -65.923466 -29.966015
-36.331885 -66.206734 -29.515915
-36.42416 -68.128231 -29.103764
-38.315758 -63.67447 -30.74971
-37.356054 -65.923466 -29.966015
-38.408034 -65.595968 -30.337559
-39.250255 -61.463503 -31.570332
-38.315758 -63.67447 -30.74971
-25.161195 -110.230301 -23.154098
-23.624386 -110.562897 -22.884608
-26.793687 -108.507751 -23.35508
-25.161195 -110.230301 -23.154098
-26.673216 -109.806168 -23.357678
-50.142776 -87.28051 4.158749
-49.674711 -87.847237 5.34468
-50.167165 -86.592453 5.15044
-32.013065 -108.315597 18.077787
-31.503543 -107.683632 18.963832
-31.313581 -109.350151 16.746251
-32.013065 -108.315597 18.077787
-32.469011 -108.886559 17.194869
-30.941017 -110.988006 14.658334
-29.702227 -111.554588 14.358234
-30.530736 -110.487694 15.563233
-31.370577 -111.325432 13.763243
-30.941017 -110.988006 14.658334
-32.199087 -110.258537 14.968243
-31.763202 -111.595788 12.836367
-31.370577 -111.325432 13.763243
-37.431793 -107.739212 12.573943
-37.862983 -107.472145 11.584238
-36.292184 -108.749527 12.103376
-37.013326 -107.920502 13.534005
-37.431793 -107.739212 12.573943
-47.964619 -69.234059 -28.106153
-48.896408 -68.947685 -27.800239
-47.043606 -69.620942 -28.431574
-47.001923 -71.362835 -27.663902
-47.964619 -69.234059 -28.106153
-46.088671 -69.975414 -28.67152
-47.043606 -69.620942 -28.431574
-47.051367 -67.846638 -29.113771
-16.172517 -106.059105 -19.936071
-17.80319 -104.650025 -20.266821
-36.974813 -111.984001 -13.482384
-36.863979 -112.159447 -12.474175
-38.220506 -110.600799 -13.565886
-37.137989 -111.635659 -14.431454
-36.974813 -111.984001 -13.482384
-31.227716 -108.16793 -23.433983
-29.710076 -108.774437 -23.505119
-32.717484 -106.308563 -23.455662
-31.227716 -108.16793 -23.433983
-32.659128 -107.501213 -23.267929
-50.634709 -85.385964 4.919987
-50.167165 -86.592453 5.15044
-51.233324 -84.812187 3.750968
-50.634709 -85.385964 4.919987
-51.769551 -84.195549 2.59967
-51.171458 -85.409088 2.813211
-51.233324 -84.812187 3.750968
-52.439836 -83.572937 1.462882
-51.769551 -84.195549 2.59967
-38.73599 -106.861732 9.60134
-38.296284 -107.191025 10.606211
-39.199549 -106.531768 8.61588
-38.040809 -107.676033 8.2018
-38.73599 -106.861732 9.60134
-39.656176 -106.182274 7.604273
-39.199549 -106.531768 8.61588
-40.351357 -105.367973 9.003814
-41.822704 -103.852448 8.335285
-41.389767 -104.213821 9.389318
-41.276636 -104.673896 6.980966
-41.822704 -103.852448 8.335285
-42.291357 -103.507866 7.324044
-29.338898 -116.327988 -0.733119
-28.658563 -116.684646 0.350402
-30.719659 -115.127014 -0.450892
-29.338898 -116.327988 -0.733119
-52.497786 -83.073433 -14.870934
-52.197983 -84.051873 -14.019547
-53.146353 -82.446854 -14.173573
-51.765125 -83.641617 -15.508575
-52.497786 -83.073433 -14.870934
-52.713496 -82.036598 -15.662601
-52.15984 -81.478127 -17.100212
-52.964005 -80.975845 -16.516498
-51.209193 -83.200218 -16.938095
-52.15984 -81.478127 -17.100212
-51.388197 -82.073563 -17.738064
-9.416094 -115.280136 -18.370634
-10.543329 -115.71064 -18.970726
-9.416094 -115.280136 -18.370634
-9.56523 -113.901512 -18.433419
-35.171325 -111.539123 -19.469442
-36.467871 -110.576813 -18.745134
-35.235309 -110.806381 -20.154642
-35.171325 -111.539123 -19.469442
-36.626964 -109.057876 -20.123674
-35.300575 -109.973709 -20.78067
-35.235309 -110.806381 -20.154642
-55.060643 -80.775009 -12.097798
-54.585001 -81.664422 -11.128207
-54.428783 -81.303757 -12.796386
-55.060643 -80.775009 -12.097798
-53.831779 -81.90017 -13.515334
-53.443554 -82.82888 -12.603238
-54.428783 -81.303757 -12.796386
-53.146353 -82.446854 -14.173573
-53.831779 -81.90017 -13.515334
-19.463729 -103.127823 -20.597673
-17.80319 -104.650025 -20.266821
-19.034135 -104.850602 -20.745953
-19.463729 -103.127823 -20.597673
-21.106617 -101.564804 -20.955706
-25.594185 -98.144287 -22.264834
-25.308099 -99.878761 -22.297137
-26.903497 -98.050941 -22.739632
-27.47842 -94.491653 -22.718033
-28.692877 -94.346336 -23.223349
-28.981715 -92.521523 -23.234052
-25.956537 -96.347397 -22.19954
-27.47842 -94.491653 -22.718033
-25.594185 -98.144287 -22.264834
-25.956537 -96.347397 -22.19954
-32.4639 -76.814827 -25.685821
-31.363301 -78.925038 -24.868082
-32.339399 -78.817836 -25.437098
-32.491677 -74.831078 -25.997946
-32.4639 -76.814827 -25.685821
-33.467776 -74.723877 -26.566961
-32.609137 -72.7985 -26.297228
-32.491677 -74.831078 -25.997946
-32.639567 -70.792347 -26.649772
-32.609137 -72.7985 -26.297228
-33.525982 -70.733975 -27.231631
-32.765839 -68.738506 -26.995735
-32.639567 -70.792347 -26.649772
-33.607787 -66.705455 -27.972496
-32.765839 -68.738506 -26.995735
-33.607787 -66.705455 -27.972496
-34.446085 -66.597614 -28.513799
-35.367874 -66.439453 -29.048544
-36.331885 -66.206734 -29.515915
-15.996394 -113.885711 -21.013807
-14.645853 -113.764274 -20.521895
-17.572369 -112.53778 -21.406016
-15.996394 -113.885711 -21.013807
-19.193838 -111.123886 -21.750048
-17.780299 -111.123138 -21.299293
-17.572369 -112.53778 -21.406016
-20.846004 -109.596962 -22.062841
-19.193838 -111.123886 -21.750048
-20.638075 -111.011604 -22.169564
-23.785954 -109.208282 -22.816929
-22.128674 -110.839294 -22.550035
-23.624386 -110.562897 -22.884608
-29.79589 -107.529449 -23.590187
-28.219893 -109.328606 -23.473591
-29.710076 -108.774437 -23.505119
-46.706813 -96.342087 8.412955
-46.198999 -97.551895 8.366627
-46.992599 -95.907685 7.219083
-46.706813 -96.342087 8.412955
-47.280489 -95.475838 6.076906
-46.806512 -96.719918 6.070898
-46.992599 -95.907685 7.219083
-47.550076 -94.997513 4.902926
-47.280489 -95.475838 6.076906
-47.810717 -94.513779 3.774702
-47.355044 -95.804337 3.800497
-47.550076 -94.997513 4.902926
-49.289017 -89.084755 5.547865
-49.674711 -87.847237 5.34468
-48.869843 -90.371223 5.706964
-49.289017 -89.084755 5.547865
-49.231148 -89.821763 4.51209
-48.518974 -91.62764 5.862849
-48.869843 -90.371223 5.706964
-48.408862 -92.407593 4.77416
-48.518974 -91.62764 5.862849
-48.27202 -93.170288 3.7251
-48.408862 -92.407593 4.77416
-48.675133 -91.870926 3.622129
-48.076988 -93.977112 2.622671
-47.810717 -94.513779 3.774702
-48.27202 -93.170288 3.7251
-55.250915 -81.105457 -5.826371
-54.290017 -82.401055 -5.649619
-54.638359 -81.872036 -4.772411
-55.931099 -80.318085 -6.893844
-55.250915 -81.105457 -5.826371
-53.0429 -82.910797 0.339725
-52.310748 -84.13031 0.538755
-52.439836 -83.572937 1.462882
-53.769991 -82.240925 -0.774012
-53.0429 -82.910797 0.339725
-53.89908 -81.683552 0.150114
-55.557512 -79.815213 -1.166654
-54.728325 -80.500527 -0.060561
-55.384559 -80.296566 -2.06185
-55.557512 -79.815213 -1.166654
-56.3159 -79.098099 -2.264881
-55.871103 -80.077946 -4.054621
-54.913574 -81.319317 -3.867225
-55.185419 -80.820824 -2.972682
-55.871103 -80.077946 -4.054621
-56.898623 -78.81136 -4.248727
-30.380949 -107.984016 18.522841
-31.503543 -107.683632 18.963832
-30.380949 -107.984016 18.522841
-29.647083 -109.190582 17.348622
-28.397481 -112.217858 14.203841
-29.702227 -111.554588 14.358234
-33.826696 -109.791489 14.502913
-33.378584 -109.621223 15.410926
-33.036407 -110.71244 13.152557
-33.826696 -109.791489 14.502913
-34.234457 -109.907967 13.582317
-32.170963 -111.712265 11.915771
-31.763202 -111.595788 12.836367
-33.036407 -110.71244 13.152557
-31.284465 -112.654152 10.643114
-32.170963 -111.712265 11.915771
-32.557671 -111.770805 10.959304
-30.342275 -113.668259 9.477448
-31.284465 -112.654152 10.643114
-29.404168 -114.622772 8.255782
-30.342275 -113.668259 9.477448
-30.733066 -113.667205 8.46498
-28.430571 -115.634819 7.123575
-29.404168 -114.622772 8.255782
-28.854095 -115.574333 6.041534
-27.489708 -116.587433 5.921795
-28.430571 -115.634819 7.123575
-32.100443 -113.923462 -0.163129
-30.719659 -115.127014 -0.450892
-31.428621 -114.294433 0.842579
-33.461798 -112.728378 0.177926
-34.163714 -111.895294 1.477003
-34.816105 -111.532791 0.524588
-32.100443 -113.923462 -0.163129
-33.461798 -112.728378 0.177926
-36.762516 -110.492829 -2.17403
-36.133223 -110.822403 -1.290123
-37.384585 -109.686921 -0.917271
-36.762516 -110.492829 -2.17403
-37.454363 -110.131447 -2.982984
-37.060643 -111.224045 -5.980017
-37.501128 -110.575401 -4.902175
-37.676542 -110.825607 -6.471467
-36.629778 -111.804397 -6.811923
-37.060643 -111.224045 -5.980017
-36.629778 -111.804397 -6.811923
-36.408914 -112.216865 -7.805233
-50.354671 -74.869442 -23.643369
-50.243961 -76.375378 -22.785628
-49.457443 -75.199234 -24.103967
-50.354671 -74.869442 -23.643369
-48.58325 -75.638858 -24.614801
-48.484999 -77.214275 -23.807747
-49.457443 -75.199234 -24.103967
-48.668919 -74.00098 -25.361259
-48.758255 -72.351387 -26.193165
-47.696474 -76.016021 -25.065039
-48.58325 -75.638858 -24.614801
-48.668919 -74.00098 -25.361259
-46.988653 -62.530401 -31.282341
-47.02262 -64.298146 -30.543432
-45.956976 -62.842049 -31.345316
-46.988653 -62.530401 -31.282341
-46.916374 -60.743842 -31.932833
-45.781012 -59.272175 -32.619215
-46.846173 -58.977554 -32.64134
-44.815781 -61.423538 -31.962941
-45.781012 -59.272175 -32.619215
-44.712095 -59.640225 -32.586348
-40.326504 -61.123359 -31.87097
-40.461962 -62.964283 -31.38175
-41.420729 -60.740669 -32.131466
-39.250255 -61.463503 -31.570332
-40.326504 -61.123359 -31.87097
-13.841522 -110.630798 -19.855066
-15.103763 -110.877243 -20.342012
-15.411888 -109.334228 -20.226234
-12.3381 -111.810615 -19.448688
-13.841522 -110.630798 -19.855066
-15.761622 -107.730294 -20.077194
-16.172517 -106.059105 -19.936071
3 0 289 291
3 289 73 290
3 289 290 291
3 1 76 74
3 1 78 76
3 3 80 79
3 3 82 80
3 292 84 293
3 4 87 85
3 2 294 296
3 294 90 295
3 294 295 296
3 5 297 298
3 5 299 301
3 299 91 300
3 299 300 301
3 303 302 92
3 7 96 94
3 8 304 306
3 306 305 97
3 304 305 306
3 8 307 308
3 8 309 311
3 309 98 310
3 309 310 311
3 9 101 99
3 9 102 101
3 312 104 313
3 10 107 105
3 10 109 107
3 11 112 110
3 13 115 113
3 13 117 115
3 14 120 118
3 14 122 120
3 14 124 122
3 314 126 315
3 316 127 317
3 318 317 126
3 316 317 318
3 15 319 321
3 319 128 320
3 319 320 321
3 15 130 128
3 15 132 130
3 11 135 133
3 11 110 135
3 12 139 137
3 16 142 140
3 16 144 142
3 6 147 145
3 17 150 148
3 17 152 150
3 17 154 152
3 18 157 155
3 18 159 157
3 322 161 323
3 324 163 325
3 326 325 161
3 324 325 326
3 19 327 328
3 19 329 331
3 329 164 330
3 329 330 331
3 20 167 165
3 22 168 75
3 22 169 168
3 22 171 169
3 24 172 77
3 24 173 172
3 25 332 333
3 25 334 335
3 25 336 338
3 336 175 337
3 336 337 338
3 27 176 81
3 27 177 176
3 28 180 178
3 30 181 83
3 30 182 181
3 339 184 340
3 28 341 343
3 341 185 342
3 341 342 343
3 28 178 185
3 32 344 345
3 32 346 348
3 346 186 347
3 346 347 348
3 33 189 187
3 35 190 86
3 35 191 190
3 349 193 350
3 37 351 353
3 351 194 352
3 351 352 353
3 37 195 194
3 37 197 195
3 354 198 355
3 356 355 88
3 354 355 356
3 357 199 358
3 359 358 198
3 357 358 359
3 361 360 89
3 39 362 364
3 362 200 363
3 362 363 364
3 39 201 200
3 40 204 202
3 365 205 366
3 367 366 93
3 365 366 367
3 368 206 369
3 370 369 205
3 368 369 370
3 42 209 207
3 371 210 372
3 373 372 95
3 371 372 373
3 375 374 210
3 21 211 166
3 23 212 170
3 44 213 100
3 44 214 213
3 44 376 378
3 378 377 214
3 376 377 378
3 379 215 380
3 45 216 103
3 45 217 216
3 26 218 174
3 46 219 106
3 46 220 219
3 46 221 220
3 47 222 108
3 47 223 222
3 48 226 224
3 50 227 111
3 50 228 227
3 29 229 179
3 51 230 114
3 51 231 230
3 51 232 231
3 52 233 116
3 52 234 233
3 53 235 119
3 53 236 235
3 53 237 236
3 54 238 121
3 54 239 238
3 54 240 239
3 55 241 123
3 55 381 383
3 383 382 241
3 381 382 383
3 384 242 385
3 386 243 387
3 389 388 243
3 56 390 392
3 392 391 125
3 390 391 392
3 56 393 394
3 56 395 396
3 57 397 398
3 57 399 400
3 57 401 403
3 401 244 402
3 401 402 403
3 58 245 129
3 58 246 245
3 58 247 246
3 59 248 131
3 59 249 248
3 31 250 183
3 60 251 134
3 60 404 406
3 406 405 251
3 404 405 406
3 60 407 408
3 48 409 411
3 411 410 136
3 409 410 411
3 48 412 414
3 412 224 413
3 412 413 414
3 49 252 225
3 61 253 138
3 61 254 253
3 34 255 188
3 62 256 141
3 62 257 256
3 62 258 257
3 63 259 143
3 63 260 259
3 41 261 203
3 64 262 146
3 64 263 262
3 36 264 192
3 65 265 149
3 65 266 265
3 65 267 266
3 66 268 151
3 66 269 268
3 66 270 269
3 67 271 153
3 67 272 271
3 38 273 196
3 68 274 156
3 68 275 274
3 68 276 275
3 69 277 158
3 69 278 277
3 70 415 416
3 70 417 419
3 417 279 418
3 417 418 419
3 70 280 279
3 71 281 160
3 71 282 281
3 71 283 282
3 72 284 162
3 72 285 284
3 420 286 421
3 422 287 423
3 424 288 425
3 426 425 287
3 424 425 426
3 428 427 288
3 43 429 431
3 431 430 208
3 429 430 431
3 73 432 433
3 73 434 436
3 434 19 435
3 434 435 436
3 74 75 20
3 76 75 74
3 76 22 75
3 76 77 22
3 78 77 76
3 78 24 77
3 79 437 438
3 80 439 441
3 441 440 79
3 439 440 441
3 80 442 444
3 442 25 443
3 442 443 444
3 80 81 25
3 82 81 80
3 82 27 81
3 445 83 446
3 447 446 28
3 445 446 447
3 448 83 449
3 450 30 451
3 452 451 83
3 450 451 452
3 453 28 454
3 84 455 456
3 84 457 459
3 457 32 458
3 457 458 459
3 85 86 33
3 87 86 85
3 87 35 86
3 460 37 461
3 462 88 463
3 464 463 37
3 462 463 464
3 465 88 466
3 468 467 88
3 469 89 470
3 90 471 473
3 471 89 472
3 471 472 473
3 90 474 476
3 476 475 89
3 474 475 476
3 91 477 478
3 91 479 481
3 479 39 480
3 479 480 481
3 92 93 40
3 482 93 483
3 484 483 92
3 482 483 484
3 486 485 93
3 94 95 42
3 96 95 94
3 96 487 489
3 489 488 95
3 487 488 489
3 97 490 492
3 492 491 21
3 490 491 492
3 494 493 97
3 98 495 496
3 98 497 498
3 99 100 23
3 101 100 99
3 101 44 100
3 101 499 501
3 501 500 44
3 499 500 501
3 102 502 504
3 504 503 101
3 502 503 504
3 102 505 506
3 507 103 508
3 104 509 511
3 509 103 510
3 509 510 511
3 104 45 103
3 105 106 26
3 107 106 105
3 107 46 106
3 107 108 46
3 109 108 107
3 109 47 108
3 110 111 48
3 112 111 110
3 112 50 111
3 113 114 29
3 115 114 113
3 115 51 114
3 115 116 51
3 117 116 115
3 117 52 116
3 118 512 514
3 512 119 513
3 512 513 514
3 120 119 118
3 120 53 119
3 120 121 53
3 122 121 120
3 122 54 121
3 122 123 54
3 124 123 122
3 124 55 123
3 515 125 516
3 126 517 519
3 517 125 518
3 517 518 519
3 126 56 125
3 126 520 522
3 522 521 56
3 520 521 522
3 127 523 525
3 525 524 126
3 523 524 525
3 127 526 527
3 128 528 529
3 128 530 532
3 530 57 531
3 530 531 532
3 128 129 57
3 130 129 128
3 130 58 129
3 130 131 58
3 132 131 130
3 132 59 131
3 133 134 31
3 135 134 133
3 135 60 134
3 135 136 60
3 110 136 135
3 110 48 136
3 137 138 49
3 139 138 137
3 139 61 138
3 140 141 34
3 142 141 140
3 142 62 141
3 142 143 62
3 144 143 142
3 144 63 143
3 145 146 41
3 147 146 145
3 147 64 146
3 148 149 36
3 150 149 148
3 150 65 149
3 150 151 65
3 152 151 150
3 152 66 151
3 152 153 66
3 154 153 152
3 154 67 153
3 155 156 38
3 157 156 155
3 157 68 156
3 157 158 68
3 159 158 157
3 159 69 158
3 533 70 534
3 535 160 536
3 537 536 70
3 535 536 537
3 161 538 540
3 538 160 539
3 538 539 540
3 161 71 160
3 161 162 71
3 163 162 161
3 163 72 162
3 542 541 43
3 164 543 544
3 164 545 547
3 545 5 546
3 545 546 547
3 165 166 7
3 167 166 165
3 167 21 166
3 75 167 20
3 168 167 75
3 168 21 167
3 168 97 21
3 169 97 168
3 169 8 97
3 169 170 8
3 171 170 169
3 171 23 170
3 77 171 22
3 172 171 77
3 172 23 171
3 172 99 23
3 173 99 172
3 173 9 99
3 548 174 549
3 175 550 552
3 550 174 551
3 550 551 552
3 175 26 174
3 81 175 25
3 176 175 81
3 176 26 175
3 176 105 26
3 177 105 176
3 177 10 105
3 178 179 11
3 180 179 178
3 180 29 179
3 83 180 28
3 181 180 83
3 181 29 180
3 181 113 29
3 182 113 181
3 182 13 113
3 553 118 554
3 555 118 556
3 557 14 558
3 559 558 118
3 557 558 559
3 561 560 14
3 562 15 563
3 564 183 565
3 566 565 15
3 564 565 566
3 184 567 569
3 567 183 568
3 567 568 569
3 184 31 183
3 570 184 571
3 185 572 574
3 572 184 573
3 572 573 574
3 185 31 184
3 185 133 31
3 178 133 185
3 178 11 133
3 186 575 576
3 186 577 578
3 187 188 12
3 189 188 187
3 189 34 188
3 86 189 33
3 190 189 86
3 190 34 189
3 190 140 34
3 191 140 190
3 191 16 140
3 579 192 580
3 581 580 6
3 579 580 581
3 193 582 584
3 582 192 583
3 582 583 584
3 193 36 192
3 585 193 586
3 194 587 589
3 587 193 588
3 587 588 589
3 194 36 193
3 194 148 36
3 195 148 194
3 195 17 148
3 195 196 17
3 197 196 195
3 197 38 196
3 88 197 37
3 198 197 88
3 198 38 197
3 198 155 38
3 199 155 198
3 199 18 155
3 89 590 591
3 593 592 89
3 200 594 595
3 200 596 597
3 200 598 600
3 598 79 599
3 598 599 600
3 201 79 200
3 201 3 79
3 202 203 4
3 204 203 202
3 204 41 203
3 93 204 40
3 205 204 93
3 205 41 204
3 205 145 41
3 206 145 205
3 206 6 145
3 601 206 602
3 603 206 604
3 605 6 606
3 607 606 206
3 605 606 607
3 609 608 6
3 207 208 2
3 209 208 207
3 209 43 208
3 95 209 42
3 210 209 95
3 210 43 209
3 210 610 612
3 612 611 43
3 610 611 612
3 614 613 210
3 166 96 7
3 211 96 166
3 211 615 617
3 617 616 96
3 615 616 617
3 618 211 619
3 620 619 21
3 618 619 620
3 621 211 622
3 624 623 211
3 170 98 8
3 212 98 170
3 212 625 627
3 627 626 98
3 625 626 627
3 100 212 23
3 213 212 100
3 213 628 630
3 630 629 212
3 628 629 630
3 213 631 632
3 214 633 635
3 635 634 213
3 633 634 635
3 214 636 637
3 214 638 639
3 641 640 214
3 643 642 44
3 644 2 645
3 646 2 647
3 648 207 649
3 650 649 2
3 648 649 650
3 215 651 653
3 651 207 652
3 651 652 653
3 215 42 207
3 103 654 656
3 654 215 655
3 654 655 656
3 216 215 103
3 216 42 215
3 216 94 42
3 217 94 216
3 217 7 94
3 174 657 659
3 657 104 658
3 657 658 659
3 218 104 174
3 218 45 104
3 106 218 26
3 219 218 106
3 219 45 218
3 219 217 45
3 220 217 219
3 220 7 217
3 220 165 7
3 221 165 220
3 221 20 165
3 108 221 46
3 222 221 108
3 222 20 221
3 222 74 20
3 223 74 222
3 223 1 74
3 224 225 0
3 226 225 224
3 226 49 225
3 111 226 48
3 227 226 111
3 227 49 226
3 227 137 49
3 228 137 227
3 228 12 137
3 179 112 11
3 229 112 179
3 229 50 112
3 114 229 29
3 230 229 114
3 230 50 229
3 230 228 50
3 231 228 230
3 231 12 228
3 231 187 12
3 232 187 231
3 232 33 187
3 116 232 51
3 233 232 116
3 233 33 232
3 233 85 33
3 234 85 233
3 234 4 85
3 660 30 661
3 662 30 663
3 664 182 665
3 666 665 30
3 664 665 666
3 667 182 668
3 669 13 670
3 671 670 182
3 669 670 671
3 119 672 673
3 235 674 676
3 676 675 119
3 674 675 676
3 235 677 678
3 235 679 680
3 236 681 683
3 683 682 235
3 681 682 683
3 236 684 686
3 684 13 685
3 684 685 686
3 236 117 13
3 237 117 236
3 237 52 117
3 121 237 53
3 238 237 121
3 238 52 237
3 238 234 52
3 239 234 238
3 239 4 234
3 239 202 4
3 240 202 239
3 240 40 202
3 123 240 54
3 241 240 123
3 241 40 240
3 241 92 40
3 687 92 688
3 689 688 241
3 687 688 689
3 691 690 92
3 692 124 693
3 694 693 14
3 692 693 694
3 242 695 697
3 695 124 696
3 695 696 697
3 242 55 124
3 698 242 699
3 243 700 702
3 700 242 701
3 700 701 702
3 243 55 242
3 243 703 705
3 705 704 55
3 703 704 705
3 707 706 243
3 125 708 709
3 711 710 125
3 713 712 56
3 714 127 715
3 244 716 718
3 716 127 717
3 716 717 718
3 244 719 721
3 721 720 127
3 719 720 721
3 129 244 57
3 245 244 129
3 245 722 724
3 724 723 244
3 722 723 724
3 245 725 726
3 246 727 729
3 729 728 245
3 727 728 729
3 246 730 731
3 246 732 734
3 732 84 733
3 732 733 734
3 247 84 246
3 247 32 84
3 131 247 58
3 248 247 131
3 248 32 247
3 248 186 32
3 249 186 248
3 249 735 737
3 737 736 186
3 735 736 737
3 183 132 15
3 250 132 183
3 250 59 132
3 134 250 31
3 251 250 134
3 251 59 250
3 251 249 59
3 738 249 739
3 740 739 251
3 738 739 740
3 742 741 249
3 136 743 745
3 745 744 60
3 743 744 745
3 747 746 136
3 224 748 749
3 224 750 752
3 750 0 751
3 750 751 752
3 753 0 754
3 225 73 0
3 252 73 225
3 252 19 73
3 138 252 49
3 253 252 138
3 253 19 252
3 253 164 19
3 254 164 253
3 254 5 164
3 188 139 12
3 255 139 188
3 255 61 139
3 141 255 34
3 256 255 141
3 256 61 255
3 256 254 61
3 257 254 256
3 257 5 254
3 257 91 5
3 258 91 257
3 258 39 91
3 143 258 62
3 259 258 143
3 259 39 258
3 259 201 39
3 260 201 259
3 260 3 201
3 203 87 4
3 261 87 203
3 261 35 87
3 146 261 41
3 262 261 146
3 262 35 261
3 262 191 35
3 263 191 262
3 263 16 191
3 192 147 6
3 264 147 192
3 264 64 147
3 149 264 36
3 265 264 149
3 265 64 264
3 265 263 64
3 266 263 265
3 266 16 263
3 266 144 16
3 267 144 266
3 267 63 144
3 151 267 65
3 268 267 151
3 268 63 267
3 268 260 63
3 269 260 268
3 269 3 260
3 269 82 3
3 270 82 269
3 270 27 82
3 153 270 66
3 271 270 153
3 271 27 270
3 271 177 27
3 272 177 271
3 272 10 177
3 196 154 17
3 273 154 196
3 273 67 154
3 156 273 38
3 274 273 156
3 274 67 273
3 274 272 67
3 275 272 274
3 275 10 272
3 275 109 10
3 276 109 275
3 276 47 109
3 158 276 68
3 277 276 158
3 277 47 276
3 277 223 47
3 278 223 277
3 278 1 223
3 755 199 756
3 757 199 758
3 759 18 760
3 761 760 199
3 759 760 761
3 279 762 763
3 279 764 766
3 764 18 765
3 764 765 766
3 279 159 18
3 280 159 279
3 280 69 159
3 160 280 70
3 281 280 160
3 281 69 280
3 281 278 69
3 282 278 281
3 282 1 278
3 282 78 1
3 283 78 282
3 283 24 78
3 162 283 71
3 284 283 162
3 284 24 283
3 284 173 24
3 285 173 284
3 285 9 173
3 767 163 768
3 286 769 771
3 769 163 770
3 769 770 771
3 286 72 163
3 772 286 773
3 287 774 776
3 774 286 775
3 774 775 776
3 287 72 286
3 287 285 72
3 288 285 287
3 288 9 285
3 288 102 9
3 777 102 778
3 779 778 288
3 777 778 779
3 781 780 102
3 208 90 2
3 782 90 783
3 784 783 208
3 782 783 784
3 786 785 90
3 788 787 43
