ply
format ascii 1.0
element vertex 440
property float x
property float y
property float z
element face 520
property list uchar int vertex_index
end_header
17.104214 -126.378906 -0.016056
23.878307 -120.099564 -18.598379
26.221745 -120.441315 -3.160427
31.754402 -117.302307 -12.993803
19.689968 -125.673592 -10.244291
42.958527 -105.667023 -11.035622
37.286423 -109.558365 -19.439089
29.15435 -109.089119 -21.946951
10.066988 -126.653198 -1.48901
12.0634 -124.464005 -12.638765
15.296179 -116.884613 -18.845968
21.122803 -124.316162 -1.741852
23.193382 -123.686829 -7.202225
18.086479 -126.556046 -4.725187
40.300583 -108.464615 -7.32255
28.09935 -119.451736 -16.562773
34.621155 -114.148079 -16.697275
30.735184 -115.375755 -19.531878
33.378941 -109.896835 -21.43799
26.370268 -115.228088 -20.727453
6.871096 -124.336121 -1.787933
10.938772 -126.227127 -7.416
7.777819 -123.529396 -7.561543
9.712988 -118.141617 -15.938604
31.709152 -115.557007 -3.6723
34.760036 -114.05014 -8.344942
28.873625 -119.27858 -8.383997
25.53923 -122.146439 -12.363556
21.661869 -123.569427 -15.095968
5.197063 -119.589027 -7.175062
37.79237 -111.713867 -12.428173
40.496468 -108.090157 -15.820734
14.337103 -125.752174 4.223652
13.784653 -127.246292 -0.828331
10.008675 -125.728996 4.325311
6.285885 -123.951195 4.253069
18.913204 -124.119774 3.476802
28.959915 -116.55072 1.367325
23.814484 -120.918808 2.241598
14.514046 -127.277916 -6.529997
15.858909 -125.956909 -12.027773
17.478765 -123.266273 -16.374857
8.603985 -121.494148 -12.426931
13.373617 -121.355095 -16.493017
19.452917 -119.180275 -19.176508
22.014126 -113.765694 -20.699362
25.15086 -107.20359 -21.559412
18.867472 -125.632195 -0.838724
19.682751 -125.605362 -3.399363
17.495409 -126.583015 -2.10803
41.349384 -106.69072 -4.629206
38.806976 -109.463684 -5.301939
26.042406 -119.975868 -17.783064
29.413708 -117.593903 -18.199469
27.294367 -117.901886 -19.207418
28.585434 -115.474236 -20.321058
25.085796 -117.83445 -19.812838
7.325418 -124.083466 -4.74901
6.014402 -122.29364 -4.697701
28.933372 -118.079575 -3.543915
30.341183 -117.481789 -6.086349
27.509531 -119.944664 -5.822678
21.500931 -124.871994 -8.87262
24.330112 -123.043419 -9.868494
22.54418 -124.115898 -11.503242
23.65941 -123.065605 -13.909924
20.641727 -124.783936 -12.811052
33.332348 -115.77903 -10.766094
36.302628 -113.016792 -10.468634
34.838306 -114.575241 -12.838972
35.984032 -112.037254 -18.182741
37.684788 -111.195847 -16.365778
38.989189 -108.958412 -17.814337
31.272844 -109.632668 -21.846792
32.646519 -106.279434 -22.393538
12.752546 -124.834091 6.821157
12.131428 -125.956444 4.318621
10.440817 -124.780952 7.018332
15.15543 -124.447044 6.509538
31.601065 -114.12896 1.231054
30.294926 -114.54554 3.679238
25.158211 -118.946266 4.343479
22.621475 -120.836449 4.897065
21.325127 -122.701927 2.861435
20.103518 -122.419106 5.499201
11.895288 -127.168289 -1.199242
14.034872 -127.433884 -3.636147
12.2043 -127.245407 -4.140402
11.489302 -125.512032 -10.166645
13.285423 -126.367973 -9.891291
13.934971 -125.419334 -12.46133
16.63796 -124.785934 -14.3866
14.629263 -124.128891 -14.697346
6.742176 -120.787132 -9.916603
7.072973 -119.570358 -12.113071
12.325773 -117.75985 -17.553507
11.466768 -119.894211 -16.2778
14.227459 -119.288078 -17.842573
16.270092 -120.51104 -17.998701
17.312569 -118.189262 -19.087183
20.651831 -116.629791 -20.062647
18.554497 -115.541306 -19.872435
23.604445 -122.552704 -2.544006
24.760521 -122.184448 -5.276764
22.13332 -124.105026 -4.460449
20.546299 -125.360756 -6.126436
18.82856 -126.258553 -7.50152
41.693027 -107.220985 -9.235308
30.010033 -118.546646 -14.950071
33.205048 -115.894745 -14.967949
31.393827 -116.915909 -16.775961
32.760796 -114.92952 -18.321306
34.098953 -112.578529 -19.601748
35.403103 -109.873009 -20.648386
32.058529 -112.803185 -20.594412
29.914042 -112.708832 -21.178679
27.730972 -112.303078 -21.413069
8.377954 -125.699051 -1.685291
10.442335 -126.608574 -4.486588
8.805931 -125.540565 -4.684271
9.29277 -125.061012 -7.567156
9.784971 -124.261414 -10.237341
7.502993 -118.018394 -13.974655
8.149637 -116.114632 -15.483189
10.607601 -115.946907 -17.156713
16.612194 -114.159225 -19.564508
36.062103 -112.194878 -5.799032
33.212399 -114.878456 -6.071968
31.819031 -116.729012 -8.506229
30.298878 -118.413315 -10.789173
25.9832 -121.627441 -7.953793
27.278292 -120.860916 -10.500174
28.629402 -119.84845 -12.848835
26.802471 -120.960701 -14.611288
24.829285 -121.693184 -16.016394
22.740082 -122.011467 -17.032808
37.618206 -111.288727 -7.935167
39.119995 -110.160599 -9.941141
40.524986 -108.742386 -11.809208
36.297852 -113.061523 -14.707962
39.194927 -110.083984 -14.213835
41.813911 -106.980873 -13.532614
15.853554 -126.264854 1.845835
15.608684 -126.935974 -0.407602
13.865156 -126.692421 1.794339
11.849552 -126.73938 1.640489
9.897465 -126.358772 1.474332
8.038897 -125.057495 4.294373
8.092859 -125.536072 1.334455
6.49234 -124.289772 1.237905
17.611393 -123.634895 6.060938
16.591015 -125.137413 3.957219
17.874174 -125.49424 1.545321
33.008347 -113.586334 -1.190639
30.287201 -116.115944 -1.178469
27.610416 -118.537842 -0.925226
27.71451 -116.823578 3.917495
26.362089 -118.840683 1.719473
25.000938 -120.773277 -0.455549
22.478207 -122.732605 0.179888
20.079773 -124.328201 0.895738
15.842052 -127.194878 -2.968597
16.338959 -127.128059 -5.752319
17.008331 -126.745491 -8.580624
12.692511 -126.977081 -7.078756
15.141198 -126.785767 -9.371994
17.793562 -126.043068 -11.295965
18.657953 -125.010452 -13.769768
19.585527 -123.634811 -15.909845
20.580585 -121.907143 -17.666803
6.408199 -121.688797 -7.425409
8.195843 -122.669548 -10.143696
10.276794 -123.138985 -12.611786
9.076221 -119.989586 -14.365036
10.811666 -121.686455 -14.633444
12.674538 -123.080132 -14.759495
15.392361 -122.492737 -16.546045
18.405418 -121.396454 -17.965075
21.661634 -119.827263 -19.040777
22.84973 -117.402863 -20.070883
24.157272 -114.65184 -20.82416
25.579687 -111.599907 -21.381529
20.001522 -112.588814 -20.432112
23.526308 -110.61438 -21.170935
27.093134 -108.27668 -21.824926
38.034891 -109.877308 -4.240059
39.345968 -108.537544 -3.956374
5.241145 -121.444362 -3.21517
5.79011 -122.454284 -3.249828
44.003647 -104.076565 -10.601278
43.453114 -104.929985 -9.722777
43.530149 -104.71328 -11.876558
44.003647 -104.076565 -10.601278
38.75066 -107.95591 -19.251846
39.602043 -107.655934 -18.43947
38.137806 -109.258388 -18.626713
37.907921 -108.143345 -19.965263
38.75066 -107.95591 -19.251846
29.884315 -107.353878 -22.174747
31.6304 -105.949036 -22.398041
30.900434 -107.684276 -22.170244
10.81503 -124.162261 8.275493
11.596681 -124.807522 6.919745
11.970894 -124.188831 8.176906
11.970894 -124.188831 8.176906
13.211547 -124.120384 7.986217
30.960653 -113.558846 4.839925
31.594611 -113.362278 3.672429
22.007295 -120.658745 6.195818
23.292105 -119.819333 5.904261
20.748316 -121.450074 6.496887
21.362496 -121.627778 5.198133
22.007295 -120.658745 6.195818
6.3928 -118.481788 -11.8949
6.259123 -119.111542 -10.841652
41.50763 -107.020061 -6.942649
42.03203 -106.133114 -5.595977
40.824984 -107.577667 -5.975878
40.996805 -107.8428 -8.278929
42.203851 -106.398246 -7.899028
41.50763 -107.020061 -6.942649
7.478993 -114.966331 -15.189445
7.137087 -115.950649 -14.470371
11.213679 -114.679523 -17.605055
9.858039 -114.901951 -16.901386
12.029815 -115.617786 -17.827383
11.213679 -114.679523 -17.605055
32.460775 -115.217731 -4.872134
33.859953 -113.91193 -4.808137
33.108329 -114.251205 -3.608303
41.74487 -106.469594 -15.46359
42.403591 -105.914952 -14.31953
41.155189 -107.535515 -14.676674
35.025196 -108.368404 -21.471166
36.037278 -108.356491 -21.076364
34.391022 -109.884922 -21.043188
7.162391 -124.504345 4.273721
7.188875 -124.196979 5.745633
6.31237 -123.64383 5.724981
16.918838 -123.233292 7.365457
18.210695 -122.739013 7.082005
33.635628 -112.613216 0.070301
34.36909 -112.296497 -1.075654
27.11703 -116.850139 5.172401
28.393397 -115.800815 5.01262
5.802631 -120.638912 -7.300235
5.644015 -120.95869 -5.984217
5.038447 -119.908805 -5.859043
19.085462 -111.861351 -20.252583
18.306858 -113.37402 -19.99831
17.390798 -112.646557 -19.818781
24.338584 -108.908985 -21.365173
22.576556 -109.985977 -21.010046
23.388832 -108.280582 -21.204284
26.904612 -105.957455 -21.894112
27.875749 -106.494 -22.026868
26.121997 -107.740135 -21.692169
40.617172 -107.151062 -3.620007
41.810778 -105.795468 -3.26223
40.07818 -108.077202 -4.965573
40.617172 -107.151062 -3.620007
39.345968 -108.537544 -3.956374
6.445619 -123.349198 -3.275482
7.098257 -124.209794 -3.268471
6.218457 -123.475525 -1.794944
6.66991 -123.188553 -4.723356
6.445619 -123.349198 -3.275482
5.79011 -122.454284 -3.249828
40.346075 -107.340114 -17.531771
41.099715 -106.905987 -16.534969
39.742829 -108.524284 -16.817535
40.346075 -107.340114 -17.531771
39.602043 -107.655934 -18.43947
32.980927 -108.160686 -21.983494
34.033976 -108.29277 -21.779092
32.325892 -109.764751 -21.642391
33.667765 -106.48407 -22.256867
32.980927 -108.160686 -21.983494
31.959681 -107.956051 -22.120165
34.31197 -104.748439 -22.545887
33.667765 -106.48407 -22.256867
33.329836 -104.482238 -22.637436
34.31197 -104.748439 -22.545887
33.329836 -104.482238 -22.637436
31.6304 -105.949036 -22.398041
5.476313 -122.96365 5.73615
6.31237 -123.64383 5.724981
5.538528 -123.197178 4.234916
5.476313 -122.96365 5.73615
14.412989 -123.926861 7.830407
15.690857 -123.639366 7.589757
13.953988 -124.640568 6.665348
14.412989 -123.926861 7.830407
13.211547 -124.120384 7.986217
32.24768 -113.153988 2.448337
32.931987 -112.88453 1.281147
30.947995 -114.33725 2.455146
32.24768 -113.153988 2.448337
31.594611 -113.362278 3.672429
24.560474 -118.874241 5.627468
25.838881 -117.911484 5.385393
23.889843 -119.891357 4.620272
24.560474 -118.874241 5.627468
23.292105 -119.819333 5.904261
6.093724 -119.719929 -9.743417
5.96962 -120.18808 -8.545832
5.321167 -119.120876 -8.372647
6.907574 -120.178745 -11.014837
6.093724 -119.719929 -9.743417
6.259123 -119.111542 -10.841652
24.264062 -106.538288 -21.381867
23.388832 -108.280582 -21.204284
25.992629 -105.381043 -21.748979
24.264062 -106.538288 -21.381867
42.472797 -105.276848 -4.234957
41.810778 -105.795468 -3.26223
42.472797 -105.276848 -4.234957
42.03203 -106.133114 -5.595977
42.820364 -105.706966 -8.82262
42.203851 -106.398246 -7.899028
42.325777 -106.444004 -10.135465
43.453114 -104.929985 -9.722777
42.820364 -105.706966 -8.82262
6.813766 -116.90253 -13.716105
6.60781 -117.705806 -12.825692
7.826315 -117.066513 -14.728922
6.813766 -116.90253 -13.716105
7.137087 -115.950649 -14.470371
8.629057 -114.985814 -16.064624
7.478993 -114.966331 -15.189445
9.378619 -116.030769 -16.319951
8.629057 -114.985814 -16.064624
9.858039 -114.901951 -16.901386
12.888901 -116.524258 -18.02578
11.466687 -116.853378 -17.35511
12.029815 -115.617786 -17.827383
14.374104 -116.08664 -18.67201
13.810976 -117.322232 -18.199737
12.888901 -116.524258 -18.02578
15.032111 -114.723946 -19.031281
15.954186 -115.521919 -19.205238
14.374104 -116.08664 -18.67201
15.740763 -113.327686 -19.366762
15.032111 -114.723946 -19.031281
17.390798 -112.646557 -19.818781
15.740763 -113.327686 -19.366762
35.284805 -112.570141 -4.671669
36.662454 -111.242905 -4.488606
34.637251 -113.536667 -5.9355
35.284805 -112.570141 -4.671669
33.859953 -113.91193 -4.808137
4.563209 -118.762917 -5.732741
5.038447 -119.908805 -5.859043
4.678518 -118.427727 -6.994809
4.563209 -118.762917 -5.732741
5.321167 -119.120876 -8.372647
4.678518 -118.427727 -6.994809
37.434539 -110.829281 -5.550486
38.034891 -109.877308 -4.240059
36.662454 -111.242905 -4.488606
42.957842 -105.370205 -13.125053
43.530149 -104.71328 -11.876558
42.386219 -106.323948 -12.284118
42.957842 -105.370205 -13.125053
42.403591 -105.914952 -14.31953
41.74487 -106.469594 -15.46359
41.099715 -106.905987 -16.534969
36.966261 -108.300667 -20.569912
37.907921 -108.143345 -19.965263
36.344763 -109.715687 -20.043737
36.966261 -108.300667 -20.569912
36.037278 -108.356491 -21.076364
35.025196 -108.368404 -21.471166
34.033976 -108.29277 -21.779092
9.642653 -124.006114 8.419145
10.81503 -124.162261 8.275493
9.360926 -124.530277 7.076756
9.642653 -124.006114 8.419145
9.144856 -125.004299 5.730246
10.224746 -125.254974 5.671822
9.360926 -124.530277 7.076756
8.159966 -124.668548 5.714777
7.188875 -124.196979 5.745633
9.023786 -125.393246 4.309842
9.144856 -125.004299 5.730246
8.159966 -124.668548 5.714777
5.641756 -123.366467 2.727334
6.389113 -124.120484 2.745487
5.538528 -123.197178 4.234916
5.808816 -123.475647 1.214586
5.641756 -123.366467 2.727334
5.998194 -123.498822 -0.298333
6.681718 -124.312947 -0.275014
5.808816 -123.475647 1.214586
6.218457 -123.475525 -1.794944
5.998194 -123.498822 -0.298333
19.456758 -122.131119 6.801137
20.748316 -121.450074 6.496887
18.857456 -123.027 5.780069
19.456758 -122.131119 6.801137
18.210695 -122.739013 7.082005
16.383412 -124.04097 6.285238
16.918838 -123.233292 7.365457
15.690857 -123.639366 7.589757
33.757927 -113.265869 -2.367472
34.36909 -112.296497 -1.075654
32.35875 -114.57167 -2.431469
33.108329 -114.251205 -3.608303
33.757927 -113.265869 -2.367472
32.304706 -113.857647 0.020208
33.635628 -112.613216 0.070301
32.931987 -112.88453 1.281147
29.683605 -114.661797 4.893491
30.960653 -113.558846 4.839925
29.004718 -115.684559 3.798367
29.683605 -114.661797 4.893491
28.393397 -115.800815 5.01262
26.43636 -117.884922 4.130487
27.11703 -116.850139 5.172401
25.838881 -117.911484 5.385393
5.447116 -121.261112 -4.620363
5.241145 -121.444362 -3.21517
6.211301 -121.991219 -6.061555
5.447116 -121.261112 -4.620363
5.644015 -120.95869 -5.984217
7.287983 -118.794376 -13.043863
6.3928 -118.481788 -11.8949
6.60781 -117.705806 -12.825692
20.814163 -110.973194 -20.640635
19.085462 -111.861351 -20.252583
21.763915 -111.601597 -20.801524
20.814163 -110.973194 -20.640635
22.576556 -109.985977 -21.010046
28.853707 -106.947659 -22.113735
29.884315 -107.353878 -22.174747
28.123742 -108.682899 -21.885939
28.853707 -106.947659 -22.113735
27.875749 -106.494 -22.026868
26.904612 -105.957455 -21.894112
25.992629 -105.381043 -21.748979
3 0 49 47
3 185 51 186
3 1 54 52
3 1 56 54
3 187 58 188
3 2 61 59
3 4 64 62
3 4 66 64
3 5 189 190
3 5 191 192
3 3 69 67
3 6 72 70
3 6 193 195
3 195 194 72
3 193 194 195
3 6 196 197
3 7 74 73
3 7 198 200
3 200 199 74
3 198 199 200
3 201 77 202
3 203 202 75
3 201 202 203
3 204 75 205
3 206 80 207
3 208 82 209
3 210 84 211
3 212 211 82
3 210 211 212
3 8 87 85
3 9 90 88
3 9 92 90
3 213 94 214
3 10 97 95
3 10 99 97
3 10 101 99
3 11 104 102
3 13 105 48
3 13 106 105
3 14 215 217
3 217 216 50
3 215 216 217
3 14 218 220
3 218 107 219
3 218 219 220
3 15 110 108
3 17 111 53
3 17 112 111
3 17 114 112
3 19 115 55
3 19 116 115
3 20 119 117
3 22 120 57
3 22 121 120
3 221 123 222
3 223 124 224
3 226 225 124
3 24 227 229
3 227 127 228
3 227 228 229
3 26 128 60
3 26 129 128
3 12 130 103
3 27 131 63
3 27 132 131
3 27 133 132
3 28 134 65
3 28 135 134
3 25 136 126
3 30 137 68
3 30 138 137
3 16 139 109
3 31 140 71
3 31 141 140
3 31 230 232
3 232 231 141
3 230 231 232
3 18 233 235
3 235 234 113
3 233 234 235
3 32 144 142
3 34 145 76
3 34 146 145
3 35 236 238
3 236 147 237
3 236 237 238
3 35 148 147
3 35 149 148
3 239 150 240
3 32 151 78
3 32 142 151
3 241 153 242
3 37 154 79
3 37 155 154
3 243 156 244
3 38 157 81
3 38 158 157
3 38 159 158
3 36 160 83
3 36 152 160
3 33 161 143
3 39 162 86
3 39 163 162
3 21 164 118
3 40 165 89
3 40 166 165
3 40 167 166
3 41 168 91
3 41 169 168
3 29 245 247
3 245 170 246
3 245 246 247
3 42 171 93
3 42 172 171
3 23 173 122
3 43 174 96
3 43 175 174
3 43 176 175
3 44 177 98
3 44 178 177
3 44 179 178
3 45 180 100
3 45 181 180
3 248 182 249
3 250 249 125
3 248 249 250
3 46 251 253
3 251 183 252
3 251 252 253
3 46 184 183
3 46 254 256
3 256 255 184
3 254 255 256
3 47 48 11
3 49 48 47
3 49 13 48
3 257 50 258
3 51 259 261
3 259 50 260
3 259 260 261
3 51 14 50
3 52 53 15
3 54 53 52
3 54 17 53
3 54 55 17
3 56 55 54
3 56 19 55
3 262 57 263
3 264 263 20
3 262 263 264
3 58 265 267
3 265 57 266
3 265 266 267
3 58 22 57
3 59 60 24
3 61 60 59
3 61 26 60
3 62 63 12
3 64 63 62
3 64 27 63
3 64 65 27
3 66 65 64
3 66 28 65
3 67 68 25
3 69 68 67
3 69 30 68
3 70 71 16
3 72 71 70
3 72 31 71
3 72 268 270
3 270 269 31
3 268 269 270
3 272 271 72
3 73 273 275
3 275 274 18
3 273 274 275
3 74 276 278
3 278 277 73
3 276 277 278
3 74 279 280
3 74 281 282
3 284 283 74
3 75 76 32
3 77 76 75
3 77 34 76
3 285 35 286
3 288 287 35
3 289 78 290
3 75 291 293
3 291 78 292
3 291 292 293
3 75 32 78
3 294 79 295
3 80 296 298
3 296 79 297
3 296 297 298
3 80 37 79
3 299 81 300
3 82 301 303
3 301 81 302
3 301 302 303
3 82 38 81
3 82 83 38
3 84 83 82
3 84 36 83
3 85 86 33
3 87 86 85
3 87 39 86
3 88 89 21
3 90 89 88
3 90 40 89
3 90 91 40
3 92 91 90
3 92 41 91
3 304 93 305
3 306 305 29
3 304 305 306
3 94 307 309
3 307 93 308
3 307 308 309
3 94 42 93
3 95 96 23
3 97 96 95
3 97 43 96
3 97 98 43
3 99 98 97
3 99 44 98
3 99 100 44
3 101 100 99
3 101 45 100
3 310 46 311
3 313 312 46
3 102 103 2
3 104 103 102
3 104 12 103
3 48 104 11
3 105 104 48
3 105 12 104
3 105 62 12
3 106 62 105
3 106 4 62
3 50 314 315
3 317 316 50
3 107 318 319
3 107 320 322
3 320 5 321
3 320 321 322
3 108 109 3
3 110 109 108
3 110 16 109
3 53 110 15
3 111 110 53
3 111 16 110
3 111 70 16
3 112 70 111
3 112 6 70
3 112 113 6
3 114 113 112
3 114 18 113
3 55 114 17
3 115 114 55
3 115 18 114
3 115 73 18
3 116 73 115
3 116 7 73
3 117 118 8
3 119 118 117
3 119 21 118
3 57 119 20
3 120 119 57
3 120 21 119
3 120 88 21
3 121 88 120
3 121 9 88
3 323 122 324
3 123 325 327
3 325 122 326
3 325 326 327
3 123 23 122
3 328 123 329
3 124 330 332
3 330 123 331
3 330 331 332
3 124 23 123
3 124 95 23
3 333 95 334
3 335 334 124
3 333 334 335
3 336 10 337
3 338 337 95
3 336 337 338
3 339 125 340
3 341 340 10
3 339 340 341
3 342 125 343
3 345 344 125
3 346 126 347
3 127 348 350
3 348 126 349
3 348 349 350
3 127 25 126
3 60 127 24
3 128 127 60
3 128 25 127
3 128 67 25
3 129 67 128
3 129 3 67
3 103 61 2
3 130 61 103
3 130 26 61
3 63 130 12
3 131 130 63
3 131 26 130
3 131 129 26
3 132 129 131
3 132 3 129
3 132 108 3
3 133 108 132
3 133 15 108
3 65 133 27
3 134 133 65
3 134 15 133
3 134 52 15
3 135 52 134
3 135 1 52
3 351 29 352
3 353 29 354
3 356 355 29
3 126 357 359
3 357 51 358
3 357 358 359
3 136 51 126
3 136 14 51
3 68 136 25
3 137 136 68
3 137 14 136
3 137 107 14
3 138 107 137
3 138 5 107
3 109 69 3
3 139 69 109
3 139 30 69
3 71 139 16
3 140 139 71
3 140 30 139
3 140 138 30
3 141 138 140
3 141 5 138
3 141 360 362
3 362 361 5
3 360 361 362
3 364 363 141
3 366 365 31
3 113 367 369
3 369 368 6
3 367 368 369
3 371 370 113
3 373 372 18
3 142 143 0
3 144 143 142
3 144 33 143
3 76 144 32
3 145 144 76
3 145 33 144
3 145 85 33
3 146 85 145
3 146 8 85
3 374 77 375
3 376 77 377
3 378 34 379
3 380 379 77
3 378 379 380
3 147 381 382
3 147 383 385
3 383 34 384
3 383 384 385
3 147 146 34
3 148 146 147
3 148 8 146
3 148 117 8
3 149 117 148
3 149 20 117
3 386 149 387
3 388 387 35
3 386 387 388
3 389 149 390
3 391 20 392
3 393 392 149
3 391 392 393
3 395 394 20
3 396 84 397
3 150 398 400
3 398 84 399
3 398 399 400
3 150 36 84
3 78 401 403
3 401 150 402
3 401 402 403
3 151 150 78
3 151 36 150
3 151 152 36
3 142 152 151
3 142 0 152
3 153 404 405
3 153 406 408
3 406 24 407
3 406 407 408
3 79 409 411
3 409 153 410
3 409 410 411
3 154 153 79
3 154 24 153
3 154 59 24
3 155 59 154
3 155 2 59
3 412 80 413
3 156 414 416
3 414 80 415
3 414 415 416
3 156 37 80
3 81 417 419
3 417 156 418
3 417 418 419
3 157 156 81
3 157 37 156
3 157 155 37
3 158 155 157
3 158 2 155
3 158 102 2
3 159 102 158
3 159 11 102
3 83 159 38
3 160 159 83
3 160 11 159
3 160 47 11
3 152 47 160
3 152 0 47
3 143 49 0
3 161 49 143
3 161 13 49
3 86 161 33
3 162 161 86
3 162 13 161
3 162 106 13
3 163 106 162
3 163 4 106
3 118 87 8
3 164 87 118
3 164 39 87
3 89 164 21
3 165 164 89
3 165 39 164
3 165 163 39
3 166 163 165
3 166 4 163
3 166 66 4
3 167 66 166
3 167 28 66
3 91 167 40
3 168 167 91
3 168 28 167
3 168 135 28
3 169 135 168
3 169 1 135
3 420 58 421
3 170 422 424
3 422 58 423
3 422 423 424
3 170 22 58
3 93 170 29
3 171 170 93
3 171 22 170
3 171 121 22
3 172 121 171
3 172 9 121
3 122 425 427
3 425 94 426
3 425 426 427
3 173 94 122
3 173 42 94
3 96 173 23
3 174 173 96
3 174 42 173
3 174 172 42
3 175 172 174
3 175 9 172
3 175 92 9
3 176 92 175
3 176 41 92
3 98 176 43
3 177 176 98
3 177 41 176
3 177 169 41
3 178 169 177
3 178 1 169
3 178 56 1
3 179 56 178
3 179 19 56
3 100 179 44
3 180 179 100
3 180 19 179
3 180 116 19
3 181 116 180
3 181 7 116
3 125 101 10
3 182 101 125
3 182 45 101
3 428 182 429
3 183 430 432
3 430 182 431
3 430 431 432
3 183 45 182
3 183 181 45
3 184 181 183
3 184 7 181
3 184 433 435
3 435 434 7
3 433 434 435
3 437 436 184
3 439 438 46
