ply
format ascii 1.0
element vertex 553
property float x
property float y
property float z
element face 657
property list uchar int vertex_index
end_header
-8.880409 -106.06105 39.195499
-27.066185 -116.647919 7.003837
-0.39283 -103.353973 21.09186
-6.040543 -122.448044 13.817093
-14.256497 -107.14679 31.642313
-6.270067 -114.203445 27.254539
-14.005286 -115.831711 19.727238
-15.990278 -122.60614 8.701454
-24.108671 -113.045563 15.184969
-5.793194 -98.949203 40.993088
1.287533 -112.346069 9.740324
-3.12326 -106.666702 31.340057
0.000381 -114.857574 19.251377
-1.681715 -122.978607 4.881916
-17.722828 -105.799225 27.33717
-13.947025 -111.467178 25.496651
-18.129524 -110.380005 21.71978
-18.897633 -114.736343 16.749163
-22.765997 -108.977631 19.365032
-2.775496 -97.619965 20.883301
-0.678278 -101.591949 16.15798
1.142765 -107.666489 15.703194
-7.097744 -103.101166 40.791138
-5.109737 -102.861359 36.368122
-5.852997 -107.084015 35.701668
-5.652065 -118.42868 20.666584
-2.622412 -115.186569 23.697714
-2.35158 -119.455505 16.788845
-0.244686 -119.219437 12.249696
-3.236179 -123.370926 9.52528
-5.147615 -126.222824 2.090267
-7.38973 -125.646332 6.793852
-21.527126 -120.168442 7.32807
-17.795033 -123.926102 3.021054
-2.749964 -99.668945 26.049568
-11.285627 -107.406738 35.964355
-7.619226 -110.08815 33.454704
-10.386681 -111.531235 29.772507
-9.712397 -115.789062 23.516399
-9.794542 -119.950836 17.263462
-10.708435 -123.485428 10.962181
-14.709544 -119.756241 14.219709
-20.073219 -118.195206 12.083235
-25.560204 -115.71434 11.184525
-9.037951 -102.034332 44.504036
-11.539417 -103.423752 41.951065
-14.278686 -103.085556 38.02713
-17.269833 -101.473816 33.626919
-27.563839 -107.747177 18.92532
-30.897758 -112.595612 11.599581
-4.988951 -97.965622 36.005394
-3.559452 -101.58287 31.34782
-1.219172 -105.234726 26.316374
-3.986628 -111.049606 30.038166
-1.076462 -110.595032 25.663275
0.683617 -109.268784 20.699497
1.294823 -113.753754 14.422335
0.529457 -118.148346 7.579461
-12.372656 -125.788925 4.532166
-19.630177 -104.982773 25.563988
-17.899279 -108.081558 24.437405
-19.989899 -107.340622 22.839212
-20.405678 -109.676727 20.321377
-22.177822 -106.637161 21.679955
-1.474777 -100.442917 21.023912
-1.654079 -99.509872 18.539019
-0.401772 -102.428024 18.563091
0.420715 -104.59549 16.013857
0.535929 -105.430603 18.462894
-7.913792 -104.763962 40.199364
-6.628277 -105.104279 38.305603
-7.37159 -106.770615 37.556419
-5.720364 -120.498703 17.267633
-3.875111 -119.126114 18.841908
-4.051567 -121.182724 15.325992
-2.656389 -121.501587 13.18915
-4.493393 -123.093277 11.74914
-5.18672 -124.768066 8.126537
-6.60046 -124.191452 10.323257
-24.306112 -118.514297 7.029908
-22.371172 -120.526962 4.870198
-25.148197 -118.624146 4.730924
-3.834888 -97.974045 28.427231
-12.706097 -107.456345 33.877777
-10.859877 -109.449509 32.884544
-12.397369 -109.537292 30.74548
-13.901736 -113.66774 22.566093
-11.848242 -113.827423 24.58017
-11.768862 -115.985382 21.569841
-9.64595 -117.909454 20.390125
-11.876167 -118.084686 18.601965
-12.17543 -120.052277 15.65732
-14.276582 -117.888535 16.956785
-21.484108 -113.93721 15.765991
-19.44348 -116.621262 14.406096
-22.130508 -115.676437 13.615027
-22.820255 -117.046555 11.467495
-24.830465 -114.588974 13.192254
-7.879774 -100.706329 45.182625
-8.529045 -100.02565 47.023865
-11.201159 -101.485291 44.826294
-12.575977 -101.540527 43.169197
-12.879963 -103.45546 40.118271
-13.973102 -101.175385 41.22131
-18.879982 -100.465576 31.62842
-30.112507 -112.054901 13.453334
-5.212233 -96.613525 40.777935
-5.037436 -96.104767 38.251751
-5.349787 -98.557831 38.547241
-4.207834 -104.767715 33.920929
-4.255182 -102.329483 33.916737
-3.209227 -104.178207 31.46735
-2.416157 -103.383102 28.893291
-2.046143 -106.044098 28.885849
-6.8923 -112.127869 30.409962
-5.750971 -110.772491 31.874098
-4.962685 -112.808395 28.813168
-1.157522 -115.153534 21.5583
-1.64316 -113.025452 24.844231
-0.37923 -112.685486 22.544287
-0.037134 -110.002457 23.220898
0.565845 -112.144012 20.118444
1.172104 -111.47493 17.640472
0.821215 -114.369003 16.84885
-0.831512 -121.225586 8.597958
0.300217 -118.76387 9.900546
-0.407196 -120.725677 6.273749
-2.756922 -124.390671 1.1346
-7.284554 -127.101212 0.818455
-13.296169 -123.268295 9.735656
-11.448538 -124.821838 7.763455
-14.093466 -124.374817 6.720985
-15.929918 -106.559402 29.41058
-14.091192 -109.28244 28.52562
-15.928566 -108.76416 26.374954
-15.969252 -111.008026 23.480537
-16.112839 -113.239944 20.726675
-16.392204 -115.390991 18.091629
-18.456909 -112.625931 19.169447
-20.90337 -111.906662 17.980646
-23.4132 -111.146271 17.220407
0.914215 -106.909241 13.346781
1.387564 -110.004578 12.797621
-6.405088 -101.137573 41.027531
-5.672529 -100.924072 38.715672
-6.077158 -103.131546 38.666687
-5.368052 -105.092896 36.209633
-4.411572 -107.033417 33.624393
-5.840473 -116.312561 24.001125
-4.347452 -114.889008 25.608824
-3.974752 -117.006912 22.277388
-2.338076 -117.324951 20.301027
-0.98575 -117.322647 18.122749
0.041945 -117.062912 15.810097
-1.130816 -119.468018 14.568202
-1.57679 -121.499832 10.923687
-2.298992 -123.31871 7.214334
-3.270044 -124.832413 3.46559
-4.07242 -124.970963 5.817498
-6.119875 -126.125168 4.474324
-8.403444 -126.744583 3.243722
-18.746286 -121.552719 7.8909
-16.820988 -123.470261 5.878182
-19.589972 -122.165604 5.256014
-1.540434 -101.444382 23.612253
-10.006359 -106.947357 37.768902
-8.328367 -108.071259 36.382866
-9.496641 -108.967682 34.801826
-8.89028 -111.012054 31.752338
-8.312862 -113.089874 28.631271
-12.080076 -111.666458 27.640547
-9.976055 -113.650131 26.645615
-7.867241 -115.20047 25.451385
-7.62121 -117.323471 22.225319
-7.606588 -119.414246 18.962738
-7.827702 -121.405975 15.668017
-8.274389 -123.218063 12.340301
-10.153381 -121.836792 14.125523
-12.654169 -121.806335 12.710018
-15.285964 -121.352295 11.477978
-16.811749 -117.378845 15.536228
-17.356071 -119.11705 13.012241
-18.004539 -120.527435 10.474068
-20.768358 -119.390381 9.732809
-23.541862 -117.997025 9.2788
-26.297276 -116.395355 9.124833
-6.282404 -99.112549 43.319771
-7.158045 -101.072556 43.185318
-8.105288 -102.741135 42.73465
-9.146513 -104.04834 41.899094
-9.850048 -100.978378 46.11908
-10.25783 -102.950821 43.428673
-10.293362 -104.942245 40.645782
-11.546213 -105.398758 38.992592
-12.899862 -105.428558 37.011848
-14.349496 -105.078125 34.821251
-15.739241 -102.389557 35.811897
-15.894108 -104.427612 32.56794
-17.536484 -103.584641 30.41016
-19.279331 -102.673172 28.500217
-24.428219 -106.038818 21.025089
-25.168327 -108.331818 18.897081
-25.94034 -110.37886 16.91802
-28.436531 -109.601974 17.068075
-26.7258 -112.086197 15.022023
-27.503016 -113.381439 13.14455
-28.261562 -114.226059 11.235451
-29.013378 -114.623825 9.26825
-4.948086 -95.435318 35.668606
-5.012218 -100.461975 36.267044
-4.467737 -99.787277 33.709885
-4.069624 -98.94191 31.081944
-3.052441 -100.675766 28.707878
-1.855446 -102.448288 26.254719
-0.664846 -104.312927 23.696301
-6.601221 -108.76741 34.786377
-4.919916 -109.056732 32.952637
-3.371954 -108.980484 30.880222
-3.189013 -113.089233 26.95055
-2.407551 -110.968857 27.955452
-2.028347 -108.596146 28.594206
-0.940386 -107.972855 26.142895
-0.14098 -107.186523 23.590523
0.352377 -106.314728 21.007833
1.074818 -108.468597 18.17173
1.438652 -110.744537 15.18033
1.435877 -113.066895 12.035477
0.724182 -116.608459 13.43442
1.065849 -116.015427 11.061554
1.102638 -115.327469 8.747383
-4.463816 -125.96817 -0.287748
-8.934401 -124.768295 8.977233
-9.801403 -125.985031 5.582063
-10.87756 -126.816605 2.171957
-20.814447 -105.781029 23.523999
-19.810038 -106.161698 24.2016
-20.634586 -104.602104 24.886387
-21.908409 -105.429299 22.94437
-21.083861 -106.988891 22.259583
-20.814447 -105.781029 23.523999
-27.489708 -116.587433 5.921795
-26.530714 -117.575547 4.785339
-26.107191 -117.636032 5.86738
-4.225044 -97.140571 29.594263
-4.22969 -96.64611 28.280106
-8.097495 -99.024772 48.249523
-7.887467 -99.345467 47.293551
-12.986653 -100.446937 43.76899
-12.26879 -100.614723 44.656482
-13.685215 -100.264366 42.795046
-13.274539 -101.357956 42.195253
-12.986653 -100.446937 43.76899
1.103803 -111.975876 8.658565
1.177055 -110.815537 10.139329
1.09411 -113.458046 8.138863
1.103803 -111.975876 8.658565
-1.514709 -122.685631 3.733714
-0.87745 -121.559166 4.429631
-1.044455 -121.852142 5.577832
-2.219318 -123.684639 3.008258
-2.052313 -123.391662 1.860056
-1.514709 -122.685631 3.733714
-7.980058 -127.378525 -0.98917
-8.463228 -127.270516 0.260901
-2.936371 -97.162781 19.671569
-3.460626 -96.263275 20.810851
-1.371495 -100.144287 16.175932
-1.859396 -99.103249 17.366452
-1.166179 -100.550911 17.348499
-0.936211 -101.235687 15.033415
-1.371495 -100.144287 16.175932
-0.321405 -102.721015 14.931091
-0.936211 -101.235687 15.033415
-21.468068 -121.449295 3.730366
-22.856693 -120.512283 3.629417
-2.703902 -99.148506 24.737608
-3.259943 -98.303711 25.920458
-2.145199 -100.556663 24.830911
-2.099137 -100.036225 23.51895
-2.703902 -99.148506 24.737608
-6.530176 -99.068382 44.415953
-6.003182 -98.086593 44.442309
-6.967996 -100.048386 44.348726
-6.720225 -100.092553 43.252544
-6.530176 -99.068382 44.415953
-10.185683 -100.283562 46.86595
-9.467092 -100.003975 47.422045
-16.504537 -101.931686 34.719408
-16.3004 -100.940056 36.377792
-17.065696 -100.482185 35.285303
-19.927004 -101.085747 29.229374
-19.079656 -101.569374 30.064318
-19.72733 -99.981949 30.793475
-20.19918 -102.245369 27.735371
-19.927004 -101.085747 29.229374
-25.137083 -104.605446 22.03744
-24.075989 -104.820678 22.190599
-26.366083 -108.039497 18.9112
-25.932046 -106.951165 19.898259
-27.129802 -106.658844 19.912378
-28.864238 -110.328125 16.165604
-29.647083 -109.190582 17.348622
-28.008873 -111.570236 15.142578
-27.581165 -110.844086 16.045049
-28.864238 -110.328125 16.165604
-28.397481 -112.217858 14.203841
-27.114408 -112.733818 14.083286
-28.008873 -111.570236 15.142578
-4.863786 -97.584572 34.701746
-4.843354 -96.31942 34.533352
-4.968519 -96.70047 35.837
0.515783 -117.777825 6.457574
0.802373 -116.367386 7.041536
0.816048 -116.737908 8.163422
-16.423825 -124.506279 3.346696
-15.936802 -124.278358 4.775259
-17.308011 -123.698182 4.449618
-24.245205 -119.560875 3.55978
-22.856693 -120.512283 3.629417
-23.759684 -119.575554 4.800561
-25.633663 -118.504425 3.574483
-24.245205 -119.560875 3.55978
-25.633663 -118.504425 3.574483
-26.530714 -117.575547 4.785339
-3.802405 -97.456261 27.109289
-4.22969 -96.64611 28.280106
-3.292426 -98.821495 27.238399
-3.259943 -98.303711 25.920458
-3.802405 -97.456261 27.109289
-7.562832 -99.685806 46.372931
-7.328861 -99.865273 45.34738
-8.20441 -100.365989 46.103245
-7.562832 -99.685806 46.372931
-7.887467 -99.345467 47.293551
-11.581381 -100.587105 45.485031
-10.861239 -100.537018 46.219557
-11.888568 -101.512909 43.997745
-11.581381 -100.587105 45.485031
-12.26879 -100.614723 44.656482
-17.82447 -99.936241 34.268652
-17.065696 -100.482185 35.285303
-18.629545 -99.432121 33.269402
-18.074907 -100.969696 32.627669
-17.82447 -99.936241 34.268652
-19.421345 -98.892944 32.38633
-18.629545 -99.432121 33.269402
-19.72733 -99.981949 30.793475
-19.421345 -98.892944 32.38633
-28.24759 -106.477493 20.104126
-27.129802 -106.658844 19.912378
-30.941017 -110.988006 14.658334
-29.702227 -111.554588 14.358234
-31.370577 -111.325432 13.763243
-30.941017 -110.988006 14.658334
-31.763202 -111.595788 12.836367
-30.505133 -112.325256 12.526457
-31.370577 -111.325432 13.763243
-5.124835 -96.359146 39.514843
-4.827562 -95.152382 39.354873
-4.914961 -95.406761 40.617965
-0.330958 -120.383064 5.138787
0.137368 -119.094399 5.791644
0.06113 -119.437012 6.926605
-0.330958 -120.383064 5.138787
-0.87745 -121.559166 4.429631
-2.615957 -124.038025 0.007485
-2.052313 -123.391662 1.860056
-3.390639 -124.894333 -0.730444
-2.615957 -124.038025 0.007485
-6.86566 -127.085442 -0.399772
-5.797191 -126.646248 0.236134
-6.216085 -126.662018 1.454361
-6.86566 -127.085442 -0.399772
-7.980058 -127.378525 -0.98917
-16.994602 -124.65831 1.820614
-18.36965 -123.954644 1.595033
-2.375663 -98.107734 18.499428
-2.936371 -97.162781 19.671569
-2.214787 -98.564919 19.71116
-2.375663 -98.107734 18.499428
-1.859396 -99.103249 17.366452
0.228092 -104.222786 14.85903
-0.321405 -102.721015 14.931091
-0.128782 -103.093719 16.085918
0.474842 -105.379661 13.525492
0.228092 -104.222786 14.85903
0.667465 -105.752365 14.680319
0.676406 -106.563583 12.243267
0.474842 -105.379661 13.525492
0.990395 -108.097122 11.942558
0.676406 -106.563583 12.243267
1.22707 -109.644791 11.667978
0.990395 -108.097122 11.942558
1.150889 -108.456909 13.072201
1.337549 -111.175323 11.268973
1.177055 -110.815537 10.139329
1.22707 -109.644791 11.667978
-9.022673 -127.092201 1.473534
-8.463228 -127.270516 0.260901
-7.843999 -126.922898 2.031089
-20.077468 -122.268616 3.923274
-20.980572 -121.346283 5.063106
-21.468068 -121.449295 3.730366
-19.179998 -123.148865 2.805794
-18.692502 -123.045853 4.138534
-20.077468 -122.268616 3.923274
-18.36965 -123.954644 1.595033
-19.179998 -123.148865 2.805794
-3.325069 -96.757706 22.049979
-3.460626 -96.263275 20.810851
-2.716668 -98.124016 22.154474
-3.325069 -96.757706 22.049979
-2.066309 -99.535492 22.22478
-2.125136 -99.031441 20.953606
-2.716668 -98.124016 22.154474
-1.507605 -100.943649 22.318082
-2.066309 -99.535492 22.22478
-2.099137 -100.036225 23.51895
-4.92377 -95.62072 41.874883
-4.914961 -95.406761 40.617965
-5.331152 -96.776359 42.000063
-4.92377 -95.62072 41.874883
-5.621633 -97.944198 42.10764
-5.502714 -97.781364 40.885511
-5.331152 -96.776359 42.000063
-5.866238 -98.025871 43.270981
-6.003182 -98.086593 44.442309
-6.037799 -99.030876 42.15643
-5.621633 -97.944198 42.10764
-5.866238 -98.025871 43.270981
-7.51891 -100.889443 44.183971
-6.967996 -100.048386 44.348726
-7.328861 -99.865273 45.34738
-8.806591 -99.527611 47.874437
-8.097495 -99.024772 48.249523
-8.375041 -98.526734 49.100096
-9.189546 -100.502014 46.571472
-8.806591 -99.527611 47.874437
-9.467092 -100.003975 47.422045
-10.525603 -101.231835 45.472687
-10.185683 -100.283562 46.86595
-10.861239 -100.537018 46.219557
-14.401879 -99.908806 41.801676
-13.685215 -100.264366 42.795046
-14.685447 -100.816796 40.159834
-14.401879 -99.908806 41.801676
-14.838238 -101.771881 38.562744
-14.125894 -102.130471 39.62422
-14.685447 -100.816796 40.159834
-15.568516 -101.423881 37.455128
-16.3004 -100.940056 36.377792
-15.008964 -102.737556 36.919514
-14.838238 -101.771881 38.562744
-15.568516 -101.423881 37.455128
-20.374603 -103.40017 26.267256
-19.454754 -103.827972 27.032103
-20.19918 -102.245369 27.735371
-20.634586 -104.602104 24.886387
-20.374603 -103.40017 26.267256
-22.950791 -105.11985 22.518031
-21.908409 -105.429299 22.94437
-23.30302 -106.33799 21.352522
-22.950791 -105.11985 22.518031
-24.075989 -104.820678 22.190599
-25.561992 -105.804665 20.962263
-25.137083 -104.605446 22.03744
-24.798273 -107.185318 19.961085
-25.561992 -105.804665 20.962263
-25.932046 -106.951165 19.898259
-28.734051 -107.46801 19.170916
-28.24759 -106.477493 20.104126
-29.170397 -108.395409 18.242294
-30.380949 -107.984016 18.522841
-29.647083 -109.190582 17.348622
-28.000185 -108.674576 17.996697
-28.734051 -107.46801 19.170916
-29.170397 -108.395409 18.242294
-28.807761 -112.71817 13.298942
-28.397481 -112.217858 14.203841
-29.702227 -111.554588 14.358234
-32.170963 -111.712265 11.915771
-31.763202 -111.595788 12.836367
-31.284465 -112.654152 10.643114
-32.170963 -111.712265 11.915771
-30.342275 -113.668259 9.477448
-29.955568 -113.609718 10.433916
-31.284465 -112.654152 10.643114
-29.404168 -114.622772 8.255782
-30.342275 -113.668259 9.477448
-28.430571 -115.634819 7.123575
-28.039782 -115.635872 8.136043
-29.404168 -114.622772 8.255782
-27.489708 -116.587433 5.921795
-28.430571 -115.634819 7.123575
-4.855247 -94.865021 38.074503
-4.827562 -95.152382 39.354873
-4.810572 -94.530296 36.78293
-4.855247 -94.865021 38.074503
-4.992761 -95.770042 36.960178
-4.879552 -94.177971 35.49098
-4.810572 -94.530296 36.78293
-4.953017 -95.032715 34.363123
-4.879552 -94.177971 35.49098
-4.953017 -95.032715 34.363123
-4.843354 -96.31942 34.533352
-4.603179 -98.4954 33.553991
-4.863786 -97.584572 34.701746
-4.728344 -98.87645 34.85764
-4.404122 -98.072716 32.240021
-4.603179 -98.4954 33.553991
-4.268681 -99.364593 32.395915
-4.342412 -97.624504 30.921619
-4.404122 -98.072716 32.240021
-3.952256 -98.457977 29.754587
-4.225044 -97.140571 29.594263
-4.342412 -97.624504 30.921619
1.001663 -114.948746 7.642393
1.09411 -113.458046 8.138863
1.195086 -113.836769 9.243854
1.001663 -114.948746 7.642393
0.802373 -116.367386 7.041536
0.515783 -117.777825 6.457574
0.137368 -119.094399 5.791644
-4.244086 -125.683082 -1.441618
-3.390639 -124.894333 -0.730444
-3.610369 -125.17942 0.423426
-5.455291 -126.518921 -0.952873
-4.805715 -126.095497 0.901259
-5.797191 -126.646248 0.236134
-5.16176 -126.322884 -2.139994
-5.455291 -126.518921 -0.952873
-4.244086 -125.683082 -1.441618
-5.16176 -126.322884 -2.139994
-10.259732 -127.128212 0.937652
-9.022673 -127.092201 1.473534
-9.640502 -126.780594 2.707839
-14.573041 -124.730637 5.196661
-15.457227 -123.922539 6.299583
-15.936802 -124.278358 4.775259
-13.712636 -125.437691 4.102252
-13.233061 -125.081871 5.626575
-14.573041 -124.730637 5.196661
-16.423825 -124.506279 3.346696
-16.994602 -124.65831 1.820614
-12.931957 -126.071198 2.911608
-13.712636 -125.437691 4.102252
-12.18441 -126.585037 1.731503
-11.625108 -126.302765 3.352062
-12.931957 -126.071198 2.911608
-11.524765 -127.025666 0.478181
-12.18441 -126.585037 1.731503
-10.259732 -127.128212 0.937652
-11.524765 -127.025666 0.478181
3 234 61 235
3 236 235 59
3 234 235 236
3 237 63 238
3 239 238 61
3 237 238 239
3 2 66 64
3 2 68 66
3 0 71 69
3 3 74 72
3 3 76 74
3 3 78 76
3 1 81 79
3 1 240 242
3 242 241 81
3 240 241 242
3 243 82 244
3 4 85 83
3 6 88 86
3 6 90 88
3 6 92 90
3 8 95 93
3 8 97 95
3 245 99 246
3 247 101 248
3 249 103 250
3 251 250 101
3 249 250 251
3 10 252 253
3 10 254 255
3 9 108 106
3 11 111 109
3 11 113 111
3 5 116 114
3 12 119 117
3 12 121 119
3 12 123 121
3 13 126 124
3 13 256 258
3 258 257 126
3 256 257 258
3 13 259 261
3 259 127 260
3 259 260 261
3 263 262 128
3 7 131 129
3 14 134 132
3 16 135 60
3 16 136 135
3 16 138 136
3 18 139 62
3 18 140 139
3 19 264 265
3 20 266 268
3 268 267 65
3 266 267 268
3 20 269 270
3 20 271 272
3 21 141 67
3 21 142 141
3 22 145 143
3 24 146 70
3 24 147 146
3 25 150 148
3 27 151 73
3 27 152 151
3 27 154 152
3 29 155 75
3 29 156 155
3 29 158 156
3 31 159 77
3 31 160 159
3 32 163 161
3 274 273 80
3 34 275 276
3 34 277 279
3 277 164 278
3 277 278 279
3 35 167 165
3 37 168 84
3 37 169 168
3 15 170 133
3 38 171 87
3 38 172 171
3 38 173 172
3 39 174 89
3 39 175 174
3 39 177 175
3 41 178 91
3 41 179 178
3 17 180 137
3 42 181 94
3 42 182 181
3 42 183 182
3 43 184 96
3 43 185 184
3 280 186 281
3 282 187 283
3 284 283 186
3 282 283 284
3 44 188 98
3 44 189 188
3 285 190 286
3 45 191 100
3 45 192 191
3 45 193 192
3 46 194 102
3 46 195 194
3 47 287 289
3 287 196 288
3 287 288 289
3 47 197 196
3 47 198 197
3 290 199 291
3 292 291 104
3 290 291 292
3 294 293 199
3 295 200 296
3 48 297 299
3 297 201 298
3 297 298 299
3 48 202 201
3 300 203 301
3 302 204 303
3 304 303 203
3 302 303 304
3 305 205 306
3 307 306 204
3 305 306 307
3 49 206 105
3 49 207 206
3 50 208 107
3 50 308 310
3 310 309 208
3 308 309 310
3 23 209 144
3 51 210 110
3 51 211 210
3 51 212 211
3 52 213 112
3 52 214 213
3 36 215 166
3 53 216 115
3 53 217 216
3 26 218 149
3 54 219 118
3 54 220 219
3 54 221 220
3 55 222 120
3 55 223 222
3 55 224 223
3 56 225 122
3 56 226 225
3 28 227 153
3 57 228 125
3 57 229 228
3 57 311 313
3 313 312 229
3 311 312 313
3 30 230 157
3 40 231 176
3 58 232 130
3 58 233 232
3 33 314 316
3 316 315 162
3 314 315 316
3 59 60 14
3 61 60 59
3 61 16 60
3 61 62 16
3 63 62 61
3 63 18 62
3 64 65 19
3 66 65 64
3 66 20 65
3 66 67 20
3 68 67 66
3 68 21 67
3 69 70 22
3 71 70 69
3 71 24 70
3 72 73 25
3 74 73 72
3 74 27 73
3 74 75 27
3 76 75 74
3 76 29 75
3 76 77 29
3 78 77 76
3 78 31 77
3 79 80 32
3 81 80 79
3 81 317 319
3 319 318 80
3 317 318 319
3 81 320 321
3 323 322 81
3 82 324 325
3 82 326 328
3 326 34 327
3 326 327 328
3 83 84 35
3 85 84 83
3 85 37 84
3 86 87 15
3 88 87 86
3 88 38 87
3 88 89 38
3 90 89 88
3 90 39 89
3 90 91 39
3 92 91 90
3 92 41 91
3 93 94 17
3 95 94 93
3 95 42 94
3 95 96 42
3 97 96 95
3 97 43 96
3 329 98 330
3 99 331 333
3 331 98 332
3 331 332 333
3 99 44 98
3 334 100 335
3 101 336 338
3 336 100 337
3 336 337 338
3 101 45 100
3 101 102 45
3 103 102 101
3 103 46 102
3 339 47 340
3 341 104 342
3 343 342 47
3 341 342 343
3 344 104 345
3 347 346 104
3 348 48 349
3 350 105 351
3 352 105 353
3 354 49 355
3 356 355 105
3 354 355 356
3 106 357 359
3 357 107 358
3 357 358 359
3 108 107 106
3 108 50 107
3 109 110 23
3 111 110 109
3 111 51 110
3 111 112 51
3 113 112 111
3 113 52 112
3 114 115 36
3 116 115 114
3 116 53 115
3 117 118 26
3 119 118 117
3 119 54 118
3 119 120 54
3 121 120 119
3 121 55 120
3 121 122 55
3 123 122 121
3 123 56 122
3 124 125 28
3 126 125 124
3 126 57 125
3 126 360 362
3 362 361 57
3 360 361 362
3 364 363 126
3 127 365 366
3 127 367 368
3 128 369 371
3 371 370 30
3 369 370 371
3 373 372 128
3 129 130 40
3 131 130 129
3 131 58 130
3 375 374 33
3 132 133 4
3 134 133 132
3 134 15 133
3 60 134 14
3 135 134 60
3 135 15 134
3 135 86 15
3 136 86 135
3 136 6 86
3 136 137 6
3 138 137 136
3 138 17 137
3 62 138 16
3 139 138 62
3 139 17 138
3 139 93 17
3 140 93 139
3 140 8 93
3 65 376 378
3 378 377 19
3 376 377 378
3 380 379 65
3 67 381 383
3 383 382 20
3 381 382 383
3 141 384 386
3 386 385 67
3 384 385 386
3 141 387 388
3 141 389 390
3 142 391 393
3 393 392 141
3 391 392 393
3 142 394 396
3 394 10 395
3 394 395 396
3 143 144 9
3 145 144 143
3 145 23 144
3 70 145 22
3 146 145 70
3 146 23 145
3 146 109 23
3 147 109 146
3 147 11 109
3 148 149 5
3 150 149 148
3 150 26 149
3 73 150 25
3 151 150 73
3 151 26 150
3 151 117 26
3 152 117 151
3 152 12 117
3 152 153 12
3 154 153 152
3 154 28 153
3 75 154 27
3 155 154 75
3 155 28 154
3 155 124 28
3 156 124 155
3 156 13 124
3 156 157 13
3 158 157 156
3 158 30 157
3 77 158 29
3 159 158 77
3 159 30 158
3 159 128 30
3 160 128 159
3 160 397 399
3 399 398 128
3 397 398 399
3 161 162 7
3 163 162 161
3 163 33 162
3 80 163 32
3 400 163 401
3 402 401 80
3 400 401 402
3 403 33 404
3 405 404 163
3 403 404 405
3 407 406 33
3 408 19 409
3 410 19 411
3 412 64 413
3 414 413 19
3 412 413 414
3 164 415 417
3 415 64 416
3 415 416 417
3 164 2 64
3 165 166 0
3 167 166 165
3 167 36 166
3 84 167 35
3 168 167 84
3 168 36 167
3 168 114 36
3 169 114 168
3 169 5 114
3 133 85 4
3 170 85 133
3 170 37 85
3 87 170 15
3 171 170 87
3 171 37 170
3 171 169 37
3 172 169 171
3 172 5 169
3 172 148 5
3 173 148 172
3 173 25 148
3 89 173 38
3 174 173 89
3 174 25 173
3 174 72 25
3 175 72 174
3 175 3 72
3 175 176 3
3 177 176 175
3 177 40 176
3 91 177 39
3 178 177 91
3 178 40 177
3 178 129 40
3 179 129 178
3 179 7 129
3 137 92 6
3 180 92 137
3 180 41 92
3 94 180 17
3 181 180 94
3 181 41 180
3 181 179 41
3 182 179 181
3 182 7 179
3 182 161 7
3 183 161 182
3 183 32 161
3 96 183 42
3 184 183 96
3 184 32 183
3 184 79 32
3 185 79 184
3 185 1 79
3 418 106 419
3 420 106 421
3 422 9 423
3 424 423 106
3 422 423 424
3 186 425 426
3 186 427 429
3 427 9 428
3 427 428 429
3 186 143 9
3 187 143 186
3 187 22 143
3 98 430 432
3 430 187 431
3 430 431 432
3 188 187 98
3 188 22 187
3 188 69 22
3 189 69 188
3 189 0 69
3 433 99 434
3 433 434 435
3 190 436 438
3 436 99 437
3 436 437 438
3 190 44 99
3 100 439 441
3 439 190 440
3 439 440 441
3 191 190 100
3 191 44 190
3 191 189 44
3 192 189 191
3 192 0 189
3 192 165 0
3 193 165 192
3 193 35 165
3 102 193 45
3 194 193 102
3 194 35 193
3 194 83 35
3 195 83 194
3 195 4 83
3 442 103 443
3 444 103 445
3 446 46 447
3 448 447 103
3 446 447 448
3 196 449 450
3 196 451 453
3 451 46 452
3 451 452 453
3 196 195 46
3 197 195 196
3 197 4 195
3 197 132 4
3 198 132 197
3 198 14 132
3 104 198 47
3 199 198 104
3 199 14 198
3 199 59 14
3 454 59 455
3 456 455 199
3 454 455 456
3 458 457 59
3 459 63 460
3 200 461 463
3 461 63 462
3 461 462 463
3 200 18 63
3 464 200 465
3 201 466 468
3 466 200 467
3 466 467 468
3 201 18 200
3 201 140 18
3 202 140 201
3 202 8 140
3 469 48 470
3 203 471 473
3 471 472 473
3 203 474 476
3 474 48 475
3 474 475 476
3 203 202 48
3 204 202 203
3 204 8 202
3 204 97 8
3 205 97 204
3 205 43 97
3 105 477 479
3 477 205 478
3 477 478 479
3 206 205 105
3 206 43 205
3 206 185 43
3 207 185 206
3 207 1 185
3 480 49 481
3 482 49 483
3 484 207 485
3 486 485 49
3 484 485 486
3 487 207 488
3 489 1 490
3 491 490 207
3 489 490 491
3 493 492 1
3 107 494 495
3 208 496 498
3 498 497 107
3 496 497 498
3 208 499 500
3 208 501 502
3 504 503 208
3 144 108 9
3 209 108 144
3 209 50 108
3 110 209 23
3 210 209 110
3 210 50 209
3 210 505 507
3 507 506 50
3 505 506 507
3 211 508 510
3 510 509 210
3 508 509 510
3 211 511 512
3 211 513 515
3 513 82 514
3 513 514 515
3 212 82 211
3 212 34 82
3 112 212 51
3 213 212 112
3 213 34 212
3 213 164 34
3 214 164 213
3 214 2 164
3 166 71 0
3 215 71 166
3 215 24 71
3 115 215 36
3 216 215 115
3 216 24 215
3 216 147 24
3 217 147 216
3 217 11 147
3 149 116 5
3 218 116 149
3 218 53 116
3 118 218 26
3 219 218 118
3 219 53 218
3 219 217 53
3 220 217 219
3 220 11 217
3 220 113 11
3 221 113 220
3 221 52 113
3 120 221 54
3 222 221 120
3 222 52 221
3 222 214 52
3 223 214 222
3 223 2 214
3 223 68 2
3 224 68 223
3 224 21 68
3 122 224 55
3 225 224 122
3 225 21 224
3 225 142 21
3 226 142 225
3 226 10 142
3 153 123 12
3 227 123 153
3 227 56 123
3 125 227 28
3 228 227 125
3 228 56 227
3 228 226 56
3 229 226 228
3 229 10 226
3 229 516 518
3 518 517 10
3 516 517 518
3 520 519 229
3 522 521 57
3 157 127 13
3 230 127 157
3 230 523 525
3 525 524 127
3 523 524 525
3 526 230 527
3 528 527 30
3 526 527 528
3 529 230 530
3 532 531 230
3 176 78 3
3 231 78 176
3 231 31 78
3 130 231 40
3 232 231 130
3 232 31 231
3 232 160 31
3 233 160 232
3 233 533 535
3 535 534 160
3 533 534 535
3 162 131 7
3 536 131 537
3 538 537 162
3 536 537 538
3 539 58 540
3 541 540 131
3 539 540 541
3 543 542 33
3 544 58 545
3 546 233 547
3 548 547 58
3 546 547 548
3 549 233 550
3 552 551 233
