ply
format ascii 1.0
element vertex 704
property float x
property float y
property float z
element face 896
property list uchar int vertex_index
end_header
40.055321 61.472893 24.367535
23.75021 80.80838 -17.770109
34.284664 75.107491 4.032663
46.587601 64.070152 -11.347015
24.068062 70.218048 24.994957
35.550652 49.124489 41.492172
43.255672 60.191452 17.780977
44.648949 52.900566 28.089344
37.077663 68.749542 15.412534
41.869514 66.840141 6.497102
32.650387 64.993118 24.216349
28.320986 74.338974 13.851702
27.156483 51.93084 43.421219
17.561028 85.886665 -9.737833
30.293816 79.457817 -7.564821
37.203312 73.832993 -14.605633
40.755836 71.730392 -4.651949
47.873657 60.880127 -1.439663
23.954544 81.487411 2.167412
29.436125 58.668625 34.006535
38.331142 55.429962 32.294575
42.800831 45.874969 37.1213
41.702991 61.308571 21.643847
44.220554 56.571342 23.120121
42.382607 57.76255 26.239641
38.646358 64.899513 20.517519
40.493336 64.984352 16.528133
36.926064 63.156677 24.361565
34.764042 67.501564 19.740753
20.432968 83.814522 -14.342196
32.56348 77.493805 -1.820795
36.016434 75.967834 -6.1068
37.493473 73.980278 -0.463465
44.720909 61.353134 7.80862
44.720406 64.184715 2.237878
47.733593 58.43811 3.891124
20.126801 73.665222 26.115866
21.746181 76.021423 19.88818
31.179878 75.204163 8.790934
26.309021 78.22686 8.123588
29.275816 78.189423 2.916615
26.913677 80.713203 -3.028765
31.327078 50.547386 42.663307
28.219009 55.453293 38.878441
32.515892 53.679108 38.006416
33.885742 56.832291 33.241474
36.937847 52.14917 36.853752
41.025543 50.725601 35.162445
39.54715 47.565895 39.656624
42.484344 69.252289 -13.130596
44.979881 58.199158 13.505424
35.686287 72.221146 9.826101
38.517868 71.498489 5.273478
39.413681 68.479042 10.984397
42.386566 63.672859 12.174652
28.213837 67.244583 24.343405
25.918097 72.615814 19.276278
30.334967 69.843414 19.247292
32.904449 71.628212 14.452335
30.344126 47.009094 47.043175
34.399349 46.017654 46.076149
38.150303 44.595505 44.236885
27.349192 80.753609 -12.954399
30.832235 77.638504 -16.12137
33.848232 77.333839 -11.426394
39.425827 73.270241 -9.917042
43.937813 68.348541 -8.37896
41.460205 69.547951 0.870136
44.584251 66.566444 -3.174877
47.571175 62.837631 -6.557182
23.780708 77.539314 13.808842
21.463161 81.7323 7.980089
18.674107 85.064819 1.933063
21.035484 84.124634 -3.852858
23.954252 82.73069 -8.853134
22.635059 67.293526 30.726513
24.154634 57.521973 39.807472
25.299618 61.062325 34.911507
26.591434 64.260071 29.666729
30.879385 61.868912 29.01733
35.372398 60.145729 28.61327
39.443897 58.82058 27.960453
42.100971 54.202499 30.701767
44.129601 49.270706 32.71431
41.224266 42.769024 41.533501
40.852142 61.492821 23.218401
42.158302 59.519547 23.985432
41.133919 59.871887 25.243652
39.431385 63.026962 22.705627
40.263897 63.26564 21.018003
38.732983 62.271492 24.401443
37.754795 64.240166 22.412151
25.425289 78.788597 -19.041159
22.063915 82.462341 -16.207434
33.480927 76.353691 1.104715
35.144638 75.821228 -1.146095
35.880104 74.678276 1.751211
46.10173 58.496719 8.569998
46.156059 59.948723 5.767693
47.599457 57.083847 6.636743
22.094116 71.920403 25.50745
20.895615 74.945526 23.0042
22.895966 73.174652 22.50198
32.713364 75.279884 6.37823
30.270363 76.762787 5.87231
31.850872 76.661568 3.443318
30.88826 77.927887 0.490812
33.44347 49.849304 42.152721
31.895838 52.135307 40.361191
34.062077 51.37043 39.828461
34.731503 52.891167 37.482212
36.225761 50.617737 39.170715
38.331566 49.865417 38.36673
37.605556 48.364075 40.662048
44.680553 66.71032 -12.304174
43.739349 66.826241 -14.438482
45.773697 64.303749 -13.523983
44.051758 59.285179 15.655032
45.254967 56.539124 16.355444
44.472519 57.545998 18.461472
44.539112 54.739525 25.651318
45.269714 53.973038 23.857384
45.474571 52.15197 26.406628
45.457153 50.321564 28.844654
36.364742 70.554695 12.657304
37.658752 70.482674 10.401423
38.245476 68.80204 13.216505
41.937489 62.696487 17.135395
41.416176 64.481979 14.381429
42.779198 61.959511 14.998921
43.708401 60.979111 12.813101
30.411552 66.037971 24.222446
29.20891 68.616066 21.75539
31.442776 67.438652 21.792873
35.909973 68.310822 17.577768
33.801628 69.618546 17.157104
35.073292 70.262993 14.90416
34.284019 72.087715 12.127665
32.391605 46.558701 46.652176
33.932755 44.273724 48.295395
35.825089 43.735325 47.554192
16.374691 86.690887 -7.043436
28.90942 80.220543 -10.320295
30.688951 79.099556 -12.19418
32.071434 78.540215 -9.580206
38.515862 73.969048 -5.37463
37.742599 74.784042 -8.076014
40.186836 72.595657 -7.333649
41.80806 70.911186 -9.163982
42.375633 70.173134 -6.588022
40.288101 69.30368 5.886543
39.966209 70.666252 3.042406
41.67717 68.25676 3.674017
46.293045 62.59259 0.3042
44.695259 65.439583 -0.488325
46.27409 63.750809 -2.357887
46.137569 64.773766 -4.971905
47.794388 61.931419 -4.02725
27.05143 73.574387 16.517834
24.849655 75.156479 16.592432
26.028671 75.861359 13.75661
25.192976 79.931984 5.165218
23.872635 79.926659 7.984209
22.653488 81.69323 5.001317
20.138826 83.514061 4.971479
21.298031 83.277618 1.981733
19.792988 84.664085 -1.04925
22.571205 82.891624 -0.847057
28.561878 80.160759 -5.380657
25.510965 81.803032 -5.969933
27.167192 81.096123 -8.244808
25.611229 81.844398 -11.020781
20.052036 67.17231 34.229591
20.699081 68.919571 31.404003
21.997629 65.638954 33.491749
25.625507 54.628075 41.608501
28.80549 57.076805 36.475025
26.72736 58.163994 36.914124
27.326855 59.799202 34.42733
25.918205 62.690849 32.320541
27.973896 61.394241 31.874409
28.68924 62.971497 29.294024
30.122581 60.262627 31.506844
36.146278 56.092651 32.81749
34.61882 58.481857 30.894043
36.846092 57.77607 30.54962
37.513268 59.448112 28.362274
38.938114 57.144608 30.086016
40.798035 56.558929 29.418407
40.345463 54.810249 31.609436
42.064461 48.327629 36.259468
42.735126 50.008789 34.042961
43.537132 47.53331 34.932106
39.170837 42.209087 45.282204
39.798649 43.72258 42.981613
40.532887 41.253193 43.796997
34.137535 75.827347 -15.345377
32.460945 75.498146 -17.374105
42.497871 60.875114 19.803398
43.763401 58.390656 20.494297
43.019272 59.047432 22.365921
43.408558 57.225021 24.826912
43.593399 55.401848 27.208395
37.842567 66.842842 18.05257
38.883751 67.004135 15.955522
39.571781 65.135139 18.575466
41.110725 63.143288 19.157965
34.85564 64.053177 24.281525
33.669502 66.369598 21.942146
35.805019 65.329666 22.160667
36.807125 66.279831 20.103254
18.918215 84.936897 -12.179604
31.507425 78.534103 -4.720491
33.263443 77.772858 -6.843147
34.280815 76.855499 -4.020182
36.828007 75.03653 -3.307901
39.121368 73.000427 -2.602858
43.325466 64.162605 7.12748
43.236031 65.61544 4.317026
44.710564 62.817429 5.003382
46.237007 61.319458 3.012003
47.840256 59.709091 1.199312
18.115324 75.353539 26.802029
20.583626 78.697037 17.151773
29.706429 74.887383 11.278677
27.337387 76.364365 11.023839
28.758575 76.66404 8.397055
27.744122 78.290794 5.459864
26.625414 79.783554 2.483613
25.37429 81.153404 -0.511421
28.164421 79.503685 -0.057846
29.798344 79.095047 -2.45895
29.227196 51.234344 43.064697
27.670059 53.752861 41.196117
29.760414 52.925285 40.801224
30.337673 54.529587 38.459114
30.960291 56.100433 36.056694
31.630676 57.682549 33.622734
33.181812 55.232872 35.623219
35.433701 54.458588 35.137016
37.652382 53.752701 34.556641
39.752956 53.0867 33.836708
39.064556 51.433655 36.09045
40.305241 49.10408 37.40081
41.302544 46.733582 38.476002
39.991467 71.638611 -13.880539
41.37339 69.24659 -15.218395
35.006794 73.736298 6.945076
36.518108 73.417274 4.651553
37.09663 72.022316 7.539865
38.958893 70.057175 8.138597
40.607986 67.810783 8.733498
39.920174 66.778 13.790841
40.973419 66.196777 11.571612
42.090843 65.306976 9.334266
43.469826 62.611221 9.963493
44.800854 59.808296 10.647892
26.098148 68.641853 24.601192
24.927242 71.489166 22.112213
27.02824 69.960045 21.859192
28.09831 71.145645 19.185482
29.305813 72.157234 16.596199
32.580631 68.657158 19.443682
31.576582 70.866142 16.818249
30.63114 72.952164 14.090561
32.043686 73.494728 11.656511
33.510841 73.76049 9.27863
28.73634 49.407097 45.24086
30.811104 48.856178 44.894859
32.886242 48.266335 44.4338
34.937813 47.613228 43.800728
36.929993 46.884636 42.969036
36.333321 45.364517 45.273598
37.586334 43.044563 46.545418
48.214554 61.39534 -10.213362
47.472328 61.739021 -12.417162
25.620995 80.975502 -15.441811
27.345013 79.293198 -16.935369
29.110023 79.37616 -14.652563
32.449871 77.654388 -13.867785
35.574879 75.775703 -13.102478
35.031242 76.749565 -8.826321
36.77108 75.405586 -10.666632
38.440037 73.703178 -12.356117
41.024174 71.418411 -11.611252
43.329369 68.934578 -10.834568
45.373108 66.295563 -9.982391
38.044209 72.803375 2.402258
39.592216 71.897942 0.209101
41.167694 70.708458 -1.909262
43.147884 66.955276 1.536165
43.006256 68.170631 -1.213892
42.762627 69.24942 -3.927542
44.344269 67.545631 -5.812847
45.848022 65.634361 -7.523504
47.17762 63.564949 -9.009121
48.760117 60.808647 -7.876961
23.807617 74.257088 19.516941
22.702797 76.886993 16.81078
21.571527 79.333237 13.996959
24.984348 77.982033 10.908309
22.665987 79.736649 10.933066
20.373133 81.563225 11.087981
18.143642 85.819099 -4.065702
19.356644 85.143913 -6.824348
23.974247 82.395111 -3.501226
22.421871 83.479271 -6.459515
20.727962 84.351204 -9.360111
22.253586 83.42865 -11.651333
23.902388 82.32798 -13.681353
19.412102 72.186325 29.182297
21.372128 70.501495 28.488174
23.314997 68.818039 27.881695
26.161884 56.452888 39.310287
24.714911 59.349205 37.410515
23.330132 62.42617 35.481232
23.938379 64.123039 32.857475
24.583601 65.71682 30.145172
25.292715 67.222412 27.378067
27.347429 65.781349 26.992592
29.495825 64.529633 26.730484
31.719633 63.464844 26.577734
32.352486 59.298859 31.19363
33.129448 60.938927 28.807482
33.963741 62.552795 26.496824
36.140465 61.74411 26.42823
38.137089 61.001091 26.293465
39.825981 60.337204 25.982677
41.07505 58.265701 27.285423
42.356575 55.991905 28.470741
43.539146 53.576126 29.53075
41.643219 52.433113 32.931885
43.244198 51.767548 31.805447
44.512398 51.069077 30.439949
38.812859 46.080658 41.936081
40.524921 45.211632 40.71262
42.002556 44.294792 39.312981
29.012093 77.222939 -18.176916
46.512215 61.791801 -14.4433
24.58775 79.798488 -18.405634
23.603229 79.491539 -19.492039
22.76569 80.50143 -18.856514
21.942872 81.490764 -18.180727
21.099725 82.317745 -17.399389
22.907063 81.63536 -16.988771
22.76569 80.50143 -18.856514
21.942872 81.490764 -18.180727
47.540711 56.372231 8.033112
46.850594 57.790283 7.603371
46.791847 57.078666 8.99974
48.316687 55.677334 7.128382
47.540711 56.372231 8.033112
33.727366 43.301908 49.364281
32.941854 44.473444 48.542431
34.664215 43.104166 49.039055
33.727366 43.301908 49.364281
16.044711 86.550777 -9.849647
15.451542 86.952889 -8.502449
16.967859 86.288776 -8.390635
48.604656 59.983173 -2.194006
48.565022 60.50882 -3.4878
47.834023 61.405773 -2.733456
20.717477 65.507874 35.193487
19.736995 66.214703 35.594692
21.690273 64.741196 34.824566
21.024833 66.405632 33.86067
20.717477 65.507874 35.193487
26.390995 53.279458 42.51486
25.372603 53.64333 42.712087
26.138091 52.294713 43.618447
43.396755 45.437386 36.358143
43.764906 46.266556 35.263546
43.168982 46.704139 36.026703
40.250989 40.471119 44.948853
39.851862 41.73114 44.5396
39.569964 40.949066 45.691456
36.45356 73.716228 -15.619319
34.920671 74.713405 -15.989191
35.670423 74.83017 -14.975505
18.732799 84.484902 -14.620793
17.975423 85.046089 -13.539496
19.675591 84.375709 -13.2609
48.541445 57.644924 3.056392
48.594776 58.280414 1.710485
47.786924 59.0736 2.545218
19.501005 75.18423 24.854985
18.495267 76.028389 25.198067
19.121063 74.50938 26.458948
20.718485 76.9207 20.126126
20.293202 76.382751 21.684136
21.320898 75.483474 21.44619
21.164904 77.35923 18.519976
20.137207 78.258507 18.757922
20.718485 76.9207 20.126126
43.132812 66.710831 -15.390379
44.22506 65.521912 -14.965757
45.59684 56.802524 13.882979
45.547548 57.588821 12.456871
45.818191 55.162426 16.725125
45.420299 55.687935 17.760611
44.563816 56.172207 22.161874
44.33524 57.081863 20.848962
43.991978 57.480999 21.807209
45.585053 53.534558 22.880384
45.691633 52.646534 24.198664
45.547548 57.588821 12.456871
45.458034 58.39339 11.028105
44.890367 59.003727 12.076658
29.314031 47.207527 47.185246
30.130299 45.988703 48.070839
29.540233 48.208095 46.142017
28.510138 48.406529 46.284088
29.314031 47.207527 47.185246
37.355045 42.202501 47.691086
36.705711 43.389944 47.049805
36.474423 42.547882 48.195473
38.124067 41.824974 47.071956
37.355045 42.202501 47.691086
48.525352 60.290329 -10.646897
48.891253 60.067203 -9.544549
20.268217 82.642483 8.0424
19.723203 82.557946 9.596345
20.918147 81.647762 9.534035
18.161957 85.171562 3.503375
18.894317 84.396183 5.022583
19.406467 84.28944 3.452271
17.385987 85.887996 1.978317
18.161957 85.171562 3.503375
17.871517 85.710236 0.41247
16.583397 86.533413 0.457724
17.385987 85.887996 1.978317
19.070238 71.349876 30.678104
18.401612 72.983177 29.569024
23.166661 58.083161 40.116196
23.887214 56.53875 40.958778
23.449331 59.063973 38.904655
23.166661 58.083161 40.116196
44.659253 48.886551 31.944893
44.850651 49.785736 30.807713
44.320999 50.169891 31.577129
31.51663 75.122742 -18.283065
33.207146 74.228676 -17.901512
47.216297 60.580933 -13.792059
46.992272 61.765411 -13.430231
47.696354 60.554542 -12.77899
24.414262 78.309116 -20.01461
23.603229 79.491539 -19.492039
26.227975 77.579395 -19.544337
24.414262 78.309116 -20.01461
20.29748 83.134349 -16.559162
19.482006 83.81044 -15.626544
21.248441 83.138431 -15.274815
20.29748 83.134349 -16.559162
21.099725 82.317745 -17.399389
48.406818 56.340561 5.765244
48.473886 57.017693 4.392434
47.666525 57.760979 5.263934
48.406818 56.340561 5.765244
48.316687 55.677334 7.128382
45.242233 64.260666 -14.508507
44.22506 65.521912 -14.965757
44.756523 65.564995 -13.981233
45.029075 56.191372 18.813626
45.420299 55.687935 17.760611
44.863743 57.042561 17.408458
45.794061 51.736 25.473286
45.691633 52.646534 24.198664
45.372142 53.062504 25.132006
45.810863 50.833805 26.731572
45.794061 51.736 25.473286
45.802155 49.918602 27.950585
45.810863 50.833805 26.731572
45.465862 51.236767 27.625641
45.703987 49.009788 29.145927
45.802155 49.918602 27.950585
31.14754 45.841129 47.916321
30.130299 45.988703 48.070839
32.171279 45.615932 47.720821
31.367866 46.783897 46.847675
31.14754 45.841129 47.916321
33.16218 45.416213 47.473785
32.171279 45.615932 47.720821
32.941854 44.473444 48.542431
35.610383 42.834967 48.668453
34.878922 44.004525 47.924793
34.664215 43.104166 49.039055
36.474423 42.547882 48.195473
35.610383 42.834967 48.668453
14.957094 87.332023 -7.072107
15.859343 87.017132 -5.585069
14.957094 87.332023 -7.072107
15.451542 86.952889 -8.502449
48.461298 60.978592 -4.737075
48.349691 61.431697 -6.00204
47.682781 62.384525 -5.292216
48.461298 60.978592 -4.737075
48.565022 60.50882 -3.4878
19.057896 67.911667 34.654243
19.736995 66.214703 35.594692
19.390205 68.842869 33.201752
19.057896 67.911667 34.654243
20.375559 68.045941 32.816797
19.713727 69.716499 31.788958
19.390205 68.842869 33.201752
24.62265 55.091801 41.859293
25.372603 53.64333 42.712087
24.890071 56.075024 40.707986
23.887214 56.53875 40.958778
24.62265 55.091801 41.859293
44.110265 47.127014 34.173977
44.4065 47.995712 33.065079
43.833366 48.402008 33.823208
44.110265 47.127014 34.173977
43.764906 46.266556 35.263546
34.082377 74.548805 -17.003555
33.29924 75.662746 -16.359741
34.920671 74.713405 -15.989191
33.207146 74.228676 -17.901512
34.082377 74.548805 -17.003555
17.304347 85.607776 -12.376359
16.625754 86.082661 -11.155473
18.239621 85.411781 -10.958718
17.304347 85.607776 -12.376359
17.975423 85.046089 -13.539496
18.732799 84.484902 -14.620793
19.482006 83.81044 -15.626544
48.620621 58.864826 0.403699
48.637321 59.450344 -0.915788
47.856956 60.294609 -0.120175
48.620621 58.864826 0.403699
48.594776 58.280414 1.710485
48.541445 57.644924 3.056392
48.473886 57.017693 4.392434
17.454009 76.846436 25.528509
17.071178 76.119671 27.179699
17.454009 76.846436 25.528509
18.495267 76.028389 25.198067
19.885413 75.824382 23.299152
19.501005 75.18423 24.854985
20.511208 74.305374 24.560033
19.885413 75.824382 23.299152
20.293202 76.382751 21.684136
19.517474 79.588798 17.372036
20.137207 78.258507 18.757922
19.978226 79.924808 15.726963
19.517474 79.588798 17.372036
39.339382 71.576404 -14.905107
37.945305 72.673596 -15.267653
38.597389 72.735802 -14.243086
40.030344 70.380394 -15.574034
39.339382 71.576404 -14.905107
40.682429 70.4426 -14.549467
40.677011 69.058468 -16.141088
40.030344 70.380394 -15.574034
41.949833 67.921006 -15.780335
42.55637 68.036416 -14.828439
43.132812 66.710831 -15.390379
41.253455 67.732883 -16.703028
40.677011 69.058468 -16.141088
41.949833 67.921006 -15.780335
45.734383 55.972507 15.307989
45.59684 56.802524 13.882979
45.117424 57.369141 14.930434
45.734383 55.972507 15.307989
45.818191 55.162426 16.725125
44.689798 56.659534 19.832549
44.11796 57.968327 19.477885
44.33524 57.081863 20.848962
45.029075 56.191372 18.813626
44.689798 56.659534 19.832549
45.088396 54.873055 22.530506
44.563816 56.172207 22.161874
44.745134 55.27219 23.488753
45.088396 54.873055 22.530506
45.585053 53.534558 22.880384
46.108473 57.737602 9.989158
45.451292 59.152507 9.608945
45.458034 58.39339 11.028105
46.791847 57.078666 8.99974
46.108473 57.737602 9.989158
26.917295 50.941429 44.489178
26.138091 52.294713 43.618447
27.707223 49.679558 45.398998
28.510138 48.406529 46.284088
27.946411 50.668969 44.33104
26.917295 50.941429 44.489178
27.707223 49.679558 45.398998
38.916319 41.407236 46.440349
38.378585 42.626825 45.913811
38.124067 41.824974 47.071956
39.569964 40.949066 45.691456
38.916319 41.407236 46.440349
48.15424 60.46217 -11.748797
47.843441 61.56718 -11.315262
48.525352 60.290329 -10.646897
47.696354 60.554542 -12.77899
48.15424 60.46217 -11.748797
16.044711 86.550777 -9.849647
16.625754 86.082661 -11.155473
49.164034 59.773857 -8.376348
48.891253 60.067203 -9.544549
48.487336 61.101993 -9.045161
48.944163 60.417206 -6.66193
48.165646 61.823139 -7.217071
48.349691 61.431697 -6.00204
49.44397 59.443748 -7.220881
48.944163 60.417206 -6.66193
49.164034 59.773857 -8.376348
49.44397 59.443748 -7.220881
48.604656 59.983173 -2.194006
48.637321 59.450344 -0.915788
20.472176 80.242908 14.149556
19.978226 79.924808 15.726963
21.077576 79.015137 15.574366
19.872979 81.357902 12.695067
20.472176 80.242908 14.149556
20.97233 80.448231 12.54247
19.22793 82.456474 11.223506
19.872979 81.357902 12.695067
19.22793 82.456474 11.223506
19.723203 82.557946 9.596345
19.60605 83.533364 6.538095
20.268217 82.642483 8.0424
20.800994 82.62318 6.475784
19.60605 83.533364 6.538095
18.894317 84.396183 5.022583
18.430958 85.509869 -1.078686
17.871517 85.710236 0.41247
19.233548 84.864452 0.441906
17.606285 86.087376 -2.586912
18.430958 85.509869 -1.078686
18.968315 85.241592 -2.557476
16.743818 86.581238 -4.096203
17.606285 86.087376 -2.586912
17.259166 86.254993 -5.554569
15.859343 87.017132 -5.585069
16.743818 86.581238 -4.096203
17.753222 74.566784 28.378889
17.071178 76.119671 27.179699
18.763713 73.769932 27.992163
17.753222 74.566784 28.378889
18.401612 72.983177 29.569024
20.055591 70.552948 30.29315
19.070238 71.349876 30.678104
19.713727 69.716499 31.788958
23.72947 59.977588 37.706177
23.449331 59.063973 38.904655
24.434773 58.435589 38.608993
23.03708 61.516071 36.741535
23.72947 59.977588 37.706177
24.022521 60.887687 36.445873
22.356524 63.134804 35.819308
23.03708 61.516071 36.741535
22.66388 64.032562 34.486491
21.690273 64.741196 34.824566
22.356524 63.134804 35.819308
45.323028 49.41198 30.010065
44.984775 50.695321 29.642301
44.850651 49.785736 30.807713
45.703987 49.009788 29.145927
45.323028 49.41198 30.010065
44.659253 48.886551 31.944893
44.4065 47.995712 33.065079
40.773947 39.950005 44.093263
40.250989 40.471119 44.948853
40.492048 39.16793 45.245119
41.084099 40.732432 42.962232
40.773947 39.950005 44.093263
41.429789 41.490347 41.830484
40.878577 42.011109 42.665249
41.084099 40.732432 42.962232
41.803364 42.266581 40.72588
41.429789 41.490347 41.830484
42.008887 40.987904 41.022863
42.192509 43.029465 39.61562
41.613411 43.531908 40.423241
41.803364 42.266581 40.72588
42.599184 43.822615 38.531537
42.192509 43.029465 39.61562
42.789137 42.557287 38.834176
42.998322 44.612703 37.435696
42.401694 45.08488 38.21714
42.599184 43.822615 38.531537
43.396755 45.437386 36.358143
42.998322 44.612703 37.435696
28.021377 76.796566 -19.112215
26.227975 77.579395 -19.544337
27.218691 78.005768 -18.609037
29.792204 75.985138 -18.684471
30.736519 76.360543 -17.77551
31.51663 75.122742 -18.283065
28.021377 76.796566 -19.112215
29.792204 75.985138 -18.684471
36.45356 73.716228 -15.619319
37.945305 72.673596 -15.267653
45.611492 63.004692 -14.968166
45.242233 64.260666 -14.508507
46.142956 63.047775 -13.983642
46.659275 60.521293 -14.730619
47.216297 60.580933 -13.792059
45.914289 61.652962 -15.348034
46.659275 60.521293 -14.730619
45.611492 63.004692 -14.968166
45.914289 61.652962 -15.348034
3 0 87 85
3 0 85 88
3 0 88 90
3 1 339 341
3 339 92 340
3 339 340 341
3 1 342 344
3 344 343 93
3 342 343 344
3 1 345 346
3 2 96 94
3 347 99 348
3 349 348 97
3 347 348 349
3 351 350 99
3 4 102 100
3 2 105 103
3 2 94 105
3 5 109 107
3 5 111 109
3 5 113 111
3 3 116 114
3 6 119 117
3 7 122 120
3 7 123 122
3 8 126 124
3 6 129 127
3 6 117 129
3 10 133 131
3 8 136 134
3 8 124 136
3 352 139 353
3 355 354 139
3 13 356 358
3 358 357 141
3 356 357 358
3 14 144 142
3 16 147 145
3 16 149 147
3 9 152 150
3 17 155 153
3 17 157 155
3 17 359 361
3 361 360 157
3 359 360 361
3 11 160 158
3 18 163 161
3 18 165 163
3 18 167 165
3 14 170 168
3 14 142 170
3 362 172 363
3 364 174 365
3 366 365 172
3 364 365 366
3 12 367 369
3 367 175 368
3 367 368 369
3 19 178 176
3 19 180 178
3 19 182 180
3 20 185 183
3 20 187 185
3 20 189 187
3 21 192 190
3 21 370 372
3 372 371 192
3 370 371 372
3 373 195 374
3 375 374 193
3 373 374 375
3 15 376 378
3 378 377 196
3 376 377 378
3 22 200 198
3 24 201 86
3 24 202 201
3 25 205 203
3 22 206 89
3 22 198 206
3 27 209 207
3 25 210 91
3 25 203 210
3 29 379 381
3 381 380 211
3 379 380 381
3 30 214 212
3 32 215 95
3 32 216 215
3 33 219 217
3 35 220 98
3 35 221 220
3 35 382 384
3 384 383 221
3 382 383 384
3 36 385 387
3 387 386 222
3 385 386 387
3 37 388 390
3 390 389 101
3 388 389 390
3 37 391 393
3 391 223 392
3 391 392 393
3 38 226 224
3 40 227 104
3 40 228 227
3 40 230 228
3 30 231 106
3 30 212 231
3 42 234 232
3 44 235 108
3 44 236 235
3 44 238 236
3 46 239 110
3 46 240 239
3 46 242 240
3 48 243 112
3 48 244 243
3 49 246 245
3 395 394 115
3 50 396 397
3 399 398 118
3 23 400 402
3 402 401 199
3 400 401 402
3 404 403 121
3 51 249 247
3 53 250 125
3 53 251 250
3 26 252 204
3 54 253 128
3 54 254 253
3 54 255 254
3 50 256 130
3 50 405 407
3 407 406 256
3 405 406 407
3 55 259 257
3 57 260 132
3 57 261 260
3 28 262 208
3 58 263 135
3 58 264 263
3 58 265 264
3 51 266 137
3 51 247 266
3 59 408 409
3 59 410 412
3 410 267 411
3 410 411 412
3 59 268 267
3 60 269 138
3 60 270 269
3 60 272 270
3 413 273 414
3 415 414 140
3 413 414 415
3 417 416 273
3 419 418 274
3 62 278 276
3 64 279 143
3 64 280 279
3 31 281 213
3 65 282 146
3 65 283 282
3 65 284 283
3 66 285 148
3 66 286 285
3 52 287 248
3 67 288 151
3 67 289 288
3 34 290 218
3 68 291 154
3 68 292 291
3 68 293 292
3 69 294 156
3 69 295 294
3 69 296 295
3 56 297 258
3 70 298 159
3 70 299 298
3 39 300 225
3 71 301 162
3 71 302 301
3 71 420 422
3 422 421 302
3 420 421 422
3 72 423 425
3 425 424 164
3 423 424 425
3 72 426 427
3 72 428 430
3 428 429 430
3 73 303 166
3 73 304 303
3 41 305 229
3 74 306 169
3 74 307 306
3 74 308 307
3 62 309 171
3 62 276 309
3 431 310 432
3 75 311 173
3 75 312 311
3 76 433 434
3 76 435 436
3 43 313 233
3 77 314 177
3 77 315 314
3 77 316 315
3 78 317 179
3 78 318 317
3 78 319 318
3 79 320 181
3 79 321 320
3 45 322 237
3 80 323 184
3 80 324 323
3 80 325 324
3 81 326 186
3 81 327 326
3 81 328 327
3 82 329 188
3 82 330 329
3 47 331 241
3 83 332 191
3 83 333 332
3 83 437 439
3 439 438 333
3 437 438 439
3 61 334 271
3 84 335 194
3 84 336 335
3 63 337 277
3 441 440 197
3 442 338 443
3 444 443 275
3 442 443 444
3 85 86 22
3 87 86 85
3 87 24 86
3 88 89 25
3 85 89 88
3 85 22 89
3 90 91 27
3 88 91 90
3 88 25 91
3 92 445 446
3 92 447 448
3 93 449 451
3 451 450 29
3 449 450 451
3 453 452 93
3 94 95 30
3 96 95 94
3 96 32 95
3 97 98 33
3 99 98 97
3 99 35 98
3 99 454 456
3 456 455 35
3 454 455 456
3 458 457 99
3 100 101 36
3 102 101 100
3 102 37 101
3 103 104 38
3 105 104 103
3 105 40 104
3 105 106 40
3 94 106 105
3 94 30 106
3 107 108 42
3 109 108 107
3 109 44 108
3 109 110 44
3 111 110 109
3 111 46 110
3 111 112 46
3 113 112 111
3 113 48 112
3 114 115 49
3 116 115 114
3 116 459 461
3 461 460 115
3 459 460 461
3 117 118 50
3 119 118 117
3 119 462 464
3 464 463 118
3 462 463 464
3 120 121 23
3 122 121 120
3 122 465 467
3 467 466 121
3 465 466 467
3 122 468 469
3 123 470 472
3 472 471 122
3 470 471 472
3 123 473 474
3 124 125 51
3 126 125 124
3 126 53 125
3 127 128 26
3 129 128 127
3 129 54 128
3 129 130 54
3 117 130 129
3 117 50 130
3 131 132 55
3 133 132 131
3 133 57 132
3 134 135 28
3 136 135 134
3 136 58 135
3 136 137 58
3 124 137 136
3 124 51 137
3 475 59 476
3 477 138 478
3 479 478 59
3 477 478 479
3 139 480 482
3 480 138 481
3 480 481 482
3 139 60 138
3 139 140 60
3 483 140 484
3 485 484 139
3 483 484 485
3 487 486 140
3 141 488 489
3 491 490 141
3 142 143 62
3 144 143 142
3 144 64 143
3 145 146 31
3 147 146 145
3 147 65 146
3 147 148 65
3 149 148 147
3 149 66 148
3 150 151 52
3 152 151 150
3 152 67 151
3 153 154 34
3 155 154 153
3 155 68 154
3 155 156 68
3 157 156 155
3 157 69 156
3 157 492 494
3 494 493 69
3 492 493 494
3 496 495 157
3 158 159 56
3 160 159 158
3 160 70 159
3 161 162 39
3 163 162 161
3 163 71 162
3 163 164 71
3 165 164 163
3 165 72 164
3 165 166 72
3 167 166 165
3 167 73 166
3 168 169 41
3 170 169 168
3 170 74 169
3 170 171 74
3 142 171 170
3 142 62 171
3 172 497 498
3 172 499 500
3 172 501 503
3 501 173 502
3 501 502 503
3 174 173 172
3 174 75 173
3 175 504 505
3 175 506 508
3 506 76 507
3 506 507 508
3 176 177 43
3 178 177 176
3 178 77 177
3 178 179 77
3 180 179 178
3 180 78 179
3 180 181 78
3 182 181 180
3 182 79 181
3 183 184 45
3 185 184 183
3 185 80 184
3 185 186 80
3 187 186 185
3 187 81 186
3 187 188 81
3 189 188 187
3 189 82 188
3 190 191 47
3 192 191 190
3 192 83 191
3 192 509 511
3 511 510 83
3 509 510 511
3 513 512 192
3 193 194 61
3 195 194 193
3 195 84 194
3 196 197 63
3 514 197 515
3 516 515 196
3 514 515 516
3 518 517 197
3 198 199 6
3 200 199 198
3 200 23 199
3 86 200 22
3 201 200 86
3 201 23 200
3 201 120 23
3 202 120 201
3 202 7 120
3 203 204 8
3 205 204 203
3 205 26 204
3 89 205 25
3 206 205 89
3 206 26 205
3 206 127 26
3 198 127 206
3 198 6 127
3 207 208 10
3 209 208 207
3 209 28 208
3 91 209 27
3 210 209 91
3 210 28 209
3 210 134 28
3 203 134 210
3 203 8 134
3 211 519 521
3 521 520 13
3 519 520 521
3 523 522 211
3 525 524 29
3 212 213 14
3 214 213 212
3 214 31 213
3 95 214 30
3 215 214 95
3 215 31 214
3 215 145 31
3 216 145 215
3 216 16 145
3 217 218 9
3 219 218 217
3 219 34 218
3 98 219 33
3 220 219 98
3 220 34 219
3 220 153 34
3 221 153 220
3 221 17 153
3 221 526 528
3 528 527 17
3 526 527 528
3 530 529 221
3 532 531 35
3 222 533 534
3 536 535 222
3 101 537 539
3 539 538 36
3 537 538 539
3 541 540 101
3 223 542 543
3 223 544 545
3 224 225 11
3 226 225 224
3 226 39 225
3 104 226 38
3 227 226 104
3 227 39 226
3 227 161 39
3 228 161 227
3 228 18 161
3 228 229 18
3 230 229 228
3 230 41 229
3 106 230 40
3 231 230 106
3 231 41 230
3 231 168 41
3 212 168 231
3 212 14 168
3 232 233 12
3 234 233 232
3 234 43 233
3 108 234 42
3 235 234 108
3 235 43 234
3 235 176 43
3 236 176 235
3 236 19 176
3 236 237 19
3 238 237 236
3 238 45 237
3 110 238 44
3 239 238 110
3 239 45 238
3 239 183 45
3 240 183 239
3 240 20 183
3 240 241 20
3 242 241 240
3 242 47 241
3 112 242 46
3 243 242 112
3 243 47 242
3 243 190 47
3 244 190 243
3 244 21 190
3 245 546 548
3 548 547 15
3 546 547 548
3 246 549 551
3 551 550 245
3 549 550 551
3 246 552 553
3 115 246 49
3 554 246 555
3 556 555 115
3 554 555 556
3 559 558 246
3 557 558 559
3 118 560 562
3 562 561 50
3 560 561 562
3 564 563 118
3 199 119 6
3 565 119 566
3 567 566 199
3 565 566 567
3 569 568 119
3 121 570 572
3 572 571 23
3 570 571 572
3 574 573 121
3 247 248 2
3 249 248 247
3 249 52 248
3 125 249 51
3 250 249 125
3 250 52 249
3 250 150 52
3 251 150 250
3 251 9 150
3 204 126 8
3 252 126 204
3 252 53 126
3 128 252 26
3 253 252 128
3 253 53 252
3 253 251 53
3 254 251 253
3 254 9 251
3 254 217 9
3 255 217 254
3 255 33 217
3 130 255 54
3 256 255 130
3 256 33 255
3 256 97 33
3 575 97 576
3 577 576 256
3 575 576 577
3 579 578 97
3 257 258 4
3 259 258 257
3 259 56 258
3 132 259 55
3 260 259 132
3 260 56 259
3 260 158 56
3 261 158 260
3 261 11 158
3 208 133 10
3 262 133 208
3 262 57 133
3 135 262 28
3 263 262 135
3 263 57 262
3 263 261 57
3 264 261 263
3 264 11 261
3 264 224 11
3 265 224 264
3 265 38 224
3 137 265 58
3 266 265 137
3 266 38 265
3 266 103 38
3 247 103 266
3 247 2 103
3 580 12 581
3 267 582 583
3 267 584 586
3 584 12 585
3 584 585 586
3 267 232 12
3 268 232 267
3 268 42 232
3 138 268 59
3 269 268 138
3 269 42 268
3 269 107 42
3 270 107 269
3 270 5 107
3 270 271 5
3 272 271 270
3 272 61 271
3 140 272 60
3 273 272 140
3 273 61 272
3 273 193 61
3 587 193 588
3 589 588 273
3 587 588 589
3 591 590 193
3 274 275 3
3 592 275 593
3 594 593 274
3 592 593 594
3 596 595 275
3 598 597 13
3 276 277 1
3 278 277 276
3 278 63 277
3 143 278 62
3 279 278 143
3 279 63 278
3 279 196 63
3 280 196 279
3 280 15 196
3 213 144 14
3 281 144 213
3 281 64 144
3 146 281 31
3 282 281 146
3 282 64 281
3 282 280 64
3 283 280 282
3 283 15 280
3 283 245 15
3 284 245 283
3 284 49 245
3 148 284 65
3 285 284 148
3 285 49 284
3 285 114 49
3 286 114 285
3 286 3 114
3 248 96 2
3 287 96 248
3 287 32 96
3 151 287 52
3 288 287 151
3 288 32 287
3 288 216 32
3 289 216 288
3 289 16 216
3 218 152 9
3 290 152 218
3 290 67 152
3 154 290 34
3 291 290 154
3 291 67 290
3 291 289 67
3 292 289 291
3 292 16 289
3 292 149 16
3 293 149 292
3 293 66 149
3 156 293 68
3 294 293 156
3 294 66 293
3 294 286 66
3 295 286 294
3 295 3 286
3 295 274 3
3 296 274 295
3 296 599 601
3 601 600 274
3 599 600 601
3 602 296 603
3 604 603 69
3 602 603 604
3 605 296 606
3 608 607 296
3 610 609 17
3 258 102 4
3 297 102 258
3 297 37 102
3 159 297 56
3 298 297 159
3 298 37 297
3 298 223 37
3 299 223 298
3 299 611 613
3 613 612 223
3 611 612 613
3 225 160 11
3 300 160 225
3 300 70 160
3 162 300 39
3 301 300 162
3 301 70 300
3 301 299 70
3 302 299 301
3 302 614 616
3 616 615 299
3 614 615 616
3 302 617 618
3 620 619 302
3 164 621 623
3 623 622 71
3 621 622 623
3 625 624 164
3 166 626 628
3 628 627 72
3 626 627 628
3 303 629 631
3 631 630 166
3 629 630 631
3 303 632 633
3 303 634 636
3 634 141 635
3 634 635 636
3 304 141 303
3 304 13 141
3 229 167 18
3 305 167 229
3 305 73 167
3 169 305 41
3 306 305 169
3 306 73 305
3 306 304 73
3 307 304 306
3 307 13 304
3 307 211 13
3 308 211 307
3 308 29 211
3 171 308 74
3 309 308 171
3 309 29 308
3 309 93 29
3 276 93 309
3 276 1 93
3 637 222 638
3 310 639 641
3 639 222 640
3 639 640 641
3 310 36 222
3 173 642 644
3 642 310 643
3 642 643 644
3 311 310 173
3 311 36 310
3 311 100 36
3 312 100 311
3 312 4 100
3 233 175 12
3 313 175 233
3 313 76 175
3 177 313 43
3 314 313 177
3 314 76 313
3 314 645 647
3 647 646 76
3 645 646 647
3 315 648 650
3 650 649 314
3 648 649 650
3 315 651 652
3 315 653 655
3 653 174 654
3 653 654 655
3 316 174 315
3 316 75 174
3 179 316 77
3 317 316 179
3 317 75 316
3 317 312 75
3 318 312 317
3 318 4 312
3 318 257 4
3 319 257 318
3 319 55 257
3 181 319 78
3 320 319 181
3 320 55 319
3 320 131 55
3 321 131 320
3 321 10 131
3 237 182 19
3 322 182 237
3 322 79 182
3 184 322 45
3 323 322 184
3 323 79 322
3 323 321 79
3 324 321 323
3 324 10 321
3 324 207 10
3 325 207 324
3 325 27 207
3 186 325 80
3 326 325 186
3 326 27 325
3 326 90 27
3 327 90 326
3 327 0 90
3 327 87 0
3 328 87 327
3 328 24 87
3 188 328 81
3 329 328 188
3 329 24 328
3 329 202 24
3 330 202 329
3 330 7 202
3 241 189 20
3 331 189 241
3 331 82 189
3 191 331 47
3 332 331 191
3 332 82 331
3 332 330 82
3 333 330 332
3 333 7 330
3 333 123 7
3 656 123 657
3 658 657 333
3 656 657 658
3 660 659 123
3 662 661 83
3 271 113 5
3 334 113 271
3 334 48 113
3 194 334 61
3 335 334 194
3 335 48 334
3 335 244 48
3 336 244 335
3 336 21 244
3 663 195 664
3 663 664 665
3 666 195 667
3 668 84 669
3 670 669 195
3 668 669 670
3 671 84 672
3 671 672 673
3 674 336 675
3 676 675 84
3 674 675 676
3 677 336 678
3 677 678 679
3 680 21 681
3 682 681 336
3 680 681 682
3 684 683 21
3 277 92 1
3 337 92 277
3 337 685 687
3 687 686 92
3 685 686 687
3 197 337 63
3 688 337 689
3 690 689 197
3 688 689 690
3 692 691 337
3 694 693 15
3 275 116 3
3 338 116 275
3 338 695 697
3 697 696 116
3 695 696 697
3 698 338 699
3 700 338 701
3 703 702 338
